<?xml version="1.0" encoding="utf-8"?>
<svg version="1.1" xmlns:xlink="http://www.w3.org/1999/xlink" width="91px" height="91px" xmlns="http://www.w3.org/2000/svg">
  <g transform="matrix(1 0 0 1 -581 -2888 )">
    <path d="M 626.5 2888.5  C 651.7 2888.5  671.5 2908.3  671.5 2933.5  C 671.5 2958.7  651.7 2978.5  626.5 2978.5  C 601.3 2978.5  581.5 2958.7  581.5 2933.5  C 581.5 2908.3  601.3 2888.5  626.5 2888.5  Z " fill-rule="nonzero" fill="#a29bfe" stroke="none" />
    <path d="M 626.5 2888.5  C 651.7 2888.5  671.5 2908.3  671.5 2933.5  C 671.5 2958.7  651.7 2978.5  626.5 2978.5  C 601.3 2978.5  581.5 2958.7  581.5 2933.5  C 581.5 2908.3  601.3 2888.5  626.5 2888.5  Z " stroke-width="1" stroke="#505050" fill="none" stroke-opacity="0.211764705882353" />
  </g>
</svg>