<?xml version="1.0" encoding="utf-8"?>
<svg version="1.1" xmlns:xlink="http://www.w3.org/1999/xlink" width="91px" height="91px" xmlns="http://www.w3.org/2000/svg">
  <g transform="matrix(1 0 0 1 -581 -3063 )">
    <path d="M 626.5 3063.5  C 651.7 3063.5  671.5 3083.3  671.5 3108.5  C 671.5 3133.7  651.7 3153.5  626.5 3153.5  C 601.3 3153.5  581.5 3133.7  581.5 3108.5  C 581.5 3083.3  601.3 3063.5  626.5 3063.5  Z " fill-rule="nonzero" fill="#0984e3" stroke="none" />
    <path d="M 626.5 3063.5  C 651.7 3063.5  671.5 3083.3  671.5 3108.5  C 671.5 3133.7  651.7 3153.5  626.5 3153.5  C 601.3 3153.5  581.5 3133.7  581.5 3108.5  C 581.5 3083.3  601.3 3063.5  626.5 3063.5  Z " stroke-width="1" stroke="#505050" fill="none" stroke-opacity="0.211764705882353" />
  </g>
</svg>