<?xml version="1.0" encoding="utf-8"?>
<svg version="1.1" xmlns:xlink="http://www.w3.org/1999/xlink" width="18px" height="26px" xmlns="http://www.w3.org/2000/svg">
  <defs>
    <mask fill="white" id="clip532">
      <path d="M 17.8316886279472 3.28904481332881  C 17.8316886279472 3.28904481332881  16.490999768213 7.42931637798293  16.490999768213 7.42931637798293  C 16.490999768213 7.42931637798293  11.844012509011 19.9675443433781  11.844012509011 19.9675443433781  C 11.844012509011 19.9675443433781  6.53496115500548 25.4990903073918  6.53496115500548 25.4990903073918  C 6.53496115500548 25.4990903073918  2.4660943486665 19.8042597273763  2.4660943486665 19.8042597273763  C 2.4660943486665 19.8042597273763  1.5879018512228 14.7737514891766  1.5879018512228 14.7737514891766  C 1.5879018512228 14.7737514891766  6.13027683800192 6.44289835528565  6.13027683800192 6.44289835528565  C 6.13027683800192 6.44289835528565  14.3079068200218 1.23568484771417  14.3079068200218 1.23568484771417  C 14.3079068200218 1.23568484771417  17.8316886279472 3.28904481332881  17.8316886279472 3.28904481332881  Z " fill-rule="evenodd" />
    </mask>
  </defs>
  <g transform="matrix(1 0 0 1 -2715 -1875 )">
    <path d="M 17.8316886279472 3.28904481332881  C 17.8316886279472 3.28904481332881  16.490999768213 7.42931637798293  16.490999768213 7.42931637798293  C 16.490999768213 7.42931637798293  11.844012509011 19.9675443433781  11.844012509011 19.9675443433781  C 11.844012509011 19.9675443433781  6.53496115500548 25.4990903073918  6.53496115500548 25.4990903073918  C 6.53496115500548 25.4990903073918  2.4660943486665 19.8042597273763  2.4660943486665 19.8042597273763  C 2.4660943486665 19.8042597273763  1.5879018512228 14.7737514891766  1.5879018512228 14.7737514891766  C 1.5879018512228 14.7737514891766  6.13027683800192 6.44289835528565  6.13027683800192 6.44289835528565  C 6.13027683800192 6.44289835528565  14.3079068200218 1.23568484771417  14.3079068200218 1.23568484771417  C 14.3079068200218 1.23568484771417  17.8316886279472 3.28904481332881  17.8316886279472 3.28904481332881  Z " fill-rule="nonzero" fill="#a29bfe" stroke="none" transform="matrix(1 0 0 1 2715 1875 )" />
    <path d="M 17.8316886279472 3.28904481332881  C 17.8316886279472 3.28904481332881  16.490999768213 7.42931637798293  16.490999768213 7.42931637798293  C 16.490999768213 7.42931637798293  11.844012509011 19.9675443433781  11.844012509011 19.9675443433781  C 11.844012509011 19.9675443433781  6.53496115500548 25.4990903073918  6.53496115500548 25.4990903073918  C 6.53496115500548 25.4990903073918  2.4660943486665 19.8042597273763  2.4660943486665 19.8042597273763  C 2.4660943486665 19.8042597273763  1.5879018512228 14.7737514891766  1.5879018512228 14.7737514891766  C 1.5879018512228 14.7737514891766  6.13027683800192 6.44289835528565  6.13027683800192 6.44289835528565  C 6.13027683800192 6.44289835528565  14.3079068200218 1.23568484771417  14.3079068200218 1.23568484771417  C 14.3079068200218 1.23568484771417  17.8316886279472 3.28904481332881  17.8316886279472 3.28904481332881  Z " stroke-width="2" stroke="#505050" fill="none" stroke-opacity="0.211764705882353" transform="matrix(1 0 0 1 2715 1875 )" mask="url(#clip532)" />
  </g>
</svg>