<?xml version="1.0" encoding="utf-8"?>
<svg version="1.1" xmlns:xlink="http://www.w3.org/1999/xlink" width="46px" height="29px" xmlns="http://www.w3.org/2000/svg">
  <defs>
    <mask fill="white" id="clip533">
      <path d="M 17.9212378909908 24.8040242584258  C 17.9212378909908 24.8040242584258  13.9624892661493 23.7283434960064  13.9624892661493 23.7283434960064  C 13.9624892661493 23.7283434960064  13.343074495225 21.1483904173911  13.343074495225 21.1483904173911  C 13.343074495225 21.1483904173911  14.1689608564573 18.3604443788549  14.1689608564573 18.3604443788549  C 14.1689608564573 18.3604443788549  10.7552972300293 16.7364185402804  10.7552972300293 16.7364185402804  C 10.7552972300293 16.7364185402804  2.67262270809988 13.4116989761367  2.67262270809988 13.4116989761367  C 2.67262270809988 13.4116989761367  1.03186180378475 4.66338902552268  1.03186180378475 4.66338902552268  C 1.03186180378475 4.66338902552268  9.87159882351034 1.42164016534073  9.87159882351034 1.42164016534073  C 9.87159882351034 1.42164016534073  24.8159910585625 2.1023443978093  24.8159910585625 2.1023443978093  C 24.8159910585625 2.1023443978093  32.3976278546775 1.05397584224829  32.3976278546775 1.05397584224829  C 32.3976278546775 1.05397584224829  33.4822919424296 3.25575990282546  33.4822919424296 3.25575990282546  C 33.4822919424296 3.25575990282546  37.5897001122933 3.93226225731579  37.5897001122933 3.93226225731579  C 37.5897001122933 3.93226225731579  45.0089125906989 9.01443367194963  45.0089125906989 9.01443367194963  C 45.0089125906989 9.01443367194963  45.7356925885836 13.6512060208942  45.7356925885836 13.6512060208942  C 45.7356925885836 13.6512060208942  39.4066501070047 18.4591885113426  39.4066501070047 18.4591885113426  C 39.4066501070047 18.4591885113426  37.6144767031299 24.1821463176521  37.6144767031299 24.1821463176521  C 37.6144767031299 24.1821463176521  29.2344830911568 27.9575336810656  29.2344830911568 27.9575336810656  C 29.2344830911568 27.9575336810656  19.7739762946892 27.8903036334143  19.7739762946892 27.8903036334143  C 19.7739762946892 27.8903036334143  17.9212378909908 24.8040242584258  17.9212378909908 24.8040242584258  Z " fill-rule="evenodd" />
    </mask>
  </defs>
  <g transform="matrix(1 0 0 1 -1954 -1620 )">
    <path d="M 17.9212378909908 24.8040242584258  C 17.9212378909908 24.8040242584258  13.9624892661493 23.7283434960064  13.9624892661493 23.7283434960064  C 13.9624892661493 23.7283434960064  13.343074495225 21.1483904173911  13.343074495225 21.1483904173911  C 13.343074495225 21.1483904173911  14.1689608564573 18.3604443788549  14.1689608564573 18.3604443788549  C 14.1689608564573 18.3604443788549  10.7552972300293 16.7364185402804  10.7552972300293 16.7364185402804  C 10.7552972300293 16.7364185402804  2.67262270809988 13.4116989761367  2.67262270809988 13.4116989761367  C 2.67262270809988 13.4116989761367  1.03186180378475 4.66338902552268  1.03186180378475 4.66338902552268  C 1.03186180378475 4.66338902552268  9.87159882351034 1.42164016534073  9.87159882351034 1.42164016534073  C 9.87159882351034 1.42164016534073  24.8159910585625 2.1023443978093  24.8159910585625 2.1023443978093  C 24.8159910585625 2.1023443978093  32.3976278546775 1.05397584224829  32.3976278546775 1.05397584224829  C 32.3976278546775 1.05397584224829  33.4822919424296 3.25575990282546  33.4822919424296 3.25575990282546  C 33.4822919424296 3.25575990282546  37.5897001122933 3.93226225731579  37.5897001122933 3.93226225731579  C 37.5897001122933 3.93226225731579  45.0089125906989 9.01443367194963  45.0089125906989 9.01443367194963  C 45.0089125906989 9.01443367194963  45.7356925885836 13.6512060208942  45.7356925885836 13.6512060208942  C 45.7356925885836 13.6512060208942  39.4066501070047 18.4591885113426  39.4066501070047 18.4591885113426  C 39.4066501070047 18.4591885113426  37.6144767031299 24.1821463176521  37.6144767031299 24.1821463176521  C 37.6144767031299 24.1821463176521  29.2344830911568 27.9575336810656  29.2344830911568 27.9575336810656  C 29.2344830911568 27.9575336810656  19.7739762946892 27.8903036334143  19.7739762946892 27.8903036334143  C 19.7739762946892 27.8903036334143  17.9212378909908 24.8040242584258  17.9212378909908 24.8040242584258  Z " fill-rule="nonzero" fill="#f2f2f2" stroke="none" transform="matrix(1 0 0 1 1954 1620 )" />
    <path d="M 17.9212378909908 24.8040242584258  C 17.9212378909908 24.8040242584258  13.9624892661493 23.7283434960064  13.9624892661493 23.7283434960064  C 13.9624892661493 23.7283434960064  13.343074495225 21.1483904173911  13.343074495225 21.1483904173911  C 13.343074495225 21.1483904173911  14.1689608564573 18.3604443788549  14.1689608564573 18.3604443788549  C 14.1689608564573 18.3604443788549  10.7552972300293 16.7364185402804  10.7552972300293 16.7364185402804  C 10.7552972300293 16.7364185402804  2.67262270809988 13.4116989761367  2.67262270809988 13.4116989761367  C 2.67262270809988 13.4116989761367  1.03186180378475 4.66338902552268  1.03186180378475 4.66338902552268  C 1.03186180378475 4.66338902552268  9.87159882351034 1.42164016534073  9.87159882351034 1.42164016534073  C 9.87159882351034 1.42164016534073  24.8159910585625 2.1023443978093  24.8159910585625 2.1023443978093  C 24.8159910585625 2.1023443978093  32.3976278546775 1.05397584224829  32.3976278546775 1.05397584224829  C 32.3976278546775 1.05397584224829  33.4822919424296 3.25575990282546  33.4822919424296 3.25575990282546  C 33.4822919424296 3.25575990282546  37.5897001122933 3.93226225731579  37.5897001122933 3.93226225731579  C 37.5897001122933 3.93226225731579  45.0089125906989 9.01443367194963  45.0089125906989 9.01443367194963  C 45.0089125906989 9.01443367194963  45.7356925885836 13.6512060208942  45.7356925885836 13.6512060208942  C 45.7356925885836 13.6512060208942  39.4066501070047 18.4591885113426  39.4066501070047 18.4591885113426  C 39.4066501070047 18.4591885113426  37.6144767031299 24.1821463176521  37.6144767031299 24.1821463176521  C 37.6144767031299 24.1821463176521  29.2344830911568 27.9575336810656  29.2344830911568 27.9575336810656  C 29.2344830911568 27.9575336810656  19.7739762946892 27.8903036334143  19.7739762946892 27.8903036334143  C 19.7739762946892 27.8903036334143  17.9212378909908 24.8040242584258  17.9212378909908 24.8040242584258  Z " stroke-width="2" stroke="#505050" fill="none" stroke-opacity="0.211764705882353" transform="matrix(1 0 0 1 1954 1620 )" mask="url(#clip533)" />
  </g>
</svg>