<?xml version="1.0" encoding="utf-8"?>
<svg version="1.1" xmlns:xlink="http://www.w3.org/1999/xlink" width="73px" height="120px" xmlns="http://www.w3.org/2000/svg">
  <defs>
    <mask fill="white" id="clip538">
      <path d="M 64.1665467735608 53.1138005655188  C 64.1665467735608 53.1138005655188  59.681104416035 54.5875250594586  59.681104416035 54.5875250594586  C 59.681104416035 54.5875250594586  55.1175087380299 57.3462000219133  55.1175087380299 57.3462000219133  C 55.1175087380299 57.3462000219133  49.5909525041153 57.6315062194298  49.5909525041153 57.6315062194298  C 49.5909525041153 57.6315062194298  46.0238116622249 66.0330061995128  46.0238116622249 66.0330061995128  C 46.0238116622249 66.0330061995128  42.7190426819445 67.1785213083393  42.7190426819445 67.1785213083393  C 42.7190426819445 67.1785213083393  46.5038963451712 72.6958712332486  46.5038963451712 72.6958712332486  C 46.5038963451712 72.6958712332486  51.4694233856428 77.2650607122756  51.4694233856428 77.2650607122756  C 51.4694233856428 77.2650607122756  54.6737095253063 81.3773312434001  54.6737095253063 81.3773312434001  C 54.6737095253063 81.3773312434001  51.8099485677325 86.7788425617987  51.8099485677325 86.7788425617987  C 51.8099485677325 86.7788425617987  49.1080766311521 87.9222125112456  49.1080766311521 87.9222125112456  C 49.1080766311521 87.9222125112456  50.9753827526112 91.0241129744722  50.9753827526112 91.0241129744722  C 50.9753827526112 91.0241129744722  56.1949080846413 95.9236569979922  56.1949080846413 95.9236569979922  C 56.1949080846413 95.9236569979922  57.0908800801395 99.3559120057118  57.0908800801395 99.3559120057118  C 57.0908800801395 99.3559120057118  56.9680677193862 102.204683662119  56.9680677193862 102.204683662119  C 56.9680677193862 102.204683662119  60.0272119781591 107.784243209044  60.0272119781591 107.784243209044  C 60.0272119781591 107.784243209044  55.7287793517809 113.46891556558  55.7287793517809 113.46891556558  C 55.7287793517809 113.46891556558  51.9383433085202 119.71347452025  51.9383433085202 119.71347452025  C 51.9383433085202 119.71347452025  51.1847220038956 115.204349503858  51.1847220038956 115.204349503858  C 51.1847220038956 115.204349503858  53.5879366086435 110.540773012119  53.5879366086435 110.540773012119  C 53.5879366086435 110.540773012119  50.9558444224914 106.928324616494  50.9558444224914 106.928324616494  C 50.9558444224914 106.928324616494  51.5922357463961 100.256878945239  51.5922357463961 100.256878945239  C 51.5922357463961 100.256878945239  48.4158615069044 97.0734624255786  48.4158615069044 97.0734624255786  C 48.4158615069044 97.0734624255786  45.8647138312485 89.694114158981  45.8647138312485 89.694114158981  C 45.8647138312485 89.694114158981  44.4495804925644 81.8599921038606  44.4495804925644 81.8599921038606  C 44.4495804925644 81.8599921038606  41.0666581918047 76.6944483172422  41.0666581918047 76.6944483172422  C 41.0666581918047 76.6944483172422  33.8835524523902 79.8242358524068  33.8835524523902 79.8242358524068  C 33.8835524523902 79.8242358524068  24.9880298678013 84.2604254498845  24.9880298678013 84.2604254498845  C 24.9880298678013 84.2604254498845  20.600279160875 83.7069743298898  20.600279160875 83.7069743298898  C 20.600279160875 83.7069743298898  15.7519821011227 82.2482659516087  15.7519821011227 82.2482659516087  C 15.7519821011227 82.2482659516087  18.4482716576691 74.5171115467202  18.4482716576691 74.5171115467202  C 18.4482716576691 74.5171115467202  16.8154254976487 68.6393748459999  16.8154254976487 68.6393748459999  C 16.8154254976487 68.6393748459999  10.6803898400001 61.3565587514947  10.6803898400001 61.3565587514947  C 10.6803898400001 61.3565587514947  11.6377680158752 57.5135224535395  11.6377680158752 57.5135224535395  C 11.6377680158752 57.5135224535395  7.05742519776727 56.6983618892063  7.05742519776727 56.6983618892063  C 7.05742519776727 56.6983618892063  1.50574825369842 51.4984955525107  1.50574825369842 51.4984955525107  C 1.50574825369842 51.4984955525107  0.994960480563944 46.3436775627916  0.994960480563944 46.3436775627916  C 0.994960480563944 46.3436775627916  3.72474431731558 47.3154347618524  3.72474431731558 47.3154347618524  C 3.72474431731558 47.3154347618524  3.88663333830899 42.6990517764692  3.88663333830899 42.6990517764692  C 3.88663333830899 42.6990517764692  7.74684913199752 41.1674079792742  7.74684913199752 41.1674079792742  C 7.74684913199752 41.1674079792742  6.92065688692764 38.4194588137185  6.92065688692764 38.4194588137185  C 6.92065688692764 38.4194588137185  8.68748016777023 36.2077994931191  8.68748016777023 36.2077994931191  C 8.68748016777023 36.2077994931191  8.99171987963724 29.4548377654306  8.99171987963724 29.4548377654306  C 8.99171987963724 29.4548377654306  15.107217207166 30.9478686937886  15.107217207166 30.9478686937886  C 15.107217207166 30.9478686937886  18.5962047285767 25.5377767378704  18.5962047285767 25.5377767378704  C 18.5962047285767 25.5377767378704  18.9953449010258 22.3243279868926  18.9953449010258 22.3243279868926  C 18.9953449010258 22.3243279868926  23.3133158575238 16.7597845556272  23.3133158575238 16.7597845556272  C 23.3133158575238 16.7597845556272  23.0760647060681 12.9435460189185  23.0760647060681 12.9435460189185  C 23.0760647060681 12.9435460189185  33.2080844682449 8.30571143973748  33.2080844682449 8.30571143973748  C 33.2080844682449 8.30571143973748  40.8294070403486 9.52201680809818  40.8294070403486 9.52201680809818  C 40.8294070403486 9.52201680809818  40.1846421463919 5.37542372689651  40.1846421463919 5.37542372689651  C 40.1846421463919 5.37542372689651  42.9283819332294 4.13552160535789  42.9283819332294 4.13552160535789  C 42.9283819332294 4.13552160535789  42.3394408396152 1.56347550894762  42.3394408396152 1.56347550894762  C 42.3394408396152 1.56347550894762  46.9169924677061 1.0593630546889  46.9169924677061 1.0593630546889  C 46.9169924677061 1.0593630546889  49.5323375137554 5.04935950116329  49.5323375137554 5.04935950116329  C 49.5323375137554 5.04935950116329  52.9459629047038 6.66037419541161  52.9459629047038 6.66037419541161  C 52.9459629047038 6.66037419541161  53.1776316761255 11.8044663882318  53.1776316761255 11.8044663882318  C 53.1776316761255 11.8044663882318  52.8622272041901 17.3110905162421  52.8622272041901 17.3110905162421  C 52.8622272041901 17.3110905162421  45.4516177087136 22.8456017161901  45.4516177087136 22.8456017161901  C 45.4516177087136 22.8456017161901  44.5109866729413 30.6432560618536  44.5109866729413 30.6432560618536  C 44.5109866729413 30.6432560618536  52.7729091236415 29.5556602562825  52.7729091236415 29.5556602562825  C 52.7729091236415 29.5556602562825  54.6402152451011 35.5642516791718  54.6402152451011 35.5642516791718  C 54.6402152451011 35.5642516791718  59.5945775255043 36.8234602351289  59.5945775255043 36.8234602351289  C 59.5945775255043 36.8234602351289  57.3169664715273 42.2013748003497  57.3169664715273 42.2013748003497  C 57.3169664715273 42.2013748003497  63.128224087189 44.6211145807921  63.128224087189 44.6211145807921  C 63.128224087189 44.6211145807921  66.5167287679832 45.8073877178354  66.5167287679832 45.8073877178354  C 66.5167287679832 45.8073877178354  72.2554154431992 43.9325184198684  72.2554154431992 43.9325184198684  C 72.2554154431992 43.9325184198684  72.4926665946554 46.5925160508512  72.4926665946554 46.5925160508512  C 72.4926665946554 46.5925160508512  65.8328872137864 50.7627058852308  65.8328872137864 50.7627058852308  C 65.8328872137864 50.7627058852308  64.1665467735608 53.1138005655188  64.1665467735608 53.1138005655188  Z " fill-rule="evenodd" />
    </mask>
  </defs>
  <g transform="matrix(1 0 0 1 -2503 -1855 )">
    <path d="M 64.1665467735608 53.1138005655188  C 64.1665467735608 53.1138005655188  59.681104416035 54.5875250594586  59.681104416035 54.5875250594586  C 59.681104416035 54.5875250594586  55.1175087380299 57.3462000219133  55.1175087380299 57.3462000219133  C 55.1175087380299 57.3462000219133  49.5909525041153 57.6315062194298  49.5909525041153 57.6315062194298  C 49.5909525041153 57.6315062194298  46.0238116622249 66.0330061995128  46.0238116622249 66.0330061995128  C 46.0238116622249 66.0330061995128  42.7190426819445 67.1785213083393  42.7190426819445 67.1785213083393  C 42.7190426819445 67.1785213083393  46.5038963451712 72.6958712332486  46.5038963451712 72.6958712332486  C 46.5038963451712 72.6958712332486  51.4694233856428 77.2650607122756  51.4694233856428 77.2650607122756  C 51.4694233856428 77.2650607122756  54.6737095253063 81.3773312434001  54.6737095253063 81.3773312434001  C 54.6737095253063 81.3773312434001  51.8099485677325 86.7788425617987  51.8099485677325 86.7788425617987  C 51.8099485677325 86.7788425617987  49.1080766311521 87.9222125112456  49.1080766311521 87.9222125112456  C 49.1080766311521 87.9222125112456  50.9753827526112 91.0241129744722  50.9753827526112 91.0241129744722  C 50.9753827526112 91.0241129744722  56.1949080846413 95.9236569979922  56.1949080846413 95.9236569979922  C 56.1949080846413 95.9236569979922  57.0908800801395 99.3559120057118  57.0908800801395 99.3559120057118  C 57.0908800801395 99.3559120057118  56.9680677193862 102.204683662119  56.9680677193862 102.204683662119  C 56.9680677193862 102.204683662119  60.0272119781591 107.784243209044  60.0272119781591 107.784243209044  C 60.0272119781591 107.784243209044  55.7287793517809 113.46891556558  55.7287793517809 113.46891556558  C 55.7287793517809 113.46891556558  51.9383433085202 119.71347452025  51.9383433085202 119.71347452025  C 51.9383433085202 119.71347452025  51.1847220038956 115.204349503858  51.1847220038956 115.204349503858  C 51.1847220038956 115.204349503858  53.5879366086435 110.540773012119  53.5879366086435 110.540773012119  C 53.5879366086435 110.540773012119  50.9558444224914 106.928324616494  50.9558444224914 106.928324616494  C 50.9558444224914 106.928324616494  51.5922357463961 100.256878945239  51.5922357463961 100.256878945239  C 51.5922357463961 100.256878945239  48.4158615069044 97.0734624255786  48.4158615069044 97.0734624255786  C 48.4158615069044 97.0734624255786  45.8647138312485 89.694114158981  45.8647138312485 89.694114158981  C 45.8647138312485 89.694114158981  44.4495804925644 81.8599921038606  44.4495804925644 81.8599921038606  C 44.4495804925644 81.8599921038606  41.0666581918047 76.6944483172422  41.0666581918047 76.6944483172422  C 41.0666581918047 76.6944483172422  33.8835524523902 79.8242358524068  33.8835524523902 79.8242358524068  C 33.8835524523902 79.8242358524068  24.9880298678013 84.2604254498845  24.9880298678013 84.2604254498845  C 24.9880298678013 84.2604254498845  20.600279160875 83.7069743298898  20.600279160875 83.7069743298898  C 20.600279160875 83.7069743298898  15.7519821011227 82.2482659516087  15.7519821011227 82.2482659516087  C 15.7519821011227 82.2482659516087  18.4482716576691 74.5171115467202  18.4482716576691 74.5171115467202  C 18.4482716576691 74.5171115467202  16.8154254976487 68.6393748459999  16.8154254976487 68.6393748459999  C 16.8154254976487 68.6393748459999  10.6803898400001 61.3565587514947  10.6803898400001 61.3565587514947  C 10.6803898400001 61.3565587514947  11.6377680158752 57.5135224535395  11.6377680158752 57.5135224535395  C 11.6377680158752 57.5135224535395  7.05742519776727 56.6983618892063  7.05742519776727 56.6983618892063  C 7.05742519776727 56.6983618892063  1.50574825369842 51.4984955525107  1.50574825369842 51.4984955525107  C 1.50574825369842 51.4984955525107  0.994960480563944 46.3436775627916  0.994960480563944 46.3436775627916  C 0.994960480563944 46.3436775627916  3.72474431731558 47.3154347618524  3.72474431731558 47.3154347618524  C 3.72474431731558 47.3154347618524  3.88663333830899 42.6990517764692  3.88663333830899 42.6990517764692  C 3.88663333830899 42.6990517764692  7.74684913199752 41.1674079792742  7.74684913199752 41.1674079792742  C 7.74684913199752 41.1674079792742  6.92065688692764 38.4194588137185  6.92065688692764 38.4194588137185  C 6.92065688692764 38.4194588137185  8.68748016777023 36.2077994931191  8.68748016777023 36.2077994931191  C 8.68748016777023 36.2077994931191  8.99171987963724 29.4548377654306  8.99171987963724 29.4548377654306  C 8.99171987963724 29.4548377654306  15.107217207166 30.9478686937886  15.107217207166 30.9478686937886  C 15.107217207166 30.9478686937886  18.5962047285767 25.5377767378704  18.5962047285767 25.5377767378704  C 18.5962047285767 25.5377767378704  18.9953449010258 22.3243279868926  18.9953449010258 22.3243279868926  C 18.9953449010258 22.3243279868926  23.3133158575238 16.7597845556272  23.3133158575238 16.7597845556272  C 23.3133158575238 16.7597845556272  23.0760647060681 12.9435460189185  23.0760647060681 12.9435460189185  C 23.0760647060681 12.9435460189185  33.2080844682449 8.30571143973748  33.2080844682449 8.30571143973748  C 33.2080844682449 8.30571143973748  40.8294070403486 9.52201680809818  40.8294070403486 9.52201680809818  C 40.8294070403486 9.52201680809818  40.1846421463919 5.37542372689651  40.1846421463919 5.37542372689651  C 40.1846421463919 5.37542372689651  42.9283819332294 4.13552160535789  42.9283819332294 4.13552160535789  C 42.9283819332294 4.13552160535789  42.3394408396152 1.56347550894762  42.3394408396152 1.56347550894762  C 42.3394408396152 1.56347550894762  46.9169924677061 1.0593630546889  46.9169924677061 1.0593630546889  C 46.9169924677061 1.0593630546889  49.5323375137554 5.04935950116329  49.5323375137554 5.04935950116329  C 49.5323375137554 5.04935950116329  52.9459629047038 6.66037419541161  52.9459629047038 6.66037419541161  C 52.9459629047038 6.66037419541161  53.1776316761255 11.8044663882318  53.1776316761255 11.8044663882318  C 53.1776316761255 11.8044663882318  52.8622272041901 17.3110905162421  52.8622272041901 17.3110905162421  C 52.8622272041901 17.3110905162421  45.4516177087136 22.8456017161901  45.4516177087136 22.8456017161901  C 45.4516177087136 22.8456017161901  44.5109866729413 30.6432560618536  44.5109866729413 30.6432560618536  C 44.5109866729413 30.6432560618536  52.7729091236415 29.5556602562825  52.7729091236415 29.5556602562825  C 52.7729091236415 29.5556602562825  54.6402152451011 35.5642516791718  54.6402152451011 35.5642516791718  C 54.6402152451011 35.5642516791718  59.5945775255043 36.8234602351289  59.5945775255043 36.8234602351289  C 59.5945775255043 36.8234602351289  57.3169664715273 42.2013748003497  57.3169664715273 42.2013748003497  C 57.3169664715273 42.2013748003497  63.128224087189 44.6211145807921  63.128224087189 44.6211145807921  C 63.128224087189 44.6211145807921  66.5167287679832 45.8073877178354  66.5167287679832 45.8073877178354  C 66.5167287679832 45.8073877178354  72.2554154431992 43.9325184198684  72.2554154431992 43.9325184198684  C 72.2554154431992 43.9325184198684  72.4926665946554 46.5925160508512  72.4926665946554 46.5925160508512  C 72.4926665946554 46.5925160508512  65.8328872137864 50.7627058852308  65.8328872137864 50.7627058852308  C 65.8328872137864 50.7627058852308  64.1665467735608 53.1138005655188  64.1665467735608 53.1138005655188  Z " fill-rule="nonzero" fill="#f2f2f2" stroke="none" transform="matrix(1 0 0 1 2503 1855 )" />
    <path d="M 64.1665467735608 53.1138005655188  C 64.1665467735608 53.1138005655188  59.681104416035 54.5875250594586  59.681104416035 54.5875250594586  C 59.681104416035 54.5875250594586  55.1175087380299 57.3462000219133  55.1175087380299 57.3462000219133  C 55.1175087380299 57.3462000219133  49.5909525041153 57.6315062194298  49.5909525041153 57.6315062194298  C 49.5909525041153 57.6315062194298  46.0238116622249 66.0330061995128  46.0238116622249 66.0330061995128  C 46.0238116622249 66.0330061995128  42.7190426819445 67.1785213083393  42.7190426819445 67.1785213083393  C 42.7190426819445 67.1785213083393  46.5038963451712 72.6958712332486  46.5038963451712 72.6958712332486  C 46.5038963451712 72.6958712332486  51.4694233856428 77.2650607122756  51.4694233856428 77.2650607122756  C 51.4694233856428 77.2650607122756  54.6737095253063 81.3773312434001  54.6737095253063 81.3773312434001  C 54.6737095253063 81.3773312434001  51.8099485677325 86.7788425617987  51.8099485677325 86.7788425617987  C 51.8099485677325 86.7788425617987  49.1080766311521 87.9222125112456  49.1080766311521 87.9222125112456  C 49.1080766311521 87.9222125112456  50.9753827526112 91.0241129744722  50.9753827526112 91.0241129744722  C 50.9753827526112 91.0241129744722  56.1949080846413 95.9236569979922  56.1949080846413 95.9236569979922  C 56.1949080846413 95.9236569979922  57.0908800801395 99.3559120057118  57.0908800801395 99.3559120057118  C 57.0908800801395 99.3559120057118  56.9680677193862 102.204683662119  56.9680677193862 102.204683662119  C 56.9680677193862 102.204683662119  60.0272119781591 107.784243209044  60.0272119781591 107.784243209044  C 60.0272119781591 107.784243209044  55.7287793517809 113.46891556558  55.7287793517809 113.46891556558  C 55.7287793517809 113.46891556558  51.9383433085202 119.71347452025  51.9383433085202 119.71347452025  C 51.9383433085202 119.71347452025  51.1847220038956 115.204349503858  51.1847220038956 115.204349503858  C 51.1847220038956 115.204349503858  53.5879366086435 110.540773012119  53.5879366086435 110.540773012119  C 53.5879366086435 110.540773012119  50.9558444224914 106.928324616494  50.9558444224914 106.928324616494  C 50.9558444224914 106.928324616494  51.5922357463961 100.256878945239  51.5922357463961 100.256878945239  C 51.5922357463961 100.256878945239  48.4158615069044 97.0734624255786  48.4158615069044 97.0734624255786  C 48.4158615069044 97.0734624255786  45.8647138312485 89.694114158981  45.8647138312485 89.694114158981  C 45.8647138312485 89.694114158981  44.4495804925644 81.8599921038606  44.4495804925644 81.8599921038606  C 44.4495804925644 81.8599921038606  41.0666581918047 76.6944483172422  41.0666581918047 76.6944483172422  C 41.0666581918047 76.6944483172422  33.8835524523902 79.8242358524068  33.8835524523902 79.8242358524068  C 33.8835524523902 79.8242358524068  24.9880298678013 84.2604254498845  24.9880298678013 84.2604254498845  C 24.9880298678013 84.2604254498845  20.600279160875 83.7069743298898  20.600279160875 83.7069743298898  C 20.600279160875 83.7069743298898  15.7519821011227 82.2482659516087  15.7519821011227 82.2482659516087  C 15.7519821011227 82.2482659516087  18.4482716576691 74.5171115467202  18.4482716576691 74.5171115467202  C 18.4482716576691 74.5171115467202  16.8154254976487 68.6393748459999  16.8154254976487 68.6393748459999  C 16.8154254976487 68.6393748459999  10.6803898400001 61.3565587514947  10.6803898400001 61.3565587514947  C 10.6803898400001 61.3565587514947  11.6377680158752 57.5135224535395  11.6377680158752 57.5135224535395  C 11.6377680158752 57.5135224535395  7.05742519776727 56.6983618892063  7.05742519776727 56.6983618892063  C 7.05742519776727 56.6983618892063  1.50574825369842 51.4984955525107  1.50574825369842 51.4984955525107  C 1.50574825369842 51.4984955525107  0.994960480563944 46.3436775627916  0.994960480563944 46.3436775627916  C 0.994960480563944 46.3436775627916  3.72474431731558 47.3154347618524  3.72474431731558 47.3154347618524  C 3.72474431731558 47.3154347618524  3.88663333830899 42.6990517764692  3.88663333830899 42.6990517764692  C 3.88663333830899 42.6990517764692  7.74684913199752 41.1674079792742  7.74684913199752 41.1674079792742  C 7.74684913199752 41.1674079792742  6.92065688692764 38.4194588137185  6.92065688692764 38.4194588137185  C 6.92065688692764 38.4194588137185  8.68748016777023 36.2077994931191  8.68748016777023 36.2077994931191  C 8.68748016777023 36.2077994931191  8.99171987963724 29.4548377654306  8.99171987963724 29.4548377654306  C 8.99171987963724 29.4548377654306  15.107217207166 30.9478686937886  15.107217207166 30.9478686937886  C 15.107217207166 30.9478686937886  18.5962047285767 25.5377767378704  18.5962047285767 25.5377767378704  C 18.5962047285767 25.5377767378704  18.9953449010258 22.3243279868926  18.9953449010258 22.3243279868926  C 18.9953449010258 22.3243279868926  23.3133158575238 16.7597845556272  23.3133158575238 16.7597845556272  C 23.3133158575238 16.7597845556272  23.0760647060681 12.9435460189185  23.0760647060681 12.9435460189185  C 23.0760647060681 12.9435460189185  33.2080844682449 8.30571143973748  33.2080844682449 8.30571143973748  C 33.2080844682449 8.30571143973748  40.8294070403486 9.52201680809818  40.8294070403486 9.52201680809818  C 40.8294070403486 9.52201680809818  40.1846421463919 5.37542372689651  40.1846421463919 5.37542372689651  C 40.1846421463919 5.37542372689651  42.9283819332294 4.13552160535789  42.9283819332294 4.13552160535789  C 42.9283819332294 4.13552160535789  42.3394408396152 1.56347550894762  42.3394408396152 1.56347550894762  C 42.3394408396152 1.56347550894762  46.9169924677061 1.0593630546889  46.9169924677061 1.0593630546889  C 46.9169924677061 1.0593630546889  49.5323375137554 5.04935950116329  49.5323375137554 5.04935950116329  C 49.5323375137554 5.04935950116329  52.9459629047038 6.66037419541161  52.9459629047038 6.66037419541161  C 52.9459629047038 6.66037419541161  53.1776316761255 11.8044663882318  53.1776316761255 11.8044663882318  C 53.1776316761255 11.8044663882318  52.8622272041901 17.3110905162421  52.8622272041901 17.3110905162421  C 52.8622272041901 17.3110905162421  45.4516177087136 22.8456017161901  45.4516177087136 22.8456017161901  C 45.4516177087136 22.8456017161901  44.5109866729413 30.6432560618536  44.5109866729413 30.6432560618536  C 44.5109866729413 30.6432560618536  52.7729091236415 29.5556602562825  52.7729091236415 29.5556602562825  C 52.7729091236415 29.5556602562825  54.6402152451011 35.5642516791718  54.6402152451011 35.5642516791718  C 54.6402152451011 35.5642516791718  59.5945775255043 36.8234602351289  59.5945775255043 36.8234602351289  C 59.5945775255043 36.8234602351289  57.3169664715273 42.2013748003497  57.3169664715273 42.2013748003497  C 57.3169664715273 42.2013748003497  63.128224087189 44.6211145807921  63.128224087189 44.6211145807921  C 63.128224087189 44.6211145807921  66.5167287679832 45.8073877178354  66.5167287679832 45.8073877178354  C 66.5167287679832 45.8073877178354  72.2554154431992 43.9325184198684  72.2554154431992 43.9325184198684  C 72.2554154431992 43.9325184198684  72.4926665946554 46.5925160508512  72.4926665946554 46.5925160508512  C 72.4926665946554 46.5925160508512  65.8328872137864 50.7627058852308  65.8328872137864 50.7627058852308  C 65.8328872137864 50.7627058852308  64.1665467735608 53.1138005655188  64.1665467735608 53.1138005655188  Z " stroke-width="2" stroke="#505050" fill="none" stroke-opacity="0.211764705882353" transform="matrix(1 0 0 1 2503 1855 )" mask="url(#clip538)" />
  </g>
</svg>