<?xml version="1.0" encoding="utf-8"?>
<svg version="1.1" xmlns:xlink="http://www.w3.org/1999/xlink" width="229px" height="182px" xmlns="http://www.w3.org/2000/svg">
  <defs>
    <mask fill="white" id="clip539">
      <path d="M 67.5714222460387 6.53188167797973  C 67.5714222460387 6.53188167797973  74.9940100860952 0.395240130184271  74.9940100860952 0.395240130184271  C 74.9940100860952 0.395240130184271  83.2553393881366 8.93643452451647  83.2553393881366 8.93643452451647  C 83.2553393881366 8.93643452451647  82.4768995998888 14.80971008823  82.4768995998888 14.80971008823  C 82.4768995998888 14.80971008823  85.5330980643137 18.4668572493028  85.5330980643137 18.4668572493028  C 85.5330980643137 18.4668572493028  85.2809274286839 22.0940277943013  85.2809274286839 22.0940277943013  C 85.2809274286839 22.0940277943013  79.7660652668696 21.1411996405088  79.7660652668696 21.1411996405088  C 79.7660652668696 21.1411996405088  81.9204796104013 28.9137079512198  81.9204796104013 28.9137079512198  C 81.9204796104013 28.9137079512198  89.4718937534422 33.3352588221889  89.4718937534422 33.3352588221889  C 89.4718937534422 33.3352588221889  100.153512960495 38.1850470656491  100.153512960495 38.1850470656491  C 100.153512960495 38.1850470656491  95.2745593580953 41.3133210716956  95.2745593580953 41.3133210716956  C 95.2745593580953 41.3133210716956  92.2923674932567 47.717610977298  92.2923674932567 47.717610977298  C 92.2923674932567 47.717610977298  99.7368832146721 50.2913175859686  99.7368832146721 50.2913175859686  C 99.7368832146721 50.2913175859686  106.984048003856 53.6144395964984  106.984048003856 53.6144395964984  C 106.984048003856 53.6144395964984  118.999135117962 57.3979167824562  118.999135117962 57.3979167824562  C 118.999135117962 57.3979167824562  129.53274112584 58.2672386486126  129.53274112584 58.2672386486126  C 129.53274112584 58.2672386486126  133.964914145549 61.6781493205034  133.964914145549 61.6781493205034  C 133.964914145549 61.6781493205034  139.904629008696 62.3119406317898  139.904629008696 62.3119406317898  C 139.904629008696 62.3119406317898  149.149971986727 63.8685834807945  149.149971986727 63.8685834807945  C 149.149971986727 63.8685834807945  155.550172358415 63.7572417639469  155.550172358415 63.7572417639469  C 155.550172358415 63.7572417639469  156.430028597949 61.1128759888151  156.430028597949 61.1128759888151  C 156.430028597949 61.1128759888151  155.418605070261 56.8497729456677  155.418605070261 56.8497729456677  C 155.418605070261 56.8497729456677  156.013398852127 53.9463235601791  156.013398852127 53.9463235601791  C 156.013398852127 53.9463235601791  160.700483492634 52.5224342966465  160.700483492634 52.5224342966465  C 160.700483492634 52.5224342966465  161.344615007558 57.8347189023967  161.344615007558 57.8347189023967  C 161.344615007558 57.8347189023967  161.509074117752 59.181525438881  161.509074117752 59.181525438881  C 161.509074117752 59.181525438881  168.495845315795 61.7231142446147  168.495845315795 61.7231142446147  C 168.495845315795 61.7231142446147  173.325461185138 60.6760738688745  173.325461185138 60.6760738688745  C 173.325461185138 60.6760738688745  179.816114067432 61.1257231099898  179.816114067432 61.1257231099898  C 179.816114067432 61.1257231099898  186.084747150966 60.9265927317816  186.084747150966 60.9265927317816  C 186.084747150966 60.9265927317816  186.624721229434 56.804808021556  186.624721229434 56.804808021556  C 186.624721229434 56.804808021556  183.494516165422 54.6529152247892  183.494516165422 54.6529152247892  C 183.494516165422 54.6529152247892  189.694624619708 53.809287600982  189.694624619708 53.809287600982  C 189.694624619708 53.809287600982  196.689618773261 48.7646513530382  196.689618773261 48.7646513530382  C 196.689618773261 48.7646513530382  205.548482842339 44.4180420222552  205.548482842339 44.4180420222552  C 205.548482842339 44.4180420222552  211.995279961915 46.0988737092822  211.995279961915 46.0988737092822  C 211.995279961915 46.0988737092822  217.474509316521 43.2168361924181  217.474509316521 43.2168361924181  C 217.474509316521 43.2168361924181  221.076163829753 47.4670921143907  221.076163829753 47.4670921143907  C 221.076163829753 47.4670921143907  218.480450873869 50.3255765757679  218.480450873869 50.3255765757679  C 218.480450873869 50.3255765757679  226.76919002761 51.3383579617088  226.76919002761 51.3383579617088  C 226.76919002761 51.3383579617088  227.347537898457 53.9056410097924  227.347537898457 53.9056410097924  C 227.347537898457 53.9056410097924  224.653149476457 55.1432470162911  224.653149476457 55.1432470162911  C 224.653149476457 55.1432470162911  225.286317050701 59.2821612214165  225.286317050701 59.2821612214165  C 225.286317050701 59.2821612214165  219.793382770246 58.0681082704046  219.793382770246 58.0681082704046  C 219.793382770246 58.0681082704046  209.843606603553 62.6973542670316  209.843606603553 62.6973542670316  C 209.843606603553 62.6973542670316  210.076590342993 66.506525695339  210.076590342993 66.506525695339  C 210.076590342993 66.506525695339  205.836286285177 72.0607644165465  205.836286285177 72.0607644165465  C 205.836286285177 72.0607644165465  205.444325405883 75.268262336504  205.444325405883 75.268262336504  C 205.444325405883 75.268262336504  202.018093943523 80.6683356036149  202.018093943523 80.6683356036149  C 202.018093943523 80.6683356036149  196.012595436299 79.1780695473465  196.012595436299 79.1780695473465  C 196.012595436299 79.1780695473465  195.713828052781 85.918525790354  195.713828052781 85.918525790354  C 195.713828052781 85.918525790354  193.978784440242 88.126089445545  193.978784440242 88.126089445545  C 193.978784440242 88.126089445545  194.790116050529 92.4245053719052  194.790116050529 92.4245053719052  C 194.790116050529 92.4245053719052  190.999333560575 93.953312791698  190.999333560575 93.953312791698  C 190.999333560575 93.953312791698  186.95089846465 82.1222014832218  186.95089846465 82.1222014832218  C 186.95089846465 82.1222014832218  184.829375943157 82.1436133518463  184.829375943157 82.1436133518463  C 184.829375943157 82.1436133518463  183.574004735348 86.2975158650084  183.574004735348 86.2975158650084  C 183.574004735348 86.2975158650084  179.366592499571 82.9315701172297  179.366592499571 82.9315701172297  C 179.366592499571 82.9315701172297  181.737544671523 79.2187520977332  181.737544671523 79.2187520977332  C 181.737544671523 79.2187520977332  185.177481059733 78.8397620230784  185.177481059733 78.8397620230784  C 185.177481059733 78.8397620230784  188.718833899228 73.2855233018709  188.718833899228 73.2855233018709  C 188.718833899228 73.2855233018709  184.289401864689 72.1592590122193  184.289401864689 72.1592590122193  C 184.289401864689 72.1592590122193  177.160099437811 72.2577536078925  177.160099437811 72.2577536078925  C 177.160099437811 72.2577536078925  169.84715100455 71.3520315650741  169.84715100455 71.3520315650741  C 169.84715100455 71.3520315650741  169.170127667588 66.7484798107963  169.170127667588 66.7484798107963  C 169.170127667588 66.7484798107963  165.499948525108 66.4208782208406  165.499948525108 66.4208782208406  C 165.499948525108 66.4208782208406  159.412220462788 63.5452642645639  159.412220462788 63.5452642645639  C 159.412220462788 63.5452642645639  156.698645144599 68.0567449837559  156.698645144599 68.0567449837559  C 156.698645144599 68.0567449837559  162.246399128452 71.5575855038698  162.246399128452 71.5575855038698  C 162.246399128452 71.5575855038698  157.441452125638 74.0135268351055  157.441452125638 74.0135268351055  C 157.441452125638 74.0135268351055  155.736559349968 76.4095149341923  155.736559349968 76.4095149341923  C 155.736559349968 76.4095149341923  160.464758768024 78.1631469745429  160.464758768024 78.1631469745429  C 160.464758768024 78.1631469745429  159.160049827158 82.1007896145973  159.160049827158 82.1007896145973  C 159.160049827158 82.1007896145973  161.821546427119 86.9848368478567  161.821546427119 86.9848368478567  C 161.821546427119 86.9848368478567  163.019356946359 93.8612417566122  163.019356946359 93.8612417566122  C 163.019356946359 93.8612417566122  161.917480908065 96.207982557863  161.917480908065 96.207982557863  C 161.917480908065 96.207982557863  156.687681203919 96.128758643952  156.687681203919 96.128758643952  C 156.687681203919 96.128758643952  147.214836456787 97.4605768723989  147.214836456787 97.4605768723989  C 147.214836456787 97.4605768723989  147.656135069139 102.273964939197  147.656135069139 102.273964939197  C 147.656135069139 102.273964939197  143.552880269817 106.042453817118  143.552880269817 106.042453817118  C 143.552880269817 106.042453817118  132.493005109319 110.311980420853  132.493005109319 110.311980420853  C 132.493005109319 110.311980420853  123.891793646211 117.733334086121  123.891793646211 117.733334086121  C 123.891793646211 117.733334086121  118.113796908088 121.690247407937  118.113796908088 121.690247407937  C 118.113796908088 121.690247407937  108.464179995595 125.784196688951  108.464179995595 125.784196688951  C 108.464179995595 125.784196688951  108.453216054915 128.649104710915  108.453216054915 128.649104710915  C 108.453216054915 128.649104710915  104.624059772582 130.182194504433  104.624059772582 130.182194504433  C 104.624059772582 130.182194504433  97.7003312334458 132.406887654524  97.7003312334458 132.406887654524  C 97.7003312334458 132.406887654524  94.1096406608923 132.736630431342  94.1096406608923 132.736630431342  C 94.1096406608923 132.736630431342  91.8072131181867 137.457947463055  91.8072131181867 137.457947463055  C 91.8072131181867 137.457947463055  93.4052074722317 145.472409889223  93.4052074722317 145.472409889223  C 93.4052074722317 145.472409889223  93.8136142625448 150.559869874416  93.8136142625448 150.559869874416  C 93.8136142625448 150.559869874416  90.557323880718 156.366768645393  90.557323880718 156.366768645393  C 90.557323880718 156.366768645393  90.5216910735095 166.697995256738  90.5216910735095 166.697995256738  C 90.5216910735095 166.697995256738  86.5445215920022 166.991337856894  86.5445215920022 166.991337856894  C 86.5445215920022 166.991337856894  83.0470245152255 171.609877919209  83.0470245152255 171.609877919209  C 83.0470245152255 171.609877919209  85.3850848651397 173.603322888154  85.3850848651397 173.603322888154  C 85.3850848651397 173.603322888154  78.3763857857366 175.314131191256  78.3763857857366 175.314131191256  C 78.3763857857366 175.314131191256  75.7888957853624 179.416645219719  75.7888957853624 179.416645219719  C 75.7888957853624 179.416645219719  72.7052874692387 181.148865391445  72.7052874692387 181.148865391445  C 72.7052874692387 181.148865391445  65.4307128283566 175.519685130051  65.4307128283566 175.519685130051  C 65.4307128283566 175.519685130051  61.8729140778423 167.047008715318  61.8729140778423 167.047008715318  C 61.8729140778423 167.047008715318  58.923614035043 160.923214288697  58.923614035043 160.923214288697  C 58.923614035043 160.923214288697  56.2292256130432 158.041176771833  56.2292256130432 158.041176771833  C 56.2292256130432 158.041176771833  52.1478986950802 152.178607142431  52.1478986950802 152.178607142431  C 52.1478986950802 152.178607142431  50.2401730168384 144.508875801118  50.2401730168384 144.508875801118  C 50.2401730168384 144.508875801118  48.9107952094425 140.66330419615  48.9107952094425 140.66330419615  C 48.9107952094425 140.66330419615  41.921283026229 132.167074725929  41.921283026229 132.167074725929  C 41.921283026229 132.167074725929  38.738999243989 120.077933700509  38.738999243989 120.077933700509  C 38.738999243989 120.077933700509  36.4393126864535 112.022788723954  36.4393126864535 112.022788723954  C 36.4393126864535 112.022788723954  36.4667225381524 104.338069074604  36.4667225381524 104.338069074604  C 36.4667225381524 104.338069074604  34.9756266057333 98.3555929809052  34.9756266057333 98.3555929809052  C 34.9756266057333 98.3555929809052  23.7924071125908 102.184035090974  23.7924071125908 102.184035090974  C 23.7924071125908 102.184035090974  18.3762204168929 101.419631381078  18.3762204168929 101.419631381078  C 18.3762204168929 101.419631381078  8.33599173959357 93.6449818835045  8.33599173959357 93.6449818835045  C 8.33599173959357 93.6449818835045  12.0308397486024 89.7576738347356  12.0308397486024 89.7576738347356  C 12.0308397486024 89.7576738347356  9.76130402793509 87.2182262158643  9.76130402793509 87.2182262158643  C 9.76130402793509 87.2182262158643  0.746203804174379 81.7046700450431  0.746203804174379 81.7046700450431  C 0.746203804174379 81.7046700450431  5.86362311635502 77.3430724062225  5.86362311635502 77.3430724062225  C 5.86362311635502 77.3430724062225  22.7755016145628 77.3602019011224  22.7755016145628 77.3602019011224  C 22.7755016145628 77.3602019011224  21.251513860105 71.7138921448291  21.251513860105 71.7138921448291  C 21.251513860105 71.7138921448291  16.9317212323618 68.3607935182248  16.9317212323618 68.3607935182248  C 16.9317212323618 68.3607935182248  16.0573469631674 63.2412157300954  16.0573469631674 63.2412157300954  C 16.0573469631674 63.2412157300954  11.0276391764232 60.2392717489336  11.0276391764232 60.2392717489336  C 11.0276391764232 60.2392717489336  19.4972833513767 53.1840610371452  19.4972833513767 53.1840610371452  C 19.4972833513767 53.1840610371452  28.4219310645313 53.6979458841344  28.4219310645313 53.6979458841344  C 28.4219310645313 53.6979458841344  36.4612405678124 46.5763583796094  36.4612405678124 46.5763583796094  C 36.4612405678124 46.5763583796094  41.2771515113051 39.6153598897691  41.2771515113051 39.6153598897691  C 41.2771515113051 39.6153598897691  48.7408541289096 32.6586437736534  48.7408541289096 32.6586437736534  C 48.7408541289096 32.6586437736534  48.6202507814344 27.6739607578585  48.6202507814344 27.6739607578585  C 48.6202507814344 27.6739607578585  55.1766873078062 23.599282158607  55.1766873078062 23.599282158607  C 55.1766873078062 23.599282158607  48.9710968831805 20.1005828253558  48.9710968831805 20.1005828253558  C 48.9710968831805 20.1005828253558  46.3013773277094 15.2743476373827  46.3013773277094 15.2743476373827  C 46.3013773277094 15.2743476373827  43.5795790540112 8.96641114059089  43.5795790540112 8.96641114059089  C 43.5795790540112 8.96641114059089  47.3456926774367 5.83813713454433  47.3456926774367 5.83813713454433  C 47.3456926774367 5.83813713454433  59.0058435901395 7.61103985665702  59.0058435901395 7.61103985665702  C 59.0058435901395 7.61103985665702  67.5714222460387 6.53188167797973  67.5714222460387 6.53188167797973  Z " fill-rule="evenodd" />
    </mask>
  </defs>
  <g transform="matrix(1 0 0 1 -2318 -1806 )">
    <path d="M 67.5714222460387 6.53188167797973  C 67.5714222460387 6.53188167797973  74.9940100860952 0.395240130184271  74.9940100860952 0.395240130184271  C 74.9940100860952 0.395240130184271  83.2553393881366 8.93643452451647  83.2553393881366 8.93643452451647  C 83.2553393881366 8.93643452451647  82.4768995998888 14.80971008823  82.4768995998888 14.80971008823  C 82.4768995998888 14.80971008823  85.5330980643137 18.4668572493028  85.5330980643137 18.4668572493028  C 85.5330980643137 18.4668572493028  85.2809274286839 22.0940277943013  85.2809274286839 22.0940277943013  C 85.2809274286839 22.0940277943013  79.7660652668696 21.1411996405088  79.7660652668696 21.1411996405088  C 79.7660652668696 21.1411996405088  81.9204796104013 28.9137079512198  81.9204796104013 28.9137079512198  C 81.9204796104013 28.9137079512198  89.4718937534422 33.3352588221889  89.4718937534422 33.3352588221889  C 89.4718937534422 33.3352588221889  100.153512960495 38.1850470656491  100.153512960495 38.1850470656491  C 100.153512960495 38.1850470656491  95.2745593580953 41.3133210716956  95.2745593580953 41.3133210716956  C 95.2745593580953 41.3133210716956  92.2923674932567 47.717610977298  92.2923674932567 47.717610977298  C 92.2923674932567 47.717610977298  99.7368832146721 50.2913175859686  99.7368832146721 50.2913175859686  C 99.7368832146721 50.2913175859686  106.984048003856 53.6144395964984  106.984048003856 53.6144395964984  C 106.984048003856 53.6144395964984  118.999135117962 57.3979167824562  118.999135117962 57.3979167824562  C 118.999135117962 57.3979167824562  129.53274112584 58.2672386486126  129.53274112584 58.2672386486126  C 129.53274112584 58.2672386486126  133.964914145549 61.6781493205034  133.964914145549 61.6781493205034  C 133.964914145549 61.6781493205034  139.904629008696 62.3119406317898  139.904629008696 62.3119406317898  C 139.904629008696 62.3119406317898  149.149971986727 63.8685834807945  149.149971986727 63.8685834807945  C 149.149971986727 63.8685834807945  155.550172358415 63.7572417639469  155.550172358415 63.7572417639469  C 155.550172358415 63.7572417639469  156.430028597949 61.1128759888151  156.430028597949 61.1128759888151  C 156.430028597949 61.1128759888151  155.418605070261 56.8497729456677  155.418605070261 56.8497729456677  C 155.418605070261 56.8497729456677  156.013398852127 53.9463235601791  156.013398852127 53.9463235601791  C 156.013398852127 53.9463235601791  160.700483492634 52.5224342966465  160.700483492634 52.5224342966465  C 160.700483492634 52.5224342966465  161.344615007558 57.8347189023967  161.344615007558 57.8347189023967  C 161.344615007558 57.8347189023967  161.509074117752 59.181525438881  161.509074117752 59.181525438881  C 161.509074117752 59.181525438881  168.495845315795 61.7231142446147  168.495845315795 61.7231142446147  C 168.495845315795 61.7231142446147  173.325461185138 60.6760738688745  173.325461185138 60.6760738688745  C 173.325461185138 60.6760738688745  179.816114067432 61.1257231099898  179.816114067432 61.1257231099898  C 179.816114067432 61.1257231099898  186.084747150966 60.9265927317816  186.084747150966 60.9265927317816  C 186.084747150966 60.9265927317816  186.624721229434 56.804808021556  186.624721229434 56.804808021556  C 186.624721229434 56.804808021556  183.494516165422 54.6529152247892  183.494516165422 54.6529152247892  C 183.494516165422 54.6529152247892  189.694624619708 53.809287600982  189.694624619708 53.809287600982  C 189.694624619708 53.809287600982  196.689618773261 48.7646513530382  196.689618773261 48.7646513530382  C 196.689618773261 48.7646513530382  205.548482842339 44.4180420222552  205.548482842339 44.4180420222552  C 205.548482842339 44.4180420222552  211.995279961915 46.0988737092822  211.995279961915 46.0988737092822  C 211.995279961915 46.0988737092822  217.474509316521 43.2168361924181  217.474509316521 43.2168361924181  C 217.474509316521 43.2168361924181  221.076163829753 47.4670921143907  221.076163829753 47.4670921143907  C 221.076163829753 47.4670921143907  218.480450873869 50.3255765757679  218.480450873869 50.3255765757679  C 218.480450873869 50.3255765757679  226.76919002761 51.3383579617088  226.76919002761 51.3383579617088  C 226.76919002761 51.3383579617088  227.347537898457 53.9056410097924  227.347537898457 53.9056410097924  C 227.347537898457 53.9056410097924  224.653149476457 55.1432470162911  224.653149476457 55.1432470162911  C 224.653149476457 55.1432470162911  225.286317050701 59.2821612214165  225.286317050701 59.2821612214165  C 225.286317050701 59.2821612214165  219.793382770246 58.0681082704046  219.793382770246 58.0681082704046  C 219.793382770246 58.0681082704046  209.843606603553 62.6973542670316  209.843606603553 62.6973542670316  C 209.843606603553 62.6973542670316  210.076590342993 66.506525695339  210.076590342993 66.506525695339  C 210.076590342993 66.506525695339  205.836286285177 72.0607644165465  205.836286285177 72.0607644165465  C 205.836286285177 72.0607644165465  205.444325405883 75.268262336504  205.444325405883 75.268262336504  C 205.444325405883 75.268262336504  202.018093943523 80.6683356036149  202.018093943523 80.6683356036149  C 202.018093943523 80.6683356036149  196.012595436299 79.1780695473465  196.012595436299 79.1780695473465  C 196.012595436299 79.1780695473465  195.713828052781 85.918525790354  195.713828052781 85.918525790354  C 195.713828052781 85.918525790354  193.978784440242 88.126089445545  193.978784440242 88.126089445545  C 193.978784440242 88.126089445545  194.790116050529 92.4245053719052  194.790116050529 92.4245053719052  C 194.790116050529 92.4245053719052  190.999333560575 93.953312791698  190.999333560575 93.953312791698  C 190.999333560575 93.953312791698  186.95089846465 82.1222014832218  186.95089846465 82.1222014832218  C 186.95089846465 82.1222014832218  184.829375943157 82.1436133518463  184.829375943157 82.1436133518463  C 184.829375943157 82.1436133518463  183.574004735348 86.2975158650084  183.574004735348 86.2975158650084  C 183.574004735348 86.2975158650084  179.366592499571 82.9315701172297  179.366592499571 82.9315701172297  C 179.366592499571 82.9315701172297  181.737544671523 79.2187520977332  181.737544671523 79.2187520977332  C 181.737544671523 79.2187520977332  185.177481059733 78.8397620230784  185.177481059733 78.8397620230784  C 185.177481059733 78.8397620230784  188.718833899228 73.2855233018709  188.718833899228 73.2855233018709  C 188.718833899228 73.2855233018709  184.289401864689 72.1592590122193  184.289401864689 72.1592590122193  C 184.289401864689 72.1592590122193  177.160099437811 72.2577536078925  177.160099437811 72.2577536078925  C 177.160099437811 72.2577536078925  169.84715100455 71.3520315650741  169.84715100455 71.3520315650741  C 169.84715100455 71.3520315650741  169.170127667588 66.7484798107963  169.170127667588 66.7484798107963  C 169.170127667588 66.7484798107963  165.499948525108 66.4208782208406  165.499948525108 66.4208782208406  C 165.499948525108 66.4208782208406  159.412220462788 63.5452642645639  159.412220462788 63.5452642645639  C 159.412220462788 63.5452642645639  156.698645144599 68.0567449837559  156.698645144599 68.0567449837559  C 156.698645144599 68.0567449837559  162.246399128452 71.5575855038698  162.246399128452 71.5575855038698  C 162.246399128452 71.5575855038698  157.441452125638 74.0135268351055  157.441452125638 74.0135268351055  C 157.441452125638 74.0135268351055  155.736559349968 76.4095149341923  155.736559349968 76.4095149341923  C 155.736559349968 76.4095149341923  160.464758768024 78.1631469745429  160.464758768024 78.1631469745429  C 160.464758768024 78.1631469745429  159.160049827158 82.1007896145973  159.160049827158 82.1007896145973  C 159.160049827158 82.1007896145973  161.821546427119 86.9848368478567  161.821546427119 86.9848368478567  C 161.821546427119 86.9848368478567  163.019356946359 93.8612417566122  163.019356946359 93.8612417566122  C 163.019356946359 93.8612417566122  161.917480908065 96.207982557863  161.917480908065 96.207982557863  C 161.917480908065 96.207982557863  156.687681203919 96.128758643952  156.687681203919 96.128758643952  C 156.687681203919 96.128758643952  147.214836456787 97.4605768723989  147.214836456787 97.4605768723989  C 147.214836456787 97.4605768723989  147.656135069139 102.273964939197  147.656135069139 102.273964939197  C 147.656135069139 102.273964939197  143.552880269817 106.042453817118  143.552880269817 106.042453817118  C 143.552880269817 106.042453817118  132.493005109319 110.311980420853  132.493005109319 110.311980420853  C 132.493005109319 110.311980420853  123.891793646211 117.733334086121  123.891793646211 117.733334086121  C 123.891793646211 117.733334086121  118.113796908088 121.690247407937  118.113796908088 121.690247407937  C 118.113796908088 121.690247407937  108.464179995595 125.784196688951  108.464179995595 125.784196688951  C 108.464179995595 125.784196688951  108.453216054915 128.649104710915  108.453216054915 128.649104710915  C 108.453216054915 128.649104710915  104.624059772582 130.182194504433  104.624059772582 130.182194504433  C 104.624059772582 130.182194504433  97.7003312334458 132.406887654524  97.7003312334458 132.406887654524  C 97.7003312334458 132.406887654524  94.1096406608923 132.736630431342  94.1096406608923 132.736630431342  C 94.1096406608923 132.736630431342  91.8072131181867 137.457947463055  91.8072131181867 137.457947463055  C 91.8072131181867 137.457947463055  93.4052074722317 145.472409889223  93.4052074722317 145.472409889223  C 93.4052074722317 145.472409889223  93.8136142625448 150.559869874416  93.8136142625448 150.559869874416  C 93.8136142625448 150.559869874416  90.557323880718 156.366768645393  90.557323880718 156.366768645393  C 90.557323880718 156.366768645393  90.5216910735095 166.697995256738  90.5216910735095 166.697995256738  C 90.5216910735095 166.697995256738  86.5445215920022 166.991337856894  86.5445215920022 166.991337856894  C 86.5445215920022 166.991337856894  83.0470245152255 171.609877919209  83.0470245152255 171.609877919209  C 83.0470245152255 171.609877919209  85.3850848651397 173.603322888154  85.3850848651397 173.603322888154  C 85.3850848651397 173.603322888154  78.3763857857366 175.314131191256  78.3763857857366 175.314131191256  C 78.3763857857366 175.314131191256  75.7888957853624 179.416645219719  75.7888957853624 179.416645219719  C 75.7888957853624 179.416645219719  72.7052874692387 181.148865391445  72.7052874692387 181.148865391445  C 72.7052874692387 181.148865391445  65.4307128283566 175.519685130051  65.4307128283566 175.519685130051  C 65.4307128283566 175.519685130051  61.8729140778423 167.047008715318  61.8729140778423 167.047008715318  C 61.8729140778423 167.047008715318  58.923614035043 160.923214288697  58.923614035043 160.923214288697  C 58.923614035043 160.923214288697  56.2292256130432 158.041176771833  56.2292256130432 158.041176771833  C 56.2292256130432 158.041176771833  52.1478986950802 152.178607142431  52.1478986950802 152.178607142431  C 52.1478986950802 152.178607142431  50.2401730168384 144.508875801118  50.2401730168384 144.508875801118  C 50.2401730168384 144.508875801118  48.9107952094425 140.66330419615  48.9107952094425 140.66330419615  C 48.9107952094425 140.66330419615  41.921283026229 132.167074725929  41.921283026229 132.167074725929  C 41.921283026229 132.167074725929  38.738999243989 120.077933700509  38.738999243989 120.077933700509  C 38.738999243989 120.077933700509  36.4393126864535 112.022788723954  36.4393126864535 112.022788723954  C 36.4393126864535 112.022788723954  36.4667225381524 104.338069074604  36.4667225381524 104.338069074604  C 36.4667225381524 104.338069074604  34.9756266057333 98.3555929809052  34.9756266057333 98.3555929809052  C 34.9756266057333 98.3555929809052  23.7924071125908 102.184035090974  23.7924071125908 102.184035090974  C 23.7924071125908 102.184035090974  18.3762204168929 101.419631381078  18.3762204168929 101.419631381078  C 18.3762204168929 101.419631381078  8.33599173959357 93.6449818835045  8.33599173959357 93.6449818835045  C 8.33599173959357 93.6449818835045  12.0308397486024 89.7576738347356  12.0308397486024 89.7576738347356  C 12.0308397486024 89.7576738347356  9.76130402793509 87.2182262158643  9.76130402793509 87.2182262158643  C 9.76130402793509 87.2182262158643  0.746203804174379 81.7046700450431  0.746203804174379 81.7046700450431  C 0.746203804174379 81.7046700450431  5.86362311635502 77.3430724062225  5.86362311635502 77.3430724062225  C 5.86362311635502 77.3430724062225  22.7755016145628 77.3602019011224  22.7755016145628 77.3602019011224  C 22.7755016145628 77.3602019011224  21.251513860105 71.7138921448291  21.251513860105 71.7138921448291  C 21.251513860105 71.7138921448291  16.9317212323618 68.3607935182248  16.9317212323618 68.3607935182248  C 16.9317212323618 68.3607935182248  16.0573469631674 63.2412157300954  16.0573469631674 63.2412157300954  C 16.0573469631674 63.2412157300954  11.0276391764232 60.2392717489336  11.0276391764232 60.2392717489336  C 11.0276391764232 60.2392717489336  19.4972833513767 53.1840610371452  19.4972833513767 53.1840610371452  C 19.4972833513767 53.1840610371452  28.4219310645313 53.6979458841344  28.4219310645313 53.6979458841344  C 28.4219310645313 53.6979458841344  36.4612405678124 46.5763583796094  36.4612405678124 46.5763583796094  C 36.4612405678124 46.5763583796094  41.2771515113051 39.6153598897691  41.2771515113051 39.6153598897691  C 41.2771515113051 39.6153598897691  48.7408541289096 32.6586437736534  48.7408541289096 32.6586437736534  C 48.7408541289096 32.6586437736534  48.6202507814344 27.6739607578585  48.6202507814344 27.6739607578585  C 48.6202507814344 27.6739607578585  55.1766873078062 23.599282158607  55.1766873078062 23.599282158607  C 55.1766873078062 23.599282158607  48.9710968831805 20.1005828253558  48.9710968831805 20.1005828253558  C 48.9710968831805 20.1005828253558  46.3013773277094 15.2743476373827  46.3013773277094 15.2743476373827  C 46.3013773277094 15.2743476373827  43.5795790540112 8.96641114059089  43.5795790540112 8.96641114059089  C 43.5795790540112 8.96641114059089  47.3456926774367 5.83813713454433  47.3456926774367 5.83813713454433  C 47.3456926774367 5.83813713454433  59.0058435901395 7.61103985665702  59.0058435901395 7.61103985665702  C 59.0058435901395 7.61103985665702  67.5714222460387 6.53188167797973  67.5714222460387 6.53188167797973  Z " fill-rule="nonzero" fill="#f2f2f2" stroke="none" transform="matrix(1 0 0 1 2318 1806 )" />
    <path d="M 67.5714222460387 6.53188167797973  C 67.5714222460387 6.53188167797973  74.9940100860952 0.395240130184271  74.9940100860952 0.395240130184271  C 74.9940100860952 0.395240130184271  83.2553393881366 8.93643452451647  83.2553393881366 8.93643452451647  C 83.2553393881366 8.93643452451647  82.4768995998888 14.80971008823  82.4768995998888 14.80971008823  C 82.4768995998888 14.80971008823  85.5330980643137 18.4668572493028  85.5330980643137 18.4668572493028  C 85.5330980643137 18.4668572493028  85.2809274286839 22.0940277943013  85.2809274286839 22.0940277943013  C 85.2809274286839 22.0940277943013  79.7660652668696 21.1411996405088  79.7660652668696 21.1411996405088  C 79.7660652668696 21.1411996405088  81.9204796104013 28.9137079512198  81.9204796104013 28.9137079512198  C 81.9204796104013 28.9137079512198  89.4718937534422 33.3352588221889  89.4718937534422 33.3352588221889  C 89.4718937534422 33.3352588221889  100.153512960495 38.1850470656491  100.153512960495 38.1850470656491  C 100.153512960495 38.1850470656491  95.2745593580953 41.3133210716956  95.2745593580953 41.3133210716956  C 95.2745593580953 41.3133210716956  92.2923674932567 47.717610977298  92.2923674932567 47.717610977298  C 92.2923674932567 47.717610977298  99.7368832146721 50.2913175859686  99.7368832146721 50.2913175859686  C 99.7368832146721 50.2913175859686  106.984048003856 53.6144395964984  106.984048003856 53.6144395964984  C 106.984048003856 53.6144395964984  118.999135117962 57.3979167824562  118.999135117962 57.3979167824562  C 118.999135117962 57.3979167824562  129.53274112584 58.2672386486126  129.53274112584 58.2672386486126  C 129.53274112584 58.2672386486126  133.964914145549 61.6781493205034  133.964914145549 61.6781493205034  C 133.964914145549 61.6781493205034  139.904629008696 62.3119406317898  139.904629008696 62.3119406317898  C 139.904629008696 62.3119406317898  149.149971986727 63.8685834807945  149.149971986727 63.8685834807945  C 149.149971986727 63.8685834807945  155.550172358415 63.7572417639469  155.550172358415 63.7572417639469  C 155.550172358415 63.7572417639469  156.430028597949 61.1128759888151  156.430028597949 61.1128759888151  C 156.430028597949 61.1128759888151  155.418605070261 56.8497729456677  155.418605070261 56.8497729456677  C 155.418605070261 56.8497729456677  156.013398852127 53.9463235601791  156.013398852127 53.9463235601791  C 156.013398852127 53.9463235601791  160.700483492634 52.5224342966465  160.700483492634 52.5224342966465  C 160.700483492634 52.5224342966465  161.344615007558 57.8347189023967  161.344615007558 57.8347189023967  C 161.344615007558 57.8347189023967  161.509074117752 59.181525438881  161.509074117752 59.181525438881  C 161.509074117752 59.181525438881  168.495845315795 61.7231142446147  168.495845315795 61.7231142446147  C 168.495845315795 61.7231142446147  173.325461185138 60.6760738688745  173.325461185138 60.6760738688745  C 173.325461185138 60.6760738688745  179.816114067432 61.1257231099898  179.816114067432 61.1257231099898  C 179.816114067432 61.1257231099898  186.084747150966 60.9265927317816  186.084747150966 60.9265927317816  C 186.084747150966 60.9265927317816  186.624721229434 56.804808021556  186.624721229434 56.804808021556  C 186.624721229434 56.804808021556  183.494516165422 54.6529152247892  183.494516165422 54.6529152247892  C 183.494516165422 54.6529152247892  189.694624619708 53.809287600982  189.694624619708 53.809287600982  C 189.694624619708 53.809287600982  196.689618773261 48.7646513530382  196.689618773261 48.7646513530382  C 196.689618773261 48.7646513530382  205.548482842339 44.4180420222552  205.548482842339 44.4180420222552  C 205.548482842339 44.4180420222552  211.995279961915 46.0988737092822  211.995279961915 46.0988737092822  C 211.995279961915 46.0988737092822  217.474509316521 43.2168361924181  217.474509316521 43.2168361924181  C 217.474509316521 43.2168361924181  221.076163829753 47.4670921143907  221.076163829753 47.4670921143907  C 221.076163829753 47.4670921143907  218.480450873869 50.3255765757679  218.480450873869 50.3255765757679  C 218.480450873869 50.3255765757679  226.76919002761 51.3383579617088  226.76919002761 51.3383579617088  C 226.76919002761 51.3383579617088  227.347537898457 53.9056410097924  227.347537898457 53.9056410097924  C 227.347537898457 53.9056410097924  224.653149476457 55.1432470162911  224.653149476457 55.1432470162911  C 224.653149476457 55.1432470162911  225.286317050701 59.2821612214165  225.286317050701 59.2821612214165  C 225.286317050701 59.2821612214165  219.793382770246 58.0681082704046  219.793382770246 58.0681082704046  C 219.793382770246 58.0681082704046  209.843606603553 62.6973542670316  209.843606603553 62.6973542670316  C 209.843606603553 62.6973542670316  210.076590342993 66.506525695339  210.076590342993 66.506525695339  C 210.076590342993 66.506525695339  205.836286285177 72.0607644165465  205.836286285177 72.0607644165465  C 205.836286285177 72.0607644165465  205.444325405883 75.268262336504  205.444325405883 75.268262336504  C 205.444325405883 75.268262336504  202.018093943523 80.6683356036149  202.018093943523 80.6683356036149  C 202.018093943523 80.6683356036149  196.012595436299 79.1780695473465  196.012595436299 79.1780695473465  C 196.012595436299 79.1780695473465  195.713828052781 85.918525790354  195.713828052781 85.918525790354  C 195.713828052781 85.918525790354  193.978784440242 88.126089445545  193.978784440242 88.126089445545  C 193.978784440242 88.126089445545  194.790116050529 92.4245053719052  194.790116050529 92.4245053719052  C 194.790116050529 92.4245053719052  190.999333560575 93.953312791698  190.999333560575 93.953312791698  C 190.999333560575 93.953312791698  186.95089846465 82.1222014832218  186.95089846465 82.1222014832218  C 186.95089846465 82.1222014832218  184.829375943157 82.1436133518463  184.829375943157 82.1436133518463  C 184.829375943157 82.1436133518463  183.574004735348 86.2975158650084  183.574004735348 86.2975158650084  C 183.574004735348 86.2975158650084  179.366592499571 82.9315701172297  179.366592499571 82.9315701172297  C 179.366592499571 82.9315701172297  181.737544671523 79.2187520977332  181.737544671523 79.2187520977332  C 181.737544671523 79.2187520977332  185.177481059733 78.8397620230784  185.177481059733 78.8397620230784  C 185.177481059733 78.8397620230784  188.718833899228 73.2855233018709  188.718833899228 73.2855233018709  C 188.718833899228 73.2855233018709  184.289401864689 72.1592590122193  184.289401864689 72.1592590122193  C 184.289401864689 72.1592590122193  177.160099437811 72.2577536078925  177.160099437811 72.2577536078925  C 177.160099437811 72.2577536078925  169.84715100455 71.3520315650741  169.84715100455 71.3520315650741  C 169.84715100455 71.3520315650741  169.170127667588 66.7484798107963  169.170127667588 66.7484798107963  C 169.170127667588 66.7484798107963  165.499948525108 66.4208782208406  165.499948525108 66.4208782208406  C 165.499948525108 66.4208782208406  159.412220462788 63.5452642645639  159.412220462788 63.5452642645639  C 159.412220462788 63.5452642645639  156.698645144599 68.0567449837559  156.698645144599 68.0567449837559  C 156.698645144599 68.0567449837559  162.246399128452 71.5575855038698  162.246399128452 71.5575855038698  C 162.246399128452 71.5575855038698  157.441452125638 74.0135268351055  157.441452125638 74.0135268351055  C 157.441452125638 74.0135268351055  155.736559349968 76.4095149341923  155.736559349968 76.4095149341923  C 155.736559349968 76.4095149341923  160.464758768024 78.1631469745429  160.464758768024 78.1631469745429  C 160.464758768024 78.1631469745429  159.160049827158 82.1007896145973  159.160049827158 82.1007896145973  C 159.160049827158 82.1007896145973  161.821546427119 86.9848368478567  161.821546427119 86.9848368478567  C 161.821546427119 86.9848368478567  163.019356946359 93.8612417566122  163.019356946359 93.8612417566122  C 163.019356946359 93.8612417566122  161.917480908065 96.207982557863  161.917480908065 96.207982557863  C 161.917480908065 96.207982557863  156.687681203919 96.128758643952  156.687681203919 96.128758643952  C 156.687681203919 96.128758643952  147.214836456787 97.4605768723989  147.214836456787 97.4605768723989  C 147.214836456787 97.4605768723989  147.656135069139 102.273964939197  147.656135069139 102.273964939197  C 147.656135069139 102.273964939197  143.552880269817 106.042453817118  143.552880269817 106.042453817118  C 143.552880269817 106.042453817118  132.493005109319 110.311980420853  132.493005109319 110.311980420853  C 132.493005109319 110.311980420853  123.891793646211 117.733334086121  123.891793646211 117.733334086121  C 123.891793646211 117.733334086121  118.113796908088 121.690247407937  118.113796908088 121.690247407937  C 118.113796908088 121.690247407937  108.464179995595 125.784196688951  108.464179995595 125.784196688951  C 108.464179995595 125.784196688951  108.453216054915 128.649104710915  108.453216054915 128.649104710915  C 108.453216054915 128.649104710915  104.624059772582 130.182194504433  104.624059772582 130.182194504433  C 104.624059772582 130.182194504433  97.7003312334458 132.406887654524  97.7003312334458 132.406887654524  C 97.7003312334458 132.406887654524  94.1096406608923 132.736630431342  94.1096406608923 132.736630431342  C 94.1096406608923 132.736630431342  91.8072131181867 137.457947463055  91.8072131181867 137.457947463055  C 91.8072131181867 137.457947463055  93.4052074722317 145.472409889223  93.4052074722317 145.472409889223  C 93.4052074722317 145.472409889223  93.8136142625448 150.559869874416  93.8136142625448 150.559869874416  C 93.8136142625448 150.559869874416  90.557323880718 156.366768645393  90.557323880718 156.366768645393  C 90.557323880718 156.366768645393  90.5216910735095 166.697995256738  90.5216910735095 166.697995256738  C 90.5216910735095 166.697995256738  86.5445215920022 166.991337856894  86.5445215920022 166.991337856894  C 86.5445215920022 166.991337856894  83.0470245152255 171.609877919209  83.0470245152255 171.609877919209  C 83.0470245152255 171.609877919209  85.3850848651397 173.603322888154  85.3850848651397 173.603322888154  C 85.3850848651397 173.603322888154  78.3763857857366 175.314131191256  78.3763857857366 175.314131191256  C 78.3763857857366 175.314131191256  75.7888957853624 179.416645219719  75.7888957853624 179.416645219719  C 75.7888957853624 179.416645219719  72.7052874692387 181.148865391445  72.7052874692387 181.148865391445  C 72.7052874692387 181.148865391445  65.4307128283566 175.519685130051  65.4307128283566 175.519685130051  C 65.4307128283566 175.519685130051  61.8729140778423 167.047008715318  61.8729140778423 167.047008715318  C 61.8729140778423 167.047008715318  58.923614035043 160.923214288697  58.923614035043 160.923214288697  C 58.923614035043 160.923214288697  56.2292256130432 158.041176771833  56.2292256130432 158.041176771833  C 56.2292256130432 158.041176771833  52.1478986950802 152.178607142431  52.1478986950802 152.178607142431  C 52.1478986950802 152.178607142431  50.2401730168384 144.508875801118  50.2401730168384 144.508875801118  C 50.2401730168384 144.508875801118  48.9107952094425 140.66330419615  48.9107952094425 140.66330419615  C 48.9107952094425 140.66330419615  41.921283026229 132.167074725929  41.921283026229 132.167074725929  C 41.921283026229 132.167074725929  38.738999243989 120.077933700509  38.738999243989 120.077933700509  C 38.738999243989 120.077933700509  36.4393126864535 112.022788723954  36.4393126864535 112.022788723954  C 36.4393126864535 112.022788723954  36.4667225381524 104.338069074604  36.4667225381524 104.338069074604  C 36.4667225381524 104.338069074604  34.9756266057333 98.3555929809052  34.9756266057333 98.3555929809052  C 34.9756266057333 98.3555929809052  23.7924071125908 102.184035090974  23.7924071125908 102.184035090974  C 23.7924071125908 102.184035090974  18.3762204168929 101.419631381078  18.3762204168929 101.419631381078  C 18.3762204168929 101.419631381078  8.33599173959357 93.6449818835045  8.33599173959357 93.6449818835045  C 8.33599173959357 93.6449818835045  12.0308397486024 89.7576738347356  12.0308397486024 89.7576738347356  C 12.0308397486024 89.7576738347356  9.76130402793509 87.2182262158643  9.76130402793509 87.2182262158643  C 9.76130402793509 87.2182262158643  0.746203804174379 81.7046700450431  0.746203804174379 81.7046700450431  C 0.746203804174379 81.7046700450431  5.86362311635502 77.3430724062225  5.86362311635502 77.3430724062225  C 5.86362311635502 77.3430724062225  22.7755016145628 77.3602019011224  22.7755016145628 77.3602019011224  C 22.7755016145628 77.3602019011224  21.251513860105 71.7138921448291  21.251513860105 71.7138921448291  C 21.251513860105 71.7138921448291  16.9317212323618 68.3607935182248  16.9317212323618 68.3607935182248  C 16.9317212323618 68.3607935182248  16.0573469631674 63.2412157300954  16.0573469631674 63.2412157300954  C 16.0573469631674 63.2412157300954  11.0276391764232 60.2392717489336  11.0276391764232 60.2392717489336  C 11.0276391764232 60.2392717489336  19.4972833513767 53.1840610371452  19.4972833513767 53.1840610371452  C 19.4972833513767 53.1840610371452  28.4219310645313 53.6979458841344  28.4219310645313 53.6979458841344  C 28.4219310645313 53.6979458841344  36.4612405678124 46.5763583796094  36.4612405678124 46.5763583796094  C 36.4612405678124 46.5763583796094  41.2771515113051 39.6153598897691  41.2771515113051 39.6153598897691  C 41.2771515113051 39.6153598897691  48.7408541289096 32.6586437736534  48.7408541289096 32.6586437736534  C 48.7408541289096 32.6586437736534  48.6202507814344 27.6739607578585  48.6202507814344 27.6739607578585  C 48.6202507814344 27.6739607578585  55.1766873078062 23.599282158607  55.1766873078062 23.599282158607  C 55.1766873078062 23.599282158607  48.9710968831805 20.1005828253558  48.9710968831805 20.1005828253558  C 48.9710968831805 20.1005828253558  46.3013773277094 15.2743476373827  46.3013773277094 15.2743476373827  C 46.3013773277094 15.2743476373827  43.5795790540112 8.96641114059089  43.5795790540112 8.96641114059089  C 43.5795790540112 8.96641114059089  47.3456926774367 5.83813713454433  47.3456926774367 5.83813713454433  C 47.3456926774367 5.83813713454433  59.0058435901395 7.61103985665702  59.0058435901395 7.61103985665702  C 59.0058435901395 7.61103985665702  67.5714222460387 6.53188167797973  67.5714222460387 6.53188167797973  Z " stroke-width="2" stroke="#505050" fill="none" stroke-opacity="0.211764705882353" transform="matrix(1 0 0 1 2318 1806 )" mask="url(#clip539)" />
  </g>
</svg>