<?xml version="1.0" encoding="utf-8"?>
<svg version="1.1" xmlns:xlink="http://www.w3.org/1999/xlink" width="251px" height="94px" xmlns="http://www.w3.org/2000/svg">
  <defs>
    <mask fill="white" id="clip540">
      <path d="M 3.8561833827164 32.3586595733789  C 3.8561833827164 32.3586595733789  1.83804921831647 26.0589067228623  1.83804921831647 26.0589067228623  C 1.83804921831647 26.0589067228623  9.94349023729331 24.4807868168743  9.94349023729331 24.4807868168743  C 9.94349023729331 24.4807868168743  24.6133513508007 16.5477647088163  24.6133513508007 16.5477647088163  C 24.6133513508007 16.5477647088163  36.3053677597718 12.1570278736078  36.3053677597718 12.1570278736078  C 36.3053677597718 12.1570278736078  42.9931792094622 15.0269152832875  42.9931792094622 15.0269152832875  C 42.9931792094622 15.0269152832875  51.0136172948849 15.1647886621709  51.0136172948849 15.1647886621709  C 51.0136172948849 15.1647886621709  56.1521817297841 19.4982550169202  56.1521817297841 19.4982550169202  C 56.1521817297841 19.4982550169202  63.824381990643 19.8291511262402  63.824381990643 19.8291511262402  C 63.824381990643 19.8291511262402  74.9405720755328 22.1411816336689  74.9405720755328 22.1411816336689  C 74.9405720755328 22.1411816336689  82.4153461681349 15.7077976620807  82.4153461681349 15.7077976620807  C 82.4153461681349 15.7077976620807  79.2921738675207 10.1928625067462  79.2921738675207 10.1928625067462  C 79.2921738675207 10.1928625067462  87.2550293205346 0.310522934168198  87.2550293205346 0.310522934168198  C 87.2550293205346 0.310522934168198  95.8677459107263 4.27915511710317  95.8677459107263 4.27915511710317  C 95.8677459107263 4.27915511710317  102.846212552573 5.39699005051126  102.846212552573 5.39699005051126  C 102.846212552573 5.39699005051126  111.886685840654 7.84053055010556  111.886685840654 7.84053055010556  C 111.886685840654 7.84053055010556  113.353671952004 14.8847996465924  113.353671952004 14.8847996465924  C 113.353671952004 14.8847996465924  124.272435868637 18.7897979623502  124.272435868637 18.7897979623502  C 124.272435868637 18.7897979623502  133.533621194703 17.0738046774789  133.533621194703 17.0738046774789  C 133.533621194703 17.0738046774789  143.259602011452 15.8583978143995  143.259602011452 15.8583978143995  C 143.259602011452 15.8583978143995  150.961964603572 17.0822891931026  150.961964603572 17.0822891931026  C 150.961964603572 17.0822891931026  158.491579298468 21.5196908642409  158.491579298468 21.5196908642409  C 158.491579298468 21.5196908642409  163.158514553643 26.1925378439338  163.158514553643 26.1925378439338  C 163.158514553643 26.1925378439338  170.287792851796 26.0970870431685  170.287792851796 26.0970870431685  C 170.287792851796 26.0970870431685  179.972643216826 27.5755138905793  179.972643216826 27.5755138905793  C 179.972643216826 27.5755138905793  187.038854822341 25.3228749925157  187.038854822341 25.3228749925157  C 187.038854822341 25.3228749925157  197.162430005719 23.8126312115165  197.162430005719 23.8126312115165  C 197.162430005719 23.8126312115165  208.421205656571 17.3240978883749  208.421205656571 17.3240978883749  C 208.421205656571 17.3240978883749  213.033300309453 18.3252707319586  213.033300309453 18.3252707319586  C 213.033300309453 18.3252707319586  217.058600517795 21.4136344189459  217.058600517795 21.4136344189459  C 217.058600517795 21.4136344189459  226.230691251381 20.6479068839168  226.230691251381 20.6479068839168  C 226.230691251381 20.6479068839168  222.487820144851 27.5352124413672  222.487820144851 27.5352124413672  C 222.487820144851 27.5352124413672  217.055858487681 36.5012243265974  217.055858487681 36.5012243265974  C 217.055858487681 36.5012243265974  219.035604230476 40.1198702400591  219.035604230476 40.1198702400591  C 219.035604230476 40.1198702400591  223.387206022464 38.9999141777451  223.387206022464 38.9999141777451  C 223.387206022464 38.9999141777451  230.971661319653 40.3722845798609  230.971661319653 40.3722845798609  C 230.971661319653 40.3722845798609  236.880736216776 37.10998832259  236.880736216776 37.10998832259  C 236.880736216776 37.10998832259  243.050303974793 39.9374531541519  243.050303974793 39.9374531541519  C 243.050303974793 39.9374531541519  250.01780249618 47.6021359120364  250.01780249618 47.6021359120364  C 250.01780249618 47.6021359120364  249.175999250975 50.6841362123059  249.175999250975 50.6841362123059  C 249.175999250975 50.6841362123059  243.110628637316 49.7084169155929  243.110628637316 49.7084169155929  C 243.110628637316 49.7084169155929  231.942339980247 50.8559476536837  231.942339980247 50.8559476536837  C 231.942339980247 50.8559476536837  226.532314563995 53.3079726689016  226.532314563995 53.3079726689016  C 226.532314563995 53.3079726689016  220.897442678339 58.9544178164016  220.897442678339 58.9544178164016  C 220.897442678339 58.9544178164016  209.175263938107 62.2336831049198  209.175263938107 62.2336831049198  C 209.175263938107 62.2336831049198  201.514031797707 66.6901749362111  201.514031797707 66.6901749362111  C 201.514031797707 66.6901749362111  193.611501007215 64.9932718114928  193.611501007215 64.9932718114928  C 193.611501007215 64.9932718114928  189.287319516374 64.2339076631814  189.287319516374 64.2339076631814  C 189.287319516374 64.2339076631814  185.248309157459 69.6173328263502  185.248309157459 69.6173328263502  C 185.248309157459 69.6173328263502  187.705168140207 72.796905056291  187.705168140207 72.796905056291  C 187.705168140207 72.796905056291  188.95004981227 75.5119500558403  188.95004981227 75.5119500558403  C 188.95004981227 75.5119500558403  183.567444697164 78.2630542467898  183.567444697164 78.2630542467898  C 183.567444697164 78.2630542467898  178.050480106439 82.6134896327863  178.050480106439 82.6134896327863  C 178.050480106439 82.6134896327863  169.067589450766 85.4494389799718  169.067589450766 85.4494389799718  C 169.067589450766 85.4494389799718  157.545578908905 85.7548815424211  157.545578908905 85.7548815424211  C 157.545578908905 85.7548815424211  145.124182489431 88.5356815380531  145.124182489431 88.5356815380531  C 145.124182489431 88.5356815380531  136.174196195134 92.8076351545314  136.174196195134 92.8076351545314  C 136.174196195134 92.8076351545314  132.768594792708 90.3386411080663  132.768594792708 90.3386411080663  C 132.768594792708 90.3386411080663  121.47556515167 90.345004494784  121.47556515167 90.345004494784  C 121.47556515167 90.345004494784  110.098882205886 85.485498171372  110.098882205886 85.485498171372  C 110.098882205886 85.485498171372  102.511684878582 84.2870603395398  102.511684878582 84.2870603395398  C 102.511684878582 84.2870603395398  92.283912550847 85.4070164018537  92.283912550847 85.4070164018537  C 92.283912550847 85.4070164018537  76.4157842772276 83.6019357029347  76.4157842772276 83.6019357029347  C 76.4157842772276 83.6019357029347  67.9401691927693 83.7885950466537  67.9401691927693 83.7885950466537  C 67.9401691927693 83.7885950466537  63.4295296541299 78.9757535591715  63.4295296541299 78.9757535591715  C 63.4295296541299 78.9757535591715  59.9252151675761 71.407565622928  59.9252151675761 71.407565622928  C 59.9252151675761 71.407565622928  55.1760190089601 70.4891168066742  55.1760190089601 70.4891168066742  C 55.1760190089601 70.4891168066742  45.8860209804439 65.2965932450362  45.8860209804439 65.2965932450362  C 45.8860209804439 65.2965932450362  35.5321152674337 64.1257300889807  35.5321152674337 64.1257300889807  C 35.5321152674337 64.1257300889807  26.395670925339 62.6854835618759  26.395670925339 62.6854835618759  C 26.395670925339 62.6854835618759  23.6289625396327 59.0180516835786  23.6289625396327 59.0180516835786  C 23.6289625396327 59.0180516835786  26.5876130333663 48.9914753453994  26.5876130333663 48.9914753453994  C 26.5876130333663 48.9914753453994  21.2845267915861 40.4104649001671  21.2845267915861 40.4104649001671  C 21.2845267915861 40.4104649001671  10.3191483630042 37.0908981624371  10.3191483630042 37.0908981624371  C 10.3191483630042 37.0908981624371  3.8561833827164 32.3586595733789  3.8561833827164 32.3586595733789  Z " fill-rule="evenodd" />
    </mask>
  </defs>
  <g transform="matrix(1 0 0 1 -2466 -1666 )">
    <path d="M 3.8561833827164 32.3586595733789  C 3.8561833827164 32.3586595733789  1.83804921831647 26.0589067228623  1.83804921831647 26.0589067228623  C 1.83804921831647 26.0589067228623  9.94349023729331 24.4807868168743  9.94349023729331 24.4807868168743  C 9.94349023729331 24.4807868168743  24.6133513508007 16.5477647088163  24.6133513508007 16.5477647088163  C 24.6133513508007 16.5477647088163  36.3053677597718 12.1570278736078  36.3053677597718 12.1570278736078  C 36.3053677597718 12.1570278736078  42.9931792094622 15.0269152832875  42.9931792094622 15.0269152832875  C 42.9931792094622 15.0269152832875  51.0136172948849 15.1647886621709  51.0136172948849 15.1647886621709  C 51.0136172948849 15.1647886621709  56.1521817297841 19.4982550169202  56.1521817297841 19.4982550169202  C 56.1521817297841 19.4982550169202  63.824381990643 19.8291511262402  63.824381990643 19.8291511262402  C 63.824381990643 19.8291511262402  74.9405720755328 22.1411816336689  74.9405720755328 22.1411816336689  C 74.9405720755328 22.1411816336689  82.4153461681349 15.7077976620807  82.4153461681349 15.7077976620807  C 82.4153461681349 15.7077976620807  79.2921738675207 10.1928625067462  79.2921738675207 10.1928625067462  C 79.2921738675207 10.1928625067462  87.2550293205346 0.310522934168198  87.2550293205346 0.310522934168198  C 87.2550293205346 0.310522934168198  95.8677459107263 4.27915511710317  95.8677459107263 4.27915511710317  C 95.8677459107263 4.27915511710317  102.846212552573 5.39699005051126  102.846212552573 5.39699005051126  C 102.846212552573 5.39699005051126  111.886685840654 7.84053055010556  111.886685840654 7.84053055010556  C 111.886685840654 7.84053055010556  113.353671952004 14.8847996465924  113.353671952004 14.8847996465924  C 113.353671952004 14.8847996465924  124.272435868637 18.7897979623502  124.272435868637 18.7897979623502  C 124.272435868637 18.7897979623502  133.533621194703 17.0738046774789  133.533621194703 17.0738046774789  C 133.533621194703 17.0738046774789  143.259602011452 15.8583978143995  143.259602011452 15.8583978143995  C 143.259602011452 15.8583978143995  150.961964603572 17.0822891931026  150.961964603572 17.0822891931026  C 150.961964603572 17.0822891931026  158.491579298468 21.5196908642409  158.491579298468 21.5196908642409  C 158.491579298468 21.5196908642409  163.158514553643 26.1925378439338  163.158514553643 26.1925378439338  C 163.158514553643 26.1925378439338  170.287792851796 26.0970870431685  170.287792851796 26.0970870431685  C 170.287792851796 26.0970870431685  179.972643216826 27.5755138905793  179.972643216826 27.5755138905793  C 179.972643216826 27.5755138905793  187.038854822341 25.3228749925157  187.038854822341 25.3228749925157  C 187.038854822341 25.3228749925157  197.162430005719 23.8126312115165  197.162430005719 23.8126312115165  C 197.162430005719 23.8126312115165  208.421205656571 17.3240978883749  208.421205656571 17.3240978883749  C 208.421205656571 17.3240978883749  213.033300309453 18.3252707319586  213.033300309453 18.3252707319586  C 213.033300309453 18.3252707319586  217.058600517795 21.4136344189459  217.058600517795 21.4136344189459  C 217.058600517795 21.4136344189459  226.230691251381 20.6479068839168  226.230691251381 20.6479068839168  C 226.230691251381 20.6479068839168  222.487820144851 27.5352124413672  222.487820144851 27.5352124413672  C 222.487820144851 27.5352124413672  217.055858487681 36.5012243265974  217.055858487681 36.5012243265974  C 217.055858487681 36.5012243265974  219.035604230476 40.1198702400591  219.035604230476 40.1198702400591  C 219.035604230476 40.1198702400591  223.387206022464 38.9999141777451  223.387206022464 38.9999141777451  C 223.387206022464 38.9999141777451  230.971661319653 40.3722845798609  230.971661319653 40.3722845798609  C 230.971661319653 40.3722845798609  236.880736216776 37.10998832259  236.880736216776 37.10998832259  C 236.880736216776 37.10998832259  243.050303974793 39.9374531541519  243.050303974793 39.9374531541519  C 243.050303974793 39.9374531541519  250.01780249618 47.6021359120364  250.01780249618 47.6021359120364  C 250.01780249618 47.6021359120364  249.175999250975 50.6841362123059  249.175999250975 50.6841362123059  C 249.175999250975 50.6841362123059  243.110628637316 49.7084169155929  243.110628637316 49.7084169155929  C 243.110628637316 49.7084169155929  231.942339980247 50.8559476536837  231.942339980247 50.8559476536837  C 231.942339980247 50.8559476536837  226.532314563995 53.3079726689016  226.532314563995 53.3079726689016  C 226.532314563995 53.3079726689016  220.897442678339 58.9544178164016  220.897442678339 58.9544178164016  C 220.897442678339 58.9544178164016  209.175263938107 62.2336831049198  209.175263938107 62.2336831049198  C 209.175263938107 62.2336831049198  201.514031797707 66.6901749362111  201.514031797707 66.6901749362111  C 201.514031797707 66.6901749362111  193.611501007215 64.9932718114928  193.611501007215 64.9932718114928  C 193.611501007215 64.9932718114928  189.287319516374 64.2339076631814  189.287319516374 64.2339076631814  C 189.287319516374 64.2339076631814  185.248309157459 69.6173328263502  185.248309157459 69.6173328263502  C 185.248309157459 69.6173328263502  187.705168140207 72.796905056291  187.705168140207 72.796905056291  C 187.705168140207 72.796905056291  188.95004981227 75.5119500558403  188.95004981227 75.5119500558403  C 188.95004981227 75.5119500558403  183.567444697164 78.2630542467898  183.567444697164 78.2630542467898  C 183.567444697164 78.2630542467898  178.050480106439 82.6134896327863  178.050480106439 82.6134896327863  C 178.050480106439 82.6134896327863  169.067589450766 85.4494389799718  169.067589450766 85.4494389799718  C 169.067589450766 85.4494389799718  157.545578908905 85.7548815424211  157.545578908905 85.7548815424211  C 157.545578908905 85.7548815424211  145.124182489431 88.5356815380531  145.124182489431 88.5356815380531  C 145.124182489431 88.5356815380531  136.174196195134 92.8076351545314  136.174196195134 92.8076351545314  C 136.174196195134 92.8076351545314  132.768594792708 90.3386411080663  132.768594792708 90.3386411080663  C 132.768594792708 90.3386411080663  121.47556515167 90.345004494784  121.47556515167 90.345004494784  C 121.47556515167 90.345004494784  110.098882205886 85.485498171372  110.098882205886 85.485498171372  C 110.098882205886 85.485498171372  102.511684878582 84.2870603395398  102.511684878582 84.2870603395398  C 102.511684878582 84.2870603395398  92.283912550847 85.4070164018537  92.283912550847 85.4070164018537  C 92.283912550847 85.4070164018537  76.4157842772276 83.6019357029347  76.4157842772276 83.6019357029347  C 76.4157842772276 83.6019357029347  67.9401691927693 83.7885950466537  67.9401691927693 83.7885950466537  C 67.9401691927693 83.7885950466537  63.4295296541299 78.9757535591715  63.4295296541299 78.9757535591715  C 63.4295296541299 78.9757535591715  59.9252151675761 71.407565622928  59.9252151675761 71.407565622928  C 59.9252151675761 71.407565622928  55.1760190089601 70.4891168066742  55.1760190089601 70.4891168066742  C 55.1760190089601 70.4891168066742  45.8860209804439 65.2965932450362  45.8860209804439 65.2965932450362  C 45.8860209804439 65.2965932450362  35.5321152674337 64.1257300889807  35.5321152674337 64.1257300889807  C 35.5321152674337 64.1257300889807  26.395670925339 62.6854835618759  26.395670925339 62.6854835618759  C 26.395670925339 62.6854835618759  23.6289625396327 59.0180516835786  23.6289625396327 59.0180516835786  C 23.6289625396327 59.0180516835786  26.5876130333663 48.9914753453994  26.5876130333663 48.9914753453994  C 26.5876130333663 48.9914753453994  21.2845267915861 40.4104649001671  21.2845267915861 40.4104649001671  C 21.2845267915861 40.4104649001671  10.3191483630042 37.0908981624371  10.3191483630042 37.0908981624371  C 10.3191483630042 37.0908981624371  3.8561833827164 32.3586595733789  3.8561833827164 32.3586595733789  Z " fill-rule="nonzero" fill="#f2f2f2" stroke="none" transform="matrix(1 0 0 1 2466 1666 )" />
    <path d="M 3.8561833827164 32.3586595733789  C 3.8561833827164 32.3586595733789  1.83804921831647 26.0589067228623  1.83804921831647 26.0589067228623  C 1.83804921831647 26.0589067228623  9.94349023729331 24.4807868168743  9.94349023729331 24.4807868168743  C 9.94349023729331 24.4807868168743  24.6133513508007 16.5477647088163  24.6133513508007 16.5477647088163  C 24.6133513508007 16.5477647088163  36.3053677597718 12.1570278736078  36.3053677597718 12.1570278736078  C 36.3053677597718 12.1570278736078  42.9931792094622 15.0269152832875  42.9931792094622 15.0269152832875  C 42.9931792094622 15.0269152832875  51.0136172948849 15.1647886621709  51.0136172948849 15.1647886621709  C 51.0136172948849 15.1647886621709  56.1521817297841 19.4982550169202  56.1521817297841 19.4982550169202  C 56.1521817297841 19.4982550169202  63.824381990643 19.8291511262402  63.824381990643 19.8291511262402  C 63.824381990643 19.8291511262402  74.9405720755328 22.1411816336689  74.9405720755328 22.1411816336689  C 74.9405720755328 22.1411816336689  82.4153461681349 15.7077976620807  82.4153461681349 15.7077976620807  C 82.4153461681349 15.7077976620807  79.2921738675207 10.1928625067462  79.2921738675207 10.1928625067462  C 79.2921738675207 10.1928625067462  87.2550293205346 0.310522934168198  87.2550293205346 0.310522934168198  C 87.2550293205346 0.310522934168198  95.8677459107263 4.27915511710317  95.8677459107263 4.27915511710317  C 95.8677459107263 4.27915511710317  102.846212552573 5.39699005051126  102.846212552573 5.39699005051126  C 102.846212552573 5.39699005051126  111.886685840654 7.84053055010556  111.886685840654 7.84053055010556  C 111.886685840654 7.84053055010556  113.353671952004 14.8847996465924  113.353671952004 14.8847996465924  C 113.353671952004 14.8847996465924  124.272435868637 18.7897979623502  124.272435868637 18.7897979623502  C 124.272435868637 18.7897979623502  133.533621194703 17.0738046774789  133.533621194703 17.0738046774789  C 133.533621194703 17.0738046774789  143.259602011452 15.8583978143995  143.259602011452 15.8583978143995  C 143.259602011452 15.8583978143995  150.961964603572 17.0822891931026  150.961964603572 17.0822891931026  C 150.961964603572 17.0822891931026  158.491579298468 21.5196908642409  158.491579298468 21.5196908642409  C 158.491579298468 21.5196908642409  163.158514553643 26.1925378439338  163.158514553643 26.1925378439338  C 163.158514553643 26.1925378439338  170.287792851796 26.0970870431685  170.287792851796 26.0970870431685  C 170.287792851796 26.0970870431685  179.972643216826 27.5755138905793  179.972643216826 27.5755138905793  C 179.972643216826 27.5755138905793  187.038854822341 25.3228749925157  187.038854822341 25.3228749925157  C 187.038854822341 25.3228749925157  197.162430005719 23.8126312115165  197.162430005719 23.8126312115165  C 197.162430005719 23.8126312115165  208.421205656571 17.3240978883749  208.421205656571 17.3240978883749  C 208.421205656571 17.3240978883749  213.033300309453 18.3252707319586  213.033300309453 18.3252707319586  C 213.033300309453 18.3252707319586  217.058600517795 21.4136344189459  217.058600517795 21.4136344189459  C 217.058600517795 21.4136344189459  226.230691251381 20.6479068839168  226.230691251381 20.6479068839168  C 226.230691251381 20.6479068839168  222.487820144851 27.5352124413672  222.487820144851 27.5352124413672  C 222.487820144851 27.5352124413672  217.055858487681 36.5012243265974  217.055858487681 36.5012243265974  C 217.055858487681 36.5012243265974  219.035604230476 40.1198702400591  219.035604230476 40.1198702400591  C 219.035604230476 40.1198702400591  223.387206022464 38.9999141777451  223.387206022464 38.9999141777451  C 223.387206022464 38.9999141777451  230.971661319653 40.3722845798609  230.971661319653 40.3722845798609  C 230.971661319653 40.3722845798609  236.880736216776 37.10998832259  236.880736216776 37.10998832259  C 236.880736216776 37.10998832259  243.050303974793 39.9374531541519  243.050303974793 39.9374531541519  C 243.050303974793 39.9374531541519  250.01780249618 47.6021359120364  250.01780249618 47.6021359120364  C 250.01780249618 47.6021359120364  249.175999250975 50.6841362123059  249.175999250975 50.6841362123059  C 249.175999250975 50.6841362123059  243.110628637316 49.7084169155929  243.110628637316 49.7084169155929  C 243.110628637316 49.7084169155929  231.942339980247 50.8559476536837  231.942339980247 50.8559476536837  C 231.942339980247 50.8559476536837  226.532314563995 53.3079726689016  226.532314563995 53.3079726689016  C 226.532314563995 53.3079726689016  220.897442678339 58.9544178164016  220.897442678339 58.9544178164016  C 220.897442678339 58.9544178164016  209.175263938107 62.2336831049198  209.175263938107 62.2336831049198  C 209.175263938107 62.2336831049198  201.514031797707 66.6901749362111  201.514031797707 66.6901749362111  C 201.514031797707 66.6901749362111  193.611501007215 64.9932718114928  193.611501007215 64.9932718114928  C 193.611501007215 64.9932718114928  189.287319516374 64.2339076631814  189.287319516374 64.2339076631814  C 189.287319516374 64.2339076631814  185.248309157459 69.6173328263502  185.248309157459 69.6173328263502  C 185.248309157459 69.6173328263502  187.705168140207 72.796905056291  187.705168140207 72.796905056291  C 187.705168140207 72.796905056291  188.95004981227 75.5119500558403  188.95004981227 75.5119500558403  C 188.95004981227 75.5119500558403  183.567444697164 78.2630542467898  183.567444697164 78.2630542467898  C 183.567444697164 78.2630542467898  178.050480106439 82.6134896327863  178.050480106439 82.6134896327863  C 178.050480106439 82.6134896327863  169.067589450766 85.4494389799718  169.067589450766 85.4494389799718  C 169.067589450766 85.4494389799718  157.545578908905 85.7548815424211  157.545578908905 85.7548815424211  C 157.545578908905 85.7548815424211  145.124182489431 88.5356815380531  145.124182489431 88.5356815380531  C 145.124182489431 88.5356815380531  136.174196195134 92.8076351545314  136.174196195134 92.8076351545314  C 136.174196195134 92.8076351545314  132.768594792708 90.3386411080663  132.768594792708 90.3386411080663  C 132.768594792708 90.3386411080663  121.47556515167 90.345004494784  121.47556515167 90.345004494784  C 121.47556515167 90.345004494784  110.098882205886 85.485498171372  110.098882205886 85.485498171372  C 110.098882205886 85.485498171372  102.511684878582 84.2870603395398  102.511684878582 84.2870603395398  C 102.511684878582 84.2870603395398  92.283912550847 85.4070164018537  92.283912550847 85.4070164018537  C 92.283912550847 85.4070164018537  76.4157842772276 83.6019357029347  76.4157842772276 83.6019357029347  C 76.4157842772276 83.6019357029347  67.9401691927693 83.7885950466537  67.9401691927693 83.7885950466537  C 67.9401691927693 83.7885950466537  63.4295296541299 78.9757535591715  63.4295296541299 78.9757535591715  C 63.4295296541299 78.9757535591715  59.9252151675761 71.407565622928  59.9252151675761 71.407565622928  C 59.9252151675761 71.407565622928  55.1760190089601 70.4891168066742  55.1760190089601 70.4891168066742  C 55.1760190089601 70.4891168066742  45.8860209804439 65.2965932450362  45.8860209804439 65.2965932450362  C 45.8860209804439 65.2965932450362  35.5321152674337 64.1257300889807  35.5321152674337 64.1257300889807  C 35.5321152674337 64.1257300889807  26.395670925339 62.6854835618759  26.395670925339 62.6854835618759  C 26.395670925339 62.6854835618759  23.6289625396327 59.0180516835786  23.6289625396327 59.0180516835786  C 23.6289625396327 59.0180516835786  26.5876130333663 48.9914753453994  26.5876130333663 48.9914753453994  C 26.5876130333663 48.9914753453994  21.2845267915861 40.4104649001671  21.2845267915861 40.4104649001671  C 21.2845267915861 40.4104649001671  10.3191483630042 37.0908981624371  10.3191483630042 37.0908981624371  C 10.3191483630042 37.0908981624371  3.8561833827164 32.3586595733789  3.8561833827164 32.3586595733789  Z " stroke-width="2" stroke="#505050" fill="none" stroke-opacity="0.211764705882353" transform="matrix(1 0 0 1 2466 1666 )" mask="url(#clip540)" />
  </g>
</svg>