<?xml version="1.0" encoding="utf-8"?>
<svg version="1.1" xmlns:xlink="http://www.w3.org/1999/xlink" width="135px" height="96px" xmlns="http://www.w3.org/2000/svg">
  <defs>
    <mask fill="white" id="clip541">
      <path d="M 108.952783255132 1.51222857461433  C 108.952783255132 1.51222857461433  113.479133581171 0.676751274993201  113.479133581171 0.676751274993201  C 113.479133581171 0.676751274993201  119.225823455897 4.1444083323491  119.225823455897 4.1444083323491  C 119.225823455897 4.1444083323491  121.527827604556 9.8158498994197  121.527827604556 9.8158498994197  C 121.527827604556 9.8158498994197  134.316431375001 12.7805155212894  134.316431375001 12.7805155212894  C 134.316431375001 12.7805155212894  126.805796152627 18.8888776149476  126.805796152627 18.8888776149476  C 126.805796152627 18.8888776149476  118.138611857976 19.9630627144604  118.138611857976 19.9630627144604  C 118.138611857976 19.9630627144604  106.340147221352 18.198330050975  106.340147221352 18.198330050975  C 106.340147221352 18.198330050975  102.52935963068 21.3121880477771  102.52935963068 21.3121880477771  C 102.52935963068 21.3121880477771  105.283444112149 27.5910557127865  105.283444112149 27.5910557127865  C 105.283444112149 27.5910557127865  107.984832113105 32.3950501856076  107.984832113105 32.3950501856076  C 107.984832113105 32.3950501856076  114.264033790895 35.8776264804567  114.264033790895 35.8776264804567  C 114.264033790895 35.8776264804567  107.629824244397 39.9335277589744  107.629824244397 39.9335277589744  C 107.629824244397 39.9335277589744  107.751858199265 44.8952398852955  107.751858199265 44.8952398852955  C 107.751858199265 44.8952398852955  100.199620492278 53.368284498572  100.199620492278 53.368284498572  C 100.199620492278 53.368284498572  95.3265827944531 60.2972046543577  95.3265827944531 60.2972046543577  C 95.3265827944531 60.2972046543577  87.1919103028648 67.3859737832855  87.1919103028648 67.3859737832855  C 87.1919103028648 67.3859737832855  78.1613976425817 66.8744570692321  78.1613976425817 66.8744570692321  C 78.1613976425817 66.8744570692321  69.59128581203 73.8971552892611  69.59128581203 73.8971552892611  C 69.59128581203 73.8971552892611  74.6806564298495 76.8852654271917  74.6806564298495 76.8852654271917  C 74.6806564298495 76.8852654271917  75.5654026026477 81.9812506909518  75.5654026026477 81.9812506909518  C 75.5654026026477 81.9812506909518  79.9364369861259 85.3188972501524  79.9364369861259 85.3188972501524  C 79.9364369861259 85.3188972501524  81.4785024158305 90.9391871458176  81.4785024158305 90.9391871458176  C 81.4785024158305 90.9391871458176  62.3510883713362 90.9221365886823  62.3510883713362 90.9221365886823  C 62.3510883713362 90.9221365886823  57.1729657863395 95.2636346992134  57.1729657863395 95.2636346992134  C 57.1729657863395 95.2636346992134  51.4734253941769 93.6203872553157  51.4734253941769 93.6203872553157  C 51.4734253941769 93.6203872553157  49.1547802516717 88.9336153627986  49.1547802516717 88.9336153627986  C 49.1547802516717 88.9336153627986  43.1473814733624 83.9378021222071  43.1473814733624 83.9378021222071  C 43.1473814733624 83.9378021222071  28.8194857721884 85.173967514504  28.8194857721884 85.173967514504  C 28.8194857721884 85.173967514504  16.1834244453301 85.2954527340914  16.1834244453301 85.2954527340914  C 16.1834244453301 85.2954527340914  5.23365049483931 86.21831413903  5.23365049483931 86.21831413903  C 5.23365049483931 86.21831413903  8.16246541168812 78.5562200264337  8.16246541168812 78.5562200264337  C 8.16246541168812 78.5562200264337  19.3784952637106 75.1269267226319  19.3784952637106 75.1269267226319  C 19.3784952637106 75.1269267226319  18.73781700065 72.0535637990259  18.73781700065 72.0535637990259  C 18.73781700065 72.0535637990259  15.0157813771548 70.9708534209453  15.0157813771548 70.9708534209453  C 15.0157813771548 70.9708534209453  14.8022219561346 65.0521787754157  14.8022219561346 65.0521787754157  C 14.8022219561346 65.0521787754157  7.36647120606714 62.0768565553364  7.36647120606714 62.0768565553364  C 7.36647120606714 62.0768565553364  4.23519086409517 57.9719349250554  4.23519086409517 57.9719349250554  C 4.23519086409517 57.9719349250554  0.388347786757471 54.3785300088281  0.388347786757471 54.3785300088281  C 0.388347786757471 54.3785300088281  13.4182459679646 57.8675002626029  13.4182459679646 57.8675002626029  C 13.4182459679646 57.8675002626029  21.1951370918694 56.8465981541371  21.1951370918694 56.8465981541371  C 21.1951370918694 56.8465981541371  25.8435213727768 57.7161765680283  25.8435213727768 57.7161765680283  C 25.8435213727768 57.7161765680283  27.418868790173 56.2199901794213  27.418868790173 56.2199901794213  C 27.418868790173 56.2199901794213  32.8355122869581 56.8210223184344  32.8355122869581 56.8210223184344  C 32.8355122869581 56.8210223184344  42.939369050291 53.9757105965104  42.939369050291 53.9757105965104  C 42.939369050291 53.9757105965104  43.2139454487456 46.5661944845375  43.2139454487456 46.5661944845375  C 43.2139454487456 46.5661944845375  47.5461508465839 42.6381723845335  47.5461508465839 42.6381723845335  C 47.5461508465839 42.6381723845335  53.3372167048989 42.6488289827429  53.3372167048989 42.6488289827429  C 53.3372167048989 42.6488289827429  54.188680890005 40.7008028300549  54.188680890005 40.7008028300549  C 54.188680890005 40.7008028300549  60.1322891919053 39.7885980233257  60.1322891919053 39.7885980233257  C 60.1322891919053 39.7885980233257  63.0084076282426 40.4407818337443  63.0084076282426 40.4407818337443  C 63.0084076282426 40.4407818337443  66.0453890050886 38.4714424846375  66.0453890050886 38.4714424846375  C 66.0453890050886 38.4714424846375  65.6182701630482 34.2514295936944  65.6182701630482 34.2514295936944  C 65.6182701630482 34.2514295936944  70.9364328145602 29.9802650313457  70.9364328145602 29.9802650313457  C 70.9364328145602 29.9802650313457  75.8843549846905 28.1814312535902  75.8843549846905 28.1814312535902  C 75.8843549846905 28.1814312535902  72.8279591150246 23.4520329682352  72.8279591150246 23.4520329682352  C 72.8279591150246 23.4520329682352  80.2248808794522 23.6758215306336  80.2248808794522 23.6758215306336  C 80.2248808794522 23.6758215306336  82.3632485886283 21.0883994853785  82.3632485886283 21.0883994853785  C 82.3632485886283 21.0883994853785  82.0387492086368 18.3134213116371  82.0387492086368 18.3134213116371  C 82.0387492086368 18.3134213116371  85.9133272757182 15.2656342237338  85.9133272757182 15.2656342237338  C 85.9133272757182 15.2656342237338  85.0230341049713 11.6338655539523  85.0230341049713 11.6338655539523  C 85.0230341049713 11.6338655539523  83.1869777839921 8.52213887679224  83.1869777839921 8.52213887679224  C 83.1869777839921 8.52213887679224  87.7244221059282 5.30810885682126  87.7244221059282 5.30810885682126  C 87.7244221059282 5.30810885682126  96.0754275175109 3.75011419859936  96.0754275175109 3.75011419859936  C 96.0754275175109 3.75011419859936  105.000547216771 2.88692974363376  105.000547216771 2.88692974363376  C 105.000547216771 2.88692974363376  108.952783255132 1.51222857461433  108.952783255132 1.51222857461433  Z " fill-rule="evenodd" />
    </mask>
  </defs>
  <g transform="matrix(1 0 0 1 -2262 -1793 )">
    <path d="M 108.952783255132 1.51222857461433  C 108.952783255132 1.51222857461433  113.479133581171 0.676751274993201  113.479133581171 0.676751274993201  C 113.479133581171 0.676751274993201  119.225823455897 4.1444083323491  119.225823455897 4.1444083323491  C 119.225823455897 4.1444083323491  121.527827604556 9.8158498994197  121.527827604556 9.8158498994197  C 121.527827604556 9.8158498994197  134.316431375001 12.7805155212894  134.316431375001 12.7805155212894  C 134.316431375001 12.7805155212894  126.805796152627 18.8888776149476  126.805796152627 18.8888776149476  C 126.805796152627 18.8888776149476  118.138611857976 19.9630627144604  118.138611857976 19.9630627144604  C 118.138611857976 19.9630627144604  106.340147221352 18.198330050975  106.340147221352 18.198330050975  C 106.340147221352 18.198330050975  102.52935963068 21.3121880477771  102.52935963068 21.3121880477771  C 102.52935963068 21.3121880477771  105.283444112149 27.5910557127865  105.283444112149 27.5910557127865  C 105.283444112149 27.5910557127865  107.984832113105 32.3950501856076  107.984832113105 32.3950501856076  C 107.984832113105 32.3950501856076  114.264033790895 35.8776264804567  114.264033790895 35.8776264804567  C 114.264033790895 35.8776264804567  107.629824244397 39.9335277589744  107.629824244397 39.9335277589744  C 107.629824244397 39.9335277589744  107.751858199265 44.8952398852955  107.751858199265 44.8952398852955  C 107.751858199265 44.8952398852955  100.199620492278 53.368284498572  100.199620492278 53.368284498572  C 100.199620492278 53.368284498572  95.3265827944531 60.2972046543577  95.3265827944531 60.2972046543577  C 95.3265827944531 60.2972046543577  87.1919103028648 67.3859737832855  87.1919103028648 67.3859737832855  C 87.1919103028648 67.3859737832855  78.1613976425817 66.8744570692321  78.1613976425817 66.8744570692321  C 78.1613976425817 66.8744570692321  69.59128581203 73.8971552892611  69.59128581203 73.8971552892611  C 69.59128581203 73.8971552892611  74.6806564298495 76.8852654271917  74.6806564298495 76.8852654271917  C 74.6806564298495 76.8852654271917  75.5654026026477 81.9812506909518  75.5654026026477 81.9812506909518  C 75.5654026026477 81.9812506909518  79.9364369861259 85.3188972501524  79.9364369861259 85.3188972501524  C 79.9364369861259 85.3188972501524  81.4785024158305 90.9391871458176  81.4785024158305 90.9391871458176  C 81.4785024158305 90.9391871458176  62.3510883713362 90.9221365886823  62.3510883713362 90.9221365886823  C 62.3510883713362 90.9221365886823  57.1729657863395 95.2636346992134  57.1729657863395 95.2636346992134  C 57.1729657863395 95.2636346992134  51.4734253941769 93.6203872553157  51.4734253941769 93.6203872553157  C 51.4734253941769 93.6203872553157  49.1547802516717 88.9336153627986  49.1547802516717 88.9336153627986  C 49.1547802516717 88.9336153627986  43.1473814733624 83.9378021222071  43.1473814733624 83.9378021222071  C 43.1473814733624 83.9378021222071  28.8194857721884 85.173967514504  28.8194857721884 85.173967514504  C 28.8194857721884 85.173967514504  16.1834244453301 85.2954527340914  16.1834244453301 85.2954527340914  C 16.1834244453301 85.2954527340914  5.23365049483931 86.21831413903  5.23365049483931 86.21831413903  C 5.23365049483931 86.21831413903  8.16246541168812 78.5562200264337  8.16246541168812 78.5562200264337  C 8.16246541168812 78.5562200264337  19.3784952637106 75.1269267226319  19.3784952637106 75.1269267226319  C 19.3784952637106 75.1269267226319  18.73781700065 72.0535637990259  18.73781700065 72.0535637990259  C 18.73781700065 72.0535637990259  15.0157813771548 70.9708534209453  15.0157813771548 70.9708534209453  C 15.0157813771548 70.9708534209453  14.8022219561346 65.0521787754157  14.8022219561346 65.0521787754157  C 14.8022219561346 65.0521787754157  7.36647120606714 62.0768565553364  7.36647120606714 62.0768565553364  C 7.36647120606714 62.0768565553364  4.23519086409517 57.9719349250554  4.23519086409517 57.9719349250554  C 4.23519086409517 57.9719349250554  0.388347786757471 54.3785300088281  0.388347786757471 54.3785300088281  C 0.388347786757471 54.3785300088281  13.4182459679646 57.8675002626029  13.4182459679646 57.8675002626029  C 13.4182459679646 57.8675002626029  21.1951370918694 56.8465981541371  21.1951370918694 56.8465981541371  C 21.1951370918694 56.8465981541371  25.8435213727768 57.7161765680283  25.8435213727768 57.7161765680283  C 25.8435213727768 57.7161765680283  27.418868790173 56.2199901794213  27.418868790173 56.2199901794213  C 27.418868790173 56.2199901794213  32.8355122869581 56.8210223184344  32.8355122869581 56.8210223184344  C 32.8355122869581 56.8210223184344  42.939369050291 53.9757105965104  42.939369050291 53.9757105965104  C 42.939369050291 53.9757105965104  43.2139454487456 46.5661944845375  43.2139454487456 46.5661944845375  C 43.2139454487456 46.5661944845375  47.5461508465839 42.6381723845335  47.5461508465839 42.6381723845335  C 47.5461508465839 42.6381723845335  53.3372167048989 42.6488289827429  53.3372167048989 42.6488289827429  C 53.3372167048989 42.6488289827429  54.188680890005 40.7008028300549  54.188680890005 40.7008028300549  C 54.188680890005 40.7008028300549  60.1322891919053 39.7885980233257  60.1322891919053 39.7885980233257  C 60.1322891919053 39.7885980233257  63.0084076282426 40.4407818337443  63.0084076282426 40.4407818337443  C 63.0084076282426 40.4407818337443  66.0453890050886 38.4714424846375  66.0453890050886 38.4714424846375  C 66.0453890050886 38.4714424846375  65.6182701630482 34.2514295936944  65.6182701630482 34.2514295936944  C 65.6182701630482 34.2514295936944  70.9364328145602 29.9802650313457  70.9364328145602 29.9802650313457  C 70.9364328145602 29.9802650313457  75.8843549846905 28.1814312535902  75.8843549846905 28.1814312535902  C 75.8843549846905 28.1814312535902  72.8279591150246 23.4520329682352  72.8279591150246 23.4520329682352  C 72.8279591150246 23.4520329682352  80.2248808794522 23.6758215306336  80.2248808794522 23.6758215306336  C 80.2248808794522 23.6758215306336  82.3632485886283 21.0883994853785  82.3632485886283 21.0883994853785  C 82.3632485886283 21.0883994853785  82.0387492086368 18.3134213116371  82.0387492086368 18.3134213116371  C 82.0387492086368 18.3134213116371  85.9133272757182 15.2656342237338  85.9133272757182 15.2656342237338  C 85.9133272757182 15.2656342237338  85.0230341049713 11.6338655539523  85.0230341049713 11.6338655539523  C 85.0230341049713 11.6338655539523  83.1869777839921 8.52213887679224  83.1869777839921 8.52213887679224  C 83.1869777839921 8.52213887679224  87.7244221059282 5.30810885682126  87.7244221059282 5.30810885682126  C 87.7244221059282 5.30810885682126  96.0754275175109 3.75011419859936  96.0754275175109 3.75011419859936  C 96.0754275175109 3.75011419859936  105.000547216771 2.88692974363376  105.000547216771 2.88692974363376  C 105.000547216771 2.88692974363376  108.952783255132 1.51222857461433  108.952783255132 1.51222857461433  Z " fill-rule="nonzero" fill="#f2f2f2" stroke="none" transform="matrix(1 0 0 1 2262 1793 )" />
    <path d="M 108.952783255132 1.51222857461433  C 108.952783255132 1.51222857461433  113.479133581171 0.676751274993201  113.479133581171 0.676751274993201  C 113.479133581171 0.676751274993201  119.225823455897 4.1444083323491  119.225823455897 4.1444083323491  C 119.225823455897 4.1444083323491  121.527827604556 9.8158498994197  121.527827604556 9.8158498994197  C 121.527827604556 9.8158498994197  134.316431375001 12.7805155212894  134.316431375001 12.7805155212894  C 134.316431375001 12.7805155212894  126.805796152627 18.8888776149476  126.805796152627 18.8888776149476  C 126.805796152627 18.8888776149476  118.138611857976 19.9630627144604  118.138611857976 19.9630627144604  C 118.138611857976 19.9630627144604  106.340147221352 18.198330050975  106.340147221352 18.198330050975  C 106.340147221352 18.198330050975  102.52935963068 21.3121880477771  102.52935963068 21.3121880477771  C 102.52935963068 21.3121880477771  105.283444112149 27.5910557127865  105.283444112149 27.5910557127865  C 105.283444112149 27.5910557127865  107.984832113105 32.3950501856076  107.984832113105 32.3950501856076  C 107.984832113105 32.3950501856076  114.264033790895 35.8776264804567  114.264033790895 35.8776264804567  C 114.264033790895 35.8776264804567  107.629824244397 39.9335277589744  107.629824244397 39.9335277589744  C 107.629824244397 39.9335277589744  107.751858199265 44.8952398852955  107.751858199265 44.8952398852955  C 107.751858199265 44.8952398852955  100.199620492278 53.368284498572  100.199620492278 53.368284498572  C 100.199620492278 53.368284498572  95.3265827944531 60.2972046543577  95.3265827944531 60.2972046543577  C 95.3265827944531 60.2972046543577  87.1919103028648 67.3859737832855  87.1919103028648 67.3859737832855  C 87.1919103028648 67.3859737832855  78.1613976425817 66.8744570692321  78.1613976425817 66.8744570692321  C 78.1613976425817 66.8744570692321  69.59128581203 73.8971552892611  69.59128581203 73.8971552892611  C 69.59128581203 73.8971552892611  74.6806564298495 76.8852654271917  74.6806564298495 76.8852654271917  C 74.6806564298495 76.8852654271917  75.5654026026477 81.9812506909518  75.5654026026477 81.9812506909518  C 75.5654026026477 81.9812506909518  79.9364369861259 85.3188972501524  79.9364369861259 85.3188972501524  C 79.9364369861259 85.3188972501524  81.4785024158305 90.9391871458176  81.4785024158305 90.9391871458176  C 81.4785024158305 90.9391871458176  62.3510883713362 90.9221365886823  62.3510883713362 90.9221365886823  C 62.3510883713362 90.9221365886823  57.1729657863395 95.2636346992134  57.1729657863395 95.2636346992134  C 57.1729657863395 95.2636346992134  51.4734253941769 93.6203872553157  51.4734253941769 93.6203872553157  C 51.4734253941769 93.6203872553157  49.1547802516717 88.9336153627986  49.1547802516717 88.9336153627986  C 49.1547802516717 88.9336153627986  43.1473814733624 83.9378021222071  43.1473814733624 83.9378021222071  C 43.1473814733624 83.9378021222071  28.8194857721884 85.173967514504  28.8194857721884 85.173967514504  C 28.8194857721884 85.173967514504  16.1834244453301 85.2954527340914  16.1834244453301 85.2954527340914  C 16.1834244453301 85.2954527340914  5.23365049483931 86.21831413903  5.23365049483931 86.21831413903  C 5.23365049483931 86.21831413903  8.16246541168812 78.5562200264337  8.16246541168812 78.5562200264337  C 8.16246541168812 78.5562200264337  19.3784952637106 75.1269267226319  19.3784952637106 75.1269267226319  C 19.3784952637106 75.1269267226319  18.73781700065 72.0535637990259  18.73781700065 72.0535637990259  C 18.73781700065 72.0535637990259  15.0157813771548 70.9708534209453  15.0157813771548 70.9708534209453  C 15.0157813771548 70.9708534209453  14.8022219561346 65.0521787754157  14.8022219561346 65.0521787754157  C 14.8022219561346 65.0521787754157  7.36647120606714 62.0768565553364  7.36647120606714 62.0768565553364  C 7.36647120606714 62.0768565553364  4.23519086409517 57.9719349250554  4.23519086409517 57.9719349250554  C 4.23519086409517 57.9719349250554  0.388347786757471 54.3785300088281  0.388347786757471 54.3785300088281  C 0.388347786757471 54.3785300088281  13.4182459679646 57.8675002626029  13.4182459679646 57.8675002626029  C 13.4182459679646 57.8675002626029  21.1951370918694 56.8465981541371  21.1951370918694 56.8465981541371  C 21.1951370918694 56.8465981541371  25.8435213727768 57.7161765680283  25.8435213727768 57.7161765680283  C 25.8435213727768 57.7161765680283  27.418868790173 56.2199901794213  27.418868790173 56.2199901794213  C 27.418868790173 56.2199901794213  32.8355122869581 56.8210223184344  32.8355122869581 56.8210223184344  C 32.8355122869581 56.8210223184344  42.939369050291 53.9757105965104  42.939369050291 53.9757105965104  C 42.939369050291 53.9757105965104  43.2139454487456 46.5661944845375  43.2139454487456 46.5661944845375  C 43.2139454487456 46.5661944845375  47.5461508465839 42.6381723845335  47.5461508465839 42.6381723845335  C 47.5461508465839 42.6381723845335  53.3372167048989 42.6488289827429  53.3372167048989 42.6488289827429  C 53.3372167048989 42.6488289827429  54.188680890005 40.7008028300549  54.188680890005 40.7008028300549  C 54.188680890005 40.7008028300549  60.1322891919053 39.7885980233257  60.1322891919053 39.7885980233257  C 60.1322891919053 39.7885980233257  63.0084076282426 40.4407818337443  63.0084076282426 40.4407818337443  C 63.0084076282426 40.4407818337443  66.0453890050886 38.4714424846375  66.0453890050886 38.4714424846375  C 66.0453890050886 38.4714424846375  65.6182701630482 34.2514295936944  65.6182701630482 34.2514295936944  C 65.6182701630482 34.2514295936944  70.9364328145602 29.9802650313457  70.9364328145602 29.9802650313457  C 70.9364328145602 29.9802650313457  75.8843549846905 28.1814312535902  75.8843549846905 28.1814312535902  C 75.8843549846905 28.1814312535902  72.8279591150246 23.4520329682352  72.8279591150246 23.4520329682352  C 72.8279591150246 23.4520329682352  80.2248808794522 23.6758215306336  80.2248808794522 23.6758215306336  C 80.2248808794522 23.6758215306336  82.3632485886283 21.0883994853785  82.3632485886283 21.0883994853785  C 82.3632485886283 21.0883994853785  82.0387492086368 18.3134213116371  82.0387492086368 18.3134213116371  C 82.0387492086368 18.3134213116371  85.9133272757182 15.2656342237338  85.9133272757182 15.2656342237338  C 85.9133272757182 15.2656342237338  85.0230341049713 11.6338655539523  85.0230341049713 11.6338655539523  C 85.0230341049713 11.6338655539523  83.1869777839921 8.52213887679224  83.1869777839921 8.52213887679224  C 83.1869777839921 8.52213887679224  87.7244221059282 5.30810885682126  87.7244221059282 5.30810885682126  C 87.7244221059282 5.30810885682126  96.0754275175109 3.75011419859936  96.0754275175109 3.75011419859936  C 96.0754275175109 3.75011419859936  105.000547216771 2.88692974363376  105.000547216771 2.88692974363376  C 105.000547216771 2.88692974363376  108.952783255132 1.51222857461433  108.952783255132 1.51222857461433  Z " stroke-width="2" stroke="#505050" fill="none" stroke-opacity="0.211764705882353" transform="matrix(1 0 0 1 2262 1793 )" mask="url(#clip541)" />
  </g>
</svg>