<?xml version="1.0" encoding="utf-8"?>
<svg version="1.1" xmlns:xlink="http://www.w3.org/1999/xlink" width="61px" height="94px" xmlns="http://www.w3.org/2000/svg">
  <defs>
    <mask fill="white" id="clip542">
      <path d="M 41.4374921122572 11.3236522726765  C 41.4374921122572 11.3236522726765  49.3386092824427 12.9738905614651  49.3386092824427 12.9738905614651  C 49.3386092824427 12.9738905614651  38.8597631311237 18.3976171738459  38.8597631311237 18.3976171738459  C 38.8597631311237 18.3976171738459  32.3216796350017 24.3495048837953  32.3216796350017 24.3495048837953  C 32.3216796350017 24.3495048837953  28.5642626400195 28.6999402697918  28.5642626400195 28.6999402697918  C 28.5642626400195 28.6999402697918  36.5983027437665 35.2711976202634  36.5983027437665 35.2711976202634  C 36.5983027437665 35.2711976202634  43.9368536542252 43.3633043962637  43.9368536542252 43.3633043962637  C 43.9368536542252 43.3633043962637  51.0570952698649 48.7095932600019  51.0570952698649 48.7095932600019  C 51.0570952698649 48.7095932600019  55.8263137105293 53.6390968373084  55.8263137105293 53.6390968373084  C 55.8263137105293 53.6390968373084  59.422819400819 64.9298660034028  59.422819400819 64.9298660034028  C 59.422819400819 64.9298660034028  58.3620601349666 75.5800542399159  58.3620601349666 75.5800542399159  C 58.3620601349666 75.5800542399159  51.8183789646189 79.5486864228508  51.8183789646189 79.5486864228508  C 51.8183789646189 79.5486864228508  42.8313129945643 83.4197466761141  42.8313129945643 83.4197466761141  C 42.8313129945643 83.4197466761141  36.4303725169824 88.4213686362213  36.4303725169824 88.4213686362213  C 36.4303725169824 88.4213686362213  24.6123046363702 93.9914531431092  24.6123046363702 93.9914531431092  C 24.6123046363702 93.9914531431092  21.7602896181561 90.156452081246  21.7602896181561 90.156452081246  C 21.7602896181561 90.156452081246  23.9657732632521 86.0987324842631  23.9657732632521 86.0987324842631  C 23.9657732632521 86.0987324842631  18.144192068075 82.6879572035793  18.144192068075 82.6879572035793  C 18.144192068075 82.6879572035793  24.9369697414858 80.2656279930441  24.9369697414858 80.2656279930441  C 24.9369697414858 80.2656279930441  35.2072806985723 79.8286754384292  35.2072806985723 79.8286754384292  C 35.2072806985723 79.8286754384292  31.7619122123883 76.1782125913791  31.7619122123883 76.1782125913791  C 31.7619122123883 76.1782125913791  44.952831526268 71.5308191585568  44.952831526268 71.5308191585568  C 44.952831526268 71.5308191585568  45.9184303302759 64.2638315269506  45.9184303302759 64.2638315269506  C 45.9184303302759 64.2638315269506  44.099186206783 60.2039908010622  44.099186206783 60.2039908010622  C 44.099186206783 60.2039908010622  45.5265931344465 54.0951395520764  45.5265931344465 54.0951395520764  C 45.5265931344465 54.0951395520764  43.5506141326221 49.7616731973273  43.5506141326221 49.7616731973273  C 43.5506141326221 49.7616731973273  37.6142806158093 43.9381303297619  37.6142806158093 43.9381303297619  C 37.6142806158093 43.9381303297619  32.6659365999087 38.4910712994164  32.6659365999087 38.4910712994164  C 32.6659365999087 38.4910712994164  24.1113127931314 31.1413596404801  24.1113127931314 31.1413596404801  C 24.1113127931314 31.1413596404801  14.7072200932297 27.4039305082881  14.7072200932297 27.4039305082881  C 14.7072200932297 27.4039305082881  16.9602839692482 25.149170481319  16.9602839692482 25.149170481319  C 16.9602839692482 25.149170481319  21.9758000758622 23.5031744503419  21.9758000758622 23.5031744503419  C 21.9758000758622 23.5031744503419  18.9334641339596 18.0052083262547  18.9334641339596 18.0052083262547  C 18.9334641339596 18.0052083262547  9.27187841965579 17.9564223614191  9.27187841965579 17.9564223614191  C 9.27187841965579 17.9564223614191  5.74814249430577 12.1933151240947  5.74814249430577 12.1933151240947  C 5.74814249430577 12.1933151240947  1.1636473031039 7.15351284368159  1.1636473031039 7.15351284368159  C 1.1636473031039 7.15351284368159  5.37589715826824 5.59236196894067  5.37589715826824 5.59236196894067  C 5.37589715826824 5.59236196894067  11.6340969430837 5.62417890252925  11.6340969430837 5.62417890252925  C 11.6340969430837 5.62417890252925  19.2609280761885 4.88390491437088  19.2609280761885 4.88390491437088  C 19.2609280761885 4.88390491437088  25.9501487764157 1.45828173134588  25.9501487764157 1.45828173134588  C 25.9501487764157 1.45828173134588  31.7675098866146 3.87212642625756  31.7675098866146 3.87212642625756  C 31.7675098866146 3.87212642625756  38.9409294074026 5.04298958231307  38.9409294074026 5.04298958231307  C 38.9409294074026 5.04298958231307  37.7010445663145 8.73163274966952  37.7010445663145 8.73163274966952  C 37.7010445663145 8.73163274966952  41.4374921122572 11.3236522726765  41.4374921122572 11.3236522726765  Z " fill-rule="evenodd" />
    </mask>
  </defs>
  <g transform="matrix(1 0 0 1 -2577 -1887 )">
    <path d="M 41.4374921122572 11.3236522726765  C 41.4374921122572 11.3236522726765  49.3386092824427 12.9738905614651  49.3386092824427 12.9738905614651  C 49.3386092824427 12.9738905614651  38.8597631311237 18.3976171738459  38.8597631311237 18.3976171738459  C 38.8597631311237 18.3976171738459  32.3216796350017 24.3495048837953  32.3216796350017 24.3495048837953  C 32.3216796350017 24.3495048837953  28.5642626400195 28.6999402697918  28.5642626400195 28.6999402697918  C 28.5642626400195 28.6999402697918  36.5983027437665 35.2711976202634  36.5983027437665 35.2711976202634  C 36.5983027437665 35.2711976202634  43.9368536542252 43.3633043962637  43.9368536542252 43.3633043962637  C 43.9368536542252 43.3633043962637  51.0570952698649 48.7095932600019  51.0570952698649 48.7095932600019  C 51.0570952698649 48.7095932600019  55.8263137105293 53.6390968373084  55.8263137105293 53.6390968373084  C 55.8263137105293 53.6390968373084  59.422819400819 64.9298660034028  59.422819400819 64.9298660034028  C 59.422819400819 64.9298660034028  58.3620601349666 75.5800542399159  58.3620601349666 75.5800542399159  C 58.3620601349666 75.5800542399159  51.8183789646189 79.5486864228508  51.8183789646189 79.5486864228508  C 51.8183789646189 79.5486864228508  42.8313129945643 83.4197466761141  42.8313129945643 83.4197466761141  C 42.8313129945643 83.4197466761141  36.4303725169824 88.4213686362213  36.4303725169824 88.4213686362213  C 36.4303725169824 88.4213686362213  24.6123046363702 93.9914531431092  24.6123046363702 93.9914531431092  C 24.6123046363702 93.9914531431092  21.7602896181561 90.156452081246  21.7602896181561 90.156452081246  C 21.7602896181561 90.156452081246  23.9657732632521 86.0987324842631  23.9657732632521 86.0987324842631  C 23.9657732632521 86.0987324842631  18.144192068075 82.6879572035793  18.144192068075 82.6879572035793  C 18.144192068075 82.6879572035793  24.9369697414858 80.2656279930441  24.9369697414858 80.2656279930441  C 24.9369697414858 80.2656279930441  35.2072806985723 79.8286754384292  35.2072806985723 79.8286754384292  C 35.2072806985723 79.8286754384292  31.7619122123883 76.1782125913791  31.7619122123883 76.1782125913791  C 31.7619122123883 76.1782125913791  44.952831526268 71.5308191585568  44.952831526268 71.5308191585568  C 44.952831526268 71.5308191585568  45.9184303302759 64.2638315269506  45.9184303302759 64.2638315269506  C 45.9184303302759 64.2638315269506  44.099186206783 60.2039908010622  44.099186206783 60.2039908010622  C 44.099186206783 60.2039908010622  45.5265931344465 54.0951395520764  45.5265931344465 54.0951395520764  C 45.5265931344465 54.0951395520764  43.5506141326221 49.7616731973273  43.5506141326221 49.7616731973273  C 43.5506141326221 49.7616731973273  37.6142806158093 43.9381303297619  37.6142806158093 43.9381303297619  C 37.6142806158093 43.9381303297619  32.6659365999087 38.4910712994164  32.6659365999087 38.4910712994164  C 32.6659365999087 38.4910712994164  24.1113127931314 31.1413596404801  24.1113127931314 31.1413596404801  C 24.1113127931314 31.1413596404801  14.7072200932297 27.4039305082881  14.7072200932297 27.4039305082881  C 14.7072200932297 27.4039305082881  16.9602839692482 25.149170481319  16.9602839692482 25.149170481319  C 16.9602839692482 25.149170481319  21.9758000758622 23.5031744503419  21.9758000758622 23.5031744503419  C 21.9758000758622 23.5031744503419  18.9334641339596 18.0052083262547  18.9334641339596 18.0052083262547  C 18.9334641339596 18.0052083262547  9.27187841965579 17.9564223614191  9.27187841965579 17.9564223614191  C 9.27187841965579 17.9564223614191  5.74814249430577 12.1933151240947  5.74814249430577 12.1933151240947  C 5.74814249430577 12.1933151240947  1.1636473031039 7.15351284368159  1.1636473031039 7.15351284368159  C 1.1636473031039 7.15351284368159  5.37589715826824 5.59236196894067  5.37589715826824 5.59236196894067  C 5.37589715826824 5.59236196894067  11.6340969430837 5.62417890252925  11.6340969430837 5.62417890252925  C 11.6340969430837 5.62417890252925  19.2609280761885 4.88390491437088  19.2609280761885 4.88390491437088  C 19.2609280761885 4.88390491437088  25.9501487764157 1.45828173134588  25.9501487764157 1.45828173134588  C 25.9501487764157 1.45828173134588  31.7675098866146 3.87212642625756  31.7675098866146 3.87212642625756  C 31.7675098866146 3.87212642625756  38.9409294074026 5.04298958231307  38.9409294074026 5.04298958231307  C 38.9409294074026 5.04298958231307  37.7010445663145 8.73163274966952  37.7010445663145 8.73163274966952  C 37.7010445663145 8.73163274966952  41.4374921122572 11.3236522726765  41.4374921122572 11.3236522726765  Z " fill-rule="nonzero" fill="#f2f2f2" stroke="none" transform="matrix(1 0 0 1 2577 1887 )" />
    <path d="M 41.4374921122572 11.3236522726765  C 41.4374921122572 11.3236522726765  49.3386092824427 12.9738905614651  49.3386092824427 12.9738905614651  C 49.3386092824427 12.9738905614651  38.8597631311237 18.3976171738459  38.8597631311237 18.3976171738459  C 38.8597631311237 18.3976171738459  32.3216796350017 24.3495048837953  32.3216796350017 24.3495048837953  C 32.3216796350017 24.3495048837953  28.5642626400195 28.6999402697918  28.5642626400195 28.6999402697918  C 28.5642626400195 28.6999402697918  36.5983027437665 35.2711976202634  36.5983027437665 35.2711976202634  C 36.5983027437665 35.2711976202634  43.9368536542252 43.3633043962637  43.9368536542252 43.3633043962637  C 43.9368536542252 43.3633043962637  51.0570952698649 48.7095932600019  51.0570952698649 48.7095932600019  C 51.0570952698649 48.7095932600019  55.8263137105293 53.6390968373084  55.8263137105293 53.6390968373084  C 55.8263137105293 53.6390968373084  59.422819400819 64.9298660034028  59.422819400819 64.9298660034028  C 59.422819400819 64.9298660034028  58.3620601349666 75.5800542399159  58.3620601349666 75.5800542399159  C 58.3620601349666 75.5800542399159  51.8183789646189 79.5486864228508  51.8183789646189 79.5486864228508  C 51.8183789646189 79.5486864228508  42.8313129945643 83.4197466761141  42.8313129945643 83.4197466761141  C 42.8313129945643 83.4197466761141  36.4303725169824 88.4213686362213  36.4303725169824 88.4213686362213  C 36.4303725169824 88.4213686362213  24.6123046363702 93.9914531431092  24.6123046363702 93.9914531431092  C 24.6123046363702 93.9914531431092  21.7602896181561 90.156452081246  21.7602896181561 90.156452081246  C 21.7602896181561 90.156452081246  23.9657732632521 86.0987324842631  23.9657732632521 86.0987324842631  C 23.9657732632521 86.0987324842631  18.144192068075 82.6879572035793  18.144192068075 82.6879572035793  C 18.144192068075 82.6879572035793  24.9369697414858 80.2656279930441  24.9369697414858 80.2656279930441  C 24.9369697414858 80.2656279930441  35.2072806985723 79.8286754384292  35.2072806985723 79.8286754384292  C 35.2072806985723 79.8286754384292  31.7619122123883 76.1782125913791  31.7619122123883 76.1782125913791  C 31.7619122123883 76.1782125913791  44.952831526268 71.5308191585568  44.952831526268 71.5308191585568  C 44.952831526268 71.5308191585568  45.9184303302759 64.2638315269506  45.9184303302759 64.2638315269506  C 45.9184303302759 64.2638315269506  44.099186206783 60.2039908010622  44.099186206783 60.2039908010622  C 44.099186206783 60.2039908010622  45.5265931344465 54.0951395520764  45.5265931344465 54.0951395520764  C 45.5265931344465 54.0951395520764  43.5506141326221 49.7616731973273  43.5506141326221 49.7616731973273  C 43.5506141326221 49.7616731973273  37.6142806158093 43.9381303297619  37.6142806158093 43.9381303297619  C 37.6142806158093 43.9381303297619  32.6659365999087 38.4910712994164  32.6659365999087 38.4910712994164  C 32.6659365999087 38.4910712994164  24.1113127931314 31.1413596404801  24.1113127931314 31.1413596404801  C 24.1113127931314 31.1413596404801  14.7072200932297 27.4039305082881  14.7072200932297 27.4039305082881  C 14.7072200932297 27.4039305082881  16.9602839692482 25.149170481319  16.9602839692482 25.149170481319  C 16.9602839692482 25.149170481319  21.9758000758622 23.5031744503419  21.9758000758622 23.5031744503419  C 21.9758000758622 23.5031744503419  18.9334641339596 18.0052083262547  18.9334641339596 18.0052083262547  C 18.9334641339596 18.0052083262547  9.27187841965579 17.9564223614191  9.27187841965579 17.9564223614191  C 9.27187841965579 17.9564223614191  5.74814249430577 12.1933151240947  5.74814249430577 12.1933151240947  C 5.74814249430577 12.1933151240947  1.1636473031039 7.15351284368159  1.1636473031039 7.15351284368159  C 1.1636473031039 7.15351284368159  5.37589715826824 5.59236196894067  5.37589715826824 5.59236196894067  C 5.37589715826824 5.59236196894067  11.6340969430837 5.62417890252925  11.6340969430837 5.62417890252925  C 11.6340969430837 5.62417890252925  19.2609280761885 4.88390491437088  19.2609280761885 4.88390491437088  C 19.2609280761885 4.88390491437088  25.9501487764157 1.45828173134588  25.9501487764157 1.45828173134588  C 25.9501487764157 1.45828173134588  31.7675098866146 3.87212642625756  31.7675098866146 3.87212642625756  C 31.7675098866146 3.87212642625756  38.9409294074026 5.04298958231307  38.9409294074026 5.04298958231307  C 38.9409294074026 5.04298958231307  37.7010445663145 8.73163274966952  37.7010445663145 8.73163274966952  C 37.7010445663145 8.73163274966952  41.4374921122572 11.3236522726765  41.4374921122572 11.3236522726765  Z " stroke-width="2" stroke="#505050" fill="none" stroke-opacity="0.211764705882353" transform="matrix(1 0 0 1 2577 1887 )" mask="url(#clip542)" />
  </g>
</svg>