<?xml version="1.0" encoding="utf-8"?>
<svg version="1.1" xmlns:xlink="http://www.w3.org/1999/xlink" width="65px" height="31px" xmlns="http://www.w3.org/2000/svg">
  <defs>
    <mask fill="white" id="clip543">
      <path d="M 54.8514039340915 18.9943943310386  C 54.8514039340915 18.9943943310386  63.7144576445212 19.6536581188927  63.7144576445212 19.6536581188927  C 63.7144576445212 19.6536581188927  63.1261178907238 22.5467380422903  63.1261178907238 22.5467380422903  C 63.1261178907238 22.5467380422903  64.1265665964896 26.7946157174264  64.1265665964896 26.7946157174264  C 64.1265665964896 26.7946157174264  63.2562575597665 29.4295373290757  63.2562575597665 29.4295373290757  C 63.2562575597665 29.4295373290757  56.9255049094597 29.5404813969345  56.9255049094597 29.5404813969345  C 56.9255049094597 29.5404813969345  47.7804819161044 27.9893979866763  47.7804819161044 27.9893979866763  C 47.7804819161044 27.9893979866763  41.9052181074473 27.3578702157873  41.9052181074473 27.3578702157873  C 41.9052181074473 27.3578702157873  37.521138006571 23.9591413677247  37.521138006571 23.9591413677247  C 37.521138006571 23.9591413677247  25.132133784142 23.0929242225188  25.132133784142 23.0929242225188  C 25.132133784142 23.0929242225188  15.2171177489509 19.3229594550823  15.2171177489509 19.3229594550823  C 15.2171177489509 19.3229594550823  8.04859097918139 16.0117057374473  8.04859097918139 16.0117057374473  C 8.04859097918139 16.0117057374473  0.684854705848052 11.8971909380934  0.684854705848052 11.8971909380934  C 0.684854705848052 11.8971909380934  3.63468720415006 5.5157734964395  3.63468720415006 5.5157734964395  C 3.63468720415006 5.5157734964395  8.46069993115021 2.39867189755748  8.46069993115021 2.39867189755748  C 8.46069993115021 2.39867189755748  11.6111644192259 0.749445658039576  11.6111644192259 0.749445658039576  C 11.6111644192259 0.749445658039576  17.7060389193924 2.86805064619144  17.7060389193924 2.86805064619144  C 17.7060389193924 2.86805064619144  25.3815681498073 7.33568291727881  25.3815681498073 7.33568291727881  C 25.3815681498073 7.33568291727881  29.6517760402713 8.317111209877  29.6517760402713 8.317111209877  C 29.6517760402713 8.317111209877  34.1754640149314 11.5878276719481  34.1754640149314 11.5878276719481  C 34.1754640149314 11.5878276719481  40.0805514977444 12.9276906453214  40.0805514977444 12.9276906453214  C 40.0805514977444 12.9276906453214  46.2513408048526 17.4475780003136  46.2513408048526 17.4475780003136  C 46.2513408048526 17.4475780003136  54.8514039340915 18.9943943310386  54.8514039340915 18.9943943310386  Z " fill-rule="evenodd" />
    </mask>
  </defs>
  <g transform="matrix(1 0 0 1 -2408 -1841 )">
    <path d="M 54.8514039340915 18.9943943310386  C 54.8514039340915 18.9943943310386  63.7144576445212 19.6536581188927  63.7144576445212 19.6536581188927  C 63.7144576445212 19.6536581188927  63.1261178907238 22.5467380422903  63.1261178907238 22.5467380422903  C 63.1261178907238 22.5467380422903  64.1265665964896 26.7946157174264  64.1265665964896 26.7946157174264  C 64.1265665964896 26.7946157174264  63.2562575597665 29.4295373290757  63.2562575597665 29.4295373290757  C 63.2562575597665 29.4295373290757  56.9255049094597 29.5404813969345  56.9255049094597 29.5404813969345  C 56.9255049094597 29.5404813969345  47.7804819161044 27.9893979866763  47.7804819161044 27.9893979866763  C 47.7804819161044 27.9893979866763  41.9052181074473 27.3578702157873  41.9052181074473 27.3578702157873  C 41.9052181074473 27.3578702157873  37.521138006571 23.9591413677247  37.521138006571 23.9591413677247  C 37.521138006571 23.9591413677247  25.132133784142 23.0929242225188  25.132133784142 23.0929242225188  C 25.132133784142 23.0929242225188  15.2171177489509 19.3229594550823  15.2171177489509 19.3229594550823  C 15.2171177489509 19.3229594550823  8.04859097918139 16.0117057374473  8.04859097918139 16.0117057374473  C 8.04859097918139 16.0117057374473  0.684854705848052 11.8971909380934  0.684854705848052 11.8971909380934  C 0.684854705848052 11.8971909380934  3.63468720415006 5.5157734964395  3.63468720415006 5.5157734964395  C 3.63468720415006 5.5157734964395  8.46069993115021 2.39867189755748  8.46069993115021 2.39867189755748  C 8.46069993115021 2.39867189755748  11.6111644192259 0.749445658039576  11.6111644192259 0.749445658039576  C 11.6111644192259 0.749445658039576  17.7060389193924 2.86805064619144  17.7060389193924 2.86805064619144  C 17.7060389193924 2.86805064619144  25.3815681498073 7.33568291727881  25.3815681498073 7.33568291727881  C 25.3815681498073 7.33568291727881  29.6517760402713 8.317111209877  29.6517760402713 8.317111209877  C 29.6517760402713 8.317111209877  34.1754640149314 11.5878276719481  34.1754640149314 11.5878276719481  C 34.1754640149314 11.5878276719481  40.0805514977444 12.9276906453214  40.0805514977444 12.9276906453214  C 40.0805514977444 12.9276906453214  46.2513408048526 17.4475780003136  46.2513408048526 17.4475780003136  C 46.2513408048526 17.4475780003136  54.8514039340915 18.9943943310386  54.8514039340915 18.9943943310386  Z " fill-rule="nonzero" fill="#f2f2f2" stroke="none" transform="matrix(1 0 0 1 2408 1841 )" />
    <path d="M 54.8514039340915 18.9943943310386  C 54.8514039340915 18.9943943310386  63.7144576445212 19.6536581188927  63.7144576445212 19.6536581188927  C 63.7144576445212 19.6536581188927  63.1261178907238 22.5467380422903  63.1261178907238 22.5467380422903  C 63.1261178907238 22.5467380422903  64.1265665964896 26.7946157174264  64.1265665964896 26.7946157174264  C 64.1265665964896 26.7946157174264  63.2562575597665 29.4295373290757  63.2562575597665 29.4295373290757  C 63.2562575597665 29.4295373290757  56.9255049094597 29.5404813969345  56.9255049094597 29.5404813969345  C 56.9255049094597 29.5404813969345  47.7804819161044 27.9893979866763  47.7804819161044 27.9893979866763  C 47.7804819161044 27.9893979866763  41.9052181074473 27.3578702157873  41.9052181074473 27.3578702157873  C 41.9052181074473 27.3578702157873  37.521138006571 23.9591413677247  37.521138006571 23.9591413677247  C 37.521138006571 23.9591413677247  25.132133784142 23.0929242225188  25.132133784142 23.0929242225188  C 25.132133784142 23.0929242225188  15.2171177489509 19.3229594550823  15.2171177489509 19.3229594550823  C 15.2171177489509 19.3229594550823  8.04859097918139 16.0117057374473  8.04859097918139 16.0117057374473  C 8.04859097918139 16.0117057374473  0.684854705848052 11.8971909380934  0.684854705848052 11.8971909380934  C 0.684854705848052 11.8971909380934  3.63468720415006 5.5157734964395  3.63468720415006 5.5157734964395  C 3.63468720415006 5.5157734964395  8.46069993115021 2.39867189755748  8.46069993115021 2.39867189755748  C 8.46069993115021 2.39867189755748  11.6111644192259 0.749445658039576  11.6111644192259 0.749445658039576  C 11.6111644192259 0.749445658039576  17.7060389193924 2.86805064619144  17.7060389193924 2.86805064619144  C 17.7060389193924 2.86805064619144  25.3815681498073 7.33568291727881  25.3815681498073 7.33568291727881  C 25.3815681498073 7.33568291727881  29.6517760402713 8.317111209877  29.6517760402713 8.317111209877  C 29.6517760402713 8.317111209877  34.1754640149314 11.5878276719481  34.1754640149314 11.5878276719481  C 34.1754640149314 11.5878276719481  40.0805514977444 12.9276906453214  40.0805514977444 12.9276906453214  C 40.0805514977444 12.9276906453214  46.2513408048526 17.4475780003136  46.2513408048526 17.4475780003136  C 46.2513408048526 17.4475780003136  54.8514039340915 18.9943943310386  54.8514039340915 18.9943943310386  Z " stroke-width="2" stroke="#505050" fill="none" stroke-opacity="0.211764705882353" transform="matrix(1 0 0 1 2408 1841 )" mask="url(#clip543)" />
  </g>
</svg>