<?xml version="1.0" encoding="utf-8"?>
<svg version="1.1" xmlns:xlink="http://www.w3.org/1999/xlink" width="320px" height="135px" xmlns="http://www.w3.org/2000/svg">
  <defs>
    <mask fill="white" id="clip544">
      <path d="M 193.981645677543 118.683534779768  C 193.981645677543 118.683534779768  192.252790228029 122.229150365059  192.252790228029 122.229150365059  C 192.252790228029 122.229150365059  187.826039331823 123.717881728281  187.826039331823 123.717881728281  C 187.826039331823 123.717881728281  177.645613452362 129.290478753597  177.645613452362 129.290478753597  C 177.645613452362 129.290478753597  174.267738234921 134.948512299042  174.267738234921 134.948512299042  C 174.267738234921 134.948512299042  171.393653697832 134.999774211118  171.393653697832 134.999774211118  C 171.393653697832 134.999774211118  169.276631658539 131.259790542537  169.276631658539 131.259790542537  C 169.276631658539 131.259790542537  157.462348732558 131.003480982154  157.462348732558 131.003480982154  C 157.462348732558 131.003480982154  155.890411691679 124.469723105403  155.890411691679 124.469723105403  C 155.890411691679 124.469723105403  152.129875793534 124.41418936732  152.129875793534 124.41418936732  C 152.129875793534 124.41418936732  152.705243291859 116.295584042204  152.705243291859 116.295584042204  C 152.705243291859 116.295584042204  143.466327864204 110.300076242256  143.466327864204 110.300076242256  C 143.466327864204 110.300076242256  130.227369493646 110.945121969219  130.227369493646 110.945121969219  C 130.227369493646 110.945121969219  121.175654974537 112.143369164007  121.175654974537 112.143369164007  C 121.175654974537 112.143369164007  113.803242723267 104.671945478856  113.803242723267 104.671945478856  C 113.803242723267 104.671945478856  107.487965014376 101.502250582126  107.487965014376 101.502250582126  C 107.487965014376 101.502250582126  95.5236245946535 95.4426653920824  95.5236245946535 95.4426653920824  C 95.5236245946535 95.4426653920824  94.0810764170337 94.7036394929795  94.0810764170337 94.7036394929795  C 94.0810764170337 94.7036394929795  74.2102505657781 99.716627311461  74.2102505657781 99.716627311461  C 74.2102505657781 99.716627311461  74.5158285194343 129.890670307493  74.5158285194343 129.890670307493  C 74.5158285194343 129.890670307493  70.5543269400555 130.279406474073  70.5543269400555 130.279406474073  C 70.5543269400555 130.279406474073  65.1530301375942 124.016909548727  65.1530301375942 124.016909548727  C 65.1530301375942 124.016909548727  59.936181289142 121.761385417361  59.936181289142 121.761385417361  C 59.936181289142 121.761385417361  51.1735269964647 123.438077124863  51.1735269964647 123.438077124863  C 51.1735269964647 123.438077124863  47.7626163245741 126.107968378848  47.7626163245741 126.107968378848  C 47.7626163245741 126.107968378848  47.3304024621953 124.153607980931  47.3304024621953 124.153607980931  C 47.3304024621953 124.153607980931  49.2271881384931 120.793816826917  49.2271881384931 120.793816826917  C 49.2271881384931 120.793816826917  47.7543574609617 117.970139836703  47.7543574609617 117.970139836703  C 47.7543574609617 117.970139836703  38.8100081688131 115.191317019556  38.8100081688131 115.191317019556  C 38.8100081688131 115.191317019556  35.3247677244112 107.792514376513  35.3247677244112 107.792514376513  C 35.3247677244112 107.792514376513  31.0631941004513 105.688640068374  31.0631941004513 105.688640068374  C 31.0631941004513 105.688640068374  30.8071693284692 102.963215076306  30.8071693284692 102.963215076306  C 30.8071693284692 102.963215076306  38.3144763520731 103.759910626495  38.3144763520731 103.759910626495  C 38.3144763520731 103.759910626495  38.6117954421175 97.6020734383052  38.6117954421175 97.6020734383052  C 38.6117954421175 97.6020734383052  45.1748390593789 96.2222736382459  45.1748390593789 96.2222736382459  C 45.1748390593789 96.2222736382459  51.9195776761112 97.4910059621394  51.9195776761112 97.4910059621394  C 51.9195776761112 97.4910059621394  53.3098197175195 89.1459938586852  53.3098197175195 89.1459938586852  C 53.3098197175195 89.1459938586852  51.9333424487986 83.7763085686714  51.9333424487986 83.7763085686714  C 51.9333424487986 83.7763085686714  44.2085520167366 84.1992193433025  44.2085520167366 84.1992193433025  C 44.2085520167366 84.1992193433025  37.6455083994751 82.065442253118  37.6455083994751 82.065442253118  C 37.6455083994751 82.065442253118  28.7094179709388 85.9036779198462  28.7094179709388 85.9036779198462  C 28.7094179709388 85.9036779198462  21.5076889009906 87.7213398855589  21.5076889009906 87.7213398855589  C 21.5076889009906 87.7213398855589  17.5874816396731 86.3201809554678  17.5874816396731 86.3201809554678  C 17.5874816396731 86.3201809554678  18.3720736828441 81.8304918227674  18.3720736828441 81.8304918227674  C 18.3720736828441 81.8304918227674  13.4525439244358 75.9353719339694  13.4525439244358 75.9353719339694  C 13.4525439244358 75.9353719339694  7.72364553201896 76.1831378423391  7.72364553201896 76.1831378423391  C 7.72364553201896 76.1831378423391  1.17161373290719 70.1235526522957  1.17161373290719 70.1235526522957  C 1.17161373290719 70.1235526522957  5.62589417448817 61.7048682091162  5.62589417448817 61.7048682091162  C 5.62589417448817 61.7048682091162  3.37122440832354 59.8380802443303  3.37122440832354 59.8380802443303  C 3.37122440832354 59.8380802443303  9.53233666311871 49.6497752191251  9.53233666311871 49.6497752191251  C 9.53233666311871 49.6497752191251  17.4691045945633 55.0579069431963  17.4691045945633 55.0579069431963  C 17.4691045945633 55.0579069431963  18.4298857281306 48.2379367240181  18.4298857281306 48.2379367240181  C 18.4298857281306 48.2379367240181  34.3639865908444 37.880894571561  34.3639865908444 37.880894571561  C 34.3639865908444 37.880894571561  46.4219274648399 37.6309927501881  46.4219274648399 37.6309927501881  C 46.4219274648399 37.6309927501881  63.4351865062308 44.2565948860762  63.4351865062308 44.2565948860762  C 63.4351865062308 44.2565948860762  72.5749955705378 48.0820150747853  72.5749955705378 48.0820150747853  C 72.5749955705378 48.0820150747853  80.7650353194276 44.0921295848308  80.7650353194276 44.0921295848308  C 80.7650353194276 44.0921295848308  93.0019182383567 43.9020333275471  93.0019182383567 43.9020333275471  C 93.0019182383567 43.9020333275471  102.874013209623 48.7975459308533  102.874013209623 48.7975459308533  C 102.874013209623 48.7975459308533  105.117671157639 45.9994998966774  105.117671157639 45.9994998966774  C 105.117671157639 45.9994998966774  115.958806126085 46.4074592802862  115.958806126085 46.4074592802862  C 115.958806126085 46.4074592802862  117.894133165906 41.909226495573  117.894133165906 41.909226495573  C 117.894133165906 41.909226495573  105.38470774777 35.2943039247008  105.38470774777 35.2943039247008  C 105.38470774777 35.2943039247008  112.792908408026 30.5461693186145  112.792908408026 30.5461693186145  C 112.792908408026 30.5461693186145  111.347607275869 27.8677344126171  111.347607275869 27.8677344126171  C 111.347607275869 27.8677344126171  118.758560890663 25.2960951567792  118.758560890663 25.2960951567792  C 118.758560890663 25.2960951567792  113.18658090688 18.4440862425531  113.18658090688 18.4440862425531  C 113.18658090688 18.4440862425531  116.724127487493 14.9881790033955  116.724127487493 14.9881790033955  C 116.724127487493 14.9881790033955  145.608126494334 11.4361556790944  145.608126494334 11.4361556790944  C 145.608126494334 11.4361556790944  149.376921256092 8.89441920530104  149.376921256092 8.89441920530104  C 149.376921256092 8.89441920530104  170.691650290784 5.06899901659192  170.691650290784 5.06899901659192  C 170.691650290784 5.06899901659192  177.631848679675 0.728823794114464  177.631848679675 0.728823794114464  C 177.631848679675 0.728823794114464  191.503986593845 2.98861975148712  191.503986593845 2.98861975148712  C 191.503986593845 2.98861975148712  193.934845450406 13.6938157234638  193.934845450406 13.6938157234638  C 193.934845450406 13.6938157234638  201.992743381499 11.2054770747501  201.992743381499 11.2054770747501  C 201.992743381499 11.2054770747501  211.906132670827 14.6891511829492  211.906132670827 14.6891511829492  C 211.906132670827 14.6891511829492  211.267447218141 20.206214470183  211.267447218141 20.206214470183  C 211.267447218141 20.206214470183  218.670141969322 19.6337897853286  218.670141969322 19.6337897853286  C 218.670141969322 19.6337897853286  238.015153503926 10.0349967490033  238.015153503926 10.0349967490033  C 238.015153503926 10.0349967490033  235.190622148511 13.2474099057976  235.190622148511 13.2474099057976  C 235.190622148511 13.2474099057976  245.040693483477 21.0627155844613  245.040693483477 21.0627155844613  C 245.040693483477 21.0627155844613  262.287953660551 45.7880445093617  262.287953660551 45.7880445093617  C 262.287953660551 45.7880445093617  266.400867739489 40.804959472925  266.400867739489 40.804959472925  C 266.400867739489 40.804959472925  277.035531117627 46.2835763261013  277.035531117627 46.2835763261013  C 277.035531117627 46.2835763261013  288.127184948981 43.8486355024674  288.127184948981 43.8486355024674  C 288.127184948981 43.8486355024674  292.388758572941 45.5552299920143  292.388758572941 45.5552299920143  C 292.388758572941 45.5552299920143  296.10249424395 50.9932644981302  296.10249424395 50.9932644981302  C 296.10249424395 50.9932644981302  301.498285137336 52.8045187248333  301.498285137336 52.8045187248333  C 301.498285137336 52.8045187248333  304.785312855041 56.7410063897082  304.785312855041 56.7410063897082  C 304.785312855041 56.7410063897082  314.728984644282 55.5043127608625  314.728984644282 55.5043127608625  C 314.728984644282 55.5043127608625  318.822628041458 61.1303076112589  318.822628041458 61.1303076112589  C 318.822628041458 61.1303076112589  312.947823058557 68.7288014612141  312.947823058557 68.7288014612141  C 312.947823058557 68.7288014612141  306.536191940855 69.5703511844701  306.536191940855 69.5703511844701  C 306.536191940855 69.5703511844701  306.170048987375 78.5112830158137  306.170048987375 78.5112830158137  C 306.170048987375 78.5112830158137  301.875439908966 82.4840812017427  301.875439908966 82.4840812017427  C 301.875439908966 82.4840812017427  286.563506771714 79.5941909084298  286.563506771714 79.5941909084298  C 286.563506771714 79.5941909084298  280.994279742469 95.1051911375787  280.994279742469 95.1051911375787  C 280.994279742469 95.1051911375787  277.04378998124 96.997610058403  277.04378998124 96.997610058403  C 277.04378998124 96.997610058403  261.75112752575 100.376624429446  261.75112752575 100.376624429446  C 261.75112752575 100.376624429446  268.699584778253 114.802580852976  268.699584778253 114.802580852976  C 268.699584778253 114.802580852976  263.402900248215 116.927814291147  263.402900248215 116.927814291147  C 263.402900248215 116.927814291147  264.019562064602 121.552065943049  264.019562064602 121.552065943049  C 264.019562064602 121.552065943049  259.26520957844 120.366634226279  259.26520957844 120.366634226279  C 259.26520957844 120.366634226279  255.391802544259 117.451112976928  255.391802544259 117.451112976928  C 255.391802544259 117.451112976928  243.939511668501 116.598883688656  243.939511668501 116.598883688656  C 243.939511668501 116.598883688656  231.141026023934 116.374612823322  231.141026023934 116.374612823322  C 231.141026023934 116.374612823322  228.33576535028 117.273832197664  228.33576535028 117.273832197664  C 228.33576535028 117.273832197664  217.343217882275 113.837148175535  217.343217882275 113.837148175535  C 217.343217882275 113.837148175535  212.960514258667 115.533063100066  212.960514258667 115.533063100066  C 212.960514258667 115.533063100066  211.76297903488 120.332459618228  211.76297903488 120.332459618228  C 211.76297903488 120.332459618228  199.060846799123 117.536549497056  199.060846799123 117.536549497056  C 199.060846799123 117.536549497056  193.981645677543 118.683534779768  193.981645677543 118.683534779768  Z " fill-rule="evenodd" />
    </mask>
  </defs>
  <g transform="matrix(1 0 0 1 -2148 -1632 )">
    <path d="M 193.981645677543 118.683534779768  C 193.981645677543 118.683534779768  192.252790228029 122.229150365059  192.252790228029 122.229150365059  C 192.252790228029 122.229150365059  187.826039331823 123.717881728281  187.826039331823 123.717881728281  C 187.826039331823 123.717881728281  177.645613452362 129.290478753597  177.645613452362 129.290478753597  C 177.645613452362 129.290478753597  174.267738234921 134.948512299042  174.267738234921 134.948512299042  C 174.267738234921 134.948512299042  171.393653697832 134.999774211118  171.393653697832 134.999774211118  C 171.393653697832 134.999774211118  169.276631658539 131.259790542537  169.276631658539 131.259790542537  C 169.276631658539 131.259790542537  157.462348732558 131.003480982154  157.462348732558 131.003480982154  C 157.462348732558 131.003480982154  155.890411691679 124.469723105403  155.890411691679 124.469723105403  C 155.890411691679 124.469723105403  152.129875793534 124.41418936732  152.129875793534 124.41418936732  C 152.129875793534 124.41418936732  152.705243291859 116.295584042204  152.705243291859 116.295584042204  C 152.705243291859 116.295584042204  143.466327864204 110.300076242256  143.466327864204 110.300076242256  C 143.466327864204 110.300076242256  130.227369493646 110.945121969219  130.227369493646 110.945121969219  C 130.227369493646 110.945121969219  121.175654974537 112.143369164007  121.175654974537 112.143369164007  C 121.175654974537 112.143369164007  113.803242723267 104.671945478856  113.803242723267 104.671945478856  C 113.803242723267 104.671945478856  107.487965014376 101.502250582126  107.487965014376 101.502250582126  C 107.487965014376 101.502250582126  95.5236245946535 95.4426653920824  95.5236245946535 95.4426653920824  C 95.5236245946535 95.4426653920824  94.0810764170337 94.7036394929795  94.0810764170337 94.7036394929795  C 94.0810764170337 94.7036394929795  74.2102505657781 99.716627311461  74.2102505657781 99.716627311461  C 74.2102505657781 99.716627311461  74.5158285194343 129.890670307493  74.5158285194343 129.890670307493  C 74.5158285194343 129.890670307493  70.5543269400555 130.279406474073  70.5543269400555 130.279406474073  C 70.5543269400555 130.279406474073  65.1530301375942 124.016909548727  65.1530301375942 124.016909548727  C 65.1530301375942 124.016909548727  59.936181289142 121.761385417361  59.936181289142 121.761385417361  C 59.936181289142 121.761385417361  51.1735269964647 123.438077124863  51.1735269964647 123.438077124863  C 51.1735269964647 123.438077124863  47.7626163245741 126.107968378848  47.7626163245741 126.107968378848  C 47.7626163245741 126.107968378848  47.3304024621953 124.153607980931  47.3304024621953 124.153607980931  C 47.3304024621953 124.153607980931  49.2271881384931 120.793816826917  49.2271881384931 120.793816826917  C 49.2271881384931 120.793816826917  47.7543574609617 117.970139836703  47.7543574609617 117.970139836703  C 47.7543574609617 117.970139836703  38.8100081688131 115.191317019556  38.8100081688131 115.191317019556  C 38.8100081688131 115.191317019556  35.3247677244112 107.792514376513  35.3247677244112 107.792514376513  C 35.3247677244112 107.792514376513  31.0631941004513 105.688640068374  31.0631941004513 105.688640068374  C 31.0631941004513 105.688640068374  30.8071693284692 102.963215076306  30.8071693284692 102.963215076306  C 30.8071693284692 102.963215076306  38.3144763520731 103.759910626495  38.3144763520731 103.759910626495  C 38.3144763520731 103.759910626495  38.6117954421175 97.6020734383052  38.6117954421175 97.6020734383052  C 38.6117954421175 97.6020734383052  45.1748390593789 96.2222736382459  45.1748390593789 96.2222736382459  C 45.1748390593789 96.2222736382459  51.9195776761112 97.4910059621394  51.9195776761112 97.4910059621394  C 51.9195776761112 97.4910059621394  53.3098197175195 89.1459938586852  53.3098197175195 89.1459938586852  C 53.3098197175195 89.1459938586852  51.9333424487986 83.7763085686714  51.9333424487986 83.7763085686714  C 51.9333424487986 83.7763085686714  44.2085520167366 84.1992193433025  44.2085520167366 84.1992193433025  C 44.2085520167366 84.1992193433025  37.6455083994751 82.065442253118  37.6455083994751 82.065442253118  C 37.6455083994751 82.065442253118  28.7094179709388 85.9036779198462  28.7094179709388 85.9036779198462  C 28.7094179709388 85.9036779198462  21.5076889009906 87.7213398855589  21.5076889009906 87.7213398855589  C 21.5076889009906 87.7213398855589  17.5874816396731 86.3201809554678  17.5874816396731 86.3201809554678  C 17.5874816396731 86.3201809554678  18.3720736828441 81.8304918227674  18.3720736828441 81.8304918227674  C 18.3720736828441 81.8304918227674  13.4525439244358 75.9353719339694  13.4525439244358 75.9353719339694  C 13.4525439244358 75.9353719339694  7.72364553201896 76.1831378423391  7.72364553201896 76.1831378423391  C 7.72364553201896 76.1831378423391  1.17161373290719 70.1235526522957  1.17161373290719 70.1235526522957  C 1.17161373290719 70.1235526522957  5.62589417448817 61.7048682091162  5.62589417448817 61.7048682091162  C 5.62589417448817 61.7048682091162  3.37122440832354 59.8380802443303  3.37122440832354 59.8380802443303  C 3.37122440832354 59.8380802443303  9.53233666311871 49.6497752191251  9.53233666311871 49.6497752191251  C 9.53233666311871 49.6497752191251  17.4691045945633 55.0579069431963  17.4691045945633 55.0579069431963  C 17.4691045945633 55.0579069431963  18.4298857281306 48.2379367240181  18.4298857281306 48.2379367240181  C 18.4298857281306 48.2379367240181  34.3639865908444 37.880894571561  34.3639865908444 37.880894571561  C 34.3639865908444 37.880894571561  46.4219274648399 37.6309927501881  46.4219274648399 37.6309927501881  C 46.4219274648399 37.6309927501881  63.4351865062308 44.2565948860762  63.4351865062308 44.2565948860762  C 63.4351865062308 44.2565948860762  72.5749955705378 48.0820150747853  72.5749955705378 48.0820150747853  C 72.5749955705378 48.0820150747853  80.7650353194276 44.0921295848308  80.7650353194276 44.0921295848308  C 80.7650353194276 44.0921295848308  93.0019182383567 43.9020333275471  93.0019182383567 43.9020333275471  C 93.0019182383567 43.9020333275471  102.874013209623 48.7975459308533  102.874013209623 48.7975459308533  C 102.874013209623 48.7975459308533  105.117671157639 45.9994998966774  105.117671157639 45.9994998966774  C 105.117671157639 45.9994998966774  115.958806126085 46.4074592802862  115.958806126085 46.4074592802862  C 115.958806126085 46.4074592802862  117.894133165906 41.909226495573  117.894133165906 41.909226495573  C 117.894133165906 41.909226495573  105.38470774777 35.2943039247008  105.38470774777 35.2943039247008  C 105.38470774777 35.2943039247008  112.792908408026 30.5461693186145  112.792908408026 30.5461693186145  C 112.792908408026 30.5461693186145  111.347607275869 27.8677344126171  111.347607275869 27.8677344126171  C 111.347607275869 27.8677344126171  118.758560890663 25.2960951567792  118.758560890663 25.2960951567792  C 118.758560890663 25.2960951567792  113.18658090688 18.4440862425531  113.18658090688 18.4440862425531  C 113.18658090688 18.4440862425531  116.724127487493 14.9881790033955  116.724127487493 14.9881790033955  C 116.724127487493 14.9881790033955  145.608126494334 11.4361556790944  145.608126494334 11.4361556790944  C 145.608126494334 11.4361556790944  149.376921256092 8.89441920530104  149.376921256092 8.89441920530104  C 149.376921256092 8.89441920530104  170.691650290784 5.06899901659192  170.691650290784 5.06899901659192  C 170.691650290784 5.06899901659192  177.631848679675 0.728823794114464  177.631848679675 0.728823794114464  C 177.631848679675 0.728823794114464  191.503986593845 2.98861975148712  191.503986593845 2.98861975148712  C 191.503986593845 2.98861975148712  193.934845450406 13.6938157234638  193.934845450406 13.6938157234638  C 193.934845450406 13.6938157234638  201.992743381499 11.2054770747501  201.992743381499 11.2054770747501  C 201.992743381499 11.2054770747501  211.906132670827 14.6891511829492  211.906132670827 14.6891511829492  C 211.906132670827 14.6891511829492  211.267447218141 20.206214470183  211.267447218141 20.206214470183  C 211.267447218141 20.206214470183  218.670141969322 19.6337897853286  218.670141969322 19.6337897853286  C 218.670141969322 19.6337897853286  238.015153503926 10.0349967490033  238.015153503926 10.0349967490033  C 238.015153503926 10.0349967490033  235.190622148511 13.2474099057976  235.190622148511 13.2474099057976  C 235.190622148511 13.2474099057976  245.040693483477 21.0627155844613  245.040693483477 21.0627155844613  C 245.040693483477 21.0627155844613  262.287953660551 45.7880445093617  262.287953660551 45.7880445093617  C 262.287953660551 45.7880445093617  266.400867739489 40.804959472925  266.400867739489 40.804959472925  C 266.400867739489 40.804959472925  277.035531117627 46.2835763261013  277.035531117627 46.2835763261013  C 277.035531117627 46.2835763261013  288.127184948981 43.8486355024674  288.127184948981 43.8486355024674  C 288.127184948981 43.8486355024674  292.388758572941 45.5552299920143  292.388758572941 45.5552299920143  C 292.388758572941 45.5552299920143  296.10249424395 50.9932644981302  296.10249424395 50.9932644981302  C 296.10249424395 50.9932644981302  301.498285137336 52.8045187248333  301.498285137336 52.8045187248333  C 301.498285137336 52.8045187248333  304.785312855041 56.7410063897082  304.785312855041 56.7410063897082  C 304.785312855041 56.7410063897082  314.728984644282 55.5043127608625  314.728984644282 55.5043127608625  C 314.728984644282 55.5043127608625  318.822628041458 61.1303076112589  318.822628041458 61.1303076112589  C 318.822628041458 61.1303076112589  312.947823058557 68.7288014612141  312.947823058557 68.7288014612141  C 312.947823058557 68.7288014612141  306.536191940855 69.5703511844701  306.536191940855 69.5703511844701  C 306.536191940855 69.5703511844701  306.170048987375 78.5112830158137  306.170048987375 78.5112830158137  C 306.170048987375 78.5112830158137  301.875439908966 82.4840812017427  301.875439908966 82.4840812017427  C 301.875439908966 82.4840812017427  286.563506771714 79.5941909084298  286.563506771714 79.5941909084298  C 286.563506771714 79.5941909084298  280.994279742469 95.1051911375787  280.994279742469 95.1051911375787  C 280.994279742469 95.1051911375787  277.04378998124 96.997610058403  277.04378998124 96.997610058403  C 277.04378998124 96.997610058403  261.75112752575 100.376624429446  261.75112752575 100.376624429446  C 261.75112752575 100.376624429446  268.699584778253 114.802580852976  268.699584778253 114.802580852976  C 268.699584778253 114.802580852976  263.402900248215 116.927814291147  263.402900248215 116.927814291147  C 263.402900248215 116.927814291147  264.019562064602 121.552065943049  264.019562064602 121.552065943049  C 264.019562064602 121.552065943049  259.26520957844 120.366634226279  259.26520957844 120.366634226279  C 259.26520957844 120.366634226279  255.391802544259 117.451112976928  255.391802544259 117.451112976928  C 255.391802544259 117.451112976928  243.939511668501 116.598883688656  243.939511668501 116.598883688656  C 243.939511668501 116.598883688656  231.141026023934 116.374612823322  231.141026023934 116.374612823322  C 231.141026023934 116.374612823322  228.33576535028 117.273832197664  228.33576535028 117.273832197664  C 228.33576535028 117.273832197664  217.343217882275 113.837148175535  217.343217882275 113.837148175535  C 217.343217882275 113.837148175535  212.960514258667 115.533063100066  212.960514258667 115.533063100066  C 212.960514258667 115.533063100066  211.76297903488 120.332459618228  211.76297903488 120.332459618228  C 211.76297903488 120.332459618228  199.060846799123 117.536549497056  199.060846799123 117.536549497056  C 199.060846799123 117.536549497056  193.981645677543 118.683534779768  193.981645677543 118.683534779768  Z " fill-rule="nonzero" fill="#f2f2f2" stroke="none" transform="matrix(1 0 0 1 2148 1632 )" />
    <path d="M 193.981645677543 118.683534779768  C 193.981645677543 118.683534779768  192.252790228029 122.229150365059  192.252790228029 122.229150365059  C 192.252790228029 122.229150365059  187.826039331823 123.717881728281  187.826039331823 123.717881728281  C 187.826039331823 123.717881728281  177.645613452362 129.290478753597  177.645613452362 129.290478753597  C 177.645613452362 129.290478753597  174.267738234921 134.948512299042  174.267738234921 134.948512299042  C 174.267738234921 134.948512299042  171.393653697832 134.999774211118  171.393653697832 134.999774211118  C 171.393653697832 134.999774211118  169.276631658539 131.259790542537  169.276631658539 131.259790542537  C 169.276631658539 131.259790542537  157.462348732558 131.003480982154  157.462348732558 131.003480982154  C 157.462348732558 131.003480982154  155.890411691679 124.469723105403  155.890411691679 124.469723105403  C 155.890411691679 124.469723105403  152.129875793534 124.41418936732  152.129875793534 124.41418936732  C 152.129875793534 124.41418936732  152.705243291859 116.295584042204  152.705243291859 116.295584042204  C 152.705243291859 116.295584042204  143.466327864204 110.300076242256  143.466327864204 110.300076242256  C 143.466327864204 110.300076242256  130.227369493646 110.945121969219  130.227369493646 110.945121969219  C 130.227369493646 110.945121969219  121.175654974537 112.143369164007  121.175654974537 112.143369164007  C 121.175654974537 112.143369164007  113.803242723267 104.671945478856  113.803242723267 104.671945478856  C 113.803242723267 104.671945478856  107.487965014376 101.502250582126  107.487965014376 101.502250582126  C 107.487965014376 101.502250582126  95.5236245946535 95.4426653920824  95.5236245946535 95.4426653920824  C 95.5236245946535 95.4426653920824  94.0810764170337 94.7036394929795  94.0810764170337 94.7036394929795  C 94.0810764170337 94.7036394929795  74.2102505657781 99.716627311461  74.2102505657781 99.716627311461  C 74.2102505657781 99.716627311461  74.5158285194343 129.890670307493  74.5158285194343 129.890670307493  C 74.5158285194343 129.890670307493  70.5543269400555 130.279406474073  70.5543269400555 130.279406474073  C 70.5543269400555 130.279406474073  65.1530301375942 124.016909548727  65.1530301375942 124.016909548727  C 65.1530301375942 124.016909548727  59.936181289142 121.761385417361  59.936181289142 121.761385417361  C 59.936181289142 121.761385417361  51.1735269964647 123.438077124863  51.1735269964647 123.438077124863  C 51.1735269964647 123.438077124863  47.7626163245741 126.107968378848  47.7626163245741 126.107968378848  C 47.7626163245741 126.107968378848  47.3304024621953 124.153607980931  47.3304024621953 124.153607980931  C 47.3304024621953 124.153607980931  49.2271881384931 120.793816826917  49.2271881384931 120.793816826917  C 49.2271881384931 120.793816826917  47.7543574609617 117.970139836703  47.7543574609617 117.970139836703  C 47.7543574609617 117.970139836703  38.8100081688131 115.191317019556  38.8100081688131 115.191317019556  C 38.8100081688131 115.191317019556  35.3247677244112 107.792514376513  35.3247677244112 107.792514376513  C 35.3247677244112 107.792514376513  31.0631941004513 105.688640068374  31.0631941004513 105.688640068374  C 31.0631941004513 105.688640068374  30.8071693284692 102.963215076306  30.8071693284692 102.963215076306  C 30.8071693284692 102.963215076306  38.3144763520731 103.759910626495  38.3144763520731 103.759910626495  C 38.3144763520731 103.759910626495  38.6117954421175 97.6020734383052  38.6117954421175 97.6020734383052  C 38.6117954421175 97.6020734383052  45.1748390593789 96.2222736382459  45.1748390593789 96.2222736382459  C 45.1748390593789 96.2222736382459  51.9195776761112 97.4910059621394  51.9195776761112 97.4910059621394  C 51.9195776761112 97.4910059621394  53.3098197175195 89.1459938586852  53.3098197175195 89.1459938586852  C 53.3098197175195 89.1459938586852  51.9333424487986 83.7763085686714  51.9333424487986 83.7763085686714  C 51.9333424487986 83.7763085686714  44.2085520167366 84.1992193433025  44.2085520167366 84.1992193433025  C 44.2085520167366 84.1992193433025  37.6455083994751 82.065442253118  37.6455083994751 82.065442253118  C 37.6455083994751 82.065442253118  28.7094179709388 85.9036779198462  28.7094179709388 85.9036779198462  C 28.7094179709388 85.9036779198462  21.5076889009906 87.7213398855589  21.5076889009906 87.7213398855589  C 21.5076889009906 87.7213398855589  17.5874816396731 86.3201809554678  17.5874816396731 86.3201809554678  C 17.5874816396731 86.3201809554678  18.3720736828441 81.8304918227674  18.3720736828441 81.8304918227674  C 18.3720736828441 81.8304918227674  13.4525439244358 75.9353719339694  13.4525439244358 75.9353719339694  C 13.4525439244358 75.9353719339694  7.72364553201896 76.1831378423391  7.72364553201896 76.1831378423391  C 7.72364553201896 76.1831378423391  1.17161373290719 70.1235526522957  1.17161373290719 70.1235526522957  C 1.17161373290719 70.1235526522957  5.62589417448817 61.7048682091162  5.62589417448817 61.7048682091162  C 5.62589417448817 61.7048682091162  3.37122440832354 59.8380802443303  3.37122440832354 59.8380802443303  C 3.37122440832354 59.8380802443303  9.53233666311871 49.6497752191251  9.53233666311871 49.6497752191251  C 9.53233666311871 49.6497752191251  17.4691045945633 55.0579069431963  17.4691045945633 55.0579069431963  C 17.4691045945633 55.0579069431963  18.4298857281306 48.2379367240181  18.4298857281306 48.2379367240181  C 18.4298857281306 48.2379367240181  34.3639865908444 37.880894571561  34.3639865908444 37.880894571561  C 34.3639865908444 37.880894571561  46.4219274648399 37.6309927501881  46.4219274648399 37.6309927501881  C 46.4219274648399 37.6309927501881  63.4351865062308 44.2565948860762  63.4351865062308 44.2565948860762  C 63.4351865062308 44.2565948860762  72.5749955705378 48.0820150747853  72.5749955705378 48.0820150747853  C 72.5749955705378 48.0820150747853  80.7650353194276 44.0921295848308  80.7650353194276 44.0921295848308  C 80.7650353194276 44.0921295848308  93.0019182383567 43.9020333275471  93.0019182383567 43.9020333275471  C 93.0019182383567 43.9020333275471  102.874013209623 48.7975459308533  102.874013209623 48.7975459308533  C 102.874013209623 48.7975459308533  105.117671157639 45.9994998966774  105.117671157639 45.9994998966774  C 105.117671157639 45.9994998966774  115.958806126085 46.4074592802862  115.958806126085 46.4074592802862  C 115.958806126085 46.4074592802862  117.894133165906 41.909226495573  117.894133165906 41.909226495573  C 117.894133165906 41.909226495573  105.38470774777 35.2943039247008  105.38470774777 35.2943039247008  C 105.38470774777 35.2943039247008  112.792908408026 30.5461693186145  112.792908408026 30.5461693186145  C 112.792908408026 30.5461693186145  111.347607275869 27.8677344126171  111.347607275869 27.8677344126171  C 111.347607275869 27.8677344126171  118.758560890663 25.2960951567792  118.758560890663 25.2960951567792  C 118.758560890663 25.2960951567792  113.18658090688 18.4440862425531  113.18658090688 18.4440862425531  C 113.18658090688 18.4440862425531  116.724127487493 14.9881790033955  116.724127487493 14.9881790033955  C 116.724127487493 14.9881790033955  145.608126494334 11.4361556790944  145.608126494334 11.4361556790944  C 145.608126494334 11.4361556790944  149.376921256092 8.89441920530104  149.376921256092 8.89441920530104  C 149.376921256092 8.89441920530104  170.691650290784 5.06899901659192  170.691650290784 5.06899901659192  C 170.691650290784 5.06899901659192  177.631848679675 0.728823794114464  177.631848679675 0.728823794114464  C 177.631848679675 0.728823794114464  191.503986593845 2.98861975148712  191.503986593845 2.98861975148712  C 191.503986593845 2.98861975148712  193.934845450406 13.6938157234638  193.934845450406 13.6938157234638  C 193.934845450406 13.6938157234638  201.992743381499 11.2054770747501  201.992743381499 11.2054770747501  C 201.992743381499 11.2054770747501  211.906132670827 14.6891511829492  211.906132670827 14.6891511829492  C 211.906132670827 14.6891511829492  211.267447218141 20.206214470183  211.267447218141 20.206214470183  C 211.267447218141 20.206214470183  218.670141969322 19.6337897853286  218.670141969322 19.6337897853286  C 218.670141969322 19.6337897853286  238.015153503926 10.0349967490033  238.015153503926 10.0349967490033  C 238.015153503926 10.0349967490033  235.190622148511 13.2474099057976  235.190622148511 13.2474099057976  C 235.190622148511 13.2474099057976  245.040693483477 21.0627155844613  245.040693483477 21.0627155844613  C 245.040693483477 21.0627155844613  262.287953660551 45.7880445093617  262.287953660551 45.7880445093617  C 262.287953660551 45.7880445093617  266.400867739489 40.804959472925  266.400867739489 40.804959472925  C 266.400867739489 40.804959472925  277.035531117627 46.2835763261013  277.035531117627 46.2835763261013  C 277.035531117627 46.2835763261013  288.127184948981 43.8486355024674  288.127184948981 43.8486355024674  C 288.127184948981 43.8486355024674  292.388758572941 45.5552299920143  292.388758572941 45.5552299920143  C 292.388758572941 45.5552299920143  296.10249424395 50.9932644981302  296.10249424395 50.9932644981302  C 296.10249424395 50.9932644981302  301.498285137336 52.8045187248333  301.498285137336 52.8045187248333  C 301.498285137336 52.8045187248333  304.785312855041 56.7410063897082  304.785312855041 56.7410063897082  C 304.785312855041 56.7410063897082  314.728984644282 55.5043127608625  314.728984644282 55.5043127608625  C 314.728984644282 55.5043127608625  318.822628041458 61.1303076112589  318.822628041458 61.1303076112589  C 318.822628041458 61.1303076112589  312.947823058557 68.7288014612141  312.947823058557 68.7288014612141  C 312.947823058557 68.7288014612141  306.536191940855 69.5703511844701  306.536191940855 69.5703511844701  C 306.536191940855 69.5703511844701  306.170048987375 78.5112830158137  306.170048987375 78.5112830158137  C 306.170048987375 78.5112830158137  301.875439908966 82.4840812017427  301.875439908966 82.4840812017427  C 301.875439908966 82.4840812017427  286.563506771714 79.5941909084298  286.563506771714 79.5941909084298  C 286.563506771714 79.5941909084298  280.994279742469 95.1051911375787  280.994279742469 95.1051911375787  C 280.994279742469 95.1051911375787  277.04378998124 96.997610058403  277.04378998124 96.997610058403  C 277.04378998124 96.997610058403  261.75112752575 100.376624429446  261.75112752575 100.376624429446  C 261.75112752575 100.376624429446  268.699584778253 114.802580852976  268.699584778253 114.802580852976  C 268.699584778253 114.802580852976  263.402900248215 116.927814291147  263.402900248215 116.927814291147  C 263.402900248215 116.927814291147  264.019562064602 121.552065943049  264.019562064602 121.552065943049  C 264.019562064602 121.552065943049  259.26520957844 120.366634226279  259.26520957844 120.366634226279  C 259.26520957844 120.366634226279  255.391802544259 117.451112976928  255.391802544259 117.451112976928  C 255.391802544259 117.451112976928  243.939511668501 116.598883688656  243.939511668501 116.598883688656  C 243.939511668501 116.598883688656  231.141026023934 116.374612823322  231.141026023934 116.374612823322  C 231.141026023934 116.374612823322  228.33576535028 117.273832197664  228.33576535028 117.273832197664  C 228.33576535028 117.273832197664  217.343217882275 113.837148175535  217.343217882275 113.837148175535  C 217.343217882275 113.837148175535  212.960514258667 115.533063100066  212.960514258667 115.533063100066  C 212.960514258667 115.533063100066  211.76297903488 120.332459618228  211.76297903488 120.332459618228  C 211.76297903488 120.332459618228  199.060846799123 117.536549497056  199.060846799123 117.536549497056  C 199.060846799123 117.536549497056  193.981645677543 118.683534779768  193.981645677543 118.683534779768  Z " stroke-width="2" stroke="#505050" fill="none" stroke-opacity="0.211764705882353" transform="matrix(1 0 0 1 2148 1632 )" mask="url(#clip544)" />
  </g>
</svg>