<?xml version="1.0" encoding="utf-8"?>
<svg version="1.1" xmlns:xlink="http://www.w3.org/1999/xlink" width="62px" height="59px" xmlns="http://www.w3.org/2000/svg">
  <defs>
    <mask fill="white" id="clip545">
      <path d="M 49.044410348964 57.9460299653709  C 49.044410348964 57.9460299653709  42.6740735493231 55.4745464283384  42.6740735493231 55.4745464283384  C 42.6740735493231 55.4745464283384  45.1875210420076 52.627731022005  45.1875210420076 52.627731022005  C 45.1875210420076 52.627731022005  45.5316403591878 47.2655336143936  45.5316403591878 47.2655336143936  C 45.5316403591878 47.2655336143936  39.2824335591949 41.7189626569499  39.2824335591949 41.7189626569499  C 39.2824335591949 41.7189626569499  38.8006665151424 35.408558421631  38.8006665151424 35.408558421631  C 38.8006665151424 35.408558421631  32.9286144867788 28.5944364282234  32.9286144867788 28.5944364282234  C 32.9286144867788 28.5944364282234  25.0923508674018 28.153256862554  25.0923508674018 28.153256862554  C 25.0923508674018 28.153256862554  23.5369315537473 31.9866731336793  23.5369315537473 31.9866731336793  C 23.5369315537473 31.9866731336793  19.0165802032675 32.1732416067233  19.0165802032675 32.1732416067233  C 19.0165802032675 32.1732416067233  16.7040983918164 31.0384663059722  16.7040983918164 31.0384663059722  C 16.7040983918164 31.0384663059722  8.56911773367574 34.8708022346214  8.56911773367574 34.8708022346214  C 8.56911773367574 34.8708022346214  8.38742273420439 27.5123392845669  8.38742273420439 27.5123392845669  C 8.38742273420439 27.5123392845669  10.2842084105018 20.6992976336354  10.2842084105018 20.6992976336354  C 10.2842084105018 20.6992976336354  5.07011251658696 20.4007880767644  5.07011251658696 20.4007880767644  C 5.07011251658696 20.4007880767644  4.62688683605893 16.4938247588978  4.62688683605893 16.4938247588978  C 4.62688683605893 16.4938247588978  1.28755298214219 14.4810801732324  1.28755298214219 14.4810801732324  C 1.28755298214219 14.4810801732324  2.93106684099484 12.0754443325683  2.93106684099484 12.0754443325683  C 2.93106684099484 12.0754443325683  9.49961636733087 7.80851360788668  9.49961636733087 7.80851360788668  C 9.49961636733087 7.80851360788668  10.1933609107664 9.35154462612307  10.1933609107664 9.35154462612307  C 10.1933609107664 9.35154462612307  14.3090279442417 9.52933340631804  14.3090279442417 9.52933340631804  C 14.3090279442417 9.52933340631804  13.1445281749038 1.99416201854467  13.1445281749038 1.99416201854467  C 13.1445281749038 1.99416201854467  17.1445711178071 1.02400595871479  17.1445711178071 1.02400595871479  C 17.1445711178071 1.02400595871479  21.6539106501368 6.23914351110315  21.6539106501368 6.23914351110315  C 21.6539106501368 6.23914351110315  25.1198804127762 12.2027498788808  25.1198804127762 12.2027498788808  C 25.1198804127762 12.2027498788808  36.6230794760259 12.2532331127633  36.6230794760259 12.2532331127633  C 36.6230794760259 12.2532331127633  39.6155410582251 17.9424740790054  39.6155410582251 17.9424740790054  C 39.6155410582251 17.9424740790054  34.6822465271298 19.6457344917386  34.6822465271298 19.6457344917386  C 34.6822465271298 19.6457344917386  32.4661181244887 21.978937866397  32.4661181244887 21.978937866397  C 32.4661181244887 21.978937866397  41.7160453702936 25.8463925664428  41.7160453702936 25.8463925664428  C 41.7160453702936 25.8463925664428  48.1304294425331 35.0463960916042  48.1304294425331 35.0463960916042  C 48.1304294425331 35.0463960916042  52.9976530647305 40.6829589007513  52.9976530647305 40.6829589007513  C 52.9976530647305 40.6829589007513  58.8366696386447 45.1145088663545  58.8366696386447 45.1145088663545  C 58.8366696386447 45.1145088663545  60.7802555420785 49.598736989052  60.7802555420785 49.598736989052  C 60.7802555420785 49.598736989052  59.3762487279832 55.9201158404321  59.3762487279832 55.9201158404321  C 59.3762487279832 55.9201158404321  52.5379096569777 53.5956921586224  52.5379096569777 53.5956921586224  C 52.5379096569777 53.5956921586224  49.044410348964 57.9460299653709  49.044410348964 57.9460299653709  Z " fill-rule="evenodd" />
    </mask>
  </defs>
  <g transform="matrix(1 0 0 1 -2562 -1893 )">
    <path d="M 49.044410348964 57.9460299653709  C 49.044410348964 57.9460299653709  42.6740735493231 55.4745464283384  42.6740735493231 55.4745464283384  C 42.6740735493231 55.4745464283384  45.1875210420076 52.627731022005  45.1875210420076 52.627731022005  C 45.1875210420076 52.627731022005  45.5316403591878 47.2655336143936  45.5316403591878 47.2655336143936  C 45.5316403591878 47.2655336143936  39.2824335591949 41.7189626569499  39.2824335591949 41.7189626569499  C 39.2824335591949 41.7189626569499  38.8006665151424 35.408558421631  38.8006665151424 35.408558421631  C 38.8006665151424 35.408558421631  32.9286144867788 28.5944364282234  32.9286144867788 28.5944364282234  C 32.9286144867788 28.5944364282234  25.0923508674018 28.153256862554  25.0923508674018 28.153256862554  C 25.0923508674018 28.153256862554  23.5369315537473 31.9866731336793  23.5369315537473 31.9866731336793  C 23.5369315537473 31.9866731336793  19.0165802032675 32.1732416067233  19.0165802032675 32.1732416067233  C 19.0165802032675 32.1732416067233  16.7040983918164 31.0384663059722  16.7040983918164 31.0384663059722  C 16.7040983918164 31.0384663059722  8.56911773367574 34.8708022346214  8.56911773367574 34.8708022346214  C 8.56911773367574 34.8708022346214  8.38742273420439 27.5123392845669  8.38742273420439 27.5123392845669  C 8.38742273420439 27.5123392845669  10.2842084105018 20.6992976336354  10.2842084105018 20.6992976336354  C 10.2842084105018 20.6992976336354  5.07011251658696 20.4007880767644  5.07011251658696 20.4007880767644  C 5.07011251658696 20.4007880767644  4.62688683605893 16.4938247588978  4.62688683605893 16.4938247588978  C 4.62688683605893 16.4938247588978  1.28755298214219 14.4810801732324  1.28755298214219 14.4810801732324  C 1.28755298214219 14.4810801732324  2.93106684099484 12.0754443325683  2.93106684099484 12.0754443325683  C 2.93106684099484 12.0754443325683  9.49961636733087 7.80851360788668  9.49961636733087 7.80851360788668  C 9.49961636733087 7.80851360788668  10.1933609107664 9.35154462612307  10.1933609107664 9.35154462612307  C 10.1933609107664 9.35154462612307  14.3090279442417 9.52933340631804  14.3090279442417 9.52933340631804  C 14.3090279442417 9.52933340631804  13.1445281749038 1.99416201854467  13.1445281749038 1.99416201854467  C 13.1445281749038 1.99416201854467  17.1445711178071 1.02400595871479  17.1445711178071 1.02400595871479  C 17.1445711178071 1.02400595871479  21.6539106501368 6.23914351110315  21.6539106501368 6.23914351110315  C 21.6539106501368 6.23914351110315  25.1198804127762 12.2027498788808  25.1198804127762 12.2027498788808  C 25.1198804127762 12.2027498788808  36.6230794760259 12.2532331127633  36.6230794760259 12.2532331127633  C 36.6230794760259 12.2532331127633  39.6155410582251 17.9424740790054  39.6155410582251 17.9424740790054  C 39.6155410582251 17.9424740790054  34.6822465271298 19.6457344917386  34.6822465271298 19.6457344917386  C 34.6822465271298 19.6457344917386  32.4661181244887 21.978937866397  32.4661181244887 21.978937866397  C 32.4661181244887 21.978937866397  41.7160453702936 25.8463925664428  41.7160453702936 25.8463925664428  C 41.7160453702936 25.8463925664428  48.1304294425331 35.0463960916042  48.1304294425331 35.0463960916042  C 48.1304294425331 35.0463960916042  52.9976530647305 40.6829589007513  52.9976530647305 40.6829589007513  C 52.9976530647305 40.6829589007513  58.8366696386447 45.1145088663545  58.8366696386447 45.1145088663545  C 58.8366696386447 45.1145088663545  60.7802555420785 49.598736989052  60.7802555420785 49.598736989052  C 60.7802555420785 49.598736989052  59.3762487279832 55.9201158404321  59.3762487279832 55.9201158404321  C 59.3762487279832 55.9201158404321  52.5379096569777 53.5956921586224  52.5379096569777 53.5956921586224  C 52.5379096569777 53.5956921586224  49.044410348964 57.9460299653709  49.044410348964 57.9460299653709  Z " fill-rule="nonzero" fill="#f2f2f2" stroke="none" transform="matrix(1 0 0 1 2562 1893 )" />
    <path d="M 49.044410348964 57.9460299653709  C 49.044410348964 57.9460299653709  42.6740735493231 55.4745464283384  42.6740735493231 55.4745464283384  C 42.6740735493231 55.4745464283384  45.1875210420076 52.627731022005  45.1875210420076 52.627731022005  C 45.1875210420076 52.627731022005  45.5316403591878 47.2655336143936  45.5316403591878 47.2655336143936  C 45.5316403591878 47.2655336143936  39.2824335591949 41.7189626569499  39.2824335591949 41.7189626569499  C 39.2824335591949 41.7189626569499  38.8006665151424 35.408558421631  38.8006665151424 35.408558421631  C 38.8006665151424 35.408558421631  32.9286144867788 28.5944364282234  32.9286144867788 28.5944364282234  C 32.9286144867788 28.5944364282234  25.0923508674018 28.153256862554  25.0923508674018 28.153256862554  C 25.0923508674018 28.153256862554  23.5369315537473 31.9866731336793  23.5369315537473 31.9866731336793  C 23.5369315537473 31.9866731336793  19.0165802032675 32.1732416067233  19.0165802032675 32.1732416067233  C 19.0165802032675 32.1732416067233  16.7040983918164 31.0384663059722  16.7040983918164 31.0384663059722  C 16.7040983918164 31.0384663059722  8.56911773367574 34.8708022346214  8.56911773367574 34.8708022346214  C 8.56911773367574 34.8708022346214  8.38742273420439 27.5123392845669  8.38742273420439 27.5123392845669  C 8.38742273420439 27.5123392845669  10.2842084105018 20.6992976336354  10.2842084105018 20.6992976336354  C 10.2842084105018 20.6992976336354  5.07011251658696 20.4007880767644  5.07011251658696 20.4007880767644  C 5.07011251658696 20.4007880767644  4.62688683605893 16.4938247588978  4.62688683605893 16.4938247588978  C 4.62688683605893 16.4938247588978  1.28755298214219 14.4810801732324  1.28755298214219 14.4810801732324  C 1.28755298214219 14.4810801732324  2.93106684099484 12.0754443325683  2.93106684099484 12.0754443325683  C 2.93106684099484 12.0754443325683  9.49961636733087 7.80851360788668  9.49961636733087 7.80851360788668  C 9.49961636733087 7.80851360788668  10.1933609107664 9.35154462612307  10.1933609107664 9.35154462612307  C 10.1933609107664 9.35154462612307  14.3090279442417 9.52933340631804  14.3090279442417 9.52933340631804  C 14.3090279442417 9.52933340631804  13.1445281749038 1.99416201854467  13.1445281749038 1.99416201854467  C 13.1445281749038 1.99416201854467  17.1445711178071 1.02400595871479  17.1445711178071 1.02400595871479  C 17.1445711178071 1.02400595871479  21.6539106501368 6.23914351110315  21.6539106501368 6.23914351110315  C 21.6539106501368 6.23914351110315  25.1198804127762 12.2027498788808  25.1198804127762 12.2027498788808  C 25.1198804127762 12.2027498788808  36.6230794760259 12.2532331127633  36.6230794760259 12.2532331127633  C 36.6230794760259 12.2532331127633  39.6155410582251 17.9424740790054  39.6155410582251 17.9424740790054  C 39.6155410582251 17.9424740790054  34.6822465271298 19.6457344917386  34.6822465271298 19.6457344917386  C 34.6822465271298 19.6457344917386  32.4661181244887 21.978937866397  32.4661181244887 21.978937866397  C 32.4661181244887 21.978937866397  41.7160453702936 25.8463925664428  41.7160453702936 25.8463925664428  C 41.7160453702936 25.8463925664428  48.1304294425331 35.0463960916042  48.1304294425331 35.0463960916042  C 48.1304294425331 35.0463960916042  52.9976530647305 40.6829589007513  52.9976530647305 40.6829589007513  C 52.9976530647305 40.6829589007513  58.8366696386447 45.1145088663545  58.8366696386447 45.1145088663545  C 58.8366696386447 45.1145088663545  60.7802555420785 49.598736989052  60.7802555420785 49.598736989052  C 60.7802555420785 49.598736989052  59.3762487279832 55.9201158404321  59.3762487279832 55.9201158404321  C 59.3762487279832 55.9201158404321  52.5379096569777 53.5956921586224  52.5379096569777 53.5956921586224  C 52.5379096569777 53.5956921586224  49.044410348964 57.9460299653709  49.044410348964 57.9460299653709  Z " stroke-width="2" stroke="#505050" fill="none" stroke-opacity="0.211764705882353" transform="matrix(1 0 0 1 2562 1893 )" mask="url(#clip545)" />
  </g>
</svg>