<?xml version="1.0" encoding="utf-8"?>
<svg version="1.1" xmlns:xlink="http://www.w3.org/1999/xlink" width="62px" height="36px" xmlns="http://www.w3.org/2000/svg">
  <defs>
    <mask fill="white" id="clip546">
      <path d="M 25.4668002361377 6.63986498455709  C 25.4668002361377 6.63986498455709  28.6519686359579 6.4351887993822  28.6519686359579 6.4351887993822  C 28.6519686359579 6.4351887993822  25.8274372805427 8.86114021524615  25.8274372805427 8.86114021524615  C 25.8274372805427 8.86114021524615  17.4254200322703 7.54690365780646  17.4254200322703 7.54690365780646  C 17.4254200322703 7.54690365780646  16.6931341253107 12.0627066486155  16.6931341253107 12.0627066486155  C 16.6931341253107 12.0627066486155  25.0648688736715 11.4572960377294  25.0648688736715 11.4572960377294  C 25.0648688736715 11.4572960377294  36.5983504368328 13.9866627892608  36.5983504368328 13.9866627892608  C 36.5983504368328 13.9866627892608  51.1945153943498 12.8081588598846  51.1945153943498 12.8081588598846  C 51.1945153943498 12.8081588598846  53.151866070471 21.5327337599953  53.151866070471 21.5327337599953  C 53.151866070471 21.5327337599953  55.6873371994552 20.7592732286497  55.6873371994552 20.7592732286497  C 55.6873371994552 20.7592732286497  60.3756187767185 22.5087159903563  60.3756187767185 22.5087159903563  C 60.3756187767185 22.5087159903563  60.1058292320495 25.4840613769532  60.1058292320495 25.4840613769532  C 60.1058292320495 25.4840613769532  61.2648230923123 29.8188875303443  61.2648230923123 29.8188875303443  C 61.2648230923123 29.8188875303443  53.3032785700302 29.805960613386  53.3032785700302 29.805960613386  C 53.3032785700302 29.805960613386  47.9873233582298 29.247948698014  47.9873233582298 29.247948698014  C 47.9873233582298 29.247948698014  43.1779117813189 32.6326464549611  43.1779117813189 32.6326464549611  C 43.1779117813189 32.6326464549611  39.7532363367413 33.3802531523899  39.7532363367413 33.3802531523899  C 39.7532363367413 33.3802531523899  37.0608467991228 34.9594915074772  37.0608467991228 34.9594915074772  C 37.0608467991228 34.9594915074772  34.0078202171003 32.4969138268977  34.0078202171003 32.4969138268977  C 34.0078202171003 32.4969138268977  34.7263413513724 26.1282527387147  34.7263413513724 26.1282527387147  C 34.7263413513724 26.1282527387147  32.3918359036215 25.7641445777192  32.3918359036215 25.7641445777192  C 32.3918359036215 25.7641445777192  33.2314870375412 23.4286815805641  33.2314870375412 23.4286815805641  C 33.2314870375412 23.4286815805641  27.0525020497043 21.683547791177  27.0525020497043 21.683547791177  C 27.0525020497043 21.683547791177  23.7296859230119 24.3508016569316  23.7296859230119 24.3508016569316  C 23.7296859230119 24.3508016569316  22.9120584253915 27.4274078930362  22.9120584253915 27.4274078930362  C 22.9120584253915 27.4274078930362  21.7255350197543 28.54343172378  21.7255350197543 28.54343172378  C 21.7255350197543 28.54343172378  17.1115832150017 28.3839997479594  17.1115832150017 28.3839997479594  C 17.1115832150017 28.3839997479594  14.6229123131543 31.8505679789766  14.6229123131543 31.8505679789766  C 14.6229123131543 31.8505679789766  12.0186173207339 30.3919808488344  12.0186173207339 30.3919808488344  C 12.0186173207339 30.3919808488344  6.43287256426447 32.8179322646984  6.43287256426447 32.8179322646984  C 6.43287256426447 32.8179322646984  4.07359052567699 31.8979666744907  4.07359052567699 31.8979666744907  C 4.07359052567699 31.8979666744907  8.41224687668546 24.2086055703889  8.41224687668546 24.2086055703889  C 8.41224687668546 24.2086055703889  6.74395642699528 16.9167639665032  6.74395642699528 16.9167639665032  C 6.74395642699528 16.9167639665032  1.08112894347732 15.0703693276086  1.08112894347732 15.0703693276086  C 1.08112894347732 15.0703693276086  3.08252689219762 11.6425818474667  3.08252689219762 11.6425818474667  C 3.08252689219762 11.6425818474667  9.52719346434924 12.0088444946221  9.52719346434924 12.0088444946221  C 9.52719346434924 12.0088444946221  13.194128908222 7.68048179971021  13.194128908222 7.68048179971021  C 13.194128908222 7.68048179971021  15.6497643556199 2.61097586584871  15.6497643556199 2.61097586584871  C 15.6497643556199 2.61097586584871  25.97059091649 0.762426740794175  25.97059091649 0.762426740794175  C 25.97059091649 0.762426740794175  24.3628654666236 4.44444358778497  24.3628654666236 4.44444358778497  C 24.3628654666236 4.44444358778497  25.4668002361377 6.63986498455709  25.4668002361377 6.63986498455709  Z " fill-rule="evenodd" />
    </mask>
  </defs>
  <g transform="matrix(1 0 0 1 -2310 -1764 )">
    <path d="M 25.4668002361377 6.63986498455709  C 25.4668002361377 6.63986498455709  28.6519686359579 6.4351887993822  28.6519686359579 6.4351887993822  C 28.6519686359579 6.4351887993822  25.8274372805427 8.86114021524615  25.8274372805427 8.86114021524615  C 25.8274372805427 8.86114021524615  17.4254200322703 7.54690365780646  17.4254200322703 7.54690365780646  C 17.4254200322703 7.54690365780646  16.6931341253107 12.0627066486155  16.6931341253107 12.0627066486155  C 16.6931341253107 12.0627066486155  25.0648688736715 11.4572960377294  25.0648688736715 11.4572960377294  C 25.0648688736715 11.4572960377294  36.5983504368328 13.9866627892608  36.5983504368328 13.9866627892608  C 36.5983504368328 13.9866627892608  51.1945153943498 12.8081588598846  51.1945153943498 12.8081588598846  C 51.1945153943498 12.8081588598846  53.151866070471 21.5327337599953  53.151866070471 21.5327337599953  C 53.151866070471 21.5327337599953  55.6873371994552 20.7592732286497  55.6873371994552 20.7592732286497  C 55.6873371994552 20.7592732286497  60.3756187767185 22.5087159903563  60.3756187767185 22.5087159903563  C 60.3756187767185 22.5087159903563  60.1058292320495 25.4840613769532  60.1058292320495 25.4840613769532  C 60.1058292320495 25.4840613769532  61.2648230923123 29.8188875303443  61.2648230923123 29.8188875303443  C 61.2648230923123 29.8188875303443  53.3032785700302 29.805960613386  53.3032785700302 29.805960613386  C 53.3032785700302 29.805960613386  47.9873233582298 29.247948698014  47.9873233582298 29.247948698014  C 47.9873233582298 29.247948698014  43.1779117813189 32.6326464549611  43.1779117813189 32.6326464549611  C 43.1779117813189 32.6326464549611  39.7532363367413 33.3802531523899  39.7532363367413 33.3802531523899  C 39.7532363367413 33.3802531523899  37.0608467991228 34.9594915074772  37.0608467991228 34.9594915074772  C 37.0608467991228 34.9594915074772  34.0078202171003 32.4969138268977  34.0078202171003 32.4969138268977  C 34.0078202171003 32.4969138268977  34.7263413513724 26.1282527387147  34.7263413513724 26.1282527387147  C 34.7263413513724 26.1282527387147  32.3918359036215 25.7641445777192  32.3918359036215 25.7641445777192  C 32.3918359036215 25.7641445777192  33.2314870375412 23.4286815805641  33.2314870375412 23.4286815805641  C 33.2314870375412 23.4286815805641  27.0525020497043 21.683547791177  27.0525020497043 21.683547791177  C 27.0525020497043 21.683547791177  23.7296859230119 24.3508016569316  23.7296859230119 24.3508016569316  C 23.7296859230119 24.3508016569316  22.9120584253915 27.4274078930362  22.9120584253915 27.4274078930362  C 22.9120584253915 27.4274078930362  21.7255350197543 28.54343172378  21.7255350197543 28.54343172378  C 21.7255350197543 28.54343172378  17.1115832150017 28.3839997479594  17.1115832150017 28.3839997479594  C 17.1115832150017 28.3839997479594  14.6229123131543 31.8505679789766  14.6229123131543 31.8505679789766  C 14.6229123131543 31.8505679789766  12.0186173207339 30.3919808488344  12.0186173207339 30.3919808488344  C 12.0186173207339 30.3919808488344  6.43287256426447 32.8179322646984  6.43287256426447 32.8179322646984  C 6.43287256426447 32.8179322646984  4.07359052567699 31.8979666744907  4.07359052567699 31.8979666744907  C 4.07359052567699 31.8979666744907  8.41224687668546 24.2086055703889  8.41224687668546 24.2086055703889  C 8.41224687668546 24.2086055703889  6.74395642699528 16.9167639665032  6.74395642699528 16.9167639665032  C 6.74395642699528 16.9167639665032  1.08112894347732 15.0703693276086  1.08112894347732 15.0703693276086  C 1.08112894347732 15.0703693276086  3.08252689219762 11.6425818474667  3.08252689219762 11.6425818474667  C 3.08252689219762 11.6425818474667  9.52719346434924 12.0088444946221  9.52719346434924 12.0088444946221  C 9.52719346434924 12.0088444946221  13.194128908222 7.68048179971021  13.194128908222 7.68048179971021  C 13.194128908222 7.68048179971021  15.6497643556199 2.61097586584871  15.6497643556199 2.61097586584871  C 15.6497643556199 2.61097586584871  25.97059091649 0.762426740794175  25.97059091649 0.762426740794175  C 25.97059091649 0.762426740794175  24.3628654666236 4.44444358778497  24.3628654666236 4.44444358778497  C 24.3628654666236 4.44444358778497  25.4668002361377 6.63986498455709  25.4668002361377 6.63986498455709  Z " fill-rule="nonzero" fill="#f2f2f2" stroke="none" transform="matrix(1 0 0 1 2310 1764 )" />
    <path d="M 25.4668002361377 6.63986498455709  C 25.4668002361377 6.63986498455709  28.6519686359579 6.4351887993822  28.6519686359579 6.4351887993822  C 28.6519686359579 6.4351887993822  25.8274372805427 8.86114021524615  25.8274372805427 8.86114021524615  C 25.8274372805427 8.86114021524615  17.4254200322703 7.54690365780646  17.4254200322703 7.54690365780646  C 17.4254200322703 7.54690365780646  16.6931341253107 12.0627066486155  16.6931341253107 12.0627066486155  C 16.6931341253107 12.0627066486155  25.0648688736715 11.4572960377294  25.0648688736715 11.4572960377294  C 25.0648688736715 11.4572960377294  36.5983504368328 13.9866627892608  36.5983504368328 13.9866627892608  C 36.5983504368328 13.9866627892608  51.1945153943498 12.8081588598846  51.1945153943498 12.8081588598846  C 51.1945153943498 12.8081588598846  53.151866070471 21.5327337599953  53.151866070471 21.5327337599953  C 53.151866070471 21.5327337599953  55.6873371994552 20.7592732286497  55.6873371994552 20.7592732286497  C 55.6873371994552 20.7592732286497  60.3756187767185 22.5087159903563  60.3756187767185 22.5087159903563  C 60.3756187767185 22.5087159903563  60.1058292320495 25.4840613769532  60.1058292320495 25.4840613769532  C 60.1058292320495 25.4840613769532  61.2648230923123 29.8188875303443  61.2648230923123 29.8188875303443  C 61.2648230923123 29.8188875303443  53.3032785700302 29.805960613386  53.3032785700302 29.805960613386  C 53.3032785700302 29.805960613386  47.9873233582298 29.247948698014  47.9873233582298 29.247948698014  C 47.9873233582298 29.247948698014  43.1779117813189 32.6326464549611  43.1779117813189 32.6326464549611  C 43.1779117813189 32.6326464549611  39.7532363367413 33.3802531523899  39.7532363367413 33.3802531523899  C 39.7532363367413 33.3802531523899  37.0608467991228 34.9594915074772  37.0608467991228 34.9594915074772  C 37.0608467991228 34.9594915074772  34.0078202171003 32.4969138268977  34.0078202171003 32.4969138268977  C 34.0078202171003 32.4969138268977  34.7263413513724 26.1282527387147  34.7263413513724 26.1282527387147  C 34.7263413513724 26.1282527387147  32.3918359036215 25.7641445777192  32.3918359036215 25.7641445777192  C 32.3918359036215 25.7641445777192  33.2314870375412 23.4286815805641  33.2314870375412 23.4286815805641  C 33.2314870375412 23.4286815805641  27.0525020497043 21.683547791177  27.0525020497043 21.683547791177  C 27.0525020497043 21.683547791177  23.7296859230119 24.3508016569316  23.7296859230119 24.3508016569316  C 23.7296859230119 24.3508016569316  22.9120584253915 27.4274078930362  22.9120584253915 27.4274078930362  C 22.9120584253915 27.4274078930362  21.7255350197543 28.54343172378  21.7255350197543 28.54343172378  C 21.7255350197543 28.54343172378  17.1115832150017 28.3839997479594  17.1115832150017 28.3839997479594  C 17.1115832150017 28.3839997479594  14.6229123131543 31.8505679789766  14.6229123131543 31.8505679789766  C 14.6229123131543 31.8505679789766  12.0186173207339 30.3919808488344  12.0186173207339 30.3919808488344  C 12.0186173207339 30.3919808488344  6.43287256426447 32.8179322646984  6.43287256426447 32.8179322646984  C 6.43287256426447 32.8179322646984  4.07359052567699 31.8979666744907  4.07359052567699 31.8979666744907  C 4.07359052567699 31.8979666744907  8.41224687668546 24.2086055703889  8.41224687668546 24.2086055703889  C 8.41224687668546 24.2086055703889  6.74395642699528 16.9167639665032  6.74395642699528 16.9167639665032  C 6.74395642699528 16.9167639665032  1.08112894347732 15.0703693276086  1.08112894347732 15.0703693276086  C 1.08112894347732 15.0703693276086  3.08252689219762 11.6425818474667  3.08252689219762 11.6425818474667  C 3.08252689219762 11.6425818474667  9.52719346434924 12.0088444946221  9.52719346434924 12.0088444946221  C 9.52719346434924 12.0088444946221  13.194128908222 7.68048179971021  13.194128908222 7.68048179971021  C 13.194128908222 7.68048179971021  15.6497643556199 2.61097586584871  15.6497643556199 2.61097586584871  C 15.6497643556199 2.61097586584871  25.97059091649 0.762426740794175  25.97059091649 0.762426740794175  C 25.97059091649 0.762426740794175  24.3628654666236 4.44444358778497  24.3628654666236 4.44444358778497  C 24.3628654666236 4.44444358778497  25.4668002361377 6.63986498455709  25.4668002361377 6.63986498455709  Z " stroke-width="2" stroke="#505050" fill="none" stroke-opacity="0.211764705882353" transform="matrix(1 0 0 1 2310 1764 )" mask="url(#clip546)" />
  </g>
</svg>