<?xml version="1.0" encoding="utf-8"?>
<svg version="1.1" xmlns:xlink="http://www.w3.org/1999/xlink" width="80px" height="61px" xmlns="http://www.w3.org/2000/svg">
  <defs>
    <mask fill="white" id="clip547">
      <path d="M 12.0775121560787 43.3342777739153  C 12.0775121560787 43.3342777739153  8.41608262128079 40.1767475887274  8.41608262128079 40.1767475887274  C 8.41608262128079 40.1767475887274  5.25293785776012 33.8484295688689  5.25293785776012 33.8484295688689  C 5.25293785776012 33.8484295688689  5.85583490146018 28.7895487206675  5.85583490146018 28.7895487206675  C 5.85583490146018 28.7895487206675  3.94528445247556 23.3782181233792  3.94528445247556 23.3782181233792  C 3.94528445247556 23.3782181233792  1.1427767333596 19.7345741238167  1.1427767333596 19.7345741238167  C 1.1427767333596 19.7345741238167  3.29558718163935 16.985821464353  3.29558718163935 16.985821464353  C 3.29558718163935 16.985821464353  1.48964900507713 11.6982289289056  1.48964900507713 11.6982289289056  C 1.48964900507713 11.6982289289056  6.76430989881601 8.61582542412111  6.76430989881601 8.61582542412111  C 6.76430989881601 8.61582542412111  18.8112389546616 3.71933354842057  18.8112389546616 3.71933354842057  C 18.8112389546616 3.71933354842057  28.5319214263689 0.0999952395768081  28.5319214263689 0.0999952395768081  C 28.5319214263689 0.0999952395768081  36.2346882221314 1.91187400224582  36.2346882221314 1.91187400224582  C 36.2346882221314 1.91187400224582  36.8155616295317 4.51258290915002  36.8155616295317 4.51258290915002  C 36.8155616295317 4.51258290915002  46.259550698775 4.64515940397947  46.259550698775 4.64515940397947  C 46.259550698775 4.64515940397947  55.768255671099 5.8516055069273  55.768255671099 5.8516055069273  C 55.768255671099 5.8516055069273  69.9624892661495 5.69251371313196  69.9624892661495 5.69251371313196  C 69.9624892661495 5.69251371313196  73.9212378909911 6.82383313567658  73.9212378909911 6.82383313567658  C 73.9212378909911 6.82383313567658  75.7739762946894 10.0697476507506  75.7739762946894 10.0697476507506  C 75.7739762946894 10.0697476507506  76.1098367482573 14.6878288873095  76.1098367482573 14.6878288873095  C 76.1098367482573 14.6878288873095  78.2516353783872 18.6187219590023  78.2516353783872 18.6187219590023  C 78.2516353783872 18.6187219590023  78.2048351512503 22.7020779997489  78.2048351512503 22.7020779997489  C 78.2048351512503 22.7020779997489  73.5771185738108 24.7791097520769  73.5771185738108 24.7791097520769  C 73.5771185738108 24.7791097520769  75.9584242486981 31.0621135692035  75.9584242486981 31.0621135692035  C 75.9584242486981 31.0621135692035  76.1043308391825 35.5100549707312  76.1043308391825 35.5100549707312  C 76.1043308391825 35.5100549707312  79.9859967369755 44.1076406604203  79.9859967369755 44.1076406604203  C 79.9859967369755 44.1076406604203  79.1601103757428 46.8365068456596  79.1601103757428 46.8365068456596  C 79.1601103757428 46.8365068456596  75.3307506141612 47.965616659957  75.3307506141612 47.965616659957  C 75.3307506141612 47.965616659957  68.3217283618342 55.9400928239478  68.3217283618342 55.9400928239478  C 68.3217283618342 55.9400928239478  70.3121144924046 60.1935886997256  70.3121144924046 60.1935886997256  C 70.3121144924046 60.1935886997256  68.6245533609526 59.6456058544306  68.6245533609526 59.6456058544306  C 68.6245533609526 59.6456058544306  61.2906824732074 56.0041714631153  61.2906824732074 56.0041714631153  C 61.2906824732074 56.0041714631153  55.7352202166499 57.3476132773869  55.7352202166499 57.3476132773869  C 55.7352202166499 57.3476132773869  52.0903084090767 56.3731760403905  52.0903084090767 56.3731760403905  C 52.0903084090767 56.3731760403905  47.5286627405355 58.4038060195282  47.5286627405355 58.4038060195282  C 47.5286627405355 58.4038060195282  43.6359850245926 55.0385726591075  43.6359850245926 55.0385726591075  C 43.6359850245926 55.0385726591075  38.4618284429221 56.3311934836946  38.4618284429221 56.3311934836946  C 38.4618284429221 56.3311934836946  38.0268616260062 55.7566953394336  38.0268616260062 55.7566953394336  C 38.0268616260062 55.7566953394336  34.475550272706 51.0502297729885  34.475550272706 51.0502297729885  C 34.475550272706 51.0502297729885  28.7356400621397 50.466893195739  28.7356400621397 50.466893195739  C 28.7356400621397 50.466893195739  28.0061071097177 47.446358721875  28.0061071097177 47.446358721875  C 28.0061071097177 47.446358721875  22.7094225796793 46.3614410725209  22.7094225796793 46.3614410725209  C 22.7094225796793 46.3614410725209  21.5586875830286 48.8605080000557  21.5586875830286 48.8605080000557  C 21.5586875830286 48.8605080000557  17.3659378225047 46.8608125363784  17.3659378225047 46.8608125363784  C 17.3659378225047 46.8608125363784  17.847704866557 44.1849769490709  17.847704866557 44.1849769490709  C 17.847704866557 44.1849769490709  12.0775121560787 43.3342777739153  12.0775121560787 43.3342777739153  Z " fill-rule="evenodd" />
    </mask>
  </defs>
  <g transform="matrix(1 0 0 1 -1904 -1634 )">
    <path d="M 12.0775121560787 43.3342777739153  C 12.0775121560787 43.3342777739153  8.41608262128079 40.1767475887274  8.41608262128079 40.1767475887274  C 8.41608262128079 40.1767475887274  5.25293785776012 33.8484295688689  5.25293785776012 33.8484295688689  C 5.25293785776012 33.8484295688689  5.85583490146018 28.7895487206675  5.85583490146018 28.7895487206675  C 5.85583490146018 28.7895487206675  3.94528445247556 23.3782181233792  3.94528445247556 23.3782181233792  C 3.94528445247556 23.3782181233792  1.1427767333596 19.7345741238167  1.1427767333596 19.7345741238167  C 1.1427767333596 19.7345741238167  3.29558718163935 16.985821464353  3.29558718163935 16.985821464353  C 3.29558718163935 16.985821464353  1.48964900507713 11.6982289289056  1.48964900507713 11.6982289289056  C 1.48964900507713 11.6982289289056  6.76430989881601 8.61582542412111  6.76430989881601 8.61582542412111  C 6.76430989881601 8.61582542412111  18.8112389546616 3.71933354842057  18.8112389546616 3.71933354842057  C 18.8112389546616 3.71933354842057  28.5319214263689 0.0999952395768081  28.5319214263689 0.0999952395768081  C 28.5319214263689 0.0999952395768081  36.2346882221314 1.91187400224582  36.2346882221314 1.91187400224582  C 36.2346882221314 1.91187400224582  36.8155616295317 4.51258290915002  36.8155616295317 4.51258290915002  C 36.8155616295317 4.51258290915002  46.259550698775 4.64515940397947  46.259550698775 4.64515940397947  C 46.259550698775 4.64515940397947  55.768255671099 5.8516055069273  55.768255671099 5.8516055069273  C 55.768255671099 5.8516055069273  69.9624892661495 5.69251371313196  69.9624892661495 5.69251371313196  C 69.9624892661495 5.69251371313196  73.9212378909911 6.82383313567658  73.9212378909911 6.82383313567658  C 73.9212378909911 6.82383313567658  75.7739762946894 10.0697476507506  75.7739762946894 10.0697476507506  C 75.7739762946894 10.0697476507506  76.1098367482573 14.6878288873095  76.1098367482573 14.6878288873095  C 76.1098367482573 14.6878288873095  78.2516353783872 18.6187219590023  78.2516353783872 18.6187219590023  C 78.2516353783872 18.6187219590023  78.2048351512503 22.7020779997489  78.2048351512503 22.7020779997489  C 78.2048351512503 22.7020779997489  73.5771185738108 24.7791097520769  73.5771185738108 24.7791097520769  C 73.5771185738108 24.7791097520769  75.9584242486981 31.0621135692035  75.9584242486981 31.0621135692035  C 75.9584242486981 31.0621135692035  76.1043308391825 35.5100549707312  76.1043308391825 35.5100549707312  C 76.1043308391825 35.5100549707312  79.9859967369755 44.1076406604203  79.9859967369755 44.1076406604203  C 79.9859967369755 44.1076406604203  79.1601103757428 46.8365068456596  79.1601103757428 46.8365068456596  C 79.1601103757428 46.8365068456596  75.3307506141612 47.965616659957  75.3307506141612 47.965616659957  C 75.3307506141612 47.965616659957  68.3217283618342 55.9400928239478  68.3217283618342 55.9400928239478  C 68.3217283618342 55.9400928239478  70.3121144924046 60.1935886997256  70.3121144924046 60.1935886997256  C 70.3121144924046 60.1935886997256  68.6245533609526 59.6456058544306  68.6245533609526 59.6456058544306  C 68.6245533609526 59.6456058544306  61.2906824732074 56.0041714631153  61.2906824732074 56.0041714631153  C 61.2906824732074 56.0041714631153  55.7352202166499 57.3476132773869  55.7352202166499 57.3476132773869  C 55.7352202166499 57.3476132773869  52.0903084090767 56.3731760403905  52.0903084090767 56.3731760403905  C 52.0903084090767 56.3731760403905  47.5286627405355 58.4038060195282  47.5286627405355 58.4038060195282  C 47.5286627405355 58.4038060195282  43.6359850245926 55.0385726591075  43.6359850245926 55.0385726591075  C 43.6359850245926 55.0385726591075  38.4618284429221 56.3311934836946  38.4618284429221 56.3311934836946  C 38.4618284429221 56.3311934836946  38.0268616260062 55.7566953394336  38.0268616260062 55.7566953394336  C 38.0268616260062 55.7566953394336  34.475550272706 51.0502297729885  34.475550272706 51.0502297729885  C 34.475550272706 51.0502297729885  28.7356400621397 50.466893195739  28.7356400621397 50.466893195739  C 28.7356400621397 50.466893195739  28.0061071097177 47.446358721875  28.0061071097177 47.446358721875  C 28.0061071097177 47.446358721875  22.7094225796793 46.3614410725209  22.7094225796793 46.3614410725209  C 22.7094225796793 46.3614410725209  21.5586875830286 48.8605080000557  21.5586875830286 48.8605080000557  C 21.5586875830286 48.8605080000557  17.3659378225047 46.8608125363784  17.3659378225047 46.8608125363784  C 17.3659378225047 46.8608125363784  17.847704866557 44.1849769490709  17.847704866557 44.1849769490709  C 17.847704866557 44.1849769490709  12.0775121560787 43.3342777739153  12.0775121560787 43.3342777739153  Z " fill-rule="nonzero" fill="#81ecec" stroke="none" transform="matrix(1 0 0 1 1904 1634 )" />
    <path d="M 12.0775121560787 43.3342777739153  C 12.0775121560787 43.3342777739153  8.41608262128079 40.1767475887274  8.41608262128079 40.1767475887274  C 8.41608262128079 40.1767475887274  5.25293785776012 33.8484295688689  5.25293785776012 33.8484295688689  C 5.25293785776012 33.8484295688689  5.85583490146018 28.7895487206675  5.85583490146018 28.7895487206675  C 5.85583490146018 28.7895487206675  3.94528445247556 23.3782181233792  3.94528445247556 23.3782181233792  C 3.94528445247556 23.3782181233792  1.1427767333596 19.7345741238167  1.1427767333596 19.7345741238167  C 1.1427767333596 19.7345741238167  3.29558718163935 16.985821464353  3.29558718163935 16.985821464353  C 3.29558718163935 16.985821464353  1.48964900507713 11.6982289289056  1.48964900507713 11.6982289289056  C 1.48964900507713 11.6982289289056  6.76430989881601 8.61582542412111  6.76430989881601 8.61582542412111  C 6.76430989881601 8.61582542412111  18.8112389546616 3.71933354842057  18.8112389546616 3.71933354842057  C 18.8112389546616 3.71933354842057  28.5319214263689 0.0999952395768081  28.5319214263689 0.0999952395768081  C 28.5319214263689 0.0999952395768081  36.2346882221314 1.91187400224582  36.2346882221314 1.91187400224582  C 36.2346882221314 1.91187400224582  36.8155616295317 4.51258290915002  36.8155616295317 4.51258290915002  C 36.8155616295317 4.51258290915002  46.259550698775 4.64515940397947  46.259550698775 4.64515940397947  C 46.259550698775 4.64515940397947  55.768255671099 5.8516055069273  55.768255671099 5.8516055069273  C 55.768255671099 5.8516055069273  69.9624892661495 5.69251371313196  69.9624892661495 5.69251371313196  C 69.9624892661495 5.69251371313196  73.9212378909911 6.82383313567658  73.9212378909911 6.82383313567658  C 73.9212378909911 6.82383313567658  75.7739762946894 10.0697476507506  75.7739762946894 10.0697476507506  C 75.7739762946894 10.0697476507506  76.1098367482573 14.6878288873095  76.1098367482573 14.6878288873095  C 76.1098367482573 14.6878288873095  78.2516353783872 18.6187219590023  78.2516353783872 18.6187219590023  C 78.2516353783872 18.6187219590023  78.2048351512503 22.7020779997489  78.2048351512503 22.7020779997489  C 78.2048351512503 22.7020779997489  73.5771185738108 24.7791097520769  73.5771185738108 24.7791097520769  C 73.5771185738108 24.7791097520769  75.9584242486981 31.0621135692035  75.9584242486981 31.0621135692035  C 75.9584242486981 31.0621135692035  76.1043308391825 35.5100549707312  76.1043308391825 35.5100549707312  C 76.1043308391825 35.5100549707312  79.9859967369755 44.1076406604203  79.9859967369755 44.1076406604203  C 79.9859967369755 44.1076406604203  79.1601103757428 46.8365068456596  79.1601103757428 46.8365068456596  C 79.1601103757428 46.8365068456596  75.3307506141612 47.965616659957  75.3307506141612 47.965616659957  C 75.3307506141612 47.965616659957  68.3217283618342 55.9400928239478  68.3217283618342 55.9400928239478  C 68.3217283618342 55.9400928239478  70.3121144924046 60.1935886997256  70.3121144924046 60.1935886997256  C 70.3121144924046 60.1935886997256  68.6245533609526 59.6456058544306  68.6245533609526 59.6456058544306  C 68.6245533609526 59.6456058544306  61.2906824732074 56.0041714631153  61.2906824732074 56.0041714631153  C 61.2906824732074 56.0041714631153  55.7352202166499 57.3476132773869  55.7352202166499 57.3476132773869  C 55.7352202166499 57.3476132773869  52.0903084090767 56.3731760403905  52.0903084090767 56.3731760403905  C 52.0903084090767 56.3731760403905  47.5286627405355 58.4038060195282  47.5286627405355 58.4038060195282  C 47.5286627405355 58.4038060195282  43.6359850245926 55.0385726591075  43.6359850245926 55.0385726591075  C 43.6359850245926 55.0385726591075  38.4618284429221 56.3311934836946  38.4618284429221 56.3311934836946  C 38.4618284429221 56.3311934836946  38.0268616260062 55.7566953394336  38.0268616260062 55.7566953394336  C 38.0268616260062 55.7566953394336  34.475550272706 51.0502297729885  34.475550272706 51.0502297729885  C 34.475550272706 51.0502297729885  28.7356400621397 50.466893195739  28.7356400621397 50.466893195739  C 28.7356400621397 50.466893195739  28.0061071097177 47.446358721875  28.0061071097177 47.446358721875  C 28.0061071097177 47.446358721875  22.7094225796793 46.3614410725209  22.7094225796793 46.3614410725209  C 22.7094225796793 46.3614410725209  21.5586875830286 48.8605080000557  21.5586875830286 48.8605080000557  C 21.5586875830286 48.8605080000557  17.3659378225047 46.8608125363784  17.3659378225047 46.8608125363784  C 17.3659378225047 46.8608125363784  17.847704866557 44.1849769490709  17.847704866557 44.1849769490709  C 17.847704866557 44.1849769490709  12.0775121560787 43.3342777739153  12.0775121560787 43.3342777739153  Z " stroke-width="2" stroke="#505050" fill="none" stroke-opacity="0.211764705882353" transform="matrix(1 0 0 1 1904 1634 )" mask="url(#clip547)" />
  </g>
</svg>