<?xml version="1.0" encoding="utf-8"?>
<svg version="1.1" xmlns:xlink="http://www.w3.org/1999/xlink" width="114px" height="87px" xmlns="http://www.w3.org/2000/svg">
  <defs>
    <mask fill="white" id="clip555">
      <path d="M 110.985471838598 71.5557426271536  C 110.985471838598 71.5557426271536  112.29587819842 79.91851388716  112.29587819842 79.91851388716  C 112.29587819842 79.91851388716  109.746642296749 85.9965303826274  109.746642296749 85.9965303826274  C 109.746642296749 85.9965303826274  104.242131170585 84.4019176899001  104.242131170585 84.4019176899001  C 104.242131170585 84.4019176899001  102.455463675786 77.5686300139589  102.455463675786 77.5686300139589  C 102.455463675786 77.5686300139589  104.013635943978 74.6126088562947  104.013635943978 74.6126088562947  C 104.013635943978 74.6126088562947  110.985471838598 71.5557426271536  110.985471838598 71.5557426271536  Z M 62.605048797594 4.61352361744797  C 62.605048797594 4.61352361744797  66.1976544689555 8.32588281118819  66.1976544689555 8.32588281118819  C 66.1976544689555 8.32588281118819  71.5851864987294 12.6475143117678  71.5851864987294 12.6475143117678  C 71.5851864987294 12.6475143117678  75.5466880781084 11.9373969334517  75.5466880781084 11.9373969334517  C 75.5466880781084 11.9373969334517  82.2996855584533 16.0825495589469  82.2996855584533 16.0825495589469  C 82.2996855584533 16.0825495589469  84.0257880534293 16.8683007408704  84.0257880534293 16.8683007408704  C 84.0257880534293 16.8683007408704  86.2529282742198 16.6771152928624  86.2529282742198 16.6771152928624  C 86.2529282742198 16.6771152928624  89.8950871272555 19.036469777622  89.8950871272555 19.036469777622  C 89.8950871272555 19.036469777622  101.017023458521 20.689908762044  101.017023458521 20.689908762044  C 101.017023458521 20.689908762044  97.1160868789657 26.7805308914461  97.1160868789657 26.7805308914461  C 97.1160868789657 26.7805308914461  96.1360350636364 33.0308243840198  96.1360350636364 33.0308243840198  C 96.1360350636364 33.0308243840198  94.0162600698061 34.5161882493137  94.0162600698061 34.5161882493137  C 94.0162600698061 34.5161882493137  90.4979841709553 33.7157304944665  90.4979841709553 33.7157304944665  C 90.4979841709553 33.7157304944665  90.745750079325 35.9217164330219  90.745750079325 35.9217164330219  C 90.745750079325 35.9217164330219  85.0994403230318 42.2864947143938  85.0994403230318 42.2864947143938  C 85.0994403230318 42.2864947143938  84.9865691869966 46.1480205763603  84.9865691869966 46.1480205763603  C 84.9865691869966 46.1480205763603  88.6727753126313 44.8160252572707  88.6727753126313 44.8160252572707  C 88.6727753126313 44.8160252572707  91.323870532188 48.5367882069675  91.323870532188 48.5367882069675  C 91.323870532188 48.5367882069675  91.0045278058449 50.9192530206074  91.0045278058449 50.9192530206074  C 91.0045278058449 50.9192530206074  93.2757152992342 54.0664596262798  93.2757152992342 54.0664596262798  C 93.2757152992342 54.0664596262798  90.5998434888409 56.6043939251131  90.5998434888409 56.6043939251131  C 90.5998434888409 56.6043939251131  92.5902296194113 62.9891475129892  92.5902296194113 62.9891475129892  C 92.5902296194113 62.9891475129892  96.774720516323 64.0270113736048  96.774720516323 64.0270113736048  C 96.774720516323 64.0270113736048  95.891022109804 67.5649926312499  95.891022109804 67.5649926312499  C 95.891022109804 67.5649926312499  88.8985175847015 72.1303330545651  88.8985175847015 72.1303330545651  C 88.8985175847015 72.1303330545651  73.6746789926481 69.9474574448898  73.6746789926481 69.9474574448898  C 73.6746789926481 69.9474574448898  62.4343656162728 72.5610255473307  62.4343656162728 72.5610255473307  C 62.4343656162728 72.5610255473307  61.5506672097538 77.3763777103488  61.5506672097538 77.3763777103488  C 61.5506672097538 77.3763777103488  52.6035649630676 78.405837815008  52.6035649630676 78.405837815008  C 52.6035649630676 78.405837815008  41.9179933974385 74.8006265097118  41.9179933974385 74.8006265097118  C 41.9179933974385 74.8006265097118  39.109979769248 76.5254974197632  39.109979769248 76.5254974197632  C 39.109979769248 76.5254974197632  24.9019814015103 72.8908729686195  24.9019814015103 72.8908729686195  C 24.9019814015103 72.8908729686195  21.8241782286502 69.7583729358709  21.8241782286502 69.7583729358709  C 21.8241782286502 69.7583729358709  25.8159623079409 64.886295420147  25.8159623079409 64.886295420147  C 25.8159623079409 64.886295420147  27.2860400309348 48.3371990030031  27.2860400309348 48.3371990030031  C 27.2860400309348 48.3371990030031  19.3189895995781 37.8524793640054  19.3189895995781 37.8524793640054  C 19.3189895995781 37.8524793640054  13.6258796161483 33.4699206327419  13.6258796161483 33.4699206327419  C 13.6258796161483 33.4699206327419  1.82946942320973 30.1105191891704  1.82946942320973 30.1105191891704  C 1.82946942320973 30.1105191891704  1.0503832891136 23.6690402485887  1.0503832891136 23.6690402485887  C 1.0503832891136 23.6690402485887  11.0601259872524 21.7298735616491  11.0601259872524 21.7298735616491  C 11.0601259872524 21.7298735616491  24.0210359495288 24.0219979987576  24.0210359495288 24.0219979987576  C 24.0210359495288 24.0219979987576  21.573659365743 13.8429485965661  21.573659365743 13.8429485965661  C 21.573659365743 13.8429485965661  28.8607300263516 17.7275847874128  28.8607300263516 17.7275847874128  C 28.8607300263516 17.7275847874128  46.8320172467725 10.639016638188  46.8320172467725 10.639016638188  C 46.8320172467725 10.639016638188  49.1500049672984 3.065131582481  49.1500049672984 3.065131582481  C 49.1500049672984 3.065131582481  57.900249493106 1.17848837026877  57.900249493106 1.17848837026877  C 57.900249493106 1.17848837026877  59.0179490353073 4.46015507124366  59.0179490353073 4.46015507124366  C 59.0179490353073 4.46015507124366  62.605048797594 4.61352361744797  62.605048797594 4.61352361744797  Z " fill-rule="evenodd" />
    </mask>
  </defs>
  <g transform="matrix(1 0 0 1 -1757 -1674 )">
    <path d="M 110.985471838598 71.5557426271536  C 110.985471838598 71.5557426271536  112.29587819842 79.91851388716  112.29587819842 79.91851388716  C 112.29587819842 79.91851388716  109.746642296749 85.9965303826274  109.746642296749 85.9965303826274  C 109.746642296749 85.9965303826274  104.242131170585 84.4019176899001  104.242131170585 84.4019176899001  C 104.242131170585 84.4019176899001  102.455463675786 77.5686300139589  102.455463675786 77.5686300139589  C 102.455463675786 77.5686300139589  104.013635943978 74.6126088562947  104.013635943978 74.6126088562947  C 104.013635943978 74.6126088562947  110.985471838598 71.5557426271536  110.985471838598 71.5557426271536  Z M 62.605048797594 4.61352361744797  C 62.605048797594 4.61352361744797  66.1976544689555 8.32588281118819  66.1976544689555 8.32588281118819  C 66.1976544689555 8.32588281118819  71.5851864987294 12.6475143117678  71.5851864987294 12.6475143117678  C 71.5851864987294 12.6475143117678  75.5466880781084 11.9373969334517  75.5466880781084 11.9373969334517  C 75.5466880781084 11.9373969334517  82.2996855584533 16.0825495589469  82.2996855584533 16.0825495589469  C 82.2996855584533 16.0825495589469  84.0257880534293 16.8683007408704  84.0257880534293 16.8683007408704  C 84.0257880534293 16.8683007408704  86.2529282742198 16.6771152928624  86.2529282742198 16.6771152928624  C 86.2529282742198 16.6771152928624  89.8950871272555 19.036469777622  89.8950871272555 19.036469777622  C 89.8950871272555 19.036469777622  101.017023458521 20.689908762044  101.017023458521 20.689908762044  C 101.017023458521 20.689908762044  97.1160868789657 26.7805308914461  97.1160868789657 26.7805308914461  C 97.1160868789657 26.7805308914461  96.1360350636364 33.0308243840198  96.1360350636364 33.0308243840198  C 96.1360350636364 33.0308243840198  94.0162600698061 34.5161882493137  94.0162600698061 34.5161882493137  C 94.0162600698061 34.5161882493137  90.4979841709553 33.7157304944665  90.4979841709553 33.7157304944665  C 90.4979841709553 33.7157304944665  90.745750079325 35.9217164330219  90.745750079325 35.9217164330219  C 90.745750079325 35.9217164330219  85.0994403230318 42.2864947143938  85.0994403230318 42.2864947143938  C 85.0994403230318 42.2864947143938  84.9865691869966 46.1480205763603  84.9865691869966 46.1480205763603  C 84.9865691869966 46.1480205763603  88.6727753126313 44.8160252572707  88.6727753126313 44.8160252572707  C 88.6727753126313 44.8160252572707  91.323870532188 48.5367882069675  91.323870532188 48.5367882069675  C 91.323870532188 48.5367882069675  91.0045278058449 50.9192530206074  91.0045278058449 50.9192530206074  C 91.0045278058449 50.9192530206074  93.2757152992342 54.0664596262798  93.2757152992342 54.0664596262798  C 93.2757152992342 54.0664596262798  90.5998434888409 56.6043939251131  90.5998434888409 56.6043939251131  C 90.5998434888409 56.6043939251131  92.5902296194113 62.9891475129892  92.5902296194113 62.9891475129892  C 92.5902296194113 62.9891475129892  96.774720516323 64.0270113736048  96.774720516323 64.0270113736048  C 96.774720516323 64.0270113736048  95.891022109804 67.5649926312499  95.891022109804 67.5649926312499  C 95.891022109804 67.5649926312499  88.8985175847015 72.1303330545651  88.8985175847015 72.1303330545651  C 88.8985175847015 72.1303330545651  73.6746789926481 69.9474574448898  73.6746789926481 69.9474574448898  C 73.6746789926481 69.9474574448898  62.4343656162728 72.5610255473307  62.4343656162728 72.5610255473307  C 62.4343656162728 72.5610255473307  61.5506672097538 77.3763777103488  61.5506672097538 77.3763777103488  C 61.5506672097538 77.3763777103488  52.6035649630676 78.405837815008  52.6035649630676 78.405837815008  C 52.6035649630676 78.405837815008  41.9179933974385 74.8006265097118  41.9179933974385 74.8006265097118  C 41.9179933974385 74.8006265097118  39.109979769248 76.5254974197632  39.109979769248 76.5254974197632  C 39.109979769248 76.5254974197632  24.9019814015103 72.8908729686195  24.9019814015103 72.8908729686195  C 24.9019814015103 72.8908729686195  21.8241782286502 69.7583729358709  21.8241782286502 69.7583729358709  C 21.8241782286502 69.7583729358709  25.8159623079409 64.886295420147  25.8159623079409 64.886295420147  C 25.8159623079409 64.886295420147  27.2860400309348 48.3371990030031  27.2860400309348 48.3371990030031  C 27.2860400309348 48.3371990030031  19.3189895995781 37.8524793640054  19.3189895995781 37.8524793640054  C 19.3189895995781 37.8524793640054  13.6258796161483 33.4699206327419  13.6258796161483 33.4699206327419  C 13.6258796161483 33.4699206327419  1.82946942320973 30.1105191891704  1.82946942320973 30.1105191891704  C 1.82946942320973 30.1105191891704  1.0503832891136 23.6690402485887  1.0503832891136 23.6690402485887  C 1.0503832891136 23.6690402485887  11.0601259872524 21.7298735616491  11.0601259872524 21.7298735616491  C 11.0601259872524 21.7298735616491  24.0210359495288 24.0219979987576  24.0210359495288 24.0219979987576  C 24.0210359495288 24.0219979987576  21.573659365743 13.8429485965661  21.573659365743 13.8429485965661  C 21.573659365743 13.8429485965661  28.8607300263516 17.7275847874128  28.8607300263516 17.7275847874128  C 28.8607300263516 17.7275847874128  46.8320172467725 10.639016638188  46.8320172467725 10.639016638188  C 46.8320172467725 10.639016638188  49.1500049672984 3.065131582481  49.1500049672984 3.065131582481  C 49.1500049672984 3.065131582481  57.900249493106 1.17848837026877  57.900249493106 1.17848837026877  C 57.900249493106 1.17848837026877  59.0179490353073 4.46015507124366  59.0179490353073 4.46015507124366  C 59.0179490353073 4.46015507124366  62.605048797594 4.61352361744797  62.605048797594 4.61352361744797  Z " fill-rule="nonzero" fill="#a29bfe" stroke="none" transform="matrix(1 0 0 1 1757 1674 )" />
    <path d="M 110.985471838598 71.5557426271536  C 110.985471838598 71.5557426271536  112.29587819842 79.91851388716  112.29587819842 79.91851388716  C 112.29587819842 79.91851388716  109.746642296749 85.9965303826274  109.746642296749 85.9965303826274  C 109.746642296749 85.9965303826274  104.242131170585 84.4019176899001  104.242131170585 84.4019176899001  C 104.242131170585 84.4019176899001  102.455463675786 77.5686300139589  102.455463675786 77.5686300139589  C 102.455463675786 77.5686300139589  104.013635943978 74.6126088562947  104.013635943978 74.6126088562947  C 104.013635943978 74.6126088562947  110.985471838598 71.5557426271536  110.985471838598 71.5557426271536  Z " stroke-width="2" stroke="#505050" fill="none" stroke-opacity="0.211764705882353" transform="matrix(1 0 0 1 1757 1674 )" mask="url(#clip555)" />
    <path d="M 62.605048797594 4.61352361744797  C 62.605048797594 4.61352361744797  66.1976544689555 8.32588281118819  66.1976544689555 8.32588281118819  C 66.1976544689555 8.32588281118819  71.5851864987294 12.6475143117678  71.5851864987294 12.6475143117678  C 71.5851864987294 12.6475143117678  75.5466880781084 11.9373969334517  75.5466880781084 11.9373969334517  C 75.5466880781084 11.9373969334517  82.2996855584533 16.0825495589469  82.2996855584533 16.0825495589469  C 82.2996855584533 16.0825495589469  84.0257880534293 16.8683007408704  84.0257880534293 16.8683007408704  C 84.0257880534293 16.8683007408704  86.2529282742198 16.6771152928624  86.2529282742198 16.6771152928624  C 86.2529282742198 16.6771152928624  89.8950871272555 19.036469777622  89.8950871272555 19.036469777622  C 89.8950871272555 19.036469777622  101.017023458521 20.689908762044  101.017023458521 20.689908762044  C 101.017023458521 20.689908762044  97.1160868789657 26.7805308914461  97.1160868789657 26.7805308914461  C 97.1160868789657 26.7805308914461  96.1360350636364 33.0308243840198  96.1360350636364 33.0308243840198  C 96.1360350636364 33.0308243840198  94.0162600698061 34.5161882493137  94.0162600698061 34.5161882493137  C 94.0162600698061 34.5161882493137  90.4979841709553 33.7157304944665  90.4979841709553 33.7157304944665  C 90.4979841709553 33.7157304944665  90.745750079325 35.9217164330219  90.745750079325 35.9217164330219  C 90.745750079325 35.9217164330219  85.0994403230318 42.2864947143938  85.0994403230318 42.2864947143938  C 85.0994403230318 42.2864947143938  84.9865691869966 46.1480205763603  84.9865691869966 46.1480205763603  C 84.9865691869966 46.1480205763603  88.6727753126313 44.8160252572707  88.6727753126313 44.8160252572707  C 88.6727753126313 44.8160252572707  91.323870532188 48.5367882069675  91.323870532188 48.5367882069675  C 91.323870532188 48.5367882069675  91.0045278058449 50.9192530206074  91.0045278058449 50.9192530206074  C 91.0045278058449 50.9192530206074  93.2757152992342 54.0664596262798  93.2757152992342 54.0664596262798  C 93.2757152992342 54.0664596262798  90.5998434888409 56.6043939251131  90.5998434888409 56.6043939251131  C 90.5998434888409 56.6043939251131  92.5902296194113 62.9891475129892  92.5902296194113 62.9891475129892  C 92.5902296194113 62.9891475129892  96.774720516323 64.0270113736048  96.774720516323 64.0270113736048  C 96.774720516323 64.0270113736048  95.891022109804 67.5649926312499  95.891022109804 67.5649926312499  C 95.891022109804 67.5649926312499  88.8985175847015 72.1303330545651  88.8985175847015 72.1303330545651  C 88.8985175847015 72.1303330545651  73.6746789926481 69.9474574448898  73.6746789926481 69.9474574448898  C 73.6746789926481 69.9474574448898  62.4343656162728 72.5610255473307  62.4343656162728 72.5610255473307  C 62.4343656162728 72.5610255473307  61.5506672097538 77.3763777103488  61.5506672097538 77.3763777103488  C 61.5506672097538 77.3763777103488  52.6035649630676 78.405837815008  52.6035649630676 78.405837815008  C 52.6035649630676 78.405837815008  41.9179933974385 74.8006265097118  41.9179933974385 74.8006265097118  C 41.9179933974385 74.8006265097118  39.109979769248 76.5254974197632  39.109979769248 76.5254974197632  C 39.109979769248 76.5254974197632  24.9019814015103 72.8908729686195  24.9019814015103 72.8908729686195  C 24.9019814015103 72.8908729686195  21.8241782286502 69.7583729358709  21.8241782286502 69.7583729358709  C 21.8241782286502 69.7583729358709  25.8159623079409 64.886295420147  25.8159623079409 64.886295420147  C 25.8159623079409 64.886295420147  27.2860400309348 48.3371990030031  27.2860400309348 48.3371990030031  C 27.2860400309348 48.3371990030031  19.3189895995781 37.8524793640054  19.3189895995781 37.8524793640054  C 19.3189895995781 37.8524793640054  13.6258796161483 33.4699206327419  13.6258796161483 33.4699206327419  C 13.6258796161483 33.4699206327419  1.82946942320973 30.1105191891704  1.82946942320973 30.1105191891704  C 1.82946942320973 30.1105191891704  1.0503832891136 23.6690402485887  1.0503832891136 23.6690402485887  C 1.0503832891136 23.6690402485887  11.0601259872524 21.7298735616491  11.0601259872524 21.7298735616491  C 11.0601259872524 21.7298735616491  24.0210359495288 24.0219979987576  24.0210359495288 24.0219979987576  C 24.0210359495288 24.0219979987576  21.573659365743 13.8429485965661  21.573659365743 13.8429485965661  C 21.573659365743 13.8429485965661  28.8607300263516 17.7275847874128  28.8607300263516 17.7275847874128  C 28.8607300263516 17.7275847874128  46.8320172467725 10.639016638188  46.8320172467725 10.639016638188  C 46.8320172467725 10.639016638188  49.1500049672984 3.065131582481  49.1500049672984 3.065131582481  C 49.1500049672984 3.065131582481  57.900249493106 1.17848837026877  57.900249493106 1.17848837026877  C 57.900249493106 1.17848837026877  59.0179490353073 4.46015507124366  59.0179490353073 4.46015507124366  C 59.0179490353073 4.46015507124366  62.605048797594 4.61352361744797  62.605048797594 4.61352361744797  Z " stroke-width="2" stroke="#505050" fill="none" stroke-opacity="0.211764705882353" transform="matrix(1 0 0 1 1757 1674 )" mask="url(#clip555)" />
  </g>
</svg>