<?xml version="1.0" encoding="utf-8"?>
<svg version="1.1" xmlns:xlink="http://www.w3.org/1999/xlink" width="94px" height="87px" xmlns="http://www.w3.org/2000/svg">
  <defs>
    <mask fill="white" id="clip559">
      <path d="M 64.439461263398 73.8411366961347  C 64.439461263398 73.8411366961347  70.3032544281493 73.178215411538  70.3032544281493 73.178215411538  C 70.3032544281493 73.178215411538  67.5227703453329 79.1295377826092  67.5227703453329 79.1295377826092  C 67.5227703453329 79.1295377826092  68.6762582965209 83.0076106187819  68.6762582965209 83.0076106187819  C 68.6762582965209 83.0076106187819  67.0575210285053 86.8461387021713  67.0575210285053 86.8461387021713  C 67.0575210285053 86.8461387021713  61.1524335456925 84.0383462935417  61.1524335456925 84.0383462935417  C 61.1524335456925 84.0383462935417  55.2267203752999 83.232148473242  55.2267203752999 83.232148473242  C 55.2267203752999 83.232148473242  44.4516563157526 77.8592950630921  44.4516563157526 77.8592950630921  C 44.4516563157526 77.8592950630921  45.5335674489672 73.9758594088107  45.5335674489672 73.9758594088107  C 45.5335674489672 73.9758594088107  54.5660112863138 74.6687190740019  54.5660112863138 74.6687190740019  C 54.5660112863138 74.6687190740019  64.439461263398 73.8411366961347  64.439461263398 73.8411366961347  Z M 15.7328345811586 52.4993482436408  C 15.7328345811586 52.4993482436408  21.5952297971896 50.044401034877  21.5952297971896 50.044401034877  C 21.5952297971896 50.044401034877  26.2256993291669 55.6514320291094  26.2256993291669 55.6514320291094  C 26.2256993291669 55.6514320291094  25.1410352414148 67.4931141034671  25.1410352414148 67.4931141034671  C 25.1410352414148 67.4931141034671  21.6310182061766 67.0055461909251  21.6310182061766 67.0055461909251  C 21.6310182061766 67.0055461909251  16.4816382153431 69.5738315547974  16.4816382153431 69.5738315547974  C 16.4816382153431 69.5738315547974  13.5580004965798 67.5337447628456  13.5580004965798 67.5337447628456  C 13.5580004965798 67.5337447628456  13.249669588386 56.6051832966256  13.249669588386 56.6051832966256  C 13.249669588386 56.6051832966256  11.4877786844233 52.1037339286397  11.4877786844233 52.1037339286397  C 11.4877786844233 52.1037339286397  15.7328345811586 52.4993482436408  15.7328345811586 52.4993482436408  Z M 42.307104731085 0.791488045113857  C 42.307104731085 0.791488045113857  44.0359601805988 3.83878749850116  44.0359601805988 3.83878749850116  C 44.0359601805988 3.83878749850116  57.0753078757411 6.08630449885895  57.0753078757411 6.08630449885895  C 57.0753078757411 6.08630449885895  56.2384096963588 10.3439699105738  56.2384096963588 10.3439699105738  C 56.2384096963588 10.3439699105738  58.0856421909825 13.9943138873681  58.0856421909825 13.9943138873681  C 58.0856421909825 13.9943138873681  51.9410476634123 12.7475941811753  51.9410476634123 12.7475941811753  C 51.9410476634123 12.7475941811753  43.6643113180446 15.7777859885082  43.6643113180446 15.7777859885082  C 43.6643113180446 15.7777859885082  44.0910192713482 19.9819900063041  44.0910192713482 19.9819900063041  C 44.0910192713482 19.9819900063041  43.1467558650054 22.3791989096353  43.1467558650054 22.3791989096353  C 43.1467558650054 22.3791989096353  45.6767210849146 26.6325874098367  45.6767210849146 26.6325874098367  C 45.6767210849146 26.6325874098367  54.9142385638493 30.8047145912811  54.9142385638493 30.8047145912811  C 54.9142385638493 30.8047145912811  58.7959044616423 37.5772039729491  58.7959044616423 37.5772039729491  C 58.7959044616423 37.5772039729491  67.3851226184609 45.6466500923772  67.3851226184609 45.6466500923772  C 67.3851226184609 45.6466500923772  73.4333637372208 45.5974656099715  73.4333637372208 45.5974656099715  C 73.4333637372208 45.5974656099715  75.3136316862935 47.370245432328  75.3136316862935 47.370245432328  C 75.3136316862935 47.370245432328  73.1470564653268 48.9633949711164  73.1470564653268 48.9633949711164  C 73.1470564653268 48.9633949711164  80.0597253088433 51.8396179639626  80.0597253088433 51.8396179639626  C 80.0597253088433 51.8396179639626  85.7280587014361 54.234688411537  85.7280587014361 54.234688411537  C 85.7280587014361 54.234688411537  92.3461614094463 58.338385008765  92.3461614094463 58.338385008765  C 92.3461614094463 58.338385008765  93.1472711798422 59.798950290634  93.1472711798422 59.798950290634  C 93.1472711798422 59.798950290634  91.7047230022224 62.5917735089663  91.7047230022224 62.5917735089663  C 91.7047230022224 62.5917735089663  87.4211257419629 58.9478448994424  87.4211257419629 58.9478448994424  C 87.4211257419629 58.9478448994424  80.7149284887544 57.6583560781143  80.7149284887544 57.6583560781143  C 80.7149284887544 57.6583560781143  77.4664421345731 62.7093885755883  77.4664421345731 62.7093885755883  C 77.4664421345731 62.7093885755883  83.0439280274302 65.5834731126776  83.0439280274302 65.5834731126776  C 83.0439280274302 65.5834731126776  82.127194166462 69.6016314796351  82.127194166462 69.6016314796351  C 82.127194166462 69.6016314796351  78.9034844031175 70.0571225558257  78.9034844031175 70.0571225558257  C 78.9034844031175 70.0571225558257  74.7795585060294 76.5943818042499  74.7795585060294 76.5943818042499  C 74.7795585060294 76.5943818042499  71.5641076062973 77.1760417700894  71.5641076062973 77.1760417700894  C 71.5641076062973 77.1760417700894  71.5943901062089 74.8579557297584  71.5943901062089 74.8579557297584  C 71.5943901062089 74.8579557297584  73.1690801016257 70.767089867071  73.1690801016257 70.767089867071  C 73.1690801016257 70.767089867071  74.845629414928 69.1290327573905  74.845629414928 69.1290327573905  C 74.845629414928 69.1290327573905  71.831144196429 64.6596602257562  71.831144196429 64.6596602257562  C 71.831144196429 64.6596602257562  69.4773680669161 60.7398708236096  69.4773680669161 60.7398708236096  C 69.4773680669161 60.7398708236096  66.2729289853339 59.7668734542826  66.2729289853339 59.7668734542826  C 66.2729289853339 59.7668734542826  63.993482628332 56.3816979913269  63.993482628332 56.3816979913269  C 63.993482628332 56.3816979913269  59.0326585518617 54.9489326342957  59.0326585518617 54.9489326342957  C 59.0326585518617 54.9489326342957  55.6933246979447 51.7690489239892  55.6933246979447 51.7690489239892  C 55.6933246979447 51.7690489239892  49.9809440327526 51.2536810866094  49.9809440327526 51.2536810866094  C 49.9809440327526 51.2536810866094  41.9492206412176 47.6546600479774  41.9492206412176 47.6546600479774  C 41.9492206412176 47.6546600479774  34.8878922526792 42.4197203554219  34.8878922526792 42.4197203554219  C 34.8878922526792 42.4197203554219  29.6407609043149 36.1872077310533  29.6407609043149 36.1872077310533  C 29.6407609043149 36.1872077310533  27.2319256840533 28.054660488084  27.2319256840533 28.054660488084  C 27.2319256840533 28.054660488084  23.3915541043218 27.0880784860272  23.3915541043218 27.0880784860272  C 23.3915541043218 27.0880784860272  17.1120648044168 24.3358859270734  17.1120648044168 24.3358859270734  C 17.1120648044168 24.3358859270734  13.5580004965793 25.4649905666443  13.5580004965793 25.4649905666443  C 13.5580004965793 25.4649905666443  9.09821414592352 29.318487840331  9.09821414592352 29.318487840331  C 9.09821414592352 29.318487840331  5.89102210980354 29.9258092752516  5.89102210980354 29.9258092752516  C 5.89102210980354 29.9258092752516  6.77472051632253 26.3246497808629  6.77472051632253 26.3246497808629  C 6.77472051632253 26.3246497808629  2.59022961941082 25.268252637022  2.59022961941082 25.268252637022  C 2.59022961941082 25.268252637022  0.599843488840406 18.7694855922195  0.599843488840406 18.7694855922195  C 0.599843488840406 18.7694855922195  3.27571529923398 16.1862310380499  3.27571529923398 16.1862310380499  C 3.27571529923398 16.1862310380499  1.00452780584442 12.9828243144191  1.00452780584442 12.9828243144191  C 1.00452780584442 12.9828243144191  1.32387053218758 10.5578154862499  1.32387053218758 10.5578154862499  C 1.32387053218758 10.5578154862499  4.64668665887984 12.3968874370661  4.64668665887984 12.3968874370661  C 4.64668665887984 12.3968874370661  8.36868119350129 11.9905808432811  8.36868119350129 11.9905808432811  C 8.36868119350129 11.9905808432811  12.6963257263599 9.07372719105653  12.6963257263599 9.07372719105653  C 12.6963257263599 9.07372719105653  14.0342616315568 10.440200419628  14.0342616315568 10.440200419628  C 14.0342616315568 10.440200419628  17.7094559390416 10.1664780827625  17.7094559390416 10.1664780827625  C 17.7094559390416 10.1664780827625  19.3804993432689 6.68079519923894  19.3804993432689 6.68079519923894  C 19.3804993432689 6.68079519923894  25.0928800084607 7.76713072367447  25.0928800084607 7.76713072367447  C 25.0928800084607 7.76713072367447  28.4927788622015 6.30442698604856  28.4927788622015 6.30442698604856  C 28.4927788622015 6.30442698604856  29.1039347695137 2.73320587225451  29.1039347695137 2.73320587225451  C 29.1039347695137 2.73320587225451  33.7812045286273 3.97564866693381  33.7812045286273 3.97564866693381  C 33.7812045286273 3.97564866693381  34.6786677078335 2.31406854392905  34.6786677078335 2.31406854392905  C 34.6786677078335 2.31406854392905  42.307104731085 0.791488045113857  42.307104731085 0.791488045113857  Z " fill-rule="evenodd" />
    </mask>
  </defs>
  <g transform="matrix(1 0 0 1 -1843 -1712 )">
    <path d="M 64.439461263398 73.8411366961347  C 64.439461263398 73.8411366961347  70.3032544281493 73.178215411538  70.3032544281493 73.178215411538  C 70.3032544281493 73.178215411538  67.5227703453329 79.1295377826092  67.5227703453329 79.1295377826092  C 67.5227703453329 79.1295377826092  68.6762582965209 83.0076106187819  68.6762582965209 83.0076106187819  C 68.6762582965209 83.0076106187819  67.0575210285053 86.8461387021713  67.0575210285053 86.8461387021713  C 67.0575210285053 86.8461387021713  61.1524335456925 84.0383462935417  61.1524335456925 84.0383462935417  C 61.1524335456925 84.0383462935417  55.2267203752999 83.232148473242  55.2267203752999 83.232148473242  C 55.2267203752999 83.232148473242  44.4516563157526 77.8592950630921  44.4516563157526 77.8592950630921  C 44.4516563157526 77.8592950630921  45.5335674489672 73.9758594088107  45.5335674489672 73.9758594088107  C 45.5335674489672 73.9758594088107  54.5660112863138 74.6687190740019  54.5660112863138 74.6687190740019  C 54.5660112863138 74.6687190740019  64.439461263398 73.8411366961347  64.439461263398 73.8411366961347  Z M 15.7328345811586 52.4993482436408  C 15.7328345811586 52.4993482436408  21.5952297971896 50.044401034877  21.5952297971896 50.044401034877  C 21.5952297971896 50.044401034877  26.2256993291669 55.6514320291094  26.2256993291669 55.6514320291094  C 26.2256993291669 55.6514320291094  25.1410352414148 67.4931141034671  25.1410352414148 67.4931141034671  C 25.1410352414148 67.4931141034671  21.6310182061766 67.0055461909251  21.6310182061766 67.0055461909251  C 21.6310182061766 67.0055461909251  16.4816382153431 69.5738315547974  16.4816382153431 69.5738315547974  C 16.4816382153431 69.5738315547974  13.5580004965798 67.5337447628456  13.5580004965798 67.5337447628456  C 13.5580004965798 67.5337447628456  13.249669588386 56.6051832966256  13.249669588386 56.6051832966256  C 13.249669588386 56.6051832966256  11.4877786844233 52.1037339286397  11.4877786844233 52.1037339286397  C 11.4877786844233 52.1037339286397  15.7328345811586 52.4993482436408  15.7328345811586 52.4993482436408  Z M 42.307104731085 0.791488045113857  C 42.307104731085 0.791488045113857  44.0359601805988 3.83878749850116  44.0359601805988 3.83878749850116  C 44.0359601805988 3.83878749850116  57.0753078757411 6.08630449885895  57.0753078757411 6.08630449885895  C 57.0753078757411 6.08630449885895  56.2384096963588 10.3439699105738  56.2384096963588 10.3439699105738  C 56.2384096963588 10.3439699105738  58.0856421909825 13.9943138873681  58.0856421909825 13.9943138873681  C 58.0856421909825 13.9943138873681  51.9410476634123 12.7475941811753  51.9410476634123 12.7475941811753  C 51.9410476634123 12.7475941811753  43.6643113180446 15.7777859885082  43.6643113180446 15.7777859885082  C 43.6643113180446 15.7777859885082  44.0910192713482 19.9819900063041  44.0910192713482 19.9819900063041  C 44.0910192713482 19.9819900063041  43.1467558650054 22.3791989096353  43.1467558650054 22.3791989096353  C 43.1467558650054 22.3791989096353  45.6767210849146 26.6325874098367  45.6767210849146 26.6325874098367  C 45.6767210849146 26.6325874098367  54.9142385638493 30.8047145912811  54.9142385638493 30.8047145912811  C 54.9142385638493 30.8047145912811  58.7959044616423 37.5772039729491  58.7959044616423 37.5772039729491  C 58.7959044616423 37.5772039729491  67.3851226184609 45.6466500923772  67.3851226184609 45.6466500923772  C 67.3851226184609 45.6466500923772  73.4333637372208 45.5974656099715  73.4333637372208 45.5974656099715  C 73.4333637372208 45.5974656099715  75.3136316862935 47.370245432328  75.3136316862935 47.370245432328  C 75.3136316862935 47.370245432328  73.1470564653268 48.9633949711164  73.1470564653268 48.9633949711164  C 73.1470564653268 48.9633949711164  80.0597253088433 51.8396179639626  80.0597253088433 51.8396179639626  C 80.0597253088433 51.8396179639626  85.7280587014361 54.234688411537  85.7280587014361 54.234688411537  C 85.7280587014361 54.234688411537  92.3461614094463 58.338385008765  92.3461614094463 58.338385008765  C 92.3461614094463 58.338385008765  93.1472711798422 59.798950290634  93.1472711798422 59.798950290634  C 93.1472711798422 59.798950290634  91.7047230022224 62.5917735089663  91.7047230022224 62.5917735089663  C 91.7047230022224 62.5917735089663  87.4211257419629 58.9478448994424  87.4211257419629 58.9478448994424  C 87.4211257419629 58.9478448994424  80.7149284887544 57.6583560781143  80.7149284887544 57.6583560781143  C 80.7149284887544 57.6583560781143  77.4664421345731 62.7093885755883  77.4664421345731 62.7093885755883  C 77.4664421345731 62.7093885755883  83.0439280274302 65.5834731126776  83.0439280274302 65.5834731126776  C 83.0439280274302 65.5834731126776  82.127194166462 69.6016314796351  82.127194166462 69.6016314796351  C 82.127194166462 69.6016314796351  78.9034844031175 70.0571225558257  78.9034844031175 70.0571225558257  C 78.9034844031175 70.0571225558257  74.7795585060294 76.5943818042499  74.7795585060294 76.5943818042499  C 74.7795585060294 76.5943818042499  71.5641076062973 77.1760417700894  71.5641076062973 77.1760417700894  C 71.5641076062973 77.1760417700894  71.5943901062089 74.8579557297584  71.5943901062089 74.8579557297584  C 71.5943901062089 74.8579557297584  73.1690801016257 70.767089867071  73.1690801016257 70.767089867071  C 73.1690801016257 70.767089867071  74.845629414928 69.1290327573905  74.845629414928 69.1290327573905  C 74.845629414928 69.1290327573905  71.831144196429 64.6596602257562  71.831144196429 64.6596602257562  C 71.831144196429 64.6596602257562  69.4773680669161 60.7398708236096  69.4773680669161 60.7398708236096  C 69.4773680669161 60.7398708236096  66.2729289853339 59.7668734542826  66.2729289853339 59.7668734542826  C 66.2729289853339 59.7668734542826  63.993482628332 56.3816979913269  63.993482628332 56.3816979913269  C 63.993482628332 56.3816979913269  59.0326585518617 54.9489326342957  59.0326585518617 54.9489326342957  C 59.0326585518617 54.9489326342957  55.6933246979447 51.7690489239892  55.6933246979447 51.7690489239892  C 55.6933246979447 51.7690489239892  49.9809440327526 51.2536810866094  49.9809440327526 51.2536810866094  C 49.9809440327526 51.2536810866094  41.9492206412176 47.6546600479774  41.9492206412176 47.6546600479774  C 41.9492206412176 47.6546600479774  34.8878922526792 42.4197203554219  34.8878922526792 42.4197203554219  C 34.8878922526792 42.4197203554219  29.6407609043149 36.1872077310533  29.6407609043149 36.1872077310533  C 29.6407609043149 36.1872077310533  27.2319256840533 28.054660488084  27.2319256840533 28.054660488084  C 27.2319256840533 28.054660488084  23.3915541043218 27.0880784860272  23.3915541043218 27.0880784860272  C 23.3915541043218 27.0880784860272  17.1120648044168 24.3358859270734  17.1120648044168 24.3358859270734  C 17.1120648044168 24.3358859270734  13.5580004965793 25.4649905666443  13.5580004965793 25.4649905666443  C 13.5580004965793 25.4649905666443  9.09821414592352 29.318487840331  9.09821414592352 29.318487840331  C 9.09821414592352 29.318487840331  5.89102210980354 29.9258092752516  5.89102210980354 29.9258092752516  C 5.89102210980354 29.9258092752516  6.77472051632253 26.3246497808629  6.77472051632253 26.3246497808629  C 6.77472051632253 26.3246497808629  2.59022961941082 25.268252637022  2.59022961941082 25.268252637022  C 2.59022961941082 25.268252637022  0.599843488840406 18.7694855922195  0.599843488840406 18.7694855922195  C 0.599843488840406 18.7694855922195  3.27571529923398 16.1862310380499  3.27571529923398 16.1862310380499  C 3.27571529923398 16.1862310380499  1.00452780584442 12.9828243144191  1.00452780584442 12.9828243144191  C 1.00452780584442 12.9828243144191  1.32387053218758 10.5578154862499  1.32387053218758 10.5578154862499  C 1.32387053218758 10.5578154862499  4.64668665887984 12.3968874370661  4.64668665887984 12.3968874370661  C 4.64668665887984 12.3968874370661  8.36868119350129 11.9905808432811  8.36868119350129 11.9905808432811  C 8.36868119350129 11.9905808432811  12.6963257263599 9.07372719105653  12.6963257263599 9.07372719105653  C 12.6963257263599 9.07372719105653  14.0342616315568 10.440200419628  14.0342616315568 10.440200419628  C 14.0342616315568 10.440200419628  17.7094559390416 10.1664780827625  17.7094559390416 10.1664780827625  C 17.7094559390416 10.1664780827625  19.3804993432689 6.68079519923894  19.3804993432689 6.68079519923894  C 19.3804993432689 6.68079519923894  25.0928800084607 7.76713072367447  25.0928800084607 7.76713072367447  C 25.0928800084607 7.76713072367447  28.4927788622015 6.30442698604856  28.4927788622015 6.30442698604856  C 28.4927788622015 6.30442698604856  29.1039347695137 2.73320587225451  29.1039347695137 2.73320587225451  C 29.1039347695137 2.73320587225451  33.7812045286273 3.97564866693381  33.7812045286273 3.97564866693381  C 33.7812045286273 3.97564866693381  34.6786677078335 2.31406854392905  34.6786677078335 2.31406854392905  C 34.6786677078335 2.31406854392905  42.307104731085 0.791488045113857  42.307104731085 0.791488045113857  Z " fill-rule="nonzero" fill="#a29bfe" stroke="none" transform="matrix(1 0 0 1 1843 1712 )" />
    <path d="M 64.439461263398 73.8411366961347  C 64.439461263398 73.8411366961347  70.3032544281493 73.178215411538  70.3032544281493 73.178215411538  C 70.3032544281493 73.178215411538  67.5227703453329 79.1295377826092  67.5227703453329 79.1295377826092  C 67.5227703453329 79.1295377826092  68.6762582965209 83.0076106187819  68.6762582965209 83.0076106187819  C 68.6762582965209 83.0076106187819  67.0575210285053 86.8461387021713  67.0575210285053 86.8461387021713  C 67.0575210285053 86.8461387021713  61.1524335456925 84.0383462935417  61.1524335456925 84.0383462935417  C 61.1524335456925 84.0383462935417  55.2267203752999 83.232148473242  55.2267203752999 83.232148473242  C 55.2267203752999 83.232148473242  44.4516563157526 77.8592950630921  44.4516563157526 77.8592950630921  C 44.4516563157526 77.8592950630921  45.5335674489672 73.9758594088107  45.5335674489672 73.9758594088107  C 45.5335674489672 73.9758594088107  54.5660112863138 74.6687190740019  54.5660112863138 74.6687190740019  C 54.5660112863138 74.6687190740019  64.439461263398 73.8411366961347  64.439461263398 73.8411366961347  Z " stroke-width="2" stroke="#505050" fill="none" stroke-opacity="0.211764705882353" transform="matrix(1 0 0 1 1843 1712 )" mask="url(#clip559)" />
    <path d="M 15.7328345811586 52.4993482436408  C 15.7328345811586 52.4993482436408  21.5952297971896 50.044401034877  21.5952297971896 50.044401034877  C 21.5952297971896 50.044401034877  26.2256993291669 55.6514320291094  26.2256993291669 55.6514320291094  C 26.2256993291669 55.6514320291094  25.1410352414148 67.4931141034671  25.1410352414148 67.4931141034671  C 25.1410352414148 67.4931141034671  21.6310182061766 67.0055461909251  21.6310182061766 67.0055461909251  C 21.6310182061766 67.0055461909251  16.4816382153431 69.5738315547974  16.4816382153431 69.5738315547974  C 16.4816382153431 69.5738315547974  13.5580004965798 67.5337447628456  13.5580004965798 67.5337447628456  C 13.5580004965798 67.5337447628456  13.249669588386 56.6051832966256  13.249669588386 56.6051832966256  C 13.249669588386 56.6051832966256  11.4877786844233 52.1037339286397  11.4877786844233 52.1037339286397  C 11.4877786844233 52.1037339286397  15.7328345811586 52.4993482436408  15.7328345811586 52.4993482436408  Z " stroke-width="2" stroke="#505050" fill="none" stroke-opacity="0.211764705882353" transform="matrix(1 0 0 1 1843 1712 )" mask="url(#clip559)" />
    <path d="M 42.307104731085 0.791488045113857  C 42.307104731085 0.791488045113857  44.0359601805988 3.83878749850116  44.0359601805988 3.83878749850116  C 44.0359601805988 3.83878749850116  57.0753078757411 6.08630449885895  57.0753078757411 6.08630449885895  C 57.0753078757411 6.08630449885895  56.2384096963588 10.3439699105738  56.2384096963588 10.3439699105738  C 56.2384096963588 10.3439699105738  58.0856421909825 13.9943138873681  58.0856421909825 13.9943138873681  C 58.0856421909825 13.9943138873681  51.9410476634123 12.7475941811753  51.9410476634123 12.7475941811753  C 51.9410476634123 12.7475941811753  43.6643113180446 15.7777859885082  43.6643113180446 15.7777859885082  C 43.6643113180446 15.7777859885082  44.0910192713482 19.9819900063041  44.0910192713482 19.9819900063041  C 44.0910192713482 19.9819900063041  43.1467558650054 22.3791989096353  43.1467558650054 22.3791989096353  C 43.1467558650054 22.3791989096353  45.6767210849146 26.6325874098367  45.6767210849146 26.6325874098367  C 45.6767210849146 26.6325874098367  54.9142385638493 30.8047145912811  54.9142385638493 30.8047145912811  C 54.9142385638493 30.8047145912811  58.7959044616423 37.5772039729491  58.7959044616423 37.5772039729491  C 58.7959044616423 37.5772039729491  67.3851226184609 45.6466500923772  67.3851226184609 45.6466500923772  C 67.3851226184609 45.6466500923772  73.4333637372208 45.5974656099715  73.4333637372208 45.5974656099715  C 73.4333637372208 45.5974656099715  75.3136316862935 47.370245432328  75.3136316862935 47.370245432328  C 75.3136316862935 47.370245432328  73.1470564653268 48.9633949711164  73.1470564653268 48.9633949711164  C 73.1470564653268 48.9633949711164  80.0597253088433 51.8396179639626  80.0597253088433 51.8396179639626  C 80.0597253088433 51.8396179639626  85.7280587014361 54.234688411537  85.7280587014361 54.234688411537  C 85.7280587014361 54.234688411537  92.3461614094463 58.338385008765  92.3461614094463 58.338385008765  C 92.3461614094463 58.338385008765  93.1472711798422 59.798950290634  93.1472711798422 59.798950290634  C 93.1472711798422 59.798950290634  91.7047230022224 62.5917735089663  91.7047230022224 62.5917735089663  C 91.7047230022224 62.5917735089663  87.4211257419629 58.9478448994424  87.4211257419629 58.9478448994424  C 87.4211257419629 58.9478448994424  80.7149284887544 57.6583560781143  80.7149284887544 57.6583560781143  C 80.7149284887544 57.6583560781143  77.4664421345731 62.7093885755883  77.4664421345731 62.7093885755883  C 77.4664421345731 62.7093885755883  83.0439280274302 65.5834731126776  83.0439280274302 65.5834731126776  C 83.0439280274302 65.5834731126776  82.127194166462 69.6016314796351  82.127194166462 69.6016314796351  C 82.127194166462 69.6016314796351  78.9034844031175 70.0571225558257  78.9034844031175 70.0571225558257  C 78.9034844031175 70.0571225558257  74.7795585060294 76.5943818042499  74.7795585060294 76.5943818042499  C 74.7795585060294 76.5943818042499  71.5641076062973 77.1760417700894  71.5641076062973 77.1760417700894  C 71.5641076062973 77.1760417700894  71.5943901062089 74.8579557297584  71.5943901062089 74.8579557297584  C 71.5943901062089 74.8579557297584  73.1690801016257 70.767089867071  73.1690801016257 70.767089867071  C 73.1690801016257 70.767089867071  74.845629414928 69.1290327573905  74.845629414928 69.1290327573905  C 74.845629414928 69.1290327573905  71.831144196429 64.6596602257562  71.831144196429 64.6596602257562  C 71.831144196429 64.6596602257562  69.4773680669161 60.7398708236096  69.4773680669161 60.7398708236096  C 69.4773680669161 60.7398708236096  66.2729289853339 59.7668734542826  66.2729289853339 59.7668734542826  C 66.2729289853339 59.7668734542826  63.993482628332 56.3816979913269  63.993482628332 56.3816979913269  C 63.993482628332 56.3816979913269  59.0326585518617 54.9489326342957  59.0326585518617 54.9489326342957  C 59.0326585518617 54.9489326342957  55.6933246979447 51.7690489239892  55.6933246979447 51.7690489239892  C 55.6933246979447 51.7690489239892  49.9809440327526 51.2536810866094  49.9809440327526 51.2536810866094  C 49.9809440327526 51.2536810866094  41.9492206412176 47.6546600479774  41.9492206412176 47.6546600479774  C 41.9492206412176 47.6546600479774  34.8878922526792 42.4197203554219  34.8878922526792 42.4197203554219  C 34.8878922526792 42.4197203554219  29.6407609043149 36.1872077310533  29.6407609043149 36.1872077310533  C 29.6407609043149 36.1872077310533  27.2319256840533 28.054660488084  27.2319256840533 28.054660488084  C 27.2319256840533 28.054660488084  23.3915541043218 27.0880784860272  23.3915541043218 27.0880784860272  C 23.3915541043218 27.0880784860272  17.1120648044168 24.3358859270734  17.1120648044168 24.3358859270734  C 17.1120648044168 24.3358859270734  13.5580004965793 25.4649905666443  13.5580004965793 25.4649905666443  C 13.5580004965793 25.4649905666443  9.09821414592352 29.318487840331  9.09821414592352 29.318487840331  C 9.09821414592352 29.318487840331  5.89102210980354 29.9258092752516  5.89102210980354 29.9258092752516  C 5.89102210980354 29.9258092752516  6.77472051632253 26.3246497808629  6.77472051632253 26.3246497808629  C 6.77472051632253 26.3246497808629  2.59022961941082 25.268252637022  2.59022961941082 25.268252637022  C 2.59022961941082 25.268252637022  0.599843488840406 18.7694855922195  0.599843488840406 18.7694855922195  C 0.599843488840406 18.7694855922195  3.27571529923398 16.1862310380499  3.27571529923398 16.1862310380499  C 3.27571529923398 16.1862310380499  1.00452780584442 12.9828243144191  1.00452780584442 12.9828243144191  C 1.00452780584442 12.9828243144191  1.32387053218758 10.5578154862499  1.32387053218758 10.5578154862499  C 1.32387053218758 10.5578154862499  4.64668665887984 12.3968874370661  4.64668665887984 12.3968874370661  C 4.64668665887984 12.3968874370661  8.36868119350129 11.9905808432811  8.36868119350129 11.9905808432811  C 8.36868119350129 11.9905808432811  12.6963257263599 9.07372719105653  12.6963257263599 9.07372719105653  C 12.6963257263599 9.07372719105653  14.0342616315568 10.440200419628  14.0342616315568 10.440200419628  C 14.0342616315568 10.440200419628  17.7094559390416 10.1664780827625  17.7094559390416 10.1664780827625  C 17.7094559390416 10.1664780827625  19.3804993432689 6.68079519923894  19.3804993432689 6.68079519923894  C 19.3804993432689 6.68079519923894  25.0928800084607 7.76713072367447  25.0928800084607 7.76713072367447  C 25.0928800084607 7.76713072367447  28.4927788622015 6.30442698604856  28.4927788622015 6.30442698604856  C 28.4927788622015 6.30442698604856  29.1039347695137 2.73320587225451  29.1039347695137 2.73320587225451  C 29.1039347695137 2.73320587225451  33.7812045286273 3.97564866693381  33.7812045286273 3.97564866693381  C 33.7812045286273 3.97564866693381  34.6786677078335 2.31406854392905  34.6786677078335 2.31406854392905  C 34.6786677078335 2.31406854392905  42.307104731085 0.791488045113857  42.307104731085 0.791488045113857  Z " stroke-width="2" stroke="#505050" fill="none" stroke-opacity="0.211764705882353" transform="matrix(1 0 0 1 1843 1712 )" mask="url(#clip559)" />
  </g>
</svg>