<?xml version="1.0" encoding="utf-8"?>
<svg version="1.1" xmlns:xlink="http://www.w3.org/1999/xlink" width="75px" height="77px" xmlns="http://www.w3.org/2000/svg">
  <defs>
    <mask fill="white" id="clip563">
      <path d="M 26.5019327627185 1.88778278951192  C 26.5019327627185 1.88778278951192  31.5074737493781 0.284973329891386  31.5074737493781 0.284973329891386  C 31.5074737493781 0.284973329891386  31.6469815806673 4.34066528237267  31.6469815806673 4.34066528237267  C 31.6469815806673 4.34066528237267  41.581312485171 6.76759134673762  41.581312485171 6.76759134673762  C 41.581312485171 6.76759134673762  41.4976077863973 10.4382629431967  41.4976077863973 10.4382629431967  C 41.4976077863973 10.4382629431967  49.4495541698866 8.50018294883756  49.4495541698866 8.50018294883756  C 49.4495541698866 8.50018294883756  53.8496311687508 5.65795402853858  53.8496311687508 5.65795402853858  C 53.8496311687508 5.65795402853858  62.6832670459884 9.75041758805576  62.6832670459884 9.75041758805576  C 62.6832670459884 9.75041758805576  66.374644261903 13.0230906142448  66.374644261903 13.0230906142448  C 66.374644261903 13.0230906142448  68.2049870084185 18.199235063465  68.2049870084185 18.199235063465  C 68.2049870084185 18.199235063465  66.0230845270539 20.8900514842047  66.0230845270539 20.8900514842047  C 66.0230845270539 20.8900514842047  68.8634639721038 24.4568973666803  68.8634639721038 24.4568973666803  C 68.8634639721038 24.4568973666803  70.7998326703991 29.754171815548  70.7998326703991 29.754171815548  C 70.7998326703991 29.754171815548  70.1887883693517 33.1349966271364  70.1887883693517 33.1349966271364  C 70.1887883693517 33.1349966271364  73.3946783323796 40.9013594662484  73.3946783323796 40.9013594662484  C 73.3946783323796 40.9013594662484  69.9041923935217 41.9050080347558  69.9041923935217 41.9050080347558  C 69.9041923935217 41.9050080347558  67.8422666470664 40.799696787973  67.8422666470664 40.799696787973  C 67.8422666470664 40.799696787973  65.8807865391388 42.6296249969326  65.8807865391388 42.6296249969326  C 65.8807865391388 42.6296249969326  60.2614110948062 44.4855096343879  60.2614110948062 44.4855096343879  C 60.2614110948062 44.4855096343879  57.3568580473635 46.860522841761  57.3568580473635 46.860522841761  C 57.3568580473635 46.860522841761  51.670518844012 48.9240589071835  51.670518844012 48.9240589071835  C 51.670518844012 48.9240589071835  53.0404857472729 51.7273531847387  53.0404857472729 51.7273531847387  C 53.0404857472729 51.7273531847387  53.8691622651312 55.6748933518205  53.8691622651312 55.6748933518205  C 53.8691622651312 55.6748933518205  57.8618763966304 57.9093092381742  57.8618763966304 57.9093092381742  C 57.8618763966304 57.9093092381742  62.2786943352496 61.880642798044  62.2786943352496 61.880642798044  C 62.2786943352496 61.880642798044  59.5192294323474 66.1007254643327  59.5192294323474 66.1007254643327  C 59.5192294323474 66.1007254643327  56.7095417101809 67.2557865323994  56.7095417101809 67.2557865323994  C 56.7095417101809 67.2557865323994  57.8172338906181 73.1392436581323  57.8172338906181 73.1392436581323  C 57.8172338906181 73.1392436581323  57.089003011288 74.6620207965573  57.089003011288 74.6620207965573  C 57.089003011288 74.6620207965573  54.6504061203512 72.8256034804737  54.6504061203512 72.8256034804737  C 54.6504061203512 72.8256034804737  50.8976454586696 72.550897945559  50.8976454586696 72.550897945559  C 50.8976454586696 72.550897945559  45.3061715805948 74.1601965123036  45.3061715805948 74.1601965123036  C 45.3061715805948 74.1601965123036  38.4061142450267 73.7773391919894  38.4061142450267 73.7773391919894  C 38.4061142450267 73.7773391919894  35.2658147243112 76.1372111494065  35.2658147243112 76.1372111494065  C 35.2658147243112 76.1372111494065  31.3065824723215 73.6540461566339  31.3065824723215 73.6540461566339  C 31.3065824723215 73.6540461566339  28.9461099669068 74.1472182980556  28.9461099669068 74.1472182980556  C 28.9461099669068 74.1472182980556  20.5616893064207 71.4023259846162  20.5616893064207 71.4023259846162  C 20.5616893064207 71.4023259846162  18.9545590899681 73.3555472289313  18.9545590899681 73.3555472289313  C 18.9545590899681 73.3555472289313  12.3000355374691 73.2928191933996  12.3000355374691 73.2928191933996  C 12.3000355374691 73.2928191933996  13.293331296249 66.8577879621291  13.293331296249 66.8577879621291  C 13.293331296249 66.8577879621291  17.2497733916131 60.584984408958  17.2497733916131 60.584984408958  C 17.2497733916131 60.584984408958  5.97754062343884 58.8848383424778  5.97754062343884 58.8848383424778  C 5.97754062343884 58.8848383424778  2.28616340752433 56.455749242405  2.28616340752433 56.455749242405  C 2.28616340752433 56.455749242405  2.72700815439856 52.3567965757637  2.72700815439856 52.3567965757637  C 2.72700815439856 52.3567965757637  1.16452044395847 50.2305324748095  1.16452044395847 50.2305324748095  C 1.16452044395847 50.2305324748095  2.0517902509582 43.8106424934951  2.0517902509582 43.8106424934951  C 2.0517902509582 43.8106424934951  0.73762648021314 32.0945764515932  0.73762648021314 32.0945764515932  C 0.73762648021314 32.0945764515932  5.43904039466208 32.0902503801772  5.43904039466208 32.0902503801772  C 5.43904039466208 32.0902503801772  7.42005159897011 28.3892962838062  7.42005159897011 28.3892962838062  C 7.42005159897011 28.3892962838062  9.37037108039424 19.2504704175482  9.37037108039424 19.2504704175482  C 9.37037108039424 19.2504704175482  7.90832900848256 15.8263848917999  7.90832900848256 15.8263848917999  C 7.90832900848256 15.8263848917999  9.4373348394131 13.6676752552258  9.4373348394131 13.6676752552258  C 9.4373348394131 13.6676752552258  15.9746718136291 13.1117750782724  15.9746718136291 13.1117750782724  C 15.9746718136291 13.1117750782724  17.4255532590375 15.361332214582  17.4255532590375 15.361332214582  C 17.4255532590375 15.361332214582  22.7380114745334 10.3149699078413  22.7380114745334 10.3149699078413  C 22.7380114745334 10.3149699078413  20.949521077405 6.43664688341505  20.949521077405 6.43664688341505  C 20.949521077405 6.43664688341505  20.5895908726785 0.499113864982348  20.5895908726785 0.499113864982348  C 20.5895908726785 0.499113864982348  26.5019327627185 1.88778278951192  26.5019327627185 1.88778278951192  Z " fill-rule="evenodd" />
    </mask>
  </defs>
  <g transform="matrix(1 0 0 1 -1839 -1634 )">
    <path d="M 26.5019327627185 1.88778278951192  C 26.5019327627185 1.88778278951192  31.5074737493781 0.284973329891386  31.5074737493781 0.284973329891386  C 31.5074737493781 0.284973329891386  31.6469815806673 4.34066528237267  31.6469815806673 4.34066528237267  C 31.6469815806673 4.34066528237267  41.581312485171 6.76759134673762  41.581312485171 6.76759134673762  C 41.581312485171 6.76759134673762  41.4976077863973 10.4382629431967  41.4976077863973 10.4382629431967  C 41.4976077863973 10.4382629431967  49.4495541698866 8.50018294883756  49.4495541698866 8.50018294883756  C 49.4495541698866 8.50018294883756  53.8496311687508 5.65795402853858  53.8496311687508 5.65795402853858  C 53.8496311687508 5.65795402853858  62.6832670459884 9.75041758805576  62.6832670459884 9.75041758805576  C 62.6832670459884 9.75041758805576  66.374644261903 13.0230906142448  66.374644261903 13.0230906142448  C 66.374644261903 13.0230906142448  68.2049870084185 18.199235063465  68.2049870084185 18.199235063465  C 68.2049870084185 18.199235063465  66.0230845270539 20.8900514842047  66.0230845270539 20.8900514842047  C 66.0230845270539 20.8900514842047  68.8634639721038 24.4568973666803  68.8634639721038 24.4568973666803  C 68.8634639721038 24.4568973666803  70.7998326703991 29.754171815548  70.7998326703991 29.754171815548  C 70.7998326703991 29.754171815548  70.1887883693517 33.1349966271364  70.1887883693517 33.1349966271364  C 70.1887883693517 33.1349966271364  73.3946783323796 40.9013594662484  73.3946783323796 40.9013594662484  C 73.3946783323796 40.9013594662484  69.9041923935217 41.9050080347558  69.9041923935217 41.9050080347558  C 69.9041923935217 41.9050080347558  67.8422666470664 40.799696787973  67.8422666470664 40.799696787973  C 67.8422666470664 40.799696787973  65.8807865391388 42.6296249969326  65.8807865391388 42.6296249969326  C 65.8807865391388 42.6296249969326  60.2614110948062 44.4855096343879  60.2614110948062 44.4855096343879  C 60.2614110948062 44.4855096343879  57.3568580473635 46.860522841761  57.3568580473635 46.860522841761  C 57.3568580473635 46.860522841761  51.670518844012 48.9240589071835  51.670518844012 48.9240589071835  C 51.670518844012 48.9240589071835  53.0404857472729 51.7273531847387  53.0404857472729 51.7273531847387  C 53.0404857472729 51.7273531847387  53.8691622651312 55.6748933518205  53.8691622651312 55.6748933518205  C 53.8691622651312 55.6748933518205  57.8618763966304 57.9093092381742  57.8618763966304 57.9093092381742  C 57.8618763966304 57.9093092381742  62.2786943352496 61.880642798044  62.2786943352496 61.880642798044  C 62.2786943352496 61.880642798044  59.5192294323474 66.1007254643327  59.5192294323474 66.1007254643327  C 59.5192294323474 66.1007254643327  56.7095417101809 67.2557865323994  56.7095417101809 67.2557865323994  C 56.7095417101809 67.2557865323994  57.8172338906181 73.1392436581323  57.8172338906181 73.1392436581323  C 57.8172338906181 73.1392436581323  57.089003011288 74.6620207965573  57.089003011288 74.6620207965573  C 57.089003011288 74.6620207965573  54.6504061203512 72.8256034804737  54.6504061203512 72.8256034804737  C 54.6504061203512 72.8256034804737  50.8976454586696 72.550897945559  50.8976454586696 72.550897945559  C 50.8976454586696 72.550897945559  45.3061715805948 74.1601965123036  45.3061715805948 74.1601965123036  C 45.3061715805948 74.1601965123036  38.4061142450267 73.7773391919894  38.4061142450267 73.7773391919894  C 38.4061142450267 73.7773391919894  35.2658147243112 76.1372111494065  35.2658147243112 76.1372111494065  C 35.2658147243112 76.1372111494065  31.3065824723215 73.6540461566339  31.3065824723215 73.6540461566339  C 31.3065824723215 73.6540461566339  28.9461099669068 74.1472182980556  28.9461099669068 74.1472182980556  C 28.9461099669068 74.1472182980556  20.5616893064207 71.4023259846162  20.5616893064207 71.4023259846162  C 20.5616893064207 71.4023259846162  18.9545590899681 73.3555472289313  18.9545590899681 73.3555472289313  C 18.9545590899681 73.3555472289313  12.3000355374691 73.2928191933996  12.3000355374691 73.2928191933996  C 12.3000355374691 73.2928191933996  13.293331296249 66.8577879621291  13.293331296249 66.8577879621291  C 13.293331296249 66.8577879621291  17.2497733916131 60.584984408958  17.2497733916131 60.584984408958  C 17.2497733916131 60.584984408958  5.97754062343884 58.8848383424778  5.97754062343884 58.8848383424778  C 5.97754062343884 58.8848383424778  2.28616340752433 56.455749242405  2.28616340752433 56.455749242405  C 2.28616340752433 56.455749242405  2.72700815439856 52.3567965757637  2.72700815439856 52.3567965757637  C 2.72700815439856 52.3567965757637  1.16452044395847 50.2305324748095  1.16452044395847 50.2305324748095  C 1.16452044395847 50.2305324748095  2.0517902509582 43.8106424934951  2.0517902509582 43.8106424934951  C 2.0517902509582 43.8106424934951  0.73762648021314 32.0945764515932  0.73762648021314 32.0945764515932  C 0.73762648021314 32.0945764515932  5.43904039466208 32.0902503801772  5.43904039466208 32.0902503801772  C 5.43904039466208 32.0902503801772  7.42005159897011 28.3892962838062  7.42005159897011 28.3892962838062  C 7.42005159897011 28.3892962838062  9.37037108039424 19.2504704175482  9.37037108039424 19.2504704175482  C 9.37037108039424 19.2504704175482  7.90832900848256 15.8263848917999  7.90832900848256 15.8263848917999  C 7.90832900848256 15.8263848917999  9.4373348394131 13.6676752552258  9.4373348394131 13.6676752552258  C 9.4373348394131 13.6676752552258  15.9746718136291 13.1117750782724  15.9746718136291 13.1117750782724  C 15.9746718136291 13.1117750782724  17.4255532590375 15.361332214582  17.4255532590375 15.361332214582  C 17.4255532590375 15.361332214582  22.7380114745334 10.3149699078413  22.7380114745334 10.3149699078413  C 22.7380114745334 10.3149699078413  20.949521077405 6.43664688341505  20.949521077405 6.43664688341505  C 20.949521077405 6.43664688341505  20.5895908726785 0.499113864982348  20.5895908726785 0.499113864982348  C 20.5895908726785 0.499113864982348  26.5019327627185 1.88778278951192  26.5019327627185 1.88778278951192  Z " fill-rule="nonzero" fill="#0984e3" stroke="none" transform="matrix(1 0 0 1 1839 1634 )" />
    <path d="M 26.5019327627185 1.88778278951192  C 26.5019327627185 1.88778278951192  31.5074737493781 0.284973329891386  31.5074737493781 0.284973329891386  C 31.5074737493781 0.284973329891386  31.6469815806673 4.34066528237267  31.6469815806673 4.34066528237267  C 31.6469815806673 4.34066528237267  41.581312485171 6.76759134673762  41.581312485171 6.76759134673762  C 41.581312485171 6.76759134673762  41.4976077863973 10.4382629431967  41.4976077863973 10.4382629431967  C 41.4976077863973 10.4382629431967  49.4495541698866 8.50018294883756  49.4495541698866 8.50018294883756  C 49.4495541698866 8.50018294883756  53.8496311687508 5.65795402853858  53.8496311687508 5.65795402853858  C 53.8496311687508 5.65795402853858  62.6832670459884 9.75041758805576  62.6832670459884 9.75041758805576  C 62.6832670459884 9.75041758805576  66.374644261903 13.0230906142448  66.374644261903 13.0230906142448  C 66.374644261903 13.0230906142448  68.2049870084185 18.199235063465  68.2049870084185 18.199235063465  C 68.2049870084185 18.199235063465  66.0230845270539 20.8900514842047  66.0230845270539 20.8900514842047  C 66.0230845270539 20.8900514842047  68.8634639721038 24.4568973666803  68.8634639721038 24.4568973666803  C 68.8634639721038 24.4568973666803  70.7998326703991 29.754171815548  70.7998326703991 29.754171815548  C 70.7998326703991 29.754171815548  70.1887883693517 33.1349966271364  70.1887883693517 33.1349966271364  C 70.1887883693517 33.1349966271364  73.3946783323796 40.9013594662484  73.3946783323796 40.9013594662484  C 73.3946783323796 40.9013594662484  69.9041923935217 41.9050080347558  69.9041923935217 41.9050080347558  C 69.9041923935217 41.9050080347558  67.8422666470664 40.799696787973  67.8422666470664 40.799696787973  C 67.8422666470664 40.799696787973  65.8807865391388 42.6296249969326  65.8807865391388 42.6296249969326  C 65.8807865391388 42.6296249969326  60.2614110948062 44.4855096343879  60.2614110948062 44.4855096343879  C 60.2614110948062 44.4855096343879  57.3568580473635 46.860522841761  57.3568580473635 46.860522841761  C 57.3568580473635 46.860522841761  51.670518844012 48.9240589071835  51.670518844012 48.9240589071835  C 51.670518844012 48.9240589071835  53.0404857472729 51.7273531847387  53.0404857472729 51.7273531847387  C 53.0404857472729 51.7273531847387  53.8691622651312 55.6748933518205  53.8691622651312 55.6748933518205  C 53.8691622651312 55.6748933518205  57.8618763966304 57.9093092381742  57.8618763966304 57.9093092381742  C 57.8618763966304 57.9093092381742  62.2786943352496 61.880642798044  62.2786943352496 61.880642798044  C 62.2786943352496 61.880642798044  59.5192294323474 66.1007254643327  59.5192294323474 66.1007254643327  C 59.5192294323474 66.1007254643327  56.7095417101809 67.2557865323994  56.7095417101809 67.2557865323994  C 56.7095417101809 67.2557865323994  57.8172338906181 73.1392436581323  57.8172338906181 73.1392436581323  C 57.8172338906181 73.1392436581323  57.089003011288 74.6620207965573  57.089003011288 74.6620207965573  C 57.089003011288 74.6620207965573  54.6504061203512 72.8256034804737  54.6504061203512 72.8256034804737  C 54.6504061203512 72.8256034804737  50.8976454586696 72.550897945559  50.8976454586696 72.550897945559  C 50.8976454586696 72.550897945559  45.3061715805948 74.1601965123036  45.3061715805948 74.1601965123036  C 45.3061715805948 74.1601965123036  38.4061142450267 73.7773391919894  38.4061142450267 73.7773391919894  C 38.4061142450267 73.7773391919894  35.2658147243112 76.1372111494065  35.2658147243112 76.1372111494065  C 35.2658147243112 76.1372111494065  31.3065824723215 73.6540461566339  31.3065824723215 73.6540461566339  C 31.3065824723215 73.6540461566339  28.9461099669068 74.1472182980556  28.9461099669068 74.1472182980556  C 28.9461099669068 74.1472182980556  20.5616893064207 71.4023259846162  20.5616893064207 71.4023259846162  C 20.5616893064207 71.4023259846162  18.9545590899681 73.3555472289313  18.9545590899681 73.3555472289313  C 18.9545590899681 73.3555472289313  12.3000355374691 73.2928191933996  12.3000355374691 73.2928191933996  C 12.3000355374691 73.2928191933996  13.293331296249 66.8577879621291  13.293331296249 66.8577879621291  C 13.293331296249 66.8577879621291  17.2497733916131 60.584984408958  17.2497733916131 60.584984408958  C 17.2497733916131 60.584984408958  5.97754062343884 58.8848383424778  5.97754062343884 58.8848383424778  C 5.97754062343884 58.8848383424778  2.28616340752433 56.455749242405  2.28616340752433 56.455749242405  C 2.28616340752433 56.455749242405  2.72700815439856 52.3567965757637  2.72700815439856 52.3567965757637  C 2.72700815439856 52.3567965757637  1.16452044395847 50.2305324748095  1.16452044395847 50.2305324748095  C 1.16452044395847 50.2305324748095  2.0517902509582 43.8106424934951  2.0517902509582 43.8106424934951  C 2.0517902509582 43.8106424934951  0.73762648021314 32.0945764515932  0.73762648021314 32.0945764515932  C 0.73762648021314 32.0945764515932  5.43904039466208 32.0902503801772  5.43904039466208 32.0902503801772  C 5.43904039466208 32.0902503801772  7.42005159897011 28.3892962838062  7.42005159897011 28.3892962838062  C 7.42005159897011 28.3892962838062  9.37037108039424 19.2504704175482  9.37037108039424 19.2504704175482  C 9.37037108039424 19.2504704175482  7.90832900848256 15.8263848917999  7.90832900848256 15.8263848917999  C 7.90832900848256 15.8263848917999  9.4373348394131 13.6676752552258  9.4373348394131 13.6676752552258  C 9.4373348394131 13.6676752552258  15.9746718136291 13.1117750782724  15.9746718136291 13.1117750782724  C 15.9746718136291 13.1117750782724  17.4255532590375 15.361332214582  17.4255532590375 15.361332214582  C 17.4255532590375 15.361332214582  22.7380114745334 10.3149699078413  22.7380114745334 10.3149699078413  C 22.7380114745334 10.3149699078413  20.949521077405 6.43664688341505  20.949521077405 6.43664688341505  C 20.949521077405 6.43664688341505  20.5895908726785 0.499113864982348  20.5895908726785 0.499113864982348  C 20.5895908726785 0.499113864982348  26.5019327627185 1.88778278951192  26.5019327627185 1.88778278951192  Z " stroke-width="2" stroke="#505050" fill="none" stroke-opacity="0.211764705882353" transform="matrix(1 0 0 1 1839 1634 )" mask="url(#clip563)" />
  </g>
</svg>