<?xml version="1.0" encoding="utf-8"?>
<svg version="1.1" xmlns:xlink="http://www.w3.org/1999/xlink" width="41px" height="26px" xmlns="http://www.w3.org/2000/svg">
  <defs>
    <mask fill="white" id="clip571">
      <path d="M 0.955849520109973 15.5561878406071  C 0.955849520109973 15.5561878406071  0.653919231216219 14.069916267393  0.653919231216219 14.069916267393  C 0.653919231216219 14.069916267393  2.06198665325443 12.2268296239207  2.06198665325443 12.2268296239207  C 2.06198665325443 12.2268296239207  2.35545160694552 15.5203994316204  2.35545160694552 15.5203994316204  C 2.35545160694552 15.5203994316204  8.54643341847182 14.5077979773485  8.54643341847182 14.5077979773485  C 8.54643341847182 14.5077979773485  15.0901375301078 14.6741088191102  15.0901375301078 14.6741088191102  C 15.0901375301078 14.6741088191102  21.9202301411952 14.8656820672159  21.9202301411952 14.8656820672159  C 21.9202301411952 14.8656820672159  27.3380446708812 8.97429480718433  27.3380446708812 8.97429480718433  C 27.3380446708812 8.97429480718433  33.2383833071167 4.81862896366473  33.2383833071167 4.81862896366473  C 33.2383833071167 4.81862896366473  38.2385746334723 0.80190635503499  38.2385746334723 0.80190635503499  C 38.2385746334723 0.80190635503499  39.7454042995413 3.02499811327021  39.7454042995413 3.02499811327021  C 39.7454042995413 3.02499811327021  40.8205018702754 8.15537180154661  40.8205018702754 8.15537180154661  C 40.8205018702754 8.15537180154661  36.7768934218174 8.18063420789028  36.7768934218174 8.18063420789028  C 36.7768934218174 8.18063420789028  36.1307061680166 13.9141314282742  36.1307061680166 13.9141314282742  C 36.1307061680166 13.9141314282742  37.5303082548521 14.8088416529426  37.5303082548521 14.8088416529426  C 37.5303082548521 14.8088416529426  33.9494714641381 16.0740671706506  33.9494714641381 16.0740671706506  C 33.9494714641381 16.0740671706506  33.9268972369308 18.6950418287973  33.9268972369308 18.6950418287973  C 33.9268972369308 18.6950418287973  31.6215042834135 21.3391736927595  31.6215042834135 21.3391736927595  C 31.6215042834135 21.3391736927595  31.4155144601493 23.9054131371618  31.4155144601493 23.9054131371618  C 31.4155144601493 23.9054131371618  29.8212096636535 25.248531074429  29.8212096636535 25.248531074429  C 29.8212096636535 25.248531074429  3.98926130105398 22.0402054687936  3.98926130105398 22.0402054687936  C 3.98926130105398 22.0402054687936  0.955849520109973 15.5561878406071  0.955849520109973 15.5561878406071  Z " fill-rule="evenodd" />
    </mask>
  </defs>
  <g transform="matrix(1 0 0 1 -2188 -1871 )">
    <path d="M 0.955849520109973 15.5561878406071  C 0.955849520109973 15.5561878406071  0.653919231216219 14.069916267393  0.653919231216219 14.069916267393  C 0.653919231216219 14.069916267393  2.06198665325443 12.2268296239207  2.06198665325443 12.2268296239207  C 2.06198665325443 12.2268296239207  2.35545160694552 15.5203994316204  2.35545160694552 15.5203994316204  C 2.35545160694552 15.5203994316204  8.54643341847182 14.5077979773485  8.54643341847182 14.5077979773485  C 8.54643341847182 14.5077979773485  15.0901375301078 14.6741088191102  15.0901375301078 14.6741088191102  C 15.0901375301078 14.6741088191102  21.9202301411952 14.8656820672159  21.9202301411952 14.8656820672159  C 21.9202301411952 14.8656820672159  27.3380446708812 8.97429480718433  27.3380446708812 8.97429480718433  C 27.3380446708812 8.97429480718433  33.2383833071167 4.81862896366473  33.2383833071167 4.81862896366473  C 33.2383833071167 4.81862896366473  38.2385746334723 0.80190635503499  38.2385746334723 0.80190635503499  C 38.2385746334723 0.80190635503499  39.7454042995413 3.02499811327021  39.7454042995413 3.02499811327021  C 39.7454042995413 3.02499811327021  40.8205018702754 8.15537180154661  40.8205018702754 8.15537180154661  C 40.8205018702754 8.15537180154661  36.7768934218174 8.18063420789028  36.7768934218174 8.18063420789028  C 36.7768934218174 8.18063420789028  36.1307061680166 13.9141314282742  36.1307061680166 13.9141314282742  C 36.1307061680166 13.9141314282742  37.5303082548521 14.8088416529426  37.5303082548521 14.8088416529426  C 37.5303082548521 14.8088416529426  33.9494714641381 16.0740671706506  33.9494714641381 16.0740671706506  C 33.9494714641381 16.0740671706506  33.9268972369308 18.6950418287973  33.9268972369308 18.6950418287973  C 33.9268972369308 18.6950418287973  31.6215042834135 21.3391736927595  31.6215042834135 21.3391736927595  C 31.6215042834135 21.3391736927595  31.4155144601493 23.9054131371618  31.4155144601493 23.9054131371618  C 31.4155144601493 23.9054131371618  29.8212096636535 25.248531074429  29.8212096636535 25.248531074429  C 29.8212096636535 25.248531074429  3.98926130105398 22.0402054687936  3.98926130105398 22.0402054687936  C 3.98926130105398 22.0402054687936  0.955849520109973 15.5561878406071  0.955849520109973 15.5561878406071  Z " fill-rule="nonzero" fill="#f2f2f2" stroke="none" transform="matrix(1 0 0 1 2188 1871 )" />
    <path d="M 0.955849520109973 15.5561878406071  C 0.955849520109973 15.5561878406071  0.653919231216219 14.069916267393  0.653919231216219 14.069916267393  C 0.653919231216219 14.069916267393  2.06198665325443 12.2268296239207  2.06198665325443 12.2268296239207  C 2.06198665325443 12.2268296239207  2.35545160694552 15.5203994316204  2.35545160694552 15.5203994316204  C 2.35545160694552 15.5203994316204  8.54643341847182 14.5077979773485  8.54643341847182 14.5077979773485  C 8.54643341847182 14.5077979773485  15.0901375301078 14.6741088191102  15.0901375301078 14.6741088191102  C 15.0901375301078 14.6741088191102  21.9202301411952 14.8656820672159  21.9202301411952 14.8656820672159  C 21.9202301411952 14.8656820672159  27.3380446708812 8.97429480718433  27.3380446708812 8.97429480718433  C 27.3380446708812 8.97429480718433  33.2383833071167 4.81862896366473  33.2383833071167 4.81862896366473  C 33.2383833071167 4.81862896366473  38.2385746334723 0.80190635503499  38.2385746334723 0.80190635503499  C 38.2385746334723 0.80190635503499  39.7454042995413 3.02499811327021  39.7454042995413 3.02499811327021  C 39.7454042995413 3.02499811327021  40.8205018702754 8.15537180154661  40.8205018702754 8.15537180154661  C 40.8205018702754 8.15537180154661  36.7768934218174 8.18063420789028  36.7768934218174 8.18063420789028  C 36.7768934218174 8.18063420789028  36.1307061680166 13.9141314282742  36.1307061680166 13.9141314282742  C 36.1307061680166 13.9141314282742  37.5303082548521 14.8088416529426  37.5303082548521 14.8088416529426  C 37.5303082548521 14.8088416529426  33.9494714641381 16.0740671706506  33.9494714641381 16.0740671706506  C 33.9494714641381 16.0740671706506  33.9268972369308 18.6950418287973  33.9268972369308 18.6950418287973  C 33.9268972369308 18.6950418287973  31.6215042834135 21.3391736927595  31.6215042834135 21.3391736927595  C 31.6215042834135 21.3391736927595  31.4155144601493 23.9054131371618  31.4155144601493 23.9054131371618  C 31.4155144601493 23.9054131371618  29.8212096636535 25.248531074429  29.8212096636535 25.248531074429  C 29.8212096636535 25.248531074429  3.98926130105398 22.0402054687936  3.98926130105398 22.0402054687936  C 3.98926130105398 22.0402054687936  0.955849520109973 15.5561878406071  0.955849520109973 15.5561878406071  Z " stroke-width="2" stroke="#505050" fill="none" stroke-opacity="0.211764705882353" transform="matrix(1 0 0 1 2188 1871 )" mask="url(#clip571)" />
  </g>
</svg>