<?xml version="1.0" encoding="utf-8"?>
<svg version="1.1" xmlns:xlink="http://www.w3.org/1999/xlink" width="119px" height="71px" xmlns="http://www.w3.org/2000/svg">
  <defs>
    <mask fill="white" id="clip572">
      <path d="M 3.86737921398805 32.1270110230887  C 3.86737921398805 32.1270110230887  7.04067258110031 22.9034815524596  7.04067258110031 22.9034815524596  C 7.04067258110031 22.9034815524596  14.978070425872 25.726789372525  14.978070425872 25.726789372525  C 14.978070425872 25.726789372525  20.8499124831262 24.7364598602559  20.8499124831262 24.7364598602559  C 20.8499124831262 24.7364598602559  22.4740390096011 21.3550058019159  22.4740390096011 21.3550058019159  C 22.4740390096011 21.3550058019159  28.6179569635983 20.227854449136  28.6179569635983 20.227854449136  C 28.6179569635983 20.227854449136  33.0044867274108 17.9431468901293  33.0044867274108 17.9431468901293  C 33.0044867274108 17.9431468901293  34.5592061373696 11.8947528294507  34.5592061373696 11.8947528294507  C 34.5592061373696 11.8947528294507  41.119566790463 10.4222892125243  41.119566790463 10.4222892125243  C 41.119566790463 10.4222892125243  42.3411320411451 7.70322660427659  42.3411320411451 7.70322660427659  C 42.3411320411451 7.70322660427659  46.0141566471726 9.74686711095482  46.0141566471726 9.74686711095482  C 46.0141566471726 9.74686711095482  48.3601171854135 9.98359061279097  48.3601171854135 9.98359061279097  C 48.3601171854135 9.98359061279097  52.6938975406733 10.0335414434538  52.6938975406733 10.0335414434538  C 52.6938975406733 10.0335414434538  58.5657395979285 11.642826900891  58.5657395979285 11.642826900891  C 58.5657395979285 11.642826900891  62.9619647046396 12.5701749310201  62.9619647046396 12.5701749310201  C 62.9619647046396 12.5701749310201  68.5950462810796 10.1247560037942  68.5950462810796 10.1247560037942  C 68.5950462810796 10.1247560037942  71.2214115700454 11.5950478454745  71.2214115700454 11.5950478454745  C 71.2214115700454 11.5950478454745  73.7311729032644 8.10066147433191  73.7311729032644 8.10066147433191  C 73.7311729032644 8.10066147433191  78.3842259944984 8.26137284255108  78.3842259944984 8.26137284255108  C 78.3842259944984 8.26137284255108  79.5808046832342 7.13639326501739  79.5808046832342 7.13639326501739  C 79.5808046832342 7.13639326501739  80.4053612274446 4.03509821343783  80.4053612274446 4.03509821343783  C 80.4053612274446 4.03509821343783  83.7563368128374 1.34644045863714  83.7563368128374 1.34644045863714  C 83.7563368128374 1.34644045863714  87.9707369276899 3.10557840806248  87.9707369276899 3.10557840806248  C 87.9707369276899 3.10557840806248  87.1239701061946 5.45978277494776  87.1239701061946 5.45978277494776  C 87.1239701061946 5.45978277494776  89.4782594984179 5.82681279155626  89.4782594984179 5.82681279155626  C 89.4782594984179 5.82681279155626  88.753649201991 12.2465804193358  88.753649201991 12.2465804193358  C 88.753649201991 12.2465804193358  91.8325488906408 14.7289195257471  91.8325488906408 14.7289195257471  C 91.8325488906408 14.7289195257471  94.5477552887476 13.1370082702794  94.5477552887476 13.1370082702794  C 94.5477552887476 13.1370082702794  98.0014534065843 12.3834022598466  98.0014534065843 12.3834022598466  C 98.0014534065843 12.3834022598466  102.851622708723 8.97154334805981  102.851622708723 8.97154334805981  C 102.851622708723 8.97154334805981  108.21262838842 9.53403313682675  108.21262838842 9.53403313682675  C 108.21262838842 9.53403313682675  116.241643626993 9.54706378830393  116.241643626993 9.54706378830393  C 116.241643626993 9.54706378830393  117.627009672653 11.7340414612315  117.627009672653 11.7340414612315  C 117.627009672653 11.7340414612315  113.096113106487 12.5853773577436  113.096113106487 12.5853773577436  C 113.096113106487 12.5853773577436  109.139907465074 13.9861723915453  109.139907465074 13.9861723915453  C 109.139907465074 13.9861723915453  100.205823427133 14.865741366258  100.205823427133 14.865741366258  C 100.205823427133 14.865741366258  91.8464303139442 16.4533090712331  91.8464303139442 16.4533090712331  C 91.8464303139442 16.4533090712331  87.3044286091361 19.7283461425091  87.3044286091361 19.7283461425091  C 87.3044286091361 19.7283461425091  89.1423290544803 22.8991380019671  89.1423290544803 22.8991380019671  C 89.1423290544803 22.8991380019671  90.0335164305463 26.5998430214991  90.0335164305463 26.5998430214991  C 90.0335164305463 26.5998430214991  86.155046759631 29.705481623571  86.155046759631 29.705481623571  C 86.155046759631 29.705481623571  86.4798720649257 32.5331329941288  86.4798720649257 32.5331329941288  C 86.4798720649257 32.5331329941288  84.3393565915722 36.7474459207983  84.3393565915722 36.7474459207983  C 84.3393565915722 36.7474459207983  76.9350054016435 36.519409519947  76.9350054016435 36.519409519947  C 76.9350054016435 36.519409519947  79.9944710976694 41.338578791274  79.9944710976694 41.338578791274  C 79.9944710976694 41.338578791274  75.0415792630871 43.1715570990703  75.0415792630871 43.1715570990703  C 75.0415792630871 43.1715570990703  71.7350242322641 47.5237946924635  71.7350242322641 47.5237946924635  C 71.7350242322641 47.5237946924635  72.1625720700027 51.8239096799477  72.1625720700027 51.8239096799477  C 72.1625720700027 51.8239096799477  69.1225403666012 53.8306300074404  69.1225403666012 53.8306300074404  C 69.1225403666012 53.8306300074404  66.2435331735172 53.1660667821018  66.2435331735172 53.1660667821018  C 66.2435331735172 53.1660667821018  58.2770059932216 54.0955865874772  58.2770059932216 54.0955865874772  C 58.2770059932216 54.0955865874772  57.4246866024054 56.0805891625078  57.4246866024054 56.0805891625078  C 57.4246866024054 56.0805891625078  51.6278042309873 56.0697302862768  51.6278042309873 56.0697302862768  C 51.6278042309873 56.0697302862768  47.291247591067 60.072312065031  47.291247591067 60.072312065031  C 47.291247591067 60.072312065031  47.0163954096635 66.0446939920923  47.0163954096635 66.0446939920923  C 47.0163954096635 66.0446939920923  36.90239039095 68.944013945775  36.90239039095 68.944013945775  C 36.90239039095 68.944013945775  31.4803064487193 68.3315733263454  31.4803064487193 68.3315733263454  C 31.4803064487193 68.3315733263454  29.9033767614751 69.8561595491807  29.9033767614751 69.8561595491807  C 29.9033767614751 69.8561595491807  25.2503236702416 68.9700752487296  25.2503236702416 68.9700752487296  C 25.2503236702416 68.9700752487296  17.4656214818056 70.0103555916615  17.4656214818056 70.0103555916615  C 17.4656214818056 70.0103555916615  4.42263614611642 66.4551595136253  4.42263614611642 66.4551595136253  C 4.42263614611642 66.4551595136253  11.4827280381255 60.0918580422469  11.4827280381255 60.0918580422469  C 11.4827280381255 60.0918580422469  10.8441825661781 55.539817126203  10.8441825661781 55.539817126203  C 10.8441825661781 55.539817126203  4.94735394697749 54.3409971902982  4.94735394697749 54.3409971902982  C 4.94735394697749 54.3409971902982  4.33657132163642 49.8128458019627  4.33657132163642 49.8128458019627  C 4.33657132163642 49.8128458019627  1.78794200316817 44.0706720509989  1.78794200316817 44.0706720509989  C 1.78794200316817 44.0706720509989  5.11948359593705 40.1028386761839  5.11948359593705 40.1028386761839  C 5.11948359593705 40.1028386761839  1.72964002529498 39.0278099293127  1.72964002529498 39.0278099293127  C 1.72964002529498 39.0278099293127  3.86737921398805 32.1270110230887  3.86737921398805 32.1270110230887  Z " fill-rule="evenodd" />
    </mask>
  </defs>
  <g transform="matrix(1 0 0 1 -2259 -1781 )">
    <path d="M 3.86737921398805 32.1270110230887  C 3.86737921398805 32.1270110230887  7.04067258110031 22.9034815524596  7.04067258110031 22.9034815524596  C 7.04067258110031 22.9034815524596  14.978070425872 25.726789372525  14.978070425872 25.726789372525  C 14.978070425872 25.726789372525  20.8499124831262 24.7364598602559  20.8499124831262 24.7364598602559  C 20.8499124831262 24.7364598602559  22.4740390096011 21.3550058019159  22.4740390096011 21.3550058019159  C 22.4740390096011 21.3550058019159  28.6179569635983 20.227854449136  28.6179569635983 20.227854449136  C 28.6179569635983 20.227854449136  33.0044867274108 17.9431468901293  33.0044867274108 17.9431468901293  C 33.0044867274108 17.9431468901293  34.5592061373696 11.8947528294507  34.5592061373696 11.8947528294507  C 34.5592061373696 11.8947528294507  41.119566790463 10.4222892125243  41.119566790463 10.4222892125243  C 41.119566790463 10.4222892125243  42.3411320411451 7.70322660427659  42.3411320411451 7.70322660427659  C 42.3411320411451 7.70322660427659  46.0141566471726 9.74686711095482  46.0141566471726 9.74686711095482  C 46.0141566471726 9.74686711095482  48.3601171854135 9.98359061279097  48.3601171854135 9.98359061279097  C 48.3601171854135 9.98359061279097  52.6938975406733 10.0335414434538  52.6938975406733 10.0335414434538  C 52.6938975406733 10.0335414434538  58.5657395979285 11.642826900891  58.5657395979285 11.642826900891  C 58.5657395979285 11.642826900891  62.9619647046396 12.5701749310201  62.9619647046396 12.5701749310201  C 62.9619647046396 12.5701749310201  68.5950462810796 10.1247560037942  68.5950462810796 10.1247560037942  C 68.5950462810796 10.1247560037942  71.2214115700454 11.5950478454745  71.2214115700454 11.5950478454745  C 71.2214115700454 11.5950478454745  73.7311729032644 8.10066147433191  73.7311729032644 8.10066147433191  C 73.7311729032644 8.10066147433191  78.3842259944984 8.26137284255108  78.3842259944984 8.26137284255108  C 78.3842259944984 8.26137284255108  79.5808046832342 7.13639326501739  79.5808046832342 7.13639326501739  C 79.5808046832342 7.13639326501739  80.4053612274446 4.03509821343783  80.4053612274446 4.03509821343783  C 80.4053612274446 4.03509821343783  83.7563368128374 1.34644045863714  83.7563368128374 1.34644045863714  C 83.7563368128374 1.34644045863714  87.9707369276899 3.10557840806248  87.9707369276899 3.10557840806248  C 87.9707369276899 3.10557840806248  87.1239701061946 5.45978277494776  87.1239701061946 5.45978277494776  C 87.1239701061946 5.45978277494776  89.4782594984179 5.82681279155626  89.4782594984179 5.82681279155626  C 89.4782594984179 5.82681279155626  88.753649201991 12.2465804193358  88.753649201991 12.2465804193358  C 88.753649201991 12.2465804193358  91.8325488906408 14.7289195257471  91.8325488906408 14.7289195257471  C 91.8325488906408 14.7289195257471  94.5477552887476 13.1370082702794  94.5477552887476 13.1370082702794  C 94.5477552887476 13.1370082702794  98.0014534065843 12.3834022598466  98.0014534065843 12.3834022598466  C 98.0014534065843 12.3834022598466  102.851622708723 8.97154334805981  102.851622708723 8.97154334805981  C 102.851622708723 8.97154334805981  108.21262838842 9.53403313682675  108.21262838842 9.53403313682675  C 108.21262838842 9.53403313682675  116.241643626993 9.54706378830393  116.241643626993 9.54706378830393  C 116.241643626993 9.54706378830393  117.627009672653 11.7340414612315  117.627009672653 11.7340414612315  C 117.627009672653 11.7340414612315  113.096113106487 12.5853773577436  113.096113106487 12.5853773577436  C 113.096113106487 12.5853773577436  109.139907465074 13.9861723915453  109.139907465074 13.9861723915453  C 109.139907465074 13.9861723915453  100.205823427133 14.865741366258  100.205823427133 14.865741366258  C 100.205823427133 14.865741366258  91.8464303139442 16.4533090712331  91.8464303139442 16.4533090712331  C 91.8464303139442 16.4533090712331  87.3044286091361 19.7283461425091  87.3044286091361 19.7283461425091  C 87.3044286091361 19.7283461425091  89.1423290544803 22.8991380019671  89.1423290544803 22.8991380019671  C 89.1423290544803 22.8991380019671  90.0335164305463 26.5998430214991  90.0335164305463 26.5998430214991  C 90.0335164305463 26.5998430214991  86.155046759631 29.705481623571  86.155046759631 29.705481623571  C 86.155046759631 29.705481623571  86.4798720649257 32.5331329941288  86.4798720649257 32.5331329941288  C 86.4798720649257 32.5331329941288  84.3393565915722 36.7474459207983  84.3393565915722 36.7474459207983  C 84.3393565915722 36.7474459207983  76.9350054016435 36.519409519947  76.9350054016435 36.519409519947  C 76.9350054016435 36.519409519947  79.9944710976694 41.338578791274  79.9944710976694 41.338578791274  C 79.9944710976694 41.338578791274  75.0415792630871 43.1715570990703  75.0415792630871 43.1715570990703  C 75.0415792630871 43.1715570990703  71.7350242322641 47.5237946924635  71.7350242322641 47.5237946924635  C 71.7350242322641 47.5237946924635  72.1625720700027 51.8239096799477  72.1625720700027 51.8239096799477  C 72.1625720700027 51.8239096799477  69.1225403666012 53.8306300074404  69.1225403666012 53.8306300074404  C 69.1225403666012 53.8306300074404  66.2435331735172 53.1660667821018  66.2435331735172 53.1660667821018  C 66.2435331735172 53.1660667821018  58.2770059932216 54.0955865874772  58.2770059932216 54.0955865874772  C 58.2770059932216 54.0955865874772  57.4246866024054 56.0805891625078  57.4246866024054 56.0805891625078  C 57.4246866024054 56.0805891625078  51.6278042309873 56.0697302862768  51.6278042309873 56.0697302862768  C 51.6278042309873 56.0697302862768  47.291247591067 60.072312065031  47.291247591067 60.072312065031  C 47.291247591067 60.072312065031  47.0163954096635 66.0446939920923  47.0163954096635 66.0446939920923  C 47.0163954096635 66.0446939920923  36.90239039095 68.944013945775  36.90239039095 68.944013945775  C 36.90239039095 68.944013945775  31.4803064487193 68.3315733263454  31.4803064487193 68.3315733263454  C 31.4803064487193 68.3315733263454  29.9033767614751 69.8561595491807  29.9033767614751 69.8561595491807  C 29.9033767614751 69.8561595491807  25.2503236702416 68.9700752487296  25.2503236702416 68.9700752487296  C 25.2503236702416 68.9700752487296  17.4656214818056 70.0103555916615  17.4656214818056 70.0103555916615  C 17.4656214818056 70.0103555916615  4.42263614611642 66.4551595136253  4.42263614611642 66.4551595136253  C 4.42263614611642 66.4551595136253  11.4827280381255 60.0918580422469  11.4827280381255 60.0918580422469  C 11.4827280381255 60.0918580422469  10.8441825661781 55.539817126203  10.8441825661781 55.539817126203  C 10.8441825661781 55.539817126203  4.94735394697749 54.3409971902982  4.94735394697749 54.3409971902982  C 4.94735394697749 54.3409971902982  4.33657132163642 49.8128458019627  4.33657132163642 49.8128458019627  C 4.33657132163642 49.8128458019627  1.78794200316817 44.0706720509989  1.78794200316817 44.0706720509989  C 1.78794200316817 44.0706720509989  5.11948359593705 40.1028386761839  5.11948359593705 40.1028386761839  C 5.11948359593705 40.1028386761839  1.72964002529498 39.0278099293127  1.72964002529498 39.0278099293127  C 1.72964002529498 39.0278099293127  3.86737921398805 32.1270110230887  3.86737921398805 32.1270110230887  Z " fill-rule="nonzero" fill="#f2f2f2" stroke="none" transform="matrix(1 0 0 1 2259 1781 )" />
    <path d="M 3.86737921398805 32.1270110230887  C 3.86737921398805 32.1270110230887  7.04067258110031 22.9034815524596  7.04067258110031 22.9034815524596  C 7.04067258110031 22.9034815524596  14.978070425872 25.726789372525  14.978070425872 25.726789372525  C 14.978070425872 25.726789372525  20.8499124831262 24.7364598602559  20.8499124831262 24.7364598602559  C 20.8499124831262 24.7364598602559  22.4740390096011 21.3550058019159  22.4740390096011 21.3550058019159  C 22.4740390096011 21.3550058019159  28.6179569635983 20.227854449136  28.6179569635983 20.227854449136  C 28.6179569635983 20.227854449136  33.0044867274108 17.9431468901293  33.0044867274108 17.9431468901293  C 33.0044867274108 17.9431468901293  34.5592061373696 11.8947528294507  34.5592061373696 11.8947528294507  C 34.5592061373696 11.8947528294507  41.119566790463 10.4222892125243  41.119566790463 10.4222892125243  C 41.119566790463 10.4222892125243  42.3411320411451 7.70322660427659  42.3411320411451 7.70322660427659  C 42.3411320411451 7.70322660427659  46.0141566471726 9.74686711095482  46.0141566471726 9.74686711095482  C 46.0141566471726 9.74686711095482  48.3601171854135 9.98359061279097  48.3601171854135 9.98359061279097  C 48.3601171854135 9.98359061279097  52.6938975406733 10.0335414434538  52.6938975406733 10.0335414434538  C 52.6938975406733 10.0335414434538  58.5657395979285 11.642826900891  58.5657395979285 11.642826900891  C 58.5657395979285 11.642826900891  62.9619647046396 12.5701749310201  62.9619647046396 12.5701749310201  C 62.9619647046396 12.5701749310201  68.5950462810796 10.1247560037942  68.5950462810796 10.1247560037942  C 68.5950462810796 10.1247560037942  71.2214115700454 11.5950478454745  71.2214115700454 11.5950478454745  C 71.2214115700454 11.5950478454745  73.7311729032644 8.10066147433191  73.7311729032644 8.10066147433191  C 73.7311729032644 8.10066147433191  78.3842259944984 8.26137284255108  78.3842259944984 8.26137284255108  C 78.3842259944984 8.26137284255108  79.5808046832342 7.13639326501739  79.5808046832342 7.13639326501739  C 79.5808046832342 7.13639326501739  80.4053612274446 4.03509821343783  80.4053612274446 4.03509821343783  C 80.4053612274446 4.03509821343783  83.7563368128374 1.34644045863714  83.7563368128374 1.34644045863714  C 83.7563368128374 1.34644045863714  87.9707369276899 3.10557840806248  87.9707369276899 3.10557840806248  C 87.9707369276899 3.10557840806248  87.1239701061946 5.45978277494776  87.1239701061946 5.45978277494776  C 87.1239701061946 5.45978277494776  89.4782594984179 5.82681279155626  89.4782594984179 5.82681279155626  C 89.4782594984179 5.82681279155626  88.753649201991 12.2465804193358  88.753649201991 12.2465804193358  C 88.753649201991 12.2465804193358  91.8325488906408 14.7289195257471  91.8325488906408 14.7289195257471  C 91.8325488906408 14.7289195257471  94.5477552887476 13.1370082702794  94.5477552887476 13.1370082702794  C 94.5477552887476 13.1370082702794  98.0014534065843 12.3834022598466  98.0014534065843 12.3834022598466  C 98.0014534065843 12.3834022598466  102.851622708723 8.97154334805981  102.851622708723 8.97154334805981  C 102.851622708723 8.97154334805981  108.21262838842 9.53403313682675  108.21262838842 9.53403313682675  C 108.21262838842 9.53403313682675  116.241643626993 9.54706378830393  116.241643626993 9.54706378830393  C 116.241643626993 9.54706378830393  117.627009672653 11.7340414612315  117.627009672653 11.7340414612315  C 117.627009672653 11.7340414612315  113.096113106487 12.5853773577436  113.096113106487 12.5853773577436  C 113.096113106487 12.5853773577436  109.139907465074 13.9861723915453  109.139907465074 13.9861723915453  C 109.139907465074 13.9861723915453  100.205823427133 14.865741366258  100.205823427133 14.865741366258  C 100.205823427133 14.865741366258  91.8464303139442 16.4533090712331  91.8464303139442 16.4533090712331  C 91.8464303139442 16.4533090712331  87.3044286091361 19.7283461425091  87.3044286091361 19.7283461425091  C 87.3044286091361 19.7283461425091  89.1423290544803 22.8991380019671  89.1423290544803 22.8991380019671  C 89.1423290544803 22.8991380019671  90.0335164305463 26.5998430214991  90.0335164305463 26.5998430214991  C 90.0335164305463 26.5998430214991  86.155046759631 29.705481623571  86.155046759631 29.705481623571  C 86.155046759631 29.705481623571  86.4798720649257 32.5331329941288  86.4798720649257 32.5331329941288  C 86.4798720649257 32.5331329941288  84.3393565915722 36.7474459207983  84.3393565915722 36.7474459207983  C 84.3393565915722 36.7474459207983  76.9350054016435 36.519409519947  76.9350054016435 36.519409519947  C 76.9350054016435 36.519409519947  79.9944710976694 41.338578791274  79.9944710976694 41.338578791274  C 79.9944710976694 41.338578791274  75.0415792630871 43.1715570990703  75.0415792630871 43.1715570990703  C 75.0415792630871 43.1715570990703  71.7350242322641 47.5237946924635  71.7350242322641 47.5237946924635  C 71.7350242322641 47.5237946924635  72.1625720700027 51.8239096799477  72.1625720700027 51.8239096799477  C 72.1625720700027 51.8239096799477  69.1225403666012 53.8306300074404  69.1225403666012 53.8306300074404  C 69.1225403666012 53.8306300074404  66.2435331735172 53.1660667821018  66.2435331735172 53.1660667821018  C 66.2435331735172 53.1660667821018  58.2770059932216 54.0955865874772  58.2770059932216 54.0955865874772  C 58.2770059932216 54.0955865874772  57.4246866024054 56.0805891625078  57.4246866024054 56.0805891625078  C 57.4246866024054 56.0805891625078  51.6278042309873 56.0697302862768  51.6278042309873 56.0697302862768  C 51.6278042309873 56.0697302862768  47.291247591067 60.072312065031  47.291247591067 60.072312065031  C 47.291247591067 60.072312065031  47.0163954096635 66.0446939920923  47.0163954096635 66.0446939920923  C 47.0163954096635 66.0446939920923  36.90239039095 68.944013945775  36.90239039095 68.944013945775  C 36.90239039095 68.944013945775  31.4803064487193 68.3315733263454  31.4803064487193 68.3315733263454  C 31.4803064487193 68.3315733263454  29.9033767614751 69.8561595491807  29.9033767614751 69.8561595491807  C 29.9033767614751 69.8561595491807  25.2503236702416 68.9700752487296  25.2503236702416 68.9700752487296  C 25.2503236702416 68.9700752487296  17.4656214818056 70.0103555916615  17.4656214818056 70.0103555916615  C 17.4656214818056 70.0103555916615  4.42263614611642 66.4551595136253  4.42263614611642 66.4551595136253  C 4.42263614611642 66.4551595136253  11.4827280381255 60.0918580422469  11.4827280381255 60.0918580422469  C 11.4827280381255 60.0918580422469  10.8441825661781 55.539817126203  10.8441825661781 55.539817126203  C 10.8441825661781 55.539817126203  4.94735394697749 54.3409971902982  4.94735394697749 54.3409971902982  C 4.94735394697749 54.3409971902982  4.33657132163642 49.8128458019627  4.33657132163642 49.8128458019627  C 4.33657132163642 49.8128458019627  1.78794200316817 44.0706720509989  1.78794200316817 44.0706720509989  C 1.78794200316817 44.0706720509989  5.11948359593705 40.1028386761839  5.11948359593705 40.1028386761839  C 5.11948359593705 40.1028386761839  1.72964002529498 39.0278099293127  1.72964002529498 39.0278099293127  C 1.72964002529498 39.0278099293127  3.86737921398805 32.1270110230887  3.86737921398805 32.1270110230887  Z " stroke-width="2" stroke="#505050" fill="none" stroke-opacity="0.211764705882353" transform="matrix(1 0 0 1 2259 1781 )" mask="url(#clip572)" />
  </g>
</svg>