<?xml version="1.0" encoding="utf-8"?>
<svg version="1.1" xmlns:xlink="http://www.w3.org/1999/xlink" width="18px" height="28px" xmlns="http://www.w3.org/2000/svg">
  <defs>
    <mask fill="white" id="clip573">
      <path d="M 12.9161947703094 4.6984245230754  C 12.9161947703094 4.6984245230754  13.4365031778859 7.61900340346376  13.4365031778859 7.61900340346376  C 13.4365031778859 7.61900340346376  12.4564513625564 10.3447342793688  12.4564513625564 10.3447342793688  C 12.4564513625564 10.3447342793688  13.5521272684584 15.3133416936772  13.5521272684584 15.3133416936772  C 13.5521272684584 15.3133416936772  16.7538133955034 17.242551056749  16.7538133955034 17.242551056749  C 16.7538133955034 17.242551056749  16.5996479414066 19.3152199396052  16.5996479414066 19.3152199396052  C 16.5996479414066 19.3152199396052  14.0917063577967 20.4543313504312  14.0917063577967 20.4543313504312  C 14.0917063577967 20.4543313504312  13.6264570409692 23.0023437167525  13.6264570409692 23.0023437167525  C 13.6264570409692 23.0023437167525  8.03660432414472 26.7815385289852  8.03660432414472 26.7815385289852  C 8.03660432414472 26.7815385289852  6.72619796432241 26.2376770659216  6.72619796432241 26.2376770659216  C 6.72619796432241 26.2376770659216  6.57203251022565 24.5247275759579  6.57203251022565 24.5247275759579  C 6.57203251022565 24.5247275759579  2.29669411357827 21.9017736694507  2.29669411357827 21.9017736694507  C 2.29669411357827 21.9017736694507  1.62497320644275 18.1546966601548  1.62497320644275 18.1546966601548  C 1.62497320644275 18.1546966601548  2.27742343181649 11.1862207163135  2.27742343181649 11.1862207163135  C 2.27742343181649 11.1862207163135  3.33180501965671 8.70458514272834  3.33180501965671 8.70458514272834  C 3.33180501965671 8.70458514272834  2.02965752344653 7.43914370701754  2.02965752344653 7.43914370701754  C 2.02965752344653 7.43914370701754  1.51210207040754 4.87828421952161  1.51210207040754 4.87828421952161  C 1.51210207040754 4.87828421952161  4.85969478793686 0.884970721043437  4.85969478793686 0.884970721043437  C 4.85969478793686 0.884970721043437  5.34972069560149 2.41591932769856  5.34972069560149 2.41591932769856  C 5.34972069560149 2.41591932769856  7.42544841683275 1.69648054191379  7.42544841683275 1.69648054191379  C 7.42544841683275 1.69648054191379  11.0689622756859 3.87192639416783  11.0689622756859 3.87192639416783  C 11.0689622756859 3.87192639416783  12.9161947703094 4.6984245230754  12.9161947703094 4.6984245230754  Z " fill-rule="evenodd" />
    </mask>
  </defs>
  <g transform="matrix(1 0 0 1 -1939 -1751 )">
    <path d="M 12.9161947703094 4.6984245230754  C 12.9161947703094 4.6984245230754  13.4365031778859 7.61900340346376  13.4365031778859 7.61900340346376  C 13.4365031778859 7.61900340346376  12.4564513625564 10.3447342793688  12.4564513625564 10.3447342793688  C 12.4564513625564 10.3447342793688  13.5521272684584 15.3133416936772  13.5521272684584 15.3133416936772  C 13.5521272684584 15.3133416936772  16.7538133955034 17.242551056749  16.7538133955034 17.242551056749  C 16.7538133955034 17.242551056749  16.5996479414066 19.3152199396052  16.5996479414066 19.3152199396052  C 16.5996479414066 19.3152199396052  14.0917063577967 20.4543313504312  14.0917063577967 20.4543313504312  C 14.0917063577967 20.4543313504312  13.6264570409692 23.0023437167525  13.6264570409692 23.0023437167525  C 13.6264570409692 23.0023437167525  8.03660432414472 26.7815385289852  8.03660432414472 26.7815385289852  C 8.03660432414472 26.7815385289852  6.72619796432241 26.2376770659216  6.72619796432241 26.2376770659216  C 6.72619796432241 26.2376770659216  6.57203251022565 24.5247275759579  6.57203251022565 24.5247275759579  C 6.57203251022565 24.5247275759579  2.29669411357827 21.9017736694507  2.29669411357827 21.9017736694507  C 2.29669411357827 21.9017736694507  1.62497320644275 18.1546966601548  1.62497320644275 18.1546966601548  C 1.62497320644275 18.1546966601548  2.27742343181649 11.1862207163135  2.27742343181649 11.1862207163135  C 2.27742343181649 11.1862207163135  3.33180501965671 8.70458514272834  3.33180501965671 8.70458514272834  C 3.33180501965671 8.70458514272834  2.02965752344653 7.43914370701754  2.02965752344653 7.43914370701754  C 2.02965752344653 7.43914370701754  1.51210207040754 4.87828421952161  1.51210207040754 4.87828421952161  C 1.51210207040754 4.87828421952161  4.85969478793686 0.884970721043437  4.85969478793686 0.884970721043437  C 4.85969478793686 0.884970721043437  5.34972069560149 2.41591932769856  5.34972069560149 2.41591932769856  C 5.34972069560149 2.41591932769856  7.42544841683275 1.69648054191379  7.42544841683275 1.69648054191379  C 7.42544841683275 1.69648054191379  11.0689622756859 3.87192639416783  11.0689622756859 3.87192639416783  C 11.0689622756859 3.87192639416783  12.9161947703094 4.6984245230754  12.9161947703094 4.6984245230754  Z " fill-rule="nonzero" fill="#f2f2f2" stroke="none" transform="matrix(1 0 0 1 1939 1751 )" />
    <path d="M 12.9161947703094 4.6984245230754  C 12.9161947703094 4.6984245230754  13.4365031778859 7.61900340346376  13.4365031778859 7.61900340346376  C 13.4365031778859 7.61900340346376  12.4564513625564 10.3447342793688  12.4564513625564 10.3447342793688  C 12.4564513625564 10.3447342793688  13.5521272684584 15.3133416936772  13.5521272684584 15.3133416936772  C 13.5521272684584 15.3133416936772  16.7538133955034 17.242551056749  16.7538133955034 17.242551056749  C 16.7538133955034 17.242551056749  16.5996479414066 19.3152199396052  16.5996479414066 19.3152199396052  C 16.5996479414066 19.3152199396052  14.0917063577967 20.4543313504312  14.0917063577967 20.4543313504312  C 14.0917063577967 20.4543313504312  13.6264570409692 23.0023437167525  13.6264570409692 23.0023437167525  C 13.6264570409692 23.0023437167525  8.03660432414472 26.7815385289852  8.03660432414472 26.7815385289852  C 8.03660432414472 26.7815385289852  6.72619796432241 26.2376770659216  6.72619796432241 26.2376770659216  C 6.72619796432241 26.2376770659216  6.57203251022565 24.5247275759579  6.57203251022565 24.5247275759579  C 6.57203251022565 24.5247275759579  2.29669411357827 21.9017736694507  2.29669411357827 21.9017736694507  C 2.29669411357827 21.9017736694507  1.62497320644275 18.1546966601548  1.62497320644275 18.1546966601548  C 1.62497320644275 18.1546966601548  2.27742343181649 11.1862207163135  2.27742343181649 11.1862207163135  C 2.27742343181649 11.1862207163135  3.33180501965671 8.70458514272834  3.33180501965671 8.70458514272834  C 3.33180501965671 8.70458514272834  2.02965752344653 7.43914370701754  2.02965752344653 7.43914370701754  C 2.02965752344653 7.43914370701754  1.51210207040754 4.87828421952161  1.51210207040754 4.87828421952161  C 1.51210207040754 4.87828421952161  4.85969478793686 0.884970721043437  4.85969478793686 0.884970721043437  C 4.85969478793686 0.884970721043437  5.34972069560149 2.41591932769856  5.34972069560149 2.41591932769856  C 5.34972069560149 2.41591932769856  7.42544841683275 1.69648054191379  7.42544841683275 1.69648054191379  C 7.42544841683275 1.69648054191379  11.0689622756859 3.87192639416783  11.0689622756859 3.87192639416783  C 11.0689622756859 3.87192639416783  12.9161947703094 4.6984245230754  12.9161947703094 4.6984245230754  Z " stroke-width="2" stroke="#505050" fill="none" stroke-opacity="0.211764705882353" transform="matrix(1 0 0 1 1939 1751 )" mask="url(#clip573)" />
  </g>
</svg>