<?xml version="1.0" encoding="utf-8"?>
<svg version="1.1" xmlns:xlink="http://www.w3.org/1999/xlink" width="26px" height="21px" xmlns="http://www.w3.org/2000/svg">
  <defs>
    <mask fill="white" id="clip574">
      <path d="M 2.2243826575118 3.90720827322988  C 2.2243826575118 3.90720827322988  0.913976297689715 1.22101288332098  0.913976297689715 1.22101288332098  C 0.913976297689715 1.22101288332098  11.6394871755633 0.025542375436828  11.6394871755633 0.025542375436828  C 11.6394871755633 0.025542375436828  15.2389537618174 2.03657566503813  15.2389537618174 2.03657566503813  C 15.2389537618174 2.03657566503813  18.1791092078051 3.35799384301023  18.1791092078051 3.35799384301023  C 18.1791092078051 3.35799384301023  16.6264428486879 5.2657913374575  16.6264428486879 5.2657913374575  C 16.6264428486879 5.2657913374575  20.7366039730887 7.86320394353388  20.7366039730887 7.86320394353388  C 20.7366039730887 7.86320394353388  18.5617698885094 11.7624038229144  18.5617698885094 11.7624038229144  C 18.5617698885094 11.7624038229144  21.8377857880655 13.802343135159  21.8377857880655 13.802343135159  C 21.8377857880655 13.802343135159  25.3037555507049 15.0267196656862  25.3037555507049 15.0267196656862  C 25.3037555507049 15.0267196656862  25.4744387320261 20.1802505597775  25.4744387320261 20.1802505597775  C 25.4744387320261 20.1802505597775  22.6801898765229 20.3991104455041  22.6801898765229 20.3991104455041  C 22.6801898765229 20.3991104455041  19.5280569311517 16.1045013670947  19.5280569311517 16.1045013670947  C 19.5280569311517 16.1045013670947  19.5638453401384 14.9544546090785  19.5638453401384 14.9544546090785  C 19.5638453401384 14.9544546090785  16.1529346682478 14.970972336303  16.1529346682478 14.970972336303  C 16.1529346682478 14.970972336303  11.867982402171 12.9620037626048  11.867982402171 12.9620037626048  C 11.867982402171 12.9620037626048  10.2630099068424 13.1664106370098  10.2630099068424 13.1664106370098  C 10.2630099068424 13.1664106370098  7.22099514296906 10.9716176320343  7.22099514296906 10.9716176320343  C 7.22099514296906 10.9716176320343  1.48108493240261 7.59685559203638  1.48108493240261 7.59685559203638  C 1.48108493240261 7.59685559203638  2.2243826575118 3.90720827322988  2.2243826575118 3.90720827322988  Z " fill-rule="evenodd" />
    </mask>
  </defs>
  <g transform="matrix(1 0 0 1 -2126 -1761 )">
    <path d="M 2.2243826575118 3.90720827322988  C 2.2243826575118 3.90720827322988  0.913976297689715 1.22101288332098  0.913976297689715 1.22101288332098  C 0.913976297689715 1.22101288332098  11.6394871755633 0.025542375436828  11.6394871755633 0.025542375436828  C 11.6394871755633 0.025542375436828  15.2389537618174 2.03657566503813  15.2389537618174 2.03657566503813  C 15.2389537618174 2.03657566503813  18.1791092078051 3.35799384301023  18.1791092078051 3.35799384301023  C 18.1791092078051 3.35799384301023  16.6264428486879 5.2657913374575  16.6264428486879 5.2657913374575  C 16.6264428486879 5.2657913374575  20.7366039730887 7.86320394353388  20.7366039730887 7.86320394353388  C 20.7366039730887 7.86320394353388  18.5617698885094 11.7624038229144  18.5617698885094 11.7624038229144  C 18.5617698885094 11.7624038229144  21.8377857880655 13.802343135159  21.8377857880655 13.802343135159  C 21.8377857880655 13.802343135159  25.3037555507049 15.0267196656862  25.3037555507049 15.0267196656862  C 25.3037555507049 15.0267196656862  25.4744387320261 20.1802505597775  25.4744387320261 20.1802505597775  C 25.4744387320261 20.1802505597775  22.6801898765229 20.3991104455041  22.6801898765229 20.3991104455041  C 22.6801898765229 20.3991104455041  19.5280569311517 16.1045013670947  19.5280569311517 16.1045013670947  C 19.5280569311517 16.1045013670947  19.5638453401384 14.9544546090785  19.5638453401384 14.9544546090785  C 19.5638453401384 14.9544546090785  16.1529346682478 14.970972336303  16.1529346682478 14.970972336303  C 16.1529346682478 14.970972336303  11.867982402171 12.9620037626048  11.867982402171 12.9620037626048  C 11.867982402171 12.9620037626048  10.2630099068424 13.1664106370098  10.2630099068424 13.1664106370098  C 10.2630099068424 13.1664106370098  7.22099514296906 10.9716176320343  7.22099514296906 10.9716176320343  C 7.22099514296906 10.9716176320343  1.48108493240261 7.59685559203638  1.48108493240261 7.59685559203638  C 1.48108493240261 7.59685559203638  2.2243826575118 3.90720827322988  2.2243826575118 3.90720827322988  Z " fill-rule="nonzero" fill="#f2f2f2" stroke="none" transform="matrix(1 0 0 1 2126 1761 )" />
    <path d="M 2.2243826575118 3.90720827322988  C 2.2243826575118 3.90720827322988  0.913976297689715 1.22101288332098  0.913976297689715 1.22101288332098  C 0.913976297689715 1.22101288332098  11.6394871755633 0.025542375436828  11.6394871755633 0.025542375436828  C 11.6394871755633 0.025542375436828  15.2389537618174 2.03657566503813  15.2389537618174 2.03657566503813  C 15.2389537618174 2.03657566503813  18.1791092078051 3.35799384301023  18.1791092078051 3.35799384301023  C 18.1791092078051 3.35799384301023  16.6264428486879 5.2657913374575  16.6264428486879 5.2657913374575  C 16.6264428486879 5.2657913374575  20.7366039730887 7.86320394353388  20.7366039730887 7.86320394353388  C 20.7366039730887 7.86320394353388  18.5617698885094 11.7624038229144  18.5617698885094 11.7624038229144  C 18.5617698885094 11.7624038229144  21.8377857880655 13.802343135159  21.8377857880655 13.802343135159  C 21.8377857880655 13.802343135159  25.3037555507049 15.0267196656862  25.3037555507049 15.0267196656862  C 25.3037555507049 15.0267196656862  25.4744387320261 20.1802505597775  25.4744387320261 20.1802505597775  C 25.4744387320261 20.1802505597775  22.6801898765229 20.3991104455041  22.6801898765229 20.3991104455041  C 22.6801898765229 20.3991104455041  19.5280569311517 16.1045013670947  19.5280569311517 16.1045013670947  C 19.5280569311517 16.1045013670947  19.5638453401384 14.9544546090785  19.5638453401384 14.9544546090785  C 19.5638453401384 14.9544546090785  16.1529346682478 14.970972336303  16.1529346682478 14.970972336303  C 16.1529346682478 14.970972336303  11.867982402171 12.9620037626048  11.867982402171 12.9620037626048  C 11.867982402171 12.9620037626048  10.2630099068424 13.1664106370098  10.2630099068424 13.1664106370098  C 10.2630099068424 13.1664106370098  7.22099514296906 10.9716176320343  7.22099514296906 10.9716176320343  C 7.22099514296906 10.9716176320343  1.48108493240261 7.59685559203638  1.48108493240261 7.59685559203638  C 1.48108493240261 7.59685559203638  2.2243826575118 3.90720827322988  2.2243826575118 3.90720827322988  Z " stroke-width="2" stroke="#505050" fill="none" stroke-opacity="0.211764705882353" transform="matrix(1 0 0 1 2126 1761 )" mask="url(#clip574)" />
  </g>
</svg>