<?xml version="1.0" encoding="utf-8"?>
<svg version="1.1" xmlns:xlink="http://www.w3.org/1999/xlink" width="99px" height="84px" xmlns="http://www.w3.org/2000/svg">
  <defs>
    <mask fill="white" id="clip575">
      <path d="M 13.6040651315896 8.7303909083383  C 13.6040651315896 8.7303909083383  36.1596823659399 8.80747363538694  36.1596823659399 8.80747363538694  C 36.1596823659399 8.80747363538694  38.0429510354587 13.2782718041927  38.0429510354587 13.2782718041927  C 38.0429510354587 13.2782718041927  40.2369181540729 16.881889293704  40.2369181540729 16.881889293704  C 40.2369181540729 16.881889293704  41.9948172739563 18.8260869648128  41.9948172739563 18.8260869648128  C 41.9948172739563 18.8260869648128  44.9219237154366 21.9736316526215  44.9219237154366 21.9736316526215  C 44.9219237154366 21.9736316526215  51.9548616507301 21.4854410479818  51.9548616507301 21.4854410479818  C 51.9548616507301 21.4854410479818  54.4758797683924 20.6375310504499  54.4758797683924 20.6375310504499  C 54.4758797683924 20.6375310504499  58.697563081105 21.4875822348442  58.697563081105 21.4875822348442  C 58.697563081105 21.4875822348442  59.842241577773 19.9823278705386  59.842241577773 19.9823278705386  C 59.842241577773 19.9823278705386  61.7609407721884 16.4772049767  61.7609407721884 16.4772049767  C 61.7609407721884 16.4772049767  66.5004548333939 16.2438156086925  66.5004548333939 16.2438156086925  C 66.5004548333939 16.2438156086925  66.911994007196 15.2031987935397  66.911994007196 15.2031987935397  C 66.911994007196 15.2031987935397  70.8120771708447 15.1796457380525  70.8120771708447 15.1796457380525  C 70.8120771708447 15.1796457380525  70.1470734727801 17.3443856559945  70.1470734727801 17.3443856559945  C 70.1470734727801 17.3443856559945  79.4189692957937 17.2929971712954  79.4189692957937 17.2929971712954  C 79.4189692957937 17.2929971712954  79.5579659703894 21.0786155441155  79.5579659703894 21.0786155441155  C 79.5579659703894 21.0786155441155  81.1060073658836 23.4039444767414  81.1060073658836 23.4039444767414  C 81.1060073658836 23.4039444767414  79.9804068441597 27.0396797691897  79.9804068441597 27.0396797691897  C 79.9804068441597 27.0396797691897  80.5418443925257 30.7546389755486  80.5418443925257 30.7546389755486  C 80.5418443925257 30.7546389755486  83.0901167601086 33.0007439942639  83.0901167601086 33.0007439942639  C 83.0901167601086 33.0007439942639  82.6813030112984 40.218684907599  82.6813030112984 40.218684907599  C 82.6813030112984 40.218684907599  84.5727479557932 39.6619763233608  84.5727479557932 39.6619763233608  C 84.5727479557932 39.6619763233608  87.8950410211237 39.8118594037327  87.8950410211237 39.8118594037327  C 87.8950410211237 39.8118594037327  92.6291042323448 38.9018549871893  92.6291042323448 38.9018549871893  C 92.6291042323448 38.9018549871893  96.1094719472149 39.2594331932192  96.1094719472149 39.2594331932192  C 96.1094719472149 39.2594331932192  96.9161977448672 41.1458188190419  96.9161977448672 41.1458188190419  C 96.9161977448672 41.1458188190419  96.0467871723977 44.0985155023669  96.0467871723977 44.0985155023669  C 96.0467871723977 44.0985155023669  97.390421693487 48.5125555192997  97.390421693487 48.5125555192997  C 97.390421693487 48.5125555192997  96.2511940468028 50.7993430884014  96.2511940468028 50.7993430884014  C 96.2511940468028 50.7993430884014  96.9025706199071 52.9105533347819  96.9025706199071 52.9105533347819  C 96.9025706199071 52.9105533347819  80.9915395162173 52.8334706077332  80.9915395162173 52.8334706077332  C 80.9915395162173 52.8334706077332  80.6399596922405 72.4424598940946  80.6399596922405 72.4424598940946  C 80.6399596922405 72.4424598940946  85.7964637772323 77.5320610661497  85.7964637772323 77.5320610661497  C 85.7964637772323 77.5320610661497  90.783991512716 81.4354447164048  90.783991512716 81.4354447164048  C 90.783991512716 81.4354447164048  76.7398765285922 83.9877394564509  76.7398765285922 83.9877394564509  C 76.7398765285922 83.9877394564509  58.2396916824381 83.1012880953947  58.2396916824381 83.1012880953947  C 58.2396916824381 83.1012880953947  52.9441909228511 80.1036264879579  52.9441909228511 80.1036264879579  C 52.9441909228511 80.1036264879579  19.987010463012 80.3734160326275  19.987010463012 80.3734160326275  C 19.987010463012 80.3734160326275  18.8314302663754 80.8123593394307  18.8314302663754 80.8123593394307  C 18.8314302663754 80.8123593394307  14.2745196796383 77.9881338678527  14.2745196796383 77.9881338678527  C 14.2745196796383 77.9881338678527  9.31969704405979 77.8018506108192  9.31969704405979 77.8018506108192  C 9.31969704405979 77.8018506108192  4.74643390737045 78.8660204814592  4.74643390737045 78.8660204814592  C 4.74643390737045 78.8660204814592  1.0671101680793 80.0543791901215  1.0671101680793 80.0543791901215  C 1.0671101680793 80.0543791901215  0.347597970173442 76.1295836712419  0.347597970173442 76.1295836712419  C 0.347597970173442 76.1295836712419  1.40506286709558 70.6652747982571  1.40506286709558 70.6652747982571  C 1.40506286709558 70.6652747982571  4.0405488344249 65.001835547064  4.0405488344249 65.001835547064  C 4.0405488344249 65.001835547064  4.43846088326672 62.3553285850701  4.43846088326672 62.3553285850701  C 4.43846088326672 62.3553285850701  6.91859762604811 56.813936985037  6.91859762604811 56.813936985037  C 6.91859762604811 56.813936985037  8.73918152074918 54.3023247953776  8.73918152074918 54.3023247953776  C 8.73918152074918 54.3023247953776  13.12984118297 50.2983053625869  13.12984118297 50.2983053625869  C 13.12984118297 50.2983053625869  15.5799982508386 47.5811392341318  15.5799982508386 47.5811392341318  C 15.5799982508386 47.5811392341318  16.3812731985063 41.5141029593839  16.3812731985063 41.5141029593839  C 16.3812731985063 41.5141029593839  15.9806357246723 38.0689332976942  15.9806357246723 38.0689332976942  C 15.9806357246723 38.0689332976942  13.6967295813198 35.8999110060275  13.6967295813198 35.8999110060275  C 13.6967295813198 35.8999110060275  11.6608371122457 32.2256343500549  11.6608371122457 32.2256343500549  C 11.6608371122457 32.2256343500549  9.78301929271123 28.5984638050564  9.78301929271123 28.5984638050564  C 9.78301929271123 28.5984638050564  10.1918330415212 27.3437283036578  10.1918330415212 27.3437283036578  C 10.1918330415212 27.3437283036578  12.5411493846834 24.952022578296  12.5411493846834 24.952022578296  C 12.5411493846834 24.952022578296  10.221812716434 19.1322766861436  10.221812716434 19.1322766861436  C 10.221812716434 19.1322766861436  8.65741877098732 15.1068453847285  8.65741877098732 15.1068453847285  C 8.65741877098732 15.1068453847285  4.82819665713254 11.308379890734  4.82819665713254 11.308379890734  C 4.82819665713254 11.308379890734  5.55588513001463 10.1435742375585  5.55588513001463 10.1435742375585  C 5.55588513001463 10.1435742375585  8.70920184583664 9.33848797727559  8.70920184583664 9.33848797727559  C 8.70920184583664 9.33848797727559  10.9249723643874 9.44982969412316  10.9249723643874 9.44982969412316  C 10.9249723643874 9.44982969412316  13.6040651315896 8.7303909083383  13.6040651315896 8.7303909083383  Z M 8.65603480175401 6.59239912615946  C 8.65603480175401 6.59239912615946  6.43619740245228 9.2046470983544  6.43619740245228 9.2046470983544  C 6.43619740245228 9.2046470983544  4.49296938310819 9.83843840964088  4.49296938310819 9.83843840964088  C 4.49296938310819 9.83843840964088  2.44890063905762 3.77782569548066  2.44890063905762 3.77782569548066  C 2.44890063905762 3.77782569548066  5.53408173007786 1.19341315249762  5.53408173007786 1.19341315249762  C 5.53408173007786 1.19341315249762  9.82251669835907 0.187055327143753  9.82251669835907 0.187055327143753  C 9.82251669835907 0.187055327143753  12.686938365022 2.24045352823815  12.686938365022 2.24045352823815  C 12.686938365022 2.24045352823815  9.90427944812093 3.49733021649905  9.90427944812093 3.49733021649905  C 9.90427944812093 3.49733021649905  8.65603480175401 6.59239912615946  8.65603480175401 6.59239912615946  Z " fill-rule="evenodd" />
    </mask>
  </defs>
  <g transform="matrix(1 0 0 1 -1882 -2060 )">
    <path d="M 13.6040651315896 8.7303909083383  C 13.6040651315896 8.7303909083383  36.1596823659399 8.80747363538694  36.1596823659399 8.80747363538694  C 36.1596823659399 8.80747363538694  38.0429510354587 13.2782718041927  38.0429510354587 13.2782718041927  C 38.0429510354587 13.2782718041927  40.2369181540729 16.881889293704  40.2369181540729 16.881889293704  C 40.2369181540729 16.881889293704  41.9948172739563 18.8260869648128  41.9948172739563 18.8260869648128  C 41.9948172739563 18.8260869648128  44.9219237154366 21.9736316526215  44.9219237154366 21.9736316526215  C 44.9219237154366 21.9736316526215  51.9548616507301 21.4854410479818  51.9548616507301 21.4854410479818  C 51.9548616507301 21.4854410479818  54.4758797683924 20.6375310504499  54.4758797683924 20.6375310504499  C 54.4758797683924 20.6375310504499  58.697563081105 21.4875822348442  58.697563081105 21.4875822348442  C 58.697563081105 21.4875822348442  59.842241577773 19.9823278705386  59.842241577773 19.9823278705386  C 59.842241577773 19.9823278705386  61.7609407721884 16.4772049767  61.7609407721884 16.4772049767  C 61.7609407721884 16.4772049767  66.5004548333939 16.2438156086925  66.5004548333939 16.2438156086925  C 66.5004548333939 16.2438156086925  66.911994007196 15.2031987935397  66.911994007196 15.2031987935397  C 66.911994007196 15.2031987935397  70.8120771708447 15.1796457380525  70.8120771708447 15.1796457380525  C 70.8120771708447 15.1796457380525  70.1470734727801 17.3443856559945  70.1470734727801 17.3443856559945  C 70.1470734727801 17.3443856559945  79.4189692957937 17.2929971712954  79.4189692957937 17.2929971712954  C 79.4189692957937 17.2929971712954  79.5579659703894 21.0786155441155  79.5579659703894 21.0786155441155  C 79.5579659703894 21.0786155441155  81.1060073658836 23.4039444767414  81.1060073658836 23.4039444767414  C 81.1060073658836 23.4039444767414  79.9804068441597 27.0396797691897  79.9804068441597 27.0396797691897  C 79.9804068441597 27.0396797691897  80.5418443925257 30.7546389755486  80.5418443925257 30.7546389755486  C 80.5418443925257 30.7546389755486  83.0901167601086 33.0007439942639  83.0901167601086 33.0007439942639  C 83.0901167601086 33.0007439942639  82.6813030112984 40.218684907599  82.6813030112984 40.218684907599  C 82.6813030112984 40.218684907599  84.5727479557932 39.6619763233608  84.5727479557932 39.6619763233608  C 84.5727479557932 39.6619763233608  87.8950410211237 39.8118594037327  87.8950410211237 39.8118594037327  C 87.8950410211237 39.8118594037327  92.6291042323448 38.9018549871893  92.6291042323448 38.9018549871893  C 92.6291042323448 38.9018549871893  96.1094719472149 39.2594331932192  96.1094719472149 39.2594331932192  C 96.1094719472149 39.2594331932192  96.9161977448672 41.1458188190419  96.9161977448672 41.1458188190419  C 96.9161977448672 41.1458188190419  96.0467871723977 44.0985155023669  96.0467871723977 44.0985155023669  C 96.0467871723977 44.0985155023669  97.390421693487 48.5125555192997  97.390421693487 48.5125555192997  C 97.390421693487 48.5125555192997  96.2511940468028 50.7993430884014  96.2511940468028 50.7993430884014  C 96.2511940468028 50.7993430884014  96.9025706199071 52.9105533347819  96.9025706199071 52.9105533347819  C 96.9025706199071 52.9105533347819  80.9915395162173 52.8334706077332  80.9915395162173 52.8334706077332  C 80.9915395162173 52.8334706077332  80.6399596922405 72.4424598940946  80.6399596922405 72.4424598940946  C 80.6399596922405 72.4424598940946  85.7964637772323 77.5320610661497  85.7964637772323 77.5320610661497  C 85.7964637772323 77.5320610661497  90.783991512716 81.4354447164048  90.783991512716 81.4354447164048  C 90.783991512716 81.4354447164048  76.7398765285922 83.9877394564509  76.7398765285922 83.9877394564509  C 76.7398765285922 83.9877394564509  58.2396916824381 83.1012880953947  58.2396916824381 83.1012880953947  C 58.2396916824381 83.1012880953947  52.9441909228511 80.1036264879579  52.9441909228511 80.1036264879579  C 52.9441909228511 80.1036264879579  19.987010463012 80.3734160326275  19.987010463012 80.3734160326275  C 19.987010463012 80.3734160326275  18.8314302663754 80.8123593394307  18.8314302663754 80.8123593394307  C 18.8314302663754 80.8123593394307  14.2745196796383 77.9881338678527  14.2745196796383 77.9881338678527  C 14.2745196796383 77.9881338678527  9.31969704405979 77.8018506108192  9.31969704405979 77.8018506108192  C 9.31969704405979 77.8018506108192  4.74643390737045 78.8660204814592  4.74643390737045 78.8660204814592  C 4.74643390737045 78.8660204814592  1.0671101680793 80.0543791901215  1.0671101680793 80.0543791901215  C 1.0671101680793 80.0543791901215  0.347597970173442 76.1295836712419  0.347597970173442 76.1295836712419  C 0.347597970173442 76.1295836712419  1.40506286709558 70.6652747982571  1.40506286709558 70.6652747982571  C 1.40506286709558 70.6652747982571  4.0405488344249 65.001835547064  4.0405488344249 65.001835547064  C 4.0405488344249 65.001835547064  4.43846088326672 62.3553285850701  4.43846088326672 62.3553285850701  C 4.43846088326672 62.3553285850701  6.91859762604811 56.813936985037  6.91859762604811 56.813936985037  C 6.91859762604811 56.813936985037  8.73918152074918 54.3023247953776  8.73918152074918 54.3023247953776  C 8.73918152074918 54.3023247953776  13.12984118297 50.2983053625869  13.12984118297 50.2983053625869  C 13.12984118297 50.2983053625869  15.5799982508386 47.5811392341318  15.5799982508386 47.5811392341318  C 15.5799982508386 47.5811392341318  16.3812731985063 41.5141029593839  16.3812731985063 41.5141029593839  C 16.3812731985063 41.5141029593839  15.9806357246723 38.0689332976942  15.9806357246723 38.0689332976942  C 15.9806357246723 38.0689332976942  13.6967295813198 35.8999110060275  13.6967295813198 35.8999110060275  C 13.6967295813198 35.8999110060275  11.6608371122457 32.2256343500549  11.6608371122457 32.2256343500549  C 11.6608371122457 32.2256343500549  9.78301929271123 28.5984638050564  9.78301929271123 28.5984638050564  C 9.78301929271123 28.5984638050564  10.1918330415212 27.3437283036578  10.1918330415212 27.3437283036578  C 10.1918330415212 27.3437283036578  12.5411493846834 24.952022578296  12.5411493846834 24.952022578296  C 12.5411493846834 24.952022578296  10.221812716434 19.1322766861436  10.221812716434 19.1322766861436  C 10.221812716434 19.1322766861436  8.65741877098732 15.1068453847285  8.65741877098732 15.1068453847285  C 8.65741877098732 15.1068453847285  4.82819665713254 11.308379890734  4.82819665713254 11.308379890734  C 4.82819665713254 11.308379890734  5.55588513001463 10.1435742375585  5.55588513001463 10.1435742375585  C 5.55588513001463 10.1435742375585  8.70920184583664 9.33848797727559  8.70920184583664 9.33848797727559  C 8.70920184583664 9.33848797727559  10.9249723643874 9.44982969412316  10.9249723643874 9.44982969412316  C 10.9249723643874 9.44982969412316  13.6040651315896 8.7303909083383  13.6040651315896 8.7303909083383  Z M 8.65603480175401 6.59239912615946  C 8.65603480175401 6.59239912615946  6.43619740245228 9.2046470983544  6.43619740245228 9.2046470983544  C 6.43619740245228 9.2046470983544  4.49296938310819 9.83843840964088  4.49296938310819 9.83843840964088  C 4.49296938310819 9.83843840964088  2.44890063905762 3.77782569548066  2.44890063905762 3.77782569548066  C 2.44890063905762 3.77782569548066  5.53408173007786 1.19341315249762  5.53408173007786 1.19341315249762  C 5.53408173007786 1.19341315249762  9.82251669835907 0.187055327143753  9.82251669835907 0.187055327143753  C 9.82251669835907 0.187055327143753  12.686938365022 2.24045352823815  12.686938365022 2.24045352823815  C 12.686938365022 2.24045352823815  9.90427944812093 3.49733021649905  9.90427944812093 3.49733021649905  C 9.90427944812093 3.49733021649905  8.65603480175401 6.59239912615946  8.65603480175401 6.59239912615946  Z " fill-rule="nonzero" fill="#f2f2f2" stroke="none" transform="matrix(1 0 0 1 1882 2060 )" />
    <path d="M 13.6040651315896 8.7303909083383  C 13.6040651315896 8.7303909083383  36.1596823659399 8.80747363538694  36.1596823659399 8.80747363538694  C 36.1596823659399 8.80747363538694  38.0429510354587 13.2782718041927  38.0429510354587 13.2782718041927  C 38.0429510354587 13.2782718041927  40.2369181540729 16.881889293704  40.2369181540729 16.881889293704  C 40.2369181540729 16.881889293704  41.9948172739563 18.8260869648128  41.9948172739563 18.8260869648128  C 41.9948172739563 18.8260869648128  44.9219237154366 21.9736316526215  44.9219237154366 21.9736316526215  C 44.9219237154366 21.9736316526215  51.9548616507301 21.4854410479818  51.9548616507301 21.4854410479818  C 51.9548616507301 21.4854410479818  54.4758797683924 20.6375310504499  54.4758797683924 20.6375310504499  C 54.4758797683924 20.6375310504499  58.697563081105 21.4875822348442  58.697563081105 21.4875822348442  C 58.697563081105 21.4875822348442  59.842241577773 19.9823278705386  59.842241577773 19.9823278705386  C 59.842241577773 19.9823278705386  61.7609407721884 16.4772049767  61.7609407721884 16.4772049767  C 61.7609407721884 16.4772049767  66.5004548333939 16.2438156086925  66.5004548333939 16.2438156086925  C 66.5004548333939 16.2438156086925  66.911994007196 15.2031987935397  66.911994007196 15.2031987935397  C 66.911994007196 15.2031987935397  70.8120771708447 15.1796457380525  70.8120771708447 15.1796457380525  C 70.8120771708447 15.1796457380525  70.1470734727801 17.3443856559945  70.1470734727801 17.3443856559945  C 70.1470734727801 17.3443856559945  79.4189692957937 17.2929971712954  79.4189692957937 17.2929971712954  C 79.4189692957937 17.2929971712954  79.5579659703894 21.0786155441155  79.5579659703894 21.0786155441155  C 79.5579659703894 21.0786155441155  81.1060073658836 23.4039444767414  81.1060073658836 23.4039444767414  C 81.1060073658836 23.4039444767414  79.9804068441597 27.0396797691897  79.9804068441597 27.0396797691897  C 79.9804068441597 27.0396797691897  80.5418443925257 30.7546389755486  80.5418443925257 30.7546389755486  C 80.5418443925257 30.7546389755486  83.0901167601086 33.0007439942639  83.0901167601086 33.0007439942639  C 83.0901167601086 33.0007439942639  82.6813030112984 40.218684907599  82.6813030112984 40.218684907599  C 82.6813030112984 40.218684907599  84.5727479557932 39.6619763233608  84.5727479557932 39.6619763233608  C 84.5727479557932 39.6619763233608  87.8950410211237 39.8118594037327  87.8950410211237 39.8118594037327  C 87.8950410211237 39.8118594037327  92.6291042323448 38.9018549871893  92.6291042323448 38.9018549871893  C 92.6291042323448 38.9018549871893  96.1094719472149 39.2594331932192  96.1094719472149 39.2594331932192  C 96.1094719472149 39.2594331932192  96.9161977448672 41.1458188190419  96.9161977448672 41.1458188190419  C 96.9161977448672 41.1458188190419  96.0467871723977 44.0985155023669  96.0467871723977 44.0985155023669  C 96.0467871723977 44.0985155023669  97.390421693487 48.5125555192997  97.390421693487 48.5125555192997  C 97.390421693487 48.5125555192997  96.2511940468028 50.7993430884014  96.2511940468028 50.7993430884014  C 96.2511940468028 50.7993430884014  96.9025706199071 52.9105533347819  96.9025706199071 52.9105533347819  C 96.9025706199071 52.9105533347819  80.9915395162173 52.8334706077332  80.9915395162173 52.8334706077332  C 80.9915395162173 52.8334706077332  80.6399596922405 72.4424598940946  80.6399596922405 72.4424598940946  C 80.6399596922405 72.4424598940946  85.7964637772323 77.5320610661497  85.7964637772323 77.5320610661497  C 85.7964637772323 77.5320610661497  90.783991512716 81.4354447164048  90.783991512716 81.4354447164048  C 90.783991512716 81.4354447164048  76.7398765285922 83.9877394564509  76.7398765285922 83.9877394564509  C 76.7398765285922 83.9877394564509  58.2396916824381 83.1012880953947  58.2396916824381 83.1012880953947  C 58.2396916824381 83.1012880953947  52.9441909228511 80.1036264879579  52.9441909228511 80.1036264879579  C 52.9441909228511 80.1036264879579  19.987010463012 80.3734160326275  19.987010463012 80.3734160326275  C 19.987010463012 80.3734160326275  18.8314302663754 80.8123593394307  18.8314302663754 80.8123593394307  C 18.8314302663754 80.8123593394307  14.2745196796383 77.9881338678527  14.2745196796383 77.9881338678527  C 14.2745196796383 77.9881338678527  9.31969704405979 77.8018506108192  9.31969704405979 77.8018506108192  C 9.31969704405979 77.8018506108192  4.74643390737045 78.8660204814592  4.74643390737045 78.8660204814592  C 4.74643390737045 78.8660204814592  1.0671101680793 80.0543791901215  1.0671101680793 80.0543791901215  C 1.0671101680793 80.0543791901215  0.347597970173442 76.1295836712419  0.347597970173442 76.1295836712419  C 0.347597970173442 76.1295836712419  1.40506286709558 70.6652747982571  1.40506286709558 70.6652747982571  C 1.40506286709558 70.6652747982571  4.0405488344249 65.001835547064  4.0405488344249 65.001835547064  C 4.0405488344249 65.001835547064  4.43846088326672 62.3553285850701  4.43846088326672 62.3553285850701  C 4.43846088326672 62.3553285850701  6.91859762604811 56.813936985037  6.91859762604811 56.813936985037  C 6.91859762604811 56.813936985037  8.73918152074918 54.3023247953776  8.73918152074918 54.3023247953776  C 8.73918152074918 54.3023247953776  13.12984118297 50.2983053625869  13.12984118297 50.2983053625869  C 13.12984118297 50.2983053625869  15.5799982508386 47.5811392341318  15.5799982508386 47.5811392341318  C 15.5799982508386 47.5811392341318  16.3812731985063 41.5141029593839  16.3812731985063 41.5141029593839  C 16.3812731985063 41.5141029593839  15.9806357246723 38.0689332976942  15.9806357246723 38.0689332976942  C 15.9806357246723 38.0689332976942  13.6967295813198 35.8999110060275  13.6967295813198 35.8999110060275  C 13.6967295813198 35.8999110060275  11.6608371122457 32.2256343500549  11.6608371122457 32.2256343500549  C 11.6608371122457 32.2256343500549  9.78301929271123 28.5984638050564  9.78301929271123 28.5984638050564  C 9.78301929271123 28.5984638050564  10.1918330415212 27.3437283036578  10.1918330415212 27.3437283036578  C 10.1918330415212 27.3437283036578  12.5411493846834 24.952022578296  12.5411493846834 24.952022578296  C 12.5411493846834 24.952022578296  10.221812716434 19.1322766861436  10.221812716434 19.1322766861436  C 10.221812716434 19.1322766861436  8.65741877098732 15.1068453847285  8.65741877098732 15.1068453847285  C 8.65741877098732 15.1068453847285  4.82819665713254 11.308379890734  4.82819665713254 11.308379890734  C 4.82819665713254 11.308379890734  5.55588513001463 10.1435742375585  5.55588513001463 10.1435742375585  C 5.55588513001463 10.1435742375585  8.70920184583664 9.33848797727559  8.70920184583664 9.33848797727559  C 8.70920184583664 9.33848797727559  10.9249723643874 9.44982969412316  10.9249723643874 9.44982969412316  C 10.9249723643874 9.44982969412316  13.6040651315896 8.7303909083383  13.6040651315896 8.7303909083383  Z " stroke-width="2" stroke="#505050" fill="none" stroke-opacity="0.211764705882353" transform="matrix(1 0 0 1 1882 2060 )" mask="url(#clip575)" />
    <path d="M 8.65603480175401 6.59239912615946  C 8.65603480175401 6.59239912615946  6.43619740245228 9.2046470983544  6.43619740245228 9.2046470983544  C 6.43619740245228 9.2046470983544  4.49296938310819 9.83843840964088  4.49296938310819 9.83843840964088  C 4.49296938310819 9.83843840964088  2.44890063905762 3.77782569548066  2.44890063905762 3.77782569548066  C 2.44890063905762 3.77782569548066  5.53408173007786 1.19341315249762  5.53408173007786 1.19341315249762  C 5.53408173007786 1.19341315249762  9.82251669835907 0.187055327143753  9.82251669835907 0.187055327143753  C 9.82251669835907 0.187055327143753  12.686938365022 2.24045352823815  12.686938365022 2.24045352823815  C 12.686938365022 2.24045352823815  9.90427944812093 3.49733021649905  9.90427944812093 3.49733021649905  C 9.90427944812093 3.49733021649905  8.65603480175401 6.59239912615946  8.65603480175401 6.59239912615946  Z " stroke-width="2" stroke="#505050" fill="none" stroke-opacity="0.211764705882353" transform="matrix(1 0 0 1 1882 2060 )" mask="url(#clip575)" />
  </g>
</svg>