<?xml version="1.0" encoding="utf-8"?>
<svg version="1.1" xmlns:xlink="http://www.w3.org/1999/xlink" width="158px" height="268px" xmlns="http://www.w3.org/2000/svg">
  <defs>
    <mask fill="white" id="clip576">
      <path d="M 68.3915537382632 261.925495407457  C 68.3915537382632 261.925495407457  64.9173251120114 267.152235685584  64.9173251120114 267.152235685584  C 64.9173251120114 267.152235685584  57.5834542242665 267.677697880144  57.5834542242665 267.677697880144  C 57.5834542242665 267.677697880144  51.6467292357245 263.975870338064  51.6467292357245 263.975870338064  C 51.6467292357245 263.975870338064  46.996989021985 263.6970536634  46.996989021985 263.6970536634  C 46.996989021985 263.6970536634  38.7326195005844 263.690619432446  38.7326195005844 263.690619432446  C 38.7326195005844 263.690619432446  38.7271135915096 239.466828991016  38.7271135915096 239.466828991016  C 38.7271135915096 239.466828991016  41.6920456283344 244.073738353929  41.6920456283344 244.073738353929  C 41.6920456283344 244.073738353929  45.5516878898279 251.63395972463  45.5516878898279 251.63395972463  C 45.5516878898279 251.63395972463  57.5862071788035 259.336789820382  57.5862071788035 259.336789820382  C 57.5862071788035 259.336789820382  68.3915537382632 261.925495407457  68.3915537382632 261.925495407457  Z M 56.9268960385375 1.42387588100152  C 56.9268960385375 1.42387588100152  67.0467569181744 2.99597297737692  67.0467569181744 2.99597297737692  C 67.0467569181744 2.99597297737692  71.5836259958787 7.66722464982753  71.5836259958787 7.66722464982753  C 71.5836259958787 7.66722464982753  74.5953582598402 2.46407655186388  74.5953582598402 2.46407655186388  C 74.5953582598402 2.46407655186388  85.396553916042 2.73216950827173  85.396553916042 2.73216950827173  C 85.396553916042 2.73216950827173  86.643642321503 4.11338441968501  86.643642321503 4.11338441968501  C 86.643642321503 4.11338441968501  100.835122962016 14.7191417751801  100.835122962016 14.7191417751801  C 100.835122962016 14.7191417751801  107.144894761833 15.7143028293661  107.144894761833 15.7143028293661  C 107.144894761833 15.7143028293661  116.576517007109 20.5657129685224  116.576517007109 20.5657129685224  C 116.576517007109 20.5657129685224  124.527049711241 23.1436948373407  124.527049711241 23.1436948373407  C 124.527049711241 23.1436948373407  125.633737435292 26.0648356903603  125.633737435292 26.0648356903603  C 125.633737435292 26.0648356903603  118.035582911953 36.2116179044851  118.035582911953 36.2116179044851  C 118.035582911953 36.2116179044851  125.818185389301 38.0432289826637  125.818185389301 38.0432289826637  C 125.818185389301 38.0432289826637  134.487239227705 39.0705611916188  134.487239227705 39.0705611916188  C 134.487239227705 39.0705611916188  140.590539437214 37.9874656477309  140.590539437214 37.9874656477309  C 140.590539437214 37.9874656477309  147.591302825929 32.8443703720024  147.591302825929 32.8443703720024  C 147.591302825929 32.8443703720024  148.852156004077 26.9613385365884  148.852156004077 26.9613385365884  C 148.852156004077 26.9613385365884  152.676009856584 25.6895055513895  152.676009856584 25.6895055513895  C 152.676009856584 25.6895055513895  156.549416890765 29.5264519434986  156.549416890765 29.5264519434986  C 156.549416890765 29.5264519434986  156.392498482131 34.864718891492  156.392498482131 34.864718891492  C 156.392498482131 34.864718891492  149.89277281923 38.5729806645256  149.89277281923 38.5729806645256  C 149.89277281923 38.5729806645256  144.708959425227 41.3225420254449  144.708959425227 41.3225420254449  C 144.708959425227 41.3225420254449  135.995858314224 47.9240629840318  135.995858314224 47.9240629840318  C 135.995858314224 47.9240629840318  125.697055389654 57.3008822273532  125.697055389654 57.3008822273532  C 125.697055389654 57.3008822273532  123.767234258907 62.8643472587292  123.767234258907 62.8643472587292  C 123.767234258907 62.8643472587292  121.702518355825 70.0814096452286  121.702518355825 70.0814096452286  C 121.702518355825 70.0814096452286  121.779601082874 77.1526294634423  121.779601082874 77.1526294634423  C 121.779601082874 77.1526294634423  120.105804724109 78.7440292526795  120.105804724109 78.7440292526795  C 120.105804724109 78.7440292526795  119.508413589484 83.3873992576633  119.508413589484 83.3873992576633  C 119.508413589484 83.3873992576633  118.979846318295 87.1642928275374  118.979846318295 87.1642928275374  C 118.979846318295 87.1642928275374  128.780364471588 93.4140758273172  128.780364471588 93.4140758273172  C 128.780364471588 93.4140758273172  127.725982883748 98.4928287935076  127.725982883748 98.4928287935076  C 127.725982883748 98.4928287935076  132.549159233346 101.724957475961  132.549159233346 101.724957475961  C 132.549159233346 101.724957475961  132.155486734492 105.371021683108  132.155486734492 105.371021683108  C 132.155486734492 105.371021683108  124.739027210624 115.056684012211  124.739027210624 115.056684012211  C 124.739027210624 115.056684012211  113.294995198478 120.717718151961  113.294995198478 120.717718151961  C 113.294995198478 120.717718151961  97.8123788799046 122.317696915803  97.8123788799046 122.317696915803  C 97.8123788799046 122.317696915803  89.3332789045837 121.543444457697  89.3332789045837 121.543444457697  C 89.3332789045837 121.543444457697  90.9547691271368 126.148209076958  90.9547691271368 126.148209076958  C 90.9547691271368 126.148209076958  89.3745732226453 131.984056552045  89.3745732226453 131.984056552045  C 89.3745732226453 131.984056552045  90.8006036730401 135.953977050532  90.8006036730401 135.953977050532  C 90.8006036730401 135.953977050532  86.1701341410628 138.739999053522  86.1701341410628 138.739999053522  C 86.1701341410628 138.739999053522  76.2581428004546 139.838107802969  76.2581428004546 139.838107802969  C 76.2581428004546 139.838107802969  68.8361773675113 136.949138104718  68.8361773675113 136.949138104718  C 68.8361773675113 136.949138104718  65.8547276034617 139.023105215489  65.8547276034617 139.023105215489  C 65.8547276034617 139.023105215489  66.9311328276015 146.980104161674  66.9311328276015 146.980104161674  C 66.9311328276015 146.980104161674  72.1424757669788 149.414388205858  72.1424757669788 149.414388205858  C 72.1424757669788 149.414388205858  76.3682609819523 146.864288004507  76.3682609819523 146.864288004507  C 76.3682609819523 146.864288004507  80.6669780207162 151.072275048284  80.6669780207162 151.072275048284  C 80.6669780207162 151.072275048284  71.5588494050412 153.603072556774  71.5588494050412 153.603072556774  C 71.5588494050412 153.603072556774  65.3619487412595 158.713996677734  65.3619487412595 158.713996677734  C 65.3619487412595 158.713996677734  64.2277314718335 167.093510123218  64.2277314718335 167.093510123218  C 64.2277314718335 167.093510123218  62.4025226135095 171.612484996429  62.4025226135095 171.612484996429  C 62.4025226135095 171.612484996429  55.1126989983634 171.636077176592  55.1126989983634 171.636077176592  C 55.1126989983634 171.636077176592  49.0617049250661 176.000630506912  49.0617049250661 176.000630506912  C 49.0617049250661 176.000630506912  46.848329476963 182.462743128167  46.848329476963 182.462743128167  C 46.848329476963 182.462743128167  54.4382251366903 188.858368696233  54.4382251366903 188.858368696233  C 54.4382251366903 188.858368696233  61.8188962515719 190.640650670433  61.8188962515719 190.640650670433  C 61.8188962515719 190.640650670433  59.1650480774779 198.631965515038  59.1650480774779 198.631965515038  C 59.1650480774779 198.631965515038  50.0472626494704 203.725731686787  50.0472626494704 203.725731686787  C 50.0472626494704 203.725731686787  45.0313794822512 214.503068534384  45.0313794822512 214.503068534384  C 45.0313794822512 214.503068534384  37.9865688209375 218.189882870905  37.9865688209375 218.189882870905  C 37.9865688209375 218.189882870905  34.8234240574166 222.605910048855  34.8234240574166 222.605910048855  C 34.8234240574166 222.605910048855  37.3148479138015 232.559665334365  37.3148479138015 232.559665334365  C 37.3148479138015 232.559665334365  42.4518610806681 238.206775368141  42.4518610806681 238.206775368141  C 42.4518610806681 238.206775368141  39.1978688174117 237.711339584699  39.1978688174117 237.711339584699  C 39.1978688174117 237.711339584699  32.0429399746001 236.177847874046  32.0429399746001 236.177847874046  C 32.0429399746001 236.177847874046  13.3916729834314 234.873843734078  13.3916729834314 234.873843734078  C 13.3916729834314 234.873843734078  10.192739810924 229.228878443954  10.192739810924 229.228878443954  C 10.192739810924 229.228878443954  10.3413993559459 222.082592597946  10.3413993559459 222.082592597946  C 10.3413993559459 222.082592597946  5.20163323454176 222.691699794905  5.20163323454176 222.691699794905  C 5.20163323454176 222.691699794905  2.48171415154911 219.26868892749  2.48171415154911 219.26868892749  C 2.48171415154911 219.26868892749  1.80724028987584 209.405012875332  1.80724028987584 209.405012875332  C 1.80724028987584 209.405012875332  7.7288454999134 205.37718429826  7.7288454999134 205.37718429826  C 7.7288454999134 205.37718429826  10.1762220836993 199.629271312875  10.1762220836993 199.629271312875  C 10.1762220836993 199.629271312875  9.27875890449309 195.099572721408  9.27875890449309 195.099572721408  C 9.27875890449309 195.099572721408  13.3696493471318 187.550075068963  13.3696493471318 187.550075068963  C 13.3696493471318 187.550075068963  16.1886747934723 176.075696534707  16.1886747934723 176.075696534707  C 16.1886747934723 176.075696534707  15.3600354777022 171.076299083613  15.3600354777022 171.076299083613  C 15.3600354777022 171.076299083613  18.7296518315311 169.472030832468  18.7296518315311 169.472030832468  C 18.7296518315311 169.472030832468  17.9037654702986 166.302099715902  17.9037654702986 166.302099715902  C 17.9037654702986 166.302099715902  14.3221716170867 164.624910180614  14.3221716170867 164.624910180614  C 14.3221716170867 164.624910180614  16.8659016096829 161.128978029056  16.8659016096829 161.128978029056  C 16.8659016096829 161.128978029056  13.3806611652815 157.993362810909  13.3806611652815 157.993362810909  C 13.3806611652815 157.993362810909  11.577475943257 148.567214463609  11.577475943257 148.567214463609  C 11.577475943257 148.567214463609  14.6800557069541 146.92219608309  14.6800557069541 146.92219608309  C 14.6800557069541 146.92219608309  13.3751552562067 137.178625675403  13.3751552562067 137.178625675403  C 13.3751552562067 137.178625675403  15.1893522963808 129.133692239516  15.1893522963808 129.133692239516  C 15.1893522963808 129.133692239516  17.2540681994624 122.221183451496  17.2540681994624 122.221183451496  C 17.2540681994624 122.221183451496  21.8762788678271 117.87487716997  21.8762788678271 117.87487716997  C 21.8762788678271 117.87487716997  19.5280086473892 110.449774649298  19.5280086473892 110.449774649298  C 19.5280086473892 110.449774649298  19.5032320565522 103.550134323186  19.5032320565522 103.550134323186  C 19.5032320565522 103.550134323186  25.3477545395413 98.6965794403777  25.3477545395413 98.6965794403777  C 25.3477545395413 98.6965794403777  25.1688124946077 92.5454546485559  25.1688124946077 92.5454546485559  C 25.1688124946077 92.5454546485559  29.5735397545147 85.439918931922  29.5735397545147 85.439918931922  C 29.5735397545147 85.439918931922  29.5928104362768 78.8212400241245  29.5928104362768 78.8212400241245  C 29.5928104362768 78.8212400241245  27.5886595330192 77.5150911405055  27.5886595330192 77.5150911405055  C 27.5886595330192 77.5150911405055  24.0318422706441 65.3029207902148  24.0318422706441 65.3029207902148  C 24.0318422706441 65.3029207902148  28.7889477113438 58.1330427640431  28.7889477113438 58.1330427640431  C 28.7889477113438 58.1330427640431  28.0594147589218 51.4521662903594  28.0594147589218 51.4521662903594  C 28.0594147589218 51.4521662903594  30.8178752054387 45.2409886763021  30.8178752054387 45.2409886763021  C 30.8178752054387 45.2409886763021  35.872299736182 38.8861132376101  35.872299736182 38.8861132376101  C 35.872299736182 38.8861132376101  41.3203967657794 34.7038631176474  41.3203967657794 34.7038631176474  C 41.3203967657794 34.7038631176474  39.0106679088656 32.0765521448505  39.0106679088656 32.0765521448505  C 39.0106679088656 32.0765521448505  40.621146313269 29.9296637499365  40.621146313269 29.9296637499365  C 40.621146313269 29.9296637499365  40.3761333594368 18.8992471514913  40.3761333594368 18.8992471514913  C 40.3761333594368 18.8992471514913  48.7836565167843 15.6628289817356  48.7836565167843 15.6628289817356  C 48.7836565167843 15.6628289817356  51.4319987818033 8.88758378739624  51.4319987818033 8.88758378739624  C 51.4319987818033 8.88758378739624  50.4959942390731 7.26186809973884  50.4959942390731 7.26186809973884  C 50.4959942390731 7.26186809973884  56.9268960385375 1.42387588100152  56.9268960385375 1.42387588100152  Z " fill-rule="evenodd" />
    </mask>
  </defs>
  <g transform="matrix(1 0 0 1 -1226 -2165 )">
    <path d="M 68.3915537382632 261.925495407457  C 68.3915537382632 261.925495407457  64.9173251120114 267.152235685584  64.9173251120114 267.152235685584  C 64.9173251120114 267.152235685584  57.5834542242665 267.677697880144  57.5834542242665 267.677697880144  C 57.5834542242665 267.677697880144  51.6467292357245 263.975870338064  51.6467292357245 263.975870338064  C 51.6467292357245 263.975870338064  46.996989021985 263.6970536634  46.996989021985 263.6970536634  C 46.996989021985 263.6970536634  38.7326195005844 263.690619432446  38.7326195005844 263.690619432446  C 38.7326195005844 263.690619432446  38.7271135915096 239.466828991016  38.7271135915096 239.466828991016  C 38.7271135915096 239.466828991016  41.6920456283344 244.073738353929  41.6920456283344 244.073738353929  C 41.6920456283344 244.073738353929  45.5516878898279 251.63395972463  45.5516878898279 251.63395972463  C 45.5516878898279 251.63395972463  57.5862071788035 259.336789820382  57.5862071788035 259.336789820382  C 57.5862071788035 259.336789820382  68.3915537382632 261.925495407457  68.3915537382632 261.925495407457  Z M 56.9268960385375 1.42387588100152  C 56.9268960385375 1.42387588100152  67.0467569181744 2.99597297737692  67.0467569181744 2.99597297737692  C 67.0467569181744 2.99597297737692  71.5836259958787 7.66722464982753  71.5836259958787 7.66722464982753  C 71.5836259958787 7.66722464982753  74.5953582598402 2.46407655186388  74.5953582598402 2.46407655186388  C 74.5953582598402 2.46407655186388  85.396553916042 2.73216950827173  85.396553916042 2.73216950827173  C 85.396553916042 2.73216950827173  86.643642321503 4.11338441968501  86.643642321503 4.11338441968501  C 86.643642321503 4.11338441968501  100.835122962016 14.7191417751801  100.835122962016 14.7191417751801  C 100.835122962016 14.7191417751801  107.144894761833 15.7143028293661  107.144894761833 15.7143028293661  C 107.144894761833 15.7143028293661  116.576517007109 20.5657129685224  116.576517007109 20.5657129685224  C 116.576517007109 20.5657129685224  124.527049711241 23.1436948373407  124.527049711241 23.1436948373407  C 124.527049711241 23.1436948373407  125.633737435292 26.0648356903603  125.633737435292 26.0648356903603  C 125.633737435292 26.0648356903603  118.035582911953 36.2116179044851  118.035582911953 36.2116179044851  C 118.035582911953 36.2116179044851  125.818185389301 38.0432289826637  125.818185389301 38.0432289826637  C 125.818185389301 38.0432289826637  134.487239227705 39.0705611916188  134.487239227705 39.0705611916188  C 134.487239227705 39.0705611916188  140.590539437214 37.9874656477309  140.590539437214 37.9874656477309  C 140.590539437214 37.9874656477309  147.591302825929 32.8443703720024  147.591302825929 32.8443703720024  C 147.591302825929 32.8443703720024  148.852156004077 26.9613385365884  148.852156004077 26.9613385365884  C 148.852156004077 26.9613385365884  152.676009856584 25.6895055513895  152.676009856584 25.6895055513895  C 152.676009856584 25.6895055513895  156.549416890765 29.5264519434986  156.549416890765 29.5264519434986  C 156.549416890765 29.5264519434986  156.392498482131 34.864718891492  156.392498482131 34.864718891492  C 156.392498482131 34.864718891492  149.89277281923 38.5729806645256  149.89277281923 38.5729806645256  C 149.89277281923 38.5729806645256  144.708959425227 41.3225420254449  144.708959425227 41.3225420254449  C 144.708959425227 41.3225420254449  135.995858314224 47.9240629840318  135.995858314224 47.9240629840318  C 135.995858314224 47.9240629840318  125.697055389654 57.3008822273532  125.697055389654 57.3008822273532  C 125.697055389654 57.3008822273532  123.767234258907 62.8643472587292  123.767234258907 62.8643472587292  C 123.767234258907 62.8643472587292  121.702518355825 70.0814096452286  121.702518355825 70.0814096452286  C 121.702518355825 70.0814096452286  121.779601082874 77.1526294634423  121.779601082874 77.1526294634423  C 121.779601082874 77.1526294634423  120.105804724109 78.7440292526795  120.105804724109 78.7440292526795  C 120.105804724109 78.7440292526795  119.508413589484 83.3873992576633  119.508413589484 83.3873992576633  C 119.508413589484 83.3873992576633  118.979846318295 87.1642928275374  118.979846318295 87.1642928275374  C 118.979846318295 87.1642928275374  128.780364471588 93.4140758273172  128.780364471588 93.4140758273172  C 128.780364471588 93.4140758273172  127.725982883748 98.4928287935076  127.725982883748 98.4928287935076  C 127.725982883748 98.4928287935076  132.549159233346 101.724957475961  132.549159233346 101.724957475961  C 132.549159233346 101.724957475961  132.155486734492 105.371021683108  132.155486734492 105.371021683108  C 132.155486734492 105.371021683108  124.739027210624 115.056684012211  124.739027210624 115.056684012211  C 124.739027210624 115.056684012211  113.294995198478 120.717718151961  113.294995198478 120.717718151961  C 113.294995198478 120.717718151961  97.8123788799046 122.317696915803  97.8123788799046 122.317696915803  C 97.8123788799046 122.317696915803  89.3332789045837 121.543444457697  89.3332789045837 121.543444457697  C 89.3332789045837 121.543444457697  90.9547691271368 126.148209076958  90.9547691271368 126.148209076958  C 90.9547691271368 126.148209076958  89.3745732226453 131.984056552045  89.3745732226453 131.984056552045  C 89.3745732226453 131.984056552045  90.8006036730401 135.953977050532  90.8006036730401 135.953977050532  C 90.8006036730401 135.953977050532  86.1701341410628 138.739999053522  86.1701341410628 138.739999053522  C 86.1701341410628 138.739999053522  76.2581428004546 139.838107802969  76.2581428004546 139.838107802969  C 76.2581428004546 139.838107802969  68.8361773675113 136.949138104718  68.8361773675113 136.949138104718  C 68.8361773675113 136.949138104718  65.8547276034617 139.023105215489  65.8547276034617 139.023105215489  C 65.8547276034617 139.023105215489  66.9311328276015 146.980104161674  66.9311328276015 146.980104161674  C 66.9311328276015 146.980104161674  72.1424757669788 149.414388205858  72.1424757669788 149.414388205858  C 72.1424757669788 149.414388205858  76.3682609819523 146.864288004507  76.3682609819523 146.864288004507  C 76.3682609819523 146.864288004507  80.6669780207162 151.072275048284  80.6669780207162 151.072275048284  C 80.6669780207162 151.072275048284  71.5588494050412 153.603072556774  71.5588494050412 153.603072556774  C 71.5588494050412 153.603072556774  65.3619487412595 158.713996677734  65.3619487412595 158.713996677734  C 65.3619487412595 158.713996677734  64.2277314718335 167.093510123218  64.2277314718335 167.093510123218  C 64.2277314718335 167.093510123218  62.4025226135095 171.612484996429  62.4025226135095 171.612484996429  C 62.4025226135095 171.612484996429  55.1126989983634 171.636077176592  55.1126989983634 171.636077176592  C 55.1126989983634 171.636077176592  49.0617049250661 176.000630506912  49.0617049250661 176.000630506912  C 49.0617049250661 176.000630506912  46.848329476963 182.462743128167  46.848329476963 182.462743128167  C 46.848329476963 182.462743128167  54.4382251366903 188.858368696233  54.4382251366903 188.858368696233  C 54.4382251366903 188.858368696233  61.8188962515719 190.640650670433  61.8188962515719 190.640650670433  C 61.8188962515719 190.640650670433  59.1650480774779 198.631965515038  59.1650480774779 198.631965515038  C 59.1650480774779 198.631965515038  50.0472626494704 203.725731686787  50.0472626494704 203.725731686787  C 50.0472626494704 203.725731686787  45.0313794822512 214.503068534384  45.0313794822512 214.503068534384  C 45.0313794822512 214.503068534384  37.9865688209375 218.189882870905  37.9865688209375 218.189882870905  C 37.9865688209375 218.189882870905  34.8234240574166 222.605910048855  34.8234240574166 222.605910048855  C 34.8234240574166 222.605910048855  37.3148479138015 232.559665334365  37.3148479138015 232.559665334365  C 37.3148479138015 232.559665334365  42.4518610806681 238.206775368141  42.4518610806681 238.206775368141  C 42.4518610806681 238.206775368141  39.1978688174117 237.711339584699  39.1978688174117 237.711339584699  C 39.1978688174117 237.711339584699  32.0429399746001 236.177847874046  32.0429399746001 236.177847874046  C 32.0429399746001 236.177847874046  13.3916729834314 234.873843734078  13.3916729834314 234.873843734078  C 13.3916729834314 234.873843734078  10.192739810924 229.228878443954  10.192739810924 229.228878443954  C 10.192739810924 229.228878443954  10.3413993559459 222.082592597946  10.3413993559459 222.082592597946  C 10.3413993559459 222.082592597946  5.20163323454176 222.691699794905  5.20163323454176 222.691699794905  C 5.20163323454176 222.691699794905  2.48171415154911 219.26868892749  2.48171415154911 219.26868892749  C 2.48171415154911 219.26868892749  1.80724028987584 209.405012875332  1.80724028987584 209.405012875332  C 1.80724028987584 209.405012875332  7.7288454999134 205.37718429826  7.7288454999134 205.37718429826  C 7.7288454999134 205.37718429826  10.1762220836993 199.629271312875  10.1762220836993 199.629271312875  C 10.1762220836993 199.629271312875  9.27875890449309 195.099572721408  9.27875890449309 195.099572721408  C 9.27875890449309 195.099572721408  13.3696493471318 187.550075068963  13.3696493471318 187.550075068963  C 13.3696493471318 187.550075068963  16.1886747934723 176.075696534707  16.1886747934723 176.075696534707  C 16.1886747934723 176.075696534707  15.3600354777022 171.076299083613  15.3600354777022 171.076299083613  C 15.3600354777022 171.076299083613  18.7296518315311 169.472030832468  18.7296518315311 169.472030832468  C 18.7296518315311 169.472030832468  17.9037654702986 166.302099715902  17.9037654702986 166.302099715902  C 17.9037654702986 166.302099715902  14.3221716170867 164.624910180614  14.3221716170867 164.624910180614  C 14.3221716170867 164.624910180614  16.8659016096829 161.128978029056  16.8659016096829 161.128978029056  C 16.8659016096829 161.128978029056  13.3806611652815 157.993362810909  13.3806611652815 157.993362810909  C 13.3806611652815 157.993362810909  11.577475943257 148.567214463609  11.577475943257 148.567214463609  C 11.577475943257 148.567214463609  14.6800557069541 146.92219608309  14.6800557069541 146.92219608309  C 14.6800557069541 146.92219608309  13.3751552562067 137.178625675403  13.3751552562067 137.178625675403  C 13.3751552562067 137.178625675403  15.1893522963808 129.133692239516  15.1893522963808 129.133692239516  C 15.1893522963808 129.133692239516  17.2540681994624 122.221183451496  17.2540681994624 122.221183451496  C 17.2540681994624 122.221183451496  21.8762788678271 117.87487716997  21.8762788678271 117.87487716997  C 21.8762788678271 117.87487716997  19.5280086473892 110.449774649298  19.5280086473892 110.449774649298  C 19.5280086473892 110.449774649298  19.5032320565522 103.550134323186  19.5032320565522 103.550134323186  C 19.5032320565522 103.550134323186  25.3477545395413 98.6965794403777  25.3477545395413 98.6965794403777  C 25.3477545395413 98.6965794403777  25.1688124946077 92.5454546485559  25.1688124946077 92.5454546485559  C 25.1688124946077 92.5454546485559  29.5735397545147 85.439918931922  29.5735397545147 85.439918931922  C 29.5735397545147 85.439918931922  29.5928104362768 78.8212400241245  29.5928104362768 78.8212400241245  C 29.5928104362768 78.8212400241245  27.5886595330192 77.5150911405055  27.5886595330192 77.5150911405055  C 27.5886595330192 77.5150911405055  24.0318422706441 65.3029207902148  24.0318422706441 65.3029207902148  C 24.0318422706441 65.3029207902148  28.7889477113438 58.1330427640431  28.7889477113438 58.1330427640431  C 28.7889477113438 58.1330427640431  28.0594147589218 51.4521662903594  28.0594147589218 51.4521662903594  C 28.0594147589218 51.4521662903594  30.8178752054387 45.2409886763021  30.8178752054387 45.2409886763021  C 30.8178752054387 45.2409886763021  35.872299736182 38.8861132376101  35.872299736182 38.8861132376101  C 35.872299736182 38.8861132376101  41.3203967657794 34.7038631176474  41.3203967657794 34.7038631176474  C 41.3203967657794 34.7038631176474  39.0106679088656 32.0765521448505  39.0106679088656 32.0765521448505  C 39.0106679088656 32.0765521448505  40.621146313269 29.9296637499365  40.621146313269 29.9296637499365  C 40.621146313269 29.9296637499365  40.3761333594368 18.8992471514913  40.3761333594368 18.8992471514913  C 40.3761333594368 18.8992471514913  48.7836565167843 15.6628289817356  48.7836565167843 15.6628289817356  C 48.7836565167843 15.6628289817356  51.4319987818033 8.88758378739624  51.4319987818033 8.88758378739624  C 51.4319987818033 8.88758378739624  50.4959942390731 7.26186809973884  50.4959942390731 7.26186809973884  C 50.4959942390731 7.26186809973884  56.9268960385375 1.42387588100152  56.9268960385375 1.42387588100152  Z " fill-rule="nonzero" fill="#f2f2f2" stroke="none" transform="matrix(1 0 0 1 1226 2165 )" />
    <path d="M 68.3915537382632 261.925495407457  C 68.3915537382632 261.925495407457  64.9173251120114 267.152235685584  64.9173251120114 267.152235685584  C 64.9173251120114 267.152235685584  57.5834542242665 267.677697880144  57.5834542242665 267.677697880144  C 57.5834542242665 267.677697880144  51.6467292357245 263.975870338064  51.6467292357245 263.975870338064  C 51.6467292357245 263.975870338064  46.996989021985 263.6970536634  46.996989021985 263.6970536634  C 46.996989021985 263.6970536634  38.7326195005844 263.690619432446  38.7326195005844 263.690619432446  C 38.7326195005844 263.690619432446  38.7271135915096 239.466828991016  38.7271135915096 239.466828991016  C 38.7271135915096 239.466828991016  41.6920456283344 244.073738353929  41.6920456283344 244.073738353929  C 41.6920456283344 244.073738353929  45.5516878898279 251.63395972463  45.5516878898279 251.63395972463  C 45.5516878898279 251.63395972463  57.5862071788035 259.336789820382  57.5862071788035 259.336789820382  C 57.5862071788035 259.336789820382  68.3915537382632 261.925495407457  68.3915537382632 261.925495407457  Z " stroke-width="2" stroke="#505050" fill="none" stroke-opacity="0.211764705882353" transform="matrix(1 0 0 1 1226 2165 )" mask="url(#clip576)" />
    <path d="M 56.9268960385375 1.42387588100152  C 56.9268960385375 1.42387588100152  67.0467569181744 2.99597297737692  67.0467569181744 2.99597297737692  C 67.0467569181744 2.99597297737692  71.5836259958787 7.66722464982753  71.5836259958787 7.66722464982753  C 71.5836259958787 7.66722464982753  74.5953582598402 2.46407655186388  74.5953582598402 2.46407655186388  C 74.5953582598402 2.46407655186388  85.396553916042 2.73216950827173  85.396553916042 2.73216950827173  C 85.396553916042 2.73216950827173  86.643642321503 4.11338441968501  86.643642321503 4.11338441968501  C 86.643642321503 4.11338441968501  100.835122962016 14.7191417751801  100.835122962016 14.7191417751801  C 100.835122962016 14.7191417751801  107.144894761833 15.7143028293661  107.144894761833 15.7143028293661  C 107.144894761833 15.7143028293661  116.576517007109 20.5657129685224  116.576517007109 20.5657129685224  C 116.576517007109 20.5657129685224  124.527049711241 23.1436948373407  124.527049711241 23.1436948373407  C 124.527049711241 23.1436948373407  125.633737435292 26.0648356903603  125.633737435292 26.0648356903603  C 125.633737435292 26.0648356903603  118.035582911953 36.2116179044851  118.035582911953 36.2116179044851  C 118.035582911953 36.2116179044851  125.818185389301 38.0432289826637  125.818185389301 38.0432289826637  C 125.818185389301 38.0432289826637  134.487239227705 39.0705611916188  134.487239227705 39.0705611916188  C 134.487239227705 39.0705611916188  140.590539437214 37.9874656477309  140.590539437214 37.9874656477309  C 140.590539437214 37.9874656477309  147.591302825929 32.8443703720024  147.591302825929 32.8443703720024  C 147.591302825929 32.8443703720024  148.852156004077 26.9613385365884  148.852156004077 26.9613385365884  C 148.852156004077 26.9613385365884  152.676009856584 25.6895055513895  152.676009856584 25.6895055513895  C 152.676009856584 25.6895055513895  156.549416890765 29.5264519434986  156.549416890765 29.5264519434986  C 156.549416890765 29.5264519434986  156.392498482131 34.864718891492  156.392498482131 34.864718891492  C 156.392498482131 34.864718891492  149.89277281923 38.5729806645256  149.89277281923 38.5729806645256  C 149.89277281923 38.5729806645256  144.708959425227 41.3225420254449  144.708959425227 41.3225420254449  C 144.708959425227 41.3225420254449  135.995858314224 47.9240629840318  135.995858314224 47.9240629840318  C 135.995858314224 47.9240629840318  125.697055389654 57.3008822273532  125.697055389654 57.3008822273532  C 125.697055389654 57.3008822273532  123.767234258907 62.8643472587292  123.767234258907 62.8643472587292  C 123.767234258907 62.8643472587292  121.702518355825 70.0814096452286  121.702518355825 70.0814096452286  C 121.702518355825 70.0814096452286  121.779601082874 77.1526294634423  121.779601082874 77.1526294634423  C 121.779601082874 77.1526294634423  120.105804724109 78.7440292526795  120.105804724109 78.7440292526795  C 120.105804724109 78.7440292526795  119.508413589484 83.3873992576633  119.508413589484 83.3873992576633  C 119.508413589484 83.3873992576633  118.979846318295 87.1642928275374  118.979846318295 87.1642928275374  C 118.979846318295 87.1642928275374  128.780364471588 93.4140758273172  128.780364471588 93.4140758273172  C 128.780364471588 93.4140758273172  127.725982883748 98.4928287935076  127.725982883748 98.4928287935076  C 127.725982883748 98.4928287935076  132.549159233346 101.724957475961  132.549159233346 101.724957475961  C 132.549159233346 101.724957475961  132.155486734492 105.371021683108  132.155486734492 105.371021683108  C 132.155486734492 105.371021683108  124.739027210624 115.056684012211  124.739027210624 115.056684012211  C 124.739027210624 115.056684012211  113.294995198478 120.717718151961  113.294995198478 120.717718151961  C 113.294995198478 120.717718151961  97.8123788799046 122.317696915803  97.8123788799046 122.317696915803  C 97.8123788799046 122.317696915803  89.3332789045837 121.543444457697  89.3332789045837 121.543444457697  C 89.3332789045837 121.543444457697  90.9547691271368 126.148209076958  90.9547691271368 126.148209076958  C 90.9547691271368 126.148209076958  89.3745732226453 131.984056552045  89.3745732226453 131.984056552045  C 89.3745732226453 131.984056552045  90.8006036730401 135.953977050532  90.8006036730401 135.953977050532  C 90.8006036730401 135.953977050532  86.1701341410628 138.739999053522  86.1701341410628 138.739999053522  C 86.1701341410628 138.739999053522  76.2581428004546 139.838107802969  76.2581428004546 139.838107802969  C 76.2581428004546 139.838107802969  68.8361773675113 136.949138104718  68.8361773675113 136.949138104718  C 68.8361773675113 136.949138104718  65.8547276034617 139.023105215489  65.8547276034617 139.023105215489  C 65.8547276034617 139.023105215489  66.9311328276015 146.980104161674  66.9311328276015 146.980104161674  C 66.9311328276015 146.980104161674  72.1424757669788 149.414388205858  72.1424757669788 149.414388205858  C 72.1424757669788 149.414388205858  76.3682609819523 146.864288004507  76.3682609819523 146.864288004507  C 76.3682609819523 146.864288004507  80.6669780207162 151.072275048284  80.6669780207162 151.072275048284  C 80.6669780207162 151.072275048284  71.5588494050412 153.603072556774  71.5588494050412 153.603072556774  C 71.5588494050412 153.603072556774  65.3619487412595 158.713996677734  65.3619487412595 158.713996677734  C 65.3619487412595 158.713996677734  64.2277314718335 167.093510123218  64.2277314718335 167.093510123218  C 64.2277314718335 167.093510123218  62.4025226135095 171.612484996429  62.4025226135095 171.612484996429  C 62.4025226135095 171.612484996429  55.1126989983634 171.636077176592  55.1126989983634 171.636077176592  C 55.1126989983634 171.636077176592  49.0617049250661 176.000630506912  49.0617049250661 176.000630506912  C 49.0617049250661 176.000630506912  46.848329476963 182.462743128167  46.848329476963 182.462743128167  C 46.848329476963 182.462743128167  54.4382251366903 188.858368696233  54.4382251366903 188.858368696233  C 54.4382251366903 188.858368696233  61.8188962515719 190.640650670433  61.8188962515719 190.640650670433  C 61.8188962515719 190.640650670433  59.1650480774779 198.631965515038  59.1650480774779 198.631965515038  C 59.1650480774779 198.631965515038  50.0472626494704 203.725731686787  50.0472626494704 203.725731686787  C 50.0472626494704 203.725731686787  45.0313794822512 214.503068534384  45.0313794822512 214.503068534384  C 45.0313794822512 214.503068534384  37.9865688209375 218.189882870905  37.9865688209375 218.189882870905  C 37.9865688209375 218.189882870905  34.8234240574166 222.605910048855  34.8234240574166 222.605910048855  C 34.8234240574166 222.605910048855  37.3148479138015 232.559665334365  37.3148479138015 232.559665334365  C 37.3148479138015 232.559665334365  42.4518610806681 238.206775368141  42.4518610806681 238.206775368141  C 42.4518610806681 238.206775368141  39.1978688174117 237.711339584699  39.1978688174117 237.711339584699  C 39.1978688174117 237.711339584699  32.0429399746001 236.177847874046  32.0429399746001 236.177847874046  C 32.0429399746001 236.177847874046  13.3916729834314 234.873843734078  13.3916729834314 234.873843734078  C 13.3916729834314 234.873843734078  10.192739810924 229.228878443954  10.192739810924 229.228878443954  C 10.192739810924 229.228878443954  10.3413993559459 222.082592597946  10.3413993559459 222.082592597946  C 10.3413993559459 222.082592597946  5.20163323454176 222.691699794905  5.20163323454176 222.691699794905  C 5.20163323454176 222.691699794905  2.48171415154911 219.26868892749  2.48171415154911 219.26868892749  C 2.48171415154911 219.26868892749  1.80724028987584 209.405012875332  1.80724028987584 209.405012875332  C 1.80724028987584 209.405012875332  7.7288454999134 205.37718429826  7.7288454999134 205.37718429826  C 7.7288454999134 205.37718429826  10.1762220836993 199.629271312875  10.1762220836993 199.629271312875  C 10.1762220836993 199.629271312875  9.27875890449309 195.099572721408  9.27875890449309 195.099572721408  C 9.27875890449309 195.099572721408  13.3696493471318 187.550075068963  13.3696493471318 187.550075068963  C 13.3696493471318 187.550075068963  16.1886747934723 176.075696534707  16.1886747934723 176.075696534707  C 16.1886747934723 176.075696534707  15.3600354777022 171.076299083613  15.3600354777022 171.076299083613  C 15.3600354777022 171.076299083613  18.7296518315311 169.472030832468  18.7296518315311 169.472030832468  C 18.7296518315311 169.472030832468  17.9037654702986 166.302099715902  17.9037654702986 166.302099715902  C 17.9037654702986 166.302099715902  14.3221716170867 164.624910180614  14.3221716170867 164.624910180614  C 14.3221716170867 164.624910180614  16.8659016096829 161.128978029056  16.8659016096829 161.128978029056  C 16.8659016096829 161.128978029056  13.3806611652815 157.993362810909  13.3806611652815 157.993362810909  C 13.3806611652815 157.993362810909  11.577475943257 148.567214463609  11.577475943257 148.567214463609  C 11.577475943257 148.567214463609  14.6800557069541 146.92219608309  14.6800557069541 146.92219608309  C 14.6800557069541 146.92219608309  13.3751552562067 137.178625675403  13.3751552562067 137.178625675403  C 13.3751552562067 137.178625675403  15.1893522963808 129.133692239516  15.1893522963808 129.133692239516  C 15.1893522963808 129.133692239516  17.2540681994624 122.221183451496  17.2540681994624 122.221183451496  C 17.2540681994624 122.221183451496  21.8762788678271 117.87487716997  21.8762788678271 117.87487716997  C 21.8762788678271 117.87487716997  19.5280086473892 110.449774649298  19.5280086473892 110.449774649298  C 19.5280086473892 110.449774649298  19.5032320565522 103.550134323186  19.5032320565522 103.550134323186  C 19.5032320565522 103.550134323186  25.3477545395413 98.6965794403777  25.3477545395413 98.6965794403777  C 25.3477545395413 98.6965794403777  25.1688124946077 92.5454546485559  25.1688124946077 92.5454546485559  C 25.1688124946077 92.5454546485559  29.5735397545147 85.439918931922  29.5735397545147 85.439918931922  C 29.5735397545147 85.439918931922  29.5928104362768 78.8212400241245  29.5928104362768 78.8212400241245  C 29.5928104362768 78.8212400241245  27.5886595330192 77.5150911405055  27.5886595330192 77.5150911405055  C 27.5886595330192 77.5150911405055  24.0318422706441 65.3029207902148  24.0318422706441 65.3029207902148  C 24.0318422706441 65.3029207902148  28.7889477113438 58.1330427640431  28.7889477113438 58.1330427640431  C 28.7889477113438 58.1330427640431  28.0594147589218 51.4521662903594  28.0594147589218 51.4521662903594  C 28.0594147589218 51.4521662903594  30.8178752054387 45.2409886763021  30.8178752054387 45.2409886763021  C 30.8178752054387 45.2409886763021  35.872299736182 38.8861132376101  35.872299736182 38.8861132376101  C 35.872299736182 38.8861132376101  41.3203967657794 34.7038631176474  41.3203967657794 34.7038631176474  C 41.3203967657794 34.7038631176474  39.0106679088656 32.0765521448505  39.0106679088656 32.0765521448505  C 39.0106679088656 32.0765521448505  40.621146313269 29.9296637499365  40.621146313269 29.9296637499365  C 40.621146313269 29.9296637499365  40.3761333594368 18.8992471514913  40.3761333594368 18.8992471514913  C 40.3761333594368 18.8992471514913  48.7836565167843 15.6628289817356  48.7836565167843 15.6628289817356  C 48.7836565167843 15.6628289817356  51.4319987818033 8.88758378739624  51.4319987818033 8.88758378739624  C 51.4319987818033 8.88758378739624  50.4959942390731 7.26186809973884  50.4959942390731 7.26186809973884  C 50.4959942390731 7.26186809973884  56.9268960385375 1.42387588100152  56.9268960385375 1.42387588100152  Z " stroke-width="2" stroke="#505050" fill="none" stroke-opacity="0.211764705882353" transform="matrix(1 0 0 1 1226 2165 )" mask="url(#clip576)" />
  </g>
</svg>