<?xml version="1.0" encoding="utf-8"?>
<svg version="1.1" xmlns:xlink="http://www.w3.org/1999/xlink" width="62px" height="26px" xmlns="http://www.w3.org/2000/svg">
  <defs>
    <mask fill="white" id="clip577">
      <path d="M 60.7975171248777 5.73569360839465  C 60.7975171248777 5.73569360839465  61.5655914408239 8.80297077861153  61.5655914408239 8.80297077861153  C 61.5655914408239 8.80297077861153  60.979212124349 13.9196442441064  60.979212124349 13.9196442441064  C 60.979212124349 13.9196442441064  56.632296909728 13.9364858483353  56.632296909728 13.9364858483353  C 56.632296909728 13.9364858483353  58.1299041780967 15.8290611235756  58.1299041780967 15.8290611235756  C 58.1299041780967 15.8290611235756  55.5669035037383 21.4015269228645  55.5669035037383 21.4015269228645  C 55.5669035037383 21.4015269228645  54.0940728262069 22.8520100870921  54.0940728262069 22.8520100870921  C 54.0940728262069 22.8520100870921  47.3438283003993 23.0646353404839  47.3438283003993 23.0646353404839  C 47.3438283003993 23.0646353404839  43.4483976299189 25.0056302278826  43.4483976299189 25.0056302278826  C 43.4483976299189 25.0056302278826  37.0725549212036 24.3445972618922  37.0725549212036 24.3445972618922  C 37.0725549212036 24.3445972618922  24.0359601805988 22.1320315063  24.0359601805988 22.1320315063  C 24.0359601805988 22.1320315063  22.3126106401603 19.1342259535279  22.3126106401603 19.1342259535279  C 22.3126106401603 19.1342259535279  14.6841736169088 20.6331287299138  14.6841736169088 20.6331287299138  C 14.6841736169088 20.6331287299138  13.7839574831653 22.2688695406611  13.7839574831653 22.2688695406611  C 13.7839574831653 22.2688695406611  9.10944067858895 21.0478532340544  9.10944067858895 21.0478532340544  C 9.10944067858895 21.0478532340544  5.16996273550944 20.8141759753762  5.16996273550944 20.8141759753762  C 5.16996273550944 20.8141759753762  1.67646342749595 19.241591180488  1.67646342749595 19.241591180488  C 1.67646342749595 19.241591180488  2.85748092405834 17.1216542481556  2.85748092405834 17.1216542481556  C 2.85748092405834 17.1216542481556  2.56016183401471 15.5764370601397  2.56016183401471 15.5764370601397  C 2.56016183401471 15.5764370601397  4.88916137269052 15.0964513396116  4.88916137269052 15.0964513396116  C 4.88916137269052 15.0964513396116  8.79560386132039 17.5132215464812  8.79560386132039 17.5132215464812  C 8.79560386132039 17.5132215464812  9.89403272175991 15.2164477697437  9.89403272175991 15.2164477697437  C 9.89403272175991 15.2164477697437  16.7020892928535 15.5890682633116  16.7020892928535 15.5890682633116  C 16.7020892928535 15.5890682633116  22.2190101858873 14.0227990700093  22.2190101858873 14.0227990700093  C 22.2190101858873 14.0227990700093  25.9217340387465 14.2901595371455  25.9217340387465 14.2901595371455  C 25.9217340387465 14.2901595371455  28.3278163044708 16.0774747859541  28.3278163044708 16.0774747859541  C 28.3278163044708 16.0774747859541  29.046337438743 14.5954136137972  29.046337438743 14.5954136137972  C 29.046337438743 14.5954136137972  27.9534144873787 7.33985641121223  27.9534144873787 7.33985641121223  C 27.9534144873787 7.33985641121223  32.7256397065828 6.21567932892279  32.7256397065828 6.21567932892279  C 32.7256397065828 6.21567932892279  35.448311744113 2.10843309756158  35.448311744113 2.10843309756158  C 35.448311744113 2.10843309756158  41.1827160456044 4.97992661861568  41.1827160456044 4.97992661861568  C 41.1827160456044 4.97992661861568  45.5241253511501 1.3274037014392  45.5241253511501 1.3274037014392  C 45.5241253511501 1.3274037014392  48.2412914796053 0.655844732805516  48.2412914796053 0.655844732805516  C 48.2412914796053 0.655844732805516  54.2344735076163 3.38839501896985  54.2344735076163 3.38839501896985  C 54.2344735076163 3.38839501896985  57.8601146334272 2.92525090267078  57.8601146334272 2.92525090267078  C 57.8601146334272 2.92525090267078  61.4169318958022 4.60941132557642  61.4169318958022 4.60941132557642  C 61.4169318958022 4.60941132557642  60.7975171248777 5.73569360839465  60.7975171248777 5.73569360839465  Z " fill-rule="evenodd" />
    </mask>
  </defs>
  <g transform="matrix(1 0 0 1 -1862 -1693 )">
    <path d="M 60.7975171248777 5.73569360839465  C 60.7975171248777 5.73569360839465  61.5655914408239 8.80297077861153  61.5655914408239 8.80297077861153  C 61.5655914408239 8.80297077861153  60.979212124349 13.9196442441064  60.979212124349 13.9196442441064  C 60.979212124349 13.9196442441064  56.632296909728 13.9364858483353  56.632296909728 13.9364858483353  C 56.632296909728 13.9364858483353  58.1299041780967 15.8290611235756  58.1299041780967 15.8290611235756  C 58.1299041780967 15.8290611235756  55.5669035037383 21.4015269228645  55.5669035037383 21.4015269228645  C 55.5669035037383 21.4015269228645  54.0940728262069 22.8520100870921  54.0940728262069 22.8520100870921  C 54.0940728262069 22.8520100870921  47.3438283003993 23.0646353404839  47.3438283003993 23.0646353404839  C 47.3438283003993 23.0646353404839  43.4483976299189 25.0056302278826  43.4483976299189 25.0056302278826  C 43.4483976299189 25.0056302278826  37.0725549212036 24.3445972618922  37.0725549212036 24.3445972618922  C 37.0725549212036 24.3445972618922  24.0359601805988 22.1320315063  24.0359601805988 22.1320315063  C 24.0359601805988 22.1320315063  22.3126106401603 19.1342259535279  22.3126106401603 19.1342259535279  C 22.3126106401603 19.1342259535279  14.6841736169088 20.6331287299138  14.6841736169088 20.6331287299138  C 14.6841736169088 20.6331287299138  13.7839574831653 22.2688695406611  13.7839574831653 22.2688695406611  C 13.7839574831653 22.2688695406611  9.10944067858895 21.0478532340544  9.10944067858895 21.0478532340544  C 9.10944067858895 21.0478532340544  5.16996273550944 20.8141759753762  5.16996273550944 20.8141759753762  C 5.16996273550944 20.8141759753762  1.67646342749595 19.241591180488  1.67646342749595 19.241591180488  C 1.67646342749595 19.241591180488  2.85748092405834 17.1216542481556  2.85748092405834 17.1216542481556  C 2.85748092405834 17.1216542481556  2.56016183401471 15.5764370601397  2.56016183401471 15.5764370601397  C 2.56016183401471 15.5764370601397  4.88916137269052 15.0964513396116  4.88916137269052 15.0964513396116  C 4.88916137269052 15.0964513396116  8.79560386132039 17.5132215464812  8.79560386132039 17.5132215464812  C 8.79560386132039 17.5132215464812  9.89403272175991 15.2164477697437  9.89403272175991 15.2164477697437  C 9.89403272175991 15.2164477697437  16.7020892928535 15.5890682633116  16.7020892928535 15.5890682633116  C 16.7020892928535 15.5890682633116  22.2190101858873 14.0227990700093  22.2190101858873 14.0227990700093  C 22.2190101858873 14.0227990700093  25.9217340387465 14.2901595371455  25.9217340387465 14.2901595371455  C 25.9217340387465 14.2901595371455  28.3278163044708 16.0774747859541  28.3278163044708 16.0774747859541  C 28.3278163044708 16.0774747859541  29.046337438743 14.5954136137972  29.046337438743 14.5954136137972  C 29.046337438743 14.5954136137972  27.9534144873787 7.33985641121223  27.9534144873787 7.33985641121223  C 27.9534144873787 7.33985641121223  32.7256397065828 6.21567932892279  32.7256397065828 6.21567932892279  C 32.7256397065828 6.21567932892279  35.448311744113 2.10843309756158  35.448311744113 2.10843309756158  C 35.448311744113 2.10843309756158  41.1827160456044 4.97992661861568  41.1827160456044 4.97992661861568  C 41.1827160456044 4.97992661861568  45.5241253511501 1.3274037014392  45.5241253511501 1.3274037014392  C 45.5241253511501 1.3274037014392  48.2412914796053 0.655844732805516  48.2412914796053 0.655844732805516  C 48.2412914796053 0.655844732805516  54.2344735076163 3.38839501896985  54.2344735076163 3.38839501896985  C 54.2344735076163 3.38839501896985  57.8601146334272 2.92525090267078  57.8601146334272 2.92525090267078  C 57.8601146334272 2.92525090267078  61.4169318958022 4.60941132557642  61.4169318958022 4.60941132557642  C 61.4169318958022 4.60941132557642  60.7975171248777 5.73569360839465  60.7975171248777 5.73569360839465  Z " fill-rule="nonzero" fill="#a29bfe" stroke="none" transform="matrix(1 0 0 1 1862 1693 )" />
    <path d="M 60.7975171248777 5.73569360839465  C 60.7975171248777 5.73569360839465  61.5655914408239 8.80297077861153  61.5655914408239 8.80297077861153  C 61.5655914408239 8.80297077861153  60.979212124349 13.9196442441064  60.979212124349 13.9196442441064  C 60.979212124349 13.9196442441064  56.632296909728 13.9364858483353  56.632296909728 13.9364858483353  C 56.632296909728 13.9364858483353  58.1299041780967 15.8290611235756  58.1299041780967 15.8290611235756  C 58.1299041780967 15.8290611235756  55.5669035037383 21.4015269228645  55.5669035037383 21.4015269228645  C 55.5669035037383 21.4015269228645  54.0940728262069 22.8520100870921  54.0940728262069 22.8520100870921  C 54.0940728262069 22.8520100870921  47.3438283003993 23.0646353404839  47.3438283003993 23.0646353404839  C 47.3438283003993 23.0646353404839  43.4483976299189 25.0056302278826  43.4483976299189 25.0056302278826  C 43.4483976299189 25.0056302278826  37.0725549212036 24.3445972618922  37.0725549212036 24.3445972618922  C 37.0725549212036 24.3445972618922  24.0359601805988 22.1320315063  24.0359601805988 22.1320315063  C 24.0359601805988 22.1320315063  22.3126106401603 19.1342259535279  22.3126106401603 19.1342259535279  C 22.3126106401603 19.1342259535279  14.6841736169088 20.6331287299138  14.6841736169088 20.6331287299138  C 14.6841736169088 20.6331287299138  13.7839574831653 22.2688695406611  13.7839574831653 22.2688695406611  C 13.7839574831653 22.2688695406611  9.10944067858895 21.0478532340544  9.10944067858895 21.0478532340544  C 9.10944067858895 21.0478532340544  5.16996273550944 20.8141759753762  5.16996273550944 20.8141759753762  C 5.16996273550944 20.8141759753762  1.67646342749595 19.241591180488  1.67646342749595 19.241591180488  C 1.67646342749595 19.241591180488  2.85748092405834 17.1216542481556  2.85748092405834 17.1216542481556  C 2.85748092405834 17.1216542481556  2.56016183401471 15.5764370601397  2.56016183401471 15.5764370601397  C 2.56016183401471 15.5764370601397  4.88916137269052 15.0964513396116  4.88916137269052 15.0964513396116  C 4.88916137269052 15.0964513396116  8.79560386132039 17.5132215464812  8.79560386132039 17.5132215464812  C 8.79560386132039 17.5132215464812  9.89403272175991 15.2164477697437  9.89403272175991 15.2164477697437  C 9.89403272175991 15.2164477697437  16.7020892928535 15.5890682633116  16.7020892928535 15.5890682633116  C 16.7020892928535 15.5890682633116  22.2190101858873 14.0227990700093  22.2190101858873 14.0227990700093  C 22.2190101858873 14.0227990700093  25.9217340387465 14.2901595371455  25.9217340387465 14.2901595371455  C 25.9217340387465 14.2901595371455  28.3278163044708 16.0774747859541  28.3278163044708 16.0774747859541  C 28.3278163044708 16.0774747859541  29.046337438743 14.5954136137972  29.046337438743 14.5954136137972  C 29.046337438743 14.5954136137972  27.9534144873787 7.33985641121223  27.9534144873787 7.33985641121223  C 27.9534144873787 7.33985641121223  32.7256397065828 6.21567932892279  32.7256397065828 6.21567932892279  C 32.7256397065828 6.21567932892279  35.448311744113 2.10843309756158  35.448311744113 2.10843309756158  C 35.448311744113 2.10843309756158  41.1827160456044 4.97992661861568  41.1827160456044 4.97992661861568  C 41.1827160456044 4.97992661861568  45.5241253511501 1.3274037014392  45.5241253511501 1.3274037014392  C 45.5241253511501 1.3274037014392  48.2412914796053 0.655844732805516  48.2412914796053 0.655844732805516  C 48.2412914796053 0.655844732805516  54.2344735076163 3.38839501896985  54.2344735076163 3.38839501896985  C 54.2344735076163 3.38839501896985  57.8601146334272 2.92525090267078  57.8601146334272 2.92525090267078  C 57.8601146334272 2.92525090267078  61.4169318958022 4.60941132557642  61.4169318958022 4.60941132557642  C 61.4169318958022 4.60941132557642  60.7975171248777 5.73569360839465  60.7975171248777 5.73569360839465  Z " stroke-width="2" stroke="#505050" fill="none" stroke-opacity="0.211764705882353" transform="matrix(1 0 0 1 1862 1693 )" mask="url(#clip577)" />
  </g>
</svg>