<?xml version="1.0" encoding="utf-8"?>
<svg version="1.1" xmlns:xlink="http://www.w3.org/1999/xlink" width="32px" height="26px" xmlns="http://www.w3.org/2000/svg">
  <defs>
    <mask fill="white" id="clip581">
      <path d="M 23.7116268600178 2.91720113020671  C 23.7116268600178 2.91720113020671  27.2051261680315 4.87214297110762  27.2051261680315 4.87214297110762  C 27.2051261680315 4.87214297110762  30.0021279780724 4.84977521549086  30.0021279780724 4.84977521549086  C 30.0021279780724 4.84977521549086  28.0695538927882 8.71268661049759  28.0695538927882 8.71268661049759  C 28.0695538927882 8.71268661049759  31.7915484274097 12.0678499530049  31.7915484274097 12.0678499530049  C 31.7915484274097 12.0678499530049  30.6655900215958 17.7660182508087  30.6655900215958 17.7660182508087  C 30.6655900215958 17.7660182508087  28.8486400268844 18.146270096293  28.8486400268844 18.146270096293  C 28.8486400268844 18.146270096293  27.4060918492648 18.9336150940013  27.4060918492648 18.9336150940013  C 27.4060918492648 18.9336150940013  24.8953973111177 20.9310556705741  24.8953973111177 20.9310556705741  C 24.8953973111177 20.9310556705741  23.7639329962292 25.6260475745226  23.7639329962292 25.6260475745226  C 23.7639329962292 25.6260475745226  16.9338527888358 22.3983804390304  16.9338527888358 22.3983804390304  C 16.9338527888358 22.3983804390304  12.0184739336844 18.8150659892327  12.0184739336844 18.8150659892327  C 12.0184739336844 18.8150659892327  9.07831848769661 16.9070964351269  9.07831848769661 16.9070964351269  C 9.07831848769661 16.9070964351269  5.52976008893393 12.0454821973882  5.52976008893393 12.0454821973882  C 5.52976008893393 12.0454821973882  3.85596373016938 9.34122054332731  3.85596373016938 9.34122054332731  C 3.85596373016938 9.34122054332731  0.0761571502614515 5.23897416322168  0.0761571502614515 5.23897416322168  C 0.0761571502614515 5.23897416322168  1.68938850920244 1.56842546651876  1.68938850920244 1.56842546651876  C 1.68938850920244 1.56842546651876  4.46161372840629 3.60389122763985  4.46161372840629 3.60389122763985  C 4.46161372840629 3.60389122763985  6.13265713263377 1.76526171594578  6.13265713263377 1.76526171594578  C 6.13265713263377 1.76526171594578  9.73902757668247 1.56842546651876  9.73902757668247 1.56842546651876  C 9.73902757668247 1.56842546651876  18.3764009664553 3.04022378609859  18.3764009664553 3.04022378609859  C 18.3764009664553 3.04022378609859  23.7116268600178 2.91720113020671  23.7116268600178 2.91720113020671  Z " fill-rule="evenodd" />
    </mask>
  </defs>
  <g transform="matrix(1 0 0 1 -1915 -1728 )">
    <path d="M 23.7116268600178 2.91720113020671  C 23.7116268600178 2.91720113020671  27.2051261680315 4.87214297110762  27.2051261680315 4.87214297110762  C 27.2051261680315 4.87214297110762  30.0021279780724 4.84977521549086  30.0021279780724 4.84977521549086  C 30.0021279780724 4.84977521549086  28.0695538927882 8.71268661049759  28.0695538927882 8.71268661049759  C 28.0695538927882 8.71268661049759  31.7915484274097 12.0678499530049  31.7915484274097 12.0678499530049  C 31.7915484274097 12.0678499530049  30.6655900215958 17.7660182508087  30.6655900215958 17.7660182508087  C 30.6655900215958 17.7660182508087  28.8486400268844 18.146270096293  28.8486400268844 18.146270096293  C 28.8486400268844 18.146270096293  27.4060918492648 18.9336150940013  27.4060918492648 18.9336150940013  C 27.4060918492648 18.9336150940013  24.8953973111177 20.9310556705741  24.8953973111177 20.9310556705741  C 24.8953973111177 20.9310556705741  23.7639329962292 25.6260475745226  23.7639329962292 25.6260475745226  C 23.7639329962292 25.6260475745226  16.9338527888358 22.3983804390304  16.9338527888358 22.3983804390304  C 16.9338527888358 22.3983804390304  12.0184739336844 18.8150659892327  12.0184739336844 18.8150659892327  C 12.0184739336844 18.8150659892327  9.07831848769661 16.9070964351269  9.07831848769661 16.9070964351269  C 9.07831848769661 16.9070964351269  5.52976008893393 12.0454821973882  5.52976008893393 12.0454821973882  C 5.52976008893393 12.0454821973882  3.85596373016938 9.34122054332731  3.85596373016938 9.34122054332731  C 3.85596373016938 9.34122054332731  0.0761571502614515 5.23897416322168  0.0761571502614515 5.23897416322168  C 0.0761571502614515 5.23897416322168  1.68938850920244 1.56842546651876  1.68938850920244 1.56842546651876  C 1.68938850920244 1.56842546651876  4.46161372840629 3.60389122763985  4.46161372840629 3.60389122763985  C 4.46161372840629 3.60389122763985  6.13265713263377 1.76526171594578  6.13265713263377 1.76526171594578  C 6.13265713263377 1.76526171594578  9.73902757668247 1.56842546651876  9.73902757668247 1.56842546651876  C 9.73902757668247 1.56842546651876  18.3764009664553 3.04022378609859  18.3764009664553 3.04022378609859  C 18.3764009664553 3.04022378609859  23.7116268600178 2.91720113020671  23.7116268600178 2.91720113020671  Z " fill-rule="nonzero" fill="#f2f2f2" stroke="none" transform="matrix(1 0 0 1 1915 1728 )" />
    <path d="M 23.7116268600178 2.91720113020671  C 23.7116268600178 2.91720113020671  27.2051261680315 4.87214297110762  27.2051261680315 4.87214297110762  C 27.2051261680315 4.87214297110762  30.0021279780724 4.84977521549086  30.0021279780724 4.84977521549086  C 30.0021279780724 4.84977521549086  28.0695538927882 8.71268661049759  28.0695538927882 8.71268661049759  C 28.0695538927882 8.71268661049759  31.7915484274097 12.0678499530049  31.7915484274097 12.0678499530049  C 31.7915484274097 12.0678499530049  30.6655900215958 17.7660182508087  30.6655900215958 17.7660182508087  C 30.6655900215958 17.7660182508087  28.8486400268844 18.146270096293  28.8486400268844 18.146270096293  C 28.8486400268844 18.146270096293  27.4060918492648 18.9336150940013  27.4060918492648 18.9336150940013  C 27.4060918492648 18.9336150940013  24.8953973111177 20.9310556705741  24.8953973111177 20.9310556705741  C 24.8953973111177 20.9310556705741  23.7639329962292 25.6260475745226  23.7639329962292 25.6260475745226  C 23.7639329962292 25.6260475745226  16.9338527888358 22.3983804390304  16.9338527888358 22.3983804390304  C 16.9338527888358 22.3983804390304  12.0184739336844 18.8150659892327  12.0184739336844 18.8150659892327  C 12.0184739336844 18.8150659892327  9.07831848769661 16.9070964351269  9.07831848769661 16.9070964351269  C 9.07831848769661 16.9070964351269  5.52976008893393 12.0454821973882  5.52976008893393 12.0454821973882  C 5.52976008893393 12.0454821973882  3.85596373016938 9.34122054332731  3.85596373016938 9.34122054332731  C 3.85596373016938 9.34122054332731  0.0761571502614515 5.23897416322168  0.0761571502614515 5.23897416322168  C 0.0761571502614515 5.23897416322168  1.68938850920244 1.56842546651876  1.68938850920244 1.56842546651876  C 1.68938850920244 1.56842546651876  4.46161372840629 3.60389122763985  4.46161372840629 3.60389122763985  C 4.46161372840629 3.60389122763985  6.13265713263377 1.76526171594578  6.13265713263377 1.76526171594578  C 6.13265713263377 1.76526171594578  9.73902757668247 1.56842546651876  9.73902757668247 1.56842546651876  C 9.73902757668247 1.56842546651876  18.3764009664553 3.04022378609859  18.3764009664553 3.04022378609859  C 18.3764009664553 3.04022378609859  23.7116268600178 2.91720113020671  23.7116268600178 2.91720113020671  Z " stroke-width="2" stroke="#505050" fill="none" stroke-opacity="0.211764705882353" transform="matrix(1 0 0 1 1915 1728 )" mask="url(#clip581)" />
  </g>
</svg>