<?xml version="1.0" encoding="utf-8"?>
<svg version="1.1" xmlns:xlink="http://www.w3.org/1999/xlink" width="38px" height="43px" xmlns="http://www.w3.org/2000/svg">
  <defs>
    <mask fill="white" id="clip582">
      <path d="M 33.7672779339277 20.3737882910234  C 33.7672779339277 20.3737882910234  37.8333917857299 32.4865927258919  37.8333917857299 32.4865927258919  C 37.8333917857299 32.4865927258919  37.6737204225578 37.2041371902757  37.6737204225578 37.2041371902757  C 37.6737204225578 37.2041371902757  34.9813308849398 36.2110853118527  34.9813308849398 36.2110853118527  C 34.9813308849398 36.2110853118527  35.4851215652916 41.4788638192478  35.4851215652916 41.4788638192478  C 35.4851215652916 41.4788638192478  33.2772520262633 38.0678511860784  33.2772520262633 38.0678511860784  C 33.2772520262633 38.0678511860784  32.8340263457353 34.7247957454715  32.8340263457353 34.7247957454715  C 32.8340263457353 34.7247957454715  31.3639486227412 31.5527293700241  31.3639486227412 31.5527293700241  C 31.3639486227412 31.5527293700241  28.1402388593965 27.703283236447  28.1402388593965 27.703283236447  C 28.1402388593965 27.703283236447  21.0293572891842 27.4380309687004  21.0293572891842 27.4380309687004  C 21.0293572891842 27.4380309687004  21.7313606962321 30.1672795087364  21.7313606962321 30.1672795087364  C 21.7313606962321 30.1672795087364  17.308760703283 33.8369679071466  17.308760703283 33.8369679071466  C 17.308760703283 33.8369679071466  14.0244859401146 32.5019378984061  14.0244859401146 32.5019378984061  C 14.0244859401146 32.5019378984061  12.9040334433757 33.6988613545182  12.9040334433757 33.6988613545182  C 12.9040334433757 33.6988613545182  10.7181875406468 32.9820225813521  10.7181875406468 32.9820225813521  C 10.7181875406468 32.9820225813521  7.73123186752264 32.3923295233041  7.73123186752264 32.3923295233041  C 7.73123186752264 32.3923295233041  6.52819073466026 26.9447932807422  6.52819073466026 26.9447932807422  C 6.52819073466026 26.9447932807422  3.85507187880421 20.351866616003  3.85507187880421 20.351866616003  C 3.85507187880421 20.351866616003  5.16547823862675 16.3204705797569  5.16547823862675 16.3204705797569  C 5.16547823862675 16.3204705797569  0.416631661539668 14.5250853955884  0.416631661539668 14.5250853955884  C 0.416631661539668 14.5250853955884  2.12896938382846 12.072049960809  2.12896938382846 12.072049960809  C 2.12896938382846 12.072049960809  6.95489868796403 9.5576338359725  6.95489868796403 9.5576338359725  C 6.95489868796403 9.5576338359725  1.38291870418152 5.97343997014166  1.38291870418152 5.97343997014166  C 1.38291870418152 5.97343997014166  4.10834369624899 1.3545430433498  4.10834369624899 1.3545430433498  C 4.10834369624899 1.3545430433498  10.2226557239078 4.29862399858551  10.2226557239078 4.29862399858551  C 10.2226557239078 4.29862399858551  13.9088618495421 4.63402562639727  13.9088618495421 4.63402562639727  C 13.9088618495421 4.63402562639727  14.5888416202902 9.34718575577693  14.5888416202902 9.34718575577693  C 14.5888416202902 9.34718575577693  23.9337243261853 10.2744726091386  23.9337243261853 10.2744726091386  C 23.9337243261853 10.2744726091386  31.0941590780717 10.1736329040447  31.0941590780717 10.1736329040447  C 31.0941590780717 10.1736329040447  35.5429336105781 11.3267130101165  35.5429336105781 11.3267130101165  C 35.5429336105781 11.3267130101165  31.9861163482033 17.0131955104004  31.9861163482033 17.0131955104004  C 31.9861163482033 17.0131955104004  28.5311584037136 17.4012091582612  28.5311584037136 17.4012091582612  C 28.5311584037136 17.4012091582612  26.1498527288263 22.795020199386  26.1498527288263 22.795020199386  C 26.1498527288263 22.795020199386  30.3756379437996 26.241107512588  30.3756379437996 26.241107512588  C 30.3756379437996 26.241107512588  31.636491121948 20.3957099660437  31.636491121948 20.3957099660437  C 31.636491121948 20.3957099660437  33.7672779339277 20.3737882910234  33.7672779339277 20.3737882910234  Z " fill-rule="evenodd" />
    </mask>
  </defs>
  <g transform="matrix(1 0 0 1 -2469 -1868 )">
    <path d="M 33.7672779339277 20.3737882910234  C 33.7672779339277 20.3737882910234  37.8333917857299 32.4865927258919  37.8333917857299 32.4865927258919  C 37.8333917857299 32.4865927258919  37.6737204225578 37.2041371902757  37.6737204225578 37.2041371902757  C 37.6737204225578 37.2041371902757  34.9813308849398 36.2110853118527  34.9813308849398 36.2110853118527  C 34.9813308849398 36.2110853118527  35.4851215652916 41.4788638192478  35.4851215652916 41.4788638192478  C 35.4851215652916 41.4788638192478  33.2772520262633 38.0678511860784  33.2772520262633 38.0678511860784  C 33.2772520262633 38.0678511860784  32.8340263457353 34.7247957454715  32.8340263457353 34.7247957454715  C 32.8340263457353 34.7247957454715  31.3639486227412 31.5527293700241  31.3639486227412 31.5527293700241  C 31.3639486227412 31.5527293700241  28.1402388593965 27.703283236447  28.1402388593965 27.703283236447  C 28.1402388593965 27.703283236447  21.0293572891842 27.4380309687004  21.0293572891842 27.4380309687004  C 21.0293572891842 27.4380309687004  21.7313606962321 30.1672795087364  21.7313606962321 30.1672795087364  C 21.7313606962321 30.1672795087364  17.308760703283 33.8369679071466  17.308760703283 33.8369679071466  C 17.308760703283 33.8369679071466  14.0244859401146 32.5019378984061  14.0244859401146 32.5019378984061  C 14.0244859401146 32.5019378984061  12.9040334433757 33.6988613545182  12.9040334433757 33.6988613545182  C 12.9040334433757 33.6988613545182  10.7181875406468 32.9820225813521  10.7181875406468 32.9820225813521  C 10.7181875406468 32.9820225813521  7.73123186752264 32.3923295233041  7.73123186752264 32.3923295233041  C 7.73123186752264 32.3923295233041  6.52819073466026 26.9447932807422  6.52819073466026 26.9447932807422  C 6.52819073466026 26.9447932807422  3.85507187880421 20.351866616003  3.85507187880421 20.351866616003  C 3.85507187880421 20.351866616003  5.16547823862675 16.3204705797569  5.16547823862675 16.3204705797569  C 5.16547823862675 16.3204705797569  0.416631661539668 14.5250853955884  0.416631661539668 14.5250853955884  C 0.416631661539668 14.5250853955884  2.12896938382846 12.072049960809  2.12896938382846 12.072049960809  C 2.12896938382846 12.072049960809  6.95489868796403 9.5576338359725  6.95489868796403 9.5576338359725  C 6.95489868796403 9.5576338359725  1.38291870418152 5.97343997014166  1.38291870418152 5.97343997014166  C 1.38291870418152 5.97343997014166  4.10834369624899 1.3545430433498  4.10834369624899 1.3545430433498  C 4.10834369624899 1.3545430433498  10.2226557239078 4.29862399858551  10.2226557239078 4.29862399858551  C 10.2226557239078 4.29862399858551  13.9088618495421 4.63402562639727  13.9088618495421 4.63402562639727  C 13.9088618495421 4.63402562639727  14.5888416202902 9.34718575577693  14.5888416202902 9.34718575577693  C 14.5888416202902 9.34718575577693  23.9337243261853 10.2744726091386  23.9337243261853 10.2744726091386  C 23.9337243261853 10.2744726091386  31.0941590780717 10.1736329040447  31.0941590780717 10.1736329040447  C 31.0941590780717 10.1736329040447  35.5429336105781 11.3267130101165  35.5429336105781 11.3267130101165  C 35.5429336105781 11.3267130101165  31.9861163482033 17.0131955104004  31.9861163482033 17.0131955104004  C 31.9861163482033 17.0131955104004  28.5311584037136 17.4012091582612  28.5311584037136 17.4012091582612  C 28.5311584037136 17.4012091582612  26.1498527288263 22.795020199386  26.1498527288263 22.795020199386  C 26.1498527288263 22.795020199386  30.3756379437996 26.241107512588  30.3756379437996 26.241107512588  C 30.3756379437996 26.241107512588  31.636491121948 20.3957099660437  31.636491121948 20.3957099660437  C 31.636491121948 20.3957099660437  33.7672779339277 20.3737882910234  33.7672779339277 20.3737882910234  Z " fill-rule="nonzero" fill="#f2f2f2" stroke="none" transform="matrix(1 0 0 1 2469 1868 )" />
    <path d="M 33.7672779339277 20.3737882910234  C 33.7672779339277 20.3737882910234  37.8333917857299 32.4865927258919  37.8333917857299 32.4865927258919  C 37.8333917857299 32.4865927258919  37.6737204225578 37.2041371902757  37.6737204225578 37.2041371902757  C 37.6737204225578 37.2041371902757  34.9813308849398 36.2110853118527  34.9813308849398 36.2110853118527  C 34.9813308849398 36.2110853118527  35.4851215652916 41.4788638192478  35.4851215652916 41.4788638192478  C 35.4851215652916 41.4788638192478  33.2772520262633 38.0678511860784  33.2772520262633 38.0678511860784  C 33.2772520262633 38.0678511860784  32.8340263457353 34.7247957454715  32.8340263457353 34.7247957454715  C 32.8340263457353 34.7247957454715  31.3639486227412 31.5527293700241  31.3639486227412 31.5527293700241  C 31.3639486227412 31.5527293700241  28.1402388593965 27.703283236447  28.1402388593965 27.703283236447  C 28.1402388593965 27.703283236447  21.0293572891842 27.4380309687004  21.0293572891842 27.4380309687004  C 21.0293572891842 27.4380309687004  21.7313606962321 30.1672795087364  21.7313606962321 30.1672795087364  C 21.7313606962321 30.1672795087364  17.308760703283 33.8369679071466  17.308760703283 33.8369679071466  C 17.308760703283 33.8369679071466  14.0244859401146 32.5019378984061  14.0244859401146 32.5019378984061  C 14.0244859401146 32.5019378984061  12.9040334433757 33.6988613545182  12.9040334433757 33.6988613545182  C 12.9040334433757 33.6988613545182  10.7181875406468 32.9820225813521  10.7181875406468 32.9820225813521  C 10.7181875406468 32.9820225813521  7.73123186752264 32.3923295233041  7.73123186752264 32.3923295233041  C 7.73123186752264 32.3923295233041  6.52819073466026 26.9447932807422  6.52819073466026 26.9447932807422  C 6.52819073466026 26.9447932807422  3.85507187880421 20.351866616003  3.85507187880421 20.351866616003  C 3.85507187880421 20.351866616003  5.16547823862675 16.3204705797569  5.16547823862675 16.3204705797569  C 5.16547823862675 16.3204705797569  0.416631661539668 14.5250853955884  0.416631661539668 14.5250853955884  C 0.416631661539668 14.5250853955884  2.12896938382846 12.072049960809  2.12896938382846 12.072049960809  C 2.12896938382846 12.072049960809  6.95489868796403 9.5576338359725  6.95489868796403 9.5576338359725  C 6.95489868796403 9.5576338359725  1.38291870418152 5.97343997014166  1.38291870418152 5.97343997014166  C 1.38291870418152 5.97343997014166  4.10834369624899 1.3545430433498  4.10834369624899 1.3545430433498  C 4.10834369624899 1.3545430433498  10.2226557239078 4.29862399858551  10.2226557239078 4.29862399858551  C 10.2226557239078 4.29862399858551  13.9088618495421 4.63402562639727  13.9088618495421 4.63402562639727  C 13.9088618495421 4.63402562639727  14.5888416202902 9.34718575577693  14.5888416202902 9.34718575577693  C 14.5888416202902 9.34718575577693  23.9337243261853 10.2744726091386  23.9337243261853 10.2744726091386  C 23.9337243261853 10.2744726091386  31.0941590780717 10.1736329040447  31.0941590780717 10.1736329040447  C 31.0941590780717 10.1736329040447  35.5429336105781 11.3267130101165  35.5429336105781 11.3267130101165  C 35.5429336105781 11.3267130101165  31.9861163482033 17.0131955104004  31.9861163482033 17.0131955104004  C 31.9861163482033 17.0131955104004  28.5311584037136 17.4012091582612  28.5311584037136 17.4012091582612  C 28.5311584037136 17.4012091582612  26.1498527288263 22.795020199386  26.1498527288263 22.795020199386  C 26.1498527288263 22.795020199386  30.3756379437996 26.241107512588  30.3756379437996 26.241107512588  C 30.3756379437996 26.241107512588  31.636491121948 20.3957099660437  31.636491121948 20.3957099660437  C 31.636491121948 20.3957099660437  33.7672779339277 20.3737882910234  33.7672779339277 20.3737882910234  Z " stroke-width="2" stroke="#505050" fill="none" stroke-opacity="0.211764705882353" transform="matrix(1 0 0 1 2469 1868 )" mask="url(#clip582)" />
  </g>
</svg>