<?xml version="1.0" encoding="utf-8"?>
<svg version="1.1" xmlns:xlink="http://www.w3.org/1999/xlink" width="35px" height="21px" xmlns="http://www.w3.org/2000/svg">
  <defs>
    <mask fill="white" id="clip583">
      <path d="M 1.9618070316565 4.15816960526405  C 1.9618070316565 4.15816960526405  8.32963378451298 2.33709017874625  8.32963378451298 2.33709017874625  C 8.32963378451298 2.33709017874625  14.1476793223921 3.06387017663087  14.1476793223921 3.06387017663087  C 14.1476793223921 3.06387017663087  23.569036854439 1.1416196708621  23.569036854439 1.1416196708621  C 23.569036854439 1.1416196708621  28.5992515791028 5.18020397728935  28.5992515791028 5.18020397728935  C 28.5992515791028 5.18020397728935  32.9663281372477 7.31924965288175  32.9663281372477 7.31924965288175  C 32.9663281372477 7.31924965288175  32.0651403724912 14.9473264532273  32.0651403724912 14.9473264532273  C 32.0651403724912 14.9473264532273  29.9935420830662 15.2880045772357  29.9935420830662 15.2880045772357  C 29.9935420830662 15.2880045772357  29.132029251349 20.3052642217236  29.132029251349 20.3052642217236  C 29.132029251349 20.3052642217236  22.1804141980528 16.231579744944  22.1804141980528 16.231579744944  C 22.1804141980528 16.231579744944  16.046408260716 16.9294537201855  16.046408260716 16.9294537201855  C 16.046408260716 16.9294537201855  10.4975854827486 12.682333107547  10.4975854827486 12.682333107547  C 10.4975854827486 12.682333107547  6.80498278627674 7.53191539089917  6.80498278627674 7.53191539089917  C 6.80498278627674 7.53191539089917  3.11238008980514 7.3832558458773  3.11238008980514 7.3832558458773  C 3.11238008980514 7.3832558458773  1.9618070316565 4.15816960526405  1.9618070316565 4.15816960526405  Z " fill-rule="evenodd" />
    </mask>
  </defs>
  <g transform="matrix(1 0 0 1 -1810 -1671 )">
    <path d="M 1.9618070316565 4.15816960526405  C 1.9618070316565 4.15816960526405  8.32963378451298 2.33709017874625  8.32963378451298 2.33709017874625  C 8.32963378451298 2.33709017874625  14.1476793223921 3.06387017663087  14.1476793223921 3.06387017663087  C 14.1476793223921 3.06387017663087  23.569036854439 1.1416196708621  23.569036854439 1.1416196708621  C 23.569036854439 1.1416196708621  28.5992515791028 5.18020397728935  28.5992515791028 5.18020397728935  C 28.5992515791028 5.18020397728935  32.9663281372477 7.31924965288175  32.9663281372477 7.31924965288175  C 32.9663281372477 7.31924965288175  32.0651403724912 14.9473264532273  32.0651403724912 14.9473264532273  C 32.0651403724912 14.9473264532273  29.9935420830662 15.2880045772357  29.9935420830662 15.2880045772357  C 29.9935420830662 15.2880045772357  29.132029251349 20.3052642217236  29.132029251349 20.3052642217236  C 29.132029251349 20.3052642217236  22.1804141980528 16.231579744944  22.1804141980528 16.231579744944  C 22.1804141980528 16.231579744944  16.046408260716 16.9294537201855  16.046408260716 16.9294537201855  C 16.046408260716 16.9294537201855  10.4975854827486 12.682333107547  10.4975854827486 12.682333107547  C 10.4975854827486 12.682333107547  6.80498278627674 7.53191539089917  6.80498278627674 7.53191539089917  C 6.80498278627674 7.53191539089917  3.11238008980514 7.3832558458773  3.11238008980514 7.3832558458773  C 3.11238008980514 7.3832558458773  1.9618070316565 4.15816960526405  1.9618070316565 4.15816960526405  Z " fill-rule="nonzero" fill="#74b9ff" stroke="none" transform="matrix(1 0 0 1 1810 1671 )" />
    <path d="M 1.9618070316565 4.15816960526405  C 1.9618070316565 4.15816960526405  8.32963378451298 2.33709017874625  8.32963378451298 2.33709017874625  C 8.32963378451298 2.33709017874625  14.1476793223921 3.06387017663087  14.1476793223921 3.06387017663087  C 14.1476793223921 3.06387017663087  23.569036854439 1.1416196708621  23.569036854439 1.1416196708621  C 23.569036854439 1.1416196708621  28.5992515791028 5.18020397728935  28.5992515791028 5.18020397728935  C 28.5992515791028 5.18020397728935  32.9663281372477 7.31924965288175  32.9663281372477 7.31924965288175  C 32.9663281372477 7.31924965288175  32.0651403724912 14.9473264532273  32.0651403724912 14.9473264532273  C 32.0651403724912 14.9473264532273  29.9935420830662 15.2880045772357  29.9935420830662 15.2880045772357  C 29.9935420830662 15.2880045772357  29.132029251349 20.3052642217236  29.132029251349 20.3052642217236  C 29.132029251349 20.3052642217236  22.1804141980528 16.231579744944  22.1804141980528 16.231579744944  C 22.1804141980528 16.231579744944  16.046408260716 16.9294537201855  16.046408260716 16.9294537201855  C 16.046408260716 16.9294537201855  10.4975854827486 12.682333107547  10.4975854827486 12.682333107547  C 10.4975854827486 12.682333107547  6.80498278627674 7.53191539089917  6.80498278627674 7.53191539089917  C 6.80498278627674 7.53191539089917  3.11238008980514 7.3832558458773  3.11238008980514 7.3832558458773  C 3.11238008980514 7.3832558458773  1.9618070316565 4.15816960526405  1.9618070316565 4.15816960526405  Z " stroke-width="2" stroke="#505050" fill="none" stroke-opacity="0.211764705882353" transform="matrix(1 0 0 1 1810 1671 )" mask="url(#clip583)" />
  </g>
</svg>