<?xml version="1.0" encoding="utf-8"?>
<svg version="1.1" xmlns:xlink="http://www.w3.org/1999/xlink" width="62px" height="38px" xmlns="http://www.w3.org/2000/svg">
  <defs>
    <mask fill="white" id="clip587">
      <path d="M 19.6231266616107 31.6893675590851  C 19.6231266616107 31.6893675590851  20.677508249451 36.3315371478465  20.677508249451 36.3315371478465  C 20.677508249451 36.3315371478465  15.3945884921 34.7427382604256  15.3945884921 34.7427382604256  C 15.3945884921 34.7427382604256  11.7772062299011 34.9759364510346  11.7772062299011 34.9759364510346  C 11.7772062299011 34.9759364510346  9.07931078320826 36.5255057362972  9.07931078320826 36.5255057362972  C 9.07931078320826 36.5255057362972  5.60783511149407 35.2265700203809  5.60783511149407 35.2265700203809  C 5.60783511149407 35.2265700203809  4.25888738814751 33.1866307081365  4.25888738814751 33.1866307081365  C 4.25888738814751 33.1866307081365  0.787411716433326 31.841927123035  0.787411716433326 31.841927123035  C 0.787411716433326 31.841927123035  0.275362172468931 28.25459794787  0.275362172468931 28.25459794787  C 0.275362172468931 28.25459794787  2.38137239361208 25.6305734479316  2.38137239361208 25.6305734479316  C 2.38137239361208 25.6305734479316  2.20243034867826 23.5317897324495  2.20243034867826 23.5317897324495  C 2.20243034867826 23.5317897324495  8.33050714902402 16.8028402493201  8.33050714902402 16.8028402493201  C 8.33050714902402 16.8028402493201  9.46197146391251 12.5311724587227  9.46197146391251 12.5311724587227  C 9.46197146391251 12.5311724587227  11.5789935032053 11.0077562415658  11.5789935032053 11.0077562415658  C 11.5789935032053 11.0077562415658  15.3092469014393 11.8490132656326  15.3092469014393 11.8490132656326  C 15.3092469014393 11.8490132656326  18.5467214374708 10.5784100401638  18.5467214374708 10.5784100401638  C 18.5467214374708 10.5784100401638  19.5955971162364 8.97217577400585  19.5955971162364 8.97217577400585  C 19.5955971162364 8.97217577400585  25.5832732351726 6.16725921966963  25.5832732351726 6.16725921966963  C 25.5832732351726 6.16725921966963  27.058856867241 4.20795853408428  27.058856867241 4.20795853408428  C 27.058856867241 4.20795853408428  36.2715977553389 1.60136941288315  36.2715977553389 1.60136941288315  C 36.2715977553389 1.60136941288315  40.5221595611492 0.707806252605129  40.5221595611492 0.707806252605129  C 40.5221595611492 0.707806252605129  42.446474782821 1.91302680780916  42.446474782821 1.91302680780916  C 42.446474782821 1.91302680780916  47.3962870411415 1.8846943173617  47.3962870411415 1.8846943173617  C 47.3962870411415 1.8846943173617  46.7851311338295 4.92716790699097  46.7851311338295 4.92716790699097  C 46.7851311338295 4.92716790699097  47.8202420399077 7.78003175285435  47.8202420399077 7.78003175285435  C 47.8202420399077 7.78003175285435  52.1671572545283 11.8599103773431  52.1671572545283 11.8599103773431  C 52.1671572545283 11.8599103773431  52.4094172538232 14.878410321209  52.4094172538232 14.878410321209  C 52.4094172538232 14.878410321209  61.3069663188355 16.290675998917  61.3069663188355 16.290675998917  C 61.3069663188355 16.290675998917  61.1335301829768 22.1282417441104  61.1335301829768 22.1282417441104  C 61.1335301829768 22.1282417441104  59.4459690515248 23.982930157273  59.4459690515248 23.982930157273  C 59.4459690515248 23.982930157273  55.6744213352295 24.5626565002822  55.6744213352295 24.5626565002822  C 55.6744213352295 24.5626565002822  54.0997313398125 27.2694990492221  54.0997313398125 27.2694990492221  C 54.0997313398125 27.2694990492221  51.4458831657187 27.9690936210494  51.4458831657187 27.9690936210494  C 51.4458831657187 27.9690936210494  44.6873797762987 27.8383282805212  44.6873797762987 27.8383282805212  C 44.6873797762987 27.8383282805212  41.1167977412367 27.3457788311971  41.1167977412367 27.3457788311971  C 41.1167977412367 27.3457788311971  38.6253738848518 28.3439542638979  38.6253738848518 28.3439542638979  C 38.6253738848518 28.3439542638979  35.2144632129614 27.8928138390745  35.2144632129614 27.8928138390745  C 35.2144632129614 27.8928138390745  19.8048216610819 28.1848564329215  19.8048216610819 28.1848564329215  C 19.8048216610819 28.1848564329215  19.6231266616107 31.6893675590851  19.6231266616107 31.6893675590851  Z " fill-rule="evenodd" />
    </mask>
  </defs>
  <g transform="matrix(1 0 0 1 -1751 -1941 )">
    <path d="M 19.6231266616107 31.6893675590851  C 19.6231266616107 31.6893675590851  20.677508249451 36.3315371478465  20.677508249451 36.3315371478465  C 20.677508249451 36.3315371478465  15.3945884921 34.7427382604256  15.3945884921 34.7427382604256  C 15.3945884921 34.7427382604256  11.7772062299011 34.9759364510346  11.7772062299011 34.9759364510346  C 11.7772062299011 34.9759364510346  9.07931078320826 36.5255057362972  9.07931078320826 36.5255057362972  C 9.07931078320826 36.5255057362972  5.60783511149407 35.2265700203809  5.60783511149407 35.2265700203809  C 5.60783511149407 35.2265700203809  4.25888738814751 33.1866307081365  4.25888738814751 33.1866307081365  C 4.25888738814751 33.1866307081365  0.787411716433326 31.841927123035  0.787411716433326 31.841927123035  C 0.787411716433326 31.841927123035  0.275362172468931 28.25459794787  0.275362172468931 28.25459794787  C 0.275362172468931 28.25459794787  2.38137239361208 25.6305734479316  2.38137239361208 25.6305734479316  C 2.38137239361208 25.6305734479316  2.20243034867826 23.5317897324495  2.20243034867826 23.5317897324495  C 2.20243034867826 23.5317897324495  8.33050714902402 16.8028402493201  8.33050714902402 16.8028402493201  C 8.33050714902402 16.8028402493201  9.46197146391251 12.5311724587227  9.46197146391251 12.5311724587227  C 9.46197146391251 12.5311724587227  11.5789935032053 11.0077562415658  11.5789935032053 11.0077562415658  C 11.5789935032053 11.0077562415658  15.3092469014393 11.8490132656326  15.3092469014393 11.8490132656326  C 15.3092469014393 11.8490132656326  18.5467214374708 10.5784100401638  18.5467214374708 10.5784100401638  C 18.5467214374708 10.5784100401638  19.5955971162364 8.97217577400585  19.5955971162364 8.97217577400585  C 19.5955971162364 8.97217577400585  25.5832732351726 6.16725921966963  25.5832732351726 6.16725921966963  C 25.5832732351726 6.16725921966963  27.058856867241 4.20795853408428  27.058856867241 4.20795853408428  C 27.058856867241 4.20795853408428  36.2715977553389 1.60136941288315  36.2715977553389 1.60136941288315  C 36.2715977553389 1.60136941288315  40.5221595611492 0.707806252605129  40.5221595611492 0.707806252605129  C 40.5221595611492 0.707806252605129  42.446474782821 1.91302680780916  42.446474782821 1.91302680780916  C 42.446474782821 1.91302680780916  47.3962870411415 1.8846943173617  47.3962870411415 1.8846943173617  C 47.3962870411415 1.8846943173617  46.7851311338295 4.92716790699097  46.7851311338295 4.92716790699097  C 46.7851311338295 4.92716790699097  47.8202420399077 7.78003175285435  47.8202420399077 7.78003175285435  C 47.8202420399077 7.78003175285435  52.1671572545283 11.8599103773431  52.1671572545283 11.8599103773431  C 52.1671572545283 11.8599103773431  52.4094172538232 14.878410321209  52.4094172538232 14.878410321209  C 52.4094172538232 14.878410321209  61.3069663188355 16.290675998917  61.3069663188355 16.290675998917  C 61.3069663188355 16.290675998917  61.1335301829768 22.1282417441104  61.1335301829768 22.1282417441104  C 61.1335301829768 22.1282417441104  59.4459690515248 23.982930157273  59.4459690515248 23.982930157273  C 59.4459690515248 23.982930157273  55.6744213352295 24.5626565002822  55.6744213352295 24.5626565002822  C 55.6744213352295 24.5626565002822  54.0997313398125 27.2694990492221  54.0997313398125 27.2694990492221  C 54.0997313398125 27.2694990492221  51.4458831657187 27.9690936210494  51.4458831657187 27.9690936210494  C 51.4458831657187 27.9690936210494  44.6873797762987 27.8383282805212  44.6873797762987 27.8383282805212  C 44.6873797762987 27.8383282805212  41.1167977412367 27.3457788311971  41.1167977412367 27.3457788311971  C 41.1167977412367 27.3457788311971  38.6253738848518 28.3439542638979  38.6253738848518 28.3439542638979  C 38.6253738848518 28.3439542638979  35.2144632129614 27.8928138390745  35.2144632129614 27.8928138390745  C 35.2144632129614 27.8928138390745  19.8048216610819 28.1848564329215  19.8048216610819 28.1848564329215  C 19.8048216610819 28.1848564329215  19.6231266616107 31.6893675590851  19.6231266616107 31.6893675590851  Z " fill-rule="nonzero" fill="#f2f2f2" stroke="none" transform="matrix(1 0 0 1 1751 1941 )" />
    <path d="M 19.6231266616107 31.6893675590851  C 19.6231266616107 31.6893675590851  20.677508249451 36.3315371478465  20.677508249451 36.3315371478465  C 20.677508249451 36.3315371478465  15.3945884921 34.7427382604256  15.3945884921 34.7427382604256  C 15.3945884921 34.7427382604256  11.7772062299011 34.9759364510346  11.7772062299011 34.9759364510346  C 11.7772062299011 34.9759364510346  9.07931078320826 36.5255057362972  9.07931078320826 36.5255057362972  C 9.07931078320826 36.5255057362972  5.60783511149407 35.2265700203809  5.60783511149407 35.2265700203809  C 5.60783511149407 35.2265700203809  4.25888738814751 33.1866307081365  4.25888738814751 33.1866307081365  C 4.25888738814751 33.1866307081365  0.787411716433326 31.841927123035  0.787411716433326 31.841927123035  C 0.787411716433326 31.841927123035  0.275362172468931 28.25459794787  0.275362172468931 28.25459794787  C 0.275362172468931 28.25459794787  2.38137239361208 25.6305734479316  2.38137239361208 25.6305734479316  C 2.38137239361208 25.6305734479316  2.20243034867826 23.5317897324495  2.20243034867826 23.5317897324495  C 2.20243034867826 23.5317897324495  8.33050714902402 16.8028402493201  8.33050714902402 16.8028402493201  C 8.33050714902402 16.8028402493201  9.46197146391251 12.5311724587227  9.46197146391251 12.5311724587227  C 9.46197146391251 12.5311724587227  11.5789935032053 11.0077562415658  11.5789935032053 11.0077562415658  C 11.5789935032053 11.0077562415658  15.3092469014393 11.8490132656326  15.3092469014393 11.8490132656326  C 15.3092469014393 11.8490132656326  18.5467214374708 10.5784100401638  18.5467214374708 10.5784100401638  C 18.5467214374708 10.5784100401638  19.5955971162364 8.97217577400585  19.5955971162364 8.97217577400585  C 19.5955971162364 8.97217577400585  25.5832732351726 6.16725921966963  25.5832732351726 6.16725921966963  C 25.5832732351726 6.16725921966963  27.058856867241 4.20795853408428  27.058856867241 4.20795853408428  C 27.058856867241 4.20795853408428  36.2715977553389 1.60136941288315  36.2715977553389 1.60136941288315  C 36.2715977553389 1.60136941288315  40.5221595611492 0.707806252605129  40.5221595611492 0.707806252605129  C 40.5221595611492 0.707806252605129  42.446474782821 1.91302680780916  42.446474782821 1.91302680780916  C 42.446474782821 1.91302680780916  47.3962870411415 1.8846943173617  47.3962870411415 1.8846943173617  C 47.3962870411415 1.8846943173617  46.7851311338295 4.92716790699097  46.7851311338295 4.92716790699097  C 46.7851311338295 4.92716790699097  47.8202420399077 7.78003175285435  47.8202420399077 7.78003175285435  C 47.8202420399077 7.78003175285435  52.1671572545283 11.8599103773431  52.1671572545283 11.8599103773431  C 52.1671572545283 11.8599103773431  52.4094172538232 14.878410321209  52.4094172538232 14.878410321209  C 52.4094172538232 14.878410321209  61.3069663188355 16.290675998917  61.3069663188355 16.290675998917  C 61.3069663188355 16.290675998917  61.1335301829768 22.1282417441104  61.1335301829768 22.1282417441104  C 61.1335301829768 22.1282417441104  59.4459690515248 23.982930157273  59.4459690515248 23.982930157273  C 59.4459690515248 23.982930157273  55.6744213352295 24.5626565002822  55.6744213352295 24.5626565002822  C 55.6744213352295 24.5626565002822  54.0997313398125 27.2694990492221  54.0997313398125 27.2694990492221  C 54.0997313398125 27.2694990492221  51.4458831657187 27.9690936210494  51.4458831657187 27.9690936210494  C 51.4458831657187 27.9690936210494  44.6873797762987 27.8383282805212  44.6873797762987 27.8383282805212  C 44.6873797762987 27.8383282805212  41.1167977412367 27.3457788311971  41.1167977412367 27.3457788311971  C 41.1167977412367 27.3457788311971  38.6253738848518 28.3439542638979  38.6253738848518 28.3439542638979  C 38.6253738848518 28.3439542638979  35.2144632129614 27.8928138390745  35.2144632129614 27.8928138390745  C 35.2144632129614 27.8928138390745  19.8048216610819 28.1848564329215  19.8048216610819 28.1848564329215  C 19.8048216610819 28.1848564329215  19.6231266616107 31.6893675590851  19.6231266616107 31.6893675590851  Z " stroke-width="2" stroke="#505050" fill="none" stroke-opacity="0.211764705882353" transform="matrix(1 0 0 1 1751 1941 )" mask="url(#clip587)" />
  </g>
</svg>