<?xml version="1.0" encoding="utf-8"?>
<svg version="1.1" xmlns:xlink="http://www.w3.org/1999/xlink" width="52px" height="28px" xmlns="http://www.w3.org/2000/svg">
  <defs>
    <mask fill="white" id="clip588">
      <path d="M 1.48483018245133 2.47145658597948  C 1.48483018245133 2.47145658597948  3.38987472236113 0.580788586431923  3.38987472236113 0.580788586431923  C 3.38987472236113 0.580788586431923  5.61150903407679 4.0024051926347  5.61150903407679 4.0024051926347  C 5.61150903407679 4.0024051926347  8.6012176617387 3.39430812369758  8.6012176617387 3.39430812369758  C 8.6012176617387 3.39430812369758  14.5338346899259 4.68758498862028  14.5338346899259 4.68758498862028  C 14.5338346899259 4.68758498862028  27.8677485205749 5.12438710856108  27.8677485205749 5.12438710856108  C 27.8677485205749 5.12438710856108  31.6971082821563 3.00889448845569  31.6971082821563 3.00889448845569  C 31.6971082821563 3.00889448845569  40.7846112102518 1.0732615647966  40.7846112102518 1.0732615647966  C 40.7846112102518 1.0732615647966  46.4006384666336 4.09661741458271  46.4006384666336 4.09661741458271  C 46.4006384666336 4.09661741458271  50.9402604988752 4.96593928073937  50.9402604988752 4.96593928073937  C 50.9402604988752 4.96593928073937  46.9347116468971 8.38327351321728  46.9347116468971 8.38327351321728  C 46.9347116468971 8.38327351321728  44.1156862005566 15.7821280164119  44.1156862005566 15.7821280164119  C 44.1156862005566 15.7821280164119  46.604357102404 20.3963857050021  46.604357102404 20.3963857050021  C 46.604357102404 20.3963857050021  39.9587248490195 19.3150863394624  39.9587248490195 19.3150863394624  C 39.9587248490195 19.3150863394624  32.0962866900854 21.8481103977465  32.0962866900854 21.8481103977465  C 32.0962866900854 21.8481103977465  32.0136980539621 25.8285767750499  32.0136980539621 25.8285767750499  C 32.0136980539621 25.8285767750499  22.9964169380225 26.5801333637715  22.9964169380225 26.5801333637715  C 22.9964169380225 26.5801333637715  17.5593317265748 23.7944492557178  17.5593317265748 23.7944492557178  C 17.5593317265748 23.7944492557178  11.3789487900178 25.9870246028716  11.3789487900178 25.9870246028716  C 11.3789487900178 25.9870246028716  5.66932107936304 25.7557764217264  5.66932107936304 25.7557764217264  C 5.66932107936304 25.7557764217264  5.12148312641216 20.4606213108757  5.12148312641216 20.4606213108757  C 5.12148312641216 20.4606213108757  1.25633495584384 17.8719263941677  1.25633495584384 17.8719263941677  C 1.25633495584384 17.8719263941677  2.5254469976046 16.7285326096169  2.5254469976046 16.7285326096169  C 2.5254469976046 16.7285326096169  1.68854881822222 15.7628573346499  1.68854881822222 15.7628573346499  C 1.68854881822222 15.7628573346499  2.98519040535734 11.616465675524  2.98519040535734 11.616465675524  C 2.98519040535734 11.616465675524  5.92809880588266 9.05774737489052  5.92809880588266 9.05774737489052  C 5.92809880588266 9.05774737489052  2.17857472588685 5.50123599635307  2.17857472588685 5.50123599635307  C 2.17857472588685 5.50123599635307  1.48483018245133 2.47145658597948  1.48483018245133 2.47145658597948  Z " fill-rule="evenodd" />
    </mask>
  </defs>
  <g transform="matrix(1 0 0 1 -1964 -1738 )">
    <path d="M 1.48483018245133 2.47145658597948  C 1.48483018245133 2.47145658597948  3.38987472236113 0.580788586431923  3.38987472236113 0.580788586431923  C 3.38987472236113 0.580788586431923  5.61150903407679 4.0024051926347  5.61150903407679 4.0024051926347  C 5.61150903407679 4.0024051926347  8.6012176617387 3.39430812369758  8.6012176617387 3.39430812369758  C 8.6012176617387 3.39430812369758  14.5338346899259 4.68758498862028  14.5338346899259 4.68758498862028  C 14.5338346899259 4.68758498862028  27.8677485205749 5.12438710856108  27.8677485205749 5.12438710856108  C 27.8677485205749 5.12438710856108  31.6971082821563 3.00889448845569  31.6971082821563 3.00889448845569  C 31.6971082821563 3.00889448845569  40.7846112102518 1.0732615647966  40.7846112102518 1.0732615647966  C 40.7846112102518 1.0732615647966  46.4006384666336 4.09661741458271  46.4006384666336 4.09661741458271  C 46.4006384666336 4.09661741458271  50.9402604988752 4.96593928073937  50.9402604988752 4.96593928073937  C 50.9402604988752 4.96593928073937  46.9347116468971 8.38327351321728  46.9347116468971 8.38327351321728  C 46.9347116468971 8.38327351321728  44.1156862005566 15.7821280164119  44.1156862005566 15.7821280164119  C 44.1156862005566 15.7821280164119  46.604357102404 20.3963857050021  46.604357102404 20.3963857050021  C 46.604357102404 20.3963857050021  39.9587248490195 19.3150863394624  39.9587248490195 19.3150863394624  C 39.9587248490195 19.3150863394624  32.0962866900854 21.8481103977465  32.0962866900854 21.8481103977465  C 32.0962866900854 21.8481103977465  32.0136980539621 25.8285767750499  32.0136980539621 25.8285767750499  C 32.0136980539621 25.8285767750499  22.9964169380225 26.5801333637715  22.9964169380225 26.5801333637715  C 22.9964169380225 26.5801333637715  17.5593317265748 23.7944492557178  17.5593317265748 23.7944492557178  C 17.5593317265748 23.7944492557178  11.3789487900178 25.9870246028716  11.3789487900178 25.9870246028716  C 11.3789487900178 25.9870246028716  5.66932107936304 25.7557764217264  5.66932107936304 25.7557764217264  C 5.66932107936304 25.7557764217264  5.12148312641216 20.4606213108757  5.12148312641216 20.4606213108757  C 5.12148312641216 20.4606213108757  1.25633495584384 17.8719263941677  1.25633495584384 17.8719263941677  C 1.25633495584384 17.8719263941677  2.5254469976046 16.7285326096169  2.5254469976046 16.7285326096169  C 2.5254469976046 16.7285326096169  1.68854881822222 15.7628573346499  1.68854881822222 15.7628573346499  C 1.68854881822222 15.7628573346499  2.98519040535734 11.616465675524  2.98519040535734 11.616465675524  C 2.98519040535734 11.616465675524  5.92809880588266 9.05774737489052  5.92809880588266 9.05774737489052  C 5.92809880588266 9.05774737489052  2.17857472588685 5.50123599635307  2.17857472588685 5.50123599635307  C 2.17857472588685 5.50123599635307  1.48483018245133 2.47145658597948  1.48483018245133 2.47145658597948  Z " fill-rule="nonzero" fill="#f2f2f2" stroke="none" transform="matrix(1 0 0 1 1964 1738 )" />
    <path d="M 1.48483018245133 2.47145658597948  C 1.48483018245133 2.47145658597948  3.38987472236113 0.580788586431923  3.38987472236113 0.580788586431923  C 3.38987472236113 0.580788586431923  5.61150903407679 4.0024051926347  5.61150903407679 4.0024051926347  C 5.61150903407679 4.0024051926347  8.6012176617387 3.39430812369758  8.6012176617387 3.39430812369758  C 8.6012176617387 3.39430812369758  14.5338346899259 4.68758498862028  14.5338346899259 4.68758498862028  C 14.5338346899259 4.68758498862028  27.8677485205749 5.12438710856108  27.8677485205749 5.12438710856108  C 27.8677485205749 5.12438710856108  31.6971082821563 3.00889448845569  31.6971082821563 3.00889448845569  C 31.6971082821563 3.00889448845569  40.7846112102518 1.0732615647966  40.7846112102518 1.0732615647966  C 40.7846112102518 1.0732615647966  46.4006384666336 4.09661741458271  46.4006384666336 4.09661741458271  C 46.4006384666336 4.09661741458271  50.9402604988752 4.96593928073937  50.9402604988752 4.96593928073937  C 50.9402604988752 4.96593928073937  46.9347116468971 8.38327351321728  46.9347116468971 8.38327351321728  C 46.9347116468971 8.38327351321728  44.1156862005566 15.7821280164119  44.1156862005566 15.7821280164119  C 44.1156862005566 15.7821280164119  46.604357102404 20.3963857050021  46.604357102404 20.3963857050021  C 46.604357102404 20.3963857050021  39.9587248490195 19.3150863394624  39.9587248490195 19.3150863394624  C 39.9587248490195 19.3150863394624  32.0962866900854 21.8481103977465  32.0962866900854 21.8481103977465  C 32.0962866900854 21.8481103977465  32.0136980539621 25.8285767750499  32.0136980539621 25.8285767750499  C 32.0136980539621 25.8285767750499  22.9964169380225 26.5801333637715  22.9964169380225 26.5801333637715  C 22.9964169380225 26.5801333637715  17.5593317265748 23.7944492557178  17.5593317265748 23.7944492557178  C 17.5593317265748 23.7944492557178  11.3789487900178 25.9870246028716  11.3789487900178 25.9870246028716  C 11.3789487900178 25.9870246028716  5.66932107936304 25.7557764217264  5.66932107936304 25.7557764217264  C 5.66932107936304 25.7557764217264  5.12148312641216 20.4606213108757  5.12148312641216 20.4606213108757  C 5.12148312641216 20.4606213108757  1.25633495584384 17.8719263941677  1.25633495584384 17.8719263941677  C 1.25633495584384 17.8719263941677  2.5254469976046 16.7285326096169  2.5254469976046 16.7285326096169  C 2.5254469976046 16.7285326096169  1.68854881822222 15.7628573346499  1.68854881822222 15.7628573346499  C 1.68854881822222 15.7628573346499  2.98519040535734 11.616465675524  2.98519040535734 11.616465675524  C 2.98519040535734 11.616465675524  5.92809880588266 9.05774737489052  5.92809880588266 9.05774737489052  C 5.92809880588266 9.05774737489052  2.17857472588685 5.50123599635307  2.17857472588685 5.50123599635307  C 2.17857472588685 5.50123599635307  1.48483018245133 2.47145658597948  1.48483018245133 2.47145658597948  Z " stroke-width="2" stroke="#505050" fill="none" stroke-opacity="0.211764705882353" transform="matrix(1 0 0 1 1964 1738 )" mask="url(#clip588)" />
  </g>
</svg>