<?xml version="1.0" encoding="utf-8"?>
<svg version="1.1" xmlns:xlink="http://www.w3.org/1999/xlink" width="16px" height="15px" xmlns="http://www.w3.org/2000/svg">
  <defs>
    <mask fill="white" id="clip589">
      <path d="M 6.1654111538428 13.7629634158692  C 6.1654111538428 13.7629634158692  2.97473684494753 14.0375706309788  2.97473684494753 14.0375706309788  C 2.97473684494753 14.0375706309788  2.4847109372829 5.58567218530402  2.4847109372829 5.58567218530402  C 2.4847109372829 5.58567218530402  0.543877988386384 2.9676124201967  0.543877988386384 2.9676124201967  C 0.543877988386384 2.9676124201967  5.22940661111238 3.41978520297141  5.22940661111238 3.41978520297141  C 5.22940661111238 3.41978520297141  9.59419455877537 0.143081064781313  9.59419455877537 0.143081064781313  C 9.59419455877537 0.143081064781313  13.6960968195638 0.518859359142198  13.6960968195638 0.518859359142198  C 13.6960968195638 0.518859359142198  14.1420754546291 2.78591742072535  14.1420754546291 2.78591742072535  C 14.1420754546291 2.78591742072535  15.8048599952442 4.09081787147272  15.8048599952442 4.09081787147272  C 15.8048599952442 4.09081787147272  15.8764368132177 5.96351519556788  15.8764368132177 5.96351519556788  C 15.8764368132177 5.96351519556788  13.9713922733076 8.66930928296733  13.9713922733076 8.66930928296733  C 13.9713922733076 8.66930928296733  10.967918872959 11.6734709219508  10.967918872959 11.6734709219508  C 10.967918872959 11.6734709219508  6.1654111538428 13.7629634158692  6.1654111538428 13.7629634158692  Z " fill-rule="evenodd" />
    </mask>
  </defs>
  <g transform="matrix(1 0 0 1 -2016 -2047 )">
    <path d="M 6.1654111538428 13.7629634158692  C 6.1654111538428 13.7629634158692  2.97473684494753 14.0375706309788  2.97473684494753 14.0375706309788  C 2.97473684494753 14.0375706309788  2.4847109372829 5.58567218530402  2.4847109372829 5.58567218530402  C 2.4847109372829 5.58567218530402  0.543877988386384 2.9676124201967  0.543877988386384 2.9676124201967  C 0.543877988386384 2.9676124201967  5.22940661111238 3.41978520297141  5.22940661111238 3.41978520297141  C 5.22940661111238 3.41978520297141  9.59419455877537 0.143081064781313  9.59419455877537 0.143081064781313  C 9.59419455877537 0.143081064781313  13.6960968195638 0.518859359142198  13.6960968195638 0.518859359142198  C 13.6960968195638 0.518859359142198  14.1420754546291 2.78591742072535  14.1420754546291 2.78591742072535  C 14.1420754546291 2.78591742072535  15.8048599952442 4.09081787147272  15.8048599952442 4.09081787147272  C 15.8048599952442 4.09081787147272  15.8764368132177 5.96351519556788  15.8764368132177 5.96351519556788  C 15.8764368132177 5.96351519556788  13.9713922733076 8.66930928296733  13.9713922733076 8.66930928296733  C 13.9713922733076 8.66930928296733  10.967918872959 11.6734709219508  10.967918872959 11.6734709219508  C 10.967918872959 11.6734709219508  6.1654111538428 13.7629634158692  6.1654111538428 13.7629634158692  Z " fill-rule="nonzero" fill="#f2f2f2" stroke="none" transform="matrix(1 0 0 1 2016 2047 )" />
    <path d="M 6.1654111538428 13.7629634158692  C 6.1654111538428 13.7629634158692  2.97473684494753 14.0375706309788  2.97473684494753 14.0375706309788  C 2.97473684494753 14.0375706309788  2.4847109372829 5.58567218530402  2.4847109372829 5.58567218530402  C 2.4847109372829 5.58567218530402  0.543877988386384 2.9676124201967  0.543877988386384 2.9676124201967  C 0.543877988386384 2.9676124201967  5.22940661111238 3.41978520297141  5.22940661111238 3.41978520297141  C 5.22940661111238 3.41978520297141  9.59419455877537 0.143081064781313  9.59419455877537 0.143081064781313  C 9.59419455877537 0.143081064781313  13.6960968195638 0.518859359142198  13.6960968195638 0.518859359142198  C 13.6960968195638 0.518859359142198  14.1420754546291 2.78591742072535  14.1420754546291 2.78591742072535  C 14.1420754546291 2.78591742072535  15.8048599952442 4.09081787147272  15.8048599952442 4.09081787147272  C 15.8048599952442 4.09081787147272  15.8764368132177 5.96351519556788  15.8764368132177 5.96351519556788  C 15.8764368132177 5.96351519556788  13.9713922733076 8.66930928296733  13.9713922733076 8.66930928296733  C 13.9713922733076 8.66930928296733  10.967918872959 11.6734709219508  10.967918872959 11.6734709219508  C 10.967918872959 11.6734709219508  6.1654111538428 13.7629634158692  6.1654111538428 13.7629634158692  Z " stroke-width="2" stroke="#505050" fill="none" stroke-opacity="0.211764705882353" transform="matrix(1 0 0 1 2016 2047 )" mask="url(#clip589)" />
  </g>
</svg>