<?xml version="1.0" encoding="utf-8"?>
<svg version="1.1" xmlns:xlink="http://www.w3.org/1999/xlink" width="26px" height="41px" xmlns="http://www.w3.org/2000/svg">
  <defs>
    <mask fill="white" id="clip590">
      <path d="M 17.7227053968925 29.6782623150903  C 17.7227053968925 29.6782623150903  17.2794797163642 39.4958805513754  17.2794797163642 39.4958805513754  C 17.2794797163642 39.4958805513754  8.90088405311144 40.2078369479048  8.90088405311144 40.2078369479048  C 8.90088405311144 40.2078369479048  6.99859246773894 36.0098989269063  6.99859246773894 36.0098989269063  C 6.99859246773894 36.0098989269063  7.35097064853153 21.9878308733129  7.35097064853153 21.9878308733129  C 7.35097064853153 21.9878308733129  5.79555133487702 19.1476193123044  5.79555133487702 19.1476193123044  C 5.79555133487702 19.1476193123044  5.50373815390822 16.1391694172147  5.50373815390822 16.1391694172147  C 5.50373815390822 16.1391694172147  2.82236043443959 13.9881060362375  2.82236043443959 13.9881060362375  C 2.82236043443959 13.9881060362375  0.46307839585188 12.1734854645964  0.46307839585188 12.1734854645964  C 0.46307839585188 12.1734854645964  1.44588316571867 8.93278150112653  1.44588316571867 8.93278150112653  C 1.44588316571867 8.93278150112653  4.09973133981271 8.23601929598638  4.09973133981271 8.23601929598638  C 4.09973133981271 8.23601929598638  5.67442133522945 5.54013562376287  5.67442133522945 5.54013562376287  C 5.67442133522945 5.54013562376287  9.4459690515248 4.96275635096821  9.4459690515248 4.96275635096821  C 9.4459690515248 4.96275635096821  11.1335301829768 3.11557679777798  11.1335301829768 3.11557679777798  C 11.1335301829768 3.11557679777798  15.7240604027095 1.30529742367639  15.7240604027095 1.30529742367639  C 15.7240604027095 1.30529742367639  18.4907797128387 1.28793263351696  18.4907797128387 1.28793263351696  C 18.4907797128387 1.28793263351696  24.3765965138894 4.84554401739323  24.3765965138894 4.84554401739323  C 24.3765965138894 4.84554401739323  24.0765244693082 6.89458925618437  24.0765244693082 6.89458925618437  C 24.0765244693082 6.89458925618437  25.8108858278965 10.5498775847064  25.8108858278965 10.5498775847064  C 25.8108858278965 10.5498775847064  24.2912549232287 13.0265307811692  24.2912549232287 13.0265307811692  C 24.2912549232287 13.0265307811692  25.1061294663114 14.6783564450679  25.1061294663114 14.6783564450679  C 25.1061294663114 14.6783564450679  21.3593583408531 18.4769042924035  21.3593583408531 18.4769042924035  C 21.3593583408531 18.4769042924035  18.9808056205034 21.9313953052954  18.9808056205034 21.9313953052954  C 18.9808056205034 21.9313953052954  17.527245624734 25.7907199181885  17.527245624734 25.7907199181885  C 17.527245624734 25.7907199181885  17.7227053968925 29.6782623150903  17.7227053968925 29.6782623150903  Z " fill-rule="evenodd" />
    </mask>
  </defs>
  <g transform="matrix(1 0 0 1 -1798 -1958 )">
    <path d="M 17.7227053968925 29.6782623150903  C 17.7227053968925 29.6782623150903  17.2794797163642 39.4958805513754  17.2794797163642 39.4958805513754  C 17.2794797163642 39.4958805513754  8.90088405311144 40.2078369479048  8.90088405311144 40.2078369479048  C 8.90088405311144 40.2078369479048  6.99859246773894 36.0098989269063  6.99859246773894 36.0098989269063  C 6.99859246773894 36.0098989269063  7.35097064853153 21.9878308733129  7.35097064853153 21.9878308733129  C 7.35097064853153 21.9878308733129  5.79555133487702 19.1476193123044  5.79555133487702 19.1476193123044  C 5.79555133487702 19.1476193123044  5.50373815390822 16.1391694172147  5.50373815390822 16.1391694172147  C 5.50373815390822 16.1391694172147  2.82236043443959 13.9881060362375  2.82236043443959 13.9881060362375  C 2.82236043443959 13.9881060362375  0.46307839585188 12.1734854645964  0.46307839585188 12.1734854645964  C 0.46307839585188 12.1734854645964  1.44588316571867 8.93278150112653  1.44588316571867 8.93278150112653  C 1.44588316571867 8.93278150112653  4.09973133981271 8.23601929598638  4.09973133981271 8.23601929598638  C 4.09973133981271 8.23601929598638  5.67442133522945 5.54013562376287  5.67442133522945 5.54013562376287  C 5.67442133522945 5.54013562376287  9.4459690515248 4.96275635096821  9.4459690515248 4.96275635096821  C 9.4459690515248 4.96275635096821  11.1335301829768 3.11557679777798  11.1335301829768 3.11557679777798  C 11.1335301829768 3.11557679777798  15.7240604027095 1.30529742367639  15.7240604027095 1.30529742367639  C 15.7240604027095 1.30529742367639  18.4907797128387 1.28793263351696  18.4907797128387 1.28793263351696  C 18.4907797128387 1.28793263351696  24.3765965138894 4.84554401739323  24.3765965138894 4.84554401739323  C 24.3765965138894 4.84554401739323  24.0765244693082 6.89458925618437  24.0765244693082 6.89458925618437  C 24.0765244693082 6.89458925618437  25.8108858278965 10.5498775847064  25.8108858278965 10.5498775847064  C 25.8108858278965 10.5498775847064  24.2912549232287 13.0265307811692  24.2912549232287 13.0265307811692  C 24.2912549232287 13.0265307811692  25.1061294663114 14.6783564450679  25.1061294663114 14.6783564450679  C 25.1061294663114 14.6783564450679  21.3593583408531 18.4769042924035  21.3593583408531 18.4769042924035  C 21.3593583408531 18.4769042924035  18.9808056205034 21.9313953052954  18.9808056205034 21.9313953052954  C 18.9808056205034 21.9313953052954  17.527245624734 25.7907199181885  17.527245624734 25.7907199181885  C 17.527245624734 25.7907199181885  17.7227053968925 29.6782623150903  17.7227053968925 29.6782623150903  Z " fill-rule="nonzero" fill="#f2f2f2" stroke="none" transform="matrix(1 0 0 1 1798 1958 )" />
    <path d="M 17.7227053968925 29.6782623150903  C 17.7227053968925 29.6782623150903  17.2794797163642 39.4958805513754  17.2794797163642 39.4958805513754  C 17.2794797163642 39.4958805513754  8.90088405311144 40.2078369479048  8.90088405311144 40.2078369479048  C 8.90088405311144 40.2078369479048  6.99859246773894 36.0098989269063  6.99859246773894 36.0098989269063  C 6.99859246773894 36.0098989269063  7.35097064853153 21.9878308733129  7.35097064853153 21.9878308733129  C 7.35097064853153 21.9878308733129  5.79555133487702 19.1476193123044  5.79555133487702 19.1476193123044  C 5.79555133487702 19.1476193123044  5.50373815390822 16.1391694172147  5.50373815390822 16.1391694172147  C 5.50373815390822 16.1391694172147  2.82236043443959 13.9881060362375  2.82236043443959 13.9881060362375  C 2.82236043443959 13.9881060362375  0.46307839585188 12.1734854645964  0.46307839585188 12.1734854645964  C 0.46307839585188 12.1734854645964  1.44588316571867 8.93278150112653  1.44588316571867 8.93278150112653  C 1.44588316571867 8.93278150112653  4.09973133981271 8.23601929598638  4.09973133981271 8.23601929598638  C 4.09973133981271 8.23601929598638  5.67442133522945 5.54013562376287  5.67442133522945 5.54013562376287  C 5.67442133522945 5.54013562376287  9.4459690515248 4.96275635096821  9.4459690515248 4.96275635096821  C 9.4459690515248 4.96275635096821  11.1335301829768 3.11557679777798  11.1335301829768 3.11557679777798  C 11.1335301829768 3.11557679777798  15.7240604027095 1.30529742367639  15.7240604027095 1.30529742367639  C 15.7240604027095 1.30529742367639  18.4907797128387 1.28793263351696  18.4907797128387 1.28793263351696  C 18.4907797128387 1.28793263351696  24.3765965138894 4.84554401739323  24.3765965138894 4.84554401739323  C 24.3765965138894 4.84554401739323  24.0765244693082 6.89458925618437  24.0765244693082 6.89458925618437  C 24.0765244693082 6.89458925618437  25.8108858278965 10.5498775847064  25.8108858278965 10.5498775847064  C 25.8108858278965 10.5498775847064  24.2912549232287 13.0265307811692  24.2912549232287 13.0265307811692  C 24.2912549232287 13.0265307811692  25.1061294663114 14.6783564450679  25.1061294663114 14.6783564450679  C 25.1061294663114 14.6783564450679  21.3593583408531 18.4769042924035  21.3593583408531 18.4769042924035  C 21.3593583408531 18.4769042924035  18.9808056205034 21.9313953052954  18.9808056205034 21.9313953052954  C 18.9808056205034 21.9313953052954  17.527245624734 25.7907199181885  17.527245624734 25.7907199181885  C 17.527245624734 25.7907199181885  17.7227053968925 29.6782623150903  17.7227053968925 29.6782623150903  Z " stroke-width="2" stroke="#505050" fill="none" stroke-opacity="0.211764705882353" transform="matrix(1 0 0 1 1798 1958 )" mask="url(#clip590)" />
  </g>
</svg>