<?xml version="1.0" encoding="utf-8"?>
<svg version="1.1" xmlns:xlink="http://www.w3.org/1999/xlink" width="13px" height="12px" xmlns="http://www.w3.org/2000/svg">
  <defs>
    <mask fill="white" id="clip591">
      <path d="M 3.84017850169425 11.5070897801109  C 3.84017850169425 11.5070897801109  0.0316953120213081 8.09263959524352  0.0316953120213081 8.09263959524352  C 0.0316953120213081 8.09263959524352  3.34212314329496 3.91013349853152  3.34212314329496 3.91013349853152  C 3.34212314329496 3.91013349853152  12.6247184634933 0.295110911650357  12.6247184634933 0.295110911650357  C 12.6247184634933 0.295110911650357  12.2489401691322 3.54674349958922  12.2489401691322 3.54674349958922  C 12.2489401691322 3.54674349958922  11.7598319129801 9.47304965616058  11.7598319129801 9.47304965616058  C 11.7598319129801 9.47304965616058  7.76345957612705 9.26303855287603  7.76345957612705 9.26303855287603  C 7.76345957612705 9.26303855287603  3.84017850169425 11.5070897801109  3.84017850169425 11.5070897801109  Z " fill-rule="evenodd" />
    </mask>
  </defs>
  <g transform="matrix(1 0 0 1 -2672 -2000 )">
    <path d="M 3.84017850169425 11.5070897801109  C 3.84017850169425 11.5070897801109  0.0316953120213081 8.09263959524352  0.0316953120213081 8.09263959524352  C 0.0316953120213081 8.09263959524352  3.34212314329496 3.91013349853152  3.34212314329496 3.91013349853152  C 3.34212314329496 3.91013349853152  12.6247184634933 0.295110911650357  12.6247184634933 0.295110911650357  C 12.6247184634933 0.295110911650357  12.2489401691322 3.54674349958922  12.2489401691322 3.54674349958922  C 12.2489401691322 3.54674349958922  11.7598319129801 9.47304965616058  11.7598319129801 9.47304965616058  C 11.7598319129801 9.47304965616058  7.76345957612705 9.26303855287603  7.76345957612705 9.26303855287603  C 7.76345957612705 9.26303855287603  3.84017850169425 11.5070897801109  3.84017850169425 11.5070897801109  Z " fill-rule="nonzero" fill="#f2f2f2" stroke="none" transform="matrix(1 0 0 1 2672 2000 )" />
    <path d="M 3.84017850169425 11.5070897801109  C 3.84017850169425 11.5070897801109  0.0316953120213081 8.09263959524352  0.0316953120213081 8.09263959524352  C 0.0316953120213081 8.09263959524352  3.34212314329496 3.91013349853152  3.34212314329496 3.91013349853152  C 3.34212314329496 3.91013349853152  12.6247184634933 0.295110911650357  12.6247184634933 0.295110911650357  C 12.6247184634933 0.295110911650357  12.2489401691322 3.54674349958922  12.2489401691322 3.54674349958922  C 12.2489401691322 3.54674349958922  11.7598319129801 9.47304965616058  11.7598319129801 9.47304965616058  C 11.7598319129801 9.47304965616058  7.76345957612705 9.26303855287603  7.76345957612705 9.26303855287603  C 7.76345957612705 9.26303855287603  3.84017850169425 11.5070897801109  3.84017850169425 11.5070897801109  Z " stroke-width="2" stroke="#505050" fill="none" stroke-opacity="0.211764705882353" transform="matrix(1 0 0 1 2672 2000 )" mask="url(#clip591)" />
  </g>
</svg>