<?xml version="1.0" encoding="utf-8"?>
<svg version="1.1" xmlns:xlink="http://www.w3.org/1999/xlink" width="97px" height="86px" xmlns="http://www.w3.org/2000/svg">
  <defs>
    <mask fill="white" id="clip592">
      <path d="M 56.0656459712835 80.7460774990489  C 56.0656459712835 80.7460774990489  54.8340078208795 79.3599899163063  54.8340078208795 79.3599899163063  C 54.8340078208795 79.3599899163063  44.1403035837194 79.093103487331  44.1403035837194 79.093103487331  C 44.1403035837194 79.093103487331  41.1620281447995 84.3124550217269  41.1620281447995 84.3124550217269  C 41.1620281447995 84.3124550217269  36.6687287863563 79.6247240353707  36.6687287863563 79.6247240353707  C 36.6687287863563 79.6247240353707  26.6712058353992 78.049233180452  26.6712058353992 78.049233180452  C 26.6712058353992 78.049233180452  20.3059254828683 83.9078207584413  20.3059254828683 83.9078207584413  C 20.3059254828683 83.9078207584413  14.7935273008603 84.8010293715442  14.7935273008603 84.8010293715442  C 14.7935273008603 84.8010293715442  11.8016275461176 75.8689432405169  11.8016275461176 75.8689432405169  C 11.8016275461176 75.8689432405169  7.69525875704925 68.6630096581845  7.69525875704925 68.6630096581845  C 7.69525875704925 68.6630096581845  10.1013129314006 62.4901848331757  10.1013129314006 62.4901848331757  C 10.1013129314006 62.4901848331757  6.09303921625785 59.7997974443121  6.09303921625785 59.7997974443121  C 6.09303921625785 59.7997974443121  5.0739403926935 55.2325958129769  5.0739403926935 55.2325958129769  C 5.0739403926935 55.2325958129769  1.32997840451812 50.945194470084  1.32997840451812 50.945194470084  C 1.32997840451812 50.945194470084  6.14753647955018 44.1740274897916  6.14753647955018 44.1740274897916  C 6.14753647955018 44.1740274897916  2.86135150302946 37.3652118728268  2.86135150302946 37.3652118728268  C 2.86135150302946 37.3652118728268  4.61343851787415 35.2731666392462  4.61343851787415 35.2731666392462  C 4.61343851787415 35.2731666392462  3.24555720923959 32.9701950343789  3.24555720923959 32.9701950343789  C 3.24555720923959 32.9701950343789  6.23200723765304 29.8708687624081  6.23200723765304 29.8708687624081  C 6.23200723765304 29.8708687624081  6.37914984854209 24.6127756496132  6.37914984854209 24.6127756496132  C 6.37914984854209 24.6127756496132  6.75790582842305 20.2823281084982  6.75790582842305 20.2823281084982  C 6.75790582842305 20.2823281084982  8.39827345351861 18.2010444244732  8.39827345351861 18.2010444244732  C 8.39827345351861 18.2010444244732  1.79320514250216 8.34346503167656  1.79320514250216 8.34346503167656  C 1.79320514250216 8.34346503167656  7.47454484071567 8.86001941033841  7.47454484071567 8.86001941033841  C 7.47454484071567 8.86001941033841  11.4092472504139 8.7265761958509  11.4092472504139 8.7265761958509  C 11.4092472504139 8.7265761958509  13.1122867282956 6.87989429213481  13.1122867282956 6.87989429213481  C 13.1122867282956 6.87989429213481  19.7936512079213 4.40904251420253  19.7936512079213 4.40904251420253  C 19.7936512079213 4.40904251420253  23.8182741020515 2.12113707871279  23.8182741020515 2.12113707871279  C 23.8182741020515 2.12113707871279  33.8157970530087 1.09233294121139  33.8157970530087 1.09233294121139  C 33.8157970530087 1.09233294121139  33.0010629667902 5.65522995272392  33.0010629667902 5.65522995272392  C 33.0010629667902 5.65522995272392  33.9411407585808 8.00124775581332  33.9411407585808 8.00124775581332  C 33.9411407585808 8.00124775581332  33.3280465465435 12.0992458265304  33.3280465465435 12.0992458265304  C 33.3280465465435 12.0992458265304  41.6225300196189 17.5919407196342  41.6225300196189 17.5919407196342  C 41.6225300196189 17.5919407196342  52.1581921932316 18.6056786877581  52.1581921932316 18.6056786877581  C 52.1581921932316 18.6056786877581  55.166441126962 20.9021933628921  55.166441126962 20.9021933628921  C 55.166441126962 20.9021933628921  60.3300568238995 22.1225530824807  60.3300568238995 22.1225530824807  C 60.3300568238995 22.1225530824807  63.4908980948481 23.9132749285084  63.4908980948481 23.9132749285084  C 63.4908980948481 23.9132749285084  68.2975567172218 23.8508579410868  68.2975567172218 23.8508579410868  C 68.2975567172218 23.8508579410868  72.7363588123727 25.680321365514  72.7363588123727 25.680321365514  C 72.7363588123727 25.680321365514  73.0715169816199 29.2553081278362  73.0715169816199 29.2553081278362  C 73.0715169816199 29.2553081278362  74.5620171326622 31.0632484531526  74.5620171326622 31.0632484531526  C 74.5620171326622 31.0632484531526  74.660112206588 33.7385696726386  74.660112206588 33.7385696726386  C 74.660112206588 33.7385696726386  72.433899001101 33.841880548371  72.433899001101 33.841880548371  C 72.433899001101 33.841880548371  75.3713014925515 41.0951649487475  75.3713014925515 41.0951649487475  C 75.3713014925515 41.0951649487475  90.0174410023348 41.3534421380782  90.0174410023348 41.3534421380782  C 90.0174410023348 41.3534421380782  88.8975222416796 46.5308068424362  88.8975222416796 46.5308068424362  C 88.8975222416796 46.5308068424362  89.714981191063 49.0081155501022  89.714981191063 49.0081155501022  C 89.714981191063 49.0081155501022  93.889471559247 50.7708573672854  93.889471559247 50.7708573672854  C 93.889471559247 50.7708573672854  95.6933309742193 54.6902137153822  95.6933309742193 54.6902137153822  C 95.6933309742193 54.6902137153822  94.3363491182431 59.6749634694689  94.3363491182431 59.6749634694689  C 94.3363491182431 59.6749634694689  92.2436542078218 62.4579001845093  92.2436542078218 62.4579001845093  C 92.2436542078218 62.4579001845093  92.9793672622669 66.0888470045195  92.9793672622669 66.0888470045195  C 92.9793672622669 66.0888470045195  90.589662266903 67.4082129800185  90.589662266903 67.4082129800185  C 90.589662266903 67.4082129800185  90.4588688350017 65.4410017212814  90.4588688350017 65.4410017212814  C 90.4588688350017 65.4410017212814  83.3415262490383 62.1824045158896  83.3415262490383 62.1824045158896  C 83.3415262490383 62.1824045158896  76.2459825683915 62.0941598095348  76.2459825683915 62.0941598095348  C 76.2459825683915 62.0941598095348  62.9323011461029 63.9451463330732  62.9323011461029 63.9451463330732  C 62.9323011461029 63.9451463330732  59.2673601897014 69.5648275109317  59.2673601897014 69.5648275109317  C 59.2673601897014 69.5648275109317  59.0766197681786 73.0171326083213  59.0766197681786 73.0171326083213  C 59.0766197681786 73.0171326083213  56.0656459712835 80.7460774990489  56.0656459712835 80.7460774990489  Z " fill-rule="evenodd" />
    </mask>
  </defs>
  <g transform="matrix(1 0 0 1 -1256 -2090 )">
    <path d="M 56.0656459712835 80.7460774990489  C 56.0656459712835 80.7460774990489  54.8340078208795 79.3599899163063  54.8340078208795 79.3599899163063  C 54.8340078208795 79.3599899163063  44.1403035837194 79.093103487331  44.1403035837194 79.093103487331  C 44.1403035837194 79.093103487331  41.1620281447995 84.3124550217269  41.1620281447995 84.3124550217269  C 41.1620281447995 84.3124550217269  36.6687287863563 79.6247240353707  36.6687287863563 79.6247240353707  C 36.6687287863563 79.6247240353707  26.6712058353992 78.049233180452  26.6712058353992 78.049233180452  C 26.6712058353992 78.049233180452  20.3059254828683 83.9078207584413  20.3059254828683 83.9078207584413  C 20.3059254828683 83.9078207584413  14.7935273008603 84.8010293715442  14.7935273008603 84.8010293715442  C 14.7935273008603 84.8010293715442  11.8016275461176 75.8689432405169  11.8016275461176 75.8689432405169  C 11.8016275461176 75.8689432405169  7.69525875704925 68.6630096581845  7.69525875704925 68.6630096581845  C 7.69525875704925 68.6630096581845  10.1013129314006 62.4901848331757  10.1013129314006 62.4901848331757  C 10.1013129314006 62.4901848331757  6.09303921625785 59.7997974443121  6.09303921625785 59.7997974443121  C 6.09303921625785 59.7997974443121  5.0739403926935 55.2325958129769  5.0739403926935 55.2325958129769  C 5.0739403926935 55.2325958129769  1.32997840451812 50.945194470084  1.32997840451812 50.945194470084  C 1.32997840451812 50.945194470084  6.14753647955018 44.1740274897916  6.14753647955018 44.1740274897916  C 6.14753647955018 44.1740274897916  2.86135150302946 37.3652118728268  2.86135150302946 37.3652118728268  C 2.86135150302946 37.3652118728268  4.61343851787415 35.2731666392462  4.61343851787415 35.2731666392462  C 4.61343851787415 35.2731666392462  3.24555720923959 32.9701950343789  3.24555720923959 32.9701950343789  C 3.24555720923959 32.9701950343789  6.23200723765304 29.8708687624081  6.23200723765304 29.8708687624081  C 6.23200723765304 29.8708687624081  6.37914984854209 24.6127756496132  6.37914984854209 24.6127756496132  C 6.37914984854209 24.6127756496132  6.75790582842305 20.2823281084982  6.75790582842305 20.2823281084982  C 6.75790582842305 20.2823281084982  8.39827345351861 18.2010444244732  8.39827345351861 18.2010444244732  C 8.39827345351861 18.2010444244732  1.79320514250216 8.34346503167656  1.79320514250216 8.34346503167656  C 1.79320514250216 8.34346503167656  7.47454484071567 8.86001941033841  7.47454484071567 8.86001941033841  C 7.47454484071567 8.86001941033841  11.4092472504139 8.7265761958509  11.4092472504139 8.7265761958509  C 11.4092472504139 8.7265761958509  13.1122867282956 6.87989429213481  13.1122867282956 6.87989429213481  C 13.1122867282956 6.87989429213481  19.7936512079213 4.40904251420253  19.7936512079213 4.40904251420253  C 19.7936512079213 4.40904251420253  23.8182741020515 2.12113707871279  23.8182741020515 2.12113707871279  C 23.8182741020515 2.12113707871279  33.8157970530087 1.09233294121139  33.8157970530087 1.09233294121139  C 33.8157970530087 1.09233294121139  33.0010629667902 5.65522995272392  33.0010629667902 5.65522995272392  C 33.0010629667902 5.65522995272392  33.9411407585808 8.00124775581332  33.9411407585808 8.00124775581332  C 33.9411407585808 8.00124775581332  33.3280465465435 12.0992458265304  33.3280465465435 12.0992458265304  C 33.3280465465435 12.0992458265304  41.6225300196189 17.5919407196342  41.6225300196189 17.5919407196342  C 41.6225300196189 17.5919407196342  52.1581921932316 18.6056786877581  52.1581921932316 18.6056786877581  C 52.1581921932316 18.6056786877581  55.166441126962 20.9021933628921  55.166441126962 20.9021933628921  C 55.166441126962 20.9021933628921  60.3300568238995 22.1225530824807  60.3300568238995 22.1225530824807  C 60.3300568238995 22.1225530824807  63.4908980948481 23.9132749285084  63.4908980948481 23.9132749285084  C 63.4908980948481 23.9132749285084  68.2975567172218 23.8508579410868  68.2975567172218 23.8508579410868  C 68.2975567172218 23.8508579410868  72.7363588123727 25.680321365514  72.7363588123727 25.680321365514  C 72.7363588123727 25.680321365514  73.0715169816199 29.2553081278362  73.0715169816199 29.2553081278362  C 73.0715169816199 29.2553081278362  74.5620171326622 31.0632484531526  74.5620171326622 31.0632484531526  C 74.5620171326622 31.0632484531526  74.660112206588 33.7385696726386  74.660112206588 33.7385696726386  C 74.660112206588 33.7385696726386  72.433899001101 33.841880548371  72.433899001101 33.841880548371  C 72.433899001101 33.841880548371  75.3713014925515 41.0951649487475  75.3713014925515 41.0951649487475  C 75.3713014925515 41.0951649487475  90.0174410023348 41.3534421380782  90.0174410023348 41.3534421380782  C 90.0174410023348 41.3534421380782  88.8975222416796 46.5308068424362  88.8975222416796 46.5308068424362  C 88.8975222416796 46.5308068424362  89.714981191063 49.0081155501022  89.714981191063 49.0081155501022  C 89.714981191063 49.0081155501022  93.889471559247 50.7708573672854  93.889471559247 50.7708573672854  C 93.889471559247 50.7708573672854  95.6933309742193 54.6902137153822  95.6933309742193 54.6902137153822  C 95.6933309742193 54.6902137153822  94.3363491182431 59.6749634694689  94.3363491182431 59.6749634694689  C 94.3363491182431 59.6749634694689  92.2436542078218 62.4579001845093  92.2436542078218 62.4579001845093  C 92.2436542078218 62.4579001845093  92.9793672622669 66.0888470045195  92.9793672622669 66.0888470045195  C 92.9793672622669 66.0888470045195  90.589662266903 67.4082129800185  90.589662266903 67.4082129800185  C 90.589662266903 67.4082129800185  90.4588688350017 65.4410017212814  90.4588688350017 65.4410017212814  C 90.4588688350017 65.4410017212814  83.3415262490383 62.1824045158896  83.3415262490383 62.1824045158896  C 83.3415262490383 62.1824045158896  76.2459825683915 62.0941598095348  76.2459825683915 62.0941598095348  C 76.2459825683915 62.0941598095348  62.9323011461029 63.9451463330732  62.9323011461029 63.9451463330732  C 62.9323011461029 63.9451463330732  59.2673601897014 69.5648275109317  59.2673601897014 69.5648275109317  C 59.2673601897014 69.5648275109317  59.0766197681786 73.0171326083213  59.0766197681786 73.0171326083213  C 59.0766197681786 73.0171326083213  56.0656459712835 80.7460774990489  56.0656459712835 80.7460774990489  Z " fill-rule="nonzero" fill="#f2f2f2" stroke="none" transform="matrix(1 0 0 1 1256 2090 )" />
    <path d="M 56.0656459712835 80.7460774990489  C 56.0656459712835 80.7460774990489  54.8340078208795 79.3599899163063  54.8340078208795 79.3599899163063  C 54.8340078208795 79.3599899163063  44.1403035837194 79.093103487331  44.1403035837194 79.093103487331  C 44.1403035837194 79.093103487331  41.1620281447995 84.3124550217269  41.1620281447995 84.3124550217269  C 41.1620281447995 84.3124550217269  36.6687287863563 79.6247240353707  36.6687287863563 79.6247240353707  C 36.6687287863563 79.6247240353707  26.6712058353992 78.049233180452  26.6712058353992 78.049233180452  C 26.6712058353992 78.049233180452  20.3059254828683 83.9078207584413  20.3059254828683 83.9078207584413  C 20.3059254828683 83.9078207584413  14.7935273008603 84.8010293715442  14.7935273008603 84.8010293715442  C 14.7935273008603 84.8010293715442  11.8016275461176 75.8689432405169  11.8016275461176 75.8689432405169  C 11.8016275461176 75.8689432405169  7.69525875704925 68.6630096581845  7.69525875704925 68.6630096581845  C 7.69525875704925 68.6630096581845  10.1013129314006 62.4901848331757  10.1013129314006 62.4901848331757  C 10.1013129314006 62.4901848331757  6.09303921625785 59.7997974443121  6.09303921625785 59.7997974443121  C 6.09303921625785 59.7997974443121  5.0739403926935 55.2325958129769  5.0739403926935 55.2325958129769  C 5.0739403926935 55.2325958129769  1.32997840451812 50.945194470084  1.32997840451812 50.945194470084  C 1.32997840451812 50.945194470084  6.14753647955018 44.1740274897916  6.14753647955018 44.1740274897916  C 6.14753647955018 44.1740274897916  2.86135150302946 37.3652118728268  2.86135150302946 37.3652118728268  C 2.86135150302946 37.3652118728268  4.61343851787415 35.2731666392462  4.61343851787415 35.2731666392462  C 4.61343851787415 35.2731666392462  3.24555720923959 32.9701950343789  3.24555720923959 32.9701950343789  C 3.24555720923959 32.9701950343789  6.23200723765304 29.8708687624081  6.23200723765304 29.8708687624081  C 6.23200723765304 29.8708687624081  6.37914984854209 24.6127756496132  6.37914984854209 24.6127756496132  C 6.37914984854209 24.6127756496132  6.75790582842305 20.2823281084982  6.75790582842305 20.2823281084982  C 6.75790582842305 20.2823281084982  8.39827345351861 18.2010444244732  8.39827345351861 18.2010444244732  C 8.39827345351861 18.2010444244732  1.79320514250216 8.34346503167656  1.79320514250216 8.34346503167656  C 1.79320514250216 8.34346503167656  7.47454484071567 8.86001941033841  7.47454484071567 8.86001941033841  C 7.47454484071567 8.86001941033841  11.4092472504139 8.7265761958509  11.4092472504139 8.7265761958509  C 11.4092472504139 8.7265761958509  13.1122867282956 6.87989429213481  13.1122867282956 6.87989429213481  C 13.1122867282956 6.87989429213481  19.7936512079213 4.40904251420253  19.7936512079213 4.40904251420253  C 19.7936512079213 4.40904251420253  23.8182741020515 2.12113707871279  23.8182741020515 2.12113707871279  C 23.8182741020515 2.12113707871279  33.8157970530087 1.09233294121139  33.8157970530087 1.09233294121139  C 33.8157970530087 1.09233294121139  33.0010629667902 5.65522995272392  33.0010629667902 5.65522995272392  C 33.0010629667902 5.65522995272392  33.9411407585808 8.00124775581332  33.9411407585808 8.00124775581332  C 33.9411407585808 8.00124775581332  33.3280465465435 12.0992458265304  33.3280465465435 12.0992458265304  C 33.3280465465435 12.0992458265304  41.6225300196189 17.5919407196342  41.6225300196189 17.5919407196342  C 41.6225300196189 17.5919407196342  52.1581921932316 18.6056786877581  52.1581921932316 18.6056786877581  C 52.1581921932316 18.6056786877581  55.166441126962 20.9021933628921  55.166441126962 20.9021933628921  C 55.166441126962 20.9021933628921  60.3300568238995 22.1225530824807  60.3300568238995 22.1225530824807  C 60.3300568238995 22.1225530824807  63.4908980948481 23.9132749285084  63.4908980948481 23.9132749285084  C 63.4908980948481 23.9132749285084  68.2975567172218 23.8508579410868  68.2975567172218 23.8508579410868  C 68.2975567172218 23.8508579410868  72.7363588123727 25.680321365514  72.7363588123727 25.680321365514  C 72.7363588123727 25.680321365514  73.0715169816199 29.2553081278362  73.0715169816199 29.2553081278362  C 73.0715169816199 29.2553081278362  74.5620171326622 31.0632484531526  74.5620171326622 31.0632484531526  C 74.5620171326622 31.0632484531526  74.660112206588 33.7385696726386  74.660112206588 33.7385696726386  C 74.660112206588 33.7385696726386  72.433899001101 33.841880548371  72.433899001101 33.841880548371  C 72.433899001101 33.841880548371  75.3713014925515 41.0951649487475  75.3713014925515 41.0951649487475  C 75.3713014925515 41.0951649487475  90.0174410023348 41.3534421380782  90.0174410023348 41.3534421380782  C 90.0174410023348 41.3534421380782  88.8975222416796 46.5308068424362  88.8975222416796 46.5308068424362  C 88.8975222416796 46.5308068424362  89.714981191063 49.0081155501022  89.714981191063 49.0081155501022  C 89.714981191063 49.0081155501022  93.889471559247 50.7708573672854  93.889471559247 50.7708573672854  C 93.889471559247 50.7708573672854  95.6933309742193 54.6902137153822  95.6933309742193 54.6902137153822  C 95.6933309742193 54.6902137153822  94.3363491182431 59.6749634694689  94.3363491182431 59.6749634694689  C 94.3363491182431 59.6749634694689  92.2436542078218 62.4579001845093  92.2436542078218 62.4579001845093  C 92.2436542078218 62.4579001845093  92.9793672622669 66.0888470045195  92.9793672622669 66.0888470045195  C 92.9793672622669 66.0888470045195  90.589662266903 67.4082129800185  90.589662266903 67.4082129800185  C 90.589662266903 67.4082129800185  90.4588688350017 65.4410017212814  90.4588688350017 65.4410017212814  C 90.4588688350017 65.4410017212814  83.3415262490383 62.1824045158896  83.3415262490383 62.1824045158896  C 83.3415262490383 62.1824045158896  76.2459825683915 62.0941598095348  76.2459825683915 62.0941598095348  C 76.2459825683915 62.0941598095348  62.9323011461029 63.9451463330732  62.9323011461029 63.9451463330732  C 62.9323011461029 63.9451463330732  59.2673601897014 69.5648275109317  59.2673601897014 69.5648275109317  C 59.2673601897014 69.5648275109317  59.0766197681786 73.0171326083213  59.0766197681786 73.0171326083213  C 59.0766197681786 73.0171326083213  56.0656459712835 80.7460774990489  56.0656459712835 80.7460774990489  Z " stroke-width="2" stroke="#505050" fill="none" stroke-opacity="0.211764705882353" transform="matrix(1 0 0 1 1256 2090 )" mask="url(#clip592)" />
  </g>
</svg>