<?xml version="1.0" encoding="utf-8"?>
<svg version="1.1" xmlns:xlink="http://www.w3.org/1999/xlink" width="307px" height="249px" xmlns="http://www.w3.org/2000/svg">
  <defs>
    <mask fill="white" id="clip593">
      <path d="M 132.279308376354 223.015389254129  C 132.279308376354 223.015389254129  127.287942593213 223.752286359939  127.287942593213 223.752286359939  C 127.287942593213 223.752286359939  137.550563829577 214.386838259356  137.550563829577 214.386838259356  C 137.550563829577 214.386838259356  146.235375651259 207.793322876559  146.235375651259 207.793322876559  C 146.235375651259 207.793322876559  151.402358482295 205.047095871768  151.402358482295 205.047095871768  C 151.402358482295 205.047095871768  159.874487633302 201.345473200723  159.874487633302 201.345473200723  C 159.874487633302 201.345473200723  160.030896566584 196.0115377546  160.030896566584 196.0115377546  C 160.030896566584 196.0115377546  156.170065529267 192.181386518589  156.170065529267 192.181386518589  C 156.170065529267 192.181386518589  150.367864309538 193.451677169011  150.367864309538 193.451677169011  C 150.367864309538 193.451677169011  151.877073314886 189.632236646747  151.877073314886 189.632236646747  C 151.877073314886 189.632236646747  154.913306030269 185.739963271002  154.913306030269 185.739963271002  C 154.913306030269 185.739963271002  154.916050046642 182.136879166433  154.916050046642 182.136879166433  C 154.916050046642 182.136879166433  150.156575048789 180.952274225988  150.156575048789 180.952274225988  C 150.156575048789 180.952274225988  147.269869824016 182.008350601466  147.269869824016 182.008350601466  C 147.269869824016 182.008350601466  144.399628697482 181.717019187541  144.399628697482 181.717019187541  C 144.399628697482 181.717019187541  143.502335343393 179.206427885189  143.502335343393 179.206427885189  C 143.502335343393 179.206427885189  142.786147069947 173.255555327225  142.786147069947 173.255555327225  C 142.786147069947 173.255555327225  141.345538473933 171.323342567224  141.345538473933 171.323342567224  C 141.345538473933 171.323342567224  136.14837146279 169.577496226425  136.14837146279 169.577496226425  C 136.14837146279 169.577496226425  133.009216731667 170.841360448599  133.009216731667 170.841360448599  C 133.009216731667 170.841360448599  124.886928266524 169.603201939418  124.886928266524 169.603201939418  C 124.886928266524 169.603201939418  125.397315311969 160.895391662916  125.397315311969 160.895391662916  C 125.397315311969 160.895391662916  123.122525738454 157.352287555331  123.122525738454 157.352287555331  C 123.122525738454 157.352287555331  125.52902809789 156.03915404992  125.52902809789 156.03915404992  C 125.52902809789 156.03915404992  124.788143677083 152.425359231603  124.788143677083 152.425359231603  C 124.788143677083 152.425359231603  126.895548251823 149.655568656568  126.895548251823 149.655568656568  C 126.895548251823 149.655568656568  128.262068405756 144.694366048849  128.262068405756 144.694366048849  C 128.262068405756 144.694366048849  126.445529566592 140.793524102106  126.445529566592 140.793524102106  C 126.445529566592 140.793524102106  122.241696482606 139.039109190309  122.241696482606 139.039109190309  C 122.241696482606 139.039109190309  121.418491570598 136.573502885695  121.418491570598 136.573502885695  C 121.418491570598 136.573502885695  122.546282300048 132.976845209374  122.546282300048 132.976845209374  C 122.546282300048 132.976845209374  107.797194293242 132.71978807944  107.797194293242 132.71978807944  C 107.797194293242 132.71978807944  104.839144642761 123.944517013804  104.839144642761 123.944517013804  C 104.839144642761 123.944517013804  107.081006019795 123.84169416183  107.081006019795 123.84169416183  C 107.081006019795 123.84169416183  106.982221430355 121.179010724268  106.982221430355 121.179010724268  C 106.982221430355 121.179010724268  105.481244474127 119.379610814732  105.481244474127 119.379610814732  C 105.481244474127 119.379610814732  105.143730460204 115.821511707901  105.143730460204 115.821511707901  C 105.143730460204 115.821511707901  100.673727788002 114.000690370871  100.673727788002 114.000690370871  C 100.673727788002 114.000690370871  95.8332829053959 114.062812510605  95.8332829053959 114.062812510605  C 95.8332829053959 114.062812510605  92.6502239122989 112.280549743065  92.6502239122989 112.280549743065  C 92.6502239122989 112.280549743065  87.450312884783 111.065954804128  87.450312884783 111.065954804128  C 87.450312884783 111.065954804128  84.4209188085944 108.780288490469  84.4209188085944 108.780288490469  C 84.4209188085944 108.780288490469  75.8047073962463 107.771339255479  75.8047073962463 107.771339255479  C 75.8047073962463 107.771339255479  67.4519215557406 102.304590958891  67.4519215557406 102.304590958891  C 67.4519215557406 102.304590958891  68.0693252397464 98.2259511639436  68.0693252397464 98.2259511639436  C 68.0693252397464 98.2259511639436  67.1226395909375 95.8910155670461  67.1226395909375 95.8910155670461  C 67.1226395909375 95.8910155670461  67.9431004865718 91.3496729382187  67.9431004865718 91.3496729382187  C 67.9431004865718 91.3496729382187  57.8753044127166 92.3736171724543  57.8753044127166 92.3736171724543  C 57.8753044127166 92.3736171724543  53.822392229265 94.6507149151165  53.822392229265 94.6507149151165  C 53.822392229265 94.6507149151165  47.0940640817881 97.1098947914816  47.0940640817881 97.1098947914816  C 47.0940640817881 97.1098947914816  45.3790538484386 98.9478532705071  45.3790538484386 98.9478532705071  C 45.3790538484386 98.9478532705071  41.4166942053077 99.0806661209727  41.4166942053077 99.0806661209727  C 41.4166942053077 99.0806661209727  35.6954200668537 98.5665518611054  35.6954200668537 98.5665518611054  C 35.6954200668537 98.5665518611054  31.3543861641992 99.6119175228354  31.3543861641992 99.6119175228354  C 31.3543861641992 99.6119175228354  27.8557652881661 98.913578986516  27.8557652881661 98.913578986516  C 27.8557652881661 98.913578986516  28.3688963499843 89.702365163894  28.3688963499843 89.702365163894  C 28.3688963499843 89.702365163894  22.0576586912579 93.2711749844727  22.0576586912579 93.2711749844727  C 22.0576586912579 93.2711749844727  15.2662181671936 93.114798563763  15.2662181671936 93.114798563763  C 15.2662181671936 93.114798563763  12.3575608114327 89.8844472975968  12.3575608114327 89.8844472975968  C 12.3575608114327 89.8844472975968  7.25094634061102 89.5331358866876  7.25094634061102 89.5331358866876  C 7.25094634061102 89.5331358866876  8.87814805001327 86.936858874358  8.87814805001327 86.936858874358  C 8.87814805001327 86.936858874358  4.6029705403194 83.2652262018059  4.6029705403194 83.2652262018059  C 4.6029705403194 83.2652262018059  1.40070343260899 77.8391786174565  1.40070343260899 77.8391786174565  C 1.40070343260899 77.8391786174565  3.42853153252166 76.7381172442409  3.42853153252166 76.7381172442409  C 3.42853153252166 76.7381172442409  3.423043499775 74.1996780861462  3.423043499775 74.1996780861462  C 3.423043499775 74.1996780861462  8.07140723624553 72.4645424590941  8.07140723624553 72.4645424590941  C 8.07140723624553 72.4645424590941  7.30582666807832 69.2170540509326  7.30582666807832 69.2170540509326  C 7.30582666807832 69.2170540509326  9.26779837503014 67.1306070129712  9.26779837503014 67.1306070129712  C 9.26779837503014 67.1306070129712  9.82757771519558 64.3329685821933  9.82757771519558 64.3329685821933  C 9.82757771519558 64.3329685821933  18.6248942081854 60.2586130727451  18.6248942081854 60.2586130727451  C 18.6248942081854 60.2586130727451  24.9306438341652 59.1061402735426  24.9306438341652 59.1061402735426  C 24.9306438341652 59.1061402735426  25.9623939905481 58.2064403187749  25.9623939905481 58.2064403187749  C 25.9623939905481 58.2064403187749  32.8965233660269 58.4870610189525  32.8965233660269 58.4870610189525  C 32.8965233660269 58.4870610189525  36.3539839964597 42.1060954139318  36.3539839964597 42.1060954139318  C 36.3539839964597 42.1060954139318  36.5350890771014 39.5183869725995  36.5350890771014 39.5183869725995  C 36.5350890771014 39.5183869725995  35.3304658891967 36.1016692872315  35.3304658891967 36.1016692872315  C 35.3304658891967 36.1016692872315  31.9169095207378 33.9252522537938  31.9169095207378 33.9252522537938  C 31.9169095207378 33.9252522537938  31.9553257499649 29.589555328913  31.9553257499649 29.589555328913  C 31.9553257499649 29.589555328913  36.2908716198725 28.6063118069166  36.2908716198725 28.6063118069166  C 36.2908716198725 28.6063118069166  37.8275207889536 29.225391061507  37.8275207889536 29.225391061507  C 37.8275207889536 29.225391061507  38.0882023444227 26.9397247478471  38.0882023444227 26.9397247478471  C 38.0882023444227 26.9397247478471  33.5797834429935 26.3227876360064  33.5797834429935 26.3227876360064  C 33.5797834429935 26.3227876360064  33.4864868862993 22.5868906809706  33.4864868862993 22.5868906809706  C 33.4864868862993 22.5868906809706  48.4743043175876 22.7218456741859  48.4743043175876 22.7218456741859  C 48.4743043175876 22.7218456741859  51.0207515120652 20.6632464919673  51.0207515120652 20.6632464919673  C 51.0207515120652 20.6632464919673  53.158340266912 22.5569006824785  53.158340266912 22.5569006824785  C 53.158340266912 22.5569006824785  54.6565732067662 26.0764412198199  54.6565732067662 26.0764412198199  C 54.6565732067662 26.0764412198199  56.1109018846467 25.3416862567596  56.1109018846467 25.3416862567596  C 56.1109018846467 25.3416862567596  60.34491914874 28.4970625266951  60.34491914874 28.4970625266951  C 60.34491914874 28.4970625266951  66.3268748426633 28.1114768317944  66.3268748426633 28.1114768317944  C 66.3268748426633 28.1114768317944  67.8168757333974 26.2842290665162  67.8168757333974 26.2842290665162  C 67.8168757333974 26.2842290665162  73.5381498718516 24.8918362793756  73.5381498718516 24.8918362793756  C 73.5381498718516 24.8918362793756  76.7074887830814 23.9128770428782  76.7074887830814 23.9128770428782  C 76.7074887830814 23.9128770428782  77.5992941044232 21.3851485985309  77.5992941044232 21.3851485985309  C 77.5992941044232 21.3851485985309  83.095558900262 19.6864293982196  83.095558900262 19.6864293982196  C 83.095558900262 19.6864293982196  82.6812124278846 18.4311337470437  82.6812124278846 18.4311337470437  C 82.6812124278846 18.4311337470437  76.1614295247829 17.9191616299257  76.1614295247829 17.9191616299257  C 76.1614295247829 17.9191616299257  75.0940071555464 14.1554168191475  75.0940071555464 14.1554168191475  C 75.0940071555464 14.1554168191475  75.4040810057358 10.1496098776815  75.4040810057358 10.1496098776815  C 75.4040810057358 10.1496098776815  71.9603404571698 8.59869852708192  71.9603404571698 8.59869852708192  C 71.9603404571698 8.59869852708192  73.4036930695569 8.04816784047413  73.4036930695569 8.04816784047413  C 73.4036930695569 8.04816784047413  79.1002710606508 8.81291280202655  79.1002710606508 8.81291280202655  C 79.1002710606508 8.81291280202655  85.2166835568686 10.3081284411406  85.2166835568686 10.3081284411406  C 85.2166835568686 10.3081284411406  87.4365928029163 8.89431422650558  87.4365928029163 8.89431422650558  C 87.4365928029163 8.89431422650558  92.9712738279819 7.96676641599509  92.9712738279819 7.96676641599509  C 92.9712738279819 7.96676641599509  101.576509174837 5.72608510007373  101.576509174837 5.72608510007373  C 101.576509174837 5.72608510007373  104.38912595753 3.44256092916316  104.38912595753 3.44256092916316  C 104.38912595753 3.44256092916316  103.371095883014 1.75241029984959  103.371095883014 1.75241029984959  C 103.371095883014 1.75241029984959  107.371871755371 1.48678459891806  107.371871755371 1.48678459891806  C 107.371871755371 1.48678459891806  109.160970430802 2.86632452956191  109.160970430802 2.86632452956191  C 109.160970430802 2.86632452956191  108.159404454526 5.49687582588269  108.159404454526 5.49687582588269  C 108.159404454526 5.49687582588269  110.804636238444 6.40300220889875  110.804636238444 6.40300220889875  C 110.804636238444 6.40300220889875  112.569038766514 9.18350349768087  112.569038766514 9.18350349768087  C 112.569038766514 9.18350349768087  110.436938044414 11.2892298203873  110.436938044414 11.2892298203873  C 110.436938044414 11.2892298203873  109.210362725522 16.3746767075744  109.210362725522 16.3746767075744  C 109.210362725522 16.3746767075744  111.180566481594 19.3950979842946  111.180566481594 19.3950979842946  C 111.180566481594 19.3950979842946  111.737601805386 22.1584621310814  111.737601805386 22.1584621310814  C 111.737601805386 22.1584621310814  116.471030049431 24.9582427046086  116.471030049431 24.9582427046086  C 116.471030049431 24.9582427046086  120.246796579173 25.2538584040322  120.246796579173 25.2538584040322  C 120.246796579173 25.2538584040322  121.097441654915 24.0863906055837  121.097441654915 24.0863906055837  C 121.097441654915 24.0863906055837  123.531384178085 23.8271913329005  123.531384178085 23.8271913329005  C 123.531384178085 23.8271913329005  127.010796939504 22.7796835284208  127.010796939504 22.7796835284208  C 127.010796939504 22.7796835284208  129.513339872008 21.1923557510807  129.513339872008 21.1923557510807  C 129.513339872008 21.1923557510807  133.766565250715 21.7000435826996  133.766565250715 21.7000435826996  C 133.766565250715 21.7000435826996  135.640728433719 21.485829307755  135.640728433719 21.485829307755  C 135.640728433719 21.485829307755  139.825353403092 21.9742378546289  139.825353403092 21.9742378546289  C 139.825353403092 21.9742378546289  140.516845529179 20.7532164874441  140.516845529179 20.7532164874441  C 140.516845529179 20.7532164874441  139.227157833699 19.5664694042504  139.227157833699 19.5664694042504  C 139.227157833699 19.5664694042504  139.99548241824 17.837760205447  139.99548241824 17.837760205447  C 139.99548241824 17.837760205447  143.09896493651 18.3690116073097  143.09896493651 18.3690116073097  C 143.09896493651 18.3690116073097  146.734786631211 17.7585009237173  146.734786631211 17.7585009237173  C 146.734786631211 17.7585009237173  151.141676926826 19.0245072886403  151.141676926826 19.0245072886403  C 151.141676926826 19.0245072886403  156.493859461324 20.2562393695725  156.493859461324 20.2562393695725  C 156.493859461324 20.2562393695725  158.8756656734 18.6367794509906  158.8756656734 18.6367794509906  C 158.8756656734 18.6367794509906  160.596163939496 18.8852680099264  160.596163939496 18.8852680099264  C 160.596163939496 18.8852680099264  161.647122210493 20.5668500682422  161.647122210493 20.5668500682422  C 161.647122210493 20.5668500682422  165.329592183541 20.1405636611023  165.329592183541 20.1405636611023  C 165.329592183541 20.1405636611023  168.279409784902 17.8720344894378  168.279409784902 17.8720344894378  C 168.279409784902 17.8720344894378  170.639263865991 13.4742154248235  170.639263865991 13.4742154248235  C 170.639263865991 13.4742154248235  175.191587029394 8.00104069998625  175.191587029394 8.00104069998625  C 175.191587029394 8.00104069998625  177.812122665952 7.71827785705932  177.812122665952 7.71827785705932  C 177.812122665952 7.71827785705932  179.716470029063 11.0257462622055  179.716470029063 11.0257462622055  C 179.716470029063 11.0257462622055  184.030063767984 21.4729764512583  184.030063767984 21.4729764512583  C 184.030063767984 21.4729764512583  188.146088328023 22.458362116004  188.146088328023 22.458362116004  C 188.146088328023 22.458362116004  188.351889556025 26.5777026231905  188.351889556025 26.5777026231905  C 188.351889556025 26.5777026231905  182.567503040984 31.4896359476725  182.567503040984 31.4896359476725  C 182.567503040984 31.4896359476725  184.960285318553 33.2890358572079  184.960285318553 33.2890358572079  C 184.960285318553 33.2890358572079  198.559630464922 34.2251522387161  198.559630464922 34.2251522387161  C 198.559630464922 34.2251522387161  198.836776118631 40.2060147951722  198.836776118631 40.2060147951722  C 198.836776118631 40.2060147951722  204.681530993886 36.290177849183  204.681530993886 36.290177849183  C 204.681530993886 36.290177849183  214.362420759098 38.4344627413793  214.362420759098 38.4344627413793  C 214.362420759098 38.4344627413793  227.141305009832 42.0803897009383  227.141305009832 42.0803897009383  C 227.141305009832 42.0803897009383  230.895119408588 45.5763666680356  230.895119408588 45.5763666680356  C 230.895119408588 45.5763666680356  229.635615893216 48.8816929304324  229.635615893216 48.8816929304324  C 229.635615893216 48.8816929304324  238.581109270367 47.0415923086575  238.581109270367 47.0415923086575  C 238.581109270367 47.0415923086575  253.555206619789 50.2012528640917  253.555206619789 50.2012528640917  C 253.555206619789 50.2012528640917  265.049891207791 49.967759304402  265.049891207791 49.967759304402  C 265.049891207791 49.967759304402  276.423839075365 54.9139669128751  276.423839075365 54.9139669128751  C 276.423839075365 54.9139669128751  286.247417691991 61.6167315758945  286.247417691991 61.6167315758945  C 286.247417691991 61.6167315758945  292.174493058447 63.3432986319489  292.174493058447 63.3432986319489  C 292.174493058447 63.3432986319489  298.754644321763 63.5853607626363  298.754644321763 63.5853607626363  C 298.754644321763 63.5853607626363  301.542564957096 65.4747306676488  301.542564957096 65.4747306676488  C 301.542564957096 65.4747306676488  304.154868544534 73.1136117121764  304.154868544534 73.1136117121764  C 304.154868544534 73.1136117121764  305.430836158146 76.753112243487  305.430836158146 76.753112243487  C 305.430836158146 76.753112243487  302.368513885477 86.7183603139143  302.368513885477 86.7183603139143  C 302.368513885477 86.7183603139143  298.452802520693 90.666329401145  298.452802520693 90.666329401145  C 298.452802520693 90.666329401145  287.608449813177 99.1063718339662  287.608449813177 99.1063718339662  C 287.608449813177 99.1063718339662  282.707636570358 105.993360773438  282.707636570358 105.993360773438  C 282.707636570358 105.993360773438  277.011058579264 111.295164078319  277.011058579264 111.295164078319  C 277.011058579264 111.295164078319  275.087503101539 111.415124072288  275.087503101539 111.415124072288  C 275.087503101539 111.415124072288  272.938938281199 115.930760988123  272.938938281199 115.930760988123  C 272.938938281199 115.930760988123  273.484997539497 129.050297549637  273.484997539497 129.050297549637  C 273.484997539497 129.050297549637  271.33917673553 138.642812781661  271.33917673553 138.642812781661  C 271.33917673553 138.642812781661  270.521459856269 142.770721859845  270.521459856269 142.770721859845  C 270.521459856269 142.770721859845  268.090261349473 145.249181020956  268.090261349473 145.249181020956  C 268.090261349473 145.249181020956  266.726485211913 153.687081311027  266.726485211913 153.687081311027  C 266.726485211913 153.687081311027  258.925246662453 161.994310893383  258.925246662453 161.994310893383  C 258.925246662453 161.994310893383  257.61635085236 168.619958417422  257.61635085236 168.619958417422  C 257.61635085236 168.619958417422  251.390177701208 171.413312562701  251.390177701208 171.413312562701  C 251.390177701208 171.413312562701  249.587358943911 175.292733081949  249.587358943911 175.292733081949  C 249.587358943911 175.292733081949  241.229085070659 175.277738082703  241.229085070659 175.277738082703  C 241.229085070659 175.277738082703  229.125228847771 177.773334385809  229.125228847771 177.773334385809  C 229.125228847771 177.773334385809  223.705796510386 180.671653525811  223.705796510386 180.671653525811  C 223.705796510386 180.671653525811  215.089585098038 182.580302715568  215.089585098038 182.580302715568  C 215.089585098038 182.580302715568  206.034331065953 187.807131024218  206.034331065953 187.807131024218  C 206.034331065953 187.807131024218  199.522780211971 194.364229980276  199.522780211971 194.364229980276  C 199.522780211971 194.364229980276  198.40322153164 199.338285444492  198.40322153164 199.338285444492  C 198.40322153164 199.338285444492  199.681933161626 203.037765972787  199.681933161626 203.037765972787  C 199.681933161626 203.037765972787  198.244068581985 209.854064201527  198.244068581985 209.854064201527  C 198.244068581985 209.854064201527  196.498874168529 213.170101177671  196.498874168529 213.170101177671  C 196.498874168529 213.170101177671  191.120602076745 216.927419560201  191.120602076745 216.927419560201  C 191.120602076745 216.927419560201  182.583967139224 229.086221806062  182.583967139224 229.086221806062  C 182.583967139224 229.086221806062  175.819966778893 234.640797955378  175.819966778893 234.640797955378  C 175.819966778893 234.640797955378  170.587127554897 237.937555646777  170.587127554897 237.937555646777  C 170.587127554897 237.937555646777  167.080274629744 244.693873878532  167.080274629744 244.693873878532  C 167.080274629744 244.693873878532  161.990124257162 248.793935100974  161.990124257162 248.793935100974  C 161.990124257162 248.793935100974  159.860767551436 244.734574590772  159.860767551436 244.734574590772  C 159.860767551436 244.734574590772  163.252371788908 241.354273332144  163.252371788908 241.354273332144  C 163.252371788908 241.354273332144  158.801577231319 236.538736431388  158.801577231319 236.538736431388  C 158.801577231319 236.538736431388  150.773978732795 232.650747341141  150.773978732795 232.650747341141  C 150.773978732795 232.650747341141  142.85474747928 228.175811137547  142.85474747928 228.175811137547  C 142.85474747928 228.175811137547  139.998226434613 228.379314698744  139.998226434613 228.379314698744  C 139.998226434613 228.379314698744  132.279308376354 223.015389254129  132.279308376354 223.015389254129  Z " fill-rule="evenodd" />
    </mask>
  </defs>
  <g transform="matrix(1 0 0 1 -1222 -2000 )">
    <path d="M 132.279308376354 223.015389254129  C 132.279308376354 223.015389254129  127.287942593213 223.752286359939  127.287942593213 223.752286359939  C 127.287942593213 223.752286359939  137.550563829577 214.386838259356  137.550563829577 214.386838259356  C 137.550563829577 214.386838259356  146.235375651259 207.793322876559  146.235375651259 207.793322876559  C 146.235375651259 207.793322876559  151.402358482295 205.047095871768  151.402358482295 205.047095871768  C 151.402358482295 205.047095871768  159.874487633302 201.345473200723  159.874487633302 201.345473200723  C 159.874487633302 201.345473200723  160.030896566584 196.0115377546  160.030896566584 196.0115377546  C 160.030896566584 196.0115377546  156.170065529267 192.181386518589  156.170065529267 192.181386518589  C 156.170065529267 192.181386518589  150.367864309538 193.451677169011  150.367864309538 193.451677169011  C 150.367864309538 193.451677169011  151.877073314886 189.632236646747  151.877073314886 189.632236646747  C 151.877073314886 189.632236646747  154.913306030269 185.739963271002  154.913306030269 185.739963271002  C 154.913306030269 185.739963271002  154.916050046642 182.136879166433  154.916050046642 182.136879166433  C 154.916050046642 182.136879166433  150.156575048789 180.952274225988  150.156575048789 180.952274225988  C 150.156575048789 180.952274225988  147.269869824016 182.008350601466  147.269869824016 182.008350601466  C 147.269869824016 182.008350601466  144.399628697482 181.717019187541  144.399628697482 181.717019187541  C 144.399628697482 181.717019187541  143.502335343393 179.206427885189  143.502335343393 179.206427885189  C 143.502335343393 179.206427885189  142.786147069947 173.255555327225  142.786147069947 173.255555327225  C 142.786147069947 173.255555327225  141.345538473933 171.323342567224  141.345538473933 171.323342567224  C 141.345538473933 171.323342567224  136.14837146279 169.577496226425  136.14837146279 169.577496226425  C 136.14837146279 169.577496226425  133.009216731667 170.841360448599  133.009216731667 170.841360448599  C 133.009216731667 170.841360448599  124.886928266524 169.603201939418  124.886928266524 169.603201939418  C 124.886928266524 169.603201939418  125.397315311969 160.895391662916  125.397315311969 160.895391662916  C 125.397315311969 160.895391662916  123.122525738454 157.352287555331  123.122525738454 157.352287555331  C 123.122525738454 157.352287555331  125.52902809789 156.03915404992  125.52902809789 156.03915404992  C 125.52902809789 156.03915404992  124.788143677083 152.425359231603  124.788143677083 152.425359231603  C 124.788143677083 152.425359231603  126.895548251823 149.655568656568  126.895548251823 149.655568656568  C 126.895548251823 149.655568656568  128.262068405756 144.694366048849  128.262068405756 144.694366048849  C 128.262068405756 144.694366048849  126.445529566592 140.793524102106  126.445529566592 140.793524102106  C 126.445529566592 140.793524102106  122.241696482606 139.039109190309  122.241696482606 139.039109190309  C 122.241696482606 139.039109190309  121.418491570598 136.573502885695  121.418491570598 136.573502885695  C 121.418491570598 136.573502885695  122.546282300048 132.976845209374  122.546282300048 132.976845209374  C 122.546282300048 132.976845209374  107.797194293242 132.71978807944  107.797194293242 132.71978807944  C 107.797194293242 132.71978807944  104.839144642761 123.944517013804  104.839144642761 123.944517013804  C 104.839144642761 123.944517013804  107.081006019795 123.84169416183  107.081006019795 123.84169416183  C 107.081006019795 123.84169416183  106.982221430355 121.179010724268  106.982221430355 121.179010724268  C 106.982221430355 121.179010724268  105.481244474127 119.379610814732  105.481244474127 119.379610814732  C 105.481244474127 119.379610814732  105.143730460204 115.821511707901  105.143730460204 115.821511707901  C 105.143730460204 115.821511707901  100.673727788002 114.000690370871  100.673727788002 114.000690370871  C 100.673727788002 114.000690370871  95.8332829053959 114.062812510605  95.8332829053959 114.062812510605  C 95.8332829053959 114.062812510605  92.6502239122989 112.280549743065  92.6502239122989 112.280549743065  C 92.6502239122989 112.280549743065  87.450312884783 111.065954804128  87.450312884783 111.065954804128  C 87.450312884783 111.065954804128  84.4209188085944 108.780288490469  84.4209188085944 108.780288490469  C 84.4209188085944 108.780288490469  75.8047073962463 107.771339255479  75.8047073962463 107.771339255479  C 75.8047073962463 107.771339255479  67.4519215557406 102.304590958891  67.4519215557406 102.304590958891  C 67.4519215557406 102.304590958891  68.0693252397464 98.2259511639436  68.0693252397464 98.2259511639436  C 68.0693252397464 98.2259511639436  67.1226395909375 95.8910155670461  67.1226395909375 95.8910155670461  C 67.1226395909375 95.8910155670461  67.9431004865718 91.3496729382187  67.9431004865718 91.3496729382187  C 67.9431004865718 91.3496729382187  57.8753044127166 92.3736171724543  57.8753044127166 92.3736171724543  C 57.8753044127166 92.3736171724543  53.822392229265 94.6507149151165  53.822392229265 94.6507149151165  C 53.822392229265 94.6507149151165  47.0940640817881 97.1098947914816  47.0940640817881 97.1098947914816  C 47.0940640817881 97.1098947914816  45.3790538484386 98.9478532705071  45.3790538484386 98.9478532705071  C 45.3790538484386 98.9478532705071  41.4166942053077 99.0806661209727  41.4166942053077 99.0806661209727  C 41.4166942053077 99.0806661209727  35.6954200668537 98.5665518611054  35.6954200668537 98.5665518611054  C 35.6954200668537 98.5665518611054  31.3543861641992 99.6119175228354  31.3543861641992 99.6119175228354  C 31.3543861641992 99.6119175228354  27.8557652881661 98.913578986516  27.8557652881661 98.913578986516  C 27.8557652881661 98.913578986516  28.3688963499843 89.702365163894  28.3688963499843 89.702365163894  C 28.3688963499843 89.702365163894  22.0576586912579 93.2711749844727  22.0576586912579 93.2711749844727  C 22.0576586912579 93.2711749844727  15.2662181671936 93.114798563763  15.2662181671936 93.114798563763  C 15.2662181671936 93.114798563763  12.3575608114327 89.8844472975968  12.3575608114327 89.8844472975968  C 12.3575608114327 89.8844472975968  7.25094634061102 89.5331358866876  7.25094634061102 89.5331358866876  C 7.25094634061102 89.5331358866876  8.87814805001327 86.936858874358  8.87814805001327 86.936858874358  C 8.87814805001327 86.936858874358  4.6029705403194 83.2652262018059  4.6029705403194 83.2652262018059  C 4.6029705403194 83.2652262018059  1.40070343260899 77.8391786174565  1.40070343260899 77.8391786174565  C 1.40070343260899 77.8391786174565  3.42853153252166 76.7381172442409  3.42853153252166 76.7381172442409  C 3.42853153252166 76.7381172442409  3.423043499775 74.1996780861462  3.423043499775 74.1996780861462  C 3.423043499775 74.1996780861462  8.07140723624553 72.4645424590941  8.07140723624553 72.4645424590941  C 8.07140723624553 72.4645424590941  7.30582666807832 69.2170540509326  7.30582666807832 69.2170540509326  C 7.30582666807832 69.2170540509326  9.26779837503014 67.1306070129712  9.26779837503014 67.1306070129712  C 9.26779837503014 67.1306070129712  9.82757771519558 64.3329685821933  9.82757771519558 64.3329685821933  C 9.82757771519558 64.3329685821933  18.6248942081854 60.2586130727451  18.6248942081854 60.2586130727451  C 18.6248942081854 60.2586130727451  24.9306438341652 59.1061402735426  24.9306438341652 59.1061402735426  C 24.9306438341652 59.1061402735426  25.9623939905481 58.2064403187749  25.9623939905481 58.2064403187749  C 25.9623939905481 58.2064403187749  32.8965233660269 58.4870610189525  32.8965233660269 58.4870610189525  C 32.8965233660269 58.4870610189525  36.3539839964597 42.1060954139318  36.3539839964597 42.1060954139318  C 36.3539839964597 42.1060954139318  36.5350890771014 39.5183869725995  36.5350890771014 39.5183869725995  C 36.5350890771014 39.5183869725995  35.3304658891967 36.1016692872315  35.3304658891967 36.1016692872315  C 35.3304658891967 36.1016692872315  31.9169095207378 33.9252522537938  31.9169095207378 33.9252522537938  C 31.9169095207378 33.9252522537938  31.9553257499649 29.589555328913  31.9553257499649 29.589555328913  C 31.9553257499649 29.589555328913  36.2908716198725 28.6063118069166  36.2908716198725 28.6063118069166  C 36.2908716198725 28.6063118069166  37.8275207889536 29.225391061507  37.8275207889536 29.225391061507  C 37.8275207889536 29.225391061507  38.0882023444227 26.9397247478471  38.0882023444227 26.9397247478471  C 38.0882023444227 26.9397247478471  33.5797834429935 26.3227876360064  33.5797834429935 26.3227876360064  C 33.5797834429935 26.3227876360064  33.4864868862993 22.5868906809706  33.4864868862993 22.5868906809706  C 33.4864868862993 22.5868906809706  48.4743043175876 22.7218456741859  48.4743043175876 22.7218456741859  C 48.4743043175876 22.7218456741859  51.0207515120652 20.6632464919673  51.0207515120652 20.6632464919673  C 51.0207515120652 20.6632464919673  53.158340266912 22.5569006824785  53.158340266912 22.5569006824785  C 53.158340266912 22.5569006824785  54.6565732067662 26.0764412198199  54.6565732067662 26.0764412198199  C 54.6565732067662 26.0764412198199  56.1109018846467 25.3416862567596  56.1109018846467 25.3416862567596  C 56.1109018846467 25.3416862567596  60.34491914874 28.4970625266951  60.34491914874 28.4970625266951  C 60.34491914874 28.4970625266951  66.3268748426633 28.1114768317944  66.3268748426633 28.1114768317944  C 66.3268748426633 28.1114768317944  67.8168757333974 26.2842290665162  67.8168757333974 26.2842290665162  C 67.8168757333974 26.2842290665162  73.5381498718516 24.8918362793756  73.5381498718516 24.8918362793756  C 73.5381498718516 24.8918362793756  76.7074887830814 23.9128770428782  76.7074887830814 23.9128770428782  C 76.7074887830814 23.9128770428782  77.5992941044232 21.3851485985309  77.5992941044232 21.3851485985309  C 77.5992941044232 21.3851485985309  83.095558900262 19.6864293982196  83.095558900262 19.6864293982196  C 83.095558900262 19.6864293982196  82.6812124278846 18.4311337470437  82.6812124278846 18.4311337470437  C 82.6812124278846 18.4311337470437  76.1614295247829 17.9191616299257  76.1614295247829 17.9191616299257  C 76.1614295247829 17.9191616299257  75.0940071555464 14.1554168191475  75.0940071555464 14.1554168191475  C 75.0940071555464 14.1554168191475  75.4040810057358 10.1496098776815  75.4040810057358 10.1496098776815  C 75.4040810057358 10.1496098776815  71.9603404571698 8.59869852708192  71.9603404571698 8.59869852708192  C 71.9603404571698 8.59869852708192  73.4036930695569 8.04816784047413  73.4036930695569 8.04816784047413  C 73.4036930695569 8.04816784047413  79.1002710606508 8.81291280202655  79.1002710606508 8.81291280202655  C 79.1002710606508 8.81291280202655  85.2166835568686 10.3081284411406  85.2166835568686 10.3081284411406  C 85.2166835568686 10.3081284411406  87.4365928029163 8.89431422650558  87.4365928029163 8.89431422650558  C 87.4365928029163 8.89431422650558  92.9712738279819 7.96676641599509  92.9712738279819 7.96676641599509  C 92.9712738279819 7.96676641599509  101.576509174837 5.72608510007373  101.576509174837 5.72608510007373  C 101.576509174837 5.72608510007373  104.38912595753 3.44256092916316  104.38912595753 3.44256092916316  C 104.38912595753 3.44256092916316  103.371095883014 1.75241029984959  103.371095883014 1.75241029984959  C 103.371095883014 1.75241029984959  107.371871755371 1.48678459891806  107.371871755371 1.48678459891806  C 107.371871755371 1.48678459891806  109.160970430802 2.86632452956191  109.160970430802 2.86632452956191  C 109.160970430802 2.86632452956191  108.159404454526 5.49687582588269  108.159404454526 5.49687582588269  C 108.159404454526 5.49687582588269  110.804636238444 6.40300220889875  110.804636238444 6.40300220889875  C 110.804636238444 6.40300220889875  112.569038766514 9.18350349768087  112.569038766514 9.18350349768087  C 112.569038766514 9.18350349768087  110.436938044414 11.2892298203873  110.436938044414 11.2892298203873  C 110.436938044414 11.2892298203873  109.210362725522 16.3746767075744  109.210362725522 16.3746767075744  C 109.210362725522 16.3746767075744  111.180566481594 19.3950979842946  111.180566481594 19.3950979842946  C 111.180566481594 19.3950979842946  111.737601805386 22.1584621310814  111.737601805386 22.1584621310814  C 111.737601805386 22.1584621310814  116.471030049431 24.9582427046086  116.471030049431 24.9582427046086  C 116.471030049431 24.9582427046086  120.246796579173 25.2538584040322  120.246796579173 25.2538584040322  C 120.246796579173 25.2538584040322  121.097441654915 24.0863906055837  121.097441654915 24.0863906055837  C 121.097441654915 24.0863906055837  123.531384178085 23.8271913329005  123.531384178085 23.8271913329005  C 123.531384178085 23.8271913329005  127.010796939504 22.7796835284208  127.010796939504 22.7796835284208  C 127.010796939504 22.7796835284208  129.513339872008 21.1923557510807  129.513339872008 21.1923557510807  C 129.513339872008 21.1923557510807  133.766565250715 21.7000435826996  133.766565250715 21.7000435826996  C 133.766565250715 21.7000435826996  135.640728433719 21.485829307755  135.640728433719 21.485829307755  C 135.640728433719 21.485829307755  139.825353403092 21.9742378546289  139.825353403092 21.9742378546289  C 139.825353403092 21.9742378546289  140.516845529179 20.7532164874441  140.516845529179 20.7532164874441  C 140.516845529179 20.7532164874441  139.227157833699 19.5664694042504  139.227157833699 19.5664694042504  C 139.227157833699 19.5664694042504  139.99548241824 17.837760205447  139.99548241824 17.837760205447  C 139.99548241824 17.837760205447  143.09896493651 18.3690116073097  143.09896493651 18.3690116073097  C 143.09896493651 18.3690116073097  146.734786631211 17.7585009237173  146.734786631211 17.7585009237173  C 146.734786631211 17.7585009237173  151.141676926826 19.0245072886403  151.141676926826 19.0245072886403  C 151.141676926826 19.0245072886403  156.493859461324 20.2562393695725  156.493859461324 20.2562393695725  C 156.493859461324 20.2562393695725  158.8756656734 18.6367794509906  158.8756656734 18.6367794509906  C 158.8756656734 18.6367794509906  160.596163939496 18.8852680099264  160.596163939496 18.8852680099264  C 160.596163939496 18.8852680099264  161.647122210493 20.5668500682422  161.647122210493 20.5668500682422  C 161.647122210493 20.5668500682422  165.329592183541 20.1405636611023  165.329592183541 20.1405636611023  C 165.329592183541 20.1405636611023  168.279409784902 17.8720344894378  168.279409784902 17.8720344894378  C 168.279409784902 17.8720344894378  170.639263865991 13.4742154248235  170.639263865991 13.4742154248235  C 170.639263865991 13.4742154248235  175.191587029394 8.00104069998625  175.191587029394 8.00104069998625  C 175.191587029394 8.00104069998625  177.812122665952 7.71827785705932  177.812122665952 7.71827785705932  C 177.812122665952 7.71827785705932  179.716470029063 11.0257462622055  179.716470029063 11.0257462622055  C 179.716470029063 11.0257462622055  184.030063767984 21.4729764512583  184.030063767984 21.4729764512583  C 184.030063767984 21.4729764512583  188.146088328023 22.458362116004  188.146088328023 22.458362116004  C 188.146088328023 22.458362116004  188.351889556025 26.5777026231905  188.351889556025 26.5777026231905  C 188.351889556025 26.5777026231905  182.567503040984 31.4896359476725  182.567503040984 31.4896359476725  C 182.567503040984 31.4896359476725  184.960285318553 33.2890358572079  184.960285318553 33.2890358572079  C 184.960285318553 33.2890358572079  198.559630464922 34.2251522387161  198.559630464922 34.2251522387161  C 198.559630464922 34.2251522387161  198.836776118631 40.2060147951722  198.836776118631 40.2060147951722  C 198.836776118631 40.2060147951722  204.681530993886 36.290177849183  204.681530993886 36.290177849183  C 204.681530993886 36.290177849183  214.362420759098 38.4344627413793  214.362420759098 38.4344627413793  C 214.362420759098 38.4344627413793  227.141305009832 42.0803897009383  227.141305009832 42.0803897009383  C 227.141305009832 42.0803897009383  230.895119408588 45.5763666680356  230.895119408588 45.5763666680356  C 230.895119408588 45.5763666680356  229.635615893216 48.8816929304324  229.635615893216 48.8816929304324  C 229.635615893216 48.8816929304324  238.581109270367 47.0415923086575  238.581109270367 47.0415923086575  C 238.581109270367 47.0415923086575  253.555206619789 50.2012528640917  253.555206619789 50.2012528640917  C 253.555206619789 50.2012528640917  265.049891207791 49.967759304402  265.049891207791 49.967759304402  C 265.049891207791 49.967759304402  276.423839075365 54.9139669128751  276.423839075365 54.9139669128751  C 276.423839075365 54.9139669128751  286.247417691991 61.6167315758945  286.247417691991 61.6167315758945  C 286.247417691991 61.6167315758945  292.174493058447 63.3432986319489  292.174493058447 63.3432986319489  C 292.174493058447 63.3432986319489  298.754644321763 63.5853607626363  298.754644321763 63.5853607626363  C 298.754644321763 63.5853607626363  301.542564957096 65.4747306676488  301.542564957096 65.4747306676488  C 301.542564957096 65.4747306676488  304.154868544534 73.1136117121764  304.154868544534 73.1136117121764  C 304.154868544534 73.1136117121764  305.430836158146 76.753112243487  305.430836158146 76.753112243487  C 305.430836158146 76.753112243487  302.368513885477 86.7183603139143  302.368513885477 86.7183603139143  C 302.368513885477 86.7183603139143  298.452802520693 90.666329401145  298.452802520693 90.666329401145  C 298.452802520693 90.666329401145  287.608449813177 99.1063718339662  287.608449813177 99.1063718339662  C 287.608449813177 99.1063718339662  282.707636570358 105.993360773438  282.707636570358 105.993360773438  C 282.707636570358 105.993360773438  277.011058579264 111.295164078319  277.011058579264 111.295164078319  C 277.011058579264 111.295164078319  275.087503101539 111.415124072288  275.087503101539 111.415124072288  C 275.087503101539 111.415124072288  272.938938281199 115.930760988123  272.938938281199 115.930760988123  C 272.938938281199 115.930760988123  273.484997539497 129.050297549637  273.484997539497 129.050297549637  C 273.484997539497 129.050297549637  271.33917673553 138.642812781661  271.33917673553 138.642812781661  C 271.33917673553 138.642812781661  270.521459856269 142.770721859845  270.521459856269 142.770721859845  C 270.521459856269 142.770721859845  268.090261349473 145.249181020956  268.090261349473 145.249181020956  C 268.090261349473 145.249181020956  266.726485211913 153.687081311027  266.726485211913 153.687081311027  C 266.726485211913 153.687081311027  258.925246662453 161.994310893383  258.925246662453 161.994310893383  C 258.925246662453 161.994310893383  257.61635085236 168.619958417422  257.61635085236 168.619958417422  C 257.61635085236 168.619958417422  251.390177701208 171.413312562701  251.390177701208 171.413312562701  C 251.390177701208 171.413312562701  249.587358943911 175.292733081949  249.587358943911 175.292733081949  C 249.587358943911 175.292733081949  241.229085070659 175.277738082703  241.229085070659 175.277738082703  C 241.229085070659 175.277738082703  229.125228847771 177.773334385809  229.125228847771 177.773334385809  C 229.125228847771 177.773334385809  223.705796510386 180.671653525811  223.705796510386 180.671653525811  C 223.705796510386 180.671653525811  215.089585098038 182.580302715568  215.089585098038 182.580302715568  C 215.089585098038 182.580302715568  206.034331065953 187.807131024218  206.034331065953 187.807131024218  C 206.034331065953 187.807131024218  199.522780211971 194.364229980276  199.522780211971 194.364229980276  C 199.522780211971 194.364229980276  198.40322153164 199.338285444492  198.40322153164 199.338285444492  C 198.40322153164 199.338285444492  199.681933161626 203.037765972787  199.681933161626 203.037765972787  C 199.681933161626 203.037765972787  198.244068581985 209.854064201527  198.244068581985 209.854064201527  C 198.244068581985 209.854064201527  196.498874168529 213.170101177671  196.498874168529 213.170101177671  C 196.498874168529 213.170101177671  191.120602076745 216.927419560201  191.120602076745 216.927419560201  C 191.120602076745 216.927419560201  182.583967139224 229.086221806062  182.583967139224 229.086221806062  C 182.583967139224 229.086221806062  175.819966778893 234.640797955378  175.819966778893 234.640797955378  C 175.819966778893 234.640797955378  170.587127554897 237.937555646777  170.587127554897 237.937555646777  C 170.587127554897 237.937555646777  167.080274629744 244.693873878532  167.080274629744 244.693873878532  C 167.080274629744 244.693873878532  161.990124257162 248.793935100974  161.990124257162 248.793935100974  C 161.990124257162 248.793935100974  159.860767551436 244.734574590772  159.860767551436 244.734574590772  C 159.860767551436 244.734574590772  163.252371788908 241.354273332144  163.252371788908 241.354273332144  C 163.252371788908 241.354273332144  158.801577231319 236.538736431388  158.801577231319 236.538736431388  C 158.801577231319 236.538736431388  150.773978732795 232.650747341141  150.773978732795 232.650747341141  C 150.773978732795 232.650747341141  142.85474747928 228.175811137547  142.85474747928 228.175811137547  C 142.85474747928 228.175811137547  139.998226434613 228.379314698744  139.998226434613 228.379314698744  C 139.998226434613 228.379314698744  132.279308376354 223.015389254129  132.279308376354 223.015389254129  Z " fill-rule="nonzero" fill="#f2f2f2" stroke="none" transform="matrix(1 0 0 1 1222 2000 )" />
    <path d="M 132.279308376354 223.015389254129  C 132.279308376354 223.015389254129  127.287942593213 223.752286359939  127.287942593213 223.752286359939  C 127.287942593213 223.752286359939  137.550563829577 214.386838259356  137.550563829577 214.386838259356  C 137.550563829577 214.386838259356  146.235375651259 207.793322876559  146.235375651259 207.793322876559  C 146.235375651259 207.793322876559  151.402358482295 205.047095871768  151.402358482295 205.047095871768  C 151.402358482295 205.047095871768  159.874487633302 201.345473200723  159.874487633302 201.345473200723  C 159.874487633302 201.345473200723  160.030896566584 196.0115377546  160.030896566584 196.0115377546  C 160.030896566584 196.0115377546  156.170065529267 192.181386518589  156.170065529267 192.181386518589  C 156.170065529267 192.181386518589  150.367864309538 193.451677169011  150.367864309538 193.451677169011  C 150.367864309538 193.451677169011  151.877073314886 189.632236646747  151.877073314886 189.632236646747  C 151.877073314886 189.632236646747  154.913306030269 185.739963271002  154.913306030269 185.739963271002  C 154.913306030269 185.739963271002  154.916050046642 182.136879166433  154.916050046642 182.136879166433  C 154.916050046642 182.136879166433  150.156575048789 180.952274225988  150.156575048789 180.952274225988  C 150.156575048789 180.952274225988  147.269869824016 182.008350601466  147.269869824016 182.008350601466  C 147.269869824016 182.008350601466  144.399628697482 181.717019187541  144.399628697482 181.717019187541  C 144.399628697482 181.717019187541  143.502335343393 179.206427885189  143.502335343393 179.206427885189  C 143.502335343393 179.206427885189  142.786147069947 173.255555327225  142.786147069947 173.255555327225  C 142.786147069947 173.255555327225  141.345538473933 171.323342567224  141.345538473933 171.323342567224  C 141.345538473933 171.323342567224  136.14837146279 169.577496226425  136.14837146279 169.577496226425  C 136.14837146279 169.577496226425  133.009216731667 170.841360448599  133.009216731667 170.841360448599  C 133.009216731667 170.841360448599  124.886928266524 169.603201939418  124.886928266524 169.603201939418  C 124.886928266524 169.603201939418  125.397315311969 160.895391662916  125.397315311969 160.895391662916  C 125.397315311969 160.895391662916  123.122525738454 157.352287555331  123.122525738454 157.352287555331  C 123.122525738454 157.352287555331  125.52902809789 156.03915404992  125.52902809789 156.03915404992  C 125.52902809789 156.03915404992  124.788143677083 152.425359231603  124.788143677083 152.425359231603  C 124.788143677083 152.425359231603  126.895548251823 149.655568656568  126.895548251823 149.655568656568  C 126.895548251823 149.655568656568  128.262068405756 144.694366048849  128.262068405756 144.694366048849  C 128.262068405756 144.694366048849  126.445529566592 140.793524102106  126.445529566592 140.793524102106  C 126.445529566592 140.793524102106  122.241696482606 139.039109190309  122.241696482606 139.039109190309  C 122.241696482606 139.039109190309  121.418491570598 136.573502885695  121.418491570598 136.573502885695  C 121.418491570598 136.573502885695  122.546282300048 132.976845209374  122.546282300048 132.976845209374  C 122.546282300048 132.976845209374  107.797194293242 132.71978807944  107.797194293242 132.71978807944  C 107.797194293242 132.71978807944  104.839144642761 123.944517013804  104.839144642761 123.944517013804  C 104.839144642761 123.944517013804  107.081006019795 123.84169416183  107.081006019795 123.84169416183  C 107.081006019795 123.84169416183  106.982221430355 121.179010724268  106.982221430355 121.179010724268  C 106.982221430355 121.179010724268  105.481244474127 119.379610814732  105.481244474127 119.379610814732  C 105.481244474127 119.379610814732  105.143730460204 115.821511707901  105.143730460204 115.821511707901  C 105.143730460204 115.821511707901  100.673727788002 114.000690370871  100.673727788002 114.000690370871  C 100.673727788002 114.000690370871  95.8332829053959 114.062812510605  95.8332829053959 114.062812510605  C 95.8332829053959 114.062812510605  92.6502239122989 112.280549743065  92.6502239122989 112.280549743065  C 92.6502239122989 112.280549743065  87.450312884783 111.065954804128  87.450312884783 111.065954804128  C 87.450312884783 111.065954804128  84.4209188085944 108.780288490469  84.4209188085944 108.780288490469  C 84.4209188085944 108.780288490469  75.8047073962463 107.771339255479  75.8047073962463 107.771339255479  C 75.8047073962463 107.771339255479  67.4519215557406 102.304590958891  67.4519215557406 102.304590958891  C 67.4519215557406 102.304590958891  68.0693252397464 98.2259511639436  68.0693252397464 98.2259511639436  C 68.0693252397464 98.2259511639436  67.1226395909375 95.8910155670461  67.1226395909375 95.8910155670461  C 67.1226395909375 95.8910155670461  67.9431004865718 91.3496729382187  67.9431004865718 91.3496729382187  C 67.9431004865718 91.3496729382187  57.8753044127166 92.3736171724543  57.8753044127166 92.3736171724543  C 57.8753044127166 92.3736171724543  53.822392229265 94.6507149151165  53.822392229265 94.6507149151165  C 53.822392229265 94.6507149151165  47.0940640817881 97.1098947914816  47.0940640817881 97.1098947914816  C 47.0940640817881 97.1098947914816  45.3790538484386 98.9478532705071  45.3790538484386 98.9478532705071  C 45.3790538484386 98.9478532705071  41.4166942053077 99.0806661209727  41.4166942053077 99.0806661209727  C 41.4166942053077 99.0806661209727  35.6954200668537 98.5665518611054  35.6954200668537 98.5665518611054  C 35.6954200668537 98.5665518611054  31.3543861641992 99.6119175228354  31.3543861641992 99.6119175228354  C 31.3543861641992 99.6119175228354  27.8557652881661 98.913578986516  27.8557652881661 98.913578986516  C 27.8557652881661 98.913578986516  28.3688963499843 89.702365163894  28.3688963499843 89.702365163894  C 28.3688963499843 89.702365163894  22.0576586912579 93.2711749844727  22.0576586912579 93.2711749844727  C 22.0576586912579 93.2711749844727  15.2662181671936 93.114798563763  15.2662181671936 93.114798563763  C 15.2662181671936 93.114798563763  12.3575608114327 89.8844472975968  12.3575608114327 89.8844472975968  C 12.3575608114327 89.8844472975968  7.25094634061102 89.5331358866876  7.25094634061102 89.5331358866876  C 7.25094634061102 89.5331358866876  8.87814805001327 86.936858874358  8.87814805001327 86.936858874358  C 8.87814805001327 86.936858874358  4.6029705403194 83.2652262018059  4.6029705403194 83.2652262018059  C 4.6029705403194 83.2652262018059  1.40070343260899 77.8391786174565  1.40070343260899 77.8391786174565  C 1.40070343260899 77.8391786174565  3.42853153252166 76.7381172442409  3.42853153252166 76.7381172442409  C 3.42853153252166 76.7381172442409  3.423043499775 74.1996780861462  3.423043499775 74.1996780861462  C 3.423043499775 74.1996780861462  8.07140723624553 72.4645424590941  8.07140723624553 72.4645424590941  C 8.07140723624553 72.4645424590941  7.30582666807832 69.2170540509326  7.30582666807832 69.2170540509326  C 7.30582666807832 69.2170540509326  9.26779837503014 67.1306070129712  9.26779837503014 67.1306070129712  C 9.26779837503014 67.1306070129712  9.82757771519558 64.3329685821933  9.82757771519558 64.3329685821933  C 9.82757771519558 64.3329685821933  18.6248942081854 60.2586130727451  18.6248942081854 60.2586130727451  C 18.6248942081854 60.2586130727451  24.9306438341652 59.1061402735426  24.9306438341652 59.1061402735426  C 24.9306438341652 59.1061402735426  25.9623939905481 58.2064403187749  25.9623939905481 58.2064403187749  C 25.9623939905481 58.2064403187749  32.8965233660269 58.4870610189525  32.8965233660269 58.4870610189525  C 32.8965233660269 58.4870610189525  36.3539839964597 42.1060954139318  36.3539839964597 42.1060954139318  C 36.3539839964597 42.1060954139318  36.5350890771014 39.5183869725995  36.5350890771014 39.5183869725995  C 36.5350890771014 39.5183869725995  35.3304658891967 36.1016692872315  35.3304658891967 36.1016692872315  C 35.3304658891967 36.1016692872315  31.9169095207378 33.9252522537938  31.9169095207378 33.9252522537938  C 31.9169095207378 33.9252522537938  31.9553257499649 29.589555328913  31.9553257499649 29.589555328913  C 31.9553257499649 29.589555328913  36.2908716198725 28.6063118069166  36.2908716198725 28.6063118069166  C 36.2908716198725 28.6063118069166  37.8275207889536 29.225391061507  37.8275207889536 29.225391061507  C 37.8275207889536 29.225391061507  38.0882023444227 26.9397247478471  38.0882023444227 26.9397247478471  C 38.0882023444227 26.9397247478471  33.5797834429935 26.3227876360064  33.5797834429935 26.3227876360064  C 33.5797834429935 26.3227876360064  33.4864868862993 22.5868906809706  33.4864868862993 22.5868906809706  C 33.4864868862993 22.5868906809706  48.4743043175876 22.7218456741859  48.4743043175876 22.7218456741859  C 48.4743043175876 22.7218456741859  51.0207515120652 20.6632464919673  51.0207515120652 20.6632464919673  C 51.0207515120652 20.6632464919673  53.158340266912 22.5569006824785  53.158340266912 22.5569006824785  C 53.158340266912 22.5569006824785  54.6565732067662 26.0764412198199  54.6565732067662 26.0764412198199  C 54.6565732067662 26.0764412198199  56.1109018846467 25.3416862567596  56.1109018846467 25.3416862567596  C 56.1109018846467 25.3416862567596  60.34491914874 28.4970625266951  60.34491914874 28.4970625266951  C 60.34491914874 28.4970625266951  66.3268748426633 28.1114768317944  66.3268748426633 28.1114768317944  C 66.3268748426633 28.1114768317944  67.8168757333974 26.2842290665162  67.8168757333974 26.2842290665162  C 67.8168757333974 26.2842290665162  73.5381498718516 24.8918362793756  73.5381498718516 24.8918362793756  C 73.5381498718516 24.8918362793756  76.7074887830814 23.9128770428782  76.7074887830814 23.9128770428782  C 76.7074887830814 23.9128770428782  77.5992941044232 21.3851485985309  77.5992941044232 21.3851485985309  C 77.5992941044232 21.3851485985309  83.095558900262 19.6864293982196  83.095558900262 19.6864293982196  C 83.095558900262 19.6864293982196  82.6812124278846 18.4311337470437  82.6812124278846 18.4311337470437  C 82.6812124278846 18.4311337470437  76.1614295247829 17.9191616299257  76.1614295247829 17.9191616299257  C 76.1614295247829 17.9191616299257  75.0940071555464 14.1554168191475  75.0940071555464 14.1554168191475  C 75.0940071555464 14.1554168191475  75.4040810057358 10.1496098776815  75.4040810057358 10.1496098776815  C 75.4040810057358 10.1496098776815  71.9603404571698 8.59869852708192  71.9603404571698 8.59869852708192  C 71.9603404571698 8.59869852708192  73.4036930695569 8.04816784047413  73.4036930695569 8.04816784047413  C 73.4036930695569 8.04816784047413  79.1002710606508 8.81291280202655  79.1002710606508 8.81291280202655  C 79.1002710606508 8.81291280202655  85.2166835568686 10.3081284411406  85.2166835568686 10.3081284411406  C 85.2166835568686 10.3081284411406  87.4365928029163 8.89431422650558  87.4365928029163 8.89431422650558  C 87.4365928029163 8.89431422650558  92.9712738279819 7.96676641599509  92.9712738279819 7.96676641599509  C 92.9712738279819 7.96676641599509  101.576509174837 5.72608510007373  101.576509174837 5.72608510007373  C 101.576509174837 5.72608510007373  104.38912595753 3.44256092916316  104.38912595753 3.44256092916316  C 104.38912595753 3.44256092916316  103.371095883014 1.75241029984959  103.371095883014 1.75241029984959  C 103.371095883014 1.75241029984959  107.371871755371 1.48678459891806  107.371871755371 1.48678459891806  C 107.371871755371 1.48678459891806  109.160970430802 2.86632452956191  109.160970430802 2.86632452956191  C 109.160970430802 2.86632452956191  108.159404454526 5.49687582588269  108.159404454526 5.49687582588269  C 108.159404454526 5.49687582588269  110.804636238444 6.40300220889875  110.804636238444 6.40300220889875  C 110.804636238444 6.40300220889875  112.569038766514 9.18350349768087  112.569038766514 9.18350349768087  C 112.569038766514 9.18350349768087  110.436938044414 11.2892298203873  110.436938044414 11.2892298203873  C 110.436938044414 11.2892298203873  109.210362725522 16.3746767075744  109.210362725522 16.3746767075744  C 109.210362725522 16.3746767075744  111.180566481594 19.3950979842946  111.180566481594 19.3950979842946  C 111.180566481594 19.3950979842946  111.737601805386 22.1584621310814  111.737601805386 22.1584621310814  C 111.737601805386 22.1584621310814  116.471030049431 24.9582427046086  116.471030049431 24.9582427046086  C 116.471030049431 24.9582427046086  120.246796579173 25.2538584040322  120.246796579173 25.2538584040322  C 120.246796579173 25.2538584040322  121.097441654915 24.0863906055837  121.097441654915 24.0863906055837  C 121.097441654915 24.0863906055837  123.531384178085 23.8271913329005  123.531384178085 23.8271913329005  C 123.531384178085 23.8271913329005  127.010796939504 22.7796835284208  127.010796939504 22.7796835284208  C 127.010796939504 22.7796835284208  129.513339872008 21.1923557510807  129.513339872008 21.1923557510807  C 129.513339872008 21.1923557510807  133.766565250715 21.7000435826996  133.766565250715 21.7000435826996  C 133.766565250715 21.7000435826996  135.640728433719 21.485829307755  135.640728433719 21.485829307755  C 135.640728433719 21.485829307755  139.825353403092 21.9742378546289  139.825353403092 21.9742378546289  C 139.825353403092 21.9742378546289  140.516845529179 20.7532164874441  140.516845529179 20.7532164874441  C 140.516845529179 20.7532164874441  139.227157833699 19.5664694042504  139.227157833699 19.5664694042504  C 139.227157833699 19.5664694042504  139.99548241824 17.837760205447  139.99548241824 17.837760205447  C 139.99548241824 17.837760205447  143.09896493651 18.3690116073097  143.09896493651 18.3690116073097  C 143.09896493651 18.3690116073097  146.734786631211 17.7585009237173  146.734786631211 17.7585009237173  C 146.734786631211 17.7585009237173  151.141676926826 19.0245072886403  151.141676926826 19.0245072886403  C 151.141676926826 19.0245072886403  156.493859461324 20.2562393695725  156.493859461324 20.2562393695725  C 156.493859461324 20.2562393695725  158.8756656734 18.6367794509906  158.8756656734 18.6367794509906  C 158.8756656734 18.6367794509906  160.596163939496 18.8852680099264  160.596163939496 18.8852680099264  C 160.596163939496 18.8852680099264  161.647122210493 20.5668500682422  161.647122210493 20.5668500682422  C 161.647122210493 20.5668500682422  165.329592183541 20.1405636611023  165.329592183541 20.1405636611023  C 165.329592183541 20.1405636611023  168.279409784902 17.8720344894378  168.279409784902 17.8720344894378  C 168.279409784902 17.8720344894378  170.639263865991 13.4742154248235  170.639263865991 13.4742154248235  C 170.639263865991 13.4742154248235  175.191587029394 8.00104069998625  175.191587029394 8.00104069998625  C 175.191587029394 8.00104069998625  177.812122665952 7.71827785705932  177.812122665952 7.71827785705932  C 177.812122665952 7.71827785705932  179.716470029063 11.0257462622055  179.716470029063 11.0257462622055  C 179.716470029063 11.0257462622055  184.030063767984 21.4729764512583  184.030063767984 21.4729764512583  C 184.030063767984 21.4729764512583  188.146088328023 22.458362116004  188.146088328023 22.458362116004  C 188.146088328023 22.458362116004  188.351889556025 26.5777026231905  188.351889556025 26.5777026231905  C 188.351889556025 26.5777026231905  182.567503040984 31.4896359476725  182.567503040984 31.4896359476725  C 182.567503040984 31.4896359476725  184.960285318553 33.2890358572079  184.960285318553 33.2890358572079  C 184.960285318553 33.2890358572079  198.559630464922 34.2251522387161  198.559630464922 34.2251522387161  C 198.559630464922 34.2251522387161  198.836776118631 40.2060147951722  198.836776118631 40.2060147951722  C 198.836776118631 40.2060147951722  204.681530993886 36.290177849183  204.681530993886 36.290177849183  C 204.681530993886 36.290177849183  214.362420759098 38.4344627413793  214.362420759098 38.4344627413793  C 214.362420759098 38.4344627413793  227.141305009832 42.0803897009383  227.141305009832 42.0803897009383  C 227.141305009832 42.0803897009383  230.895119408588 45.5763666680356  230.895119408588 45.5763666680356  C 230.895119408588 45.5763666680356  229.635615893216 48.8816929304324  229.635615893216 48.8816929304324  C 229.635615893216 48.8816929304324  238.581109270367 47.0415923086575  238.581109270367 47.0415923086575  C 238.581109270367 47.0415923086575  253.555206619789 50.2012528640917  253.555206619789 50.2012528640917  C 253.555206619789 50.2012528640917  265.049891207791 49.967759304402  265.049891207791 49.967759304402  C 265.049891207791 49.967759304402  276.423839075365 54.9139669128751  276.423839075365 54.9139669128751  C 276.423839075365 54.9139669128751  286.247417691991 61.6167315758945  286.247417691991 61.6167315758945  C 286.247417691991 61.6167315758945  292.174493058447 63.3432986319489  292.174493058447 63.3432986319489  C 292.174493058447 63.3432986319489  298.754644321763 63.5853607626363  298.754644321763 63.5853607626363  C 298.754644321763 63.5853607626363  301.542564957096 65.4747306676488  301.542564957096 65.4747306676488  C 301.542564957096 65.4747306676488  304.154868544534 73.1136117121764  304.154868544534 73.1136117121764  C 304.154868544534 73.1136117121764  305.430836158146 76.753112243487  305.430836158146 76.753112243487  C 305.430836158146 76.753112243487  302.368513885477 86.7183603139143  302.368513885477 86.7183603139143  C 302.368513885477 86.7183603139143  298.452802520693 90.666329401145  298.452802520693 90.666329401145  C 298.452802520693 90.666329401145  287.608449813177 99.1063718339662  287.608449813177 99.1063718339662  C 287.608449813177 99.1063718339662  282.707636570358 105.993360773438  282.707636570358 105.993360773438  C 282.707636570358 105.993360773438  277.011058579264 111.295164078319  277.011058579264 111.295164078319  C 277.011058579264 111.295164078319  275.087503101539 111.415124072288  275.087503101539 111.415124072288  C 275.087503101539 111.415124072288  272.938938281199 115.930760988123  272.938938281199 115.930760988123  C 272.938938281199 115.930760988123  273.484997539497 129.050297549637  273.484997539497 129.050297549637  C 273.484997539497 129.050297549637  271.33917673553 138.642812781661  271.33917673553 138.642812781661  C 271.33917673553 138.642812781661  270.521459856269 142.770721859845  270.521459856269 142.770721859845  C 270.521459856269 142.770721859845  268.090261349473 145.249181020956  268.090261349473 145.249181020956  C 268.090261349473 145.249181020956  266.726485211913 153.687081311027  266.726485211913 153.687081311027  C 266.726485211913 153.687081311027  258.925246662453 161.994310893383  258.925246662453 161.994310893383  C 258.925246662453 161.994310893383  257.61635085236 168.619958417422  257.61635085236 168.619958417422  C 257.61635085236 168.619958417422  251.390177701208 171.413312562701  251.390177701208 171.413312562701  C 251.390177701208 171.413312562701  249.587358943911 175.292733081949  249.587358943911 175.292733081949  C 249.587358943911 175.292733081949  241.229085070659 175.277738082703  241.229085070659 175.277738082703  C 241.229085070659 175.277738082703  229.125228847771 177.773334385809  229.125228847771 177.773334385809  C 229.125228847771 177.773334385809  223.705796510386 180.671653525811  223.705796510386 180.671653525811  C 223.705796510386 180.671653525811  215.089585098038 182.580302715568  215.089585098038 182.580302715568  C 215.089585098038 182.580302715568  206.034331065953 187.807131024218  206.034331065953 187.807131024218  C 206.034331065953 187.807131024218  199.522780211971 194.364229980276  199.522780211971 194.364229980276  C 199.522780211971 194.364229980276  198.40322153164 199.338285444492  198.40322153164 199.338285444492  C 198.40322153164 199.338285444492  199.681933161626 203.037765972787  199.681933161626 203.037765972787  C 199.681933161626 203.037765972787  198.244068581985 209.854064201527  198.244068581985 209.854064201527  C 198.244068581985 209.854064201527  196.498874168529 213.170101177671  196.498874168529 213.170101177671  C 196.498874168529 213.170101177671  191.120602076745 216.927419560201  191.120602076745 216.927419560201  C 191.120602076745 216.927419560201  182.583967139224 229.086221806062  182.583967139224 229.086221806062  C 182.583967139224 229.086221806062  175.819966778893 234.640797955378  175.819966778893 234.640797955378  C 175.819966778893 234.640797955378  170.587127554897 237.937555646777  170.587127554897 237.937555646777  C 170.587127554897 237.937555646777  167.080274629744 244.693873878532  167.080274629744 244.693873878532  C 167.080274629744 244.693873878532  161.990124257162 248.793935100974  161.990124257162 248.793935100974  C 161.990124257162 248.793935100974  159.860767551436 244.734574590772  159.860767551436 244.734574590772  C 159.860767551436 244.734574590772  163.252371788908 241.354273332144  163.252371788908 241.354273332144  C 163.252371788908 241.354273332144  158.801577231319 236.538736431388  158.801577231319 236.538736431388  C 158.801577231319 236.538736431388  150.773978732795 232.650747341141  150.773978732795 232.650747341141  C 150.773978732795 232.650747341141  142.85474747928 228.175811137547  142.85474747928 228.175811137547  C 142.85474747928 228.175811137547  139.998226434613 228.379314698744  139.998226434613 228.379314698744  C 139.998226434613 228.379314698744  132.279308376354 223.015389254129  132.279308376354 223.015389254129  Z " stroke-width="2" stroke="#505050" fill="none" stroke-opacity="0.211764705882353" transform="matrix(1 0 0 1 1222 2000 )" mask="url(#clip593)" />
  </g>
</svg>