<?xml version="1.0" encoding="utf-8"?>
<svg version="1.1" xmlns:xlink="http://www.w3.org/1999/xlink" width="19px" height="26px" xmlns="http://www.w3.org/2000/svg">
  <defs>
    <mask fill="white" id="clip594">
      <path d="M 13.2813162383852 20.8006211212201  C 13.2813162383852 20.8006211212201  13.3205458405437 24.764187416502  13.3205458405437 24.764187416502  C 13.3205458405437 24.764187416502  11.5212147548718 25.1019405263148  11.5212147548718 25.1019405263148  C 11.5212147548718 25.1019405263148  7.75911630574618 21.1696890888961  7.75911630574618 21.1696890888961  C 7.75911630574618 21.1696890888961  5.01304415464778 17.5606691656934  5.01304415464778 17.5606691656934  C 5.01304415464778 17.5606691656934  6.6083813090954 13.1967200448722  6.6083813090954 13.1967200448722  C 6.6083813090954 13.1967200448722  10.7157002572163 13.4740802145196  10.7157002572163 13.4740802145196  C 10.7157002572163 13.4740802145196  13.2813162383852 20.8006211212201  13.2813162383852 20.8006211212201  Z M 11.0112299268106 1.88758280506093  C 11.0112299268106 1.88758280506093  11.2283003920879 5.3266077855765  11.2283003920879 5.3266077855765  C 11.2283003920879 5.3266077855765  1.33592277898657 6.44275879085069  1.33592277898657 6.44275879085069  C 1.33592277898657 6.44275879085069  0.823322644114967 2.2365197926818  0.823322644114967 2.2365197926818  C 0.823322644114967 2.2365197926818  4.27029702044601 1.67732590226393  4.27029702044601 1.67732590226393  C 4.27029702044601 1.67732590226393  11.0112299268106 1.88758280506093  11.0112299268106 1.88758280506093  Z M 9.54537085736528 0.487361303454691  C 9.54537085736528 0.487361303454691  17.2408907495879 3.63003096760301  17.2408907495879 3.63003096760301  C 17.2408907495879 3.63003096760301  15.9750822532721 10.1983049588972  15.9750822532721 10.1983049588972  C 15.9750822532721 10.1983049588972  14.6255839390179 9.31030506091355  14.6255839390179 9.31030506091355  C 14.6255839390179 9.31030506091355  14.7458880523042 4.05054477319737  14.7458880523042 4.05054477319737  C 14.7458880523042 4.05054477319737  9.56106269822853 1.29036373009475  9.56106269822853 1.29036373009475  C 9.56106269822853 1.29036373009475  9.54537085736528 0.487361303454691  9.54537085736528 0.487361303454691  Z " fill-rule="evenodd" />
    </mask>
  </defs>
  <g transform="matrix(1 0 0 1 -1184 -1864 )">
    <path d="M 13.2813162383852 20.8006211212201  C 13.2813162383852 20.8006211212201  13.3205458405437 24.764187416502  13.3205458405437 24.764187416502  C 13.3205458405437 24.764187416502  11.5212147548718 25.1019405263148  11.5212147548718 25.1019405263148  C 11.5212147548718 25.1019405263148  7.75911630574618 21.1696890888961  7.75911630574618 21.1696890888961  C 7.75911630574618 21.1696890888961  5.01304415464778 17.5606691656934  5.01304415464778 17.5606691656934  C 5.01304415464778 17.5606691656934  6.6083813090954 13.1967200448722  6.6083813090954 13.1967200448722  C 6.6083813090954 13.1967200448722  10.7157002572163 13.4740802145196  10.7157002572163 13.4740802145196  C 10.7157002572163 13.4740802145196  13.2813162383852 20.8006211212201  13.2813162383852 20.8006211212201  Z M 11.0112299268106 1.88758280506093  C 11.0112299268106 1.88758280506093  11.2283003920879 5.3266077855765  11.2283003920879 5.3266077855765  C 11.2283003920879 5.3266077855765  1.33592277898657 6.44275879085069  1.33592277898657 6.44275879085069  C 1.33592277898657 6.44275879085069  0.823322644114967 2.2365197926818  0.823322644114967 2.2365197926818  C 0.823322644114967 2.2365197926818  4.27029702044601 1.67732590226393  4.27029702044601 1.67732590226393  C 4.27029702044601 1.67732590226393  11.0112299268106 1.88758280506093  11.0112299268106 1.88758280506093  Z M 9.54537085736528 0.487361303454691  C 9.54537085736528 0.487361303454691  17.2408907495879 3.63003096760301  17.2408907495879 3.63003096760301  C 17.2408907495879 3.63003096760301  15.9750822532721 10.1983049588972  15.9750822532721 10.1983049588972  C 15.9750822532721 10.1983049588972  14.6255839390179 9.31030506091355  14.6255839390179 9.31030506091355  C 14.6255839390179 9.31030506091355  14.7458880523042 4.05054477319737  14.7458880523042 4.05054477319737  C 14.7458880523042 4.05054477319737  9.56106269822853 1.29036373009475  9.56106269822853 1.29036373009475  C 9.56106269822853 1.29036373009475  9.54537085736528 0.487361303454691  9.54537085736528 0.487361303454691  Z " fill-rule="nonzero" fill="#f2f2f2" stroke="none" transform="matrix(1 0 0 1 1184 1864 )" />
    <path d="M 13.2813162383852 20.8006211212201  C 13.2813162383852 20.8006211212201  13.3205458405437 24.764187416502  13.3205458405437 24.764187416502  C 13.3205458405437 24.764187416502  11.5212147548718 25.1019405263148  11.5212147548718 25.1019405263148  C 11.5212147548718 25.1019405263148  7.75911630574618 21.1696890888961  7.75911630574618 21.1696890888961  C 7.75911630574618 21.1696890888961  5.01304415464778 17.5606691656934  5.01304415464778 17.5606691656934  C 5.01304415464778 17.5606691656934  6.6083813090954 13.1967200448722  6.6083813090954 13.1967200448722  C 6.6083813090954 13.1967200448722  10.7157002572163 13.4740802145196  10.7157002572163 13.4740802145196  C 10.7157002572163 13.4740802145196  13.2813162383852 20.8006211212201  13.2813162383852 20.8006211212201  Z " stroke-width="2" stroke="#505050" fill="none" stroke-opacity="0.211764705882353" transform="matrix(1 0 0 1 1184 1864 )" mask="url(#clip594)" />
    <path d="M 11.0112299268106 1.88758280506093  C 11.0112299268106 1.88758280506093  11.2283003920879 5.3266077855765  11.2283003920879 5.3266077855765  C 11.2283003920879 5.3266077855765  1.33592277898657 6.44275879085069  1.33592277898657 6.44275879085069  C 1.33592277898657 6.44275879085069  0.823322644114967 2.2365197926818  0.823322644114967 2.2365197926818  C 0.823322644114967 2.2365197926818  4.27029702044601 1.67732590226393  4.27029702044601 1.67732590226393  C 4.27029702044601 1.67732590226393  11.0112299268106 1.88758280506093  11.0112299268106 1.88758280506093  Z " stroke-width="2" stroke="#505050" fill="none" stroke-opacity="0.211764705882353" transform="matrix(1 0 0 1 1184 1864 )" mask="url(#clip594)" />
    <path d="M 9.54537085736528 0.487361303454691  C 9.54537085736528 0.487361303454691  17.2408907495879 3.63003096760301  17.2408907495879 3.63003096760301  C 17.2408907495879 3.63003096760301  15.9750822532721 10.1983049588972  15.9750822532721 10.1983049588972  C 15.9750822532721 10.1983049588972  14.6255839390179 9.31030506091355  14.6255839390179 9.31030506091355  C 14.6255839390179 9.31030506091355  14.7458880523042 4.05054477319737  14.7458880523042 4.05054477319737  C 14.7458880523042 4.05054477319737  9.56106269822853 1.29036373009475  9.56106269822853 1.29036373009475  C 9.56106269822853 1.29036373009475  9.54537085736528 0.487361303454691  9.54537085736528 0.487361303454691  Z " stroke-width="2" stroke="#505050" fill="none" stroke-opacity="0.211764705882353" transform="matrix(1 0 0 1 1184 1864 )" mask="url(#clip594)" />
  </g>
</svg>