<?xml version="1.0" encoding="utf-8"?>
<svg version="1.1" xmlns:xlink="http://www.w3.org/1999/xlink" width="28px" height="15px" xmlns="http://www.w3.org/2000/svg">
  <defs>
    <mask fill="white" id="clip595">
      <path d="M 20.9179270447726 3.27794034391028  C 20.9179270447726 3.27794034391028  24.2958022622138 5.22336155036934  24.2958022622138 5.22336155036934  C 24.2958022622138 5.22336155036934  27.4396763439727 9.19562764214334  27.4396763439727 9.19562764214334  C 27.4396763439727 9.19562764214334  26.8973443000964 13.6118255459564  26.8973443000964 13.6118255459564  C 26.8973443000964 13.6118255459564  20.6013372729667 13.8251795226082  20.6013372729667 13.8251795226082  C 20.6013372729667 13.8251795226082  12.0823409283039 13.3434124785557  12.0823409283039 13.3434124785557  C 12.0823409283039 13.3434124785557  7.23163503333171 14.4652414525634  7.23163503333171 14.4652414525634  C 7.23163503333171 14.4652414525634  0.214353917392145 11.7421105892773  0.214353917392145 11.7421105892773  C 0.214353917392145 11.7421105892773  0.0491766451455078 10.2991035859012  0.0491766451455078 10.2991035859012  C 0.0491766451455078 10.2991035859012  5.15590731210023 3.26188144244194  5.15590731210023 3.26188144244194  C 5.15590731210023 3.26188144244194  9.32663343632476 1.41969603113694  9.32663343632476 1.41969603113694  C 9.32663343632476 1.41969603113694  16.8408013748212 3.10129242775777  16.8408013748212 3.10129242775777  C 16.8408013748212 3.10129242775777  20.9179270447726 3.27794034391028  20.9179270447726 3.27794034391028  Z " fill-rule="evenodd" />
    </mask>
  </defs>
  <g transform="matrix(1 0 0 1 -2476 -1855 )">
    <path d="M 20.9179270447726 3.27794034391028  C 20.9179270447726 3.27794034391028  24.2958022622138 5.22336155036934  24.2958022622138 5.22336155036934  C 24.2958022622138 5.22336155036934  27.4396763439727 9.19562764214334  27.4396763439727 9.19562764214334  C 27.4396763439727 9.19562764214334  26.8973443000964 13.6118255459564  26.8973443000964 13.6118255459564  C 26.8973443000964 13.6118255459564  20.6013372729667 13.8251795226082  20.6013372729667 13.8251795226082  C 20.6013372729667 13.8251795226082  12.0823409283039 13.3434124785557  12.0823409283039 13.3434124785557  C 12.0823409283039 13.3434124785557  7.23163503333171 14.4652414525634  7.23163503333171 14.4652414525634  C 7.23163503333171 14.4652414525634  0.214353917392145 11.7421105892773  0.214353917392145 11.7421105892773  C 0.214353917392145 11.7421105892773  0.0491766451455078 10.2991035859012  0.0491766451455078 10.2991035859012  C 0.0491766451455078 10.2991035859012  5.15590731210023 3.26188144244194  5.15590731210023 3.26188144244194  C 5.15590731210023 3.26188144244194  9.32663343632476 1.41969603113694  9.32663343632476 1.41969603113694  C 9.32663343632476 1.41969603113694  16.8408013748212 3.10129242775777  16.8408013748212 3.10129242775777  C 16.8408013748212 3.10129242775777  20.9179270447726 3.27794034391028  20.9179270447726 3.27794034391028  Z " fill-rule="nonzero" fill="#f2f2f2" stroke="none" transform="matrix(1 0 0 1 2476 1855 )" />
    <path d="M 20.9179270447726 3.27794034391028  C 20.9179270447726 3.27794034391028  24.2958022622138 5.22336155036934  24.2958022622138 5.22336155036934  C 24.2958022622138 5.22336155036934  27.4396763439727 9.19562764214334  27.4396763439727 9.19562764214334  C 27.4396763439727 9.19562764214334  26.8973443000964 13.6118255459564  26.8973443000964 13.6118255459564  C 26.8973443000964 13.6118255459564  20.6013372729667 13.8251795226082  20.6013372729667 13.8251795226082  C 20.6013372729667 13.8251795226082  12.0823409283039 13.3434124785557  12.0823409283039 13.3434124785557  C 12.0823409283039 13.3434124785557  7.23163503333171 14.4652414525634  7.23163503333171 14.4652414525634  C 7.23163503333171 14.4652414525634  0.214353917392145 11.7421105892773  0.214353917392145 11.7421105892773  C 0.214353917392145 11.7421105892773  0.0491766451455078 10.2991035859012  0.0491766451455078 10.2991035859012  C 0.0491766451455078 10.2991035859012  5.15590731210023 3.26188144244194  5.15590731210023 3.26188144244194  C 5.15590731210023 3.26188144244194  9.32663343632476 1.41969603113694  9.32663343632476 1.41969603113694  C 9.32663343632476 1.41969603113694  16.8408013748212 3.10129242775777  16.8408013748212 3.10129242775777  C 16.8408013748212 3.10129242775777  20.9179270447726 3.27794034391028  20.9179270447726 3.27794034391028  Z " stroke-width="2" stroke="#505050" fill="none" stroke-opacity="0.211764705882353" transform="matrix(1 0 0 1 2476 1855 )" mask="url(#clip595)" />
  </g>
</svg>