<?xml version="1.0" encoding="utf-8"?>
<svg version="1.1" xmlns:xlink="http://www.w3.org/1999/xlink" width="77px" height="62px" xmlns="http://www.w3.org/2000/svg">
  <defs>
    <mask fill="white" id="clip596">
      <path d="M 44.0865246593654 1.878066196491  C 44.0865246593654 1.878066196491  47.0960473150796 6.87908340920808  47.0960473150796 6.87908340920808  C 47.0960473150796 6.87908340920808  48.6691434947113 7.99919178662944  48.6691434947113 7.99919178662944  C 48.6691434947113 7.99919178662944  51.1291981586041 11.6390106283084  51.1291981586041 11.6390106283084  C 51.1291981586041 11.6390106283084  59.9792587578452 18.5836825683228  59.9792587578452 18.5836825683228  C 59.9792587578452 18.5836825683228  63.3290610836218 19.2664152936084  63.3290610836218 19.2664152936084  C 63.3290610836218 19.2664152936084  63.3485853269859 21.5087655882183  63.3485853269859 21.5087655882183  C 63.3485853269859 21.5087655882183  65.6496568663414 25.5518234457687  65.6496568663414 25.5518234457687  C 65.6496568663414 25.5518234457687  71.6965939540045 26.5332517383669  71.6965939540045 26.5332517383669  C 71.6965939540045 26.5332517383669  76.6808543671289 29.4305987412977  76.6808543671289 29.4305987412977  C 76.6808543671289 29.4305987412977  65.6161867348595 35.7191905627329  65.6161867348595 35.7191905627329  C 65.6161867348595 35.7191905627329  58.5958266566088 40.551658133895  58.5958266566088 40.551658133895  C 58.5958266566088 40.551658133895  55.9907347562961 44.8870109394587  55.9907347562961 44.8870109394587  C 55.9907347562961 44.8870109394587  53.6394580197187 47.3427152107202  53.6394580197187 47.3427152107202  C 53.6394580197187 47.3427152107202  49.3831729663175 47.8654324535169  49.3831729663175 47.8654324535169  C 49.3831729663175 47.8654324535169  48.0108975755746 51.003869450064  48.0108975755746 51.003869450064  C 48.0108975755746 51.003869450064  47.2187711305118 53.0584682452205  47.2187711305118 53.0584682452205  C 47.2187711305118 53.0584682452205  42.2177756516463 54.5946168771131  42.2177756516463 54.5946168771131  C 42.2177756516463 54.5946168771131  33.826556525435 54.2681852928359  33.826556525435 54.2681852928359  C 33.826556525435 54.2681852928359  30.0890585099973 52.4205398550319  30.0890585099973 52.4205398550319  C 30.0890585099973 52.4205398550319  26.7950397366899 51.6204624425878  26.7950397366899 51.6204624425878  C 26.7950397366899 51.6204624425878  22.9794447477956 53.1480769154142  22.9794447477956 53.1480769154142  C 22.9794447477956 53.1480769154142  21.0660688981013 56.3121163891596  21.0660688981013 56.3121163891596  C 21.0660688981013 56.3121163891596  17.3620410141453 58.3048425310871  17.3620410141453 58.3048425310871  C 17.3620410141453 58.3048425310871  13.4516139860532 61.2725963463128  13.4516139860532 61.2725963463128  C 13.4516139860532 61.2725963463128  7.84815614052009 61.9531955318321  7.84815614052009 61.9531955318321  C 7.84815614052009 61.9531955318321  6.10492012585708 59.6148359477286  6.10492012585708 59.6148359477286  C 6.10492012585708 59.6148359477286  6.82452795271021 55.576045169711  6.82452795271021 55.576045169711  C 6.82452795271021 55.576045169711  2.18891474251813 49.3183730345154  2.18891474251813 49.3183730345154  C 2.18891474251813 49.3183730345154  0.0775072815583826 48.3326776623844  0.0775072815583826 48.3326776623844  C 0.0775072815583826 48.3326776623844  0.0747181039350655 27.877381791273  0.0747181039350655 27.877381791273  C 0.0747181039350655 27.877381791273  7.7840050551808 27.6533601157886  7.7840050551808 27.6533601157886  C 7.7840050551808 27.6533601157886  8.01271762030455 5.10184478369903  8.01271762030455 5.10184478369903  C 8.01271762030455 5.10184478369903  13.8365204980907 4.89489142634658  13.8365204980907 4.89489142634658  C 13.8365204980907 4.89489142634658  25.8913461866886 2.70587962589974  25.8913461866886 2.70587962589974  C 25.8913461866886 2.70587962589974  28.8813445990388 5.28319566385283  28.8813445990388 5.28319566385283  C 28.8813445990388 5.28319566385283  33.8739725450337 2.83175847212412  33.8739725450337 2.83175847212412  C 33.8739725450337 2.83175847212412  36.2447735249753 2.81895723352533  36.2447735249753 2.81895723352533  C 36.2447735249753 2.81895723352533  42.6807791371411 1.4108209876238  42.6807791371411 1.4108209876238  C 42.6807791371411 1.4108209876238  44.0865246593654 1.878066196491  44.0865246593654 1.878066196491  Z " fill-rule="evenodd" />
    </mask>
  </defs>
  <g transform="matrix(1 0 0 1 -1946 -2139 )">
    <path d="M 44.0865246593654 1.878066196491  C 44.0865246593654 1.878066196491  47.0960473150796 6.87908340920808  47.0960473150796 6.87908340920808  C 47.0960473150796 6.87908340920808  48.6691434947113 7.99919178662944  48.6691434947113 7.99919178662944  C 48.6691434947113 7.99919178662944  51.1291981586041 11.6390106283084  51.1291981586041 11.6390106283084  C 51.1291981586041 11.6390106283084  59.9792587578452 18.5836825683228  59.9792587578452 18.5836825683228  C 59.9792587578452 18.5836825683228  63.3290610836218 19.2664152936084  63.3290610836218 19.2664152936084  C 63.3290610836218 19.2664152936084  63.3485853269859 21.5087655882183  63.3485853269859 21.5087655882183  C 63.3485853269859 21.5087655882183  65.6496568663414 25.5518234457687  65.6496568663414 25.5518234457687  C 65.6496568663414 25.5518234457687  71.6965939540045 26.5332517383669  71.6965939540045 26.5332517383669  C 71.6965939540045 26.5332517383669  76.6808543671289 29.4305987412977  76.6808543671289 29.4305987412977  C 76.6808543671289 29.4305987412977  65.6161867348595 35.7191905627329  65.6161867348595 35.7191905627329  C 65.6161867348595 35.7191905627329  58.5958266566088 40.551658133895  58.5958266566088 40.551658133895  C 58.5958266566088 40.551658133895  55.9907347562961 44.8870109394587  55.9907347562961 44.8870109394587  C 55.9907347562961 44.8870109394587  53.6394580197187 47.3427152107202  53.6394580197187 47.3427152107202  C 53.6394580197187 47.3427152107202  49.3831729663175 47.8654324535169  49.3831729663175 47.8654324535169  C 49.3831729663175 47.8654324535169  48.0108975755746 51.003869450064  48.0108975755746 51.003869450064  C 48.0108975755746 51.003869450064  47.2187711305118 53.0584682452205  47.2187711305118 53.0584682452205  C 47.2187711305118 53.0584682452205  42.2177756516463 54.5946168771131  42.2177756516463 54.5946168771131  C 42.2177756516463 54.5946168771131  33.826556525435 54.2681852928359  33.826556525435 54.2681852928359  C 33.826556525435 54.2681852928359  30.0890585099973 52.4205398550319  30.0890585099973 52.4205398550319  C 30.0890585099973 52.4205398550319  26.7950397366899 51.6204624425878  26.7950397366899 51.6204624425878  C 26.7950397366899 51.6204624425878  22.9794447477956 53.1480769154142  22.9794447477956 53.1480769154142  C 22.9794447477956 53.1480769154142  21.0660688981013 56.3121163891596  21.0660688981013 56.3121163891596  C 21.0660688981013 56.3121163891596  17.3620410141453 58.3048425310871  17.3620410141453 58.3048425310871  C 17.3620410141453 58.3048425310871  13.4516139860532 61.2725963463128  13.4516139860532 61.2725963463128  C 13.4516139860532 61.2725963463128  7.84815614052009 61.9531955318321  7.84815614052009 61.9531955318321  C 7.84815614052009 61.9531955318321  6.10492012585708 59.6148359477286  6.10492012585708 59.6148359477286  C 6.10492012585708 59.6148359477286  6.82452795271021 55.576045169711  6.82452795271021 55.576045169711  C 6.82452795271021 55.576045169711  2.18891474251813 49.3183730345154  2.18891474251813 49.3183730345154  C 2.18891474251813 49.3183730345154  0.0775072815583826 48.3326776623844  0.0775072815583826 48.3326776623844  C 0.0775072815583826 48.3326776623844  0.0747181039350655 27.877381791273  0.0747181039350655 27.877381791273  C 0.0747181039350655 27.877381791273  7.7840050551808 27.6533601157886  7.7840050551808 27.6533601157886  C 7.7840050551808 27.6533601157886  8.01271762030455 5.10184478369903  8.01271762030455 5.10184478369903  C 8.01271762030455 5.10184478369903  13.8365204980907 4.89489142634658  13.8365204980907 4.89489142634658  C 13.8365204980907 4.89489142634658  25.8913461866886 2.70587962589974  25.8913461866886 2.70587962589974  C 25.8913461866886 2.70587962589974  28.8813445990388 5.28319566385283  28.8813445990388 5.28319566385283  C 28.8813445990388 5.28319566385283  33.8739725450337 2.83175847212412  33.8739725450337 2.83175847212412  C 33.8739725450337 2.83175847212412  36.2447735249753 2.81895723352533  36.2447735249753 2.81895723352533  C 36.2447735249753 2.81895723352533  42.6807791371411 1.4108209876238  42.6807791371411 1.4108209876238  C 42.6807791371411 1.4108209876238  44.0865246593654 1.878066196491  44.0865246593654 1.878066196491  Z " fill-rule="nonzero" fill="#f2f2f2" stroke="none" transform="matrix(1 0 0 1 1946 2139 )" />
    <path d="M 44.0865246593654 1.878066196491  C 44.0865246593654 1.878066196491  47.0960473150796 6.87908340920808  47.0960473150796 6.87908340920808  C 47.0960473150796 6.87908340920808  48.6691434947113 7.99919178662944  48.6691434947113 7.99919178662944  C 48.6691434947113 7.99919178662944  51.1291981586041 11.6390106283084  51.1291981586041 11.6390106283084  C 51.1291981586041 11.6390106283084  59.9792587578452 18.5836825683228  59.9792587578452 18.5836825683228  C 59.9792587578452 18.5836825683228  63.3290610836218 19.2664152936084  63.3290610836218 19.2664152936084  C 63.3290610836218 19.2664152936084  63.3485853269859 21.5087655882183  63.3485853269859 21.5087655882183  C 63.3485853269859 21.5087655882183  65.6496568663414 25.5518234457687  65.6496568663414 25.5518234457687  C 65.6496568663414 25.5518234457687  71.6965939540045 26.5332517383669  71.6965939540045 26.5332517383669  C 71.6965939540045 26.5332517383669  76.6808543671289 29.4305987412977  76.6808543671289 29.4305987412977  C 76.6808543671289 29.4305987412977  65.6161867348595 35.7191905627329  65.6161867348595 35.7191905627329  C 65.6161867348595 35.7191905627329  58.5958266566088 40.551658133895  58.5958266566088 40.551658133895  C 58.5958266566088 40.551658133895  55.9907347562961 44.8870109394587  55.9907347562961 44.8870109394587  C 55.9907347562961 44.8870109394587  53.6394580197187 47.3427152107202  53.6394580197187 47.3427152107202  C 53.6394580197187 47.3427152107202  49.3831729663175 47.8654324535169  49.3831729663175 47.8654324535169  C 49.3831729663175 47.8654324535169  48.0108975755746 51.003869450064  48.0108975755746 51.003869450064  C 48.0108975755746 51.003869450064  47.2187711305118 53.0584682452205  47.2187711305118 53.0584682452205  C 47.2187711305118 53.0584682452205  42.2177756516463 54.5946168771131  42.2177756516463 54.5946168771131  C 42.2177756516463 54.5946168771131  33.826556525435 54.2681852928359  33.826556525435 54.2681852928359  C 33.826556525435 54.2681852928359  30.0890585099973 52.4205398550319  30.0890585099973 52.4205398550319  C 30.0890585099973 52.4205398550319  26.7950397366899 51.6204624425878  26.7950397366899 51.6204624425878  C 26.7950397366899 51.6204624425878  22.9794447477956 53.1480769154142  22.9794447477956 53.1480769154142  C 22.9794447477956 53.1480769154142  21.0660688981013 56.3121163891596  21.0660688981013 56.3121163891596  C 21.0660688981013 56.3121163891596  17.3620410141453 58.3048425310871  17.3620410141453 58.3048425310871  C 17.3620410141453 58.3048425310871  13.4516139860532 61.2725963463128  13.4516139860532 61.2725963463128  C 13.4516139860532 61.2725963463128  7.84815614052009 61.9531955318321  7.84815614052009 61.9531955318321  C 7.84815614052009 61.9531955318321  6.10492012585708 59.6148359477286  6.10492012585708 59.6148359477286  C 6.10492012585708 59.6148359477286  6.82452795271021 55.576045169711  6.82452795271021 55.576045169711  C 6.82452795271021 55.576045169711  2.18891474251813 49.3183730345154  2.18891474251813 49.3183730345154  C 2.18891474251813 49.3183730345154  0.0775072815583826 48.3326776623844  0.0775072815583826 48.3326776623844  C 0.0775072815583826 48.3326776623844  0.0747181039350655 27.877381791273  0.0747181039350655 27.877381791273  C 0.0747181039350655 27.877381791273  7.7840050551808 27.6533601157886  7.7840050551808 27.6533601157886  C 7.7840050551808 27.6533601157886  8.01271762030455 5.10184478369903  8.01271762030455 5.10184478369903  C 8.01271762030455 5.10184478369903  13.8365204980907 4.89489142634658  13.8365204980907 4.89489142634658  C 13.8365204980907 4.89489142634658  25.8913461866886 2.70587962589974  25.8913461866886 2.70587962589974  C 25.8913461866886 2.70587962589974  28.8813445990388 5.28319566385283  28.8813445990388 5.28319566385283  C 28.8813445990388 5.28319566385283  33.8739725450337 2.83175847212412  33.8739725450337 2.83175847212412  C 33.8739725450337 2.83175847212412  36.2447735249753 2.81895723352533  36.2447735249753 2.81895723352533  C 36.2447735249753 2.81895723352533  42.6807791371411 1.4108209876238  42.6807791371411 1.4108209876238  C 42.6807791371411 1.4108209876238  44.0865246593654 1.878066196491  44.0865246593654 1.878066196491  Z " stroke-width="2" stroke="#505050" fill="none" stroke-opacity="0.211764705882353" transform="matrix(1 0 0 1 1946 2139 )" mask="url(#clip596)" />
  </g>
</svg>