<?xml version="1.0" encoding="utf-8"?>
<svg version="1.1" xmlns:xlink="http://www.w3.org/1999/xlink" width="78px" height="52px" xmlns="http://www.w3.org/2000/svg">
  <defs>
    <mask fill="white" id="clip597">
      <path d="M 4.10983674825707 30.1754346156599  C 4.10983674825707 30.1754346156599  3.77397629468919 24.066478568248  3.77397629468919 24.066478568248  C 3.77397629468919 24.066478568248  11.2344830911566 24.1358863917375  11.2344830911566 24.1358863917375  C 11.2344830911566 24.1358863917375  19.6144767031296 20.2382033039084  19.6144767031296 20.2382033039084  C 19.6144767031296 20.2382033039084  21.4066501070045 14.3298623293695  21.4066501070045 14.3298623293695  C 21.4066501070045 14.3298623293695  27.7356925885833 10.9418929452909  27.7356925885833 10.9418929452909  C 27.7356925885833 10.9418929452909  27.0089125906986 6.15492211900338  27.0089125906986 6.15492211900338  C 27.0089125906986 6.15492211900338  31.7027000770372 4.34381172482574  31.7027000770372 4.34381172482574  C 31.7027000770372 4.34381172482574  41.9945991438121 0.159821365102626  41.9945991438121 0.159821365102626  C 41.9945991438121 0.159821365102626  50.1213209383407 2.88407843706339  50.1213209383407 2.88407843706339  C 50.1213209383407 2.88407843706339  51.2169968442427 5.56495561934306  51.2169968442427 5.56495561934306  C 51.2169968442427 5.56495561934306  55.2693459233572 4.27874189030434  55.2693459233572 4.27874189030434  C 55.2693459233572 4.27874189030434  62.8151943104854 6.84466236492964  62.8151943104854 6.84466236492964  C 62.8151943104854 6.84466236492964  63.5695038537444 11.8507016341058  63.5695038537444 11.8507016341058  C 63.5695038537444 11.8507016341058  61.9177311312794 14.7007603861412  61.9177311312794 14.7007603861412  C 61.9177311312794 14.7007603861412  66.7546722535647 21.5395999943355  66.7546722535647 21.5395999943355  C 66.7546722535647 21.5395999943355  69.8985463353235 23.4244562009706  69.8985463353235 23.4244562009706  C 69.8985463353235 23.4244562009706  69.4332970184955 26.8612110440389  69.4332970184955 26.8612110440389  C 69.4332970184955 26.8612110440389  74.6363810942612 28.6636454602805  74.6363810942612 28.6636454602805  C 74.6363810942612 28.6636454602805  76.8607683605142 31.383564543273  76.8607683605142 31.383564543273  C 76.8607683605142 31.383564543273  73.8572949601648 33.6002769059672  73.8572949601648 33.6002769059672  C 73.8572949601648 33.6002769059672  67.6301117964713 33.2488997995518  67.6301117964713 33.2488997995518  C 67.6301117964713 33.2488997995518  66.1435163462527 34.1924124001115  66.1435163462527 34.1924124001115  C 66.1435163462527 34.1924124001115  67.9577133864268 37.532663905541  67.9577133864268 37.532663905541  C 67.9577133864268 37.532663905541  69.8544990627242 43.9030007051815  69.8544990627242 43.9030007051815  C 69.8544990627242 43.9030007051815  63.2281374911017 44.4886292158737  63.2281374911017 44.4886292158737  C 63.2281374911017 44.4886292158737  60.849584770752 46.6467787274986  60.849584770752 46.6467787274986  C 60.849584770752 46.6467787274986  60.3540529540121 51.5595512338608  60.3540529540121 51.5595512338608  C 60.3540529540121 51.5595512338608  57.2845086447644 50.6203766222693  57.2845086447644 50.6203766222693  C 57.2845086447644 50.6203766222693  50.3167807104992 51.0867104363389  50.3167807104992 51.0867104363389  C 50.3167807104992 51.0867104363389  48.2933591254794 48.8092662280915  48.2933591254794 48.8092662280915  C 48.2933591254794 48.8092662280915  45.4000039066282 50.5075889090989  45.4000039066282 50.5075889090989  C 45.4000039066282 50.5075889090989  42.4956368696267 49.0999114889536  42.4956368696267 49.0999114889536  C 42.4956368696267 49.0999114889536  34.4171132509548 48.9047019853896  34.4171132509548 48.9047019853896  C 34.4171132509548 48.9047019853896  25.8031185032992 46.5535119646846  25.8031185032992 46.5535119646846  C 25.8031185032992 46.5535119646846  18.0067512532637 45.7835189228486  18.0067512532637 45.7835189228486  C 18.0067512532637 45.7835189228486  12.0245810434023 46.0025873657372  12.0245810434023 46.0025873657372  C 12.0245810434023 46.0025873657372  7.79604287389157 48.6596056086925  7.79604287389157 48.6596056086925  C 7.79604287389157 48.6596056086925  4.10433083918224 49.0391796434004  4.10433083918224 49.0391796434004  C 4.10433083918224 49.0391796434004  3.95842424869784 44.6729937470175  3.95842424869784 44.6729937470175  C 3.95842424869784 44.6729937470175  1.57711857381059 40.081232424294  1.57711857381059 40.081232424294  C 1.57711857381059 40.081232424294  6.20483515125011 38.0423776092915  6.20483515125011 38.0423776092915  C 6.20483515125011 38.0423776092915  6.25163537838694 34.0340758027762  6.25163537838694 34.0340758027762  C 6.25163537838694 34.0340758027762  4.10983674825707 30.1754346156599  4.10983674825707 30.1754346156599  Z " fill-rule="evenodd" />
    </mask>
  </defs>
  <g transform="matrix(1 0 0 1 -1970 -1625 )">
    <path d="M 4.10983674825707 30.1754346156599  C 4.10983674825707 30.1754346156599  3.77397629468919 24.066478568248  3.77397629468919 24.066478568248  C 3.77397629468919 24.066478568248  11.2344830911566 24.1358863917375  11.2344830911566 24.1358863917375  C 11.2344830911566 24.1358863917375  19.6144767031296 20.2382033039084  19.6144767031296 20.2382033039084  C 19.6144767031296 20.2382033039084  21.4066501070045 14.3298623293695  21.4066501070045 14.3298623293695  C 21.4066501070045 14.3298623293695  27.7356925885833 10.9418929452909  27.7356925885833 10.9418929452909  C 27.7356925885833 10.9418929452909  27.0089125906986 6.15492211900338  27.0089125906986 6.15492211900338  C 27.0089125906986 6.15492211900338  31.7027000770372 4.34381172482574  31.7027000770372 4.34381172482574  C 31.7027000770372 4.34381172482574  41.9945991438121 0.159821365102626  41.9945991438121 0.159821365102626  C 41.9945991438121 0.159821365102626  50.1213209383407 2.88407843706339  50.1213209383407 2.88407843706339  C 50.1213209383407 2.88407843706339  51.2169968442427 5.56495561934306  51.2169968442427 5.56495561934306  C 51.2169968442427 5.56495561934306  55.2693459233572 4.27874189030434  55.2693459233572 4.27874189030434  C 55.2693459233572 4.27874189030434  62.8151943104854 6.84466236492964  62.8151943104854 6.84466236492964  C 62.8151943104854 6.84466236492964  63.5695038537444 11.8507016341058  63.5695038537444 11.8507016341058  C 63.5695038537444 11.8507016341058  61.9177311312794 14.7007603861412  61.9177311312794 14.7007603861412  C 61.9177311312794 14.7007603861412  66.7546722535647 21.5395999943355  66.7546722535647 21.5395999943355  C 66.7546722535647 21.5395999943355  69.8985463353235 23.4244562009706  69.8985463353235 23.4244562009706  C 69.8985463353235 23.4244562009706  69.4332970184955 26.8612110440389  69.4332970184955 26.8612110440389  C 69.4332970184955 26.8612110440389  74.6363810942612 28.6636454602805  74.6363810942612 28.6636454602805  C 74.6363810942612 28.6636454602805  76.8607683605142 31.383564543273  76.8607683605142 31.383564543273  C 76.8607683605142 31.383564543273  73.8572949601648 33.6002769059672  73.8572949601648 33.6002769059672  C 73.8572949601648 33.6002769059672  67.6301117964713 33.2488997995518  67.6301117964713 33.2488997995518  C 67.6301117964713 33.2488997995518  66.1435163462527 34.1924124001115  66.1435163462527 34.1924124001115  C 66.1435163462527 34.1924124001115  67.9577133864268 37.532663905541  67.9577133864268 37.532663905541  C 67.9577133864268 37.532663905541  69.8544990627242 43.9030007051815  69.8544990627242 43.9030007051815  C 69.8544990627242 43.9030007051815  63.2281374911017 44.4886292158737  63.2281374911017 44.4886292158737  C 63.2281374911017 44.4886292158737  60.849584770752 46.6467787274986  60.849584770752 46.6467787274986  C 60.849584770752 46.6467787274986  60.3540529540121 51.5595512338608  60.3540529540121 51.5595512338608  C 60.3540529540121 51.5595512338608  57.2845086447644 50.6203766222693  57.2845086447644 50.6203766222693  C 57.2845086447644 50.6203766222693  50.3167807104992 51.0867104363389  50.3167807104992 51.0867104363389  C 50.3167807104992 51.0867104363389  48.2933591254794 48.8092662280915  48.2933591254794 48.8092662280915  C 48.2933591254794 48.8092662280915  45.4000039066282 50.5075889090989  45.4000039066282 50.5075889090989  C 45.4000039066282 50.5075889090989  42.4956368696267 49.0999114889536  42.4956368696267 49.0999114889536  C 42.4956368696267 49.0999114889536  34.4171132509548 48.9047019853896  34.4171132509548 48.9047019853896  C 34.4171132509548 48.9047019853896  25.8031185032992 46.5535119646846  25.8031185032992 46.5535119646846  C 25.8031185032992 46.5535119646846  18.0067512532637 45.7835189228486  18.0067512532637 45.7835189228486  C 18.0067512532637 45.7835189228486  12.0245810434023 46.0025873657372  12.0245810434023 46.0025873657372  C 12.0245810434023 46.0025873657372  7.79604287389157 48.6596056086925  7.79604287389157 48.6596056086925  C 7.79604287389157 48.6596056086925  4.10433083918224 49.0391796434004  4.10433083918224 49.0391796434004  C 4.10433083918224 49.0391796434004  3.95842424869784 44.6729937470175  3.95842424869784 44.6729937470175  C 3.95842424869784 44.6729937470175  1.57711857381059 40.081232424294  1.57711857381059 40.081232424294  C 1.57711857381059 40.081232424294  6.20483515125011 38.0423776092915  6.20483515125011 38.0423776092915  C 6.20483515125011 38.0423776092915  6.25163537838694 34.0340758027762  6.25163537838694 34.0340758027762  C 6.25163537838694 34.0340758027762  4.10983674825707 30.1754346156599  4.10983674825707 30.1754346156599  Z " fill-rule="nonzero" fill="#74b9ff" stroke="none" transform="matrix(1 0 0 1 1970 1625 )" />
    <path d="M 4.10983674825707 30.1754346156599  C 4.10983674825707 30.1754346156599  3.77397629468919 24.066478568248  3.77397629468919 24.066478568248  C 3.77397629468919 24.066478568248  11.2344830911566 24.1358863917375  11.2344830911566 24.1358863917375  C 11.2344830911566 24.1358863917375  19.6144767031296 20.2382033039084  19.6144767031296 20.2382033039084  C 19.6144767031296 20.2382033039084  21.4066501070045 14.3298623293695  21.4066501070045 14.3298623293695  C 21.4066501070045 14.3298623293695  27.7356925885833 10.9418929452909  27.7356925885833 10.9418929452909  C 27.7356925885833 10.9418929452909  27.0089125906986 6.15492211900338  27.0089125906986 6.15492211900338  C 27.0089125906986 6.15492211900338  31.7027000770372 4.34381172482574  31.7027000770372 4.34381172482574  C 31.7027000770372 4.34381172482574  41.9945991438121 0.159821365102626  41.9945991438121 0.159821365102626  C 41.9945991438121 0.159821365102626  50.1213209383407 2.88407843706339  50.1213209383407 2.88407843706339  C 50.1213209383407 2.88407843706339  51.2169968442427 5.56495561934306  51.2169968442427 5.56495561934306  C 51.2169968442427 5.56495561934306  55.2693459233572 4.27874189030434  55.2693459233572 4.27874189030434  C 55.2693459233572 4.27874189030434  62.8151943104854 6.84466236492964  62.8151943104854 6.84466236492964  C 62.8151943104854 6.84466236492964  63.5695038537444 11.8507016341058  63.5695038537444 11.8507016341058  C 63.5695038537444 11.8507016341058  61.9177311312794 14.7007603861412  61.9177311312794 14.7007603861412  C 61.9177311312794 14.7007603861412  66.7546722535647 21.5395999943355  66.7546722535647 21.5395999943355  C 66.7546722535647 21.5395999943355  69.8985463353235 23.4244562009706  69.8985463353235 23.4244562009706  C 69.8985463353235 23.4244562009706  69.4332970184955 26.8612110440389  69.4332970184955 26.8612110440389  C 69.4332970184955 26.8612110440389  74.6363810942612 28.6636454602805  74.6363810942612 28.6636454602805  C 74.6363810942612 28.6636454602805  76.8607683605142 31.383564543273  76.8607683605142 31.383564543273  C 76.8607683605142 31.383564543273  73.8572949601648 33.6002769059672  73.8572949601648 33.6002769059672  C 73.8572949601648 33.6002769059672  67.6301117964713 33.2488997995518  67.6301117964713 33.2488997995518  C 67.6301117964713 33.2488997995518  66.1435163462527 34.1924124001115  66.1435163462527 34.1924124001115  C 66.1435163462527 34.1924124001115  67.9577133864268 37.532663905541  67.9577133864268 37.532663905541  C 67.9577133864268 37.532663905541  69.8544990627242 43.9030007051815  69.8544990627242 43.9030007051815  C 69.8544990627242 43.9030007051815  63.2281374911017 44.4886292158737  63.2281374911017 44.4886292158737  C 63.2281374911017 44.4886292158737  60.849584770752 46.6467787274986  60.849584770752 46.6467787274986  C 60.849584770752 46.6467787274986  60.3540529540121 51.5595512338608  60.3540529540121 51.5595512338608  C 60.3540529540121 51.5595512338608  57.2845086447644 50.6203766222693  57.2845086447644 50.6203766222693  C 57.2845086447644 50.6203766222693  50.3167807104992 51.0867104363389  50.3167807104992 51.0867104363389  C 50.3167807104992 51.0867104363389  48.2933591254794 48.8092662280915  48.2933591254794 48.8092662280915  C 48.2933591254794 48.8092662280915  45.4000039066282 50.5075889090989  45.4000039066282 50.5075889090989  C 45.4000039066282 50.5075889090989  42.4956368696267 49.0999114889536  42.4956368696267 49.0999114889536  C 42.4956368696267 49.0999114889536  34.4171132509548 48.9047019853896  34.4171132509548 48.9047019853896  C 34.4171132509548 48.9047019853896  25.8031185032992 46.5535119646846  25.8031185032992 46.5535119646846  C 25.8031185032992 46.5535119646846  18.0067512532637 45.7835189228486  18.0067512532637 45.7835189228486  C 18.0067512532637 45.7835189228486  12.0245810434023 46.0025873657372  12.0245810434023 46.0025873657372  C 12.0245810434023 46.0025873657372  7.79604287389157 48.6596056086925  7.79604287389157 48.6596056086925  C 7.79604287389157 48.6596056086925  4.10433083918224 49.0391796434004  4.10433083918224 49.0391796434004  C 4.10433083918224 49.0391796434004  3.95842424869784 44.6729937470175  3.95842424869784 44.6729937470175  C 3.95842424869784 44.6729937470175  1.57711857381059 40.081232424294  1.57711857381059 40.081232424294  C 1.57711857381059 40.081232424294  6.20483515125011 38.0423776092915  6.20483515125011 38.0423776092915  C 6.20483515125011 38.0423776092915  6.25163537838694 34.0340758027762  6.25163537838694 34.0340758027762  C 6.25163537838694 34.0340758027762  4.10983674825707 30.1754346156599  4.10983674825707 30.1754346156599  Z " stroke-width="2" stroke="#505050" fill="none" stroke-opacity="0.211764705882353" transform="matrix(1 0 0 1 1970 1625 )" mask="url(#clip597)" />
  </g>
</svg>