<?xml version="1.0" encoding="utf-8"?>
<svg version="1.1" xmlns:xlink="http://www.w3.org/1999/xlink" width="15px" height="19px" xmlns="http://www.w3.org/2000/svg">
  <defs>
    <mask fill="white" id="clip601">
      <path d="M 2.52631919581047 11.4935709874595  C 2.52631919581047 11.4935709874595  2.59121026705023 5.37477462863698  2.59121026705023 5.37477462863698  C 2.59121026705023 5.37477462863698  2.52631919581047 4.50769983220945  2.52631919581047 4.50769983220945  C 2.52631919581047 4.50769983220945  3.52623161173142 4.23812205327373  3.52623161173142 4.23812205327373  C 3.52623161173142 4.23812205327373  5.0275750326864 4.93419601977923  5.0275750326864 4.93419601977923  C 5.0275750326864 4.93419601977923  10.1347742935389 1.37134343399556  10.1347742935389 1.37134343399556  C 10.1347742935389 1.37134343399556  11.7069079740281 1.29489600414809  11.7069079740281 1.29489600414809  C 11.7069079740281 1.29489600414809  11.7364039155007 2.16197080057528  11.7364039155007 2.16197080057528  C 11.7364039155007 2.16197080057528  13.3026384076952 2.18812386868129  13.3026384076952 2.18812386868129  C 13.3026384076952 2.18812386868129  13.1669570769214 3.79351989547719  13.1669570769214 3.79351989547719  C 13.1669570769214 3.79351989547719  11.8278413340656 6.34042637407819  11.8278413340656 6.34042637407819  C 11.8278413340656 6.34042637407819  12.5504919001441 7.25176020883815  12.5504919001441 7.25176020883815  C 12.5504919001441 7.25176020883815  11.6862608149972 10.8135912167112  11.6862608149972 10.8135912167112  C 11.6862608149972 10.8135912167112  12.2053893849148 11.3748762937488  12.2053893849148 11.3748762937488  C 12.2053893849148 11.3748762937488  11.2497208812029 14.334196538632  11.2497208812029 14.334196538632  C 11.2497208812029 14.334196538632  9.62449450606308 15.8832628802771  9.62449450606308 15.8832628802771  C 9.62449450606308 15.8832628802771  5.98619313054566 16.0703579059563  5.98619313054566 16.0703579059563  C 5.98619313054566 16.0703579059563  4.34916837881669 18.0901794735042  4.34916837881669 18.0901794735042  C 4.34916837881669 18.0901794735042  1.88035807756088 18.0921912479738  1.88035807756088 18.0921912479738  C 1.88035807756088 18.0921912479738  2.52631919581047 11.4935709874595  2.52631919581047 11.4935709874595  Z " fill-rule="evenodd" />
    </mask>
  </defs>
  <g transform="matrix(1 0 0 1 -1104 -1920 )">
    <path d="M 2.52631919581047 11.4935709874595  C 2.52631919581047 11.4935709874595  2.59121026705023 5.37477462863698  2.59121026705023 5.37477462863698  C 2.59121026705023 5.37477462863698  2.52631919581047 4.50769983220945  2.52631919581047 4.50769983220945  C 2.52631919581047 4.50769983220945  3.52623161173142 4.23812205327373  3.52623161173142 4.23812205327373  C 3.52623161173142 4.23812205327373  5.0275750326864 4.93419601977923  5.0275750326864 4.93419601977923  C 5.0275750326864 4.93419601977923  10.1347742935389 1.37134343399556  10.1347742935389 1.37134343399556  C 10.1347742935389 1.37134343399556  11.7069079740281 1.29489600414809  11.7069079740281 1.29489600414809  C 11.7069079740281 1.29489600414809  11.7364039155007 2.16197080057528  11.7364039155007 2.16197080057528  C 11.7364039155007 2.16197080057528  13.3026384076952 2.18812386868129  13.3026384076952 2.18812386868129  C 13.3026384076952 2.18812386868129  13.1669570769214 3.79351989547719  13.1669570769214 3.79351989547719  C 13.1669570769214 3.79351989547719  11.8278413340656 6.34042637407819  11.8278413340656 6.34042637407819  C 11.8278413340656 6.34042637407819  12.5504919001441 7.25176020883815  12.5504919001441 7.25176020883815  C 12.5504919001441 7.25176020883815  11.6862608149972 10.8135912167112  11.6862608149972 10.8135912167112  C 11.6862608149972 10.8135912167112  12.2053893849148 11.3748762937488  12.2053893849148 11.3748762937488  C 12.2053893849148 11.3748762937488  11.2497208812029 14.334196538632  11.2497208812029 14.334196538632  C 11.2497208812029 14.334196538632  9.62449450606308 15.8832628802771  9.62449450606308 15.8832628802771  C 9.62449450606308 15.8832628802771  5.98619313054566 16.0703579059563  5.98619313054566 16.0703579059563  C 5.98619313054566 16.0703579059563  4.34916837881669 18.0901794735042  4.34916837881669 18.0901794735042  C 4.34916837881669 18.0901794735042  1.88035807756088 18.0921912479738  1.88035807756088 18.0921912479738  C 1.88035807756088 18.0921912479738  2.52631919581047 11.4935709874595  2.52631919581047 11.4935709874595  Z " fill-rule="nonzero" fill="#f2f2f2" stroke="none" transform="matrix(1 0 0 1 1104 1920 )" />
    <path d="M 2.52631919581047 11.4935709874595  C 2.52631919581047 11.4935709874595  2.59121026705023 5.37477462863698  2.59121026705023 5.37477462863698  C 2.59121026705023 5.37477462863698  2.52631919581047 4.50769983220945  2.52631919581047 4.50769983220945  C 2.52631919581047 4.50769983220945  3.52623161173142 4.23812205327373  3.52623161173142 4.23812205327373  C 3.52623161173142 4.23812205327373  5.0275750326864 4.93419601977923  5.0275750326864 4.93419601977923  C 5.0275750326864 4.93419601977923  10.1347742935389 1.37134343399556  10.1347742935389 1.37134343399556  C 10.1347742935389 1.37134343399556  11.7069079740281 1.29489600414809  11.7069079740281 1.29489600414809  C 11.7069079740281 1.29489600414809  11.7364039155007 2.16197080057528  11.7364039155007 2.16197080057528  C 11.7364039155007 2.16197080057528  13.3026384076952 2.18812386868129  13.3026384076952 2.18812386868129  C 13.3026384076952 2.18812386868129  13.1669570769214 3.79351989547719  13.1669570769214 3.79351989547719  C 13.1669570769214 3.79351989547719  11.8278413340656 6.34042637407819  11.8278413340656 6.34042637407819  C 11.8278413340656 6.34042637407819  12.5504919001441 7.25176020883815  12.5504919001441 7.25176020883815  C 12.5504919001441 7.25176020883815  11.6862608149972 10.8135912167112  11.6862608149972 10.8135912167112  C 11.6862608149972 10.8135912167112  12.2053893849148 11.3748762937488  12.2053893849148 11.3748762937488  C 12.2053893849148 11.3748762937488  11.2497208812029 14.334196538632  11.2497208812029 14.334196538632  C 11.2497208812029 14.334196538632  9.62449450606308 15.8832628802771  9.62449450606308 15.8832628802771  C 9.62449450606308 15.8832628802771  5.98619313054566 16.0703579059563  5.98619313054566 16.0703579059563  C 5.98619313054566 16.0703579059563  4.34916837881669 18.0901794735042  4.34916837881669 18.0901794735042  C 4.34916837881669 18.0901794735042  1.88035807756088 18.0921912479738  1.88035807756088 18.0921912479738  C 1.88035807756088 18.0921912479738  2.52631919581047 11.4935709874595  2.52631919581047 11.4935709874595  Z " stroke-width="2" stroke="#505050" fill="none" stroke-opacity="0.211764705882353" transform="matrix(1 0 0 1 1104 1920 )" mask="url(#clip601)" />
  </g>
</svg>