<?xml version="1.0" encoding="utf-8"?>
<svg version="1.1" xmlns:xlink="http://www.w3.org/1999/xlink" width="149px" height="116px" xmlns="http://www.w3.org/2000/svg">
  <defs>
    <mask fill="white" id="clip606">
      <path d="M 138.778419858352 7.95349859381795  C 138.778419858352 7.95349859381795  145.53015097961 11.9560712787284  145.53015097961 11.9560712787284  C 145.53015097961 11.9560712787284  145.065268723387 18.9945575850237  145.065268723387 18.9945575850237  C 145.065268723387 18.9945575850237  148.138960817471 19.8080184487496  148.138960817471 19.8080184487496  C 148.138960817471 19.8080184487496  145.672350257984 21.9420046403269  145.672350257984 21.9420046403269  C 145.672350257984 21.9420046403269  142.727184434738 23.5408759931674  142.727184434738 23.5408759931674  C 142.727184434738 23.5408759931674  139.795691619028 26.6738870651296  139.795691619028 26.6738870651296  C 139.795691619028 26.6738870651296  138.185011331291 29.468135920633  138.185011331291 29.468135920633  C 138.185011331291 29.468135920633  137.750209691648 34.292800353765  137.750209691648 34.292800353765  C 137.750209691648 34.292800353765  135.97545331348 36.5886156296381  135.97545331348 36.5886156296381  C 135.97545331348 36.5886156296381  135.909822877308 41.119829989914  135.909822877308 41.119829989914  C 135.909822877308 41.119829989914  133.705734062511 42.7963793032163  133.705734062511 42.7963793032163  C 133.705734062511 42.7963793032163  133.421335505763 46.3738809267102  133.421335505763 46.3738809267102  C 133.421335505763 46.3738809267102  132.368513925494 46.8377909683578  132.368513925494 46.8377909683578  C 132.368513925494 46.8377909683578  131.660252135131 50.1283156823677  131.660252135131 50.1283156823677  C 131.660252135131 50.1283156823677  133.588146197701 52.8643060675249  133.588146197701 52.8643060675249  C 133.588146197701 52.8643060675249  134.074905265981 61.6969206594013  134.074905265981 61.6969206594013  C 134.074905265981 61.6969206594013  135.453144425606 67.2465793901775  135.453144425606 67.2465793901775  C 135.453144425606 67.2465793901775  134.687456003592 70.3860636255115  134.687456003592 70.3860636255115  C 134.687456003592 70.3860636255115  136.221567449127 73.8945181730397  136.221567449127 73.8945181730397  C 136.221567449127 73.8945181730397  140.668029499822 77.2821403376269  140.668029499822 77.2821403376269  C 140.668029499822 77.2821403376269  144.808216181711 84.9247885586256  144.808216181711 84.9247885586256  C 144.808216181711 84.9247885586256  141.789216117771 84.3076803171786  141.789216117771 84.3076803171786  C 141.789216117771 84.3076803171786  131.490706841685 85.3325978510504  131.490706841685 85.3325978510504  C 131.490706841685 85.3325978510504  129.434286508276 86.0597498698184  129.434286508276 86.0597498698184  C 129.434286508276 86.0597498698184  127.24933990403 89.9414901717884  127.24933990403 89.9414901717884  C 127.24933990403 89.9414901717884  128.966669650546 92.6300106922188  128.966669650546 92.6300106922188  C 128.966669650546 92.6300106922188  127.604838099965 99.860534178545  127.604838099965 99.860534178545  C 127.604838099965 99.860534178545  126.655931376969 106.012197102901  126.655931376969 106.012197102901  C 126.655931376969 106.012197102901  128.726024717913 107.106161712739  128.726024717913 107.106161712739  C 128.726024717913 107.106161712739  134.08584367201 109.496916718065  134.08584367201 109.496916718065  C 134.08584367201 109.496916718065  136.191486832548 108.379217175864  136.191486832548 108.379217175864  C 136.191486832548 108.379217175864  136.831383585231 115.024998237602  136.831383585231 115.024998237602  C 136.831383585231 115.024998237602  130.962928750797 114.973212930627  130.962928750797 114.973212930627  C 130.962928750797 114.973212930627  127.815402416019 111.579117602668  127.815402416019 111.579117602668  C 127.815402416019 111.579117602668  124.990559059089 108.955328715956  124.990559059089 108.955328715956  C 124.990559059089 108.955328715956  119.113900420133 108.096555708627  119.113900420133 108.096555708627  C 119.113900420133 108.096555708627  117.393836072108 104.877235791707  117.393836072108 104.877235791707  C 117.393836072108 104.877235791707  112.706729088781 106.814869361007  112.706729088781 106.814869361007  C 112.706729088781 106.814869361007  106.564814103627 105.958254074802  106.564814103627 105.958254074802  C 106.564814103627 105.958254074802  104.002492491388 103.172636103794  104.002492491388 103.172636103794  C 104.002492491388 103.172636103794  99.1349018085857 102.607313169322  99.1349018085857 102.607313169322  C 99.1349018085857 102.607313169322  95.5416354281351 102.756195926873  95.5416354281351 102.756195926873  C 95.5416354281351 102.756195926873  95.1040991869845 100.850928174434  95.1040991869845 100.850928174434  C 95.1040991869845 100.850928174434  92.457004928022 100.697729974634  92.457004928022 100.697729974634  C 92.457004928022 100.697729974634  88.9649188033377 100.337390546936  88.9649188033377 100.337390546936  C 88.9649188033377 100.337390546936  84.2176505868516 101.254422024611  84.2176505868516 101.254422024611  C 84.2176505868516 101.254422024611  80.8841713495844 101.103381545935  80.8841713495844 101.103381545935  C 80.8841713495844 101.103381545935  78.986357903593 101.66438903816  78.986357903593 101.66438903816  C 78.986357903593 101.66438903816  79.396548129672 94.3907111293548  79.396548129672 94.3907111293548  C 79.396548129672 94.3907111293548  76.8396957204469 92.1272616703405  76.8396957204469 92.1272616703405  C 76.8396957204469 92.1272616703405  76.2763678099652 88.3836155203028  76.2763678099652 88.3836155203028  C 76.2763678099652 88.3836155203028  77.4057582324356 84.7198050518514  77.4057582324356 84.7198050518514  C 77.4057582324356 84.7198050518514  75.8525045763506 82.3765199112515  75.8525045763506 82.3765199112515  C 75.8525045763506 82.3765199112515  75.7103052979764 78.5616689641239  75.7103052979764 78.5616689641239  C 75.7103052979764 78.5616689641239  64.4205243038415 78.6134542710983  64.4205243038415 78.6134542710983  C 64.4205243038415 78.6134542710983  65.0905016731037 76.4319982147942  65.0905016731037 76.4319982147942  C 65.0905016731037 76.4319982147942  61.1772869163114 76.4557331471574  61.1772869163114 76.4557331471574  C 61.1772869163114 76.4557331471574  60.7643620887256 77.5043856133928  60.7643620887256 77.5043856133928  C 60.7643620887256 77.5043856133928  56.0088900677181 77.7395772159024  56.0088900677181 77.7395772159024  C 56.0088900677181 77.7395772159024  54.0837306066549 81.2717666957937  54.0837306066549 81.2717666957937  C 54.0837306066549 81.2717666957937  52.9351979736339 82.7908023670479  52.9351979736339 82.7908023670479  C 52.9351979736339 82.7908023670479  48.6993002389931 81.9341870808436  48.6993002389931 81.9341870808436  C 48.6993002389931 81.9341870808436  46.1697938448403 82.7864869248002  46.1697938448403 82.7864869248002  C 46.1697938448403 82.7864869248002  41.0998426505057 83.2784473410587  41.0998426505057 83.2784473410587  C 41.0998426505057 83.2784473410587  38.1628806317813 80.1044395677416  38.1628806317813 80.1044395677416  C 38.1628806317813 80.1044395677416  36.3990626596422 78.145228787203  36.3990626596422 78.145228787203  C 36.3990626596422 78.145228787203  34.2004430478596 74.5159418567347  34.2004430478596 74.5159418567347  C 34.2004430478596 74.5159418567347  32.3080988048825 70.0106201499459  32.3080988048825 70.0106201499459  C 32.3080988048825 70.0106201499459  9.68200593437355 69.9307844683599  9.68200593437355 69.9307844683599  C 9.68200593437355 69.9307844683599  6.99389265280391 70.6557787660041  6.99389265280391 70.6557787660041  C 6.99389265280391 70.6557787660041  4.77066162745648 70.5435772675593  4.77066162745648 70.5435772675593  C 4.77066162745648 70.5435772675593  1.60672768363506 71.354880410161  1.60672768363506 71.354880410161  C 1.60672768363506 71.354880410161  0.534763892815624 69.4819784745802  0.534763892815624 69.4819784745802  C 0.534763892815624 69.4819784745802  2.4845347674437 68.8432930218938  2.4845347674437 68.8432930218938  C 2.4845347674437 68.8432930218938  2.72244509856936 66.2108732506858  2.72244509856936 66.2108732506858  C 2.72244509856936 66.2108732506858  3.97762719037072 64.6594717625724  3.97762719037072 64.6594717625724  C 3.97762719037072 64.6594717625724  6.76692072770691 63.3928894628188  6.76692072770691 63.3928894628188  C 6.76692072770691 63.3928894628188  8.78232203850738 64.0056822620181  8.78232203850738 64.0056822620181  C 8.78232203850738 64.0056822620181  11.4048048839046 61.6990783805255  11.4048048839046 61.6990783805255  C 11.4048048839046 61.6990783805255  15.5805413853874 61.7573368508718  15.5805413853874 61.7573368508718  C 15.5805413853874 61.7573368508718  16.0727696566819 63.4640942599091  16.0727696566819 63.4640942599091  C 16.0727696566819 63.4640942599091  18.9386320362194 64.5321662162597  18.9386320362194 64.5321662162597  C 18.9386320362194 64.5321662162597  23.4479899215794 60.7539965282393  23.4479899215794 60.7539965282393  C 23.4479899215794 60.7539965282393  27.9163287843318 56.2432973476162  27.9163287843318 56.2432973476162  C 27.9163287843318 56.2432973476162  29.8524266514237 54.3164523839372  29.8524266514237 54.3164523839372  C 29.8524266514237 54.3164523839372  29.5953741097478 49.3644824044924  29.5953741097478 49.3644824044924  C 29.5953741097478 49.3644824044924  32.9261187455079 43.5213736008605  32.9261187455079 43.5213736008605  C 32.9261187455079 43.5213736008605  36.4400816822502 40.4250437880052  36.4400816822502 40.4250437880052  C 36.4400816822502 40.4250437880052  41.4881560645268 37.5293820396764  41.4881560645268 37.5293820396764  C 41.4881560645268 37.5293820396764  42.3686977498427 35.611167960493  42.3686977498427 35.611167960493  C 42.3686977498427 35.611167960493  42.5601198553465 33.4081346929492  42.5601198553465 33.4081346929492  C 42.5601198553465 33.4081346929492  43.8098327441333 31.3237760872225  43.8098327441333 31.3237760872225  C 43.8098327441333 31.3237760872225  43.4078463225762 27.9167344325197  43.4078463225762 27.9167344325197  C 43.4078463225762 27.9167344325197  44.3622222485861 22.5893209775093  44.3622222485861 22.5893209775093  C 44.3622222485861 22.5893209775093  45.8635184760345 18.8370439429759  45.8635184760345 18.8370439429759  C 45.8635184760345 18.8370439429759  48.1578491405691 15.622039468304  48.1578491405691 15.622039468304  C 48.1578491405691 15.622039468304  48.6145275922702 11.9862793744635  48.6145275922702 11.9862793744635  C 48.6145275922702 11.9862793744635  49.3036471720826 7.78519634615068  49.3036471720826 7.78519634615068  C 49.3036471720826 7.78519634615068  52.2870974164293 4.72554779240228  52.2870974164293 4.72554779240228  C 52.2870974164293 4.72554779240228  56.394468880232 2.7835987808554  56.394468880232 2.7835987808554  C 56.394468880232 2.7835987808554  62.7031945573248 4.83343384859911  62.7031945573248 4.83343384859911  C 62.7031945573248 4.83343384859911  67.5871928491702 7.05588660625847  67.5871928491702 7.05588660625847  C 67.5871928491702 7.05588660625847  73.1958605404215 7.64925991534228  73.1958605404215 7.64925991534228  C 73.1958605404215 7.64925991534228  80.9033135601347 8.82521792789006  80.9033135601347 8.82521792789006  C 80.9033135601347 8.82521792789006  83.194909623162 5.18514239180153  83.194909623162 5.18514239180153  C 83.194909623162 5.18514239180153  84.247731203431 4.72123235015426  84.247731203431 4.72123235015426  C 84.247731203431 4.72123235015426  87.7425519296227 5.32755198598177  87.7425519296227 5.32755198598177  C 87.7425519296227 5.32755198598177  96.2772432335698 2.31753101808395  96.2772432335698 2.31753101808395  C 96.2772432335698 2.31753101808395  99.3044471020316 3.59274420233324  99.3044471020316 3.59274420233324  C 99.3044471020316 3.59274420233324  101.784730669055 3.41149562792227  101.784730669055 3.41149562792227  C 101.784730669055 3.41149562792227  102.935997903583 1.94424526364216  102.935997903583 1.94424526364216  C 102.935997903583 1.94424526364216  105.785452674077 1.42854991502049  105.785452674077 1.42854991502049  C 105.785452674077 1.42854991502049  111.552727252746 2.06291992545921  111.552727252746 2.06291992545921  C 111.552727252746 2.06291992545921  116.472275364185 2.20101407739144  116.472275364185 2.20101407739144  C 116.472275364185 2.20101407739144  119.001781758338 1.5623286247047  119.001781758338 1.5623286247047  C 119.001781758338 1.5623286247047  123.647869719057 6.54019125763679  123.647869719057 6.54019125763679  C 123.647869719057 6.54019125763679  127.090733016612 7.27165871865248  127.090733016612 7.27165871865248  C 127.090733016612 7.27165871865248  129.141684147007 6.25968751152432  129.141684147007 6.25968751152432  C 129.141684147007 6.25968751152432  132.688462301835 6.65455047720547  132.688462301835 6.65455047720547  C 132.688462301835 6.65455047720547  136.957175254562 5.38149501408037  136.957175254562 5.38149501408037  C 136.957175254562 5.38149501408037  138.778419858352 7.95349859381795  138.778419858352 7.95349859381795  Z " fill-rule="evenodd" />
    </mask>
  </defs>
  <g transform="matrix(1 0 0 1 -1887 -2000 )">
    <path d="M 138.778419858352 7.95349859381795  C 138.778419858352 7.95349859381795  145.53015097961 11.9560712787284  145.53015097961 11.9560712787284  C 145.53015097961 11.9560712787284  145.065268723387 18.9945575850237  145.065268723387 18.9945575850237  C 145.065268723387 18.9945575850237  148.138960817471 19.8080184487496  148.138960817471 19.8080184487496  C 148.138960817471 19.8080184487496  145.672350257984 21.9420046403269  145.672350257984 21.9420046403269  C 145.672350257984 21.9420046403269  142.727184434738 23.5408759931674  142.727184434738 23.5408759931674  C 142.727184434738 23.5408759931674  139.795691619028 26.6738870651296  139.795691619028 26.6738870651296  C 139.795691619028 26.6738870651296  138.185011331291 29.468135920633  138.185011331291 29.468135920633  C 138.185011331291 29.468135920633  137.750209691648 34.292800353765  137.750209691648 34.292800353765  C 137.750209691648 34.292800353765  135.97545331348 36.5886156296381  135.97545331348 36.5886156296381  C 135.97545331348 36.5886156296381  135.909822877308 41.119829989914  135.909822877308 41.119829989914  C 135.909822877308 41.119829989914  133.705734062511 42.7963793032163  133.705734062511 42.7963793032163  C 133.705734062511 42.7963793032163  133.421335505763 46.3738809267102  133.421335505763 46.3738809267102  C 133.421335505763 46.3738809267102  132.368513925494 46.8377909683578  132.368513925494 46.8377909683578  C 132.368513925494 46.8377909683578  131.660252135131 50.1283156823677  131.660252135131 50.1283156823677  C 131.660252135131 50.1283156823677  133.588146197701 52.8643060675249  133.588146197701 52.8643060675249  C 133.588146197701 52.8643060675249  134.074905265981 61.6969206594013  134.074905265981 61.6969206594013  C 134.074905265981 61.6969206594013  135.453144425606 67.2465793901775  135.453144425606 67.2465793901775  C 135.453144425606 67.2465793901775  134.687456003592 70.3860636255115  134.687456003592 70.3860636255115  C 134.687456003592 70.3860636255115  136.221567449127 73.8945181730397  136.221567449127 73.8945181730397  C 136.221567449127 73.8945181730397  140.668029499822 77.2821403376269  140.668029499822 77.2821403376269  C 140.668029499822 77.2821403376269  144.808216181711 84.9247885586256  144.808216181711 84.9247885586256  C 144.808216181711 84.9247885586256  141.789216117771 84.3076803171786  141.789216117771 84.3076803171786  C 141.789216117771 84.3076803171786  131.490706841685 85.3325978510504  131.490706841685 85.3325978510504  C 131.490706841685 85.3325978510504  129.434286508276 86.0597498698184  129.434286508276 86.0597498698184  C 129.434286508276 86.0597498698184  127.24933990403 89.9414901717884  127.24933990403 89.9414901717884  C 127.24933990403 89.9414901717884  128.966669650546 92.6300106922188  128.966669650546 92.6300106922188  C 128.966669650546 92.6300106922188  127.604838099965 99.860534178545  127.604838099965 99.860534178545  C 127.604838099965 99.860534178545  126.655931376969 106.012197102901  126.655931376969 106.012197102901  C 126.655931376969 106.012197102901  128.726024717913 107.106161712739  128.726024717913 107.106161712739  C 128.726024717913 107.106161712739  134.08584367201 109.496916718065  134.08584367201 109.496916718065  C 134.08584367201 109.496916718065  136.191486832548 108.379217175864  136.191486832548 108.379217175864  C 136.191486832548 108.379217175864  136.831383585231 115.024998237602  136.831383585231 115.024998237602  C 136.831383585231 115.024998237602  130.962928750797 114.973212930627  130.962928750797 114.973212930627  C 130.962928750797 114.973212930627  127.815402416019 111.579117602668  127.815402416019 111.579117602668  C 127.815402416019 111.579117602668  124.990559059089 108.955328715956  124.990559059089 108.955328715956  C 124.990559059089 108.955328715956  119.113900420133 108.096555708627  119.113900420133 108.096555708627  C 119.113900420133 108.096555708627  117.393836072108 104.877235791707  117.393836072108 104.877235791707  C 117.393836072108 104.877235791707  112.706729088781 106.814869361007  112.706729088781 106.814869361007  C 112.706729088781 106.814869361007  106.564814103627 105.958254074802  106.564814103627 105.958254074802  C 106.564814103627 105.958254074802  104.002492491388 103.172636103794  104.002492491388 103.172636103794  C 104.002492491388 103.172636103794  99.1349018085857 102.607313169322  99.1349018085857 102.607313169322  C 99.1349018085857 102.607313169322  95.5416354281351 102.756195926873  95.5416354281351 102.756195926873  C 95.5416354281351 102.756195926873  95.1040991869845 100.850928174434  95.1040991869845 100.850928174434  C 95.1040991869845 100.850928174434  92.457004928022 100.697729974634  92.457004928022 100.697729974634  C 92.457004928022 100.697729974634  88.9649188033377 100.337390546936  88.9649188033377 100.337390546936  C 88.9649188033377 100.337390546936  84.2176505868516 101.254422024611  84.2176505868516 101.254422024611  C 84.2176505868516 101.254422024611  80.8841713495844 101.103381545935  80.8841713495844 101.103381545935  C 80.8841713495844 101.103381545935  78.986357903593 101.66438903816  78.986357903593 101.66438903816  C 78.986357903593 101.66438903816  79.396548129672 94.3907111293548  79.396548129672 94.3907111293548  C 79.396548129672 94.3907111293548  76.8396957204469 92.1272616703405  76.8396957204469 92.1272616703405  C 76.8396957204469 92.1272616703405  76.2763678099652 88.3836155203028  76.2763678099652 88.3836155203028  C 76.2763678099652 88.3836155203028  77.4057582324356 84.7198050518514  77.4057582324356 84.7198050518514  C 77.4057582324356 84.7198050518514  75.8525045763506 82.3765199112515  75.8525045763506 82.3765199112515  C 75.8525045763506 82.3765199112515  75.7103052979764 78.5616689641239  75.7103052979764 78.5616689641239  C 75.7103052979764 78.5616689641239  64.4205243038415 78.6134542710983  64.4205243038415 78.6134542710983  C 64.4205243038415 78.6134542710983  65.0905016731037 76.4319982147942  65.0905016731037 76.4319982147942  C 65.0905016731037 76.4319982147942  61.1772869163114 76.4557331471574  61.1772869163114 76.4557331471574  C 61.1772869163114 76.4557331471574  60.7643620887256 77.5043856133928  60.7643620887256 77.5043856133928  C 60.7643620887256 77.5043856133928  56.0088900677181 77.7395772159024  56.0088900677181 77.7395772159024  C 56.0088900677181 77.7395772159024  54.0837306066549 81.2717666957937  54.0837306066549 81.2717666957937  C 54.0837306066549 81.2717666957937  52.9351979736339 82.7908023670479  52.9351979736339 82.7908023670479  C 52.9351979736339 82.7908023670479  48.6993002389931 81.9341870808436  48.6993002389931 81.9341870808436  C 48.6993002389931 81.9341870808436  46.1697938448403 82.7864869248002  46.1697938448403 82.7864869248002  C 46.1697938448403 82.7864869248002  41.0998426505057 83.2784473410587  41.0998426505057 83.2784473410587  C 41.0998426505057 83.2784473410587  38.1628806317813 80.1044395677416  38.1628806317813 80.1044395677416  C 38.1628806317813 80.1044395677416  36.3990626596422 78.145228787203  36.3990626596422 78.145228787203  C 36.3990626596422 78.145228787203  34.2004430478596 74.5159418567347  34.2004430478596 74.5159418567347  C 34.2004430478596 74.5159418567347  32.3080988048825 70.0106201499459  32.3080988048825 70.0106201499459  C 32.3080988048825 70.0106201499459  9.68200593437355 69.9307844683599  9.68200593437355 69.9307844683599  C 9.68200593437355 69.9307844683599  6.99389265280391 70.6557787660041  6.99389265280391 70.6557787660041  C 6.99389265280391 70.6557787660041  4.77066162745648 70.5435772675593  4.77066162745648 70.5435772675593  C 4.77066162745648 70.5435772675593  1.60672768363506 71.354880410161  1.60672768363506 71.354880410161  C 1.60672768363506 71.354880410161  0.534763892815624 69.4819784745802  0.534763892815624 69.4819784745802  C 0.534763892815624 69.4819784745802  2.4845347674437 68.8432930218938  2.4845347674437 68.8432930218938  C 2.4845347674437 68.8432930218938  2.72244509856936 66.2108732506858  2.72244509856936 66.2108732506858  C 2.72244509856936 66.2108732506858  3.97762719037072 64.6594717625724  3.97762719037072 64.6594717625724  C 3.97762719037072 64.6594717625724  6.76692072770691 63.3928894628188  6.76692072770691 63.3928894628188  C 6.76692072770691 63.3928894628188  8.78232203850738 64.0056822620181  8.78232203850738 64.0056822620181  C 8.78232203850738 64.0056822620181  11.4048048839046 61.6990783805255  11.4048048839046 61.6990783805255  C 11.4048048839046 61.6990783805255  15.5805413853874 61.7573368508718  15.5805413853874 61.7573368508718  C 15.5805413853874 61.7573368508718  16.0727696566819 63.4640942599091  16.0727696566819 63.4640942599091  C 16.0727696566819 63.4640942599091  18.9386320362194 64.5321662162597  18.9386320362194 64.5321662162597  C 18.9386320362194 64.5321662162597  23.4479899215794 60.7539965282393  23.4479899215794 60.7539965282393  C 23.4479899215794 60.7539965282393  27.9163287843318 56.2432973476162  27.9163287843318 56.2432973476162  C 27.9163287843318 56.2432973476162  29.8524266514237 54.3164523839372  29.8524266514237 54.3164523839372  C 29.8524266514237 54.3164523839372  29.5953741097478 49.3644824044924  29.5953741097478 49.3644824044924  C 29.5953741097478 49.3644824044924  32.9261187455079 43.5213736008605  32.9261187455079 43.5213736008605  C 32.9261187455079 43.5213736008605  36.4400816822502 40.4250437880052  36.4400816822502 40.4250437880052  C 36.4400816822502 40.4250437880052  41.4881560645268 37.5293820396764  41.4881560645268 37.5293820396764  C 41.4881560645268 37.5293820396764  42.3686977498427 35.611167960493  42.3686977498427 35.611167960493  C 42.3686977498427 35.611167960493  42.5601198553465 33.4081346929492  42.5601198553465 33.4081346929492  C 42.5601198553465 33.4081346929492  43.8098327441333 31.3237760872225  43.8098327441333 31.3237760872225  C 43.8098327441333 31.3237760872225  43.4078463225762 27.9167344325197  43.4078463225762 27.9167344325197  C 43.4078463225762 27.9167344325197  44.3622222485861 22.5893209775093  44.3622222485861 22.5893209775093  C 44.3622222485861 22.5893209775093  45.8635184760345 18.8370439429759  45.8635184760345 18.8370439429759  C 45.8635184760345 18.8370439429759  48.1578491405691 15.622039468304  48.1578491405691 15.622039468304  C 48.1578491405691 15.622039468304  48.6145275922702 11.9862793744635  48.6145275922702 11.9862793744635  C 48.6145275922702 11.9862793744635  49.3036471720826 7.78519634615068  49.3036471720826 7.78519634615068  C 49.3036471720826 7.78519634615068  52.2870974164293 4.72554779240228  52.2870974164293 4.72554779240228  C 52.2870974164293 4.72554779240228  56.394468880232 2.7835987808554  56.394468880232 2.7835987808554  C 56.394468880232 2.7835987808554  62.7031945573248 4.83343384859911  62.7031945573248 4.83343384859911  C 62.7031945573248 4.83343384859911  67.5871928491702 7.05588660625847  67.5871928491702 7.05588660625847  C 67.5871928491702 7.05588660625847  73.1958605404215 7.64925991534228  73.1958605404215 7.64925991534228  C 73.1958605404215 7.64925991534228  80.9033135601347 8.82521792789006  80.9033135601347 8.82521792789006  C 80.9033135601347 8.82521792789006  83.194909623162 5.18514239180153  83.194909623162 5.18514239180153  C 83.194909623162 5.18514239180153  84.247731203431 4.72123235015426  84.247731203431 4.72123235015426  C 84.247731203431 4.72123235015426  87.7425519296227 5.32755198598177  87.7425519296227 5.32755198598177  C 87.7425519296227 5.32755198598177  96.2772432335698 2.31753101808395  96.2772432335698 2.31753101808395  C 96.2772432335698 2.31753101808395  99.3044471020316 3.59274420233324  99.3044471020316 3.59274420233324  C 99.3044471020316 3.59274420233324  101.784730669055 3.41149562792227  101.784730669055 3.41149562792227  C 101.784730669055 3.41149562792227  102.935997903583 1.94424526364216  102.935997903583 1.94424526364216  C 102.935997903583 1.94424526364216  105.785452674077 1.42854991502049  105.785452674077 1.42854991502049  C 105.785452674077 1.42854991502049  111.552727252746 2.06291992545921  111.552727252746 2.06291992545921  C 111.552727252746 2.06291992545921  116.472275364185 2.20101407739144  116.472275364185 2.20101407739144  C 116.472275364185 2.20101407739144  119.001781758338 1.5623286247047  119.001781758338 1.5623286247047  C 119.001781758338 1.5623286247047  123.647869719057 6.54019125763679  123.647869719057 6.54019125763679  C 123.647869719057 6.54019125763679  127.090733016612 7.27165871865248  127.090733016612 7.27165871865248  C 127.090733016612 7.27165871865248  129.141684147007 6.25968751152432  129.141684147007 6.25968751152432  C 129.141684147007 6.25968751152432  132.688462301835 6.65455047720547  132.688462301835 6.65455047720547  C 132.688462301835 6.65455047720547  136.957175254562 5.38149501408037  136.957175254562 5.38149501408037  C 136.957175254562 5.38149501408037  138.778419858352 7.95349859381795  138.778419858352 7.95349859381795  Z " fill-rule="nonzero" fill="#f2f2f2" stroke="none" transform="matrix(1 0 0 1 1887 2000 )" />
    <path d="M 138.778419858352 7.95349859381795  C 138.778419858352 7.95349859381795  145.53015097961 11.9560712787284  145.53015097961 11.9560712787284  C 145.53015097961 11.9560712787284  145.065268723387 18.9945575850237  145.065268723387 18.9945575850237  C 145.065268723387 18.9945575850237  148.138960817471 19.8080184487496  148.138960817471 19.8080184487496  C 148.138960817471 19.8080184487496  145.672350257984 21.9420046403269  145.672350257984 21.9420046403269  C 145.672350257984 21.9420046403269  142.727184434738 23.5408759931674  142.727184434738 23.5408759931674  C 142.727184434738 23.5408759931674  139.795691619028 26.6738870651296  139.795691619028 26.6738870651296  C 139.795691619028 26.6738870651296  138.185011331291 29.468135920633  138.185011331291 29.468135920633  C 138.185011331291 29.468135920633  137.750209691648 34.292800353765  137.750209691648 34.292800353765  C 137.750209691648 34.292800353765  135.97545331348 36.5886156296381  135.97545331348 36.5886156296381  C 135.97545331348 36.5886156296381  135.909822877308 41.119829989914  135.909822877308 41.119829989914  C 135.909822877308 41.119829989914  133.705734062511 42.7963793032163  133.705734062511 42.7963793032163  C 133.705734062511 42.7963793032163  133.421335505763 46.3738809267102  133.421335505763 46.3738809267102  C 133.421335505763 46.3738809267102  132.368513925494 46.8377909683578  132.368513925494 46.8377909683578  C 132.368513925494 46.8377909683578  131.660252135131 50.1283156823677  131.660252135131 50.1283156823677  C 131.660252135131 50.1283156823677  133.588146197701 52.8643060675249  133.588146197701 52.8643060675249  C 133.588146197701 52.8643060675249  134.074905265981 61.6969206594013  134.074905265981 61.6969206594013  C 134.074905265981 61.6969206594013  135.453144425606 67.2465793901775  135.453144425606 67.2465793901775  C 135.453144425606 67.2465793901775  134.687456003592 70.3860636255115  134.687456003592 70.3860636255115  C 134.687456003592 70.3860636255115  136.221567449127 73.8945181730397  136.221567449127 73.8945181730397  C 136.221567449127 73.8945181730397  140.668029499822 77.2821403376269  140.668029499822 77.2821403376269  C 140.668029499822 77.2821403376269  144.808216181711 84.9247885586256  144.808216181711 84.9247885586256  C 144.808216181711 84.9247885586256  141.789216117771 84.3076803171786  141.789216117771 84.3076803171786  C 141.789216117771 84.3076803171786  131.490706841685 85.3325978510504  131.490706841685 85.3325978510504  C 131.490706841685 85.3325978510504  129.434286508276 86.0597498698184  129.434286508276 86.0597498698184  C 129.434286508276 86.0597498698184  127.24933990403 89.9414901717884  127.24933990403 89.9414901717884  C 127.24933990403 89.9414901717884  128.966669650546 92.6300106922188  128.966669650546 92.6300106922188  C 128.966669650546 92.6300106922188  127.604838099965 99.860534178545  127.604838099965 99.860534178545  C 127.604838099965 99.860534178545  126.655931376969 106.012197102901  126.655931376969 106.012197102901  C 126.655931376969 106.012197102901  128.726024717913 107.106161712739  128.726024717913 107.106161712739  C 128.726024717913 107.106161712739  134.08584367201 109.496916718065  134.08584367201 109.496916718065  C 134.08584367201 109.496916718065  136.191486832548 108.379217175864  136.191486832548 108.379217175864  C 136.191486832548 108.379217175864  136.831383585231 115.024998237602  136.831383585231 115.024998237602  C 136.831383585231 115.024998237602  130.962928750797 114.973212930627  130.962928750797 114.973212930627  C 130.962928750797 114.973212930627  127.815402416019 111.579117602668  127.815402416019 111.579117602668  C 127.815402416019 111.579117602668  124.990559059089 108.955328715956  124.990559059089 108.955328715956  C 124.990559059089 108.955328715956  119.113900420133 108.096555708627  119.113900420133 108.096555708627  C 119.113900420133 108.096555708627  117.393836072108 104.877235791707  117.393836072108 104.877235791707  C 117.393836072108 104.877235791707  112.706729088781 106.814869361007  112.706729088781 106.814869361007  C 112.706729088781 106.814869361007  106.564814103627 105.958254074802  106.564814103627 105.958254074802  C 106.564814103627 105.958254074802  104.002492491388 103.172636103794  104.002492491388 103.172636103794  C 104.002492491388 103.172636103794  99.1349018085857 102.607313169322  99.1349018085857 102.607313169322  C 99.1349018085857 102.607313169322  95.5416354281351 102.756195926873  95.5416354281351 102.756195926873  C 95.5416354281351 102.756195926873  95.1040991869845 100.850928174434  95.1040991869845 100.850928174434  C 95.1040991869845 100.850928174434  92.457004928022 100.697729974634  92.457004928022 100.697729974634  C 92.457004928022 100.697729974634  88.9649188033377 100.337390546936  88.9649188033377 100.337390546936  C 88.9649188033377 100.337390546936  84.2176505868516 101.254422024611  84.2176505868516 101.254422024611  C 84.2176505868516 101.254422024611  80.8841713495844 101.103381545935  80.8841713495844 101.103381545935  C 80.8841713495844 101.103381545935  78.986357903593 101.66438903816  78.986357903593 101.66438903816  C 78.986357903593 101.66438903816  79.396548129672 94.3907111293548  79.396548129672 94.3907111293548  C 79.396548129672 94.3907111293548  76.8396957204469 92.1272616703405  76.8396957204469 92.1272616703405  C 76.8396957204469 92.1272616703405  76.2763678099652 88.3836155203028  76.2763678099652 88.3836155203028  C 76.2763678099652 88.3836155203028  77.4057582324356 84.7198050518514  77.4057582324356 84.7198050518514  C 77.4057582324356 84.7198050518514  75.8525045763506 82.3765199112515  75.8525045763506 82.3765199112515  C 75.8525045763506 82.3765199112515  75.7103052979764 78.5616689641239  75.7103052979764 78.5616689641239  C 75.7103052979764 78.5616689641239  64.4205243038415 78.6134542710983  64.4205243038415 78.6134542710983  C 64.4205243038415 78.6134542710983  65.0905016731037 76.4319982147942  65.0905016731037 76.4319982147942  C 65.0905016731037 76.4319982147942  61.1772869163114 76.4557331471574  61.1772869163114 76.4557331471574  C 61.1772869163114 76.4557331471574  60.7643620887256 77.5043856133928  60.7643620887256 77.5043856133928  C 60.7643620887256 77.5043856133928  56.0088900677181 77.7395772159024  56.0088900677181 77.7395772159024  C 56.0088900677181 77.7395772159024  54.0837306066549 81.2717666957937  54.0837306066549 81.2717666957937  C 54.0837306066549 81.2717666957937  52.9351979736339 82.7908023670479  52.9351979736339 82.7908023670479  C 52.9351979736339 82.7908023670479  48.6993002389931 81.9341870808436  48.6993002389931 81.9341870808436  C 48.6993002389931 81.9341870808436  46.1697938448403 82.7864869248002  46.1697938448403 82.7864869248002  C 46.1697938448403 82.7864869248002  41.0998426505057 83.2784473410587  41.0998426505057 83.2784473410587  C 41.0998426505057 83.2784473410587  38.1628806317813 80.1044395677416  38.1628806317813 80.1044395677416  C 38.1628806317813 80.1044395677416  36.3990626596422 78.145228787203  36.3990626596422 78.145228787203  C 36.3990626596422 78.145228787203  34.2004430478596 74.5159418567347  34.2004430478596 74.5159418567347  C 34.2004430478596 74.5159418567347  32.3080988048825 70.0106201499459  32.3080988048825 70.0106201499459  C 32.3080988048825 70.0106201499459  9.68200593437355 69.9307844683599  9.68200593437355 69.9307844683599  C 9.68200593437355 69.9307844683599  6.99389265280391 70.6557787660041  6.99389265280391 70.6557787660041  C 6.99389265280391 70.6557787660041  4.77066162745648 70.5435772675593  4.77066162745648 70.5435772675593  C 4.77066162745648 70.5435772675593  1.60672768363506 71.354880410161  1.60672768363506 71.354880410161  C 1.60672768363506 71.354880410161  0.534763892815624 69.4819784745802  0.534763892815624 69.4819784745802  C 0.534763892815624 69.4819784745802  2.4845347674437 68.8432930218938  2.4845347674437 68.8432930218938  C 2.4845347674437 68.8432930218938  2.72244509856936 66.2108732506858  2.72244509856936 66.2108732506858  C 2.72244509856936 66.2108732506858  3.97762719037072 64.6594717625724  3.97762719037072 64.6594717625724  C 3.97762719037072 64.6594717625724  6.76692072770691 63.3928894628188  6.76692072770691 63.3928894628188  C 6.76692072770691 63.3928894628188  8.78232203850738 64.0056822620181  8.78232203850738 64.0056822620181  C 8.78232203850738 64.0056822620181  11.4048048839046 61.6990783805255  11.4048048839046 61.6990783805255  C 11.4048048839046 61.6990783805255  15.5805413853874 61.7573368508718  15.5805413853874 61.7573368508718  C 15.5805413853874 61.7573368508718  16.0727696566819 63.4640942599091  16.0727696566819 63.4640942599091  C 16.0727696566819 63.4640942599091  18.9386320362194 64.5321662162597  18.9386320362194 64.5321662162597  C 18.9386320362194 64.5321662162597  23.4479899215794 60.7539965282393  23.4479899215794 60.7539965282393  C 23.4479899215794 60.7539965282393  27.9163287843318 56.2432973476162  27.9163287843318 56.2432973476162  C 27.9163287843318 56.2432973476162  29.8524266514237 54.3164523839372  29.8524266514237 54.3164523839372  C 29.8524266514237 54.3164523839372  29.5953741097478 49.3644824044924  29.5953741097478 49.3644824044924  C 29.5953741097478 49.3644824044924  32.9261187455079 43.5213736008605  32.9261187455079 43.5213736008605  C 32.9261187455079 43.5213736008605  36.4400816822502 40.4250437880052  36.4400816822502 40.4250437880052  C 36.4400816822502 40.4250437880052  41.4881560645268 37.5293820396764  41.4881560645268 37.5293820396764  C 41.4881560645268 37.5293820396764  42.3686977498427 35.611167960493  42.3686977498427 35.611167960493  C 42.3686977498427 35.611167960493  42.5601198553465 33.4081346929492  42.5601198553465 33.4081346929492  C 42.5601198553465 33.4081346929492  43.8098327441333 31.3237760872225  43.8098327441333 31.3237760872225  C 43.8098327441333 31.3237760872225  43.4078463225762 27.9167344325197  43.4078463225762 27.9167344325197  C 43.4078463225762 27.9167344325197  44.3622222485861 22.5893209775093  44.3622222485861 22.5893209775093  C 44.3622222485861 22.5893209775093  45.8635184760345 18.8370439429759  45.8635184760345 18.8370439429759  C 45.8635184760345 18.8370439429759  48.1578491405691 15.622039468304  48.1578491405691 15.622039468304  C 48.1578491405691 15.622039468304  48.6145275922702 11.9862793744635  48.6145275922702 11.9862793744635  C 48.6145275922702 11.9862793744635  49.3036471720826 7.78519634615068  49.3036471720826 7.78519634615068  C 49.3036471720826 7.78519634615068  52.2870974164293 4.72554779240228  52.2870974164293 4.72554779240228  C 52.2870974164293 4.72554779240228  56.394468880232 2.7835987808554  56.394468880232 2.7835987808554  C 56.394468880232 2.7835987808554  62.7031945573248 4.83343384859911  62.7031945573248 4.83343384859911  C 62.7031945573248 4.83343384859911  67.5871928491702 7.05588660625847  67.5871928491702 7.05588660625847  C 67.5871928491702 7.05588660625847  73.1958605404215 7.64925991534228  73.1958605404215 7.64925991534228  C 73.1958605404215 7.64925991534228  80.9033135601347 8.82521792789006  80.9033135601347 8.82521792789006  C 80.9033135601347 8.82521792789006  83.194909623162 5.18514239180153  83.194909623162 5.18514239180153  C 83.194909623162 5.18514239180153  84.247731203431 4.72123235015426  84.247731203431 4.72123235015426  C 84.247731203431 4.72123235015426  87.7425519296227 5.32755198598177  87.7425519296227 5.32755198598177  C 87.7425519296227 5.32755198598177  96.2772432335698 2.31753101808395  96.2772432335698 2.31753101808395  C 96.2772432335698 2.31753101808395  99.3044471020316 3.59274420233324  99.3044471020316 3.59274420233324  C 99.3044471020316 3.59274420233324  101.784730669055 3.41149562792227  101.784730669055 3.41149562792227  C 101.784730669055 3.41149562792227  102.935997903583 1.94424526364216  102.935997903583 1.94424526364216  C 102.935997903583 1.94424526364216  105.785452674077 1.42854991502049  105.785452674077 1.42854991502049  C 105.785452674077 1.42854991502049  111.552727252746 2.06291992545921  111.552727252746 2.06291992545921  C 111.552727252746 2.06291992545921  116.472275364185 2.20101407739144  116.472275364185 2.20101407739144  C 116.472275364185 2.20101407739144  119.001781758338 1.5623286247047  119.001781758338 1.5623286247047  C 119.001781758338 1.5623286247047  123.647869719057 6.54019125763679  123.647869719057 6.54019125763679  C 123.647869719057 6.54019125763679  127.090733016612 7.27165871865248  127.090733016612 7.27165871865248  C 127.090733016612 7.27165871865248  129.141684147007 6.25968751152432  129.141684147007 6.25968751152432  C 129.141684147007 6.25968751152432  132.688462301835 6.65455047720547  132.688462301835 6.65455047720547  C 132.688462301835 6.65455047720547  136.957175254562 5.38149501408037  136.957175254562 5.38149501408037  C 136.957175254562 5.38149501408037  138.778419858352 7.95349859381795  138.778419858352 7.95349859381795  Z " stroke-width="2" stroke="#505050" fill="none" stroke-opacity="0.211764705882353" transform="matrix(1 0 0 1 1887 2000 )" mask="url(#clip606)" />
  </g>
</svg>