<?xml version="1.0" encoding="utf-8"?>
<svg version="1.1" xmlns:xlink="http://www.w3.org/1999/xlink" width="102px" height="55px" xmlns="http://www.w3.org/2000/svg">
  <defs>
    <mask fill="white" id="clip607">
      <path d="M 2.56059126304513 29.7449536067091  C 2.56059126304513 29.7449536067091  6.44225716083838 22.2384850477213  6.44225716083838 22.2384850477213  C 6.44225716083838 22.2384850477213  12.826358733166 21.7926593545745  12.826358733166 21.7926593545745  C 12.826358733166 21.7926593545745  14.246883274486 20.2743284562161  14.246883274486 20.2743284562161  C 14.246883274486 20.2743284562161  15.5270071343966 20.3878878308856  15.5270071343966 20.3878878308856  C 15.5270071343966 20.3878878308856  17.454075310606 21.7274678617089  17.454075310606 21.7274678617089  C 17.454075310606 21.7274678617089  27.1720048277757 19.4646921738504  27.1720048277757 19.4646921738504  C 27.1720048277757 19.4646921738504  30.4480207273316 17.1556515555709  30.4480207273316 17.1556515555709  C 30.4480207273316 17.1556515555709  34.4755932156093 15.0863473949271  34.4755932156093 15.0863473949271  C 34.4755932156093 15.0863473949271  33.7102718542003 13.000219623221  33.7102718542003 13.000219623221  C 33.7102718542003 13.000219623221  35.8878588933167 12.4534522637014  35.8878588933167 12.4534522637014  C 35.8878588933167 12.4534522637014  43.3428597807097 12.8235717070686  43.3428597807097 12.8235717070686  C 43.3428597807097 12.8235717070686  52.6051538504814 10.072911298408  52.6051538504814 10.072911298408  C 52.6051538504814 10.072911298408  58.1853926978761 3.58320333118567  58.1853926978761 3.58320333118567  C 58.1853926978761 3.58320333118567  62.102847004656 1.16901514376764  62.102847004656 1.16901514376764  C 62.102847004656 1.16901514376764  66.9893413086154 0.149083723125235  66.9893413086154 0.149083723125235  C 66.9893413086154 0.149083723125235  67.8647808515218 2.70416965318841  67.8647808515218 2.70416965318841  C 67.8647808515218 2.70416965318841  72.3163083385655 6.42849655207082  72.3163083385655 6.42849655207082  C 72.3163083385655 6.42849655207082  72.3383319748648 8.8531994964025  72.3383319748648 8.8531994964025  C 72.3383319748648 8.8531994964025  71.085737660329 11.3241673711548  71.085737660329 11.3241673711548  C 71.085737660329 11.3241673711548  71.5785165225311 13.1684557338425  71.5785165225311 13.1684557338425  C 71.5785165225311 13.1684557338425  74.2571412874618 14.8760522566501  74.2571412874618 14.8760522566501  C 74.2571412874618 14.8760522566501  80.1346992249003 17.4647854088379  80.1346992249003 17.4647854088379  C 80.1346992249003 17.4647854088379  84.3604844398737 19.8537381796622  84.3604844398737 19.8537381796622  C 84.3604844398737 19.8537381796622  84.4320612578472 21.7758357435126  84.4320612578472 21.7758357435126  C 84.4320612578472 21.7758357435126  89.6241335154625 24.8503506651194  89.6241335154625 24.8503506651194  C 89.6241335154625 24.8503506651194  92.8395844151946 28.9311114215777  92.8395844151946 28.9311114215777  C 92.8395844151946 28.9311114215777  94.7886762277035 32.466172696011  94.7886762277035 32.466172696011  C 94.7886762277035 32.466172696011  100.558868938182 34.7962428281178  100.558868938182 34.7962428281178  C 100.558868938182 34.7962428281178  101.800451434568 36.6615607046332  101.800451434568 36.6615607046332  C 101.800451434568 36.6615607046332  99.2539684874343 37.2840343139328  99.2539684874343 37.2840343139328  C 99.2539684874343 37.2840343139328  94.3014032745764 37.1494454254356  94.3014032745764 37.1494454254356  C 94.3014032745764 37.1494454254356  88.4954221551113 36.5311777189017  88.4954221551113 36.5311777189017  C 88.4954221551113 36.5311777189017  85.6268435270968 37.033783099383  85.6268435270968 37.033783099383  C 85.6268435270968 37.033783099383  84.4678496668339 38.4637900396656  84.4678496668339 38.4637900396656  C 84.4678496668339 38.4637900396656  81.9709199013741 38.6404379558181  81.9709199013741 38.6404379558181  C 81.9709199013741 38.6404379558181  78.923399228426 37.3975936886019  78.923399228426 37.3975936886019  C 78.923399228426 37.3975936886019  70.3314281170699 40.3312108675637  70.3314281170699 40.3312108675637  C 70.3314281170699 40.3312108675637  66.8131522182191 39.7402815290057  66.8131522182191 39.7402815290057  C 66.8131522182191 39.7402815290057  65.753264721304 40.1924160763008  65.753264721304 40.1924160763008  C 65.753264721304 40.1924160763008  63.4462888189275 43.7400950590308  63.4462888189275 43.7400950590308  C 63.4462888189275 43.7400950590308  57.6871079265991 42.5939865554222  57.6871079265991 42.5939865554222  C 57.6871079265991 42.5939865554222  52.0407981703058 42.0156749251609  52.0407981703058 42.0156749251609  C 52.0407981703058 42.0156749251609  45.1240213664344 39.8496350009096  45.1240213664344 39.8496350009096  C 45.1240213664344 39.8496350009096  38.7729552485557 37.85183118728  38.7729552485557 37.85183118728  C 38.7729552485557 37.85183118728  34.6380175333181 39.7444874317714  34.6380175333181 39.7444874317714  C 34.6380175333181 39.7444874317714  31.634544132969 42.7264724925367  31.634544132969 42.7264724925367  C 31.634544132969 42.7264724925367  30.9407995895338 46.820918834786  30.9407995895338 46.820918834786  C 30.9407995895338 46.820918834786  25.9744696039884 46.4928584190744  25.9744696039884 46.4928584190744  C 25.9744696039884 46.4928584190744  20.7521148464614 45.5065742205559  20.7521148464614 45.5065742205559  C 20.7521148464614 45.5065742205559  16.1519278143958 48.6168393156701  16.1519278143958 48.6168393156701  C 16.1519278143958 48.6168393156701  12.1023316898188 54.0739981539534  12.1023316898188 54.0739981539534  C 12.1023316898188 54.0739981539534  11.2902101012735 52.3748134366765  11.2902101012735 52.3748134366765  C 11.2902101012735 52.3748134366765  10.943337829556 49.6998592777954  10.943337829556 49.6998592777954  C 10.943337829556 49.6998592777954  7.41405011255529 47.8135118874524  7.41405011255529 47.8135118874524  C 7.41405011255529 47.8135118874524  4.56474216630295 44.7831589448838  4.56474216630295 44.7831589448838  C 4.56474216630295 44.7831589448838  3.90678603185438 42.6760016593501  3.90678603185438 42.6760016593501  C 3.90678603185438 42.6760016593501  0.259121269743673 39.6077955918916  0.259121269743673 39.6077955918916  C 0.259121269743673 39.6077955918916  0.881288995205523 37.8560370900454  0.881288995205523 37.8560370900454  C 0.881288995205523 37.8560370900454  0.113214679259272 35.3787603611448  0.113214679259272 35.3787603611448  C 0.113214679259272 35.3787603611448  0.707852859346758 30.8153558605377  0.707852859346758 30.8153558605377  C 0.707852859346758 30.8153558605377  2.56059126304513 29.7449536067091  2.56059126304513 29.7449536067091  Z " fill-rule="evenodd" />
    </mask>
  </defs>
  <g transform="matrix(1 0 0 1 -1903 -1965 )">
    <path d="M 2.56059126304513 29.7449536067091  C 2.56059126304513 29.7449536067091  6.44225716083838 22.2384850477213  6.44225716083838 22.2384850477213  C 6.44225716083838 22.2384850477213  12.826358733166 21.7926593545745  12.826358733166 21.7926593545745  C 12.826358733166 21.7926593545745  14.246883274486 20.2743284562161  14.246883274486 20.2743284562161  C 14.246883274486 20.2743284562161  15.5270071343966 20.3878878308856  15.5270071343966 20.3878878308856  C 15.5270071343966 20.3878878308856  17.454075310606 21.7274678617089  17.454075310606 21.7274678617089  C 17.454075310606 21.7274678617089  27.1720048277757 19.4646921738504  27.1720048277757 19.4646921738504  C 27.1720048277757 19.4646921738504  30.4480207273316 17.1556515555709  30.4480207273316 17.1556515555709  C 30.4480207273316 17.1556515555709  34.4755932156093 15.0863473949271  34.4755932156093 15.0863473949271  C 34.4755932156093 15.0863473949271  33.7102718542003 13.000219623221  33.7102718542003 13.000219623221  C 33.7102718542003 13.000219623221  35.8878588933167 12.4534522637014  35.8878588933167 12.4534522637014  C 35.8878588933167 12.4534522637014  43.3428597807097 12.8235717070686  43.3428597807097 12.8235717070686  C 43.3428597807097 12.8235717070686  52.6051538504814 10.072911298408  52.6051538504814 10.072911298408  C 52.6051538504814 10.072911298408  58.1853926978761 3.58320333118567  58.1853926978761 3.58320333118567  C 58.1853926978761 3.58320333118567  62.102847004656 1.16901514376764  62.102847004656 1.16901514376764  C 62.102847004656 1.16901514376764  66.9893413086154 0.149083723125235  66.9893413086154 0.149083723125235  C 66.9893413086154 0.149083723125235  67.8647808515218 2.70416965318841  67.8647808515218 2.70416965318841  C 67.8647808515218 2.70416965318841  72.3163083385655 6.42849655207082  72.3163083385655 6.42849655207082  C 72.3163083385655 6.42849655207082  72.3383319748648 8.8531994964025  72.3383319748648 8.8531994964025  C 72.3383319748648 8.8531994964025  71.085737660329 11.3241673711548  71.085737660329 11.3241673711548  C 71.085737660329 11.3241673711548  71.5785165225311 13.1684557338425  71.5785165225311 13.1684557338425  C 71.5785165225311 13.1684557338425  74.2571412874618 14.8760522566501  74.2571412874618 14.8760522566501  C 74.2571412874618 14.8760522566501  80.1346992249003 17.4647854088379  80.1346992249003 17.4647854088379  C 80.1346992249003 17.4647854088379  84.3604844398737 19.8537381796622  84.3604844398737 19.8537381796622  C 84.3604844398737 19.8537381796622  84.4320612578472 21.7758357435126  84.4320612578472 21.7758357435126  C 84.4320612578472 21.7758357435126  89.6241335154625 24.8503506651194  89.6241335154625 24.8503506651194  C 89.6241335154625 24.8503506651194  92.8395844151946 28.9311114215777  92.8395844151946 28.9311114215777  C 92.8395844151946 28.9311114215777  94.7886762277035 32.466172696011  94.7886762277035 32.466172696011  C 94.7886762277035 32.466172696011  100.558868938182 34.7962428281178  100.558868938182 34.7962428281178  C 100.558868938182 34.7962428281178  101.800451434568 36.6615607046332  101.800451434568 36.6615607046332  C 101.800451434568 36.6615607046332  99.2539684874343 37.2840343139328  99.2539684874343 37.2840343139328  C 99.2539684874343 37.2840343139328  94.3014032745764 37.1494454254356  94.3014032745764 37.1494454254356  C 94.3014032745764 37.1494454254356  88.4954221551113 36.5311777189017  88.4954221551113 36.5311777189017  C 88.4954221551113 36.5311777189017  85.6268435270968 37.033783099383  85.6268435270968 37.033783099383  C 85.6268435270968 37.033783099383  84.4678496668339 38.4637900396656  84.4678496668339 38.4637900396656  C 84.4678496668339 38.4637900396656  81.9709199013741 38.6404379558181  81.9709199013741 38.6404379558181  C 81.9709199013741 38.6404379558181  78.923399228426 37.3975936886019  78.923399228426 37.3975936886019  C 78.923399228426 37.3975936886019  70.3314281170699 40.3312108675637  70.3314281170699 40.3312108675637  C 70.3314281170699 40.3312108675637  66.8131522182191 39.7402815290057  66.8131522182191 39.7402815290057  C 66.8131522182191 39.7402815290057  65.753264721304 40.1924160763008  65.753264721304 40.1924160763008  C 65.753264721304 40.1924160763008  63.4462888189275 43.7400950590308  63.4462888189275 43.7400950590308  C 63.4462888189275 43.7400950590308  57.6871079265991 42.5939865554222  57.6871079265991 42.5939865554222  C 57.6871079265991 42.5939865554222  52.0407981703058 42.0156749251609  52.0407981703058 42.0156749251609  C 52.0407981703058 42.0156749251609  45.1240213664344 39.8496350009096  45.1240213664344 39.8496350009096  C 45.1240213664344 39.8496350009096  38.7729552485557 37.85183118728  38.7729552485557 37.85183118728  C 38.7729552485557 37.85183118728  34.6380175333181 39.7444874317714  34.6380175333181 39.7444874317714  C 34.6380175333181 39.7444874317714  31.634544132969 42.7264724925367  31.634544132969 42.7264724925367  C 31.634544132969 42.7264724925367  30.9407995895338 46.820918834786  30.9407995895338 46.820918834786  C 30.9407995895338 46.820918834786  25.9744696039884 46.4928584190744  25.9744696039884 46.4928584190744  C 25.9744696039884 46.4928584190744  20.7521148464614 45.5065742205559  20.7521148464614 45.5065742205559  C 20.7521148464614 45.5065742205559  16.1519278143958 48.6168393156701  16.1519278143958 48.6168393156701  C 16.1519278143958 48.6168393156701  12.1023316898188 54.0739981539534  12.1023316898188 54.0739981539534  C 12.1023316898188 54.0739981539534  11.2902101012735 52.3748134366765  11.2902101012735 52.3748134366765  C 11.2902101012735 52.3748134366765  10.943337829556 49.6998592777954  10.943337829556 49.6998592777954  C 10.943337829556 49.6998592777954  7.41405011255529 47.8135118874524  7.41405011255529 47.8135118874524  C 7.41405011255529 47.8135118874524  4.56474216630295 44.7831589448838  4.56474216630295 44.7831589448838  C 4.56474216630295 44.7831589448838  3.90678603185438 42.6760016593501  3.90678603185438 42.6760016593501  C 3.90678603185438 42.6760016593501  0.259121269743673 39.6077955918916  0.259121269743673 39.6077955918916  C 0.259121269743673 39.6077955918916  0.881288995205523 37.8560370900454  0.881288995205523 37.8560370900454  C 0.881288995205523 37.8560370900454  0.113214679259272 35.3787603611448  0.113214679259272 35.3787603611448  C 0.113214679259272 35.3787603611448  0.707852859346758 30.8153558605377  0.707852859346758 30.8153558605377  C 0.707852859346758 30.8153558605377  2.56059126304513 29.7449536067091  2.56059126304513 29.7449536067091  Z " fill-rule="nonzero" fill="#f2f2f2" stroke="none" transform="matrix(1 0 0 1 1903 1965 )" />
    <path d="M 2.56059126304513 29.7449536067091  C 2.56059126304513 29.7449536067091  6.44225716083838 22.2384850477213  6.44225716083838 22.2384850477213  C 6.44225716083838 22.2384850477213  12.826358733166 21.7926593545745  12.826358733166 21.7926593545745  C 12.826358733166 21.7926593545745  14.246883274486 20.2743284562161  14.246883274486 20.2743284562161  C 14.246883274486 20.2743284562161  15.5270071343966 20.3878878308856  15.5270071343966 20.3878878308856  C 15.5270071343966 20.3878878308856  17.454075310606 21.7274678617089  17.454075310606 21.7274678617089  C 17.454075310606 21.7274678617089  27.1720048277757 19.4646921738504  27.1720048277757 19.4646921738504  C 27.1720048277757 19.4646921738504  30.4480207273316 17.1556515555709  30.4480207273316 17.1556515555709  C 30.4480207273316 17.1556515555709  34.4755932156093 15.0863473949271  34.4755932156093 15.0863473949271  C 34.4755932156093 15.0863473949271  33.7102718542003 13.000219623221  33.7102718542003 13.000219623221  C 33.7102718542003 13.000219623221  35.8878588933167 12.4534522637014  35.8878588933167 12.4534522637014  C 35.8878588933167 12.4534522637014  43.3428597807097 12.8235717070686  43.3428597807097 12.8235717070686  C 43.3428597807097 12.8235717070686  52.6051538504814 10.072911298408  52.6051538504814 10.072911298408  C 52.6051538504814 10.072911298408  58.1853926978761 3.58320333118567  58.1853926978761 3.58320333118567  C 58.1853926978761 3.58320333118567  62.102847004656 1.16901514376764  62.102847004656 1.16901514376764  C 62.102847004656 1.16901514376764  66.9893413086154 0.149083723125235  66.9893413086154 0.149083723125235  C 66.9893413086154 0.149083723125235  67.8647808515218 2.70416965318841  67.8647808515218 2.70416965318841  C 67.8647808515218 2.70416965318841  72.3163083385655 6.42849655207082  72.3163083385655 6.42849655207082  C 72.3163083385655 6.42849655207082  72.3383319748648 8.8531994964025  72.3383319748648 8.8531994964025  C 72.3383319748648 8.8531994964025  71.085737660329 11.3241673711548  71.085737660329 11.3241673711548  C 71.085737660329 11.3241673711548  71.5785165225311 13.1684557338425  71.5785165225311 13.1684557338425  C 71.5785165225311 13.1684557338425  74.2571412874618 14.8760522566501  74.2571412874618 14.8760522566501  C 74.2571412874618 14.8760522566501  80.1346992249003 17.4647854088379  80.1346992249003 17.4647854088379  C 80.1346992249003 17.4647854088379  84.3604844398737 19.8537381796622  84.3604844398737 19.8537381796622  C 84.3604844398737 19.8537381796622  84.4320612578472 21.7758357435126  84.4320612578472 21.7758357435126  C 84.4320612578472 21.7758357435126  89.6241335154625 24.8503506651194  89.6241335154625 24.8503506651194  C 89.6241335154625 24.8503506651194  92.8395844151946 28.9311114215777  92.8395844151946 28.9311114215777  C 92.8395844151946 28.9311114215777  94.7886762277035 32.466172696011  94.7886762277035 32.466172696011  C 94.7886762277035 32.466172696011  100.558868938182 34.7962428281178  100.558868938182 34.7962428281178  C 100.558868938182 34.7962428281178  101.800451434568 36.6615607046332  101.800451434568 36.6615607046332  C 101.800451434568 36.6615607046332  99.2539684874343 37.2840343139328  99.2539684874343 37.2840343139328  C 99.2539684874343 37.2840343139328  94.3014032745764 37.1494454254356  94.3014032745764 37.1494454254356  C 94.3014032745764 37.1494454254356  88.4954221551113 36.5311777189017  88.4954221551113 36.5311777189017  C 88.4954221551113 36.5311777189017  85.6268435270968 37.033783099383  85.6268435270968 37.033783099383  C 85.6268435270968 37.033783099383  84.4678496668339 38.4637900396656  84.4678496668339 38.4637900396656  C 84.4678496668339 38.4637900396656  81.9709199013741 38.6404379558181  81.9709199013741 38.6404379558181  C 81.9709199013741 38.6404379558181  78.923399228426 37.3975936886019  78.923399228426 37.3975936886019  C 78.923399228426 37.3975936886019  70.3314281170699 40.3312108675637  70.3314281170699 40.3312108675637  C 70.3314281170699 40.3312108675637  66.8131522182191 39.7402815290057  66.8131522182191 39.7402815290057  C 66.8131522182191 39.7402815290057  65.753264721304 40.1924160763008  65.753264721304 40.1924160763008  C 65.753264721304 40.1924160763008  63.4462888189275 43.7400950590308  63.4462888189275 43.7400950590308  C 63.4462888189275 43.7400950590308  57.6871079265991 42.5939865554222  57.6871079265991 42.5939865554222  C 57.6871079265991 42.5939865554222  52.0407981703058 42.0156749251609  52.0407981703058 42.0156749251609  C 52.0407981703058 42.0156749251609  45.1240213664344 39.8496350009096  45.1240213664344 39.8496350009096  C 45.1240213664344 39.8496350009096  38.7729552485557 37.85183118728  38.7729552485557 37.85183118728  C 38.7729552485557 37.85183118728  34.6380175333181 39.7444874317714  34.6380175333181 39.7444874317714  C 34.6380175333181 39.7444874317714  31.634544132969 42.7264724925367  31.634544132969 42.7264724925367  C 31.634544132969 42.7264724925367  30.9407995895338 46.820918834786  30.9407995895338 46.820918834786  C 30.9407995895338 46.820918834786  25.9744696039884 46.4928584190744  25.9744696039884 46.4928584190744  C 25.9744696039884 46.4928584190744  20.7521148464614 45.5065742205559  20.7521148464614 45.5065742205559  C 20.7521148464614 45.5065742205559  16.1519278143958 48.6168393156701  16.1519278143958 48.6168393156701  C 16.1519278143958 48.6168393156701  12.1023316898188 54.0739981539534  12.1023316898188 54.0739981539534  C 12.1023316898188 54.0739981539534  11.2902101012735 52.3748134366765  11.2902101012735 52.3748134366765  C 11.2902101012735 52.3748134366765  10.943337829556 49.6998592777954  10.943337829556 49.6998592777954  C 10.943337829556 49.6998592777954  7.41405011255529 47.8135118874524  7.41405011255529 47.8135118874524  C 7.41405011255529 47.8135118874524  4.56474216630295 44.7831589448838  4.56474216630295 44.7831589448838  C 4.56474216630295 44.7831589448838  3.90678603185438 42.6760016593501  3.90678603185438 42.6760016593501  C 3.90678603185438 42.6760016593501  0.259121269743673 39.6077955918916  0.259121269743673 39.6077955918916  C 0.259121269743673 39.6077955918916  0.881288995205523 37.8560370900454  0.881288995205523 37.8560370900454  C 0.881288995205523 37.8560370900454  0.113214679259272 35.3787603611448  0.113214679259272 35.3787603611448  C 0.113214679259272 35.3787603611448  0.707852859346758 30.8153558605377  0.707852859346758 30.8153558605377  C 0.707852859346758 30.8153558605377  2.56059126304513 29.7449536067091  2.56059126304513 29.7449536067091  Z " stroke-width="2" stroke="#505050" fill="none" stroke-opacity="0.211764705882353" transform="matrix(1 0 0 1 1903 1965 )" mask="url(#clip607)" />
  </g>
</svg>