<?xml version="1.0" encoding="utf-8"?>
<svg version="1.1" xmlns:xlink="http://www.w3.org/1999/xlink" width="61px" height="55px" xmlns="http://www.w3.org/2000/svg">
  <defs>
    <mask fill="white" id="clip608">
      <path d="M 17.1219515271077 53.2143502888922  C 17.1219515271077 53.2143502888922  15.0592085747783 52.6171120961859  15.0592085747783 52.6171120961859  C 15.0592085747783 52.6171120961859  12.120429606059 50.6003817201114  12.120429606059 50.6003817201114  C 12.120429606059 50.6003817201114  9.74701573417893 51.5887688700125  9.74701573417893 51.5887688700125  C 9.74701573417893 51.5887688700125  6.5815309593016 54.1270311890137  6.5815309593016 54.1270311890137  C 6.5815309593016 54.1270311890137  0.135809087910692 47.9043980474028  0.135809087910692 47.9043980474028  C 0.135809087910692 47.9043980474028  6.1113263243065 44.6637499665571  6.1113263243065 44.6637499665571  C 6.1113263243065 44.6637499665571  3.15295549579577 40.7859076167329  3.15295549579577 40.7859076167329  C 3.15295549579577 40.7859076167329  5.84263796145215 39.3117386974124  5.84263796145215 39.3117386974124  C 5.84263796145215 39.3117386974124  11.1380377793729 38.5925293245056  11.1380377793729 38.5925293245056  C 11.1380377793729 38.5925293245056  11.7621784555865 35.9953843667868  11.7621784555865 35.9953843667868  C 11.7621784555865 35.9953843667868  15.9548364509592 38.8091333169306  15.9548364509592 38.8091333169306  C 15.9548364509592 38.8091333169306  22.8819583057974 39.0572815800973  22.8819583057974 39.0572815800973  C 22.8819583057974 39.0572815800973  25.2917570601471 36.2876946089918  25.2917570601471 36.2876946089918  C 25.2917570601471 36.2876946089918  26.2825453981726 32.3909256967222  26.2825453981726 32.3909256967222  C 26.2825453981726 32.3909256967222  25.4261012415742 26.2892286614241  25.4261012415742 26.2892286614241  C 25.4261012415742 26.2892286614241  21.7120443925358 22.825667734005  21.7120443925358 22.825667734005  C 21.7120443925358 22.825667734005  25.1098326477977 16.0415465731951  25.1098326477977 16.0415465731951  C 25.1098326477977 16.0415465731951  23.1534455057647 14.8786144585242  23.1534455057647 14.8786144585242  C 23.1534455057647 14.8786144585242  17.3150712879092 15.3559844224126  17.3150712879092 15.3559844224126  C 17.3150712879092 15.3559844224126  15.1207829912656 12.3277344312267  15.1207829912656 12.3277344312267  C 15.1207829912656 12.3277344312267  15.6917457623312 9.77054554978047  15.6917457623312 9.77054554978047  C 15.6917457623312 9.77054554978047  25.5940314683581 10.0018702018848  25.5940314683581 10.0018702018848  C 25.5940314683581 10.0018702018848  33.9723285370123 11.5475394682196  33.9723285370123 11.5475394682196  C 33.9723285370123 11.5475394682196  40.208137624923 12.9333844294636  40.208137624923 12.9333844294636  C 40.208137624923 12.9333844294636  40.7707038846494 9.76844259839781  40.7707038846494 9.76844259839781  C 40.7707038846494 9.76844259839781  44.8877932779693 4.31128376011455  44.8877932779693 4.31128376011455  C 44.8877932779693 4.31128376011455  49.5646500939026 1.20101866500038  49.5646500939026 1.20101866500038  C 49.5646500939026 1.20101866500038  54.8740440973884 2.18730286351884  54.8740440973884 2.18730286351884  C 54.8740440973884 2.18730286351884  59.9231462493598 2.51536327923042  59.9231462493598 2.51536327923042  C 59.9231462493598 2.51536327923042  59.4557404514776 6.05883635919472  59.4557404514776 6.05883635919472  C 59.4557404514776 6.05883635919472  57.1075161136152 9.19223391951918  57.1075161136152 9.19223391951918  C 57.1075161136152 9.19223391951918  55.570954538542 12.849266374153  55.570954538542 12.849266374153  C 55.570954538542 12.849266374153  54.5941603860822 18.0414533382076  54.5941603860822 18.0414533382076  C 54.5941603860822 18.0414533382076  55.0055894417027 21.3620135715985  55.0055894417027 21.3620135715985  C 55.0055894417027 21.3620135715985  53.7265208810316 23.3934646073523  53.7265208810316 23.3934646073523  C 53.7265208810316 23.3934646073523  53.5306022831169 25.5405779691587  53.5306022831169 25.5405779691587  C 53.5306022831169 25.5405779691587  52.6293767327095 28.9378795262172  52.6293767327095 28.9378795262172  C 52.6293767327095 28.9378795262172  47.4627234219901 31.760040281892  47.4627234219901 31.760040281892  C 47.4627234219901 31.760040281892  43.8662177317002 34.7777755161643  43.8662177317002 34.7777755161643  C 43.8662177317002 34.7777755161643  40.4572341279859 40.4725678607003  40.4572341279859 40.4725678607003  C 40.4572341279859 40.4725678607003  40.720324816614 45.298841284153  40.720324816614 45.298841284153  C 40.720324816614 45.298841284153  38.7387481405635 47.176776868965  38.7387481405635 47.176776868965  C 38.7387481405635 47.176776868965  34.1654482978138 50.0452025550608  34.1654482978138 50.0452025550608  C 34.1654482978138 50.0452025550608  27.5168325650344 53.7274704262876  27.5168325650344 53.7274704262876  C 27.5168325650344 53.7274704262876  24.5836512705414 52.6865094918175  24.5836512705414 52.6865094918175  C 24.5836512705414 52.6865094918175  24.0798605901896 51.0230749480479  24.0798605901896 51.0230749480479  C 24.0798605901896 51.0230749480479  19.8060363185377 50.9662952607133  19.8060363185377 50.9662952607133  C 19.8060363185377 50.9662952607133  17.1219515271077 53.2143502888922  17.1219515271077 53.2143502888922  Z " fill-rule="evenodd" />
    </mask>
  </defs>
  <g transform="matrix(1 0 0 1 -1877 -2010 )">
    <path d="M 17.1219515271077 53.2143502888922  C 17.1219515271077 53.2143502888922  15.0592085747783 52.6171120961859  15.0592085747783 52.6171120961859  C 15.0592085747783 52.6171120961859  12.120429606059 50.6003817201114  12.120429606059 50.6003817201114  C 12.120429606059 50.6003817201114  9.74701573417893 51.5887688700125  9.74701573417893 51.5887688700125  C 9.74701573417893 51.5887688700125  6.5815309593016 54.1270311890137  6.5815309593016 54.1270311890137  C 6.5815309593016 54.1270311890137  0.135809087910692 47.9043980474028  0.135809087910692 47.9043980474028  C 0.135809087910692 47.9043980474028  6.1113263243065 44.6637499665571  6.1113263243065 44.6637499665571  C 6.1113263243065 44.6637499665571  3.15295549579577 40.7859076167329  3.15295549579577 40.7859076167329  C 3.15295549579577 40.7859076167329  5.84263796145215 39.3117386974124  5.84263796145215 39.3117386974124  C 5.84263796145215 39.3117386974124  11.1380377793729 38.5925293245056  11.1380377793729 38.5925293245056  C 11.1380377793729 38.5925293245056  11.7621784555865 35.9953843667868  11.7621784555865 35.9953843667868  C 11.7621784555865 35.9953843667868  15.9548364509592 38.8091333169306  15.9548364509592 38.8091333169306  C 15.9548364509592 38.8091333169306  22.8819583057974 39.0572815800973  22.8819583057974 39.0572815800973  C 22.8819583057974 39.0572815800973  25.2917570601471 36.2876946089918  25.2917570601471 36.2876946089918  C 25.2917570601471 36.2876946089918  26.2825453981726 32.3909256967222  26.2825453981726 32.3909256967222  C 26.2825453981726 32.3909256967222  25.4261012415742 26.2892286614241  25.4261012415742 26.2892286614241  C 25.4261012415742 26.2892286614241  21.7120443925358 22.825667734005  21.7120443925358 22.825667734005  C 21.7120443925358 22.825667734005  25.1098326477977 16.0415465731951  25.1098326477977 16.0415465731951  C 25.1098326477977 16.0415465731951  23.1534455057647 14.8786144585242  23.1534455057647 14.8786144585242  C 23.1534455057647 14.8786144585242  17.3150712879092 15.3559844224126  17.3150712879092 15.3559844224126  C 17.3150712879092 15.3559844224126  15.1207829912656 12.3277344312267  15.1207829912656 12.3277344312267  C 15.1207829912656 12.3277344312267  15.6917457623312 9.77054554978047  15.6917457623312 9.77054554978047  C 15.6917457623312 9.77054554978047  25.5940314683581 10.0018702018848  25.5940314683581 10.0018702018848  C 25.5940314683581 10.0018702018848  33.9723285370123 11.5475394682196  33.9723285370123 11.5475394682196  C 33.9723285370123 11.5475394682196  40.208137624923 12.9333844294636  40.208137624923 12.9333844294636  C 40.208137624923 12.9333844294636  40.7707038846494 9.76844259839781  40.7707038846494 9.76844259839781  C 40.7707038846494 9.76844259839781  44.8877932779693 4.31128376011455  44.8877932779693 4.31128376011455  C 44.8877932779693 4.31128376011455  49.5646500939026 1.20101866500038  49.5646500939026 1.20101866500038  C 49.5646500939026 1.20101866500038  54.8740440973884 2.18730286351884  54.8740440973884 2.18730286351884  C 54.8740440973884 2.18730286351884  59.9231462493598 2.51536327923042  59.9231462493598 2.51536327923042  C 59.9231462493598 2.51536327923042  59.4557404514776 6.05883635919472  59.4557404514776 6.05883635919472  C 59.4557404514776 6.05883635919472  57.1075161136152 9.19223391951918  57.1075161136152 9.19223391951918  C 57.1075161136152 9.19223391951918  55.570954538542 12.849266374153  55.570954538542 12.849266374153  C 55.570954538542 12.849266374153  54.5941603860822 18.0414533382076  54.5941603860822 18.0414533382076  C 54.5941603860822 18.0414533382076  55.0055894417027 21.3620135715985  55.0055894417027 21.3620135715985  C 55.0055894417027 21.3620135715985  53.7265208810316 23.3934646073523  53.7265208810316 23.3934646073523  C 53.7265208810316 23.3934646073523  53.5306022831169 25.5405779691587  53.5306022831169 25.5405779691587  C 53.5306022831169 25.5405779691587  52.6293767327095 28.9378795262172  52.6293767327095 28.9378795262172  C 52.6293767327095 28.9378795262172  47.4627234219901 31.760040281892  47.4627234219901 31.760040281892  C 47.4627234219901 31.760040281892  43.8662177317002 34.7777755161643  43.8662177317002 34.7777755161643  C 43.8662177317002 34.7777755161643  40.4572341279859 40.4725678607003  40.4572341279859 40.4725678607003  C 40.4572341279859 40.4725678607003  40.720324816614 45.298841284153  40.720324816614 45.298841284153  C 40.720324816614 45.298841284153  38.7387481405635 47.176776868965  38.7387481405635 47.176776868965  C 38.7387481405635 47.176776868965  34.1654482978138 50.0452025550608  34.1654482978138 50.0452025550608  C 34.1654482978138 50.0452025550608  27.5168325650344 53.7274704262876  27.5168325650344 53.7274704262876  C 27.5168325650344 53.7274704262876  24.5836512705414 52.6865094918175  24.5836512705414 52.6865094918175  C 24.5836512705414 52.6865094918175  24.0798605901896 51.0230749480479  24.0798605901896 51.0230749480479  C 24.0798605901896 51.0230749480479  19.8060363185377 50.9662952607133  19.8060363185377 50.9662952607133  C 19.8060363185377 50.9662952607133  17.1219515271077 53.2143502888922  17.1219515271077 53.2143502888922  Z " fill-rule="nonzero" fill="#f2f2f2" stroke="none" transform="matrix(1 0 0 1 1877 2010 )" />
    <path d="M 17.1219515271077 53.2143502888922  C 17.1219515271077 53.2143502888922  15.0592085747783 52.6171120961859  15.0592085747783 52.6171120961859  C 15.0592085747783 52.6171120961859  12.120429606059 50.6003817201114  12.120429606059 50.6003817201114  C 12.120429606059 50.6003817201114  9.74701573417893 51.5887688700125  9.74701573417893 51.5887688700125  C 9.74701573417893 51.5887688700125  6.5815309593016 54.1270311890137  6.5815309593016 54.1270311890137  C 6.5815309593016 54.1270311890137  0.135809087910692 47.9043980474028  0.135809087910692 47.9043980474028  C 0.135809087910692 47.9043980474028  6.1113263243065 44.6637499665571  6.1113263243065 44.6637499665571  C 6.1113263243065 44.6637499665571  3.15295549579577 40.7859076167329  3.15295549579577 40.7859076167329  C 3.15295549579577 40.7859076167329  5.84263796145215 39.3117386974124  5.84263796145215 39.3117386974124  C 5.84263796145215 39.3117386974124  11.1380377793729 38.5925293245056  11.1380377793729 38.5925293245056  C 11.1380377793729 38.5925293245056  11.7621784555865 35.9953843667868  11.7621784555865 35.9953843667868  C 11.7621784555865 35.9953843667868  15.9548364509592 38.8091333169306  15.9548364509592 38.8091333169306  C 15.9548364509592 38.8091333169306  22.8819583057974 39.0572815800973  22.8819583057974 39.0572815800973  C 22.8819583057974 39.0572815800973  25.2917570601471 36.2876946089918  25.2917570601471 36.2876946089918  C 25.2917570601471 36.2876946089918  26.2825453981726 32.3909256967222  26.2825453981726 32.3909256967222  C 26.2825453981726 32.3909256967222  25.4261012415742 26.2892286614241  25.4261012415742 26.2892286614241  C 25.4261012415742 26.2892286614241  21.7120443925358 22.825667734005  21.7120443925358 22.825667734005  C 21.7120443925358 22.825667734005  25.1098326477977 16.0415465731951  25.1098326477977 16.0415465731951  C 25.1098326477977 16.0415465731951  23.1534455057647 14.8786144585242  23.1534455057647 14.8786144585242  C 23.1534455057647 14.8786144585242  17.3150712879092 15.3559844224126  17.3150712879092 15.3559844224126  C 17.3150712879092 15.3559844224126  15.1207829912656 12.3277344312267  15.1207829912656 12.3277344312267  C 15.1207829912656 12.3277344312267  15.6917457623312 9.77054554978047  15.6917457623312 9.77054554978047  C 15.6917457623312 9.77054554978047  25.5940314683581 10.0018702018848  25.5940314683581 10.0018702018848  C 25.5940314683581 10.0018702018848  33.9723285370123 11.5475394682196  33.9723285370123 11.5475394682196  C 33.9723285370123 11.5475394682196  40.208137624923 12.9333844294636  40.208137624923 12.9333844294636  C 40.208137624923 12.9333844294636  40.7707038846494 9.76844259839781  40.7707038846494 9.76844259839781  C 40.7707038846494 9.76844259839781  44.8877932779693 4.31128376011455  44.8877932779693 4.31128376011455  C 44.8877932779693 4.31128376011455  49.5646500939026 1.20101866500038  49.5646500939026 1.20101866500038  C 49.5646500939026 1.20101866500038  54.8740440973884 2.18730286351884  54.8740440973884 2.18730286351884  C 54.8740440973884 2.18730286351884  59.9231462493598 2.51536327923042  59.9231462493598 2.51536327923042  C 59.9231462493598 2.51536327923042  59.4557404514776 6.05883635919472  59.4557404514776 6.05883635919472  C 59.4557404514776 6.05883635919472  57.1075161136152 9.19223391951918  57.1075161136152 9.19223391951918  C 57.1075161136152 9.19223391951918  55.570954538542 12.849266374153  55.570954538542 12.849266374153  C 55.570954538542 12.849266374153  54.5941603860822 18.0414533382076  54.5941603860822 18.0414533382076  C 54.5941603860822 18.0414533382076  55.0055894417027 21.3620135715985  55.0055894417027 21.3620135715985  C 55.0055894417027 21.3620135715985  53.7265208810316 23.3934646073523  53.7265208810316 23.3934646073523  C 53.7265208810316 23.3934646073523  53.5306022831169 25.5405779691587  53.5306022831169 25.5405779691587  C 53.5306022831169 25.5405779691587  52.6293767327095 28.9378795262172  52.6293767327095 28.9378795262172  C 52.6293767327095 28.9378795262172  47.4627234219901 31.760040281892  47.4627234219901 31.760040281892  C 47.4627234219901 31.760040281892  43.8662177317002 34.7777755161643  43.8662177317002 34.7777755161643  C 43.8662177317002 34.7777755161643  40.4572341279859 40.4725678607003  40.4572341279859 40.4725678607003  C 40.4572341279859 40.4725678607003  40.720324816614 45.298841284153  40.720324816614 45.298841284153  C 40.720324816614 45.298841284153  38.7387481405635 47.176776868965  38.7387481405635 47.176776868965  C 38.7387481405635 47.176776868965  34.1654482978138 50.0452025550608  34.1654482978138 50.0452025550608  C 34.1654482978138 50.0452025550608  27.5168325650344 53.7274704262876  27.5168325650344 53.7274704262876  C 27.5168325650344 53.7274704262876  24.5836512705414 52.6865094918175  24.5836512705414 52.6865094918175  C 24.5836512705414 52.6865094918175  24.0798605901896 51.0230749480479  24.0798605901896 51.0230749480479  C 24.0798605901896 51.0230749480479  19.8060363185377 50.9662952607133  19.8060363185377 50.9662952607133  C 19.8060363185377 50.9662952607133  17.1219515271077 53.2143502888922  17.1219515271077 53.2143502888922  Z " stroke-width="2" stroke="#505050" fill="none" stroke-opacity="0.211764705882353" transform="matrix(1 0 0 1 1877 2010 )" mask="url(#clip608)" />
  </g>
</svg>