<?xml version="1.0" encoding="utf-8"?>
<svg version="1.1" xmlns:xlink="http://www.w3.org/1999/xlink" width="38px" height="19px" xmlns="http://www.w3.org/2000/svg">
  <defs>
    <mask fill="white" id="clip609">
      <path d="M 22.2875334490018 0.639925566111659  C 22.2875334490018 0.639925566111659  30.5601618340147 3.19286736812169  30.5601618340147 3.19286736812169  C 30.5601618340147 3.19286736812169  30.8574809240583 4.66950982885876  30.8574809240583 4.66950982885876  C 30.8574809240583 4.66950982885876  29.6764634274957 6.69536671981558  29.6764634274957 6.69536671981558  C 29.6764634274957 6.69536671981558  33.1699627355094 8.19816224865841  33.1699627355094 8.19816224865841  C 33.1699627355094 8.19816224865841  37.109440678589 8.42146921479163  37.109440678589 8.42146921479163  C 37.109440678589 8.42146921479163  36.4982847712768 13.2426710406775  36.4982847712768 13.2426710406775  C 36.4982847712768 13.2426710406775  33.0956329629985 14.6187247779311  33.0956329629985 14.6187247779311  C 33.0956329629985 14.6187247779311  27.3832522978066 13.5967433473391  27.3832522978066 13.5967433473391  C 27.3832522978066 13.5967433473391  25.7122088935794 16.8759357328997  25.7122088935794 16.8759357328997  C 25.7122088935794 16.8759357328997  22.0370145860945 17.1334428650175  22.0370145860945 17.1334428650175  C 22.0370145860945 17.1334428650175  20.6990786808979 15.8479189788989  20.6990786808979 15.8479189788989  C 20.6990786808979 15.8479189788989  14.371434148039 18.5919793555275  14.371434148039 18.5919793555275  C 14.371434148039 18.5919793555275  10.6494396134178 18.9762282792344  10.6494396134178 18.9762282792344  C 10.6494396134178 18.9762282792344  7.32662348672534 17.246102235319  7.32662348672534 17.246102235319  C 7.32662348672534 17.246102235319  4.67828122170613 13.6832496495349  4.67828122170613 13.6832496495349  C 4.67828122170613 13.6832496495349  0.992075096071403 14.9587146633052  0.992075096071403 14.9587146633052  C 0.992075096071403 14.9587146633052  1.10494623210661 11.2610731880534  1.10494623210661 11.2610731880534  C 1.10494623210661 11.2610731880534  6.74850303386256 5.16641812286707  6.74850303386256 5.16641812286707  C 6.74850303386256 5.16641812286707  6.50073712549283 3.05405492971453  6.50073712549283 3.05405492971453  C 6.50073712549283 3.05405492971453  10.0190130243434 3.82054100265848  10.0190130243434 3.82054100265848  C 10.0190130243434 3.82054100265848  12.1360350636362 2.3982164526025  12.1360350636362 2.3982164526025  C 12.1360350636362 2.3982164526025  20.7018316354352 2.45655791222289  20.7018316354352 2.45655791222289  C 20.7018316354352 2.45655791222289  22.2875334490018 0.639925566111659  22.2875334490018 0.639925566111659  Z " fill-rule="evenodd" />
    </mask>
  </defs>
  <g transform="matrix(1 0 0 1 -1838 -1705 )">
    <path d="M 22.2875334490018 0.639925566111659  C 22.2875334490018 0.639925566111659  30.5601618340147 3.19286736812169  30.5601618340147 3.19286736812169  C 30.5601618340147 3.19286736812169  30.8574809240583 4.66950982885876  30.8574809240583 4.66950982885876  C 30.8574809240583 4.66950982885876  29.6764634274957 6.69536671981558  29.6764634274957 6.69536671981558  C 29.6764634274957 6.69536671981558  33.1699627355094 8.19816224865841  33.1699627355094 8.19816224865841  C 33.1699627355094 8.19816224865841  37.109440678589 8.42146921479163  37.109440678589 8.42146921479163  C 37.109440678589 8.42146921479163  36.4982847712768 13.2426710406775  36.4982847712768 13.2426710406775  C 36.4982847712768 13.2426710406775  33.0956329629985 14.6187247779311  33.0956329629985 14.6187247779311  C 33.0956329629985 14.6187247779311  27.3832522978066 13.5967433473391  27.3832522978066 13.5967433473391  C 27.3832522978066 13.5967433473391  25.7122088935794 16.8759357328997  25.7122088935794 16.8759357328997  C 25.7122088935794 16.8759357328997  22.0370145860945 17.1334428650175  22.0370145860945 17.1334428650175  C 22.0370145860945 17.1334428650175  20.6990786808979 15.8479189788989  20.6990786808979 15.8479189788989  C 20.6990786808979 15.8479189788989  14.371434148039 18.5919793555275  14.371434148039 18.5919793555275  C 14.371434148039 18.5919793555275  10.6494396134178 18.9762282792344  10.6494396134178 18.9762282792344  C 10.6494396134178 18.9762282792344  7.32662348672534 17.246102235319  7.32662348672534 17.246102235319  C 7.32662348672534 17.246102235319  4.67828122170613 13.6832496495349  4.67828122170613 13.6832496495349  C 4.67828122170613 13.6832496495349  0.992075096071403 14.9587146633052  0.992075096071403 14.9587146633052  C 0.992075096071403 14.9587146633052  1.10494623210661 11.2610731880534  1.10494623210661 11.2610731880534  C 1.10494623210661 11.2610731880534  6.74850303386256 5.16641812286707  6.74850303386256 5.16641812286707  C 6.74850303386256 5.16641812286707  6.50073712549283 3.05405492971453  6.50073712549283 3.05405492971453  C 6.50073712549283 3.05405492971453  10.0190130243434 3.82054100265848  10.0190130243434 3.82054100265848  C 10.0190130243434 3.82054100265848  12.1360350636362 2.3982164526025  12.1360350636362 2.3982164526025  C 12.1360350636362 2.3982164526025  20.7018316354352 2.45655791222289  20.7018316354352 2.45655791222289  C 20.7018316354352 2.45655791222289  22.2875334490018 0.639925566111659  22.2875334490018 0.639925566111659  Z " fill-rule="nonzero" fill="#a29bfe" stroke="none" transform="matrix(1 0 0 1 1838 1705 )" />
    <path d="M 22.2875334490018 0.639925566111659  C 22.2875334490018 0.639925566111659  30.5601618340147 3.19286736812169  30.5601618340147 3.19286736812169  C 30.5601618340147 3.19286736812169  30.8574809240583 4.66950982885876  30.8574809240583 4.66950982885876  C 30.8574809240583 4.66950982885876  29.6764634274957 6.69536671981558  29.6764634274957 6.69536671981558  C 29.6764634274957 6.69536671981558  33.1699627355094 8.19816224865841  33.1699627355094 8.19816224865841  C 33.1699627355094 8.19816224865841  37.109440678589 8.42146921479163  37.109440678589 8.42146921479163  C 37.109440678589 8.42146921479163  36.4982847712768 13.2426710406775  36.4982847712768 13.2426710406775  C 36.4982847712768 13.2426710406775  33.0956329629985 14.6187247779311  33.0956329629985 14.6187247779311  C 33.0956329629985 14.6187247779311  27.3832522978066 13.5967433473391  27.3832522978066 13.5967433473391  C 27.3832522978066 13.5967433473391  25.7122088935794 16.8759357328997  25.7122088935794 16.8759357328997  C 25.7122088935794 16.8759357328997  22.0370145860945 17.1334428650175  22.0370145860945 17.1334428650175  C 22.0370145860945 17.1334428650175  20.6990786808979 15.8479189788989  20.6990786808979 15.8479189788989  C 20.6990786808979 15.8479189788989  14.371434148039 18.5919793555275  14.371434148039 18.5919793555275  C 14.371434148039 18.5919793555275  10.6494396134178 18.9762282792344  10.6494396134178 18.9762282792344  C 10.6494396134178 18.9762282792344  7.32662348672534 17.246102235319  7.32662348672534 17.246102235319  C 7.32662348672534 17.246102235319  4.67828122170613 13.6832496495349  4.67828122170613 13.6832496495349  C 4.67828122170613 13.6832496495349  0.992075096071403 14.9587146633052  0.992075096071403 14.9587146633052  C 0.992075096071403 14.9587146633052  1.10494623210661 11.2610731880534  1.10494623210661 11.2610731880534  C 1.10494623210661 11.2610731880534  6.74850303386256 5.16641812286707  6.74850303386256 5.16641812286707  C 6.74850303386256 5.16641812286707  6.50073712549283 3.05405492971453  6.50073712549283 3.05405492971453  C 6.50073712549283 3.05405492971453  10.0190130243434 3.82054100265848  10.0190130243434 3.82054100265848  C 10.0190130243434 3.82054100265848  12.1360350636362 2.3982164526025  12.1360350636362 2.3982164526025  C 12.1360350636362 2.3982164526025  20.7018316354352 2.45655791222289  20.7018316354352 2.45655791222289  C 20.7018316354352 2.45655791222289  22.2875334490018 0.639925566111659  22.2875334490018 0.639925566111659  Z " stroke-width="2" stroke="#505050" fill="none" stroke-opacity="0.211764705882353" transform="matrix(1 0 0 1 1838 1705 )" mask="url(#clip609)" />
  </g>
</svg>