<?xml version="1.0" encoding="utf-8"?>
<svg version="1.1" xmlns:xlink="http://www.w3.org/1999/xlink" width="49px" height="41px" xmlns="http://www.w3.org/2000/svg">
  <defs>
    <mask fill="white" id="clip613">
      <path d="M 45.8707591704564 33.7449976164054  C 45.8707591704564 33.7449976164054  45.5281264487265 36.1391680596117  45.5281264487265 36.1391680596117  C 45.5281264487265 36.1391680596117  42.085611858746 36.202115423939  42.085611858746 36.202115423939  C 42.085611858746 36.202115423939  36.8085283650144 35.0147978968002  36.8085283650144 35.0147978968002  C 36.8085283650144 35.0147978968002  31.9577123518602 35.0842570574372  31.9577123518602 35.0842570574372  C 31.9577123518602 35.0842570574372  21.0380015733928 36.1435092571517  21.0380015733928 36.1435092571517  C 21.0380015733928 36.1435092571517  15.7851991386813 37.8951824644659  15.7851991386813 37.8951824644659  C 15.7851991386813 37.8951824644659  8.29584137866134 40.1200462036194  8.29584137866134 40.1200462036194  C 8.29584137866134 40.1200462036194  6.83358204655378 39.9615924934165  6.83358204655378 39.9615924934165  C 6.83358204655378 39.9615924934165  7.41632746303952 34.9648741250925  7.41632746303952 34.9648741250925  C 7.41632746303952 34.9648741250925  8.13936344275319 34.2029939568556  8.13936344275319 34.2029939568556  C 8.13936344275319 34.2029939568556  7.90734443433752 31.8109941124191  7.90734443433752 31.8109941124191  C 7.90734443433752 31.8109941124191  4.70494253911286 29.2648817553192  4.70494253911286 29.2648817553192  C 4.70494253911286 29.2648817553192  2.30111769610961 28.8589797853466  2.30111769610961 28.8589797853466  C 2.30111769610961 28.8589797853466  0.0969371161611662 27.187618732519  0.0969371161611662 27.187618732519  C 0.0969371161611662 27.187618732519  1.7399554431972 24.4852232639857  1.7399554431972 24.4852232639857  C 1.7399554431972 24.4852232639857  0.98454471812332 21.5375501344532  0.98454471812332 21.5375501344532  C 0.98454471812332 21.5375501344532  1.33257323074661 18.189418461287  1.33257323074661 18.189418461287  C 1.33257323074661 18.189418461287  2.53313670452506 18.1807360662074  2.53313670452506 18.1807360662074  C 2.53313670452506 18.1807360662074  2.97828945322942 15.5195819743024  2.97828945322942 15.5195819743024  C 2.97828945322942 15.5195819743024  2.39284614129713 14.3387762434734  2.39284614129713 14.3387762434734  C 2.39284614129713 14.3387762434734  3.1158821210108 13.4900721244402  3.1158821210108 13.4900721244402  C 3.1158821210108 13.4900721244402  5.92708917646486 12.7542391414419  5.92708917646486 12.7542391414419  C 5.92708917646486 12.7542391414419  4.05744763190671 7.855197717764  4.05744763190671 7.855197717764  C 4.05744763190671 7.855197717764  2.31460717334305 5.31993835451351  2.31460717334305 5.31993835451351  C 2.31460717334305 5.31993835451351  2.92163364884889 3.23616353540352  2.92163364884889 3.23616353540352  C 2.92163364884889 3.23616353540352  4.42975720355032 2.76080240479421  4.42975720355032 2.76080240479421  C 4.42975720355032 2.76080240479421  5.41718693703987 2.20078792215862  5.41718693703987 2.20078792215862  C 5.41718693703987 2.20078792215862  7.51075380367381 3.12546299813863  7.51075380367381 3.12546299813863  C 7.51075380367381 3.12546299813863  13.3516974457642 3.17538676984641  13.3516974457642 3.17538676984641  C 13.3516974457642 3.17538676984641  14.7438114962578 1.3803015871341  14.7438114962578 1.3803015871341  C 14.7438114962578 1.3803015871341  16.0495928924574 1.50185511824867  16.0495928924574 1.50185511824867  C 16.0495928924574 1.50185511824867  18.2321903088318 0.807263511878677  18.2321903088318 0.807263511878677  C 18.2321903088318 0.807263511878677  19.4057748281434 3.43585862223498  19.4057748281434 3.43585862223498  C 19.4057748281434 3.43585862223498  21.1701984502806 2.66095486137865  21.1701984502806 2.66095486137865  C 21.1701984502806 2.66095486137865  26.2516634821047 1.75147397678792  26.2516634821047 1.75147397678792  C 26.2516634821047 1.75147397678792  29.6537096403843 3.09073341782013  29.6537096403843 3.09073341782013  C 29.6537096403843 3.09073341782013  30.975678409264 5.1224138664522  30.975678409264 5.1224138664522  C 30.975678409264 5.1224138664522  34.3777245675441 6.41609073331623  34.3777245675441 6.41609073331623  C 34.3777245675441 6.41609073331623  37.0216621053031 4.87279500791296  37.0216621053031 4.87279500791296  C 37.0216621053031 4.87279500791296  40.566696722258 4.64054093953315  40.566696722258 4.64054093953315  C 40.566696722258 4.64054093953315  45.7439580844617 6.22290744279451  45.7439580844617 6.22290744279451  C 45.7439580844617 6.22290744279451  47.7511922968015 14.9313497076577  47.7511922968015 14.9313497076577  C 47.7511922968015 14.9313497076577  44.5622798788103 21.6330564803292  44.5622798788103 21.6330564803292  C 44.5622798788103 21.6330564803292  42.5901183072777 28.5095133833918  42.5901183072777 28.5095133833918  C 42.5901183072777 28.5095133833918  45.8707591704564 33.7449976164054  45.8707591704564 33.7449976164054  Z " fill-rule="evenodd" />
    </mask>
  </defs>
  <g transform="matrix(1 0 0 1 -1728 -1970 )">
    <path d="M 45.8707591704564 33.7449976164054  C 45.8707591704564 33.7449976164054  45.5281264487265 36.1391680596117  45.5281264487265 36.1391680596117  C 45.5281264487265 36.1391680596117  42.085611858746 36.202115423939  42.085611858746 36.202115423939  C 42.085611858746 36.202115423939  36.8085283650144 35.0147978968002  36.8085283650144 35.0147978968002  C 36.8085283650144 35.0147978968002  31.9577123518602 35.0842570574372  31.9577123518602 35.0842570574372  C 31.9577123518602 35.0842570574372  21.0380015733928 36.1435092571517  21.0380015733928 36.1435092571517  C 21.0380015733928 36.1435092571517  15.7851991386813 37.8951824644659  15.7851991386813 37.8951824644659  C 15.7851991386813 37.8951824644659  8.29584137866134 40.1200462036194  8.29584137866134 40.1200462036194  C 8.29584137866134 40.1200462036194  6.83358204655378 39.9615924934165  6.83358204655378 39.9615924934165  C 6.83358204655378 39.9615924934165  7.41632746303952 34.9648741250925  7.41632746303952 34.9648741250925  C 7.41632746303952 34.9648741250925  8.13936344275319 34.2029939568556  8.13936344275319 34.2029939568556  C 8.13936344275319 34.2029939568556  7.90734443433752 31.8109941124191  7.90734443433752 31.8109941124191  C 7.90734443433752 31.8109941124191  4.70494253911286 29.2648817553192  4.70494253911286 29.2648817553192  C 4.70494253911286 29.2648817553192  2.30111769610961 28.8589797853466  2.30111769610961 28.8589797853466  C 2.30111769610961 28.8589797853466  0.0969371161611662 27.187618732519  0.0969371161611662 27.187618732519  C 0.0969371161611662 27.187618732519  1.7399554431972 24.4852232639857  1.7399554431972 24.4852232639857  C 1.7399554431972 24.4852232639857  0.98454471812332 21.5375501344532  0.98454471812332 21.5375501344532  C 0.98454471812332 21.5375501344532  1.33257323074661 18.189418461287  1.33257323074661 18.189418461287  C 1.33257323074661 18.189418461287  2.53313670452506 18.1807360662074  2.53313670452506 18.1807360662074  C 2.53313670452506 18.1807360662074  2.97828945322942 15.5195819743024  2.97828945322942 15.5195819743024  C 2.97828945322942 15.5195819743024  2.39284614129713 14.3387762434734  2.39284614129713 14.3387762434734  C 2.39284614129713 14.3387762434734  3.1158821210108 13.4900721244402  3.1158821210108 13.4900721244402  C 3.1158821210108 13.4900721244402  5.92708917646486 12.7542391414419  5.92708917646486 12.7542391414419  C 5.92708917646486 12.7542391414419  4.05744763190671 7.855197717764  4.05744763190671 7.855197717764  C 4.05744763190671 7.855197717764  2.31460717334305 5.31993835451351  2.31460717334305 5.31993835451351  C 2.31460717334305 5.31993835451351  2.92163364884889 3.23616353540352  2.92163364884889 3.23616353540352  C 2.92163364884889 3.23616353540352  4.42975720355032 2.76080240479421  4.42975720355032 2.76080240479421  C 4.42975720355032 2.76080240479421  5.41718693703987 2.20078792215862  5.41718693703987 2.20078792215862  C 5.41718693703987 2.20078792215862  7.51075380367381 3.12546299813863  7.51075380367381 3.12546299813863  C 7.51075380367381 3.12546299813863  13.3516974457642 3.17538676984641  13.3516974457642 3.17538676984641  C 13.3516974457642 3.17538676984641  14.7438114962578 1.3803015871341  14.7438114962578 1.3803015871341  C 14.7438114962578 1.3803015871341  16.0495928924574 1.50185511824867  16.0495928924574 1.50185511824867  C 16.0495928924574 1.50185511824867  18.2321903088318 0.807263511878677  18.2321903088318 0.807263511878677  C 18.2321903088318 0.807263511878677  19.4057748281434 3.43585862223498  19.4057748281434 3.43585862223498  C 19.4057748281434 3.43585862223498  21.1701984502806 2.66095486137865  21.1701984502806 2.66095486137865  C 21.1701984502806 2.66095486137865  26.2516634821047 1.75147397678792  26.2516634821047 1.75147397678792  C 26.2516634821047 1.75147397678792  29.6537096403843 3.09073341782013  29.6537096403843 3.09073341782013  C 29.6537096403843 3.09073341782013  30.975678409264 5.1224138664522  30.975678409264 5.1224138664522  C 30.975678409264 5.1224138664522  34.3777245675441 6.41609073331623  34.3777245675441 6.41609073331623  C 34.3777245675441 6.41609073331623  37.0216621053031 4.87279500791296  37.0216621053031 4.87279500791296  C 37.0216621053031 4.87279500791296  40.566696722258 4.64054093953315  40.566696722258 4.64054093953315  C 40.566696722258 4.64054093953315  45.7439580844617 6.22290744279451  45.7439580844617 6.22290744279451  C 45.7439580844617 6.22290744279451  47.7511922968015 14.9313497076577  47.7511922968015 14.9313497076577  C 47.7511922968015 14.9313497076577  44.5622798788103 21.6330564803292  44.5622798788103 21.6330564803292  C 44.5622798788103 21.6330564803292  42.5901183072777 28.5095133833918  42.5901183072777 28.5095133833918  C 42.5901183072777 28.5095133833918  45.8707591704564 33.7449976164054  45.8707591704564 33.7449976164054  Z " fill-rule="nonzero" fill="#f2f2f2" stroke="none" transform="matrix(1 0 0 1 1728 1970 )" />
    <path d="M 45.8707591704564 33.7449976164054  C 45.8707591704564 33.7449976164054  45.5281264487265 36.1391680596117  45.5281264487265 36.1391680596117  C 45.5281264487265 36.1391680596117  42.085611858746 36.202115423939  42.085611858746 36.202115423939  C 42.085611858746 36.202115423939  36.8085283650144 35.0147978968002  36.8085283650144 35.0147978968002  C 36.8085283650144 35.0147978968002  31.9577123518602 35.0842570574372  31.9577123518602 35.0842570574372  C 31.9577123518602 35.0842570574372  21.0380015733928 36.1435092571517  21.0380015733928 36.1435092571517  C 21.0380015733928 36.1435092571517  15.7851991386813 37.8951824644659  15.7851991386813 37.8951824644659  C 15.7851991386813 37.8951824644659  8.29584137866134 40.1200462036194  8.29584137866134 40.1200462036194  C 8.29584137866134 40.1200462036194  6.83358204655378 39.9615924934165  6.83358204655378 39.9615924934165  C 6.83358204655378 39.9615924934165  7.41632746303952 34.9648741250925  7.41632746303952 34.9648741250925  C 7.41632746303952 34.9648741250925  8.13936344275319 34.2029939568556  8.13936344275319 34.2029939568556  C 8.13936344275319 34.2029939568556  7.90734443433752 31.8109941124191  7.90734443433752 31.8109941124191  C 7.90734443433752 31.8109941124191  4.70494253911286 29.2648817553192  4.70494253911286 29.2648817553192  C 4.70494253911286 29.2648817553192  2.30111769610961 28.8589797853466  2.30111769610961 28.8589797853466  C 2.30111769610961 28.8589797853466  0.0969371161611662 27.187618732519  0.0969371161611662 27.187618732519  C 0.0969371161611662 27.187618732519  1.7399554431972 24.4852232639857  1.7399554431972 24.4852232639857  C 1.7399554431972 24.4852232639857  0.98454471812332 21.5375501344532  0.98454471812332 21.5375501344532  C 0.98454471812332 21.5375501344532  1.33257323074661 18.189418461287  1.33257323074661 18.189418461287  C 1.33257323074661 18.189418461287  2.53313670452506 18.1807360662074  2.53313670452506 18.1807360662074  C 2.53313670452506 18.1807360662074  2.97828945322942 15.5195819743024  2.97828945322942 15.5195819743024  C 2.97828945322942 15.5195819743024  2.39284614129713 14.3387762434734  2.39284614129713 14.3387762434734  C 2.39284614129713 14.3387762434734  3.1158821210108 13.4900721244402  3.1158821210108 13.4900721244402  C 3.1158821210108 13.4900721244402  5.92708917646486 12.7542391414419  5.92708917646486 12.7542391414419  C 5.92708917646486 12.7542391414419  4.05744763190671 7.855197717764  4.05744763190671 7.855197717764  C 4.05744763190671 7.855197717764  2.31460717334305 5.31993835451351  2.31460717334305 5.31993835451351  C 2.31460717334305 5.31993835451351  2.92163364884889 3.23616353540352  2.92163364884889 3.23616353540352  C 2.92163364884889 3.23616353540352  4.42975720355032 2.76080240479421  4.42975720355032 2.76080240479421  C 4.42975720355032 2.76080240479421  5.41718693703987 2.20078792215862  5.41718693703987 2.20078792215862  C 5.41718693703987 2.20078792215862  7.51075380367381 3.12546299813863  7.51075380367381 3.12546299813863  C 7.51075380367381 3.12546299813863  13.3516974457642 3.17538676984641  13.3516974457642 3.17538676984641  C 13.3516974457642 3.17538676984641  14.7438114962578 1.3803015871341  14.7438114962578 1.3803015871341  C 14.7438114962578 1.3803015871341  16.0495928924574 1.50185511824867  16.0495928924574 1.50185511824867  C 16.0495928924574 1.50185511824867  18.2321903088318 0.807263511878677  18.2321903088318 0.807263511878677  C 18.2321903088318 0.807263511878677  19.4057748281434 3.43585862223498  19.4057748281434 3.43585862223498  C 19.4057748281434 3.43585862223498  21.1701984502806 2.66095486137865  21.1701984502806 2.66095486137865  C 21.1701984502806 2.66095486137865  26.2516634821047 1.75147397678792  26.2516634821047 1.75147397678792  C 26.2516634821047 1.75147397678792  29.6537096403843 3.09073341782013  29.6537096403843 3.09073341782013  C 29.6537096403843 3.09073341782013  30.975678409264 5.1224138664522  30.975678409264 5.1224138664522  C 30.975678409264 5.1224138664522  34.3777245675441 6.41609073331623  34.3777245675441 6.41609073331623  C 34.3777245675441 6.41609073331623  37.0216621053031 4.87279500791296  37.0216621053031 4.87279500791296  C 37.0216621053031 4.87279500791296  40.566696722258 4.64054093953315  40.566696722258 4.64054093953315  C 40.566696722258 4.64054093953315  45.7439580844617 6.22290744279451  45.7439580844617 6.22290744279451  C 45.7439580844617 6.22290744279451  47.7511922968015 14.9313497076577  47.7511922968015 14.9313497076577  C 47.7511922968015 14.9313497076577  44.5622798788103 21.6330564803292  44.5622798788103 21.6330564803292  C 44.5622798788103 21.6330564803292  42.5901183072777 28.5095133833918  42.5901183072777 28.5095133833918  C 42.5901183072777 28.5095133833918  45.8707591704564 33.7449976164054  45.8707591704564 33.7449976164054  Z " stroke-width="2" stroke="#505050" fill="none" stroke-opacity="0.211764705882353" transform="matrix(1 0 0 1 1728 1970 )" mask="url(#clip613)" />
  </g>
</svg>