<?xml version="1.0" encoding="utf-8"?>
<svg version="1.1" xmlns:xlink="http://www.w3.org/1999/xlink" width="68px" height="299px" xmlns="http://www.w3.org/2000/svg">
  <defs>
    <mask fill="white" id="clip614">
      <path d="M 49.7630901278236 264.652949083518  C 49.7630901278236 264.652949083518  55.1036646187728 265.812624013263  55.1036646187728 265.812624013263  C 55.1036646187728 265.812624013263  55.1090132161601 290.023232976686  55.1090132161601 290.023232976686  C 55.1090132161601 290.023232976686  63.137257894092 290.029663706425  63.137257894092 290.029663706425  C 63.137257894092 290.029663706425  67.654148387439 290.308328661817  67.654148387439 290.308328661817  C 67.654148387439 290.308328661817  65.1697249011635 294.548323136929  65.1697249011635 294.548323136929  C 65.1697249011635 294.548323136929  58.7407108419535 297.83228245739  58.7407108419535 297.83228245739  C 58.7407108419535 297.83228245739  55.0555272422899 297.49574093434  55.0555272422899 297.49574093434  C 55.0555272422899 297.49574093434  50.616191411055 296.638310302366  50.616191411055 296.638310302366  C 50.616191411055 296.638310302366  45.1713192710585 293.467960540641  45.1713192710585 293.467960540641  C 45.1713192710585 293.467960540641  35.3740468653477 291.952451898627  35.3740468653477 291.952451898627  C 35.3740468653477 291.952451898627  25.939121074627 286.143359367003  25.939121074627 286.143359367003  C 25.939121074627 286.143359367003  18.2799296164 279.070645160162  18.2799296164 279.070645160162  C 18.2799296164 279.070645160162  7.95178806204513 267.808293809183  7.95178806204513 267.808293809183  C 7.95178806204513 267.808293809183  14.1347666414517 269.89613739804  14.1347666414517 269.89613739804  C 14.1347666414517 269.89613739804  24.6634805978203 276.611962822977  24.6634805978203 276.611962822977  C 24.6634805978203 276.611962822977  34.6091974390026 280.264617315186  34.6091974390026 280.264617315186  C 34.6091974390026 280.264617315186  40.4217647913758 275.604481830407  40.4217647913758 275.604481830407  C 40.4217647913758 275.604481830407  42.8527023037809 268.740749621455  42.8527023037809 268.740749621455  C 42.8527023037809 268.740749621455  49.7630901278236 264.652949083518  49.7630901278236 264.652949083518  Z M 54.1917287642846 18.5532090943147  C 54.1917287642846 18.5532090943147  58.2111997006374 25.7277599073583  58.2111997006374 25.7277599073583  C 58.2111997006374 25.7277599073583  61.147579666117 34.6236027140894  61.147579666117 34.6236027140894  C 61.147579666117 34.6236027140894  66.5576859230978 33.7340184334165  66.5576859230978 33.7340184334165  C 66.5576859230978 33.7340184334165  67.4669474788929 35.3588494810072  67.4669474788929 35.3588494810072  C 67.4669474788929 35.3588494810072  64.8942721357316 42.1304078970226  64.8942721357316 42.1304078970226  C 64.8942721357316 42.1304078970226  56.7269639257367 45.3650649561448  56.7269639257367 45.3650649561448  C 56.7269639257367 45.3650649561448  56.9649765094596 56.3894793067519  56.9649765094596 56.3894793067519  C 56.9649765094596 56.3894793067519  55.4005117737534 58.5351994632669  55.4005117737534 58.5351994632669  C 55.4005117737534 58.5351994632669  57.6442483776125 61.1610807736878  57.6442483776125 61.1610807736878  C 57.6442483776125 61.1610807736878  52.3518112631465 65.3410551045616  52.3518112631465 65.3410551045616  C 52.3518112631465 65.3410551045616  47.4417988618527 71.6924725109094  47.4417988618527 71.6924725109094  C 47.4417988618527 71.6924725109094  44.7621515709508 77.9002702864018  44.7621515709508 77.9002702864018  C 44.7621515709508 77.9002702864018  45.4708407247322 84.5775113329  45.4708407247322 84.5775113329  C 45.4708407247322 84.5775113329  40.8496525823383 91.7434878396233  40.8496525823383 91.7434878396233  C 40.8496525823383 91.7434878396233  44.3048464943595 103.949012885774  44.3048464943595 103.949012885774  C 44.3048464943595 103.949012885774  46.2517359432385 105.254451022955  46.2517359432385 105.254451022955  C 46.2517359432385 105.254451022955  46.2330158523838 111.869528348635  46.2330158523838 111.869528348635  C 46.2330158523838 111.869528348635  41.9541379427598 118.971197557961  41.9541379427598 118.971197557961  C 41.9541379427598 118.971197557961  42.1279673578383 125.118975189215  42.1279673578383 125.118975189215  C 42.1279673578383 125.118975189215  36.4504312315061 129.969888989608  36.4504312315061 129.969888989608  C 36.4504312315061 129.969888989608  36.4744999197478 136.86577484726  36.4744999197478 136.86577484726  C 36.4744999197478 136.86577484726  38.755676705316 145.844128633663  38.755676705316 145.844128633663  C 38.755676705316 145.844128633663  32.3226720560474 148.630778187579  32.3226720560474 148.630778187579  C 32.3226720560474 148.630778187579  30.316948035911 155.539525504709  30.316948035911 155.539525504709  C 30.316948035911 155.539525504709  28.5545851968847 163.580081256046  28.5545851968847 163.580081256046  C 28.5545851968847 163.580081256046  29.8222027776109 173.318349658692  29.8222027776109 173.318349658692  C 29.8222027776109 173.318349658692  26.8082681500194 174.962472895503  26.8082681500194 174.962472895503  C 26.8082681500194 174.962472895503  28.5599337942717 184.383491964318  28.5599337942717 184.383491964318  C 28.5599337942717 184.383491964318  31.9455959402616 187.517400924183  31.9455959402616 187.517400924183  C 31.9455959402616 187.517400924183  29.4745439474539 191.011430749477  29.4745439474539 191.011430749477  C 29.4745439474539 191.011430749477  32.9538065477169 192.687707634987  32.9538065477169 192.687707634987  C 32.9538065477169 192.687707634987  35.6989532986285 195.855913820131  35.6989532986285 195.855913820131  C 35.6989532986285 195.855913820131  30.482754554909 197.459309101923  30.482754554909 197.459309101923  C 30.482754554909 197.459309101923  31.287718461657 202.455986109752  31.287718461657 202.455986109752  C 31.287718461657 202.455986109752  28.5492365994978 213.924120812405  28.5492365994978 213.924120812405  C 28.5492365994978 213.924120812405  24.5752287409344 221.469510373777  24.5752287409344 221.469510373777  C 24.5752287409344 221.469510373777  25.4470501150204 225.996744110601  25.4470501150204 225.996744110601  C 25.4470501150204 225.996744110601  23.0695985764856 231.741529344827  23.0695985764856 231.741529344827  C 23.0695985764856 231.741529344827  17.3171820867348 235.767166161945  17.3171820867348 235.767166161945  C 17.3171820867348 235.767166161945  17.972385266646 245.625474853067  17.972385266646 245.625474853067  C 17.972385266646 245.625474853067  20.6145923758388 249.046623074644  20.6145923758388 249.046623074644  C 20.6145923758388 249.046623074644  25.6075080366312 248.437847325943  25.6075080366312 248.437847325943  C 25.6075080366312 248.437847325943  25.4630959071815 255.580244490287  25.4630959071815 255.580244490287  C 25.4630959071815 255.580244490287  28.5706309890459 261.222138048676  28.5706309890459 261.222138048676  C 28.5706309890459 261.222138048676  48.631861780467 262.525432609276  48.631861780467 262.525432609276  C 48.631861780467 262.525432609276  55.5823640849123 264.05808986393  55.5823640849123 264.05808986393  C 55.5823640849123 264.05808986393  48.9099888445925 263.985208260212  48.9099888445925 263.985208260212  C 48.9099888445925 263.985208260212  45.2996856083473 266.403162642379  45.2996856083473 266.403162642379  C 45.2996856083473 266.403162642379  38.5337099137544 269.980791954291  38.5337099137544 269.980791954291  C 38.5337099137544 269.980791954291  37.3249269042857 279.365370221248  37.3249269042857 279.365370221248  C 37.3249269042857 279.365370221248  32.2076772122263 279.601163645041  32.2076772122263 279.601163645041  C 32.2076772122263 279.601163645041  23.7461961459449 276.31077359484  23.7461961459449 276.31077359484  C 23.7461961459449 276.31077359484  15.1643716384551 269.342006133471  15.1643716384551 269.342006133471  C 15.1643716384551 269.342006133471  5.83641779547495 263.700112575082  5.83641779547495 263.700112575082  C 5.83641779547495 263.700112575082  3.48838354256881 257.539473484347  3.48838354256881 257.539473484347  C 3.48838354256881 257.539473484347  5.61177670521978 251.916872115177  5.61177670521978 251.916872115177  C 5.61177670521978 251.916872115177  1.8383412486701 245.621187699908  1.8383412486701 245.621187699908  C 1.8383412486701 245.621187699908  0.878268017698247 229.878761296863  0.878268017698247 229.878761296863  C 0.878268017698247 229.878761296863  4.06603206036808 221.233716949984  4.06603206036808 221.233716949984  C 4.06603206036808 221.233716949984  11.9846304918661 214.402138389731  11.9846304918661 214.402138389731  C 11.9846304918661 214.402138389731  0.602815252266048 211.851282259608  0.602815252266048 211.851282259608  C 0.602815252266048 211.851282259608  7.74319276395111 204.200857445819  7.74319276395111 204.200857445819  C 7.74319276395111 204.200857445819  10.2971480162579 190.145425811184  10.2971480162579 190.145425811184  C 10.2971480162579 190.145425811184  18.6302627452505 193.090700032015  18.6302627452505 193.090700032015  C 18.6302627452505 193.090700032015  22.5481103312501 176.006394689931  22.5481103312501 176.006394689931  C 22.5481103312501 176.006394689931  17.5177544887485 173.856387380256  17.5177544887485 173.856387380256  C 17.5177544887485 173.856387380256  15.1750688332293 184.036232558368  15.1750688332293 184.036232558368  C 15.1750688332293 184.036232558368  10.4442344444014 182.876557628623  10.4442344444014 182.876557628623  C 10.4442344444014 182.876557628623  12.8002915933878 171.258372565374  12.8002915933878 171.258372565374  C 12.8002915933878 171.258372565374  15.3569211443882 156.589878028878  15.3569211443882 156.589878028878  C 15.3569211443882 156.589878028878  18.8014178616357 151.278095263798  18.8014178616357 151.278095263798  C 18.8014178616357 151.278095263798  16.6432588159691 143.786295116925  16.6432588159691 143.786295116925  C 16.6432588159691 143.786295116925  16.0254958177669 133.703999391855  16.0254958177669 133.703999391855  C 16.0254958177669 133.703999391855  19.1865168735019 133.459631661743  19.1865168735019 133.459631661743  C 19.1865168735019 133.459631661743  23.7863106263477 121.464177120425  23.7863106263477 121.464177120425  C 23.7863106263477 121.464177120425  28.9691014943796 109.820269138217  28.9691014943796 109.820269138217  C 28.9691014943796 109.820269138217  32.1434940435819 99.170980689099  32.1434940435819 99.170980689099  C 32.1434940435819 99.170980689099  30.4158970875713 88.6417325284573  30.4158970875713 88.6417325284573  C 30.4158970875713 88.6417325284573  32.6542850940432 82.9162394834501  32.6542850940432 82.9162394834501  C 32.6542850940432 82.9162394834501  31.7557207330221 74.4383941098061  31.7557207330221 74.4383941098061  C 31.7557207330221 74.4383941098061  38.0844277332439 66.1491834751966  38.0844277332439 66.1491834751966  C 38.0844277332439 66.1491834751966  39.4349485734689 53.206268085548  39.4349485734689 53.206268085548  C 39.4349485734689 53.206268085548  41.8418173976322 39.5431109650406  41.8418173976322 39.5431109650406  C 41.8418173976322 39.5431109650406  44.187177351845 25.0803997802176  44.187177351845 25.0803997802176  C 44.187177351845 25.0803997802176  43.6389461196744 14.6326075296135  43.6389461196744 14.6326075296135  C 43.6389461196744 14.6326075296135  42.0771556826617 5.73033399314256  42.0771556826617 5.73033399314256  C 42.0771556826617 5.73033399314256  45.9334943987103 4.124795134771  45.9334943987103 4.124795134771  C 45.9334943987103 4.124795134771  47.9418927175399 0.907286688288053  47.9418927175399 0.907286688288053  C 47.9418927175399 0.907286688288053  51.6163791224295 5.17729123551911  51.6163791224295 5.17729123551911  C 51.6163791224295 5.17729123551911  52.6192411324979 9.72596073814154  52.6192411324979 9.72596073814154  C 52.6192411324979 9.72596073814154  56.5531345106583 12.4054314630605  56.5531345106583 12.4054314630605  C 56.5531345106583 12.4054314630605  54.1917287642846 18.5532090943147  54.1917287642846 18.5532090943147  Z " fill-rule="evenodd" />
    </mask>
  </defs>
  <g transform="matrix(1 0 0 1 -1209 -2139 )">
    <path d="M 49.7630901278236 264.652949083518  C 49.7630901278236 264.652949083518  55.1036646187728 265.812624013263  55.1036646187728 265.812624013263  C 55.1036646187728 265.812624013263  55.1090132161601 290.023232976686  55.1090132161601 290.023232976686  C 55.1090132161601 290.023232976686  63.137257894092 290.029663706425  63.137257894092 290.029663706425  C 63.137257894092 290.029663706425  67.654148387439 290.308328661817  67.654148387439 290.308328661817  C 67.654148387439 290.308328661817  65.1697249011635 294.548323136929  65.1697249011635 294.548323136929  C 65.1697249011635 294.548323136929  58.7407108419535 297.83228245739  58.7407108419535 297.83228245739  C 58.7407108419535 297.83228245739  55.0555272422899 297.49574093434  55.0555272422899 297.49574093434  C 55.0555272422899 297.49574093434  50.616191411055 296.638310302366  50.616191411055 296.638310302366  C 50.616191411055 296.638310302366  45.1713192710585 293.467960540641  45.1713192710585 293.467960540641  C 45.1713192710585 293.467960540641  35.3740468653477 291.952451898627  35.3740468653477 291.952451898627  C 35.3740468653477 291.952451898627  25.939121074627 286.143359367003  25.939121074627 286.143359367003  C 25.939121074627 286.143359367003  18.2799296164 279.070645160162  18.2799296164 279.070645160162  C 18.2799296164 279.070645160162  7.95178806204513 267.808293809183  7.95178806204513 267.808293809183  C 7.95178806204513 267.808293809183  14.1347666414517 269.89613739804  14.1347666414517 269.89613739804  C 14.1347666414517 269.89613739804  24.6634805978203 276.611962822977  24.6634805978203 276.611962822977  C 24.6634805978203 276.611962822977  34.6091974390026 280.264617315186  34.6091974390026 280.264617315186  C 34.6091974390026 280.264617315186  40.4217647913758 275.604481830407  40.4217647913758 275.604481830407  C 40.4217647913758 275.604481830407  42.8527023037809 268.740749621455  42.8527023037809 268.740749621455  C 42.8527023037809 268.740749621455  49.7630901278236 264.652949083518  49.7630901278236 264.652949083518  Z M 54.1917287642846 18.5532090943147  C 54.1917287642846 18.5532090943147  58.2111997006374 25.7277599073583  58.2111997006374 25.7277599073583  C 58.2111997006374 25.7277599073583  61.147579666117 34.6236027140894  61.147579666117 34.6236027140894  C 61.147579666117 34.6236027140894  66.5576859230978 33.7340184334165  66.5576859230978 33.7340184334165  C 66.5576859230978 33.7340184334165  67.4669474788929 35.3588494810072  67.4669474788929 35.3588494810072  C 67.4669474788929 35.3588494810072  64.8942721357316 42.1304078970226  64.8942721357316 42.1304078970226  C 64.8942721357316 42.1304078970226  56.7269639257367 45.3650649561448  56.7269639257367 45.3650649561448  C 56.7269639257367 45.3650649561448  56.9649765094596 56.3894793067519  56.9649765094596 56.3894793067519  C 56.9649765094596 56.3894793067519  55.4005117737534 58.5351994632669  55.4005117737534 58.5351994632669  C 55.4005117737534 58.5351994632669  57.6442483776125 61.1610807736878  57.6442483776125 61.1610807736878  C 57.6442483776125 61.1610807736878  52.3518112631465 65.3410551045616  52.3518112631465 65.3410551045616  C 52.3518112631465 65.3410551045616  47.4417988618527 71.6924725109094  47.4417988618527 71.6924725109094  C 47.4417988618527 71.6924725109094  44.7621515709508 77.9002702864018  44.7621515709508 77.9002702864018  C 44.7621515709508 77.9002702864018  45.4708407247322 84.5775113329  45.4708407247322 84.5775113329  C 45.4708407247322 84.5775113329  40.8496525823383 91.7434878396233  40.8496525823383 91.7434878396233  C 40.8496525823383 91.7434878396233  44.3048464943595 103.949012885774  44.3048464943595 103.949012885774  C 44.3048464943595 103.949012885774  46.2517359432385 105.254451022955  46.2517359432385 105.254451022955  C 46.2517359432385 105.254451022955  46.2330158523838 111.869528348635  46.2330158523838 111.869528348635  C 46.2330158523838 111.869528348635  41.9541379427598 118.971197557961  41.9541379427598 118.971197557961  C 41.9541379427598 118.971197557961  42.1279673578383 125.118975189215  42.1279673578383 125.118975189215  C 42.1279673578383 125.118975189215  36.4504312315061 129.969888989608  36.4504312315061 129.969888989608  C 36.4504312315061 129.969888989608  36.4744999197478 136.86577484726  36.4744999197478 136.86577484726  C 36.4744999197478 136.86577484726  38.755676705316 145.844128633663  38.755676705316 145.844128633663  C 38.755676705316 145.844128633663  32.3226720560474 148.630778187579  32.3226720560474 148.630778187579  C 32.3226720560474 148.630778187579  30.316948035911 155.539525504709  30.316948035911 155.539525504709  C 30.316948035911 155.539525504709  28.5545851968847 163.580081256046  28.5545851968847 163.580081256046  C 28.5545851968847 163.580081256046  29.8222027776109 173.318349658692  29.8222027776109 173.318349658692  C 29.8222027776109 173.318349658692  26.8082681500194 174.962472895503  26.8082681500194 174.962472895503  C 26.8082681500194 174.962472895503  28.5599337942717 184.383491964318  28.5599337942717 184.383491964318  C 28.5599337942717 184.383491964318  31.9455959402616 187.517400924183  31.9455959402616 187.517400924183  C 31.9455959402616 187.517400924183  29.4745439474539 191.011430749477  29.4745439474539 191.011430749477  C 29.4745439474539 191.011430749477  32.9538065477169 192.687707634987  32.9538065477169 192.687707634987  C 32.9538065477169 192.687707634987  35.6989532986285 195.855913820131  35.6989532986285 195.855913820131  C 35.6989532986285 195.855913820131  30.482754554909 197.459309101923  30.482754554909 197.459309101923  C 30.482754554909 197.459309101923  31.287718461657 202.455986109752  31.287718461657 202.455986109752  C 31.287718461657 202.455986109752  28.5492365994978 213.924120812405  28.5492365994978 213.924120812405  C 28.5492365994978 213.924120812405  24.5752287409344 221.469510373777  24.5752287409344 221.469510373777  C 24.5752287409344 221.469510373777  25.4470501150204 225.996744110601  25.4470501150204 225.996744110601  C 25.4470501150204 225.996744110601  23.0695985764856 231.741529344827  23.0695985764856 231.741529344827  C 23.0695985764856 231.741529344827  17.3171820867348 235.767166161945  17.3171820867348 235.767166161945  C 17.3171820867348 235.767166161945  17.972385266646 245.625474853067  17.972385266646 245.625474853067  C 17.972385266646 245.625474853067  20.6145923758388 249.046623074644  20.6145923758388 249.046623074644  C 20.6145923758388 249.046623074644  25.6075080366312 248.437847325943  25.6075080366312 248.437847325943  C 25.6075080366312 248.437847325943  25.4630959071815 255.580244490287  25.4630959071815 255.580244490287  C 25.4630959071815 255.580244490287  28.5706309890459 261.222138048676  28.5706309890459 261.222138048676  C 28.5706309890459 261.222138048676  48.631861780467 262.525432609276  48.631861780467 262.525432609276  C 48.631861780467 262.525432609276  55.5823640849123 264.05808986393  55.5823640849123 264.05808986393  C 55.5823640849123 264.05808986393  48.9099888445925 263.985208260212  48.9099888445925 263.985208260212  C 48.9099888445925 263.985208260212  45.2996856083473 266.403162642379  45.2996856083473 266.403162642379  C 45.2996856083473 266.403162642379  38.5337099137544 269.980791954291  38.5337099137544 269.980791954291  C 38.5337099137544 269.980791954291  37.3249269042857 279.365370221248  37.3249269042857 279.365370221248  C 37.3249269042857 279.365370221248  32.2076772122263 279.601163645041  32.2076772122263 279.601163645041  C 32.2076772122263 279.601163645041  23.7461961459449 276.31077359484  23.7461961459449 276.31077359484  C 23.7461961459449 276.31077359484  15.1643716384551 269.342006133471  15.1643716384551 269.342006133471  C 15.1643716384551 269.342006133471  5.83641779547495 263.700112575082  5.83641779547495 263.700112575082  C 5.83641779547495 263.700112575082  3.48838354256881 257.539473484347  3.48838354256881 257.539473484347  C 3.48838354256881 257.539473484347  5.61177670521978 251.916872115177  5.61177670521978 251.916872115177  C 5.61177670521978 251.916872115177  1.8383412486701 245.621187699908  1.8383412486701 245.621187699908  C 1.8383412486701 245.621187699908  0.878268017698247 229.878761296863  0.878268017698247 229.878761296863  C 0.878268017698247 229.878761296863  4.06603206036808 221.233716949984  4.06603206036808 221.233716949984  C 4.06603206036808 221.233716949984  11.9846304918661 214.402138389731  11.9846304918661 214.402138389731  C 11.9846304918661 214.402138389731  0.602815252266048 211.851282259608  0.602815252266048 211.851282259608  C 0.602815252266048 211.851282259608  7.74319276395111 204.200857445819  7.74319276395111 204.200857445819  C 7.74319276395111 204.200857445819  10.2971480162579 190.145425811184  10.2971480162579 190.145425811184  C 10.2971480162579 190.145425811184  18.6302627452505 193.090700032015  18.6302627452505 193.090700032015  C 18.6302627452505 193.090700032015  22.5481103312501 176.006394689931  22.5481103312501 176.006394689931  C 22.5481103312501 176.006394689931  17.5177544887485 173.856387380256  17.5177544887485 173.856387380256  C 17.5177544887485 173.856387380256  15.1750688332293 184.036232558368  15.1750688332293 184.036232558368  C 15.1750688332293 184.036232558368  10.4442344444014 182.876557628623  10.4442344444014 182.876557628623  C 10.4442344444014 182.876557628623  12.8002915933878 171.258372565374  12.8002915933878 171.258372565374  C 12.8002915933878 171.258372565374  15.3569211443882 156.589878028878  15.3569211443882 156.589878028878  C 15.3569211443882 156.589878028878  18.8014178616357 151.278095263798  18.8014178616357 151.278095263798  C 18.8014178616357 151.278095263798  16.6432588159691 143.786295116925  16.6432588159691 143.786295116925  C 16.6432588159691 143.786295116925  16.0254958177669 133.703999391855  16.0254958177669 133.703999391855  C 16.0254958177669 133.703999391855  19.1865168735019 133.459631661743  19.1865168735019 133.459631661743  C 19.1865168735019 133.459631661743  23.7863106263477 121.464177120425  23.7863106263477 121.464177120425  C 23.7863106263477 121.464177120425  28.9691014943796 109.820269138217  28.9691014943796 109.820269138217  C 28.9691014943796 109.820269138217  32.1434940435819 99.170980689099  32.1434940435819 99.170980689099  C 32.1434940435819 99.170980689099  30.4158970875713 88.6417325284573  30.4158970875713 88.6417325284573  C 30.4158970875713 88.6417325284573  32.6542850940432 82.9162394834501  32.6542850940432 82.9162394834501  C 32.6542850940432 82.9162394834501  31.7557207330221 74.4383941098061  31.7557207330221 74.4383941098061  C 31.7557207330221 74.4383941098061  38.0844277332439 66.1491834751966  38.0844277332439 66.1491834751966  C 38.0844277332439 66.1491834751966  39.4349485734689 53.206268085548  39.4349485734689 53.206268085548  C 39.4349485734689 53.206268085548  41.8418173976322 39.5431109650406  41.8418173976322 39.5431109650406  C 41.8418173976322 39.5431109650406  44.187177351845 25.0803997802176  44.187177351845 25.0803997802176  C 44.187177351845 25.0803997802176  43.6389461196744 14.6326075296135  43.6389461196744 14.6326075296135  C 43.6389461196744 14.6326075296135  42.0771556826617 5.73033399314256  42.0771556826617 5.73033399314256  C 42.0771556826617 5.73033399314256  45.9334943987103 4.124795134771  45.9334943987103 4.124795134771  C 45.9334943987103 4.124795134771  47.9418927175399 0.907286688288053  47.9418927175399 0.907286688288053  C 47.9418927175399 0.907286688288053  51.6163791224295 5.17729123551911  51.6163791224295 5.17729123551911  C 51.6163791224295 5.17729123551911  52.6192411324979 9.72596073814154  52.6192411324979 9.72596073814154  C 52.6192411324979 9.72596073814154  56.5531345106583 12.4054314630605  56.5531345106583 12.4054314630605  C 56.5531345106583 12.4054314630605  54.1917287642846 18.5532090943147  54.1917287642846 18.5532090943147  Z " fill-rule="nonzero" fill="#f2f2f2" stroke="none" transform="matrix(1 0 0 1 1209 2139 )" />
    <path d="M 49.7630901278236 264.652949083518  C 49.7630901278236 264.652949083518  55.1036646187728 265.812624013263  55.1036646187728 265.812624013263  C 55.1036646187728 265.812624013263  55.1090132161601 290.023232976686  55.1090132161601 290.023232976686  C 55.1090132161601 290.023232976686  63.137257894092 290.029663706425  63.137257894092 290.029663706425  C 63.137257894092 290.029663706425  67.654148387439 290.308328661817  67.654148387439 290.308328661817  C 67.654148387439 290.308328661817  65.1697249011635 294.548323136929  65.1697249011635 294.548323136929  C 65.1697249011635 294.548323136929  58.7407108419535 297.83228245739  58.7407108419535 297.83228245739  C 58.7407108419535 297.83228245739  55.0555272422899 297.49574093434  55.0555272422899 297.49574093434  C 55.0555272422899 297.49574093434  50.616191411055 296.638310302366  50.616191411055 296.638310302366  C 50.616191411055 296.638310302366  45.1713192710585 293.467960540641  45.1713192710585 293.467960540641  C 45.1713192710585 293.467960540641  35.3740468653477 291.952451898627  35.3740468653477 291.952451898627  C 35.3740468653477 291.952451898627  25.939121074627 286.143359367003  25.939121074627 286.143359367003  C 25.939121074627 286.143359367003  18.2799296164 279.070645160162  18.2799296164 279.070645160162  C 18.2799296164 279.070645160162  7.95178806204513 267.808293809183  7.95178806204513 267.808293809183  C 7.95178806204513 267.808293809183  14.1347666414517 269.89613739804  14.1347666414517 269.89613739804  C 14.1347666414517 269.89613739804  24.6634805978203 276.611962822977  24.6634805978203 276.611962822977  C 24.6634805978203 276.611962822977  34.6091974390026 280.264617315186  34.6091974390026 280.264617315186  C 34.6091974390026 280.264617315186  40.4217647913758 275.604481830407  40.4217647913758 275.604481830407  C 40.4217647913758 275.604481830407  42.8527023037809 268.740749621455  42.8527023037809 268.740749621455  C 42.8527023037809 268.740749621455  49.7630901278236 264.652949083518  49.7630901278236 264.652949083518  Z " stroke-width="2" stroke="#505050" fill="none" stroke-opacity="0.211764705882353" transform="matrix(1 0 0 1 1209 2139 )" mask="url(#clip614)" />
    <path d="M 54.1917287642846 18.5532090943147  C 54.1917287642846 18.5532090943147  58.2111997006374 25.7277599073583  58.2111997006374 25.7277599073583  C 58.2111997006374 25.7277599073583  61.147579666117 34.6236027140894  61.147579666117 34.6236027140894  C 61.147579666117 34.6236027140894  66.5576859230978 33.7340184334165  66.5576859230978 33.7340184334165  C 66.5576859230978 33.7340184334165  67.4669474788929 35.3588494810072  67.4669474788929 35.3588494810072  C 67.4669474788929 35.3588494810072  64.8942721357316 42.1304078970226  64.8942721357316 42.1304078970226  C 64.8942721357316 42.1304078970226  56.7269639257367 45.3650649561448  56.7269639257367 45.3650649561448  C 56.7269639257367 45.3650649561448  56.9649765094596 56.3894793067519  56.9649765094596 56.3894793067519  C 56.9649765094596 56.3894793067519  55.4005117737534 58.5351994632669  55.4005117737534 58.5351994632669  C 55.4005117737534 58.5351994632669  57.6442483776125 61.1610807736878  57.6442483776125 61.1610807736878  C 57.6442483776125 61.1610807736878  52.3518112631465 65.3410551045616  52.3518112631465 65.3410551045616  C 52.3518112631465 65.3410551045616  47.4417988618527 71.6924725109094  47.4417988618527 71.6924725109094  C 47.4417988618527 71.6924725109094  44.7621515709508 77.9002702864018  44.7621515709508 77.9002702864018  C 44.7621515709508 77.9002702864018  45.4708407247322 84.5775113329  45.4708407247322 84.5775113329  C 45.4708407247322 84.5775113329  40.8496525823383 91.7434878396233  40.8496525823383 91.7434878396233  C 40.8496525823383 91.7434878396233  44.3048464943595 103.949012885774  44.3048464943595 103.949012885774  C 44.3048464943595 103.949012885774  46.2517359432385 105.254451022955  46.2517359432385 105.254451022955  C 46.2517359432385 105.254451022955  46.2330158523838 111.869528348635  46.2330158523838 111.869528348635  C 46.2330158523838 111.869528348635  41.9541379427598 118.971197557961  41.9541379427598 118.971197557961  C 41.9541379427598 118.971197557961  42.1279673578383 125.118975189215  42.1279673578383 125.118975189215  C 42.1279673578383 125.118975189215  36.4504312315061 129.969888989608  36.4504312315061 129.969888989608  C 36.4504312315061 129.969888989608  36.4744999197478 136.86577484726  36.4744999197478 136.86577484726  C 36.4744999197478 136.86577484726  38.755676705316 145.844128633663  38.755676705316 145.844128633663  C 38.755676705316 145.844128633663  32.3226720560474 148.630778187579  32.3226720560474 148.630778187579  C 32.3226720560474 148.630778187579  30.316948035911 155.539525504709  30.316948035911 155.539525504709  C 30.316948035911 155.539525504709  28.5545851968847 163.580081256046  28.5545851968847 163.580081256046  C 28.5545851968847 163.580081256046  29.8222027776109 173.318349658692  29.8222027776109 173.318349658692  C 29.8222027776109 173.318349658692  26.8082681500194 174.962472895503  26.8082681500194 174.962472895503  C 26.8082681500194 174.962472895503  28.5599337942717 184.383491964318  28.5599337942717 184.383491964318  C 28.5599337942717 184.383491964318  31.9455959402616 187.517400924183  31.9455959402616 187.517400924183  C 31.9455959402616 187.517400924183  29.4745439474539 191.011430749477  29.4745439474539 191.011430749477  C 29.4745439474539 191.011430749477  32.9538065477169 192.687707634987  32.9538065477169 192.687707634987  C 32.9538065477169 192.687707634987  35.6989532986285 195.855913820131  35.6989532986285 195.855913820131  C 35.6989532986285 195.855913820131  30.482754554909 197.459309101923  30.482754554909 197.459309101923  C 30.482754554909 197.459309101923  31.287718461657 202.455986109752  31.287718461657 202.455986109752  C 31.287718461657 202.455986109752  28.5492365994978 213.924120812405  28.5492365994978 213.924120812405  C 28.5492365994978 213.924120812405  24.5752287409344 221.469510373777  24.5752287409344 221.469510373777  C 24.5752287409344 221.469510373777  25.4470501150204 225.996744110601  25.4470501150204 225.996744110601  C 25.4470501150204 225.996744110601  23.0695985764856 231.741529344827  23.0695985764856 231.741529344827  C 23.0695985764856 231.741529344827  17.3171820867348 235.767166161945  17.3171820867348 235.767166161945  C 17.3171820867348 235.767166161945  17.972385266646 245.625474853067  17.972385266646 245.625474853067  C 17.972385266646 245.625474853067  20.6145923758388 249.046623074644  20.6145923758388 249.046623074644  C 20.6145923758388 249.046623074644  25.6075080366312 248.437847325943  25.6075080366312 248.437847325943  C 25.6075080366312 248.437847325943  25.4630959071815 255.580244490287  25.4630959071815 255.580244490287  C 25.4630959071815 255.580244490287  28.5706309890459 261.222138048676  28.5706309890459 261.222138048676  C 28.5706309890459 261.222138048676  48.631861780467 262.525432609276  48.631861780467 262.525432609276  C 48.631861780467 262.525432609276  55.5823640849123 264.05808986393  55.5823640849123 264.05808986393  C 55.5823640849123 264.05808986393  48.9099888445925 263.985208260212  48.9099888445925 263.985208260212  C 48.9099888445925 263.985208260212  45.2996856083473 266.403162642379  45.2996856083473 266.403162642379  C 45.2996856083473 266.403162642379  38.5337099137544 269.980791954291  38.5337099137544 269.980791954291  C 38.5337099137544 269.980791954291  37.3249269042857 279.365370221248  37.3249269042857 279.365370221248  C 37.3249269042857 279.365370221248  32.2076772122263 279.601163645041  32.2076772122263 279.601163645041  C 32.2076772122263 279.601163645041  23.7461961459449 276.31077359484  23.7461961459449 276.31077359484  C 23.7461961459449 276.31077359484  15.1643716384551 269.342006133471  15.1643716384551 269.342006133471  C 15.1643716384551 269.342006133471  5.83641779547495 263.700112575082  5.83641779547495 263.700112575082  C 5.83641779547495 263.700112575082  3.48838354256881 257.539473484347  3.48838354256881 257.539473484347  C 3.48838354256881 257.539473484347  5.61177670521978 251.916872115177  5.61177670521978 251.916872115177  C 5.61177670521978 251.916872115177  1.8383412486701 245.621187699908  1.8383412486701 245.621187699908  C 1.8383412486701 245.621187699908  0.878268017698247 229.878761296863  0.878268017698247 229.878761296863  C 0.878268017698247 229.878761296863  4.06603206036808 221.233716949984  4.06603206036808 221.233716949984  C 4.06603206036808 221.233716949984  11.9846304918661 214.402138389731  11.9846304918661 214.402138389731  C 11.9846304918661 214.402138389731  0.602815252266048 211.851282259608  0.602815252266048 211.851282259608  C 0.602815252266048 211.851282259608  7.74319276395111 204.200857445819  7.74319276395111 204.200857445819  C 7.74319276395111 204.200857445819  10.2971480162579 190.145425811184  10.2971480162579 190.145425811184  C 10.2971480162579 190.145425811184  18.6302627452505 193.090700032015  18.6302627452505 193.090700032015  C 18.6302627452505 193.090700032015  22.5481103312501 176.006394689931  22.5481103312501 176.006394689931  C 22.5481103312501 176.006394689931  17.5177544887485 173.856387380256  17.5177544887485 173.856387380256  C 17.5177544887485 173.856387380256  15.1750688332293 184.036232558368  15.1750688332293 184.036232558368  C 15.1750688332293 184.036232558368  10.4442344444014 182.876557628623  10.4442344444014 182.876557628623  C 10.4442344444014 182.876557628623  12.8002915933878 171.258372565374  12.8002915933878 171.258372565374  C 12.8002915933878 171.258372565374  15.3569211443882 156.589878028878  15.3569211443882 156.589878028878  C 15.3569211443882 156.589878028878  18.8014178616357 151.278095263798  18.8014178616357 151.278095263798  C 18.8014178616357 151.278095263798  16.6432588159691 143.786295116925  16.6432588159691 143.786295116925  C 16.6432588159691 143.786295116925  16.0254958177669 133.703999391855  16.0254958177669 133.703999391855  C 16.0254958177669 133.703999391855  19.1865168735019 133.459631661743  19.1865168735019 133.459631661743  C 19.1865168735019 133.459631661743  23.7863106263477 121.464177120425  23.7863106263477 121.464177120425  C 23.7863106263477 121.464177120425  28.9691014943796 109.820269138217  28.9691014943796 109.820269138217  C 28.9691014943796 109.820269138217  32.1434940435819 99.170980689099  32.1434940435819 99.170980689099  C 32.1434940435819 99.170980689099  30.4158970875713 88.6417325284573  30.4158970875713 88.6417325284573  C 30.4158970875713 88.6417325284573  32.6542850940432 82.9162394834501  32.6542850940432 82.9162394834501  C 32.6542850940432 82.9162394834501  31.7557207330221 74.4383941098061  31.7557207330221 74.4383941098061  C 31.7557207330221 74.4383941098061  38.0844277332439 66.1491834751966  38.0844277332439 66.1491834751966  C 38.0844277332439 66.1491834751966  39.4349485734689 53.206268085548  39.4349485734689 53.206268085548  C 39.4349485734689 53.206268085548  41.8418173976322 39.5431109650406  41.8418173976322 39.5431109650406  C 41.8418173976322 39.5431109650406  44.187177351845 25.0803997802176  44.187177351845 25.0803997802176  C 44.187177351845 25.0803997802176  43.6389461196744 14.6326075296135  43.6389461196744 14.6326075296135  C 43.6389461196744 14.6326075296135  42.0771556826617 5.73033399314256  42.0771556826617 5.73033399314256  C 42.0771556826617 5.73033399314256  45.9334943987103 4.124795134771  45.9334943987103 4.124795134771  C 45.9334943987103 4.124795134771  47.9418927175399 0.907286688288053  47.9418927175399 0.907286688288053  C 47.9418927175399 0.907286688288053  51.6163791224295 5.17729123551911  51.6163791224295 5.17729123551911  C 51.6163791224295 5.17729123551911  52.6192411324979 9.72596073814154  52.6192411324979 9.72596073814154  C 52.6192411324979 9.72596073814154  56.5531345106583 12.4054314630605  56.5531345106583 12.4054314630605  C 56.5531345106583 12.4054314630605  54.1917287642846 18.5532090943147  54.1917287642846 18.5532090943147  Z " stroke-width="2" stroke="#505050" fill="none" stroke-opacity="0.211764705882353" transform="matrix(1 0 0 1 1209 2139 )" mask="url(#clip614)" />
  </g>
</svg>