<?xml version="1.0" encoding="utf-8"?>
<svg version="1.1" xmlns:xlink="http://www.w3.org/1999/xlink" width="62px" height="71px" xmlns="http://www.w3.org/2000/svg">
  <defs>
    <mask fill="white" id="clip615">
      <path d="M 47.1744571819918 67.1292041357647  C 47.1744571819918 67.1292041357647  37.4345040285223 66.8903088586824  37.4345040285223 66.8903088586824  C 37.4345040285223 66.8903088586824  36.4709699404177 66.5601990212592  36.4709699404177 66.5601990212592  C 36.4709699404177 66.5601990212592  31.9038183628015 67.3398663346468  31.9038183628015 67.3398663346468  C 31.9038183628015 67.3398663346468  25.2127838310007 66.5297941678124  25.2127838310007 66.5297941678124  C 25.2127838310007 66.5297941678124  21.545848387128 66.9272290378677  21.545848387128 66.9272290378677  C 21.545848387128 66.9272290378677  8.98411683278073 66.7882354221107  8.98411683278073 66.7882354221107  C 8.98411683278073 66.7882354221107  10.1100752385944 62.0081581052153  10.1100752385944 62.0081581052153  C 10.1100752385944 62.0081581052153  7.09559002009564 58.003404551215  7.09559002009564 58.003404551215  C 7.09559002009564 58.003404551215  3.5718082121698 56.9739830845142  3.5718082121698 56.9739830845142  C 3.5718082121698 56.9739830845142  2.00262412582811 54.2570922515126  2.00262412582811 54.2570922515126  C 2.00262412582811 54.2570922515126  0.0260027679446466 53.3883821530309  0.0260027679446466 53.3883821530309  C 0.0260027679446466 53.3883821530309  0.11409731314302 51.7095998877152  0.11409731314302 51.7095998877152  C 0.11409731314302 51.7095998877152  2.10173048917591 47.4116566754774  2.10173048917591 47.4116566754774  C 2.10173048917591 47.4116566754774  5.77417184212345 41.5435199602335  5.77417184212345 41.5435199602335  C 5.77417184212345 41.5435199602335  8.00681797198877 41.4892255790784  8.00681797198877 41.4892255790784  C 8.00681797198877 41.4892255790784  12.6042520495168 37.9231706248113  12.6042520495168 37.9231706248113  C 12.6042520495168 37.9231706248113  15.5306427228174 37.8232689634857  15.5306427228174 37.8232689634857  C 15.5306427228174 37.8232689634857  19.8637931647511 40.3273258223591  19.8637931647511 40.3273258223591  C 19.8637931647511 40.3273258223591  25.1687365584016 38.2749982146962  25.1687365584016 38.2749982146962  C 25.1687365584016 38.2749982146962  25.8900106472115 34.1627587245982  25.8900106472115 34.1627587245982  C 25.8900106472115 34.1627587245982  27.6243720057998 31.7043091458953  27.6243720057998 31.7043091458953  C 27.6243720057998 31.7043091458953  28.8191542750494 28.6117011953007  28.8191542750494 28.6117011953007  C 28.8191542750494 28.6117011953007  34.9458331266749 26.0924419097035  34.9458331266749 26.0924419097035  C 34.9458331266749 26.0924419097035  36.5040053948669 21.8031857984505  36.5040053948669 21.8031857984505  C 36.5040053948669 21.8031857984505  38.1420133446452 20.4371391685882  38.1420133446452 20.4371391685882  C 38.1420133446452 20.4371391685882  39.2294303869346 17.244629556668  39.2294303869346 17.244629556668  C 39.2294303869346 17.244629556668  41.2721226537165 13.3180599115306  41.2721226537165 13.3180599115306  C 41.2721226537165 13.3180599115306  47.771848316617 8.54666969562035  47.771848316617 8.54666969562035  C 47.771848316617 8.54666969562035  48.1820385426959 6.49217031271131  48.1820385426959 6.49217031271131  C 48.1820385426959 6.49217031271131  49.0216896766156 5.37587783616217  49.0216896766156 5.37587783616217  C 49.0216896766156 5.37587783616217  45.965910140055 2.90874115647409  45.965910140055 2.90874115647409  C 45.965910140055 2.90874115647409  46.2136760484248 0.934597457674767  46.2136760484248 0.934597457674767  C 46.2136760484248 0.934597457674767  48.3940160420789 0.578426317297352  48.3940160420789 0.578426317297352  C 48.3940160420789 0.578426317297352  51.4635603513264 4.54843146735836  51.4635603513264 4.54843146735836  C 51.4635603513264 4.54843146735836  51.978362849828 8.65091490743816  51.978362849828 8.65091490743816  C 51.978362849828 8.65091490743816  51.6975614870089 12.746883021779  51.6975614870089 12.746883021779  C 51.6975614870089 12.746883021779  55.8985701111455 18.3392042807548  55.8985701111455 18.3392042807548  C 55.8985701111455 18.3392042807548  51.5874433055114 18.278394573861  51.5874433055114 18.278394573861  C 51.5874433055114 18.278394573861  49.4098562663946 18.7170931735942  49.4098562663946 18.7170931735942  C 49.4098562663946 18.7170931735942  45.8915803675443 18.1003090036724  45.8915803675443 18.1003090036724  C 45.8915803675443 18.1003090036724  44.2122780997047 20.9974571821087  44.2122780997047 20.9974571821087  C 44.2122780997047 20.9974571821087  48.7711708137083 24.5743710126069  48.7711708137083 24.5743710126069  C 48.7711708137083 24.5743710126069  52.1325283039248 25.6124795802924  52.1325283039248 25.6124795802924  C 52.1325283039248 25.6124795802924  53.2171923916769 28.1447695173665  53.2171923916769 28.1447695173665  C 53.2171923916769 28.1447695173665  55.6535571573129 32.3580134950027  55.6535571573129 32.3580134950027  C 55.6535571573129 32.3580134950027  54.4422571608386 34.0107344573639  54.4422571608386 34.0107344573639  C 54.4422571608386 34.0107344573639  50.5605912630454 41.7628692601003  50.5605912630454 41.7628692601003  C 50.5605912630454 41.7628692601003  48.707852859347 42.8683028604179  48.707852859347 42.8683028604179  C 48.707852859347 42.8683028604179  48.1132146792595 47.5810551446812  48.1132146792595 47.5810551446812  C 48.1132146792595 47.5810551446812  48.8812889952058 50.1394063847095  48.8812889952058 50.1394063847095  C 48.8812889952058 50.1394063847095  48.2591212697439 51.9484951647979  48.2591212697439 51.9484951647979  C 48.2591212697439 51.9484951647979  51.9067860318546 55.1171152490096  51.9067860318546 55.1171152490096  C 51.9067860318546 55.1171152490096  52.5647421663032 57.2932340457063  52.5647421663032 57.2932340457063  C 52.5647421663032 57.2932340457063  55.4140501125555 60.4227621754862  55.4140501125555 60.4227621754862  C 55.4140501125555 60.4227621754862  58.9433378295562 62.3708445713313  58.9433378295562 62.3708445713313  C 58.9433378295562 62.3708445713313  59.2902101012737 65.133342684503  59.2902101012737 65.133342684503  C 59.2902101012737 65.133342684503  60.102331689819 66.8881370834363  60.102331689819 66.8881370834363  C 60.102331689819 66.8881370834363  59.5489878277931 70.1566588289733  59.5489878277931 70.1566588289733  C 59.5489878277931 70.1566588289733  53.4154051183727 68.725458941725  53.4154051183727 68.725458941725  C 53.4154051183727 68.725458941725  47.1744571819918 67.1292041357647  47.1744571819918 67.1292041357647  Z " fill-rule="evenodd" />
    </mask>
  </defs>
  <g transform="matrix(1 0 0 1 -1858 -1954 )">
    <path d="M 47.1744571819918 67.1292041357647  C 47.1744571819918 67.1292041357647  37.4345040285223 66.8903088586824  37.4345040285223 66.8903088586824  C 37.4345040285223 66.8903088586824  36.4709699404177 66.5601990212592  36.4709699404177 66.5601990212592  C 36.4709699404177 66.5601990212592  31.9038183628015 67.3398663346468  31.9038183628015 67.3398663346468  C 31.9038183628015 67.3398663346468  25.2127838310007 66.5297941678124  25.2127838310007 66.5297941678124  C 25.2127838310007 66.5297941678124  21.545848387128 66.9272290378677  21.545848387128 66.9272290378677  C 21.545848387128 66.9272290378677  8.98411683278073 66.7882354221107  8.98411683278073 66.7882354221107  C 8.98411683278073 66.7882354221107  10.1100752385944 62.0081581052153  10.1100752385944 62.0081581052153  C 10.1100752385944 62.0081581052153  7.09559002009564 58.003404551215  7.09559002009564 58.003404551215  C 7.09559002009564 58.003404551215  3.5718082121698 56.9739830845142  3.5718082121698 56.9739830845142  C 3.5718082121698 56.9739830845142  2.00262412582811 54.2570922515126  2.00262412582811 54.2570922515126  C 2.00262412582811 54.2570922515126  0.0260027679446466 53.3883821530309  0.0260027679446466 53.3883821530309  C 0.0260027679446466 53.3883821530309  0.11409731314302 51.7095998877152  0.11409731314302 51.7095998877152  C 0.11409731314302 51.7095998877152  2.10173048917591 47.4116566754774  2.10173048917591 47.4116566754774  C 2.10173048917591 47.4116566754774  5.77417184212345 41.5435199602335  5.77417184212345 41.5435199602335  C 5.77417184212345 41.5435199602335  8.00681797198877 41.4892255790784  8.00681797198877 41.4892255790784  C 8.00681797198877 41.4892255790784  12.6042520495168 37.9231706248113  12.6042520495168 37.9231706248113  C 12.6042520495168 37.9231706248113  15.5306427228174 37.8232689634857  15.5306427228174 37.8232689634857  C 15.5306427228174 37.8232689634857  19.8637931647511 40.3273258223591  19.8637931647511 40.3273258223591  C 19.8637931647511 40.3273258223591  25.1687365584016 38.2749982146962  25.1687365584016 38.2749982146962  C 25.1687365584016 38.2749982146962  25.8900106472115 34.1627587245982  25.8900106472115 34.1627587245982  C 25.8900106472115 34.1627587245982  27.6243720057998 31.7043091458953  27.6243720057998 31.7043091458953  C 27.6243720057998 31.7043091458953  28.8191542750494 28.6117011953007  28.8191542750494 28.6117011953007  C 28.8191542750494 28.6117011953007  34.9458331266749 26.0924419097035  34.9458331266749 26.0924419097035  C 34.9458331266749 26.0924419097035  36.5040053948669 21.8031857984505  36.5040053948669 21.8031857984505  C 36.5040053948669 21.8031857984505  38.1420133446452 20.4371391685882  38.1420133446452 20.4371391685882  C 38.1420133446452 20.4371391685882  39.2294303869346 17.244629556668  39.2294303869346 17.244629556668  C 39.2294303869346 17.244629556668  41.2721226537165 13.3180599115306  41.2721226537165 13.3180599115306  C 41.2721226537165 13.3180599115306  47.771848316617 8.54666969562035  47.771848316617 8.54666969562035  C 47.771848316617 8.54666969562035  48.1820385426959 6.49217031271131  48.1820385426959 6.49217031271131  C 48.1820385426959 6.49217031271131  49.0216896766156 5.37587783616217  49.0216896766156 5.37587783616217  C 49.0216896766156 5.37587783616217  45.965910140055 2.90874115647409  45.965910140055 2.90874115647409  C 45.965910140055 2.90874115647409  46.2136760484248 0.934597457674767  46.2136760484248 0.934597457674767  C 46.2136760484248 0.934597457674767  48.3940160420789 0.578426317297352  48.3940160420789 0.578426317297352  C 48.3940160420789 0.578426317297352  51.4635603513264 4.54843146735836  51.4635603513264 4.54843146735836  C 51.4635603513264 4.54843146735836  51.978362849828 8.65091490743816  51.978362849828 8.65091490743816  C 51.978362849828 8.65091490743816  51.6975614870089 12.746883021779  51.6975614870089 12.746883021779  C 51.6975614870089 12.746883021779  55.8985701111455 18.3392042807548  55.8985701111455 18.3392042807548  C 55.8985701111455 18.3392042807548  51.5874433055114 18.278394573861  51.5874433055114 18.278394573861  C 51.5874433055114 18.278394573861  49.4098562663946 18.7170931735942  49.4098562663946 18.7170931735942  C 49.4098562663946 18.7170931735942  45.8915803675443 18.1003090036724  45.8915803675443 18.1003090036724  C 45.8915803675443 18.1003090036724  44.2122780997047 20.9974571821087  44.2122780997047 20.9974571821087  C 44.2122780997047 20.9974571821087  48.7711708137083 24.5743710126069  48.7711708137083 24.5743710126069  C 48.7711708137083 24.5743710126069  52.1325283039248 25.6124795802924  52.1325283039248 25.6124795802924  C 52.1325283039248 25.6124795802924  53.2171923916769 28.1447695173665  53.2171923916769 28.1447695173665  C 53.2171923916769 28.1447695173665  55.6535571573129 32.3580134950027  55.6535571573129 32.3580134950027  C 55.6535571573129 32.3580134950027  54.4422571608386 34.0107344573639  54.4422571608386 34.0107344573639  C 54.4422571608386 34.0107344573639  50.5605912630454 41.7628692601003  50.5605912630454 41.7628692601003  C 50.5605912630454 41.7628692601003  48.707852859347 42.8683028604179  48.707852859347 42.8683028604179  C 48.707852859347 42.8683028604179  48.1132146792595 47.5810551446812  48.1132146792595 47.5810551446812  C 48.1132146792595 47.5810551446812  48.8812889952058 50.1394063847095  48.8812889952058 50.1394063847095  C 48.8812889952058 50.1394063847095  48.2591212697439 51.9484951647979  48.2591212697439 51.9484951647979  C 48.2591212697439 51.9484951647979  51.9067860318546 55.1171152490096  51.9067860318546 55.1171152490096  C 51.9067860318546 55.1171152490096  52.5647421663032 57.2932340457063  52.5647421663032 57.2932340457063  C 52.5647421663032 57.2932340457063  55.4140501125555 60.4227621754862  55.4140501125555 60.4227621754862  C 55.4140501125555 60.4227621754862  58.9433378295562 62.3708445713313  58.9433378295562 62.3708445713313  C 58.9433378295562 62.3708445713313  59.2902101012737 65.133342684503  59.2902101012737 65.133342684503  C 59.2902101012737 65.133342684503  60.102331689819 66.8881370834363  60.102331689819 66.8881370834363  C 60.102331689819 66.8881370834363  59.5489878277931 70.1566588289733  59.5489878277931 70.1566588289733  C 59.5489878277931 70.1566588289733  53.4154051183727 68.725458941725  53.4154051183727 68.725458941725  C 53.4154051183727 68.725458941725  47.1744571819918 67.1292041357647  47.1744571819918 67.1292041357647  Z " fill-rule="nonzero" fill="#f2f2f2" stroke="none" transform="matrix(1 0 0 1 1858 1954 )" />
    <path d="M 47.1744571819918 67.1292041357647  C 47.1744571819918 67.1292041357647  37.4345040285223 66.8903088586824  37.4345040285223 66.8903088586824  C 37.4345040285223 66.8903088586824  36.4709699404177 66.5601990212592  36.4709699404177 66.5601990212592  C 36.4709699404177 66.5601990212592  31.9038183628015 67.3398663346468  31.9038183628015 67.3398663346468  C 31.9038183628015 67.3398663346468  25.2127838310007 66.5297941678124  25.2127838310007 66.5297941678124  C 25.2127838310007 66.5297941678124  21.545848387128 66.9272290378677  21.545848387128 66.9272290378677  C 21.545848387128 66.9272290378677  8.98411683278073 66.7882354221107  8.98411683278073 66.7882354221107  C 8.98411683278073 66.7882354221107  10.1100752385944 62.0081581052153  10.1100752385944 62.0081581052153  C 10.1100752385944 62.0081581052153  7.09559002009564 58.003404551215  7.09559002009564 58.003404551215  C 7.09559002009564 58.003404551215  3.5718082121698 56.9739830845142  3.5718082121698 56.9739830845142  C 3.5718082121698 56.9739830845142  2.00262412582811 54.2570922515126  2.00262412582811 54.2570922515126  C 2.00262412582811 54.2570922515126  0.0260027679446466 53.3883821530309  0.0260027679446466 53.3883821530309  C 0.0260027679446466 53.3883821530309  0.11409731314302 51.7095998877152  0.11409731314302 51.7095998877152  C 0.11409731314302 51.7095998877152  2.10173048917591 47.4116566754774  2.10173048917591 47.4116566754774  C 2.10173048917591 47.4116566754774  5.77417184212345 41.5435199602335  5.77417184212345 41.5435199602335  C 5.77417184212345 41.5435199602335  8.00681797198877 41.4892255790784  8.00681797198877 41.4892255790784  C 8.00681797198877 41.4892255790784  12.6042520495168 37.9231706248113  12.6042520495168 37.9231706248113  C 12.6042520495168 37.9231706248113  15.5306427228174 37.8232689634857  15.5306427228174 37.8232689634857  C 15.5306427228174 37.8232689634857  19.8637931647511 40.3273258223591  19.8637931647511 40.3273258223591  C 19.8637931647511 40.3273258223591  25.1687365584016 38.2749982146962  25.1687365584016 38.2749982146962  C 25.1687365584016 38.2749982146962  25.8900106472115 34.1627587245982  25.8900106472115 34.1627587245982  C 25.8900106472115 34.1627587245982  27.6243720057998 31.7043091458953  27.6243720057998 31.7043091458953  C 27.6243720057998 31.7043091458953  28.8191542750494 28.6117011953007  28.8191542750494 28.6117011953007  C 28.8191542750494 28.6117011953007  34.9458331266749 26.0924419097035  34.9458331266749 26.0924419097035  C 34.9458331266749 26.0924419097035  36.5040053948669 21.8031857984505  36.5040053948669 21.8031857984505  C 36.5040053948669 21.8031857984505  38.1420133446452 20.4371391685882  38.1420133446452 20.4371391685882  C 38.1420133446452 20.4371391685882  39.2294303869346 17.244629556668  39.2294303869346 17.244629556668  C 39.2294303869346 17.244629556668  41.2721226537165 13.3180599115306  41.2721226537165 13.3180599115306  C 41.2721226537165 13.3180599115306  47.771848316617 8.54666969562035  47.771848316617 8.54666969562035  C 47.771848316617 8.54666969562035  48.1820385426959 6.49217031271131  48.1820385426959 6.49217031271131  C 48.1820385426959 6.49217031271131  49.0216896766156 5.37587783616217  49.0216896766156 5.37587783616217  C 49.0216896766156 5.37587783616217  45.965910140055 2.90874115647409  45.965910140055 2.90874115647409  C 45.965910140055 2.90874115647409  46.2136760484248 0.934597457674767  46.2136760484248 0.934597457674767  C 46.2136760484248 0.934597457674767  48.3940160420789 0.578426317297352  48.3940160420789 0.578426317297352  C 48.3940160420789 0.578426317297352  51.4635603513264 4.54843146735836  51.4635603513264 4.54843146735836  C 51.4635603513264 4.54843146735836  51.978362849828 8.65091490743816  51.978362849828 8.65091490743816  C 51.978362849828 8.65091490743816  51.6975614870089 12.746883021779  51.6975614870089 12.746883021779  C 51.6975614870089 12.746883021779  55.8985701111455 18.3392042807548  55.8985701111455 18.3392042807548  C 55.8985701111455 18.3392042807548  51.5874433055114 18.278394573861  51.5874433055114 18.278394573861  C 51.5874433055114 18.278394573861  49.4098562663946 18.7170931735942  49.4098562663946 18.7170931735942  C 49.4098562663946 18.7170931735942  45.8915803675443 18.1003090036724  45.8915803675443 18.1003090036724  C 45.8915803675443 18.1003090036724  44.2122780997047 20.9974571821087  44.2122780997047 20.9974571821087  C 44.2122780997047 20.9974571821087  48.7711708137083 24.5743710126069  48.7711708137083 24.5743710126069  C 48.7711708137083 24.5743710126069  52.1325283039248 25.6124795802924  52.1325283039248 25.6124795802924  C 52.1325283039248 25.6124795802924  53.2171923916769 28.1447695173665  53.2171923916769 28.1447695173665  C 53.2171923916769 28.1447695173665  55.6535571573129 32.3580134950027  55.6535571573129 32.3580134950027  C 55.6535571573129 32.3580134950027  54.4422571608386 34.0107344573639  54.4422571608386 34.0107344573639  C 54.4422571608386 34.0107344573639  50.5605912630454 41.7628692601003  50.5605912630454 41.7628692601003  C 50.5605912630454 41.7628692601003  48.707852859347 42.8683028604179  48.707852859347 42.8683028604179  C 48.707852859347 42.8683028604179  48.1132146792595 47.5810551446812  48.1132146792595 47.5810551446812  C 48.1132146792595 47.5810551446812  48.8812889952058 50.1394063847095  48.8812889952058 50.1394063847095  C 48.8812889952058 50.1394063847095  48.2591212697439 51.9484951647979  48.2591212697439 51.9484951647979  C 48.2591212697439 51.9484951647979  51.9067860318546 55.1171152490096  51.9067860318546 55.1171152490096  C 51.9067860318546 55.1171152490096  52.5647421663032 57.2932340457063  52.5647421663032 57.2932340457063  C 52.5647421663032 57.2932340457063  55.4140501125555 60.4227621754862  55.4140501125555 60.4227621754862  C 55.4140501125555 60.4227621754862  58.9433378295562 62.3708445713313  58.9433378295562 62.3708445713313  C 58.9433378295562 62.3708445713313  59.2902101012737 65.133342684503  59.2902101012737 65.133342684503  C 59.2902101012737 65.133342684503  60.102331689819 66.8881370834363  60.102331689819 66.8881370834363  C 60.102331689819 66.8881370834363  59.5489878277931 70.1566588289733  59.5489878277931 70.1566588289733  C 59.5489878277931 70.1566588289733  53.4154051183727 68.725458941725  53.4154051183727 68.725458941725  C 53.4154051183727 68.725458941725  47.1744571819918 67.1292041357647  47.1744571819918 67.1292041357647  Z " stroke-width="2" stroke="#505050" fill="none" stroke-opacity="0.211764705882353" transform="matrix(1 0 0 1 1858 1954 )" mask="url(#clip615)" />
  </g>
</svg>