<?xml version="1.0" encoding="utf-8"?>
<svg version="1.1" xmlns:xlink="http://www.w3.org/1999/xlink" width="29px" height="21px" xmlns="http://www.w3.org/2000/svg">
  <defs>
    <mask fill="white" id="clip616">
      <path d="M 25.6235036834169 19.0178442569643  C 25.6235036834169 19.0178442569643  25.2296476542603 20.1699557308837  25.2296476542603 20.1699557308837  C 25.2296476542603 20.1699557308837  21.1793174084733 18.8815730073611  21.1793174084733 18.8815730073611  C 21.1793174084733 18.8815730073611  19.6677618371151 17.6613259086398  19.6677618371151 17.6613259086398  C 19.6677618371151 17.6613259086398  20.5246648194695 16.6496151161299  20.5246648194695 16.6496151161299  C 20.5246648194695 16.6496151161299  20.2532235020776 15.3632971085103  20.2532235020776 15.3632971085103  C 20.2532235020776 15.3632971085103  18.1854793490051 13.9696138739303  18.1854793490051 13.9696138739303  C 18.1854793490051 13.9696138739303  13.3168541227 12.8236965477201  13.3168541227 12.8236965477201  C 13.3168541227 12.8236965477201  10.7488063650231 12.0762693908047  10.7488063650231 12.0762693908047  C 10.7488063650231 12.0762693908047  10.2564863285771 8.86874933895604  10.2564863285771 8.86874933895604  C 10.2564863285771 8.86874933895604  8.30051212972461 7.82606780790013  8.30051212972461 7.82606780790013  C 8.30051212972461 7.82606780790013  8.77952621923964 9.52326428023287  8.77952621923964 9.52326428023287  C 8.77952621923964 9.52326428023287  7.289260162971 12.4169475148129  7.289260162971 12.4169475148129  C 7.289260162971 12.4169475148129  5.58609895580706 9.29821024679734  5.58609895580706 9.29821024679734  C 5.58609895580706 9.29821024679734  3.1883673188463 8.72215450983765  3.1883673188463 8.72215450983765  C 3.1883673188463 8.72215450983765  2.1664705945478 7.54320172917789  2.1664705945478 7.54320172917789  C 2.1664705945478 7.54320172917789  2.21171081411318 5.76341662072173  2.21171081411318 5.76341662072173  C 2.21171081411318 5.76341662072173  3.19901207639118 3.92169003517324  3.19901207639118 3.92169003517324  C 3.19901207639118 3.92169003517324  1.09135008252554 3.09580367394062  1.09135008252554 3.09580367394062  C 1.09135008252554 3.09580367394062  2.8024948578483 1.96433935905202  2.8024948578483 1.96433935905202  C 2.8024948578483 1.96433935905202  3.92551677882201 1.2086533385243  3.92551677882201 1.2086533385243  C 3.92551677882201 1.2086533385243  8.84073357512201 2.76131969764128  8.84073357512201 2.76131969764128  C 8.84073357512201 2.76131969764128  10.5572007292171 1.99737481350132  10.5572007292171 1.99737481350132  C 10.5572007292171 1.99737481350132  12.9229980935434 2.48671248253163  12.9229980935434 2.48671248253163  C 12.9229980935434 2.48671248253163  16.0937844914568 3.69250656993108  16.0937844914568 3.69250656993108  C 16.0937844914568 3.69250656993108  18.2945881138391 4.08273787561347  18.2945881138391 4.08273787561347  C 18.2945881138391 4.08273787561347  20.0829073813612 2.83977890195843  20.0829073813612 2.83977890195843  C 20.0829073813612 2.83977890195843  21.972351845559 6.0215061086069  21.972351845559 6.0215061086069  C 21.972351845559 6.0215061086069  24.857081140193 8.37321752221681  24.857081140193 8.37321752221681  C 24.857081140193 8.37321752221681  28.3618675618105 12.3632649013329  28.3618675618105 12.3632649013329  C 28.3618675618105 12.3632649013329  25.47447707779 12.8856380248125  25.47447707779 12.8856380248125  C 25.47447707779 12.8856380248125  25.5170561079691 15.2311552907131  25.5170561079691 15.2311552907131  C 25.5170561079691 15.2311552907131  27.0711907095064 16.096271254104  27.0711907095064 16.096271254104  C 27.0711907095064 16.096271254104  25.953491167305 16.7858863657334  25.953491167305 16.7858863657334  C 25.953491167305 16.7858863657334  26.2462219997862 17.8388914763049  26.2462219997862 17.8388914763049  C 26.2462219997862 17.8388914763049  25.6235036834169 19.0178442569643  25.6235036834169 19.0178442569643  Z " fill-rule="evenodd" />
    </mask>
  </defs>
  <g transform="matrix(1 0 0 1 -1129 -1965 )">
    <path d="M 25.6235036834169 19.0178442569643  C 25.6235036834169 19.0178442569643  25.2296476542603 20.1699557308837  25.2296476542603 20.1699557308837  C 25.2296476542603 20.1699557308837  21.1793174084733 18.8815730073611  21.1793174084733 18.8815730073611  C 21.1793174084733 18.8815730073611  19.6677618371151 17.6613259086398  19.6677618371151 17.6613259086398  C 19.6677618371151 17.6613259086398  20.5246648194695 16.6496151161299  20.5246648194695 16.6496151161299  C 20.5246648194695 16.6496151161299  20.2532235020776 15.3632971085103  20.2532235020776 15.3632971085103  C 20.2532235020776 15.3632971085103  18.1854793490051 13.9696138739303  18.1854793490051 13.9696138739303  C 18.1854793490051 13.9696138739303  13.3168541227 12.8236965477201  13.3168541227 12.8236965477201  C 13.3168541227 12.8236965477201  10.7488063650231 12.0762693908047  10.7488063650231 12.0762693908047  C 10.7488063650231 12.0762693908047  10.2564863285771 8.86874933895604  10.2564863285771 8.86874933895604  C 10.2564863285771 8.86874933895604  8.30051212972461 7.82606780790013  8.30051212972461 7.82606780790013  C 8.30051212972461 7.82606780790013  8.77952621923964 9.52326428023287  8.77952621923964 9.52326428023287  C 8.77952621923964 9.52326428023287  7.289260162971 12.4169475148129  7.289260162971 12.4169475148129  C 7.289260162971 12.4169475148129  5.58609895580706 9.29821024679734  5.58609895580706 9.29821024679734  C 5.58609895580706 9.29821024679734  3.1883673188463 8.72215450983765  3.1883673188463 8.72215450983765  C 3.1883673188463 8.72215450983765  2.1664705945478 7.54320172917789  2.1664705945478 7.54320172917789  C 2.1664705945478 7.54320172917789  2.21171081411318 5.76341662072173  2.21171081411318 5.76341662072173  C 2.21171081411318 5.76341662072173  3.19901207639118 3.92169003517324  3.19901207639118 3.92169003517324  C 3.19901207639118 3.92169003517324  1.09135008252554 3.09580367394062  1.09135008252554 3.09580367394062  C 1.09135008252554 3.09580367394062  2.8024948578483 1.96433935905202  2.8024948578483 1.96433935905202  C 2.8024948578483 1.96433935905202  3.92551677882201 1.2086533385243  3.92551677882201 1.2086533385243  C 3.92551677882201 1.2086533385243  8.84073357512201 2.76131969764128  8.84073357512201 2.76131969764128  C 8.84073357512201 2.76131969764128  10.5572007292171 1.99737481350132  10.5572007292171 1.99737481350132  C 10.5572007292171 1.99737481350132  12.9229980935434 2.48671248253163  12.9229980935434 2.48671248253163  C 12.9229980935434 2.48671248253163  16.0937844914568 3.69250656993108  16.0937844914568 3.69250656993108  C 16.0937844914568 3.69250656993108  18.2945881138391 4.08273787561347  18.2945881138391 4.08273787561347  C 18.2945881138391 4.08273787561347  20.0829073813612 2.83977890195843  20.0829073813612 2.83977890195843  C 20.0829073813612 2.83977890195843  21.972351845559 6.0215061086069  21.972351845559 6.0215061086069  C 21.972351845559 6.0215061086069  24.857081140193 8.37321752221681  24.857081140193 8.37321752221681  C 24.857081140193 8.37321752221681  28.3618675618105 12.3632649013329  28.3618675618105 12.3632649013329  C 28.3618675618105 12.3632649013329  25.47447707779 12.8856380248125  25.47447707779 12.8856380248125  C 25.47447707779 12.8856380248125  25.5170561079691 15.2311552907131  25.5170561079691 15.2311552907131  C 25.5170561079691 15.2311552907131  27.0711907095064 16.096271254104  27.0711907095064 16.096271254104  C 27.0711907095064 16.096271254104  25.953491167305 16.7858863657334  25.953491167305 16.7858863657334  C 25.953491167305 16.7858863657334  26.2462219997862 17.8388914763049  26.2462219997862 17.8388914763049  C 26.2462219997862 17.8388914763049  25.6235036834169 19.0178442569643  25.6235036834169 19.0178442569643  Z " fill-rule="nonzero" fill="#f2f2f2" stroke="none" transform="matrix(1 0 0 1 1129 1965 )" />
    <path d="M 25.6235036834169 19.0178442569643  C 25.6235036834169 19.0178442569643  25.2296476542603 20.1699557308837  25.2296476542603 20.1699557308837  C 25.2296476542603 20.1699557308837  21.1793174084733 18.8815730073611  21.1793174084733 18.8815730073611  C 21.1793174084733 18.8815730073611  19.6677618371151 17.6613259086398  19.6677618371151 17.6613259086398  C 19.6677618371151 17.6613259086398  20.5246648194695 16.6496151161299  20.5246648194695 16.6496151161299  C 20.5246648194695 16.6496151161299  20.2532235020776 15.3632971085103  20.2532235020776 15.3632971085103  C 20.2532235020776 15.3632971085103  18.1854793490051 13.9696138739303  18.1854793490051 13.9696138739303  C 18.1854793490051 13.9696138739303  13.3168541227 12.8236965477201  13.3168541227 12.8236965477201  C 13.3168541227 12.8236965477201  10.7488063650231 12.0762693908047  10.7488063650231 12.0762693908047  C 10.7488063650231 12.0762693908047  10.2564863285771 8.86874933895604  10.2564863285771 8.86874933895604  C 10.2564863285771 8.86874933895604  8.30051212972461 7.82606780790013  8.30051212972461 7.82606780790013  C 8.30051212972461 7.82606780790013  8.77952621923964 9.52326428023287  8.77952621923964 9.52326428023287  C 8.77952621923964 9.52326428023287  7.289260162971 12.4169475148129  7.289260162971 12.4169475148129  C 7.289260162971 12.4169475148129  5.58609895580706 9.29821024679734  5.58609895580706 9.29821024679734  C 5.58609895580706 9.29821024679734  3.1883673188463 8.72215450983765  3.1883673188463 8.72215450983765  C 3.1883673188463 8.72215450983765  2.1664705945478 7.54320172917789  2.1664705945478 7.54320172917789  C 2.1664705945478 7.54320172917789  2.21171081411318 5.76341662072173  2.21171081411318 5.76341662072173  C 2.21171081411318 5.76341662072173  3.19901207639118 3.92169003517324  3.19901207639118 3.92169003517324  C 3.19901207639118 3.92169003517324  1.09135008252554 3.09580367394062  1.09135008252554 3.09580367394062  C 1.09135008252554 3.09580367394062  2.8024948578483 1.96433935905202  2.8024948578483 1.96433935905202  C 2.8024948578483 1.96433935905202  3.92551677882201 1.2086533385243  3.92551677882201 1.2086533385243  C 3.92551677882201 1.2086533385243  8.84073357512201 2.76131969764128  8.84073357512201 2.76131969764128  C 8.84073357512201 2.76131969764128  10.5572007292171 1.99737481350132  10.5572007292171 1.99737481350132  C 10.5572007292171 1.99737481350132  12.9229980935434 2.48671248253163  12.9229980935434 2.48671248253163  C 12.9229980935434 2.48671248253163  16.0937844914568 3.69250656993108  16.0937844914568 3.69250656993108  C 16.0937844914568 3.69250656993108  18.2945881138391 4.08273787561347  18.2945881138391 4.08273787561347  C 18.2945881138391 4.08273787561347  20.0829073813612 2.83977890195843  20.0829073813612 2.83977890195843  C 20.0829073813612 2.83977890195843  21.972351845559 6.0215061086069  21.972351845559 6.0215061086069  C 21.972351845559 6.0215061086069  24.857081140193 8.37321752221681  24.857081140193 8.37321752221681  C 24.857081140193 8.37321752221681  28.3618675618105 12.3632649013329  28.3618675618105 12.3632649013329  C 28.3618675618105 12.3632649013329  25.47447707779 12.8856380248125  25.47447707779 12.8856380248125  C 25.47447707779 12.8856380248125  25.5170561079691 15.2311552907131  25.5170561079691 15.2311552907131  C 25.5170561079691 15.2311552907131  27.0711907095064 16.096271254104  27.0711907095064 16.096271254104  C 27.0711907095064 16.096271254104  25.953491167305 16.7858863657334  25.953491167305 16.7858863657334  C 25.953491167305 16.7858863657334  26.2462219997862 17.8388914763049  26.2462219997862 17.8388914763049  C 26.2462219997862 17.8388914763049  25.6235036834169 19.0178442569643  25.6235036834169 19.0178442569643  Z " stroke-width="2" stroke="#505050" fill="none" stroke-opacity="0.211764705882353" transform="matrix(1 0 0 1 1129 1965 )" mask="url(#clip616)" />
  </g>
</svg>