<?xml version="1.0" encoding="utf-8"?>
<svg version="1.1" xmlns:xlink="http://www.w3.org/1999/xlink" width="84px" height="26px" xmlns="http://www.w3.org/2000/svg">
  <defs>
    <mask fill="white" id="clip617">
      <path d="M 19.1589919731688 1.76707605360053  C 19.1589919731688 1.76707605360053  20.9847770312797 1.02222979156389  20.9847770312797 1.02222979156389  C 20.9847770312797 1.02222979156389  27.4973711560876 1.50537331288515  27.4973711560876 1.50537331288515  C 27.4973711560876 1.50537331288515  33.4210890986771 1.58142368198176  33.4210890986771 1.58142368198176  C 33.4210890986771 1.58142368198176  40.5010479469922 3.88977606162675  40.5010479469922 3.88977606162675  C 40.5010479469922 3.88977606162675  45.4553848092939 6.36141305727384  45.4553848092939 6.36141305727384  C 45.4553848092939 6.36141305727384  52.4976986048644 5.598672590744  52.4976986048644 5.598672590744  C 52.4976986048644 5.598672590744  55.1678084173889 7.18454646396901  55.1678084173889 7.18454646396901  C 55.1678084173889 7.18454646396901  61.5540227222687 11.3494225598014  61.5540227222687 11.3494225598014  C 61.5540227222687 11.3494225598014  66.2462096536435 15.9940695680582  66.2462096536435 15.9940695680582  C 66.2462096536435 15.9940695680582  68.7280942024451 15.9023617700296  68.7280942024451 15.9023617700296  C 68.7280942024451 15.9023617700296  73.2266780054193 17.2667948626491  73.2266780054193 17.2667948626491  C 73.2266780054193 17.2667948626491  72.6781358082847 19.1434495588915  72.6781358082847 19.1434495588915  C 72.6781358082847 19.1434495588915  78.2334700204451 19.418572952977  78.2334700204451 19.418572952977  C 78.2334700204451 19.418572952977  83.9340065789061 22.1429655870932  83.9340065789061 22.1429655870932  C 83.9340065789061 22.1429655870932  83.0385921100535 23.6997613780165  83.0385921100535 23.6997613780165  C 83.0385921100535 23.6997613780165  78.0264222303501 24.5430257647668  78.0264222303501 24.5430257647668  C 78.0264222303501 24.5430257647668  72.952406906852 24.8695949967706  72.952406906852 24.8695949967706  C 72.952406906852 24.8695949967706  67.7573896281035 24.3461895153395  67.7573896281035 24.3461895153395  C 67.7573896281035 24.3461895153395  56.961326287433 24.9926176526625  56.961326287433 24.9926176526625  C 56.961326287433 24.9926176526625  62.0165190845589 21.2862805469728  62.0165190845589 21.2862805469728  C 62.0165190845589 21.2862805469728  58.9430694212001 19.5572530378008  58.9430694212001 19.5572530378008  C 58.9430694212001 19.5572530378008  54.0814797524747 19.1121347010283  54.0814797524747 19.1121347010283  C 54.0814797524747 19.1121347010283  51.4785932484227 17.186270942429  51.4785932484227 17.186270942429  C 51.4785932484227 17.186270942429  49.6904532430562 11.7498053853406  49.6904532430562 11.7498053853406  C 49.6904532430562 11.7498053853406  45.4311844182439 12.0115081260564  45.4311844182439 12.0115081260564  C 45.4311844182439 12.0115081260564  36.446137979936 10.2109037989109  36.446137979936 10.2109037989109  C 36.446137979936 10.2109037989109  34.1847458829237 8.80173519505766  34.1847458829237 8.80173519505766  C 34.1847458829237 8.80173519505766  24.3566981842562 7.75716100775696  24.3566981842562 7.75716100775696  C 24.3566981842562 7.75716100775696  21.7242334244764 6.44417375305585  21.7242334244764 6.44417375305585  C 21.7242334244764 6.44417375305585  24.5529902449958 4.75764497955564  24.5529902449958 4.75764497955564  C 24.5529902449958 4.75764497955564  17.1584263130297 4.41094476749632  17.1584263130297 4.41094476749632  C 17.1584263130297 4.41094476749632  11.7402276501528 7.91597207263558  11.7402276501528 7.91597207263558  C 11.7402276501528 7.91597207263558  8.61568827235484 8.00991664622612  8.61568827235484 8.00991664622612  C 8.61568827235484 8.00991664622612  7.53473747211834 9.65170990849262  7.53473747211834 9.65170990849262  C 7.53473747211834 9.65170990849262  3.80249938572956 10.3853722927211  3.80249938572956 10.3853722927211  C 3.80249938572956 10.3853722927211  0.578469511392477 9.75012803320627  0.578469511392477 9.75012803320627  C 0.578469511392477 9.75012803320627  4.55808937295967 7.67216353641339  4.55808937295967 7.67216353641339  C 4.55808937295967 7.67216353641339  6.19027130266978 5.23855172531498  6.19027130266978 5.23855172531498  C 6.19027130266978 5.23855172531498  9.59983750839094 3.73543854787161  9.59983750839094 3.73543854787161  C 9.59983750839094 3.73543854787161  13.4503886176911 2.41574096648546  13.4503886176911 2.41574096648546  C 13.4503886176911 2.41574096648546  19.1589919731688 1.76707605360053  19.1589919731688 1.76707605360053  Z " fill-rule="evenodd" />
    </mask>
  </defs>
  <g transform="matrix(1 0 0 1 -1138 -1890 )">
    <path d="M 19.1589919731688 1.76707605360053  C 19.1589919731688 1.76707605360053  20.9847770312797 1.02222979156389  20.9847770312797 1.02222979156389  C 20.9847770312797 1.02222979156389  27.4973711560876 1.50537331288515  27.4973711560876 1.50537331288515  C 27.4973711560876 1.50537331288515  33.4210890986771 1.58142368198176  33.4210890986771 1.58142368198176  C 33.4210890986771 1.58142368198176  40.5010479469922 3.88977606162675  40.5010479469922 3.88977606162675  C 40.5010479469922 3.88977606162675  45.4553848092939 6.36141305727384  45.4553848092939 6.36141305727384  C 45.4553848092939 6.36141305727384  52.4976986048644 5.598672590744  52.4976986048644 5.598672590744  C 52.4976986048644 5.598672590744  55.1678084173889 7.18454646396901  55.1678084173889 7.18454646396901  C 55.1678084173889 7.18454646396901  61.5540227222687 11.3494225598014  61.5540227222687 11.3494225598014  C 61.5540227222687 11.3494225598014  66.2462096536435 15.9940695680582  66.2462096536435 15.9940695680582  C 66.2462096536435 15.9940695680582  68.7280942024451 15.9023617700296  68.7280942024451 15.9023617700296  C 68.7280942024451 15.9023617700296  73.2266780054193 17.2667948626491  73.2266780054193 17.2667948626491  C 73.2266780054193 17.2667948626491  72.6781358082847 19.1434495588915  72.6781358082847 19.1434495588915  C 72.6781358082847 19.1434495588915  78.2334700204451 19.418572952977  78.2334700204451 19.418572952977  C 78.2334700204451 19.418572952977  83.9340065789061 22.1429655870932  83.9340065789061 22.1429655870932  C 83.9340065789061 22.1429655870932  83.0385921100535 23.6997613780165  83.0385921100535 23.6997613780165  C 83.0385921100535 23.6997613780165  78.0264222303501 24.5430257647668  78.0264222303501 24.5430257647668  C 78.0264222303501 24.5430257647668  72.952406906852 24.8695949967706  72.952406906852 24.8695949967706  C 72.952406906852 24.8695949967706  67.7573896281035 24.3461895153395  67.7573896281035 24.3461895153395  C 67.7573896281035 24.3461895153395  56.961326287433 24.9926176526625  56.961326287433 24.9926176526625  C 56.961326287433 24.9926176526625  62.0165190845589 21.2862805469728  62.0165190845589 21.2862805469728  C 62.0165190845589 21.2862805469728  58.9430694212001 19.5572530378008  58.9430694212001 19.5572530378008  C 58.9430694212001 19.5572530378008  54.0814797524747 19.1121347010283  54.0814797524747 19.1121347010283  C 54.0814797524747 19.1121347010283  51.4785932484227 17.186270942429  51.4785932484227 17.186270942429  C 51.4785932484227 17.186270942429  49.6904532430562 11.7498053853406  49.6904532430562 11.7498053853406  C 49.6904532430562 11.7498053853406  45.4311844182439 12.0115081260564  45.4311844182439 12.0115081260564  C 45.4311844182439 12.0115081260564  36.446137979936 10.2109037989109  36.446137979936 10.2109037989109  C 36.446137979936 10.2109037989109  34.1847458829237 8.80173519505766  34.1847458829237 8.80173519505766  C 34.1847458829237 8.80173519505766  24.3566981842562 7.75716100775696  24.3566981842562 7.75716100775696  C 24.3566981842562 7.75716100775696  21.7242334244764 6.44417375305585  21.7242334244764 6.44417375305585  C 21.7242334244764 6.44417375305585  24.5529902449958 4.75764497955564  24.5529902449958 4.75764497955564  C 24.5529902449958 4.75764497955564  17.1584263130297 4.41094476749632  17.1584263130297 4.41094476749632  C 17.1584263130297 4.41094476749632  11.7402276501528 7.91597207263558  11.7402276501528 7.91597207263558  C 11.7402276501528 7.91597207263558  8.61568827235484 8.00991664622612  8.61568827235484 8.00991664622612  C 8.61568827235484 8.00991664622612  7.53473747211834 9.65170990849262  7.53473747211834 9.65170990849262  C 7.53473747211834 9.65170990849262  3.80249938572956 10.3853722927211  3.80249938572956 10.3853722927211  C 3.80249938572956 10.3853722927211  0.578469511392477 9.75012803320627  0.578469511392477 9.75012803320627  C 0.578469511392477 9.75012803320627  4.55808937295967 7.67216353641339  4.55808937295967 7.67216353641339  C 4.55808937295967 7.67216353641339  6.19027130266978 5.23855172531498  6.19027130266978 5.23855172531498  C 6.19027130266978 5.23855172531498  9.59983750839094 3.73543854787161  9.59983750839094 3.73543854787161  C 9.59983750839094 3.73543854787161  13.4503886176911 2.41574096648546  13.4503886176911 2.41574096648546  C 13.4503886176911 2.41574096648546  19.1589919731688 1.76707605360053  19.1589919731688 1.76707605360053  Z " fill-rule="nonzero" fill="#f2f2f2" stroke="none" transform="matrix(1 0 0 1 1138 1890 )" />
    <path d="M 19.1589919731688 1.76707605360053  C 19.1589919731688 1.76707605360053  20.9847770312797 1.02222979156389  20.9847770312797 1.02222979156389  C 20.9847770312797 1.02222979156389  27.4973711560876 1.50537331288515  27.4973711560876 1.50537331288515  C 27.4973711560876 1.50537331288515  33.4210890986771 1.58142368198176  33.4210890986771 1.58142368198176  C 33.4210890986771 1.58142368198176  40.5010479469922 3.88977606162675  40.5010479469922 3.88977606162675  C 40.5010479469922 3.88977606162675  45.4553848092939 6.36141305727384  45.4553848092939 6.36141305727384  C 45.4553848092939 6.36141305727384  52.4976986048644 5.598672590744  52.4976986048644 5.598672590744  C 52.4976986048644 5.598672590744  55.1678084173889 7.18454646396901  55.1678084173889 7.18454646396901  C 55.1678084173889 7.18454646396901  61.5540227222687 11.3494225598014  61.5540227222687 11.3494225598014  C 61.5540227222687 11.3494225598014  66.2462096536435 15.9940695680582  66.2462096536435 15.9940695680582  C 66.2462096536435 15.9940695680582  68.7280942024451 15.9023617700296  68.7280942024451 15.9023617700296  C 68.7280942024451 15.9023617700296  73.2266780054193 17.2667948626491  73.2266780054193 17.2667948626491  C 73.2266780054193 17.2667948626491  72.6781358082847 19.1434495588915  72.6781358082847 19.1434495588915  C 72.6781358082847 19.1434495588915  78.2334700204451 19.418572952977  78.2334700204451 19.418572952977  C 78.2334700204451 19.418572952977  83.9340065789061 22.1429655870932  83.9340065789061 22.1429655870932  C 83.9340065789061 22.1429655870932  83.0385921100535 23.6997613780165  83.0385921100535 23.6997613780165  C 83.0385921100535 23.6997613780165  78.0264222303501 24.5430257647668  78.0264222303501 24.5430257647668  C 78.0264222303501 24.5430257647668  72.952406906852 24.8695949967706  72.952406906852 24.8695949967706  C 72.952406906852 24.8695949967706  67.7573896281035 24.3461895153395  67.7573896281035 24.3461895153395  C 67.7573896281035 24.3461895153395  56.961326287433 24.9926176526625  56.961326287433 24.9926176526625  C 56.961326287433 24.9926176526625  62.0165190845589 21.2862805469728  62.0165190845589 21.2862805469728  C 62.0165190845589 21.2862805469728  58.9430694212001 19.5572530378008  58.9430694212001 19.5572530378008  C 58.9430694212001 19.5572530378008  54.0814797524747 19.1121347010283  54.0814797524747 19.1121347010283  C 54.0814797524747 19.1121347010283  51.4785932484227 17.186270942429  51.4785932484227 17.186270942429  C 51.4785932484227 17.186270942429  49.6904532430562 11.7498053853406  49.6904532430562 11.7498053853406  C 49.6904532430562 11.7498053853406  45.4311844182439 12.0115081260564  45.4311844182439 12.0115081260564  C 45.4311844182439 12.0115081260564  36.446137979936 10.2109037989109  36.446137979936 10.2109037989109  C 36.446137979936 10.2109037989109  34.1847458829237 8.80173519505766  34.1847458829237 8.80173519505766  C 34.1847458829237 8.80173519505766  24.3566981842562 7.75716100775696  24.3566981842562 7.75716100775696  C 24.3566981842562 7.75716100775696  21.7242334244764 6.44417375305585  21.7242334244764 6.44417375305585  C 21.7242334244764 6.44417375305585  24.5529902449958 4.75764497955564  24.5529902449958 4.75764497955564  C 24.5529902449958 4.75764497955564  17.1584263130297 4.41094476749632  17.1584263130297 4.41094476749632  C 17.1584263130297 4.41094476749632  11.7402276501528 7.91597207263558  11.7402276501528 7.91597207263558  C 11.7402276501528 7.91597207263558  8.61568827235484 8.00991664622612  8.61568827235484 8.00991664622612  C 8.61568827235484 8.00991664622612  7.53473747211834 9.65170990849262  7.53473747211834 9.65170990849262  C 7.53473747211834 9.65170990849262  3.80249938572956 10.3853722927211  3.80249938572956 10.3853722927211  C 3.80249938572956 10.3853722927211  0.578469511392477 9.75012803320627  0.578469511392477 9.75012803320627  C 0.578469511392477 9.75012803320627  4.55808937295967 7.67216353641339  4.55808937295967 7.67216353641339  C 4.55808937295967 7.67216353641339  6.19027130266978 5.23855172531498  6.19027130266978 5.23855172531498  C 6.19027130266978 5.23855172531498  9.59983750839094 3.73543854787161  9.59983750839094 3.73543854787161  C 9.59983750839094 3.73543854787161  13.4503886176911 2.41574096648546  13.4503886176911 2.41574096648546  C 13.4503886176911 2.41574096648546  19.1589919731688 1.76707605360053  19.1589919731688 1.76707605360053  Z " stroke-width="2" stroke="#505050" fill="none" stroke-opacity="0.211764705882353" transform="matrix(1 0 0 1 1138 1890 )" mask="url(#clip617)" />
  </g>
</svg>