<?xml version="1.0" encoding="utf-8"?>
<svg version="1.1" xmlns:xlink="http://www.w3.org/1999/xlink" width="21px" height="12px" xmlns="http://www.w3.org/2000/svg">
  <defs>
    <mask fill="white" id="clip618">
      <path d="M 15.9801620956024 7.37769873249973  C 15.9801620956024 7.37769873249973  15.4440867665841 4.15322081481742  15.4440867665841 4.15322081481742  C 15.4440867665841 4.15322081481742  20.4211783016851 0.710454526136475  20.4211783016851 0.710454526136475  C 20.4211783016851 0.710454526136475  13.7228645091973 3.12676205157124  13.7228645091973 3.12676205157124  C 13.7228645091973 3.12676205157124  6.50557671472955 3.01585731163417  6.50557671472955 3.01585731163417  C 6.50557671472955 3.01585731163417  5.44130951741369 4.96258944882542  5.44130951741369 4.96258944882542  C 5.44130951741369 4.96258944882542  4.92100110983752 5.0050636045458  4.92100110983752 5.0050636045458  C 4.92100110983752 5.0050636045458  1.42074454977698 7.01666840887531  1.42074454977698 7.01666840887531  C 1.42074454977698 7.01666840887531  3.14196680716397 10.2423445683179  3.14196680716397 10.2423445683179  C 3.14196680716397 10.2423445683179  6.74996399707609 11.2806017081531  6.74996399707609 11.2806017081531  C 6.74996399707609 11.2806017081531  16.2114102767473 8.02424976957894  16.2114102767473 8.02424976957894  C 16.2114102767473 8.02424976957894  15.9801620956024 7.37769873249973  15.9801620956024 7.37769873249973  Z " fill-rule="evenodd" />
    </mask>
  </defs>
  <g transform="matrix(1 0 0 1 -2039 -1804 )">
    <path d="M 15.9801620956024 7.37769873249973  C 15.9801620956024 7.37769873249973  15.4440867665841 4.15322081481742  15.4440867665841 4.15322081481742  C 15.4440867665841 4.15322081481742  20.4211783016851 0.710454526136475  20.4211783016851 0.710454526136475  C 20.4211783016851 0.710454526136475  13.7228645091973 3.12676205157124  13.7228645091973 3.12676205157124  C 13.7228645091973 3.12676205157124  6.50557671472955 3.01585731163417  6.50557671472955 3.01585731163417  C 6.50557671472955 3.01585731163417  5.44130951741369 4.96258944882542  5.44130951741369 4.96258944882542  C 5.44130951741369 4.96258944882542  4.92100110983752 5.0050636045458  4.92100110983752 5.0050636045458  C 4.92100110983752 5.0050636045458  1.42074454977698 7.01666840887531  1.42074454977698 7.01666840887531  C 1.42074454977698 7.01666840887531  3.14196680716397 10.2423445683179  3.14196680716397 10.2423445683179  C 3.14196680716397 10.2423445683179  6.74996399707609 11.2806017081531  6.74996399707609 11.2806017081531  C 6.74996399707609 11.2806017081531  16.2114102767473 8.02424976957894  16.2114102767473 8.02424976957894  C 16.2114102767473 8.02424976957894  15.9801620956024 7.37769873249973  15.9801620956024 7.37769873249973  Z " fill-rule="nonzero" fill="#f2f2f2" stroke="none" transform="matrix(1 0 0 1 2039 1804 )" />
    <path d="M 15.9801620956024 7.37769873249973  C 15.9801620956024 7.37769873249973  15.4440867665841 4.15322081481742  15.4440867665841 4.15322081481742  C 15.4440867665841 4.15322081481742  20.4211783016851 0.710454526136475  20.4211783016851 0.710454526136475  C 20.4211783016851 0.710454526136475  13.7228645091973 3.12676205157124  13.7228645091973 3.12676205157124  C 13.7228645091973 3.12676205157124  6.50557671472955 3.01585731163417  6.50557671472955 3.01585731163417  C 6.50557671472955 3.01585731163417  5.44130951741369 4.96258944882542  5.44130951741369 4.96258944882542  C 5.44130951741369 4.96258944882542  4.92100110983752 5.0050636045458  4.92100110983752 5.0050636045458  C 4.92100110983752 5.0050636045458  1.42074454977698 7.01666840887531  1.42074454977698 7.01666840887531  C 1.42074454977698 7.01666840887531  3.14196680716397 10.2423445683179  3.14196680716397 10.2423445683179  C 3.14196680716397 10.2423445683179  6.74996399707609 11.2806017081531  6.74996399707609 11.2806017081531  C 6.74996399707609 11.2806017081531  16.2114102767473 8.02424976957894  16.2114102767473 8.02424976957894  C 16.2114102767473 8.02424976957894  15.9801620956024 7.37769873249973  15.9801620956024 7.37769873249973  Z " stroke-width="2" stroke="#505050" fill="none" stroke-opacity="0.211764705882353" transform="matrix(1 0 0 1 2039 1804 )" mask="url(#clip618)" />
  </g>
</svg>