<?xml version="1.0" encoding="utf-8"?>
<svg version="1.1" xmlns:xlink="http://www.w3.org/1999/xlink" width="57px" height="28px" xmlns="http://www.w3.org/2000/svg">
  <defs>
    <mask fill="white" id="clip619">
      <path d="M 41.2360472267347 24.470396303539  C 41.2360472267347 24.470396303539  40.1208056796558 26.465982459347  40.1208056796558 26.465982459347  C 40.1208056796558 26.465982459347  36.5004738233098 24.7530329693831  36.5004738233098 24.7530329693831  C 36.5004738233098 24.7530329693831  32.8100891059665 25.2240940791232  32.8100891059665 25.2240940791232  C 32.8100891059665 25.2240940791232  24.674171684598 22.4448335316568  24.674171684598 22.4448335316568  C 24.674171684598 22.4448335316568  21.9084847324204 23.1278721407799  21.9084847324204 23.1278721407799  C 21.9084847324204 23.1278721407799  17.489550260704 26.8428313471389  17.489550260704 26.8428313471389  C 17.489550260704 26.8428313471389  11.6527458824002 23.9222524667507  11.6527458824002 23.9222524667507  C 11.6527458824002 23.9222524667507  7.21699872404481 19.9910333872836  7.21699872404481 19.9910333872836  C 7.21699872404481 19.9910333872836  3.20717296055316 17.7791873583677  3.20717296055316 17.7791873583677  C 3.20717296055316 17.7791873583677  2.37494497190408 12.3159657788322  2.37494497190408 12.3159657788322  C 2.37494497190408 12.3159657788322  0.999106781914926 9.54098760509087  0.999106781914926 9.54098760509087  C 0.999106781914926 9.54098760509087  6.70981601042359 7.4982953383089  6.70981601042359 7.4982953383089  C 6.70981601042359 7.4982953383089  9.62681714235512 5.14727216333351  9.62681714235512 5.14727216333351  C 9.62681714235512 5.14727216333351  15.2702756243063 3.31013383534739  15.2702756243063 3.31013383534739  C 15.2702756243063 3.31013383534739  17.2401620755536 1.49868974971064  17.2401620755536 1.49868974971064  C 17.2401620755536 1.49868974971064  19.3109246466366 2.59283623642496  19.3109246466366 2.59283623642496  C 19.3109246466366 2.59283623642496  22.8163698109465 1.59932553224596  22.8163698109465 1.59932553224596  C 22.8163698109465 1.59932553224596  26.5431820160087 4.65908155869396  26.5431820160087 4.65908155869396  C 26.5431820160087 4.65908155869396  34.4521281677458 5.483438500739  34.4521281677458 5.483438500739  C 34.4521281677458 5.483438500739  33.961758140764 8.07641579117178  33.961758140764 8.07641579117178  C 33.961758140764 8.07641579117178  38.2293784327258 10.0141899016934  38.2293784327258 10.0141899016934  C 38.2293784327258 10.0141899016934  39.4006622686024 7.592507560257  39.4006622686024 7.592507560257  C 39.4006622686024 7.592507560257  44.7919304509629 8.64383030972231  44.7919304509629 8.64383030972231  C 44.7919304509629 8.64383030972231  45.5344907775353 11.570832750698  45.5344907775353 11.570832750698  C 45.5344907775353 11.570832750698  51.3768993847188 12.136106082386  51.3768993847188 12.136106082386  C 51.3768993847188 12.136106082386  54.9916270121851 18.2523896549703  54.9916270121851 18.2523896549703  C 54.9916270121851 18.2523896549703  52.6490593404318 18.2630955892825  52.6490593404318 18.2630955892825  C 52.6490593404318 18.2630955892825  51.4329416735171 19.9203742208226  51.4329416735171 19.9203742208226  C 51.4329416735171 19.9203742208226  49.6283799742237 20.3186349772392  49.6283799742237 20.3186349772392  C 49.6283799742237 20.3186349772392  49.1155930317227 22.4020097944078  49.1155930317227 22.4020097944078  C 49.1155930317227 22.4020097944078  47.6108575774985 22.8345295406236  47.6108575774985 22.8345295406236  C 47.6108575774985 22.8345295406236  47.3978968800663 23.6824395381556  47.3978968800663 23.6824395381556  C 47.3978968800663 23.6824395381556  44.7162733610857 24.6224205707734  44.7162733610857 24.6224205707734  C 44.7162733610857 24.6224205707734  41.2360472267347 24.470396303539  41.2360472267347 24.470396303539  Z " fill-rule="evenodd" />
    </mask>
  </defs>
  <g transform="matrix(1 0 0 1 -1887 -1674 )">
    <path d="M 41.2360472267347 24.470396303539  C 41.2360472267347 24.470396303539  40.1208056796558 26.465982459347  40.1208056796558 26.465982459347  C 40.1208056796558 26.465982459347  36.5004738233098 24.7530329693831  36.5004738233098 24.7530329693831  C 36.5004738233098 24.7530329693831  32.8100891059665 25.2240940791232  32.8100891059665 25.2240940791232  C 32.8100891059665 25.2240940791232  24.674171684598 22.4448335316568  24.674171684598 22.4448335316568  C 24.674171684598 22.4448335316568  21.9084847324204 23.1278721407799  21.9084847324204 23.1278721407799  C 21.9084847324204 23.1278721407799  17.489550260704 26.8428313471389  17.489550260704 26.8428313471389  C 17.489550260704 26.8428313471389  11.6527458824002 23.9222524667507  11.6527458824002 23.9222524667507  C 11.6527458824002 23.9222524667507  7.21699872404481 19.9910333872836  7.21699872404481 19.9910333872836  C 7.21699872404481 19.9910333872836  3.20717296055316 17.7791873583677  3.20717296055316 17.7791873583677  C 3.20717296055316 17.7791873583677  2.37494497190408 12.3159657788322  2.37494497190408 12.3159657788322  C 2.37494497190408 12.3159657788322  0.999106781914926 9.54098760509087  0.999106781914926 9.54098760509087  C 0.999106781914926 9.54098760509087  6.70981601042359 7.4982953383089  6.70981601042359 7.4982953383089  C 6.70981601042359 7.4982953383089  9.62681714235512 5.14727216333351  9.62681714235512 5.14727216333351  C 9.62681714235512 5.14727216333351  15.2702756243063 3.31013383534739  15.2702756243063 3.31013383534739  C 15.2702756243063 3.31013383534739  17.2401620755536 1.49868974971064  17.2401620755536 1.49868974971064  C 17.2401620755536 1.49868974971064  19.3109246466366 2.59283623642496  19.3109246466366 2.59283623642496  C 19.3109246466366 2.59283623642496  22.8163698109465 1.59932553224596  22.8163698109465 1.59932553224596  C 22.8163698109465 1.59932553224596  26.5431820160087 4.65908155869396  26.5431820160087 4.65908155869396  C 26.5431820160087 4.65908155869396  34.4521281677458 5.483438500739  34.4521281677458 5.483438500739  C 34.4521281677458 5.483438500739  33.961758140764 8.07641579117178  33.961758140764 8.07641579117178  C 33.961758140764 8.07641579117178  38.2293784327258 10.0141899016934  38.2293784327258 10.0141899016934  C 38.2293784327258 10.0141899016934  39.4006622686024 7.592507560257  39.4006622686024 7.592507560257  C 39.4006622686024 7.592507560257  44.7919304509629 8.64383030972231  44.7919304509629 8.64383030972231  C 44.7919304509629 8.64383030972231  45.5344907775353 11.570832750698  45.5344907775353 11.570832750698  C 45.5344907775353 11.570832750698  51.3768993847188 12.136106082386  51.3768993847188 12.136106082386  C 51.3768993847188 12.136106082386  54.9916270121851 18.2523896549703  54.9916270121851 18.2523896549703  C 54.9916270121851 18.2523896549703  52.6490593404318 18.2630955892825  52.6490593404318 18.2630955892825  C 52.6490593404318 18.2630955892825  51.4329416735171 19.9203742208226  51.4329416735171 19.9203742208226  C 51.4329416735171 19.9203742208226  49.6283799742237 20.3186349772392  49.6283799742237 20.3186349772392  C 49.6283799742237 20.3186349772392  49.1155930317227 22.4020097944078  49.1155930317227 22.4020097944078  C 49.1155930317227 22.4020097944078  47.6108575774985 22.8345295406236  47.6108575774985 22.8345295406236  C 47.6108575774985 22.8345295406236  47.3978968800663 23.6824395381556  47.3978968800663 23.6824395381556  C 47.3978968800663 23.6824395381556  44.7162733610857 24.6224205707734  44.7162733610857 24.6224205707734  C 44.7162733610857 24.6224205707734  41.2360472267347 24.470396303539  41.2360472267347 24.470396303539  Z " fill-rule="nonzero" fill="#74b9ff" stroke="none" transform="matrix(1 0 0 1 1887 1674 )" />
    <path d="M 41.2360472267347 24.470396303539  C 41.2360472267347 24.470396303539  40.1208056796558 26.465982459347  40.1208056796558 26.465982459347  C 40.1208056796558 26.465982459347  36.5004738233098 24.7530329693831  36.5004738233098 24.7530329693831  C 36.5004738233098 24.7530329693831  32.8100891059665 25.2240940791232  32.8100891059665 25.2240940791232  C 32.8100891059665 25.2240940791232  24.674171684598 22.4448335316568  24.674171684598 22.4448335316568  C 24.674171684598 22.4448335316568  21.9084847324204 23.1278721407799  21.9084847324204 23.1278721407799  C 21.9084847324204 23.1278721407799  17.489550260704 26.8428313471389  17.489550260704 26.8428313471389  C 17.489550260704 26.8428313471389  11.6527458824002 23.9222524667507  11.6527458824002 23.9222524667507  C 11.6527458824002 23.9222524667507  7.21699872404481 19.9910333872836  7.21699872404481 19.9910333872836  C 7.21699872404481 19.9910333872836  3.20717296055316 17.7791873583677  3.20717296055316 17.7791873583677  C 3.20717296055316 17.7791873583677  2.37494497190408 12.3159657788322  2.37494497190408 12.3159657788322  C 2.37494497190408 12.3159657788322  0.999106781914926 9.54098760509087  0.999106781914926 9.54098760509087  C 0.999106781914926 9.54098760509087  6.70981601042359 7.4982953383089  6.70981601042359 7.4982953383089  C 6.70981601042359 7.4982953383089  9.62681714235512 5.14727216333351  9.62681714235512 5.14727216333351  C 9.62681714235512 5.14727216333351  15.2702756243063 3.31013383534739  15.2702756243063 3.31013383534739  C 15.2702756243063 3.31013383534739  17.2401620755536 1.49868974971064  17.2401620755536 1.49868974971064  C 17.2401620755536 1.49868974971064  19.3109246466366 2.59283623642496  19.3109246466366 2.59283623642496  C 19.3109246466366 2.59283623642496  22.8163698109465 1.59932553224596  22.8163698109465 1.59932553224596  C 22.8163698109465 1.59932553224596  26.5431820160087 4.65908155869396  26.5431820160087 4.65908155869396  C 26.5431820160087 4.65908155869396  34.4521281677458 5.483438500739  34.4521281677458 5.483438500739  C 34.4521281677458 5.483438500739  33.961758140764 8.07641579117178  33.961758140764 8.07641579117178  C 33.961758140764 8.07641579117178  38.2293784327258 10.0141899016934  38.2293784327258 10.0141899016934  C 38.2293784327258 10.0141899016934  39.4006622686024 7.592507560257  39.4006622686024 7.592507560257  C 39.4006622686024 7.592507560257  44.7919304509629 8.64383030972231  44.7919304509629 8.64383030972231  C 44.7919304509629 8.64383030972231  45.5344907775353 11.570832750698  45.5344907775353 11.570832750698  C 45.5344907775353 11.570832750698  51.3768993847188 12.136106082386  51.3768993847188 12.136106082386  C 51.3768993847188 12.136106082386  54.9916270121851 18.2523896549703  54.9916270121851 18.2523896549703  C 54.9916270121851 18.2523896549703  52.6490593404318 18.2630955892825  52.6490593404318 18.2630955892825  C 52.6490593404318 18.2630955892825  51.4329416735171 19.9203742208226  51.4329416735171 19.9203742208226  C 51.4329416735171 19.9203742208226  49.6283799742237 20.3186349772392  49.6283799742237 20.3186349772392  C 49.6283799742237 20.3186349772392  49.1155930317227 22.4020097944078  49.1155930317227 22.4020097944078  C 49.1155930317227 22.4020097944078  47.6108575774985 22.8345295406236  47.6108575774985 22.8345295406236  C 47.6108575774985 22.8345295406236  47.3978968800663 23.6824395381556  47.3978968800663 23.6824395381556  C 47.3978968800663 23.6824395381556  44.7162733610857 24.6224205707734  44.7162733610857 24.6224205707734  C 44.7162733610857 24.6224205707734  41.2360472267347 24.470396303539  41.2360472267347 24.470396303539  Z " stroke-width="2" stroke="#505050" fill="none" stroke-opacity="0.211764705882353" transform="matrix(1 0 0 1 1887 1674 )" mask="url(#clip619)" />
  </g>
</svg>