<?xml version="1.0" encoding="utf-8"?>
<svg version="1.1" xmlns:xlink="http://www.w3.org/1999/xlink" width="16px" height="15px" xmlns="http://www.w3.org/2000/svg">
  <defs>
    <mask fill="white" id="clip623">
      <path d="M 10.714322679371 3.2584383289615  C 10.714322679371 3.2584383289615  13.0405692635095 1.65943056846383  13.0405692635095 1.65943056846383  C 13.0405692635095 1.65943056846383  14.8685310763708 3.68514628226497  14.8685310763708 3.68514628226497  C 14.8685310763708 3.68514628226497  14.6262710770757 6.39910063042635  14.6262710770757 6.39910063042635  C 14.6262710770757 6.39910063042635  10.2215438171688 9.62806899709146  10.2215438171688 9.62806899709146  C 10.2215438171688 9.62806899709146  13.5361010802485 11.4151953176474  13.5361010802485 11.4151953176474  C 13.5361010802485 11.4151953176474  10.6922990430712 14.8999769362926  10.6922990430712 14.8999769362926  C 10.6922990430712 14.8999769362926  8.97996132078242 13.7391477730046  8.97996132078242 13.7391477730046  C 8.97996132078242 13.7391477730046  5.12171700800855 14.2025617868073  5.12171700800855 14.2025617868073  C 5.12171700800855 14.2025617868073  0.810590202374897 14.0924436053096  0.810590202374897 14.0924436053096  C 0.810590202374897 14.0924436053096  0.686707248190032 12.1103163383513  0.686707248190032 12.1103163383513  C 0.686707248190032 12.1103163383513  0.083810204490419 10.3117193738895  0.083810204490419 10.3117193738895  C 0.083810204490419 10.3117193738895  2.69636406052268 5.58239078431863  2.69636406052268 5.58239078431863  C 2.69636406052268 5.58239078431863  5.40802427990275 2.68949439122328  5.40802427990275 2.68949439122328  C 5.40802427990275 2.68949439122328  10.714322679371 3.2584383289615  10.714322679371 3.2584383289615  Z " fill-rule="evenodd" />
    </mask>
  </defs>
  <g transform="matrix(1 0 0 1 -2115 -1954 )">
    <path d="M 10.714322679371 3.2584383289615  C 10.714322679371 3.2584383289615  13.0405692635095 1.65943056846383  13.0405692635095 1.65943056846383  C 13.0405692635095 1.65943056846383  14.8685310763708 3.68514628226497  14.8685310763708 3.68514628226497  C 14.8685310763708 3.68514628226497  14.6262710770757 6.39910063042635  14.6262710770757 6.39910063042635  C 14.6262710770757 6.39910063042635  10.2215438171688 9.62806899709146  10.2215438171688 9.62806899709146  C 10.2215438171688 9.62806899709146  13.5361010802485 11.4151953176474  13.5361010802485 11.4151953176474  C 13.5361010802485 11.4151953176474  10.6922990430712 14.8999769362926  10.6922990430712 14.8999769362926  C 10.6922990430712 14.8999769362926  8.97996132078242 13.7391477730046  8.97996132078242 13.7391477730046  C 8.97996132078242 13.7391477730046  5.12171700800855 14.2025617868073  5.12171700800855 14.2025617868073  C 5.12171700800855 14.2025617868073  0.810590202374897 14.0924436053096  0.810590202374897 14.0924436053096  C 0.810590202374897 14.0924436053096  0.686707248190032 12.1103163383513  0.686707248190032 12.1103163383513  C 0.686707248190032 12.1103163383513  0.083810204490419 10.3117193738895  0.083810204490419 10.3117193738895  C 0.083810204490419 10.3117193738895  2.69636406052268 5.58239078431863  2.69636406052268 5.58239078431863  C 2.69636406052268 5.58239078431863  5.40802427990275 2.68949439122328  5.40802427990275 2.68949439122328  C 5.40802427990275 2.68949439122328  10.714322679371 3.2584383289615  10.714322679371 3.2584383289615  Z " fill-rule="nonzero" fill="#f2f2f2" stroke="none" transform="matrix(1 0 0 1 2115 1954 )" />
    <path d="M 10.714322679371 3.2584383289615  C 10.714322679371 3.2584383289615  13.0405692635095 1.65943056846383  13.0405692635095 1.65943056846383  C 13.0405692635095 1.65943056846383  14.8685310763708 3.68514628226497  14.8685310763708 3.68514628226497  C 14.8685310763708 3.68514628226497  14.6262710770757 6.39910063042635  14.6262710770757 6.39910063042635  C 14.6262710770757 6.39910063042635  10.2215438171688 9.62806899709146  10.2215438171688 9.62806899709146  C 10.2215438171688 9.62806899709146  13.5361010802485 11.4151953176474  13.5361010802485 11.4151953176474  C 13.5361010802485 11.4151953176474  10.6922990430712 14.8999769362926  10.6922990430712 14.8999769362926  C 10.6922990430712 14.8999769362926  8.97996132078242 13.7391477730046  8.97996132078242 13.7391477730046  C 8.97996132078242 13.7391477730046  5.12171700800855 14.2025617868073  5.12171700800855 14.2025617868073  C 5.12171700800855 14.2025617868073  0.810590202374897 14.0924436053096  0.810590202374897 14.0924436053096  C 0.810590202374897 14.0924436053096  0.686707248190032 12.1103163383513  0.686707248190032 12.1103163383513  C 0.686707248190032 12.1103163383513  0.083810204490419 10.3117193738895  0.083810204490419 10.3117193738895  C 0.083810204490419 10.3117193738895  2.69636406052268 5.58239078431863  2.69636406052268 5.58239078431863  C 2.69636406052268 5.58239078431863  5.40802427990275 2.68949439122328  5.40802427990275 2.68949439122328  C 5.40802427990275 2.68949439122328  10.714322679371 3.2584383289615  10.714322679371 3.2584383289615  Z " stroke-width="2" stroke="#505050" fill="none" stroke-opacity="0.211764705882353" transform="matrix(1 0 0 1 2115 1954 )" mask="url(#clip623)" />
  </g>
</svg>