<?xml version="1.0" encoding="utf-8"?>
<svg version="1.1" xmlns:xlink="http://www.w3.org/1999/xlink" width="41px" height="35px" xmlns="http://www.w3.org/2000/svg">
  <defs>
    <mask fill="white" id="clip624">
      <path d="M 36.8917107306997 18.2964146670668  C 36.8917107306997 18.2964146670668  39.4172023994855 23.7710401676616  39.4172023994855 23.7710401676616  C 39.4172023994855 23.7710401676616  34.6681493508081 34.0578444037152  34.6681493508081 34.0578444037152  C 34.6681493508081 34.0578444037152  24.3390515226321 28.0116680008583  24.3390515226321 28.0116680008583  C 24.3390515226321 28.0116680008583  23.2357361678888 21.9228065986608  23.2357361678888 21.9228065986608  C 23.2357361678888 21.9228065986608  36.8917107306997 18.2964146670668  36.8917107306997 18.2964146670668  Z M 21.0587121233735 12.7801820126674  C 21.0587121233735 12.7801820126674  25.3506370711089 14.4619869664502  25.3506370711089 14.4619869664502  C 25.3506370711089 14.4619869664502  23.4177188665074 20.2158012880116  23.4177188665074 20.2158012880116  C 23.4177188665074 20.2158012880116  21.0615339017744 19.0223329288819  21.0615339017744 19.0223329288819  C 21.0615339017744 19.0223329288819  15.3643633104019 26.8773255971351  15.3643633104019 26.8773255971351  C 15.3643633104019 26.8773255971351  17.514558451871 32.1088777255034  17.514558451871 32.1088777255034  C 17.514558451871 32.1088777255034  10.402288000696 33.7315567238796  10.402288000696 33.7315567238796  C 10.402288000696 33.7315567238796  4.42293956923555 32.3256728953269  4.42293956923555 32.3256728953269  C 4.42293956923555 32.3256728953269  1.21175574903655 26.3627108000791  1.21175574903655 26.3627108000791  C 1.21175574903655 26.3627108000791  0.971904584961936 13.5597686839522  0.971904584961936 13.5597686839522  C 0.971904584961936 13.5597686839522  2.28967509817181 10.5487246586251  2.28967509817181 10.5487246586251  C 2.28967509817181 10.5487246586251  4.5583849324777 7.17635535025872  4.5583849324777 7.17635535025872  C 4.5583849324777 7.17635535025872  11.5281775826462 6.47560328618265  11.5281775826462 6.47560328618265  C 11.5281775826462 6.47560328618265  16.3548075291101 3.34630735004274  16.3548075291101 3.34630735004274  C 16.3548075291101 3.34630735004274  22.7207396014906 0.120658005092364  22.7207396014906 0.120658005092364  C 22.7207396014906 0.120658005092364  22.4526706534071 5.98069714092891  22.4526706534071 5.98069714092891  C 22.4526706534071 5.98069714092891  20.1105945806784 9.65088607652753  20.1105945806784 9.65088607652753  C 20.1105945806784 9.65088607652753  21.0587121233735 12.7801820126674  21.0587121233735 12.7801820126674  Z " fill-rule="evenodd" />
    </mask>
  </defs>
  <g transform="matrix(1 0 0 1 -1855 -1607 )">
    <path d="M 36.8917107306997 18.2964146670668  C 36.8917107306997 18.2964146670668  39.4172023994855 23.7710401676616  39.4172023994855 23.7710401676616  C 39.4172023994855 23.7710401676616  34.6681493508081 34.0578444037152  34.6681493508081 34.0578444037152  C 34.6681493508081 34.0578444037152  24.3390515226321 28.0116680008583  24.3390515226321 28.0116680008583  C 24.3390515226321 28.0116680008583  23.2357361678888 21.9228065986608  23.2357361678888 21.9228065986608  C 23.2357361678888 21.9228065986608  36.8917107306997 18.2964146670668  36.8917107306997 18.2964146670668  Z M 21.0587121233735 12.7801820126674  C 21.0587121233735 12.7801820126674  25.3506370711089 14.4619869664502  25.3506370711089 14.4619869664502  C 25.3506370711089 14.4619869664502  23.4177188665074 20.2158012880116  23.4177188665074 20.2158012880116  C 23.4177188665074 20.2158012880116  21.0615339017744 19.0223329288819  21.0615339017744 19.0223329288819  C 21.0615339017744 19.0223329288819  15.3643633104019 26.8773255971351  15.3643633104019 26.8773255971351  C 15.3643633104019 26.8773255971351  17.514558451871 32.1088777255034  17.514558451871 32.1088777255034  C 17.514558451871 32.1088777255034  10.402288000696 33.7315567238796  10.402288000696 33.7315567238796  C 10.402288000696 33.7315567238796  4.42293956923555 32.3256728953269  4.42293956923555 32.3256728953269  C 4.42293956923555 32.3256728953269  1.21175574903655 26.3627108000791  1.21175574903655 26.3627108000791  C 1.21175574903655 26.3627108000791  0.971904584961936 13.5597686839522  0.971904584961936 13.5597686839522  C 0.971904584961936 13.5597686839522  2.28967509817181 10.5487246586251  2.28967509817181 10.5487246586251  C 2.28967509817181 10.5487246586251  4.5583849324777 7.17635535025872  4.5583849324777 7.17635535025872  C 4.5583849324777 7.17635535025872  11.5281775826462 6.47560328618265  11.5281775826462 6.47560328618265  C 11.5281775826462 6.47560328618265  16.3548075291101 3.34630735004274  16.3548075291101 3.34630735004274  C 16.3548075291101 3.34630735004274  22.7207396014906 0.120658005092364  22.7207396014906 0.120658005092364  C 22.7207396014906 0.120658005092364  22.4526706534071 5.98069714092891  22.4526706534071 5.98069714092891  C 22.4526706534071 5.98069714092891  20.1105945806784 9.65088607652753  20.1105945806784 9.65088607652753  C 20.1105945806784 9.65088607652753  21.0587121233735 12.7801820126674  21.0587121233735 12.7801820126674  Z " fill-rule="nonzero" fill="#f2f2f2" stroke="none" transform="matrix(1 0 0 1 1855 1607 )" />
    <path d="M 36.8917107306997 18.2964146670668  C 36.8917107306997 18.2964146670668  39.4172023994855 23.7710401676616  39.4172023994855 23.7710401676616  C 39.4172023994855 23.7710401676616  34.6681493508081 34.0578444037152  34.6681493508081 34.0578444037152  C 34.6681493508081 34.0578444037152  24.3390515226321 28.0116680008583  24.3390515226321 28.0116680008583  C 24.3390515226321 28.0116680008583  23.2357361678888 21.9228065986608  23.2357361678888 21.9228065986608  C 23.2357361678888 21.9228065986608  36.8917107306997 18.2964146670668  36.8917107306997 18.2964146670668  Z " stroke-width="2" stroke="#505050" fill="none" stroke-opacity="0.211764705882353" transform="matrix(1 0 0 1 1855 1607 )" mask="url(#clip624)" />
    <path d="M 21.0587121233735 12.7801820126674  C 21.0587121233735 12.7801820126674  25.3506370711089 14.4619869664502  25.3506370711089 14.4619869664502  C 25.3506370711089 14.4619869664502  23.4177188665074 20.2158012880116  23.4177188665074 20.2158012880116  C 23.4177188665074 20.2158012880116  21.0615339017744 19.0223329288819  21.0615339017744 19.0223329288819  C 21.0615339017744 19.0223329288819  15.3643633104019 26.8773255971351  15.3643633104019 26.8773255971351  C 15.3643633104019 26.8773255971351  17.514558451871 32.1088777255034  17.514558451871 32.1088777255034  C 17.514558451871 32.1088777255034  10.402288000696 33.7315567238796  10.402288000696 33.7315567238796  C 10.402288000696 33.7315567238796  4.42293956923555 32.3256728953269  4.42293956923555 32.3256728953269  C 4.42293956923555 32.3256728953269  1.21175574903655 26.3627108000791  1.21175574903655 26.3627108000791  C 1.21175574903655 26.3627108000791  0.971904584961936 13.5597686839522  0.971904584961936 13.5597686839522  C 0.971904584961936 13.5597686839522  2.28967509817181 10.5487246586251  2.28967509817181 10.5487246586251  C 2.28967509817181 10.5487246586251  4.5583849324777 7.17635535025872  4.5583849324777 7.17635535025872  C 4.5583849324777 7.17635535025872  11.5281775826462 6.47560328618265  11.5281775826462 6.47560328618265  C 11.5281775826462 6.47560328618265  16.3548075291101 3.34630735004274  16.3548075291101 3.34630735004274  C 16.3548075291101 3.34630735004274  22.7207396014906 0.120658005092364  22.7207396014906 0.120658005092364  C 22.7207396014906 0.120658005092364  22.4526706534071 5.98069714092891  22.4526706534071 5.98069714092891  C 22.4526706534071 5.98069714092891  20.1105945806784 9.65088607652753  20.1105945806784 9.65088607652753  C 20.1105945806784 9.65088607652753  21.0587121233735 12.7801820126674  21.0587121233735 12.7801820126674  Z " stroke-width="2" stroke="#505050" fill="none" stroke-opacity="0.211764705882353" transform="matrix(1 0 0 1 1855 1607 )" mask="url(#clip624)" />
  </g>
</svg>