<?xml version="1.0" encoding="utf-8"?>
<svg version="1.1" xmlns:xlink="http://www.w3.org/1999/xlink" width="32px" height="18px" xmlns="http://www.w3.org/2000/svg">
  <defs>
    <mask fill="white" id="clip625">
      <path d="M 3.63808388598454 5.18758662327694  C 3.63808388598454 5.18758662327694  2.96361002431127 1.56344710903192  2.96361002431127 1.56344710903192  C 2.96361002431127 1.56344710903192  3.92989706695334 0.425976347879648  3.92989706695334 0.425976347879648  C 3.92989706695334 0.425976347879648  9.95336159487624 0.455257773414236  9.95336159487624 0.455257773414236  C 9.95336159487624 0.455257773414236  14.5260190815673 2.17385221056123  14.5260190815673 2.17385221056123  C 14.5260190815673 2.17385221056123  18.5604524847367 2.00492090939981  18.5604524847367 2.00492090939981  C 18.5604524847367 2.00492090939981  19.9617063442947 4.36770670830811  19.9617063442947 4.36770670830811  C 19.9617063442947 4.36770670830811  24.187491559268 4.23481408472774  24.187491559268 4.23481408472774  C 24.187491559268 4.23481408472774  23.9369726963607 6.21468893433695  23.9369726963607 6.21468893433695  C 23.9369726963607 6.21468893433695  27.3699070045509 6.4556975906605  27.3699070045509 6.4556975906605  C 27.3699070045509 6.4556975906605  31.1662313116831 10.5246719637455  31.1662313116831 10.5246719637455  C 31.1662313116831 10.5246719637455  28.2976526836687 13.2163106955807  28.2976526836687 13.2163106955807  C 28.2976526836687 13.2163106955807  24.6279642852587 11.7792684270361  24.6279642852587 11.7792684270361  C 24.6279642852587 11.7792684270361  21.0849117955709 12.0563157609403  21.0849117955709 12.0563157609403  C 21.0849117955709 12.0563157609403  18.543934757512 11.740977332106  18.543934757512 11.740977332106  C 18.543934757512 11.740977332106  15.1536927161039 12.9482730310717  15.1536927161039 12.9482730310717  C 15.1536927161039 12.9482730310717  12.1887606792791 13.3537081538585  12.1887606792791 13.3537081538585  C 12.1887606792791 13.3537081538585  11.0132490917913 11.7522394188502  11.0132490917913 11.7522394188502  C 11.0132490917913 11.7522394188502  8.46401319012011 12.7005071227016  8.46401319012011 12.7005071227016  C 8.46401319012011 12.7005071227016  5.37244524457287 17.2188563244267  5.37244524457287 17.2188563244267  C 5.37244524457287 17.2188563244267  3.38481206853976 16.1714822572273  3.38481206853976 16.1714822572273  C 3.38481206853976 16.1714822572273  2.99389252422316 14.274946849524  2.99389252422316 14.274946849524  C 2.99389252422316 14.274946849524  3.15356388739474 12.4797702225179  3.15356388739474 12.4797702225179  C 3.15356388739474 12.4797702225179  1.16593071136163 10.4931381208622  1.16593071136163 10.4931381208622  C 1.16593071136163 10.4931381208622  3.04895161497211 7.73957547948571  3.04895161497211 7.73957547948571  C 3.04895161497211 7.73957547948571  3.63808388598454 5.18758662327694  3.63808388598454 5.18758662327694  Z " fill-rule="evenodd" />
    </mask>
  </defs>
  <g transform="matrix(1 0 0 1 -1239 -1911 )">
    <path d="M 3.63808388598454 5.18758662327694  C 3.63808388598454 5.18758662327694  2.96361002431127 1.56344710903192  2.96361002431127 1.56344710903192  C 2.96361002431127 1.56344710903192  3.92989706695334 0.425976347879648  3.92989706695334 0.425976347879648  C 3.92989706695334 0.425976347879648  9.95336159487624 0.455257773414236  9.95336159487624 0.455257773414236  C 9.95336159487624 0.455257773414236  14.5260190815673 2.17385221056123  14.5260190815673 2.17385221056123  C 14.5260190815673 2.17385221056123  18.5604524847367 2.00492090939981  18.5604524847367 2.00492090939981  C 18.5604524847367 2.00492090939981  19.9617063442947 4.36770670830811  19.9617063442947 4.36770670830811  C 19.9617063442947 4.36770670830811  24.187491559268 4.23481408472774  24.187491559268 4.23481408472774  C 24.187491559268 4.23481408472774  23.9369726963607 6.21468893433695  23.9369726963607 6.21468893433695  C 23.9369726963607 6.21468893433695  27.3699070045509 6.4556975906605  27.3699070045509 6.4556975906605  C 27.3699070045509 6.4556975906605  31.1662313116831 10.5246719637455  31.1662313116831 10.5246719637455  C 31.1662313116831 10.5246719637455  28.2976526836687 13.2163106955807  28.2976526836687 13.2163106955807  C 28.2976526836687 13.2163106955807  24.6279642852587 11.7792684270361  24.6279642852587 11.7792684270361  C 24.6279642852587 11.7792684270361  21.0849117955709 12.0563157609403  21.0849117955709 12.0563157609403  C 21.0849117955709 12.0563157609403  18.543934757512 11.740977332106  18.543934757512 11.740977332106  C 18.543934757512 11.740977332106  15.1536927161039 12.9482730310717  15.1536927161039 12.9482730310717  C 15.1536927161039 12.9482730310717  12.1887606792791 13.3537081538585  12.1887606792791 13.3537081538585  C 12.1887606792791 13.3537081538585  11.0132490917913 11.7522394188502  11.0132490917913 11.7522394188502  C 11.0132490917913 11.7522394188502  8.46401319012011 12.7005071227016  8.46401319012011 12.7005071227016  C 8.46401319012011 12.7005071227016  5.37244524457287 17.2188563244267  5.37244524457287 17.2188563244267  C 5.37244524457287 17.2188563244267  3.38481206853976 16.1714822572273  3.38481206853976 16.1714822572273  C 3.38481206853976 16.1714822572273  2.99389252422316 14.274946849524  2.99389252422316 14.274946849524  C 2.99389252422316 14.274946849524  3.15356388739474 12.4797702225179  3.15356388739474 12.4797702225179  C 3.15356388739474 12.4797702225179  1.16593071136163 10.4931381208622  1.16593071136163 10.4931381208622  C 1.16593071136163 10.4931381208622  3.04895161497211 7.73957547948571  3.04895161497211 7.73957547948571  C 3.04895161497211 7.73957547948571  3.63808388598454 5.18758662327694  3.63808388598454 5.18758662327694  Z " fill-rule="nonzero" fill="#f2f2f2" stroke="none" transform="matrix(1 0 0 1 1239 1911 )" />
    <path d="M 3.63808388598454 5.18758662327694  C 3.63808388598454 5.18758662327694  2.96361002431127 1.56344710903192  2.96361002431127 1.56344710903192  C 2.96361002431127 1.56344710903192  3.92989706695334 0.425976347879648  3.92989706695334 0.425976347879648  C 3.92989706695334 0.425976347879648  9.95336159487624 0.455257773414236  9.95336159487624 0.455257773414236  C 9.95336159487624 0.455257773414236  14.5260190815673 2.17385221056123  14.5260190815673 2.17385221056123  C 14.5260190815673 2.17385221056123  18.5604524847367 2.00492090939981  18.5604524847367 2.00492090939981  C 18.5604524847367 2.00492090939981  19.9617063442947 4.36770670830811  19.9617063442947 4.36770670830811  C 19.9617063442947 4.36770670830811  24.187491559268 4.23481408472774  24.187491559268 4.23481408472774  C 24.187491559268 4.23481408472774  23.9369726963607 6.21468893433695  23.9369726963607 6.21468893433695  C 23.9369726963607 6.21468893433695  27.3699070045509 6.4556975906605  27.3699070045509 6.4556975906605  C 27.3699070045509 6.4556975906605  31.1662313116831 10.5246719637455  31.1662313116831 10.5246719637455  C 31.1662313116831 10.5246719637455  28.2976526836687 13.2163106955807  28.2976526836687 13.2163106955807  C 28.2976526836687 13.2163106955807  24.6279642852587 11.7792684270361  24.6279642852587 11.7792684270361  C 24.6279642852587 11.7792684270361  21.0849117955709 12.0563157609403  21.0849117955709 12.0563157609403  C 21.0849117955709 12.0563157609403  18.543934757512 11.740977332106  18.543934757512 11.740977332106  C 18.543934757512 11.740977332106  15.1536927161039 12.9482730310717  15.1536927161039 12.9482730310717  C 15.1536927161039 12.9482730310717  12.1887606792791 13.3537081538585  12.1887606792791 13.3537081538585  C 12.1887606792791 13.3537081538585  11.0132490917913 11.7522394188502  11.0132490917913 11.7522394188502  C 11.0132490917913 11.7522394188502  8.46401319012011 12.7005071227016  8.46401319012011 12.7005071227016  C 8.46401319012011 12.7005071227016  5.37244524457287 17.2188563244267  5.37244524457287 17.2188563244267  C 5.37244524457287 17.2188563244267  3.38481206853976 16.1714822572273  3.38481206853976 16.1714822572273  C 3.38481206853976 16.1714822572273  2.99389252422316 14.274946849524  2.99389252422316 14.274946849524  C 2.99389252422316 14.274946849524  3.15356388739474 12.4797702225179  3.15356388739474 12.4797702225179  C 3.15356388739474 12.4797702225179  1.16593071136163 10.4931381208622  1.16593071136163 10.4931381208622  C 1.16593071136163 10.4931381208622  3.04895161497211 7.73957547948571  3.04895161497211 7.73957547948571  C 3.04895161497211 7.73957547948571  3.63808388598454 5.18758662327694  3.63808388598454 5.18758662327694  Z " stroke-width="2" stroke="#505050" fill="none" stroke-opacity="0.211764705882353" transform="matrix(1 0 0 1 1239 1911 )" mask="url(#clip625)" />
  </g>
</svg>