<?xml version="1.0" encoding="utf-8"?>
<svg version="1.1" xmlns:xlink="http://www.w3.org/1999/xlink" width="164px" height="127px" xmlns="http://www.w3.org/2000/svg">
  <defs>
    <mask fill="white" id="clip626">
      <path d="M 159.737200198932 93.7902453916873  C 159.737200198932 93.7902453916873  163.126087234523 97.9102117924345  163.126087234523 97.9102117924345  C 163.126087234523 97.9102117924345  136.675700038781 110.3240655049  136.675700038781 110.3240655049  C 136.675700038781 110.3240655049  114.327215103828 122.949420897446  114.327215103828 122.949420897446  C 114.327215103828 122.949420897446  103.442032862783 125.791744496076  103.442032862783 125.791744496076  C 103.442032862783 125.791744496076  94.8803442513381 126.415458634272  94.8803442513381 126.415458634272  C 94.8803442513381 126.415458634272  94.7922497061402 122.358079465385  94.7922497061402 122.358079465385  C 94.7922497061402 122.358079465385  91.2161617620029 121.319994688665  91.2161617620029 121.319994688665  C 91.2161617620029 121.319994688665  86.4122560941669 119.487699521439  86.4122560941669 119.487699521439  C 86.4122560941669 119.487699521439  84.5760354176932 116.481354211727  84.5760354176932 116.481354211727  C 84.5760354176932 116.481354211727  56.5385914025678 102.35174707412  56.5385914025678 102.35174707412  C 56.5385914025678 102.35174707412  30.5011473874424 87.9912146327523  30.5011473874424 87.9912146327523  C 30.5011473874424 87.9912146327523  1.46848883558027 71.750907055161  1.46848883558027 71.750907055161  C 1.46848883558027 71.750907055161  1.61714838060198 70.4387333664997  1.61714838060198 70.4387333664997  C 1.61714838060198 70.4387333664997  1.61439542606468 69.9833573002044  1.61439542606468 69.9833573002044  C 1.61439542606468 69.9833573002044  1.54832451716607 60.3179631711352  1.54832451716607 60.3179631711352  C 1.54832451716607 60.3179631711352  14.0137026627028 55.2268155863463  14.0137026627028 55.2268155863463  C 14.0137026627028 55.2268155863463  21.7219753675402 54.1714653663538  21.7219753675402 54.1714653663538  C 21.7219753675402 54.1714653663538  28.0400060309694 52.3046393125842  28.0400060309694 52.3046393125842  C 28.0400060309694 52.3046393125842  30.991173295107 48.8148615912602  30.991173295107 48.8148615912602  C 30.991173295107 48.8148615912602  40.0153582688415 46.0437579461269  40.0153582688415 46.0437579461269  C 40.0153582688415 46.0437579461269  40.3484657678721 40.8274358976169  40.3484657678721 40.8274358976169  C 40.3484657678721 40.8274358976169  44.8137580276027 40.210196300648  44.8137580276027 40.210196300648  C 44.8137580276027 40.210196300648  48.3072573356164 37.5858489233255  48.3072573356164 37.5858489233255  C 48.3072573356164 37.5858489233255  58.4078475334909 36.3880587963404  58.4078475334909 36.3880587963404  C 58.4078475334909 36.3880587963404  59.8228661657361 33.6147969707983  59.8228661657361 33.6147969707983  C 59.8228661657361 33.6147969707983  57.7884327625663 32.0932797824658  57.7884327625663 32.0932797824658  C 57.7884327625663 32.0932797824658  55.1235727703227 24.4770611191675  55.1235727703227 24.4770611191675  C 55.1235727703227 24.4770611191675  54.6638293625699 20.046316739527  54.6638293625699 20.046316739527  C 54.6638293625699 20.046316739527  51.7539564164938 15.3457998087636  51.7539564164938 15.3457998087636  C 51.7539564164938 15.3457998087636  59.1731688948996 11.30352790274  59.1731688948996 11.30352790274  C 59.1731688948996 11.30352790274  67.5201270524235 10.0129360181686  67.5201270524235 10.0129360181686  C 67.5201270524235 10.0129360181686  72.3928565836957 6.9375289353689  72.3928565836957 6.9375289353689  C 72.3928565836957 6.9375289353689  79.8258338347887 4.65633224307475  79.8258338347887 4.65633224307475  C 79.8258338347887 4.65633224307475  94.9078737967127 3.31826038950577  94.9078737967127 3.31826038950577  C 94.9078737967127 3.31826038950577  107.676076941368 2.70533715335487  107.676076941368 2.70533715335487  C 107.676076941368 2.70533715335487  111.568754657311 3.8232746052076  111.568754657311 3.8232746052076  C 111.568754657311 3.8232746052076  118.836554636158 0.853618362448054  118.836554636158 0.853618362448054  C 118.836554636158 0.853618362448054  127.084406430334 0.795347491405597  127.084406430334 0.795347491405597  C 127.084406430334 0.795347491405597  130.225527557555 2.55210634431701  130.225527557555 2.55210634431701  C 130.225527557555 2.55210634431701  135.502941405831 2.09241391720388  135.502941405831 2.09241391720388  C 135.502941405831 2.09241391720388  133.933757319489 5.94908230805512  133.933757319489 5.94908230805512  C 133.933757319489 5.94908230805512  135.15882208865 13.0451794927887  135.15882208865 13.0451794927887  C 135.15882208865 13.0451794927887  133.341872093939 19.1139828028467  133.341872093939 19.1139828028467  C 133.341872093939 19.1139828028467  128.584766653239 23.1864692345962  128.584766653239 23.1864692345962  C 128.584766653239 23.1864692345962  129.264746423987 28.6401911280943  129.264746423987 28.6401911280943  C 129.264746423987 28.6401911280943  135.577271178342 32.9220210595149  135.577271178342 32.9220210595149  C 135.577271178342 32.9220210595149  135.64334208724 34.6528817475187  135.64334208724 34.6528817475187  C 135.64334208724 34.6528817475187  140.403200482477 37.527578052283  140.403200482477 37.527578052283  C 140.403200482477 37.527578052283  143.69298115472 50.1680407076918  143.69298115472 50.1680407076918  C 143.69298115472 50.1680407076918  146.192663874718 56.2972730692015  146.192663874718 56.2972730692015  C 146.192663874718 56.2972730692015  146.611112964409 59.50217097654  146.611112964409 59.50217097654  C 146.611112964409 59.50217097654  145.251153422912 66.659759470372  145.251153422912 66.659759470372  C 145.251153422912 66.659759470372  145.810003194013 69.7675392593063  145.810003194013 69.7675392593063  C 145.810003194013 69.7675392593063  144.827198424146 73.4774513823465  144.827198424146 73.4774513823465  C 144.827198424146 73.4774513823465  145.50167228582 77.7182758859968  145.50167228582 77.7182758859968  C 145.50167228582 77.7182758859968  142.437633885647 80.5239104176735  142.437633885647 80.5239104176735  C 142.437633885647 80.5239104176735  147.002032508726 85.3927654203377  147.002032508726 85.3927654203377  C 147.002032508726 85.3927654203377  147.291092735157 88.2415635601942  147.291092735157 88.2415635601942  C 147.291092735157 88.2415635601942  150.038541363524 91.9342102399628  150.038541363524 91.9342102399628  C 150.038541363524 91.9342102399628  153.644911807573 90.7234710305238  153.644911807573 90.7234710305238  C 153.644911807573 90.7234710305238  159.737200198932 93.7902453916873  159.737200198932 93.7902453916873  Z " fill-rule="evenodd" />
    </mask>
  </defs>
  <g transform="matrix(1 0 0 1 -1726 -1793 )">
    <path d="M 159.737200198932 93.7902453916873  C 159.737200198932 93.7902453916873  163.126087234523 97.9102117924345  163.126087234523 97.9102117924345  C 163.126087234523 97.9102117924345  136.675700038781 110.3240655049  136.675700038781 110.3240655049  C 136.675700038781 110.3240655049  114.327215103828 122.949420897446  114.327215103828 122.949420897446  C 114.327215103828 122.949420897446  103.442032862783 125.791744496076  103.442032862783 125.791744496076  C 103.442032862783 125.791744496076  94.8803442513381 126.415458634272  94.8803442513381 126.415458634272  C 94.8803442513381 126.415458634272  94.7922497061402 122.358079465385  94.7922497061402 122.358079465385  C 94.7922497061402 122.358079465385  91.2161617620029 121.319994688665  91.2161617620029 121.319994688665  C 91.2161617620029 121.319994688665  86.4122560941669 119.487699521439  86.4122560941669 119.487699521439  C 86.4122560941669 119.487699521439  84.5760354176932 116.481354211727  84.5760354176932 116.481354211727  C 84.5760354176932 116.481354211727  56.5385914025678 102.35174707412  56.5385914025678 102.35174707412  C 56.5385914025678 102.35174707412  30.5011473874424 87.9912146327523  30.5011473874424 87.9912146327523  C 30.5011473874424 87.9912146327523  1.46848883558027 71.750907055161  1.46848883558027 71.750907055161  C 1.46848883558027 71.750907055161  1.61714838060198 70.4387333664997  1.61714838060198 70.4387333664997  C 1.61714838060198 70.4387333664997  1.61439542606468 69.9833573002044  1.61439542606468 69.9833573002044  C 1.61439542606468 69.9833573002044  1.54832451716607 60.3179631711352  1.54832451716607 60.3179631711352  C 1.54832451716607 60.3179631711352  14.0137026627028 55.2268155863463  14.0137026627028 55.2268155863463  C 14.0137026627028 55.2268155863463  21.7219753675402 54.1714653663538  21.7219753675402 54.1714653663538  C 21.7219753675402 54.1714653663538  28.0400060309694 52.3046393125842  28.0400060309694 52.3046393125842  C 28.0400060309694 52.3046393125842  30.991173295107 48.8148615912602  30.991173295107 48.8148615912602  C 30.991173295107 48.8148615912602  40.0153582688415 46.0437579461269  40.0153582688415 46.0437579461269  C 40.0153582688415 46.0437579461269  40.3484657678721 40.8274358976169  40.3484657678721 40.8274358976169  C 40.3484657678721 40.8274358976169  44.8137580276027 40.210196300648  44.8137580276027 40.210196300648  C 44.8137580276027 40.210196300648  48.3072573356164 37.5858489233255  48.3072573356164 37.5858489233255  C 48.3072573356164 37.5858489233255  58.4078475334909 36.3880587963404  58.4078475334909 36.3880587963404  C 58.4078475334909 36.3880587963404  59.8228661657361 33.6147969707983  59.8228661657361 33.6147969707983  C 59.8228661657361 33.6147969707983  57.7884327625663 32.0932797824658  57.7884327625663 32.0932797824658  C 57.7884327625663 32.0932797824658  55.1235727703227 24.4770611191675  55.1235727703227 24.4770611191675  C 55.1235727703227 24.4770611191675  54.6638293625699 20.046316739527  54.6638293625699 20.046316739527  C 54.6638293625699 20.046316739527  51.7539564164938 15.3457998087636  51.7539564164938 15.3457998087636  C 51.7539564164938 15.3457998087636  59.1731688948996 11.30352790274  59.1731688948996 11.30352790274  C 59.1731688948996 11.30352790274  67.5201270524235 10.0129360181686  67.5201270524235 10.0129360181686  C 67.5201270524235 10.0129360181686  72.3928565836957 6.9375289353689  72.3928565836957 6.9375289353689  C 72.3928565836957 6.9375289353689  79.8258338347887 4.65633224307475  79.8258338347887 4.65633224307475  C 79.8258338347887 4.65633224307475  94.9078737967127 3.31826038950577  94.9078737967127 3.31826038950577  C 94.9078737967127 3.31826038950577  107.676076941368 2.70533715335487  107.676076941368 2.70533715335487  C 107.676076941368 2.70533715335487  111.568754657311 3.8232746052076  111.568754657311 3.8232746052076  C 111.568754657311 3.8232746052076  118.836554636158 0.853618362448054  118.836554636158 0.853618362448054  C 118.836554636158 0.853618362448054  127.084406430334 0.795347491405597  127.084406430334 0.795347491405597  C 127.084406430334 0.795347491405597  130.225527557555 2.55210634431701  130.225527557555 2.55210634431701  C 130.225527557555 2.55210634431701  135.502941405831 2.09241391720388  135.502941405831 2.09241391720388  C 135.502941405831 2.09241391720388  133.933757319489 5.94908230805512  133.933757319489 5.94908230805512  C 133.933757319489 5.94908230805512  135.15882208865 13.0451794927887  135.15882208865 13.0451794927887  C 135.15882208865 13.0451794927887  133.341872093939 19.1139828028467  133.341872093939 19.1139828028467  C 133.341872093939 19.1139828028467  128.584766653239 23.1864692345962  128.584766653239 23.1864692345962  C 128.584766653239 23.1864692345962  129.264746423987 28.6401911280943  129.264746423987 28.6401911280943  C 129.264746423987 28.6401911280943  135.577271178342 32.9220210595149  135.577271178342 32.9220210595149  C 135.577271178342 32.9220210595149  135.64334208724 34.6528817475187  135.64334208724 34.6528817475187  C 135.64334208724 34.6528817475187  140.403200482477 37.527578052283  140.403200482477 37.527578052283  C 140.403200482477 37.527578052283  143.69298115472 50.1680407076918  143.69298115472 50.1680407076918  C 143.69298115472 50.1680407076918  146.192663874718 56.2972730692015  146.192663874718 56.2972730692015  C 146.192663874718 56.2972730692015  146.611112964409 59.50217097654  146.611112964409 59.50217097654  C 146.611112964409 59.50217097654  145.251153422912 66.659759470372  145.251153422912 66.659759470372  C 145.251153422912 66.659759470372  145.810003194013 69.7675392593063  145.810003194013 69.7675392593063  C 145.810003194013 69.7675392593063  144.827198424146 73.4774513823465  144.827198424146 73.4774513823465  C 144.827198424146 73.4774513823465  145.50167228582 77.7182758859968  145.50167228582 77.7182758859968  C 145.50167228582 77.7182758859968  142.437633885647 80.5239104176735  142.437633885647 80.5239104176735  C 142.437633885647 80.5239104176735  147.002032508726 85.3927654203377  147.002032508726 85.3927654203377  C 147.002032508726 85.3927654203377  147.291092735157 88.2415635601942  147.291092735157 88.2415635601942  C 147.291092735157 88.2415635601942  150.038541363524 91.9342102399628  150.038541363524 91.9342102399628  C 150.038541363524 91.9342102399628  153.644911807573 90.7234710305238  153.644911807573 90.7234710305238  C 153.644911807573 90.7234710305238  159.737200198932 93.7902453916873  159.737200198932 93.7902453916873  Z " fill-rule="nonzero" fill="#f2f2f2" stroke="none" transform="matrix(1 0 0 1 1726 1793 )" />
    <path d="M 159.737200198932 93.7902453916873  C 159.737200198932 93.7902453916873  163.126087234523 97.9102117924345  163.126087234523 97.9102117924345  C 163.126087234523 97.9102117924345  136.675700038781 110.3240655049  136.675700038781 110.3240655049  C 136.675700038781 110.3240655049  114.327215103828 122.949420897446  114.327215103828 122.949420897446  C 114.327215103828 122.949420897446  103.442032862783 125.791744496076  103.442032862783 125.791744496076  C 103.442032862783 125.791744496076  94.8803442513381 126.415458634272  94.8803442513381 126.415458634272  C 94.8803442513381 126.415458634272  94.7922497061402 122.358079465385  94.7922497061402 122.358079465385  C 94.7922497061402 122.358079465385  91.2161617620029 121.319994688665  91.2161617620029 121.319994688665  C 91.2161617620029 121.319994688665  86.4122560941669 119.487699521439  86.4122560941669 119.487699521439  C 86.4122560941669 119.487699521439  84.5760354176932 116.481354211727  84.5760354176932 116.481354211727  C 84.5760354176932 116.481354211727  56.5385914025678 102.35174707412  56.5385914025678 102.35174707412  C 56.5385914025678 102.35174707412  30.5011473874424 87.9912146327523  30.5011473874424 87.9912146327523  C 30.5011473874424 87.9912146327523  1.46848883558027 71.750907055161  1.46848883558027 71.750907055161  C 1.46848883558027 71.750907055161  1.61714838060198 70.4387333664997  1.61714838060198 70.4387333664997  C 1.61714838060198 70.4387333664997  1.61439542606468 69.9833573002044  1.61439542606468 69.9833573002044  C 1.61439542606468 69.9833573002044  1.54832451716607 60.3179631711352  1.54832451716607 60.3179631711352  C 1.54832451716607 60.3179631711352  14.0137026627028 55.2268155863463  14.0137026627028 55.2268155863463  C 14.0137026627028 55.2268155863463  21.7219753675402 54.1714653663538  21.7219753675402 54.1714653663538  C 21.7219753675402 54.1714653663538  28.0400060309694 52.3046393125842  28.0400060309694 52.3046393125842  C 28.0400060309694 52.3046393125842  30.991173295107 48.8148615912602  30.991173295107 48.8148615912602  C 30.991173295107 48.8148615912602  40.0153582688415 46.0437579461269  40.0153582688415 46.0437579461269  C 40.0153582688415 46.0437579461269  40.3484657678721 40.8274358976169  40.3484657678721 40.8274358976169  C 40.3484657678721 40.8274358976169  44.8137580276027 40.210196300648  44.8137580276027 40.210196300648  C 44.8137580276027 40.210196300648  48.3072573356164 37.5858489233255  48.3072573356164 37.5858489233255  C 48.3072573356164 37.5858489233255  58.4078475334909 36.3880587963404  58.4078475334909 36.3880587963404  C 58.4078475334909 36.3880587963404  59.8228661657361 33.6147969707983  59.8228661657361 33.6147969707983  C 59.8228661657361 33.6147969707983  57.7884327625663 32.0932797824658  57.7884327625663 32.0932797824658  C 57.7884327625663 32.0932797824658  55.1235727703227 24.4770611191675  55.1235727703227 24.4770611191675  C 55.1235727703227 24.4770611191675  54.6638293625699 20.046316739527  54.6638293625699 20.046316739527  C 54.6638293625699 20.046316739527  51.7539564164938 15.3457998087636  51.7539564164938 15.3457998087636  C 51.7539564164938 15.3457998087636  59.1731688948996 11.30352790274  59.1731688948996 11.30352790274  C 59.1731688948996 11.30352790274  67.5201270524235 10.0129360181686  67.5201270524235 10.0129360181686  C 67.5201270524235 10.0129360181686  72.3928565836957 6.9375289353689  72.3928565836957 6.9375289353689  C 72.3928565836957 6.9375289353689  79.8258338347887 4.65633224307475  79.8258338347887 4.65633224307475  C 79.8258338347887 4.65633224307475  94.9078737967127 3.31826038950577  94.9078737967127 3.31826038950577  C 94.9078737967127 3.31826038950577  107.676076941368 2.70533715335487  107.676076941368 2.70533715335487  C 107.676076941368 2.70533715335487  111.568754657311 3.8232746052076  111.568754657311 3.8232746052076  C 111.568754657311 3.8232746052076  118.836554636158 0.853618362448054  118.836554636158 0.853618362448054  C 118.836554636158 0.853618362448054  127.084406430334 0.795347491405597  127.084406430334 0.795347491405597  C 127.084406430334 0.795347491405597  130.225527557555 2.55210634431701  130.225527557555 2.55210634431701  C 130.225527557555 2.55210634431701  135.502941405831 2.09241391720388  135.502941405831 2.09241391720388  C 135.502941405831 2.09241391720388  133.933757319489 5.94908230805512  133.933757319489 5.94908230805512  C 133.933757319489 5.94908230805512  135.15882208865 13.0451794927887  135.15882208865 13.0451794927887  C 135.15882208865 13.0451794927887  133.341872093939 19.1139828028467  133.341872093939 19.1139828028467  C 133.341872093939 19.1139828028467  128.584766653239 23.1864692345962  128.584766653239 23.1864692345962  C 128.584766653239 23.1864692345962  129.264746423987 28.6401911280943  129.264746423987 28.6401911280943  C 129.264746423987 28.6401911280943  135.577271178342 32.9220210595149  135.577271178342 32.9220210595149  C 135.577271178342 32.9220210595149  135.64334208724 34.6528817475187  135.64334208724 34.6528817475187  C 135.64334208724 34.6528817475187  140.403200482477 37.527578052283  140.403200482477 37.527578052283  C 140.403200482477 37.527578052283  143.69298115472 50.1680407076918  143.69298115472 50.1680407076918  C 143.69298115472 50.1680407076918  146.192663874718 56.2972730692015  146.192663874718 56.2972730692015  C 146.192663874718 56.2972730692015  146.611112964409 59.50217097654  146.611112964409 59.50217097654  C 146.611112964409 59.50217097654  145.251153422912 66.659759470372  145.251153422912 66.659759470372  C 145.251153422912 66.659759470372  145.810003194013 69.7675392593063  145.810003194013 69.7675392593063  C 145.810003194013 69.7675392593063  144.827198424146 73.4774513823465  144.827198424146 73.4774513823465  C 144.827198424146 73.4774513823465  145.50167228582 77.7182758859968  145.50167228582 77.7182758859968  C 145.50167228582 77.7182758859968  142.437633885647 80.5239104176735  142.437633885647 80.5239104176735  C 142.437633885647 80.5239104176735  147.002032508726 85.3927654203377  147.002032508726 85.3927654203377  C 147.002032508726 85.3927654203377  147.291092735157 88.2415635601942  147.291092735157 88.2415635601942  C 147.291092735157 88.2415635601942  150.038541363524 91.9342102399628  150.038541363524 91.9342102399628  C 150.038541363524 91.9342102399628  153.644911807573 90.7234710305238  153.644911807573 90.7234710305238  C 153.644911807573 90.7234710305238  159.737200198932 93.7902453916873  159.737200198932 93.7902453916873  Z " stroke-width="2" stroke="#505050" fill="none" stroke-opacity="0.211764705882353" transform="matrix(1 0 0 1 1726 1793 )" mask="url(#clip626)" />
  </g>
</svg>