<?xml version="1.0" encoding="utf-8"?>
<svg version="1.1" xmlns:xlink="http://www.w3.org/1999/xlink" width="48px" height="43px" xmlns="http://www.w3.org/2000/svg">
  <defs>
    <mask fill="white" id="clip627">
      <path d="M 7.5726808964539 34.6366266416217  C 7.5726808964539 34.6366266416217  6.65869999002325 32.0915201717565  6.65869999002325 32.0915201717565  C 6.65869999002325 32.0915201717565  10.7661081598865 27.5208509300091  10.7661081598865 27.5208509300091  C 10.7661081598865 27.5208509300091  9.09506475565922 24.85298308003  9.09506475565922 24.85298308003  C 9.09506475565922 24.85298308003  6.14665044605908 27.689647827666  6.14665044605908 27.689647827666  C 6.14665044605908 27.689647827666  1.52168682315664 25.0130113076787  1.52168682315664 25.0130113076787  C 1.52168682315664 25.0130113076787  3.08811795496104 23.2899676510777  3.08811795496104 23.2899676510777  C 3.08811795496104 23.2899676510777  1.78597045875108 16.1555756133355  1.78597045875108 16.1555756133355  C 1.78597045875108 16.1555756133355  4.48937181451902 15.232673094978  4.48937181451902 15.232673094978  C 4.48937181451902 15.232673094978  5.90989635583901 11.4292624789435  5.90989635583901 11.4292624789435  C 5.90989635583901 11.4292624789435  8.83078112006478 7.49870614779094  8.83078112006478 7.49870614779094  C 8.83078112006478 7.49870614779094  8.29395498526378 5.00621169797475  8.29395498526378 5.00621169797475  C 8.29395498526378 5.00621169797475  12.5224931547746 3.69529553175682  12.5224931547746 3.69529553175682  C 12.5224931547746 3.69529553175682  17.8274365484249 1.2663739394997  17.8274365484249 1.2663739394997  C 17.8274365484249 1.2663739394997  27.5494740259494 4.75192026773853  27.5494740259494 4.75192026773853  C 27.5494740259494 4.75192026773853  28.9865162944941 4.6554648976488  28.9865162944941 4.6554648976488  C 28.9865162944941 4.6554648976488  30.8695371981044 7.28168156508959  30.8695371981044 7.28168156508959  C 30.8695371981044 7.28168156508959  37.4188160426786 8.12785822087572  37.4188160426786 8.12785822087572  C 37.4188160426786 8.12785822087572  39.6129208090199 7.15892018497533  39.6129208090199 7.15892018497533  C 39.6129208090199 7.15892018497533  43.40098625254 9.18009862185358  43.40098625254 9.18009862185358  C 43.40098625254 9.18009862185358  46.70453169747 10.626929173198  46.70453169747 10.626929173198  C 46.70453169747 10.626929173198  47.7836898761475 15.2633634400064  47.7836898761475 15.2633634400064  C 47.7836898761475 15.2633634400064  45.3803605649605 19.2333787861954  45.3803605649605 19.2333787861954  C 45.3803605649605 19.2333787861954  36.9618255894632 27.2227161497322  36.9618255894632 27.2227161497322  C 36.9618255894632 27.2227161497322  27.6816158437466 29.6341004019729  27.6816158437466 29.6341004019729  C 27.6816158437466 29.6341004019729  20.9520399484215 34.9566830969189  20.9520399484215 34.9566830969189  C 20.9520399484215 34.9566830969189  19.49022108904 39.0845345032548  19.49022108904 39.0845345032548  C 19.49022108904 39.0845345032548  15.1267881471945 41.6055271305975  15.1267881471945 41.6055271305975  C 15.1267881471945 41.6055271305975  11.8865606566253 38.512378785223  11.8865606566253 38.512378785223  C 11.8865606566253 38.512378785223  8.77021612024123 37.8503441996079  8.77021612024123 37.8503441996079  C 8.77021612024123 37.8503441996079  5.57954181134596 38.3391975525623  5.57954181134596 38.3391975525623  C 5.57954181134596 38.3391975525623  5.37031726650048 36.0944180304762  5.37031726650048 36.0944180304762  C 5.37031726650048 36.0944180304762  7.5726808964539 34.6366266416217  7.5726808964539 34.6366266416217  Z " fill-rule="evenodd" />
    </mask>
  </defs>
  <g transform="matrix(1 0 0 1 -1168 -2023 )">
    <path d="M 7.5726808964539 34.6366266416217  C 7.5726808964539 34.6366266416217  6.65869999002325 32.0915201717565  6.65869999002325 32.0915201717565  C 6.65869999002325 32.0915201717565  10.7661081598865 27.5208509300091  10.7661081598865 27.5208509300091  C 10.7661081598865 27.5208509300091  9.09506475565922 24.85298308003  9.09506475565922 24.85298308003  C 9.09506475565922 24.85298308003  6.14665044605908 27.689647827666  6.14665044605908 27.689647827666  C 6.14665044605908 27.689647827666  1.52168682315664 25.0130113076787  1.52168682315664 25.0130113076787  C 1.52168682315664 25.0130113076787  3.08811795496104 23.2899676510777  3.08811795496104 23.2899676510777  C 3.08811795496104 23.2899676510777  1.78597045875108 16.1555756133355  1.78597045875108 16.1555756133355  C 1.78597045875108 16.1555756133355  4.48937181451902 15.232673094978  4.48937181451902 15.232673094978  C 4.48937181451902 15.232673094978  5.90989635583901 11.4292624789435  5.90989635583901 11.4292624789435  C 5.90989635583901 11.4292624789435  8.83078112006478 7.49870614779094  8.83078112006478 7.49870614779094  C 8.83078112006478 7.49870614779094  8.29395498526378 5.00621169797475  8.29395498526378 5.00621169797475  C 8.29395498526378 5.00621169797475  12.5224931547746 3.69529553175682  12.5224931547746 3.69529553175682  C 12.5224931547746 3.69529553175682  17.8274365484249 1.2663739394997  17.8274365484249 1.2663739394997  C 17.8274365484249 1.2663739394997  27.5494740259494 4.75192026773853  27.5494740259494 4.75192026773853  C 27.5494740259494 4.75192026773853  28.9865162944941 4.6554648976488  28.9865162944941 4.6554648976488  C 28.9865162944941 4.6554648976488  30.8695371981044 7.28168156508959  30.8695371981044 7.28168156508959  C 30.8695371981044 7.28168156508959  37.4188160426786 8.12785822087572  37.4188160426786 8.12785822087572  C 37.4188160426786 8.12785822087572  39.6129208090199 7.15892018497533  39.6129208090199 7.15892018497533  C 39.6129208090199 7.15892018497533  43.40098625254 9.18009862185358  43.40098625254 9.18009862185358  C 43.40098625254 9.18009862185358  46.70453169747 10.626929173198  46.70453169747 10.626929173198  C 46.70453169747 10.626929173198  47.7836898761475 15.2633634400064  47.7836898761475 15.2633634400064  C 47.7836898761475 15.2633634400064  45.3803605649605 19.2333787861954  45.3803605649605 19.2333787861954  C 45.3803605649605 19.2333787861954  36.9618255894632 27.2227161497322  36.9618255894632 27.2227161497322  C 36.9618255894632 27.2227161497322  27.6816158437466 29.6341004019729  27.6816158437466 29.6341004019729  C 27.6816158437466 29.6341004019729  20.9520399484215 34.9566830969189  20.9520399484215 34.9566830969189  C 20.9520399484215 34.9566830969189  19.49022108904 39.0845345032548  19.49022108904 39.0845345032548  C 19.49022108904 39.0845345032548  15.1267881471945 41.6055271305975  15.1267881471945 41.6055271305975  C 15.1267881471945 41.6055271305975  11.8865606566253 38.512378785223  11.8865606566253 38.512378785223  C 11.8865606566253 38.512378785223  8.77021612024123 37.8503441996079  8.77021612024123 37.8503441996079  C 8.77021612024123 37.8503441996079  5.57954181134596 38.3391975525623  5.57954181134596 38.3391975525623  C 5.57954181134596 38.3391975525623  5.37031726650048 36.0944180304762  5.37031726650048 36.0944180304762  C 5.37031726650048 36.0944180304762  7.5726808964539 34.6366266416217  7.5726808964539 34.6366266416217  Z " fill-rule="nonzero" fill="#f2f2f2" stroke="none" transform="matrix(1 0 0 1 1168 2023 )" />
    <path d="M 7.5726808964539 34.6366266416217  C 7.5726808964539 34.6366266416217  6.65869999002325 32.0915201717565  6.65869999002325 32.0915201717565  C 6.65869999002325 32.0915201717565  10.7661081598865 27.5208509300091  10.7661081598865 27.5208509300091  C 10.7661081598865 27.5208509300091  9.09506475565922 24.85298308003  9.09506475565922 24.85298308003  C 9.09506475565922 24.85298308003  6.14665044605908 27.689647827666  6.14665044605908 27.689647827666  C 6.14665044605908 27.689647827666  1.52168682315664 25.0130113076787  1.52168682315664 25.0130113076787  C 1.52168682315664 25.0130113076787  3.08811795496104 23.2899676510777  3.08811795496104 23.2899676510777  C 3.08811795496104 23.2899676510777  1.78597045875108 16.1555756133355  1.78597045875108 16.1555756133355  C 1.78597045875108 16.1555756133355  4.48937181451902 15.232673094978  4.48937181451902 15.232673094978  C 4.48937181451902 15.232673094978  5.90989635583901 11.4292624789435  5.90989635583901 11.4292624789435  C 5.90989635583901 11.4292624789435  8.83078112006478 7.49870614779094  8.83078112006478 7.49870614779094  C 8.83078112006478 7.49870614779094  8.29395498526378 5.00621169797475  8.29395498526378 5.00621169797475  C 8.29395498526378 5.00621169797475  12.5224931547746 3.69529553175682  12.5224931547746 3.69529553175682  C 12.5224931547746 3.69529553175682  17.8274365484249 1.2663739394997  17.8274365484249 1.2663739394997  C 17.8274365484249 1.2663739394997  27.5494740259494 4.75192026773853  27.5494740259494 4.75192026773853  C 27.5494740259494 4.75192026773853  28.9865162944941 4.6554648976488  28.9865162944941 4.6554648976488  C 28.9865162944941 4.6554648976488  30.8695371981044 7.28168156508959  30.8695371981044 7.28168156508959  C 30.8695371981044 7.28168156508959  37.4188160426786 8.12785822087572  37.4188160426786 8.12785822087572  C 37.4188160426786 8.12785822087572  39.6129208090199 7.15892018497533  39.6129208090199 7.15892018497533  C 39.6129208090199 7.15892018497533  43.40098625254 9.18009862185358  43.40098625254 9.18009862185358  C 43.40098625254 9.18009862185358  46.70453169747 10.626929173198  46.70453169747 10.626929173198  C 46.70453169747 10.626929173198  47.7836898761475 15.2633634400064  47.7836898761475 15.2633634400064  C 47.7836898761475 15.2633634400064  45.3803605649605 19.2333787861954  45.3803605649605 19.2333787861954  C 45.3803605649605 19.2333787861954  36.9618255894632 27.2227161497322  36.9618255894632 27.2227161497322  C 36.9618255894632 27.2227161497322  27.6816158437466 29.6341004019729  27.6816158437466 29.6341004019729  C 27.6816158437466 29.6341004019729  20.9520399484215 34.9566830969189  20.9520399484215 34.9566830969189  C 20.9520399484215 34.9566830969189  19.49022108904 39.0845345032548  19.49022108904 39.0845345032548  C 19.49022108904 39.0845345032548  15.1267881471945 41.6055271305975  15.1267881471945 41.6055271305975  C 15.1267881471945 41.6055271305975  11.8865606566253 38.512378785223  11.8865606566253 38.512378785223  C 11.8865606566253 38.512378785223  8.77021612024123 37.8503441996079  8.77021612024123 37.8503441996079  C 8.77021612024123 37.8503441996079  5.57954181134596 38.3391975525623  5.57954181134596 38.3391975525623  C 5.57954181134596 38.3391975525623  5.37031726650048 36.0944180304762  5.37031726650048 36.0944180304762  C 5.37031726650048 36.0944180304762  7.5726808964539 34.6366266416217  7.5726808964539 34.6366266416217  Z " stroke-width="2" stroke="#505050" fill="none" stroke-opacity="0.211764705882353" transform="matrix(1 0 0 1 1168 2023 )" mask="url(#clip627)" />
  </g>
</svg>