<?xml version="1.0" encoding="utf-8"?>
<svg version="1.1" xmlns:xlink="http://www.w3.org/1999/xlink" width="41px" height="26px" xmlns="http://www.w3.org/2000/svg">
  <defs>
    <mask fill="white" id="clip628">
      <path d="M 15.1145455269932 20.3983021170652  C 15.1145455269932 20.3983021170652  8.37613870569658 22.356138608693  8.37613870569658 22.356138608693  C 8.37613870569658 22.356138608693  9.29321668598217 15.7794921572466  9.29321668598217 15.7794921572466  C 9.29321668598217 15.7794921572466  6.38396315467669 17.1941869124872  6.38396315467669 17.1941869124872  C 6.38396315467669 17.1941869124872  1.36401937951496 11.6648941433806  1.36401937951496 11.6648941433806  C 1.36401937951496 11.6648941433806  0.67550544970058 5.1114048977491  0.67550544970058 5.1114048977491  C 0.67550544970058 5.1114048977491  10.6815316592139 1.89465848999932  10.6815316592139 1.89465848999932  C 10.6815316592139 1.89465848999932  22.6980529711152 0.206287666036367  22.6980529711152 0.206287666036367  C 22.6980529711152 0.206287666036367  31.2819028665857 2.12623054814882  31.2819028665857 2.12623054814882  C 31.2819028665857 2.12623054814882  39.4481295587264 1.78308286198175  39.4481295587264 1.78308286198175  C 39.4481295587264 1.78308286198175  40.638920043897 3.80407536946863  40.638920043897 3.80407536946863  C 40.638920043897 3.80407536946863  35.0094721341456 10.3975634251441  35.0094721341456 10.3975634251441  C 35.0094721341456 10.3975634251441  37.3543699852752 22.3729802129222  37.3543699852752 22.3729802129222  C 37.3543699852752 22.3729802129222  33.9654141258207 25.8655078899227  33.9654141258207 25.8655078899227  C 33.9654141258207 25.8655078899227  27.4414624629908 25.846561085165  27.4414624629908 25.846561085165  C 27.4414624629908 25.846561085165  18.5825111816721 21.7582616585615  18.5825111816721 21.7582616585615  C 18.5825111816721 21.7582616585615  15.1145455269932 20.3983021170652  15.1145455269932 20.3983021170652  Z " fill-rule="evenodd" />
    </mask>
  </defs>
  <g transform="matrix(1 0 0 1 -1971 -1587 )">
    <path d="M 15.1145455269932 20.3983021170652  C 15.1145455269932 20.3983021170652  8.37613870569658 22.356138608693  8.37613870569658 22.356138608693  C 8.37613870569658 22.356138608693  9.29321668598217 15.7794921572466  9.29321668598217 15.7794921572466  C 9.29321668598217 15.7794921572466  6.38396315467669 17.1941869124872  6.38396315467669 17.1941869124872  C 6.38396315467669 17.1941869124872  1.36401937951496 11.6648941433806  1.36401937951496 11.6648941433806  C 1.36401937951496 11.6648941433806  0.67550544970058 5.1114048977491  0.67550544970058 5.1114048977491  C 0.67550544970058 5.1114048977491  10.6815316592139 1.89465848999932  10.6815316592139 1.89465848999932  C 10.6815316592139 1.89465848999932  22.6980529711152 0.206287666036367  22.6980529711152 0.206287666036367  C 22.6980529711152 0.206287666036367  31.2819028665857 2.12623054814882  31.2819028665857 2.12623054814882  C 31.2819028665857 2.12623054814882  39.4481295587264 1.78308286198175  39.4481295587264 1.78308286198175  C 39.4481295587264 1.78308286198175  40.638920043897 3.80407536946863  40.638920043897 3.80407536946863  C 40.638920043897 3.80407536946863  35.0094721341456 10.3975634251441  35.0094721341456 10.3975634251441  C 35.0094721341456 10.3975634251441  37.3543699852752 22.3729802129222  37.3543699852752 22.3729802129222  C 37.3543699852752 22.3729802129222  33.9654141258207 25.8655078899227  33.9654141258207 25.8655078899227  C 33.9654141258207 25.8655078899227  27.4414624629908 25.846561085165  27.4414624629908 25.846561085165  C 27.4414624629908 25.846561085165  18.5825111816721 21.7582616585615  18.5825111816721 21.7582616585615  C 18.5825111816721 21.7582616585615  15.1145455269932 20.3983021170652  15.1145455269932 20.3983021170652  Z " fill-rule="nonzero" fill="#81ecec" stroke="none" transform="matrix(1 0 0 1 1971 1587 )" />
    <path d="M 15.1145455269932 20.3983021170652  C 15.1145455269932 20.3983021170652  8.37613870569658 22.356138608693  8.37613870569658 22.356138608693  C 8.37613870569658 22.356138608693  9.29321668598217 15.7794921572466  9.29321668598217 15.7794921572466  C 9.29321668598217 15.7794921572466  6.38396315467669 17.1941869124872  6.38396315467669 17.1941869124872  C 6.38396315467669 17.1941869124872  1.36401937951496 11.6648941433806  1.36401937951496 11.6648941433806  C 1.36401937951496 11.6648941433806  0.67550544970058 5.1114048977491  0.67550544970058 5.1114048977491  C 0.67550544970058 5.1114048977491  10.6815316592139 1.89465848999932  10.6815316592139 1.89465848999932  C 10.6815316592139 1.89465848999932  22.6980529711152 0.206287666036367  22.6980529711152 0.206287666036367  C 22.6980529711152 0.206287666036367  31.2819028665857 2.12623054814882  31.2819028665857 2.12623054814882  C 31.2819028665857 2.12623054814882  39.4481295587264 1.78308286198175  39.4481295587264 1.78308286198175  C 39.4481295587264 1.78308286198175  40.638920043897 3.80407536946863  40.638920043897 3.80407536946863  C 40.638920043897 3.80407536946863  35.0094721341456 10.3975634251441  35.0094721341456 10.3975634251441  C 35.0094721341456 10.3975634251441  37.3543699852752 22.3729802129222  37.3543699852752 22.3729802129222  C 37.3543699852752 22.3729802129222  33.9654141258207 25.8655078899227  33.9654141258207 25.8655078899227  C 33.9654141258207 25.8655078899227  27.4414624629908 25.846561085165  27.4414624629908 25.846561085165  C 27.4414624629908 25.846561085165  18.5825111816721 21.7582616585615  18.5825111816721 21.7582616585615  C 18.5825111816721 21.7582616585615  15.1145455269932 20.3983021170652  15.1145455269932 20.3983021170652  Z " stroke-width="2" stroke="#505050" fill="none" stroke-opacity="0.211764705882353" transform="matrix(1 0 0 1 1971 1587 )" mask="url(#clip628)" />
  </g>
</svg>