<?xml version="1.0" encoding="utf-8"?>
<svg version="1.1" xmlns:xlink="http://www.w3.org/1999/xlink" width="97px" height="67px" xmlns="http://www.w3.org/2000/svg">
  <defs>
    <mask fill="white" id="clip632">
      <path d="M 76.2073957518467 2.99348233658799  C 76.2073957518467 2.99348233658799  81.2293185642248 14.9075333193532  81.2293185642248 14.9075333193532  C 81.2293185642248 14.9075333193532  79.0821263905114 17.6656736548771  79.0821263905114 17.6656736548771  C 79.0821263905114 17.6656736548771  77.4390339022507 22.8194926488618  77.4390339022507 22.8194926488618  C 77.4390339022507 22.8194926488618  75.3599633076527 26.3497406988406  75.3599633076527 26.3497406988406  C 75.3599633076527 26.3497406988406  73.5779027979973 27.5293497070352  73.5779027979973 27.5293497070352  C 73.5779027979973 27.5293497070352  71.0328806022505 25.3460006700496  71.0328806022505 25.3460006700496  C 71.0328806022505 25.3460006700496  67.5859286990182 22.3176226344663  67.5859286990182 22.3176226344663  C 67.5859286990182 22.3176226344663  62.1334775066317 12.4989861989848  62.1334775066317 12.4989861989848  C 62.1334775066317 12.4989861989848  61.3487169152237 13.1252513451539  61.3487169152237 13.1252513451539  C 61.3487169152237 13.1252513451539  64.5150079125016 20.3594716808633  64.5150079125016 20.3594716808633  C 64.5150079125016 20.3594716808633  69.2044974187968 27.184045979182  69.2044974187968 27.184045979182  C 69.2044974187968 27.184045979182  74.9784824646071 39.1913765830182  74.9784824646071 39.1913765830182  C 74.9784824646071 39.1913765830182  77.8014407031442 42.8052696353962  77.8014407031442 42.8052696353962  C 77.8014407031442 42.8052696353962  80.253817551294 46.5414130758962  80.253817551294 46.5414130758962  C 80.253817551294 46.5414130758962  87.1095732734548 53.8163835409796  87.1095732734548 53.8163835409796  C 87.1095732734548 53.8163835409796  85.5918244907665 54.9573871634514  85.5918244907665 54.9573871634514  C 85.5918244907665 54.9573871634514  85.8370621755814 59.1911111310446  85.8370621755814 59.1911111310446  C 85.8370621755814 59.1911111310446  94.7364652712007 65.0076559132694  94.7364652712007 65.0076559132694  C 94.7364652712007 65.0076559132694  96.0798228113535 66.3288180024472  96.0798228113535 66.3288180024472  C 96.0798228113535 66.3288180024472  65.7766195577162 66.3288180024472  65.7766195577162 66.3288180024472  C 65.7766195577162 66.3288180024472  34.1532413531799 66.3288180024472  34.1532413531799 66.3288180024472  C 34.1532413531799 66.3288180024472  3.43858376168644 66.3288180024472  3.43858376168644 66.3288180024472  C 3.43858376168644 66.3288180024472  3.43858376168644 42.2476362860679  3.43858376168644 42.2476362860679  C 3.43858376168644 42.2476362860679  3.43858376168644 16.7112627300651  3.43858376168644 16.7112627300651  C 3.43858376168644 16.7112627300651  1.14697384024871 11.1649556478994  1.14697384024871 11.1649556478994  C 1.14697384024871 11.1649556478994  3.11432504509759 6.88404731997868  3.11432504509759 6.88404731997868  C 3.11432504509759 6.88404731997868  1.93173443165669 3.90285364472341  1.93173443165669 3.90285364472341  C 1.93173443165669 3.90285364472341  4.70019540690126 0.542040343194441  4.70019540690126 0.542040343194441  C 4.70019540690126 0.542040343194441  14.8639350108996 0.424079442374953  14.8639350108996 0.424079442374953  C 14.8639350108996 0.424079442374953  22.2156158290197 2.27928270071743  22.2156158290197 2.27928270071743  C 22.2156158290197 2.27928270071743  29.8016348792963 4.34681558053488  29.8016348792963 4.34681558053488  C 29.8016348792963 4.34681558053488  33.3385072669612 5.43205586807382  33.3385072669612 5.43205586807382  C 33.3385072669612 5.43205586807382  39.221486839356 3.22082516362182  39.221486839356 3.22082516362182  C 39.221486839356 3.22082516362182  42.3659789313169 1.21334510603974  42.3659789313169 1.21334510603974  C 42.3659789313169 1.21334510603974  51.0841573741345 0.634264320198772  51.0841573741345 0.634264320198772  C 51.0841573741345 0.634264320198772  56.5175345243686 1.52004344817037  56.5175345243686 1.52004344817037  C 56.5175345243686 1.52004344817037  58.5966051189668 4.99023867591378  58.5966051189668 4.99023867591378  C 58.5966051189668 4.99023867591378  60.3704910391284 2.7060866873187  60.3704910391284 2.7060866873187  C 60.3704910391284 2.7060866873187  66.4932585700093 4.35753929879117  66.4932585700093 4.35753929879117  C 66.4932585700093 4.35753929879117  72.4498094478485 4.75431687427463  72.4498094478485 4.75431687427463  C 72.4498094478485 4.75431687427463  76.2073957518467 2.99348233658799  76.2073957518467 2.99348233658799  Z " fill-rule="evenodd" />
    </mask>
  </defs>
  <g transform="matrix(1 0 0 1 -1982 -1834 )">
    <path d="M 76.2073957518467 2.99348233658799  C 76.2073957518467 2.99348233658799  81.2293185642248 14.9075333193532  81.2293185642248 14.9075333193532  C 81.2293185642248 14.9075333193532  79.0821263905114 17.6656736548771  79.0821263905114 17.6656736548771  C 79.0821263905114 17.6656736548771  77.4390339022507 22.8194926488618  77.4390339022507 22.8194926488618  C 77.4390339022507 22.8194926488618  75.3599633076527 26.3497406988406  75.3599633076527 26.3497406988406  C 75.3599633076527 26.3497406988406  73.5779027979973 27.5293497070352  73.5779027979973 27.5293497070352  C 73.5779027979973 27.5293497070352  71.0328806022505 25.3460006700496  71.0328806022505 25.3460006700496  C 71.0328806022505 25.3460006700496  67.5859286990182 22.3176226344663  67.5859286990182 22.3176226344663  C 67.5859286990182 22.3176226344663  62.1334775066317 12.4989861989848  62.1334775066317 12.4989861989848  C 62.1334775066317 12.4989861989848  61.3487169152237 13.1252513451539  61.3487169152237 13.1252513451539  C 61.3487169152237 13.1252513451539  64.5150079125016 20.3594716808633  64.5150079125016 20.3594716808633  C 64.5150079125016 20.3594716808633  69.2044974187968 27.184045979182  69.2044974187968 27.184045979182  C 69.2044974187968 27.184045979182  74.9784824646071 39.1913765830182  74.9784824646071 39.1913765830182  C 74.9784824646071 39.1913765830182  77.8014407031442 42.8052696353962  77.8014407031442 42.8052696353962  C 77.8014407031442 42.8052696353962  80.253817551294 46.5414130758962  80.253817551294 46.5414130758962  C 80.253817551294 46.5414130758962  87.1095732734548 53.8163835409796  87.1095732734548 53.8163835409796  C 87.1095732734548 53.8163835409796  85.5918244907665 54.9573871634514  85.5918244907665 54.9573871634514  C 85.5918244907665 54.9573871634514  85.8370621755814 59.1911111310446  85.8370621755814 59.1911111310446  C 85.8370621755814 59.1911111310446  94.7364652712007 65.0076559132694  94.7364652712007 65.0076559132694  C 94.7364652712007 65.0076559132694  96.0798228113535 66.3288180024472  96.0798228113535 66.3288180024472  C 96.0798228113535 66.3288180024472  65.7766195577162 66.3288180024472  65.7766195577162 66.3288180024472  C 65.7766195577162 66.3288180024472  34.1532413531799 66.3288180024472  34.1532413531799 66.3288180024472  C 34.1532413531799 66.3288180024472  3.43858376168644 66.3288180024472  3.43858376168644 66.3288180024472  C 3.43858376168644 66.3288180024472  3.43858376168644 42.2476362860679  3.43858376168644 42.2476362860679  C 3.43858376168644 42.2476362860679  3.43858376168644 16.7112627300651  3.43858376168644 16.7112627300651  C 3.43858376168644 16.7112627300651  1.14697384024871 11.1649556478994  1.14697384024871 11.1649556478994  C 1.14697384024871 11.1649556478994  3.11432504509759 6.88404731997868  3.11432504509759 6.88404731997868  C 3.11432504509759 6.88404731997868  1.93173443165669 3.90285364472341  1.93173443165669 3.90285364472341  C 1.93173443165669 3.90285364472341  4.70019540690126 0.542040343194441  4.70019540690126 0.542040343194441  C 4.70019540690126 0.542040343194441  14.8639350108996 0.424079442374953  14.8639350108996 0.424079442374953  C 14.8639350108996 0.424079442374953  22.2156158290197 2.27928270071743  22.2156158290197 2.27928270071743  C 22.2156158290197 2.27928270071743  29.8016348792963 4.34681558053488  29.8016348792963 4.34681558053488  C 29.8016348792963 4.34681558053488  33.3385072669612 5.43205586807382  33.3385072669612 5.43205586807382  C 33.3385072669612 5.43205586807382  39.221486839356 3.22082516362182  39.221486839356 3.22082516362182  C 39.221486839356 3.22082516362182  42.3659789313169 1.21334510603974  42.3659789313169 1.21334510603974  C 42.3659789313169 1.21334510603974  51.0841573741345 0.634264320198772  51.0841573741345 0.634264320198772  C 51.0841573741345 0.634264320198772  56.5175345243686 1.52004344817037  56.5175345243686 1.52004344817037  C 56.5175345243686 1.52004344817037  58.5966051189668 4.99023867591378  58.5966051189668 4.99023867591378  C 58.5966051189668 4.99023867591378  60.3704910391284 2.7060866873187  60.3704910391284 2.7060866873187  C 60.3704910391284 2.7060866873187  66.4932585700093 4.35753929879117  66.4932585700093 4.35753929879117  C 66.4932585700093 4.35753929879117  72.4498094478485 4.75431687427463  72.4498094478485 4.75431687427463  C 72.4498094478485 4.75431687427463  76.2073957518467 2.99348233658799  76.2073957518467 2.99348233658799  Z " fill-rule="nonzero" fill="#f2f2f2" stroke="none" transform="matrix(1 0 0 1 1982 1834 )" />
    <path d="M 76.2073957518467 2.99348233658799  C 76.2073957518467 2.99348233658799  81.2293185642248 14.9075333193532  81.2293185642248 14.9075333193532  C 81.2293185642248 14.9075333193532  79.0821263905114 17.6656736548771  79.0821263905114 17.6656736548771  C 79.0821263905114 17.6656736548771  77.4390339022507 22.8194926488618  77.4390339022507 22.8194926488618  C 77.4390339022507 22.8194926488618  75.3599633076527 26.3497406988406  75.3599633076527 26.3497406988406  C 75.3599633076527 26.3497406988406  73.5779027979973 27.5293497070352  73.5779027979973 27.5293497070352  C 73.5779027979973 27.5293497070352  71.0328806022505 25.3460006700496  71.0328806022505 25.3460006700496  C 71.0328806022505 25.3460006700496  67.5859286990182 22.3176226344663  67.5859286990182 22.3176226344663  C 67.5859286990182 22.3176226344663  62.1334775066317 12.4989861989848  62.1334775066317 12.4989861989848  C 62.1334775066317 12.4989861989848  61.3487169152237 13.1252513451539  61.3487169152237 13.1252513451539  C 61.3487169152237 13.1252513451539  64.5150079125016 20.3594716808633  64.5150079125016 20.3594716808633  C 64.5150079125016 20.3594716808633  69.2044974187968 27.184045979182  69.2044974187968 27.184045979182  C 69.2044974187968 27.184045979182  74.9784824646071 39.1913765830182  74.9784824646071 39.1913765830182  C 74.9784824646071 39.1913765830182  77.8014407031442 42.8052696353962  77.8014407031442 42.8052696353962  C 77.8014407031442 42.8052696353962  80.253817551294 46.5414130758962  80.253817551294 46.5414130758962  C 80.253817551294 46.5414130758962  87.1095732734548 53.8163835409796  87.1095732734548 53.8163835409796  C 87.1095732734548 53.8163835409796  85.5918244907665 54.9573871634514  85.5918244907665 54.9573871634514  C 85.5918244907665 54.9573871634514  85.8370621755814 59.1911111310446  85.8370621755814 59.1911111310446  C 85.8370621755814 59.1911111310446  94.7364652712007 65.0076559132694  94.7364652712007 65.0076559132694  C 94.7364652712007 65.0076559132694  96.0798228113535 66.3288180024472  96.0798228113535 66.3288180024472  C 96.0798228113535 66.3288180024472  65.7766195577162 66.3288180024472  65.7766195577162 66.3288180024472  C 65.7766195577162 66.3288180024472  34.1532413531799 66.3288180024472  34.1532413531799 66.3288180024472  C 34.1532413531799 66.3288180024472  3.43858376168644 66.3288180024472  3.43858376168644 66.3288180024472  C 3.43858376168644 66.3288180024472  3.43858376168644 42.2476362860679  3.43858376168644 42.2476362860679  C 3.43858376168644 42.2476362860679  3.43858376168644 16.7112627300651  3.43858376168644 16.7112627300651  C 3.43858376168644 16.7112627300651  1.14697384024871 11.1649556478994  1.14697384024871 11.1649556478994  C 1.14697384024871 11.1649556478994  3.11432504509759 6.88404731997868  3.11432504509759 6.88404731997868  C 3.11432504509759 6.88404731997868  1.93173443165669 3.90285364472341  1.93173443165669 3.90285364472341  C 1.93173443165669 3.90285364472341  4.70019540690126 0.542040343194441  4.70019540690126 0.542040343194441  C 4.70019540690126 0.542040343194441  14.8639350108996 0.424079442374953  14.8639350108996 0.424079442374953  C 14.8639350108996 0.424079442374953  22.2156158290197 2.27928270071743  22.2156158290197 2.27928270071743  C 22.2156158290197 2.27928270071743  29.8016348792963 4.34681558053488  29.8016348792963 4.34681558053488  C 29.8016348792963 4.34681558053488  33.3385072669612 5.43205586807382  33.3385072669612 5.43205586807382  C 33.3385072669612 5.43205586807382  39.221486839356 3.22082516362182  39.221486839356 3.22082516362182  C 39.221486839356 3.22082516362182  42.3659789313169 1.21334510603974  42.3659789313169 1.21334510603974  C 42.3659789313169 1.21334510603974  51.0841573741345 0.634264320198772  51.0841573741345 0.634264320198772  C 51.0841573741345 0.634264320198772  56.5175345243686 1.52004344817037  56.5175345243686 1.52004344817037  C 56.5175345243686 1.52004344817037  58.5966051189668 4.99023867591378  58.5966051189668 4.99023867591378  C 58.5966051189668 4.99023867591378  60.3704910391284 2.7060866873187  60.3704910391284 2.7060866873187  C 60.3704910391284 2.7060866873187  66.4932585700093 4.35753929879117  66.4932585700093 4.35753929879117  C 66.4932585700093 4.35753929879117  72.4498094478485 4.75431687427463  72.4498094478485 4.75431687427463  C 72.4498094478485 4.75431687427463  76.2073957518467 2.99348233658799  76.2073957518467 2.99348233658799  Z " stroke-width="2" stroke="#505050" fill="none" stroke-opacity="0.211764705882353" transform="matrix(1 0 0 1 1982 1834 )" mask="url(#clip632)" />
  </g>
</svg>