<?xml version="1.0" encoding="utf-8"?>
<svg version="1.1" xmlns:xlink="http://www.w3.org/1999/xlink" width="67px" height="48px" xmlns="http://www.w3.org/2000/svg">
  <defs>
    <mask fill="white" id="clip633">
      <path d="M 30.7164792485096 1.06233708588661  C 30.7164792485096 1.06233708588661  30.6215428015933 1.12840799478508  30.6215428015933 1.12840799478508  C 30.6215428015933 1.12840799478508  25.7987712982506 8.17597161063641  25.7987712982506 8.17597161063641  C 25.7987712982506 8.17597161063641  20.7345899727497 10.6756543306336  20.7345899727497 10.6756543306336  C 20.7345899727497 10.6756543306336  17.9868579520037 14.8975854092547  17.9868579520037 14.8975854092547  C 17.9868579520037 14.8975854092547  17.8078349378192 18.5182712168982  17.8078349378192 18.5182712168982  C 17.8078349378192 18.5182712168982  15.7951822631957 22.4649068417748  15.7951822631957 22.4649068417748  C 15.7951822631957 22.4649068417748  13.2346106663703 25.1528744749718  13.2346106663703 25.1528744749718  C 13.2346106663703 25.1528744749718  9.00044513390794 29.4276622807116  9.00044513390794 29.4276622807116  C 9.00044513390794 29.4276622807116  6.38562413884492 34.147327539702  6.38562413884492 34.147327539702  C 6.38562413884492 34.147327539702  6.87658119289702 36.4025478967746  6.87658119289702 36.4025478967746  C 6.87658119289702 36.4025478967746  4.38653381378084 39.8624611594314  4.38653381378084 39.8624611594314  C 4.38653381378084 39.8624611594314  1.46791618858598 41.6683993359933  1.46791618858598 41.6683993359933  C 1.46791618858598 41.6683993359933  1.10715769030445 44.7296847816287  1.10715769030445 44.7296847816287  C 1.10715769030445 44.7296847816287  0.781661300877475 47.51127004626  0.781661300877475 47.51127004626  C 0.781661300877475 47.51127004626  2.43898041704318 45.3155135071964  2.43898041704318 45.3155135071964  C 2.43898041704318 45.3155135071964  32.2219000496091 45.3573584161655  32.2219000496091 45.3573584161655  C 32.2219000496091 45.3573584161655  30.781578526395 35.7902908076474  30.781578526395 35.7902908076474  C 30.781578526395 35.7902908076474  32.6423328859523 32.3634129994396  32.6423328859523 32.3634129994396  C 32.6423328859523 32.3634129994396  41.7385795797849 31.7621677284624  41.7385795797849 31.7621677284624  C 41.7385795797849 31.7621677284624  41.4917448178027 12.8714108696971  41.4917448178027 12.8714108696971  C 41.4917448178027 12.8714108696971  66.4546054169382 13.2303961413796  66.4546054169382 13.2303961413796  C 66.4546054169382 13.2303961413796  66.4763051762333 2.81982326258949  66.4763051762333 2.81982326258949  C 66.4763051762333 2.81982326258949  66.6227785514755 1.48078617557767  66.6227785514755 1.48078617557767  C 66.6227785514755 1.48078617557767  66.6200660815637 1.0315039950674  66.6200660815637 1.0315039950674  C 66.6200660815637 1.0315039950674  30.7164792485096 1.06233708588661  30.7164792485096 1.06233708588661  Z " fill-rule="evenodd" />
    </mask>
  </defs>
  <g transform="matrix(1 0 0 1 -1659 -1860 )">
    <path d="M 30.7164792485096 1.06233708588661  C 30.7164792485096 1.06233708588661  30.6215428015933 1.12840799478508  30.6215428015933 1.12840799478508  C 30.6215428015933 1.12840799478508  25.7987712982506 8.17597161063641  25.7987712982506 8.17597161063641  C 25.7987712982506 8.17597161063641  20.7345899727497 10.6756543306336  20.7345899727497 10.6756543306336  C 20.7345899727497 10.6756543306336  17.9868579520037 14.8975854092547  17.9868579520037 14.8975854092547  C 17.9868579520037 14.8975854092547  17.8078349378192 18.5182712168982  17.8078349378192 18.5182712168982  C 17.8078349378192 18.5182712168982  15.7951822631957 22.4649068417748  15.7951822631957 22.4649068417748  C 15.7951822631957 22.4649068417748  13.2346106663703 25.1528744749718  13.2346106663703 25.1528744749718  C 13.2346106663703 25.1528744749718  9.00044513390794 29.4276622807116  9.00044513390794 29.4276622807116  C 9.00044513390794 29.4276622807116  6.38562413884492 34.147327539702  6.38562413884492 34.147327539702  C 6.38562413884492 34.147327539702  6.87658119289702 36.4025478967746  6.87658119289702 36.4025478967746  C 6.87658119289702 36.4025478967746  4.38653381378084 39.8624611594314  4.38653381378084 39.8624611594314  C 4.38653381378084 39.8624611594314  1.46791618858598 41.6683993359933  1.46791618858598 41.6683993359933  C 1.46791618858598 41.6683993359933  1.10715769030445 44.7296847816287  1.10715769030445 44.7296847816287  C 1.10715769030445 44.7296847816287  0.781661300877475 47.51127004626  0.781661300877475 47.51127004626  C 0.781661300877475 47.51127004626  2.43898041704318 45.3155135071964  2.43898041704318 45.3155135071964  C 2.43898041704318 45.3155135071964  32.2219000496091 45.3573584161655  32.2219000496091 45.3573584161655  C 32.2219000496091 45.3573584161655  30.781578526395 35.7902908076474  30.781578526395 35.7902908076474  C 30.781578526395 35.7902908076474  32.6423328859523 32.3634129994396  32.6423328859523 32.3634129994396  C 32.6423328859523 32.3634129994396  41.7385795797849 31.7621677284624  41.7385795797849 31.7621677284624  C 41.7385795797849 31.7621677284624  41.4917448178027 12.8714108696971  41.4917448178027 12.8714108696971  C 41.4917448178027 12.8714108696971  66.4546054169382 13.2303961413796  66.4546054169382 13.2303961413796  C 66.4546054169382 13.2303961413796  66.4763051762333 2.81982326258949  66.4763051762333 2.81982326258949  C 66.4763051762333 2.81982326258949  66.6227785514755 1.48078617557767  66.6227785514755 1.48078617557767  C 66.6227785514755 1.48078617557767  66.6200660815637 1.0315039950674  66.6200660815637 1.0315039950674  C 66.6200660815637 1.0315039950674  30.7164792485096 1.06233708588661  30.7164792485096 1.06233708588661  Z " fill-rule="nonzero" fill="#f2f2f2" stroke="none" transform="matrix(1 0 0 1 1659 1860 )" />
    <path d="M 30.7164792485096 1.06233708588661  C 30.7164792485096 1.06233708588661  30.6215428015933 1.12840799478508  30.6215428015933 1.12840799478508  C 30.6215428015933 1.12840799478508  25.7987712982506 8.17597161063641  25.7987712982506 8.17597161063641  C 25.7987712982506 8.17597161063641  20.7345899727497 10.6756543306336  20.7345899727497 10.6756543306336  C 20.7345899727497 10.6756543306336  17.9868579520037 14.8975854092547  17.9868579520037 14.8975854092547  C 17.9868579520037 14.8975854092547  17.8078349378192 18.5182712168982  17.8078349378192 18.5182712168982  C 17.8078349378192 18.5182712168982  15.7951822631957 22.4649068417748  15.7951822631957 22.4649068417748  C 15.7951822631957 22.4649068417748  13.2346106663703 25.1528744749718  13.2346106663703 25.1528744749718  C 13.2346106663703 25.1528744749718  9.00044513390794 29.4276622807116  9.00044513390794 29.4276622807116  C 9.00044513390794 29.4276622807116  6.38562413884492 34.147327539702  6.38562413884492 34.147327539702  C 6.38562413884492 34.147327539702  6.87658119289702 36.4025478967746  6.87658119289702 36.4025478967746  C 6.87658119289702 36.4025478967746  4.38653381378084 39.8624611594314  4.38653381378084 39.8624611594314  C 4.38653381378084 39.8624611594314  1.46791618858598 41.6683993359933  1.46791618858598 41.6683993359933  C 1.46791618858598 41.6683993359933  1.10715769030445 44.7296847816287  1.10715769030445 44.7296847816287  C 1.10715769030445 44.7296847816287  0.781661300877475 47.51127004626  0.781661300877475 47.51127004626  C 0.781661300877475 47.51127004626  2.43898041704318 45.3155135071964  2.43898041704318 45.3155135071964  C 2.43898041704318 45.3155135071964  32.2219000496091 45.3573584161655  32.2219000496091 45.3573584161655  C 32.2219000496091 45.3573584161655  30.781578526395 35.7902908076474  30.781578526395 35.7902908076474  C 30.781578526395 35.7902908076474  32.6423328859523 32.3634129994396  32.6423328859523 32.3634129994396  C 32.6423328859523 32.3634129994396  41.7385795797849 31.7621677284624  41.7385795797849 31.7621677284624  C 41.7385795797849 31.7621677284624  41.4917448178027 12.8714108696971  41.4917448178027 12.8714108696971  C 41.4917448178027 12.8714108696971  66.4546054169382 13.2303961413796  66.4546054169382 13.2303961413796  C 66.4546054169382 13.2303961413796  66.4763051762333 2.81982326258949  66.4763051762333 2.81982326258949  C 66.4763051762333 2.81982326258949  66.6227785514755 1.48078617557767  66.6227785514755 1.48078617557767  C 66.6227785514755 1.48078617557767  66.6200660815637 1.0315039950674  66.6200660815637 1.0315039950674  C 66.6200660815637 1.0315039950674  30.7164792485096 1.06233708588661  30.7164792485096 1.06233708588661  Z " stroke-width="2" stroke="#505050" fill="none" stroke-opacity="0.211764705882353" transform="matrix(1 0 0 1 1659 1860 )" mask="url(#clip633)" />
  </g>
</svg>