<?xml version="1.0" encoding="utf-8"?>
<svg version="1.1" xmlns:xlink="http://www.w3.org/1999/xlink" width="57px" height="38px" xmlns="http://www.w3.org/2000/svg">
  <defs>
    <mask fill="white" id="clip634">
      <path d="M 53.655649870074 37.9288497458468  C 53.655649870074 37.9288497458468  50.2903104277586 37.3883530049955  50.2903104277586 37.3883530049955  C 50.2903104277586 37.3883530049955  47.6058847943381 35.3745667608569  47.6058847943381 35.3745667608569  C 47.6058847943381 35.3745667608569  44.3750468451377 31.7174960707433  44.3750468451377 31.7174960707433  C 44.3750468451377 31.7174960707433  40.8920185963467 29.7124275159732  40.8920185963467 29.7124275159732  C 40.8920185963467 29.7124275159732  38.860485627422 27.5504405525687  38.860485627422 27.5504405525687  C 38.860485627422 27.5504405525687  32.0205242796353 25.0375665920795  32.0205242796353 25.0375665920795  C 32.0205242796353 25.0375665920795  24.59914604044 24.9634662324469  24.59914604044 24.9634662324469  C 24.59914604044 24.9634662324469  22.7049166790702 23.6514539824777  22.7049166790702 23.6514539824777  C 22.7049166790702 23.6514539824777  18.0982405398809 25.1269229081074  18.0982405398809 25.1269229081074  C 18.0982405398809 25.1269229081074  13.3290417631771 22.2762384845864  13.3290417631771 22.2762384845864  C 13.3290417631771 22.2762384845864  10.8743895138283 26.9598170978486  10.8743895138283 26.9598170978486  C 10.8743895138283 26.9598170978486  1.72828798200691 25.6499842702214  1.72828798200691 25.6499842702214  C 1.72828798200691 25.6499842702214  0.893257878917845 23.1371103097322  0.893257878917845 23.1371103097322  C 0.893257878917845 23.1371103097322  4.2754100078727 12.2890525999553  4.2754100078727 12.2890525999553  C 4.2754100078727 12.2890525999553  5.0515957077242 8.07840863493827  5.0515957077242 8.07840863493827  C 5.0515957077242 8.07840863493827  7.52586275815274 6.13000506106378  7.52586275815274 6.13000506106378  C 7.52586275815274 6.13000506106378  13.3122290765382 5.08388233683579  13.3122290765382 5.08388233683579  C 13.3122290765382 5.08388233683579  17.2884294667509 1.44424702545922  17.2884294667509 1.44424702545922  C 17.2884294667509 1.44424702545922  21.8502717749019 8.81287396423988  21.8502717749019 8.81287396423988  C 21.8502717749019 8.81287396423988  24.0163062369416 14.6232139283891  24.0163062369416 14.6232139283891  C 24.0163062369416 14.6232139283891  30.3560683023367 17.6961994308086  30.3560683023367 17.6961994308086  C 30.3560683023367 17.6961994308086  41.0797602638197 25.2162792241353  41.0797602638197 25.2162792241353  C 41.0797602638197 25.2162792241353  45.4454545611779 28.788352442905  45.4454545611779 28.788352442905  C 45.4454545611779 28.788352442905  49.7046685098204 32.3931169968073  49.7046685098204 32.3931169968073  C 49.7046685098204 32.3931169968073  52.1621228736091 34.5354891591324  52.1621228736091 34.5354891591324  C 52.1621228736091 34.5354891591324  56.0234365717865 36.409792373374  56.0234365717865 36.409792373374  C 56.0234365717865 36.409792373374  53.655649870074 37.9288497458468  53.655649870074 37.9288497458468  Z " fill-rule="evenodd" />
    </mask>
  </defs>
  <g transform="matrix(1 0 0 1 -2072 -1922 )">
    <path d="M 53.655649870074 37.9288497458468  C 53.655649870074 37.9288497458468  50.2903104277586 37.3883530049955  50.2903104277586 37.3883530049955  C 50.2903104277586 37.3883530049955  47.6058847943381 35.3745667608569  47.6058847943381 35.3745667608569  C 47.6058847943381 35.3745667608569  44.3750468451377 31.7174960707433  44.3750468451377 31.7174960707433  C 44.3750468451377 31.7174960707433  40.8920185963467 29.7124275159732  40.8920185963467 29.7124275159732  C 40.8920185963467 29.7124275159732  38.860485627422 27.5504405525687  38.860485627422 27.5504405525687  C 38.860485627422 27.5504405525687  32.0205242796353 25.0375665920795  32.0205242796353 25.0375665920795  C 32.0205242796353 25.0375665920795  24.59914604044 24.9634662324469  24.59914604044 24.9634662324469  C 24.59914604044 24.9634662324469  22.7049166790702 23.6514539824777  22.7049166790702 23.6514539824777  C 22.7049166790702 23.6514539824777  18.0982405398809 25.1269229081074  18.0982405398809 25.1269229081074  C 18.0982405398809 25.1269229081074  13.3290417631771 22.2762384845864  13.3290417631771 22.2762384845864  C 13.3290417631771 22.2762384845864  10.8743895138283 26.9598170978486  10.8743895138283 26.9598170978486  C 10.8743895138283 26.9598170978486  1.72828798200691 25.6499842702214  1.72828798200691 25.6499842702214  C 1.72828798200691 25.6499842702214  0.893257878917845 23.1371103097322  0.893257878917845 23.1371103097322  C 0.893257878917845 23.1371103097322  4.2754100078727 12.2890525999553  4.2754100078727 12.2890525999553  C 4.2754100078727 12.2890525999553  5.0515957077242 8.07840863493827  5.0515957077242 8.07840863493827  C 5.0515957077242 8.07840863493827  7.52586275815274 6.13000506106378  7.52586275815274 6.13000506106378  C 7.52586275815274 6.13000506106378  13.3122290765382 5.08388233683579  13.3122290765382 5.08388233683579  C 13.3122290765382 5.08388233683579  17.2884294667509 1.44424702545922  17.2884294667509 1.44424702545922  C 17.2884294667509 1.44424702545922  21.8502717749019 8.81287396423988  21.8502717749019 8.81287396423988  C 21.8502717749019 8.81287396423988  24.0163062369416 14.6232139283891  24.0163062369416 14.6232139283891  C 24.0163062369416 14.6232139283891  30.3560683023367 17.6961994308086  30.3560683023367 17.6961994308086  C 30.3560683023367 17.6961994308086  41.0797602638197 25.2162792241353  41.0797602638197 25.2162792241353  C 41.0797602638197 25.2162792241353  45.4454545611779 28.788352442905  45.4454545611779 28.788352442905  C 45.4454545611779 28.788352442905  49.7046685098204 32.3931169968073  49.7046685098204 32.3931169968073  C 49.7046685098204 32.3931169968073  52.1621228736091 34.5354891591324  52.1621228736091 34.5354891591324  C 52.1621228736091 34.5354891591324  56.0234365717865 36.409792373374  56.0234365717865 36.409792373374  C 56.0234365717865 36.409792373374  53.655649870074 37.9288497458468  53.655649870074 37.9288497458468  Z " fill-rule="nonzero" fill="#f2f2f2" stroke="none" transform="matrix(1 0 0 1 2072 1922 )" />
    <path d="M 53.655649870074 37.9288497458468  C 53.655649870074 37.9288497458468  50.2903104277586 37.3883530049955  50.2903104277586 37.3883530049955  C 50.2903104277586 37.3883530049955  47.6058847943381 35.3745667608569  47.6058847943381 35.3745667608569  C 47.6058847943381 35.3745667608569  44.3750468451377 31.7174960707433  44.3750468451377 31.7174960707433  C 44.3750468451377 31.7174960707433  40.8920185963467 29.7124275159732  40.8920185963467 29.7124275159732  C 40.8920185963467 29.7124275159732  38.860485627422 27.5504405525687  38.860485627422 27.5504405525687  C 38.860485627422 27.5504405525687  32.0205242796353 25.0375665920795  32.0205242796353 25.0375665920795  C 32.0205242796353 25.0375665920795  24.59914604044 24.9634662324469  24.59914604044 24.9634662324469  C 24.59914604044 24.9634662324469  22.7049166790702 23.6514539824777  22.7049166790702 23.6514539824777  C 22.7049166790702 23.6514539824777  18.0982405398809 25.1269229081074  18.0982405398809 25.1269229081074  C 18.0982405398809 25.1269229081074  13.3290417631771 22.2762384845864  13.3290417631771 22.2762384845864  C 13.3290417631771 22.2762384845864  10.8743895138283 26.9598170978486  10.8743895138283 26.9598170978486  C 10.8743895138283 26.9598170978486  1.72828798200691 25.6499842702214  1.72828798200691 25.6499842702214  C 1.72828798200691 25.6499842702214  0.893257878917845 23.1371103097322  0.893257878917845 23.1371103097322  C 0.893257878917845 23.1371103097322  4.2754100078727 12.2890525999553  4.2754100078727 12.2890525999553  C 4.2754100078727 12.2890525999553  5.0515957077242 8.07840863493827  5.0515957077242 8.07840863493827  C 5.0515957077242 8.07840863493827  7.52586275815274 6.13000506106378  7.52586275815274 6.13000506106378  C 7.52586275815274 6.13000506106378  13.3122290765382 5.08388233683579  13.3122290765382 5.08388233683579  C 13.3122290765382 5.08388233683579  17.2884294667509 1.44424702545922  17.2884294667509 1.44424702545922  C 17.2884294667509 1.44424702545922  21.8502717749019 8.81287396423988  21.8502717749019 8.81287396423988  C 21.8502717749019 8.81287396423988  24.0163062369416 14.6232139283891  24.0163062369416 14.6232139283891  C 24.0163062369416 14.6232139283891  30.3560683023367 17.6961994308086  30.3560683023367 17.6961994308086  C 30.3560683023367 17.6961994308086  41.0797602638197 25.2162792241353  41.0797602638197 25.2162792241353  C 41.0797602638197 25.2162792241353  45.4454545611779 28.788352442905  45.4454545611779 28.788352442905  C 45.4454545611779 28.788352442905  49.7046685098204 32.3931169968073  49.7046685098204 32.3931169968073  C 49.7046685098204 32.3931169968073  52.1621228736091 34.5354891591324  52.1621228736091 34.5354891591324  C 52.1621228736091 34.5354891591324  56.0234365717865 36.409792373374  56.0234365717865 36.409792373374  C 56.0234365717865 36.409792373374  53.655649870074 37.9288497458468  53.655649870074 37.9288497458468  Z " stroke-width="2" stroke="#505050" fill="none" stroke-opacity="0.211764705882353" transform="matrix(1 0 0 1 2072 1922 )" mask="url(#clip634)" />
  </g>
</svg>