<?xml version="1.0" encoding="utf-8"?>
<svg version="1.1" xmlns:xlink="http://www.w3.org/1999/xlink" width="97px" height="65px" xmlns="http://www.w3.org/2000/svg">
  <defs>
    <mask fill="white" id="clip635">
      <path d="M 5.50805813985595 14.6290696611624  C 5.50805813985595 14.6290696611624  2.73687230144668 16.6634702910636  2.73687230144668 16.6634702910636  C 2.73687230144668 16.6634702910636  3.12107800765703 10.9394551156241  3.12107800765703 10.9394551156241  C 3.12107800765703 10.9394551156241  0.0011096841773247 7.42026156526096  0.0011096841773247 7.42026156526096  C 0.0011096841773247 7.42026156526096  10.807916995024 1.50878329512891  10.807916995024 1.50878329512891  C 10.807916995024 1.50878329512891  20.1569225128039 2.99357621559094  20.1569225128039 2.99357621559094  C 20.1569225128039 2.99357621559094  30.4160323275639 2.94244991703845  30.4160323275639 2.94244991703845  C 30.4160323275639 2.94244991703845  38.5470240107626 4.34203233991299  38.5470240107626 4.34203233991299  C 38.5470240107626 4.34203233991299  44.8877805948121 3.9117193270962  44.8877805948121 3.9117193270962  C 44.8877805948121 3.9117193270962  59.2164522935632 4.18439291937608  59.2164522935632 4.18439291937608  C 59.2164522935632 4.18439291937608  62.2628493115981 7.35848395451005  62.2628493115981 7.35848395451005  C 62.2628493115981 7.35848395451005  76.3258681041548 11.0459682376085  76.3258681041548 11.0459682376085  C 76.3258681041548 11.0459682376085  79.1025036688932 9.29702277462528  79.1025036688932 9.29702277462528  C 79.1025036688932 9.29702277462528  87.6994469532404 12.9504228586889  87.6994469532404 12.9504228586889  C 87.6994469532404 12.9504228586889  96.5552522382257 11.9065942632421  96.5552522382257 11.9065942632421  C 96.5552522382257 11.9065942632421  96.9639817129172 16.571869006157  96.9639817129172 16.571869006157  C 96.9639817129172 16.571869006157  89.7240202845463 21.8677014312194  89.7240202845463 21.8677014312194  C 89.7240202845463 21.8677014312194  79.9335869340995 23.5378271839341  79.9335869340995 23.5378271839341  C 79.9335869340995 23.5378271839341  79.2523711429468 26.1836131340256  79.2523711429468 26.1836131340256  C 79.2523711429468 26.1836131340256  74.5574319103224 30.5144366739097  74.5574319103224 30.5144366739097  C 74.5574319103224 30.5144366739097  71.6145796925425 38.3591114932439  71.6145796925425 38.3591114932439  C 71.6145796925425 38.3591114932439  74.5928551314621 42.7346705443614  74.5928551314621 42.7346705443614  C 74.5928551314621 42.7346705443614  70.1731270784634 46.1260483483433  70.1731270784634 46.1260483483433  C 70.1731270784634 46.1260483483433  68.5218600007091 51.0299124845033  68.5218600007091 51.0299124845033  C 68.5218600007091 51.0299124845033  62.753324681228 52.5253567171637  62.753324681228 52.5253567171637  C 62.753324681228 52.5253567171637  57.3417464363108 58.2557626799222  57.3417464363108 58.2557626799222  C 57.3417464363108 58.2557626799222  45.6670914598907 58.3686665892257  45.6670914598907 58.3686665892257  C 45.6670914598907 58.3686665892257  38.383532220886 58.2280692682062  38.383532220886 58.2280692682062  C 38.383532220886 58.2280692682062  33.5986725038294 60.8397710192627  33.5986725038294 60.8397710192627  C 33.5986725038294 60.8397710192627  30.6803440545311 63.6218937654942  30.6803440545311 63.6218937654942  C 30.6803440545311 63.6218937654942  26.9418317926849 63.0126387077437  26.9418317926849 63.0126387077437  C 26.9418317926849 63.0126387077437  24.113423827819 60.5223619157493  24.113423827819 60.5223619157493  C 24.113423827819 60.5223619157493  21.9471576119532 56.2597067739353  21.9471576119532 56.2597067739353  C 21.9471576119532 56.2597067739353  14.8161907101668 55.1051045316248  14.8161907101668 55.1051045316248  C 14.8161907101668 55.1051045316248  14.1785727296478 52.6318698391481  14.1785727296478 52.6318698391481  C 14.1785727296478 52.6318698391481  17.0097055576784 49.8156628938816  17.0097055576784 49.8156628938816  C 17.0097055576784 49.8156628938816  18.0587778760535 47.7642201644629  18.0587778760535 47.7642201644629  C 18.0587778760535 47.7642201644629  15.4238351958749 45.5125327657135  15.4238351958749 45.5125327657135  C 15.4238351958749 45.5125327657135  17.5328792852837 40.5064160324486  17.5328792852837 40.5064160324486  C 17.5328792852837 40.5064160324486  14.4728579514257 35.8943978505259  14.4728579514257 35.8943978505259  C 14.4728579514257 35.8943978505259  17.7726672437695 35.2574493810594  17.7726672437695 35.2574493810594  C 17.7726672437695 35.2574493810594  18.0805767813706 30.0436486747388  18.0805767813706 30.0436486747388  C 18.0805767813706 30.0436486747388  19.3203895212685 28.9018280070665  19.3203895212685 28.9018280070665  C 19.3203895212685 28.9018280070665  19.4184845951944 22.7773234929658  19.4184845951944 22.7773234929658  C 19.4184845951944 22.7773234929658  22.9499072565301 20.6342794786404  22.9499072565301 20.6342794786404  C 22.9499072565301 20.6342794786404  20.8136145354753 16.6421676666668  20.8136145354753 16.6421676666668  C 20.8136145354753 16.6421676666668  16.3611881245011 16.3609730246281  16.3611881245011 16.3609730246281  C 16.3611881245011 16.3609730246281  15.0532538054878 17.3707174210397  15.0532538054878 17.3707174210397  C 15.0532538054878 17.3707174210397  10.5408804048924 17.3792384707985  10.5408804048924 17.3792384707985  C 10.5408804048924 17.3792384707985  8.62802646333543 13.4574253193344  8.62802646333543 13.4574253193344  C 8.62802646333543 13.4574253193344  5.50805813985595 14.6290696611624  5.50805813985595 14.6290696611624  Z " fill-rule="evenodd" />
    </mask>
  </defs>
  <g transform="matrix(1 0 0 1 -1720 -1739 )">
    <path d="M 5.50805813985595 14.6290696611624  C 5.50805813985595 14.6290696611624  2.73687230144668 16.6634702910636  2.73687230144668 16.6634702910636  C 2.73687230144668 16.6634702910636  3.12107800765703 10.9394551156241  3.12107800765703 10.9394551156241  C 3.12107800765703 10.9394551156241  0.0011096841773247 7.42026156526096  0.0011096841773247 7.42026156526096  C 0.0011096841773247 7.42026156526096  10.807916995024 1.50878329512891  10.807916995024 1.50878329512891  C 10.807916995024 1.50878329512891  20.1569225128039 2.99357621559094  20.1569225128039 2.99357621559094  C 20.1569225128039 2.99357621559094  30.4160323275639 2.94244991703845  30.4160323275639 2.94244991703845  C 30.4160323275639 2.94244991703845  38.5470240107626 4.34203233991299  38.5470240107626 4.34203233991299  C 38.5470240107626 4.34203233991299  44.8877805948121 3.9117193270962  44.8877805948121 3.9117193270962  C 44.8877805948121 3.9117193270962  59.2164522935632 4.18439291937608  59.2164522935632 4.18439291937608  C 59.2164522935632 4.18439291937608  62.2628493115981 7.35848395451005  62.2628493115981 7.35848395451005  C 62.2628493115981 7.35848395451005  76.3258681041548 11.0459682376085  76.3258681041548 11.0459682376085  C 76.3258681041548 11.0459682376085  79.1025036688932 9.29702277462528  79.1025036688932 9.29702277462528  C 79.1025036688932 9.29702277462528  87.6994469532404 12.9504228586889  87.6994469532404 12.9504228586889  C 87.6994469532404 12.9504228586889  96.5552522382257 11.9065942632421  96.5552522382257 11.9065942632421  C 96.5552522382257 11.9065942632421  96.9639817129172 16.571869006157  96.9639817129172 16.571869006157  C 96.9639817129172 16.571869006157  89.7240202845463 21.8677014312194  89.7240202845463 21.8677014312194  C 89.7240202845463 21.8677014312194  79.9335869340995 23.5378271839341  79.9335869340995 23.5378271839341  C 79.9335869340995 23.5378271839341  79.2523711429468 26.1836131340256  79.2523711429468 26.1836131340256  C 79.2523711429468 26.1836131340256  74.5574319103224 30.5144366739097  74.5574319103224 30.5144366739097  C 74.5574319103224 30.5144366739097  71.6145796925425 38.3591114932439  71.6145796925425 38.3591114932439  C 71.6145796925425 38.3591114932439  74.5928551314621 42.7346705443614  74.5928551314621 42.7346705443614  C 74.5928551314621 42.7346705443614  70.1731270784634 46.1260483483433  70.1731270784634 46.1260483483433  C 70.1731270784634 46.1260483483433  68.5218600007091 51.0299124845033  68.5218600007091 51.0299124845033  C 68.5218600007091 51.0299124845033  62.753324681228 52.5253567171637  62.753324681228 52.5253567171637  C 62.753324681228 52.5253567171637  57.3417464363108 58.2557626799222  57.3417464363108 58.2557626799222  C 57.3417464363108 58.2557626799222  45.6670914598907 58.3686665892257  45.6670914598907 58.3686665892257  C 45.6670914598907 58.3686665892257  38.383532220886 58.2280692682062  38.383532220886 58.2280692682062  C 38.383532220886 58.2280692682062  33.5986725038294 60.8397710192627  33.5986725038294 60.8397710192627  C 33.5986725038294 60.8397710192627  30.6803440545311 63.6218937654942  30.6803440545311 63.6218937654942  C 30.6803440545311 63.6218937654942  26.9418317926849 63.0126387077437  26.9418317926849 63.0126387077437  C 26.9418317926849 63.0126387077437  24.113423827819 60.5223619157493  24.113423827819 60.5223619157493  C 24.113423827819 60.5223619157493  21.9471576119532 56.2597067739353  21.9471576119532 56.2597067739353  C 21.9471576119532 56.2597067739353  14.8161907101668 55.1051045316248  14.8161907101668 55.1051045316248  C 14.8161907101668 55.1051045316248  14.1785727296478 52.6318698391481  14.1785727296478 52.6318698391481  C 14.1785727296478 52.6318698391481  17.0097055576784 49.8156628938816  17.0097055576784 49.8156628938816  C 17.0097055576784 49.8156628938816  18.0587778760535 47.7642201644629  18.0587778760535 47.7642201644629  C 18.0587778760535 47.7642201644629  15.4238351958749 45.5125327657135  15.4238351958749 45.5125327657135  C 15.4238351958749 45.5125327657135  17.5328792852837 40.5064160324486  17.5328792852837 40.5064160324486  C 17.5328792852837 40.5064160324486  14.4728579514257 35.8943978505259  14.4728579514257 35.8943978505259  C 14.4728579514257 35.8943978505259  17.7726672437695 35.2574493810594  17.7726672437695 35.2574493810594  C 17.7726672437695 35.2574493810594  18.0805767813706 30.0436486747388  18.0805767813706 30.0436486747388  C 18.0805767813706 30.0436486747388  19.3203895212685 28.9018280070665  19.3203895212685 28.9018280070665  C 19.3203895212685 28.9018280070665  19.4184845951944 22.7773234929658  19.4184845951944 22.7773234929658  C 19.4184845951944 22.7773234929658  22.9499072565301 20.6342794786404  22.9499072565301 20.6342794786404  C 22.9499072565301 20.6342794786404  20.8136145354753 16.6421676666668  20.8136145354753 16.6421676666668  C 20.8136145354753 16.6421676666668  16.3611881245011 16.3609730246281  16.3611881245011 16.3609730246281  C 16.3611881245011 16.3609730246281  15.0532538054878 17.3707174210397  15.0532538054878 17.3707174210397  C 15.0532538054878 17.3707174210397  10.5408804048924 17.3792384707985  10.5408804048924 17.3792384707985  C 10.5408804048924 17.3792384707985  8.62802646333543 13.4574253193344  8.62802646333543 13.4574253193344  C 8.62802646333543 13.4574253193344  5.50805813985595 14.6290696611624  5.50805813985595 14.6290696611624  Z " fill-rule="nonzero" fill="#81ecec" stroke="none" transform="matrix(1 0 0 1 1720 1739 )" />
    <path d="M 5.50805813985595 14.6290696611624  C 5.50805813985595 14.6290696611624  2.73687230144668 16.6634702910636  2.73687230144668 16.6634702910636  C 2.73687230144668 16.6634702910636  3.12107800765703 10.9394551156241  3.12107800765703 10.9394551156241  C 3.12107800765703 10.9394551156241  0.0011096841773247 7.42026156526096  0.0011096841773247 7.42026156526096  C 0.0011096841773247 7.42026156526096  10.807916995024 1.50878329512891  10.807916995024 1.50878329512891  C 10.807916995024 1.50878329512891  20.1569225128039 2.99357621559094  20.1569225128039 2.99357621559094  C 20.1569225128039 2.99357621559094  30.4160323275639 2.94244991703845  30.4160323275639 2.94244991703845  C 30.4160323275639 2.94244991703845  38.5470240107626 4.34203233991299  38.5470240107626 4.34203233991299  C 38.5470240107626 4.34203233991299  44.8877805948121 3.9117193270962  44.8877805948121 3.9117193270962  C 44.8877805948121 3.9117193270962  59.2164522935632 4.18439291937608  59.2164522935632 4.18439291937608  C 59.2164522935632 4.18439291937608  62.2628493115981 7.35848395451005  62.2628493115981 7.35848395451005  C 62.2628493115981 7.35848395451005  76.3258681041548 11.0459682376085  76.3258681041548 11.0459682376085  C 76.3258681041548 11.0459682376085  79.1025036688932 9.29702277462528  79.1025036688932 9.29702277462528  C 79.1025036688932 9.29702277462528  87.6994469532404 12.9504228586889  87.6994469532404 12.9504228586889  C 87.6994469532404 12.9504228586889  96.5552522382257 11.9065942632421  96.5552522382257 11.9065942632421  C 96.5552522382257 11.9065942632421  96.9639817129172 16.571869006157  96.9639817129172 16.571869006157  C 96.9639817129172 16.571869006157  89.7240202845463 21.8677014312194  89.7240202845463 21.8677014312194  C 89.7240202845463 21.8677014312194  79.9335869340995 23.5378271839341  79.9335869340995 23.5378271839341  C 79.9335869340995 23.5378271839341  79.2523711429468 26.1836131340256  79.2523711429468 26.1836131340256  C 79.2523711429468 26.1836131340256  74.5574319103224 30.5144366739097  74.5574319103224 30.5144366739097  C 74.5574319103224 30.5144366739097  71.6145796925425 38.3591114932439  71.6145796925425 38.3591114932439  C 71.6145796925425 38.3591114932439  74.5928551314621 42.7346705443614  74.5928551314621 42.7346705443614  C 74.5928551314621 42.7346705443614  70.1731270784634 46.1260483483433  70.1731270784634 46.1260483483433  C 70.1731270784634 46.1260483483433  68.5218600007091 51.0299124845033  68.5218600007091 51.0299124845033  C 68.5218600007091 51.0299124845033  62.753324681228 52.5253567171637  62.753324681228 52.5253567171637  C 62.753324681228 52.5253567171637  57.3417464363108 58.2557626799222  57.3417464363108 58.2557626799222  C 57.3417464363108 58.2557626799222  45.6670914598907 58.3686665892257  45.6670914598907 58.3686665892257  C 45.6670914598907 58.3686665892257  38.383532220886 58.2280692682062  38.383532220886 58.2280692682062  C 38.383532220886 58.2280692682062  33.5986725038294 60.8397710192627  33.5986725038294 60.8397710192627  C 33.5986725038294 60.8397710192627  30.6803440545311 63.6218937654942  30.6803440545311 63.6218937654942  C 30.6803440545311 63.6218937654942  26.9418317926849 63.0126387077437  26.9418317926849 63.0126387077437  C 26.9418317926849 63.0126387077437  24.113423827819 60.5223619157493  24.113423827819 60.5223619157493  C 24.113423827819 60.5223619157493  21.9471576119532 56.2597067739353  21.9471576119532 56.2597067739353  C 21.9471576119532 56.2597067739353  14.8161907101668 55.1051045316248  14.8161907101668 55.1051045316248  C 14.8161907101668 55.1051045316248  14.1785727296478 52.6318698391481  14.1785727296478 52.6318698391481  C 14.1785727296478 52.6318698391481  17.0097055576784 49.8156628938816  17.0097055576784 49.8156628938816  C 17.0097055576784 49.8156628938816  18.0587778760535 47.7642201644629  18.0587778760535 47.7642201644629  C 18.0587778760535 47.7642201644629  15.4238351958749 45.5125327657135  15.4238351958749 45.5125327657135  C 15.4238351958749 45.5125327657135  17.5328792852837 40.5064160324486  17.5328792852837 40.5064160324486  C 17.5328792852837 40.5064160324486  14.4728579514257 35.8943978505259  14.4728579514257 35.8943978505259  C 14.4728579514257 35.8943978505259  17.7726672437695 35.2574493810594  17.7726672437695 35.2574493810594  C 17.7726672437695 35.2574493810594  18.0805767813706 30.0436486747388  18.0805767813706 30.0436486747388  C 18.0805767813706 30.0436486747388  19.3203895212685 28.9018280070665  19.3203895212685 28.9018280070665  C 19.3203895212685 28.9018280070665  19.4184845951944 22.7773234929658  19.4184845951944 22.7773234929658  C 19.4184845951944 22.7773234929658  22.9499072565301 20.6342794786404  22.9499072565301 20.6342794786404  C 22.9499072565301 20.6342794786404  20.8136145354753 16.6421676666668  20.8136145354753 16.6421676666668  C 20.8136145354753 16.6421676666668  16.3611881245011 16.3609730246281  16.3611881245011 16.3609730246281  C 16.3611881245011 16.3609730246281  15.0532538054878 17.3707174210397  15.0532538054878 17.3707174210397  C 15.0532538054878 17.3707174210397  10.5408804048924 17.3792384707985  10.5408804048924 17.3792384707985  C 10.5408804048924 17.3792384707985  8.62802646333543 13.4574253193344  8.62802646333543 13.4574253193344  C 8.62802646333543 13.4574253193344  5.50805813985595 14.6290696611624  5.50805813985595 14.6290696611624  Z " stroke-width="2" stroke="#505050" fill="none" stroke-opacity="0.211764705882353" transform="matrix(1 0 0 1 1720 1739 )" mask="url(#clip635)" />
  </g>
</svg>