<?xml version="1.0" encoding="utf-8"?>
<svg version="1.1" xmlns:xlink="http://www.w3.org/1999/xlink" width="119px" height="71px" xmlns="http://www.w3.org/2000/svg">
  <defs>
    <mask fill="white" id="clip639">
      <path d="M 36.9944888076348 4.67249904733063  C 36.9944888076348 4.67249904733063  39.4265141703557 0.106813717239823  39.4265141703557 0.106813717239823  C 39.4265141703557 0.106813717239823  44.1517506627663 2.88574178227401  44.1517506627663 2.88574178227401  C 44.1517506627663 2.88574178227401  48.7159626448593 1.44741280671739  48.7159626448593 1.44741280671739  C 48.7159626448593 1.44741280671739  50.5927310754523 2.72639957671026  50.5927310754523 2.72639957671026  C 50.5927310754523 2.72639957671026  55.9287501932035 2.79863470989901  55.9287501932035 2.79863470989901  C 55.9287501932035 2.79863470989901  64.72261020237 5.24825555010129  64.72261020237 5.24825555010129  C 64.72261020237 5.24825555010129  66.7354165813342 7.35582178902651  66.7354165813342 7.35582178902651  C 66.7354165813342 7.35582178902651  70.1863384145105 9.3104195106102  70.1863384145105 9.3104195106102  C 70.1863384145105 9.3104195106102  73.3873946282291 12.8754357897598  73.3873946282291 12.8754357897598  C 73.3873946282291 12.8754357897598  76.0470753331227 14.8385317623068  76.0470753331227 14.8385317623068  C 76.0470753331227 14.8385317623068  73.3124349423915 17.5176053785212  73.3124349423915 17.5176053785212  C 73.3124349423915 17.5176053785212  70.6777407994437 20.3538966375586  70.6777407994437 20.3538966375586  C 70.6777407994437 20.3538966375586  71.2857471401238 22.0195538263862  71.2857471401238 22.0195538263862  C 71.2857471401238 22.0195538263862  71.4106799498531 23.8551760344823  71.4106799498531 23.8551760344823  C 71.4106799498531 23.8551760344823  75.7583417284159 23.9571550460432  75.7583417284159 23.9571550460432  C 75.7583417284159 23.9571550460432  77.6323338743484 23.5279933723912  77.6323338743484 23.5279933723912  C 77.6323338743484 23.5279933723912  79.3591829332667 24.6030221192623  79.3591829332667 24.6030221192623  C 79.3591829332667 24.6030221192623  77.6628730056152 26.7382076738185  77.6628730056152 26.7382076738185  C 77.6628730056152 26.7382076738185  80.5363276293782 30.0504009868064  80.5363276293782 30.0504009868064  C 80.5363276293782 30.0504009868064  83.4070059684806 32.9419308771059  83.4070059684806 32.9419308771059  C 83.4070059684806 32.9419308771059  86.3804068400265 36.6248438180132  86.3804068400265 36.6248438180132  C 86.3804068400265 36.6248438180132  111.830608324119 43.7293816234221  111.830608324119 43.7293816234221  C 111.830608324119 43.7293816234221  118.37986383857 43.6911394940866  118.37986383857 43.6911394940866  C 118.37986383857 43.6911394940866  96.3805841876537 61.5714595210962  96.3805841876537 61.5714595210962  C 96.3805841876537 61.5714595210962  86.2415926069948 61.8327807382209  86.2415926069948 61.8327807382209  C 86.2415926069948 61.8327807382209  79.303657240054 66.0160447749584  79.303657240054 66.0160447749584  C 79.303657240054 66.0160447749584  74.3118974202224 66.1265220374826  74.3118974202224 66.1265220374826  C 74.3118974202224 66.1265220374826  72.1824870855108 67.9961372494324  72.1824870855108 67.9961372494324  C 72.1824870855108 67.9961372494324  66.8631256757236 67.9940126866917  66.8631256757236 67.9940126866917  C 66.8631256757236 67.9940126866917  63.7259240092 65.9905500220681  63.7259240092 65.9905500220681  C 63.7259240092 65.9905500220681  54.596133556096 68.4720393033833  54.596133556096 68.4720393033833  C 54.596133556096 68.4720393033833  52.2973698570858 70.942905770994  52.2973698570858 70.942905770994  C 52.2973698570858 70.942905770994  47.1057175416878 70.4755019680065  47.1057175416878 70.4755019680065  C 47.1057175416878 70.4755019680065  45.3816447674304 69.7913927654524  45.3816447674304 69.7913927654524  C 45.3816447674304 69.7913927654524  43.5576257453891 69.9549840964979  43.5576257453891 69.9549840964979  C 43.5576257453891 69.9549840964979  41.0978375360618 69.895496339754  41.0978375360618 69.895496339754  C 41.0978375360618 69.895496339754  31.2448032754484 64.8581580811942  31.2448032754484 64.8581580811942  C 31.2448032754484 64.8581580811942  25.8282719025386 64.8581580811942  25.8282719025386 64.8581580811942  C 25.8282719025386 64.8581580811942  23.168591197645 62.9035603596105  23.168591197645 62.9035603596105  C 23.168591197645 62.9035603596105  23.168591197645 59.5701214192137  23.168591197645 59.5701214192137  C 23.168591197645 59.5701214192137  19.1263207317526 58.5715769310132  19.1263207317526 58.5715769310132  C 19.1263207317526 58.5715769310132  14.5232407644103 52.0980342596375  14.5232407644103 52.0980342596375  C 14.5232407644103 52.0980342596375  10.9695963987902 50.714943915343  10.9695963987902 50.714943915343  C 10.9695963987902 50.714943915343  9.60366434575526 48.3311845201073  9.60366434575526 48.3311845201073  C 9.60366434575526 48.3311845201073  5.66134012764577 45.4226581278811  5.66134012764577 45.4226581278811  C 5.66134012764577 45.4226581278811  0.877801657362 44.9934964542291  0.877801657362 44.9934964542291  C 0.877801657362 44.9934964542291  3.52915350827369 41.5899469433843  3.52915350827369 41.5899469433843  C 3.52915350827369 41.5899469433843  7.66304136796759 41.4433521142654  7.66304136796759 41.4433521142654  C 7.66304136796759 41.4433521142654  8.82630464077609 39.6162281571329  8.82630464077609 39.6162281571329  C 8.82630464077609 39.6162281571329  8.72358210833218 32.682734222722  8.72358210833218 32.682734222722  C 8.72358210833218 32.682734222722  11.0251220920033 26.3919039470596  11.0251220920033 26.3919039470596  C 11.0251220920033 26.3919039470596  14.7120281213337 24.7050011308232  14.7120281213337 24.7050011308232  C 14.7120281213337 24.7050011308232  15.4949403956348 22.2383837886942  15.4949403956348 22.2383837886942  C 15.4949403956348 22.2383837886942  18.8320345577247 17.6217089528228  18.8320345577247 17.6217089528228  C 18.8320345577247 17.6217089528228  23.5267319188675 14.6197017999991  23.5267319188675 14.6197017999991  C 23.5267319188675 14.6197017999991  26.6916964319978 8.63480855901938  26.6916964319978 8.63480855901938  C 26.6916964319978 8.63480855901938  27.9326956753039 3.3956368400785  27.9326956753039 3.3956368400785  C 27.9326956753039 3.3956368400785  36.9944888076348 4.67249904733063  36.9944888076348 4.67249904733063  Z " fill-rule="evenodd" />
    </mask>
  </defs>
  <g transform="matrix(1 0 0 1 -2045 -1942 )">
    <path d="M 36.9944888076348 4.67249904733063  C 36.9944888076348 4.67249904733063  39.4265141703557 0.106813717239823  39.4265141703557 0.106813717239823  C 39.4265141703557 0.106813717239823  44.1517506627663 2.88574178227401  44.1517506627663 2.88574178227401  C 44.1517506627663 2.88574178227401  48.7159626448593 1.44741280671739  48.7159626448593 1.44741280671739  C 48.7159626448593 1.44741280671739  50.5927310754523 2.72639957671026  50.5927310754523 2.72639957671026  C 50.5927310754523 2.72639957671026  55.9287501932035 2.79863470989901  55.9287501932035 2.79863470989901  C 55.9287501932035 2.79863470989901  64.72261020237 5.24825555010129  64.72261020237 5.24825555010129  C 64.72261020237 5.24825555010129  66.7354165813342 7.35582178902651  66.7354165813342 7.35582178902651  C 66.7354165813342 7.35582178902651  70.1863384145105 9.3104195106102  70.1863384145105 9.3104195106102  C 70.1863384145105 9.3104195106102  73.3873946282291 12.8754357897598  73.3873946282291 12.8754357897598  C 73.3873946282291 12.8754357897598  76.0470753331227 14.8385317623068  76.0470753331227 14.8385317623068  C 76.0470753331227 14.8385317623068  73.3124349423915 17.5176053785212  73.3124349423915 17.5176053785212  C 73.3124349423915 17.5176053785212  70.6777407994437 20.3538966375586  70.6777407994437 20.3538966375586  C 70.6777407994437 20.3538966375586  71.2857471401238 22.0195538263862  71.2857471401238 22.0195538263862  C 71.2857471401238 22.0195538263862  71.4106799498531 23.8551760344823  71.4106799498531 23.8551760344823  C 71.4106799498531 23.8551760344823  75.7583417284159 23.9571550460432  75.7583417284159 23.9571550460432  C 75.7583417284159 23.9571550460432  77.6323338743484 23.5279933723912  77.6323338743484 23.5279933723912  C 77.6323338743484 23.5279933723912  79.3591829332667 24.6030221192623  79.3591829332667 24.6030221192623  C 79.3591829332667 24.6030221192623  77.6628730056152 26.7382076738185  77.6628730056152 26.7382076738185  C 77.6628730056152 26.7382076738185  80.5363276293782 30.0504009868064  80.5363276293782 30.0504009868064  C 80.5363276293782 30.0504009868064  83.4070059684806 32.9419308771059  83.4070059684806 32.9419308771059  C 83.4070059684806 32.9419308771059  86.3804068400265 36.6248438180132  86.3804068400265 36.6248438180132  C 86.3804068400265 36.6248438180132  111.830608324119 43.7293816234221  111.830608324119 43.7293816234221  C 111.830608324119 43.7293816234221  118.37986383857 43.6911394940866  118.37986383857 43.6911394940866  C 118.37986383857 43.6911394940866  96.3805841876537 61.5714595210962  96.3805841876537 61.5714595210962  C 96.3805841876537 61.5714595210962  86.2415926069948 61.8327807382209  86.2415926069948 61.8327807382209  C 86.2415926069948 61.8327807382209  79.303657240054 66.0160447749584  79.303657240054 66.0160447749584  C 79.303657240054 66.0160447749584  74.3118974202224 66.1265220374826  74.3118974202224 66.1265220374826  C 74.3118974202224 66.1265220374826  72.1824870855108 67.9961372494324  72.1824870855108 67.9961372494324  C 72.1824870855108 67.9961372494324  66.8631256757236 67.9940126866917  66.8631256757236 67.9940126866917  C 66.8631256757236 67.9940126866917  63.7259240092 65.9905500220681  63.7259240092 65.9905500220681  C 63.7259240092 65.9905500220681  54.596133556096 68.4720393033833  54.596133556096 68.4720393033833  C 54.596133556096 68.4720393033833  52.2973698570858 70.942905770994  52.2973698570858 70.942905770994  C 52.2973698570858 70.942905770994  47.1057175416878 70.4755019680065  47.1057175416878 70.4755019680065  C 47.1057175416878 70.4755019680065  45.3816447674304 69.7913927654524  45.3816447674304 69.7913927654524  C 45.3816447674304 69.7913927654524  43.5576257453891 69.9549840964979  43.5576257453891 69.9549840964979  C 43.5576257453891 69.9549840964979  41.0978375360618 69.895496339754  41.0978375360618 69.895496339754  C 41.0978375360618 69.895496339754  31.2448032754484 64.8581580811942  31.2448032754484 64.8581580811942  C 31.2448032754484 64.8581580811942  25.8282719025386 64.8581580811942  25.8282719025386 64.8581580811942  C 25.8282719025386 64.8581580811942  23.168591197645 62.9035603596105  23.168591197645 62.9035603596105  C 23.168591197645 62.9035603596105  23.168591197645 59.5701214192137  23.168591197645 59.5701214192137  C 23.168591197645 59.5701214192137  19.1263207317526 58.5715769310132  19.1263207317526 58.5715769310132  C 19.1263207317526 58.5715769310132  14.5232407644103 52.0980342596375  14.5232407644103 52.0980342596375  C 14.5232407644103 52.0980342596375  10.9695963987902 50.714943915343  10.9695963987902 50.714943915343  C 10.9695963987902 50.714943915343  9.60366434575526 48.3311845201073  9.60366434575526 48.3311845201073  C 9.60366434575526 48.3311845201073  5.66134012764577 45.4226581278811  5.66134012764577 45.4226581278811  C 5.66134012764577 45.4226581278811  0.877801657362 44.9934964542291  0.877801657362 44.9934964542291  C 0.877801657362 44.9934964542291  3.52915350827369 41.5899469433843  3.52915350827369 41.5899469433843  C 3.52915350827369 41.5899469433843  7.66304136796759 41.4433521142654  7.66304136796759 41.4433521142654  C 7.66304136796759 41.4433521142654  8.82630464077609 39.6162281571329  8.82630464077609 39.6162281571329  C 8.82630464077609 39.6162281571329  8.72358210833218 32.682734222722  8.72358210833218 32.682734222722  C 8.72358210833218 32.682734222722  11.0251220920033 26.3919039470596  11.0251220920033 26.3919039470596  C 11.0251220920033 26.3919039470596  14.7120281213337 24.7050011308232  14.7120281213337 24.7050011308232  C 14.7120281213337 24.7050011308232  15.4949403956348 22.2383837886942  15.4949403956348 22.2383837886942  C 15.4949403956348 22.2383837886942  18.8320345577247 17.6217089528228  18.8320345577247 17.6217089528228  C 18.8320345577247 17.6217089528228  23.5267319188675 14.6197017999991  23.5267319188675 14.6197017999991  C 23.5267319188675 14.6197017999991  26.6916964319978 8.63480855901938  26.6916964319978 8.63480855901938  C 26.6916964319978 8.63480855901938  27.9326956753039 3.3956368400785  27.9326956753039 3.3956368400785  C 27.9326956753039 3.3956368400785  36.9944888076348 4.67249904733063  36.9944888076348 4.67249904733063  Z " fill-rule="nonzero" fill="#f2f2f2" stroke="none" transform="matrix(1 0 0 1 2045 1942 )" />
    <path d="M 36.9944888076348 4.67249904733063  C 36.9944888076348 4.67249904733063  39.4265141703557 0.106813717239823  39.4265141703557 0.106813717239823  C 39.4265141703557 0.106813717239823  44.1517506627663 2.88574178227401  44.1517506627663 2.88574178227401  C 44.1517506627663 2.88574178227401  48.7159626448593 1.44741280671739  48.7159626448593 1.44741280671739  C 48.7159626448593 1.44741280671739  50.5927310754523 2.72639957671026  50.5927310754523 2.72639957671026  C 50.5927310754523 2.72639957671026  55.9287501932035 2.79863470989901  55.9287501932035 2.79863470989901  C 55.9287501932035 2.79863470989901  64.72261020237 5.24825555010129  64.72261020237 5.24825555010129  C 64.72261020237 5.24825555010129  66.7354165813342 7.35582178902651  66.7354165813342 7.35582178902651  C 66.7354165813342 7.35582178902651  70.1863384145105 9.3104195106102  70.1863384145105 9.3104195106102  C 70.1863384145105 9.3104195106102  73.3873946282291 12.8754357897598  73.3873946282291 12.8754357897598  C 73.3873946282291 12.8754357897598  76.0470753331227 14.8385317623068  76.0470753331227 14.8385317623068  C 76.0470753331227 14.8385317623068  73.3124349423915 17.5176053785212  73.3124349423915 17.5176053785212  C 73.3124349423915 17.5176053785212  70.6777407994437 20.3538966375586  70.6777407994437 20.3538966375586  C 70.6777407994437 20.3538966375586  71.2857471401238 22.0195538263862  71.2857471401238 22.0195538263862  C 71.2857471401238 22.0195538263862  71.4106799498531 23.8551760344823  71.4106799498531 23.8551760344823  C 71.4106799498531 23.8551760344823  75.7583417284159 23.9571550460432  75.7583417284159 23.9571550460432  C 75.7583417284159 23.9571550460432  77.6323338743484 23.5279933723912  77.6323338743484 23.5279933723912  C 77.6323338743484 23.5279933723912  79.3591829332667 24.6030221192623  79.3591829332667 24.6030221192623  C 79.3591829332667 24.6030221192623  77.6628730056152 26.7382076738185  77.6628730056152 26.7382076738185  C 77.6628730056152 26.7382076738185  80.5363276293782 30.0504009868064  80.5363276293782 30.0504009868064  C 80.5363276293782 30.0504009868064  83.4070059684806 32.9419308771059  83.4070059684806 32.9419308771059  C 83.4070059684806 32.9419308771059  86.3804068400265 36.6248438180132  86.3804068400265 36.6248438180132  C 86.3804068400265 36.6248438180132  111.830608324119 43.7293816234221  111.830608324119 43.7293816234221  C 111.830608324119 43.7293816234221  118.37986383857 43.6911394940866  118.37986383857 43.6911394940866  C 118.37986383857 43.6911394940866  96.3805841876537 61.5714595210962  96.3805841876537 61.5714595210962  C 96.3805841876537 61.5714595210962  86.2415926069948 61.8327807382209  86.2415926069948 61.8327807382209  C 86.2415926069948 61.8327807382209  79.303657240054 66.0160447749584  79.303657240054 66.0160447749584  C 79.303657240054 66.0160447749584  74.3118974202224 66.1265220374826  74.3118974202224 66.1265220374826  C 74.3118974202224 66.1265220374826  72.1824870855108 67.9961372494324  72.1824870855108 67.9961372494324  C 72.1824870855108 67.9961372494324  66.8631256757236 67.9940126866917  66.8631256757236 67.9940126866917  C 66.8631256757236 67.9940126866917  63.7259240092 65.9905500220681  63.7259240092 65.9905500220681  C 63.7259240092 65.9905500220681  54.596133556096 68.4720393033833  54.596133556096 68.4720393033833  C 54.596133556096 68.4720393033833  52.2973698570858 70.942905770994  52.2973698570858 70.942905770994  C 52.2973698570858 70.942905770994  47.1057175416878 70.4755019680065  47.1057175416878 70.4755019680065  C 47.1057175416878 70.4755019680065  45.3816447674304 69.7913927654524  45.3816447674304 69.7913927654524  C 45.3816447674304 69.7913927654524  43.5576257453891 69.9549840964979  43.5576257453891 69.9549840964979  C 43.5576257453891 69.9549840964979  41.0978375360618 69.895496339754  41.0978375360618 69.895496339754  C 41.0978375360618 69.895496339754  31.2448032754484 64.8581580811942  31.2448032754484 64.8581580811942  C 31.2448032754484 64.8581580811942  25.8282719025386 64.8581580811942  25.8282719025386 64.8581580811942  C 25.8282719025386 64.8581580811942  23.168591197645 62.9035603596105  23.168591197645 62.9035603596105  C 23.168591197645 62.9035603596105  23.168591197645 59.5701214192137  23.168591197645 59.5701214192137  C 23.168591197645 59.5701214192137  19.1263207317526 58.5715769310132  19.1263207317526 58.5715769310132  C 19.1263207317526 58.5715769310132  14.5232407644103 52.0980342596375  14.5232407644103 52.0980342596375  C 14.5232407644103 52.0980342596375  10.9695963987902 50.714943915343  10.9695963987902 50.714943915343  C 10.9695963987902 50.714943915343  9.60366434575526 48.3311845201073  9.60366434575526 48.3311845201073  C 9.60366434575526 48.3311845201073  5.66134012764577 45.4226581278811  5.66134012764577 45.4226581278811  C 5.66134012764577 45.4226581278811  0.877801657362 44.9934964542291  0.877801657362 44.9934964542291  C 0.877801657362 44.9934964542291  3.52915350827369 41.5899469433843  3.52915350827369 41.5899469433843  C 3.52915350827369 41.5899469433843  7.66304136796759 41.4433521142654  7.66304136796759 41.4433521142654  C 7.66304136796759 41.4433521142654  8.82630464077609 39.6162281571329  8.82630464077609 39.6162281571329  C 8.82630464077609 39.6162281571329  8.72358210833218 32.682734222722  8.72358210833218 32.682734222722  C 8.72358210833218 32.682734222722  11.0251220920033 26.3919039470596  11.0251220920033 26.3919039470596  C 11.0251220920033 26.3919039470596  14.7120281213337 24.7050011308232  14.7120281213337 24.7050011308232  C 14.7120281213337 24.7050011308232  15.4949403956348 22.2383837886942  15.4949403956348 22.2383837886942  C 15.4949403956348 22.2383837886942  18.8320345577247 17.6217089528228  18.8320345577247 17.6217089528228  C 18.8320345577247 17.6217089528228  23.5267319188675 14.6197017999991  23.5267319188675 14.6197017999991  C 23.5267319188675 14.6197017999991  26.6916964319978 8.63480855901938  26.6916964319978 8.63480855901938  C 26.6916964319978 8.63480855901938  27.9326956753039 3.3956368400785  27.9326956753039 3.3956368400785  C 27.9326956753039 3.3956368400785  36.9944888076348 4.67249904733063  36.9944888076348 4.67249904733063  Z " stroke-width="2" stroke="#505050" fill="none" stroke-opacity="0.211764705882353" transform="matrix(1 0 0 1 2045 1942 )" mask="url(#clip639)" />
  </g>
</svg>