<?xml version="1.0" encoding="utf-8"?>
<svg version="1.1" xmlns:xlink="http://www.w3.org/1999/xlink" width="29px" height="15px" xmlns="http://www.w3.org/2000/svg">
  <defs>
    <mask fill="white" id="clip640">
      <path d="M 3.83436770100783 14.2729365695538  C 3.83436770100783 14.2729365695538  0.103380181563898 9.57456082565272  0.103380181563898 9.57456082565272  C 0.103380181563898 9.57456082565272  9.05828246610623 1.71833470730424  9.05828246610623 1.71833470730424  C 9.05828246610623 1.71833470730424  17.3332301067393 4.28775894224979  17.3332301067393 4.28775894224979  C 17.3332301067393 4.28775894224979  21.8093506543174 0.183562552680314  21.8093506543174 0.183562552680314  C 21.8093506543174 0.183562552680314  27.7810596369366 4.80164378923898  27.7810596369366 4.80164378923898  C 27.7810596369366 4.80164378923898  25.5403381737613 10.0930339302045  25.5403381737613 10.0930339302045  C 25.5403381737613 10.0930339302045  15.4677363470176 13.2245197165446  15.4677363470176 13.2245197165446  C 15.4677363470176 13.2245197165446  10.1759820083078 9.57456082565272  10.1759820083078 9.57456082565272  C 10.1759820083078 9.57456082565272  3.83436770100783 14.2729365695538  3.83436770100783 14.2729365695538  Z " fill-rule="evenodd" />
    </mask>
  </defs>
  <g transform="matrix(1 0 0 1 -1323 -2390 )">
    <path d="M 3.83436770100783 14.2729365695538  C 3.83436770100783 14.2729365695538  0.103380181563898 9.57456082565272  0.103380181563898 9.57456082565272  C 0.103380181563898 9.57456082565272  9.05828246610623 1.71833470730424  9.05828246610623 1.71833470730424  C 9.05828246610623 1.71833470730424  17.3332301067393 4.28775894224979  17.3332301067393 4.28775894224979  C 17.3332301067393 4.28775894224979  21.8093506543174 0.183562552680314  21.8093506543174 0.183562552680314  C 21.8093506543174 0.183562552680314  27.7810596369366 4.80164378923898  27.7810596369366 4.80164378923898  C 27.7810596369366 4.80164378923898  25.5403381737613 10.0930339302045  25.5403381737613 10.0930339302045  C 25.5403381737613 10.0930339302045  15.4677363470176 13.2245197165446  15.4677363470176 13.2245197165446  C 15.4677363470176 13.2245197165446  10.1759820083078 9.57456082565272  10.1759820083078 9.57456082565272  C 10.1759820083078 9.57456082565272  3.83436770100783 14.2729365695538  3.83436770100783 14.2729365695538  Z " fill-rule="nonzero" fill="#f2f2f2" stroke="none" transform="matrix(1 0 0 1 1323 2390 )" />
    <path d="M 3.83436770100783 14.2729365695538  C 3.83436770100783 14.2729365695538  0.103380181563898 9.57456082565272  0.103380181563898 9.57456082565272  C 0.103380181563898 9.57456082565272  9.05828246610623 1.71833470730424  9.05828246610623 1.71833470730424  C 9.05828246610623 1.71833470730424  17.3332301067393 4.28775894224979  17.3332301067393 4.28775894224979  C 17.3332301067393 4.28775894224979  21.8093506543174 0.183562552680314  21.8093506543174 0.183562552680314  C 21.8093506543174 0.183562552680314  27.7810596369366 4.80164378923898  27.7810596369366 4.80164378923898  C 27.7810596369366 4.80164378923898  25.5403381737613 10.0930339302045  25.5403381737613 10.0930339302045  C 25.5403381737613 10.0930339302045  15.4677363470176 13.2245197165446  15.4677363470176 13.2245197165446  C 15.4677363470176 13.2245197165446  10.1759820083078 9.57456082565272  10.1759820083078 9.57456082565272  C 10.1759820083078 9.57456082565272  3.83436770100783 14.2729365695538  3.83436770100783 14.2729365695538  Z " stroke-width="2" stroke="#505050" fill="none" stroke-opacity="0.211764705882353" transform="matrix(1 0 0 1 1323 2390 )" mask="url(#clip640)" />
  </g>
</svg>