<?xml version="1.0" encoding="utf-8"?>
<svg version="1.1" xmlns:xlink="http://www.w3.org/1999/xlink" width="87px" height="152px" xmlns="http://www.w3.org/2000/svg">
  <defs>
    <mask fill="white" id="clip641">
      <path d="M 67.6914851679677 8.29687450404589  C 67.6914851679677 8.29687450404589  64.4581400637424 20.2354832262551  64.4581400637424 20.2354832262551  C 64.4581400637424 20.2354832262551  63.344976639813 31.7727224134544  63.344976639813 31.7727224134544  C 63.344976639813 31.7727224134544  75.0318317555909 42.4260946458979  75.0318317555909 42.4260946458979  C 75.0318317555909 42.4260946458979  67.9908689739146 54.1213197138991  67.9908689739146 54.1213197138991  C 67.9908689739146 54.1213197138991  76.8662379847561 71.1090717887594  76.8662379847561 71.1090717887594  C 76.8662379847561 71.1090717887594  71.7277232063236 84.9637764004441  71.7277232063236 84.9637764004441  C 71.7277232063236 84.9637764004441  78.5972207173213 95.3289311476411  78.5972207173213 95.3289311476411  C 78.5972207173213 95.3289311476411  75.4781857935483 104.178275416875  75.4781857935483 104.178275416875  C 75.4781857935483 104.178275416875  86.7758419615952 113.264598507312  86.7758419615952 113.264598507312  C 86.7758419615952 113.264598507312  83.9044790954692 119.893600667981  83.9044790954692 119.893600667981  C 83.9044790954692 119.893600667981  76.8145262364562 127.26342851295  76.8145262364562 127.26342851295  C 76.8145262364562 127.26342851295  60.4763354446499 143.074826259137  60.4763354446499 143.074826259137  C 60.4763354446499 143.074826259137  46.6284735841286 144.037686154294  46.6284735841286 144.037686154294  C 46.6284735841286 144.037686154294  31.2306413375493 148.452751039403  31.2306413375493 148.452751039403  C 31.2306413375493 148.452751039403  18.8143784036463 150.969850410556  18.8143784036463 150.969850410556  C 18.8143784036463 150.969850410556  14.3971064304494 144.426246023293  14.3971064304494 144.426246023293  C 14.3971064304494 144.426246023293  7.00776976548953 140.436035060881  7.00776976548953 140.436035060881  C 7.00776976548953 140.436035060881  8.70609244649697 128.20707390909  8.70609244649697 128.20707390909  C 8.70609244649697 128.20707390909  4.99917659468271 116.66129494455  4.99917659468271 116.66129494455  C 4.99917659468271 116.66129494455  8.63805067241784 109.020329169016  8.63805067241784 109.020329169016  C 8.63805067241784 109.020329169016  15.5565382607522 100.604378599819  15.5565382607522 100.604378599819  C 15.5565382607522 100.604378599819  33.0160574893777 85.6170693670028  33.0160574893777 85.6170693670028  C 33.0160574893777 85.6170693670028  38.1083038614365 82.6580365184723  38.1083038614365 82.6580365184723  C 38.1083038614365 82.6580365184723  37.3162976111588 75.050179031463  37.3162976111588 75.050179031463  C 37.3162976111588 75.050179031463  26.701780854863 68.1649835505751  26.701780854863 68.1649835505751  C 26.701780854863 68.1649835505751  24.1270801237204 62.4006338456457  24.1270801237204 62.4006338456457  C 24.1270801237204 62.4006338456457  23.9256764724471 38.6600528386775  23.9256764724471 38.6600528386775  C 23.9256764724471 38.6600528386775  12.0129226667273 27.658684679603  12.0129226667273 27.658684679603  C 12.0129226667273 27.658684679603  1.84203827742551 19.5416263173285  1.84203827742551 19.5416263173285  C 1.84203827742551 19.5416263173285  6.41716716648548 15.0838625455164  6.41716716648548 15.0838625455164  C 6.41716716648548 15.0838625455164  14.8978938876695 23.9502863694318  14.8978938876695 23.9502863694318  C 14.8978938876695 23.9502863694318  24.8619312837715 23.1304677447308  24.8619312837715 23.1304677447308  C 24.8619312837715 23.1304677447308  33.0541608828614 27.120678707143  33.0541608828614 27.120678707143  C 33.0541608828614 27.120678707143  40.3319090383323 19.7786051385311  40.3319090383323 19.7786051385311  C 40.3319090383323 19.7786051385311  46.0514793399403 7.278506056175  46.0514793399403 7.278506056175  C 46.0514793399403 7.278506056175  57.8989130425443 1.35403552610872  57.8989130425443 1.35403552610872  C 57.8989130425443 1.35403552610872  67.6914851679677 8.29687450404589  67.6914851679677 8.29687450404589  Z " fill-rule="evenodd" />
    </mask>
  </defs>
  <g transform="matrix(1 0 0 1 -1951 -1431 )">
    <path d="M 67.6914851679677 8.29687450404589  C 67.6914851679677 8.29687450404589  64.4581400637424 20.2354832262551  64.4581400637424 20.2354832262551  C 64.4581400637424 20.2354832262551  63.344976639813 31.7727224134544  63.344976639813 31.7727224134544  C 63.344976639813 31.7727224134544  75.0318317555909 42.4260946458979  75.0318317555909 42.4260946458979  C 75.0318317555909 42.4260946458979  67.9908689739146 54.1213197138991  67.9908689739146 54.1213197138991  C 67.9908689739146 54.1213197138991  76.8662379847561 71.1090717887594  76.8662379847561 71.1090717887594  C 76.8662379847561 71.1090717887594  71.7277232063236 84.9637764004441  71.7277232063236 84.9637764004441  C 71.7277232063236 84.9637764004441  78.5972207173213 95.3289311476411  78.5972207173213 95.3289311476411  C 78.5972207173213 95.3289311476411  75.4781857935483 104.178275416875  75.4781857935483 104.178275416875  C 75.4781857935483 104.178275416875  86.7758419615952 113.264598507312  86.7758419615952 113.264598507312  C 86.7758419615952 113.264598507312  83.9044790954692 119.893600667981  83.9044790954692 119.893600667981  C 83.9044790954692 119.893600667981  76.8145262364562 127.26342851295  76.8145262364562 127.26342851295  C 76.8145262364562 127.26342851295  60.4763354446499 143.074826259137  60.4763354446499 143.074826259137  C 60.4763354446499 143.074826259137  46.6284735841286 144.037686154294  46.6284735841286 144.037686154294  C 46.6284735841286 144.037686154294  31.2306413375493 148.452751039403  31.2306413375493 148.452751039403  C 31.2306413375493 148.452751039403  18.8143784036463 150.969850410556  18.8143784036463 150.969850410556  C 18.8143784036463 150.969850410556  14.3971064304494 144.426246023293  14.3971064304494 144.426246023293  C 14.3971064304494 144.426246023293  7.00776976548953 140.436035060881  7.00776976548953 140.436035060881  C 7.00776976548953 140.436035060881  8.70609244649697 128.20707390909  8.70609244649697 128.20707390909  C 8.70609244649697 128.20707390909  4.99917659468271 116.66129494455  4.99917659468271 116.66129494455  C 4.99917659468271 116.66129494455  8.63805067241784 109.020329169016  8.63805067241784 109.020329169016  C 8.63805067241784 109.020329169016  15.5565382607522 100.604378599819  15.5565382607522 100.604378599819  C 15.5565382607522 100.604378599819  33.0160574893777 85.6170693670028  33.0160574893777 85.6170693670028  C 33.0160574893777 85.6170693670028  38.1083038614365 82.6580365184723  38.1083038614365 82.6580365184723  C 38.1083038614365 82.6580365184723  37.3162976111588 75.050179031463  37.3162976111588 75.050179031463  C 37.3162976111588 75.050179031463  26.701780854863 68.1649835505751  26.701780854863 68.1649835505751  C 26.701780854863 68.1649835505751  24.1270801237204 62.4006338456457  24.1270801237204 62.4006338456457  C 24.1270801237204 62.4006338456457  23.9256764724471 38.6600528386775  23.9256764724471 38.6600528386775  C 23.9256764724471 38.6600528386775  12.0129226667273 27.658684679603  12.0129226667273 27.658684679603  C 12.0129226667273 27.658684679603  1.84203827742551 19.5416263173285  1.84203827742551 19.5416263173285  C 1.84203827742551 19.5416263173285  6.41716716648548 15.0838625455164  6.41716716648548 15.0838625455164  C 6.41716716648548 15.0838625455164  14.8978938876695 23.9502863694318  14.8978938876695 23.9502863694318  C 14.8978938876695 23.9502863694318  24.8619312837715 23.1304677447308  24.8619312837715 23.1304677447308  C 24.8619312837715 23.1304677447308  33.0541608828614 27.120678707143  33.0541608828614 27.120678707143  C 33.0541608828614 27.120678707143  40.3319090383323 19.7786051385311  40.3319090383323 19.7786051385311  C 40.3319090383323 19.7786051385311  46.0514793399403 7.278506056175  46.0514793399403 7.278506056175  C 46.0514793399403 7.278506056175  57.8989130425443 1.35403552610872  57.8989130425443 1.35403552610872  C 57.8989130425443 1.35403552610872  67.6914851679677 8.29687450404589  67.6914851679677 8.29687450404589  Z " fill-rule="nonzero" fill="#55efc4" stroke="none" transform="matrix(1 0 0 1 1951 1431 )" />
    <path d="M 67.6914851679677 8.29687450404589  C 67.6914851679677 8.29687450404589  64.4581400637424 20.2354832262551  64.4581400637424 20.2354832262551  C 64.4581400637424 20.2354832262551  63.344976639813 31.7727224134544  63.344976639813 31.7727224134544  C 63.344976639813 31.7727224134544  75.0318317555909 42.4260946458979  75.0318317555909 42.4260946458979  C 75.0318317555909 42.4260946458979  67.9908689739146 54.1213197138991  67.9908689739146 54.1213197138991  C 67.9908689739146 54.1213197138991  76.8662379847561 71.1090717887594  76.8662379847561 71.1090717887594  C 76.8662379847561 71.1090717887594  71.7277232063236 84.9637764004441  71.7277232063236 84.9637764004441  C 71.7277232063236 84.9637764004441  78.5972207173213 95.3289311476411  78.5972207173213 95.3289311476411  C 78.5972207173213 95.3289311476411  75.4781857935483 104.178275416875  75.4781857935483 104.178275416875  C 75.4781857935483 104.178275416875  86.7758419615952 113.264598507312  86.7758419615952 113.264598507312  C 86.7758419615952 113.264598507312  83.9044790954692 119.893600667981  83.9044790954692 119.893600667981  C 83.9044790954692 119.893600667981  76.8145262364562 127.26342851295  76.8145262364562 127.26342851295  C 76.8145262364562 127.26342851295  60.4763354446499 143.074826259137  60.4763354446499 143.074826259137  C 60.4763354446499 143.074826259137  46.6284735841286 144.037686154294  46.6284735841286 144.037686154294  C 46.6284735841286 144.037686154294  31.2306413375493 148.452751039403  31.2306413375493 148.452751039403  C 31.2306413375493 148.452751039403  18.8143784036463 150.969850410556  18.8143784036463 150.969850410556  C 18.8143784036463 150.969850410556  14.3971064304494 144.426246023293  14.3971064304494 144.426246023293  C 14.3971064304494 144.426246023293  7.00776976548953 140.436035060881  7.00776976548953 140.436035060881  C 7.00776976548953 140.436035060881  8.70609244649697 128.20707390909  8.70609244649697 128.20707390909  C 8.70609244649697 128.20707390909  4.99917659468271 116.66129494455  4.99917659468271 116.66129494455  C 4.99917659468271 116.66129494455  8.63805067241784 109.020329169016  8.63805067241784 109.020329169016  C 8.63805067241784 109.020329169016  15.5565382607522 100.604378599819  15.5565382607522 100.604378599819  C 15.5565382607522 100.604378599819  33.0160574893777 85.6170693670028  33.0160574893777 85.6170693670028  C 33.0160574893777 85.6170693670028  38.1083038614365 82.6580365184723  38.1083038614365 82.6580365184723  C 38.1083038614365 82.6580365184723  37.3162976111588 75.050179031463  37.3162976111588 75.050179031463  C 37.3162976111588 75.050179031463  26.701780854863 68.1649835505751  26.701780854863 68.1649835505751  C 26.701780854863 68.1649835505751  24.1270801237204 62.4006338456457  24.1270801237204 62.4006338456457  C 24.1270801237204 62.4006338456457  23.9256764724471 38.6600528386775  23.9256764724471 38.6600528386775  C 23.9256764724471 38.6600528386775  12.0129226667273 27.658684679603  12.0129226667273 27.658684679603  C 12.0129226667273 27.658684679603  1.84203827742551 19.5416263173285  1.84203827742551 19.5416263173285  C 1.84203827742551 19.5416263173285  6.41716716648548 15.0838625455164  6.41716716648548 15.0838625455164  C 6.41716716648548 15.0838625455164  14.8978938876695 23.9502863694318  14.8978938876695 23.9502863694318  C 14.8978938876695 23.9502863694318  24.8619312837715 23.1304677447308  24.8619312837715 23.1304677447308  C 24.8619312837715 23.1304677447308  33.0541608828614 27.120678707143  33.0541608828614 27.120678707143  C 33.0541608828614 27.120678707143  40.3319090383323 19.7786051385311  40.3319090383323 19.7786051385311  C 40.3319090383323 19.7786051385311  46.0514793399403 7.278506056175  46.0514793399403 7.278506056175  C 46.0514793399403 7.278506056175  57.8989130425443 1.35403552610872  57.8989130425443 1.35403552610872  C 57.8989130425443 1.35403552610872  67.6914851679677 8.29687450404589  67.6914851679677 8.29687450404589  Z " stroke-width="2" stroke="#505050" fill="none" stroke-opacity="0.211764705882353" transform="matrix(1 0 0 1 1951 1431 )" mask="url(#clip641)" />
  </g>
</svg>