<?xml version="1.0" encoding="utf-8"?>
<svg version="1.1" xmlns:xlink="http://www.w3.org/1999/xlink" width="26px" height="18px" xmlns="http://www.w3.org/2000/svg">
  <defs>
    <mask fill="white" id="clip645">
      <path d="M 23.9025691419897 0.847385431935684  C 23.9025691419897 0.847385431935684  25.4937768646314 0.545561507194262  25.4937768646314 0.545561507194262  C 25.4937768646314 0.545561507194262  24.5357486856014 3.68993612614163  24.5357486856014 3.68993612614163  C 24.5357486856014 3.68993612614163  23.8998161874524 5.67542445157162  23.8998161874524 5.67542445157162  C 23.8998161874524 5.67542445157162  16.9940512017306 7.28815527332377  16.9940512017306 7.28815527332377  C 16.9940512017306 7.28815527332377  12.0607566706349 8.66888710814828  12.0607566706349 8.66888710814828  C 12.0607566706349 8.66888710814828  11.0696930371555 6.22501428468269  11.0696930371555 6.22501428468269  C 11.0696930371555 6.22501428468269  14.9265823441115 3.24620990842467  14.9265823441115 3.24620990842467  C 14.9265823441115 3.24620990842467  19.3739589278975 2.88582313261407  19.3739589278975 2.88582313261407  C 19.3739589278975 2.88582313261407  23.9025691419897 0.847385431935684  23.9025691419897 0.847385431935684  Z M 11.3490964512548 9.19033929195046  C 11.3490964512548 9.19033929195046  9.43028713865806 10.2737520367306  9.43028713865806 10.2737520367306  C 9.43028713865806 10.2737520367306  3.92302305795693 9.46062937380822  3.92302305795693 9.46062937380822  C 3.92302305795693 9.46062937380822  0.944326248444668 11.7220563920194  0.944326248444668 11.7220563920194  C 0.944326248444668 11.7220563920194  1.69037692809115 16.2595335736586  1.69037692809115 16.2595335736586  C 1.69037692809115 16.2595335736586  5.94644464297653 17.0771610712787  5.94644464297653 17.0771610712787  C 5.94644464297653 17.0771610712787  12.7310796290508 16.1694368797061  12.7310796290508 16.1694368797061  C 12.7310796290508 16.1694368797061  14.0056975798866 11.0891271170024  14.0056975798866 11.0891271170024  C 14.0056975798866 11.0891271170024  11.3490964512548 9.19033929195046  11.3490964512548 9.19033929195046  Z " fill-rule="evenodd" />
    </mask>
  </defs>
  <g transform="matrix(1 0 0 1 -3158 -2132 )">
    <path d="M 23.9025691419897 0.847385431935684  C 23.9025691419897 0.847385431935684  25.4937768646314 0.545561507194262  25.4937768646314 0.545561507194262  C 25.4937768646314 0.545561507194262  24.5357486856014 3.68993612614163  24.5357486856014 3.68993612614163  C 24.5357486856014 3.68993612614163  23.8998161874524 5.67542445157162  23.8998161874524 5.67542445157162  C 23.8998161874524 5.67542445157162  16.9940512017306 7.28815527332377  16.9940512017306 7.28815527332377  C 16.9940512017306 7.28815527332377  12.0607566706349 8.66888710814828  12.0607566706349 8.66888710814828  C 12.0607566706349 8.66888710814828  11.0696930371555 6.22501428468269  11.0696930371555 6.22501428468269  C 11.0696930371555 6.22501428468269  14.9265823441115 3.24620990842467  14.9265823441115 3.24620990842467  C 14.9265823441115 3.24620990842467  19.3739589278975 2.88582313261407  19.3739589278975 2.88582313261407  C 19.3739589278975 2.88582313261407  23.9025691419897 0.847385431935684  23.9025691419897 0.847385431935684  Z M 11.3490964512548 9.19033929195046  C 11.3490964512548 9.19033929195046  9.43028713865806 10.2737520367306  9.43028713865806 10.2737520367306  C 9.43028713865806 10.2737520367306  3.92302305795693 9.46062937380822  3.92302305795693 9.46062937380822  C 3.92302305795693 9.46062937380822  0.944326248444668 11.7220563920194  0.944326248444668 11.7220563920194  C 0.944326248444668 11.7220563920194  1.69037692809115 16.2595335736586  1.69037692809115 16.2595335736586  C 1.69037692809115 16.2595335736586  5.94644464297653 17.0771610712787  5.94644464297653 17.0771610712787  C 5.94644464297653 17.0771610712787  12.7310796290508 16.1694368797061  12.7310796290508 16.1694368797061  C 12.7310796290508 16.1694368797061  14.0056975798866 11.0891271170024  14.0056975798866 11.0891271170024  C 14.0056975798866 11.0891271170024  11.3490964512548 9.19033929195046  11.3490964512548 9.19033929195046  Z " fill-rule="nonzero" fill="#f2f2f2" stroke="none" transform="matrix(1 0 0 1 3158 2132 )" />
    <path d="M 23.9025691419897 0.847385431935684  C 23.9025691419897 0.847385431935684  25.4937768646314 0.545561507194262  25.4937768646314 0.545561507194262  C 25.4937768646314 0.545561507194262  24.5357486856014 3.68993612614163  24.5357486856014 3.68993612614163  C 24.5357486856014 3.68993612614163  23.8998161874524 5.67542445157162  23.8998161874524 5.67542445157162  C 23.8998161874524 5.67542445157162  16.9940512017306 7.28815527332377  16.9940512017306 7.28815527332377  C 16.9940512017306 7.28815527332377  12.0607566706349 8.66888710814828  12.0607566706349 8.66888710814828  C 12.0607566706349 8.66888710814828  11.0696930371555 6.22501428468269  11.0696930371555 6.22501428468269  C 11.0696930371555 6.22501428468269  14.9265823441115 3.24620990842467  14.9265823441115 3.24620990842467  C 14.9265823441115 3.24620990842467  19.3739589278975 2.88582313261407  19.3739589278975 2.88582313261407  C 19.3739589278975 2.88582313261407  23.9025691419897 0.847385431935684  23.9025691419897 0.847385431935684  Z " stroke-width="2" stroke="#505050" fill="none" stroke-opacity="0.211764705882353" transform="matrix(1 0 0 1 3158 2132 )" mask="url(#clip645)" />
    <path d="M 11.3490964512548 9.19033929195046  C 11.3490964512548 9.19033929195046  9.43028713865806 10.2737520367306  9.43028713865806 10.2737520367306  C 9.43028713865806 10.2737520367306  3.92302305795693 9.46062937380822  3.92302305795693 9.46062937380822  C 3.92302305795693 9.46062937380822  0.944326248444668 11.7220563920194  0.944326248444668 11.7220563920194  C 0.944326248444668 11.7220563920194  1.69037692809115 16.2595335736586  1.69037692809115 16.2595335736586  C 1.69037692809115 16.2595335736586  5.94644464297653 17.0771610712787  5.94644464297653 17.0771610712787  C 5.94644464297653 17.0771610712787  12.7310796290508 16.1694368797061  12.7310796290508 16.1694368797061  C 12.7310796290508 16.1694368797061  14.0056975798866 11.0891271170024  14.0056975798866 11.0891271170024  C 14.0056975798866 11.0891271170024  11.3490964512548 9.19033929195046  11.3490964512548 9.19033929195046  Z " stroke-width="2" stroke="#505050" fill="none" stroke-opacity="0.211764705882353" transform="matrix(1 0 0 1 3158 2132 )" mask="url(#clip645)" />
  </g>
</svg>