<?xml version="1.0" encoding="utf-8"?>
<svg version="1.1" xmlns:xlink="http://www.w3.org/1999/xlink" width="46px" height="41px" xmlns="http://www.w3.org/2000/svg">
  <defs>
    <mask fill="white" id="clip646">
      <path d="M 26.0111406468588 36.6389475179288  C 26.0111406468588 36.6389475179288  18.1335827094204 39.9838402223542  18.1335827094204 39.9838402223542  C 18.1335827094204 39.9838402223542  10.2023206870501 33.8692634875287  10.2023206870501 33.8692634875287  C 10.2023206870501 33.8692634875287  5.10109592917047 28.8747157179749  5.10109592917047 28.8747157179749  C 5.10109592917047 28.8747157179749  0.412814351906945 22.6277324581848  0.412814351906945 22.6277324581848  C 0.412814351906945 22.6277324581848  0.660580260276674 19.0430055190989  0.660580260276674 19.0430055190989  C 0.660580260276674 19.0430055190989  2.34814139172863 17.1111726138823  2.34814139172863 17.1111726138823  C 2.34814139172863 17.1111726138823  4.22290343172654 12.7091983085128  4.22290343172654 12.7091983085128  C 4.22290343172654 12.7091983085128  5.77832274538128 8.22691184865648  5.77832274538128 8.22691184865648  C 5.77832274538128 8.22691184865648  8.37986478326366 7.87744544670168  8.37986478326366 7.87744544670168  C 8.37986478326366 7.87744544670168  19.6119192960266 7.93822221225915  19.6119192960266 7.93822221225915  C 19.6119192960266 7.93822221225915  19.545848387128 0.660204536763803  19.545848387128 0.660204536763803  C 19.545848387128 0.660204536763803  25.2127838310005 0.262984961871028  25.2127838310005 0.262984961871028  C 25.2127838310005 0.262984961871028  29.9038183628015 1.07261830304621  29.9038183628015 1.07261830304621  C 29.9038183628015 1.07261830304621  34.4709699404177 0.293373344649581  34.4709699404177 0.293373344649581  C 34.4709699404177 0.293373344649581  35.4345040285223 0.623304357675509  35.4345040285223 0.623304357675509  C 35.4345040285223 0.623304357675509  34.8729013028844 3.2627524618815  34.8729013028844 3.2627524618815  C 34.8729013028844 3.2627524618815  37.0312176602388 6.38841469054613  37.0312176602388 6.38841469054613  C 37.0312176602388 6.38841469054613  42.7738808253425 5.89568876977739  42.7738808253425 5.89568876977739  C 42.7738808253425 5.89568876977739  44.6981960470143 7.09602988953561  44.6981960470143 7.09602988953561  C 44.6981960470143 7.09602988953561  41.3561092385601 14.0983815212528  41.3561092385601 14.0983815212528  C 41.3561092385601 14.0983815212528  45.0092799097454 17.6733576952881  45.0092799097454 17.6733576952881  C 45.0092799097454 17.6733576952881  45.8516839982028 23.9713330967566  45.8516839982028 23.9713330967566  C 45.8516839982028 23.9713330967566  44.8771380919482 27.9934526173929  44.8771380919482 27.9934526173929  C 44.8771380919482 27.9934526173929  42.5068442352108 30.8521311973592  42.5068442352108 30.8521311973592  C 42.5068442352108 30.8521311973592  35.6932817550421 30.5960005425102  35.6932817550421 30.5960005425102  C 35.6932817550421 30.5960005425102  31.5693558579539 27.6917393883757  31.5693558579539 27.6917393883757  C 31.5693558579539 27.6917393883757  30.9554469961045 30.3724288692099  30.9554469961045 30.3724288692099  C 30.9554469961045 30.3724288692099  25.7468570112644 31.1147736485179  25.7468570112644 31.1147736485179  C 25.7468570112644 31.1147736485179  21.1012677007827 32.6363633862222  21.1012677007827 32.6363633862222  C 21.1012677007827 32.6363633862222  26.0111406468588 36.6389475179288  26.0111406468588 36.6389475179288  Z " fill-rule="evenodd" />
    </mask>
  </defs>
  <g transform="matrix(1 0 0 1 -1859 -2019 )">
    <path d="M 26.0111406468588 36.6389475179288  C 26.0111406468588 36.6389475179288  18.1335827094204 39.9838402223542  18.1335827094204 39.9838402223542  C 18.1335827094204 39.9838402223542  10.2023206870501 33.8692634875287  10.2023206870501 33.8692634875287  C 10.2023206870501 33.8692634875287  5.10109592917047 28.8747157179749  5.10109592917047 28.8747157179749  C 5.10109592917047 28.8747157179749  0.412814351906945 22.6277324581848  0.412814351906945 22.6277324581848  C 0.412814351906945 22.6277324581848  0.660580260276674 19.0430055190989  0.660580260276674 19.0430055190989  C 0.660580260276674 19.0430055190989  2.34814139172863 17.1111726138823  2.34814139172863 17.1111726138823  C 2.34814139172863 17.1111726138823  4.22290343172654 12.7091983085128  4.22290343172654 12.7091983085128  C 4.22290343172654 12.7091983085128  5.77832274538128 8.22691184865648  5.77832274538128 8.22691184865648  C 5.77832274538128 8.22691184865648  8.37986478326366 7.87744544670168  8.37986478326366 7.87744544670168  C 8.37986478326366 7.87744544670168  19.6119192960266 7.93822221225915  19.6119192960266 7.93822221225915  C 19.6119192960266 7.93822221225915  19.545848387128 0.660204536763803  19.545848387128 0.660204536763803  C 19.545848387128 0.660204536763803  25.2127838310005 0.262984961871028  25.2127838310005 0.262984961871028  C 25.2127838310005 0.262984961871028  29.9038183628015 1.07261830304621  29.9038183628015 1.07261830304621  C 29.9038183628015 1.07261830304621  34.4709699404177 0.293373344649581  34.4709699404177 0.293373344649581  C 34.4709699404177 0.293373344649581  35.4345040285223 0.623304357675509  35.4345040285223 0.623304357675509  C 35.4345040285223 0.623304357675509  34.8729013028844 3.2627524618815  34.8729013028844 3.2627524618815  C 34.8729013028844 3.2627524618815  37.0312176602388 6.38841469054613  37.0312176602388 6.38841469054613  C 37.0312176602388 6.38841469054613  42.7738808253425 5.89568876977739  42.7738808253425 5.89568876977739  C 42.7738808253425 5.89568876977739  44.6981960470143 7.09602988953561  44.6981960470143 7.09602988953561  C 44.6981960470143 7.09602988953561  41.3561092385601 14.0983815212528  41.3561092385601 14.0983815212528  C 41.3561092385601 14.0983815212528  45.0092799097454 17.6733576952881  45.0092799097454 17.6733576952881  C 45.0092799097454 17.6733576952881  45.8516839982028 23.9713330967566  45.8516839982028 23.9713330967566  C 45.8516839982028 23.9713330967566  44.8771380919482 27.9934526173929  44.8771380919482 27.9934526173929  C 44.8771380919482 27.9934526173929  42.5068442352108 30.8521311973592  42.5068442352108 30.8521311973592  C 42.5068442352108 30.8521311973592  35.6932817550421 30.5960005425102  35.6932817550421 30.5960005425102  C 35.6932817550421 30.5960005425102  31.5693558579539 27.6917393883757  31.5693558579539 27.6917393883757  C 31.5693558579539 27.6917393883757  30.9554469961045 30.3724288692099  30.9554469961045 30.3724288692099  C 30.9554469961045 30.3724288692099  25.7468570112644 31.1147736485179  25.7468570112644 31.1147736485179  C 25.7468570112644 31.1147736485179  21.1012677007827 32.6363633862222  21.1012677007827 32.6363633862222  C 21.1012677007827 32.6363633862222  26.0111406468588 36.6389475179288  26.0111406468588 36.6389475179288  Z " fill-rule="nonzero" fill="#f2f2f2" stroke="none" transform="matrix(1 0 0 1 1859 2019 )" />
    <path d="M 26.0111406468588 36.6389475179288  C 26.0111406468588 36.6389475179288  18.1335827094204 39.9838402223542  18.1335827094204 39.9838402223542  C 18.1335827094204 39.9838402223542  10.2023206870501 33.8692634875287  10.2023206870501 33.8692634875287  C 10.2023206870501 33.8692634875287  5.10109592917047 28.8747157179749  5.10109592917047 28.8747157179749  C 5.10109592917047 28.8747157179749  0.412814351906945 22.6277324581848  0.412814351906945 22.6277324581848  C 0.412814351906945 22.6277324581848  0.660580260276674 19.0430055190989  0.660580260276674 19.0430055190989  C 0.660580260276674 19.0430055190989  2.34814139172863 17.1111726138823  2.34814139172863 17.1111726138823  C 2.34814139172863 17.1111726138823  4.22290343172654 12.7091983085128  4.22290343172654 12.7091983085128  C 4.22290343172654 12.7091983085128  5.77832274538128 8.22691184865648  5.77832274538128 8.22691184865648  C 5.77832274538128 8.22691184865648  8.37986478326366 7.87744544670168  8.37986478326366 7.87744544670168  C 8.37986478326366 7.87744544670168  19.6119192960266 7.93822221225915  19.6119192960266 7.93822221225915  C 19.6119192960266 7.93822221225915  19.545848387128 0.660204536763803  19.545848387128 0.660204536763803  C 19.545848387128 0.660204536763803  25.2127838310005 0.262984961871028  25.2127838310005 0.262984961871028  C 25.2127838310005 0.262984961871028  29.9038183628015 1.07261830304621  29.9038183628015 1.07261830304621  C 29.9038183628015 1.07261830304621  34.4709699404177 0.293373344649581  34.4709699404177 0.293373344649581  C 34.4709699404177 0.293373344649581  35.4345040285223 0.623304357675509  35.4345040285223 0.623304357675509  C 35.4345040285223 0.623304357675509  34.8729013028844 3.2627524618815  34.8729013028844 3.2627524618815  C 34.8729013028844 3.2627524618815  37.0312176602388 6.38841469054613  37.0312176602388 6.38841469054613  C 37.0312176602388 6.38841469054613  42.7738808253425 5.89568876977739  42.7738808253425 5.89568876977739  C 42.7738808253425 5.89568876977739  44.6981960470143 7.09602988953561  44.6981960470143 7.09602988953561  C 44.6981960470143 7.09602988953561  41.3561092385601 14.0983815212528  41.3561092385601 14.0983815212528  C 41.3561092385601 14.0983815212528  45.0092799097454 17.6733576952881  45.0092799097454 17.6733576952881  C 45.0092799097454 17.6733576952881  45.8516839982028 23.9713330967566  45.8516839982028 23.9713330967566  C 45.8516839982028 23.9713330967566  44.8771380919482 27.9934526173929  44.8771380919482 27.9934526173929  C 44.8771380919482 27.9934526173929  42.5068442352108 30.8521311973592  42.5068442352108 30.8521311973592  C 42.5068442352108 30.8521311973592  35.6932817550421 30.5960005425102  35.6932817550421 30.5960005425102  C 35.6932817550421 30.5960005425102  31.5693558579539 27.6917393883757  31.5693558579539 27.6917393883757  C 31.5693558579539 27.6917393883757  30.9554469961045 30.3724288692099  30.9554469961045 30.3724288692099  C 30.9554469961045 30.3724288692099  25.7468570112644 31.1147736485179  25.7468570112644 31.1147736485179  C 25.7468570112644 31.1147736485179  21.1012677007827 32.6363633862222  21.1012677007827 32.6363633862222  C 21.1012677007827 32.6363633862222  26.0111406468588 36.6389475179288  26.0111406468588 36.6389475179288  Z " stroke-width="2" stroke="#505050" fill="none" stroke-opacity="0.211764705882353" transform="matrix(1 0 0 1 1859 2019 )" mask="url(#clip646)" />
  </g>
</svg>