<?xml version="1.0" encoding="utf-8"?>
<svg version="1.1" xmlns:xlink="http://www.w3.org/1999/xlink" width="75px" height="93px" xmlns="http://www.w3.org/2000/svg">
  <defs>
    <mask fill="white" id="clip647">
      <path d="M 6.61535488721685 39.2575891183489  C 6.61535488721685 39.2575891183489  17.0268025747299 45.7775419980625  17.0268025747299 45.7775419980625  C 17.0268025747299 45.7775419980625  12.8331971661739 54.4856218752248  12.8331971661739 54.4856218752248  C 12.8331971661739 54.4856218752248  4.89382824910711 52.3593144468988  4.89382824910711 52.3593144468988  C 4.89382824910711 52.3593144468988  0.0556966599945683 52.5003450416347  0.0556966599945683 52.5003450416347  C 0.0556966599945683 52.5003450416347  1.66840718969875 45.3457714080248  1.66840718969875 45.3457714080248  C 1.66840718969875 45.3457714080248  0.0556966599945683 39.6958688127589  0.0556966599945683 39.6958688127589  C 0.0556966599945683 39.6958688127589  6.61535488721685 39.2575891183489  6.61535488721685 39.2575891183489  Z M 26.3417622315217 1.70656599382244  C 26.3417622315217 1.70656599382244  35.7836522531806 0.730200337958497  35.7836522531806 0.730200337958497  C 35.7836522531806 0.730200337958497  27.4215528457008 13.160419987835  27.4215528457008 13.160419987835  C 27.4215528457008 13.160419987835  35.3902401689448 11.6069137442826  35.3902401689448 11.6069137442826  C 35.3902401689448 11.6069137442826  45.9886283503854 11.6654956836344  45.9886283503854 11.6654956836344  C 45.9886283503854 11.6654956836344  43.9490238569361 20.8172964312656  43.9490238569361 20.8172964312656  C 43.9490238569361 20.8172964312656  34.8880119763033 30.6568925409166  34.8880119763033 30.6568925409166  C 34.8880119763033 30.6568925409166  45.0037030614831 31.3468576043937  45.0037030614831 31.3468576043937  C 45.0037030614831 31.3468576043937  45.6259079890333 32.4837811681109  45.6259079890333 32.4837811681109  C 45.6259079890333 32.4837811681109  52.5929290836202 45.0398435025209  52.5929290836202 45.0398435025209  C 52.5929290836202 45.0398435025209  57.947239648503 48.2954636170475  57.947239648503 48.2954636170475  C 57.947239648503 48.2954636170475  62.763049984609 60.0313788005318  62.763049984609 60.0313788005318  C 62.763049984609 60.0313788005318  64.9923851286119 64.0257991837441  64.9923851286119 64.0257991837441  C 64.9923851286119 64.0257991837441  74.4705471864058 65.9394758692374  74.4705471864058 65.9394758692374  C 74.4705471864058 65.9394758692374  73.5191037770128 72.3032102440127  73.5191037770128 72.3032102440127  C 73.5191037770128 72.3032102440127  69.5347601153909 75.1910828839125  69.5347601153909 75.1910828839125  C 69.5347601153909 75.1910828839125  72.6597355362709 80.2399781754577  72.6597355362709 80.2399781754577  C 72.6597355362709 80.2399781754577  65.6229605260394 85.2910431684603  65.6229605260394 85.2910431684603  C 65.6229605260394 85.2910431684603  55.1570830227171 85.2020854087039  55.1570830227171 85.2020854087039  C 55.1570830227171 85.2020854087039  39.8126384208151 87.831763575164  39.8126384208151 87.831763575164  C 39.8126384208151 87.831763575164  36.1631135542873 85.9506324115328  36.1631135542873 85.9506324115328  C 36.1631135542873 85.9506324115328  30.9901631700807 90.4158780110171  30.9901631700807 90.4158780110171  C 30.9901631700807 90.4158780110171  23.7524968827926 89.3375363866518  23.7524968827926 89.3375363866518  C 23.7524968827926 89.3375363866518  18.2558883299947 92.9544287162633  18.2558883299947 92.9544287162633  C 18.2558883299947 92.9544287162633  14.0957648009482 91.0667884482596  14.0957648009482 91.0667884482596  C 14.0957648009482 91.0667884482596  25.5688888461792 81.0080524914037  25.5688888461792 81.0080524914037  C 25.5688888461792 81.0080524914037  32.5721819769012 78.9121208834825  32.5721819769012 78.9121208834825  C 32.5721819769012 78.9121208834825  32.510798531134 78.9034420776525  32.510798531134 78.9034420776525  C 32.510798531134 78.9034420776525  20.2927026668184 77.2783356860033  20.2927026668184 77.2783356860033  C 20.2927026668184 77.2783356860033  18.0801084625703 73.3750427640052  18.0801084625703 73.3750427640052  C 18.0801084625703 73.3750427640052  26.2552673761224 70.3092546045924  26.2552673761224 70.3092546045924  C 26.2552673761224 70.3092546045924  21.9695867989155 64.930564691511  21.9695867989155 64.930564691511  C 21.9695867989155 64.930564691511  23.4567402804594 58.2999570374662  23.4567402804594 58.2999570374662  C 23.4567402804594 58.2999570374662  35.0833229401083 59.2220801568933  35.0833229401083 59.2220801568933  C 35.0833229401083 59.2220801568933  35.0972737232372 59.2220801568933  35.0972737232372 59.2220801568933  C 35.0972737232372 59.2220801568933  36.2496084096868 53.2705890590383  36.2496084096868 53.2705890590383  C 36.2496084096868 53.2705890590383  31.0096942664613 45.2893591701303  31.0096942664613 45.2893591701303  C 31.0096942664613 45.2893591701303  30.8925076881783 45.1418194710221  30.8925076881783 45.1418194710221  C 30.8925076881783 45.1418194710221  21.3920243773782 43.293233829253  21.3920243773782 43.293233829253  C 21.3920243773782 43.293233829253  19.5281997513531 40.4335673083005  19.5281997513531 40.4335673083005  C 19.5281997513531 40.4335673083005  22.3713693530289 35.671072609142  22.3713693530289 35.671072609142  C 22.3713693530289 35.671072609142  19.7988449440544 32.7072604182307  19.7988449440544 32.7072604182307  C 19.7988449440544 32.7072604182307  15.5857084391179 37.7800224258082  15.5857084391179 37.7800224258082  C 15.5857084391179 37.7800224258082  15.1281227524891 27.3719645342987  15.1281227524891 27.3719645342987  C 15.1281227524891 27.3719645342987  11.1772609703766 21.7589468638099  11.1772609703766 21.7589468638099  C 11.1772609703766 21.7589468638099  14.0176404154263 10.1380258575717  14.0176404154263 10.1380258575717  C 14.0176404154263 10.1380258575717  20.0946015463876 0.784442874395363  20.0946015463876 0.784442874395363  C 20.0946015463876 0.784442874395363  26.3417622315217 1.70656599382244  26.3417622315217 1.70656599382244  Z " fill-rule="evenodd" />
    </mask>
  </defs>
  <g transform="matrix(1 0 0 1 -1735 -1597 )">
    <path d="M 6.61535488721685 39.2575891183489  C 6.61535488721685 39.2575891183489  17.0268025747299 45.7775419980625  17.0268025747299 45.7775419980625  C 17.0268025747299 45.7775419980625  12.8331971661739 54.4856218752248  12.8331971661739 54.4856218752248  C 12.8331971661739 54.4856218752248  4.89382824910711 52.3593144468988  4.89382824910711 52.3593144468988  C 4.89382824910711 52.3593144468988  0.0556966599945683 52.5003450416347  0.0556966599945683 52.5003450416347  C 0.0556966599945683 52.5003450416347  1.66840718969875 45.3457714080248  1.66840718969875 45.3457714080248  C 1.66840718969875 45.3457714080248  0.0556966599945683 39.6958688127589  0.0556966599945683 39.6958688127589  C 0.0556966599945683 39.6958688127589  6.61535488721685 39.2575891183489  6.61535488721685 39.2575891183489  Z M 26.3417622315217 1.70656599382244  C 26.3417622315217 1.70656599382244  35.7836522531806 0.730200337958497  35.7836522531806 0.730200337958497  C 35.7836522531806 0.730200337958497  27.4215528457008 13.160419987835  27.4215528457008 13.160419987835  C 27.4215528457008 13.160419987835  35.3902401689448 11.6069137442826  35.3902401689448 11.6069137442826  C 35.3902401689448 11.6069137442826  45.9886283503854 11.6654956836344  45.9886283503854 11.6654956836344  C 45.9886283503854 11.6654956836344  43.9490238569361 20.8172964312656  43.9490238569361 20.8172964312656  C 43.9490238569361 20.8172964312656  34.8880119763033 30.6568925409166  34.8880119763033 30.6568925409166  C 34.8880119763033 30.6568925409166  45.0037030614831 31.3468576043937  45.0037030614831 31.3468576043937  C 45.0037030614831 31.3468576043937  45.6259079890333 32.4837811681109  45.6259079890333 32.4837811681109  C 45.6259079890333 32.4837811681109  52.5929290836202 45.0398435025209  52.5929290836202 45.0398435025209  C 52.5929290836202 45.0398435025209  57.947239648503 48.2954636170475  57.947239648503 48.2954636170475  C 57.947239648503 48.2954636170475  62.763049984609 60.0313788005318  62.763049984609 60.0313788005318  C 62.763049984609 60.0313788005318  64.9923851286119 64.0257991837441  64.9923851286119 64.0257991837441  C 64.9923851286119 64.0257991837441  74.4705471864058 65.9394758692374  74.4705471864058 65.9394758692374  C 74.4705471864058 65.9394758692374  73.5191037770128 72.3032102440127  73.5191037770128 72.3032102440127  C 73.5191037770128 72.3032102440127  69.5347601153909 75.1910828839125  69.5347601153909 75.1910828839125  C 69.5347601153909 75.1910828839125  72.6597355362709 80.2399781754577  72.6597355362709 80.2399781754577  C 72.6597355362709 80.2399781754577  65.6229605260394 85.2910431684603  65.6229605260394 85.2910431684603  C 65.6229605260394 85.2910431684603  55.1570830227171 85.2020854087039  55.1570830227171 85.2020854087039  C 55.1570830227171 85.2020854087039  39.8126384208151 87.831763575164  39.8126384208151 87.831763575164  C 39.8126384208151 87.831763575164  36.1631135542873 85.9506324115328  36.1631135542873 85.9506324115328  C 36.1631135542873 85.9506324115328  30.9901631700807 90.4158780110171  30.9901631700807 90.4158780110171  C 30.9901631700807 90.4158780110171  23.7524968827926 89.3375363866518  23.7524968827926 89.3375363866518  C 23.7524968827926 89.3375363866518  18.2558883299947 92.9544287162633  18.2558883299947 92.9544287162633  C 18.2558883299947 92.9544287162633  14.0957648009482 91.0667884482596  14.0957648009482 91.0667884482596  C 14.0957648009482 91.0667884482596  25.5688888461792 81.0080524914037  25.5688888461792 81.0080524914037  C 25.5688888461792 81.0080524914037  32.5721819769012 78.9121208834825  32.5721819769012 78.9121208834825  C 32.5721819769012 78.9121208834825  32.510798531134 78.9034420776525  32.510798531134 78.9034420776525  C 32.510798531134 78.9034420776525  20.2927026668184 77.2783356860033  20.2927026668184 77.2783356860033  C 20.2927026668184 77.2783356860033  18.0801084625703 73.3750427640052  18.0801084625703 73.3750427640052  C 18.0801084625703 73.3750427640052  26.2552673761224 70.3092546045924  26.2552673761224 70.3092546045924  C 26.2552673761224 70.3092546045924  21.9695867989155 64.930564691511  21.9695867989155 64.930564691511  C 21.9695867989155 64.930564691511  23.4567402804594 58.2999570374662  23.4567402804594 58.2999570374662  C 23.4567402804594 58.2999570374662  35.0833229401083 59.2220801568933  35.0833229401083 59.2220801568933  C 35.0833229401083 59.2220801568933  35.0972737232372 59.2220801568933  35.0972737232372 59.2220801568933  C 35.0972737232372 59.2220801568933  36.2496084096868 53.2705890590383  36.2496084096868 53.2705890590383  C 36.2496084096868 53.2705890590383  31.0096942664613 45.2893591701303  31.0096942664613 45.2893591701303  C 31.0096942664613 45.2893591701303  30.8925076881783 45.1418194710221  30.8925076881783 45.1418194710221  C 30.8925076881783 45.1418194710221  21.3920243773782 43.293233829253  21.3920243773782 43.293233829253  C 21.3920243773782 43.293233829253  19.5281997513531 40.4335673083005  19.5281997513531 40.4335673083005  C 19.5281997513531 40.4335673083005  22.3713693530289 35.671072609142  22.3713693530289 35.671072609142  C 22.3713693530289 35.671072609142  19.7988449440544 32.7072604182307  19.7988449440544 32.7072604182307  C 19.7988449440544 32.7072604182307  15.5857084391179 37.7800224258082  15.5857084391179 37.7800224258082  C 15.5857084391179 37.7800224258082  15.1281227524891 27.3719645342987  15.1281227524891 27.3719645342987  C 15.1281227524891 27.3719645342987  11.1772609703766 21.7589468638099  11.1772609703766 21.7589468638099  C 11.1772609703766 21.7589468638099  14.0176404154263 10.1380258575717  14.0176404154263 10.1380258575717  C 14.0176404154263 10.1380258575717  20.0946015463876 0.784442874395363  20.0946015463876 0.784442874395363  C 20.0946015463876 0.784442874395363  26.3417622315217 1.70656599382244  26.3417622315217 1.70656599382244  Z " fill-rule="nonzero" fill="#74b9ff" stroke="none" transform="matrix(1 0 0 1 1735 1597 )" />
    <path d="M 6.61535488721685 39.2575891183489  C 6.61535488721685 39.2575891183489  17.0268025747299 45.7775419980625  17.0268025747299 45.7775419980625  C 17.0268025747299 45.7775419980625  12.8331971661739 54.4856218752248  12.8331971661739 54.4856218752248  C 12.8331971661739 54.4856218752248  4.89382824910711 52.3593144468988  4.89382824910711 52.3593144468988  C 4.89382824910711 52.3593144468988  0.0556966599945683 52.5003450416347  0.0556966599945683 52.5003450416347  C 0.0556966599945683 52.5003450416347  1.66840718969875 45.3457714080248  1.66840718969875 45.3457714080248  C 1.66840718969875 45.3457714080248  0.0556966599945683 39.6958688127589  0.0556966599945683 39.6958688127589  C 0.0556966599945683 39.6958688127589  6.61535488721685 39.2575891183489  6.61535488721685 39.2575891183489  Z " stroke-width="2" stroke="#505050" fill="none" stroke-opacity="0.211764705882353" transform="matrix(1 0 0 1 1735 1597 )" mask="url(#clip647)" />
    <path d="M 26.3417622315217 1.70656599382244  C 26.3417622315217 1.70656599382244  35.7836522531806 0.730200337958497  35.7836522531806 0.730200337958497  C 35.7836522531806 0.730200337958497  27.4215528457008 13.160419987835  27.4215528457008 13.160419987835  C 27.4215528457008 13.160419987835  35.3902401689448 11.6069137442826  35.3902401689448 11.6069137442826  C 35.3902401689448 11.6069137442826  45.9886283503854 11.6654956836344  45.9886283503854 11.6654956836344  C 45.9886283503854 11.6654956836344  43.9490238569361 20.8172964312656  43.9490238569361 20.8172964312656  C 43.9490238569361 20.8172964312656  34.8880119763033 30.6568925409166  34.8880119763033 30.6568925409166  C 34.8880119763033 30.6568925409166  45.0037030614831 31.3468576043937  45.0037030614831 31.3468576043937  C 45.0037030614831 31.3468576043937  45.6259079890333 32.4837811681109  45.6259079890333 32.4837811681109  C 45.6259079890333 32.4837811681109  52.5929290836202 45.0398435025209  52.5929290836202 45.0398435025209  C 52.5929290836202 45.0398435025209  57.947239648503 48.2954636170475  57.947239648503 48.2954636170475  C 57.947239648503 48.2954636170475  62.763049984609 60.0313788005318  62.763049984609 60.0313788005318  C 62.763049984609 60.0313788005318  64.9923851286119 64.0257991837441  64.9923851286119 64.0257991837441  C 64.9923851286119 64.0257991837441  74.4705471864058 65.9394758692374  74.4705471864058 65.9394758692374  C 74.4705471864058 65.9394758692374  73.5191037770128 72.3032102440127  73.5191037770128 72.3032102440127  C 73.5191037770128 72.3032102440127  69.5347601153909 75.1910828839125  69.5347601153909 75.1910828839125  C 69.5347601153909 75.1910828839125  72.6597355362709 80.2399781754577  72.6597355362709 80.2399781754577  C 72.6597355362709 80.2399781754577  65.6229605260394 85.2910431684603  65.6229605260394 85.2910431684603  C 65.6229605260394 85.2910431684603  55.1570830227171 85.2020854087039  55.1570830227171 85.2020854087039  C 55.1570830227171 85.2020854087039  39.8126384208151 87.831763575164  39.8126384208151 87.831763575164  C 39.8126384208151 87.831763575164  36.1631135542873 85.9506324115328  36.1631135542873 85.9506324115328  C 36.1631135542873 85.9506324115328  30.9901631700807 90.4158780110171  30.9901631700807 90.4158780110171  C 30.9901631700807 90.4158780110171  23.7524968827926 89.3375363866518  23.7524968827926 89.3375363866518  C 23.7524968827926 89.3375363866518  18.2558883299947 92.9544287162633  18.2558883299947 92.9544287162633  C 18.2558883299947 92.9544287162633  14.0957648009482 91.0667884482596  14.0957648009482 91.0667884482596  C 14.0957648009482 91.0667884482596  25.5688888461792 81.0080524914037  25.5688888461792 81.0080524914037  C 25.5688888461792 81.0080524914037  32.5721819769012 78.9121208834825  32.5721819769012 78.9121208834825  C 32.5721819769012 78.9121208834825  32.510798531134 78.9034420776525  32.510798531134 78.9034420776525  C 32.510798531134 78.9034420776525  20.2927026668184 77.2783356860033  20.2927026668184 77.2783356860033  C 20.2927026668184 77.2783356860033  18.0801084625703 73.3750427640052  18.0801084625703 73.3750427640052  C 18.0801084625703 73.3750427640052  26.2552673761224 70.3092546045924  26.2552673761224 70.3092546045924  C 26.2552673761224 70.3092546045924  21.9695867989155 64.930564691511  21.9695867989155 64.930564691511  C 21.9695867989155 64.930564691511  23.4567402804594 58.2999570374662  23.4567402804594 58.2999570374662  C 23.4567402804594 58.2999570374662  35.0833229401083 59.2220801568933  35.0833229401083 59.2220801568933  C 35.0833229401083 59.2220801568933  35.0972737232372 59.2220801568933  35.0972737232372 59.2220801568933  C 35.0972737232372 59.2220801568933  36.2496084096868 53.2705890590383  36.2496084096868 53.2705890590383  C 36.2496084096868 53.2705890590383  31.0096942664613 45.2893591701303  31.0096942664613 45.2893591701303  C 31.0096942664613 45.2893591701303  30.8925076881783 45.1418194710221  30.8925076881783 45.1418194710221  C 30.8925076881783 45.1418194710221  21.3920243773782 43.293233829253  21.3920243773782 43.293233829253  C 21.3920243773782 43.293233829253  19.5281997513531 40.4335673083005  19.5281997513531 40.4335673083005  C 19.5281997513531 40.4335673083005  22.3713693530289 35.671072609142  22.3713693530289 35.671072609142  C 22.3713693530289 35.671072609142  19.7988449440544 32.7072604182307  19.7988449440544 32.7072604182307  C 19.7988449440544 32.7072604182307  15.5857084391179 37.7800224258082  15.5857084391179 37.7800224258082  C 15.5857084391179 37.7800224258082  15.1281227524891 27.3719645342987  15.1281227524891 27.3719645342987  C 15.1281227524891 27.3719645342987  11.1772609703766 21.7589468638099  11.1772609703766 21.7589468638099  C 11.1772609703766 21.7589468638099  14.0176404154263 10.1380258575717  14.0176404154263 10.1380258575717  C 14.0176404154263 10.1380258575717  20.0946015463876 0.784442874395363  20.0946015463876 0.784442874395363  C 20.0946015463876 0.784442874395363  26.3417622315217 1.70656599382244  26.3417622315217 1.70656599382244  Z " stroke-width="2" stroke="#505050" fill="none" stroke-opacity="0.211764705882353" transform="matrix(1 0 0 1 1735 1597 )" mask="url(#clip647)" />
  </g>
</svg>