<?xml version="1.0" encoding="utf-8"?>
<svg version="1.1" xmlns:xlink="http://www.w3.org/1999/xlink" width="57px" height="21px" xmlns="http://www.w3.org/2000/svg">
  <defs>
    <mask fill="white" id="clip651">
      <path d="M 21.861786200846 16.9487769283912  C 21.861786200846 16.9487769283912  13.4918703688756 17.3162963591397  13.4918703688756 17.3162963591397  C 13.4918703688756 17.3162963591397  14.6631542047525 14.0127509142094  14.6631542047525 14.0127509142094  C 14.6631542047525 14.0127509142094  12.6988719823852 7.1919780319686  12.6988719823852 7.1919780319686  C 12.6988719823852 7.1919780319686  8.15944658975314 4.29311690404228  8.15944658975314 4.29311690404228  C 8.15944658975314 4.29311690404228  3.80496075015444 3.38670662258963  3.80496075015444 3.38670662258963  C 3.80496075015444 3.38670662258963  0.927189220381284 0.958600720565812  0.927189220381284 0.958600720565812  C 0.927189220381284 0.958600720565812  1.88551235882591 0.0191549846637713  1.88551235882591 0.0191549846637713  C 1.88551235882591 0.0191549846637713  8.52652358138006 1.37773804889139  8.52652358138006 1.37773804889139  C 8.52652358138006 1.37773804889139  20.0936519892714 2.65992662470492  20.0936519892714 2.65992662470492  C 20.0936519892714 2.65992662470492  32.8250370920698 6.44248615915006  32.8250370920698 6.44248615915006  C 32.8250370920698 6.44248615915006  34.2036773964985 7.9001755867256  34.2036773964985 7.9001755867256  C 34.2036773964985 7.9001755867256  38.9672719443223 6.66754019258602  38.9672719443223 6.66754019258602  C 38.9672719443223 6.66754019258602  46.2948012046508 8.30692461963264  46.2948012046508 8.30692461963264  C 46.2948012046508 8.30692461963264  48.701817508522 13.0072342694088  48.701817508522 13.0072342694088  C 48.701817508522 13.0072342694088  53.6391431516187 14.8056018209927  53.6391431516187 14.8056018209927  C 53.6391431516187 14.8056018209927  51.5992038393744 15.8709952269827  51.5992038393744 15.8709952269827  C 51.5992038393744 15.8709952269827  55.468923880871 20.035527203498  55.468923880871 20.035527203498  C 55.468923880871 20.035527203498  54.3985161648308 20.9316139054353  54.3985161648308 20.9316139054353  C 54.3985161648308 20.9316139054353  50.1617191317077 20.4773764067574  50.1617191317077 20.4773764067574  C 50.1617191317077 20.4773764067574  44.3081020667645 18.2722598222663  44.3081020667645 18.2722598222663  C 44.3081020667645 18.2722598222663  42.383049446556 19.5255423754368  42.383049446556 19.5255423754368  C 42.383049446556 19.5255423754368  31.4660115887199 20.721012883321  31.4660115887199 20.721012883321  C 31.4660115887199 20.721012883321  21.861786200846 16.9487769283912  21.861786200846 16.9487769283912  Z " fill-rule="evenodd" />
    </mask>
  </defs>
  <g transform="matrix(1 0 0 1 -2100 -1744 )">
    <path d="M 21.861786200846 16.9487769283912  C 21.861786200846 16.9487769283912  13.4918703688756 17.3162963591397  13.4918703688756 17.3162963591397  C 13.4918703688756 17.3162963591397  14.6631542047525 14.0127509142094  14.6631542047525 14.0127509142094  C 14.6631542047525 14.0127509142094  12.6988719823852 7.1919780319686  12.6988719823852 7.1919780319686  C 12.6988719823852 7.1919780319686  8.15944658975314 4.29311690404228  8.15944658975314 4.29311690404228  C 8.15944658975314 4.29311690404228  3.80496075015444 3.38670662258963  3.80496075015444 3.38670662258963  C 3.80496075015444 3.38670662258963  0.927189220381284 0.958600720565812  0.927189220381284 0.958600720565812  C 0.927189220381284 0.958600720565812  1.88551235882591 0.0191549846637713  1.88551235882591 0.0191549846637713  C 1.88551235882591 0.0191549846637713  8.52652358138006 1.37773804889139  8.52652358138006 1.37773804889139  C 8.52652358138006 1.37773804889139  20.0936519892714 2.65992662470492  20.0936519892714 2.65992662470492  C 20.0936519892714 2.65992662470492  32.8250370920698 6.44248615915006  32.8250370920698 6.44248615915006  C 32.8250370920698 6.44248615915006  34.2036773964985 7.9001755867256  34.2036773964985 7.9001755867256  C 34.2036773964985 7.9001755867256  38.9672719443223 6.66754019258602  38.9672719443223 6.66754019258602  C 38.9672719443223 6.66754019258602  46.2948012046508 8.30692461963264  46.2948012046508 8.30692461963264  C 46.2948012046508 8.30692461963264  48.701817508522 13.0072342694088  48.701817508522 13.0072342694088  C 48.701817508522 13.0072342694088  53.6391431516187 14.8056018209927  53.6391431516187 14.8056018209927  C 53.6391431516187 14.8056018209927  51.5992038393744 15.8709952269827  51.5992038393744 15.8709952269827  C 51.5992038393744 15.8709952269827  55.468923880871 20.035527203498  55.468923880871 20.035527203498  C 55.468923880871 20.035527203498  54.3985161648308 20.9316139054353  54.3985161648308 20.9316139054353  C 54.3985161648308 20.9316139054353  50.1617191317077 20.4773764067574  50.1617191317077 20.4773764067574  C 50.1617191317077 20.4773764067574  44.3081020667645 18.2722598222663  44.3081020667645 18.2722598222663  C 44.3081020667645 18.2722598222663  42.383049446556 19.5255423754368  42.383049446556 19.5255423754368  C 42.383049446556 19.5255423754368  31.4660115887199 20.721012883321  31.4660115887199 20.721012883321  C 31.4660115887199 20.721012883321  21.861786200846 16.9487769283912  21.861786200846 16.9487769283912  Z " fill-rule="nonzero" fill="#f2f2f2" stroke="none" transform="matrix(1 0 0 1 2100 1744 )" />
    <path d="M 21.861786200846 16.9487769283912  C 21.861786200846 16.9487769283912  13.4918703688756 17.3162963591397  13.4918703688756 17.3162963591397  C 13.4918703688756 17.3162963591397  14.6631542047525 14.0127509142094  14.6631542047525 14.0127509142094  C 14.6631542047525 14.0127509142094  12.6988719823852 7.1919780319686  12.6988719823852 7.1919780319686  C 12.6988719823852 7.1919780319686  8.15944658975314 4.29311690404228  8.15944658975314 4.29311690404228  C 8.15944658975314 4.29311690404228  3.80496075015444 3.38670662258963  3.80496075015444 3.38670662258963  C 3.80496075015444 3.38670662258963  0.927189220381284 0.958600720565812  0.927189220381284 0.958600720565812  C 0.927189220381284 0.958600720565812  1.88551235882591 0.0191549846637713  1.88551235882591 0.0191549846637713  C 1.88551235882591 0.0191549846637713  8.52652358138006 1.37773804889139  8.52652358138006 1.37773804889139  C 8.52652358138006 1.37773804889139  20.0936519892714 2.65992662470492  20.0936519892714 2.65992662470492  C 20.0936519892714 2.65992662470492  32.8250370920698 6.44248615915006  32.8250370920698 6.44248615915006  C 32.8250370920698 6.44248615915006  34.2036773964985 7.9001755867256  34.2036773964985 7.9001755867256  C 34.2036773964985 7.9001755867256  38.9672719443223 6.66754019258602  38.9672719443223 6.66754019258602  C 38.9672719443223 6.66754019258602  46.2948012046508 8.30692461963264  46.2948012046508 8.30692461963264  C 46.2948012046508 8.30692461963264  48.701817508522 13.0072342694088  48.701817508522 13.0072342694088  C 48.701817508522 13.0072342694088  53.6391431516187 14.8056018209927  53.6391431516187 14.8056018209927  C 53.6391431516187 14.8056018209927  51.5992038393744 15.8709952269827  51.5992038393744 15.8709952269827  C 51.5992038393744 15.8709952269827  55.468923880871 20.035527203498  55.468923880871 20.035527203498  C 55.468923880871 20.035527203498  54.3985161648308 20.9316139054353  54.3985161648308 20.9316139054353  C 54.3985161648308 20.9316139054353  50.1617191317077 20.4773764067574  50.1617191317077 20.4773764067574  C 50.1617191317077 20.4773764067574  44.3081020667645 18.2722598222663  44.3081020667645 18.2722598222663  C 44.3081020667645 18.2722598222663  42.383049446556 19.5255423754368  42.383049446556 19.5255423754368  C 42.383049446556 19.5255423754368  31.4660115887199 20.721012883321  31.4660115887199 20.721012883321  C 31.4660115887199 20.721012883321  21.861786200846 16.9487769283912  21.861786200846 16.9487769283912  Z " stroke-width="2" stroke="#505050" fill="none" stroke-opacity="0.211764705882353" transform="matrix(1 0 0 1 2100 1744 )" mask="url(#clip651)" />
  </g>
</svg>