<?xml version="1.0" encoding="utf-8"?>
<svg version="1.1" xmlns:xlink="http://www.w3.org/1999/xlink" width="26px" height="26px" xmlns="http://www.w3.org/2000/svg">
  <defs>
    <mask fill="white" id="clip652">
      <path d="M 21.1923391325154 17.8279765777054  C 21.1923391325154 17.8279765777054  18.8275511848526 22.1520584635155  18.8275511848526 22.1520584635155  C 18.8275511848526 22.1520584635155  15.8681250571026 24.381465823337  15.8681250571026 24.381465823337  C 15.8681250571026 24.381465823337  10.1736600678557 24.8004007285348  10.1736600678557 24.8004007285348  C 10.1736600678557 24.8004007285348  9.12203143455304 23.1478183135586  9.12203143455304 23.1478183135586  C 9.12203143455304 23.1478183135586  7.39592893957683 22.9015098517085  7.39592893957683 22.9015098517085  C 7.39592893957683 22.9015098517085  5.00636440107724 24.4930414513543  5.00636440107724 24.4930414513543  C 5.00636440107724 24.4930414513543  1.63399509271085 23.2825511473911  1.63399509271085 23.2825511473911  C 1.63399509271085 23.2825511473911  3.59134576883207 20.7773625183188  3.59134576883207 20.7773625183188  C 3.59134576883207 20.7773625183188  4.26306667596805 18.1037578469562  4.26306667596805 18.1037578469562  C 4.26306667596805 18.1037578469562  5.59549667208989 15.5880432152409  5.59549667208989 15.5880432152409  C 5.59549667208989 15.5880432152409  2.60028213535293 10.5913661798781  2.60028213535293 10.5913661798781  C 2.60028213535293 10.5913661798781  1.98912622804096 6.56622276913357  1.98912622804096 6.56622276913357  C 1.98912622804096 6.56622276913357  6.00568689816873 1.50321549777375  6.00568689816873 1.50321549777375  C 6.00568689816873 1.50321549777375  8.62649961781335 2.15161726059237  8.62649961781335 2.15161726059237  C 8.62649961781335 2.15161726059237  16.3113507376308 3.54526001054691  16.3113507376308 3.54526001054691  C 16.3113507376308 3.54526001054691  24.4821198047584 8.5135332581183  24.4821198047584 8.5135332581183  C 24.4821198047584 8.5135332581183  25.7594907101316 10.9218826628733  25.7594907101316 10.9218826628733  C 25.7594907101316 10.9218826628733  21.1923391325154 17.8279765777054  21.1923391325154 17.8279765777054  Z " fill-rule="evenodd" />
    </mask>
  </defs>
  <g transform="matrix(1 0 0 1 -1372 -1998 )">
    <path d="M 21.1923391325154 17.8279765777054  C 21.1923391325154 17.8279765777054  18.8275511848526 22.1520584635155  18.8275511848526 22.1520584635155  C 18.8275511848526 22.1520584635155  15.8681250571026 24.381465823337  15.8681250571026 24.381465823337  C 15.8681250571026 24.381465823337  10.1736600678557 24.8004007285348  10.1736600678557 24.8004007285348  C 10.1736600678557 24.8004007285348  9.12203143455304 23.1478183135586  9.12203143455304 23.1478183135586  C 9.12203143455304 23.1478183135586  7.39592893957683 22.9015098517085  7.39592893957683 22.9015098517085  C 7.39592893957683 22.9015098517085  5.00636440107724 24.4930414513543  5.00636440107724 24.4930414513543  C 5.00636440107724 24.4930414513543  1.63399509271085 23.2825511473911  1.63399509271085 23.2825511473911  C 1.63399509271085 23.2825511473911  3.59134576883207 20.7773625183188  3.59134576883207 20.7773625183188  C 3.59134576883207 20.7773625183188  4.26306667596805 18.1037578469562  4.26306667596805 18.1037578469562  C 4.26306667596805 18.1037578469562  5.59549667208989 15.5880432152409  5.59549667208989 15.5880432152409  C 5.59549667208989 15.5880432152409  2.60028213535293 10.5913661798781  2.60028213535293 10.5913661798781  C 2.60028213535293 10.5913661798781  1.98912622804096 6.56622276913357  1.98912622804096 6.56622276913357  C 1.98912622804096 6.56622276913357  6.00568689816873 1.50321549777375  6.00568689816873 1.50321549777375  C 6.00568689816873 1.50321549777375  8.62649961781335 2.15161726059237  8.62649961781335 2.15161726059237  C 8.62649961781335 2.15161726059237  16.3113507376308 3.54526001054691  16.3113507376308 3.54526001054691  C 16.3113507376308 3.54526001054691  24.4821198047584 8.5135332581183  24.4821198047584 8.5135332581183  C 24.4821198047584 8.5135332581183  25.7594907101316 10.9218826628733  25.7594907101316 10.9218826628733  C 25.7594907101316 10.9218826628733  21.1923391325154 17.8279765777054  21.1923391325154 17.8279765777054  Z " fill-rule="nonzero" fill="#f2f2f2" stroke="none" transform="matrix(1 0 0 1 1372 1998 )" />
    <path d="M 21.1923391325154 17.8279765777054  C 21.1923391325154 17.8279765777054  18.8275511848526 22.1520584635155  18.8275511848526 22.1520584635155  C 18.8275511848526 22.1520584635155  15.8681250571026 24.381465823337  15.8681250571026 24.381465823337  C 15.8681250571026 24.381465823337  10.1736600678557 24.8004007285348  10.1736600678557 24.8004007285348  C 10.1736600678557 24.8004007285348  9.12203143455304 23.1478183135586  9.12203143455304 23.1478183135586  C 9.12203143455304 23.1478183135586  7.39592893957683 22.9015098517085  7.39592893957683 22.9015098517085  C 7.39592893957683 22.9015098517085  5.00636440107724 24.4930414513543  5.00636440107724 24.4930414513543  C 5.00636440107724 24.4930414513543  1.63399509271085 23.2825511473911  1.63399509271085 23.2825511473911  C 1.63399509271085 23.2825511473911  3.59134576883207 20.7773625183188  3.59134576883207 20.7773625183188  C 3.59134576883207 20.7773625183188  4.26306667596805 18.1037578469562  4.26306667596805 18.1037578469562  C 4.26306667596805 18.1037578469562  5.59549667208989 15.5880432152409  5.59549667208989 15.5880432152409  C 5.59549667208989 15.5880432152409  2.60028213535293 10.5913661798781  2.60028213535293 10.5913661798781  C 2.60028213535293 10.5913661798781  1.98912622804096 6.56622276913357  1.98912622804096 6.56622276913357  C 1.98912622804096 6.56622276913357  6.00568689816873 1.50321549777375  6.00568689816873 1.50321549777375  C 6.00568689816873 1.50321549777375  8.62649961781335 2.15161726059237  8.62649961781335 2.15161726059237  C 8.62649961781335 2.15161726059237  16.3113507376308 3.54526001054691  16.3113507376308 3.54526001054691  C 16.3113507376308 3.54526001054691  24.4821198047584 8.5135332581183  24.4821198047584 8.5135332581183  C 24.4821198047584 8.5135332581183  25.7594907101316 10.9218826628733  25.7594907101316 10.9218826628733  C 25.7594907101316 10.9218826628733  21.1923391325154 17.8279765777054  21.1923391325154 17.8279765777054  Z " stroke-width="2" stroke="#505050" fill="none" stroke-opacity="0.211764705882353" transform="matrix(1 0 0 1 1372 1998 )" mask="url(#clip652)" />
  </g>
</svg>