<?xml version="1.0" encoding="utf-8"?>
<svg version="1.1" xmlns:xlink="http://www.w3.org/1999/xlink" width="38px" height="43px" xmlns="http://www.w3.org/2000/svg">
  <defs>
    <mask fill="white" id="clip653">
      <path d="M 34.9641161216664 31.7960410301511  C 34.9641161216664 31.7960410301511  36.6874656621051 33.9531338521556  36.6874656621051 33.9531338521556  C 36.6874656621051 33.9531338521556  24.5854775155103 37.5439042204922  24.5854775155103 37.5439042204922  C 24.5854775155103 37.5439042204922  20.2936213916385 39.646192854946  20.2936213916385 39.646192854946  C 20.2936213916385 39.646192854946  11.3369052755229 41.424040699098  11.3369052755229 41.424040699098  C 11.3369052755229 41.424040699098  4.4572718864556 39.6834597024805  4.4572718864556 39.6834597024805  C 4.4572718864556 39.6834597024805  4.80689711271066 37.2654989477337  4.80689711271066 37.2654989477337  C 4.80689711271066 37.2654989477337  1.45930439518133 31.9779909328202  1.45930439518133 31.9779909328202  C 1.45930439518133 31.9779909328202  3.47171416205128 25.0332042863668  3.47171416205128 25.0332042863668  C 3.47171416205128 25.0332042863668  6.72570642530764 18.2649042214646  6.72570642530764 18.2649042214646  C 6.72570642530764 18.2649042214646  4.67750824945097 9.46992820329201  4.67750824945097 9.46992820329201  C 4.67750824945097 9.46992820329201  3.62312666161074 4.80061142395301  3.62312666161074 4.80061142395301  C 3.62312666161074 4.80061142395301  3.80482166108186 1.27560608067737  3.80482166108186 1.27560608067737  C 3.80482166108186 1.27560608067737  17.2144632129614 0.981855635404338  17.2144632129614 0.981855635404338  C 17.2144632129614 0.981855635404338  22.6253738848518 1.43563430832615  22.6253738848518 1.43563430832615  C 22.6253738848518 1.43563430832615  25.1167977412367 0.43162159239316  25.1167977412367 0.43162159239316  C 25.1167977412367 0.43162159239316  28.6873797762987 0.927051447853703  28.6873797762987 0.927051447853703  C 28.6873797762987 0.927051447853703  28.1175181870483 2.86492751965414  28.1175181870483 2.86492751965414  C 28.1175181870483 2.86492751965414  31.3412279503927 6.06768424013064  31.3412279503927 6.06768424013064  C 31.3412279503927 6.06768424013064  31.3274631777056 10.5682041218124  31.3274631777056 10.5682041218124  C 31.3274631777056 10.5682041218124  32.0625020392026 15.439200311339  32.0625020392026 15.439200311339  C 32.0625020392026 15.439200311339  34.0005820335616 17.6905563359312  34.0005820335616 17.6905563359312  C 34.0005820335616 17.6905563359312  32.2909972658103 24.8359092111834  32.2909972658103 24.8359092111834  C 32.2909972658103 24.8359092111834  32.9049061276598 27.8983672115292  32.9049061276598 27.8983672115292  C 32.9049061276598 27.8983672115292  34.9641161216664 31.7960410301511  34.9641161216664 31.7960410301511  Z " fill-rule="evenodd" />
    </mask>
  </defs>
  <g transform="matrix(1 0 0 1 -1767 -1965 )">
    <path d="M 34.9641161216664 31.7960410301511  C 34.9641161216664 31.7960410301511  36.6874656621051 33.9531338521556  36.6874656621051 33.9531338521556  C 36.6874656621051 33.9531338521556  24.5854775155103 37.5439042204922  24.5854775155103 37.5439042204922  C 24.5854775155103 37.5439042204922  20.2936213916385 39.646192854946  20.2936213916385 39.646192854946  C 20.2936213916385 39.646192854946  11.3369052755229 41.424040699098  11.3369052755229 41.424040699098  C 11.3369052755229 41.424040699098  4.4572718864556 39.6834597024805  4.4572718864556 39.6834597024805  C 4.4572718864556 39.6834597024805  4.80689711271066 37.2654989477337  4.80689711271066 37.2654989477337  C 4.80689711271066 37.2654989477337  1.45930439518133 31.9779909328202  1.45930439518133 31.9779909328202  C 1.45930439518133 31.9779909328202  3.47171416205128 25.0332042863668  3.47171416205128 25.0332042863668  C 3.47171416205128 25.0332042863668  6.72570642530764 18.2649042214646  6.72570642530764 18.2649042214646  C 6.72570642530764 18.2649042214646  4.67750824945097 9.46992820329201  4.67750824945097 9.46992820329201  C 4.67750824945097 9.46992820329201  3.62312666161074 4.80061142395301  3.62312666161074 4.80061142395301  C 3.62312666161074 4.80061142395301  3.80482166108186 1.27560608067737  3.80482166108186 1.27560608067737  C 3.80482166108186 1.27560608067737  17.2144632129614 0.981855635404338  17.2144632129614 0.981855635404338  C 17.2144632129614 0.981855635404338  22.6253738848518 1.43563430832615  22.6253738848518 1.43563430832615  C 22.6253738848518 1.43563430832615  25.1167977412367 0.43162159239316  25.1167977412367 0.43162159239316  C 25.1167977412367 0.43162159239316  28.6873797762987 0.927051447853703  28.6873797762987 0.927051447853703  C 28.6873797762987 0.927051447853703  28.1175181870483 2.86492751965414  28.1175181870483 2.86492751965414  C 28.1175181870483 2.86492751965414  31.3412279503927 6.06768424013064  31.3412279503927 6.06768424013064  C 31.3412279503927 6.06768424013064  31.3274631777056 10.5682041218124  31.3274631777056 10.5682041218124  C 31.3274631777056 10.5682041218124  32.0625020392026 15.439200311339  32.0625020392026 15.439200311339  C 32.0625020392026 15.439200311339  34.0005820335616 17.6905563359312  34.0005820335616 17.6905563359312  C 34.0005820335616 17.6905563359312  32.2909972658103 24.8359092111834  32.2909972658103 24.8359092111834  C 32.2909972658103 24.8359092111834  32.9049061276598 27.8983672115292  32.9049061276598 27.8983672115292  C 32.9049061276598 27.8983672115292  34.9641161216664 31.7960410301511  34.9641161216664 31.7960410301511  Z " fill-rule="nonzero" fill="#f2f2f2" stroke="none" transform="matrix(1 0 0 1 1767 1965 )" />
    <path d="M 34.9641161216664 31.7960410301511  C 34.9641161216664 31.7960410301511  36.6874656621051 33.9531338521556  36.6874656621051 33.9531338521556  C 36.6874656621051 33.9531338521556  24.5854775155103 37.5439042204922  24.5854775155103 37.5439042204922  C 24.5854775155103 37.5439042204922  20.2936213916385 39.646192854946  20.2936213916385 39.646192854946  C 20.2936213916385 39.646192854946  11.3369052755229 41.424040699098  11.3369052755229 41.424040699098  C 11.3369052755229 41.424040699098  4.4572718864556 39.6834597024805  4.4572718864556 39.6834597024805  C 4.4572718864556 39.6834597024805  4.80689711271066 37.2654989477337  4.80689711271066 37.2654989477337  C 4.80689711271066 37.2654989477337  1.45930439518133 31.9779909328202  1.45930439518133 31.9779909328202  C 1.45930439518133 31.9779909328202  3.47171416205128 25.0332042863668  3.47171416205128 25.0332042863668  C 3.47171416205128 25.0332042863668  6.72570642530764 18.2649042214646  6.72570642530764 18.2649042214646  C 6.72570642530764 18.2649042214646  4.67750824945097 9.46992820329201  4.67750824945097 9.46992820329201  C 4.67750824945097 9.46992820329201  3.62312666161074 4.80061142395301  3.62312666161074 4.80061142395301  C 3.62312666161074 4.80061142395301  3.80482166108186 1.27560608067737  3.80482166108186 1.27560608067737  C 3.80482166108186 1.27560608067737  17.2144632129614 0.981855635404338  17.2144632129614 0.981855635404338  C 17.2144632129614 0.981855635404338  22.6253738848518 1.43563430832615  22.6253738848518 1.43563430832615  C 22.6253738848518 1.43563430832615  25.1167977412367 0.43162159239316  25.1167977412367 0.43162159239316  C 25.1167977412367 0.43162159239316  28.6873797762987 0.927051447853703  28.6873797762987 0.927051447853703  C 28.6873797762987 0.927051447853703  28.1175181870483 2.86492751965414  28.1175181870483 2.86492751965414  C 28.1175181870483 2.86492751965414  31.3412279503927 6.06768424013064  31.3412279503927 6.06768424013064  C 31.3412279503927 6.06768424013064  31.3274631777056 10.5682041218124  31.3274631777056 10.5682041218124  C 31.3274631777056 10.5682041218124  32.0625020392026 15.439200311339  32.0625020392026 15.439200311339  C 32.0625020392026 15.439200311339  34.0005820335616 17.6905563359312  34.0005820335616 17.6905563359312  C 34.0005820335616 17.6905563359312  32.2909972658103 24.8359092111834  32.2909972658103 24.8359092111834  C 32.2909972658103 24.8359092111834  32.9049061276598 27.8983672115292  32.9049061276598 27.8983672115292  C 32.9049061276598 27.8983672115292  34.9641161216664 31.7960410301511  34.9641161216664 31.7960410301511  Z " stroke-width="2" stroke="#505050" fill="none" stroke-opacity="0.211764705882353" transform="matrix(1 0 0 1 1767 1965 )" mask="url(#clip653)" />
  </g>
</svg>