<?xml version="1.0" encoding="utf-8"?>
<svg version="1.1" xmlns:xlink="http://www.w3.org/1999/xlink" width="474px" height="545px" xmlns="http://www.w3.org/2000/svg">
  <defs>
    <mask fill="white" id="clip654">
      <path d="M 203.621986783871 71.3289133052349  C 203.621986783871 71.3289133052349  204.674679584474 51.7790906299792  204.674679584474 51.7790906299792  C 204.674679584474 51.7790906299792  230.482101524257 22.5349633625954  230.482101524257 22.5349633625954  C 230.482101524257 22.5349633625954  259.443468403361 24.8263444480075  259.443468403361 24.8263444480075  C 259.443468403361 24.8263444480075  269.246670108976 5.58390216225818  269.246670108976 5.58390216225818  C 269.246670108976 5.58390216225818  296.413820249538 0.390678238847735  296.413820249538 0.390678238847735  C 296.413820249538 0.390678238847735  357.807193347204 7.15519632120397  357.807193347204 7.15519632120397  C 357.807193347204 7.15519632120397  405.888388737246 47.1103479306217  405.888388737246 47.1103479306217  C 405.888388737246 47.1103479306217  391.693484254115 64.9728027334118  391.693484254115 64.9728027334118  C 391.693484254115 64.9728027334118  362.289361912272 66.9568034293174  362.289361912272 66.9568034293174  C 362.289361912272 66.9568034293174  320.916341738573 71.3203152523816  320.916341738573 71.3203152523816  C 320.916341738573 71.3203152523816  324.78718089079 79.1552909149773  324.78718089079 79.1552909149773  C 324.78718089079 79.1552909149773  351.995451843875 74.3339327774733  351.995451843875 74.3339327774733  C 351.995451843875 74.3339327774733  375.149210682138 89.1935176212384  375.149210682138 89.1935176212384  C 375.149210682138 89.1935176212384  390.070582853185 76.0298987027923  390.070582853185 76.0298987027923  C 390.070582853185 76.0298987027923  396.460757119345 91.3989181781171  396.460757119345 91.3989181781171  C 396.460757119345 91.3989181781171  388.022766389512 114.972629588731  388.022766389512 114.972629588731  C 388.022766389512 114.972629588731  407.590790375721 100.087250586406  407.590790375721 100.087250586406  C 407.590790375721 100.087250586406  444.9147812096 83.858425825748  444.9147812096 83.858425825748  C 444.9147812096 83.858425825748  467.956143160299 92.0545197081834  467.956143160299 92.0545197081834  C 467.956143160299 92.0545197081834  472.273828475272 109.48922138152  472.273828475272 109.48922138152  C 472.273828475272 109.48922138152  440.937027944822 136.719254768012  440.937027944822 136.719254768012  C 440.937027944822 136.719254768012  436.597411529836 145.087309707514  436.597411529836 145.087309707514  C 436.597411529836 145.087309707514  412.029096740763 151.247814576924  412.029096740763 151.247814576924  C 412.029096740763 151.247814576924  429.831667175961 152.937331962603  429.831667175961 152.937331962603  C 429.831667175961 152.937331962603  420.83991617081 177.673930021629  420.83991617081 177.673930021629  C 420.83991617081 177.673930021629  414.652604579766 198.304957843191  414.652604579766 198.304957843191  C 414.652604579766 198.304957843191  414.893846679904 231.100080938999  414.893846679904 231.100080938999  C 414.893846679904 231.100080938999  424.124098397691 249.014124058909  424.124098397691 249.014124058909  C 424.124098397691 249.014124058909  412.116821140813 250.116824337349  412.116821140813 250.116824337349  C 412.116821140813 250.116824337349  399.476283371073 258.456935605078  399.476283371073 258.456935605078  C 399.476283371073 258.456935605078  413.660222304197 273.560473433597  413.660222304197 273.560473433597  C 413.660222304197 273.560473433597  415.466796667732 294.251687625132  415.466796667732 294.251687625132  C 415.466796667732 294.251687625132  407.248116938024 296.435593049878  407.248116938024 296.435593049878  C 407.248116938024 296.435593049878  417.207577731229 316.11223700472  417.207577731229 316.11223700472  C 417.207577731229 316.11223700472  400.131474983948 317.707175809013  400.131474983948 317.707175809013  C 400.131474983948 317.707175809013  409.046467139055 326.606160512208  409.046467139055 326.606160512208  C 409.046467139055 326.606160512208  406.527132025112 334.14880237779  406.527132025112 334.14880237779  C 406.527132025112 334.14880237779  395.687685843902 337.411763435628  395.687685843902 337.411763435628  C 395.687685843902 337.411763435628  384.977084875267 337.471949805602  384.977084875267 337.471949805602  C 384.977084875267 337.471949805602  394.604837780782 351.402944941207  394.604837780782 351.402944941207  C 394.604837780782 351.402944941207  394.711751893343 360.276135485842  394.711751893343 360.276135485842  C 394.711751893343 360.276135485842  379.49979264713 352.03705133914  379.49979264713 352.03705133914  C 379.49979264713 352.03705133914  375.543970482364 357.387189727124  375.543970482364 357.387189727124  C 375.543970482364 357.387189727124  385.920122175808 362.316023525295  385.920122175808 362.316023525295  C 385.920122175808 362.316023525295  395.991979856577 374.086757881501  395.991979856577 374.086757881501  C 395.991979856577 374.086757881501  398.906074770746 389.036622280226  398.906074770746 389.036622280226  C 398.906074770746 389.036622280226  385.204620037898 392.525282225464  385.204620037898 392.525282225464  C 385.204620037898 392.525282225464  379.280481647005 385.511420610362  379.280481647005 385.511420610362  C 379.280481647005 385.511420610362  369.77609117906 374.806844807968  369.77609117906 374.806844807968  C 369.77609117906 374.806844807968  372.405081793066 387.422337857014  372.405081793066 387.422337857014  C 372.405081793066 387.422337857014  363.476382700452 396.903840641022  363.476382700452 396.903840641022  C 363.476382700452 396.903840641022  383.735236337056 397.658319778902  383.735236337056 397.658319778902  C 383.735236337056 397.658319778902  394.330699030625 398.627750238114  394.330699030625 398.627750238114  C 394.330699030625 398.627750238114  373.729171956324 413.736678614626  373.729171956324 413.736678614626  C 373.729171956324 413.736678614626  352.837057806857 426.904596559499  352.837057806857 426.904596559499  C 352.837057806857 426.904596559499  330.343973356473 432.527723125575  330.343973356473 432.527723125575  C 330.343973356473 432.527723125575  321.864861814116 432.598657061615  321.864861814116 432.598657061615  C 321.864861814116 432.598657061615  313.914838059562 438.772059010305  313.914838059562 438.772059010305  C 313.914838059562 438.772059010305  303.220685415937 455.183592394096  303.220685415937 455.183592394096  C 303.220685415937 455.183592394096  286.690118781468 465.692562494077  286.690118781468 465.692562494077  C 286.690118781468 465.692562494077  281.380051190926 466.30087473345  281.380051190926 466.30087473345  C 281.380051190926 466.30087473345  271.146451647564 469.909907418635  271.146451647564 469.909907418635  C 271.146451647564 469.909907418635  260.098660016236 473.312586835339  260.098660016236 473.312586835339  C 260.098660016236 473.312586835339  253.513847237464 482.172880300695  253.513847237464 482.172880300695  C 253.513847237464 482.172880300695  253.409674512405 491.970361527062  253.409674512405 491.970361527062  C 253.409674512405 491.970361527062  249.519645647676 500.925233573804  249.519645647676 500.925233573804  C 249.519645647676 500.925233573804  234.994425351842 511.563174466585  234.994425351842 511.563174466585  C 234.994425351842 511.563174466585  240.08104847977 521.676634135313  240.08104847977 521.676634135313  C 240.08104847977 521.676634135313  234.635303589136 532.101773219973  234.635303589136 532.101773219973  C 234.635303589136 532.101773219973  230.695929749379 544.063814252167  230.695929749379 544.063814252167  C 230.695929749379 544.063814252167  219.864707730675 544.798947771126  219.864707730675 544.798947771126  C 219.864707730675 544.798947771126  208.520846249177 534.838103540545  208.520846249177 534.838103540545  C 208.520846249177 534.838103540545  193.152627915374 534.775767657359  193.152627915374 534.775767657359  C 193.152627915374 534.775767657359  185.693312523601 527.940315638962  185.693312523601 527.940315638962  C 185.693312523601 527.940315638962  180.566917895665 515.462391435569  180.566917895665 515.462391435569  C 180.566917895665 515.462391435569  167.246516025535 498.973475576099  167.246516025535 498.973475576099  C 167.246516025535 498.973475576099  163.351004385804 490.04009866149  163.351004385804 490.04009866149  C 163.351004385804 490.04009866149  162.301052972702 477.375166808537  162.301052972702 477.375166808537  C 162.301052972702 477.375166808537  151.653503916603 463.904167500585  151.653503916603 463.904167500585  C 151.653503916603 463.904167500585  154.422305293189 452.791184187658  154.422305293189 452.791184187658  C 154.422305293189 452.791184187658  149.293169277751 447.357214784354  149.293169277751 447.357214784354  C 149.293169277751 447.357214784354  156.892295432104 428.751028409751  156.892295432104 428.751028409751  C 156.892295432104 428.751028409751  168.460950688731 422.629214778181  168.460950688731 422.629214778181  C 168.460950688731 422.629214778181  171.495666652969 415.619652189505  171.495666652969 415.619652189505  C 171.495666652969 415.619652189505  173.104861116391 402.159400447619  173.104861116391 402.159400447619  C 173.104861116391 402.159400447619  164.324196948861 408.322054830242  164.324196948861 408.322054830242  C 164.324196948861 408.322054830242  160.138098233963 410.879975554107  160.138098233963 410.879975554107  C 160.138098233963 410.879975554107  153.235284505009 413.315374024813  153.235284505009 413.315374024813  C 153.235284505009 413.315374024813  143.802170112106 407.715892104083  143.802170112106 407.715892104083  C 143.802170112106 407.715892104083  143.289530649312 395.783944256876  143.289530649312 395.783944256876  C 143.289530649312 395.783944256876  146.296832738535 386.158424087575  146.296832738535 386.158424087575  C 146.296832738535 386.158424087575  153.424440242618 385.894033962335  153.424440242618 385.894033962335  C 153.424440242618 385.894033962335  169.116142301606 390.741186258399  169.116142301606 390.741186258399  C 169.116142301606 390.741186258399  155.899913156536 379.058581943939  155.899913156536 379.058581943939  C 155.899913156536 379.058581943939  149.021771915096 372.601444251089  149.021771915096 372.601444251089  C 149.021771915096 372.601444251089  141.367818010712 375.268990148834  141.367818010712 375.268990148834  C 141.367818010712 375.268990148834  134.952971257037 370.555107671997  134.952971257037 370.555107671997  C 134.952971257037 370.555107671997  143.533514136952 352.271348279393  143.533514136952 352.271348279393  C 143.533514136952 352.271348279393  138.859448446775 344.698613228824  138.859448446775 344.698613228824  C 138.859448446775 344.698613228824  132.759861255781 330.204445631326  132.759861255781 330.204445631326  C 132.759861255781 330.204445631326  123.507678437981 306.761854526725  123.507678437981 306.761854526725  C 123.507678437981 306.761854526725  113.720925057375 297.77903880821  113.720925057375 297.77903880821  C 113.720925057375 297.77903880821  113.811390844927 287.833241170123  113.811390844927 287.833241170123  C 113.811390844927 287.833241170123  93.1851912831119 273.452997772931  93.1851912831119 273.452997772931  C 93.1851912831119 273.452997772931  76.8657114862642 270.060007930644  76.8657114862642 270.060007930644  C 76.8657114862642 270.060007930644  56.3244949369979 271.074578167337  56.3244949369979 271.074578167337  C 56.3244949369979 271.074578167337  37.567921651254 274.47831557569  37.567921651254 274.47831557569  C 37.567921651254 274.47831557569  28.6474467211444 264.864634494021  28.6474467211444 264.864634494021  C 28.6474467211444 264.864634494021  15.2914068134938 248.399363279896  15.2914068134938 248.399363279896  C 15.2914068134938 248.399363279896  35.4735016000543 239.867945336181  35.4735016000543 239.867945336181  C 35.4735016000543 239.867945336181  50.9458926589172 238.414874403969  50.9458926589172 238.414874403969  C 50.9458926589172 238.414874403969  18.0547254150768 231.173164388253  18.0547254150768 231.173164388253  C 18.0547254150768 231.173164388253  0.729156405152384 219.494859100219  0.729156405152384 219.494859100219  C 0.729156405152384 219.494859100219  1.78733198075852 208.010010001386  1.78733198075852 208.010010001386  C 1.78733198075852 208.010010001386  30.8871603099273 193.24715325222  30.8871603099273 193.24715325222  C 30.8871603099273 193.24715325222  59.0412099510541 177.858788157976  59.0412099510541 177.858788157976  C 59.0412099510541 177.858788157976  62.0128740027562 165.741982174422  62.0128740027562 165.741982174422  C 62.0128740027562 165.741982174422  41.2660533908723 153.356487039203  41.2660533908723 153.356487039203  C 41.2660533908723 153.356487039203  47.9687458322116 139.075121249824  47.9687458322116 139.075121249824  C 47.9687458322116 139.075121249824  74.5793943099545 112.565174789799  74.5793943099545 112.565174789799  C 74.5793943099545 112.565174789799  85.7615139288596 108.311288140614  85.7615139288596 108.311288140614  C 85.7615139288596 108.311288140614  82.5568319395241 89.889959902358  82.5568319395241 89.889959902358  C 82.5568319395241 89.889959902358  100.765127724954 78.6286601777109  100.765127724954 78.6286601777109  C 100.765127724954 78.6286601777109  124.401370763493 71.7287227629147  124.401370763493 71.7287227629147  C 124.401370763493 71.7287227629147  148.021165477023 71.335361844875  148.021165477023 71.335361844875  C 148.021165477023 71.335361844875  156.407069844326 84.8901921681474  156.407069844326 84.8901921681474  C 156.407069844326 84.8901921681474  176.797510081006 60.5491045403743  176.797510081006 60.5491045403743  C 176.797510081006 60.5491045403743  195.142875241514 77.2723173400983  195.142875241514 77.2723173400983  C 195.142875241514 77.2723173400983  205.935717835196 80.6964918889364  205.935717835196 80.6964918889364  C 205.935717835196 80.6964918889364  221.89881725684 94.4791706128221  221.89881725684 94.4791706128221  C 221.89881725684 94.4791706128221  203.621986783871 71.3289133052349  203.621986783871 71.3289133052349  Z " fill-rule="evenodd" />
    </mask>
  </defs>
  <g transform="matrix(1 0 0 1 -1229 -1038 )">
    <path d="M 203.621986783871 71.3289133052349  C 203.621986783871 71.3289133052349  204.674679584474 51.7790906299792  204.674679584474 51.7790906299792  C 204.674679584474 51.7790906299792  230.482101524257 22.5349633625954  230.482101524257 22.5349633625954  C 230.482101524257 22.5349633625954  259.443468403361 24.8263444480075  259.443468403361 24.8263444480075  C 259.443468403361 24.8263444480075  269.246670108976 5.58390216225818  269.246670108976 5.58390216225818  C 269.246670108976 5.58390216225818  296.413820249538 0.390678238847735  296.413820249538 0.390678238847735  C 296.413820249538 0.390678238847735  357.807193347204 7.15519632120397  357.807193347204 7.15519632120397  C 357.807193347204 7.15519632120397  405.888388737246 47.1103479306217  405.888388737246 47.1103479306217  C 405.888388737246 47.1103479306217  391.693484254115 64.9728027334118  391.693484254115 64.9728027334118  C 391.693484254115 64.9728027334118  362.289361912272 66.9568034293174  362.289361912272 66.9568034293174  C 362.289361912272 66.9568034293174  320.916341738573 71.3203152523816  320.916341738573 71.3203152523816  C 320.916341738573 71.3203152523816  324.78718089079 79.1552909149773  324.78718089079 79.1552909149773  C 324.78718089079 79.1552909149773  351.995451843875 74.3339327774733  351.995451843875 74.3339327774733  C 351.995451843875 74.3339327774733  375.149210682138 89.1935176212384  375.149210682138 89.1935176212384  C 375.149210682138 89.1935176212384  390.070582853185 76.0298987027923  390.070582853185 76.0298987027923  C 390.070582853185 76.0298987027923  396.460757119345 91.3989181781171  396.460757119345 91.3989181781171  C 396.460757119345 91.3989181781171  388.022766389512 114.972629588731  388.022766389512 114.972629588731  C 388.022766389512 114.972629588731  407.590790375721 100.087250586406  407.590790375721 100.087250586406  C 407.590790375721 100.087250586406  444.9147812096 83.858425825748  444.9147812096 83.858425825748  C 444.9147812096 83.858425825748  467.956143160299 92.0545197081834  467.956143160299 92.0545197081834  C 467.956143160299 92.0545197081834  472.273828475272 109.48922138152  472.273828475272 109.48922138152  C 472.273828475272 109.48922138152  440.937027944822 136.719254768012  440.937027944822 136.719254768012  C 440.937027944822 136.719254768012  436.597411529836 145.087309707514  436.597411529836 145.087309707514  C 436.597411529836 145.087309707514  412.029096740763 151.247814576924  412.029096740763 151.247814576924  C 412.029096740763 151.247814576924  429.831667175961 152.937331962603  429.831667175961 152.937331962603  C 429.831667175961 152.937331962603  420.83991617081 177.673930021629  420.83991617081 177.673930021629  C 420.83991617081 177.673930021629  414.652604579766 198.304957843191  414.652604579766 198.304957843191  C 414.652604579766 198.304957843191  414.893846679904 231.100080938999  414.893846679904 231.100080938999  C 414.893846679904 231.100080938999  424.124098397691 249.014124058909  424.124098397691 249.014124058909  C 424.124098397691 249.014124058909  412.116821140813 250.116824337349  412.116821140813 250.116824337349  C 412.116821140813 250.116824337349  399.476283371073 258.456935605078  399.476283371073 258.456935605078  C 399.476283371073 258.456935605078  413.660222304197 273.560473433597  413.660222304197 273.560473433597  C 413.660222304197 273.560473433597  415.466796667732 294.251687625132  415.466796667732 294.251687625132  C 415.466796667732 294.251687625132  407.248116938024 296.435593049878  407.248116938024 296.435593049878  C 407.248116938024 296.435593049878  417.207577731229 316.11223700472  417.207577731229 316.11223700472  C 417.207577731229 316.11223700472  400.131474983948 317.707175809013  400.131474983948 317.707175809013  C 400.131474983948 317.707175809013  409.046467139055 326.606160512208  409.046467139055 326.606160512208  C 409.046467139055 326.606160512208  406.527132025112 334.14880237779  406.527132025112 334.14880237779  C 406.527132025112 334.14880237779  395.687685843902 337.411763435628  395.687685843902 337.411763435628  C 395.687685843902 337.411763435628  384.977084875267 337.471949805602  384.977084875267 337.471949805602  C 384.977084875267 337.471949805602  394.604837780782 351.402944941207  394.604837780782 351.402944941207  C 394.604837780782 351.402944941207  394.711751893343 360.276135485842  394.711751893343 360.276135485842  C 394.711751893343 360.276135485842  379.49979264713 352.03705133914  379.49979264713 352.03705133914  C 379.49979264713 352.03705133914  375.543970482364 357.387189727124  375.543970482364 357.387189727124  C 375.543970482364 357.387189727124  385.920122175808 362.316023525295  385.920122175808 362.316023525295  C 385.920122175808 362.316023525295  395.991979856577 374.086757881501  395.991979856577 374.086757881501  C 395.991979856577 374.086757881501  398.906074770746 389.036622280226  398.906074770746 389.036622280226  C 398.906074770746 389.036622280226  385.204620037898 392.525282225464  385.204620037898 392.525282225464  C 385.204620037898 392.525282225464  379.280481647005 385.511420610362  379.280481647005 385.511420610362  C 379.280481647005 385.511420610362  369.77609117906 374.806844807968  369.77609117906 374.806844807968  C 369.77609117906 374.806844807968  372.405081793066 387.422337857014  372.405081793066 387.422337857014  C 372.405081793066 387.422337857014  363.476382700452 396.903840641022  363.476382700452 396.903840641022  C 363.476382700452 396.903840641022  383.735236337056 397.658319778902  383.735236337056 397.658319778902  C 383.735236337056 397.658319778902  394.330699030625 398.627750238114  394.330699030625 398.627750238114  C 394.330699030625 398.627750238114  373.729171956324 413.736678614626  373.729171956324 413.736678614626  C 373.729171956324 413.736678614626  352.837057806857 426.904596559499  352.837057806857 426.904596559499  C 352.837057806857 426.904596559499  330.343973356473 432.527723125575  330.343973356473 432.527723125575  C 330.343973356473 432.527723125575  321.864861814116 432.598657061615  321.864861814116 432.598657061615  C 321.864861814116 432.598657061615  313.914838059562 438.772059010305  313.914838059562 438.772059010305  C 313.914838059562 438.772059010305  303.220685415937 455.183592394096  303.220685415937 455.183592394096  C 303.220685415937 455.183592394096  286.690118781468 465.692562494077  286.690118781468 465.692562494077  C 286.690118781468 465.692562494077  281.380051190926 466.30087473345  281.380051190926 466.30087473345  C 281.380051190926 466.30087473345  271.146451647564 469.909907418635  271.146451647564 469.909907418635  C 271.146451647564 469.909907418635  260.098660016236 473.312586835339  260.098660016236 473.312586835339  C 260.098660016236 473.312586835339  253.513847237464 482.172880300695  253.513847237464 482.172880300695  C 253.513847237464 482.172880300695  253.409674512405 491.970361527062  253.409674512405 491.970361527062  C 253.409674512405 491.970361527062  249.519645647676 500.925233573804  249.519645647676 500.925233573804  C 249.519645647676 500.925233573804  234.994425351842 511.563174466585  234.994425351842 511.563174466585  C 234.994425351842 511.563174466585  240.08104847977 521.676634135313  240.08104847977 521.676634135313  C 240.08104847977 521.676634135313  234.635303589136 532.101773219973  234.635303589136 532.101773219973  C 234.635303589136 532.101773219973  230.695929749379 544.063814252167  230.695929749379 544.063814252167  C 230.695929749379 544.063814252167  219.864707730675 544.798947771126  219.864707730675 544.798947771126  C 219.864707730675 544.798947771126  208.520846249177 534.838103540545  208.520846249177 534.838103540545  C 208.520846249177 534.838103540545  193.152627915374 534.775767657359  193.152627915374 534.775767657359  C 193.152627915374 534.775767657359  185.693312523601 527.940315638962  185.693312523601 527.940315638962  C 185.693312523601 527.940315638962  180.566917895665 515.462391435569  180.566917895665 515.462391435569  C 180.566917895665 515.462391435569  167.246516025535 498.973475576099  167.246516025535 498.973475576099  C 167.246516025535 498.973475576099  163.351004385804 490.04009866149  163.351004385804 490.04009866149  C 163.351004385804 490.04009866149  162.301052972702 477.375166808537  162.301052972702 477.375166808537  C 162.301052972702 477.375166808537  151.653503916603 463.904167500585  151.653503916603 463.904167500585  C 151.653503916603 463.904167500585  154.422305293189 452.791184187658  154.422305293189 452.791184187658  C 154.422305293189 452.791184187658  149.293169277751 447.357214784354  149.293169277751 447.357214784354  C 149.293169277751 447.357214784354  156.892295432104 428.751028409751  156.892295432104 428.751028409751  C 156.892295432104 428.751028409751  168.460950688731 422.629214778181  168.460950688731 422.629214778181  C 168.460950688731 422.629214778181  171.495666652969 415.619652189505  171.495666652969 415.619652189505  C 171.495666652969 415.619652189505  173.104861116391 402.159400447619  173.104861116391 402.159400447619  C 173.104861116391 402.159400447619  164.324196948861 408.322054830242  164.324196948861 408.322054830242  C 164.324196948861 408.322054830242  160.138098233963 410.879975554107  160.138098233963 410.879975554107  C 160.138098233963 410.879975554107  153.235284505009 413.315374024813  153.235284505009 413.315374024813  C 153.235284505009 413.315374024813  143.802170112106 407.715892104083  143.802170112106 407.715892104083  C 143.802170112106 407.715892104083  143.289530649312 395.783944256876  143.289530649312 395.783944256876  C 143.289530649312 395.783944256876  146.296832738535 386.158424087575  146.296832738535 386.158424087575  C 146.296832738535 386.158424087575  153.424440242618 385.894033962335  153.424440242618 385.894033962335  C 153.424440242618 385.894033962335  169.116142301606 390.741186258399  169.116142301606 390.741186258399  C 169.116142301606 390.741186258399  155.899913156536 379.058581943939  155.899913156536 379.058581943939  C 155.899913156536 379.058581943939  149.021771915096 372.601444251089  149.021771915096 372.601444251089  C 149.021771915096 372.601444251089  141.367818010712 375.268990148834  141.367818010712 375.268990148834  C 141.367818010712 375.268990148834  134.952971257037 370.555107671997  134.952971257037 370.555107671997  C 134.952971257037 370.555107671997  143.533514136952 352.271348279393  143.533514136952 352.271348279393  C 143.533514136952 352.271348279393  138.859448446775 344.698613228824  138.859448446775 344.698613228824  C 138.859448446775 344.698613228824  132.759861255781 330.204445631326  132.759861255781 330.204445631326  C 132.759861255781 330.204445631326  123.507678437981 306.761854526725  123.507678437981 306.761854526725  C 123.507678437981 306.761854526725  113.720925057375 297.77903880821  113.720925057375 297.77903880821  C 113.720925057375 297.77903880821  113.811390844927 287.833241170123  113.811390844927 287.833241170123  C 113.811390844927 287.833241170123  93.1851912831119 273.452997772931  93.1851912831119 273.452997772931  C 93.1851912831119 273.452997772931  76.8657114862642 270.060007930644  76.8657114862642 270.060007930644  C 76.8657114862642 270.060007930644  56.3244949369979 271.074578167337  56.3244949369979 271.074578167337  C 56.3244949369979 271.074578167337  37.567921651254 274.47831557569  37.567921651254 274.47831557569  C 37.567921651254 274.47831557569  28.6474467211444 264.864634494021  28.6474467211444 264.864634494021  C 28.6474467211444 264.864634494021  15.2914068134938 248.399363279896  15.2914068134938 248.399363279896  C 15.2914068134938 248.399363279896  35.4735016000543 239.867945336181  35.4735016000543 239.867945336181  C 35.4735016000543 239.867945336181  50.9458926589172 238.414874403969  50.9458926589172 238.414874403969  C 50.9458926589172 238.414874403969  18.0547254150768 231.173164388253  18.0547254150768 231.173164388253  C 18.0547254150768 231.173164388253  0.729156405152384 219.494859100219  0.729156405152384 219.494859100219  C 0.729156405152384 219.494859100219  1.78733198075852 208.010010001386  1.78733198075852 208.010010001386  C 1.78733198075852 208.010010001386  30.8871603099273 193.24715325222  30.8871603099273 193.24715325222  C 30.8871603099273 193.24715325222  59.0412099510541 177.858788157976  59.0412099510541 177.858788157976  C 59.0412099510541 177.858788157976  62.0128740027562 165.741982174422  62.0128740027562 165.741982174422  C 62.0128740027562 165.741982174422  41.2660533908723 153.356487039203  41.2660533908723 153.356487039203  C 41.2660533908723 153.356487039203  47.9687458322116 139.075121249824  47.9687458322116 139.075121249824  C 47.9687458322116 139.075121249824  74.5793943099545 112.565174789799  74.5793943099545 112.565174789799  C 74.5793943099545 112.565174789799  85.7615139288596 108.311288140614  85.7615139288596 108.311288140614  C 85.7615139288596 108.311288140614  82.5568319395241 89.889959902358  82.5568319395241 89.889959902358  C 82.5568319395241 89.889959902358  100.765127724954 78.6286601777109  100.765127724954 78.6286601777109  C 100.765127724954 78.6286601777109  124.401370763493 71.7287227629147  124.401370763493 71.7287227629147  C 124.401370763493 71.7287227629147  148.021165477023 71.335361844875  148.021165477023 71.335361844875  C 148.021165477023 71.335361844875  156.407069844326 84.8901921681474  156.407069844326 84.8901921681474  C 156.407069844326 84.8901921681474  176.797510081006 60.5491045403743  176.797510081006 60.5491045403743  C 176.797510081006 60.5491045403743  195.142875241514 77.2723173400983  195.142875241514 77.2723173400983  C 195.142875241514 77.2723173400983  205.935717835196 80.6964918889364  205.935717835196 80.6964918889364  C 205.935717835196 80.6964918889364  221.89881725684 94.4791706128221  221.89881725684 94.4791706128221  C 221.89881725684 94.4791706128221  203.621986783871 71.3289133052349  203.621986783871 71.3289133052349  Z " fill-rule="nonzero" fill="#f2f2f2" stroke="none" transform="matrix(1 0 0 1 1229 1038 )" />
    <path d="M 203.621986783871 71.3289133052349  C 203.621986783871 71.3289133052349  204.674679584474 51.7790906299792  204.674679584474 51.7790906299792  C 204.674679584474 51.7790906299792  230.482101524257 22.5349633625954  230.482101524257 22.5349633625954  C 230.482101524257 22.5349633625954  259.443468403361 24.8263444480075  259.443468403361 24.8263444480075  C 259.443468403361 24.8263444480075  269.246670108976 5.58390216225818  269.246670108976 5.58390216225818  C 269.246670108976 5.58390216225818  296.413820249538 0.390678238847735  296.413820249538 0.390678238847735  C 296.413820249538 0.390678238847735  357.807193347204 7.15519632120397  357.807193347204 7.15519632120397  C 357.807193347204 7.15519632120397  405.888388737246 47.1103479306217  405.888388737246 47.1103479306217  C 405.888388737246 47.1103479306217  391.693484254115 64.9728027334118  391.693484254115 64.9728027334118  C 391.693484254115 64.9728027334118  362.289361912272 66.9568034293174  362.289361912272 66.9568034293174  C 362.289361912272 66.9568034293174  320.916341738573 71.3203152523816  320.916341738573 71.3203152523816  C 320.916341738573 71.3203152523816  324.78718089079 79.1552909149773  324.78718089079 79.1552909149773  C 324.78718089079 79.1552909149773  351.995451843875 74.3339327774733  351.995451843875 74.3339327774733  C 351.995451843875 74.3339327774733  375.149210682138 89.1935176212384  375.149210682138 89.1935176212384  C 375.149210682138 89.1935176212384  390.070582853185 76.0298987027923  390.070582853185 76.0298987027923  C 390.070582853185 76.0298987027923  396.460757119345 91.3989181781171  396.460757119345 91.3989181781171  C 396.460757119345 91.3989181781171  388.022766389512 114.972629588731  388.022766389512 114.972629588731  C 388.022766389512 114.972629588731  407.590790375721 100.087250586406  407.590790375721 100.087250586406  C 407.590790375721 100.087250586406  444.9147812096 83.858425825748  444.9147812096 83.858425825748  C 444.9147812096 83.858425825748  467.956143160299 92.0545197081834  467.956143160299 92.0545197081834  C 467.956143160299 92.0545197081834  472.273828475272 109.48922138152  472.273828475272 109.48922138152  C 472.273828475272 109.48922138152  440.937027944822 136.719254768012  440.937027944822 136.719254768012  C 440.937027944822 136.719254768012  436.597411529836 145.087309707514  436.597411529836 145.087309707514  C 436.597411529836 145.087309707514  412.029096740763 151.247814576924  412.029096740763 151.247814576924  C 412.029096740763 151.247814576924  429.831667175961 152.937331962603  429.831667175961 152.937331962603  C 429.831667175961 152.937331962603  420.83991617081 177.673930021629  420.83991617081 177.673930021629  C 420.83991617081 177.673930021629  414.652604579766 198.304957843191  414.652604579766 198.304957843191  C 414.652604579766 198.304957843191  414.893846679904 231.100080938999  414.893846679904 231.100080938999  C 414.893846679904 231.100080938999  424.124098397691 249.014124058909  424.124098397691 249.014124058909  C 424.124098397691 249.014124058909  412.116821140813 250.116824337349  412.116821140813 250.116824337349  C 412.116821140813 250.116824337349  399.476283371073 258.456935605078  399.476283371073 258.456935605078  C 399.476283371073 258.456935605078  413.660222304197 273.560473433597  413.660222304197 273.560473433597  C 413.660222304197 273.560473433597  415.466796667732 294.251687625132  415.466796667732 294.251687625132  C 415.466796667732 294.251687625132  407.248116938024 296.435593049878  407.248116938024 296.435593049878  C 407.248116938024 296.435593049878  417.207577731229 316.11223700472  417.207577731229 316.11223700472  C 417.207577731229 316.11223700472  400.131474983948 317.707175809013  400.131474983948 317.707175809013  C 400.131474983948 317.707175809013  409.046467139055 326.606160512208  409.046467139055 326.606160512208  C 409.046467139055 326.606160512208  406.527132025112 334.14880237779  406.527132025112 334.14880237779  C 406.527132025112 334.14880237779  395.687685843902 337.411763435628  395.687685843902 337.411763435628  C 395.687685843902 337.411763435628  384.977084875267 337.471949805602  384.977084875267 337.471949805602  C 384.977084875267 337.471949805602  394.604837780782 351.402944941207  394.604837780782 351.402944941207  C 394.604837780782 351.402944941207  394.711751893343 360.276135485842  394.711751893343 360.276135485842  C 394.711751893343 360.276135485842  379.49979264713 352.03705133914  379.49979264713 352.03705133914  C 379.49979264713 352.03705133914  375.543970482364 357.387189727124  375.543970482364 357.387189727124  C 375.543970482364 357.387189727124  385.920122175808 362.316023525295  385.920122175808 362.316023525295  C 385.920122175808 362.316023525295  395.991979856577 374.086757881501  395.991979856577 374.086757881501  C 395.991979856577 374.086757881501  398.906074770746 389.036622280226  398.906074770746 389.036622280226  C 398.906074770746 389.036622280226  385.204620037898 392.525282225464  385.204620037898 392.525282225464  C 385.204620037898 392.525282225464  379.280481647005 385.511420610362  379.280481647005 385.511420610362  C 379.280481647005 385.511420610362  369.77609117906 374.806844807968  369.77609117906 374.806844807968  C 369.77609117906 374.806844807968  372.405081793066 387.422337857014  372.405081793066 387.422337857014  C 372.405081793066 387.422337857014  363.476382700452 396.903840641022  363.476382700452 396.903840641022  C 363.476382700452 396.903840641022  383.735236337056 397.658319778902  383.735236337056 397.658319778902  C 383.735236337056 397.658319778902  394.330699030625 398.627750238114  394.330699030625 398.627750238114  C 394.330699030625 398.627750238114  373.729171956324 413.736678614626  373.729171956324 413.736678614626  C 373.729171956324 413.736678614626  352.837057806857 426.904596559499  352.837057806857 426.904596559499  C 352.837057806857 426.904596559499  330.343973356473 432.527723125575  330.343973356473 432.527723125575  C 330.343973356473 432.527723125575  321.864861814116 432.598657061615  321.864861814116 432.598657061615  C 321.864861814116 432.598657061615  313.914838059562 438.772059010305  313.914838059562 438.772059010305  C 313.914838059562 438.772059010305  303.220685415937 455.183592394096  303.220685415937 455.183592394096  C 303.220685415937 455.183592394096  286.690118781468 465.692562494077  286.690118781468 465.692562494077  C 286.690118781468 465.692562494077  281.380051190926 466.30087473345  281.380051190926 466.30087473345  C 281.380051190926 466.30087473345  271.146451647564 469.909907418635  271.146451647564 469.909907418635  C 271.146451647564 469.909907418635  260.098660016236 473.312586835339  260.098660016236 473.312586835339  C 260.098660016236 473.312586835339  253.513847237464 482.172880300695  253.513847237464 482.172880300695  C 253.513847237464 482.172880300695  253.409674512405 491.970361527062  253.409674512405 491.970361527062  C 253.409674512405 491.970361527062  249.519645647676 500.925233573804  249.519645647676 500.925233573804  C 249.519645647676 500.925233573804  234.994425351842 511.563174466585  234.994425351842 511.563174466585  C 234.994425351842 511.563174466585  240.08104847977 521.676634135313  240.08104847977 521.676634135313  C 240.08104847977 521.676634135313  234.635303589136 532.101773219973  234.635303589136 532.101773219973  C 234.635303589136 532.101773219973  230.695929749379 544.063814252167  230.695929749379 544.063814252167  C 230.695929749379 544.063814252167  219.864707730675 544.798947771126  219.864707730675 544.798947771126  C 219.864707730675 544.798947771126  208.520846249177 534.838103540545  208.520846249177 534.838103540545  C 208.520846249177 534.838103540545  193.152627915374 534.775767657359  193.152627915374 534.775767657359  C 193.152627915374 534.775767657359  185.693312523601 527.940315638962  185.693312523601 527.940315638962  C 185.693312523601 527.940315638962  180.566917895665 515.462391435569  180.566917895665 515.462391435569  C 180.566917895665 515.462391435569  167.246516025535 498.973475576099  167.246516025535 498.973475576099  C 167.246516025535 498.973475576099  163.351004385804 490.04009866149  163.351004385804 490.04009866149  C 163.351004385804 490.04009866149  162.301052972702 477.375166808537  162.301052972702 477.375166808537  C 162.301052972702 477.375166808537  151.653503916603 463.904167500585  151.653503916603 463.904167500585  C 151.653503916603 463.904167500585  154.422305293189 452.791184187658  154.422305293189 452.791184187658  C 154.422305293189 452.791184187658  149.293169277751 447.357214784354  149.293169277751 447.357214784354  C 149.293169277751 447.357214784354  156.892295432104 428.751028409751  156.892295432104 428.751028409751  C 156.892295432104 428.751028409751  168.460950688731 422.629214778181  168.460950688731 422.629214778181  C 168.460950688731 422.629214778181  171.495666652969 415.619652189505  171.495666652969 415.619652189505  C 171.495666652969 415.619652189505  173.104861116391 402.159400447619  173.104861116391 402.159400447619  C 173.104861116391 402.159400447619  164.324196948861 408.322054830242  164.324196948861 408.322054830242  C 164.324196948861 408.322054830242  160.138098233963 410.879975554107  160.138098233963 410.879975554107  C 160.138098233963 410.879975554107  153.235284505009 413.315374024813  153.235284505009 413.315374024813  C 153.235284505009 413.315374024813  143.802170112106 407.715892104083  143.802170112106 407.715892104083  C 143.802170112106 407.715892104083  143.289530649312 395.783944256876  143.289530649312 395.783944256876  C 143.289530649312 395.783944256876  146.296832738535 386.158424087575  146.296832738535 386.158424087575  C 146.296832738535 386.158424087575  153.424440242618 385.894033962335  153.424440242618 385.894033962335  C 153.424440242618 385.894033962335  169.116142301606 390.741186258399  169.116142301606 390.741186258399  C 169.116142301606 390.741186258399  155.899913156536 379.058581943939  155.899913156536 379.058581943939  C 155.899913156536 379.058581943939  149.021771915096 372.601444251089  149.021771915096 372.601444251089  C 149.021771915096 372.601444251089  141.367818010712 375.268990148834  141.367818010712 375.268990148834  C 141.367818010712 375.268990148834  134.952971257037 370.555107671997  134.952971257037 370.555107671997  C 134.952971257037 370.555107671997  143.533514136952 352.271348279393  143.533514136952 352.271348279393  C 143.533514136952 352.271348279393  138.859448446775 344.698613228824  138.859448446775 344.698613228824  C 138.859448446775 344.698613228824  132.759861255781 330.204445631326  132.759861255781 330.204445631326  C 132.759861255781 330.204445631326  123.507678437981 306.761854526725  123.507678437981 306.761854526725  C 123.507678437981 306.761854526725  113.720925057375 297.77903880821  113.720925057375 297.77903880821  C 113.720925057375 297.77903880821  113.811390844927 287.833241170123  113.811390844927 287.833241170123  C 113.811390844927 287.833241170123  93.1851912831119 273.452997772931  93.1851912831119 273.452997772931  C 93.1851912831119 273.452997772931  76.8657114862642 270.060007930644  76.8657114862642 270.060007930644  C 76.8657114862642 270.060007930644  56.3244949369979 271.074578167337  56.3244949369979 271.074578167337  C 56.3244949369979 271.074578167337  37.567921651254 274.47831557569  37.567921651254 274.47831557569  C 37.567921651254 274.47831557569  28.6474467211444 264.864634494021  28.6474467211444 264.864634494021  C 28.6474467211444 264.864634494021  15.2914068134938 248.399363279896  15.2914068134938 248.399363279896  C 15.2914068134938 248.399363279896  35.4735016000543 239.867945336181  35.4735016000543 239.867945336181  C 35.4735016000543 239.867945336181  50.9458926589172 238.414874403969  50.9458926589172 238.414874403969  C 50.9458926589172 238.414874403969  18.0547254150768 231.173164388253  18.0547254150768 231.173164388253  C 18.0547254150768 231.173164388253  0.729156405152384 219.494859100219  0.729156405152384 219.494859100219  C 0.729156405152384 219.494859100219  1.78733198075852 208.010010001386  1.78733198075852 208.010010001386  C 1.78733198075852 208.010010001386  30.8871603099273 193.24715325222  30.8871603099273 193.24715325222  C 30.8871603099273 193.24715325222  59.0412099510541 177.858788157976  59.0412099510541 177.858788157976  C 59.0412099510541 177.858788157976  62.0128740027562 165.741982174422  62.0128740027562 165.741982174422  C 62.0128740027562 165.741982174422  41.2660533908723 153.356487039203  41.2660533908723 153.356487039203  C 41.2660533908723 153.356487039203  47.9687458322116 139.075121249824  47.9687458322116 139.075121249824  C 47.9687458322116 139.075121249824  74.5793943099545 112.565174789799  74.5793943099545 112.565174789799  C 74.5793943099545 112.565174789799  85.7615139288596 108.311288140614  85.7615139288596 108.311288140614  C 85.7615139288596 108.311288140614  82.5568319395241 89.889959902358  82.5568319395241 89.889959902358  C 82.5568319395241 89.889959902358  100.765127724954 78.6286601777109  100.765127724954 78.6286601777109  C 100.765127724954 78.6286601777109  124.401370763493 71.7287227629147  124.401370763493 71.7287227629147  C 124.401370763493 71.7287227629147  148.021165477023 71.335361844875  148.021165477023 71.335361844875  C 148.021165477023 71.335361844875  156.407069844326 84.8901921681474  156.407069844326 84.8901921681474  C 156.407069844326 84.8901921681474  176.797510081006 60.5491045403743  176.797510081006 60.5491045403743  C 176.797510081006 60.5491045403743  195.142875241514 77.2723173400983  195.142875241514 77.2723173400983  C 195.142875241514 77.2723173400983  205.935717835196 80.6964918889364  205.935717835196 80.6964918889364  C 205.935717835196 80.6964918889364  221.89881725684 94.4791706128221  221.89881725684 94.4791706128221  C 221.89881725684 94.4791706128221  203.621986783871 71.3289133052349  203.621986783871 71.3289133052349  Z " stroke-width="2" stroke="#505050" fill="none" stroke-opacity="0.211764705882353" transform="matrix(1 0 0 1 1229 1038 )" mask="url(#clip654)" />
  </g>
</svg>