<?xml version="1.0" encoding="utf-8"?>
<svg version="1.1" xmlns:xlink="http://www.w3.org/1999/xlink" width="26px" height="9px" xmlns="http://www.w3.org/2000/svg">
  <defs>
    <mask fill="white" id="clip655">
      <path d="M 7.53120558929822 7.74218668190915  C 7.53120558929822 7.74218668190915  0.505665609746529 7.59104947780361  0.505665609746529 7.59104947780361  C 0.505665609746529 7.59104947780361  1.49122333415085 2.64442244150728  1.49122333415085 2.64442244150728  C 1.49122333415085 2.64442244150728  9.89874649149829 2.44125439664431  9.89874649149829 2.44125439664431  C 9.89874649149829 2.44125439664431  11.641366713699 0.758923878813539  11.641366713699 0.758923878813539  C 11.641366713699 0.758923878813539  16.0887432974848 0.644951560963591  16.0887432974848 0.644951560963591  C 16.0887432974848 0.644951560963591  19.136263970433 2.39417887405402  19.136263970433 2.39417887405402  C 19.136263970433 2.39417887405402  21.5313344180074 2.42638844214207  21.5313344180074 2.42638844214207  C 21.5313344180074 2.42638844214207  24.0750644106038 1.22967910471598  24.0750644106038 1.22967910471598  C 24.0750644106038 1.22967910471598  25.6359896333333 3.28365848510148  25.6359896333333 3.28365848510148  C 25.6359896333333 3.28365848510148  22.2939028248788 6.67679327591923  22.2939028248788 6.67679327591923  C 22.2939028248788 6.67679327591923  18.9408041982747 6.55043266265061  18.9408041982747 6.55043266265061  C 18.9408041982747 6.55043266265061  15.6289998897321 3.25144891701343  15.6289998897321 3.25144891701343  C 15.6289998897321 3.25144891701343  10.7686801253299 6.68918157133749  10.7686801253299 6.68918157133749  C 10.7686801253299 6.68918157133749  9.38669694753412 6.74864538934644  9.38669694753412 6.74864538934644  C 9.38669694753412 6.74864538934644  7.53120558929822 7.74218668190915  7.53120558929822 7.74218668190915  Z " fill-rule="evenodd" />
    </mask>
  </defs>
  <g transform="matrix(1 0 0 1 -1664 -1949 )">
    <path d="M 7.53120558929822 7.74218668190915  C 7.53120558929822 7.74218668190915  0.505665609746529 7.59104947780361  0.505665609746529 7.59104947780361  C 0.505665609746529 7.59104947780361  1.49122333415085 2.64442244150728  1.49122333415085 2.64442244150728  C 1.49122333415085 2.64442244150728  9.89874649149829 2.44125439664431  9.89874649149829 2.44125439664431  C 9.89874649149829 2.44125439664431  11.641366713699 0.758923878813539  11.641366713699 0.758923878813539  C 11.641366713699 0.758923878813539  16.0887432974848 0.644951560963591  16.0887432974848 0.644951560963591  C 16.0887432974848 0.644951560963591  19.136263970433 2.39417887405402  19.136263970433 2.39417887405402  C 19.136263970433 2.39417887405402  21.5313344180074 2.42638844214207  21.5313344180074 2.42638844214207  C 21.5313344180074 2.42638844214207  24.0750644106038 1.22967910471598  24.0750644106038 1.22967910471598  C 24.0750644106038 1.22967910471598  25.6359896333333 3.28365848510148  25.6359896333333 3.28365848510148  C 25.6359896333333 3.28365848510148  22.2939028248788 6.67679327591923  22.2939028248788 6.67679327591923  C 22.2939028248788 6.67679327591923  18.9408041982747 6.55043266265061  18.9408041982747 6.55043266265061  C 18.9408041982747 6.55043266265061  15.6289998897321 3.25144891701343  15.6289998897321 3.25144891701343  C 15.6289998897321 3.25144891701343  10.7686801253299 6.68918157133749  10.7686801253299 6.68918157133749  C 10.7686801253299 6.68918157133749  9.38669694753412 6.74864538934644  9.38669694753412 6.74864538934644  C 9.38669694753412 6.74864538934644  7.53120558929822 7.74218668190915  7.53120558929822 7.74218668190915  Z " fill-rule="nonzero" fill="#f2f2f2" stroke="none" transform="matrix(1 0 0 1 1664 1949 )" />
    <path d="M 7.53120558929822 7.74218668190915  C 7.53120558929822 7.74218668190915  0.505665609746529 7.59104947780361  0.505665609746529 7.59104947780361  C 0.505665609746529 7.59104947780361  1.49122333415085 2.64442244150728  1.49122333415085 2.64442244150728  C 1.49122333415085 2.64442244150728  9.89874649149829 2.44125439664431  9.89874649149829 2.44125439664431  C 9.89874649149829 2.44125439664431  11.641366713699 0.758923878813539  11.641366713699 0.758923878813539  C 11.641366713699 0.758923878813539  16.0887432974848 0.644951560963591  16.0887432974848 0.644951560963591  C 16.0887432974848 0.644951560963591  19.136263970433 2.39417887405402  19.136263970433 2.39417887405402  C 19.136263970433 2.39417887405402  21.5313344180074 2.42638844214207  21.5313344180074 2.42638844214207  C 21.5313344180074 2.42638844214207  24.0750644106038 1.22967910471598  24.0750644106038 1.22967910471598  C 24.0750644106038 1.22967910471598  25.6359896333333 3.28365848510148  25.6359896333333 3.28365848510148  C 25.6359896333333 3.28365848510148  22.2939028248788 6.67679327591923  22.2939028248788 6.67679327591923  C 22.2939028248788 6.67679327591923  18.9408041982747 6.55043266265061  18.9408041982747 6.55043266265061  C 18.9408041982747 6.55043266265061  15.6289998897321 3.25144891701343  15.6289998897321 3.25144891701343  C 15.6289998897321 3.25144891701343  10.7686801253299 6.68918157133749  10.7686801253299 6.68918157133749  C 10.7686801253299 6.68918157133749  9.38669694753412 6.74864538934644  9.38669694753412 6.74864538934644  C 9.38669694753412 6.74864538934644  7.53120558929822 7.74218668190915  7.53120558929822 7.74218668190915  Z " stroke-width="2" stroke="#505050" fill="none" stroke-opacity="0.211764705882353" transform="matrix(1 0 0 1 1664 1949 )" mask="url(#clip655)" />
  </g>
</svg>