<?xml version="1.0" encoding="utf-8"?>
<svg version="1.1" xmlns:xlink="http://www.w3.org/1999/xlink" width="62px" height="35px" xmlns="http://www.w3.org/2000/svg">
  <defs>
    <mask fill="white" id="clip656">
      <path d="M 56.5848333719644 32.6601660978368  C 56.5848333719644 32.6601660978368  55.3597686028027 32.6689254986376  55.3597686028027 32.6689254986376  C 55.3597686028027 32.6689254986376  53.1766756546112 32.5090664340202  53.1766756546112 32.5090664340202  C 53.1766756546112 32.5090664340202  51.604738613732 34.9879768606894  51.604738613732 34.9879768606894  C 51.604738613732 34.9879768606894  49.4216456655404 34.9573189578862  49.4216456655404 34.9573189578862  C 49.4216456655404 34.9573189578862  47.9185324880973 33.6477885381438  47.9185324880973 33.6477885381438  C 47.9185324880973 33.6477885381438  48.4305820320615 31.1754476620754  48.4305820320615 31.1754476620754  C 48.4305820320615 31.1754476620754  45.201366359642 27.4001459168653  45.201366359642 27.4001459168653  C 45.201366359642 27.4001459168653  43.1862036382347 28.0943284303407  43.1862036382347 28.0943284303407  C 43.1862036382347 28.0943284303407  41.537183870307 28.2322889929555  41.537183870307 28.2322889929555  C 41.537183870307 28.2322889929555  39.4119029674018 28.5848548751937  39.4119029674018 28.5848548751937  C 39.4119029674018 28.5848548751937  39.4999975126 26.3227396183481  39.4999975126 26.3227396183481  C 39.4999975126 26.3227396183481  38.2584150162136 24.7088200207728  38.2584150162136 24.7088200207728  C 38.2584150162136 24.7088200207728  38.5089338791208 22.9109530063776  38.5089338791208 22.9109530063776  C 38.5089338791208 22.9109530063776  36.8351375203561 20.3116008186951  36.8351375203561 20.3116008186951  C 36.8351375203561 20.3116008186951  34.6878329811516 16.5067531753457  34.6878329811516 16.5067531753457  C 34.6878329811516 16.5067531753457  26.5157089082068 16.500183624745  26.5157089082068 16.500183624745  C 26.5157089082068 16.500183624745  24.7152766407198 19.2582828723807  24.7152766407198 19.2582828723807  C 24.7152766407198 19.2582828723807  22.5899957378147 19.398433285196  22.5899957378147 19.398433285196  C 22.5899957378147 19.398433285196  21.27133051438 20.7342419073413  21.27133051438 20.7342419073413  C 21.27133051438 20.7342419073413  20.3793732442489 22.4488946141274  20.3793732442489 22.4488946141274  C 20.3793732442489 22.4488946141274  16.255447347161 25.1664987126225  16.255447347161 25.1664987126225  C 16.255447347161 25.1664987126225  12.8693132661074 21.5094488782253  12.8693132661074 21.5094488782253  C 12.8693132661074 21.5094488782253  9.86859282029559 19.0874745567623  9.86859282029559 19.0874745567623  C 9.86859282029559 19.0874745567623  7.89197146241236 16.6950802925662  7.89197146241236 16.6950802925662  C 7.89197146241236 16.6950802925662  5.96490328620325 15.4621946298322  5.96490328620325 15.4621946298322  C 5.96490328620325 15.4621946298322  5.08671078875909 12.7226920293344  5.08671078875909 12.7226920293344  C 5.08671078875909 12.7226920293344  3.9579994284079 11.3540356541858  3.9579994284079 11.3540356541858  C 3.9579994284079 11.3540356541858  1.7143414803927 10.3357553110752  1.7143414803927 10.3357553110752  C 1.7143414803927 10.3357553110752  5.14727578858287 7.30500263394602  5.14727578858287 7.30500263394602  C 5.14727578858287 7.30500263394602  7.48728714540857 7.41887484435867  7.48728714540857 7.41887484435867  C 7.48728714540857 7.41887484435867  9.50244986681582 6.37431629884516  9.50244986681582 6.37431629884516  C 9.50244986681582 6.37431629884516  11.203775770955 6.36336704784381  11.203775770955 6.36336704784381  C 11.203775770955 6.36336704784381  12.4205816765043 5.53779352235402  12.4205816765043 5.53779352235402  C 12.4205816765043 5.53779352235402  11.7626255420557 3.47276478352982  11.7626255420557 3.47276478352982  C 11.7626255420557 3.47276478352982  12.6105355395878 2.82018942385894  12.6105355395878 2.82018942385894  C 12.6105355395878 2.82018942385894  12.7509362209973 0.700414430028735  12.7509362209973 0.700414430028735  C 12.7509362209973 0.700414430028735  16.4756837101563 0.766109936035739  16.4756837101563 0.766109936035739  C 16.4756837101563 0.766109936035739  22.0256400576391 2.29024567540121  22.0256400576391 2.29024567540121  C 22.0256400576391 2.29024567540121  23.7269659617782 2.15009526258634  23.7269659617782 2.15009526258634  C 23.7269659617782 2.15009526258634  24.305086414641 1.45372289891079  24.305086414641 1.45372289891079  C 24.305086414641 1.45372289891079  28.5143539023895 1.94862904416435  28.5143539023895 1.94862904416435  C 28.5143539023895 1.94862904416435  29.6293004900538 1.59606316192615  29.6293004900538 1.59606316192615  C 29.6293004900538 1.59606316192615  32.0725261705816 3.88226677097453  32.0725261705816 3.88226677097453  C 32.0725261705816 3.88226677097453  33.2975909397435 3.8756972203738  33.2975909397435 3.8756972203738  C 33.2975909397435 3.8756972203738  35.3127536611507 3.04355414428327  35.3127536611507 3.04355414428327  C 35.3127536611507 3.04355414428327  36.5928775210614 3.25158991330599  36.5928775210614 3.25158991330599  C 36.5928775210614 3.25158991330599  38.734676151191 4.83485160807773  38.734676151191 4.83485160807773  C 38.734676151191 4.83485160807773  42.0382215961213 5.33413745373227  42.0382215961213 5.33413745373227  C 42.0382215961213 5.33413745373227  44.1552436354141 3.98518973038547  44.1552436354141 3.98518973038547  C 44.1552436354141 3.98518973038547  46.6494204463365 3.14866695389469  46.6494204463365 3.14866695389469  C 46.6494204463365 3.14866695389469  48.5049118045724 2.27491672399997  48.5049118045724 2.27491672399997  C 48.5049118045724 2.27491672399997  50.0493193000773 2.43915548901767  50.0493193000773 2.43915548901767  C 50.0493193000773 2.43915548901767  51.7644099769036 3.81000171436643  51.7644099769036 3.81000171436643  C 51.7644099769036 3.81000171436643  52.6838967924091 5.53122397175328  52.6838967924091 5.53122397175328  C 52.6838967924091 5.53122397175328  55.84704155593 8.13933556023668  55.84704155593 8.13933556023668  C 55.84704155593 8.13933556023668  54.2640926969009 9.74011605661086  54.2640926969009 9.74011605661086  C 54.2640926969009 9.74011605661086  53.9640206523197 11.7613477914304  53.9640206523197 11.7613477914304  C 53.9640206523197 11.7613477914304  55.6075345111724 11.150379585564  55.6075345111724 11.150379585564  C 55.6075345111724 11.150379585564  56.5710685992769 11.8752200018427  56.5710685992769 11.8752200018427  C 56.5710685992769 11.8752200018427  56.1636313277356 13.7234535708433  56.1636313277356 13.7234535708433  C 56.1636313277356 13.7234535708433  58.520160411786 15.5125611844376  58.520160411786 15.5125611844376  C 58.520160411786 15.5125611844376  56.9812588253558 15.9921383782896  56.9812588253558 15.9921383782896  C 56.9812588253558 15.9921383782896  56.3618440544315 19.6853036614272  56.3618440544315 19.6853036614272  C 56.3618440544315 19.6853036614272  58.1402526856191 22.2430486953051  58.1402526856191 22.2430486953051  C 58.1402526856191 22.2430486953051  60.0480501800662 27.1855405972419  60.0480501800662 27.1855405972419  C 60.0480501800662 27.1855405972419  57.1794715520516 27.9278998151226  57.1794715520516 27.9278998151226  C 57.1794715520516 27.9278998151226  56.4416797360173 28.7841312434156  56.4416797360173 28.7841312434156  C 56.4416797360173 28.7841312434156  57.0390708706423 29.975409752345  57.0390708706423 29.975409752345  C 57.0390708706423 29.975409752345  56.5848333719644 32.6601660978368  56.5848333719644 32.6601660978368  Z " fill-rule="evenodd" />
    </mask>
  </defs>
  <g transform="matrix(1 0 0 1 -1674 -1957 )">
    <path d="M 56.5848333719644 32.6601660978368  C 56.5848333719644 32.6601660978368  55.3597686028027 32.6689254986376  55.3597686028027 32.6689254986376  C 55.3597686028027 32.6689254986376  53.1766756546112 32.5090664340202  53.1766756546112 32.5090664340202  C 53.1766756546112 32.5090664340202  51.604738613732 34.9879768606894  51.604738613732 34.9879768606894  C 51.604738613732 34.9879768606894  49.4216456655404 34.9573189578862  49.4216456655404 34.9573189578862  C 49.4216456655404 34.9573189578862  47.9185324880973 33.6477885381438  47.9185324880973 33.6477885381438  C 47.9185324880973 33.6477885381438  48.4305820320615 31.1754476620754  48.4305820320615 31.1754476620754  C 48.4305820320615 31.1754476620754  45.201366359642 27.4001459168653  45.201366359642 27.4001459168653  C 45.201366359642 27.4001459168653  43.1862036382347 28.0943284303407  43.1862036382347 28.0943284303407  C 43.1862036382347 28.0943284303407  41.537183870307 28.2322889929555  41.537183870307 28.2322889929555  C 41.537183870307 28.2322889929555  39.4119029674018 28.5848548751937  39.4119029674018 28.5848548751937  C 39.4119029674018 28.5848548751937  39.4999975126 26.3227396183481  39.4999975126 26.3227396183481  C 39.4999975126 26.3227396183481  38.2584150162136 24.7088200207728  38.2584150162136 24.7088200207728  C 38.2584150162136 24.7088200207728  38.5089338791208 22.9109530063776  38.5089338791208 22.9109530063776  C 38.5089338791208 22.9109530063776  36.8351375203561 20.3116008186951  36.8351375203561 20.3116008186951  C 36.8351375203561 20.3116008186951  34.6878329811516 16.5067531753457  34.6878329811516 16.5067531753457  C 34.6878329811516 16.5067531753457  26.5157089082068 16.500183624745  26.5157089082068 16.500183624745  C 26.5157089082068 16.500183624745  24.7152766407198 19.2582828723807  24.7152766407198 19.2582828723807  C 24.7152766407198 19.2582828723807  22.5899957378147 19.398433285196  22.5899957378147 19.398433285196  C 22.5899957378147 19.398433285196  21.27133051438 20.7342419073413  21.27133051438 20.7342419073413  C 21.27133051438 20.7342419073413  20.3793732442489 22.4488946141274  20.3793732442489 22.4488946141274  C 20.3793732442489 22.4488946141274  16.255447347161 25.1664987126225  16.255447347161 25.1664987126225  C 16.255447347161 25.1664987126225  12.8693132661074 21.5094488782253  12.8693132661074 21.5094488782253  C 12.8693132661074 21.5094488782253  9.86859282029559 19.0874745567623  9.86859282029559 19.0874745567623  C 9.86859282029559 19.0874745567623  7.89197146241236 16.6950802925662  7.89197146241236 16.6950802925662  C 7.89197146241236 16.6950802925662  5.96490328620325 15.4621946298322  5.96490328620325 15.4621946298322  C 5.96490328620325 15.4621946298322  5.08671078875909 12.7226920293344  5.08671078875909 12.7226920293344  C 5.08671078875909 12.7226920293344  3.9579994284079 11.3540356541858  3.9579994284079 11.3540356541858  C 3.9579994284079 11.3540356541858  1.7143414803927 10.3357553110752  1.7143414803927 10.3357553110752  C 1.7143414803927 10.3357553110752  5.14727578858287 7.30500263394602  5.14727578858287 7.30500263394602  C 5.14727578858287 7.30500263394602  7.48728714540857 7.41887484435867  7.48728714540857 7.41887484435867  C 7.48728714540857 7.41887484435867  9.50244986681582 6.37431629884516  9.50244986681582 6.37431629884516  C 9.50244986681582 6.37431629884516  11.203775770955 6.36336704784381  11.203775770955 6.36336704784381  C 11.203775770955 6.36336704784381  12.4205816765043 5.53779352235402  12.4205816765043 5.53779352235402  C 12.4205816765043 5.53779352235402  11.7626255420557 3.47276478352982  11.7626255420557 3.47276478352982  C 11.7626255420557 3.47276478352982  12.6105355395878 2.82018942385894  12.6105355395878 2.82018942385894  C 12.6105355395878 2.82018942385894  12.7509362209973 0.700414430028735  12.7509362209973 0.700414430028735  C 12.7509362209973 0.700414430028735  16.4756837101563 0.766109936035739  16.4756837101563 0.766109936035739  C 16.4756837101563 0.766109936035739  22.0256400576391 2.29024567540121  22.0256400576391 2.29024567540121  C 22.0256400576391 2.29024567540121  23.7269659617782 2.15009526258634  23.7269659617782 2.15009526258634  C 23.7269659617782 2.15009526258634  24.305086414641 1.45372289891079  24.305086414641 1.45372289891079  C 24.305086414641 1.45372289891079  28.5143539023895 1.94862904416435  28.5143539023895 1.94862904416435  C 28.5143539023895 1.94862904416435  29.6293004900538 1.59606316192615  29.6293004900538 1.59606316192615  C 29.6293004900538 1.59606316192615  32.0725261705816 3.88226677097453  32.0725261705816 3.88226677097453  C 32.0725261705816 3.88226677097453  33.2975909397435 3.8756972203738  33.2975909397435 3.8756972203738  C 33.2975909397435 3.8756972203738  35.3127536611507 3.04355414428327  35.3127536611507 3.04355414428327  C 35.3127536611507 3.04355414428327  36.5928775210614 3.25158991330599  36.5928775210614 3.25158991330599  C 36.5928775210614 3.25158991330599  38.734676151191 4.83485160807773  38.734676151191 4.83485160807773  C 38.734676151191 4.83485160807773  42.0382215961213 5.33413745373227  42.0382215961213 5.33413745373227  C 42.0382215961213 5.33413745373227  44.1552436354141 3.98518973038547  44.1552436354141 3.98518973038547  C 44.1552436354141 3.98518973038547  46.6494204463365 3.14866695389469  46.6494204463365 3.14866695389469  C 46.6494204463365 3.14866695389469  48.5049118045724 2.27491672399997  48.5049118045724 2.27491672399997  C 48.5049118045724 2.27491672399997  50.0493193000773 2.43915548901767  50.0493193000773 2.43915548901767  C 50.0493193000773 2.43915548901767  51.7644099769036 3.81000171436643  51.7644099769036 3.81000171436643  C 51.7644099769036 3.81000171436643  52.6838967924091 5.53122397175328  52.6838967924091 5.53122397175328  C 52.6838967924091 5.53122397175328  55.84704155593 8.13933556023668  55.84704155593 8.13933556023668  C 55.84704155593 8.13933556023668  54.2640926969009 9.74011605661086  54.2640926969009 9.74011605661086  C 54.2640926969009 9.74011605661086  53.9640206523197 11.7613477914304  53.9640206523197 11.7613477914304  C 53.9640206523197 11.7613477914304  55.6075345111724 11.150379585564  55.6075345111724 11.150379585564  C 55.6075345111724 11.150379585564  56.5710685992769 11.8752200018427  56.5710685992769 11.8752200018427  C 56.5710685992769 11.8752200018427  56.1636313277356 13.7234535708433  56.1636313277356 13.7234535708433  C 56.1636313277356 13.7234535708433  58.520160411786 15.5125611844376  58.520160411786 15.5125611844376  C 58.520160411786 15.5125611844376  56.9812588253558 15.9921383782896  56.9812588253558 15.9921383782896  C 56.9812588253558 15.9921383782896  56.3618440544315 19.6853036614272  56.3618440544315 19.6853036614272  C 56.3618440544315 19.6853036614272  58.1402526856191 22.2430486953051  58.1402526856191 22.2430486953051  C 58.1402526856191 22.2430486953051  60.0480501800662 27.1855405972419  60.0480501800662 27.1855405972419  C 60.0480501800662 27.1855405972419  57.1794715520516 27.9278998151226  57.1794715520516 27.9278998151226  C 57.1794715520516 27.9278998151226  56.4416797360173 28.7841312434156  56.4416797360173 28.7841312434156  C 56.4416797360173 28.7841312434156  57.0390708706423 29.975409752345  57.0390708706423 29.975409752345  C 57.0390708706423 29.975409752345  56.5848333719644 32.6601660978368  56.5848333719644 32.6601660978368  Z " fill-rule="nonzero" fill="#f2f2f2" stroke="none" transform="matrix(1 0 0 1 1674 1957 )" />
    <path d="M 56.5848333719644 32.6601660978368  C 56.5848333719644 32.6601660978368  55.3597686028027 32.6689254986376  55.3597686028027 32.6689254986376  C 55.3597686028027 32.6689254986376  53.1766756546112 32.5090664340202  53.1766756546112 32.5090664340202  C 53.1766756546112 32.5090664340202  51.604738613732 34.9879768606894  51.604738613732 34.9879768606894  C 51.604738613732 34.9879768606894  49.4216456655404 34.9573189578862  49.4216456655404 34.9573189578862  C 49.4216456655404 34.9573189578862  47.9185324880973 33.6477885381438  47.9185324880973 33.6477885381438  C 47.9185324880973 33.6477885381438  48.4305820320615 31.1754476620754  48.4305820320615 31.1754476620754  C 48.4305820320615 31.1754476620754  45.201366359642 27.4001459168653  45.201366359642 27.4001459168653  C 45.201366359642 27.4001459168653  43.1862036382347 28.0943284303407  43.1862036382347 28.0943284303407  C 43.1862036382347 28.0943284303407  41.537183870307 28.2322889929555  41.537183870307 28.2322889929555  C 41.537183870307 28.2322889929555  39.4119029674018 28.5848548751937  39.4119029674018 28.5848548751937  C 39.4119029674018 28.5848548751937  39.4999975126 26.3227396183481  39.4999975126 26.3227396183481  C 39.4999975126 26.3227396183481  38.2584150162136 24.7088200207728  38.2584150162136 24.7088200207728  C 38.2584150162136 24.7088200207728  38.5089338791208 22.9109530063776  38.5089338791208 22.9109530063776  C 38.5089338791208 22.9109530063776  36.8351375203561 20.3116008186951  36.8351375203561 20.3116008186951  C 36.8351375203561 20.3116008186951  34.6878329811516 16.5067531753457  34.6878329811516 16.5067531753457  C 34.6878329811516 16.5067531753457  26.5157089082068 16.500183624745  26.5157089082068 16.500183624745  C 26.5157089082068 16.500183624745  24.7152766407198 19.2582828723807  24.7152766407198 19.2582828723807  C 24.7152766407198 19.2582828723807  22.5899957378147 19.398433285196  22.5899957378147 19.398433285196  C 22.5899957378147 19.398433285196  21.27133051438 20.7342419073413  21.27133051438 20.7342419073413  C 21.27133051438 20.7342419073413  20.3793732442489 22.4488946141274  20.3793732442489 22.4488946141274  C 20.3793732442489 22.4488946141274  16.255447347161 25.1664987126225  16.255447347161 25.1664987126225  C 16.255447347161 25.1664987126225  12.8693132661074 21.5094488782253  12.8693132661074 21.5094488782253  C 12.8693132661074 21.5094488782253  9.86859282029559 19.0874745567623  9.86859282029559 19.0874745567623  C 9.86859282029559 19.0874745567623  7.89197146241236 16.6950802925662  7.89197146241236 16.6950802925662  C 7.89197146241236 16.6950802925662  5.96490328620325 15.4621946298322  5.96490328620325 15.4621946298322  C 5.96490328620325 15.4621946298322  5.08671078875909 12.7226920293344  5.08671078875909 12.7226920293344  C 5.08671078875909 12.7226920293344  3.9579994284079 11.3540356541858  3.9579994284079 11.3540356541858  C 3.9579994284079 11.3540356541858  1.7143414803927 10.3357553110752  1.7143414803927 10.3357553110752  C 1.7143414803927 10.3357553110752  5.14727578858287 7.30500263394602  5.14727578858287 7.30500263394602  C 5.14727578858287 7.30500263394602  7.48728714540857 7.41887484435867  7.48728714540857 7.41887484435867  C 7.48728714540857 7.41887484435867  9.50244986681582 6.37431629884516  9.50244986681582 6.37431629884516  C 9.50244986681582 6.37431629884516  11.203775770955 6.36336704784381  11.203775770955 6.36336704784381  C 11.203775770955 6.36336704784381  12.4205816765043 5.53779352235402  12.4205816765043 5.53779352235402  C 12.4205816765043 5.53779352235402  11.7626255420557 3.47276478352982  11.7626255420557 3.47276478352982  C 11.7626255420557 3.47276478352982  12.6105355395878 2.82018942385894  12.6105355395878 2.82018942385894  C 12.6105355395878 2.82018942385894  12.7509362209973 0.700414430028735  12.7509362209973 0.700414430028735  C 12.7509362209973 0.700414430028735  16.4756837101563 0.766109936035739  16.4756837101563 0.766109936035739  C 16.4756837101563 0.766109936035739  22.0256400576391 2.29024567540121  22.0256400576391 2.29024567540121  C 22.0256400576391 2.29024567540121  23.7269659617782 2.15009526258634  23.7269659617782 2.15009526258634  C 23.7269659617782 2.15009526258634  24.305086414641 1.45372289891079  24.305086414641 1.45372289891079  C 24.305086414641 1.45372289891079  28.5143539023895 1.94862904416435  28.5143539023895 1.94862904416435  C 28.5143539023895 1.94862904416435  29.6293004900538 1.59606316192615  29.6293004900538 1.59606316192615  C 29.6293004900538 1.59606316192615  32.0725261705816 3.88226677097453  32.0725261705816 3.88226677097453  C 32.0725261705816 3.88226677097453  33.2975909397435 3.8756972203738  33.2975909397435 3.8756972203738  C 33.2975909397435 3.8756972203738  35.3127536611507 3.04355414428327  35.3127536611507 3.04355414428327  C 35.3127536611507 3.04355414428327  36.5928775210614 3.25158991330599  36.5928775210614 3.25158991330599  C 36.5928775210614 3.25158991330599  38.734676151191 4.83485160807773  38.734676151191 4.83485160807773  C 38.734676151191 4.83485160807773  42.0382215961213 5.33413745373227  42.0382215961213 5.33413745373227  C 42.0382215961213 5.33413745373227  44.1552436354141 3.98518973038547  44.1552436354141 3.98518973038547  C 44.1552436354141 3.98518973038547  46.6494204463365 3.14866695389469  46.6494204463365 3.14866695389469  C 46.6494204463365 3.14866695389469  48.5049118045724 2.27491672399997  48.5049118045724 2.27491672399997  C 48.5049118045724 2.27491672399997  50.0493193000773 2.43915548901767  50.0493193000773 2.43915548901767  C 50.0493193000773 2.43915548901767  51.7644099769036 3.81000171436643  51.7644099769036 3.81000171436643  C 51.7644099769036 3.81000171436643  52.6838967924091 5.53122397175328  52.6838967924091 5.53122397175328  C 52.6838967924091 5.53122397175328  55.84704155593 8.13933556023668  55.84704155593 8.13933556023668  C 55.84704155593 8.13933556023668  54.2640926969009 9.74011605661086  54.2640926969009 9.74011605661086  C 54.2640926969009 9.74011605661086  53.9640206523197 11.7613477914304  53.9640206523197 11.7613477914304  C 53.9640206523197 11.7613477914304  55.6075345111724 11.150379585564  55.6075345111724 11.150379585564  C 55.6075345111724 11.150379585564  56.5710685992769 11.8752200018427  56.5710685992769 11.8752200018427  C 56.5710685992769 11.8752200018427  56.1636313277356 13.7234535708433  56.1636313277356 13.7234535708433  C 56.1636313277356 13.7234535708433  58.520160411786 15.5125611844376  58.520160411786 15.5125611844376  C 58.520160411786 15.5125611844376  56.9812588253558 15.9921383782896  56.9812588253558 15.9921383782896  C 56.9812588253558 15.9921383782896  56.3618440544315 19.6853036614272  56.3618440544315 19.6853036614272  C 56.3618440544315 19.6853036614272  58.1402526856191 22.2430486953051  58.1402526856191 22.2430486953051  C 58.1402526856191 22.2430486953051  60.0480501800662 27.1855405972419  60.0480501800662 27.1855405972419  C 60.0480501800662 27.1855405972419  57.1794715520516 27.9278998151226  57.1794715520516 27.9278998151226  C 57.1794715520516 27.9278998151226  56.4416797360173 28.7841312434156  56.4416797360173 28.7841312434156  C 56.4416797360173 28.7841312434156  57.0390708706423 29.975409752345  57.0390708706423 29.975409752345  C 57.0390708706423 29.975409752345  56.5848333719644 32.6601660978368  56.5848333719644 32.6601660978368  Z " stroke-width="2" stroke="#505050" fill="none" stroke-opacity="0.211764705882353" transform="matrix(1 0 0 1 1674 1957 )" mask="url(#clip656)" />
  </g>
</svg>