<?xml version="1.0" encoding="utf-8"?>
<svg version="1.1" xmlns:xlink="http://www.w3.org/1999/xlink" width="18px" height="12px" xmlns="http://www.w3.org/2000/svg">
  <defs>
    <mask fill="white" id="clip657">
      <path d="M 4.37986478326366 10.2779197887489  C 4.37986478326366 10.2779197887489  1.77832274538127 10.6578275149158  1.77832274538127 10.6578275149158  C 1.77832274538127 10.6578275149158  0.333021613224219 9.6667638814367  0.333021613224219 9.6667638814367  C 0.333021613224219 9.6667638814367  2.98411683278073 0.566694422414002  2.98411683278073 0.566694422414002  C 2.98411683278073 0.566694422414002  17.545848387128 0.717713642753681  17.545848387128 0.717713642753681  C 17.545848387128 0.717713642753681  17.6119192960266 10.3439906976476  17.6119192960266 10.3439906976476  C 17.6119192960266 10.3439906976476  4.37986478326366 10.2779197887489  4.37986478326366 10.2779197887489  Z " fill-rule="evenodd" />
    </mask>
  </defs>
  <g transform="matrix(1 0 0 1 -1862 -2019 )">
    <path d="M 4.37986478326366 10.2779197887489  C 4.37986478326366 10.2779197887489  1.77832274538127 10.6578275149158  1.77832274538127 10.6578275149158  C 1.77832274538127 10.6578275149158  0.333021613224219 9.6667638814367  0.333021613224219 9.6667638814367  C 0.333021613224219 9.6667638814367  2.98411683278073 0.566694422414002  2.98411683278073 0.566694422414002  C 2.98411683278073 0.566694422414002  17.545848387128 0.717713642753681  17.545848387128 0.717713642753681  C 17.545848387128 0.717713642753681  17.6119192960266 10.3439906976476  17.6119192960266 10.3439906976476  C 17.6119192960266 10.3439906976476  4.37986478326366 10.2779197887489  4.37986478326366 10.2779197887489  Z " fill-rule="nonzero" fill="#f2f2f2" stroke="none" transform="matrix(1 0 0 1 1862 2019 )" />
    <path d="M 4.37986478326366 10.2779197887489  C 4.37986478326366 10.2779197887489  1.77832274538127 10.6578275149158  1.77832274538127 10.6578275149158  C 1.77832274538127 10.6578275149158  0.333021613224219 9.6667638814367  0.333021613224219 9.6667638814367  C 0.333021613224219 9.6667638814367  2.98411683278073 0.566694422414002  2.98411683278073 0.566694422414002  C 2.98411683278073 0.566694422414002  17.545848387128 0.717713642753681  17.545848387128 0.717713642753681  C 17.545848387128 0.717713642753681  17.6119192960266 10.3439906976476  17.6119192960266 10.3439906976476  C 17.6119192960266 10.3439906976476  4.37986478326366 10.2779197887489  4.37986478326366 10.2779197887489  Z " stroke-width="2" stroke="#505050" fill="none" stroke-opacity="0.211764705882353" transform="matrix(1 0 0 1 1862 2019 )" mask="url(#clip657)" />
  </g>
</svg>