<?xml version="1.0" encoding="utf-8"?>
<svg version="1.1" xmlns:xlink="http://www.w3.org/1999/xlink" width="52px" height="54px" xmlns="http://www.w3.org/2000/svg">
  <defs>
    <mask fill="white" id="clip658">
      <path d="M 26.0079774303715 51.317996350942  C 26.0079774303715 51.317996350942  27.4395137898412 46.680896963844  27.4395137898412 46.680896963844  C 27.4395137898412 46.680896963844  31.6597930957398 49.1359031644908  31.6597930957398 49.1359031644908  C 31.6597930957398 49.1359031644908  39.6667398964382 48.7217801462157  39.6667398964382 48.7217801462157  C 39.6667398964382 48.7217801462157  45.409403061542 49.2378411382201  45.409403061542 49.2378411382201  C 45.409403061542 49.2378411382201  45.2249551075336 52.0443044137631  45.2249551075336 52.0443044137631  C 45.2249551075336 52.0443044137631  49.4314696407448 51.1735842214921  49.4314696407448 51.1735842214921  C 49.4314696407448 51.1735842214921  48.4651825981027 53.312157962021  48.4651825981027 53.312157962021  C 48.4651825981027 53.312157962021  35.3487521759121 53.9280332199687  35.3487521759121 53.9280332199687  C 35.3487521759121 53.9280332199687  35.4258349029603 52.7323857364358  35.4258349029603 52.7323857364358  C 35.4258349029603 52.7323857364358  26.0079774303715 51.317996350942  26.0079774303715 51.317996350942  Z M 48.1072985082351 0.0570162294157334  C 48.1072985082351 0.0570162294157334  51.8568225882309 2.17222918429854  51.8568225882309 2.17222918429854  C 51.8568225882309 2.17222918429854  49.4672580497313 7.10984978681041  49.4672580497313 7.10984978681041  C 49.4672580497313 7.10984978681041  47.6337903277947 7.98906481022535  47.6337903277947 7.98906481022535  C 47.6337903277947 7.98906481022535  42.9317439778442 7.76819920047866  42.9317439778442 7.76819920047866  C 42.9317439778442 7.76819920047866  38.9041714895668 7.02490147536926  38.9041714895668 7.02490147536926  C 38.9041714895668 7.02490147536926  29.5551378804141 9.06153724216883  29.5551378804141 9.06153724216883  C 29.5551378804141 9.06153724216883  34.906881501201 13.4406226969557  34.906881501201 13.4406226969557  C 34.906881501201 13.4406226969557  30.986674239884 14.7021051218555  30.986674239884 14.7021051218555  C 30.986674239884 14.7021051218555  24.6865592523993 14.7105999529996  24.6865592523993 14.7105999529996  C 24.6865592523993 14.7105999529996  20.6039276733732 10.7095344841255  20.6039276733732 10.7095344841255  C 20.6039276733732 10.7095344841255  19.1558735866788 12.4169955440908  19.1558735866788 12.4169955440908  C 19.1558735866788 12.4169955440908  20.8792231271175 17.0381836864846  20.8792231271175 17.0381836864846  C 20.8792231271175 17.0381836864846  24.7416183431485 20.6421157993718  24.7416183431485 20.6421157993718  C 24.7416183431485 20.6421157993718  21.8317453970724 23.8584546776179  21.8317453970724 23.8584546776179  C 21.8317453970724 23.8584546776179  28.1318603845568 27.3625725245617  28.1318603845568 27.3625725245617  C 28.1318603845568 27.3625725245617  31.9529612825263 29.5563626675273  31.9529612825263 29.5563626675273  C 31.9529612825263 29.5563626675273  32.068585373099 33.8037782395805  32.068585373099 33.8037782395805  C 32.068585373099 33.8037782395805  28.3300731112531 31.370009116794  28.3300731112531 31.370009116794  C 28.3300731112531 31.370009116794  22.9274213029746 31.8138640440735  22.9274213029746 31.8138640440735  C 22.9274213029746 31.8138640440735  27.2041147054392 35.6344143511354  27.2041147054392 35.6344143511354  C 27.2041147054392 35.6344143511354  22.6796553946047 36.0379188304804  22.6796553946047 36.0379188304804  C 22.6796553946047 36.0379188304804  19.9267008571628 34.5640656269779  19.9267008571628 34.5640656269779  C 19.9267008571628 34.5640656269779  23.2302463020933 42.956958797355  23.2302463020933 42.956958797355  C 23.2302463020933 42.956958797355  21.6252738067647 42.9866907063594  21.6252738067647 42.9866907063594  C 21.6252738067647 42.9866907063594  20.3974560830654 40.3044477726078  20.3974560830654 40.3044477726078  C 20.3974560830654 40.3044477726078  18.8200131331114 40.2513550779573  18.8200131331114 40.2513550779573  C 18.8200131331114 40.2513550779573  18.1042449533766 43.0504019399403  18.1042449533766 43.0504019399403  C 18.1042449533766 43.0504019399403  16.854403593378 42.4154133119184  16.854403593378 42.4154133119184  C 16.854403593378 42.4154133119184  17.135204956197 40.8459932580448  17.135204956197 40.8459932580448  C 17.135204956197 40.8459932580448  15.5907974606921 38.6267186216469  15.5907974606921 38.6267186216469  C 15.5907974606921 38.6267186216469  13.8371654203418 38.6267186216469  13.8371654203418 38.6267186216469  C 13.8371654203418 38.6267186216469  14.16201405576 40.4170042852674  14.16201405576 40.4170042852674  C 14.16201405576 40.4170042852674  13.4737754213995 40.9840342641365  13.4737754213995 40.9840342641365  C 13.4737754213995 40.9840342641365  11.7779554263354 39.837232059682  11.7779554263354 39.837232059682  C 11.7779554263354 39.837232059682  10.723573838495 37.6689264101489  10.723573838495 37.6689264101489  C 10.723573838495 37.6689264101489  12.1523572434273 36.4605366798997  12.1523572434273 36.4605366798997  C 12.1523572434273 36.4605366798997  11.1695524735608 34.88899291824  11.1695524735608 34.88899291824  C 11.1695524735608 34.88899291824  10.0463470222844 34.0777365439778  10.0463470222844 34.0777365439778  C 10.0463470222844 34.0777365439778  8.8818472529465 33.8781080120913  8.8818472529465 33.8781080120913  C 8.8818472529465 33.8781080120913  7.53014657506242 31.8754515698683  7.53014657506242 31.8754515698683  C 7.53014657506242 31.8754515698683  9.13511907039106 30.7732472289205  9.13511907039106 30.7732472289205  C 9.13511907039106 30.7732472289205  10.1179238402576 29.7453726604836  10.1179238402576 29.7453726604836  C 10.1179238402576 29.7453726604836  11.6623313357627 29.9619908546583  11.6623313357627 29.9619908546583  C 11.6623313357627 29.9619908546583  12.3533229246607 29.0912706623874  12.3533229246607 29.0912706623874  C 12.3533229246607 29.0912706623874  13.9775661017513 28.745106293265  13.9775661017513 28.745106293265  C 13.9775661017513 28.745106293265  15.8578340508241 29.7241355826233  15.8578340508241 29.7241355826233  C 15.8578340508241 29.7241355826233  17.3802179100296 30.0830421984617  17.3802179100296 30.0830421984617  C 17.3802179100296 30.0830421984617  18.442858361482 28.7620959555531  18.442858361482 28.7620959555531  C 18.442858361482 28.7620959555531  15.8605870053616 28.5837045015269  15.8605870053616 28.5837045015269  C 15.8605870053616 28.5837045015269  14.3326972370814 28.1717051910377  14.3326972370814 28.1717051910377  C 14.3326972370814 28.1717051910377  10.8915040652792 28.7663433711251  10.8915040652792 28.7663433711251  C 10.8915040652792 28.7663433711251  7.53565248413725 28.8682813448544  7.53565248413725 28.8682813448544  C 7.53565248413725 28.8682813448544  4.52667317471332 25.3832768679846  4.52667317471332 25.3832768679846  C 4.52667317471332 25.3832768679846  4.02838840343634 24.8438550903339  4.02838840343634 24.8438550903339  C 4.02838840343634 24.8438550903339  4.48813181118908 23.4804346917048  4.48813181118908 23.4804346917048  C 4.48813181118908 23.4804346917048  0.570677504409332 19.4846950559871  0.570677504409332 19.4846950559871  C 0.570677504409332 19.4846950559871  0.0476161422952828 17.2972760363797  0.0476161422952828 17.2972760363797  C 0.0476161422952828 17.2972760363797  3.63746885911928 13.5489317940428  3.63746885911928 13.5489317940428  C 3.63746885911928 13.5489317940428  4.09996522140955 11.0217195286711  4.09996522140955 11.0217195286711  C 4.09996522140955 11.0217195286711  6.60790680501896 9.88978327871886  6.60790680501896 9.88978327871886  C 6.60790680501896 9.88978327871886  6.76207225911594 7.83403414184507  6.76207225911594 7.83403414184507  C 6.76207225911594 7.83403414184507  11.8109908807842 7.13958169581439  11.8109908807842 7.13958169581439  C 11.8109908807842 7.13958169581439  14.7538992813095 5.41937838913287  14.7538992813095 5.41937838913287  C 14.7538992813095 5.41937838913287  18.9383901782212 5.57228534972679  18.9383901782212 5.57228534972679  C 18.9383901782212 5.57228534972679  20.207502219982 4.19824641216756  20.207502219982 4.19824641216756  C 20.207502219982 4.19824641216756  21.6775799429759 3.93490664670025  21.6775799429759 3.93490664670025  C 21.6775799429759 3.93490664670025  29.3872076536304 4.16214337980513  29.3872076536304 4.16214337980513  C 29.3872076536304 4.16214337980513  35.5675905901876 1.98746660691393  35.5675905901876 1.98746660691393  C 35.5675905901876 1.98746660691393  41.0074287561727 4.75041043653451  41.0074287561727 4.75041043653451  C 41.0074287561727 4.75041043653451  48.0219569175747 4.00498900363919  48.0219569175747 4.00498900363919  C 48.0219569175747 4.00498900363919  48.1072985082351 0.0570162294157334  48.1072985082351 0.0570162294157334  Z " fill-rule="evenodd" />
    </mask>
  </defs>
  <g transform="matrix(1 0 0 1 -1949 -1757 )">
    <path d="M 26.0079774303715 51.317996350942  C 26.0079774303715 51.317996350942  27.4395137898412 46.680896963844  27.4395137898412 46.680896963844  C 27.4395137898412 46.680896963844  31.6597930957398 49.1359031644908  31.6597930957398 49.1359031644908  C 31.6597930957398 49.1359031644908  39.6667398964382 48.7217801462157  39.6667398964382 48.7217801462157  C 39.6667398964382 48.7217801462157  45.409403061542 49.2378411382201  45.409403061542 49.2378411382201  C 45.409403061542 49.2378411382201  45.2249551075336 52.0443044137631  45.2249551075336 52.0443044137631  C 45.2249551075336 52.0443044137631  49.4314696407448 51.1735842214921  49.4314696407448 51.1735842214921  C 49.4314696407448 51.1735842214921  48.4651825981027 53.312157962021  48.4651825981027 53.312157962021  C 48.4651825981027 53.312157962021  35.3487521759121 53.9280332199687  35.3487521759121 53.9280332199687  C 35.3487521759121 53.9280332199687  35.4258349029603 52.7323857364358  35.4258349029603 52.7323857364358  C 35.4258349029603 52.7323857364358  26.0079774303715 51.317996350942  26.0079774303715 51.317996350942  Z M 48.1072985082351 0.0570162294157334  C 48.1072985082351 0.0570162294157334  51.8568225882309 2.17222918429854  51.8568225882309 2.17222918429854  C 51.8568225882309 2.17222918429854  49.4672580497313 7.10984978681041  49.4672580497313 7.10984978681041  C 49.4672580497313 7.10984978681041  47.6337903277947 7.98906481022535  47.6337903277947 7.98906481022535  C 47.6337903277947 7.98906481022535  42.9317439778442 7.76819920047866  42.9317439778442 7.76819920047866  C 42.9317439778442 7.76819920047866  38.9041714895668 7.02490147536926  38.9041714895668 7.02490147536926  C 38.9041714895668 7.02490147536926  29.5551378804141 9.06153724216883  29.5551378804141 9.06153724216883  C 29.5551378804141 9.06153724216883  34.906881501201 13.4406226969557  34.906881501201 13.4406226969557  C 34.906881501201 13.4406226969557  30.986674239884 14.7021051218555  30.986674239884 14.7021051218555  C 30.986674239884 14.7021051218555  24.6865592523993 14.7105999529996  24.6865592523993 14.7105999529996  C 24.6865592523993 14.7105999529996  20.6039276733732 10.7095344841255  20.6039276733732 10.7095344841255  C 20.6039276733732 10.7095344841255  19.1558735866788 12.4169955440908  19.1558735866788 12.4169955440908  C 19.1558735866788 12.4169955440908  20.8792231271175 17.0381836864846  20.8792231271175 17.0381836864846  C 20.8792231271175 17.0381836864846  24.7416183431485 20.6421157993718  24.7416183431485 20.6421157993718  C 24.7416183431485 20.6421157993718  21.8317453970724 23.8584546776179  21.8317453970724 23.8584546776179  C 21.8317453970724 23.8584546776179  28.1318603845568 27.3625725245617  28.1318603845568 27.3625725245617  C 28.1318603845568 27.3625725245617  31.9529612825263 29.5563626675273  31.9529612825263 29.5563626675273  C 31.9529612825263 29.5563626675273  32.068585373099 33.8037782395805  32.068585373099 33.8037782395805  C 32.068585373099 33.8037782395805  28.3300731112531 31.370009116794  28.3300731112531 31.370009116794  C 28.3300731112531 31.370009116794  22.9274213029746 31.8138640440735  22.9274213029746 31.8138640440735  C 22.9274213029746 31.8138640440735  27.2041147054392 35.6344143511354  27.2041147054392 35.6344143511354  C 27.2041147054392 35.6344143511354  22.6796553946047 36.0379188304804  22.6796553946047 36.0379188304804  C 22.6796553946047 36.0379188304804  19.9267008571628 34.5640656269779  19.9267008571628 34.5640656269779  C 19.9267008571628 34.5640656269779  23.2302463020933 42.956958797355  23.2302463020933 42.956958797355  C 23.2302463020933 42.956958797355  21.6252738067647 42.9866907063594  21.6252738067647 42.9866907063594  C 21.6252738067647 42.9866907063594  20.3974560830654 40.3044477726078  20.3974560830654 40.3044477726078  C 20.3974560830654 40.3044477726078  18.8200131331114 40.2513550779573  18.8200131331114 40.2513550779573  C 18.8200131331114 40.2513550779573  18.1042449533766 43.0504019399403  18.1042449533766 43.0504019399403  C 18.1042449533766 43.0504019399403  16.854403593378 42.4154133119184  16.854403593378 42.4154133119184  C 16.854403593378 42.4154133119184  17.135204956197 40.8459932580448  17.135204956197 40.8459932580448  C 17.135204956197 40.8459932580448  15.5907974606921 38.6267186216469  15.5907974606921 38.6267186216469  C 15.5907974606921 38.6267186216469  13.8371654203418 38.6267186216469  13.8371654203418 38.6267186216469  C 13.8371654203418 38.6267186216469  14.16201405576 40.4170042852674  14.16201405576 40.4170042852674  C 14.16201405576 40.4170042852674  13.4737754213995 40.9840342641365  13.4737754213995 40.9840342641365  C 13.4737754213995 40.9840342641365  11.7779554263354 39.837232059682  11.7779554263354 39.837232059682  C 11.7779554263354 39.837232059682  10.723573838495 37.6689264101489  10.723573838495 37.6689264101489  C 10.723573838495 37.6689264101489  12.1523572434273 36.4605366798997  12.1523572434273 36.4605366798997  C 12.1523572434273 36.4605366798997  11.1695524735608 34.88899291824  11.1695524735608 34.88899291824  C 11.1695524735608 34.88899291824  10.0463470222844 34.0777365439778  10.0463470222844 34.0777365439778  C 10.0463470222844 34.0777365439778  8.8818472529465 33.8781080120913  8.8818472529465 33.8781080120913  C 8.8818472529465 33.8781080120913  7.53014657506242 31.8754515698683  7.53014657506242 31.8754515698683  C 7.53014657506242 31.8754515698683  9.13511907039106 30.7732472289205  9.13511907039106 30.7732472289205  C 9.13511907039106 30.7732472289205  10.1179238402576 29.7453726604836  10.1179238402576 29.7453726604836  C 10.1179238402576 29.7453726604836  11.6623313357627 29.9619908546583  11.6623313357627 29.9619908546583  C 11.6623313357627 29.9619908546583  12.3533229246607 29.0912706623874  12.3533229246607 29.0912706623874  C 12.3533229246607 29.0912706623874  13.9775661017513 28.745106293265  13.9775661017513 28.745106293265  C 13.9775661017513 28.745106293265  15.8578340508241 29.7241355826233  15.8578340508241 29.7241355826233  C 15.8578340508241 29.7241355826233  17.3802179100296 30.0830421984617  17.3802179100296 30.0830421984617  C 17.3802179100296 30.0830421984617  18.442858361482 28.7620959555531  18.442858361482 28.7620959555531  C 18.442858361482 28.7620959555531  15.8605870053616 28.5837045015269  15.8605870053616 28.5837045015269  C 15.8605870053616 28.5837045015269  14.3326972370814 28.1717051910377  14.3326972370814 28.1717051910377  C 14.3326972370814 28.1717051910377  10.8915040652792 28.7663433711251  10.8915040652792 28.7663433711251  C 10.8915040652792 28.7663433711251  7.53565248413725 28.8682813448544  7.53565248413725 28.8682813448544  C 7.53565248413725 28.8682813448544  4.52667317471332 25.3832768679846  4.52667317471332 25.3832768679846  C 4.52667317471332 25.3832768679846  4.02838840343634 24.8438550903339  4.02838840343634 24.8438550903339  C 4.02838840343634 24.8438550903339  4.48813181118908 23.4804346917048  4.48813181118908 23.4804346917048  C 4.48813181118908 23.4804346917048  0.570677504409332 19.4846950559871  0.570677504409332 19.4846950559871  C 0.570677504409332 19.4846950559871  0.0476161422952828 17.2972760363797  0.0476161422952828 17.2972760363797  C 0.0476161422952828 17.2972760363797  3.63746885911928 13.5489317940428  3.63746885911928 13.5489317940428  C 3.63746885911928 13.5489317940428  4.09996522140955 11.0217195286711  4.09996522140955 11.0217195286711  C 4.09996522140955 11.0217195286711  6.60790680501896 9.88978327871886  6.60790680501896 9.88978327871886  C 6.60790680501896 9.88978327871886  6.76207225911594 7.83403414184507  6.76207225911594 7.83403414184507  C 6.76207225911594 7.83403414184507  11.8109908807842 7.13958169581439  11.8109908807842 7.13958169581439  C 11.8109908807842 7.13958169581439  14.7538992813095 5.41937838913287  14.7538992813095 5.41937838913287  C 14.7538992813095 5.41937838913287  18.9383901782212 5.57228534972679  18.9383901782212 5.57228534972679  C 18.9383901782212 5.57228534972679  20.207502219982 4.19824641216756  20.207502219982 4.19824641216756  C 20.207502219982 4.19824641216756  21.6775799429759 3.93490664670025  21.6775799429759 3.93490664670025  C 21.6775799429759 3.93490664670025  29.3872076536304 4.16214337980513  29.3872076536304 4.16214337980513  C 29.3872076536304 4.16214337980513  35.5675905901876 1.98746660691393  35.5675905901876 1.98746660691393  C 35.5675905901876 1.98746660691393  41.0074287561727 4.75041043653451  41.0074287561727 4.75041043653451  C 41.0074287561727 4.75041043653451  48.0219569175747 4.00498900363919  48.0219569175747 4.00498900363919  C 48.0219569175747 4.00498900363919  48.1072985082351 0.0570162294157334  48.1072985082351 0.0570162294157334  Z " fill-rule="nonzero" fill="#f2f2f2" stroke="none" transform="matrix(1 0 0 1 1949 1757 )" />
    <path d="M 26.0079774303715 51.317996350942  C 26.0079774303715 51.317996350942  27.4395137898412 46.680896963844  27.4395137898412 46.680896963844  C 27.4395137898412 46.680896963844  31.6597930957398 49.1359031644908  31.6597930957398 49.1359031644908  C 31.6597930957398 49.1359031644908  39.6667398964382 48.7217801462157  39.6667398964382 48.7217801462157  C 39.6667398964382 48.7217801462157  45.409403061542 49.2378411382201  45.409403061542 49.2378411382201  C 45.409403061542 49.2378411382201  45.2249551075336 52.0443044137631  45.2249551075336 52.0443044137631  C 45.2249551075336 52.0443044137631  49.4314696407448 51.1735842214921  49.4314696407448 51.1735842214921  C 49.4314696407448 51.1735842214921  48.4651825981027 53.312157962021  48.4651825981027 53.312157962021  C 48.4651825981027 53.312157962021  35.3487521759121 53.9280332199687  35.3487521759121 53.9280332199687  C 35.3487521759121 53.9280332199687  35.4258349029603 52.7323857364358  35.4258349029603 52.7323857364358  C 35.4258349029603 52.7323857364358  26.0079774303715 51.317996350942  26.0079774303715 51.317996350942  Z " stroke-width="2" stroke="#505050" fill="none" stroke-opacity="0.211764705882353" transform="matrix(1 0 0 1 1949 1757 )" mask="url(#clip658)" />
    <path d="M 48.1072985082351 0.0570162294157334  C 48.1072985082351 0.0570162294157334  51.8568225882309 2.17222918429854  51.8568225882309 2.17222918429854  C 51.8568225882309 2.17222918429854  49.4672580497313 7.10984978681041  49.4672580497313 7.10984978681041  C 49.4672580497313 7.10984978681041  47.6337903277947 7.98906481022535  47.6337903277947 7.98906481022535  C 47.6337903277947 7.98906481022535  42.9317439778442 7.76819920047866  42.9317439778442 7.76819920047866  C 42.9317439778442 7.76819920047866  38.9041714895668 7.02490147536926  38.9041714895668 7.02490147536926  C 38.9041714895668 7.02490147536926  29.5551378804141 9.06153724216883  29.5551378804141 9.06153724216883  C 29.5551378804141 9.06153724216883  34.906881501201 13.4406226969557  34.906881501201 13.4406226969557  C 34.906881501201 13.4406226969557  30.986674239884 14.7021051218555  30.986674239884 14.7021051218555  C 30.986674239884 14.7021051218555  24.6865592523993 14.7105999529996  24.6865592523993 14.7105999529996  C 24.6865592523993 14.7105999529996  20.6039276733732 10.7095344841255  20.6039276733732 10.7095344841255  C 20.6039276733732 10.7095344841255  19.1558735866788 12.4169955440908  19.1558735866788 12.4169955440908  C 19.1558735866788 12.4169955440908  20.8792231271175 17.0381836864846  20.8792231271175 17.0381836864846  C 20.8792231271175 17.0381836864846  24.7416183431485 20.6421157993718  24.7416183431485 20.6421157993718  C 24.7416183431485 20.6421157993718  21.8317453970724 23.8584546776179  21.8317453970724 23.8584546776179  C 21.8317453970724 23.8584546776179  28.1318603845568 27.3625725245617  28.1318603845568 27.3625725245617  C 28.1318603845568 27.3625725245617  31.9529612825263 29.5563626675273  31.9529612825263 29.5563626675273  C 31.9529612825263 29.5563626675273  32.068585373099 33.8037782395805  32.068585373099 33.8037782395805  C 32.068585373099 33.8037782395805  28.3300731112531 31.370009116794  28.3300731112531 31.370009116794  C 28.3300731112531 31.370009116794  22.9274213029746 31.8138640440735  22.9274213029746 31.8138640440735  C 22.9274213029746 31.8138640440735  27.2041147054392 35.6344143511354  27.2041147054392 35.6344143511354  C 27.2041147054392 35.6344143511354  22.6796553946047 36.0379188304804  22.6796553946047 36.0379188304804  C 22.6796553946047 36.0379188304804  19.9267008571628 34.5640656269779  19.9267008571628 34.5640656269779  C 19.9267008571628 34.5640656269779  23.2302463020933 42.956958797355  23.2302463020933 42.956958797355  C 23.2302463020933 42.956958797355  21.6252738067647 42.9866907063594  21.6252738067647 42.9866907063594  C 21.6252738067647 42.9866907063594  20.3974560830654 40.3044477726078  20.3974560830654 40.3044477726078  C 20.3974560830654 40.3044477726078  18.8200131331114 40.2513550779573  18.8200131331114 40.2513550779573  C 18.8200131331114 40.2513550779573  18.1042449533766 43.0504019399403  18.1042449533766 43.0504019399403  C 18.1042449533766 43.0504019399403  16.854403593378 42.4154133119184  16.854403593378 42.4154133119184  C 16.854403593378 42.4154133119184  17.135204956197 40.8459932580448  17.135204956197 40.8459932580448  C 17.135204956197 40.8459932580448  15.5907974606921 38.6267186216469  15.5907974606921 38.6267186216469  C 15.5907974606921 38.6267186216469  13.8371654203418 38.6267186216469  13.8371654203418 38.6267186216469  C 13.8371654203418 38.6267186216469  14.16201405576 40.4170042852674  14.16201405576 40.4170042852674  C 14.16201405576 40.4170042852674  13.4737754213995 40.9840342641365  13.4737754213995 40.9840342641365  C 13.4737754213995 40.9840342641365  11.7779554263354 39.837232059682  11.7779554263354 39.837232059682  C 11.7779554263354 39.837232059682  10.723573838495 37.6689264101489  10.723573838495 37.6689264101489  C 10.723573838495 37.6689264101489  12.1523572434273 36.4605366798997  12.1523572434273 36.4605366798997  C 12.1523572434273 36.4605366798997  11.1695524735608 34.88899291824  11.1695524735608 34.88899291824  C 11.1695524735608 34.88899291824  10.0463470222844 34.0777365439778  10.0463470222844 34.0777365439778  C 10.0463470222844 34.0777365439778  8.8818472529465 33.8781080120913  8.8818472529465 33.8781080120913  C 8.8818472529465 33.8781080120913  7.53014657506242 31.8754515698683  7.53014657506242 31.8754515698683  C 7.53014657506242 31.8754515698683  9.13511907039106 30.7732472289205  9.13511907039106 30.7732472289205  C 9.13511907039106 30.7732472289205  10.1179238402576 29.7453726604836  10.1179238402576 29.7453726604836  C 10.1179238402576 29.7453726604836  11.6623313357627 29.9619908546583  11.6623313357627 29.9619908546583  C 11.6623313357627 29.9619908546583  12.3533229246607 29.0912706623874  12.3533229246607 29.0912706623874  C 12.3533229246607 29.0912706623874  13.9775661017513 28.745106293265  13.9775661017513 28.745106293265  C 13.9775661017513 28.745106293265  15.8578340508241 29.7241355826233  15.8578340508241 29.7241355826233  C 15.8578340508241 29.7241355826233  17.3802179100296 30.0830421984617  17.3802179100296 30.0830421984617  C 17.3802179100296 30.0830421984617  18.442858361482 28.7620959555531  18.442858361482 28.7620959555531  C 18.442858361482 28.7620959555531  15.8605870053616 28.5837045015269  15.8605870053616 28.5837045015269  C 15.8605870053616 28.5837045015269  14.3326972370814 28.1717051910377  14.3326972370814 28.1717051910377  C 14.3326972370814 28.1717051910377  10.8915040652792 28.7663433711251  10.8915040652792 28.7663433711251  C 10.8915040652792 28.7663433711251  7.53565248413725 28.8682813448544  7.53565248413725 28.8682813448544  C 7.53565248413725 28.8682813448544  4.52667317471332 25.3832768679846  4.52667317471332 25.3832768679846  C 4.52667317471332 25.3832768679846  4.02838840343634 24.8438550903339  4.02838840343634 24.8438550903339  C 4.02838840343634 24.8438550903339  4.48813181118908 23.4804346917048  4.48813181118908 23.4804346917048  C 4.48813181118908 23.4804346917048  0.570677504409332 19.4846950559871  0.570677504409332 19.4846950559871  C 0.570677504409332 19.4846950559871  0.0476161422952828 17.2972760363797  0.0476161422952828 17.2972760363797  C 0.0476161422952828 17.2972760363797  3.63746885911928 13.5489317940428  3.63746885911928 13.5489317940428  C 3.63746885911928 13.5489317940428  4.09996522140955 11.0217195286711  4.09996522140955 11.0217195286711  C 4.09996522140955 11.0217195286711  6.60790680501896 9.88978327871886  6.60790680501896 9.88978327871886  C 6.60790680501896 9.88978327871886  6.76207225911594 7.83403414184507  6.76207225911594 7.83403414184507  C 6.76207225911594 7.83403414184507  11.8109908807842 7.13958169581439  11.8109908807842 7.13958169581439  C 11.8109908807842 7.13958169581439  14.7538992813095 5.41937838913287  14.7538992813095 5.41937838913287  C 14.7538992813095 5.41937838913287  18.9383901782212 5.57228534972679  18.9383901782212 5.57228534972679  C 18.9383901782212 5.57228534972679  20.207502219982 4.19824641216756  20.207502219982 4.19824641216756  C 20.207502219982 4.19824641216756  21.6775799429759 3.93490664670025  21.6775799429759 3.93490664670025  C 21.6775799429759 3.93490664670025  29.3872076536304 4.16214337980513  29.3872076536304 4.16214337980513  C 29.3872076536304 4.16214337980513  35.5675905901876 1.98746660691393  35.5675905901876 1.98746660691393  C 35.5675905901876 1.98746660691393  41.0074287561727 4.75041043653451  41.0074287561727 4.75041043653451  C 41.0074287561727 4.75041043653451  48.0219569175747 4.00498900363919  48.0219569175747 4.00498900363919  C 48.0219569175747 4.00498900363919  48.1072985082351 0.0570162294157334  48.1072985082351 0.0570162294157334  Z " stroke-width="2" stroke="#505050" fill="none" stroke-opacity="0.211764705882353" transform="matrix(1 0 0 1 1949 1757 )" mask="url(#clip658)" />
  </g>
</svg>