<?xml version="1.0" encoding="utf-8"?>
<svg version="1.1" xmlns:xlink="http://www.w3.org/1999/xlink" width="35px" height="28px" xmlns="http://www.w3.org/2000/svg">
  <defs>
    <mask fill="white" id="clip659">
      <path d="M 19.8726174614921 26.9675510011569  C 19.8726174614921 26.9675510011569  19.6260660918889 27.8668494833879  19.6260660918889 27.8668494833879  C 19.6260660918889 27.8668494833879  13.492060154552 26.7962560521605  13.492060154552 26.7962560521605  C 13.492060154552 26.7962560521605  8.53552744839005 26.6849143353126  8.53552744839005 26.6849143353126  C 8.53552744839005 26.6849143353126  4.89960322768919 25.4644378237133  4.89960322768919 25.4644378237133  C 4.89960322768919 25.4644378237133  0.626046154566245 22.924990204842  0.626046154566245 22.924990204842  C 0.626046154566245 22.924990204842  0.821586895975703 21.1285344272427  0.821586895975703 21.1285344272427  C 0.821586895975703 21.1285344272427  1.74261212725225 19.6810921082229  1.74261212725225 19.6810921082229  C 1.74261212725225 19.6810921082229  0.614710459412188 18.5248512024975  0.614710459412188 18.5248512024975  C 0.614710459412188 18.5248512024975  4.43767365015661 11.9182358384112  4.43767365015661 11.9182358384112  C 4.43767365015661 11.9182358384112  14.6369653651234 11.898965156649  14.6369653651234 11.898965156649  C 14.6369653651234 11.898965156649  14.8410078778985 9.78347253654379  14.8410078778985 9.78347253654379  C 14.8410078778985 9.78347253654379  13.5544064779 9.40662364875137  13.5544064779 9.40662364875137  C 13.5544064779 9.40662364875137  12.6702222558745 8.05767592540506  12.6702222558745 8.05767592540506  C 12.6702222558745 8.05767592540506  9.73427721094377 6.61879835383535  9.73427721094377 6.61879835383535  C 9.73427721094377 6.61879835383535  6.77566077570492 4.53328234980437  6.77566077570492 4.53328234980437  C 6.77566077570492 4.53328234980437  10.3634082920004 4.51829404176725  10.3634082920004 4.51829404176725  C 10.3634082920004 4.51829404176725  10.3690761395775 0.996041653028897  10.3690761395775 0.996041653028897  C 10.3690761395775 0.996041653028897  19.8471121473951 0.985335718716821  19.8471121473951 0.985335718716821  C 19.8471121473951 0.985335718716821  27.1954765310875 1.05385369831538  27.1954765310875 1.05385369831538  C 27.1954765310875 1.05385369831538  27.1331302077395 6.01070128489841  27.1331302077395 6.01070128489841  C 27.1331302077395 6.01070128489841  26.5125008980487 13.0337941937499  26.5125008980487 13.0337941937499  C 26.5125008980487 13.0337941937499  28.8844951090592 13.0316530068876  28.8844951090592 13.0316530068876  C 28.8844951090592 13.0316530068876  31.4747014517875 15.7091904783696  31.4747014517875 15.7091904783696  C 31.4747014517875 15.7091904783696  32.1605110086151 13.2307833850958  32.1605110086151 13.2307833850958  C 32.1605110086151 13.2307833850958  34.4899963627975 15.5764368928972  34.4899963627975 15.5764368928972  C 34.4899963627975 15.5764368928972  30.8682417610394 17.9381660021847  30.8682417610394 17.9381660021847  C 30.8682417610394 17.9381660021847  27.1019570460655 19.6682449870485  27.1019570460655 19.6682449870485  C 27.1019570460655 19.6682449870485  26.5436740597225 20.8544625088481  26.5436740597225 20.8544625088481  C 26.5436740597225 20.8544625088481  27.1756390645675 22.0663742729977  27.1756390645675 22.0663742729977  C 27.1756390645675 22.0663742729977  25.5234614958469 23.6315818694521  25.5234614958469 23.6315818694521  C 25.5234614958469 23.6315818694521  23.6644074905627 24.0105719441065  23.6644074905627 24.0105719441065  C 23.6644074905627 24.0105719441065  24.0866621350556 24.7364342904787  24.0866621350556 24.7364342904787  C 24.0866621350556 24.7364342904787  22.596018222282 25.4151905258769  22.596018222282 25.4151905258769  C 22.596018222282 25.4151905258769  19.8726174614921 26.9675510011569  19.8726174614921 26.9675510011569  Z " fill-rule="evenodd" />
    </mask>
  </defs>
  <g transform="matrix(1 0 0 1 -1081 -1925 )">
    <path d="M 19.8726174614921 26.9675510011569  C 19.8726174614921 26.9675510011569  19.6260660918889 27.8668494833879  19.6260660918889 27.8668494833879  C 19.6260660918889 27.8668494833879  13.492060154552 26.7962560521605  13.492060154552 26.7962560521605  C 13.492060154552 26.7962560521605  8.53552744839005 26.6849143353126  8.53552744839005 26.6849143353126  C 8.53552744839005 26.6849143353126  4.89960322768919 25.4644378237133  4.89960322768919 25.4644378237133  C 4.89960322768919 25.4644378237133  0.626046154566245 22.924990204842  0.626046154566245 22.924990204842  C 0.626046154566245 22.924990204842  0.821586895975703 21.1285344272427  0.821586895975703 21.1285344272427  C 0.821586895975703 21.1285344272427  1.74261212725225 19.6810921082229  1.74261212725225 19.6810921082229  C 1.74261212725225 19.6810921082229  0.614710459412188 18.5248512024975  0.614710459412188 18.5248512024975  C 0.614710459412188 18.5248512024975  4.43767365015661 11.9182358384112  4.43767365015661 11.9182358384112  C 4.43767365015661 11.9182358384112  14.6369653651234 11.898965156649  14.6369653651234 11.898965156649  C 14.6369653651234 11.898965156649  14.8410078778985 9.78347253654379  14.8410078778985 9.78347253654379  C 14.8410078778985 9.78347253654379  13.5544064779 9.40662364875137  13.5544064779 9.40662364875137  C 13.5544064779 9.40662364875137  12.6702222558745 8.05767592540506  12.6702222558745 8.05767592540506  C 12.6702222558745 8.05767592540506  9.73427721094377 6.61879835383535  9.73427721094377 6.61879835383535  C 9.73427721094377 6.61879835383535  6.77566077570492 4.53328234980437  6.77566077570492 4.53328234980437  C 6.77566077570492 4.53328234980437  10.3634082920004 4.51829404176725  10.3634082920004 4.51829404176725  C 10.3634082920004 4.51829404176725  10.3690761395775 0.996041653028897  10.3690761395775 0.996041653028897  C 10.3690761395775 0.996041653028897  19.8471121473951 0.985335718716821  19.8471121473951 0.985335718716821  C 19.8471121473951 0.985335718716821  27.1954765310875 1.05385369831538  27.1954765310875 1.05385369831538  C 27.1954765310875 1.05385369831538  27.1331302077395 6.01070128489841  27.1331302077395 6.01070128489841  C 27.1331302077395 6.01070128489841  26.5125008980487 13.0337941937499  26.5125008980487 13.0337941937499  C 26.5125008980487 13.0337941937499  28.8844951090592 13.0316530068876  28.8844951090592 13.0316530068876  C 28.8844951090592 13.0316530068876  31.4747014517875 15.7091904783696  31.4747014517875 15.7091904783696  C 31.4747014517875 15.7091904783696  32.1605110086151 13.2307833850958  32.1605110086151 13.2307833850958  C 32.1605110086151 13.2307833850958  34.4899963627975 15.5764368928972  34.4899963627975 15.5764368928972  C 34.4899963627975 15.5764368928972  30.8682417610394 17.9381660021847  30.8682417610394 17.9381660021847  C 30.8682417610394 17.9381660021847  27.1019570460655 19.6682449870485  27.1019570460655 19.6682449870485  C 27.1019570460655 19.6682449870485  26.5436740597225 20.8544625088481  26.5436740597225 20.8544625088481  C 26.5436740597225 20.8544625088481  27.1756390645675 22.0663742729977  27.1756390645675 22.0663742729977  C 27.1756390645675 22.0663742729977  25.5234614958469 23.6315818694521  25.5234614958469 23.6315818694521  C 25.5234614958469 23.6315818694521  23.6644074905627 24.0105719441065  23.6644074905627 24.0105719441065  C 23.6644074905627 24.0105719441065  24.0866621350556 24.7364342904787  24.0866621350556 24.7364342904787  C 24.0866621350556 24.7364342904787  22.596018222282 25.4151905258769  22.596018222282 25.4151905258769  C 22.596018222282 25.4151905258769  19.8726174614921 26.9675510011569  19.8726174614921 26.9675510011569  Z " fill-rule="nonzero" fill="#f2f2f2" stroke="none" transform="matrix(1 0 0 1 1081 1925 )" />
    <path d="M 19.8726174614921 26.9675510011569  C 19.8726174614921 26.9675510011569  19.6260660918889 27.8668494833879  19.6260660918889 27.8668494833879  C 19.6260660918889 27.8668494833879  13.492060154552 26.7962560521605  13.492060154552 26.7962560521605  C 13.492060154552 26.7962560521605  8.53552744839005 26.6849143353126  8.53552744839005 26.6849143353126  C 8.53552744839005 26.6849143353126  4.89960322768919 25.4644378237133  4.89960322768919 25.4644378237133  C 4.89960322768919 25.4644378237133  0.626046154566245 22.924990204842  0.626046154566245 22.924990204842  C 0.626046154566245 22.924990204842  0.821586895975703 21.1285344272427  0.821586895975703 21.1285344272427  C 0.821586895975703 21.1285344272427  1.74261212725225 19.6810921082229  1.74261212725225 19.6810921082229  C 1.74261212725225 19.6810921082229  0.614710459412188 18.5248512024975  0.614710459412188 18.5248512024975  C 0.614710459412188 18.5248512024975  4.43767365015661 11.9182358384112  4.43767365015661 11.9182358384112  C 4.43767365015661 11.9182358384112  14.6369653651234 11.898965156649  14.6369653651234 11.898965156649  C 14.6369653651234 11.898965156649  14.8410078778985 9.78347253654379  14.8410078778985 9.78347253654379  C 14.8410078778985 9.78347253654379  13.5544064779 9.40662364875137  13.5544064779 9.40662364875137  C 13.5544064779 9.40662364875137  12.6702222558745 8.05767592540506  12.6702222558745 8.05767592540506  C 12.6702222558745 8.05767592540506  9.73427721094377 6.61879835383535  9.73427721094377 6.61879835383535  C 9.73427721094377 6.61879835383535  6.77566077570492 4.53328234980437  6.77566077570492 4.53328234980437  C 6.77566077570492 4.53328234980437  10.3634082920004 4.51829404176725  10.3634082920004 4.51829404176725  C 10.3634082920004 4.51829404176725  10.3690761395775 0.996041653028897  10.3690761395775 0.996041653028897  C 10.3690761395775 0.996041653028897  19.8471121473951 0.985335718716821  19.8471121473951 0.985335718716821  C 19.8471121473951 0.985335718716821  27.1954765310875 1.05385369831538  27.1954765310875 1.05385369831538  C 27.1954765310875 1.05385369831538  27.1331302077395 6.01070128489841  27.1331302077395 6.01070128489841  C 27.1331302077395 6.01070128489841  26.5125008980487 13.0337941937499  26.5125008980487 13.0337941937499  C 26.5125008980487 13.0337941937499  28.8844951090592 13.0316530068876  28.8844951090592 13.0316530068876  C 28.8844951090592 13.0316530068876  31.4747014517875 15.7091904783696  31.4747014517875 15.7091904783696  C 31.4747014517875 15.7091904783696  32.1605110086151 13.2307833850958  32.1605110086151 13.2307833850958  C 32.1605110086151 13.2307833850958  34.4899963627975 15.5764368928972  34.4899963627975 15.5764368928972  C 34.4899963627975 15.5764368928972  30.8682417610394 17.9381660021847  30.8682417610394 17.9381660021847  C 30.8682417610394 17.9381660021847  27.1019570460655 19.6682449870485  27.1019570460655 19.6682449870485  C 27.1019570460655 19.6682449870485  26.5436740597225 20.8544625088481  26.5436740597225 20.8544625088481  C 26.5436740597225 20.8544625088481  27.1756390645675 22.0663742729977  27.1756390645675 22.0663742729977  C 27.1756390645675 22.0663742729977  25.5234614958469 23.6315818694521  25.5234614958469 23.6315818694521  C 25.5234614958469 23.6315818694521  23.6644074905627 24.0105719441065  23.6644074905627 24.0105719441065  C 23.6644074905627 24.0105719441065  24.0866621350556 24.7364342904787  24.0866621350556 24.7364342904787  C 24.0866621350556 24.7364342904787  22.596018222282 25.4151905258769  22.596018222282 25.4151905258769  C 22.596018222282 25.4151905258769  19.8726174614921 26.9675510011569  19.8726174614921 26.9675510011569  Z " stroke-width="2" stroke="#505050" fill="none" stroke-opacity="0.211764705882353" transform="matrix(1 0 0 1 1081 1925 )" mask="url(#clip659)" />
  </g>
</svg>