<?xml version="1.0" encoding="utf-8"?>
<svg version="1.1" xmlns:xlink="http://www.w3.org/1999/xlink" width="28px" height="13px" xmlns="http://www.w3.org/2000/svg">
  <defs>
    <mask fill="white" id="clip660">
      <path d="M 19.1472757885829 9.08653840467343  C 19.1472757885829 9.08653840467343  15.7143414803927 12.1822357820269  15.7143414803927 12.1822357820269  C 15.7143414803927 12.1822357820269  9.5931685378423 9.52718319032292  9.5931685378423 9.52718319032292  C 9.5931685378423 9.52718319032292  6.34192922912325 9.10443260916699  6.34192922912325 9.10443260916699  C 6.34192922912325 9.10443260916699  4.5717794615482 7.31277538426809  4.5717794615482 7.31277538426809  C 4.5717794615482 7.31277538426809  4.61582673414728 4.71925156606437  4.61582673414728 4.71925156606437  C 4.61582673414728 4.71925156606437  2.26205060463462 3.36600235125303  2.26205060463462 3.36600235125303  C 2.26205060463462 3.36600235125303  1.77202469696999 2.00156925863354  1.77202469696999 2.00156925863354  C 1.77202469696999 2.00156925863354  5.86016218507098 0.961468622455953  5.86016218507098 0.961468622455953  C 5.86016218507098 0.961468622455953  8.41765695035451 1.16725197412984  8.41765695035451 1.16725197412984  C 8.41765695035451 1.16725197412984  10.4851258079734 0.449247018833347  10.4851258079734 0.449247018833347  C 10.4851258079734 0.449247018833347  26.7509362209973 0.715423310672207  26.7509362209973 0.715423310672207  C 26.7509362209973 0.715423310672207  26.6105355395878 2.88062205437021  26.6105355395878 2.88062205437021  C 26.6105355395878 2.88062205437021  25.7626255420557 3.54718117174832  25.7626255420557 3.54718117174832  C 25.7626255420557 3.54718117174832  26.4205816765043 7.28146052640446  26.4205816765043 7.28146052640446  C 26.4205816765043 7.28146052640446  25.203775770955 8.12472491315475  25.203775770955 8.12472491315475  C 25.203775770955 8.12472491315475  23.5024498668158 8.1359087909629  23.5024498668158 8.1359087909629  C 23.5024498668158 8.1359087909629  21.4872871454083 9.20285073388064  21.4872871454083 9.20285073388064  C 21.4872871454083 9.20285073388064  19.1472757885829 9.08653840467343  19.1472757885829 9.08653840467343  Z " fill-rule="evenodd" />
    </mask>
  </defs>
  <g transform="matrix(1 0 0 1 -1664 -1957 )">
    <path d="M 19.1472757885829 9.08653840467343  C 19.1472757885829 9.08653840467343  15.7143414803927 12.1822357820269  15.7143414803927 12.1822357820269  C 15.7143414803927 12.1822357820269  9.5931685378423 9.52718319032292  9.5931685378423 9.52718319032292  C 9.5931685378423 9.52718319032292  6.34192922912325 9.10443260916699  6.34192922912325 9.10443260916699  C 6.34192922912325 9.10443260916699  4.5717794615482 7.31277538426809  4.5717794615482 7.31277538426809  C 4.5717794615482 7.31277538426809  4.61582673414728 4.71925156606437  4.61582673414728 4.71925156606437  C 4.61582673414728 4.71925156606437  2.26205060463462 3.36600235125303  2.26205060463462 3.36600235125303  C 2.26205060463462 3.36600235125303  1.77202469696999 2.00156925863354  1.77202469696999 2.00156925863354  C 1.77202469696999 2.00156925863354  5.86016218507098 0.961468622455953  5.86016218507098 0.961468622455953  C 5.86016218507098 0.961468622455953  8.41765695035451 1.16725197412984  8.41765695035451 1.16725197412984  C 8.41765695035451 1.16725197412984  10.4851258079734 0.449247018833347  10.4851258079734 0.449247018833347  C 10.4851258079734 0.449247018833347  26.7509362209973 0.715423310672207  26.7509362209973 0.715423310672207  C 26.7509362209973 0.715423310672207  26.6105355395878 2.88062205437021  26.6105355395878 2.88062205437021  C 26.6105355395878 2.88062205437021  25.7626255420557 3.54718117174832  25.7626255420557 3.54718117174832  C 25.7626255420557 3.54718117174832  26.4205816765043 7.28146052640446  26.4205816765043 7.28146052640446  C 26.4205816765043 7.28146052640446  25.203775770955 8.12472491315475  25.203775770955 8.12472491315475  C 25.203775770955 8.12472491315475  23.5024498668158 8.1359087909629  23.5024498668158 8.1359087909629  C 23.5024498668158 8.1359087909629  21.4872871454083 9.20285073388064  21.4872871454083 9.20285073388064  C 21.4872871454083 9.20285073388064  19.1472757885829 9.08653840467343  19.1472757885829 9.08653840467343  Z " fill-rule="nonzero" fill="#f2f2f2" stroke="none" transform="matrix(1 0 0 1 1664 1957 )" />
    <path d="M 19.1472757885829 9.08653840467343  C 19.1472757885829 9.08653840467343  15.7143414803927 12.1822357820269  15.7143414803927 12.1822357820269  C 15.7143414803927 12.1822357820269  9.5931685378423 9.52718319032292  9.5931685378423 9.52718319032292  C 9.5931685378423 9.52718319032292  6.34192922912325 9.10443260916699  6.34192922912325 9.10443260916699  C 6.34192922912325 9.10443260916699  4.5717794615482 7.31277538426809  4.5717794615482 7.31277538426809  C 4.5717794615482 7.31277538426809  4.61582673414728 4.71925156606437  4.61582673414728 4.71925156606437  C 4.61582673414728 4.71925156606437  2.26205060463462 3.36600235125303  2.26205060463462 3.36600235125303  C 2.26205060463462 3.36600235125303  1.77202469696999 2.00156925863354  1.77202469696999 2.00156925863354  C 1.77202469696999 2.00156925863354  5.86016218507098 0.961468622455953  5.86016218507098 0.961468622455953  C 5.86016218507098 0.961468622455953  8.41765695035451 1.16725197412984  8.41765695035451 1.16725197412984  C 8.41765695035451 1.16725197412984  10.4851258079734 0.449247018833347  10.4851258079734 0.449247018833347  C 10.4851258079734 0.449247018833347  26.7509362209973 0.715423310672207  26.7509362209973 0.715423310672207  C 26.7509362209973 0.715423310672207  26.6105355395878 2.88062205437021  26.6105355395878 2.88062205437021  C 26.6105355395878 2.88062205437021  25.7626255420557 3.54718117174832  25.7626255420557 3.54718117174832  C 25.7626255420557 3.54718117174832  26.4205816765043 7.28146052640446  26.4205816765043 7.28146052640446  C 26.4205816765043 7.28146052640446  25.203775770955 8.12472491315475  25.203775770955 8.12472491315475  C 25.203775770955 8.12472491315475  23.5024498668158 8.1359087909629  23.5024498668158 8.1359087909629  C 23.5024498668158 8.1359087909629  21.4872871454083 9.20285073388064  21.4872871454083 9.20285073388064  C 21.4872871454083 9.20285073388064  19.1472757885829 9.08653840467343  19.1472757885829 9.08653840467343  Z " stroke-width="2" stroke="#505050" fill="none" stroke-opacity="0.211764705882353" transform="matrix(1 0 0 1 1664 1957 )" mask="url(#clip660)" />
  </g>
</svg>