<?xml version="1.0" encoding="utf-8"?>
<svg version="1.1" xmlns:xlink="http://www.w3.org/1999/xlink" width="43px" height="48px" xmlns="http://www.w3.org/2000/svg">
  <defs>
    <mask fill="white" id="clip661">
      <path d="M 7.28960082876155 5.07418107460762  C 7.28960082876155 5.07418107460762  13.5523102152954 1.43587635792464  13.5523102152954 1.43587635792464  C 13.5523102152954 1.43587635792464  18.7411706926173 3.71532271492651  18.7411706926173 3.71532271492651  C 18.7411706926173 3.71532271492651  25.6760706026349 7.74785052137122  25.6760706026349 7.74785052137122  C 25.6760706026349 7.74785052137122  25.8987321874846 10.9324683302842  25.8987321874846 10.9324683302842  C 25.8987321874846 10.9324683302842  28.877887822753 11.077824329861  28.877887822753 11.077824329861  C 28.877887822753 11.077824329861  33.1112764359727 14.0906577756374  33.1112764359727 14.0906577756374  C 33.1112764359727 14.0906577756374  36.2313571249434 16.2379623148419  36.2313571249434 16.2379623148419  C 36.2313571249434 16.2379623148419  34.96866864377 21.7813115714351  34.96866864377 21.7813115714351  C 34.96866864377 21.7813115714351  30.171579815741 24.9890370213012  30.171579815741 24.9890370213012  C 30.171579815741 24.9890370213012  30.5971734779221 26.4403946534407  30.5971734779221 26.4403946534407  C 30.5971734779221 26.4403946534407  29.1400084226394 29.6140006442034  29.1400084226394 29.6140006442034  C 29.1400084226394 29.6140006442034  32.6434052576807 34.0781917221193  32.6434052576807 34.0781917221193  C 32.6434052576807 34.0781917221193  35.1744192221753 34.0847988130092  35.1744192221753 34.0847988130092  C 35.1744192221753 34.0847988130092  36.2116276174249 37.5513191665559  36.2116276174249 37.5513191665559  C 36.2116276174249 37.5513191665559  41.0369014561946 42.8898486055634  41.0369014561946 42.8898486055634  C 41.0369014561946 42.8898486055634  39.1118652226199 43.1100849685587  39.1118652226199 43.1100849685587  C 39.1118652226199 43.1100849685587  34.7431885578461 42.5881247882597  34.7431885578461 42.5881247882597  C 34.7431885578461 42.5881247882597  32.1727155783148 44.2200762380551  32.1727155783148 44.2200762380551  C 32.1727155783148 44.2200762380551  28.5988562164222 45.2970320531025  28.5988562164222 45.2970320531025  C 28.5988562164222 45.2970320531025  26.0988457637421 45.563518052327  26.0988457637421 45.563518052327  C 26.0988457637421 45.563518052327  25.2251104307872 46.7638062306516  25.2251104307872 46.7638062306516  C 25.2251104307872 46.7638062306516  19.2992339052786 46.459880049718  19.2992339052786 46.459880049718  C 19.2992339052786 46.459880049718  14.4373195525466 43.5813907853688  14.4373195525466 43.5813907853688  C 14.4373195525466 43.5813907853688  13.8651638345149 40.7403417027286  13.8651638345149 40.7403417027286  C 13.8651638345149 40.7403417027286  11.8414800633487 37.6350089844942  11.8414800633487 37.6350089844942  C 11.8414800633487 37.6350089844942  13.101350043448 32.4065977269845  13.101350043448 32.4065977269845  C 13.101350043448 32.4065977269845  15.291325377983 30.2416742787402  15.291325377983 30.2416742787402  C 15.291325377983 30.2416742787402  13.4790291873702 27.3830062870606  13.4790291873702 27.3830062870606  C 13.4790291873702 27.3830062870606  10.7619941519882 26.4514064715902  10.7619941519882 26.4514064715902  C 10.7619941519882 26.4514064715902  11.7907470440157 22.1469039340074  11.7907470440157 22.1469039340074  C 11.7907470440157 22.1469039340074  9.9530843437366 20.7285817563174  9.9530843437366 20.7285817563174  C 9.9530843437366 20.7285817563174  5.84370977777516 21.0016748464317  5.84370977777516 21.0016748464317  C 5.84370977777516 21.0016748464317  0.494194739232669 16.3238544964104  0.494194739232669 16.3238544964104  C 0.494194739232669 16.3238544964104  2.63625555550902 14.6258321377161  2.63625555550902 14.6258321377161  C 2.63625555550902 14.6258321377161  2.47841949536234 11.7759736005562  2.47841949536234 11.7759736005562  C 2.47841949536234 11.7759736005562  7.34315234916848 10.7849099670773  7.34315234916848 10.7849099670773  C 7.34315234916848 10.7849099670773  9.30482909670577 9.62646669772148  9.30482909670577 9.62646669772148  C 9.30482909670577 9.62646669772148  6.59906806562009 7.33160379531  6.59906806562009 7.33160379531  C 6.59906806562009 7.33160379531  7.28960082876155 5.07418107460762  7.28960082876155 5.07418107460762  Z " fill-rule="evenodd" />
    </mask>
  </defs>
  <g transform="matrix(1 0 0 1 -1319 -1981 )">
    <path d="M 7.28960082876155 5.07418107460762  C 7.28960082876155 5.07418107460762  13.5523102152954 1.43587635792464  13.5523102152954 1.43587635792464  C 13.5523102152954 1.43587635792464  18.7411706926173 3.71532271492651  18.7411706926173 3.71532271492651  C 18.7411706926173 3.71532271492651  25.6760706026349 7.74785052137122  25.6760706026349 7.74785052137122  C 25.6760706026349 7.74785052137122  25.8987321874846 10.9324683302842  25.8987321874846 10.9324683302842  C 25.8987321874846 10.9324683302842  28.877887822753 11.077824329861  28.877887822753 11.077824329861  C 28.877887822753 11.077824329861  33.1112764359727 14.0906577756374  33.1112764359727 14.0906577756374  C 33.1112764359727 14.0906577756374  36.2313571249434 16.2379623148419  36.2313571249434 16.2379623148419  C 36.2313571249434 16.2379623148419  34.96866864377 21.7813115714351  34.96866864377 21.7813115714351  C 34.96866864377 21.7813115714351  30.171579815741 24.9890370213012  30.171579815741 24.9890370213012  C 30.171579815741 24.9890370213012  30.5971734779221 26.4403946534407  30.5971734779221 26.4403946534407  C 30.5971734779221 26.4403946534407  29.1400084226394 29.6140006442034  29.1400084226394 29.6140006442034  C 29.1400084226394 29.6140006442034  32.6434052576807 34.0781917221193  32.6434052576807 34.0781917221193  C 32.6434052576807 34.0781917221193  35.1744192221753 34.0847988130092  35.1744192221753 34.0847988130092  C 35.1744192221753 34.0847988130092  36.2116276174249 37.5513191665559  36.2116276174249 37.5513191665559  C 36.2116276174249 37.5513191665559  41.0369014561946 42.8898486055634  41.0369014561946 42.8898486055634  C 41.0369014561946 42.8898486055634  39.1118652226199 43.1100849685587  39.1118652226199 43.1100849685587  C 39.1118652226199 43.1100849685587  34.7431885578461 42.5881247882597  34.7431885578461 42.5881247882597  C 34.7431885578461 42.5881247882597  32.1727155783148 44.2200762380551  32.1727155783148 44.2200762380551  C 32.1727155783148 44.2200762380551  28.5988562164222 45.2970320531025  28.5988562164222 45.2970320531025  C 28.5988562164222 45.2970320531025  26.0988457637421 45.563518052327  26.0988457637421 45.563518052327  C 26.0988457637421 45.563518052327  25.2251104307872 46.7638062306516  25.2251104307872 46.7638062306516  C 25.2251104307872 46.7638062306516  19.2992339052786 46.459880049718  19.2992339052786 46.459880049718  C 19.2992339052786 46.459880049718  14.4373195525466 43.5813907853688  14.4373195525466 43.5813907853688  C 14.4373195525466 43.5813907853688  13.8651638345149 40.7403417027286  13.8651638345149 40.7403417027286  C 13.8651638345149 40.7403417027286  11.8414800633487 37.6350089844942  11.8414800633487 37.6350089844942  C 11.8414800633487 37.6350089844942  13.101350043448 32.4065977269845  13.101350043448 32.4065977269845  C 13.101350043448 32.4065977269845  15.291325377983 30.2416742787402  15.291325377983 30.2416742787402  C 15.291325377983 30.2416742787402  13.4790291873702 27.3830062870606  13.4790291873702 27.3830062870606  C 13.4790291873702 27.3830062870606  10.7619941519882 26.4514064715902  10.7619941519882 26.4514064715902  C 10.7619941519882 26.4514064715902  11.7907470440157 22.1469039340074  11.7907470440157 22.1469039340074  C 11.7907470440157 22.1469039340074  9.9530843437366 20.7285817563174  9.9530843437366 20.7285817563174  C 9.9530843437366 20.7285817563174  5.84370977777516 21.0016748464317  5.84370977777516 21.0016748464317  C 5.84370977777516 21.0016748464317  0.494194739232669 16.3238544964104  0.494194739232669 16.3238544964104  C 0.494194739232669 16.3238544964104  2.63625555550902 14.6258321377161  2.63625555550902 14.6258321377161  C 2.63625555550902 14.6258321377161  2.47841949536234 11.7759736005562  2.47841949536234 11.7759736005562  C 2.47841949536234 11.7759736005562  7.34315234916848 10.7849099670773  7.34315234916848 10.7849099670773  C 7.34315234916848 10.7849099670773  9.30482909670577 9.62646669772148  9.30482909670577 9.62646669772148  C 9.30482909670577 9.62646669772148  6.59906806562009 7.33160379531  6.59906806562009 7.33160379531  C 6.59906806562009 7.33160379531  7.28960082876155 5.07418107460762  7.28960082876155 5.07418107460762  Z " fill-rule="nonzero" fill="#f2f2f2" stroke="none" transform="matrix(1 0 0 1 1319 1981 )" />
    <path d="M 7.28960082876155 5.07418107460762  C 7.28960082876155 5.07418107460762  13.5523102152954 1.43587635792464  13.5523102152954 1.43587635792464  C 13.5523102152954 1.43587635792464  18.7411706926173 3.71532271492651  18.7411706926173 3.71532271492651  C 18.7411706926173 3.71532271492651  25.6760706026349 7.74785052137122  25.6760706026349 7.74785052137122  C 25.6760706026349 7.74785052137122  25.8987321874846 10.9324683302842  25.8987321874846 10.9324683302842  C 25.8987321874846 10.9324683302842  28.877887822753 11.077824329861  28.877887822753 11.077824329861  C 28.877887822753 11.077824329861  33.1112764359727 14.0906577756374  33.1112764359727 14.0906577756374  C 33.1112764359727 14.0906577756374  36.2313571249434 16.2379623148419  36.2313571249434 16.2379623148419  C 36.2313571249434 16.2379623148419  34.96866864377 21.7813115714351  34.96866864377 21.7813115714351  C 34.96866864377 21.7813115714351  30.171579815741 24.9890370213012  30.171579815741 24.9890370213012  C 30.171579815741 24.9890370213012  30.5971734779221 26.4403946534407  30.5971734779221 26.4403946534407  C 30.5971734779221 26.4403946534407  29.1400084226394 29.6140006442034  29.1400084226394 29.6140006442034  C 29.1400084226394 29.6140006442034  32.6434052576807 34.0781917221193  32.6434052576807 34.0781917221193  C 32.6434052576807 34.0781917221193  35.1744192221753 34.0847988130092  35.1744192221753 34.0847988130092  C 35.1744192221753 34.0847988130092  36.2116276174249 37.5513191665559  36.2116276174249 37.5513191665559  C 36.2116276174249 37.5513191665559  41.0369014561946 42.8898486055634  41.0369014561946 42.8898486055634  C 41.0369014561946 42.8898486055634  39.1118652226199 43.1100849685587  39.1118652226199 43.1100849685587  C 39.1118652226199 43.1100849685587  34.7431885578461 42.5881247882597  34.7431885578461 42.5881247882597  C 34.7431885578461 42.5881247882597  32.1727155783148 44.2200762380551  32.1727155783148 44.2200762380551  C 32.1727155783148 44.2200762380551  28.5988562164222 45.2970320531025  28.5988562164222 45.2970320531025  C 28.5988562164222 45.2970320531025  26.0988457637421 45.563518052327  26.0988457637421 45.563518052327  C 26.0988457637421 45.563518052327  25.2251104307872 46.7638062306516  25.2251104307872 46.7638062306516  C 25.2251104307872 46.7638062306516  19.2992339052786 46.459880049718  19.2992339052786 46.459880049718  C 19.2992339052786 46.459880049718  14.4373195525466 43.5813907853688  14.4373195525466 43.5813907853688  C 14.4373195525466 43.5813907853688  13.8651638345149 40.7403417027286  13.8651638345149 40.7403417027286  C 13.8651638345149 40.7403417027286  11.8414800633487 37.6350089844942  11.8414800633487 37.6350089844942  C 11.8414800633487 37.6350089844942  13.101350043448 32.4065977269845  13.101350043448 32.4065977269845  C 13.101350043448 32.4065977269845  15.291325377983 30.2416742787402  15.291325377983 30.2416742787402  C 15.291325377983 30.2416742787402  13.4790291873702 27.3830062870606  13.4790291873702 27.3830062870606  C 13.4790291873702 27.3830062870606  10.7619941519882 26.4514064715902  10.7619941519882 26.4514064715902  C 10.7619941519882 26.4514064715902  11.7907470440157 22.1469039340074  11.7907470440157 22.1469039340074  C 11.7907470440157 22.1469039340074  9.9530843437366 20.7285817563174  9.9530843437366 20.7285817563174  C 9.9530843437366 20.7285817563174  5.84370977777516 21.0016748464317  5.84370977777516 21.0016748464317  C 5.84370977777516 21.0016748464317  0.494194739232669 16.3238544964104  0.494194739232669 16.3238544964104  C 0.494194739232669 16.3238544964104  2.63625555550902 14.6258321377161  2.63625555550902 14.6258321377161  C 2.63625555550902 14.6258321377161  2.47841949536234 11.7759736005562  2.47841949536234 11.7759736005562  C 2.47841949536234 11.7759736005562  7.34315234916848 10.7849099670773  7.34315234916848 10.7849099670773  C 7.34315234916848 10.7849099670773  9.30482909670577 9.62646669772148  9.30482909670577 9.62646669772148  C 9.30482909670577 9.62646669772148  6.59906806562009 7.33160379531  6.59906806562009 7.33160379531  C 6.59906806562009 7.33160379531  7.28960082876155 5.07418107460762  7.28960082876155 5.07418107460762  Z " stroke-width="2" stroke="#505050" fill="none" stroke-opacity="0.211764705882353" transform="matrix(1 0 0 1 1319 1981 )" mask="url(#clip661)" />
  </g>
</svg>