<?xml version="1.0" encoding="utf-8"?>
<svg version="1.1" xmlns:xlink="http://www.w3.org/1999/xlink" width="52px" height="21px" xmlns="http://www.w3.org/2000/svg">
  <defs>
    <mask fill="white" id="clip662">
      <path d="M 18.9169194588028 20.5691722899455  C 18.9169194588028 20.5691722899455  16.5163431021535 20.8107440506062  16.5163431021535 20.8107440506062  C 16.5163431021535 20.8107440506062  15.1839131060317 18.9628233173481  15.1839131060317 18.9628233173481  C 15.1839131060317 18.9628233173481  12.8383958401312 18.4487090574811  12.8383958401312 18.4487090574811  C 12.8383958401312 18.4487090574811  13.3752219749322 16.0784152007434  13.3752219749322 16.0784152007434  C 13.3752219749322 16.0784152007434  12.326346296167 15.4362885548851  12.326346296167 15.4362885548851  C 12.326346296167 15.4362885548851  10.7378915280628 15.0150865106564  10.7378915280628 15.0150865106564  C 10.7378915280628 15.0150865106564  7.35175744700951 15.7191546336073  7.35175744700951 15.7191546336073  C 7.35175744700951 15.7191546336073  7.06545017511553 14.9221742950181  7.06545017511553 14.9221742950181  C 7.06545017511553 14.9221742950181  4.73369768190219 13.9703402636975  4.73369768190219 13.9703402636975  C 4.73369768190219 13.9703402636975  3.07091314128729 12.7872580512318  3.07091314128729 12.7872580512318  C 3.07091314128729 12.7872580512318  0.794219738822903 12.2875968026859  0.794219738822903 12.2875968026859  C 0.794219738822903 12.2875968026859  2.39919223415154 9.27828947753346  2.39919223415154 9.27828947753346  C 2.39919223415154 9.27828947753346  1.78528337230205 8.10966027638926  1.78528337230205 8.10966027638926  C 1.78528337230205 8.10966027638926  2.32761541617811 6.96580766608247  2.32761541617811 6.96580766608247  C 2.32761541617811 6.96580766608247  5.98629199643824 5.29751721639275  5.98629199643824 5.29751721639275  C 5.98629199643824 5.29751721639275  9.50456789528903 3.02013557529369  9.50456789528903 3.02013557529369  C 9.50456789528903 3.02013557529369  10.3056776656847 3.2534484723418  10.3056776656847 3.2534484723418  C 10.3056776656847 3.2534484723418  11.9987447062113 2.20250807767366  11.9987447062113 2.20250807767366  C 11.9987447062113 2.20250807767366  14.2066142452397 2.11785472564725  14.2066142452397 2.11785472564725  C 14.2066142452397 2.11785472564725  14.9251353795121 2.60512767877424  14.9251353795121 2.60512767877424  C 14.9251353795121 2.60512767877424  16.1226706032994 2.3078085887305  16.1226706032994 2.3078085887305  C 16.1226706032994 2.3078085887305  19.7070174110486 2.84669943943493  19.7070174110486 2.84669943943493  C 19.7070174110486 2.84669943943493  23.2748464915733 2.68978103080065  23.2748464915733 2.68978103080065  C 23.2748464915733 2.68978103080065  27.7580114843458 2.02907194181455  27.7580114843458 2.02907194181455  C 27.7580114843458 2.02907194181455  28.6637335271644 1.35803927331324  28.6637335271644 1.35803927331324  C 28.6637335271644 1.35803927331324  31.1248748836374 1.66774665877551  31.1248748836374 1.66774665877551  C 31.1248748836374 1.66774665877551  32.9721073782609 2.0765604075857  32.9721073782609 2.0765604075857  C 32.9721073782609 2.0765604075857  34.9900230542057 1.9361597261759  34.9900230542057 1.9361597261759  C 34.9900230542057 1.9361597261759  36.5234187315609 1.41585131859961  36.5234187315609 1.41585131859961  C 36.5234187315609 1.41585131859961  40.0499534940241 2.24586711163818  40.0499534940241 2.24586711163818  C 40.0499534940241 2.24586711163818  41.2750182631855 2.3780089294354  41.2750182631855 2.3780089294354  C 41.2750182631855 2.3780089294354  43.6315473472359 3.49502023300249  43.6315473472359 3.49502023300249  C 43.6315473472359 3.49502023300249  45.8614405225637 4.83502085410214  45.8614405225637 4.83502085410214  C 45.8614405225637 4.83502085410214  48.666701196217 5.74762528326414  48.666701196217 5.74762528326414  C 48.666701196217 5.74762528326414  50.7011345993867 7.38700971031085  50.7011345993867 7.38700971031085  C 50.7011345993867 7.38700971031085  48.0527923343675 7.26519147202919  48.0527923343675 7.26519147202919  C 48.0527923343675 7.26519147202919  46.9846459738401 8.0766248219403  46.9846459738401 8.0766248219403  C 46.9846459738401 8.0766248219403  44.3032682543717 8.85295800149879  44.3032682543717 8.85295800149879  C 44.3032682543717 8.85295800149879  42.3541764418628 8.85708743330508  42.3541764418628 8.85708743330508  C 42.3541764418628 8.85708743330508  40.6500975831864 9.61483816973578  40.6500975831864 9.61483816973578  C 40.6500975831864 9.61483816973578  39.102937133144 9.34436038643207  39.102937133144 9.34436038643207  C 39.102937133144 9.34436038643207  37.7870248642466 8.43588538907636  37.7870248642466 8.43588538907636  C 37.7870248642466 8.43588538907636  36.9804091847761 8.60932152493513  36.9804091847761 8.60932152493513  C 36.9804091847761 8.60932152493513  35.9893455512972 10.0298460662552  35.9893455512972 10.0298460662552  C 35.9893455512972 10.0298460662552  35.2488007807253 9.97822816867813  35.2488007807253 9.97822816867813  C 35.2488007807253 9.97822816867813  35.1221648720029 12.7026046992054  35.1221648720029 12.7026046992054  C 35.1221648720029 12.7026046992054  32.4270223798474 14.3357949785428  32.4270223798474 14.3357949785428  C 32.4270223798474 14.3357949785428  31.0064978385274 15.0398631014934  31.0064978385274 15.0398631014934  C 31.0064978385274 15.0398631014934  30.2136469317441 15.7749019629904  30.2136469317441 15.7749019629904  C 30.2136469317441 15.7749019629904  27.9369535292797 14.5773667392032  27.9369535292797 14.5773667392032  C 27.9369535292797 14.5773667392032  24.2714160341275 16.1589391209639  24.2714160341275 16.1589391209639  C 24.2714160341275 16.1589391209639  22.6609376297238 16.117644802902  22.6609376297238 16.117644802902  C 22.6609376297238 16.117644802902  20.849493544087 16.2559807684084  20.849493544087 16.2559807684084  C 20.849493544087 16.2559807684084  21.0146708163336 19.1651654758502  21.0146708163336 19.1651654758502  C 21.0146708163336 19.1651654758502  19.8832065014449 19.2188480893303  19.8832065014449 19.2188480893303  C 19.8832065014449 19.2188480893303  18.9169194588028 20.5691722899455  18.9169194588028 20.5691722899455  Z " fill-rule="evenodd" />
    </mask>
  </defs>
  <g transform="matrix(1 0 0 1 -1104 -1935 )">
    <path d="M 18.9169194588028 20.5691722899455  C 18.9169194588028 20.5691722899455  16.5163431021535 20.8107440506062  16.5163431021535 20.8107440506062  C 16.5163431021535 20.8107440506062  15.1839131060317 18.9628233173481  15.1839131060317 18.9628233173481  C 15.1839131060317 18.9628233173481  12.8383958401312 18.4487090574811  12.8383958401312 18.4487090574811  C 12.8383958401312 18.4487090574811  13.3752219749322 16.0784152007434  13.3752219749322 16.0784152007434  C 13.3752219749322 16.0784152007434  12.326346296167 15.4362885548851  12.326346296167 15.4362885548851  C 12.326346296167 15.4362885548851  10.7378915280628 15.0150865106564  10.7378915280628 15.0150865106564  C 10.7378915280628 15.0150865106564  7.35175744700951 15.7191546336073  7.35175744700951 15.7191546336073  C 7.35175744700951 15.7191546336073  7.06545017511553 14.9221742950181  7.06545017511553 14.9221742950181  C 7.06545017511553 14.9221742950181  4.73369768190219 13.9703402636975  4.73369768190219 13.9703402636975  C 4.73369768190219 13.9703402636975  3.07091314128729 12.7872580512318  3.07091314128729 12.7872580512318  C 3.07091314128729 12.7872580512318  0.794219738822903 12.2875968026859  0.794219738822903 12.2875968026859  C 0.794219738822903 12.2875968026859  2.39919223415154 9.27828947753346  2.39919223415154 9.27828947753346  C 2.39919223415154 9.27828947753346  1.78528337230205 8.10966027638926  1.78528337230205 8.10966027638926  C 1.78528337230205 8.10966027638926  2.32761541617811 6.96580766608247  2.32761541617811 6.96580766608247  C 2.32761541617811 6.96580766608247  5.98629199643824 5.29751721639275  5.98629199643824 5.29751721639275  C 5.98629199643824 5.29751721639275  9.50456789528903 3.02013557529369  9.50456789528903 3.02013557529369  C 9.50456789528903 3.02013557529369  10.3056776656847 3.2534484723418  10.3056776656847 3.2534484723418  C 10.3056776656847 3.2534484723418  11.9987447062113 2.20250807767366  11.9987447062113 2.20250807767366  C 11.9987447062113 2.20250807767366  14.2066142452397 2.11785472564725  14.2066142452397 2.11785472564725  C 14.2066142452397 2.11785472564725  14.9251353795121 2.60512767877424  14.9251353795121 2.60512767877424  C 14.9251353795121 2.60512767877424  16.1226706032994 2.3078085887305  16.1226706032994 2.3078085887305  C 16.1226706032994 2.3078085887305  19.7070174110486 2.84669943943493  19.7070174110486 2.84669943943493  C 19.7070174110486 2.84669943943493  23.2748464915733 2.68978103080065  23.2748464915733 2.68978103080065  C 23.2748464915733 2.68978103080065  27.7580114843458 2.02907194181455  27.7580114843458 2.02907194181455  C 27.7580114843458 2.02907194181455  28.6637335271644 1.35803927331324  28.6637335271644 1.35803927331324  C 28.6637335271644 1.35803927331324  31.1248748836374 1.66774665877551  31.1248748836374 1.66774665877551  C 31.1248748836374 1.66774665877551  32.9721073782609 2.0765604075857  32.9721073782609 2.0765604075857  C 32.9721073782609 2.0765604075857  34.9900230542057 1.9361597261759  34.9900230542057 1.9361597261759  C 34.9900230542057 1.9361597261759  36.5234187315609 1.41585131859961  36.5234187315609 1.41585131859961  C 36.5234187315609 1.41585131859961  40.0499534940241 2.24586711163818  40.0499534940241 2.24586711163818  C 40.0499534940241 2.24586711163818  41.2750182631855 2.3780089294354  41.2750182631855 2.3780089294354  C 41.2750182631855 2.3780089294354  43.6315473472359 3.49502023300249  43.6315473472359 3.49502023300249  C 43.6315473472359 3.49502023300249  45.8614405225637 4.83502085410214  45.8614405225637 4.83502085410214  C 45.8614405225637 4.83502085410214  48.666701196217 5.74762528326414  48.666701196217 5.74762528326414  C 48.666701196217 5.74762528326414  50.7011345993867 7.38700971031085  50.7011345993867 7.38700971031085  C 50.7011345993867 7.38700971031085  48.0527923343675 7.26519147202919  48.0527923343675 7.26519147202919  C 48.0527923343675 7.26519147202919  46.9846459738401 8.0766248219403  46.9846459738401 8.0766248219403  C 46.9846459738401 8.0766248219403  44.3032682543717 8.85295800149879  44.3032682543717 8.85295800149879  C 44.3032682543717 8.85295800149879  42.3541764418628 8.85708743330508  42.3541764418628 8.85708743330508  C 42.3541764418628 8.85708743330508  40.6500975831864 9.61483816973578  40.6500975831864 9.61483816973578  C 40.6500975831864 9.61483816973578  39.102937133144 9.34436038643207  39.102937133144 9.34436038643207  C 39.102937133144 9.34436038643207  37.7870248642466 8.43588538907636  37.7870248642466 8.43588538907636  C 37.7870248642466 8.43588538907636  36.9804091847761 8.60932152493513  36.9804091847761 8.60932152493513  C 36.9804091847761 8.60932152493513  35.9893455512972 10.0298460662552  35.9893455512972 10.0298460662552  C 35.9893455512972 10.0298460662552  35.2488007807253 9.97822816867813  35.2488007807253 9.97822816867813  C 35.2488007807253 9.97822816867813  35.1221648720029 12.7026046992054  35.1221648720029 12.7026046992054  C 35.1221648720029 12.7026046992054  32.4270223798474 14.3357949785428  32.4270223798474 14.3357949785428  C 32.4270223798474 14.3357949785428  31.0064978385274 15.0398631014934  31.0064978385274 15.0398631014934  C 31.0064978385274 15.0398631014934  30.2136469317441 15.7749019629904  30.2136469317441 15.7749019629904  C 30.2136469317441 15.7749019629904  27.9369535292797 14.5773667392032  27.9369535292797 14.5773667392032  C 27.9369535292797 14.5773667392032  24.2714160341275 16.1589391209639  24.2714160341275 16.1589391209639  C 24.2714160341275 16.1589391209639  22.6609376297238 16.117644802902  22.6609376297238 16.117644802902  C 22.6609376297238 16.117644802902  20.849493544087 16.2559807684084  20.849493544087 16.2559807684084  C 20.849493544087 16.2559807684084  21.0146708163336 19.1651654758502  21.0146708163336 19.1651654758502  C 21.0146708163336 19.1651654758502  19.8832065014449 19.2188480893303  19.8832065014449 19.2188480893303  C 19.8832065014449 19.2188480893303  18.9169194588028 20.5691722899455  18.9169194588028 20.5691722899455  Z " fill-rule="nonzero" fill="#f2f2f2" stroke="none" transform="matrix(1 0 0 1 1104 1935 )" />
    <path d="M 18.9169194588028 20.5691722899455  C 18.9169194588028 20.5691722899455  16.5163431021535 20.8107440506062  16.5163431021535 20.8107440506062  C 16.5163431021535 20.8107440506062  15.1839131060317 18.9628233173481  15.1839131060317 18.9628233173481  C 15.1839131060317 18.9628233173481  12.8383958401312 18.4487090574811  12.8383958401312 18.4487090574811  C 12.8383958401312 18.4487090574811  13.3752219749322 16.0784152007434  13.3752219749322 16.0784152007434  C 13.3752219749322 16.0784152007434  12.326346296167 15.4362885548851  12.326346296167 15.4362885548851  C 12.326346296167 15.4362885548851  10.7378915280628 15.0150865106564  10.7378915280628 15.0150865106564  C 10.7378915280628 15.0150865106564  7.35175744700951 15.7191546336073  7.35175744700951 15.7191546336073  C 7.35175744700951 15.7191546336073  7.06545017511553 14.9221742950181  7.06545017511553 14.9221742950181  C 7.06545017511553 14.9221742950181  4.73369768190219 13.9703402636975  4.73369768190219 13.9703402636975  C 4.73369768190219 13.9703402636975  3.07091314128729 12.7872580512318  3.07091314128729 12.7872580512318  C 3.07091314128729 12.7872580512318  0.794219738822903 12.2875968026859  0.794219738822903 12.2875968026859  C 0.794219738822903 12.2875968026859  2.39919223415154 9.27828947753346  2.39919223415154 9.27828947753346  C 2.39919223415154 9.27828947753346  1.78528337230205 8.10966027638926  1.78528337230205 8.10966027638926  C 1.78528337230205 8.10966027638926  2.32761541617811 6.96580766608247  2.32761541617811 6.96580766608247  C 2.32761541617811 6.96580766608247  5.98629199643824 5.29751721639275  5.98629199643824 5.29751721639275  C 5.98629199643824 5.29751721639275  9.50456789528903 3.02013557529369  9.50456789528903 3.02013557529369  C 9.50456789528903 3.02013557529369  10.3056776656847 3.2534484723418  10.3056776656847 3.2534484723418  C 10.3056776656847 3.2534484723418  11.9987447062113 2.20250807767366  11.9987447062113 2.20250807767366  C 11.9987447062113 2.20250807767366  14.2066142452397 2.11785472564725  14.2066142452397 2.11785472564725  C 14.2066142452397 2.11785472564725  14.9251353795121 2.60512767877424  14.9251353795121 2.60512767877424  C 14.9251353795121 2.60512767877424  16.1226706032994 2.3078085887305  16.1226706032994 2.3078085887305  C 16.1226706032994 2.3078085887305  19.7070174110486 2.84669943943493  19.7070174110486 2.84669943943493  C 19.7070174110486 2.84669943943493  23.2748464915733 2.68978103080065  23.2748464915733 2.68978103080065  C 23.2748464915733 2.68978103080065  27.7580114843458 2.02907194181455  27.7580114843458 2.02907194181455  C 27.7580114843458 2.02907194181455  28.6637335271644 1.35803927331324  28.6637335271644 1.35803927331324  C 28.6637335271644 1.35803927331324  31.1248748836374 1.66774665877551  31.1248748836374 1.66774665877551  C 31.1248748836374 1.66774665877551  32.9721073782609 2.0765604075857  32.9721073782609 2.0765604075857  C 32.9721073782609 2.0765604075857  34.9900230542057 1.9361597261759  34.9900230542057 1.9361597261759  C 34.9900230542057 1.9361597261759  36.5234187315609 1.41585131859961  36.5234187315609 1.41585131859961  C 36.5234187315609 1.41585131859961  40.0499534940241 2.24586711163818  40.0499534940241 2.24586711163818  C 40.0499534940241 2.24586711163818  41.2750182631855 2.3780089294354  41.2750182631855 2.3780089294354  C 41.2750182631855 2.3780089294354  43.6315473472359 3.49502023300249  43.6315473472359 3.49502023300249  C 43.6315473472359 3.49502023300249  45.8614405225637 4.83502085410214  45.8614405225637 4.83502085410214  C 45.8614405225637 4.83502085410214  48.666701196217 5.74762528326414  48.666701196217 5.74762528326414  C 48.666701196217 5.74762528326414  50.7011345993867 7.38700971031085  50.7011345993867 7.38700971031085  C 50.7011345993867 7.38700971031085  48.0527923343675 7.26519147202919  48.0527923343675 7.26519147202919  C 48.0527923343675 7.26519147202919  46.9846459738401 8.0766248219403  46.9846459738401 8.0766248219403  C 46.9846459738401 8.0766248219403  44.3032682543717 8.85295800149879  44.3032682543717 8.85295800149879  C 44.3032682543717 8.85295800149879  42.3541764418628 8.85708743330508  42.3541764418628 8.85708743330508  C 42.3541764418628 8.85708743330508  40.6500975831864 9.61483816973578  40.6500975831864 9.61483816973578  C 40.6500975831864 9.61483816973578  39.102937133144 9.34436038643207  39.102937133144 9.34436038643207  C 39.102937133144 9.34436038643207  37.7870248642466 8.43588538907636  37.7870248642466 8.43588538907636  C 37.7870248642466 8.43588538907636  36.9804091847761 8.60932152493513  36.9804091847761 8.60932152493513  C 36.9804091847761 8.60932152493513  35.9893455512972 10.0298460662552  35.9893455512972 10.0298460662552  C 35.9893455512972 10.0298460662552  35.2488007807253 9.97822816867813  35.2488007807253 9.97822816867813  C 35.2488007807253 9.97822816867813  35.1221648720029 12.7026046992054  35.1221648720029 12.7026046992054  C 35.1221648720029 12.7026046992054  32.4270223798474 14.3357949785428  32.4270223798474 14.3357949785428  C 32.4270223798474 14.3357949785428  31.0064978385274 15.0398631014934  31.0064978385274 15.0398631014934  C 31.0064978385274 15.0398631014934  30.2136469317441 15.7749019629904  30.2136469317441 15.7749019629904  C 30.2136469317441 15.7749019629904  27.9369535292797 14.5773667392032  27.9369535292797 14.5773667392032  C 27.9369535292797 14.5773667392032  24.2714160341275 16.1589391209639  24.2714160341275 16.1589391209639  C 24.2714160341275 16.1589391209639  22.6609376297238 16.117644802902  22.6609376297238 16.117644802902  C 22.6609376297238 16.117644802902  20.849493544087 16.2559807684084  20.849493544087 16.2559807684084  C 20.849493544087 16.2559807684084  21.0146708163336 19.1651654758502  21.0146708163336 19.1651654758502  C 21.0146708163336 19.1651654758502  19.8832065014449 19.2188480893303  19.8832065014449 19.2188480893303  C 19.8832065014449 19.2188480893303  18.9169194588028 20.5691722899455  18.9169194588028 20.5691722899455  Z " stroke-width="2" stroke="#505050" fill="none" stroke-opacity="0.211764705882353" transform="matrix(1 0 0 1 1104 1935 )" mask="url(#clip662)" />
  </g>
</svg>