<?xml version="1.0" encoding="utf-8"?>
<svg version="1.1" xmlns:xlink="http://www.w3.org/1999/xlink" width="49px" height="38px" xmlns="http://www.w3.org/2000/svg">
  <defs>
    <mask fill="white" id="clip663">
      <path d="M 40.1435667613168 8.04347353312045  C 40.1435667613168 8.04347353312045  42.9709611894511 6.73799955017777  42.9709611894511 6.73799955017777  C 42.9709611894511 6.73799955017777  44.8082279886491 10.116104180497  44.8082279886491 10.116104180497  C 44.8082279886491 10.116104180497  47.2120528316525 12.5875691164855  47.2120528316525 12.5875691164855  C 47.2120528316525 12.5875691164855  44.3010236446709 15.830549561592  44.3010236446709 15.830549561592  C 44.3010236446709 15.830549561592  40.8773943228174 13.9257344345604  40.8773943228174 13.9257344345604  C 40.8773943228174 13.9257344345604  35.6488729471262 14.0456026633781  35.6488729471262 14.0456026633781  C 35.6488729471262 14.0456026633781  29.1442470251493 12.611542762249  29.1442470251493 12.611542762249  C 29.1442470251493 12.611542762249  25.6100039899815 12.8033319283574  25.6100039899815 12.8033319283574  C 25.6100039899815 12.8033319283574  22.0123814538382 14.5948170935978  22.0123814538382 14.5948170935978  C 22.0123814538382 14.5948170935978  19.2956007390184 12.611542762249  19.2956007390184 12.611542762249  C 19.2956007390184 12.611542762249  17.7146340072562 16.1879748257032  17.7146340072562 16.1879748257032  C 17.7146340072562 16.1879748257032  21.418844455566 21.768368734524  21.418844455566 21.768368734524  C 21.418844455566 21.768368734524  23.0591648871552 24.4032903461731  23.0591648871552 24.4032903461731  C 23.0591648871552 24.4032903461731  28.4967521179429 27.5569144752519  28.4967521179429 27.5569144752519  C 28.4967521179429 27.5569144752519  31.3781044550109 29.4159617330986  31.3781044550109 29.4159617330986  C 31.3781044550109 29.4159617330986  34.2351757330591 32.9073963252091  34.2351757330591 32.9073963252091  C 34.2351757330591 32.9073963252091  40.9286543363046 36.0523027649195  40.9286543363046 36.0523027649195  C 40.9286543363046 36.0523027649195  40.0977025387232 37.4580301756007  40.0977025387232 37.4580301756007  C 40.0977025387232 37.4580301756007  32.98605014124 34.3915829402077  32.98605014124 34.3915829402077  C 32.98605014124 34.3915829402077  28.5992721449173 31.3948772197631  28.5992721449173 31.3948772197631  C 28.5992721449173 31.3948772197631  19.721868219596 28.9059769050375  19.721868219596 28.9059769050375  C 19.721868219596 28.9059769050375  13.3602307562935 22.6880849629078  13.3602307562935 22.6880849629078  C 13.3602307562935 22.6880849629078  14.8872395791219 22.0516936390024  14.8872395791219 22.0516936390024  C 14.8872395791219 22.0516936390024  11.4366313028016 16.8766722858199  11.4366313028016 16.8766722858199  C 11.4366313028016 16.8766722858199  11.2963407395735 13.9736817260875  11.2963407395735 13.9736817260875  C 11.2963407395735 13.9736817260875  6.432035249186 12.611542762249  6.432035249186 12.611542762249  C 6.432035249186 12.611542762249  4.11454306047671 16.3296372779424  4.11454306047671 16.3296372779424  C 4.11454306047671 16.3296372779424  1.88068563061461 13.4484409416313  1.88068563061461 13.4484409416313  C 1.88068563061461 13.4484409416313  2.05065304375642 10.4408381094761  2.05065304375642 10.4408381094761  C 2.05065304375642 10.4408381094761  2.32044258842564 10.3013550795791  2.32044258842564 10.3013550795791  C 2.32044258842564 10.3013550795791  7.59213029126414 10.5977565181103  7.59213029126414 10.5977565181103  C 7.59213029126414 10.5977565181103  8.9761506554174 9.12882585950694  8.9761506554174 9.12882585950694  C 8.9761506554174 9.12882585950694  11.5499429115627 10.5498092265831  11.5499429115627 10.5498092265831  C 11.5499429115627 10.5498092265831  14.5176279029251 10.7176247469281  14.5176279029251 10.7176247469281  C 14.5176279029251 10.7176247469281  14.4906489484582 8.2853894130982  14.4906489484582 8.2853894130982  C 14.4906489484582 8.2853894130982  17.118399113537 7.39182625282008  17.118399113537 7.39182625282008  C 17.118399113537 7.39182625282008  17.8549245704844 3.84590610215598  17.8549245704844 3.84590610215598  C 17.8549245704844 3.84590610215598  25.8366272075034 1.50084766201167  25.8366272075034 1.50084766201167  C 25.8366272075034 1.50084766201167  28.2404520505071 2.5905588330824  28.2404520505071 2.5905588330824  C 28.2404520505071 2.5905588330824  33.8952409067757 6.36313890732932  33.8952409067757 6.36313890732932  C 33.8952409067757 6.36313890732932  40.1435667613168 8.04347353312045  40.1435667613168 8.04347353312045  Z " fill-rule="evenodd" />
    </mask>
  </defs>
  <g transform="matrix(1 0 0 1 -1897 -1716 )">
    <path d="M 40.1435667613168 8.04347353312045  C 40.1435667613168 8.04347353312045  42.9709611894511 6.73799955017777  42.9709611894511 6.73799955017777  C 42.9709611894511 6.73799955017777  44.8082279886491 10.116104180497  44.8082279886491 10.116104180497  C 44.8082279886491 10.116104180497  47.2120528316525 12.5875691164855  47.2120528316525 12.5875691164855  C 47.2120528316525 12.5875691164855  44.3010236446709 15.830549561592  44.3010236446709 15.830549561592  C 44.3010236446709 15.830549561592  40.8773943228174 13.9257344345604  40.8773943228174 13.9257344345604  C 40.8773943228174 13.9257344345604  35.6488729471262 14.0456026633781  35.6488729471262 14.0456026633781  C 35.6488729471262 14.0456026633781  29.1442470251493 12.611542762249  29.1442470251493 12.611542762249  C 29.1442470251493 12.611542762249  25.6100039899815 12.8033319283574  25.6100039899815 12.8033319283574  C 25.6100039899815 12.8033319283574  22.0123814538382 14.5948170935978  22.0123814538382 14.5948170935978  C 22.0123814538382 14.5948170935978  19.2956007390184 12.611542762249  19.2956007390184 12.611542762249  C 19.2956007390184 12.611542762249  17.7146340072562 16.1879748257032  17.7146340072562 16.1879748257032  C 17.7146340072562 16.1879748257032  21.418844455566 21.768368734524  21.418844455566 21.768368734524  C 21.418844455566 21.768368734524  23.0591648871552 24.4032903461731  23.0591648871552 24.4032903461731  C 23.0591648871552 24.4032903461731  28.4967521179429 27.5569144752519  28.4967521179429 27.5569144752519  C 28.4967521179429 27.5569144752519  31.3781044550109 29.4159617330986  31.3781044550109 29.4159617330986  C 31.3781044550109 29.4159617330986  34.2351757330591 32.9073963252091  34.2351757330591 32.9073963252091  C 34.2351757330591 32.9073963252091  40.9286543363046 36.0523027649195  40.9286543363046 36.0523027649195  C 40.9286543363046 36.0523027649195  40.0977025387232 37.4580301756007  40.0977025387232 37.4580301756007  C 40.0977025387232 37.4580301756007  32.98605014124 34.3915829402077  32.98605014124 34.3915829402077  C 32.98605014124 34.3915829402077  28.5992721449173 31.3948772197631  28.5992721449173 31.3948772197631  C 28.5992721449173 31.3948772197631  19.721868219596 28.9059769050375  19.721868219596 28.9059769050375  C 19.721868219596 28.9059769050375  13.3602307562935 22.6880849629078  13.3602307562935 22.6880849629078  C 13.3602307562935 22.6880849629078  14.8872395791219 22.0516936390024  14.8872395791219 22.0516936390024  C 14.8872395791219 22.0516936390024  11.4366313028016 16.8766722858199  11.4366313028016 16.8766722858199  C 11.4366313028016 16.8766722858199  11.2963407395735 13.9736817260875  11.2963407395735 13.9736817260875  C 11.2963407395735 13.9736817260875  6.432035249186 12.611542762249  6.432035249186 12.611542762249  C 6.432035249186 12.611542762249  4.11454306047671 16.3296372779424  4.11454306047671 16.3296372779424  C 4.11454306047671 16.3296372779424  1.88068563061461 13.4484409416313  1.88068563061461 13.4484409416313  C 1.88068563061461 13.4484409416313  2.05065304375642 10.4408381094761  2.05065304375642 10.4408381094761  C 2.05065304375642 10.4408381094761  2.32044258842564 10.3013550795791  2.32044258842564 10.3013550795791  C 2.32044258842564 10.3013550795791  7.59213029126414 10.5977565181103  7.59213029126414 10.5977565181103  C 7.59213029126414 10.5977565181103  8.9761506554174 9.12882585950694  8.9761506554174 9.12882585950694  C 8.9761506554174 9.12882585950694  11.5499429115627 10.5498092265831  11.5499429115627 10.5498092265831  C 11.5499429115627 10.5498092265831  14.5176279029251 10.7176247469281  14.5176279029251 10.7176247469281  C 14.5176279029251 10.7176247469281  14.4906489484582 8.2853894130982  14.4906489484582 8.2853894130982  C 14.4906489484582 8.2853894130982  17.118399113537 7.39182625282008  17.118399113537 7.39182625282008  C 17.118399113537 7.39182625282008  17.8549245704844 3.84590610215598  17.8549245704844 3.84590610215598  C 17.8549245704844 3.84590610215598  25.8366272075034 1.50084766201167  25.8366272075034 1.50084766201167  C 25.8366272075034 1.50084766201167  28.2404520505071 2.5905588330824  28.2404520505071 2.5905588330824  C 28.2404520505071 2.5905588330824  33.8952409067757 6.36313890732932  33.8952409067757 6.36313890732932  C 33.8952409067757 6.36313890732932  40.1435667613168 8.04347353312045  40.1435667613168 8.04347353312045  Z " fill-rule="nonzero" fill="#f2f2f2" stroke="none" transform="matrix(1 0 0 1 1897 1716 )" />
    <path d="M 40.1435667613168 8.04347353312045  C 40.1435667613168 8.04347353312045  42.9709611894511 6.73799955017777  42.9709611894511 6.73799955017777  C 42.9709611894511 6.73799955017777  44.8082279886491 10.116104180497  44.8082279886491 10.116104180497  C 44.8082279886491 10.116104180497  47.2120528316525 12.5875691164855  47.2120528316525 12.5875691164855  C 47.2120528316525 12.5875691164855  44.3010236446709 15.830549561592  44.3010236446709 15.830549561592  C 44.3010236446709 15.830549561592  40.8773943228174 13.9257344345604  40.8773943228174 13.9257344345604  C 40.8773943228174 13.9257344345604  35.6488729471262 14.0456026633781  35.6488729471262 14.0456026633781  C 35.6488729471262 14.0456026633781  29.1442470251493 12.611542762249  29.1442470251493 12.611542762249  C 29.1442470251493 12.611542762249  25.6100039899815 12.8033319283574  25.6100039899815 12.8033319283574  C 25.6100039899815 12.8033319283574  22.0123814538382 14.5948170935978  22.0123814538382 14.5948170935978  C 22.0123814538382 14.5948170935978  19.2956007390184 12.611542762249  19.2956007390184 12.611542762249  C 19.2956007390184 12.611542762249  17.7146340072562 16.1879748257032  17.7146340072562 16.1879748257032  C 17.7146340072562 16.1879748257032  21.418844455566 21.768368734524  21.418844455566 21.768368734524  C 21.418844455566 21.768368734524  23.0591648871552 24.4032903461731  23.0591648871552 24.4032903461731  C 23.0591648871552 24.4032903461731  28.4967521179429 27.5569144752519  28.4967521179429 27.5569144752519  C 28.4967521179429 27.5569144752519  31.3781044550109 29.4159617330986  31.3781044550109 29.4159617330986  C 31.3781044550109 29.4159617330986  34.2351757330591 32.9073963252091  34.2351757330591 32.9073963252091  C 34.2351757330591 32.9073963252091  40.9286543363046 36.0523027649195  40.9286543363046 36.0523027649195  C 40.9286543363046 36.0523027649195  40.0977025387232 37.4580301756007  40.0977025387232 37.4580301756007  C 40.0977025387232 37.4580301756007  32.98605014124 34.3915829402077  32.98605014124 34.3915829402077  C 32.98605014124 34.3915829402077  28.5992721449173 31.3948772197631  28.5992721449173 31.3948772197631  C 28.5992721449173 31.3948772197631  19.721868219596 28.9059769050375  19.721868219596 28.9059769050375  C 19.721868219596 28.9059769050375  13.3602307562935 22.6880849629078  13.3602307562935 22.6880849629078  C 13.3602307562935 22.6880849629078  14.8872395791219 22.0516936390024  14.8872395791219 22.0516936390024  C 14.8872395791219 22.0516936390024  11.4366313028016 16.8766722858199  11.4366313028016 16.8766722858199  C 11.4366313028016 16.8766722858199  11.2963407395735 13.9736817260875  11.2963407395735 13.9736817260875  C 11.2963407395735 13.9736817260875  6.432035249186 12.611542762249  6.432035249186 12.611542762249  C 6.432035249186 12.611542762249  4.11454306047671 16.3296372779424  4.11454306047671 16.3296372779424  C 4.11454306047671 16.3296372779424  1.88068563061461 13.4484409416313  1.88068563061461 13.4484409416313  C 1.88068563061461 13.4484409416313  2.05065304375642 10.4408381094761  2.05065304375642 10.4408381094761  C 2.05065304375642 10.4408381094761  2.32044258842564 10.3013550795791  2.32044258842564 10.3013550795791  C 2.32044258842564 10.3013550795791  7.59213029126414 10.5977565181103  7.59213029126414 10.5977565181103  C 7.59213029126414 10.5977565181103  8.9761506554174 9.12882585950694  8.9761506554174 9.12882585950694  C 8.9761506554174 9.12882585950694  11.5499429115627 10.5498092265831  11.5499429115627 10.5498092265831  C 11.5499429115627 10.5498092265831  14.5176279029251 10.7176247469281  14.5176279029251 10.7176247469281  C 14.5176279029251 10.7176247469281  14.4906489484582 8.2853894130982  14.4906489484582 8.2853894130982  C 14.4906489484582 8.2853894130982  17.118399113537 7.39182625282008  17.118399113537 7.39182625282008  C 17.118399113537 7.39182625282008  17.8549245704844 3.84590610215598  17.8549245704844 3.84590610215598  C 17.8549245704844 3.84590610215598  25.8366272075034 1.50084766201167  25.8366272075034 1.50084766201167  C 25.8366272075034 1.50084766201167  28.2404520505071 2.5905588330824  28.2404520505071 2.5905588330824  C 28.2404520505071 2.5905588330824  33.8952409067757 6.36313890732932  33.8952409067757 6.36313890732932  C 33.8952409067757 6.36313890732932  40.1435667613168 8.04347353312045  40.1435667613168 8.04347353312045  Z " stroke-width="2" stroke="#505050" fill="none" stroke-opacity="0.211764705882353" transform="matrix(1 0 0 1 1897 1716 )" mask="url(#clip663)" />
  </g>
</svg>