<?xml version="1.0" encoding="utf-8"?>
<svg version="1.1" xmlns:xlink="http://www.w3.org/1999/xlink" width="26px" height="15px" xmlns="http://www.w3.org/2000/svg">
  <defs>
    <mask fill="white" id="clip664">
      <path d="M 9.8210050625637 2.0994022939188  C 9.8210050625637 2.0994022939188  11.5608723302271 0.222804950895655  11.5608723302271 0.222804950895655  C 11.5608723302271 0.222804950895655  18.2684245892526 0.523335821233104  18.2684245892526 0.523335821233104  C 18.2684245892526 0.523335821233104  24.9636100243113 1.59239983327325  24.9636100243113 1.59239983327325  C 24.9636100243113 1.59239983327325  25.6380838859845 5.28365304222651  25.6380838859845 5.28365304222651  C 25.6380838859845 5.28365304222651  25.0489516149719 9.54956761799432  25.0489516149719 9.54956761799432  C 25.0489516149719 9.54956761799432  23.1659307113616 10.6874554934708  23.1659307113616 10.6874554934708  C 23.1659307113616 10.6874554934708  25.1535638873947 12.7108770784904  25.1535638873947 12.7108770784904  C 25.1535638873947 12.7108770784904  24.9938925242229 14.5392977171078  24.9938925242229 14.5392977171078  C 24.9938925242229 14.5392977171078  19.8678911755062 13.3968215840696  19.8678911755062 13.3968215840696  C 19.8678911755062 13.3968215840696  16.2257323224705 13.8625297266537  16.2257323224705 13.8625297266537  C 16.2257323224705 13.8625297266537  9.51542710890772 13.3761744250387  9.51542710890772 13.3761744250387  C 9.51542710890772 13.3761744250387  5.90355075578395 14.6333569971371  5.90355075578395 14.6333569971371  C 5.90355075578395 14.6333569971371  1.76861304054614 12.536523291119  1.76861304054614 12.536523291119  C 1.76861304054614 12.536523291119  2.44859281129425 10.363983335321  2.44859281129425 10.363983335321  C 2.44859281129425 10.363983335321  9.55672142696926 11.2999878780515  9.55672142696926 11.2999878780515  C 9.55672142696926 11.2999878780515  17.3792202736588 11.8414022704148  17.3792202736588 11.8414022704148  C 17.3792202736588 11.8414022704148  20.1597043564752 10.341042047509  20.1597043564752 10.341042047509  C 20.1597043564752 10.341042047509  16.6331695940121 5.74477292724813  16.6331695940121 5.74477292724813  C 16.6331695940121 5.74477292724813  16.6909816392983 3.15699566205277  16.6909816392983 3.15699566205277  C 16.6909816392983 3.15699566205277  9.8210050625637 2.0994022939188  9.8210050625637 2.0994022939188  Z " fill-rule="evenodd" />
    </mask>
  </defs>
  <g transform="matrix(1 0 0 1 -1218 -1911 )">
    <path d="M 9.8210050625637 2.0994022939188  C 9.8210050625637 2.0994022939188  11.5608723302271 0.222804950895655  11.5608723302271 0.222804950895655  C 11.5608723302271 0.222804950895655  18.2684245892526 0.523335821233104  18.2684245892526 0.523335821233104  C 18.2684245892526 0.523335821233104  24.9636100243113 1.59239983327325  24.9636100243113 1.59239983327325  C 24.9636100243113 1.59239983327325  25.6380838859845 5.28365304222651  25.6380838859845 5.28365304222651  C 25.6380838859845 5.28365304222651  25.0489516149719 9.54956761799432  25.0489516149719 9.54956761799432  C 25.0489516149719 9.54956761799432  23.1659307113616 10.6874554934708  23.1659307113616 10.6874554934708  C 23.1659307113616 10.6874554934708  25.1535638873947 12.7108770784904  25.1535638873947 12.7108770784904  C 25.1535638873947 12.7108770784904  24.9938925242229 14.5392977171078  24.9938925242229 14.5392977171078  C 24.9938925242229 14.5392977171078  19.8678911755062 13.3968215840696  19.8678911755062 13.3968215840696  C 19.8678911755062 13.3968215840696  16.2257323224705 13.8625297266537  16.2257323224705 13.8625297266537  C 16.2257323224705 13.8625297266537  9.51542710890772 13.3761744250387  9.51542710890772 13.3761744250387  C 9.51542710890772 13.3761744250387  5.90355075578395 14.6333569971371  5.90355075578395 14.6333569971371  C 5.90355075578395 14.6333569971371  1.76861304054614 12.536523291119  1.76861304054614 12.536523291119  C 1.76861304054614 12.536523291119  2.44859281129425 10.363983335321  2.44859281129425 10.363983335321  C 2.44859281129425 10.363983335321  9.55672142696926 11.2999878780515  9.55672142696926 11.2999878780515  C 9.55672142696926 11.2999878780515  17.3792202736588 11.8414022704148  17.3792202736588 11.8414022704148  C 17.3792202736588 11.8414022704148  20.1597043564752 10.341042047509  20.1597043564752 10.341042047509  C 20.1597043564752 10.341042047509  16.6331695940121 5.74477292724813  16.6331695940121 5.74477292724813  C 16.6331695940121 5.74477292724813  16.6909816392983 3.15699566205277  16.6909816392983 3.15699566205277  C 16.6909816392983 3.15699566205277  9.8210050625637 2.0994022939188  9.8210050625637 2.0994022939188  Z " fill-rule="nonzero" fill="#f2f2f2" stroke="none" transform="matrix(1 0 0 1 1218 1911 )" />
    <path d="M 9.8210050625637 2.0994022939188  C 9.8210050625637 2.0994022939188  11.5608723302271 0.222804950895655  11.5608723302271 0.222804950895655  C 11.5608723302271 0.222804950895655  18.2684245892526 0.523335821233104  18.2684245892526 0.523335821233104  C 18.2684245892526 0.523335821233104  24.9636100243113 1.59239983327325  24.9636100243113 1.59239983327325  C 24.9636100243113 1.59239983327325  25.6380838859845 5.28365304222651  25.6380838859845 5.28365304222651  C 25.6380838859845 5.28365304222651  25.0489516149719 9.54956761799432  25.0489516149719 9.54956761799432  C 25.0489516149719 9.54956761799432  23.1659307113616 10.6874554934708  23.1659307113616 10.6874554934708  C 23.1659307113616 10.6874554934708  25.1535638873947 12.7108770784904  25.1535638873947 12.7108770784904  C 25.1535638873947 12.7108770784904  24.9938925242229 14.5392977171078  24.9938925242229 14.5392977171078  C 24.9938925242229 14.5392977171078  19.8678911755062 13.3968215840696  19.8678911755062 13.3968215840696  C 19.8678911755062 13.3968215840696  16.2257323224705 13.8625297266537  16.2257323224705 13.8625297266537  C 16.2257323224705 13.8625297266537  9.51542710890772 13.3761744250387  9.51542710890772 13.3761744250387  C 9.51542710890772 13.3761744250387  5.90355075578395 14.6333569971371  5.90355075578395 14.6333569971371  C 5.90355075578395 14.6333569971371  1.76861304054614 12.536523291119  1.76861304054614 12.536523291119  C 1.76861304054614 12.536523291119  2.44859281129425 10.363983335321  2.44859281129425 10.363983335321  C 2.44859281129425 10.363983335321  9.55672142696926 11.2999878780515  9.55672142696926 11.2999878780515  C 9.55672142696926 11.2999878780515  17.3792202736588 11.8414022704148  17.3792202736588 11.8414022704148  C 17.3792202736588 11.8414022704148  20.1597043564752 10.341042047509  20.1597043564752 10.341042047509  C 20.1597043564752 10.341042047509  16.6331695940121 5.74477292724813  16.6331695940121 5.74477292724813  C 16.6331695940121 5.74477292724813  16.6909816392983 3.15699566205277  16.6909816392983 3.15699566205277  C 16.6909816392983 3.15699566205277  9.8210050625637 2.0994022939188  9.8210050625637 2.0994022939188  Z " stroke-width="2" stroke="#505050" fill="none" stroke-opacity="0.211764705882353" transform="matrix(1 0 0 1 1218 1911 )" mask="url(#clip664)" />
  </g>
</svg>