<?xml version="1.0" encoding="utf-8"?>
<svg version="1.1" xmlns:xlink="http://www.w3.org/1999/xlink" width="55px" height="29px" xmlns="http://www.w3.org/2000/svg">
  <defs>
    <mask fill="white" id="clip665">
      <path d="M 2.91657370366695 18.4001146694331  C 2.91657370366695 18.4001146694331  1.59592023528858 18.3055724149235  1.59592023528858 18.3055724149235  C 1.59592023528858 18.3055724149235  4.20638388509825 11.2180711213011  4.20638388509825 11.2180711213011  C 4.20638388509825 11.2180711213011  2.68104314879679 9.32932697009992  2.68104314879679 9.32932697009992  C 2.68104314879679 9.32932697009992  7.10845679331823 9.31251945818712  7.10845679331823 9.31251945818712  C 7.10845679331823 9.31251945818712  7.70569498602415 5.73251942076009  7.70569498602415 5.73251942076009  C 7.70569498602415 5.73251942076009  11.7069104836377 7.97842320010844  11.7069104836377 7.97842320010844  C 11.7069104836377 7.97842320010844  14.6061794566808 8.93224950115986  14.6061794566808 8.93224950115986  C 14.6061794566808 8.93224950115986  21.2038389282184 7.86077061671872  21.2038389282184 7.86077061671872  C 21.2038389282184 7.86077061671872  21.8375282782258 6.09808280486345  21.8375282782258 6.09808280486345  C 21.8375282782258 6.09808280486345  24.9611120654309 5.83756637021507  24.9611120654309 5.83756637021507  C 24.9611120654309 5.83756637021507  30.8255206191061 4.46985508831069  30.8255206191061 4.46985508831069  C 30.8255206191061 4.46985508831069  31.6779169129215 5.03500767637871  31.6779169129215 5.03500767637871  C 31.6779169129215 5.03500767637871  35.3678956058854 3.93411564609012  35.3678956058854 3.93411564609012  C 35.3678956058854 3.93411564609012  37.2128849523671 1.84998416890249  37.2128849523671 1.84998416890249  C 37.2128849523671 1.84998416890249  39.7897013800524 1.3079419097146  39.7897013800524 1.3079419097146  C 39.7897013800524 1.3079419097146  48.209918716656 3.99924475475226  48.209918716656 3.99924475475226  C 48.209918716656 3.99924475475226  49.8866719525163 3.09584098943908  49.8866719525163 3.09584098943908  C 49.8866719525163 3.09584098943908  54.2495950879661 5.49721425398074  54.2495950879661 5.49721425398074  C 54.2495950879661 5.49721425398074  54.7991663826625 7.85026592177324  54.7991663826625 7.85026592177324  C 54.7991663826625 7.85026592177324  49.9960254244202 9.68228472026881  49.9960254244202 9.68228472026881  C 49.9960254244202 9.68228472026881  46.2780073796861 17.0870278012454  46.2780073796861 17.0870278012454  C 46.2780073796861 17.0870278012454  41.5225333194533 22.8877203501515  41.5225333194533 22.8877203501515  C 41.5225333194533 22.8877203501515  35.2192870415029 24.4886358598459  35.2192870415029 24.4886358598459  C 35.2192870415029 24.4886358598459  30.3124004817107 24.112567780797  30.3124004817107 24.112567780797  C 30.3124004817107 24.112567780797  22.2525106844255 26.3374621702544  22.2525106844255 26.3374621702544  C 22.2525106844255 26.3374621702544  19.313986618904 27.5959246247255  19.313986618904 27.5959246247255  C 19.313986618904 27.5959246247255  12.8200727489161 25.9761006641291  12.8200727489161 25.9761006641291  C 12.8200727489161 25.9761006641291  6.94302461787376 22.3393752739963  6.94302461787376 22.3393752739963  C 6.94302461787376 22.3393752739963  4.44471837514506 21.2889057794462  4.44471837514506 21.2889057794462  C 4.44471837514506 21.2889057794462  2.91657370366695 18.4001146694331  2.91657370366695 18.4001146694331  Z " fill-rule="evenodd" />
    </mask>
  </defs>
  <g transform="matrix(1 0 0 1 -1917 -1698 )">
    <path d="M 2.91657370366695 18.4001146694331  C 2.91657370366695 18.4001146694331  1.59592023528858 18.3055724149235  1.59592023528858 18.3055724149235  C 1.59592023528858 18.3055724149235  4.20638388509825 11.2180711213011  4.20638388509825 11.2180711213011  C 4.20638388509825 11.2180711213011  2.68104314879679 9.32932697009992  2.68104314879679 9.32932697009992  C 2.68104314879679 9.32932697009992  7.10845679331823 9.31251945818712  7.10845679331823 9.31251945818712  C 7.10845679331823 9.31251945818712  7.70569498602415 5.73251942076009  7.70569498602415 5.73251942076009  C 7.70569498602415 5.73251942076009  11.7069104836377 7.97842320010844  11.7069104836377 7.97842320010844  C 11.7069104836377 7.97842320010844  14.6061794566808 8.93224950115986  14.6061794566808 8.93224950115986  C 14.6061794566808 8.93224950115986  21.2038389282184 7.86077061671872  21.2038389282184 7.86077061671872  C 21.2038389282184 7.86077061671872  21.8375282782258 6.09808280486345  21.8375282782258 6.09808280486345  C 21.8375282782258 6.09808280486345  24.9611120654309 5.83756637021507  24.9611120654309 5.83756637021507  C 24.9611120654309 5.83756637021507  30.8255206191061 4.46985508831069  30.8255206191061 4.46985508831069  C 30.8255206191061 4.46985508831069  31.6779169129215 5.03500767637871  31.6779169129215 5.03500767637871  C 31.6779169129215 5.03500767637871  35.3678956058854 3.93411564609012  35.3678956058854 3.93411564609012  C 35.3678956058854 3.93411564609012  37.2128849523671 1.84998416890249  37.2128849523671 1.84998416890249  C 37.2128849523671 1.84998416890249  39.7897013800524 1.3079419097146  39.7897013800524 1.3079419097146  C 39.7897013800524 1.3079419097146  48.209918716656 3.99924475475226  48.209918716656 3.99924475475226  C 48.209918716656 3.99924475475226  49.8866719525163 3.09584098943908  49.8866719525163 3.09584098943908  C 49.8866719525163 3.09584098943908  54.2495950879661 5.49721425398074  54.2495950879661 5.49721425398074  C 54.2495950879661 5.49721425398074  54.7991663826625 7.85026592177324  54.7991663826625 7.85026592177324  C 54.7991663826625 7.85026592177324  49.9960254244202 9.68228472026881  49.9960254244202 9.68228472026881  C 49.9960254244202 9.68228472026881  46.2780073796861 17.0870278012454  46.2780073796861 17.0870278012454  C 46.2780073796861 17.0870278012454  41.5225333194533 22.8877203501515  41.5225333194533 22.8877203501515  C 41.5225333194533 22.8877203501515  35.2192870415029 24.4886358598459  35.2192870415029 24.4886358598459  C 35.2192870415029 24.4886358598459  30.3124004817107 24.112567780797  30.3124004817107 24.112567780797  C 30.3124004817107 24.112567780797  22.2525106844255 26.3374621702544  22.2525106844255 26.3374621702544  C 22.2525106844255 26.3374621702544  19.313986618904 27.5959246247255  19.313986618904 27.5959246247255  C 19.313986618904 27.5959246247255  12.8200727489161 25.9761006641291  12.8200727489161 25.9761006641291  C 12.8200727489161 25.9761006641291  6.94302461787376 22.3393752739963  6.94302461787376 22.3393752739963  C 6.94302461787376 22.3393752739963  4.44471837514506 21.2889057794462  4.44471837514506 21.2889057794462  C 4.44471837514506 21.2889057794462  2.91657370366695 18.4001146694331  2.91657370366695 18.4001146694331  Z " fill-rule="nonzero" fill="#74b9ff" stroke="none" transform="matrix(1 0 0 1 1917 1698 )" />
    <path d="M 2.91657370366695 18.4001146694331  C 2.91657370366695 18.4001146694331  1.59592023528858 18.3055724149235  1.59592023528858 18.3055724149235  C 1.59592023528858 18.3055724149235  4.20638388509825 11.2180711213011  4.20638388509825 11.2180711213011  C 4.20638388509825 11.2180711213011  2.68104314879679 9.32932697009992  2.68104314879679 9.32932697009992  C 2.68104314879679 9.32932697009992  7.10845679331823 9.31251945818712  7.10845679331823 9.31251945818712  C 7.10845679331823 9.31251945818712  7.70569498602415 5.73251942076009  7.70569498602415 5.73251942076009  C 7.70569498602415 5.73251942076009  11.7069104836377 7.97842320010844  11.7069104836377 7.97842320010844  C 11.7069104836377 7.97842320010844  14.6061794566808 8.93224950115986  14.6061794566808 8.93224950115986  C 14.6061794566808 8.93224950115986  21.2038389282184 7.86077061671872  21.2038389282184 7.86077061671872  C 21.2038389282184 7.86077061671872  21.8375282782258 6.09808280486345  21.8375282782258 6.09808280486345  C 21.8375282782258 6.09808280486345  24.9611120654309 5.83756637021507  24.9611120654309 5.83756637021507  C 24.9611120654309 5.83756637021507  30.8255206191061 4.46985508831069  30.8255206191061 4.46985508831069  C 30.8255206191061 4.46985508831069  31.6779169129215 5.03500767637871  31.6779169129215 5.03500767637871  C 31.6779169129215 5.03500767637871  35.3678956058854 3.93411564609012  35.3678956058854 3.93411564609012  C 35.3678956058854 3.93411564609012  37.2128849523671 1.84998416890249  37.2128849523671 1.84998416890249  C 37.2128849523671 1.84998416890249  39.7897013800524 1.3079419097146  39.7897013800524 1.3079419097146  C 39.7897013800524 1.3079419097146  48.209918716656 3.99924475475226  48.209918716656 3.99924475475226  C 48.209918716656 3.99924475475226  49.8866719525163 3.09584098943908  49.8866719525163 3.09584098943908  C 49.8866719525163 3.09584098943908  54.2495950879661 5.49721425398074  54.2495950879661 5.49721425398074  C 54.2495950879661 5.49721425398074  54.7991663826625 7.85026592177324  54.7991663826625 7.85026592177324  C 54.7991663826625 7.85026592177324  49.9960254244202 9.68228472026881  49.9960254244202 9.68228472026881  C 49.9960254244202 9.68228472026881  46.2780073796861 17.0870278012454  46.2780073796861 17.0870278012454  C 46.2780073796861 17.0870278012454  41.5225333194533 22.8877203501515  41.5225333194533 22.8877203501515  C 41.5225333194533 22.8877203501515  35.2192870415029 24.4886358598459  35.2192870415029 24.4886358598459  C 35.2192870415029 24.4886358598459  30.3124004817107 24.112567780797  30.3124004817107 24.112567780797  C 30.3124004817107 24.112567780797  22.2525106844255 26.3374621702544  22.2525106844255 26.3374621702544  C 22.2525106844255 26.3374621702544  19.313986618904 27.5959246247255  19.313986618904 27.5959246247255  C 19.313986618904 27.5959246247255  12.8200727489161 25.9761006641291  12.8200727489161 25.9761006641291  C 12.8200727489161 25.9761006641291  6.94302461787376 22.3393752739963  6.94302461787376 22.3393752739963  C 6.94302461787376 22.3393752739963  4.44471837514506 21.2889057794462  4.44471837514506 21.2889057794462  C 4.44471837514506 21.2889057794462  2.91657370366695 18.4001146694331  2.91657370366695 18.4001146694331  Z " stroke-width="2" stroke="#505050" fill="none" stroke-opacity="0.211764705882353" transform="matrix(1 0 0 1 1917 1698 )" mask="url(#clip665)" />
  </g>
</svg>