<?xml version="1.0" encoding="utf-8"?>
<svg version="1.1" xmlns:xlink="http://www.w3.org/1999/xlink" width="355px" height="99px" xmlns="http://www.w3.org/2000/svg">
  <defs>
    <mask fill="white" id="clip669">
      <path d="M 198.194151179859 95.0796011000195  C 198.194151179859 95.0796011000195  197.735699186172 96.7321603809241  197.735699186172 96.7321603809241  C 197.735699186172 96.7321603809241  194.49633779366 96.8489643091553  194.49633779366 96.8489643091553  C 194.49633779366 96.8489643091553  182.286986498698 90.9925620001985  182.286986498698 90.9925620001985  C 182.286986498698 90.9925620001985  191.457377572041 89.7920771822641  191.457377572041 89.7920771822641  C 191.457377572041 89.7920771822641  195.503834091162 91.6522878911358  195.503834091162 91.6522878911358  C 195.503834091162 91.6522878911358  198.194151179859 95.0796011000195  198.194151179859 95.0796011000195  Z M 231.392115010072 89.9845873602753  C 231.392115010072 89.9845873602753  226.371104851678 96.122184311271  226.371104851678 96.122184311271  C 226.371104851678 96.122184311271  217.788191183418 97.4697555573486  217.788191183418 97.4697555573486  C 217.788191183418 97.4697555573486  216.865796753008 96.734323416632  216.865796753008 96.734323416632  C 216.865796753008 96.734323416632  217.557592575815 94.6534830655457  217.557592575815 94.6534830655457  C 217.557592575815 94.6534830655457  220.868329727824 89.3529809335423  220.868329727824 89.3529809335423  C 220.868329727824 89.3529809335423  230.469720579662 86.9303809405936  230.469720579662 86.9303809405936  C 230.469720579662 86.9303809405936  231.24936349108 88.1330287942359  231.24936349108 88.1330287942359  C 231.24936349108 88.1330287942359  231.392115010072 89.9845873602753  231.392115010072 89.9845873602753  Z M 172.006131909749 84.2265863056057  C 172.006131909749 84.2265863056057  174.067793270577 82.0765288118637  174.067793270577 82.0765288118637  C 174.067793270577 82.0765288118637  178.837594248838 83.6988055928562  178.837594248838 83.6988055928562  C 178.837594248838 83.6988055928562  183.592317919881 83.2013073800184  183.592317919881 83.2013073800184  C 183.592317919881 83.2013073800184  185.50024687564 87.3618896939113  185.50024687564 87.3618896939113  C 185.50024687564 87.3618896939113  176.602983932308 88.5861679046334  176.602983932308 88.5861679046334  C 176.602983932308 88.5861679046334  169.277381719786 89.4037954022536  169.277381719786 89.4037954022536  C 169.277381719786 89.4037954022536  165.140332890535 89.3562086166778  165.140332890535 89.3562086166778  C 165.140332890535 89.3562086166778  167.783981213407 84.2741730911816  167.783981213407 84.2741730911816  C 167.783981213407 84.2741730911816  172.006131909749 84.2265863056057  172.006131909749 84.2265863056057  Z M 207.678891528274 84.2979664839697  C 207.678891528274 84.2979664839697  214.574887984199 82.0678766690318  214.574887984199 82.0678766690318  C 214.574887984199 82.0678766690318  213.446601939858 87.0222930877568  213.446601939858 87.0222930877568  C 213.446601939858 87.0222930877568  199.886601657509 88.752721654149  199.886601657509 88.752721654149  C 199.886601657509 88.752721654149  189.649670612866 87.9999852277683  189.649670612866 87.9999852277683  C 189.649670612866 87.9999852277683  189.622218397675 84.2006298771101  189.622218397675 84.2006298771101  C 189.622218397675 84.2006298771101  195.738571942181 82.9352539879358  195.738571942181 82.9352539879358  C 195.738571942181 82.9352539879358  200.561926151202 86.3322846969078  200.561926151202 86.3322846969078  C 200.561926151202 86.3322846969078  207.678891528274 84.2979664839697  207.678891528274 84.2979664839697  Z M 101.613161717543 71.9189131271419  C 101.613161717543 71.9189131271419  102.664581559351 74.0668075851764  102.664581559351 74.0668075851764  C 102.664581559351 74.0668075851764  119.403548360792 74.6724575834135  119.403548360792 74.6724575834135  C 119.403548360792 74.6724575834135  121.100095259583 72.171988304977  121.100095259583 72.171988304977  C 121.100095259583 72.171988304977  135.377992380309 75.0899234750555  135.377992380309 75.0899234750555  C 135.377992380309 75.0899234750555  138.180863551288 80.598077035026  138.180863551288 80.598077035026  C 138.180863551288 80.598077035026  149.73001048205 81.7077143532248  149.73001048205 81.7077143532248  C 149.73001048205 81.7077143532248  159.168082064641 85.3243100569843  159.168082064641 85.3243100569843  C 159.168082064641 85.3243100569843  150.38611842511 87.6452473716576  150.38611842511 87.6452473716576  C 150.38611842511 87.6452473716576  141.922600481792 85.190201843089  141.922600481792 85.190201843089  C 141.922600481792 85.190201843089  134.955228266371 85.3567555926042  134.955228266371 85.3567555926042  C 134.955228266371 85.3567555926042  126.969378867372 84.9068441653423  126.969378867372 84.9068441653423  C 126.969378867372 84.9068441653423  119.765917601311 83.8145111328071  119.765917601311 83.8145111328071  C 119.765917601311 83.8145111328071  108.855056084872 81.4914107824259  108.855056084872 81.4914107824259  C 108.855056084872 81.4914107824259  103.20264497709 80.8900868556046  103.20264497709 80.8900868556046  C 103.20264497709 80.8900868556046  100.001716685845 81.6514754248171  100.001716685845 81.6514754248171  C 100.001716685845 81.6514754248171  85.9653990587972 79.1488431106727  85.9653990587972 79.1488431106727  C 85.9653990587972 79.1488431106727  84.6312214005255 74.9666304397  84.6312214005255 74.9666304397  C 84.6312214005255 74.9666304397  77.5897282040895 74.5210450838542  77.5897282040895 74.5210450838542  C 77.5897282040895 74.5210450838542  82.8715344067959 68.7284354578567  82.8715344067959 68.7284354578567  C 82.8715344067959 68.7284354578567  92.2080327931809 69.0874993853832  92.2080327931809 69.0874993853832  C 92.2080327931809 69.0874993853832  98.4232143123744 71.4560234856324  98.4232143123744 71.4560234856324  C 98.4232143123744 71.4560234856324  101.613161717543 71.9189131271419  101.613161717543 71.9189131271419  Z M 305.587217006201 67.7658845678015  C 305.587217006201 67.7658845678015  305.565255234049 72.2249658093969  305.565255234049 72.2249658093969  C 305.565255234049 72.2249658093969  299.612263781066 76.3542009759496  299.612263781066 76.3542009759496  C 299.612263781066 76.3542009759496  298.862818306357 70.2187670606622  298.862818306357 70.2187670606622  C 298.862818306357 70.2187670606622  300.229938622858 68.040590102716  300.229938622858 68.040590102716  C 300.229938622858 68.040590102716  303.83576567703 65.9943583229575  303.83576567703 65.9943583229575  C 303.83576567703 65.9943583229575  305.587217006201 67.7658845678015  305.587217006201 67.7658845678015  Z M 246.109247573851 51.999517292262  C 246.109247573851 51.999517292262  248.025412194168 53.9916731793206  248.025412194168 53.9916731793206  C 248.025412194168 53.9916731793206  245.142929599136 57.566072816348  245.142929599136 57.566072816348  C 245.142929599136 57.566072816348  237.82830827269 56.4564354981491  237.82830827269 56.4564354981491  C 237.82830827269 56.4564354981491  236.329417323273 52.2893640771327  236.329417323273 52.2893640771327  C 236.329417323273 52.2893640771327  246.109247573851 51.999517292262  246.109247573851 51.999517292262  Z M 264.359480232683 50.0289917622831  C 264.359480232683 50.0289917622831  272.825743397521 51.7875397928788  272.825743397521 51.7875397928788  C 272.825743397521 51.7875397928788  275.625869346981 57.9748865651581  275.625869346981 57.9748865651581  C 275.625869346981 57.9748865651581  269.127930011323 55.4873955009695  269.127930011323 55.4873955009695  C 269.127930011323 55.4873955009695  260.70149396965 54.9834081810081  260.70149396965 54.9834081810081  C 260.70149396965 54.9834081810081  256.358553526469 55.3814067512781  256.358553526469 55.3814067512781  C 256.358553526469 55.3814067512781  251.032823779457 55.169429251895  251.032823779457 55.169429251895  C 251.032823779457 55.169429251895  252.858396089643 50.2799039044099  252.858396089643 50.2799039044099  C 252.858396089643 50.2799039044099  264.359480232683 50.0289917622831  264.359480232683 50.0289917622831  Z M 297.880029002527 37.842448583467  C 297.880029002527 37.842448583467  299.096162135479 40.0790275055288  299.096162135479 40.0790275055288  C 299.096162135479 40.0790275055288  301.245670584917 49.8278294414401  301.245670584917 49.8278294414401  C 301.245670584917 49.8278294414401  309.209558211763 53.4379360380752  309.209558211763 53.4379360380752  C 309.209558211763 53.4379360380752  317.638739474955 47.0396764138407  317.638739474955 47.0396764138407  C 317.638739474955 47.0396764138407  326.47011710183 43.4014503530014  326.47011710183 43.4014503530014  C 326.47011710183 43.4014503530014  333.313954348892 43.3971242815853  333.313954348892 43.3971242815853  C 333.313954348892 43.3971242815853  339.894250330123 45.4995949897515  339.894250330123 45.4995949897515  C 339.894250330123 45.4995949897515  345.604311089806 47.6561415906178  345.604311089806 47.6561415906178  C 345.604311089806 47.6561415906178  353.867427862232 48.8090396229764  353.867427862232 48.8090396229764  C 353.867427862232 48.8090396229764  353.996453273629 70.0705822442384  353.996453273629 70.0705822442384  C 353.996453273629 70.0705822442384  354.128223906544 89.8775002223033  354.128223906544 89.8775002223033  C 354.128223906544 89.8775002223033  347.273405773406 84.8743986297227  347.273405773406 84.8743986297227  C 347.273405773406 84.8743986297227  339.455014887071 83.6501204190002  339.455014887071 83.6501204190002  C 339.455014887071 83.6501204190002  337.560812038907 85.3848750568081  337.560812038907 85.3848750568081  C 337.560812038907 85.3848750568081  327.807039981621 85.5708961276953  327.807039981621 85.5708961276953  C 327.807039981621 85.5708961276953  331.073853589325 80.6197073921062  331.073853589325 80.6197073921062  C 331.073853589325 80.6197073921062  335.921914792017 78.9325395398741  335.921914792017 78.9325395398741  C 335.921914792017 78.9325395398741  333.915157861571 72.3352806305044  333.915157861571 72.3352806305044  C 333.915157861571 72.3352806305044  330.220089696892 67.2521467167276  330.220089696892 67.2521467167276  C 330.220089696892 67.2521467167276  315.297065519182 60.5586495887786  315.297065519182 60.5586495887786  C 315.297065519182 60.5586495887786  306.952986123081 60.0546622688168  306.952986123081 60.0546622688168  C 306.952986123081 60.0546622688168  295.395603527762 54.4740301422026  295.395603527762 54.4740301422026  C 295.395603527762 54.4740301422026  293.122560109965 57.407106562237  293.122560109965 57.407106562237  C 293.122560109965 57.407106562237  290.168701755437 57.9392133464026  290.168701755437 57.9392133464026  C 290.168701755437 57.9392133464026  288.419995647784 55.7242647814207  288.419995647784 55.7242647814207  C 288.419995647784 55.7242647814207  288.395288654112 53.1026655033368  288.395288654112 53.1026655033368  C 288.395288654112 53.1026655033368  282.515024160247 50.1393065833907  282.515024160247 50.1393065833907  C 282.515024160247 50.1393065833907  290.805593147863 47.9676187325684  290.805593147863 47.9676187325684  C 290.805593147863 47.9676187325684  296.296036186019 48.0844226607999  296.296036186019 48.0844226607999  C 296.296036186019 48.0844226607999  295.650909129036 46.4837762368873  295.650909129036 46.4837762368873  C 295.650909129036 46.4837762368873  284.384520014739 46.4729610583472  284.384520014739 46.4729610583472  C 284.384520014739 46.4729610583472  281.337324128562 42.8844848187916  281.337324128562 42.8844848187916  C 281.337324128562 42.8844848187916  274.46054422327 41.7726844648849  274.46054422327 41.7726844648849  C 274.46054422327 41.7726844648849  271.201966280125 38.7920212592746  271.201966280125 38.7920212592746  C 271.201966280125 38.7920212592746  281.576158400721 37.3319721563812  281.576158400721 37.3319721563812  C 281.576158400721 37.3319721563812  285.523786945156 35.3679357335264  285.523786945156 35.3679357335264  C 285.523786945156 35.3679357335264  297.880029002527 37.842448583467  297.880029002527 37.842448583467  Z M 231.219166054371 23.2397945188258  C 231.219166054371 23.2397945188258  232.564324598719 24.5873657649038  232.564324598719 24.5873657649038  C 232.564324598719 24.5873657649038  226.379340516235 30.5638334260802  226.379340516235 30.5638334260802  C 226.379340516235 30.5638334260802  220.595158775537 31.7232205655631  220.595158775537 31.7232205655631  C 220.595158775537 31.7232205655631  213.188551117064 30.5465291404164  213.188551117064 30.5465291404164  C 213.188551117064 30.5465291404164  198.365748935939 30.8471911038269  198.365748935939 30.8471911038269  C 198.365748935939 30.8471911038269  191.642701435717 31.7145684227312  191.642701435717 31.7145684227312  C 191.642701435717 31.7145684227312  190.550103271123 36.2742476951743  190.550103271123 36.2742476951743  C 190.550103271123 36.2742476951743  197.44060928401 41.6320871438656  197.44060928401 41.6320871438656  C 197.44060928401 41.6320871438656  201.596874663894 38.9023360803821  201.596874663894 38.9023360803821  C 201.596874663894 38.9023360803821  217.946020009627 36.8517782292075  217.946020009627 36.8517782292075  C 217.946020009627 36.8517782292075  217.314619060239 39.626953042559  217.314619060239 39.626953042559  C 217.314619060239 39.626953042559  213.959958363926 38.7509235808228  213.959958363926 38.7509235808228  C 213.959958363926 38.7509235808228  210.616278553688 42.2809978562628  210.616278553688 42.2809978562628  C 210.616278553688 42.2809978562628  201.846689822131 44.617076420892  201.846689822131 44.617076420892  C 201.846689822131 44.617076420892  211.124144534718 53.917031576969  211.124144534718 53.917031576969  C 211.124144534718 53.917031576969  209.71584589543 55.9892197852234  209.71584589543 55.9892197852234  C 209.71584589543 55.9892197852234  216.636549345027 62.9606838720754  216.636549345027 62.9606838720754  C 216.636549345027 62.9606838720754  216.570664028569 66.934180467653  216.570664028569 66.934180467653  C 216.570664028569 66.934180467653  212.461067414509 68.712195819621  212.461067414509 68.712195819621  C 212.461067414509 68.712195819621  209.441323743523 66.5837686829588  209.441323743523 66.5837686829588  C 209.441323743523 66.5837686829588  213.161098901874 61.6325799473694  213.161098901874 61.6325799473694  C 213.161098901874 61.6325799473694  203.611867258898 63.9729845834147  203.611867258898 63.9729845834147  C 203.611867258898 63.9729845834147  201.698447860101 62.3009579811385  201.698447860101 62.3009579811385  C 201.698447860101 62.3009579811385  202.694963271526 59.9670424522172  202.694963271526 59.9670424522172  C 202.694963271526 59.9670424522172  197.146870581469 56.4261529982374  197.146870581469 56.4261529982374  C 197.146870581469 56.4261529982374  197.717876657437 50.5470219439202  197.717876657437 50.5470219439202  C 197.717876657437 50.5470219439202  192.584312416761 52.3812762242959  192.584312416761 52.3812762242959  C 192.584312416761 52.3812762242959  193.234929916782 59.4176313823874  193.234929916782 59.4176313823874  C 193.234929916782 59.4176313823874  193.547885169957 68.06761117864  193.547885169957 68.06761117864  C 193.547885169957 68.06761117864  188.666881309036 68.945803676084  188.666881309036 68.945803676084  C 188.666881309036 68.945803676084  185.361634600066 67.1699513598239  185.361634600066 67.1699513598239  C 185.361634600066 67.1699513598239  187.568792701405 61.6044604831655  187.568792701405 61.6044604831655  C 187.568792701405 61.6044604831655  186.377366562125 55.7772422858403  186.377366562125 55.7772422858403  C 186.377366562125 55.7772422858403  183.138005169613 55.7318185359727  183.138005169613 55.7318185359727  C 183.138005169613 55.7318185359727  180.746917226496 51.5982572980035  180.746917226496 51.5982572980035  C 180.746917226496 51.5982572980035  183.928628967107 47.6485540952136  183.928628967107 47.6485540952136  C 183.928628967107 47.6485540952136  185.023972353219 41.2924905377112  185.023972353219 41.2924905377112  C 185.023972353219 41.2924905377112  188.891989473601 32.2099035998608  188.891989473601 32.2099035998608  C 188.891989473601 32.2099035998608  190.506179726819 29.7267386070883  190.506179726819 29.7267386070883  C 190.506179726819 29.7267386070883  197.050787828302 25.2514177272568  197.050787828302 25.2514177272568  C 197.050787828302 25.2514177272568  203.060077733564 27.0315961149323  203.060077733564 27.0315961149323  C 203.060077733564 27.0315961149323  214.758817825977 27.8686909339245  214.758817825977 27.8686909339245  C 214.758817825977 27.8686909339245  223.612157225005 27.6156157560899  223.612157225005 27.6156157560899  C 223.612157225005 27.6156157560899  231.219166054371 23.2397945188258  231.219166054371 23.2397945188258  Z M 258.380387764131 23.8562596956033  C 258.380387764131 23.8562596956033  259.102381023649 26.3177943312959  259.102381023649 26.3177943312959  C 259.102381023649 26.3177943312959  258.701578681864 33.1540518159724  258.701578681864 33.1540518159724  C 258.701578681864 33.1540518159724  254.731988365276 32.5657061033991  254.731988365276 32.5657061033991  C 254.731988365276 32.5657061033991  251.565396754157 36.2320516284422  251.565396754157 36.2320516284422  C 251.565396754157 36.2320516284422  256.730509631165 39.4117141191877  256.730509631165 39.4117141191877  C 256.730509631165 39.4117141191877  254.575510738689 40.1341680456563  254.575510738689 40.1341680456563  C 254.575510738689 40.1341680456563  249.47353795662 36.3185730567616  249.47353795662 36.3185730567616  C 249.47353795662 36.3185730567616  247.186768431228 27.0445743291806  247.186768431228 27.0445743291806  C 247.186768431228 27.0445743291806  248.735073367988 22.2296568431947  248.735073367988 22.2296568431947  C 248.735073367988 22.2296568431947  251.288129380731 20.036338635293  251.288129380731 20.036338635293  C 251.288129380731 20.036338635293  251.842664127585 23.3284789828538  251.842664127585 23.3284789828538  C 251.842664127585 23.3284789828538  258.380387764131 23.8562596956033  258.380387764131 23.8562596956033  Z M 177.212423109543 19.3506563158597  C 177.212423109543 19.3506563158597  175.875500229752 22.127994164919  175.875500229752 22.127994164919  C 175.875500229752 22.127994164919  184.506476685734 27.7043002201175  184.506476685734 27.7043002201175  C 184.506476685734 27.7043002201175  175.386850799356 28.415938968046  175.386850799356 28.415938968046  C 175.386850799356 28.415938968046  172.817323457499 32.5213807418114  172.817323457499 32.5213807418114  C 172.817323457499 32.5213807418114  173.152240482826 39.5523114402069  173.152240482826 39.5523114402069  C 173.152240482826 39.5523114402069  165.751123267391 43.6728944639278  165.751123267391 43.6728944639278  C 165.751123267391 43.6728944639278  165.54797687498 49.6753185536001  165.54797687498 49.6753185536001  C 165.54797687498 49.6753185536001  162.580392412856 58.9028288838859  162.580392412856 58.9028288838859  C 162.580392412856 58.9028288838859  161.446615925476 56.7549344258518  161.446615925476 56.7549344258518  C 161.446615925476 56.7549344258518  152.700340165693 59.4717072750872  152.700340165693 59.4717072750872  C 152.700340165693 59.4717072750872  149.653144279516 55.7794053215481  149.653144279516 55.7794053215481  C 149.653144279516 55.7794053215481  142.171064440406 55.4376456796858  142.171064440406 55.4376456796858  C 142.171064440406 55.4376456796858  138.333244756735 53.5038917567427  138.333244756735 53.5038917567427  C 138.333244756735 53.5038917567427  129.183421433647 55.6734165718567  129.183421433647 55.6734165718567  C 129.183421433647 55.6734165718567  126.375059819629 52.7533183660699  126.375059819629 52.7533183660699  C 126.375059819629 52.7533183660699  121.334833110602 53.0864258651004  121.334833110602 53.0864258651004  C 121.334833110602 53.0864258651004  114.987880958493 52.3899283671278  114.987880958493 52.3899283671278  C 114.987880958493 52.3899283671278  113.810180926808 44.3045008906608  113.810180926808 44.3045008906608  C 113.810180926808 44.3045008906608  109.969616021618 42.6303112526764  109.969616021618 42.6303112526764  C 109.969616021618 42.6303112526764  106.274547856938 37.4757971605363  106.274547856938 37.4757971605363  C 106.274547856938 37.4757971605363  105.201166242979 30.6330505687359  105.201166242979 30.6330505687359  C 105.201166242979 30.6330505687359  106.096108458198 25.0502554064134  106.096108458198 25.0502554064134  C 106.096108458198 25.0502554064134  110.669647508983 21.0443132752158  110.669647508983 21.0443132752158  C 110.669647508983 21.0443132752158  111.957156401431 25.0718857634936  111.957156401431 25.0718857634936  C 111.957156401431 25.0718857634936  117.219746053504 28.4765039678698  117.219746053504 28.4765039678698  C 117.219746053504 28.4765039678698  122.185851781517 27.2522257571477  122.185851781517 27.2522257571477  C 122.185851781517 27.2522257571477  127.099798300666 27.6869959344534  127.099798300666 27.6869959344534  C 127.099798300666 27.6869959344534  131.58549026284 24.6392786218957  131.58549026284 24.6392786218957  C 131.58549026284 24.6392786218957  135.277813206001 24.1114979091458  135.277813206001 24.1114979091458  C 135.277813206001 24.1114979091458  142.558140674597 25.8008287970862  142.558140674597 25.8008287970862  C 142.558140674597 25.8008287970862  150.830844311201 24.5159855865402  150.830844311201 24.5159855865402  C 150.830844311201 24.5159855865402  154.778472855636 16.1320591823707  154.778472855636 16.1320591823707  C 154.778472855636 16.1320591823707  157.740566874721 14.0339145456202  157.740566874721 14.0339145456202  C 157.740566874721 14.0339145456202  160.408922191265 7.16627617275179  160.408922191265 7.16627617275179  C 160.408922191265 7.16627617275179  169.259516368773 7.16843920845966  169.259516368773 7.16843920845966  C 169.259516368773 7.16843920845966  175.930404660133 8.18722902692298  175.930404660133 8.18722902692298  C 175.930404660133 8.18722902692298  171.551776337204 13.640242046766  171.551776337204 13.640242046766  C 171.551776337204 13.640242046766  177.212423109543 19.3506563158597  177.212423109543 19.3506563158597  Z M 83.37251592289 60.6765181644378  C 83.37251592289 60.6765181644378  83.0623058912343 70.0294845657869  83.0623058912343 70.0294845657869  C 83.0623058912343 70.0294845657869  74.5411382960152 70.1571036725582  74.5411382960152 70.1571036725582  C 74.5411382960152 70.1571036725582  68.0596702894713 65.0977631515695  68.0596702894713 65.0977631515695  C 68.0596702894713 65.0977631515695  58.1741275992704 60.1595526302284  58.1741275992704 60.1595526302284  C 58.1741275992704 60.1595526302284  54.8798617763762 56.4996962123089  54.8798617763762 56.4996962123089  C 54.8798617763762 56.4996962123089  49.0545017128922 51.5874421194637  49.0545017128922 51.5874421194637  C 49.0545017128922 51.5874421194637  45.2304081368161 47.0688605254725  45.2304081368161 47.0688605254725  C 45.2304081368161 47.0688605254725  37.3804686141496 38.633021264311  37.3804686141496 38.633021264311  C 37.3804686141496 38.633021264311  30.621733234179 32.0411868146377  30.621733234179 32.0411868146377  C 30.621733234179 32.0411868146377  28.3596707024586 26.8607162940013  28.3596707024586 26.8607162940013  C 28.3596707024586 26.8607162940013  25.5238568732509 22.1561136291232  25.5238568732509 22.1561136291232  C 25.5238568732509 22.1561136291232  18.5839368730206 18.3599859616006  18.5839368730206 18.3599859616006  C 18.5839368730206 18.3599859616006  14.559442126052 13.1989827623362  14.559442126052 13.1989827623362  C 14.559442126052 13.1989827623362  8.76427949927772 9.81815795074772  8.76427949927772 9.81815795074772  C 8.76427949927772 9.81815795074772  0.7345065559737 3.16033404155457  0.7345065559737 3.16033404155457  C 0.7345065559737 3.16033404155457  0.0591820622803412 0.0801711933765351  0.0591820622803412 0.0801711933765351  C 0.0591820622803412 0.0801711933765351  5.01705212573588 0.324594228379315  5.01705212573588 0.324594228379315  C 5.01705212573588 0.324594228379315  16.9313135185358 1.49479654640199  16.9313135185358 1.49479654640199  C 16.9313135185358 1.49479654640199  23.736717664331 7.40637313633881  23.736717664331 7.40637313633881  C 23.736717664331 7.40637313633881  29.6911031392119 11.500999731564  29.6911031392119 11.500999731564  C 29.6911031392119 11.500999731564  33.9352156077071 14.0122841885404  33.9352156077071 14.0122841885404  C 33.9352156077071 14.0122841885404  41.2265239623791 20.4949022053868  41.2265239623791 20.4949022053868  C 41.2265239623791 20.4949022053868  51.0475325357432 20.5879127408302  51.0475325357432 20.5879127408302  C 51.0475325357432 20.5879127408302  57.5125292131726 24.7171479073833  57.5125292131726 24.7171479073833  C 57.5125292131726 24.7171479073833  61.9680237386369 29.7635102141244  61.9680237386369 29.7635102141244  C 61.9680237386369 29.7635102141244  67.8290716818693 32.5148916346877  67.8290716818693 32.5148916346877  C 67.8290716818693 32.5148916346877  64.7461879159441 39.0050634060854  64.7461879159441 39.0050634060854  C 64.7461879159441 39.0050634060854  69.1550136755838 41.0967189357119  69.1550136755838 41.0967189357119  C 69.1550136755838 41.0967189357119  71.9194517452955 41.2502944709791  71.9194517452955 41.2502944709791  C 71.9194517452955 41.2502944709791  73.2261771883769 45.453072851604  73.2261771883769 45.453072851604  C 73.2261771883769 45.453072851604  75.908258612516 48.8165933775284  75.908258612516 48.8165933775284  C 75.908258612516 48.8165933775284  81.5606697202984 49.3508631974019  81.5606697202984 49.3508631974019  C 81.5606697202984 49.3508631974019  85.3051518723213 53.1686212220044  85.3051518723213 53.1686212220044  C 85.3051518723213 53.1686212220044  83.37251592289 60.6765181644378  83.37251592289 60.6765181644378  Z " fill-rule="evenodd" />
    </mask>
  </defs>
  <g transform="matrix(1 0 0 1 -2526 -2000 )">
    <path d="M 198.194151179859 95.0796011000195  C 198.194151179859 95.0796011000195  197.735699186172 96.7321603809241  197.735699186172 96.7321603809241  C 197.735699186172 96.7321603809241  194.49633779366 96.8489643091553  194.49633779366 96.8489643091553  C 194.49633779366 96.8489643091553  182.286986498698 90.9925620001985  182.286986498698 90.9925620001985  C 182.286986498698 90.9925620001985  191.457377572041 89.7920771822641  191.457377572041 89.7920771822641  C 191.457377572041 89.7920771822641  195.503834091162 91.6522878911358  195.503834091162 91.6522878911358  C 195.503834091162 91.6522878911358  198.194151179859 95.0796011000195  198.194151179859 95.0796011000195  Z M 231.392115010072 89.9845873602753  C 231.392115010072 89.9845873602753  226.371104851678 96.122184311271  226.371104851678 96.122184311271  C 226.371104851678 96.122184311271  217.788191183418 97.4697555573486  217.788191183418 97.4697555573486  C 217.788191183418 97.4697555573486  216.865796753008 96.734323416632  216.865796753008 96.734323416632  C 216.865796753008 96.734323416632  217.557592575815 94.6534830655457  217.557592575815 94.6534830655457  C 217.557592575815 94.6534830655457  220.868329727824 89.3529809335423  220.868329727824 89.3529809335423  C 220.868329727824 89.3529809335423  230.469720579662 86.9303809405936  230.469720579662 86.9303809405936  C 230.469720579662 86.9303809405936  231.24936349108 88.1330287942359  231.24936349108 88.1330287942359  C 231.24936349108 88.1330287942359  231.392115010072 89.9845873602753  231.392115010072 89.9845873602753  Z M 172.006131909749 84.2265863056057  C 172.006131909749 84.2265863056057  174.067793270577 82.0765288118637  174.067793270577 82.0765288118637  C 174.067793270577 82.0765288118637  178.837594248838 83.6988055928562  178.837594248838 83.6988055928562  C 178.837594248838 83.6988055928562  183.592317919881 83.2013073800184  183.592317919881 83.2013073800184  C 183.592317919881 83.2013073800184  185.50024687564 87.3618896939113  185.50024687564 87.3618896939113  C 185.50024687564 87.3618896939113  176.602983932308 88.5861679046334  176.602983932308 88.5861679046334  C 176.602983932308 88.5861679046334  169.277381719786 89.4037954022536  169.277381719786 89.4037954022536  C 169.277381719786 89.4037954022536  165.140332890535 89.3562086166778  165.140332890535 89.3562086166778  C 165.140332890535 89.3562086166778  167.783981213407 84.2741730911816  167.783981213407 84.2741730911816  C 167.783981213407 84.2741730911816  172.006131909749 84.2265863056057  172.006131909749 84.2265863056057  Z M 207.678891528274 84.2979664839697  C 207.678891528274 84.2979664839697  214.574887984199 82.0678766690318  214.574887984199 82.0678766690318  C 214.574887984199 82.0678766690318  213.446601939858 87.0222930877568  213.446601939858 87.0222930877568  C 213.446601939858 87.0222930877568  199.886601657509 88.752721654149  199.886601657509 88.752721654149  C 199.886601657509 88.752721654149  189.649670612866 87.9999852277683  189.649670612866 87.9999852277683  C 189.649670612866 87.9999852277683  189.622218397675 84.2006298771101  189.622218397675 84.2006298771101  C 189.622218397675 84.2006298771101  195.738571942181 82.9352539879358  195.738571942181 82.9352539879358  C 195.738571942181 82.9352539879358  200.561926151202 86.3322846969078  200.561926151202 86.3322846969078  C 200.561926151202 86.3322846969078  207.678891528274 84.2979664839697  207.678891528274 84.2979664839697  Z M 101.613161717543 71.9189131271419  C 101.613161717543 71.9189131271419  102.664581559351 74.0668075851764  102.664581559351 74.0668075851764  C 102.664581559351 74.0668075851764  119.403548360792 74.6724575834135  119.403548360792 74.6724575834135  C 119.403548360792 74.6724575834135  121.100095259583 72.171988304977  121.100095259583 72.171988304977  C 121.100095259583 72.171988304977  135.377992380309 75.0899234750555  135.377992380309 75.0899234750555  C 135.377992380309 75.0899234750555  138.180863551288 80.598077035026  138.180863551288 80.598077035026  C 138.180863551288 80.598077035026  149.73001048205 81.7077143532248  149.73001048205 81.7077143532248  C 149.73001048205 81.7077143532248  159.168082064641 85.3243100569843  159.168082064641 85.3243100569843  C 159.168082064641 85.3243100569843  150.38611842511 87.6452473716576  150.38611842511 87.6452473716576  C 150.38611842511 87.6452473716576  141.922600481792 85.190201843089  141.922600481792 85.190201843089  C 141.922600481792 85.190201843089  134.955228266371 85.3567555926042  134.955228266371 85.3567555926042  C 134.955228266371 85.3567555926042  126.969378867372 84.9068441653423  126.969378867372 84.9068441653423  C 126.969378867372 84.9068441653423  119.765917601311 83.8145111328071  119.765917601311 83.8145111328071  C 119.765917601311 83.8145111328071  108.855056084872 81.4914107824259  108.855056084872 81.4914107824259  C 108.855056084872 81.4914107824259  103.20264497709 80.8900868556046  103.20264497709 80.8900868556046  C 103.20264497709 80.8900868556046  100.001716685845 81.6514754248171  100.001716685845 81.6514754248171  C 100.001716685845 81.6514754248171  85.9653990587972 79.1488431106727  85.9653990587972 79.1488431106727  C 85.9653990587972 79.1488431106727  84.6312214005255 74.9666304397  84.6312214005255 74.9666304397  C 84.6312214005255 74.9666304397  77.5897282040895 74.5210450838542  77.5897282040895 74.5210450838542  C 77.5897282040895 74.5210450838542  82.8715344067959 68.7284354578567  82.8715344067959 68.7284354578567  C 82.8715344067959 68.7284354578567  92.2080327931809 69.0874993853832  92.2080327931809 69.0874993853832  C 92.2080327931809 69.0874993853832  98.4232143123744 71.4560234856324  98.4232143123744 71.4560234856324  C 98.4232143123744 71.4560234856324  101.613161717543 71.9189131271419  101.613161717543 71.9189131271419  Z M 305.587217006201 67.7658845678015  C 305.587217006201 67.7658845678015  305.565255234049 72.2249658093969  305.565255234049 72.2249658093969  C 305.565255234049 72.2249658093969  299.612263781066 76.3542009759496  299.612263781066 76.3542009759496  C 299.612263781066 76.3542009759496  298.862818306357 70.2187670606622  298.862818306357 70.2187670606622  C 298.862818306357 70.2187670606622  300.229938622858 68.040590102716  300.229938622858 68.040590102716  C 300.229938622858 68.040590102716  303.83576567703 65.9943583229575  303.83576567703 65.9943583229575  C 303.83576567703 65.9943583229575  305.587217006201 67.7658845678015  305.587217006201 67.7658845678015  Z M 246.109247573851 51.999517292262  C 246.109247573851 51.999517292262  248.025412194168 53.9916731793206  248.025412194168 53.9916731793206  C 248.025412194168 53.9916731793206  245.142929599136 57.566072816348  245.142929599136 57.566072816348  C 245.142929599136 57.566072816348  237.82830827269 56.4564354981491  237.82830827269 56.4564354981491  C 237.82830827269 56.4564354981491  236.329417323273 52.2893640771327  236.329417323273 52.2893640771327  C 236.329417323273 52.2893640771327  246.109247573851 51.999517292262  246.109247573851 51.999517292262  Z M 264.359480232683 50.0289917622831  C 264.359480232683 50.0289917622831  272.825743397521 51.7875397928788  272.825743397521 51.7875397928788  C 272.825743397521 51.7875397928788  275.625869346981 57.9748865651581  275.625869346981 57.9748865651581  C 275.625869346981 57.9748865651581  269.127930011323 55.4873955009695  269.127930011323 55.4873955009695  C 269.127930011323 55.4873955009695  260.70149396965 54.9834081810081  260.70149396965 54.9834081810081  C 260.70149396965 54.9834081810081  256.358553526469 55.3814067512781  256.358553526469 55.3814067512781  C 256.358553526469 55.3814067512781  251.032823779457 55.169429251895  251.032823779457 55.169429251895  C 251.032823779457 55.169429251895  252.858396089643 50.2799039044099  252.858396089643 50.2799039044099  C 252.858396089643 50.2799039044099  264.359480232683 50.0289917622831  264.359480232683 50.0289917622831  Z M 297.880029002527 37.842448583467  C 297.880029002527 37.842448583467  299.096162135479 40.0790275055288  299.096162135479 40.0790275055288  C 299.096162135479 40.0790275055288  301.245670584917 49.8278294414401  301.245670584917 49.8278294414401  C 301.245670584917 49.8278294414401  309.209558211763 53.4379360380752  309.209558211763 53.4379360380752  C 309.209558211763 53.4379360380752  317.638739474955 47.0396764138407  317.638739474955 47.0396764138407  C 317.638739474955 47.0396764138407  326.47011710183 43.4014503530014  326.47011710183 43.4014503530014  C 326.47011710183 43.4014503530014  333.313954348892 43.3971242815853  333.313954348892 43.3971242815853  C 333.313954348892 43.3971242815853  339.894250330123 45.4995949897515  339.894250330123 45.4995949897515  C 339.894250330123 45.4995949897515  345.604311089806 47.6561415906178  345.604311089806 47.6561415906178  C 345.604311089806 47.6561415906178  353.867427862232 48.8090396229764  353.867427862232 48.8090396229764  C 353.867427862232 48.8090396229764  353.996453273629 70.0705822442384  353.996453273629 70.0705822442384  C 353.996453273629 70.0705822442384  354.128223906544 89.8775002223033  354.128223906544 89.8775002223033  C 354.128223906544 89.8775002223033  347.273405773406 84.8743986297227  347.273405773406 84.8743986297227  C 347.273405773406 84.8743986297227  339.455014887071 83.6501204190002  339.455014887071 83.6501204190002  C 339.455014887071 83.6501204190002  337.560812038907 85.3848750568081  337.560812038907 85.3848750568081  C 337.560812038907 85.3848750568081  327.807039981621 85.5708961276953  327.807039981621 85.5708961276953  C 327.807039981621 85.5708961276953  331.073853589325 80.6197073921062  331.073853589325 80.6197073921062  C 331.073853589325 80.6197073921062  335.921914792017 78.9325395398741  335.921914792017 78.9325395398741  C 335.921914792017 78.9325395398741  333.915157861571 72.3352806305044  333.915157861571 72.3352806305044  C 333.915157861571 72.3352806305044  330.220089696892 67.2521467167276  330.220089696892 67.2521467167276  C 330.220089696892 67.2521467167276  315.297065519182 60.5586495887786  315.297065519182 60.5586495887786  C 315.297065519182 60.5586495887786  306.952986123081 60.0546622688168  306.952986123081 60.0546622688168  C 306.952986123081 60.0546622688168  295.395603527762 54.4740301422026  295.395603527762 54.4740301422026  C 295.395603527762 54.4740301422026  293.122560109965 57.407106562237  293.122560109965 57.407106562237  C 293.122560109965 57.407106562237  290.168701755437 57.9392133464026  290.168701755437 57.9392133464026  C 290.168701755437 57.9392133464026  288.419995647784 55.7242647814207  288.419995647784 55.7242647814207  C 288.419995647784 55.7242647814207  288.395288654112 53.1026655033368  288.395288654112 53.1026655033368  C 288.395288654112 53.1026655033368  282.515024160247 50.1393065833907  282.515024160247 50.1393065833907  C 282.515024160247 50.1393065833907  290.805593147863 47.9676187325684  290.805593147863 47.9676187325684  C 290.805593147863 47.9676187325684  296.296036186019 48.0844226607999  296.296036186019 48.0844226607999  C 296.296036186019 48.0844226607999  295.650909129036 46.4837762368873  295.650909129036 46.4837762368873  C 295.650909129036 46.4837762368873  284.384520014739 46.4729610583472  284.384520014739 46.4729610583472  C 284.384520014739 46.4729610583472  281.337324128562 42.8844848187916  281.337324128562 42.8844848187916  C 281.337324128562 42.8844848187916  274.46054422327 41.7726844648849  274.46054422327 41.7726844648849  C 274.46054422327 41.7726844648849  271.201966280125 38.7920212592746  271.201966280125 38.7920212592746  C 271.201966280125 38.7920212592746  281.576158400721 37.3319721563812  281.576158400721 37.3319721563812  C 281.576158400721 37.3319721563812  285.523786945156 35.3679357335264  285.523786945156 35.3679357335264  C 285.523786945156 35.3679357335264  297.880029002527 37.842448583467  297.880029002527 37.842448583467  Z M 231.219166054371 23.2397945188258  C 231.219166054371 23.2397945188258  232.564324598719 24.5873657649038  232.564324598719 24.5873657649038  C 232.564324598719 24.5873657649038  226.379340516235 30.5638334260802  226.379340516235 30.5638334260802  C 226.379340516235 30.5638334260802  220.595158775537 31.7232205655631  220.595158775537 31.7232205655631  C 220.595158775537 31.7232205655631  213.188551117064 30.5465291404164  213.188551117064 30.5465291404164  C 213.188551117064 30.5465291404164  198.365748935939 30.8471911038269  198.365748935939 30.8471911038269  C 198.365748935939 30.8471911038269  191.642701435717 31.7145684227312  191.642701435717 31.7145684227312  C 191.642701435717 31.7145684227312  190.550103271123 36.2742476951743  190.550103271123 36.2742476951743  C 190.550103271123 36.2742476951743  197.44060928401 41.6320871438656  197.44060928401 41.6320871438656  C 197.44060928401 41.6320871438656  201.596874663894 38.9023360803821  201.596874663894 38.9023360803821  C 201.596874663894 38.9023360803821  217.946020009627 36.8517782292075  217.946020009627 36.8517782292075  C 217.946020009627 36.8517782292075  217.314619060239 39.626953042559  217.314619060239 39.626953042559  C 217.314619060239 39.626953042559  213.959958363926 38.7509235808228  213.959958363926 38.7509235808228  C 213.959958363926 38.7509235808228  210.616278553688 42.2809978562628  210.616278553688 42.2809978562628  C 210.616278553688 42.2809978562628  201.846689822131 44.617076420892  201.846689822131 44.617076420892  C 201.846689822131 44.617076420892  211.124144534718 53.917031576969  211.124144534718 53.917031576969  C 211.124144534718 53.917031576969  209.71584589543 55.9892197852234  209.71584589543 55.9892197852234  C 209.71584589543 55.9892197852234  216.636549345027 62.9606838720754  216.636549345027 62.9606838720754  C 216.636549345027 62.9606838720754  216.570664028569 66.934180467653  216.570664028569 66.934180467653  C 216.570664028569 66.934180467653  212.461067414509 68.712195819621  212.461067414509 68.712195819621  C 212.461067414509 68.712195819621  209.441323743523 66.5837686829588  209.441323743523 66.5837686829588  C 209.441323743523 66.5837686829588  213.161098901874 61.6325799473694  213.161098901874 61.6325799473694  C 213.161098901874 61.6325799473694  203.611867258898 63.9729845834147  203.611867258898 63.9729845834147  C 203.611867258898 63.9729845834147  201.698447860101 62.3009579811385  201.698447860101 62.3009579811385  C 201.698447860101 62.3009579811385  202.694963271526 59.9670424522172  202.694963271526 59.9670424522172  C 202.694963271526 59.9670424522172  197.146870581469 56.4261529982374  197.146870581469 56.4261529982374  C 197.146870581469 56.4261529982374  197.717876657437 50.5470219439202  197.717876657437 50.5470219439202  C 197.717876657437 50.5470219439202  192.584312416761 52.3812762242959  192.584312416761 52.3812762242959  C 192.584312416761 52.3812762242959  193.234929916782 59.4176313823874  193.234929916782 59.4176313823874  C 193.234929916782 59.4176313823874  193.547885169957 68.06761117864  193.547885169957 68.06761117864  C 193.547885169957 68.06761117864  188.666881309036 68.945803676084  188.666881309036 68.945803676084  C 188.666881309036 68.945803676084  185.361634600066 67.1699513598239  185.361634600066 67.1699513598239  C 185.361634600066 67.1699513598239  187.568792701405 61.6044604831655  187.568792701405 61.6044604831655  C 187.568792701405 61.6044604831655  186.377366562125 55.7772422858403  186.377366562125 55.7772422858403  C 186.377366562125 55.7772422858403  183.138005169613 55.7318185359727  183.138005169613 55.7318185359727  C 183.138005169613 55.7318185359727  180.746917226496 51.5982572980035  180.746917226496 51.5982572980035  C 180.746917226496 51.5982572980035  183.928628967107 47.6485540952136  183.928628967107 47.6485540952136  C 183.928628967107 47.6485540952136  185.023972353219 41.2924905377112  185.023972353219 41.2924905377112  C 185.023972353219 41.2924905377112  188.891989473601 32.2099035998608  188.891989473601 32.2099035998608  C 188.891989473601 32.2099035998608  190.506179726819 29.7267386070883  190.506179726819 29.7267386070883  C 190.506179726819 29.7267386070883  197.050787828302 25.2514177272568  197.050787828302 25.2514177272568  C 197.050787828302 25.2514177272568  203.060077733564 27.0315961149323  203.060077733564 27.0315961149323  C 203.060077733564 27.0315961149323  214.758817825977 27.8686909339245  214.758817825977 27.8686909339245  C 214.758817825977 27.8686909339245  223.612157225005 27.6156157560899  223.612157225005 27.6156157560899  C 223.612157225005 27.6156157560899  231.219166054371 23.2397945188258  231.219166054371 23.2397945188258  Z M 258.380387764131 23.8562596956033  C 258.380387764131 23.8562596956033  259.102381023649 26.3177943312959  259.102381023649 26.3177943312959  C 259.102381023649 26.3177943312959  258.701578681864 33.1540518159724  258.701578681864 33.1540518159724  C 258.701578681864 33.1540518159724  254.731988365276 32.5657061033991  254.731988365276 32.5657061033991  C 254.731988365276 32.5657061033991  251.565396754157 36.2320516284422  251.565396754157 36.2320516284422  C 251.565396754157 36.2320516284422  256.730509631165 39.4117141191877  256.730509631165 39.4117141191877  C 256.730509631165 39.4117141191877  254.575510738689 40.1341680456563  254.575510738689 40.1341680456563  C 254.575510738689 40.1341680456563  249.47353795662 36.3185730567616  249.47353795662 36.3185730567616  C 249.47353795662 36.3185730567616  247.186768431228 27.0445743291806  247.186768431228 27.0445743291806  C 247.186768431228 27.0445743291806  248.735073367988 22.2296568431947  248.735073367988 22.2296568431947  C 248.735073367988 22.2296568431947  251.288129380731 20.036338635293  251.288129380731 20.036338635293  C 251.288129380731 20.036338635293  251.842664127585 23.3284789828538  251.842664127585 23.3284789828538  C 251.842664127585 23.3284789828538  258.380387764131 23.8562596956033  258.380387764131 23.8562596956033  Z M 177.212423109543 19.3506563158597  C 177.212423109543 19.3506563158597  175.875500229752 22.127994164919  175.875500229752 22.127994164919  C 175.875500229752 22.127994164919  184.506476685734 27.7043002201175  184.506476685734 27.7043002201175  C 184.506476685734 27.7043002201175  175.386850799356 28.415938968046  175.386850799356 28.415938968046  C 175.386850799356 28.415938968046  172.817323457499 32.5213807418114  172.817323457499 32.5213807418114  C 172.817323457499 32.5213807418114  173.152240482826 39.5523114402069  173.152240482826 39.5523114402069  C 173.152240482826 39.5523114402069  165.751123267391 43.6728944639278  165.751123267391 43.6728944639278  C 165.751123267391 43.6728944639278  165.54797687498 49.6753185536001  165.54797687498 49.6753185536001  C 165.54797687498 49.6753185536001  162.580392412856 58.9028288838859  162.580392412856 58.9028288838859  C 162.580392412856 58.9028288838859  161.446615925476 56.7549344258518  161.446615925476 56.7549344258518  C 161.446615925476 56.7549344258518  152.700340165693 59.4717072750872  152.700340165693 59.4717072750872  C 152.700340165693 59.4717072750872  149.653144279516 55.7794053215481  149.653144279516 55.7794053215481  C 149.653144279516 55.7794053215481  142.171064440406 55.4376456796858  142.171064440406 55.4376456796858  C 142.171064440406 55.4376456796858  138.333244756735 53.5038917567427  138.333244756735 53.5038917567427  C 138.333244756735 53.5038917567427  129.183421433647 55.6734165718567  129.183421433647 55.6734165718567  C 129.183421433647 55.6734165718567  126.375059819629 52.7533183660699  126.375059819629 52.7533183660699  C 126.375059819629 52.7533183660699  121.334833110602 53.0864258651004  121.334833110602 53.0864258651004  C 121.334833110602 53.0864258651004  114.987880958493 52.3899283671278  114.987880958493 52.3899283671278  C 114.987880958493 52.3899283671278  113.810180926808 44.3045008906608  113.810180926808 44.3045008906608  C 113.810180926808 44.3045008906608  109.969616021618 42.6303112526764  109.969616021618 42.6303112526764  C 109.969616021618 42.6303112526764  106.274547856938 37.4757971605363  106.274547856938 37.4757971605363  C 106.274547856938 37.4757971605363  105.201166242979 30.6330505687359  105.201166242979 30.6330505687359  C 105.201166242979 30.6330505687359  106.096108458198 25.0502554064134  106.096108458198 25.0502554064134  C 106.096108458198 25.0502554064134  110.669647508983 21.0443132752158  110.669647508983 21.0443132752158  C 110.669647508983 21.0443132752158  111.957156401431 25.0718857634936  111.957156401431 25.0718857634936  C 111.957156401431 25.0718857634936  117.219746053504 28.4765039678698  117.219746053504 28.4765039678698  C 117.219746053504 28.4765039678698  122.185851781517 27.2522257571477  122.185851781517 27.2522257571477  C 122.185851781517 27.2522257571477  127.099798300666 27.6869959344534  127.099798300666 27.6869959344534  C 127.099798300666 27.6869959344534  131.58549026284 24.6392786218957  131.58549026284 24.6392786218957  C 131.58549026284 24.6392786218957  135.277813206001 24.1114979091458  135.277813206001 24.1114979091458  C 135.277813206001 24.1114979091458  142.558140674597 25.8008287970862  142.558140674597 25.8008287970862  C 142.558140674597 25.8008287970862  150.830844311201 24.5159855865402  150.830844311201 24.5159855865402  C 150.830844311201 24.5159855865402  154.778472855636 16.1320591823707  154.778472855636 16.1320591823707  C 154.778472855636 16.1320591823707  157.740566874721 14.0339145456202  157.740566874721 14.0339145456202  C 157.740566874721 14.0339145456202  160.408922191265 7.16627617275179  160.408922191265 7.16627617275179  C 160.408922191265 7.16627617275179  169.259516368773 7.16843920845966  169.259516368773 7.16843920845966  C 169.259516368773 7.16843920845966  175.930404660133 8.18722902692298  175.930404660133 8.18722902692298  C 175.930404660133 8.18722902692298  171.551776337204 13.640242046766  171.551776337204 13.640242046766  C 171.551776337204 13.640242046766  177.212423109543 19.3506563158597  177.212423109543 19.3506563158597  Z M 83.37251592289 60.6765181644378  C 83.37251592289 60.6765181644378  83.0623058912343 70.0294845657869  83.0623058912343 70.0294845657869  C 83.0623058912343 70.0294845657869  74.5411382960152 70.1571036725582  74.5411382960152 70.1571036725582  C 74.5411382960152 70.1571036725582  68.0596702894713 65.0977631515695  68.0596702894713 65.0977631515695  C 68.0596702894713 65.0977631515695  58.1741275992704 60.1595526302284  58.1741275992704 60.1595526302284  C 58.1741275992704 60.1595526302284  54.8798617763762 56.4996962123089  54.8798617763762 56.4996962123089  C 54.8798617763762 56.4996962123089  49.0545017128922 51.5874421194637  49.0545017128922 51.5874421194637  C 49.0545017128922 51.5874421194637  45.2304081368161 47.0688605254725  45.2304081368161 47.0688605254725  C 45.2304081368161 47.0688605254725  37.3804686141496 38.633021264311  37.3804686141496 38.633021264311  C 37.3804686141496 38.633021264311  30.621733234179 32.0411868146377  30.621733234179 32.0411868146377  C 30.621733234179 32.0411868146377  28.3596707024586 26.8607162940013  28.3596707024586 26.8607162940013  C 28.3596707024586 26.8607162940013  25.5238568732509 22.1561136291232  25.5238568732509 22.1561136291232  C 25.5238568732509 22.1561136291232  18.5839368730206 18.3599859616006  18.5839368730206 18.3599859616006  C 18.5839368730206 18.3599859616006  14.559442126052 13.1989827623362  14.559442126052 13.1989827623362  C 14.559442126052 13.1989827623362  8.76427949927772 9.81815795074772  8.76427949927772 9.81815795074772  C 8.76427949927772 9.81815795074772  0.7345065559737 3.16033404155457  0.7345065559737 3.16033404155457  C 0.7345065559737 3.16033404155457  0.0591820622803412 0.0801711933765351  0.0591820622803412 0.0801711933765351  C 0.0591820622803412 0.0801711933765351  5.01705212573588 0.324594228379315  5.01705212573588 0.324594228379315  C 5.01705212573588 0.324594228379315  16.9313135185358 1.49479654640199  16.9313135185358 1.49479654640199  C 16.9313135185358 1.49479654640199  23.736717664331 7.40637313633881  23.736717664331 7.40637313633881  C 23.736717664331 7.40637313633881  29.6911031392119 11.500999731564  29.6911031392119 11.500999731564  C 29.6911031392119 11.500999731564  33.9352156077071 14.0122841885404  33.9352156077071 14.0122841885404  C 33.9352156077071 14.0122841885404  41.2265239623791 20.4949022053868  41.2265239623791 20.4949022053868  C 41.2265239623791 20.4949022053868  51.0475325357432 20.5879127408302  51.0475325357432 20.5879127408302  C 51.0475325357432 20.5879127408302  57.5125292131726 24.7171479073833  57.5125292131726 24.7171479073833  C 57.5125292131726 24.7171479073833  61.9680237386369 29.7635102141244  61.9680237386369 29.7635102141244  C 61.9680237386369 29.7635102141244  67.8290716818693 32.5148916346877  67.8290716818693 32.5148916346877  C 67.8290716818693 32.5148916346877  64.7461879159441 39.0050634060854  64.7461879159441 39.0050634060854  C 64.7461879159441 39.0050634060854  69.1550136755838 41.0967189357119  69.1550136755838 41.0967189357119  C 69.1550136755838 41.0967189357119  71.9194517452955 41.2502944709791  71.9194517452955 41.2502944709791  C 71.9194517452955 41.2502944709791  73.2261771883769 45.453072851604  73.2261771883769 45.453072851604  C 73.2261771883769 45.453072851604  75.908258612516 48.8165933775284  75.908258612516 48.8165933775284  C 75.908258612516 48.8165933775284  81.5606697202984 49.3508631974019  81.5606697202984 49.3508631974019  C 81.5606697202984 49.3508631974019  85.3051518723213 53.1686212220044  85.3051518723213 53.1686212220044  C 85.3051518723213 53.1686212220044  83.37251592289 60.6765181644378  83.37251592289 60.6765181644378  Z " fill-rule="nonzero" fill="#f2f2f2" stroke="none" transform="matrix(1 0 0 1 2526 2000 )" />
    <path d="M 198.194151179859 95.0796011000195  C 198.194151179859 95.0796011000195  197.735699186172 96.7321603809241  197.735699186172 96.7321603809241  C 197.735699186172 96.7321603809241  194.49633779366 96.8489643091553  194.49633779366 96.8489643091553  C 194.49633779366 96.8489643091553  182.286986498698 90.9925620001985  182.286986498698 90.9925620001985  C 182.286986498698 90.9925620001985  191.457377572041 89.7920771822641  191.457377572041 89.7920771822641  C 191.457377572041 89.7920771822641  195.503834091162 91.6522878911358  195.503834091162 91.6522878911358  C 195.503834091162 91.6522878911358  198.194151179859 95.0796011000195  198.194151179859 95.0796011000195  Z " stroke-width="2" stroke="#505050" fill="none" stroke-opacity="0.211764705882353" transform="matrix(1 0 0 1 2526 2000 )" mask="url(#clip669)" />
    <path d="M 231.392115010072 89.9845873602753  C 231.392115010072 89.9845873602753  226.371104851678 96.122184311271  226.371104851678 96.122184311271  C 226.371104851678 96.122184311271  217.788191183418 97.4697555573486  217.788191183418 97.4697555573486  C 217.788191183418 97.4697555573486  216.865796753008 96.734323416632  216.865796753008 96.734323416632  C 216.865796753008 96.734323416632  217.557592575815 94.6534830655457  217.557592575815 94.6534830655457  C 217.557592575815 94.6534830655457  220.868329727824 89.3529809335423  220.868329727824 89.3529809335423  C 220.868329727824 89.3529809335423  230.469720579662 86.9303809405936  230.469720579662 86.9303809405936  C 230.469720579662 86.9303809405936  231.24936349108 88.1330287942359  231.24936349108 88.1330287942359  C 231.24936349108 88.1330287942359  231.392115010072 89.9845873602753  231.392115010072 89.9845873602753  Z " stroke-width="2" stroke="#505050" fill="none" stroke-opacity="0.211764705882353" transform="matrix(1 0 0 1 2526 2000 )" mask="url(#clip669)" />
    <path d="M 172.006131909749 84.2265863056057  C 172.006131909749 84.2265863056057  174.067793270577 82.0765288118637  174.067793270577 82.0765288118637  C 174.067793270577 82.0765288118637  178.837594248838 83.6988055928562  178.837594248838 83.6988055928562  C 178.837594248838 83.6988055928562  183.592317919881 83.2013073800184  183.592317919881 83.2013073800184  C 183.592317919881 83.2013073800184  185.50024687564 87.3618896939113  185.50024687564 87.3618896939113  C 185.50024687564 87.3618896939113  176.602983932308 88.5861679046334  176.602983932308 88.5861679046334  C 176.602983932308 88.5861679046334  169.277381719786 89.4037954022536  169.277381719786 89.4037954022536  C 169.277381719786 89.4037954022536  165.140332890535 89.3562086166778  165.140332890535 89.3562086166778  C 165.140332890535 89.3562086166778  167.783981213407 84.2741730911816  167.783981213407 84.2741730911816  C 167.783981213407 84.2741730911816  172.006131909749 84.2265863056057  172.006131909749 84.2265863056057  Z " stroke-width="2" stroke="#505050" fill="none" stroke-opacity="0.211764705882353" transform="matrix(1 0 0 1 2526 2000 )" mask="url(#clip669)" />
    <path d="M 207.678891528274 84.2979664839697  C 207.678891528274 84.2979664839697  214.574887984199 82.0678766690318  214.574887984199 82.0678766690318  C 214.574887984199 82.0678766690318  213.446601939858 87.0222930877568  213.446601939858 87.0222930877568  C 213.446601939858 87.0222930877568  199.886601657509 88.752721654149  199.886601657509 88.752721654149  C 199.886601657509 88.752721654149  189.649670612866 87.9999852277683  189.649670612866 87.9999852277683  C 189.649670612866 87.9999852277683  189.622218397675 84.2006298771101  189.622218397675 84.2006298771101  C 189.622218397675 84.2006298771101  195.738571942181 82.9352539879358  195.738571942181 82.9352539879358  C 195.738571942181 82.9352539879358  200.561926151202 86.3322846969078  200.561926151202 86.3322846969078  C 200.561926151202 86.3322846969078  207.678891528274 84.2979664839697  207.678891528274 84.2979664839697  Z " stroke-width="2" stroke="#505050" fill="none" stroke-opacity="0.211764705882353" transform="matrix(1 0 0 1 2526 2000 )" mask="url(#clip669)" />
    <path d="M 101.613161717543 71.9189131271419  C 101.613161717543 71.9189131271419  102.664581559351 74.0668075851764  102.664581559351 74.0668075851764  C 102.664581559351 74.0668075851764  119.403548360792 74.6724575834135  119.403548360792 74.6724575834135  C 119.403548360792 74.6724575834135  121.100095259583 72.171988304977  121.100095259583 72.171988304977  C 121.100095259583 72.171988304977  135.377992380309 75.0899234750555  135.377992380309 75.0899234750555  C 135.377992380309 75.0899234750555  138.180863551288 80.598077035026  138.180863551288 80.598077035026  C 138.180863551288 80.598077035026  149.73001048205 81.7077143532248  149.73001048205 81.7077143532248  C 149.73001048205 81.7077143532248  159.168082064641 85.3243100569843  159.168082064641 85.3243100569843  C 159.168082064641 85.3243100569843  150.38611842511 87.6452473716576  150.38611842511 87.6452473716576  C 150.38611842511 87.6452473716576  141.922600481792 85.190201843089  141.922600481792 85.190201843089  C 141.922600481792 85.190201843089  134.955228266371 85.3567555926042  134.955228266371 85.3567555926042  C 134.955228266371 85.3567555926042  126.969378867372 84.9068441653423  126.969378867372 84.9068441653423  C 126.969378867372 84.9068441653423  119.765917601311 83.8145111328071  119.765917601311 83.8145111328071  C 119.765917601311 83.8145111328071  108.855056084872 81.4914107824259  108.855056084872 81.4914107824259  C 108.855056084872 81.4914107824259  103.20264497709 80.8900868556046  103.20264497709 80.8900868556046  C 103.20264497709 80.8900868556046  100.001716685845 81.6514754248171  100.001716685845 81.6514754248171  C 100.001716685845 81.6514754248171  85.9653990587972 79.1488431106727  85.9653990587972 79.1488431106727  C 85.9653990587972 79.1488431106727  84.6312214005255 74.9666304397  84.6312214005255 74.9666304397  C 84.6312214005255 74.9666304397  77.5897282040895 74.5210450838542  77.5897282040895 74.5210450838542  C 77.5897282040895 74.5210450838542  82.8715344067959 68.7284354578567  82.8715344067959 68.7284354578567  C 82.8715344067959 68.7284354578567  92.2080327931809 69.0874993853832  92.2080327931809 69.0874993853832  C 92.2080327931809 69.0874993853832  98.4232143123744 71.4560234856324  98.4232143123744 71.4560234856324  C 98.4232143123744 71.4560234856324  101.613161717543 71.9189131271419  101.613161717543 71.9189131271419  Z " stroke-width="2" stroke="#505050" fill="none" stroke-opacity="0.211764705882353" transform="matrix(1 0 0 1 2526 2000 )" mask="url(#clip669)" />
    <path d="M 305.587217006201 67.7658845678015  C 305.587217006201 67.7658845678015  305.565255234049 72.2249658093969  305.565255234049 72.2249658093969  C 305.565255234049 72.2249658093969  299.612263781066 76.3542009759496  299.612263781066 76.3542009759496  C 299.612263781066 76.3542009759496  298.862818306357 70.2187670606622  298.862818306357 70.2187670606622  C 298.862818306357 70.2187670606622  300.229938622858 68.040590102716  300.229938622858 68.040590102716  C 300.229938622858 68.040590102716  303.83576567703 65.9943583229575  303.83576567703 65.9943583229575  C 303.83576567703 65.9943583229575  305.587217006201 67.7658845678015  305.587217006201 67.7658845678015  Z " stroke-width="2" stroke="#505050" fill="none" stroke-opacity="0.211764705882353" transform="matrix(1 0 0 1 2526 2000 )" mask="url(#clip669)" />
    <path d="M 246.109247573851 51.999517292262  C 246.109247573851 51.999517292262  248.025412194168 53.9916731793206  248.025412194168 53.9916731793206  C 248.025412194168 53.9916731793206  245.142929599136 57.566072816348  245.142929599136 57.566072816348  C 245.142929599136 57.566072816348  237.82830827269 56.4564354981491  237.82830827269 56.4564354981491  C 237.82830827269 56.4564354981491  236.329417323273 52.2893640771327  236.329417323273 52.2893640771327  C 236.329417323273 52.2893640771327  246.109247573851 51.999517292262  246.109247573851 51.999517292262  Z " stroke-width="2" stroke="#505050" fill="none" stroke-opacity="0.211764705882353" transform="matrix(1 0 0 1 2526 2000 )" mask="url(#clip669)" />
    <path d="M 264.359480232683 50.0289917622831  C 264.359480232683 50.0289917622831  272.825743397521 51.7875397928788  272.825743397521 51.7875397928788  C 272.825743397521 51.7875397928788  275.625869346981 57.9748865651581  275.625869346981 57.9748865651581  C 275.625869346981 57.9748865651581  269.127930011323 55.4873955009695  269.127930011323 55.4873955009695  C 269.127930011323 55.4873955009695  260.70149396965 54.9834081810081  260.70149396965 54.9834081810081  C 260.70149396965 54.9834081810081  256.358553526469 55.3814067512781  256.358553526469 55.3814067512781  C 256.358553526469 55.3814067512781  251.032823779457 55.169429251895  251.032823779457 55.169429251895  C 251.032823779457 55.169429251895  252.858396089643 50.2799039044099  252.858396089643 50.2799039044099  C 252.858396089643 50.2799039044099  264.359480232683 50.0289917622831  264.359480232683 50.0289917622831  Z " stroke-width="2" stroke="#505050" fill="none" stroke-opacity="0.211764705882353" transform="matrix(1 0 0 1 2526 2000 )" mask="url(#clip669)" />
    <path d="M 297.880029002527 37.842448583467  C 297.880029002527 37.842448583467  299.096162135479 40.0790275055288  299.096162135479 40.0790275055288  C 299.096162135479 40.0790275055288  301.245670584917 49.8278294414401  301.245670584917 49.8278294414401  C 301.245670584917 49.8278294414401  309.209558211763 53.4379360380752  309.209558211763 53.4379360380752  C 309.209558211763 53.4379360380752  317.638739474955 47.0396764138407  317.638739474955 47.0396764138407  C 317.638739474955 47.0396764138407  326.47011710183 43.4014503530014  326.47011710183 43.4014503530014  C 326.47011710183 43.4014503530014  333.313954348892 43.3971242815853  333.313954348892 43.3971242815853  C 333.313954348892 43.3971242815853  339.894250330123 45.4995949897515  339.894250330123 45.4995949897515  C 339.894250330123 45.4995949897515  345.604311089806 47.6561415906178  345.604311089806 47.6561415906178  C 345.604311089806 47.6561415906178  353.867427862232 48.8090396229764  353.867427862232 48.8090396229764  C 353.867427862232 48.8090396229764  353.996453273629 70.0705822442384  353.996453273629 70.0705822442384  C 353.996453273629 70.0705822442384  354.128223906544 89.8775002223033  354.128223906544 89.8775002223033  C 354.128223906544 89.8775002223033  347.273405773406 84.8743986297227  347.273405773406 84.8743986297227  C 347.273405773406 84.8743986297227  339.455014887071 83.6501204190002  339.455014887071 83.6501204190002  C 339.455014887071 83.6501204190002  337.560812038907 85.3848750568081  337.560812038907 85.3848750568081  C 337.560812038907 85.3848750568081  327.807039981621 85.5708961276953  327.807039981621 85.5708961276953  C 327.807039981621 85.5708961276953  331.073853589325 80.6197073921062  331.073853589325 80.6197073921062  C 331.073853589325 80.6197073921062  335.921914792017 78.9325395398741  335.921914792017 78.9325395398741  C 335.921914792017 78.9325395398741  333.915157861571 72.3352806305044  333.915157861571 72.3352806305044  C 333.915157861571 72.3352806305044  330.220089696892 67.2521467167276  330.220089696892 67.2521467167276  C 330.220089696892 67.2521467167276  315.297065519182 60.5586495887786  315.297065519182 60.5586495887786  C 315.297065519182 60.5586495887786  306.952986123081 60.0546622688168  306.952986123081 60.0546622688168  C 306.952986123081 60.0546622688168  295.395603527762 54.4740301422026  295.395603527762 54.4740301422026  C 295.395603527762 54.4740301422026  293.122560109965 57.407106562237  293.122560109965 57.407106562237  C 293.122560109965 57.407106562237  290.168701755437 57.9392133464026  290.168701755437 57.9392133464026  C 290.168701755437 57.9392133464026  288.419995647784 55.7242647814207  288.419995647784 55.7242647814207  C 288.419995647784 55.7242647814207  288.395288654112 53.1026655033368  288.395288654112 53.1026655033368  C 288.395288654112 53.1026655033368  282.515024160247 50.1393065833907  282.515024160247 50.1393065833907  C 282.515024160247 50.1393065833907  290.805593147863 47.9676187325684  290.805593147863 47.9676187325684  C 290.805593147863 47.9676187325684  296.296036186019 48.0844226607999  296.296036186019 48.0844226607999  C 296.296036186019 48.0844226607999  295.650909129036 46.4837762368873  295.650909129036 46.4837762368873  C 295.650909129036 46.4837762368873  284.384520014739 46.4729610583472  284.384520014739 46.4729610583472  C 284.384520014739 46.4729610583472  281.337324128562 42.8844848187916  281.337324128562 42.8844848187916  C 281.337324128562 42.8844848187916  274.46054422327 41.7726844648849  274.46054422327 41.7726844648849  C 274.46054422327 41.7726844648849  271.201966280125 38.7920212592746  271.201966280125 38.7920212592746  C 271.201966280125 38.7920212592746  281.576158400721 37.3319721563812  281.576158400721 37.3319721563812  C 281.576158400721 37.3319721563812  285.523786945156 35.3679357335264  285.523786945156 35.3679357335264  C 285.523786945156 35.3679357335264  297.880029002527 37.842448583467  297.880029002527 37.842448583467  Z " stroke-width="2" stroke="#505050" fill="none" stroke-opacity="0.211764705882353" transform="matrix(1 0 0 1 2526 2000 )" mask="url(#clip669)" />
    <path d="M 231.219166054371 23.2397945188258  C 231.219166054371 23.2397945188258  232.564324598719 24.5873657649038  232.564324598719 24.5873657649038  C 232.564324598719 24.5873657649038  226.379340516235 30.5638334260802  226.379340516235 30.5638334260802  C 226.379340516235 30.5638334260802  220.595158775537 31.7232205655631  220.595158775537 31.7232205655631  C 220.595158775537 31.7232205655631  213.188551117064 30.5465291404164  213.188551117064 30.5465291404164  C 213.188551117064 30.5465291404164  198.365748935939 30.8471911038269  198.365748935939 30.8471911038269  C 198.365748935939 30.8471911038269  191.642701435717 31.7145684227312  191.642701435717 31.7145684227312  C 191.642701435717 31.7145684227312  190.550103271123 36.2742476951743  190.550103271123 36.2742476951743  C 190.550103271123 36.2742476951743  197.44060928401 41.6320871438656  197.44060928401 41.6320871438656  C 197.44060928401 41.6320871438656  201.596874663894 38.9023360803821  201.596874663894 38.9023360803821  C 201.596874663894 38.9023360803821  217.946020009627 36.8517782292075  217.946020009627 36.8517782292075  C 217.946020009627 36.8517782292075  217.314619060239 39.626953042559  217.314619060239 39.626953042559  C 217.314619060239 39.626953042559  213.959958363926 38.7509235808228  213.959958363926 38.7509235808228  C 213.959958363926 38.7509235808228  210.616278553688 42.2809978562628  210.616278553688 42.2809978562628  C 210.616278553688 42.2809978562628  201.846689822131 44.617076420892  201.846689822131 44.617076420892  C 201.846689822131 44.617076420892  211.124144534718 53.917031576969  211.124144534718 53.917031576969  C 211.124144534718 53.917031576969  209.71584589543 55.9892197852234  209.71584589543 55.9892197852234  C 209.71584589543 55.9892197852234  216.636549345027 62.9606838720754  216.636549345027 62.9606838720754  C 216.636549345027 62.9606838720754  216.570664028569 66.934180467653  216.570664028569 66.934180467653  C 216.570664028569 66.934180467653  212.461067414509 68.712195819621  212.461067414509 68.712195819621  C 212.461067414509 68.712195819621  209.441323743523 66.5837686829588  209.441323743523 66.5837686829588  C 209.441323743523 66.5837686829588  213.161098901874 61.6325799473694  213.161098901874 61.6325799473694  C 213.161098901874 61.6325799473694  203.611867258898 63.9729845834147  203.611867258898 63.9729845834147  C 203.611867258898 63.9729845834147  201.698447860101 62.3009579811385  201.698447860101 62.3009579811385  C 201.698447860101 62.3009579811385  202.694963271526 59.9670424522172  202.694963271526 59.9670424522172  C 202.694963271526 59.9670424522172  197.146870581469 56.4261529982374  197.146870581469 56.4261529982374  C 197.146870581469 56.4261529982374  197.717876657437 50.5470219439202  197.717876657437 50.5470219439202  C 197.717876657437 50.5470219439202  192.584312416761 52.3812762242959  192.584312416761 52.3812762242959  C 192.584312416761 52.3812762242959  193.234929916782 59.4176313823874  193.234929916782 59.4176313823874  C 193.234929916782 59.4176313823874  193.547885169957 68.06761117864  193.547885169957 68.06761117864  C 193.547885169957 68.06761117864  188.666881309036 68.945803676084  188.666881309036 68.945803676084  C 188.666881309036 68.945803676084  185.361634600066 67.1699513598239  185.361634600066 67.1699513598239  C 185.361634600066 67.1699513598239  187.568792701405 61.6044604831655  187.568792701405 61.6044604831655  C 187.568792701405 61.6044604831655  186.377366562125 55.7772422858403  186.377366562125 55.7772422858403  C 186.377366562125 55.7772422858403  183.138005169613 55.7318185359727  183.138005169613 55.7318185359727  C 183.138005169613 55.7318185359727  180.746917226496 51.5982572980035  180.746917226496 51.5982572980035  C 180.746917226496 51.5982572980035  183.928628967107 47.6485540952136  183.928628967107 47.6485540952136  C 183.928628967107 47.6485540952136  185.023972353219 41.2924905377112  185.023972353219 41.2924905377112  C 185.023972353219 41.2924905377112  188.891989473601 32.2099035998608  188.891989473601 32.2099035998608  C 188.891989473601 32.2099035998608  190.506179726819 29.7267386070883  190.506179726819 29.7267386070883  C 190.506179726819 29.7267386070883  197.050787828302 25.2514177272568  197.050787828302 25.2514177272568  C 197.050787828302 25.2514177272568  203.060077733564 27.0315961149323  203.060077733564 27.0315961149323  C 203.060077733564 27.0315961149323  214.758817825977 27.8686909339245  214.758817825977 27.8686909339245  C 214.758817825977 27.8686909339245  223.612157225005 27.6156157560899  223.612157225005 27.6156157560899  C 223.612157225005 27.6156157560899  231.219166054371 23.2397945188258  231.219166054371 23.2397945188258  Z " stroke-width="2" stroke="#505050" fill="none" stroke-opacity="0.211764705882353" transform="matrix(1 0 0 1 2526 2000 )" mask="url(#clip669)" />
    <path d="M 258.380387764131 23.8562596956033  C 258.380387764131 23.8562596956033  259.102381023649 26.3177943312959  259.102381023649 26.3177943312959  C 259.102381023649 26.3177943312959  258.701578681864 33.1540518159724  258.701578681864 33.1540518159724  C 258.701578681864 33.1540518159724  254.731988365276 32.5657061033991  254.731988365276 32.5657061033991  C 254.731988365276 32.5657061033991  251.565396754157 36.2320516284422  251.565396754157 36.2320516284422  C 251.565396754157 36.2320516284422  256.730509631165 39.4117141191877  256.730509631165 39.4117141191877  C 256.730509631165 39.4117141191877  254.575510738689 40.1341680456563  254.575510738689 40.1341680456563  C 254.575510738689 40.1341680456563  249.47353795662 36.3185730567616  249.47353795662 36.3185730567616  C 249.47353795662 36.3185730567616  247.186768431228 27.0445743291806  247.186768431228 27.0445743291806  C 247.186768431228 27.0445743291806  248.735073367988 22.2296568431947  248.735073367988 22.2296568431947  C 248.735073367988 22.2296568431947  251.288129380731 20.036338635293  251.288129380731 20.036338635293  C 251.288129380731 20.036338635293  251.842664127585 23.3284789828538  251.842664127585 23.3284789828538  C 251.842664127585 23.3284789828538  258.380387764131 23.8562596956033  258.380387764131 23.8562596956033  Z " stroke-width="2" stroke="#505050" fill="none" stroke-opacity="0.211764705882353" transform="matrix(1 0 0 1 2526 2000 )" mask="url(#clip669)" />
    <path d="M 177.212423109543 19.3506563158597  C 177.212423109543 19.3506563158597  175.875500229752 22.127994164919  175.875500229752 22.127994164919  C 175.875500229752 22.127994164919  184.506476685734 27.7043002201175  184.506476685734 27.7043002201175  C 184.506476685734 27.7043002201175  175.386850799356 28.415938968046  175.386850799356 28.415938968046  C 175.386850799356 28.415938968046  172.817323457499 32.5213807418114  172.817323457499 32.5213807418114  C 172.817323457499 32.5213807418114  173.152240482826 39.5523114402069  173.152240482826 39.5523114402069  C 173.152240482826 39.5523114402069  165.751123267391 43.6728944639278  165.751123267391 43.6728944639278  C 165.751123267391 43.6728944639278  165.54797687498 49.6753185536001  165.54797687498 49.6753185536001  C 165.54797687498 49.6753185536001  162.580392412856 58.9028288838859  162.580392412856 58.9028288838859  C 162.580392412856 58.9028288838859  161.446615925476 56.7549344258518  161.446615925476 56.7549344258518  C 161.446615925476 56.7549344258518  152.700340165693 59.4717072750872  152.700340165693 59.4717072750872  C 152.700340165693 59.4717072750872  149.653144279516 55.7794053215481  149.653144279516 55.7794053215481  C 149.653144279516 55.7794053215481  142.171064440406 55.4376456796858  142.171064440406 55.4376456796858  C 142.171064440406 55.4376456796858  138.333244756735 53.5038917567427  138.333244756735 53.5038917567427  C 138.333244756735 53.5038917567427  129.183421433647 55.6734165718567  129.183421433647 55.6734165718567  C 129.183421433647 55.6734165718567  126.375059819629 52.7533183660699  126.375059819629 52.7533183660699  C 126.375059819629 52.7533183660699  121.334833110602 53.0864258651004  121.334833110602 53.0864258651004  C 121.334833110602 53.0864258651004  114.987880958493 52.3899283671278  114.987880958493 52.3899283671278  C 114.987880958493 52.3899283671278  113.810180926808 44.3045008906608  113.810180926808 44.3045008906608  C 113.810180926808 44.3045008906608  109.969616021618 42.6303112526764  109.969616021618 42.6303112526764  C 109.969616021618 42.6303112526764  106.274547856938 37.4757971605363  106.274547856938 37.4757971605363  C 106.274547856938 37.4757971605363  105.201166242979 30.6330505687359  105.201166242979 30.6330505687359  C 105.201166242979 30.6330505687359  106.096108458198 25.0502554064134  106.096108458198 25.0502554064134  C 106.096108458198 25.0502554064134  110.669647508983 21.0443132752158  110.669647508983 21.0443132752158  C 110.669647508983 21.0443132752158  111.957156401431 25.0718857634936  111.957156401431 25.0718857634936  C 111.957156401431 25.0718857634936  117.219746053504 28.4765039678698  117.219746053504 28.4765039678698  C 117.219746053504 28.4765039678698  122.185851781517 27.2522257571477  122.185851781517 27.2522257571477  C 122.185851781517 27.2522257571477  127.099798300666 27.6869959344534  127.099798300666 27.6869959344534  C 127.099798300666 27.6869959344534  131.58549026284 24.6392786218957  131.58549026284 24.6392786218957  C 131.58549026284 24.6392786218957  135.277813206001 24.1114979091458  135.277813206001 24.1114979091458  C 135.277813206001 24.1114979091458  142.558140674597 25.8008287970862  142.558140674597 25.8008287970862  C 142.558140674597 25.8008287970862  150.830844311201 24.5159855865402  150.830844311201 24.5159855865402  C 150.830844311201 24.5159855865402  154.778472855636 16.1320591823707  154.778472855636 16.1320591823707  C 154.778472855636 16.1320591823707  157.740566874721 14.0339145456202  157.740566874721 14.0339145456202  C 157.740566874721 14.0339145456202  160.408922191265 7.16627617275179  160.408922191265 7.16627617275179  C 160.408922191265 7.16627617275179  169.259516368773 7.16843920845966  169.259516368773 7.16843920845966  C 169.259516368773 7.16843920845966  175.930404660133 8.18722902692298  175.930404660133 8.18722902692298  C 175.930404660133 8.18722902692298  171.551776337204 13.640242046766  171.551776337204 13.640242046766  C 171.551776337204 13.640242046766  177.212423109543 19.3506563158597  177.212423109543 19.3506563158597  Z " stroke-width="2" stroke="#505050" fill="none" stroke-opacity="0.211764705882353" transform="matrix(1 0 0 1 2526 2000 )" mask="url(#clip669)" />
    <path d="M 83.37251592289 60.6765181644378  C 83.37251592289 60.6765181644378  83.0623058912343 70.0294845657869  83.0623058912343 70.0294845657869  C 83.0623058912343 70.0294845657869  74.5411382960152 70.1571036725582  74.5411382960152 70.1571036725582  C 74.5411382960152 70.1571036725582  68.0596702894713 65.0977631515695  68.0596702894713 65.0977631515695  C 68.0596702894713 65.0977631515695  58.1741275992704 60.1595526302284  58.1741275992704 60.1595526302284  C 58.1741275992704 60.1595526302284  54.8798617763762 56.4996962123089  54.8798617763762 56.4996962123089  C 54.8798617763762 56.4996962123089  49.0545017128922 51.5874421194637  49.0545017128922 51.5874421194637  C 49.0545017128922 51.5874421194637  45.2304081368161 47.0688605254725  45.2304081368161 47.0688605254725  C 45.2304081368161 47.0688605254725  37.3804686141496 38.633021264311  37.3804686141496 38.633021264311  C 37.3804686141496 38.633021264311  30.621733234179 32.0411868146377  30.621733234179 32.0411868146377  C 30.621733234179 32.0411868146377  28.3596707024586 26.8607162940013  28.3596707024586 26.8607162940013  C 28.3596707024586 26.8607162940013  25.5238568732509 22.1561136291232  25.5238568732509 22.1561136291232  C 25.5238568732509 22.1561136291232  18.5839368730206 18.3599859616006  18.5839368730206 18.3599859616006  C 18.5839368730206 18.3599859616006  14.559442126052 13.1989827623362  14.559442126052 13.1989827623362  C 14.559442126052 13.1989827623362  8.76427949927772 9.81815795074772  8.76427949927772 9.81815795074772  C 8.76427949927772 9.81815795074772  0.7345065559737 3.16033404155457  0.7345065559737 3.16033404155457  C 0.7345065559737 3.16033404155457  0.0591820622803412 0.0801711933765351  0.0591820622803412 0.0801711933765351  C 0.0591820622803412 0.0801711933765351  5.01705212573588 0.324594228379315  5.01705212573588 0.324594228379315  C 5.01705212573588 0.324594228379315  16.9313135185358 1.49479654640199  16.9313135185358 1.49479654640199  C 16.9313135185358 1.49479654640199  23.736717664331 7.40637313633881  23.736717664331 7.40637313633881  C 23.736717664331 7.40637313633881  29.6911031392119 11.500999731564  29.6911031392119 11.500999731564  C 29.6911031392119 11.500999731564  33.9352156077071 14.0122841885404  33.9352156077071 14.0122841885404  C 33.9352156077071 14.0122841885404  41.2265239623791 20.4949022053868  41.2265239623791 20.4949022053868  C 41.2265239623791 20.4949022053868  51.0475325357432 20.5879127408302  51.0475325357432 20.5879127408302  C 51.0475325357432 20.5879127408302  57.5125292131726 24.7171479073833  57.5125292131726 24.7171479073833  C 57.5125292131726 24.7171479073833  61.9680237386369 29.7635102141244  61.9680237386369 29.7635102141244  C 61.9680237386369 29.7635102141244  67.8290716818693 32.5148916346877  67.8290716818693 32.5148916346877  C 67.8290716818693 32.5148916346877  64.7461879159441 39.0050634060854  64.7461879159441 39.0050634060854  C 64.7461879159441 39.0050634060854  69.1550136755838 41.0967189357119  69.1550136755838 41.0967189357119  C 69.1550136755838 41.0967189357119  71.9194517452955 41.2502944709791  71.9194517452955 41.2502944709791  C 71.9194517452955 41.2502944709791  73.2261771883769 45.453072851604  73.2261771883769 45.453072851604  C 73.2261771883769 45.453072851604  75.908258612516 48.8165933775284  75.908258612516 48.8165933775284  C 75.908258612516 48.8165933775284  81.5606697202984 49.3508631974019  81.5606697202984 49.3508631974019  C 81.5606697202984 49.3508631974019  85.3051518723213 53.1686212220044  85.3051518723213 53.1686212220044  C 85.3051518723213 53.1686212220044  83.37251592289 60.6765181644378  83.37251592289 60.6765181644378  Z " stroke-width="2" stroke="#505050" fill="none" stroke-opacity="0.211764705882353" transform="matrix(1 0 0 1 2526 2000 )" mask="url(#clip669)" />
  </g>
</svg>