<?xml version="1.0" encoding="utf-8"?>
<svg version="1.1" xmlns:xlink="http://www.w3.org/1999/xlink" width="35px" height="38px" xmlns="http://www.w3.org/2000/svg">
  <defs>
    <mask fill="white" id="clip670">
      <path d="M 27.6176530059556 11.4272325223779  C 27.6176530059556 11.4272325223779  33.6227375138785 13.5630664176767  33.6227375138785 13.5630664176767  C 33.6227375138785 13.5630664176767  34.9320103041856 22.4692588206054  34.9320103041856 22.4692588206054  C 34.9320103041856 22.4692588206054  28.9269257962627 31.4550171372548  28.9269257962627 31.4550171372548  C 28.9269257962627 31.4550171372548  12.7835010377917 37.3002278588782  12.7835010377917 37.3002278588782  C 12.7835010377917 37.3002278588782  1.53565752106394 35.8116823991956  1.53565752106394 35.8116823991956  C 1.53565752106394 35.8116823991956  7.97716629242249 25.3940436037593  7.97716629242249 25.3940436037593  C 7.97716629242249 25.3940436037593  3.82830186599533 13.4214039654375  3.82830186599533 13.4214039654375  C 3.82830186599533 13.4214039654375  14.6368871954988 5.24203191538048  14.6368871954988 5.24203191538048  C 14.6368871954988 5.24203191538048  22.7007952328335 0.29038435403487  22.7007952328335 0.29038435403487  C 22.7007952328335 0.29038435403487  24.3416371063999 5.96560013297142  24.3416371063999 5.96560013297142  C 24.3416371063999 5.96560013297142  22.7007952328335 11.5688949746171  22.7007952328335 11.5688949746171  C 22.7007952328335 11.5688949746171  27.6176530059556 11.4272325223779  27.6176530059556 11.4272325223779  Z " fill-rule="evenodd" />
    </mask>
  </defs>
  <g transform="matrix(1 0 0 1 -1714 -1637 )">
    <path d="M 27.6176530059556 11.4272325223779  C 27.6176530059556 11.4272325223779  33.6227375138785 13.5630664176767  33.6227375138785 13.5630664176767  C 33.6227375138785 13.5630664176767  34.9320103041856 22.4692588206054  34.9320103041856 22.4692588206054  C 34.9320103041856 22.4692588206054  28.9269257962627 31.4550171372548  28.9269257962627 31.4550171372548  C 28.9269257962627 31.4550171372548  12.7835010377917 37.3002278588782  12.7835010377917 37.3002278588782  C 12.7835010377917 37.3002278588782  1.53565752106394 35.8116823991956  1.53565752106394 35.8116823991956  C 1.53565752106394 35.8116823991956  7.97716629242249 25.3940436037593  7.97716629242249 25.3940436037593  C 7.97716629242249 25.3940436037593  3.82830186599533 13.4214039654375  3.82830186599533 13.4214039654375  C 3.82830186599533 13.4214039654375  14.6368871954988 5.24203191538048  14.6368871954988 5.24203191538048  C 14.6368871954988 5.24203191538048  22.7007952328335 0.29038435403487  22.7007952328335 0.29038435403487  C 22.7007952328335 0.29038435403487  24.3416371063999 5.96560013297142  24.3416371063999 5.96560013297142  C 24.3416371063999 5.96560013297142  22.7007952328335 11.5688949746171  22.7007952328335 11.5688949746171  C 22.7007952328335 11.5688949746171  27.6176530059556 11.4272325223779  27.6176530059556 11.4272325223779  Z " fill-rule="nonzero" fill="#f2f2f2" stroke="none" transform="matrix(1 0 0 1 1714 1637 )" />
    <path d="M 27.6176530059556 11.4272325223779  C 27.6176530059556 11.4272325223779  33.6227375138785 13.5630664176767  33.6227375138785 13.5630664176767  C 33.6227375138785 13.5630664176767  34.9320103041856 22.4692588206054  34.9320103041856 22.4692588206054  C 34.9320103041856 22.4692588206054  28.9269257962627 31.4550171372548  28.9269257962627 31.4550171372548  C 28.9269257962627 31.4550171372548  12.7835010377917 37.3002278588782  12.7835010377917 37.3002278588782  C 12.7835010377917 37.3002278588782  1.53565752106394 35.8116823991956  1.53565752106394 35.8116823991956  C 1.53565752106394 35.8116823991956  7.97716629242249 25.3940436037593  7.97716629242249 25.3940436037593  C 7.97716629242249 25.3940436037593  3.82830186599533 13.4214039654375  3.82830186599533 13.4214039654375  C 3.82830186599533 13.4214039654375  14.6368871954988 5.24203191538048  14.6368871954988 5.24203191538048  C 14.6368871954988 5.24203191538048  22.7007952328335 0.29038435403487  22.7007952328335 0.29038435403487  C 22.7007952328335 0.29038435403487  24.3416371063999 5.96560013297142  24.3416371063999 5.96560013297142  C 24.3416371063999 5.96560013297142  22.7007952328335 11.5688949746171  22.7007952328335 11.5688949746171  C 22.7007952328335 11.5688949746171  27.6176530059556 11.4272325223779  27.6176530059556 11.4272325223779  Z " stroke-width="2" stroke="#505050" fill="none" stroke-opacity="0.211764705882353" transform="matrix(1 0 0 1 1714 1637 )" mask="url(#clip670)" />
  </g>
</svg>