<?xml version="1.0" encoding="utf-8"?>
<svg version="1.1" xmlns:xlink="http://www.w3.org/1999/xlink" width="16px" height="29px" xmlns="http://www.w3.org/2000/svg">
  <defs>
    <mask fill="white" id="clip671">
      <path d="M 14.0736810202238 4.79994654261734  C 14.0736810202238 4.79994654261734  14.2195876107085 4.84826813936658  14.2195876107085 4.84826813936658  C 14.2195876107085 4.84826813936658  12.876145796437 7.03954750499828  12.876145796437 7.03954750499828  C 12.876145796437 7.03954750499828  10.0818969409333 6.07731744799037  10.0818969409333 6.07731744799037  C 10.0818969409333 6.07731744799037  6.46866558199235 10.6909794680548  6.46866558199235 10.6909794680548  C 6.46866558199235 10.6909794680548  10.4067455763516 11.4662259550328  10.4067455763516 11.4662259550328  C 10.4067455763516 11.4662259550328  6.43563012754248 12.413749439117  6.43563012754248 12.413749439117  C 6.43563012754248 12.413749439117  6.10252262851236 15.7489736982062  6.10252262851236 15.7489736982062  C 6.10252262851236 15.7489736982062  11.7309167088611 13.291941936561  11.7309167088611 13.291941936561  C 11.7309167088611 13.291941936561  11.912611708332 17.486450242192  11.912611708332 17.486450242192  C 11.912611708332 17.486450242192  6.06673421952564 28.3399010598849  6.06673421952564 28.3399010598849  C 6.06673421952564 28.3399010598849  0.993039007019888 16.6691849754322  0.993039007019888 16.6691849754322  C 0.993039007019888 16.6691849754322  3.23944990957261 12.8801578946974  3.23944990957261 12.8801578946974  C 3.23944990957261 12.8801578946974  2.71363559292149 12.4893832427246  2.71363559292149 12.4893832427246  C 2.71363559292149 12.4893832427246  4.75357490516581 9.26444189445566  4.75357490516581 9.26444189445566  C 4.75357490516581 9.26444189445566  6.32000603697043 4.02470005563918  6.32000603697043 4.02470005563918  C 6.32000603697043 4.02470005563918  9.42394080648455 2.2536084878275  9.42394080648455 2.2536084878275  C 9.42394080648455 2.2536084878275  9.63591830586756 2.18217656219813  9.63591830586756 2.18217656219813  C 9.63591830586756 2.18217656219813  12.2209426165255 2.19478219613277  12.2209426165255 2.19478219613277  C 12.2209426165255 2.19478219613277  12.9312048871857 0.967833826498155  12.9312048871857 0.967833826498155  C 12.9312048871857 0.967833826498155  15.0014266993421 0.875392510977732  15.0014266993421 0.875392510977732  C 15.0014266993421 0.875392510977732  15.1198037444519 3.73897235312159  15.1198037444519 3.73897235312159  C 15.1198037444519 3.73897235312159  14.0736810202238 4.79994654261734  14.0736810202238 4.79994654261734  Z " fill-rule="evenodd" />
    </mask>
  </defs>
  <g transform="matrix(1 0 0 1 -2056 -1820 )">
    <path d="M 14.0736810202238 4.79994654261734  C 14.0736810202238 4.79994654261734  14.2195876107085 4.84826813936658  14.2195876107085 4.84826813936658  C 14.2195876107085 4.84826813936658  12.876145796437 7.03954750499828  12.876145796437 7.03954750499828  C 12.876145796437 7.03954750499828  10.0818969409333 6.07731744799037  10.0818969409333 6.07731744799037  C 10.0818969409333 6.07731744799037  6.46866558199235 10.6909794680548  6.46866558199235 10.6909794680548  C 6.46866558199235 10.6909794680548  10.4067455763516 11.4662259550328  10.4067455763516 11.4662259550328  C 10.4067455763516 11.4662259550328  6.43563012754248 12.413749439117  6.43563012754248 12.413749439117  C 6.43563012754248 12.413749439117  6.10252262851236 15.7489736982062  6.10252262851236 15.7489736982062  C 6.10252262851236 15.7489736982062  11.7309167088611 13.291941936561  11.7309167088611 13.291941936561  C 11.7309167088611 13.291941936561  11.912611708332 17.486450242192  11.912611708332 17.486450242192  C 11.912611708332 17.486450242192  6.06673421952564 28.3399010598849  6.06673421952564 28.3399010598849  C 6.06673421952564 28.3399010598849  0.993039007019888 16.6691849754322  0.993039007019888 16.6691849754322  C 0.993039007019888 16.6691849754322  3.23944990957261 12.8801578946974  3.23944990957261 12.8801578946974  C 3.23944990957261 12.8801578946974  2.71363559292149 12.4893832427246  2.71363559292149 12.4893832427246  C 2.71363559292149 12.4893832427246  4.75357490516581 9.26444189445566  4.75357490516581 9.26444189445566  C 4.75357490516581 9.26444189445566  6.32000603697043 4.02470005563918  6.32000603697043 4.02470005563918  C 6.32000603697043 4.02470005563918  9.42394080648455 2.2536084878275  9.42394080648455 2.2536084878275  C 9.42394080648455 2.2536084878275  9.63591830586756 2.18217656219813  9.63591830586756 2.18217656219813  C 9.63591830586756 2.18217656219813  12.2209426165255 2.19478219613277  12.2209426165255 2.19478219613277  C 12.2209426165255 2.19478219613277  12.9312048871857 0.967833826498155  12.9312048871857 0.967833826498155  C 12.9312048871857 0.967833826498155  15.0014266993421 0.875392510977732  15.0014266993421 0.875392510977732  C 15.0014266993421 0.875392510977732  15.1198037444519 3.73897235312159  15.1198037444519 3.73897235312159  C 15.1198037444519 3.73897235312159  14.0736810202238 4.79994654261734  14.0736810202238 4.79994654261734  Z " fill-rule="nonzero" fill="#f2f2f2" stroke="none" transform="matrix(1 0 0 1 2056 1820 )" />
    <path d="M 14.0736810202238 4.79994654261734  C 14.0736810202238 4.79994654261734  14.2195876107085 4.84826813936658  14.2195876107085 4.84826813936658  C 14.2195876107085 4.84826813936658  12.876145796437 7.03954750499828  12.876145796437 7.03954750499828  C 12.876145796437 7.03954750499828  10.0818969409333 6.07731744799037  10.0818969409333 6.07731744799037  C 10.0818969409333 6.07731744799037  6.46866558199235 10.6909794680548  6.46866558199235 10.6909794680548  C 6.46866558199235 10.6909794680548  10.4067455763516 11.4662259550328  10.4067455763516 11.4662259550328  C 10.4067455763516 11.4662259550328  6.43563012754248 12.413749439117  6.43563012754248 12.413749439117  C 6.43563012754248 12.413749439117  6.10252262851236 15.7489736982062  6.10252262851236 15.7489736982062  C 6.10252262851236 15.7489736982062  11.7309167088611 13.291941936561  11.7309167088611 13.291941936561  C 11.7309167088611 13.291941936561  11.912611708332 17.486450242192  11.912611708332 17.486450242192  C 11.912611708332 17.486450242192  6.06673421952564 28.3399010598849  6.06673421952564 28.3399010598849  C 6.06673421952564 28.3399010598849  0.993039007019888 16.6691849754322  0.993039007019888 16.6691849754322  C 0.993039007019888 16.6691849754322  3.23944990957261 12.8801578946974  3.23944990957261 12.8801578946974  C 3.23944990957261 12.8801578946974  2.71363559292149 12.4893832427246  2.71363559292149 12.4893832427246  C 2.71363559292149 12.4893832427246  4.75357490516581 9.26444189445566  4.75357490516581 9.26444189445566  C 4.75357490516581 9.26444189445566  6.32000603697043 4.02470005563918  6.32000603697043 4.02470005563918  C 6.32000603697043 4.02470005563918  9.42394080648455 2.2536084878275  9.42394080648455 2.2536084878275  C 9.42394080648455 2.2536084878275  9.63591830586756 2.18217656219813  9.63591830586756 2.18217656219813  C 9.63591830586756 2.18217656219813  12.2209426165255 2.19478219613277  12.2209426165255 2.19478219613277  C 12.2209426165255 2.19478219613277  12.9312048871857 0.967833826498155  12.9312048871857 0.967833826498155  C 12.9312048871857 0.967833826498155  15.0014266993421 0.875392510977732  15.0014266993421 0.875392510977732  C 15.0014266993421 0.875392510977732  15.1198037444519 3.73897235312159  15.1198037444519 3.73897235312159  C 15.1198037444519 3.73897235312159  14.0736810202238 4.79994654261734  14.0736810202238 4.79994654261734  Z " stroke-width="2" stroke="#505050" fill="none" stroke-opacity="0.211764705882353" transform="matrix(1 0 0 1 2056 1820 )" mask="url(#clip671)" />
  </g>
</svg>