<?xml version="1.0" encoding="utf-8"?>
<svg version="1.1" xmlns:xlink="http://www.w3.org/1999/xlink" width="80px" height="62px" xmlns="http://www.w3.org/2000/svg">
  <defs>
    <mask fill="white" id="clip672">
      <path d="M 50.0978326345962 1.94796251482425  C 50.0978326345962 1.94796251482425  55.0971980745908 10.7936183868057  55.0971980745908 10.7936183868057  C 55.0971980745908 10.7936183868057  60.159881468946 12.9996985053848  60.159881468946 12.9996985053848  C 60.159881468946 12.9996985053848  60.7435078308836 17.2667780384197  60.7435078308836 17.2667780384197  C 60.7435078308836 17.2667780384197  56.8590889785532 19.7736872640778  56.8590889785532 19.7736872640778  C 56.8590889785532 19.7736872640778  55.0696685292164 25.4019651681508  55.0696685292164 25.4019651681508  C 55.0696685292164 25.4019651681508  60.4159062409285 33.7387551654428  60.4159062409285 33.7387551654428  C 60.4159062409285 33.7387551654428  69.8723050770413 37.6196640007381  69.8723050770413 37.6196640007381  C 69.8723050770413 37.6196640007381  73.8448184745698 42.9599140363313  73.8448184745698 42.9599140363313  C 73.8448184745698 42.9599140363313  72.5812123418841 48.0078691239115  72.5812123418841 48.0078691239115  C 72.5812123418841 48.0078691239115  75.0451066528944 48.0057355841451  75.0451066528944 48.0057355841451  C 75.0451066528944 48.0057355841451  75.1221893799429 51.6946258404539  75.1221893799429 51.6946258404539  C 75.1221893799429 51.6946258404539  79.3920218675153 55.3152428242338  79.3920218675153 55.3152428242338  C 79.3920218675153 55.3152428242338  74.8138584717494 54.9781435411241  74.8138584717494 54.9781435411241  C 74.8138584717494 54.9781435411241  69.6245391686712 54.4042213439309  69.6245391686712 54.4042213439309  C 69.6245391686712 54.4042213439309  63.9617116851537 60.975523824805  63.9617116851537 60.975523824805  C 63.9617116851537 60.975523824805  49.6105596814687 60.4314711843429  49.6105596814687 60.4314711843429  C 49.6105596814687 60.4314711843429  25.8457011084529 46.582664559878  25.8457011084529 46.582664559878  C 25.8457011084529 46.582664559878  14.3438570510207 41.6925914150199  14.3438570510207 41.6925914150199  C 14.3438570510207 41.6925914150199  5.04712957807942 39.7894739432864  5.04712957807942 39.7894739432864  C 5.04712957807942 39.7894739432864  1.93629095076994 29.6178397467893  1.93629095076994 29.6178397467893  C 1.93629095076994 29.6178397467893  19.0238797646721 22.1525841037446  19.0238797646721 22.1525841037446  C 19.0238797646721 22.1525841037446  21.9420115743605 13.3602667259262  21.9420115743605 13.3602667259262  C 21.9420115743605 13.3602667259262  21.2124786219383 7.98161297453558  21.2124786219383 7.98161297453558  C 21.2124786219383 7.98161297453558  25.4382638369116 6.15316939463019  25.4382638369116 6.15316939463019  C 25.4382638369116 6.15316939463019  29.3942595072158 1.50205270362209  29.3942595072158 1.50205270362209  C 29.3942595072158 1.50205270362209  32.7088167702955 0.339273530870108  32.7088167702955 0.339273530870108  C 32.7088167702955 0.339273530870108  43.686201516894 1.30576704510256  43.686201516894 1.30576704510256  C 43.686201516894 1.30576704510256  46.3978617362745 3.20888451683608  46.3978617362745 3.20888451683608  C 46.3978617362745 3.20888451683608  50.0978326345962 1.94796251482425  50.0978326345962 1.94796251482425  Z " fill-rule="evenodd" />
    </mask>
  </defs>
  <g transform="matrix(1 0 0 1 -2090 -1791 )">
    <path d="M 50.0978326345962 1.94796251482425  C 50.0978326345962 1.94796251482425  55.0971980745908 10.7936183868057  55.0971980745908 10.7936183868057  C 55.0971980745908 10.7936183868057  60.159881468946 12.9996985053848  60.159881468946 12.9996985053848  C 60.159881468946 12.9996985053848  60.7435078308836 17.2667780384197  60.7435078308836 17.2667780384197  C 60.7435078308836 17.2667780384197  56.8590889785532 19.7736872640778  56.8590889785532 19.7736872640778  C 56.8590889785532 19.7736872640778  55.0696685292164 25.4019651681508  55.0696685292164 25.4019651681508  C 55.0696685292164 25.4019651681508  60.4159062409285 33.7387551654428  60.4159062409285 33.7387551654428  C 60.4159062409285 33.7387551654428  69.8723050770413 37.6196640007381  69.8723050770413 37.6196640007381  C 69.8723050770413 37.6196640007381  73.8448184745698 42.9599140363313  73.8448184745698 42.9599140363313  C 73.8448184745698 42.9599140363313  72.5812123418841 48.0078691239115  72.5812123418841 48.0078691239115  C 72.5812123418841 48.0078691239115  75.0451066528944 48.0057355841451  75.0451066528944 48.0057355841451  C 75.0451066528944 48.0057355841451  75.1221893799429 51.6946258404539  75.1221893799429 51.6946258404539  C 75.1221893799429 51.6946258404539  79.3920218675153 55.3152428242338  79.3920218675153 55.3152428242338  C 79.3920218675153 55.3152428242338  74.8138584717494 54.9781435411241  74.8138584717494 54.9781435411241  C 74.8138584717494 54.9781435411241  69.6245391686712 54.4042213439309  69.6245391686712 54.4042213439309  C 69.6245391686712 54.4042213439309  63.9617116851537 60.975523824805  63.9617116851537 60.975523824805  C 63.9617116851537 60.975523824805  49.6105596814687 60.4314711843429  49.6105596814687 60.4314711843429  C 49.6105596814687 60.4314711843429  25.8457011084529 46.582664559878  25.8457011084529 46.582664559878  C 25.8457011084529 46.582664559878  14.3438570510207 41.6925914150199  14.3438570510207 41.6925914150199  C 14.3438570510207 41.6925914150199  5.04712957807942 39.7894739432864  5.04712957807942 39.7894739432864  C 5.04712957807942 39.7894739432864  1.93629095076994 29.6178397467893  1.93629095076994 29.6178397467893  C 1.93629095076994 29.6178397467893  19.0238797646721 22.1525841037446  19.0238797646721 22.1525841037446  C 19.0238797646721 22.1525841037446  21.9420115743605 13.3602667259262  21.9420115743605 13.3602667259262  C 21.9420115743605 13.3602667259262  21.2124786219383 7.98161297453558  21.2124786219383 7.98161297453558  C 21.2124786219383 7.98161297453558  25.4382638369116 6.15316939463019  25.4382638369116 6.15316939463019  C 25.4382638369116 6.15316939463019  29.3942595072158 1.50205270362209  29.3942595072158 1.50205270362209  C 29.3942595072158 1.50205270362209  32.7088167702955 0.339273530870108  32.7088167702955 0.339273530870108  C 32.7088167702955 0.339273530870108  43.686201516894 1.30576704510256  43.686201516894 1.30576704510256  C 43.686201516894 1.30576704510256  46.3978617362745 3.20888451683608  46.3978617362745 3.20888451683608  C 46.3978617362745 3.20888451683608  50.0978326345962 1.94796251482425  50.0978326345962 1.94796251482425  Z " fill-rule="nonzero" fill="#f2f2f2" stroke="none" transform="matrix(1 0 0 1 2090 1791 )" />
    <path d="M 50.0978326345962 1.94796251482425  C 50.0978326345962 1.94796251482425  55.0971980745908 10.7936183868057  55.0971980745908 10.7936183868057  C 55.0971980745908 10.7936183868057  60.159881468946 12.9996985053848  60.159881468946 12.9996985053848  C 60.159881468946 12.9996985053848  60.7435078308836 17.2667780384197  60.7435078308836 17.2667780384197  C 60.7435078308836 17.2667780384197  56.8590889785532 19.7736872640778  56.8590889785532 19.7736872640778  C 56.8590889785532 19.7736872640778  55.0696685292164 25.4019651681508  55.0696685292164 25.4019651681508  C 55.0696685292164 25.4019651681508  60.4159062409285 33.7387551654428  60.4159062409285 33.7387551654428  C 60.4159062409285 33.7387551654428  69.8723050770413 37.6196640007381  69.8723050770413 37.6196640007381  C 69.8723050770413 37.6196640007381  73.8448184745698 42.9599140363313  73.8448184745698 42.9599140363313  C 73.8448184745698 42.9599140363313  72.5812123418841 48.0078691239115  72.5812123418841 48.0078691239115  C 72.5812123418841 48.0078691239115  75.0451066528944 48.0057355841451  75.0451066528944 48.0057355841451  C 75.0451066528944 48.0057355841451  75.1221893799429 51.6946258404539  75.1221893799429 51.6946258404539  C 75.1221893799429 51.6946258404539  79.3920218675153 55.3152428242338  79.3920218675153 55.3152428242338  C 79.3920218675153 55.3152428242338  74.8138584717494 54.9781435411241  74.8138584717494 54.9781435411241  C 74.8138584717494 54.9781435411241  69.6245391686712 54.4042213439309  69.6245391686712 54.4042213439309  C 69.6245391686712 54.4042213439309  63.9617116851537 60.975523824805  63.9617116851537 60.975523824805  C 63.9617116851537 60.975523824805  49.6105596814687 60.4314711843429  49.6105596814687 60.4314711843429  C 49.6105596814687 60.4314711843429  25.8457011084529 46.582664559878  25.8457011084529 46.582664559878  C 25.8457011084529 46.582664559878  14.3438570510207 41.6925914150199  14.3438570510207 41.6925914150199  C 14.3438570510207 41.6925914150199  5.04712957807942 39.7894739432864  5.04712957807942 39.7894739432864  C 5.04712957807942 39.7894739432864  1.93629095076994 29.6178397467893  1.93629095076994 29.6178397467893  C 1.93629095076994 29.6178397467893  19.0238797646721 22.1525841037446  19.0238797646721 22.1525841037446  C 19.0238797646721 22.1525841037446  21.9420115743605 13.3602667259262  21.9420115743605 13.3602667259262  C 21.9420115743605 13.3602667259262  21.2124786219383 7.98161297453558  21.2124786219383 7.98161297453558  C 21.2124786219383 7.98161297453558  25.4382638369116 6.15316939463019  25.4382638369116 6.15316939463019  C 25.4382638369116 6.15316939463019  29.3942595072158 1.50205270362209  29.3942595072158 1.50205270362209  C 29.3942595072158 1.50205270362209  32.7088167702955 0.339273530870108  32.7088167702955 0.339273530870108  C 32.7088167702955 0.339273530870108  43.686201516894 1.30576704510256  43.686201516894 1.30576704510256  C 43.686201516894 1.30576704510256  46.3978617362745 3.20888451683608  46.3978617362745 3.20888451683608  C 46.3978617362745 3.20888451683608  50.0978326345962 1.94796251482425  50.0978326345962 1.94796251482425  Z " stroke-width="2" stroke="#505050" fill="none" stroke-opacity="0.211764705882353" transform="matrix(1 0 0 1 2090 1791 )" mask="url(#clip672)" />
  </g>
</svg>