<?xml version="1.0" encoding="utf-8"?>
<svg version="1.1" xmlns:xlink="http://www.w3.org/1999/xlink" width="151px" height="108px" xmlns="http://www.w3.org/2000/svg">
  <defs>
    <mask fill="white" id="clip673">
      <path d="M 77.4658119905672 22.296616729835  C 77.4658119905672 22.296616729835  78.1987499130752 20.53424705117  78.1987499130752 20.53424705117  C 78.1987499130752 20.53424705117  84.9374030513562 19.0713509487085  84.9374030513562 19.0713509487085  C 84.9374030513562 19.0713509487085  90.3906799822547 14.7257523645187  90.3906799822547 14.7257523645187  C 90.3906799822547 14.7257523645187  95.5185105968154 14.9476644389717  95.5185105968154 14.9476644389717  C 95.5185105968154 14.9476644389717  98.8851023229615 13.5235490873854  98.8851023229615 13.5235490873854  C 98.8851023229615 13.5235490873854  104.33837925386 14.2280660616194  104.33837925386 14.2280660616194  C 104.33837925386 14.2280660616194  112.819127379595 18.0867507737086  112.819127379595 18.0867507737086  C 112.819127379595 18.0867507737086  118.942440844129 18.9140734590476  118.942440844129 18.9140734590476  C 118.942440844129 18.9140734590476  127.70487779829 25.5822081234341  127.70487779829 25.5822081234341  C 127.70487779829 25.5822081234341  133.420699656654 25.8515188934013  133.420699656654 25.8515188934013  C 133.420699656654 25.8515188934013  134.093471033285 32.1124556735974  134.093471033285 32.1124556735974  C 134.093471033285 32.1124556735974  130.967545490648 41.262558394001  130.967545490648 41.262558394001  C 130.967545490648 41.262558394001  128.861716384935 46.5432039715167  128.861716384935 46.5432039715167  C 128.861716384935 46.5432039715167  132.200959681137 47.6096746205866  132.200959681137 47.6096746205866  C 132.200959681137 47.6096746205866  128.919148087818 51.5459208344263  128.919148087818 51.5459208344263  C 128.919148087818 51.5459208344263  131.429733956707 58.8075996320756  131.429733956707 58.8075996320756  C 131.429733956707 58.8075996320756  132.031399415482 63.2997032751275  132.031399415482 63.2997032751275  C 132.031399415482 63.2997032751275  137.840205935657 64.4889796353024  137.840205935657 64.4889796353024  C 137.840205935657 64.4889796353024  138.469219824376 69.0047826261115  138.469219824376 69.0047826261115  C 138.469219824376 69.0047826261115  131.514514089535 75.3174270741414  131.514514089535 75.3174270741414  C 131.514514089535 75.3174270741414  135.307741322812 78.9498907394582  135.307741322812 78.9498907394582  C 135.307741322812 78.9498907394582  138.395379063526 83.0994310831118  138.395379063526 83.0994310831118  C 138.395379063526 83.0994310831118  145.7274931316 86.107093762105  145.7274931316 86.107093762105  C 145.7274931316 86.107093762105  145.938076042172 92.0901018276947  145.938076042172 92.0901018276947  C 145.938076042172 92.0901018276947  149.608235340699 93.1845807968413  149.608235340699 93.1845807968413  C 149.608235340699 93.1845807968413  150.239984072413 96.2913498391823  150.239984072413 96.2913498391823  C 150.239984072413 96.2913498391823  139.180279002929 99.7579180701992  139.180279002929 99.7579180701992  C 139.180279002929 99.7579180701992  136.292284800808 107.503295814454  136.292284800808 107.503295814454  C 136.292284800808 107.503295814454  121.865988005177 105.497469199739  121.865988005177 105.497469199739  C 121.865988005177 105.497469199739  113.505572971197 103.967784026326  113.505572971197 103.967784026326  C 113.505572971197 103.967784026326  104.852529736813 103.101680590111  104.852529736813 103.101680590111  C 104.852529736813 103.101680590111  101.578922672478 94.8801614045546  101.578922672478 94.8801614045546  C 101.578922672478 94.8801614045546  97.9087633739494 93.6822670997406  97.9087633739494 93.6822670997406  C 97.9087633739494 93.6822670997406  92.0179115639421 94.8887793491935  92.0179115639421 94.8887793491935  C 92.0179115639421 94.8887793491935  84.2837755756871 98.144207936556  84.2837755756871 98.144207936556  C 84.2837755756871 98.144207936556  72.924626528504 95.9143147612281  72.924626528504 95.9143147612281  C 72.924626528504 95.9143147612281  65.1850208542599 90.7220031162617  65.1850208542599 90.7220031162617  C 65.1850208542599 90.7220031162617  57.803679612287 88.7894290309775  57.803679612287 88.7894290309775  C 57.803679612287 88.7894290309775  52.681318683715 82.3108891486481  52.681318683715 82.3108891486481  C 52.681318683715 82.3108891486481  47.0229285282347 73.1047697880912  47.0229285282347 73.1047697880912  C 47.0229285282347 73.1047697880912  42.8960504496362 74.2315660496337  42.8960504496362 74.2315660496337  C 42.8960504496362 74.2315660496337  38.0225602335573 71.9284203448746  38.0225602335573 71.9284203448746  C 38.0225602335573 71.9284203448746  35.1591796183864 74.6409184199836  35.1591796183864 74.6409184199836  C 35.1591796183864 74.6409184199836  30.9174381340218 70.98475540691  30.9174381340218 70.98475540691  C 30.9174381340218 70.98475540691  30.840862530178 67.2596488367243  30.840862530178 67.2596488367243  C 30.840862530178 67.2596488367243  28.3931780501607 67.2618033228839  28.3931780501607 67.2618033228839  C 28.3931780501607 67.2618033228839  29.6484709846051 62.1642890689461  29.6484709846051 62.1642890689461  C 29.6484709846051 62.1642890689461  25.7020925436393 56.771610211124  25.7020925436393 56.771610211124  C 25.7020925436393 56.771610211124  16.3079068577641 51.2873824952578  16.3079068577641 51.2873824952578  C 16.3079068577641 51.2873824952578  10.9968417625764 44.433962021134  10.9968417625764 44.433962021134  C 10.9968417625764 44.433962021134  12.7744897089575 38.7504275317475  12.7744897089575 38.7504275317475  C 12.7744897089575 38.7504275317475  16.6333531741014 36.2189062940564  16.6333531741014 36.2189062940564  C 16.6333531741014 36.2189062940564  16.0535664592819 31.9099339745821  16.0535664592819 31.9099339745821  C 16.0535664592819 31.9099339745821  11.0241901925207 29.6821952854139  11.0241901925207 29.6821952854139  C 11.0241901925207 29.6821952854139  6.05771531463132 20.7475411809839  6.05771531463132 20.7475411809839  C 6.05771531463132 20.7475411809839  1.86246616117191 14.6697357243655  1.86246616117191 14.6697357243655  C 1.86246616117191 14.6697357243655  3.36389496511559 12.2998009486546  3.36389496511559 12.2998009486546  C 3.36389496511559 12.2998009486546  0.970907344986834 3.4405538598156  0.970907344986834 3.4405538598156  C 0.970907344986834 3.4405538598156  6.22180589429738 1.21712414296683  6.22180589429738 1.21712414296683  C 6.22180589429738 1.21712414296683  7.43607618382511 4.157997751008  7.43607618382511 4.157997751008  C 7.43607618382511 4.157997751008  11.3113487069362 7.7365992623314  11.3113487069362 7.7365992623314  C 11.3113487069362 7.7365992623314  16.5704517852296 8.76428916052605  16.5704517852296 8.76428916052605  C 16.5704517852296 8.76428916052605  19.3463174245786 8.53591362759395  19.3463174245786 8.53591362759395  C 19.3463174245786 8.53591362759395  28.3904432071664 2.81359838733212  28.3904432071664 2.81359838733212  C 28.3904432071664 2.81359838733212  31.2647631943149 2.23835058268234  31.2647631943149 2.23835058268234  C 31.2647631943149 2.23835058268234  33.5319480366995 4.52426039816338  33.5319480366995 4.52426039816338  C 33.5319480366995 4.52426039816338  30.8873548610832 8.35709127633573  30.8873548610832 8.35709127633573  C 30.8873548610832 8.35709127633573  35.6705952583456 12.3838259088845  35.6705952583456 12.3838259088845  C 35.6705952583456 12.3838259088845  37.5767808254647 12.0003273724511  37.5767808254647 12.0003273724511  C 37.5767808254647 12.0003273724511  40.0025865615263 17.6278452216846  40.0025865615263 17.6278452216846  C 40.0025865615263 17.6278452216846  47.2745340837221 19.2070835767719  47.2745340837221 19.2070835767719  C 47.2745340837221 19.2070835767719  52.6020082368765 22.9903612732703  52.6020082368765 22.9903612732703  C 52.6020082368765 22.9903612732703  63.503092412684 24.2873619414321  63.503092412684 24.2873619414321  C 63.503092412684 24.2873619414321  77.4658119905672 22.296616729835  77.4658119905672 22.296616729835  Z " fill-rule="evenodd" />
    </mask>
  </defs>
  <g transform="matrix(1 0 0 1 -2133 -1773 )">
    <path d="M 77.4658119905672 22.296616729835  C 77.4658119905672 22.296616729835  78.1987499130752 20.53424705117  78.1987499130752 20.53424705117  C 78.1987499130752 20.53424705117  84.9374030513562 19.0713509487085  84.9374030513562 19.0713509487085  C 84.9374030513562 19.0713509487085  90.3906799822547 14.7257523645187  90.3906799822547 14.7257523645187  C 90.3906799822547 14.7257523645187  95.5185105968154 14.9476644389717  95.5185105968154 14.9476644389717  C 95.5185105968154 14.9476644389717  98.8851023229615 13.5235490873854  98.8851023229615 13.5235490873854  C 98.8851023229615 13.5235490873854  104.33837925386 14.2280660616194  104.33837925386 14.2280660616194  C 104.33837925386 14.2280660616194  112.819127379595 18.0867507737086  112.819127379595 18.0867507737086  C 112.819127379595 18.0867507737086  118.942440844129 18.9140734590476  118.942440844129 18.9140734590476  C 118.942440844129 18.9140734590476  127.70487779829 25.5822081234341  127.70487779829 25.5822081234341  C 127.70487779829 25.5822081234341  133.420699656654 25.8515188934013  133.420699656654 25.8515188934013  C 133.420699656654 25.8515188934013  134.093471033285 32.1124556735974  134.093471033285 32.1124556735974  C 134.093471033285 32.1124556735974  130.967545490648 41.262558394001  130.967545490648 41.262558394001  C 130.967545490648 41.262558394001  128.861716384935 46.5432039715167  128.861716384935 46.5432039715167  C 128.861716384935 46.5432039715167  132.200959681137 47.6096746205866  132.200959681137 47.6096746205866  C 132.200959681137 47.6096746205866  128.919148087818 51.5459208344263  128.919148087818 51.5459208344263  C 128.919148087818 51.5459208344263  131.429733956707 58.8075996320756  131.429733956707 58.8075996320756  C 131.429733956707 58.8075996320756  132.031399415482 63.2997032751275  132.031399415482 63.2997032751275  C 132.031399415482 63.2997032751275  137.840205935657 64.4889796353024  137.840205935657 64.4889796353024  C 137.840205935657 64.4889796353024  138.469219824376 69.0047826261115  138.469219824376 69.0047826261115  C 138.469219824376 69.0047826261115  131.514514089535 75.3174270741414  131.514514089535 75.3174270741414  C 131.514514089535 75.3174270741414  135.307741322812 78.9498907394582  135.307741322812 78.9498907394582  C 135.307741322812 78.9498907394582  138.395379063526 83.0994310831118  138.395379063526 83.0994310831118  C 138.395379063526 83.0994310831118  145.7274931316 86.107093762105  145.7274931316 86.107093762105  C 145.7274931316 86.107093762105  145.938076042172 92.0901018276947  145.938076042172 92.0901018276947  C 145.938076042172 92.0901018276947  149.608235340699 93.1845807968413  149.608235340699 93.1845807968413  C 149.608235340699 93.1845807968413  150.239984072413 96.2913498391823  150.239984072413 96.2913498391823  C 150.239984072413 96.2913498391823  139.180279002929 99.7579180701992  139.180279002929 99.7579180701992  C 139.180279002929 99.7579180701992  136.292284800808 107.503295814454  136.292284800808 107.503295814454  C 136.292284800808 107.503295814454  121.865988005177 105.497469199739  121.865988005177 105.497469199739  C 121.865988005177 105.497469199739  113.505572971197 103.967784026326  113.505572971197 103.967784026326  C 113.505572971197 103.967784026326  104.852529736813 103.101680590111  104.852529736813 103.101680590111  C 104.852529736813 103.101680590111  101.578922672478 94.8801614045546  101.578922672478 94.8801614045546  C 101.578922672478 94.8801614045546  97.9087633739494 93.6822670997406  97.9087633739494 93.6822670997406  C 97.9087633739494 93.6822670997406  92.0179115639421 94.8887793491935  92.0179115639421 94.8887793491935  C 92.0179115639421 94.8887793491935  84.2837755756871 98.144207936556  84.2837755756871 98.144207936556  C 84.2837755756871 98.144207936556  72.924626528504 95.9143147612281  72.924626528504 95.9143147612281  C 72.924626528504 95.9143147612281  65.1850208542599 90.7220031162617  65.1850208542599 90.7220031162617  C 65.1850208542599 90.7220031162617  57.803679612287 88.7894290309775  57.803679612287 88.7894290309775  C 57.803679612287 88.7894290309775  52.681318683715 82.3108891486481  52.681318683715 82.3108891486481  C 52.681318683715 82.3108891486481  47.0229285282347 73.1047697880912  47.0229285282347 73.1047697880912  C 47.0229285282347 73.1047697880912  42.8960504496362 74.2315660496337  42.8960504496362 74.2315660496337  C 42.8960504496362 74.2315660496337  38.0225602335573 71.9284203448746  38.0225602335573 71.9284203448746  C 38.0225602335573 71.9284203448746  35.1591796183864 74.6409184199836  35.1591796183864 74.6409184199836  C 35.1591796183864 74.6409184199836  30.9174381340218 70.98475540691  30.9174381340218 70.98475540691  C 30.9174381340218 70.98475540691  30.840862530178 67.2596488367243  30.840862530178 67.2596488367243  C 30.840862530178 67.2596488367243  28.3931780501607 67.2618033228839  28.3931780501607 67.2618033228839  C 28.3931780501607 67.2618033228839  29.6484709846051 62.1642890689461  29.6484709846051 62.1642890689461  C 29.6484709846051 62.1642890689461  25.7020925436393 56.771610211124  25.7020925436393 56.771610211124  C 25.7020925436393 56.771610211124  16.3079068577641 51.2873824952578  16.3079068577641 51.2873824952578  C 16.3079068577641 51.2873824952578  10.9968417625764 44.433962021134  10.9968417625764 44.433962021134  C 10.9968417625764 44.433962021134  12.7744897089575 38.7504275317475  12.7744897089575 38.7504275317475  C 12.7744897089575 38.7504275317475  16.6333531741014 36.2189062940564  16.6333531741014 36.2189062940564  C 16.6333531741014 36.2189062940564  16.0535664592819 31.9099339745821  16.0535664592819 31.9099339745821  C 16.0535664592819 31.9099339745821  11.0241901925207 29.6821952854139  11.0241901925207 29.6821952854139  C 11.0241901925207 29.6821952854139  6.05771531463132 20.7475411809839  6.05771531463132 20.7475411809839  C 6.05771531463132 20.7475411809839  1.86246616117191 14.6697357243655  1.86246616117191 14.6697357243655  C 1.86246616117191 14.6697357243655  3.36389496511559 12.2998009486546  3.36389496511559 12.2998009486546  C 3.36389496511559 12.2998009486546  0.970907344986834 3.4405538598156  0.970907344986834 3.4405538598156  C 0.970907344986834 3.4405538598156  6.22180589429738 1.21712414296683  6.22180589429738 1.21712414296683  C 6.22180589429738 1.21712414296683  7.43607618382511 4.157997751008  7.43607618382511 4.157997751008  C 7.43607618382511 4.157997751008  11.3113487069362 7.7365992623314  11.3113487069362 7.7365992623314  C 11.3113487069362 7.7365992623314  16.5704517852296 8.76428916052605  16.5704517852296 8.76428916052605  C 16.5704517852296 8.76428916052605  19.3463174245786 8.53591362759395  19.3463174245786 8.53591362759395  C 19.3463174245786 8.53591362759395  28.3904432071664 2.81359838733212  28.3904432071664 2.81359838733212  C 28.3904432071664 2.81359838733212  31.2647631943149 2.23835058268234  31.2647631943149 2.23835058268234  C 31.2647631943149 2.23835058268234  33.5319480366995 4.52426039816338  33.5319480366995 4.52426039816338  C 33.5319480366995 4.52426039816338  30.8873548610832 8.35709127633573  30.8873548610832 8.35709127633573  C 30.8873548610832 8.35709127633573  35.6705952583456 12.3838259088845  35.6705952583456 12.3838259088845  C 35.6705952583456 12.3838259088845  37.5767808254647 12.0003273724511  37.5767808254647 12.0003273724511  C 37.5767808254647 12.0003273724511  40.0025865615263 17.6278452216846  40.0025865615263 17.6278452216846  C 40.0025865615263 17.6278452216846  47.2745340837221 19.2070835767719  47.2745340837221 19.2070835767719  C 47.2745340837221 19.2070835767719  52.6020082368765 22.9903612732703  52.6020082368765 22.9903612732703  C 52.6020082368765 22.9903612732703  63.503092412684 24.2873619414321  63.503092412684 24.2873619414321  C 63.503092412684 24.2873619414321  77.4658119905672 22.296616729835  77.4658119905672 22.296616729835  Z " fill-rule="nonzero" fill="#f2f2f2" stroke="none" transform="matrix(1 0 0 1 2133 1773 )" />
    <path d="M 77.4658119905672 22.296616729835  C 77.4658119905672 22.296616729835  78.1987499130752 20.53424705117  78.1987499130752 20.53424705117  C 78.1987499130752 20.53424705117  84.9374030513562 19.0713509487085  84.9374030513562 19.0713509487085  C 84.9374030513562 19.0713509487085  90.3906799822547 14.7257523645187  90.3906799822547 14.7257523645187  C 90.3906799822547 14.7257523645187  95.5185105968154 14.9476644389717  95.5185105968154 14.9476644389717  C 95.5185105968154 14.9476644389717  98.8851023229615 13.5235490873854  98.8851023229615 13.5235490873854  C 98.8851023229615 13.5235490873854  104.33837925386 14.2280660616194  104.33837925386 14.2280660616194  C 104.33837925386 14.2280660616194  112.819127379595 18.0867507737086  112.819127379595 18.0867507737086  C 112.819127379595 18.0867507737086  118.942440844129 18.9140734590476  118.942440844129 18.9140734590476  C 118.942440844129 18.9140734590476  127.70487779829 25.5822081234341  127.70487779829 25.5822081234341  C 127.70487779829 25.5822081234341  133.420699656654 25.8515188934013  133.420699656654 25.8515188934013  C 133.420699656654 25.8515188934013  134.093471033285 32.1124556735974  134.093471033285 32.1124556735974  C 134.093471033285 32.1124556735974  130.967545490648 41.262558394001  130.967545490648 41.262558394001  C 130.967545490648 41.262558394001  128.861716384935 46.5432039715167  128.861716384935 46.5432039715167  C 128.861716384935 46.5432039715167  132.200959681137 47.6096746205866  132.200959681137 47.6096746205866  C 132.200959681137 47.6096746205866  128.919148087818 51.5459208344263  128.919148087818 51.5459208344263  C 128.919148087818 51.5459208344263  131.429733956707 58.8075996320756  131.429733956707 58.8075996320756  C 131.429733956707 58.8075996320756  132.031399415482 63.2997032751275  132.031399415482 63.2997032751275  C 132.031399415482 63.2997032751275  137.840205935657 64.4889796353024  137.840205935657 64.4889796353024  C 137.840205935657 64.4889796353024  138.469219824376 69.0047826261115  138.469219824376 69.0047826261115  C 138.469219824376 69.0047826261115  131.514514089535 75.3174270741414  131.514514089535 75.3174270741414  C 131.514514089535 75.3174270741414  135.307741322812 78.9498907394582  135.307741322812 78.9498907394582  C 135.307741322812 78.9498907394582  138.395379063526 83.0994310831118  138.395379063526 83.0994310831118  C 138.395379063526 83.0994310831118  145.7274931316 86.107093762105  145.7274931316 86.107093762105  C 145.7274931316 86.107093762105  145.938076042172 92.0901018276947  145.938076042172 92.0901018276947  C 145.938076042172 92.0901018276947  149.608235340699 93.1845807968413  149.608235340699 93.1845807968413  C 149.608235340699 93.1845807968413  150.239984072413 96.2913498391823  150.239984072413 96.2913498391823  C 150.239984072413 96.2913498391823  139.180279002929 99.7579180701992  139.180279002929 99.7579180701992  C 139.180279002929 99.7579180701992  136.292284800808 107.503295814454  136.292284800808 107.503295814454  C 136.292284800808 107.503295814454  121.865988005177 105.497469199739  121.865988005177 105.497469199739  C 121.865988005177 105.497469199739  113.505572971197 103.967784026326  113.505572971197 103.967784026326  C 113.505572971197 103.967784026326  104.852529736813 103.101680590111  104.852529736813 103.101680590111  C 104.852529736813 103.101680590111  101.578922672478 94.8801614045546  101.578922672478 94.8801614045546  C 101.578922672478 94.8801614045546  97.9087633739494 93.6822670997406  97.9087633739494 93.6822670997406  C 97.9087633739494 93.6822670997406  92.0179115639421 94.8887793491935  92.0179115639421 94.8887793491935  C 92.0179115639421 94.8887793491935  84.2837755756871 98.144207936556  84.2837755756871 98.144207936556  C 84.2837755756871 98.144207936556  72.924626528504 95.9143147612281  72.924626528504 95.9143147612281  C 72.924626528504 95.9143147612281  65.1850208542599 90.7220031162617  65.1850208542599 90.7220031162617  C 65.1850208542599 90.7220031162617  57.803679612287 88.7894290309775  57.803679612287 88.7894290309775  C 57.803679612287 88.7894290309775  52.681318683715 82.3108891486481  52.681318683715 82.3108891486481  C 52.681318683715 82.3108891486481  47.0229285282347 73.1047697880912  47.0229285282347 73.1047697880912  C 47.0229285282347 73.1047697880912  42.8960504496362 74.2315660496337  42.8960504496362 74.2315660496337  C 42.8960504496362 74.2315660496337  38.0225602335573 71.9284203448746  38.0225602335573 71.9284203448746  C 38.0225602335573 71.9284203448746  35.1591796183864 74.6409184199836  35.1591796183864 74.6409184199836  C 35.1591796183864 74.6409184199836  30.9174381340218 70.98475540691  30.9174381340218 70.98475540691  C 30.9174381340218 70.98475540691  30.840862530178 67.2596488367243  30.840862530178 67.2596488367243  C 30.840862530178 67.2596488367243  28.3931780501607 67.2618033228839  28.3931780501607 67.2618033228839  C 28.3931780501607 67.2618033228839  29.6484709846051 62.1642890689461  29.6484709846051 62.1642890689461  C 29.6484709846051 62.1642890689461  25.7020925436393 56.771610211124  25.7020925436393 56.771610211124  C 25.7020925436393 56.771610211124  16.3079068577641 51.2873824952578  16.3079068577641 51.2873824952578  C 16.3079068577641 51.2873824952578  10.9968417625764 44.433962021134  10.9968417625764 44.433962021134  C 10.9968417625764 44.433962021134  12.7744897089575 38.7504275317475  12.7744897089575 38.7504275317475  C 12.7744897089575 38.7504275317475  16.6333531741014 36.2189062940564  16.6333531741014 36.2189062940564  C 16.6333531741014 36.2189062940564  16.0535664592819 31.9099339745821  16.0535664592819 31.9099339745821  C 16.0535664592819 31.9099339745821  11.0241901925207 29.6821952854139  11.0241901925207 29.6821952854139  C 11.0241901925207 29.6821952854139  6.05771531463132 20.7475411809839  6.05771531463132 20.7475411809839  C 6.05771531463132 20.7475411809839  1.86246616117191 14.6697357243655  1.86246616117191 14.6697357243655  C 1.86246616117191 14.6697357243655  3.36389496511559 12.2998009486546  3.36389496511559 12.2998009486546  C 3.36389496511559 12.2998009486546  0.970907344986834 3.4405538598156  0.970907344986834 3.4405538598156  C 0.970907344986834 3.4405538598156  6.22180589429738 1.21712414296683  6.22180589429738 1.21712414296683  C 6.22180589429738 1.21712414296683  7.43607618382511 4.157997751008  7.43607618382511 4.157997751008  C 7.43607618382511 4.157997751008  11.3113487069362 7.7365992623314  11.3113487069362 7.7365992623314  C 11.3113487069362 7.7365992623314  16.5704517852296 8.76428916052605  16.5704517852296 8.76428916052605  C 16.5704517852296 8.76428916052605  19.3463174245786 8.53591362759395  19.3463174245786 8.53591362759395  C 19.3463174245786 8.53591362759395  28.3904432071664 2.81359838733212  28.3904432071664 2.81359838733212  C 28.3904432071664 2.81359838733212  31.2647631943149 2.23835058268234  31.2647631943149 2.23835058268234  C 31.2647631943149 2.23835058268234  33.5319480366995 4.52426039816338  33.5319480366995 4.52426039816338  C 33.5319480366995 4.52426039816338  30.8873548610832 8.35709127633573  30.8873548610832 8.35709127633573  C 30.8873548610832 8.35709127633573  35.6705952583456 12.3838259088845  35.6705952583456 12.3838259088845  C 35.6705952583456 12.3838259088845  37.5767808254647 12.0003273724511  37.5767808254647 12.0003273724511  C 37.5767808254647 12.0003273724511  40.0025865615263 17.6278452216846  40.0025865615263 17.6278452216846  C 40.0025865615263 17.6278452216846  47.2745340837221 19.2070835767719  47.2745340837221 19.2070835767719  C 47.2745340837221 19.2070835767719  52.6020082368765 22.9903612732703  52.6020082368765 22.9903612732703  C 52.6020082368765 22.9903612732703  63.503092412684 24.2873619414321  63.503092412684 24.2873619414321  C 63.503092412684 24.2873619414321  77.4658119905672 22.296616729835  77.4658119905672 22.296616729835  Z " stroke-width="2" stroke="#505050" fill="none" stroke-opacity="0.211764705882353" transform="matrix(1 0 0 1 2133 1773 )" mask="url(#clip673)" />
  </g>
</svg>