<?xml version="1.0" encoding="utf-8"?>
<svg version="1.1" xmlns:xlink="http://www.w3.org/1999/xlink" width="84px" height="48px" xmlns="http://www.w3.org/2000/svg">
  <defs>
    <mask fill="white" id="clip674">
      <path d="M 64.1779502953702 1.55161272894611  C 64.1779502953702 1.55161272894611  76.6868635359178 2.64618745303305  76.6868635359178 2.64618745303305  C 76.6868635359178 2.64618745303305  74.9444353803128 12.5127765152248  74.9444353803128 12.5127765152248  C 74.9444353803128 12.5127765152248  83.4629730299377 22.6458515766409  83.4629730299377 22.6458515766409  C 83.4629730299377 22.6458515766409  73.661814654659 35.2708839081882  73.661814654659 35.2708839081882  C 73.661814654659 35.2708839081882  51.9137298976622 44.9194389710146  51.9137298976622 44.9194389710146  C 51.9137298976622 44.9194389710146  45.4145804345488 47.4477524182012  45.4145804345488 47.4477524182012  C 45.4145804345488 47.4477524182012  33.5362427995879 45.4083636968642  33.5362427995879 45.4083636968642  C 33.5362427995879 45.4083636968642  12.5007251123989 40.9860175279176  12.5007251123989 40.9860175279176  C 12.5007251123989 40.9860175279176  19.9221783677539 34.7291024552196  19.9221783677539 34.7291024552196  C 19.9221783677539 34.7291024552196  3.51162430346707 27.6837412029983  3.51162430346707 27.6837412029983  C 3.51162430346707 27.6837412029983  16.8621733660893 23.258108665768  16.8621733660893 23.258108665768  C 16.8621733660893 23.258108665768  16.5395014854216 18.9348688601693  16.5395014854216 18.9348688601693  C 16.5395014854216 18.9348688601693  0.715134671014512 15.4749555975122  0.715134671014512 15.4749555975122  C 0.715134671014512 15.4749555975122  5.80797252088485 5.62158071710028  5.80797252088485 5.62158071710028  C 5.80797252088485 5.62158071710028  17.235934961196 3.3487414509882  17.235934961196 3.3487414509882  C 17.235934961196 3.3487414509882  28.9865692821747 13.6646126936905  28.9865692821747 13.6646126936905  C 28.9865692821747 13.6646126936905  40.4414210458747 5.40574908136477  40.4414210458747 5.40574908136477  C 40.4414210458747 5.40574908136477  51.8814627095956 9.71577470518387  51.8814627095956 9.71577470518387  C 51.8814627095956 9.71577470518387  64.1779502953702 1.55161272894611  64.1779502953702 1.55161272894611  Z " fill-rule="evenodd" />
    </mask>
  </defs>
  <g transform="matrix(1 0 0 1 -1606 -1492 )">
    <path d="M 64.1779502953702 1.55161272894611  C 64.1779502953702 1.55161272894611  76.6868635359178 2.64618745303305  76.6868635359178 2.64618745303305  C 76.6868635359178 2.64618745303305  74.9444353803128 12.5127765152248  74.9444353803128 12.5127765152248  C 74.9444353803128 12.5127765152248  83.4629730299377 22.6458515766409  83.4629730299377 22.6458515766409  C 83.4629730299377 22.6458515766409  73.661814654659 35.2708839081882  73.661814654659 35.2708839081882  C 73.661814654659 35.2708839081882  51.9137298976622 44.9194389710146  51.9137298976622 44.9194389710146  C 51.9137298976622 44.9194389710146  45.4145804345488 47.4477524182012  45.4145804345488 47.4477524182012  C 45.4145804345488 47.4477524182012  33.5362427995879 45.4083636968642  33.5362427995879 45.4083636968642  C 33.5362427995879 45.4083636968642  12.5007251123989 40.9860175279176  12.5007251123989 40.9860175279176  C 12.5007251123989 40.9860175279176  19.9221783677539 34.7291024552196  19.9221783677539 34.7291024552196  C 19.9221783677539 34.7291024552196  3.51162430346707 27.6837412029983  3.51162430346707 27.6837412029983  C 3.51162430346707 27.6837412029983  16.8621733660893 23.258108665768  16.8621733660893 23.258108665768  C 16.8621733660893 23.258108665768  16.5395014854216 18.9348688601693  16.5395014854216 18.9348688601693  C 16.5395014854216 18.9348688601693  0.715134671014512 15.4749555975122  0.715134671014512 15.4749555975122  C 0.715134671014512 15.4749555975122  5.80797252088485 5.62158071710028  5.80797252088485 5.62158071710028  C 5.80797252088485 5.62158071710028  17.235934961196 3.3487414509882  17.235934961196 3.3487414509882  C 17.235934961196 3.3487414509882  28.9865692821747 13.6646126936905  28.9865692821747 13.6646126936905  C 28.9865692821747 13.6646126936905  40.4414210458747 5.40574908136477  40.4414210458747 5.40574908136477  C 40.4414210458747 5.40574908136477  51.8814627095956 9.71577470518387  51.8814627095956 9.71577470518387  C 51.8814627095956 9.71577470518387  64.1779502953702 1.55161272894611  64.1779502953702 1.55161272894611  Z " fill-rule="nonzero" fill="#f2f2f2" stroke="none" transform="matrix(1 0 0 1 1606 1492 )" />
    <path d="M 64.1779502953702 1.55161272894611  C 64.1779502953702 1.55161272894611  76.6868635359178 2.64618745303305  76.6868635359178 2.64618745303305  C 76.6868635359178 2.64618745303305  74.9444353803128 12.5127765152248  74.9444353803128 12.5127765152248  C 74.9444353803128 12.5127765152248  83.4629730299377 22.6458515766409  83.4629730299377 22.6458515766409  C 83.4629730299377 22.6458515766409  73.661814654659 35.2708839081882  73.661814654659 35.2708839081882  C 73.661814654659 35.2708839081882  51.9137298976622 44.9194389710146  51.9137298976622 44.9194389710146  C 51.9137298976622 44.9194389710146  45.4145804345488 47.4477524182012  45.4145804345488 47.4477524182012  C 45.4145804345488 47.4477524182012  33.5362427995879 45.4083636968642  33.5362427995879 45.4083636968642  C 33.5362427995879 45.4083636968642  12.5007251123989 40.9860175279176  12.5007251123989 40.9860175279176  C 12.5007251123989 40.9860175279176  19.9221783677539 34.7291024552196  19.9221783677539 34.7291024552196  C 19.9221783677539 34.7291024552196  3.51162430346707 27.6837412029983  3.51162430346707 27.6837412029983  C 3.51162430346707 27.6837412029983  16.8621733660893 23.258108665768  16.8621733660893 23.258108665768  C 16.8621733660893 23.258108665768  16.5395014854216 18.9348688601693  16.5395014854216 18.9348688601693  C 16.5395014854216 18.9348688601693  0.715134671014512 15.4749555975122  0.715134671014512 15.4749555975122  C 0.715134671014512 15.4749555975122  5.80797252088485 5.62158071710028  5.80797252088485 5.62158071710028  C 5.80797252088485 5.62158071710028  17.235934961196 3.3487414509882  17.235934961196 3.3487414509882  C 17.235934961196 3.3487414509882  28.9865692821747 13.6646126936905  28.9865692821747 13.6646126936905  C 28.9865692821747 13.6646126936905  40.4414210458747 5.40574908136477  40.4414210458747 5.40574908136477  C 40.4414210458747 5.40574908136477  51.8814627095956 9.71577470518387  51.8814627095956 9.71577470518387  C 51.8814627095956 9.71577470518387  64.1779502953702 1.55161272894611  64.1779502953702 1.55161272894611  Z " stroke-width="2" stroke="#505050" fill="none" stroke-opacity="0.211764705882353" transform="matrix(1 0 0 1 1606 1492 )" mask="url(#clip674)" />
  </g>
</svg>