<?xml version="1.0" encoding="utf-8"?>
<svg version="1.1" xmlns:xlink="http://www.w3.org/1999/xlink" width="21px" height="9px" xmlns="http://www.w3.org/2000/svg">
  <defs>
    <mask fill="white" id="clip675">
      <path d="M 5.72293208551427 1.18031266976152  C 5.72293208551427 1.18031266976152  7.39948139881654 1.38678426006993  7.39948139881654 1.38678426006993  C 7.39948139881654 1.38678426006993  14.2672691013261 1.92980454258031  14.2672691013261 1.92980454258031  C 14.2672691013261 1.92980454258031  18.1827212593514 3.3854292542527  18.1827212593514 3.3854292542527  C 18.1827212593514 3.3854292542527  19.4046576710841 6.54339612442686  19.4046576710841 6.54339612442686  C 19.4046576710841 6.54339612442686  14.2225961572412 6.65489078319331  14.2225961572412 6.65489078319331  C 14.2225961572412 6.65489078319331  11.9863211327583 7.66453685980025  11.9863211327583 7.66453685980025  C 11.9863211327583 7.66453685980025  5.95155244641925 6.69412038535188  5.95155244641925 6.69412038535188  C 5.95155244641925 6.69412038535188  1.73915660124162 2.98900380086104  1.73915660124162 2.98900380086104  C 1.73915660124162 2.98900380086104  2.62473202221795 1.60357942989322  2.62473202221795 1.60357942989322  C 2.62473202221795 1.60357942989322  5.72293208551427 1.18031266976152  5.72293208551427 1.18031266976152  Z " fill-rule="evenodd" />
    </mask>
  </defs>
  <g transform="matrix(1 0 0 1 -1187 -1920 )">
    <path d="M 5.72293208551427 1.18031266976152  C 5.72293208551427 1.18031266976152  7.39948139881654 1.38678426006993  7.39948139881654 1.38678426006993  C 7.39948139881654 1.38678426006993  14.2672691013261 1.92980454258031  14.2672691013261 1.92980454258031  C 14.2672691013261 1.92980454258031  18.1827212593514 3.3854292542527  18.1827212593514 3.3854292542527  C 18.1827212593514 3.3854292542527  19.4046576710841 6.54339612442686  19.4046576710841 6.54339612442686  C 19.4046576710841 6.54339612442686  14.2225961572412 6.65489078319331  14.2225961572412 6.65489078319331  C 14.2225961572412 6.65489078319331  11.9863211327583 7.66453685980025  11.9863211327583 7.66453685980025  C 11.9863211327583 7.66453685980025  5.95155244641925 6.69412038535188  5.95155244641925 6.69412038535188  C 5.95155244641925 6.69412038535188  1.73915660124162 2.98900380086104  1.73915660124162 2.98900380086104  C 1.73915660124162 2.98900380086104  2.62473202221795 1.60357942989322  2.62473202221795 1.60357942989322  C 2.62473202221795 1.60357942989322  5.72293208551427 1.18031266976152  5.72293208551427 1.18031266976152  Z " fill-rule="nonzero" fill="#f2f2f2" stroke="none" transform="matrix(1 0 0 1 1187 1920 )" />
    <path d="M 5.72293208551427 1.18031266976152  C 5.72293208551427 1.18031266976152  7.39948139881654 1.38678426006993  7.39948139881654 1.38678426006993  C 7.39948139881654 1.38678426006993  14.2672691013261 1.92980454258031  14.2672691013261 1.92980454258031  C 14.2672691013261 1.92980454258031  18.1827212593514 3.3854292542527  18.1827212593514 3.3854292542527  C 18.1827212593514 3.3854292542527  19.4046576710841 6.54339612442686  19.4046576710841 6.54339612442686  C 19.4046576710841 6.54339612442686  14.2225961572412 6.65489078319331  14.2225961572412 6.65489078319331  C 14.2225961572412 6.65489078319331  11.9863211327583 7.66453685980025  11.9863211327583 7.66453685980025  C 11.9863211327583 7.66453685980025  5.95155244641925 6.69412038535188  5.95155244641925 6.69412038535188  C 5.95155244641925 6.69412038535188  1.73915660124162 2.98900380086104  1.73915660124162 2.98900380086104  C 1.73915660124162 2.98900380086104  2.62473202221795 1.60357942989322  2.62473202221795 1.60357942989322  C 2.62473202221795 1.60357942989322  5.72293208551427 1.18031266976152  5.72293208551427 1.18031266976152  Z " stroke-width="2" stroke="#505050" fill="none" stroke-opacity="0.211764705882353" transform="matrix(1 0 0 1 1187 1920 )" mask="url(#clip675)" />
  </g>
</svg>