<?xml version="1.0" encoding="utf-8"?>
<svg version="1.1" xmlns:xlink="http://www.w3.org/1999/xlink" width="36px" height="31px" xmlns="http://www.w3.org/2000/svg">
  <defs>
    <mask fill="white" id="clip676">
      <path d="M 4.8733928418992 11.4457309526007  C 4.8733928418992 11.4457309526007  4.8761457964365 7.14878186283446  4.8761457964365 7.14878186283446  C 4.8761457964365 7.14878186283446  6.219587610708 4.92349988635675  6.219587610708 4.92349988635675  C 6.219587610708 4.92349988635675  14.8198175856764 7.72057052026117  14.8198175856764 7.72057052026117  C 14.8198175856764 7.72057052026117  31.9362909507704 0.167839746789309  31.9362909507704 0.167839746789309  C 31.9362909507704 0.167839746789309  35.0471295780794 8.78947394328638  35.0471295780794 8.78947394328638  C 35.0471295780794 8.78947394328638  33.5770518550858 9.84984320724561  33.5770518550858 9.84984320724561  C 33.5770518550858 9.84984320724561  16.1164591728116 13.3616496629333  16.1164591728116 13.3616496629333  C 16.1164591728116 13.3616496629333  25.8109671049624 21.858455142714  25.8109671049624 21.858455142714  C 25.8109671049624 21.858455142714  23.2589782487535 23.0297684745324  23.2589782487535 23.0297684745324  C 23.2589782487535 23.0297684745324  21.9871132524554 25.3361249621376  21.9871132524554 25.3361249621376  C 21.9871132524554 25.3361249621376  14.098543496867 26.2855501582379  14.098543496867 26.2855501582379  C 14.098543496867 26.2855501582379  12.2513110022433 28.7540556680986  12.2513110022433 28.7540556680986  C 12.2513110022433 28.7540556680986  8.91473010286381 30.8534587983517  8.91473010286381 30.8534587983517  C 8.91473010286381 30.8534587983517  0.325511946045026 29.769620596961  0.325511946045026 29.769620596961  C 0.325511946045026 29.769620596961  0.0667342195256424 28.7796581452969  0.0667342195256424 28.7796581452969  C 0.0667342195256424 28.7796581452969  3.91261170833195 17.7577917114674  3.91261170833195 17.7577917114674  C 3.91261170833195 17.7577917114674  3.7309167088606 13.4981962079904  3.7309167088606 13.4981962079904  C 3.7309167088606 13.4981962079904  4.8733928418992 11.4457309526007  4.8733928418992 11.4457309526007  Z " fill-rule="evenodd" />
    </mask>
  </defs>
  <g transform="matrix(1 0 0 1 -2062 -1820 )">
    <path d="M 4.8733928418992 11.4457309526007  C 4.8733928418992 11.4457309526007  4.8761457964365 7.14878186283446  4.8761457964365 7.14878186283446  C 4.8761457964365 7.14878186283446  6.219587610708 4.92349988635675  6.219587610708 4.92349988635675  C 6.219587610708 4.92349988635675  14.8198175856764 7.72057052026117  14.8198175856764 7.72057052026117  C 14.8198175856764 7.72057052026117  31.9362909507704 0.167839746789309  31.9362909507704 0.167839746789309  C 31.9362909507704 0.167839746789309  35.0471295780794 8.78947394328638  35.0471295780794 8.78947394328638  C 35.0471295780794 8.78947394328638  33.5770518550858 9.84984320724561  33.5770518550858 9.84984320724561  C 33.5770518550858 9.84984320724561  16.1164591728116 13.3616496629333  16.1164591728116 13.3616496629333  C 16.1164591728116 13.3616496629333  25.8109671049624 21.858455142714  25.8109671049624 21.858455142714  C 25.8109671049624 21.858455142714  23.2589782487535 23.0297684745324  23.2589782487535 23.0297684745324  C 23.2589782487535 23.0297684745324  21.9871132524554 25.3361249621376  21.9871132524554 25.3361249621376  C 21.9871132524554 25.3361249621376  14.098543496867 26.2855501582379  14.098543496867 26.2855501582379  C 14.098543496867 26.2855501582379  12.2513110022433 28.7540556680986  12.2513110022433 28.7540556680986  C 12.2513110022433 28.7540556680986  8.91473010286381 30.8534587983517  8.91473010286381 30.8534587983517  C 8.91473010286381 30.8534587983517  0.325511946045026 29.769620596961  0.325511946045026 29.769620596961  C 0.325511946045026 29.769620596961  0.0667342195256424 28.7796581452969  0.0667342195256424 28.7796581452969  C 0.0667342195256424 28.7796581452969  3.91261170833195 17.7577917114674  3.91261170833195 17.7577917114674  C 3.91261170833195 17.7577917114674  3.7309167088606 13.4981962079904  3.7309167088606 13.4981962079904  C 3.7309167088606 13.4981962079904  4.8733928418992 11.4457309526007  4.8733928418992 11.4457309526007  Z " fill-rule="nonzero" fill="#f2f2f2" stroke="none" transform="matrix(1 0 0 1 2062 1820 )" />
    <path d="M 4.8733928418992 11.4457309526007  C 4.8733928418992 11.4457309526007  4.8761457964365 7.14878186283446  4.8761457964365 7.14878186283446  C 4.8761457964365 7.14878186283446  6.219587610708 4.92349988635675  6.219587610708 4.92349988635675  C 6.219587610708 4.92349988635675  14.8198175856764 7.72057052026117  14.8198175856764 7.72057052026117  C 14.8198175856764 7.72057052026117  31.9362909507704 0.167839746789309  31.9362909507704 0.167839746789309  C 31.9362909507704 0.167839746789309  35.0471295780794 8.78947394328638  35.0471295780794 8.78947394328638  C 35.0471295780794 8.78947394328638  33.5770518550858 9.84984320724561  33.5770518550858 9.84984320724561  C 33.5770518550858 9.84984320724561  16.1164591728116 13.3616496629333  16.1164591728116 13.3616496629333  C 16.1164591728116 13.3616496629333  25.8109671049624 21.858455142714  25.8109671049624 21.858455142714  C 25.8109671049624 21.858455142714  23.2589782487535 23.0297684745324  23.2589782487535 23.0297684745324  C 23.2589782487535 23.0297684745324  21.9871132524554 25.3361249621376  21.9871132524554 25.3361249621376  C 21.9871132524554 25.3361249621376  14.098543496867 26.2855501582379  14.098543496867 26.2855501582379  C 14.098543496867 26.2855501582379  12.2513110022433 28.7540556680986  12.2513110022433 28.7540556680986  C 12.2513110022433 28.7540556680986  8.91473010286381 30.8534587983517  8.91473010286381 30.8534587983517  C 8.91473010286381 30.8534587983517  0.325511946045026 29.769620596961  0.325511946045026 29.769620596961  C 0.325511946045026 29.769620596961  0.0667342195256424 28.7796581452969  0.0667342195256424 28.7796581452969  C 0.0667342195256424 28.7796581452969  3.91261170833195 17.7577917114674  3.91261170833195 17.7577917114674  C 3.91261170833195 17.7577917114674  3.7309167088606 13.4981962079904  3.7309167088606 13.4981962079904  C 3.7309167088606 13.4981962079904  4.8733928418992 11.4457309526007  4.8733928418992 11.4457309526007  Z " stroke-width="2" stroke="#505050" fill="none" stroke-opacity="0.211764705882353" transform="matrix(1 0 0 1 2062 1820 )" mask="url(#clip676)" />
  </g>
</svg>