<?xml version="1.0" encoding="utf-8"?>
<svg version="1.1" xmlns:xlink="http://www.w3.org/1999/xlink" width="127px" height="114px" xmlns="http://www.w3.org/2000/svg">
  <defs>
    <mask fill="white" id="clip677">
      <path d="M 37.7938645565406 88.3014095840563  C 37.7938645565406 88.3014095840563  43.4206455415835 89.8684441031567  43.4206455415835 89.8684441031567  C 43.4206455415835 89.8684441031567  44.3985035962659 92.3490446999218  44.3985035962659 92.3490446999218  C 44.3985035962659 92.3490446999218  40.0855486567593 98.2635621997057  40.0855486567593 98.2635621997057  C 40.0855486567593 98.2635621997057  36.9443845146234 95.9592261167489  36.9443845146234 95.9592261167489  C 36.9443845146234 95.9592261167489  31.0321886134135 97.6294398634443  31.0321886134135 97.6294398634443  C 31.0321886134135 97.6294398634443  28.9999919858052 101.812497715528  28.9999919858052 101.812497715528  C 28.9999919858052 101.812497715528  24.0096381704295 99.7790071050085  24.0096381704295 99.7790071050085  C 24.0096381704295 99.7790071050085  24.0697300061922 96.3762421616123  24.0697300061922 96.3762421616123  C 24.0697300061922 96.3762421616123  28.3062044274558 90.5090151411427  28.3062044274558 90.5090151411427  C 28.3062044274558 90.5090151411427  32.6628625202443 91.3473463653528  32.6628625202443 91.3473463653528  C 32.6628625202443 91.3473463653528  37.7938645565406 88.3014095840563  37.7938645565406 88.3014095840563  Z M 91.8300821425176 59.9421689660995  C 91.8300821425176 59.9421689660995  91.9584601552824 67.7644441581519  91.9584601552824 67.7644441581519  C 91.9584601552824 67.7644441581519  89.0713205915975 75.3040344925584  89.0713205915975 75.3040344925584  C 89.0713205915975 75.3040344925584  90.4069982137755 79.0249353877061  90.4069982137755 79.0249353877061  C 90.4069982137755 79.0249353877061  86.4163540297229 84.2182898433252  86.4163540297229 84.2182898433252  C 86.4163540297229 84.2182898433252  76.6323105887398 87.6618965643109  76.6323105887398 87.6618965643109  C 76.6323105887398 87.6618965643109  63.1690079308377 88.1090065505564  63.1690079308377 88.1090065505564  C 63.1690079308377 88.1090065505564  52.2568768457657 96.3719430271293  52.2568768457657 96.3719430271293  C 52.2568768457657 96.3719430271293  45.1264555468228 93.6033004199945  45.1264555468228 93.6033004199945  C 45.1264555468228 93.6033004199945  44.8096076855292 88.1799422695279  44.8096076855292 88.1799422695279  C 44.8096076855292 88.1799422695279  31.4883402757931 89.7856689989764  31.4883402757931 89.7856689989764  C 31.4883402757931 89.7856689989764  22.4253988639615 93.1991817785805  22.4253988639615 93.1991817785805  C 22.4253988639615 93.1991817785805  13.4607895470135 93.3367540820406  13.4607895470135 93.3367540820406  C 13.4607895470135 93.3367540820406  21.2262935957892 98.6311381980133  21.2262935957892 98.6311381980133  C 21.2262935957892 98.6311381980133  16.1157561088881 110.69235999043  16.1157561088881 110.69235999043  C 16.1157561088881 110.69235999043  11.1636425526339 113.643715813098  11.1636425526339 113.643715813098  C 11.1636425526339 113.643715813098  7.45980031199385 110.918064550794  7.45980031199385 110.918064550794  C 7.45980031199385 110.918064550794  9.33903590311524 104.553195948523  9.33903590311524 104.553195948523  C 9.33903590311524 104.553195948523  4.49344878298554 102.485312262138  4.49344878298554 102.485312262138  C 4.49344878298554 102.485312262138  1.38233055873122 97.58214938413  1.38233055873122 97.58214938413  C 1.38233055873122 97.58214938413  8.62066532104421 95.3680951253189  8.62066532104421 95.3680951253189  C 8.62066532104421 95.3680951253189  12.6386239758979 90.8239099766522  12.6386239758979 90.8239099766522  C 12.6386239758979 90.8239099766522  20.341304741831 87.0621673039148  20.341304741831 87.0621673039148  C 20.341304741831 87.0621673039148  25.9598913856339 82.0472269293454  25.9598913856339 82.0472269293454  C 25.9598913856339 82.0472269293454  41.2040975397732 79.8482196412252  41.2040975397732 79.8482196412252  C 41.2040975397732 79.8482196412252  51.3773508859679 81.3572158448033  51.3773508859679 81.3572158448033  C 51.3773508859679 81.3572158448033  59.3914166190346 66.5370412632188  59.3914166190346 66.5370412632188  C 59.3914166190346 66.5370412632188  64.4964912117753 70.1289681238726  64.4964912117753 70.1289681238726  C 64.4964912117753 70.1289681238726  75.7309330523012 62.579687971499  75.7309330523012 62.579687971499  C 75.7309330523012 62.579687971499  80.0875911450897 59.619733879865  80.0875911450897 59.619733879865  C 80.0875911450897 59.619733879865  84.9031323473383 50.1981806600891  84.9031323473383 50.1981806600891  C 84.9031323473383 50.1981806600891  83.5893063018015 41.3849549696757  83.5893063018015 41.3849549696757  C 83.5893063018015 41.3849549696757  86.8260710917411 36.3700145951064  86.8260710917411 36.3700145951064  C 86.8260710917411 36.3700145951064  94.9685148375735 34.9040097363595  94.9685148375735 34.9040097363595  C 94.9685148375735 34.9040097363595  99.1421659759941 45.8839992062696  99.1421659759941 45.8839992062696  C 99.1421659759941 45.8839992062696  98.9154558683442 52.1994277619852  98.9154558683442 52.1994277619852  C 98.9154558683442 52.1994277619852  91.8300821425176 59.9421689660995  91.8300821425176 59.9421689660995  Z M 108.552001167 9.20378379621776  C 108.552001167 9.20378379621776  114.427343836334 12.0240160171501  114.427343836334 12.0240160171501  C 114.427343836334 12.0240160171501  119.813757478327 13.8060072604069  119.813757478327 13.8060072604069  C 119.813757478327 13.8060072604069  125.230217038201 10.2570717445843  125.230217038201 10.2570717445843  C 125.230217038201 10.2570717445843  126.931908569115 21.165033946522  126.931908569115 21.165033946522  C 126.931908569115 21.165033946522  115.571820162904 23.4177804156813  115.571820162904 23.4177804156813  C 115.571820162904 23.4177804156813  108.866117581214 31.5066019456874  108.866117581214 31.5066019456874  C 108.866117581214 31.5066019456874  94.8387924049724 25.954269760727  94.8387924049724 25.954269760727  C 94.8387924049724 25.954269760727  90.6733356077927 34.8147859304547  90.6733356077927 34.8147859304547  C 90.6733356077927 34.8147859304547  82.1539521649041 34.9351616959823  82.1539521649041 34.9351616959823  C 82.1539521649041 34.9351616959823  81.0996135919787 26.8936306452906  81.0996135919787 26.8936306452906  C 81.0996135919787 26.8936306452906  84.8881306921021 20.5803516568164  84.8881306921021 20.5803516568164  C 84.8881306921021 20.5803516568164  93.071546144136 20.1224938343632  93.071546144136 20.1224938343632  C 93.071546144136 20.1224938343632  95.3031384085925 6.99402867188969  95.3031384085925 6.99402867188969  C 95.3031384085925 6.99402867188969  97.5675080380105 0.354015462697784  97.5675080380105 0.354015462697784  C 97.5675080380105 0.354015462697784  108.552001167 9.20378379621776  108.552001167 9.20378379621776  Z " fill-rule="evenodd" />
    </mask>
  </defs>
  <g transform="matrix(1 0 0 1 -2788 -1726 )">
    <path d="M 37.7938645565406 88.3014095840563  C 37.7938645565406 88.3014095840563  43.4206455415835 89.8684441031567  43.4206455415835 89.8684441031567  C 43.4206455415835 89.8684441031567  44.3985035962659 92.3490446999218  44.3985035962659 92.3490446999218  C 44.3985035962659 92.3490446999218  40.0855486567593 98.2635621997057  40.0855486567593 98.2635621997057  C 40.0855486567593 98.2635621997057  36.9443845146234 95.9592261167489  36.9443845146234 95.9592261167489  C 36.9443845146234 95.9592261167489  31.0321886134135 97.6294398634443  31.0321886134135 97.6294398634443  C 31.0321886134135 97.6294398634443  28.9999919858052 101.812497715528  28.9999919858052 101.812497715528  C 28.9999919858052 101.812497715528  24.0096381704295 99.7790071050085  24.0096381704295 99.7790071050085  C 24.0096381704295 99.7790071050085  24.0697300061922 96.3762421616123  24.0697300061922 96.3762421616123  C 24.0697300061922 96.3762421616123  28.3062044274558 90.5090151411427  28.3062044274558 90.5090151411427  C 28.3062044274558 90.5090151411427  32.6628625202443 91.3473463653528  32.6628625202443 91.3473463653528  C 32.6628625202443 91.3473463653528  37.7938645565406 88.3014095840563  37.7938645565406 88.3014095840563  Z M 91.8300821425176 59.9421689660995  C 91.8300821425176 59.9421689660995  91.9584601552824 67.7644441581519  91.9584601552824 67.7644441581519  C 91.9584601552824 67.7644441581519  89.0713205915975 75.3040344925584  89.0713205915975 75.3040344925584  C 89.0713205915975 75.3040344925584  90.4069982137755 79.0249353877061  90.4069982137755 79.0249353877061  C 90.4069982137755 79.0249353877061  86.4163540297229 84.2182898433252  86.4163540297229 84.2182898433252  C 86.4163540297229 84.2182898433252  76.6323105887398 87.6618965643109  76.6323105887398 87.6618965643109  C 76.6323105887398 87.6618965643109  63.1690079308377 88.1090065505564  63.1690079308377 88.1090065505564  C 63.1690079308377 88.1090065505564  52.2568768457657 96.3719430271293  52.2568768457657 96.3719430271293  C 52.2568768457657 96.3719430271293  45.1264555468228 93.6033004199945  45.1264555468228 93.6033004199945  C 45.1264555468228 93.6033004199945  44.8096076855292 88.1799422695279  44.8096076855292 88.1799422695279  C 44.8096076855292 88.1799422695279  31.4883402757931 89.7856689989764  31.4883402757931 89.7856689989764  C 31.4883402757931 89.7856689989764  22.4253988639615 93.1991817785805  22.4253988639615 93.1991817785805  C 22.4253988639615 93.1991817785805  13.4607895470135 93.3367540820406  13.4607895470135 93.3367540820406  C 13.4607895470135 93.3367540820406  21.2262935957892 98.6311381980133  21.2262935957892 98.6311381980133  C 21.2262935957892 98.6311381980133  16.1157561088881 110.69235999043  16.1157561088881 110.69235999043  C 16.1157561088881 110.69235999043  11.1636425526339 113.643715813098  11.1636425526339 113.643715813098  C 11.1636425526339 113.643715813098  7.45980031199385 110.918064550794  7.45980031199385 110.918064550794  C 7.45980031199385 110.918064550794  9.33903590311524 104.553195948523  9.33903590311524 104.553195948523  C 9.33903590311524 104.553195948523  4.49344878298554 102.485312262138  4.49344878298554 102.485312262138  C 4.49344878298554 102.485312262138  1.38233055873122 97.58214938413  1.38233055873122 97.58214938413  C 1.38233055873122 97.58214938413  8.62066532104421 95.3680951253189  8.62066532104421 95.3680951253189  C 8.62066532104421 95.3680951253189  12.6386239758979 90.8239099766522  12.6386239758979 90.8239099766522  C 12.6386239758979 90.8239099766522  20.341304741831 87.0621673039148  20.341304741831 87.0621673039148  C 20.341304741831 87.0621673039148  25.9598913856339 82.0472269293454  25.9598913856339 82.0472269293454  C 25.9598913856339 82.0472269293454  41.2040975397732 79.8482196412252  41.2040975397732 79.8482196412252  C 41.2040975397732 79.8482196412252  51.3773508859679 81.3572158448033  51.3773508859679 81.3572158448033  C 51.3773508859679 81.3572158448033  59.3914166190346 66.5370412632188  59.3914166190346 66.5370412632188  C 59.3914166190346 66.5370412632188  64.4964912117753 70.1289681238726  64.4964912117753 70.1289681238726  C 64.4964912117753 70.1289681238726  75.7309330523012 62.579687971499  75.7309330523012 62.579687971499  C 75.7309330523012 62.579687971499  80.0875911450897 59.619733879865  80.0875911450897 59.619733879865  C 80.0875911450897 59.619733879865  84.9031323473383 50.1981806600891  84.9031323473383 50.1981806600891  C 84.9031323473383 50.1981806600891  83.5893063018015 41.3849549696757  83.5893063018015 41.3849549696757  C 83.5893063018015 41.3849549696757  86.8260710917411 36.3700145951064  86.8260710917411 36.3700145951064  C 86.8260710917411 36.3700145951064  94.9685148375735 34.9040097363595  94.9685148375735 34.9040097363595  C 94.9685148375735 34.9040097363595  99.1421659759941 45.8839992062696  99.1421659759941 45.8839992062696  C 99.1421659759941 45.8839992062696  98.9154558683442 52.1994277619852  98.9154558683442 52.1994277619852  C 98.9154558683442 52.1994277619852  91.8300821425176 59.9421689660995  91.8300821425176 59.9421689660995  Z M 108.552001167 9.20378379621776  C 108.552001167 9.20378379621776  114.427343836334 12.0240160171501  114.427343836334 12.0240160171501  C 114.427343836334 12.0240160171501  119.813757478327 13.8060072604069  119.813757478327 13.8060072604069  C 119.813757478327 13.8060072604069  125.230217038201 10.2570717445843  125.230217038201 10.2570717445843  C 125.230217038201 10.2570717445843  126.931908569115 21.165033946522  126.931908569115 21.165033946522  C 126.931908569115 21.165033946522  115.571820162904 23.4177804156813  115.571820162904 23.4177804156813  C 115.571820162904 23.4177804156813  108.866117581214 31.5066019456874  108.866117581214 31.5066019456874  C 108.866117581214 31.5066019456874  94.8387924049724 25.954269760727  94.8387924049724 25.954269760727  C 94.8387924049724 25.954269760727  90.6733356077927 34.8147859304547  90.6733356077927 34.8147859304547  C 90.6733356077927 34.8147859304547  82.1539521649041 34.9351616959823  82.1539521649041 34.9351616959823  C 82.1539521649041 34.9351616959823  81.0996135919787 26.8936306452906  81.0996135919787 26.8936306452906  C 81.0996135919787 26.8936306452906  84.8881306921021 20.5803516568164  84.8881306921021 20.5803516568164  C 84.8881306921021 20.5803516568164  93.071546144136 20.1224938343632  93.071546144136 20.1224938343632  C 93.071546144136 20.1224938343632  95.3031384085925 6.99402867188969  95.3031384085925 6.99402867188969  C 95.3031384085925 6.99402867188969  97.5675080380105 0.354015462697784  97.5675080380105 0.354015462697784  C 97.5675080380105 0.354015462697784  108.552001167 9.20378379621776  108.552001167 9.20378379621776  Z " fill-rule="nonzero" fill="#a29bfe" stroke="none" transform="matrix(1 0 0 1 2788 1726 )" />
    <path d="M 37.7938645565406 88.3014095840563  C 37.7938645565406 88.3014095840563  43.4206455415835 89.8684441031567  43.4206455415835 89.8684441031567  C 43.4206455415835 89.8684441031567  44.3985035962659 92.3490446999218  44.3985035962659 92.3490446999218  C 44.3985035962659 92.3490446999218  40.0855486567593 98.2635621997057  40.0855486567593 98.2635621997057  C 40.0855486567593 98.2635621997057  36.9443845146234 95.9592261167489  36.9443845146234 95.9592261167489  C 36.9443845146234 95.9592261167489  31.0321886134135 97.6294398634443  31.0321886134135 97.6294398634443  C 31.0321886134135 97.6294398634443  28.9999919858052 101.812497715528  28.9999919858052 101.812497715528  C 28.9999919858052 101.812497715528  24.0096381704295 99.7790071050085  24.0096381704295 99.7790071050085  C 24.0096381704295 99.7790071050085  24.0697300061922 96.3762421616123  24.0697300061922 96.3762421616123  C 24.0697300061922 96.3762421616123  28.3062044274558 90.5090151411427  28.3062044274558 90.5090151411427  C 28.3062044274558 90.5090151411427  32.6628625202443 91.3473463653528  32.6628625202443 91.3473463653528  C 32.6628625202443 91.3473463653528  37.7938645565406 88.3014095840563  37.7938645565406 88.3014095840563  Z " stroke-width="2" stroke="#505050" fill="none" stroke-opacity="0.211764705882353" transform="matrix(1 0 0 1 2788 1726 )" mask="url(#clip677)" />
    <path d="M 91.8300821425176 59.9421689660995  C 91.8300821425176 59.9421689660995  91.9584601552824 67.7644441581519  91.9584601552824 67.7644441581519  C 91.9584601552824 67.7644441581519  89.0713205915975 75.3040344925584  89.0713205915975 75.3040344925584  C 89.0713205915975 75.3040344925584  90.4069982137755 79.0249353877061  90.4069982137755 79.0249353877061  C 90.4069982137755 79.0249353877061  86.4163540297229 84.2182898433252  86.4163540297229 84.2182898433252  C 86.4163540297229 84.2182898433252  76.6323105887398 87.6618965643109  76.6323105887398 87.6618965643109  C 76.6323105887398 87.6618965643109  63.1690079308377 88.1090065505564  63.1690079308377 88.1090065505564  C 63.1690079308377 88.1090065505564  52.2568768457657 96.3719430271293  52.2568768457657 96.3719430271293  C 52.2568768457657 96.3719430271293  45.1264555468228 93.6033004199945  45.1264555468228 93.6033004199945  C 45.1264555468228 93.6033004199945  44.8096076855292 88.1799422695279  44.8096076855292 88.1799422695279  C 44.8096076855292 88.1799422695279  31.4883402757931 89.7856689989764  31.4883402757931 89.7856689989764  C 31.4883402757931 89.7856689989764  22.4253988639615 93.1991817785805  22.4253988639615 93.1991817785805  C 22.4253988639615 93.1991817785805  13.4607895470135 93.3367540820406  13.4607895470135 93.3367540820406  C 13.4607895470135 93.3367540820406  21.2262935957892 98.6311381980133  21.2262935957892 98.6311381980133  C 21.2262935957892 98.6311381980133  16.1157561088881 110.69235999043  16.1157561088881 110.69235999043  C 16.1157561088881 110.69235999043  11.1636425526339 113.643715813098  11.1636425526339 113.643715813098  C 11.1636425526339 113.643715813098  7.45980031199385 110.918064550794  7.45980031199385 110.918064550794  C 7.45980031199385 110.918064550794  9.33903590311524 104.553195948523  9.33903590311524 104.553195948523  C 9.33903590311524 104.553195948523  4.49344878298554 102.485312262138  4.49344878298554 102.485312262138  C 4.49344878298554 102.485312262138  1.38233055873122 97.58214938413  1.38233055873122 97.58214938413  C 1.38233055873122 97.58214938413  8.62066532104421 95.3680951253189  8.62066532104421 95.3680951253189  C 8.62066532104421 95.3680951253189  12.6386239758979 90.8239099766522  12.6386239758979 90.8239099766522  C 12.6386239758979 90.8239099766522  20.341304741831 87.0621673039148  20.341304741831 87.0621673039148  C 20.341304741831 87.0621673039148  25.9598913856339 82.0472269293454  25.9598913856339 82.0472269293454  C 25.9598913856339 82.0472269293454  41.2040975397732 79.8482196412252  41.2040975397732 79.8482196412252  C 41.2040975397732 79.8482196412252  51.3773508859679 81.3572158448033  51.3773508859679 81.3572158448033  C 51.3773508859679 81.3572158448033  59.3914166190346 66.5370412632188  59.3914166190346 66.5370412632188  C 59.3914166190346 66.5370412632188  64.4964912117753 70.1289681238726  64.4964912117753 70.1289681238726  C 64.4964912117753 70.1289681238726  75.7309330523012 62.579687971499  75.7309330523012 62.579687971499  C 75.7309330523012 62.579687971499  80.0875911450897 59.619733879865  80.0875911450897 59.619733879865  C 80.0875911450897 59.619733879865  84.9031323473383 50.1981806600891  84.9031323473383 50.1981806600891  C 84.9031323473383 50.1981806600891  83.5893063018015 41.3849549696757  83.5893063018015 41.3849549696757  C 83.5893063018015 41.3849549696757  86.8260710917411 36.3700145951064  86.8260710917411 36.3700145951064  C 86.8260710917411 36.3700145951064  94.9685148375735 34.9040097363595  94.9685148375735 34.9040097363595  C 94.9685148375735 34.9040097363595  99.1421659759941 45.8839992062696  99.1421659759941 45.8839992062696  C 99.1421659759941 45.8839992062696  98.9154558683442 52.1994277619852  98.9154558683442 52.1994277619852  C 98.9154558683442 52.1994277619852  91.8300821425176 59.9421689660995  91.8300821425176 59.9421689660995  Z " stroke-width="2" stroke="#505050" fill="none" stroke-opacity="0.211764705882353" transform="matrix(1 0 0 1 2788 1726 )" mask="url(#clip677)" />
    <path d="M 108.552001167 9.20378379621776  C 108.552001167 9.20378379621776  114.427343836334 12.0240160171501  114.427343836334 12.0240160171501  C 114.427343836334 12.0240160171501  119.813757478327 13.8060072604069  119.813757478327 13.8060072604069  C 119.813757478327 13.8060072604069  125.230217038201 10.2570717445843  125.230217038201 10.2570717445843  C 125.230217038201 10.2570717445843  126.931908569115 21.165033946522  126.931908569115 21.165033946522  C 126.931908569115 21.165033946522  115.571820162904 23.4177804156813  115.571820162904 23.4177804156813  C 115.571820162904 23.4177804156813  108.866117581214 31.5066019456874  108.866117581214 31.5066019456874  C 108.866117581214 31.5066019456874  94.8387924049724 25.954269760727  94.8387924049724 25.954269760727  C 94.8387924049724 25.954269760727  90.6733356077927 34.8147859304547  90.6733356077927 34.8147859304547  C 90.6733356077927 34.8147859304547  82.1539521649041 34.9351616959823  82.1539521649041 34.9351616959823  C 82.1539521649041 34.9351616959823  81.0996135919787 26.8936306452906  81.0996135919787 26.8936306452906  C 81.0996135919787 26.8936306452906  84.8881306921021 20.5803516568164  84.8881306921021 20.5803516568164  C 84.8881306921021 20.5803516568164  93.071546144136 20.1224938343632  93.071546144136 20.1224938343632  C 93.071546144136 20.1224938343632  95.3031384085925 6.99402867188969  95.3031384085925 6.99402867188969  C 95.3031384085925 6.99402867188969  97.5675080380105 0.354015462697784  97.5675080380105 0.354015462697784  C 97.5675080380105 0.354015462697784  108.552001167 9.20378379621776  108.552001167 9.20378379621776  Z " stroke-width="2" stroke="#505050" fill="none" stroke-opacity="0.211764705882353" transform="matrix(1 0 0 1 2788 1726 )" mask="url(#clip677)" />
  </g>
</svg>