<?xml version="1.0" encoding="utf-8"?>
<svg version="1.1" xmlns:xlink="http://www.w3.org/1999/xlink" width="64px" height="65px" xmlns="http://www.w3.org/2000/svg">
  <defs>
    <mask fill="white" id="clip681">
      <path d="M 56.8311729470515 17.6589306470301  C 56.8311729470515 17.6589306470301  56.922020446787 40.8244529325945  56.922020446787 40.8244529325945  C 56.922020446787 40.8244529325945  61.4946779334778 45.7219262814355  61.4946779334778 45.7219262814355  C 61.4946779334778 45.7219262814355  56.0878752219419 48.0929083768072  56.0878752219419 48.0929083768072  C 56.0878752219419 48.0929083768072  54.1800777274948 50.5704035941634  54.1800777274948 50.5704035941634  C 54.1800777274948 50.5704035941634  51.2894754631807 51.0049771318597  51.2894754631807 51.0049771318597  C 51.2894754631807 51.0049771318597  50.1937995572789 55.1909428258449  50.1937995572789 55.1909428258449  C 50.1937995572789 55.1909428258449  47.7161404735812 57.5896183329328  47.7161404735812 57.5896183329328  C 47.7161404735812 57.5896183329328  46.207521387063 61.5455156834317  46.207521387063 61.5455156834317  C 46.207521387063 61.5455156834317  43.0994357142908 63.5117479152629  43.0994357142908 63.5117479152629  C 43.0994357142908 63.5117479152629  30.0215466556247 57.5640551836565  30.0215466556247 57.5640551836565  C 30.0215466556247 57.5640551836565  29.4957323389735 54.1172905562426  29.4957323389735 54.1172905562426  C 29.4957323389735 54.1172905562426  1.50644355680151 42.0216604236989  1.50644355680151 42.0216604236989  C 1.50644355680151 42.0216604236989  0.201543106054032 41.3698001171545  0.201543106054032 41.3698001171545  C 0.201543106054032 41.3698001171545  0.124460379005541 35.0812653951981  0.124460379005541 35.0812653951981  C 0.124460379005541 35.0812653951981  2.33508287257155 31.1307103156119  2.33508287257155 31.1307103156119  C 2.33508287257155 31.1307103156119  6.13140717970373 27.2025063768286  6.13140717970373 27.2025063768286  C 6.13140717970373 27.2025063768286  8.94217376243205 22.8759433618239  8.94217376243205 22.8759433618239  C 8.94217376243205 22.8759433618239  5.54502786322882 16.0591035548248  5.54502786322882 16.0591035548248  C 5.54502786322882 16.0591035548248  4.64205877494805 13.0767361392631  4.64205877494805 13.0767361392631  C 4.64205877494805 13.0767361392631  0.983382194687692 8.94828753114934  0.983382194687692 8.94828753114934  C 0.983382194687692 8.94828753114934  5.73222877177477 5.39287951931142  5.73222877177477 5.39287951931142  C 5.73222877177477 5.39287951931142  10.9655953474521 1.46680584296803  10.9655953474521 1.46680584296803  C 10.9655953474521 1.46680584296803  14.9738971539673 2.46802918962076  14.9738971539673 2.46802918962076  C 14.9738971539673 2.46802918962076  14.9738971539673 5.81041095749004  14.9738971539673 5.81041095749004  C 14.9738971539673 5.81041095749004  17.6112276008366 7.77025240200219  17.6112276008366 7.77025240200219  C 17.6112276008366 7.77025240200219  22.9822419033858 7.77025240200219  22.9822419033858 7.77025240200219  C 22.9822419033858 7.77025240200219  34.7524775567676 12.8211046465005  34.7524775567676 12.8211046465005  C 34.7524775567676 12.8211046465005  37.1915952769409 12.8807519948118  37.1915952769409 12.8807519948118  C 37.1915952769409 12.8807519948118  39.0002864080402 12.7167217869559  39.0002864080402 12.7167217869559  C 39.0002864080402 12.7167217869559  40.7098711757917 13.402666292535  40.7098711757917 13.402666292535  C 40.7098711757917 13.402666292535  45.8578961608082 13.8713240292663  45.8578961608082 13.8713240292663  C 45.8578961608082 13.8713240292663  48.1373425178099 11.3938288119101  48.1373425178099 11.3938288119101  C 48.1373425178099 11.3938288119101  55.1904120427362 8.90568228235533  55.1904120427362 8.90568228235533  C 55.1904120427362 8.90568228235533  58.3012506700452 10.9145197629806  58.3012506700452 10.9145197629806  C 58.3012506700452 10.9145197629806  63.5759115637838 10.9166500254202  63.5759115637838 10.9166500254202  C 63.5759115637838 10.9166500254202  56.8311729470515 17.6589306470301  56.8311729470515 17.6589306470301  Z " fill-rule="evenodd" />
    </mask>
  </defs>
  <g transform="matrix(1 0 0 1 -2055 -2000 )">
    <path d="M 56.8311729470515 17.6589306470301  C 56.8311729470515 17.6589306470301  56.922020446787 40.8244529325945  56.922020446787 40.8244529325945  C 56.922020446787 40.8244529325945  61.4946779334778 45.7219262814355  61.4946779334778 45.7219262814355  C 61.4946779334778 45.7219262814355  56.0878752219419 48.0929083768072  56.0878752219419 48.0929083768072  C 56.0878752219419 48.0929083768072  54.1800777274948 50.5704035941634  54.1800777274948 50.5704035941634  C 54.1800777274948 50.5704035941634  51.2894754631807 51.0049771318597  51.2894754631807 51.0049771318597  C 51.2894754631807 51.0049771318597  50.1937995572789 55.1909428258449  50.1937995572789 55.1909428258449  C 50.1937995572789 55.1909428258449  47.7161404735812 57.5896183329328  47.7161404735812 57.5896183329328  C 47.7161404735812 57.5896183329328  46.207521387063 61.5455156834317  46.207521387063 61.5455156834317  C 46.207521387063 61.5455156834317  43.0994357142908 63.5117479152629  43.0994357142908 63.5117479152629  C 43.0994357142908 63.5117479152629  30.0215466556247 57.5640551836565  30.0215466556247 57.5640551836565  C 30.0215466556247 57.5640551836565  29.4957323389735 54.1172905562426  29.4957323389735 54.1172905562426  C 29.4957323389735 54.1172905562426  1.50644355680151 42.0216604236989  1.50644355680151 42.0216604236989  C 1.50644355680151 42.0216604236989  0.201543106054032 41.3698001171545  0.201543106054032 41.3698001171545  C 0.201543106054032 41.3698001171545  0.124460379005541 35.0812653951981  0.124460379005541 35.0812653951981  C 0.124460379005541 35.0812653951981  2.33508287257155 31.1307103156119  2.33508287257155 31.1307103156119  C 2.33508287257155 31.1307103156119  6.13140717970373 27.2025063768286  6.13140717970373 27.2025063768286  C 6.13140717970373 27.2025063768286  8.94217376243205 22.8759433618239  8.94217376243205 22.8759433618239  C 8.94217376243205 22.8759433618239  5.54502786322882 16.0591035548248  5.54502786322882 16.0591035548248  C 5.54502786322882 16.0591035548248  4.64205877494805 13.0767361392631  4.64205877494805 13.0767361392631  C 4.64205877494805 13.0767361392631  0.983382194687692 8.94828753114934  0.983382194687692 8.94828753114934  C 0.983382194687692 8.94828753114934  5.73222877177477 5.39287951931142  5.73222877177477 5.39287951931142  C 5.73222877177477 5.39287951931142  10.9655953474521 1.46680584296803  10.9655953474521 1.46680584296803  C 10.9655953474521 1.46680584296803  14.9738971539673 2.46802918962076  14.9738971539673 2.46802918962076  C 14.9738971539673 2.46802918962076  14.9738971539673 5.81041095749004  14.9738971539673 5.81041095749004  C 14.9738971539673 5.81041095749004  17.6112276008366 7.77025240200219  17.6112276008366 7.77025240200219  C 17.6112276008366 7.77025240200219  22.9822419033858 7.77025240200219  22.9822419033858 7.77025240200219  C 22.9822419033858 7.77025240200219  34.7524775567676 12.8211046465005  34.7524775567676 12.8211046465005  C 34.7524775567676 12.8211046465005  37.1915952769409 12.8807519948118  37.1915952769409 12.8807519948118  C 37.1915952769409 12.8807519948118  39.0002864080402 12.7167217869559  39.0002864080402 12.7167217869559  C 39.0002864080402 12.7167217869559  40.7098711757917 13.402666292535  40.7098711757917 13.402666292535  C 40.7098711757917 13.402666292535  45.8578961608082 13.8713240292663  45.8578961608082 13.8713240292663  C 45.8578961608082 13.8713240292663  48.1373425178099 11.3938288119101  48.1373425178099 11.3938288119101  C 48.1373425178099 11.3938288119101  55.1904120427362 8.90568228235533  55.1904120427362 8.90568228235533  C 55.1904120427362 8.90568228235533  58.3012506700452 10.9145197629806  58.3012506700452 10.9145197629806  C 58.3012506700452 10.9145197629806  63.5759115637838 10.9166500254202  63.5759115637838 10.9166500254202  C 63.5759115637838 10.9166500254202  56.8311729470515 17.6589306470301  56.8311729470515 17.6589306470301  Z " fill-rule="nonzero" fill="#f2f2f2" stroke="none" transform="matrix(1 0 0 1 2055 2000 )" />
    <path d="M 56.8311729470515 17.6589306470301  C 56.8311729470515 17.6589306470301  56.922020446787 40.8244529325945  56.922020446787 40.8244529325945  C 56.922020446787 40.8244529325945  61.4946779334778 45.7219262814355  61.4946779334778 45.7219262814355  C 61.4946779334778 45.7219262814355  56.0878752219419 48.0929083768072  56.0878752219419 48.0929083768072  C 56.0878752219419 48.0929083768072  54.1800777274948 50.5704035941634  54.1800777274948 50.5704035941634  C 54.1800777274948 50.5704035941634  51.2894754631807 51.0049771318597  51.2894754631807 51.0049771318597  C 51.2894754631807 51.0049771318597  50.1937995572789 55.1909428258449  50.1937995572789 55.1909428258449  C 50.1937995572789 55.1909428258449  47.7161404735812 57.5896183329328  47.7161404735812 57.5896183329328  C 47.7161404735812 57.5896183329328  46.207521387063 61.5455156834317  46.207521387063 61.5455156834317  C 46.207521387063 61.5455156834317  43.0994357142908 63.5117479152629  43.0994357142908 63.5117479152629  C 43.0994357142908 63.5117479152629  30.0215466556247 57.5640551836565  30.0215466556247 57.5640551836565  C 30.0215466556247 57.5640551836565  29.4957323389735 54.1172905562426  29.4957323389735 54.1172905562426  C 29.4957323389735 54.1172905562426  1.50644355680151 42.0216604236989  1.50644355680151 42.0216604236989  C 1.50644355680151 42.0216604236989  0.201543106054032 41.3698001171545  0.201543106054032 41.3698001171545  C 0.201543106054032 41.3698001171545  0.124460379005541 35.0812653951981  0.124460379005541 35.0812653951981  C 0.124460379005541 35.0812653951981  2.33508287257155 31.1307103156119  2.33508287257155 31.1307103156119  C 2.33508287257155 31.1307103156119  6.13140717970373 27.2025063768286  6.13140717970373 27.2025063768286  C 6.13140717970373 27.2025063768286  8.94217376243205 22.8759433618239  8.94217376243205 22.8759433618239  C 8.94217376243205 22.8759433618239  5.54502786322882 16.0591035548248  5.54502786322882 16.0591035548248  C 5.54502786322882 16.0591035548248  4.64205877494805 13.0767361392631  4.64205877494805 13.0767361392631  C 4.64205877494805 13.0767361392631  0.983382194687692 8.94828753114934  0.983382194687692 8.94828753114934  C 0.983382194687692 8.94828753114934  5.73222877177477 5.39287951931142  5.73222877177477 5.39287951931142  C 5.73222877177477 5.39287951931142  10.9655953474521 1.46680584296803  10.9655953474521 1.46680584296803  C 10.9655953474521 1.46680584296803  14.9738971539673 2.46802918962076  14.9738971539673 2.46802918962076  C 14.9738971539673 2.46802918962076  14.9738971539673 5.81041095749004  14.9738971539673 5.81041095749004  C 14.9738971539673 5.81041095749004  17.6112276008366 7.77025240200219  17.6112276008366 7.77025240200219  C 17.6112276008366 7.77025240200219  22.9822419033858 7.77025240200219  22.9822419033858 7.77025240200219  C 22.9822419033858 7.77025240200219  34.7524775567676 12.8211046465005  34.7524775567676 12.8211046465005  C 34.7524775567676 12.8211046465005  37.1915952769409 12.8807519948118  37.1915952769409 12.8807519948118  C 37.1915952769409 12.8807519948118  39.0002864080402 12.7167217869559  39.0002864080402 12.7167217869559  C 39.0002864080402 12.7167217869559  40.7098711757917 13.402666292535  40.7098711757917 13.402666292535  C 40.7098711757917 13.402666292535  45.8578961608082 13.8713240292663  45.8578961608082 13.8713240292663  C 45.8578961608082 13.8713240292663  48.1373425178099 11.3938288119101  48.1373425178099 11.3938288119101  C 48.1373425178099 11.3938288119101  55.1904120427362 8.90568228235533  55.1904120427362 8.90568228235533  C 55.1904120427362 8.90568228235533  58.3012506700452 10.9145197629806  58.3012506700452 10.9145197629806  C 58.3012506700452 10.9145197629806  63.5759115637838 10.9166500254202  63.5759115637838 10.9166500254202  C 63.5759115637838 10.9166500254202  56.8311729470515 17.6589306470301  56.8311729470515 17.6589306470301  Z " stroke-width="2" stroke="#505050" fill="none" stroke-opacity="0.211764705882353" transform="matrix(1 0 0 1 2055 2000 )" mask="url(#clip681)" />
  </g>
</svg>