<?xml version="1.0" encoding="utf-8"?>
<svg version="1.1" xmlns:xlink="http://www.w3.org/1999/xlink" width="87px" height="35px" xmlns="http://www.w3.org/2000/svg">
  <defs>
    <mask fill="white" id="clip682">
      <path d="M 14.380705887744 9.99181585917216  C 14.380705887744 9.99181585917216  12.1135539754377 9.17938143488384  12.1135539754377 9.17938143488384  C 12.1135539754377 9.17938143488384  13.8227633402977 5.54423010248902  13.8227633402977 5.54423010248902  C 13.8227633402977 5.54423010248902  18.8442462673146 4.36828054496123  18.8442462673146 4.36828054496123  C 18.8442462673146 4.36828054496123  31.4020360913015 7.23479445707267  31.4020360913015 7.23479445707267  C 31.4020360913015 7.23479445707267  32.5859629602731 2.31420105713812  32.5859629602731 2.31420105713812  C 32.5859629602731 2.31420105713812  36.9188631336123 0.575459998149277  36.9188631336123 0.575459998149277  C 36.9188631336123 0.575459998149277  49.763768016754 4.09892897033193  49.763768016754 4.09892897033193  C 49.763768016754 4.09892897033193  52.5371507282071 3.17700203603185  52.5371507282071 3.17700203603185  C 52.5371507282071 3.17700203603185  65.1901990359043 3.40693630705682  65.1901990359043 3.40693630705682  C 65.1901990359043 3.40693630705682  76.5123502426197 4.2806865369518  76.5123502426197 4.2806865369518  C 76.5123502426197 4.2806865369518  80.3417412877756 7.26983206027639  80.3417412877756 7.26983206027639  C 80.3417412877756 7.26983206027639  85.0420670411404 8.48519892140841  85.0420670411404 8.48519892140841  C 85.0420670411404 8.48519892140841  83.9697286816582 10.3531411422113  83.9697286816582 10.3531411422113  C 83.9697286816582 10.3531411422113  71.9453863664492 14.8029167490946  71.9453863664492 14.8029167490946  C 71.9453863664492 14.8029167490946  69.22643707426 19.6304244359553  69.22643707426 19.6304244359553  C 69.22643707426 19.6304244359553  59.4365866197993 20.5939585240599  59.4365866197993 20.5939585240599  C 59.4365866197993 20.5939585240599  56.5488937278942 25.74886589542  56.5488937278942 25.74886589542  C 56.5488937278942 25.74886589542  48.47369598022 24.6714595969029  48.47369598022 24.6714595969029  C 48.47369598022 24.6714595969029  41.2218249263571 26.2437720406737  41.2218249263571 26.2437720406737  C 41.2218249263571 26.2437720406737  33.9359117579969 30.0234534862843  33.9359117579969 30.0234534862843  C 33.9359117579969 30.0234534862843  34.9891984207367 31.8848261564864  34.9891984207367 31.8848261564864  C 34.9891984207367 31.8848261564864  32.8173049921408 33.7002119724836  32.8173049921408 33.7002119724836  C 32.8173049921408 33.7002119724836  18.3870055455047 34.8980600320138  18.3870055455047 34.8980600320138  C 18.3870055455047 34.8980600320138  8.96185900010701 32.3271758969344  8.96185900010701 32.3271758969344  C 8.96185900010701 32.3271758969344  0.685257601159477 32.9425238032013  0.685257601159477 32.9425238032013  C 0.685257601159477 32.9425238032013  1.40922207735811 28.3525977835027  1.40922207735811 28.3525977835027  C 1.40922207735811 28.3525977835027  9.71576185690012 29.6884064056478  9.71576185690012 29.6884064056478  C 9.71576185690012 29.6884064056478  12.5081962650948 27.2226350801801  12.5081962650948 27.2226350801801  C 12.5081962650948 27.2226350801801  18.3135204294998 28.0109811522656  18.3135204294998 28.0109811522656  C 18.3135204294998 28.0109811522656  28.0870408581815 22.2188273726365  28.0870408581815 22.2188273726365  C 28.0870408581815 22.2188273726365  19.0429282476249 16.3489509904626  19.0429282476249 16.3489509904626  C 19.0429282476249 16.3489509904626  13.6077513342084 19.9698512169922  13.6077513342084 19.9698512169922  C 13.6077513342084 19.9698512169922  7.97389244048268 15.3109619955499  7.97389244048268 15.3109619955499  C 7.97389244048268 15.3109619955499  14.380705887744 9.99181585917216  14.380705887744 9.99181585917216  Z " fill-rule="evenodd" />
    </mask>
  </defs>
  <g transform="matrix(1 0 0 1 -2327 -1744 )">
    <path d="M 14.380705887744 9.99181585917216  C 14.380705887744 9.99181585917216  12.1135539754377 9.17938143488384  12.1135539754377 9.17938143488384  C 12.1135539754377 9.17938143488384  13.8227633402977 5.54423010248902  13.8227633402977 5.54423010248902  C 13.8227633402977 5.54423010248902  18.8442462673146 4.36828054496123  18.8442462673146 4.36828054496123  C 18.8442462673146 4.36828054496123  31.4020360913015 7.23479445707267  31.4020360913015 7.23479445707267  C 31.4020360913015 7.23479445707267  32.5859629602731 2.31420105713812  32.5859629602731 2.31420105713812  C 32.5859629602731 2.31420105713812  36.9188631336123 0.575459998149277  36.9188631336123 0.575459998149277  C 36.9188631336123 0.575459998149277  49.763768016754 4.09892897033193  49.763768016754 4.09892897033193  C 49.763768016754 4.09892897033193  52.5371507282071 3.17700203603185  52.5371507282071 3.17700203603185  C 52.5371507282071 3.17700203603185  65.1901990359043 3.40693630705682  65.1901990359043 3.40693630705682  C 65.1901990359043 3.40693630705682  76.5123502426197 4.2806865369518  76.5123502426197 4.2806865369518  C 76.5123502426197 4.2806865369518  80.3417412877756 7.26983206027639  80.3417412877756 7.26983206027639  C 80.3417412877756 7.26983206027639  85.0420670411404 8.48519892140841  85.0420670411404 8.48519892140841  C 85.0420670411404 8.48519892140841  83.9697286816582 10.3531411422113  83.9697286816582 10.3531411422113  C 83.9697286816582 10.3531411422113  71.9453863664492 14.8029167490946  71.9453863664492 14.8029167490946  C 71.9453863664492 14.8029167490946  69.22643707426 19.6304244359553  69.22643707426 19.6304244359553  C 69.22643707426 19.6304244359553  59.4365866197993 20.5939585240599  59.4365866197993 20.5939585240599  C 59.4365866197993 20.5939585240599  56.5488937278942 25.74886589542  56.5488937278942 25.74886589542  C 56.5488937278942 25.74886589542  48.47369598022 24.6714595969029  48.47369598022 24.6714595969029  C 48.47369598022 24.6714595969029  41.2218249263571 26.2437720406737  41.2218249263571 26.2437720406737  C 41.2218249263571 26.2437720406737  33.9359117579969 30.0234534862843  33.9359117579969 30.0234534862843  C 33.9359117579969 30.0234534862843  34.9891984207367 31.8848261564864  34.9891984207367 31.8848261564864  C 34.9891984207367 31.8848261564864  32.8173049921408 33.7002119724836  32.8173049921408 33.7002119724836  C 32.8173049921408 33.7002119724836  18.3870055455047 34.8980600320138  18.3870055455047 34.8980600320138  C 18.3870055455047 34.8980600320138  8.96185900010701 32.3271758969344  8.96185900010701 32.3271758969344  C 8.96185900010701 32.3271758969344  0.685257601159477 32.9425238032013  0.685257601159477 32.9425238032013  C 0.685257601159477 32.9425238032013  1.40922207735811 28.3525977835027  1.40922207735811 28.3525977835027  C 1.40922207735811 28.3525977835027  9.71576185690012 29.6884064056478  9.71576185690012 29.6884064056478  C 9.71576185690012 29.6884064056478  12.5081962650948 27.2226350801801  12.5081962650948 27.2226350801801  C 12.5081962650948 27.2226350801801  18.3135204294998 28.0109811522656  18.3135204294998 28.0109811522656  C 18.3135204294998 28.0109811522656  28.0870408581815 22.2188273726365  28.0870408581815 22.2188273726365  C 28.0870408581815 22.2188273726365  19.0429282476249 16.3489509904626  19.0429282476249 16.3489509904626  C 19.0429282476249 16.3489509904626  13.6077513342084 19.9698512169922  13.6077513342084 19.9698512169922  C 13.6077513342084 19.9698512169922  7.97389244048268 15.3109619955499  7.97389244048268 15.3109619955499  C 7.97389244048268 15.3109619955499  14.380705887744 9.99181585917216  14.380705887744 9.99181585917216  Z " fill-rule="nonzero" fill="#f2f2f2" stroke="none" transform="matrix(1 0 0 1 2327 1744 )" />
    <path d="M 14.380705887744 9.99181585917216  C 14.380705887744 9.99181585917216  12.1135539754377 9.17938143488384  12.1135539754377 9.17938143488384  C 12.1135539754377 9.17938143488384  13.8227633402977 5.54423010248902  13.8227633402977 5.54423010248902  C 13.8227633402977 5.54423010248902  18.8442462673146 4.36828054496123  18.8442462673146 4.36828054496123  C 18.8442462673146 4.36828054496123  31.4020360913015 7.23479445707267  31.4020360913015 7.23479445707267  C 31.4020360913015 7.23479445707267  32.5859629602731 2.31420105713812  32.5859629602731 2.31420105713812  C 32.5859629602731 2.31420105713812  36.9188631336123 0.575459998149277  36.9188631336123 0.575459998149277  C 36.9188631336123 0.575459998149277  49.763768016754 4.09892897033193  49.763768016754 4.09892897033193  C 49.763768016754 4.09892897033193  52.5371507282071 3.17700203603185  52.5371507282071 3.17700203603185  C 52.5371507282071 3.17700203603185  65.1901990359043 3.40693630705682  65.1901990359043 3.40693630705682  C 65.1901990359043 3.40693630705682  76.5123502426197 4.2806865369518  76.5123502426197 4.2806865369518  C 76.5123502426197 4.2806865369518  80.3417412877756 7.26983206027639  80.3417412877756 7.26983206027639  C 80.3417412877756 7.26983206027639  85.0420670411404 8.48519892140841  85.0420670411404 8.48519892140841  C 85.0420670411404 8.48519892140841  83.9697286816582 10.3531411422113  83.9697286816582 10.3531411422113  C 83.9697286816582 10.3531411422113  71.9453863664492 14.8029167490946  71.9453863664492 14.8029167490946  C 71.9453863664492 14.8029167490946  69.22643707426 19.6304244359553  69.22643707426 19.6304244359553  C 69.22643707426 19.6304244359553  59.4365866197993 20.5939585240599  59.4365866197993 20.5939585240599  C 59.4365866197993 20.5939585240599  56.5488937278942 25.74886589542  56.5488937278942 25.74886589542  C 56.5488937278942 25.74886589542  48.47369598022 24.6714595969029  48.47369598022 24.6714595969029  C 48.47369598022 24.6714595969029  41.2218249263571 26.2437720406737  41.2218249263571 26.2437720406737  C 41.2218249263571 26.2437720406737  33.9359117579969 30.0234534862843  33.9359117579969 30.0234534862843  C 33.9359117579969 30.0234534862843  34.9891984207367 31.8848261564864  34.9891984207367 31.8848261564864  C 34.9891984207367 31.8848261564864  32.8173049921408 33.7002119724836  32.8173049921408 33.7002119724836  C 32.8173049921408 33.7002119724836  18.3870055455047 34.8980600320138  18.3870055455047 34.8980600320138  C 18.3870055455047 34.8980600320138  8.96185900010701 32.3271758969344  8.96185900010701 32.3271758969344  C 8.96185900010701 32.3271758969344  0.685257601159477 32.9425238032013  0.685257601159477 32.9425238032013  C 0.685257601159477 32.9425238032013  1.40922207735811 28.3525977835027  1.40922207735811 28.3525977835027  C 1.40922207735811 28.3525977835027  9.71576185690012 29.6884064056478  9.71576185690012 29.6884064056478  C 9.71576185690012 29.6884064056478  12.5081962650948 27.2226350801801  12.5081962650948 27.2226350801801  C 12.5081962650948 27.2226350801801  18.3135204294998 28.0109811522656  18.3135204294998 28.0109811522656  C 18.3135204294998 28.0109811522656  28.0870408581815 22.2188273726365  28.0870408581815 22.2188273726365  C 28.0870408581815 22.2188273726365  19.0429282476249 16.3489509904626  19.0429282476249 16.3489509904626  C 19.0429282476249 16.3489509904626  13.6077513342084 19.9698512169922  13.6077513342084 19.9698512169922  C 13.6077513342084 19.9698512169922  7.97389244048268 15.3109619955499  7.97389244048268 15.3109619955499  C 7.97389244048268 15.3109619955499  14.380705887744 9.99181585917216  14.380705887744 9.99181585917216  Z " stroke-width="2" stroke="#505050" fill="none" stroke-opacity="0.211764705882353" transform="matrix(1 0 0 1 2327 1744 )" mask="url(#clip682)" />
  </g>
</svg>