<?xml version="1.0" encoding="utf-8"?>
<svg version="1.1" xmlns:xlink="http://www.w3.org/1999/xlink" width="45px" height="28px" xmlns="http://www.w3.org/2000/svg">
  <defs>
    <mask fill="white" id="clip683">
      <path d="M 16.206899621387 27.4698764206344  C 16.206899621387 27.4698764206344  9.59887022429753 26.5834250595782  9.59887022429753 26.5834250595782  C 9.59887022429753 26.5834250595782  6.38917550223451 23.4187508768701  6.38917550223451 23.4187508768701  C 6.38917550223451 23.4187508768701  2.39676575145826 17.1258026881155  2.39676575145826 17.1258026881155  C 2.39676575145826 17.1258026881155  0.52725935194055 8.18315245709083  0.52725935194055 8.18315245709083  C 0.52725935194055 8.18315245709083  5.58393630003288 3.07642179013591  5.58393630003288 3.07642179013591  C 5.58393630003288 3.07642179013591  15.7902024118561 1.898769015786  15.7902024118561 1.898769015786  C 15.7902024118561 1.898769015786  25.2348479481714 2.78307918997987  25.2348479481714 2.78307918997987  C 25.2348479481714 2.78307918997987  31.7499651296223 5.19405559710382  31.7499651296223 5.19405559710382  C 31.7499651296223 5.19405559710382  35.3228621491818 0.950223235718618  35.3228621491818 0.950223235718618  C 35.3228621491818 0.950223235718618  42.3166180172556 3.21774012305807  42.3166180172556 3.21774012305807  C 42.3166180172556 3.21774012305807  44.1467071131687 7.31597177779678  44.1467071131687 7.31597177779678  C 44.1467071131687 7.31597177779678  43.1753521314916 16.2072335241224  43.1753521314916 16.2072335241224  C 43.1753521314916 16.2072335241224  29.9057984252788 20.8985739397609  29.9057984252788 20.8985739397609  C 29.9057984252788 20.8985739397609  33.3717056207695 24.5835565300456  33.3717056207695 24.5835565300456  C 33.3717056207695 24.5835565300456  25.0856252988126 25.0246410237112  25.0856252988126 25.0246410237112  C 25.0856252988126 25.0246410237112  16.206899621387 27.4698764206344  16.206899621387 27.4698764206344  Z " fill-rule="evenodd" />
    </mask>
  </defs>
  <g transform="matrix(1 0 0 1 -2581 -1944 )">
    <path d="M 16.206899621387 27.4698764206344  C 16.206899621387 27.4698764206344  9.59887022429753 26.5834250595782  9.59887022429753 26.5834250595782  C 9.59887022429753 26.5834250595782  6.38917550223451 23.4187508768701  6.38917550223451 23.4187508768701  C 6.38917550223451 23.4187508768701  2.39676575145826 17.1258026881155  2.39676575145826 17.1258026881155  C 2.39676575145826 17.1258026881155  0.52725935194055 8.18315245709083  0.52725935194055 8.18315245709083  C 0.52725935194055 8.18315245709083  5.58393630003288 3.07642179013591  5.58393630003288 3.07642179013591  C 5.58393630003288 3.07642179013591  15.7902024118561 1.898769015786  15.7902024118561 1.898769015786  C 15.7902024118561 1.898769015786  25.2348479481714 2.78307918997987  25.2348479481714 2.78307918997987  C 25.2348479481714 2.78307918997987  31.7499651296223 5.19405559710382  31.7499651296223 5.19405559710382  C 31.7499651296223 5.19405559710382  35.3228621491818 0.950223235718618  35.3228621491818 0.950223235718618  C 35.3228621491818 0.950223235718618  42.3166180172556 3.21774012305807  42.3166180172556 3.21774012305807  C 42.3166180172556 3.21774012305807  44.1467071131687 7.31597177779678  44.1467071131687 7.31597177779678  C 44.1467071131687 7.31597177779678  43.1753521314916 16.2072335241224  43.1753521314916 16.2072335241224  C 43.1753521314916 16.2072335241224  29.9057984252788 20.8985739397609  29.9057984252788 20.8985739397609  C 29.9057984252788 20.8985739397609  33.3717056207695 24.5835565300456  33.3717056207695 24.5835565300456  C 33.3717056207695 24.5835565300456  25.0856252988126 25.0246410237112  25.0856252988126 25.0246410237112  C 25.0856252988126 25.0246410237112  16.206899621387 27.4698764206344  16.206899621387 27.4698764206344  Z " fill-rule="nonzero" fill="#f2f2f2" stroke="none" transform="matrix(1 0 0 1 2581 1944 )" />
    <path d="M 16.206899621387 27.4698764206344  C 16.206899621387 27.4698764206344  9.59887022429753 26.5834250595782  9.59887022429753 26.5834250595782  C 9.59887022429753 26.5834250595782  6.38917550223451 23.4187508768701  6.38917550223451 23.4187508768701  C 6.38917550223451 23.4187508768701  2.39676575145826 17.1258026881155  2.39676575145826 17.1258026881155  C 2.39676575145826 17.1258026881155  0.52725935194055 8.18315245709083  0.52725935194055 8.18315245709083  C 0.52725935194055 8.18315245709083  5.58393630003288 3.07642179013591  5.58393630003288 3.07642179013591  C 5.58393630003288 3.07642179013591  15.7902024118561 1.898769015786  15.7902024118561 1.898769015786  C 15.7902024118561 1.898769015786  25.2348479481714 2.78307918997987  25.2348479481714 2.78307918997987  C 25.2348479481714 2.78307918997987  31.7499651296223 5.19405559710382  31.7499651296223 5.19405559710382  C 31.7499651296223 5.19405559710382  35.3228621491818 0.950223235718618  35.3228621491818 0.950223235718618  C 35.3228621491818 0.950223235718618  42.3166180172556 3.21774012305807  42.3166180172556 3.21774012305807  C 42.3166180172556 3.21774012305807  44.1467071131687 7.31597177779678  44.1467071131687 7.31597177779678  C 44.1467071131687 7.31597177779678  43.1753521314916 16.2072335241224  43.1753521314916 16.2072335241224  C 43.1753521314916 16.2072335241224  29.9057984252788 20.8985739397609  29.9057984252788 20.8985739397609  C 29.9057984252788 20.8985739397609  33.3717056207695 24.5835565300456  33.3717056207695 24.5835565300456  C 33.3717056207695 24.5835565300456  25.0856252988126 25.0246410237112  25.0856252988126 25.0246410237112  C 25.0856252988126 25.0246410237112  16.206899621387 27.4698764206344  16.206899621387 27.4698764206344  Z " stroke-width="2" stroke="#505050" fill="none" stroke-opacity="0.211764705882353" transform="matrix(1 0 0 1 2581 1944 )" mask="url(#clip683)" />
  </g>
</svg>