<?xml version="1.0" encoding="utf-8"?>
<svg version="1.1" xmlns:xlink="http://www.w3.org/1999/xlink" width="55px" height="45px" xmlns="http://www.w3.org/2000/svg">
  <defs>
    <mask fill="white" id="clip684">
      <path d="M 48.7980507333221 0.0172566659733064  C 48.7980507333221 0.0172566659733064  53.8759773389132 4.98142361581062  53.8759773389132 4.98142361581062  C 53.8759773389132 4.98142361581062  54.9751199283065 6.44368491431433  54.9751199283065 6.44368491431433  C 54.9751199283065 6.44368491431433  51.988928964776 5.94372870635392  51.988928964776 5.94372870635392  C 51.988928964776 5.94372870635392  48.5765398543375 8.76427810967042  48.5765398543375 8.76427810967042  C 48.5765398543375 8.76427810967042  46.2296461111684 11.5826153173766  46.2296461111684 11.5826153173766  C 46.2296461111684 11.5826153173766  46.5268632399329 17.4847532060422  46.5268632399329 17.4847532060422  C 46.5268632399329 17.4847532060422  42.4639611684246 19.2899048241647  42.4639611684246 19.2899048241647  C 42.4639611684246 19.2899048241647  41.0647975150899 20.7234075797327  41.0647975150899 20.7234075797327  C 41.0647975150899 20.7234075797327  38.1010380329753 24.7263582829867  38.1010380329753 24.7263582829867  C 38.1010380329753 24.7263582829867  32.8660910574711 26.0558878448639  32.8660910574711 26.0558878448639  C 32.8660910574711 26.0558878448639  29.4537019470327 28.217202956268  29.4537019470327 28.217202956268  C 29.4537019470327 28.217202956268  27.1699186144172 31.6859256734448  27.1699186144172 31.6859256734448  C 27.1699186144172 31.6859256734448  26.2530318115304 32.5685917220121  26.2530318115304 32.5685917220121  C 26.2530318115304 32.5685917220121  31.4192605061267 33.8627261541221  31.4192605061267 33.8627261541221  C 31.4192605061267 33.8627261541221  35.8719095672407 37.3402976537406  35.8719095672407 37.3402976537406  C 35.8719095672407 37.3402976537406  34.739119755723 39.2494224655541  34.739119755723 39.2494224655541  C 34.739119755723 39.2494224655541  31.3912211543565 39.7692884340086  31.3912211543565 39.7692884340086  C 31.3912211543565 39.7692884340086  23.7995885316343 40.1497860790051  23.7995885316343 40.1497860790051  C 23.7995885316343 40.1497860790051  20.734887383147 43.689299055716  20.734887383147 43.689299055716  C 20.734887383147 43.689299055716  17.2271644766895 43.4105624088001  17.2271644766895 43.4105624088001  C 17.2271644766895 43.4105624088001  16.7336718855332 44.1184650041422  16.7336718855332 44.1184650041422  C 16.7336718855332 44.1184650041422  12.9175161096037 42.6318695539236  12.9175161096037 42.6318695539236  C 12.9175161096037 42.6318695539236  11.966982084592 44.1007674392587  11.966982084592 44.1007674392587  C 11.966982084592 44.1007674392587  9.66495130425528 44.748940753119  9.66495130425528 44.748940753119  C 9.66495130425528 44.748940753119  9.38736172173031 43.2778306721734  9.38736172173031 43.2778306721734  C 9.38736172173031 43.2778306721734  7.35170478321059 42.5610792943894  7.35170478321059 42.5610792943894  C 7.35170478321059 42.5610792943894  5.23753765973454 41.3111887744883  5.23753765973454 41.3111887744883  C 5.23753765973454 41.3111887744883  7.38815594051188 37.8446782529219  7.38815594051188 37.8446782529219  C 7.38815594051188 37.8446782529219  9.2415570925247 36.9155560965354  9.2415570925247 36.9155560965354  C 9.2415570925247 36.9155560965354  8.54337723344555 35.4687801673047  8.54337723344555 35.4687801673047  C 8.54337723344555 35.4687801673047  10.5369751443098 31.1749084874321  10.5369751443098 31.1749084874321  C 10.5369751443098 31.1749084874321  10.0238550069144 29.8652886860492  10.0238550069144 29.8652886860492  C 10.0238550069144 29.8652886860492  5.4338131221263 28.9936836155341  5.4338131221263 28.9936836155341  C 5.4338131221263 28.9936836155341  1.7270108181002 26.8367928953507  1.7270108181002 26.8367928953507  C 1.7270108181002 26.8367928953507  8.12839482724607 20.0376269404949  8.12839482724607 20.0376269404949  C 8.12839482724607 20.0376269404949  16.7925545242509 15.6486308493734  16.7925545242509 15.6486308493734  C 16.7925545242509 15.6486308493734  22.1957376103763 9.79958565535846  22.1957376103763 9.79958565535846  C 22.1957376103763 9.79958565535846  25.9277753309957 12.3922789107992  25.9277753309957 12.3922789107992  C 25.9277753309957 12.3922789107992  34.7587473019626 12.6931375138197  34.7587473019626 12.6931375138197  C 34.7587473019626 12.6931375138197  33.5334276296027 8.32405118319194  33.5334276296027 8.32405118319194  C 33.5334276296027 8.32405118319194  45.6744669461175 4.73144551183032  45.6744669461175 4.73144551183032  C 45.6744669461175 4.73144551183032  48.7980507333221 0.0172566659733064  48.7980507333221 0.0172566659733064  Z " fill-rule="evenodd" />
    </mask>
  </defs>
  <g transform="matrix(1 0 0 1 -2748 -1747 )">
    <path d="M 48.7980507333221 0.0172566659733064  C 48.7980507333221 0.0172566659733064  53.8759773389132 4.98142361581062  53.8759773389132 4.98142361581062  C 53.8759773389132 4.98142361581062  54.9751199283065 6.44368491431433  54.9751199283065 6.44368491431433  C 54.9751199283065 6.44368491431433  51.988928964776 5.94372870635392  51.988928964776 5.94372870635392  C 51.988928964776 5.94372870635392  48.5765398543375 8.76427810967042  48.5765398543375 8.76427810967042  C 48.5765398543375 8.76427810967042  46.2296461111684 11.5826153173766  46.2296461111684 11.5826153173766  C 46.2296461111684 11.5826153173766  46.5268632399329 17.4847532060422  46.5268632399329 17.4847532060422  C 46.5268632399329 17.4847532060422  42.4639611684246 19.2899048241647  42.4639611684246 19.2899048241647  C 42.4639611684246 19.2899048241647  41.0647975150899 20.7234075797327  41.0647975150899 20.7234075797327  C 41.0647975150899 20.7234075797327  38.1010380329753 24.7263582829867  38.1010380329753 24.7263582829867  C 38.1010380329753 24.7263582829867  32.8660910574711 26.0558878448639  32.8660910574711 26.0558878448639  C 32.8660910574711 26.0558878448639  29.4537019470327 28.217202956268  29.4537019470327 28.217202956268  C 29.4537019470327 28.217202956268  27.1699186144172 31.6859256734448  27.1699186144172 31.6859256734448  C 27.1699186144172 31.6859256734448  26.2530318115304 32.5685917220121  26.2530318115304 32.5685917220121  C 26.2530318115304 32.5685917220121  31.4192605061267 33.8627261541221  31.4192605061267 33.8627261541221  C 31.4192605061267 33.8627261541221  35.8719095672407 37.3402976537406  35.8719095672407 37.3402976537406  C 35.8719095672407 37.3402976537406  34.739119755723 39.2494224655541  34.739119755723 39.2494224655541  C 34.739119755723 39.2494224655541  31.3912211543565 39.7692884340086  31.3912211543565 39.7692884340086  C 31.3912211543565 39.7692884340086  23.7995885316343 40.1497860790051  23.7995885316343 40.1497860790051  C 23.7995885316343 40.1497860790051  20.734887383147 43.689299055716  20.734887383147 43.689299055716  C 20.734887383147 43.689299055716  17.2271644766895 43.4105624088001  17.2271644766895 43.4105624088001  C 17.2271644766895 43.4105624088001  16.7336718855332 44.1184650041422  16.7336718855332 44.1184650041422  C 16.7336718855332 44.1184650041422  12.9175161096037 42.6318695539236  12.9175161096037 42.6318695539236  C 12.9175161096037 42.6318695539236  11.966982084592 44.1007674392587  11.966982084592 44.1007674392587  C 11.966982084592 44.1007674392587  9.66495130425528 44.748940753119  9.66495130425528 44.748940753119  C 9.66495130425528 44.748940753119  9.38736172173031 43.2778306721734  9.38736172173031 43.2778306721734  C 9.38736172173031 43.2778306721734  7.35170478321059 42.5610792943894  7.35170478321059 42.5610792943894  C 7.35170478321059 42.5610792943894  5.23753765973454 41.3111887744883  5.23753765973454 41.3111887744883  C 5.23753765973454 41.3111887744883  7.38815594051188 37.8446782529219  7.38815594051188 37.8446782529219  C 7.38815594051188 37.8446782529219  9.2415570925247 36.9155560965354  9.2415570925247 36.9155560965354  C 9.2415570925247 36.9155560965354  8.54337723344555 35.4687801673047  8.54337723344555 35.4687801673047  C 8.54337723344555 35.4687801673047  10.5369751443098 31.1749084874321  10.5369751443098 31.1749084874321  C 10.5369751443098 31.1749084874321  10.0238550069144 29.8652886860492  10.0238550069144 29.8652886860492  C 10.0238550069144 29.8652886860492  5.4338131221263 28.9936836155341  5.4338131221263 28.9936836155341  C 5.4338131221263 28.9936836155341  1.7270108181002 26.8367928953507  1.7270108181002 26.8367928953507  C 1.7270108181002 26.8367928953507  8.12839482724607 20.0376269404949  8.12839482724607 20.0376269404949  C 8.12839482724607 20.0376269404949  16.7925545242509 15.6486308493734  16.7925545242509 15.6486308493734  C 16.7925545242509 15.6486308493734  22.1957376103763 9.79958565535846  22.1957376103763 9.79958565535846  C 22.1957376103763 9.79958565535846  25.9277753309957 12.3922789107992  25.9277753309957 12.3922789107992  C 25.9277753309957 12.3922789107992  34.7587473019626 12.6931375138197  34.7587473019626 12.6931375138197  C 34.7587473019626 12.6931375138197  33.5334276296027 8.32405118319194  33.5334276296027 8.32405118319194  C 33.5334276296027 8.32405118319194  45.6744669461175 4.73144551183032  45.6744669461175 4.73144551183032  C 45.6744669461175 4.73144551183032  48.7980507333221 0.0172566659733064  48.7980507333221 0.0172566659733064  Z " fill-rule="nonzero" fill="#f2f2f2" stroke="none" transform="matrix(1 0 0 1 2748 1747 )" />
    <path d="M 48.7980507333221 0.0172566659733064  C 48.7980507333221 0.0172566659733064  53.8759773389132 4.98142361581062  53.8759773389132 4.98142361581062  C 53.8759773389132 4.98142361581062  54.9751199283065 6.44368491431433  54.9751199283065 6.44368491431433  C 54.9751199283065 6.44368491431433  51.988928964776 5.94372870635392  51.988928964776 5.94372870635392  C 51.988928964776 5.94372870635392  48.5765398543375 8.76427810967042  48.5765398543375 8.76427810967042  C 48.5765398543375 8.76427810967042  46.2296461111684 11.5826153173766  46.2296461111684 11.5826153173766  C 46.2296461111684 11.5826153173766  46.5268632399329 17.4847532060422  46.5268632399329 17.4847532060422  C 46.5268632399329 17.4847532060422  42.4639611684246 19.2899048241647  42.4639611684246 19.2899048241647  C 42.4639611684246 19.2899048241647  41.0647975150899 20.7234075797327  41.0647975150899 20.7234075797327  C 41.0647975150899 20.7234075797327  38.1010380329753 24.7263582829867  38.1010380329753 24.7263582829867  C 38.1010380329753 24.7263582829867  32.8660910574711 26.0558878448639  32.8660910574711 26.0558878448639  C 32.8660910574711 26.0558878448639  29.4537019470327 28.217202956268  29.4537019470327 28.217202956268  C 29.4537019470327 28.217202956268  27.1699186144172 31.6859256734448  27.1699186144172 31.6859256734448  C 27.1699186144172 31.6859256734448  26.2530318115304 32.5685917220121  26.2530318115304 32.5685917220121  C 26.2530318115304 32.5685917220121  31.4192605061267 33.8627261541221  31.4192605061267 33.8627261541221  C 31.4192605061267 33.8627261541221  35.8719095672407 37.3402976537406  35.8719095672407 37.3402976537406  C 35.8719095672407 37.3402976537406  34.739119755723 39.2494224655541  34.739119755723 39.2494224655541  C 34.739119755723 39.2494224655541  31.3912211543565 39.7692884340086  31.3912211543565 39.7692884340086  C 31.3912211543565 39.7692884340086  23.7995885316343 40.1497860790051  23.7995885316343 40.1497860790051  C 23.7995885316343 40.1497860790051  20.734887383147 43.689299055716  20.734887383147 43.689299055716  C 20.734887383147 43.689299055716  17.2271644766895 43.4105624088001  17.2271644766895 43.4105624088001  C 17.2271644766895 43.4105624088001  16.7336718855332 44.1184650041422  16.7336718855332 44.1184650041422  C 16.7336718855332 44.1184650041422  12.9175161096037 42.6318695539236  12.9175161096037 42.6318695539236  C 12.9175161096037 42.6318695539236  11.966982084592 44.1007674392587  11.966982084592 44.1007674392587  C 11.966982084592 44.1007674392587  9.66495130425528 44.748940753119  9.66495130425528 44.748940753119  C 9.66495130425528 44.748940753119  9.38736172173031 43.2778306721734  9.38736172173031 43.2778306721734  C 9.38736172173031 43.2778306721734  7.35170478321059 42.5610792943894  7.35170478321059 42.5610792943894  C 7.35170478321059 42.5610792943894  5.23753765973454 41.3111887744883  5.23753765973454 41.3111887744883  C 5.23753765973454 41.3111887744883  7.38815594051188 37.8446782529219  7.38815594051188 37.8446782529219  C 7.38815594051188 37.8446782529219  9.2415570925247 36.9155560965354  9.2415570925247 36.9155560965354  C 9.2415570925247 36.9155560965354  8.54337723344555 35.4687801673047  8.54337723344555 35.4687801673047  C 8.54337723344555 35.4687801673047  10.5369751443098 31.1749084874321  10.5369751443098 31.1749084874321  C 10.5369751443098 31.1749084874321  10.0238550069144 29.8652886860492  10.0238550069144 29.8652886860492  C 10.0238550069144 29.8652886860492  5.4338131221263 28.9936836155341  5.4338131221263 28.9936836155341  C 5.4338131221263 28.9936836155341  1.7270108181002 26.8367928953507  1.7270108181002 26.8367928953507  C 1.7270108181002 26.8367928953507  8.12839482724607 20.0376269404949  8.12839482724607 20.0376269404949  C 8.12839482724607 20.0376269404949  16.7925545242509 15.6486308493734  16.7925545242509 15.6486308493734  C 16.7925545242509 15.6486308493734  22.1957376103763 9.79958565535846  22.1957376103763 9.79958565535846  C 22.1957376103763 9.79958565535846  25.9277753309957 12.3922789107992  25.9277753309957 12.3922789107992  C 25.9277753309957 12.3922789107992  34.7587473019626 12.6931375138197  34.7587473019626 12.6931375138197  C 34.7587473019626 12.6931375138197  33.5334276296027 8.32405118319194  33.5334276296027 8.32405118319194  C 33.5334276296027 8.32405118319194  45.6744669461175 4.73144551183032  45.6744669461175 4.73144551183032  C 45.6744669461175 4.73144551183032  48.7980507333221 0.0172566659733064  48.7980507333221 0.0172566659733064  Z " stroke-width="2" stroke="#505050" fill="none" stroke-opacity="0.211764705882353" transform="matrix(1 0 0 1 2748 1747 )" mask="url(#clip684)" />
  </g>
</svg>