<?xml version="1.0" encoding="utf-8"?>
<svg version="1.1" xmlns:xlink="http://www.w3.org/1999/xlink" width="18px" height="15px" xmlns="http://www.w3.org/2000/svg">
  <defs>
    <mask fill="white" id="clip685">
      <path d="M 13.3223199789368 11.7970463502007  C 13.3223199789368 11.7970463502007  6.76342726493249 13.1345234296413  6.76342726493249 13.1345234296413  C 6.76342726493249 13.1345234296413  6.41655499321496 14.9010025911664  6.41655499321496 14.9010025911664  C 6.41655499321496 14.9010025911664  5.43650317788547 14.8298845989492  5.43650317788547 14.8298845989492  C 5.43650317788547 14.8298845989492  4.91619477030918 11.7006929413903  4.91619477030918 11.7006929413903  C 4.91619477030918 11.7006929413903  3.06896227568541 10.8151592318464  3.06896227568541 10.8151592318464  C 3.06896227568541 10.8151592318464  1.42544841683275 6.81765772347906  1.42544841683275 6.81765772347906  C 1.42544841683275 6.81765772347906  2.86799659445228 4.86306000189529  2.86799659445228 4.86306000189529  C 2.86799659445228 4.86306000189529  4.71522908907559 4.23446871584607  4.71522908907559 4.23446871584607  C 4.71522908907559 4.23446871584607  5.78337544960323 1.32092516372012  5.78337544960323 1.32092516372012  C 5.78337544960323 1.32092516372012  7.1681115819365 0.834569862105354  7.1681115819365 0.834569862105354  C 7.1681115819365 0.834569862105354  10.2637874878385 2.07569353273537  10.2637874878385 2.07569353273537  C 10.2637874878385 2.07569353273537  11.706335665458 2.62169618266142  11.706335665458 2.62169618266142  C 11.706335665458 2.62169618266142  12.7166699806994 4.0142323528507  12.7166699806994 4.0142323528507  C 12.7166699806994 4.0142323528507  13.9857820224602 4.42717553346701  13.9857820224602 4.42717553346701  C 13.9857820224602 4.42717553346701  15.486142245366 6.04453632421401  15.486142245366 6.04453632421401  C 15.486142245366 6.04453632421401  16.5818181512677 5.99635961980889  16.5818181512677 5.99635961980889  C 16.5818181512677 5.99635961980889  15.7173904265112 9.78280128030576  15.7173904265112 9.78280128030576  C 15.7173904265112 9.78280128030576  14.7923977019307 10.8151592318464  14.7923977019307 10.8151592318464  C 14.7923977019307 10.8151592318464  15.0484224739125 11.4643976769265  15.0484224739125 11.4643976769265  C 15.0484224739125 11.4643976769265  13.3223199789368 11.7970463502007  13.3223199789368 11.7970463502007  Z " fill-rule="evenodd" />
    </mask>
  </defs>
  <g transform="matrix(1 0 0 1 -1946 -1744 )">
    <path d="M 13.3223199789368 11.7970463502007  C 13.3223199789368 11.7970463502007  6.76342726493249 13.1345234296413  6.76342726493249 13.1345234296413  C 6.76342726493249 13.1345234296413  6.41655499321496 14.9010025911664  6.41655499321496 14.9010025911664  C 6.41655499321496 14.9010025911664  5.43650317788547 14.8298845989492  5.43650317788547 14.8298845989492  C 5.43650317788547 14.8298845989492  4.91619477030918 11.7006929413903  4.91619477030918 11.7006929413903  C 4.91619477030918 11.7006929413903  3.06896227568541 10.8151592318464  3.06896227568541 10.8151592318464  C 3.06896227568541 10.8151592318464  1.42544841683275 6.81765772347906  1.42544841683275 6.81765772347906  C 1.42544841683275 6.81765772347906  2.86799659445228 4.86306000189529  2.86799659445228 4.86306000189529  C 2.86799659445228 4.86306000189529  4.71522908907559 4.23446871584607  4.71522908907559 4.23446871584607  C 4.71522908907559 4.23446871584607  5.78337544960323 1.32092516372012  5.78337544960323 1.32092516372012  C 5.78337544960323 1.32092516372012  7.1681115819365 0.834569862105354  7.1681115819365 0.834569862105354  C 7.1681115819365 0.834569862105354  10.2637874878385 2.07569353273537  10.2637874878385 2.07569353273537  C 10.2637874878385 2.07569353273537  11.706335665458 2.62169618266142  11.706335665458 2.62169618266142  C 11.706335665458 2.62169618266142  12.7166699806994 4.0142323528507  12.7166699806994 4.0142323528507  C 12.7166699806994 4.0142323528507  13.9857820224602 4.42717553346701  13.9857820224602 4.42717553346701  C 13.9857820224602 4.42717553346701  15.486142245366 6.04453632421401  15.486142245366 6.04453632421401  C 15.486142245366 6.04453632421401  16.5818181512677 5.99635961980889  16.5818181512677 5.99635961980889  C 16.5818181512677 5.99635961980889  15.7173904265112 9.78280128030576  15.7173904265112 9.78280128030576  C 15.7173904265112 9.78280128030576  14.7923977019307 10.8151592318464  14.7923977019307 10.8151592318464  C 14.7923977019307 10.8151592318464  15.0484224739125 11.4643976769265  15.0484224739125 11.4643976769265  C 15.0484224739125 11.4643976769265  13.3223199789368 11.7970463502007  13.3223199789368 11.7970463502007  Z " fill-rule="nonzero" fill="#f2f2f2" stroke="none" transform="matrix(1 0 0 1 1946 1744 )" />
    <path d="M 13.3223199789368 11.7970463502007  C 13.3223199789368 11.7970463502007  6.76342726493249 13.1345234296413  6.76342726493249 13.1345234296413  C 6.76342726493249 13.1345234296413  6.41655499321496 14.9010025911664  6.41655499321496 14.9010025911664  C 6.41655499321496 14.9010025911664  5.43650317788547 14.8298845989492  5.43650317788547 14.8298845989492  C 5.43650317788547 14.8298845989492  4.91619477030918 11.7006929413903  4.91619477030918 11.7006929413903  C 4.91619477030918 11.7006929413903  3.06896227568541 10.8151592318464  3.06896227568541 10.8151592318464  C 3.06896227568541 10.8151592318464  1.42544841683275 6.81765772347906  1.42544841683275 6.81765772347906  C 1.42544841683275 6.81765772347906  2.86799659445228 4.86306000189529  2.86799659445228 4.86306000189529  C 2.86799659445228 4.86306000189529  4.71522908907559 4.23446871584607  4.71522908907559 4.23446871584607  C 4.71522908907559 4.23446871584607  5.78337544960323 1.32092516372012  5.78337544960323 1.32092516372012  C 5.78337544960323 1.32092516372012  7.1681115819365 0.834569862105354  7.1681115819365 0.834569862105354  C 7.1681115819365 0.834569862105354  10.2637874878385 2.07569353273537  10.2637874878385 2.07569353273537  C 10.2637874878385 2.07569353273537  11.706335665458 2.62169618266142  11.706335665458 2.62169618266142  C 11.706335665458 2.62169618266142  12.7166699806994 4.0142323528507  12.7166699806994 4.0142323528507  C 12.7166699806994 4.0142323528507  13.9857820224602 4.42717553346701  13.9857820224602 4.42717553346701  C 13.9857820224602 4.42717553346701  15.486142245366 6.04453632421401  15.486142245366 6.04453632421401  C 15.486142245366 6.04453632421401  16.5818181512677 5.99635961980889  16.5818181512677 5.99635961980889  C 16.5818181512677 5.99635961980889  15.7173904265112 9.78280128030576  15.7173904265112 9.78280128030576  C 15.7173904265112 9.78280128030576  14.7923977019307 10.8151592318464  14.7923977019307 10.8151592318464  C 14.7923977019307 10.8151592318464  15.0484224739125 11.4643976769265  15.0484224739125 11.4643976769265  C 15.0484224739125 11.4643976769265  13.3223199789368 11.7970463502007  13.3223199789368 11.7970463502007  Z " stroke-width="2" stroke="#505050" fill="none" stroke-opacity="0.211764705882353" transform="matrix(1 0 0 1 1946 1744 )" mask="url(#clip685)" />
  </g>
</svg>