<?xml version="1.0" encoding="utf-8"?>
<svg version="1.1" xmlns:xlink="http://www.w3.org/1999/xlink" width="19px" height="13px" xmlns="http://www.w3.org/2000/svg">
  <defs>
    <mask fill="white" id="clip686">
      <path d="M 7.2433122102376 0.161683667024363  C 7.2433122102376 0.161683667024363  14.073165548162 0.763376293114021  14.073165548162 0.763376293114021  C 14.073165548162 0.763376293114021  15.603120032345 3.93512403956441  15.603120032345 3.93512403956441  C 15.603120032345 3.93512403956441  14.9466780228922 5.57020697514625  14.9466780228922 5.57020697514625  C 14.9466780228922 5.57020697514625  17.3083000728368 12.5724154254045  17.3083000728368 12.5724154254045  C 17.3083000728368 12.5724154254045  12.1221466674768 12.7558310214617  12.1221466674768 12.7558310214617  C 12.1221466674768 12.7558310214617  8.39666251369904 9.36487926996773  8.39666251369904 9.36487926996773  C 8.39666251369904 9.36487926996773  1.86362610089554 8.67595239697295  1.86362610089554 8.67595239697295  C 1.86362610089554 8.67595239697295  7.2433122102376 0.161683667024363  7.2433122102376 0.161683667024363  Z " fill-rule="evenodd" />
    </mask>
  </defs>
  <g transform="matrix(1 0 0 1 -2149 -1844 )">
    <path d="M 7.2433122102376 0.161683667024363  C 7.2433122102376 0.161683667024363  14.073165548162 0.763376293114021  14.073165548162 0.763376293114021  C 14.073165548162 0.763376293114021  15.603120032345 3.93512403956441  15.603120032345 3.93512403956441  C 15.603120032345 3.93512403956441  14.9466780228922 5.57020697514625  14.9466780228922 5.57020697514625  C 14.9466780228922 5.57020697514625  17.3083000728368 12.5724154254045  17.3083000728368 12.5724154254045  C 17.3083000728368 12.5724154254045  12.1221466674768 12.7558310214617  12.1221466674768 12.7558310214617  C 12.1221466674768 12.7558310214617  8.39666251369904 9.36487926996773  8.39666251369904 9.36487926996773  C 8.39666251369904 9.36487926996773  1.86362610089554 8.67595239697295  1.86362610089554 8.67595239697295  C 1.86362610089554 8.67595239697295  7.2433122102376 0.161683667024363  7.2433122102376 0.161683667024363  Z " fill-rule="nonzero" fill="#f2f2f2" stroke="none" transform="matrix(1 0 0 1 2149 1844 )" />
    <path d="M 7.2433122102376 0.161683667024363  C 7.2433122102376 0.161683667024363  14.073165548162 0.763376293114021  14.073165548162 0.763376293114021  C 14.073165548162 0.763376293114021  15.603120032345 3.93512403956441  15.603120032345 3.93512403956441  C 15.603120032345 3.93512403956441  14.9466780228922 5.57020697514625  14.9466780228922 5.57020697514625  C 14.9466780228922 5.57020697514625  17.3083000728368 12.5724154254045  17.3083000728368 12.5724154254045  C 17.3083000728368 12.5724154254045  12.1221466674768 12.7558310214617  12.1221466674768 12.7558310214617  C 12.1221466674768 12.7558310214617  8.39666251369904 9.36487926996773  8.39666251369904 9.36487926996773  C 8.39666251369904 9.36487926996773  1.86362610089554 8.67595239697295  1.86362610089554 8.67595239697295  C 1.86362610089554 8.67595239697295  7.2433122102376 0.161683667024363  7.2433122102376 0.161683667024363  Z " stroke-width="2" stroke="#505050" fill="none" stroke-opacity="0.211764705882353" transform="matrix(1 0 0 1 2149 1844 )" mask="url(#clip686)" />
  </g>
</svg>