<?xml version="1.0" encoding="utf-8"?>
<svg version="1.1" xmlns:xlink="http://www.w3.org/1999/xlink" width="16px" height="15px" xmlns="http://www.w3.org/2000/svg">
  <defs>
    <mask fill="white" id="clip687">
      <path d="M 10.8954594211023 8.41741698478027  C 10.8954594211023 8.41741698478027  7.00142669934166 12.6225550407228  7.00142669934166 12.6225550407228  C 7.00142669934166 12.6225550407228  4.93120488718523 12.7234967070957  4.93120488718523 12.7234967070957  C 4.93120488718523 12.7234967070957  4.22094261652546 14.0632679153174  4.22094261652546 14.0632679153174  C 4.22094261652546 14.0632679153174  1.63591830586756 14.0495031426301  1.63591830586756 14.0495031426301  C 1.63591830586756 14.0495031426301  4.3861198887721 6.12904141840801  4.3861198887721 6.12904141840801  C 4.3861198887721 6.12904141840801  10.2237385139661 0.671309047929469  10.2237385139661 0.671309047929469  C 10.2237385139661 0.671309047929469  10.3696451044507 0.398307722966441  10.3696451044507 0.398307722966441  C 10.3696451044507 0.398307722966441  13.8411207761646 0.795192002114315  13.8411207761646 0.795192002114315  C 13.8411207761646 0.795192002114315  15.1047269088508 3.83950089476883  15.1047269088508 3.83950089476883  C 15.1047269088508 3.83950089476883  10.8954594211023 8.41741698478027  10.8954594211023 8.41741698478027  Z " fill-rule="evenodd" />
    </mask>
  </defs>
  <g transform="matrix(1 0 0 1 -2062 -1812 )">
    <path d="M 10.8954594211023 8.41741698478027  C 10.8954594211023 8.41741698478027  7.00142669934166 12.6225550407228  7.00142669934166 12.6225550407228  C 7.00142669934166 12.6225550407228  4.93120488718523 12.7234967070957  4.93120488718523 12.7234967070957  C 4.93120488718523 12.7234967070957  4.22094261652546 14.0632679153174  4.22094261652546 14.0632679153174  C 4.22094261652546 14.0632679153174  1.63591830586756 14.0495031426301  1.63591830586756 14.0495031426301  C 1.63591830586756 14.0495031426301  4.3861198887721 6.12904141840801  4.3861198887721 6.12904141840801  C 4.3861198887721 6.12904141840801  10.2237385139661 0.671309047929469  10.2237385139661 0.671309047929469  C 10.2237385139661 0.671309047929469  10.3696451044507 0.398307722966441  10.3696451044507 0.398307722966441  C 10.3696451044507 0.398307722966441  13.8411207761646 0.795192002114315  13.8411207761646 0.795192002114315  C 13.8411207761646 0.795192002114315  15.1047269088508 3.83950089476883  15.1047269088508 3.83950089476883  C 15.1047269088508 3.83950089476883  10.8954594211023 8.41741698478027  10.8954594211023 8.41741698478027  Z " fill-rule="nonzero" fill="#f2f2f2" stroke="none" transform="matrix(1 0 0 1 2062 1812 )" />
    <path d="M 10.8954594211023 8.41741698478027  C 10.8954594211023 8.41741698478027  7.00142669934166 12.6225550407228  7.00142669934166 12.6225550407228  C 7.00142669934166 12.6225550407228  4.93120488718523 12.7234967070957  4.93120488718523 12.7234967070957  C 4.93120488718523 12.7234967070957  4.22094261652546 14.0632679153174  4.22094261652546 14.0632679153174  C 4.22094261652546 14.0632679153174  1.63591830586756 14.0495031426301  1.63591830586756 14.0495031426301  C 1.63591830586756 14.0495031426301  4.3861198887721 6.12904141840801  4.3861198887721 6.12904141840801  C 4.3861198887721 6.12904141840801  10.2237385139661 0.671309047929469  10.2237385139661 0.671309047929469  C 10.2237385139661 0.671309047929469  10.3696451044507 0.398307722966441  10.3696451044507 0.398307722966441  C 10.3696451044507 0.398307722966441  13.8411207761646 0.795192002114315  13.8411207761646 0.795192002114315  C 13.8411207761646 0.795192002114315  15.1047269088508 3.83950089476883  15.1047269088508 3.83950089476883  C 15.1047269088508 3.83950089476883  10.8954594211023 8.41741698478027  10.8954594211023 8.41741698478027  Z " stroke-width="2" stroke="#505050" fill="none" stroke-opacity="0.211764705882353" transform="matrix(1 0 0 1 2062 1812 )" mask="url(#clip687)" />
  </g>
</svg>