<?xml version="1.0" encoding="utf-8"?>
<svg version="1.1" xmlns:xlink="http://www.w3.org/1999/xlink" width="19px" height="26px" xmlns="http://www.w3.org/2000/svg">
  <defs>
    <mask fill="white" id="clip688">
      <path d="M 15.278817609531 7.84909620115546  C 15.278817609531 7.84909620115546  18.8225583378527 15.5467455147534  18.8225583378527 15.5467455147534  C 18.8225583378527 15.5467455147534  17.7188988637925 21.6981414594162  17.7188988637925 21.6981414594162  C 17.7188988637925 21.6981414594162  14.6459133613729 23.3759862807356  14.6459133613729 23.3759862807356  C 14.6459133613729 23.3759862807356  6.36718005039286 24.7254198195891  6.36718005039286 24.7254198195891  C 6.36718005039286 24.7254198195891  2.87574545828204 20.0350330417967  2.87574545828204 20.0350330417967  C 2.87574545828204 20.0350330417967  1.5759379734289 10.0048215424748  1.5759379734289 10.0048215424748  C 1.5759379734289 10.0048215424748  4.89737762285281 0.367213522397298  4.89737762285281 0.367213522397298  C 4.89737762285281 0.367213522397298  11.8632269149267 3.67027315182106  11.8632269149267 3.67027315182106  C 11.8632269149267 3.67027315182106  15.278817609531 7.84909620115546  15.278817609531 7.84909620115546  Z " fill-rule="evenodd" />
    </mask>
  </defs>
  <g transform="matrix(1 0 0 1 -2404 -1973 )">
    <path d="M 15.278817609531 7.84909620115546  C 15.278817609531 7.84909620115546  18.8225583378527 15.5467455147534  18.8225583378527 15.5467455147534  C 18.8225583378527 15.5467455147534  17.7188988637925 21.6981414594162  17.7188988637925 21.6981414594162  C 17.7188988637925 21.6981414594162  14.6459133613729 23.3759862807356  14.6459133613729 23.3759862807356  C 14.6459133613729 23.3759862807356  6.36718005039286 24.7254198195891  6.36718005039286 24.7254198195891  C 6.36718005039286 24.7254198195891  2.87574545828204 20.0350330417967  2.87574545828204 20.0350330417967  C 2.87574545828204 20.0350330417967  1.5759379734289 10.0048215424748  1.5759379734289 10.0048215424748  C 1.5759379734289 10.0048215424748  4.89737762285281 0.367213522397298  4.89737762285281 0.367213522397298  C 4.89737762285281 0.367213522397298  11.8632269149267 3.67027315182106  11.8632269149267 3.67027315182106  C 11.8632269149267 3.67027315182106  15.278817609531 7.84909620115546  15.278817609531 7.84909620115546  Z " fill-rule="nonzero" fill="#f2f2f2" stroke="none" transform="matrix(1 0 0 1 2404 1973 )" />
    <path d="M 15.278817609531 7.84909620115546  C 15.278817609531 7.84909620115546  18.8225583378527 15.5467455147534  18.8225583378527 15.5467455147534  C 18.8225583378527 15.5467455147534  17.7188988637925 21.6981414594162  17.7188988637925 21.6981414594162  C 17.7188988637925 21.6981414594162  14.6459133613729 23.3759862807356  14.6459133613729 23.3759862807356  C 14.6459133613729 23.3759862807356  6.36718005039286 24.7254198195891  6.36718005039286 24.7254198195891  C 6.36718005039286 24.7254198195891  2.87574545828204 20.0350330417967  2.87574545828204 20.0350330417967  C 2.87574545828204 20.0350330417967  1.5759379734289 10.0048215424748  1.5759379734289 10.0048215424748  C 1.5759379734289 10.0048215424748  4.89737762285281 0.367213522397298  4.89737762285281 0.367213522397298  C 4.89737762285281 0.367213522397298  11.8632269149267 3.67027315182106  11.8632269149267 3.67027315182106  C 11.8632269149267 3.67027315182106  15.278817609531 7.84909620115546  15.278817609531 7.84909620115546  Z " stroke-width="2" stroke="#505050" fill="none" stroke-opacity="0.211764705882353" transform="matrix(1 0 0 1 2404 1973 )" mask="url(#clip688)" />
  </g>
</svg>