<?xml version="1.0" encoding="utf-8"?>
<svg version="1.1" xmlns:xlink="http://www.w3.org/1999/xlink" width="35px" height="28px" xmlns="http://www.w3.org/2000/svg">
  <defs>
    <mask fill="white" id="clip689">
      <path d="M 32.4961422931087 22.0466508984652  C 32.4961422931087 22.0466508984652  31.8840147547834 26.9756630558363  31.8840147547834 26.9756630558363  C 31.8840147547834 26.9756630558363  29.8039146939928 27.0270515405351  29.8039146939928 27.0270515405351  C 29.8039146939928 27.0270515405351  21.6138749451032 24.1749906397455  21.6138749451032 24.1749906397455  C 21.6138749451032 24.1749906397455  12.3342136024834 19.6164038095791  12.3342136024834 19.6164038095791  C 12.3342136024834 19.6164038095791  5.56396967165396 16.3382467231607  5.56396967165396 16.3382467231607  C 5.56396967165396 16.3382467231607  0.213521558884442 10.9092841334243  0.213521558884442 10.9092841334243  C 0.213521558884442 10.9092841334243  2.11508442099691 8.98649833093997  2.11508442099691 8.98649833093997  C 2.11508442099691 8.98649833093997  2.53450514170144 7.23928985117674  2.53450514170144 7.23928985117674  C 2.53450514170144 7.23928985117674  6.11941873420833 3.97183869907081  6.11941873420833 3.97183869907081  C 6.11941873420833 3.97183869907081  9.81768927825719 1.16046034866758  9.81768927825719 1.16046034866758  C 9.81768927825719 1.16046034866758  11.5152096275945 1.02556557633317  11.5152096275945 1.02556557633317  C 11.5152096275945 1.02556557633317  13.5896418408081 0.346809340934973  13.5896418408081 0.346809340934973  C 13.5896418408081 0.346809340934973  18.9726579741809 4.03821549180702  18.9726579741809 4.03821549180702  C 18.9726579741809 4.03821549180702  18.4455481495119 6.45561545951836  18.4455481495119 6.45561545951836  C 18.4455481495119 6.45561545951836  19.9928705380563 7.73604520326646  19.9928705380563 7.73604520326646  C 19.9928705380563 7.73604520326646  22.2401721023712 7.7660218193407  22.2401721023712 7.7660218193407  C 22.2401721023712 7.7660218193407  23.8583425856292 5.34219829104197  23.8583425856292 5.34219829104197  C 23.8583425856292 5.34219829104197  26.1056441499439 5.49850493200125  26.1056441499439 5.49850493200125  C 26.1056441499439 5.49850493200125  25.740067981222 7.24571341176448  25.740067981222 7.24571341176448  C 25.740067981222 7.24571341176448  26.5335666420139 10.1534451709778  26.5335666420139 10.1534451709778  C 26.5335666420139 10.1534451709778  24.8077070547911 12.8192228147342  24.8077070547911 12.8192228147342  C 24.8077070547911 12.8192228147342  27.1230227900309 16.0234922543798  27.1230227900309 16.0234922543798  C 27.1230227900309 16.0234922543798  29.6480488856228 16.4238941976591  29.6480488856228 16.4238941976591  C 29.6480488856228 16.4238941976591  33.0119164226234 18.9355063873185  33.0119164226234 18.9355063873185  C 33.0119164226234 18.9355063873185  33.2556338684382 21.2950943097437  33.2556338684382 21.2950943097437  C 33.2556338684382 21.2950943097437  32.4961422931087 22.0466508984652  32.4961422931087 22.0466508984652  Z " fill-rule="evenodd" />
    </mask>
  </defs>
  <g transform="matrix(1 0 0 1 -1705 -1981 )">
    <path d="M 32.4961422931087 22.0466508984652  C 32.4961422931087 22.0466508984652  31.8840147547834 26.9756630558363  31.8840147547834 26.9756630558363  C 31.8840147547834 26.9756630558363  29.8039146939928 27.0270515405351  29.8039146939928 27.0270515405351  C 29.8039146939928 27.0270515405351  21.6138749451032 24.1749906397455  21.6138749451032 24.1749906397455  C 21.6138749451032 24.1749906397455  12.3342136024834 19.6164038095791  12.3342136024834 19.6164038095791  C 12.3342136024834 19.6164038095791  5.56396967165396 16.3382467231607  5.56396967165396 16.3382467231607  C 5.56396967165396 16.3382467231607  0.213521558884442 10.9092841334243  0.213521558884442 10.9092841334243  C 0.213521558884442 10.9092841334243  2.11508442099691 8.98649833093997  2.11508442099691 8.98649833093997  C 2.11508442099691 8.98649833093997  2.53450514170144 7.23928985117674  2.53450514170144 7.23928985117674  C 2.53450514170144 7.23928985117674  6.11941873420833 3.97183869907081  6.11941873420833 3.97183869907081  C 6.11941873420833 3.97183869907081  9.81768927825719 1.16046034866758  9.81768927825719 1.16046034866758  C 9.81768927825719 1.16046034866758  11.5152096275945 1.02556557633317  11.5152096275945 1.02556557633317  C 11.5152096275945 1.02556557633317  13.5896418408081 0.346809340934973  13.5896418408081 0.346809340934973  C 13.5896418408081 0.346809340934973  18.9726579741809 4.03821549180702  18.9726579741809 4.03821549180702  C 18.9726579741809 4.03821549180702  18.4455481495119 6.45561545951836  18.4455481495119 6.45561545951836  C 18.4455481495119 6.45561545951836  19.9928705380563 7.73604520326646  19.9928705380563 7.73604520326646  C 19.9928705380563 7.73604520326646  22.2401721023712 7.7660218193407  22.2401721023712 7.7660218193407  C 22.2401721023712 7.7660218193407  23.8583425856292 5.34219829104197  23.8583425856292 5.34219829104197  C 23.8583425856292 5.34219829104197  26.1056441499439 5.49850493200125  26.1056441499439 5.49850493200125  C 26.1056441499439 5.49850493200125  25.740067981222 7.24571341176448  25.740067981222 7.24571341176448  C 25.740067981222 7.24571341176448  26.5335666420139 10.1534451709778  26.5335666420139 10.1534451709778  C 26.5335666420139 10.1534451709778  24.8077070547911 12.8192228147342  24.8077070547911 12.8192228147342  C 24.8077070547911 12.8192228147342  27.1230227900309 16.0234922543798  27.1230227900309 16.0234922543798  C 27.1230227900309 16.0234922543798  29.6480488856228 16.4238941976591  29.6480488856228 16.4238941976591  C 29.6480488856228 16.4238941976591  33.0119164226234 18.9355063873185  33.0119164226234 18.9355063873185  C 33.0119164226234 18.9355063873185  33.2556338684382 21.2950943097437  33.2556338684382 21.2950943097437  C 33.2556338684382 21.2950943097437  32.4961422931087 22.0466508984652  32.4961422931087 22.0466508984652  Z " fill-rule="nonzero" fill="#f2f2f2" stroke="none" transform="matrix(1 0 0 1 1705 1981 )" />
    <path d="M 32.4961422931087 22.0466508984652  C 32.4961422931087 22.0466508984652  31.8840147547834 26.9756630558363  31.8840147547834 26.9756630558363  C 31.8840147547834 26.9756630558363  29.8039146939928 27.0270515405351  29.8039146939928 27.0270515405351  C 29.8039146939928 27.0270515405351  21.6138749451032 24.1749906397455  21.6138749451032 24.1749906397455  C 21.6138749451032 24.1749906397455  12.3342136024834 19.6164038095791  12.3342136024834 19.6164038095791  C 12.3342136024834 19.6164038095791  5.56396967165396 16.3382467231607  5.56396967165396 16.3382467231607  C 5.56396967165396 16.3382467231607  0.213521558884442 10.9092841334243  0.213521558884442 10.9092841334243  C 0.213521558884442 10.9092841334243  2.11508442099691 8.98649833093997  2.11508442099691 8.98649833093997  C 2.11508442099691 8.98649833093997  2.53450514170144 7.23928985117674  2.53450514170144 7.23928985117674  C 2.53450514170144 7.23928985117674  6.11941873420833 3.97183869907081  6.11941873420833 3.97183869907081  C 6.11941873420833 3.97183869907081  9.81768927825719 1.16046034866758  9.81768927825719 1.16046034866758  C 9.81768927825719 1.16046034866758  11.5152096275945 1.02556557633317  11.5152096275945 1.02556557633317  C 11.5152096275945 1.02556557633317  13.5896418408081 0.346809340934973  13.5896418408081 0.346809340934973  C 13.5896418408081 0.346809340934973  18.9726579741809 4.03821549180702  18.9726579741809 4.03821549180702  C 18.9726579741809 4.03821549180702  18.4455481495119 6.45561545951836  18.4455481495119 6.45561545951836  C 18.4455481495119 6.45561545951836  19.9928705380563 7.73604520326646  19.9928705380563 7.73604520326646  C 19.9928705380563 7.73604520326646  22.2401721023712 7.7660218193407  22.2401721023712 7.7660218193407  C 22.2401721023712 7.7660218193407  23.8583425856292 5.34219829104197  23.8583425856292 5.34219829104197  C 23.8583425856292 5.34219829104197  26.1056441499439 5.49850493200125  26.1056441499439 5.49850493200125  C 26.1056441499439 5.49850493200125  25.740067981222 7.24571341176448  25.740067981222 7.24571341176448  C 25.740067981222 7.24571341176448  26.5335666420139 10.1534451709778  26.5335666420139 10.1534451709778  C 26.5335666420139 10.1534451709778  24.8077070547911 12.8192228147342  24.8077070547911 12.8192228147342  C 24.8077070547911 12.8192228147342  27.1230227900309 16.0234922543798  27.1230227900309 16.0234922543798  C 27.1230227900309 16.0234922543798  29.6480488856228 16.4238941976591  29.6480488856228 16.4238941976591  C 29.6480488856228 16.4238941976591  33.0119164226234 18.9355063873185  33.0119164226234 18.9355063873185  C 33.0119164226234 18.9355063873185  33.2556338684382 21.2950943097437  33.2556338684382 21.2950943097437  C 33.2556338684382 21.2950943097437  32.4961422931087 22.0466508984652  32.4961422931087 22.0466508984652  Z " stroke-width="2" stroke="#505050" fill="none" stroke-opacity="0.211764705882353" transform="matrix(1 0 0 1 1705 1981 )" mask="url(#clip689)" />
  </g>
</svg>