<?xml version="1.0" encoding="utf-8"?>
<svg version="1.1" xmlns:xlink="http://www.w3.org/1999/xlink" width="21px" height="18px" xmlns="http://www.w3.org/2000/svg">
  <defs>
    <mask fill="white" id="clip690">
      <path d="M 14.1402780178731 1.40689844710712  C 14.1402780178731 1.40689844710712  17.3567299919825 3.61651986629563  17.3567299919825 3.61651986629563  C 17.3567299919825 3.61651986629563  19.9135990857802 5.78559777320532  19.9135990857802 5.78559777320532  C 19.9135990857802 5.78559777320532  17.6510458588945 10.9334800563738  17.6510458588945 10.9334800563738  C 17.6510458588945 10.9334800563738  16.4002034245187 13.2985182726308  16.4002034245187 13.2985182726308  C 16.4002034245187 13.2985182726308  12.2929203889524 14.433736616434  12.2929203889524 14.433736616434  C 12.2929203889524 14.433736616434  9.03050205611441 16.7604837377608  9.03050205611441 16.7604837377608  C 9.03050205611441 16.7604837377608  6.39217053486777 17.4880145414285  6.39217053486777 17.4880145414285  C 6.39217053486777 17.4880145414285  0.865864569547439 11.8907574296204  0.865864569547439 11.8907574296204  C 0.865864569547439 11.8907574296204  4.79445582877434 5.67973415781121  4.79445582877434 5.67973415781121  C 4.79445582877434 5.67973415781121  8.78611477376788 2.86871730648855  8.78611477376788 2.86871730648855  C 8.78611477376788 2.86871730648855  14.1402780178731 1.40689844710712  14.1402780178731 1.40689844710712  Z " fill-rule="evenodd" />
    </mask>
  </defs>
  <g transform="matrix(1 0 0 1 -2000 -2210 )">
    <path d="M 14.1402780178731 1.40689844710712  C 14.1402780178731 1.40689844710712  17.3567299919825 3.61651986629563  17.3567299919825 3.61651986629563  C 17.3567299919825 3.61651986629563  19.9135990857802 5.78559777320532  19.9135990857802 5.78559777320532  C 19.9135990857802 5.78559777320532  17.6510458588945 10.9334800563738  17.6510458588945 10.9334800563738  C 17.6510458588945 10.9334800563738  16.4002034245187 13.2985182726308  16.4002034245187 13.2985182726308  C 16.4002034245187 13.2985182726308  12.2929203889524 14.433736616434  12.2929203889524 14.433736616434  C 12.2929203889524 14.433736616434  9.03050205611441 16.7604837377608  9.03050205611441 16.7604837377608  C 9.03050205611441 16.7604837377608  6.39217053486777 17.4880145414285  6.39217053486777 17.4880145414285  C 6.39217053486777 17.4880145414285  0.865864569547439 11.8907574296204  0.865864569547439 11.8907574296204  C 0.865864569547439 11.8907574296204  4.79445582877434 5.67973415781121  4.79445582877434 5.67973415781121  C 4.79445582877434 5.67973415781121  8.78611477376788 2.86871730648855  8.78611477376788 2.86871730648855  C 8.78611477376788 2.86871730648855  14.1402780178731 1.40689844710712  14.1402780178731 1.40689844710712  Z " fill-rule="nonzero" fill="#f2f2f2" stroke="none" transform="matrix(1 0 0 1 2000 2210 )" />
    <path d="M 14.1402780178731 1.40689844710712  C 14.1402780178731 1.40689844710712  17.3567299919825 3.61651986629563  17.3567299919825 3.61651986629563  C 17.3567299919825 3.61651986629563  19.9135990857802 5.78559777320532  19.9135990857802 5.78559777320532  C 19.9135990857802 5.78559777320532  17.6510458588945 10.9334800563738  17.6510458588945 10.9334800563738  C 17.6510458588945 10.9334800563738  16.4002034245187 13.2985182726308  16.4002034245187 13.2985182726308  C 16.4002034245187 13.2985182726308  12.2929203889524 14.433736616434  12.2929203889524 14.433736616434  C 12.2929203889524 14.433736616434  9.03050205611441 16.7604837377608  9.03050205611441 16.7604837377608  C 9.03050205611441 16.7604837377608  6.39217053486777 17.4880145414285  6.39217053486777 17.4880145414285  C 6.39217053486777 17.4880145414285  0.865864569547439 11.8907574296204  0.865864569547439 11.8907574296204  C 0.865864569547439 11.8907574296204  4.79445582877434 5.67973415781121  4.79445582877434 5.67973415781121  C 4.79445582877434 5.67973415781121  8.78611477376788 2.86871730648855  8.78611477376788 2.86871730648855  C 8.78611477376788 2.86871730648855  14.1402780178731 1.40689844710712  14.1402780178731 1.40689844710712  Z " stroke-width="2" stroke="#505050" fill="none" stroke-opacity="0.211764705882353" transform="matrix(1 0 0 1 2000 2210 )" mask="url(#clip690)" />
  </g>
</svg>