<?xml version="1.0" encoding="utf-8"?>
<svg version="1.1" xmlns:xlink="http://www.w3.org/1999/xlink" width="6px" height="12px" xmlns="http://www.w3.org/2000/svg">
  <defs>
    <mask fill="white" id="clip691">
      <path d="M 0.852437803376802 2.0434338025552  C 0.852437803376802 2.0434338025552  3.86174512852926 1.65408737511689  3.86174512852926 1.65408737511689  C 3.86174512852926 1.65408737511689  5.01798603425493 3.97364821252157  5.01798603425493 3.97364821252157  C 5.01798603425493 3.97364821252157  4.691760921568 10.1595186540522  4.691760921568 10.1595186540522  C 4.691760921568 10.1595186540522  1.52140575597514 10.3718894326548  1.52140575597514 10.3718894326548  C 1.52140575597514 10.3718894326548  0.224764168840011 9.49173053911266  0.224764168840011 9.49173053911266  C 0.224764168840011 9.49173053911266  0.852437803376802 2.0434338025552  0.852437803376802 2.0434338025552  Z " fill-rule="evenodd" />
    </mask>
  </defs>
  <g transform="matrix(1 0 0 1 -1836 -1683 )">
    <path d="M 0.852437803376802 2.0434338025552  C 0.852437803376802 2.0434338025552  3.86174512852926 1.65408737511689  3.86174512852926 1.65408737511689  C 3.86174512852926 1.65408737511689  5.01798603425493 3.97364821252157  5.01798603425493 3.97364821252157  C 5.01798603425493 3.97364821252157  4.691760921568 10.1595186540522  4.691760921568 10.1595186540522  C 4.691760921568 10.1595186540522  1.52140575597514 10.3718894326548  1.52140575597514 10.3718894326548  C 1.52140575597514 10.3718894326548  0.224764168840011 9.49173053911266  0.224764168840011 9.49173053911266  C 0.224764168840011 9.49173053911266  0.852437803376802 2.0434338025552  0.852437803376802 2.0434338025552  Z " fill-rule="nonzero" fill="#f2f2f2" stroke="none" transform="matrix(1 0 0 1 1836 1683 )" />
    <path d="M 0.852437803376802 2.0434338025552  C 0.852437803376802 2.0434338025552  3.86174512852926 1.65408737511689  3.86174512852926 1.65408737511689  C 3.86174512852926 1.65408737511689  5.01798603425493 3.97364821252157  5.01798603425493 3.97364821252157  C 5.01798603425493 3.97364821252157  4.691760921568 10.1595186540522  4.691760921568 10.1595186540522  C 4.691760921568 10.1595186540522  1.52140575597514 10.3718894326548  1.52140575597514 10.3718894326548  C 1.52140575597514 10.3718894326548  0.224764168840011 9.49173053911266  0.224764168840011 9.49173053911266  C 0.224764168840011 9.49173053911266  0.852437803376802 2.0434338025552  0.852437803376802 2.0434338025552  Z " stroke-width="2" stroke="#505050" fill="none" stroke-opacity="0.211764705882353" transform="matrix(1 0 0 1 1836 1683 )" mask="url(#clip691)" />
  </g>
</svg>