<?xml version="1.0" encoding="utf-8"?>
<svg version="1.1" xmlns:xlink="http://www.w3.org/1999/xlink" width="59px" height="28px" xmlns="http://www.w3.org/2000/svg">
  <defs>
    <mask fill="white" id="clip692">
      <path d="M 10.041798803226 20.1155413179335  C 10.041798803226 20.1155413179335  1.04965252453966 23.4193926467012  1.04965252453966 23.4193926467012  C 1.04965252453966 23.4193926467012  1.31849277454067 15.2657530744733  1.31849277454067 15.2657530744733  C 1.31849277454067 15.2657530744733  5.1774705297665 6.78345801887644  5.1774705297665 6.78345801887644  C 5.1774705297665 6.78345801887644  12.5789786626129 2.96572184311962  12.5789786626129 2.96572184311962  C 12.5789786626129 2.96572184311962  18.8127119595161 11.2713856825817  18.8127119595161 11.2713856825817  C 18.8127119595161 11.2713856825817  25.1136553189199 11.0572669963363  25.1136553189199 11.0572669963363  C 25.1136553189199 11.0572669963363  26.6230813059058 2.51607260200404  26.6230813059058 2.51607260200404  C 26.6230813059058 2.51607260200404  35.3449652833072 0.524768819921077  35.3449652833072 0.524768819921077  C 35.3449652833072 0.524768819921077  38.7866805671769 1.90797553306692  38.7866805671769 1.90797553306692  C 38.7866805671769 1.90797553306692  45.5440922677284 6.06616041995411  45.5440922677284 6.06616041995411  C 45.5440922677284 6.06616041995411  52.0186616219247 6.08543110171627  52.0186616219247 6.08543110171627  C 52.0186616219247 6.08543110171627  55.8020280568376 8.64414940234976  55.8020280568376 8.64414940234976  C 55.8020280568376 8.64414940234976  56.47132826257 15.5334014322802  56.47132826257 15.5334014322802  C 56.47132826257 15.5334014322802  58.994506025602 21.93555015102  58.994506025602 21.93555015102  C 58.994506025602 21.93555015102  50.5596431818139 26.0658996086954  50.5596431818139 26.0658996086954  C 50.5596431818139 26.0658996086954  45.7849283250212 27.8537906388451  45.7849283250212 27.8537906388451  C 45.7849283250212 27.8537906388451  38.2377983900914 22.674259618567  38.2377983900914 22.674259618567  C 38.2377983900914 22.674259618567  34.0595728379887 21.9847974488566  34.0595728379887 21.9847974488566  C 34.0595728379887 21.9847974488566  32.9562076452753 19.7408336170039  32.9562076452753 19.7408336170039  C 32.9562076452753 19.7408336170039  23.2093702147444 20.8092858613688  23.2093702147444 20.8092858613688  C 23.2093702147444 20.8092858613688  10.041798803226 20.1155413179335  10.041798803226 20.1155413179335  Z " fill-rule="evenodd" />
    </mask>
  </defs>
  <g transform="matrix(1 0 0 1 -1954 -1604 )">
    <path d="M 10.041798803226 20.1155413179335  C 10.041798803226 20.1155413179335  1.04965252453966 23.4193926467012  1.04965252453966 23.4193926467012  C 1.04965252453966 23.4193926467012  1.31849277454067 15.2657530744733  1.31849277454067 15.2657530744733  C 1.31849277454067 15.2657530744733  5.1774705297665 6.78345801887644  5.1774705297665 6.78345801887644  C 5.1774705297665 6.78345801887644  12.5789786626129 2.96572184311962  12.5789786626129 2.96572184311962  C 12.5789786626129 2.96572184311962  18.8127119595161 11.2713856825817  18.8127119595161 11.2713856825817  C 18.8127119595161 11.2713856825817  25.1136553189199 11.0572669963363  25.1136553189199 11.0572669963363  C 25.1136553189199 11.0572669963363  26.6230813059058 2.51607260200404  26.6230813059058 2.51607260200404  C 26.6230813059058 2.51607260200404  35.3449652833072 0.524768819921077  35.3449652833072 0.524768819921077  C 35.3449652833072 0.524768819921077  38.7866805671769 1.90797553306692  38.7866805671769 1.90797553306692  C 38.7866805671769 1.90797553306692  45.5440922677284 6.06616041995411  45.5440922677284 6.06616041995411  C 45.5440922677284 6.06616041995411  52.0186616219247 6.08543110171627  52.0186616219247 6.08543110171627  C 52.0186616219247 6.08543110171627  55.8020280568376 8.64414940234976  55.8020280568376 8.64414940234976  C 55.8020280568376 8.64414940234976  56.47132826257 15.5334014322802  56.47132826257 15.5334014322802  C 56.47132826257 15.5334014322802  58.994506025602 21.93555015102  58.994506025602 21.93555015102  C 58.994506025602 21.93555015102  50.5596431818139 26.0658996086954  50.5596431818139 26.0658996086954  C 50.5596431818139 26.0658996086954  45.7849283250212 27.8537906388451  45.7849283250212 27.8537906388451  C 45.7849283250212 27.8537906388451  38.2377983900914 22.674259618567  38.2377983900914 22.674259618567  C 38.2377983900914 22.674259618567  34.0595728379887 21.9847974488566  34.0595728379887 21.9847974488566  C 34.0595728379887 21.9847974488566  32.9562076452753 19.7408336170039  32.9562076452753 19.7408336170039  C 32.9562076452753 19.7408336170039  23.2093702147444 20.8092858613688  23.2093702147444 20.8092858613688  C 23.2093702147444 20.8092858613688  10.041798803226 20.1155413179335  10.041798803226 20.1155413179335  Z " fill-rule="nonzero" fill="#81ecec" stroke="none" transform="matrix(1 0 0 1 1954 1604 )" />
    <path d="M 10.041798803226 20.1155413179335  C 10.041798803226 20.1155413179335  1.04965252453966 23.4193926467012  1.04965252453966 23.4193926467012  C 1.04965252453966 23.4193926467012  1.31849277454067 15.2657530744733  1.31849277454067 15.2657530744733  C 1.31849277454067 15.2657530744733  5.1774705297665 6.78345801887644  5.1774705297665 6.78345801887644  C 5.1774705297665 6.78345801887644  12.5789786626129 2.96572184311962  12.5789786626129 2.96572184311962  C 12.5789786626129 2.96572184311962  18.8127119595161 11.2713856825817  18.8127119595161 11.2713856825817  C 18.8127119595161 11.2713856825817  25.1136553189199 11.0572669963363  25.1136553189199 11.0572669963363  C 25.1136553189199 11.0572669963363  26.6230813059058 2.51607260200404  26.6230813059058 2.51607260200404  C 26.6230813059058 2.51607260200404  35.3449652833072 0.524768819921077  35.3449652833072 0.524768819921077  C 35.3449652833072 0.524768819921077  38.7866805671769 1.90797553306692  38.7866805671769 1.90797553306692  C 38.7866805671769 1.90797553306692  45.5440922677284 6.06616041995411  45.5440922677284 6.06616041995411  C 45.5440922677284 6.06616041995411  52.0186616219247 6.08543110171627  52.0186616219247 6.08543110171627  C 52.0186616219247 6.08543110171627  55.8020280568376 8.64414940234976  55.8020280568376 8.64414940234976  C 55.8020280568376 8.64414940234976  56.47132826257 15.5334014322802  56.47132826257 15.5334014322802  C 56.47132826257 15.5334014322802  58.994506025602 21.93555015102  58.994506025602 21.93555015102  C 58.994506025602 21.93555015102  50.5596431818139 26.0658996086954  50.5596431818139 26.0658996086954  C 50.5596431818139 26.0658996086954  45.7849283250212 27.8537906388451  45.7849283250212 27.8537906388451  C 45.7849283250212 27.8537906388451  38.2377983900914 22.674259618567  38.2377983900914 22.674259618567  C 38.2377983900914 22.674259618567  34.0595728379887 21.9847974488566  34.0595728379887 21.9847974488566  C 34.0595728379887 21.9847974488566  32.9562076452753 19.7408336170039  32.9562076452753 19.7408336170039  C 32.9562076452753 19.7408336170039  23.2093702147444 20.8092858613688  23.2093702147444 20.8092858613688  C 23.2093702147444 20.8092858613688  10.041798803226 20.1155413179335  10.041798803226 20.1155413179335  Z " stroke-width="2" stroke="#505050" fill="none" stroke-opacity="0.211764705882353" transform="matrix(1 0 0 1 1954 1604 )" mask="url(#clip692)" />
  </g>
</svg>