<?xml version="1.0" encoding="utf-8"?>
<svg version="1.1" xmlns:xlink="http://www.w3.org/1999/xlink" width="126px" height="94px" xmlns="http://www.w3.org/2000/svg">
  <defs>
    <mask fill="white" id="clip696">
      <path d="M 50.9323260114061 68.4718689090272  C 50.9323260114061 68.4718689090272  43.1387117159081 72.0473144971053  43.1387117159081 72.0473144971053  C 43.1387117159081 72.0473144971053  37.6768499136233 74.4690427211175  37.6768499136233 74.4690427211175  C 37.6768499136233 74.4690427211175  33.3354406080773 70.887127689876  33.3354406080773 70.887127689876  C 33.3354406080773 70.887127689876  21.1260872345229 68.0664504708131  21.1260872345229 68.0664504708131  C 21.1260872345229 68.0664504708131  17.7372001989318 63.9497281380981  17.7372001989318 63.9497281380981  C 17.7372001989318 63.9497281380981  11.644911807573 60.8853685598961  11.644911807573 60.8853685598961  C 11.644911807573 60.8853685598961  8.03854136352402 62.0951544313749  8.03854136352402 62.0951544313749  C 8.03854136352402 62.0951544313749  5.29109273515701 58.4054153474171  5.29109273515701 58.4054153474171  C 5.29109273515701 58.4054153474171  5.00203250872551 55.5588603557022  5.00203250872551 55.5588603557022  C 5.00203250872551 55.5588603557022  0.437633885646846 50.6938390971346  0.437633885646846 50.6938390971346  C 0.437633885646846 50.6938390971346  3.50167228581972 47.8904137265066  3.50167228581972 47.8904137265066  C 3.50167228581972 47.8904137265066  2.82719842414645 42.0862617880826  2.82719842414645 42.0862617880826  C 2.82719842414645 42.0862617880826  3.81000319401323 38.37927085569  3.81000319401323 38.37927085569  C 3.81000319401323 38.37927085569  3.25115342291247 35.2739381374557  3.25115342291247 35.2739381374557  C 3.25115342291247 35.2739381374557  4.6111129644089 29.6886522067422  4.6111129644089 29.6886522067422  C 4.6111129644089 29.6886522067422  4.19266387471771 26.4862778410631  4.19266387471771 26.4862778410631  C 4.19266387471771 26.4862778410631  1.69298115472043 20.3618716467671  1.69298115472043 20.3618716467671  C 1.69298115472043 20.3618716467671  5.46177591647847 18.74451085602  5.46177591647847 18.74451085602  C 5.46177591647847 18.74451085602  6.1279909145394 15.7858188494801  6.1279909145394 15.7858188494801  C 6.1279909145394 15.7858188494801  5.30761046238172 12.872412945081  5.30761046238172 12.872412945081  C 5.30761046238172 12.872412945081  10.6070479469572 10.1509338545172  10.6070479469572 10.1509338545172  C 10.6070479469572 10.1509338545172  12.9828477127696 7.88015930430827  12.9828477127696 7.88015930430827  C 12.9828477127696 7.88015930430827  16.7461365654528 5.83797174585819  16.7461365654528 5.83797174585819  C 16.7461365654528 5.83797174585819  17.183856336906 0.341101538372281  17.183856336906 0.341101538372281  C 17.183856336906 0.341101538372281  26.2493356287023 2.81027234557958  26.2493356287023 2.81027234557958  C 26.2493356287023 2.81027234557958  29.4923160738088 2.19567524509566  29.4923160738088 2.19567524509566  C 29.4923160738088 2.19567524509566  35.9397356004974 3.38820926813983  35.9397356004974 3.38820926813983  C 35.9397356004974 3.38820926813983  46.1834794343188 6.57764474749309  46.1834794343188 6.57764474749309  C 46.1834794343188 6.57764474749309  49.7981087419798 12.8702564640266  49.7981087419798 12.8702564640266  C 49.7981087419798 12.8702564640266  56.7272953127213 14.2374654524715  56.7272953127213 14.2374654524715  C 56.7272953127213 14.2374654524715  69.6042186901543 17.1745926484683  69.6042186901543 17.1745926484683  C 69.6042186901543 17.1745926484683  77.8300468480309 20.6465271459385  77.8300468480309 20.6465271459385  C 77.8300468480309 20.6465271459385  81.5933357007139 18.8372395413564  81.5933357007139 18.8372395413564  C 81.5933357007139 18.8372395413564  85.2905536444985 15.6176133272424  85.2905536444985 15.6176133272424  C 85.2905536444985 15.6176133272424  83.4928743315488 10.2199412482557  83.4928743315488 10.2199412482557  C 83.4928743315488 10.2199412482557  85.9154743244976 6.76741508027419  85.9154743244976 6.76741508027419  C 85.9154743244976 6.76741508027419  91.4764424901302 3.42702592711781  91.4764424901302 3.42702592711781  C 91.4764424901302 3.42702592711781  96.7896447473929 2.45014000950651  96.7896447473929 2.45014000950651  C 96.7896447473929 2.45014000950651  107.23160130791 3.91439064539635  107.23160130791 3.91439064539635  C 107.23160130791 3.91439064539635  109.863425845705 7.10166964369521  109.863425845705 7.10166964369521  C 109.863425845705 7.10166964369521  112.737510382794 7.12970389740156  112.737510382794 7.12970389740156  C 112.737510382794 7.12970389740156  115.195898784729 8.34164624993476  115.195898784729 8.34164624993476  C 115.195898784729 8.34164624993476  122.865630126043 9.17404793690586  122.865630126043 9.17404793690586  C 122.865630126043 9.17404793690586  124.748651029653 11.511673399799  124.748651029653 11.511673399799  C 124.748651029653 11.511673399799  121.951649219612 14.8908792119333  121.951649219612 14.8908792119333  C 121.951649219612 14.8908792119333  123.146431488862 17.8883878774512  123.146431488862 17.8883878774512  C 123.146431488862 17.8883878774512  121.158798312829 22.1927240618928  121.158798312829 22.1927240618928  C 121.158798312829 22.1927240618928  123.474033078817 27.7693840683888  123.474033078817 27.7693840683888  C 123.474033078817 27.7693840683888  123.474033078817 53.4455089224593  123.474033078817 53.4455089224593  C 123.474033078817 53.4455089224593  123.474033078817 77.6584782004705  123.474033078817 77.6584782004705  C 123.474033078817 77.6584782004705  123.474033078817 90.5175747274375  123.474033078817 90.5175747274375  C 123.474033078817 90.5175747274375  114.598507650105 90.5369830569262  114.598507650105 90.5369830569262  C 114.598507650105 90.5369830569262  114.502154241294 93.2174890074581  114.502154241294 93.2174890074581  C 114.502154241294 93.2174890074581  83.7158636490817 80.9277034788343  83.7158636490817 80.9277034788343  C 83.7158636490817 80.9277034788343  50.9323260114061 68.4718689090272  50.9323260114061 68.4718689090272  Z " fill-rule="evenodd" />
    </mask>
  </defs>
  <g transform="matrix(1 0 0 1 -1862 -1823 )">
    <path d="M 50.9323260114061 68.4718689090272  C 50.9323260114061 68.4718689090272  43.1387117159081 72.0473144971053  43.1387117159081 72.0473144971053  C 43.1387117159081 72.0473144971053  37.6768499136233 74.4690427211175  37.6768499136233 74.4690427211175  C 37.6768499136233 74.4690427211175  33.3354406080773 70.887127689876  33.3354406080773 70.887127689876  C 33.3354406080773 70.887127689876  21.1260872345229 68.0664504708131  21.1260872345229 68.0664504708131  C 21.1260872345229 68.0664504708131  17.7372001989318 63.9497281380981  17.7372001989318 63.9497281380981  C 17.7372001989318 63.9497281380981  11.644911807573 60.8853685598961  11.644911807573 60.8853685598961  C 11.644911807573 60.8853685598961  8.03854136352402 62.0951544313749  8.03854136352402 62.0951544313749  C 8.03854136352402 62.0951544313749  5.29109273515701 58.4054153474171  5.29109273515701 58.4054153474171  C 5.29109273515701 58.4054153474171  5.00203250872551 55.5588603557022  5.00203250872551 55.5588603557022  C 5.00203250872551 55.5588603557022  0.437633885646846 50.6938390971346  0.437633885646846 50.6938390971346  C 0.437633885646846 50.6938390971346  3.50167228581972 47.8904137265066  3.50167228581972 47.8904137265066  C 3.50167228581972 47.8904137265066  2.82719842414645 42.0862617880826  2.82719842414645 42.0862617880826  C 2.82719842414645 42.0862617880826  3.81000319401323 38.37927085569  3.81000319401323 38.37927085569  C 3.81000319401323 38.37927085569  3.25115342291247 35.2739381374557  3.25115342291247 35.2739381374557  C 3.25115342291247 35.2739381374557  4.6111129644089 29.6886522067422  4.6111129644089 29.6886522067422  C 4.6111129644089 29.6886522067422  4.19266387471771 26.4862778410631  4.19266387471771 26.4862778410631  C 4.19266387471771 26.4862778410631  1.69298115472043 20.3618716467671  1.69298115472043 20.3618716467671  C 1.69298115472043 20.3618716467671  5.46177591647847 18.74451085602  5.46177591647847 18.74451085602  C 5.46177591647847 18.74451085602  6.1279909145394 15.7858188494801  6.1279909145394 15.7858188494801  C 6.1279909145394 15.7858188494801  5.30761046238172 12.872412945081  5.30761046238172 12.872412945081  C 5.30761046238172 12.872412945081  10.6070479469572 10.1509338545172  10.6070479469572 10.1509338545172  C 10.6070479469572 10.1509338545172  12.9828477127696 7.88015930430827  12.9828477127696 7.88015930430827  C 12.9828477127696 7.88015930430827  16.7461365654528 5.83797174585819  16.7461365654528 5.83797174585819  C 16.7461365654528 5.83797174585819  17.183856336906 0.341101538372281  17.183856336906 0.341101538372281  C 17.183856336906 0.341101538372281  26.2493356287023 2.81027234557958  26.2493356287023 2.81027234557958  C 26.2493356287023 2.81027234557958  29.4923160738088 2.19567524509566  29.4923160738088 2.19567524509566  C 29.4923160738088 2.19567524509566  35.9397356004974 3.38820926813983  35.9397356004974 3.38820926813983  C 35.9397356004974 3.38820926813983  46.1834794343188 6.57764474749309  46.1834794343188 6.57764474749309  C 46.1834794343188 6.57764474749309  49.7981087419798 12.8702564640266  49.7981087419798 12.8702564640266  C 49.7981087419798 12.8702564640266  56.7272953127213 14.2374654524715  56.7272953127213 14.2374654524715  C 56.7272953127213 14.2374654524715  69.6042186901543 17.1745926484683  69.6042186901543 17.1745926484683  C 69.6042186901543 17.1745926484683  77.8300468480309 20.6465271459385  77.8300468480309 20.6465271459385  C 77.8300468480309 20.6465271459385  81.5933357007139 18.8372395413564  81.5933357007139 18.8372395413564  C 81.5933357007139 18.8372395413564  85.2905536444985 15.6176133272424  85.2905536444985 15.6176133272424  C 85.2905536444985 15.6176133272424  83.4928743315488 10.2199412482557  83.4928743315488 10.2199412482557  C 83.4928743315488 10.2199412482557  85.9154743244976 6.76741508027419  85.9154743244976 6.76741508027419  C 85.9154743244976 6.76741508027419  91.4764424901302 3.42702592711781  91.4764424901302 3.42702592711781  C 91.4764424901302 3.42702592711781  96.7896447473929 2.45014000950651  96.7896447473929 2.45014000950651  C 96.7896447473929 2.45014000950651  107.23160130791 3.91439064539635  107.23160130791 3.91439064539635  C 107.23160130791 3.91439064539635  109.863425845705 7.10166964369521  109.863425845705 7.10166964369521  C 109.863425845705 7.10166964369521  112.737510382794 7.12970389740156  112.737510382794 7.12970389740156  C 112.737510382794 7.12970389740156  115.195898784729 8.34164624993476  115.195898784729 8.34164624993476  C 115.195898784729 8.34164624993476  122.865630126043 9.17404793690586  122.865630126043 9.17404793690586  C 122.865630126043 9.17404793690586  124.748651029653 11.511673399799  124.748651029653 11.511673399799  C 124.748651029653 11.511673399799  121.951649219612 14.8908792119333  121.951649219612 14.8908792119333  C 121.951649219612 14.8908792119333  123.146431488862 17.8883878774512  123.146431488862 17.8883878774512  C 123.146431488862 17.8883878774512  121.158798312829 22.1927240618928  121.158798312829 22.1927240618928  C 121.158798312829 22.1927240618928  123.474033078817 27.7693840683888  123.474033078817 27.7693840683888  C 123.474033078817 27.7693840683888  123.474033078817 53.4455089224593  123.474033078817 53.4455089224593  C 123.474033078817 53.4455089224593  123.474033078817 77.6584782004705  123.474033078817 77.6584782004705  C 123.474033078817 77.6584782004705  123.474033078817 90.5175747274375  123.474033078817 90.5175747274375  C 123.474033078817 90.5175747274375  114.598507650105 90.5369830569262  114.598507650105 90.5369830569262  C 114.598507650105 90.5369830569262  114.502154241294 93.2174890074581  114.502154241294 93.2174890074581  C 114.502154241294 93.2174890074581  83.7158636490817 80.9277034788343  83.7158636490817 80.9277034788343  C 83.7158636490817 80.9277034788343  50.9323260114061 68.4718689090272  50.9323260114061 68.4718689090272  Z " fill-rule="nonzero" fill="#f2f2f2" stroke="none" transform="matrix(1 0 0 1 1862 1823 )" />
    <path d="M 50.9323260114061 68.4718689090272  C 50.9323260114061 68.4718689090272  43.1387117159081 72.0473144971053  43.1387117159081 72.0473144971053  C 43.1387117159081 72.0473144971053  37.6768499136233 74.4690427211175  37.6768499136233 74.4690427211175  C 37.6768499136233 74.4690427211175  33.3354406080773 70.887127689876  33.3354406080773 70.887127689876  C 33.3354406080773 70.887127689876  21.1260872345229 68.0664504708131  21.1260872345229 68.0664504708131  C 21.1260872345229 68.0664504708131  17.7372001989318 63.9497281380981  17.7372001989318 63.9497281380981  C 17.7372001989318 63.9497281380981  11.644911807573 60.8853685598961  11.644911807573 60.8853685598961  C 11.644911807573 60.8853685598961  8.03854136352402 62.0951544313749  8.03854136352402 62.0951544313749  C 8.03854136352402 62.0951544313749  5.29109273515701 58.4054153474171  5.29109273515701 58.4054153474171  C 5.29109273515701 58.4054153474171  5.00203250872551 55.5588603557022  5.00203250872551 55.5588603557022  C 5.00203250872551 55.5588603557022  0.437633885646846 50.6938390971346  0.437633885646846 50.6938390971346  C 0.437633885646846 50.6938390971346  3.50167228581972 47.8904137265066  3.50167228581972 47.8904137265066  C 3.50167228581972 47.8904137265066  2.82719842414645 42.0862617880826  2.82719842414645 42.0862617880826  C 2.82719842414645 42.0862617880826  3.81000319401323 38.37927085569  3.81000319401323 38.37927085569  C 3.81000319401323 38.37927085569  3.25115342291247 35.2739381374557  3.25115342291247 35.2739381374557  C 3.25115342291247 35.2739381374557  4.6111129644089 29.6886522067422  4.6111129644089 29.6886522067422  C 4.6111129644089 29.6886522067422  4.19266387471771 26.4862778410631  4.19266387471771 26.4862778410631  C 4.19266387471771 26.4862778410631  1.69298115472043 20.3618716467671  1.69298115472043 20.3618716467671  C 1.69298115472043 20.3618716467671  5.46177591647847 18.74451085602  5.46177591647847 18.74451085602  C 5.46177591647847 18.74451085602  6.1279909145394 15.7858188494801  6.1279909145394 15.7858188494801  C 6.1279909145394 15.7858188494801  5.30761046238172 12.872412945081  5.30761046238172 12.872412945081  C 5.30761046238172 12.872412945081  10.6070479469572 10.1509338545172  10.6070479469572 10.1509338545172  C 10.6070479469572 10.1509338545172  12.9828477127696 7.88015930430827  12.9828477127696 7.88015930430827  C 12.9828477127696 7.88015930430827  16.7461365654528 5.83797174585819  16.7461365654528 5.83797174585819  C 16.7461365654528 5.83797174585819  17.183856336906 0.341101538372281  17.183856336906 0.341101538372281  C 17.183856336906 0.341101538372281  26.2493356287023 2.81027234557958  26.2493356287023 2.81027234557958  C 26.2493356287023 2.81027234557958  29.4923160738088 2.19567524509566  29.4923160738088 2.19567524509566  C 29.4923160738088 2.19567524509566  35.9397356004974 3.38820926813983  35.9397356004974 3.38820926813983  C 35.9397356004974 3.38820926813983  46.1834794343188 6.57764474749309  46.1834794343188 6.57764474749309  C 46.1834794343188 6.57764474749309  49.7981087419798 12.8702564640266  49.7981087419798 12.8702564640266  C 49.7981087419798 12.8702564640266  56.7272953127213 14.2374654524715  56.7272953127213 14.2374654524715  C 56.7272953127213 14.2374654524715  69.6042186901543 17.1745926484683  69.6042186901543 17.1745926484683  C 69.6042186901543 17.1745926484683  77.8300468480309 20.6465271459385  77.8300468480309 20.6465271459385  C 77.8300468480309 20.6465271459385  81.5933357007139 18.8372395413564  81.5933357007139 18.8372395413564  C 81.5933357007139 18.8372395413564  85.2905536444985 15.6176133272424  85.2905536444985 15.6176133272424  C 85.2905536444985 15.6176133272424  83.4928743315488 10.2199412482557  83.4928743315488 10.2199412482557  C 83.4928743315488 10.2199412482557  85.9154743244976 6.76741508027419  85.9154743244976 6.76741508027419  C 85.9154743244976 6.76741508027419  91.4764424901302 3.42702592711781  91.4764424901302 3.42702592711781  C 91.4764424901302 3.42702592711781  96.7896447473929 2.45014000950651  96.7896447473929 2.45014000950651  C 96.7896447473929 2.45014000950651  107.23160130791 3.91439064539635  107.23160130791 3.91439064539635  C 107.23160130791 3.91439064539635  109.863425845705 7.10166964369521  109.863425845705 7.10166964369521  C 109.863425845705 7.10166964369521  112.737510382794 7.12970389740156  112.737510382794 7.12970389740156  C 112.737510382794 7.12970389740156  115.195898784729 8.34164624993476  115.195898784729 8.34164624993476  C 115.195898784729 8.34164624993476  122.865630126043 9.17404793690586  122.865630126043 9.17404793690586  C 122.865630126043 9.17404793690586  124.748651029653 11.511673399799  124.748651029653 11.511673399799  C 124.748651029653 11.511673399799  121.951649219612 14.8908792119333  121.951649219612 14.8908792119333  C 121.951649219612 14.8908792119333  123.146431488862 17.8883878774512  123.146431488862 17.8883878774512  C 123.146431488862 17.8883878774512  121.158798312829 22.1927240618928  121.158798312829 22.1927240618928  C 121.158798312829 22.1927240618928  123.474033078817 27.7693840683888  123.474033078817 27.7693840683888  C 123.474033078817 27.7693840683888  123.474033078817 53.4455089224593  123.474033078817 53.4455089224593  C 123.474033078817 53.4455089224593  123.474033078817 77.6584782004705  123.474033078817 77.6584782004705  C 123.474033078817 77.6584782004705  123.474033078817 90.5175747274375  123.474033078817 90.5175747274375  C 123.474033078817 90.5175747274375  114.598507650105 90.5369830569262  114.598507650105 90.5369830569262  C 114.598507650105 90.5369830569262  114.502154241294 93.2174890074581  114.502154241294 93.2174890074581  C 114.502154241294 93.2174890074581  83.7158636490817 80.9277034788343  83.7158636490817 80.9277034788343  C 83.7158636490817 80.9277034788343  50.9323260114061 68.4718689090272  50.9323260114061 68.4718689090272  Z " stroke-width="2" stroke="#505050" fill="none" stroke-opacity="0.211764705882353" transform="matrix(1 0 0 1 1862 1823 )" mask="url(#clip696)" />
  </g>
</svg>