<?xml version="1.0" encoding="utf-8"?>
<svg version="1.1" xmlns:xlink="http://www.w3.org/1999/xlink" width="96px" height="61px" xmlns="http://www.w3.org/2000/svg">
  <defs>
    <mask fill="white" id="clip697">
      <path d="M 95.8228661657361 24.1487405275014  C 95.8228661657361 24.1487405275014  93.7884327625663 22.6309096315694  93.7884327625663 22.6309096315694  C 93.7884327625663 22.6309096315694  91.1235727703224 15.0331433454082  91.1235727703224 15.0331433454082  C 91.1235727703224 15.0331433454082  90.6638293625699 10.6131336583894  90.6638293625699 10.6131336583894  C 90.6638293625699 10.6131336583894  87.7539564164938 5.92400501819123  87.7539564164938 5.92400501819123  C 87.7539564164938 5.92400501819123  84.4008577898896 5.84434580805023  84.4008577898896 5.84434580805023  C 84.4008577898896 5.84434580805023  76.4062778131583 4.21886733084652  76.4062778131583 4.21886733084652  C 76.4062778131583 4.21886733084652  69.0641480618008 4.72911686607461  69.0641480618008 4.72911686607461  C 69.0641480618008 4.72911686607461  64.411654893524 1.59441929944085  64.411654893524 1.59441929944085  C 64.411654893524 1.59441929944085  58.7295567282438 1.55781912180847  58.7295567282438 1.55781912180847  C 58.7295567282438 1.55781912180847  56.3042037807575 6.08762934172441  56.3042037807575 6.08762934172441  C 56.3042037807575 6.08762934172441  51.1451669775913 13.6509484018786  51.1451669775913 13.6509484018786  C 51.1451669775913 13.6509484018786  43.4217744942498 16.6435511612337  43.4217744942498 16.6435511612337  C 43.4217744942498 16.6435511612337  35.6777133804258 19.933261244899  35.6777133804258 19.933261244899  C 35.6777133804258 19.933261244899  30.7113833948806 24.7687905956266  30.7113833948806 24.7687905956266  C 30.7113833948806 24.7687905956266  29.6762724888024 28.5106205206333  29.6762724888024 28.5106205206333  C 29.6762724888024 28.5106205206333  26.7443759064267 36.1438937168379  26.7443759064267 36.1438937168379  C 26.7443759064267 36.1438937168379  28.6741970371736 44.822441718968  28.6741970371736 44.822441718968  C 28.6741970371736 44.822441718968  22.229530465022 50.5837402686328  22.229530465022 50.5837402686328  C 22.229530465022 50.5837402686328  18.3588763853788 52.4137491502527  18.3588763853788 52.4137491502527  C 18.3588763853788 52.4137491502527  12.2775998121697 57.083501225822  12.2775998121697 57.083501225822  C 12.2775998121697 57.083501225822  5.10064733305876 57.8370342947242  5.10064733305876 57.8370342947242  C 5.10064733305876 57.8370342947242  1.2189814352655 60.4442587131268  1.2189814352655 60.4442587131268  C 1.2189814352655 60.4442587131268  1.17493416266643 60.4744000358827  1.17493416266643 60.4744000358827  C 1.17493416266643 60.4744000358827  35.6143954260647 60.4442587131268  35.6143954260647 60.4442587131268  C 35.6143954260647 60.4442587131268  35.6143954260647 60.4291880517484  35.6143954260647 60.4291880517484  C 35.6143954260647 60.4291880517484  35.5483245171661 52.3513135531151  35.5483245171661 52.3513135531151  C 35.5483245171661 52.3513135531151  50.0137026627028 47.2725006687133  50.0137026627028 47.2725006687133  C 50.0137026627028 47.2725006687133  57.7219753675402 46.2197073238753  57.7219753675402 46.2197073238753  C 57.7219753675402 46.2197073238753  64.0400060309694 44.3574041678737  64.0400060309694 44.3574041678737  C 64.0400060309694 44.3574041678737  66.991173295107 40.8760813895451  66.991173295107 40.8760813895451  C 66.991173295107 40.8760813895451  76.0153582688415 38.111691502486  76.0153582688415 38.111691502486  C 76.0153582688415 38.111691502486  76.3484657678721 32.9080074238087  76.3484657678721 32.9080074238087  C 76.3484657678721 32.9080074238087  80.8137580276027 32.2922632589342  80.8137580276027 32.2922632589342  C 80.8137580276027 32.2922632589342  84.3072573356164 28.1101715183023  84.3072573356164 28.1101715183023  C 84.3072573356164 28.1101715183023  94.4078475334909 26.9152833661857  94.4078475334909 26.9152833661857  C 94.4078475334909 26.9152833661857  95.8228661657361 24.1487405275014  95.8228661657361 24.1487405275014  Z " fill-rule="evenodd" />
    </mask>
  </defs>
  <g transform="matrix(1 0 0 1 -1690 -1803 )">
    <path d="M 95.8228661657361 24.1487405275014  C 95.8228661657361 24.1487405275014  93.7884327625663 22.6309096315694  93.7884327625663 22.6309096315694  C 93.7884327625663 22.6309096315694  91.1235727703224 15.0331433454082  91.1235727703224 15.0331433454082  C 91.1235727703224 15.0331433454082  90.6638293625699 10.6131336583894  90.6638293625699 10.6131336583894  C 90.6638293625699 10.6131336583894  87.7539564164938 5.92400501819123  87.7539564164938 5.92400501819123  C 87.7539564164938 5.92400501819123  84.4008577898896 5.84434580805023  84.4008577898896 5.84434580805023  C 84.4008577898896 5.84434580805023  76.4062778131583 4.21886733084652  76.4062778131583 4.21886733084652  C 76.4062778131583 4.21886733084652  69.0641480618008 4.72911686607461  69.0641480618008 4.72911686607461  C 69.0641480618008 4.72911686607461  64.411654893524 1.59441929944085  64.411654893524 1.59441929944085  C 64.411654893524 1.59441929944085  58.7295567282438 1.55781912180847  58.7295567282438 1.55781912180847  C 58.7295567282438 1.55781912180847  56.3042037807575 6.08762934172441  56.3042037807575 6.08762934172441  C 56.3042037807575 6.08762934172441  51.1451669775913 13.6509484018786  51.1451669775913 13.6509484018786  C 51.1451669775913 13.6509484018786  43.4217744942498 16.6435511612337  43.4217744942498 16.6435511612337  C 43.4217744942498 16.6435511612337  35.6777133804258 19.933261244899  35.6777133804258 19.933261244899  C 35.6777133804258 19.933261244899  30.7113833948806 24.7687905956266  30.7113833948806 24.7687905956266  C 30.7113833948806 24.7687905956266  29.6762724888024 28.5106205206333  29.6762724888024 28.5106205206333  C 29.6762724888024 28.5106205206333  26.7443759064267 36.1438937168379  26.7443759064267 36.1438937168379  C 26.7443759064267 36.1438937168379  28.6741970371736 44.822441718968  28.6741970371736 44.822441718968  C 28.6741970371736 44.822441718968  22.229530465022 50.5837402686328  22.229530465022 50.5837402686328  C 22.229530465022 50.5837402686328  18.3588763853788 52.4137491502527  18.3588763853788 52.4137491502527  C 18.3588763853788 52.4137491502527  12.2775998121697 57.083501225822  12.2775998121697 57.083501225822  C 12.2775998121697 57.083501225822  5.10064733305876 57.8370342947242  5.10064733305876 57.8370342947242  C 5.10064733305876 57.8370342947242  1.2189814352655 60.4442587131268  1.2189814352655 60.4442587131268  C 1.2189814352655 60.4442587131268  1.17493416266643 60.4744000358827  1.17493416266643 60.4744000358827  C 1.17493416266643 60.4744000358827  35.6143954260647 60.4442587131268  35.6143954260647 60.4442587131268  C 35.6143954260647 60.4442587131268  35.6143954260647 60.4291880517484  35.6143954260647 60.4291880517484  C 35.6143954260647 60.4291880517484  35.5483245171661 52.3513135531151  35.5483245171661 52.3513135531151  C 35.5483245171661 52.3513135531151  50.0137026627028 47.2725006687133  50.0137026627028 47.2725006687133  C 50.0137026627028 47.2725006687133  57.7219753675402 46.2197073238753  57.7219753675402 46.2197073238753  C 57.7219753675402 46.2197073238753  64.0400060309694 44.3574041678737  64.0400060309694 44.3574041678737  C 64.0400060309694 44.3574041678737  66.991173295107 40.8760813895451  66.991173295107 40.8760813895451  C 66.991173295107 40.8760813895451  76.0153582688415 38.111691502486  76.0153582688415 38.111691502486  C 76.0153582688415 38.111691502486  76.3484657678721 32.9080074238087  76.3484657678721 32.9080074238087  C 76.3484657678721 32.9080074238087  80.8137580276027 32.2922632589342  80.8137580276027 32.2922632589342  C 80.8137580276027 32.2922632589342  84.3072573356164 28.1101715183023  84.3072573356164 28.1101715183023  C 84.3072573356164 28.1101715183023  94.4078475334909 26.9152833661857  94.4078475334909 26.9152833661857  C 94.4078475334909 26.9152833661857  95.8228661657361 24.1487405275014  95.8228661657361 24.1487405275014  Z " fill-rule="nonzero" fill="#f2f2f2" stroke="none" transform="matrix(1 0 0 1 1690 1803 )" />
    <path d="M 95.8228661657361 24.1487405275014  C 95.8228661657361 24.1487405275014  93.7884327625663 22.6309096315694  93.7884327625663 22.6309096315694  C 93.7884327625663 22.6309096315694  91.1235727703224 15.0331433454082  91.1235727703224 15.0331433454082  C 91.1235727703224 15.0331433454082  90.6638293625699 10.6131336583894  90.6638293625699 10.6131336583894  C 90.6638293625699 10.6131336583894  87.7539564164938 5.92400501819123  87.7539564164938 5.92400501819123  C 87.7539564164938 5.92400501819123  84.4008577898896 5.84434580805023  84.4008577898896 5.84434580805023  C 84.4008577898896 5.84434580805023  76.4062778131583 4.21886733084652  76.4062778131583 4.21886733084652  C 76.4062778131583 4.21886733084652  69.0641480618008 4.72911686607461  69.0641480618008 4.72911686607461  C 69.0641480618008 4.72911686607461  64.411654893524 1.59441929944085  64.411654893524 1.59441929944085  C 64.411654893524 1.59441929944085  58.7295567282438 1.55781912180847  58.7295567282438 1.55781912180847  C 58.7295567282438 1.55781912180847  56.3042037807575 6.08762934172441  56.3042037807575 6.08762934172441  C 56.3042037807575 6.08762934172441  51.1451669775913 13.6509484018786  51.1451669775913 13.6509484018786  C 51.1451669775913 13.6509484018786  43.4217744942498 16.6435511612337  43.4217744942498 16.6435511612337  C 43.4217744942498 16.6435511612337  35.6777133804258 19.933261244899  35.6777133804258 19.933261244899  C 35.6777133804258 19.933261244899  30.7113833948806 24.7687905956266  30.7113833948806 24.7687905956266  C 30.7113833948806 24.7687905956266  29.6762724888024 28.5106205206333  29.6762724888024 28.5106205206333  C 29.6762724888024 28.5106205206333  26.7443759064267 36.1438937168379  26.7443759064267 36.1438937168379  C 26.7443759064267 36.1438937168379  28.6741970371736 44.822441718968  28.6741970371736 44.822441718968  C 28.6741970371736 44.822441718968  22.229530465022 50.5837402686328  22.229530465022 50.5837402686328  C 22.229530465022 50.5837402686328  18.3588763853788 52.4137491502527  18.3588763853788 52.4137491502527  C 18.3588763853788 52.4137491502527  12.2775998121697 57.083501225822  12.2775998121697 57.083501225822  C 12.2775998121697 57.083501225822  5.10064733305876 57.8370342947242  5.10064733305876 57.8370342947242  C 5.10064733305876 57.8370342947242  1.2189814352655 60.4442587131268  1.2189814352655 60.4442587131268  C 1.2189814352655 60.4442587131268  1.17493416266643 60.4744000358827  1.17493416266643 60.4744000358827  C 1.17493416266643 60.4744000358827  35.6143954260647 60.4442587131268  35.6143954260647 60.4442587131268  C 35.6143954260647 60.4442587131268  35.6143954260647 60.4291880517484  35.6143954260647 60.4291880517484  C 35.6143954260647 60.4291880517484  35.5483245171661 52.3513135531151  35.5483245171661 52.3513135531151  C 35.5483245171661 52.3513135531151  50.0137026627028 47.2725006687133  50.0137026627028 47.2725006687133  C 50.0137026627028 47.2725006687133  57.7219753675402 46.2197073238753  57.7219753675402 46.2197073238753  C 57.7219753675402 46.2197073238753  64.0400060309694 44.3574041678737  64.0400060309694 44.3574041678737  C 64.0400060309694 44.3574041678737  66.991173295107 40.8760813895451  66.991173295107 40.8760813895451  C 66.991173295107 40.8760813895451  76.0153582688415 38.111691502486  76.0153582688415 38.111691502486  C 76.0153582688415 38.111691502486  76.3484657678721 32.9080074238087  76.3484657678721 32.9080074238087  C 76.3484657678721 32.9080074238087  80.8137580276027 32.2922632589342  80.8137580276027 32.2922632589342  C 80.8137580276027 32.2922632589342  84.3072573356164 28.1101715183023  84.3072573356164 28.1101715183023  C 84.3072573356164 28.1101715183023  94.4078475334909 26.9152833661857  94.4078475334909 26.9152833661857  C 94.4078475334909 26.9152833661857  95.8228661657361 24.1487405275014  95.8228661657361 24.1487405275014  Z " stroke-width="2" stroke="#505050" fill="none" stroke-opacity="0.211764705882353" transform="matrix(1 0 0 1 1690 1803 )" mask="url(#clip697)" />
  </g>
</svg>