<?xml version="1.0" encoding="utf-8"?>
<svg version="1.1" xmlns:xlink="http://www.w3.org/1999/xlink" width="32px" height="29px" xmlns="http://www.w3.org/2000/svg">
  <defs>
    <mask fill="white" id="clip698">
      <path d="M 4.32622280831629 4.20830457027539  C 4.32622280831629 4.20830457027539  1.97519963334071 3.34902052373339  1.97519963334071 3.34902052373339  C 1.97519963334071 3.34902052373339  3.81692621888919 2.04853928948032  3.81692621888919 2.04853928948032  C 3.81692621888919 2.04853928948032  8.94568052214368 1.17244773102533  8.94568052214368 1.17244773102533  C 8.94568052214368 1.17244773102533  14.636037551036 3.92257686775781  14.636037551036 3.92257686775781  C 14.636037551036 3.92257686775781  19.810194132707 4.25242428904657  19.810194132707 4.25242428904657  C 19.810194132707 4.25242428904657  23.2981875316457 6.61387971279547  23.2981875316457 6.61387971279547  C 23.2981875316457 6.61387971279547  22.7448436696197 9.56990087045967  22.7448436696197 9.56990087045967  C 22.7448436696197 9.56990087045967  25.5556102523481 10.9901356270915  25.5556102523481 10.9901356270915  C 25.5556102523481 10.9901356270915  26.6705568400121 16.1237636608505  26.6705568400121 16.1237636608505  C 26.6705568400121 16.1237636608505  29.3656993321677 18.3045383315367  29.3656993321677 18.3045383315367  C 29.3656993321677 18.3045383315367  28.8206143337541 19.5798082979207  28.8206143337541 19.5798082979207  C 28.8206143337541 19.5798082979207  30.2604095568363 20.443294222441  30.2604095568363 20.443294222441  C 30.2604095568363 20.443294222441  28.2149643355169 21.073575919171  28.2149643355169 21.073575919171  C 28.2149643355169 21.073575919171  23.667083439663 20.8235641794681  23.667083439663 20.8235641794681  C 23.667083439663 20.8235641794681  22.9072679873291 19.6449374065828  22.9072679873291 19.6449374065828  C 22.9072679873291 19.6449374065828  21.2940366283881 20.3256416390513  21.2940366283881 20.3256416390513  C 21.2940366283881 20.3256416390513  21.8391216268014 21.8467214671601  21.8391216268014 21.8467214671601  C 21.8391216268014 21.8467214671601  19.7248525420462 24.5485290071432  19.7248525420462 24.5485290071432  C 19.7248525420462 24.5485290071432  18.3786577732369 27.4373201171562  18.3786577732369 27.4373201171562  C 18.3786577732369 27.4373201171562  14.4350718698029 28.3470266994366  14.4350718698029 28.3470266994366  C 14.4350718698029 28.3470266994366  13.0530886920069 24.5107121053393  13.0530886920069 24.5107121053393  C 13.0530886920069 24.5107121053393  13.8652102805522 20.8886932881303  13.8652102805522 20.8886932881303  C 13.8652102805522 20.8886932881303  13.62019732672 17.138517192586  13.62019732672 17.138517192586  C 13.62019732672 17.138517192586  9.16591688513881 10.4817083917292  9.16591688513881 10.4817083917292  C 9.16591688513881 10.4817083917292  6.71854030135319 6.80926703878171  6.71854030135319 6.80926703878171  C 6.71854030135319 6.80926703878171  4.32622280831629 4.20830457027539  4.32622280831629 4.20830457027539  Z " fill-rule="evenodd" />
    </mask>
  </defs>
  <g transform="matrix(1 0 0 1 -1997 -1698 )">
    <path d="M 4.32622280831629 4.20830457027539  C 4.32622280831629 4.20830457027539  1.97519963334071 3.34902052373339  1.97519963334071 3.34902052373339  C 1.97519963334071 3.34902052373339  3.81692621888919 2.04853928948032  3.81692621888919 2.04853928948032  C 3.81692621888919 2.04853928948032  8.94568052214368 1.17244773102533  8.94568052214368 1.17244773102533  C 8.94568052214368 1.17244773102533  14.636037551036 3.92257686775781  14.636037551036 3.92257686775781  C 14.636037551036 3.92257686775781  19.810194132707 4.25242428904657  19.810194132707 4.25242428904657  C 19.810194132707 4.25242428904657  23.2981875316457 6.61387971279547  23.2981875316457 6.61387971279547  C 23.2981875316457 6.61387971279547  22.7448436696197 9.56990087045967  22.7448436696197 9.56990087045967  C 22.7448436696197 9.56990087045967  25.5556102523481 10.9901356270915  25.5556102523481 10.9901356270915  C 25.5556102523481 10.9901356270915  26.6705568400121 16.1237636608505  26.6705568400121 16.1237636608505  C 26.6705568400121 16.1237636608505  29.3656993321677 18.3045383315367  29.3656993321677 18.3045383315367  C 29.3656993321677 18.3045383315367  28.8206143337541 19.5798082979207  28.8206143337541 19.5798082979207  C 28.8206143337541 19.5798082979207  30.2604095568363 20.443294222441  30.2604095568363 20.443294222441  C 30.2604095568363 20.443294222441  28.2149643355169 21.073575919171  28.2149643355169 21.073575919171  C 28.2149643355169 21.073575919171  23.667083439663 20.8235641794681  23.667083439663 20.8235641794681  C 23.667083439663 20.8235641794681  22.9072679873291 19.6449374065828  22.9072679873291 19.6449374065828  C 22.9072679873291 19.6449374065828  21.2940366283881 20.3256416390513  21.2940366283881 20.3256416390513  C 21.2940366283881 20.3256416390513  21.8391216268014 21.8467214671601  21.8391216268014 21.8467214671601  C 21.8391216268014 21.8467214671601  19.7248525420462 24.5485290071432  19.7248525420462 24.5485290071432  C 19.7248525420462 24.5485290071432  18.3786577732369 27.4373201171562  18.3786577732369 27.4373201171562  C 18.3786577732369 27.4373201171562  14.4350718698029 28.3470266994366  14.4350718698029 28.3470266994366  C 14.4350718698029 28.3470266994366  13.0530886920069 24.5107121053393  13.0530886920069 24.5107121053393  C 13.0530886920069 24.5107121053393  13.8652102805522 20.8886932881303  13.8652102805522 20.8886932881303  C 13.8652102805522 20.8886932881303  13.62019732672 17.138517192586  13.62019732672 17.138517192586  C 13.62019732672 17.138517192586  9.16591688513881 10.4817083917292  9.16591688513881 10.4817083917292  C 9.16591688513881 10.4817083917292  6.71854030135319 6.80926703878171  6.71854030135319 6.80926703878171  C 6.71854030135319 6.80926703878171  4.32622280831629 4.20830457027539  4.32622280831629 4.20830457027539  Z " fill-rule="nonzero" fill="#f2f2f2" stroke="none" transform="matrix(1 0 0 1 1997 1698 )" />
    <path d="M 4.32622280831629 4.20830457027539  C 4.32622280831629 4.20830457027539  1.97519963334071 3.34902052373339  1.97519963334071 3.34902052373339  C 1.97519963334071 3.34902052373339  3.81692621888919 2.04853928948032  3.81692621888919 2.04853928948032  C 3.81692621888919 2.04853928948032  8.94568052214368 1.17244773102533  8.94568052214368 1.17244773102533  C 8.94568052214368 1.17244773102533  14.636037551036 3.92257686775781  14.636037551036 3.92257686775781  C 14.636037551036 3.92257686775781  19.810194132707 4.25242428904657  19.810194132707 4.25242428904657  C 19.810194132707 4.25242428904657  23.2981875316457 6.61387971279547  23.2981875316457 6.61387971279547  C 23.2981875316457 6.61387971279547  22.7448436696197 9.56990087045967  22.7448436696197 9.56990087045967  C 22.7448436696197 9.56990087045967  25.5556102523481 10.9901356270915  25.5556102523481 10.9901356270915  C 25.5556102523481 10.9901356270915  26.6705568400121 16.1237636608505  26.6705568400121 16.1237636608505  C 26.6705568400121 16.1237636608505  29.3656993321677 18.3045383315367  29.3656993321677 18.3045383315367  C 29.3656993321677 18.3045383315367  28.8206143337541 19.5798082979207  28.8206143337541 19.5798082979207  C 28.8206143337541 19.5798082979207  30.2604095568363 20.443294222441  30.2604095568363 20.443294222441  C 30.2604095568363 20.443294222441  28.2149643355169 21.073575919171  28.2149643355169 21.073575919171  C 28.2149643355169 21.073575919171  23.667083439663 20.8235641794681  23.667083439663 20.8235641794681  C 23.667083439663 20.8235641794681  22.9072679873291 19.6449374065828  22.9072679873291 19.6449374065828  C 22.9072679873291 19.6449374065828  21.2940366283881 20.3256416390513  21.2940366283881 20.3256416390513  C 21.2940366283881 20.3256416390513  21.8391216268014 21.8467214671601  21.8391216268014 21.8467214671601  C 21.8391216268014 21.8467214671601  19.7248525420462 24.5485290071432  19.7248525420462 24.5485290071432  C 19.7248525420462 24.5485290071432  18.3786577732369 27.4373201171562  18.3786577732369 27.4373201171562  C 18.3786577732369 27.4373201171562  14.4350718698029 28.3470266994366  14.4350718698029 28.3470266994366  C 14.4350718698029 28.3470266994366  13.0530886920069 24.5107121053393  13.0530886920069 24.5107121053393  C 13.0530886920069 24.5107121053393  13.8652102805522 20.8886932881303  13.8652102805522 20.8886932881303  C 13.8652102805522 20.8886932881303  13.62019732672 17.138517192586  13.62019732672 17.138517192586  C 13.62019732672 17.138517192586  9.16591688513881 10.4817083917292  9.16591688513881 10.4817083917292  C 9.16591688513881 10.4817083917292  6.71854030135319 6.80926703878171  6.71854030135319 6.80926703878171  C 6.71854030135319 6.80926703878171  4.32622280831629 4.20830457027539  4.32622280831629 4.20830457027539  Z " stroke-width="2" stroke="#505050" fill="none" stroke-opacity="0.211764705882353" transform="matrix(1 0 0 1 1997 1698 )" mask="url(#clip698)" />
  </g>
</svg>