<?xml version="1.0" encoding="utf-8"?>
<svg version="1.1" xmlns:xlink="http://www.w3.org/1999/xlink" width="18px" height="15px" xmlns="http://www.w3.org/2000/svg">
  <defs>
    <mask fill="white" id="clip699">
      <path d="M 15.425448416833 9.13589195113116  C 15.425448416833 9.13589195113116  13.3497206956017 9.82963649456639  13.3497206956017 9.82963649456639  C 13.3497206956017 9.82963649456639  12.8596947879371 8.35336462386323  12.8596947879371 8.35336462386323  C 12.8596947879371 8.35336462386323  7.51210207040754 12.2040597831101  7.51210207040754 12.2040597831101  C 7.51210207040754 12.2040597831101  8.02965752344653 14.6734600031954  8.02965752344653 14.6734600031954  C 8.02965752344653 14.6734600031954  6.41367320996824 14.0746923913019  6.41367320996824 14.0746923913019  C 6.41367320996824 14.0746923913019  4.25260389807636 11.5350918305117  4.25260389807636 11.5350918305117  C 4.25260389807636 11.5350918305117  0.916022998696917 9.98449018729761  0.916022998696917 9.98449018729761  C 0.916022998696917 9.98449018729761  1.76393299622896 8.65481314571318  1.76393299622896 8.65481314571318  C 1.76393299622896 8.65481314571318  2.89539731111745 2.82097446514533  2.89539731111745 2.82097446514533  C 2.89539731111745 2.82097446514533  5.40609184926439 0.977183163693525  5.40609184926439 0.977183163693525  C 5.40609184926439 0.977183163693525  6.84864002688414 0.250403165808905  6.84864002688414 0.250403165808905  C 6.84864002688414 0.250403165808905  10.896838202741 1.61518037774579  10.896838202741 1.61518037774579  C 10.896838202741 1.61518037774579  12.0227966085549 2.71154452228186  12.0227966085549 2.71154452228186  C 12.0227966085549 2.71154452228186  14.5610206920765 3.56427219025451  14.5610206920765 3.56427219025451  C 14.5610206920765 3.56427219025451  17.5039290926015 5.20159190139816  17.5039290926015 5.20159190139816  C 17.5039290926015 5.20159190139816  16.8679965944525 5.87675400170576  16.8679965944525 5.87675400170576  C 16.8679965944525 5.87675400170576  15.425448416833 9.13589195113116  15.425448416833 9.13589195113116  Z " fill-rule="evenodd" />
    </mask>
  </defs>
  <g transform="matrix(1 0 0 1 -1935 -1744 )">
    <path d="M 15.425448416833 9.13589195113116  C 15.425448416833 9.13589195113116  13.3497206956017 9.82963649456639  13.3497206956017 9.82963649456639  C 13.3497206956017 9.82963649456639  12.8596947879371 8.35336462386323  12.8596947879371 8.35336462386323  C 12.8596947879371 8.35336462386323  7.51210207040754 12.2040597831101  7.51210207040754 12.2040597831101  C 7.51210207040754 12.2040597831101  8.02965752344653 14.6734600031954  8.02965752344653 14.6734600031954  C 8.02965752344653 14.6734600031954  6.41367320996824 14.0746923913019  6.41367320996824 14.0746923913019  C 6.41367320996824 14.0746923913019  4.25260389807636 11.5350918305117  4.25260389807636 11.5350918305117  C 4.25260389807636 11.5350918305117  0.916022998696917 9.98449018729761  0.916022998696917 9.98449018729761  C 0.916022998696917 9.98449018729761  1.76393299622896 8.65481314571318  1.76393299622896 8.65481314571318  C 1.76393299622896 8.65481314571318  2.89539731111745 2.82097446514533  2.89539731111745 2.82097446514533  C 2.89539731111745 2.82097446514533  5.40609184926439 0.977183163693525  5.40609184926439 0.977183163693525  C 5.40609184926439 0.977183163693525  6.84864002688414 0.250403165808905  6.84864002688414 0.250403165808905  C 6.84864002688414 0.250403165808905  10.896838202741 1.61518037774579  10.896838202741 1.61518037774579  C 10.896838202741 1.61518037774579  12.0227966085549 2.71154452228186  12.0227966085549 2.71154452228186  C 12.0227966085549 2.71154452228186  14.5610206920765 3.56427219025451  14.5610206920765 3.56427219025451  C 14.5610206920765 3.56427219025451  17.5039290926015 5.20159190139816  17.5039290926015 5.20159190139816  C 17.5039290926015 5.20159190139816  16.8679965944525 5.87675400170576  16.8679965944525 5.87675400170576  C 16.8679965944525 5.87675400170576  15.425448416833 9.13589195113116  15.425448416833 9.13589195113116  Z " fill-rule="nonzero" fill="#f2f2f2" stroke="none" transform="matrix(1 0 0 1 1935 1744 )" />
    <path d="M 15.425448416833 9.13589195113116  C 15.425448416833 9.13589195113116  13.3497206956017 9.82963649456639  13.3497206956017 9.82963649456639  C 13.3497206956017 9.82963649456639  12.8596947879371 8.35336462386323  12.8596947879371 8.35336462386323  C 12.8596947879371 8.35336462386323  7.51210207040754 12.2040597831101  7.51210207040754 12.2040597831101  C 7.51210207040754 12.2040597831101  8.02965752344653 14.6734600031954  8.02965752344653 14.6734600031954  C 8.02965752344653 14.6734600031954  6.41367320996824 14.0746923913019  6.41367320996824 14.0746923913019  C 6.41367320996824 14.0746923913019  4.25260389807636 11.5350918305117  4.25260389807636 11.5350918305117  C 4.25260389807636 11.5350918305117  0.916022998696917 9.98449018729761  0.916022998696917 9.98449018729761  C 0.916022998696917 9.98449018729761  1.76393299622896 8.65481314571318  1.76393299622896 8.65481314571318  C 1.76393299622896 8.65481314571318  2.89539731111745 2.82097446514533  2.89539731111745 2.82097446514533  C 2.89539731111745 2.82097446514533  5.40609184926439 0.977183163693525  5.40609184926439 0.977183163693525  C 5.40609184926439 0.977183163693525  6.84864002688414 0.250403165808905  6.84864002688414 0.250403165808905  C 6.84864002688414 0.250403165808905  10.896838202741 1.61518037774579  10.896838202741 1.61518037774579  C 10.896838202741 1.61518037774579  12.0227966085549 2.71154452228186  12.0227966085549 2.71154452228186  C 12.0227966085549 2.71154452228186  14.5610206920765 3.56427219025451  14.5610206920765 3.56427219025451  C 14.5610206920765 3.56427219025451  17.5039290926015 5.20159190139816  17.5039290926015 5.20159190139816  C 17.5039290926015 5.20159190139816  16.8679965944525 5.87675400170576  16.8679965944525 5.87675400170576  C 16.8679965944525 5.87675400170576  15.425448416833 9.13589195113116  15.425448416833 9.13589195113116  Z " stroke-width="2" stroke="#505050" fill="none" stroke-opacity="0.211764705882353" transform="matrix(1 0 0 1 1935 1744 )" mask="url(#clip699)" />
  </g>
</svg>