<?xml version="1.0" encoding="utf-8"?>
<svg version="1.1" xmlns:xlink="http://www.w3.org/1999/xlink" width="61px" height="87px" xmlns="http://www.w3.org/2000/svg">
  <defs>
    <mask fill="white" id="clip700">
      <path d="M 49.0355778767439 0.909888867424893  C 49.0355778767439 0.909888867424893  51.7728405733222 3.48143819008376  51.7728405733222 3.48143819008376  C 51.7728405733222 3.48143819008376  53.8551753854432 6.03407906184066  53.8551753854432 6.03407906184066  C 53.8551753854432 6.03407906184066  55.7975683419111 10.0048537512404  55.7975683419111 10.0048537512404  C 55.7975683419111 10.0048537512404  57.0626427170169 17.2677998365605  57.0626427170169 17.2677998365605  C 57.0626427170169 17.2677998365605  59.0917996239895 20.1019665328569  59.0917996239895 20.1019665328569  C 59.0917996239895 20.1019665328569  58.3137229065576 23.0138679717502  58.3137229065576 23.0138679717502  C 58.3137229065576 23.0138679717502  56.9254996984763 24.8059689294527  56.9254996984763 24.8059689294527  C 56.9254996984763 24.8059689294527  54.2610067668376 21.2427764039386  54.2610067668376 21.2427764039386  C 54.2610067668376 21.2427764039386  52.7832207711392 23.0411801786085  52.7832207711392 23.0411801786085  C 52.7832207711392 23.0411801786085  54.2833974637424 27.553997127196  54.2833974637424 27.553997127196  C 54.2833974637424 27.553997127196  53.5836881854759 30.1444549007568  53.5836881854759 30.1444549007568  C 53.5836881854759 30.1444549007568  51.4201870970756 31.5583868404213  51.4201870970756 31.5583868404213  C 51.4201870970756 31.5583868404213  50.9247929280635 36.760311777434  50.9247929280635 36.760311777434  C 50.9247929280635 36.760311777434  47.8348767552386 45.4865454825548  47.8348767552386 45.4865454825548  C 47.8348767552386 45.4865454825548  43.9640850278682 54.0625784360626  43.9640850278682 54.0625784360626  C 43.9640850278682 54.0625784360626  39.1164991480383 65.9854071992072  39.1164991480383 65.9854071992072  C 39.1164991480383 65.9854071992072  36.1105480886056 74.8387640992765  36.1105480886056 74.8387640992765  C 36.1105480886056 74.8387640992765  32.5644214663508 82.2970975105829  32.5644214663508 82.2970975105829  C 32.5644214663508 82.2970975105829  24.1469406781141 83.8286820336369  24.1469406781141 83.8286820336369  C 24.1469406781141 83.8286820336369  17.2981862624417 86.5704074144128  17.2981862624417 86.5704074144128  C 17.2981862624417 86.5704074144128  12.7780643248403 84.9148674910017  12.7780643248403 84.9148674910017  C 12.7780643248403 84.9148674910017  6.54785291115541 82.597531786024  6.54785291115541 82.597531786024  C 6.54785291115541 82.597531786024  4.38155298564219 79.1961115626706  4.38155298564219 79.1961115626706  C 4.38155298564219 79.1961115626706  3.86376811972487 73.5088697191758  3.86376811972487 73.5088697191758  C 3.86376811972487 73.5088697191758  1.10131588912883 68.428799243531  1.10131588912883 68.428799243531  C 1.10131588912883 68.428799243531  0.382014751070991 63.8718625761722  0.382014751070991 63.8718625761722  C 0.382014751070991 63.8718625761722  1.78982981894315 59.3275315427481  1.78982981894315 59.3275315427481  C 1.78982981894315 59.3275315427481  5.4003296947979 58.239245146394  5.4003296947979 58.239245146394  C 5.4003296947979 58.239245146394  5.42272039170266 56.1509117912286  5.42272039170266 56.1509117912286  C 5.42272039170266 56.1509117912286  9.17316212321135 51.4132943708072  9.17316212321135 51.4132943708072  C 9.17316212321135 51.4132943708072  9.88126791281658 47.4509234373637  9.88126791281658 47.4509234373637  C 9.88126791281658 47.4509234373637  8.05922495221075 44.5138107306015  8.05922495221075 44.5138107306015  C 8.05922495221075 44.5138107306015  6.57304244517309 39.0902531163463  6.57304244517309 39.0902531163463  C 6.57304244517309 39.0902531163463  5.94610293184628 33.4219197237534  5.94610293184628 33.4219197237534  C 5.94610293184628 33.4219197237534  8.68896330265094 29.9952882325307  8.68896330265094 29.9952882325307  C 8.68896330265094 29.9952882325307  9.74132605716356 26.1211567366298  9.74132605716356 26.1211567366298  C 9.74132605716356 26.1211567366298  13.6513015041166 25.8963562647958  13.6513015041166 25.8963562647958  C 13.6513015041166 25.8963562647958  18.0286827489517 24.6483985052703  18.0286827489517 24.6483985052703  C 18.0286827489517 24.6483985052703  20.9338756723141 23.5475064749816  20.9338756723141 23.5475064749816  C 20.9338756723141 23.5475064749816  24.3792441584982 23.4655698544067  24.3792441584982 23.4655698544067  C 24.3792441584982 23.4655698544067  30.8879180356243 20.0032224003694  30.8879180356243 20.0032224003694  C 30.8879180356243 20.0032224003694  37.3448352554674 16.2719547557269  37.3448352554674 16.2719547557269  C 37.3448352554674 16.2719547557269  39.701456104669 13.2339969774878  39.701456104669 13.2339969774878  C 39.701456104669 13.2339969774878  38.6323003274779 10.6561448378616  38.6323003274779 10.6561448378616  C 38.6323003274779 10.6561448378616  41.9657153291396 11.3809687891014  41.9657153291396 11.3809687891014  C 41.9657153291396 11.3809687891014  46.2899186688263 7.1979992618023  46.2899186688263 7.1979992618023  C 46.2899186688263 7.1979992618023  46.4354581987056 3.58858607852791  46.4354581987056 3.58858607852791  C 46.4354581987056 3.58858607852791  49.0355778767439 0.909888867424893  49.0355778767439 0.909888867424893  Z " fill-rule="evenodd" />
    </mask>
  </defs>
  <g transform="matrix(1 0 0 1 -2125 -2105 )">
    <path d="M 49.0355778767439 0.909888867424893  C 49.0355778767439 0.909888867424893  51.7728405733222 3.48143819008376  51.7728405733222 3.48143819008376  C 51.7728405733222 3.48143819008376  53.8551753854432 6.03407906184066  53.8551753854432 6.03407906184066  C 53.8551753854432 6.03407906184066  55.7975683419111 10.0048537512404  55.7975683419111 10.0048537512404  C 55.7975683419111 10.0048537512404  57.0626427170169 17.2677998365605  57.0626427170169 17.2677998365605  C 57.0626427170169 17.2677998365605  59.0917996239895 20.1019665328569  59.0917996239895 20.1019665328569  C 59.0917996239895 20.1019665328569  58.3137229065576 23.0138679717502  58.3137229065576 23.0138679717502  C 58.3137229065576 23.0138679717502  56.9254996984763 24.8059689294527  56.9254996984763 24.8059689294527  C 56.9254996984763 24.8059689294527  54.2610067668376 21.2427764039386  54.2610067668376 21.2427764039386  C 54.2610067668376 21.2427764039386  52.7832207711392 23.0411801786085  52.7832207711392 23.0411801786085  C 52.7832207711392 23.0411801786085  54.2833974637424 27.553997127196  54.2833974637424 27.553997127196  C 54.2833974637424 27.553997127196  53.5836881854759 30.1444549007568  53.5836881854759 30.1444549007568  C 53.5836881854759 30.1444549007568  51.4201870970756 31.5583868404213  51.4201870970756 31.5583868404213  C 51.4201870970756 31.5583868404213  50.9247929280635 36.760311777434  50.9247929280635 36.760311777434  C 50.9247929280635 36.760311777434  47.8348767552386 45.4865454825548  47.8348767552386 45.4865454825548  C 47.8348767552386 45.4865454825548  43.9640850278682 54.0625784360626  43.9640850278682 54.0625784360626  C 43.9640850278682 54.0625784360626  39.1164991480383 65.9854071992072  39.1164991480383 65.9854071992072  C 39.1164991480383 65.9854071992072  36.1105480886056 74.8387640992765  36.1105480886056 74.8387640992765  C 36.1105480886056 74.8387640992765  32.5644214663508 82.2970975105829  32.5644214663508 82.2970975105829  C 32.5644214663508 82.2970975105829  24.1469406781141 83.8286820336369  24.1469406781141 83.8286820336369  C 24.1469406781141 83.8286820336369  17.2981862624417 86.5704074144128  17.2981862624417 86.5704074144128  C 17.2981862624417 86.5704074144128  12.7780643248403 84.9148674910017  12.7780643248403 84.9148674910017  C 12.7780643248403 84.9148674910017  6.54785291115541 82.597531786024  6.54785291115541 82.597531786024  C 6.54785291115541 82.597531786024  4.38155298564219 79.1961115626706  4.38155298564219 79.1961115626706  C 4.38155298564219 79.1961115626706  3.86376811972487 73.5088697191758  3.86376811972487 73.5088697191758  C 3.86376811972487 73.5088697191758  1.10131588912883 68.428799243531  1.10131588912883 68.428799243531  C 1.10131588912883 68.428799243531  0.382014751070991 63.8718625761722  0.382014751070991 63.8718625761722  C 0.382014751070991 63.8718625761722  1.78982981894315 59.3275315427481  1.78982981894315 59.3275315427481  C 1.78982981894315 59.3275315427481  5.4003296947979 58.239245146394  5.4003296947979 58.239245146394  C 5.4003296947979 58.239245146394  5.42272039170266 56.1509117912286  5.42272039170266 56.1509117912286  C 5.42272039170266 56.1509117912286  9.17316212321135 51.4132943708072  9.17316212321135 51.4132943708072  C 9.17316212321135 51.4132943708072  9.88126791281658 47.4509234373637  9.88126791281658 47.4509234373637  C 9.88126791281658 47.4509234373637  8.05922495221075 44.5138107306015  8.05922495221075 44.5138107306015  C 8.05922495221075 44.5138107306015  6.57304244517309 39.0902531163463  6.57304244517309 39.0902531163463  C 6.57304244517309 39.0902531163463  5.94610293184628 33.4219197237534  5.94610293184628 33.4219197237534  C 5.94610293184628 33.4219197237534  8.68896330265094 29.9952882325307  8.68896330265094 29.9952882325307  C 8.68896330265094 29.9952882325307  9.74132605716356 26.1211567366298  9.74132605716356 26.1211567366298  C 9.74132605716356 26.1211567366298  13.6513015041166 25.8963562647958  13.6513015041166 25.8963562647958  C 13.6513015041166 25.8963562647958  18.0286827489517 24.6483985052703  18.0286827489517 24.6483985052703  C 18.0286827489517 24.6483985052703  20.9338756723141 23.5475064749816  20.9338756723141 23.5475064749816  C 20.9338756723141 23.5475064749816  24.3792441584982 23.4655698544067  24.3792441584982 23.4655698544067  C 24.3792441584982 23.4655698544067  30.8879180356243 20.0032224003694  30.8879180356243 20.0032224003694  C 30.8879180356243 20.0032224003694  37.3448352554674 16.2719547557269  37.3448352554674 16.2719547557269  C 37.3448352554674 16.2719547557269  39.701456104669 13.2339969774878  39.701456104669 13.2339969774878  C 39.701456104669 13.2339969774878  38.6323003274779 10.6561448378616  38.6323003274779 10.6561448378616  C 38.6323003274779 10.6561448378616  41.9657153291396 11.3809687891014  41.9657153291396 11.3809687891014  C 41.9657153291396 11.3809687891014  46.2899186688263 7.1979992618023  46.2899186688263 7.1979992618023  C 46.2899186688263 7.1979992618023  46.4354581987056 3.58858607852791  46.4354581987056 3.58858607852791  C 46.4354581987056 3.58858607852791  49.0355778767439 0.909888867424893  49.0355778767439 0.909888867424893  Z " fill-rule="nonzero" fill="#f2f2f2" stroke="none" transform="matrix(1 0 0 1 2125 2105 )" />
    <path d="M 49.0355778767439 0.909888867424893  C 49.0355778767439 0.909888867424893  51.7728405733222 3.48143819008376  51.7728405733222 3.48143819008376  C 51.7728405733222 3.48143819008376  53.8551753854432 6.03407906184066  53.8551753854432 6.03407906184066  C 53.8551753854432 6.03407906184066  55.7975683419111 10.0048537512404  55.7975683419111 10.0048537512404  C 55.7975683419111 10.0048537512404  57.0626427170169 17.2677998365605  57.0626427170169 17.2677998365605  C 57.0626427170169 17.2677998365605  59.0917996239895 20.1019665328569  59.0917996239895 20.1019665328569  C 59.0917996239895 20.1019665328569  58.3137229065576 23.0138679717502  58.3137229065576 23.0138679717502  C 58.3137229065576 23.0138679717502  56.9254996984763 24.8059689294527  56.9254996984763 24.8059689294527  C 56.9254996984763 24.8059689294527  54.2610067668376 21.2427764039386  54.2610067668376 21.2427764039386  C 54.2610067668376 21.2427764039386  52.7832207711392 23.0411801786085  52.7832207711392 23.0411801786085  C 52.7832207711392 23.0411801786085  54.2833974637424 27.553997127196  54.2833974637424 27.553997127196  C 54.2833974637424 27.553997127196  53.5836881854759 30.1444549007568  53.5836881854759 30.1444549007568  C 53.5836881854759 30.1444549007568  51.4201870970756 31.5583868404213  51.4201870970756 31.5583868404213  C 51.4201870970756 31.5583868404213  50.9247929280635 36.760311777434  50.9247929280635 36.760311777434  C 50.9247929280635 36.760311777434  47.8348767552386 45.4865454825548  47.8348767552386 45.4865454825548  C 47.8348767552386 45.4865454825548  43.9640850278682 54.0625784360626  43.9640850278682 54.0625784360626  C 43.9640850278682 54.0625784360626  39.1164991480383 65.9854071992072  39.1164991480383 65.9854071992072  C 39.1164991480383 65.9854071992072  36.1105480886056 74.8387640992765  36.1105480886056 74.8387640992765  C 36.1105480886056 74.8387640992765  32.5644214663508 82.2970975105829  32.5644214663508 82.2970975105829  C 32.5644214663508 82.2970975105829  24.1469406781141 83.8286820336369  24.1469406781141 83.8286820336369  C 24.1469406781141 83.8286820336369  17.2981862624417 86.5704074144128  17.2981862624417 86.5704074144128  C 17.2981862624417 86.5704074144128  12.7780643248403 84.9148674910017  12.7780643248403 84.9148674910017  C 12.7780643248403 84.9148674910017  6.54785291115541 82.597531786024  6.54785291115541 82.597531786024  C 6.54785291115541 82.597531786024  4.38155298564219 79.1961115626706  4.38155298564219 79.1961115626706  C 4.38155298564219 79.1961115626706  3.86376811972487 73.5088697191758  3.86376811972487 73.5088697191758  C 3.86376811972487 73.5088697191758  1.10131588912883 68.428799243531  1.10131588912883 68.428799243531  C 1.10131588912883 68.428799243531  0.382014751070991 63.8718625761722  0.382014751070991 63.8718625761722  C 0.382014751070991 63.8718625761722  1.78982981894315 59.3275315427481  1.78982981894315 59.3275315427481  C 1.78982981894315 59.3275315427481  5.4003296947979 58.239245146394  5.4003296947979 58.239245146394  C 5.4003296947979 58.239245146394  5.42272039170266 56.1509117912286  5.42272039170266 56.1509117912286  C 5.42272039170266 56.1509117912286  9.17316212321135 51.4132943708072  9.17316212321135 51.4132943708072  C 9.17316212321135 51.4132943708072  9.88126791281658 47.4509234373637  9.88126791281658 47.4509234373637  C 9.88126791281658 47.4509234373637  8.05922495221075 44.5138107306015  8.05922495221075 44.5138107306015  C 8.05922495221075 44.5138107306015  6.57304244517309 39.0902531163463  6.57304244517309 39.0902531163463  C 6.57304244517309 39.0902531163463  5.94610293184628 33.4219197237534  5.94610293184628 33.4219197237534  C 5.94610293184628 33.4219197237534  8.68896330265094 29.9952882325307  8.68896330265094 29.9952882325307  C 8.68896330265094 29.9952882325307  9.74132605716356 26.1211567366298  9.74132605716356 26.1211567366298  C 9.74132605716356 26.1211567366298  13.6513015041166 25.8963562647958  13.6513015041166 25.8963562647958  C 13.6513015041166 25.8963562647958  18.0286827489517 24.6483985052703  18.0286827489517 24.6483985052703  C 18.0286827489517 24.6483985052703  20.9338756723141 23.5475064749816  20.9338756723141 23.5475064749816  C 20.9338756723141 23.5475064749816  24.3792441584982 23.4655698544067  24.3792441584982 23.4655698544067  C 24.3792441584982 23.4655698544067  30.8879180356243 20.0032224003694  30.8879180356243 20.0032224003694  C 30.8879180356243 20.0032224003694  37.3448352554674 16.2719547557269  37.3448352554674 16.2719547557269  C 37.3448352554674 16.2719547557269  39.701456104669 13.2339969774878  39.701456104669 13.2339969774878  C 39.701456104669 13.2339969774878  38.6323003274779 10.6561448378616  38.6323003274779 10.6561448378616  C 38.6323003274779 10.6561448378616  41.9657153291396 11.3809687891014  41.9657153291396 11.3809687891014  C 41.9657153291396 11.3809687891014  46.2899186688263 7.1979992618023  46.2899186688263 7.1979992618023  C 46.2899186688263 7.1979992618023  46.4354581987056 3.58858607852791  46.4354581987056 3.58858607852791  C 46.4354581987056 3.58858607852791  49.0355778767439 0.909888867424893  49.0355778767439 0.909888867424893  Z " stroke-width="2" stroke="#505050" fill="none" stroke-opacity="0.211764705882353" transform="matrix(1 0 0 1 2125 2105 )" mask="url(#clip700)" />
  </g>
</svg>