<?xml version="1.0" encoding="utf-8"?>
<svg version="1.1" xmlns:xlink="http://www.w3.org/1999/xlink" width="21px" height="15px" xmlns="http://www.w3.org/2000/svg">
  <defs>
    <mask fill="white" id="clip701">
      <path d="M 0.433075753108958 8.47527948367696  C 0.433075753108958 8.47527948367696  1.37120757889068 4.34689613905434  1.37120757889068 4.34689613905434  C 1.37120757889068 4.34689613905434  2.30671158443246 4.41090233204989  2.30671158443246 4.41090233204989  C 2.30671158443246 4.41090233204989  2.63781693470828 2.82107108667722  2.63781693470828 2.82107108667722  C 2.63781693470828 2.82107108667722  6.98948725262103 1.61734171518066  6.98948725262103 1.61734171518066  C 6.98948725262103 1.61734171518066  8.63713054327992 1.31795790923394  8.63713054327992 1.31795790923394  C 8.63713054327992 1.31795790923394  13.0557897818438 0.863720410556084  13.0557897818438 0.863720410556084  C 13.0557897818438 0.863720410556084  16.4719560942148 0.73364330866184  16.4719560942148 0.73364330866184  C 16.4719560942148 0.73364330866184  20.1614157115757 3.22988483548724  20.1614157115757 3.22988483548724  C 20.1614157115757 3.22988483548724  20.6843519393922 9.83592726380763  20.6843519393922 9.83592726380763  C 20.6843519393922 9.83592726380763  19.2810959310799 10.0919520357897  19.2810959310799 10.0919520357897  C 19.2810959310799 10.0919520357897  18.0670429800681 11.4278232250834  18.0670429800681 11.4278232250834  C 18.0670429800681 11.4278232250834  14.0753840350743 11.2791636800616  14.0753840350743 11.2791636800616  C 14.0753840350743 11.2791636800616  9.35715328911812 12.9515835615575  9.35715328911812 12.9515835615575  C 9.35715328911812 12.9515835615575  4.53773096843481 13.6267456618651  4.53773096843481 13.6267456618651  C 4.53773096843481 13.6267456618651  1.48157602898283 11.7664366331887  1.48157602898283 11.7664366331887  C 1.48157602898283 11.7664366331887  0.433075753108958 8.47527948367696  0.433075753108958 8.47527948367696  Z " fill-rule="evenodd" />
    </mask>
  </defs>
  <g transform="matrix(1 0 0 1 -1951 -1752 )">
    <path d="M 0.433075753108958 8.47527948367696  C 0.433075753108958 8.47527948367696  1.37120757889068 4.34689613905434  1.37120757889068 4.34689613905434  C 1.37120757889068 4.34689613905434  2.30671158443246 4.41090233204989  2.30671158443246 4.41090233204989  C 2.30671158443246 4.41090233204989  2.63781693470828 2.82107108667722  2.63781693470828 2.82107108667722  C 2.63781693470828 2.82107108667722  6.98948725262103 1.61734171518066  6.98948725262103 1.61734171518066  C 6.98948725262103 1.61734171518066  8.63713054327992 1.31795790923394  8.63713054327992 1.31795790923394  C 8.63713054327992 1.31795790923394  13.0557897818438 0.863720410556084  13.0557897818438 0.863720410556084  C 13.0557897818438 0.863720410556084  16.4719560942148 0.73364330866184  16.4719560942148 0.73364330866184  C 16.4719560942148 0.73364330866184  20.1614157115757 3.22988483548724  20.1614157115757 3.22988483548724  C 20.1614157115757 3.22988483548724  20.6843519393922 9.83592726380763  20.6843519393922 9.83592726380763  C 20.6843519393922 9.83592726380763  19.2810959310799 10.0919520357897  19.2810959310799 10.0919520357897  C 19.2810959310799 10.0919520357897  18.0670429800681 11.4278232250834  18.0670429800681 11.4278232250834  C 18.0670429800681 11.4278232250834  14.0753840350743 11.2791636800616  14.0753840350743 11.2791636800616  C 14.0753840350743 11.2791636800616  9.35715328911812 12.9515835615575  9.35715328911812 12.9515835615575  C 9.35715328911812 12.9515835615575  4.53773096843481 13.6267456618651  4.53773096843481 13.6267456618651  C 4.53773096843481 13.6267456618651  1.48157602898283 11.7664366331887  1.48157602898283 11.7664366331887  C 1.48157602898283 11.7664366331887  0.433075753108958 8.47527948367696  0.433075753108958 8.47527948367696  Z " fill-rule="nonzero" fill="#f2f2f2" stroke="none" transform="matrix(1 0 0 1 1951 1752 )" />
    <path d="M 0.433075753108958 8.47527948367696  C 0.433075753108958 8.47527948367696  1.37120757889068 4.34689613905434  1.37120757889068 4.34689613905434  C 1.37120757889068 4.34689613905434  2.30671158443246 4.41090233204989  2.30671158443246 4.41090233204989  C 2.30671158443246 4.41090233204989  2.63781693470828 2.82107108667722  2.63781693470828 2.82107108667722  C 2.63781693470828 2.82107108667722  6.98948725262103 1.61734171518066  6.98948725262103 1.61734171518066  C 6.98948725262103 1.61734171518066  8.63713054327992 1.31795790923394  8.63713054327992 1.31795790923394  C 8.63713054327992 1.31795790923394  13.0557897818438 0.863720410556084  13.0557897818438 0.863720410556084  C 13.0557897818438 0.863720410556084  16.4719560942148 0.73364330866184  16.4719560942148 0.73364330866184  C 16.4719560942148 0.73364330866184  20.1614157115757 3.22988483548724  20.1614157115757 3.22988483548724  C 20.1614157115757 3.22988483548724  20.6843519393922 9.83592726380763  20.6843519393922 9.83592726380763  C 20.6843519393922 9.83592726380763  19.2810959310799 10.0919520357897  19.2810959310799 10.0919520357897  C 19.2810959310799 10.0919520357897  18.0670429800681 11.4278232250834  18.0670429800681 11.4278232250834  C 18.0670429800681 11.4278232250834  14.0753840350743 11.2791636800616  14.0753840350743 11.2791636800616  C 14.0753840350743 11.2791636800616  9.35715328911812 12.9515835615575  9.35715328911812 12.9515835615575  C 9.35715328911812 12.9515835615575  4.53773096843481 13.6267456618651  4.53773096843481 13.6267456618651  C 4.53773096843481 13.6267456618651  1.48157602898283 11.7664366331887  1.48157602898283 11.7664366331887  C 1.48157602898283 11.7664366331887  0.433075753108958 8.47527948367696  0.433075753108958 8.47527948367696  Z " stroke-width="2" stroke="#505050" fill="none" stroke-opacity="0.211764705882353" transform="matrix(1 0 0 1 1951 1752 )" mask="url(#clip701)" />
  </g>
</svg>