<?xml version="1.0" encoding="utf-8"?>
<svg version="1.1" xmlns:xlink="http://www.w3.org/1999/xlink" width="129px" height="96px" xmlns="http://www.w3.org/2000/svg">
  <defs>
    <mask fill="white" id="clip702">
      <path d="M 0.903730748163676 71.0559548150589  C 0.903730748163676 71.0559548150589  0.554063168761804 67.243023975717  0.554063168761804 67.243023975717  C 0.554063168761804 67.243023975717  3.13286156685061 66.1240811637244  3.13286156685061 66.1240811637244  C 3.13286156685061 66.1240811637244  4.41952898793085 62.5008377725104  4.41952898793085 62.5008377725104  C 4.41952898793085 62.5008377725104  6.84807959799528 62.3601706761459  6.84807959799528 62.3601706761459  C 6.84807959799528 62.3601706761459  12.1969008516579 64.0737516682259  12.1969008516579 64.0737516682259  C 12.1969008516579 64.0737516682259  16.5158418128636 62.8567681527065  16.5158418128636 62.8567681527065  C 16.5158418128636 62.8567681527065  19.4770891259231 63.2638502043073  19.4770891259231 63.2638502043073  C 19.4770891259231 63.2638502043073  20.6271676487993 61.8955429942138  20.6271676487993 61.8955429942138  C 20.6271676487993 61.8955429942138  51.3596697446651 61.8017649299705  51.3596697446651 61.8017649299705  C 51.3596697446651 61.8017649299705  53.0642991942492 57.4794486962165  53.0642991942492 57.4794486962165  C 53.0642991942492 57.4794486962165  51.7366551037077 56.7164362644196  51.7366551037077 56.7164362644196  C 51.7366551037077 56.7164362644196  48.0405595183117 28.1322595102646  48.0405595183117 28.1322595102646  C 48.0405595183117 28.1322595102646  44.3444639329155 0.305750265742268  44.3444639329155 0.305750265742268  C 44.3444639329155 0.305750265742268  56.0665231767698 0.186396365796569  56.0665231767698 0.186396365796569  C 56.0665231767698 0.186396365796569  83.8882945456248 14.368197262936  83.8882945456248 14.368197262936  C 83.8882945456248 14.368197262936  109.725450529865 28.3219469583929  109.725450529865 28.3219469583929  C 109.725450529865 28.3219469583929  111.547546431904 31.2908752195465  111.547546431904 31.2908752195465  C 111.547546431904 31.2908752195465  116.314498979218 33.1003655955115  116.314498979218 33.1003655955115  C 116.314498979218 33.1003655955115  119.863078554554 34.1255303432608  119.863078554554 34.1255303432608  C 119.863078554554 34.1255303432608  119.950495449405 38.132411270015  119.950495449405 38.132411270015  C 119.950495449405 38.132411270015  128.446324917684 37.5164598935087  128.446324917684 37.5164598935087  C 128.446324917684 37.5164598935087  128.468179141397 53.4512545730435  128.468179141397 53.4512545730435  C 128.468179141397 53.4512545730435  124.280363522467 57.588145997953  124.280363522467 57.588145997953  C 124.280363522467 57.588145997953  123.627468589052 61.3925515587275  123.627468589052 61.3925515587275  C 123.627468589052 61.3925515587275  116.822609680537 62.3708272743555  116.822609680537 62.3708272743555  C 116.822609680537 62.3708272743555  106.373558967942 62.8993945455442  106.373558967942 62.8993945455442  C 106.373558967942 62.8993945455442  103.540705219195 65.083997178482  103.540705219195 65.083997178482  C 103.540705219195 65.083997178482  98.6317002177481 65.3269676176573  98.6317002177481 65.3269676176573  C 98.6317002177481 65.3269676176573  93.7199634383378 65.3546747730018  93.7199634383378 65.3546747730018  C 93.7199634383378 65.3546747730018  91.8104506414481 64.1760550110366  91.8104506414481 64.1760550110366  C 91.8104506414481 64.1760550110366  87.5925854649132 65.0498960642117  87.5925854649132 65.0498960642117  C 87.5925854649132 65.0498960642117  80.4353271990315 67.5989543559126  80.4353271990315 67.5989543559126  C 80.4353271990315 67.5989543559126  78.9710942102864 69.5150107139723  78.9710942102864 69.5150107139723  C 78.9710942102864 69.5150107139723  73.0294771384189 72.2580190930855  73.0294771384189 72.2580190930855  C 73.0294771384189 72.2580190930855  71.9886697341056 73.8288016691585  71.9886697341056 73.8288016691585  C 71.9886697341056 73.8288016691585  68.7760988483511 75.0713610203806  68.7760988483511 75.0713610203806  C 68.7760988483511 75.0713610203806  63.0899243224114 74.2486716386111  63.0899243224114 74.2486716386111  C 63.0899243224114 74.2486716386111  60.9891870680363 75.7384640682924  60.9891870680363 75.7384640682924  C 60.9891870680363 75.7384640682924  59.8664263248007 79.9158505663979  59.8664263248007 79.9158505663979  C 59.8664263248007 79.9158505663979  53.7854885767654 84.9478962409014  53.7854885767654 84.9478962409014  C 53.7854885767654 84.9478962409014  53.9630541444305 87.0003570560418  53.9630541444305 87.0003570560418  C 53.9630541444305 87.0003570560418  51.8732440019115 89.566465904878  51.8732440019115 89.566465904878  C 51.8732440019115 89.566465904878  52.38135470323 93.0746180354298  52.38135470323 93.0746180354298  C 52.38135470323 93.0746180354298  49.2206875987928 93.967640965382  49.2206875987928 93.967640965382  C 49.2206875987928 93.967640965382  47.4341048102865 94.7285220775368  47.4341048102865 94.7285220775368  C 47.4341048102865 94.7285220775368  46.2457813959129 92.1474939912074  46.2457813959129 92.1474939912074  C 46.2457813959129 92.1474939912074  44.0357730229749 92.8295162766124  44.0357730229749 92.8295162766124  C 44.0357730229749 92.8295162766124  42.7135924883615 92.7101623766667  42.7135924883615 92.7101623766667  C 42.7135924883615 92.7101623766667  41.3039950588978 94.4727637205101  41.3039950588978 94.4727637205101  C 41.3039950588978 94.4727637205101  35.3896957666713 94.4237433687463  35.3896957666713 94.4237433687463  C 35.3896957666713 94.4237433687463  33.2698360665474 93.5158012013013  33.2698360665474 93.5158012013013  C 33.2698360665474 93.5158012013013  32.2700053316954 94.0656816689089  32.2700053316954 94.0656816689089  C 32.2700053316954 94.0656816689089  29.9316033944456 92.3243935214843  29.9316033944456 92.3243935214843  C 29.9316033944456 92.3243935214843  30.3359065331289 90.5255597437289  30.3359065331289 90.5255597437289  C 30.3359065331289 90.5255597437289  29.3797842457021 89.8200929422629  29.3797842457021 89.8200929422629  C 29.3797842457021 89.8200929422629  27.748912801148 90.4147311223507  27.748912801148 90.4147311223507  C 27.748912801148 90.4147311223507  28.0466765992324 88.4475230928854  28.0466765992324 88.4475230928854  C 28.0466765992324 88.4475230928854  29.6174489285767 86.8895284346635  29.6174489285767 86.8895284346635  C 29.6174489285767 86.8895284346635  26.4786360478521 84.3511267411719  26.4786360478521 84.3511267411719  C 26.4786360478521 84.3511267411719  25.5662222078505 82.675909502646  25.5662222078505 82.675909502646  C 25.5662222078505 82.675909502646  23.8643245362305 81.3417034068227  23.8643245362305 81.3417034068227  C 23.8643245362305 81.3417034068227  22.3317970983834 81.1818544336807  22.3317970983834 81.1818544336807  C 22.3317970983834 81.1818544336807  20.4905787505955 82.0322509707952  20.4905787505955 82.0322509707952  C 20.4905787505955 82.0322509707952  18.0155879151417 82.8464150739973  18.0155879151417 82.8464150739973  C 18.0155879151417 82.8464150739973  15.9148506607665 84.1593079734017  15.9148506607665 84.1593079734017  C 15.9148506607665 84.1593079734017  12.6367171038742 83.6733670950508  12.6367171038742 83.6733670950508  C 12.6367171038742 83.6733670950508  10.5113938478224 82.1324229939638  10.5113938478224 82.1324229939638  C 10.5113938478224 82.1324229939638  9.2411170945265 81.9299476279844  9.2411170945265 81.9299476279844  C 9.2411170945265 81.9299476279844  7.24145562482238 82.739849091903  7.24145562482238 82.739849091903  C 7.24145562482238 82.739849091903  6.02581443080786 82.7462430508283  6.02581443080786 82.7462430508283  C 6.02581443080786 82.7462430508283  5.58599817859181 80.5211453446949  5.58599817859181 80.5211453446949  C 5.58599817859181 80.5211453446949  5.93839753595762 78.6264021830541  5.93839753595762 78.6264021830541  C 5.93839753595762 78.6264021830541  5.28277082457911 76.2691626591233  5.28277082457911 76.2691626591233  C 5.28277082457911 76.2691626591233  2.41713574026235 74.5555816670433  2.41713574026235 74.5555816670433  C 2.41713574026235 74.5555816670433  0.903730748163676 71.0559548150589  0.903730748163676 71.0559548150589  Z " fill-rule="evenodd" />
    </mask>
  </defs>
  <g transform="matrix(1 0 0 1 -1697 -1879 )">
    <path d="M 0.903730748163676 71.0559548150589  C 0.903730748163676 71.0559548150589  0.554063168761804 67.243023975717  0.554063168761804 67.243023975717  C 0.554063168761804 67.243023975717  3.13286156685061 66.1240811637244  3.13286156685061 66.1240811637244  C 3.13286156685061 66.1240811637244  4.41952898793085 62.5008377725104  4.41952898793085 62.5008377725104  C 4.41952898793085 62.5008377725104  6.84807959799528 62.3601706761459  6.84807959799528 62.3601706761459  C 6.84807959799528 62.3601706761459  12.1969008516579 64.0737516682259  12.1969008516579 64.0737516682259  C 12.1969008516579 64.0737516682259  16.5158418128636 62.8567681527065  16.5158418128636 62.8567681527065  C 16.5158418128636 62.8567681527065  19.4770891259231 63.2638502043073  19.4770891259231 63.2638502043073  C 19.4770891259231 63.2638502043073  20.6271676487993 61.8955429942138  20.6271676487993 61.8955429942138  C 20.6271676487993 61.8955429942138  51.3596697446651 61.8017649299705  51.3596697446651 61.8017649299705  C 51.3596697446651 61.8017649299705  53.0642991942492 57.4794486962165  53.0642991942492 57.4794486962165  C 53.0642991942492 57.4794486962165  51.7366551037077 56.7164362644196  51.7366551037077 56.7164362644196  C 51.7366551037077 56.7164362644196  48.0405595183117 28.1322595102646  48.0405595183117 28.1322595102646  C 48.0405595183117 28.1322595102646  44.3444639329155 0.305750265742268  44.3444639329155 0.305750265742268  C 44.3444639329155 0.305750265742268  56.0665231767698 0.186396365796569  56.0665231767698 0.186396365796569  C 56.0665231767698 0.186396365796569  83.8882945456248 14.368197262936  83.8882945456248 14.368197262936  C 83.8882945456248 14.368197262936  109.725450529865 28.3219469583929  109.725450529865 28.3219469583929  C 109.725450529865 28.3219469583929  111.547546431904 31.2908752195465  111.547546431904 31.2908752195465  C 111.547546431904 31.2908752195465  116.314498979218 33.1003655955115  116.314498979218 33.1003655955115  C 116.314498979218 33.1003655955115  119.863078554554 34.1255303432608  119.863078554554 34.1255303432608  C 119.863078554554 34.1255303432608  119.950495449405 38.132411270015  119.950495449405 38.132411270015  C 119.950495449405 38.132411270015  128.446324917684 37.5164598935087  128.446324917684 37.5164598935087  C 128.446324917684 37.5164598935087  128.468179141397 53.4512545730435  128.468179141397 53.4512545730435  C 128.468179141397 53.4512545730435  124.280363522467 57.588145997953  124.280363522467 57.588145997953  C 124.280363522467 57.588145997953  123.627468589052 61.3925515587275  123.627468589052 61.3925515587275  C 123.627468589052 61.3925515587275  116.822609680537 62.3708272743555  116.822609680537 62.3708272743555  C 116.822609680537 62.3708272743555  106.373558967942 62.8993945455442  106.373558967942 62.8993945455442  C 106.373558967942 62.8993945455442  103.540705219195 65.083997178482  103.540705219195 65.083997178482  C 103.540705219195 65.083997178482  98.6317002177481 65.3269676176573  98.6317002177481 65.3269676176573  C 98.6317002177481 65.3269676176573  93.7199634383378 65.3546747730018  93.7199634383378 65.3546747730018  C 93.7199634383378 65.3546747730018  91.8104506414481 64.1760550110366  91.8104506414481 64.1760550110366  C 91.8104506414481 64.1760550110366  87.5925854649132 65.0498960642117  87.5925854649132 65.0498960642117  C 87.5925854649132 65.0498960642117  80.4353271990315 67.5989543559126  80.4353271990315 67.5989543559126  C 80.4353271990315 67.5989543559126  78.9710942102864 69.5150107139723  78.9710942102864 69.5150107139723  C 78.9710942102864 69.5150107139723  73.0294771384189 72.2580190930855  73.0294771384189 72.2580190930855  C 73.0294771384189 72.2580190930855  71.9886697341056 73.8288016691585  71.9886697341056 73.8288016691585  C 71.9886697341056 73.8288016691585  68.7760988483511 75.0713610203806  68.7760988483511 75.0713610203806  C 68.7760988483511 75.0713610203806  63.0899243224114 74.2486716386111  63.0899243224114 74.2486716386111  C 63.0899243224114 74.2486716386111  60.9891870680363 75.7384640682924  60.9891870680363 75.7384640682924  C 60.9891870680363 75.7384640682924  59.8664263248007 79.9158505663979  59.8664263248007 79.9158505663979  C 59.8664263248007 79.9158505663979  53.7854885767654 84.9478962409014  53.7854885767654 84.9478962409014  C 53.7854885767654 84.9478962409014  53.9630541444305 87.0003570560418  53.9630541444305 87.0003570560418  C 53.9630541444305 87.0003570560418  51.8732440019115 89.566465904878  51.8732440019115 89.566465904878  C 51.8732440019115 89.566465904878  52.38135470323 93.0746180354298  52.38135470323 93.0746180354298  C 52.38135470323 93.0746180354298  49.2206875987928 93.967640965382  49.2206875987928 93.967640965382  C 49.2206875987928 93.967640965382  47.4341048102865 94.7285220775368  47.4341048102865 94.7285220775368  C 47.4341048102865 94.7285220775368  46.2457813959129 92.1474939912074  46.2457813959129 92.1474939912074  C 46.2457813959129 92.1474939912074  44.0357730229749 92.8295162766124  44.0357730229749 92.8295162766124  C 44.0357730229749 92.8295162766124  42.7135924883615 92.7101623766667  42.7135924883615 92.7101623766667  C 42.7135924883615 92.7101623766667  41.3039950588978 94.4727637205101  41.3039950588978 94.4727637205101  C 41.3039950588978 94.4727637205101  35.3896957666713 94.4237433687463  35.3896957666713 94.4237433687463  C 35.3896957666713 94.4237433687463  33.2698360665474 93.5158012013013  33.2698360665474 93.5158012013013  C 33.2698360665474 93.5158012013013  32.2700053316954 94.0656816689089  32.2700053316954 94.0656816689089  C 32.2700053316954 94.0656816689089  29.9316033944456 92.3243935214843  29.9316033944456 92.3243935214843  C 29.9316033944456 92.3243935214843  30.3359065331289 90.5255597437289  30.3359065331289 90.5255597437289  C 30.3359065331289 90.5255597437289  29.3797842457021 89.8200929422629  29.3797842457021 89.8200929422629  C 29.3797842457021 89.8200929422629  27.748912801148 90.4147311223507  27.748912801148 90.4147311223507  C 27.748912801148 90.4147311223507  28.0466765992324 88.4475230928854  28.0466765992324 88.4475230928854  C 28.0466765992324 88.4475230928854  29.6174489285767 86.8895284346635  29.6174489285767 86.8895284346635  C 29.6174489285767 86.8895284346635  26.4786360478521 84.3511267411719  26.4786360478521 84.3511267411719  C 26.4786360478521 84.3511267411719  25.5662222078505 82.675909502646  25.5662222078505 82.675909502646  C 25.5662222078505 82.675909502646  23.8643245362305 81.3417034068227  23.8643245362305 81.3417034068227  C 23.8643245362305 81.3417034068227  22.3317970983834 81.1818544336807  22.3317970983834 81.1818544336807  C 22.3317970983834 81.1818544336807  20.4905787505955 82.0322509707952  20.4905787505955 82.0322509707952  C 20.4905787505955 82.0322509707952  18.0155879151417 82.8464150739973  18.0155879151417 82.8464150739973  C 18.0155879151417 82.8464150739973  15.9148506607665 84.1593079734017  15.9148506607665 84.1593079734017  C 15.9148506607665 84.1593079734017  12.6367171038742 83.6733670950508  12.6367171038742 83.6733670950508  C 12.6367171038742 83.6733670950508  10.5113938478224 82.1324229939638  10.5113938478224 82.1324229939638  C 10.5113938478224 82.1324229939638  9.2411170945265 81.9299476279844  9.2411170945265 81.9299476279844  C 9.2411170945265 81.9299476279844  7.24145562482238 82.739849091903  7.24145562482238 82.739849091903  C 7.24145562482238 82.739849091903  6.02581443080786 82.7462430508283  6.02581443080786 82.7462430508283  C 6.02581443080786 82.7462430508283  5.58599817859181 80.5211453446949  5.58599817859181 80.5211453446949  C 5.58599817859181 80.5211453446949  5.93839753595762 78.6264021830541  5.93839753595762 78.6264021830541  C 5.93839753595762 78.6264021830541  5.28277082457911 76.2691626591233  5.28277082457911 76.2691626591233  C 5.28277082457911 76.2691626591233  2.41713574026235 74.5555816670433  2.41713574026235 74.5555816670433  C 2.41713574026235 74.5555816670433  0.903730748163676 71.0559548150589  0.903730748163676 71.0559548150589  Z " fill-rule="nonzero" fill="#f2f2f2" stroke="none" transform="matrix(1 0 0 1 1697 1879 )" />
    <path d="M 0.903730748163676 71.0559548150589  C 0.903730748163676 71.0559548150589  0.554063168761804 67.243023975717  0.554063168761804 67.243023975717  C 0.554063168761804 67.243023975717  3.13286156685061 66.1240811637244  3.13286156685061 66.1240811637244  C 3.13286156685061 66.1240811637244  4.41952898793085 62.5008377725104  4.41952898793085 62.5008377725104  C 4.41952898793085 62.5008377725104  6.84807959799528 62.3601706761459  6.84807959799528 62.3601706761459  C 6.84807959799528 62.3601706761459  12.1969008516579 64.0737516682259  12.1969008516579 64.0737516682259  C 12.1969008516579 64.0737516682259  16.5158418128636 62.8567681527065  16.5158418128636 62.8567681527065  C 16.5158418128636 62.8567681527065  19.4770891259231 63.2638502043073  19.4770891259231 63.2638502043073  C 19.4770891259231 63.2638502043073  20.6271676487993 61.8955429942138  20.6271676487993 61.8955429942138  C 20.6271676487993 61.8955429942138  51.3596697446651 61.8017649299705  51.3596697446651 61.8017649299705  C 51.3596697446651 61.8017649299705  53.0642991942492 57.4794486962165  53.0642991942492 57.4794486962165  C 53.0642991942492 57.4794486962165  51.7366551037077 56.7164362644196  51.7366551037077 56.7164362644196  C 51.7366551037077 56.7164362644196  48.0405595183117 28.1322595102646  48.0405595183117 28.1322595102646  C 48.0405595183117 28.1322595102646  44.3444639329155 0.305750265742268  44.3444639329155 0.305750265742268  C 44.3444639329155 0.305750265742268  56.0665231767698 0.186396365796569  56.0665231767698 0.186396365796569  C 56.0665231767698 0.186396365796569  83.8882945456248 14.368197262936  83.8882945456248 14.368197262936  C 83.8882945456248 14.368197262936  109.725450529865 28.3219469583929  109.725450529865 28.3219469583929  C 109.725450529865 28.3219469583929  111.547546431904 31.2908752195465  111.547546431904 31.2908752195465  C 111.547546431904 31.2908752195465  116.314498979218 33.1003655955115  116.314498979218 33.1003655955115  C 116.314498979218 33.1003655955115  119.863078554554 34.1255303432608  119.863078554554 34.1255303432608  C 119.863078554554 34.1255303432608  119.950495449405 38.132411270015  119.950495449405 38.132411270015  C 119.950495449405 38.132411270015  128.446324917684 37.5164598935087  128.446324917684 37.5164598935087  C 128.446324917684 37.5164598935087  128.468179141397 53.4512545730435  128.468179141397 53.4512545730435  C 128.468179141397 53.4512545730435  124.280363522467 57.588145997953  124.280363522467 57.588145997953  C 124.280363522467 57.588145997953  123.627468589052 61.3925515587275  123.627468589052 61.3925515587275  C 123.627468589052 61.3925515587275  116.822609680537 62.3708272743555  116.822609680537 62.3708272743555  C 116.822609680537 62.3708272743555  106.373558967942 62.8993945455442  106.373558967942 62.8993945455442  C 106.373558967942 62.8993945455442  103.540705219195 65.083997178482  103.540705219195 65.083997178482  C 103.540705219195 65.083997178482  98.6317002177481 65.3269676176573  98.6317002177481 65.3269676176573  C 98.6317002177481 65.3269676176573  93.7199634383378 65.3546747730018  93.7199634383378 65.3546747730018  C 93.7199634383378 65.3546747730018  91.8104506414481 64.1760550110366  91.8104506414481 64.1760550110366  C 91.8104506414481 64.1760550110366  87.5925854649132 65.0498960642117  87.5925854649132 65.0498960642117  C 87.5925854649132 65.0498960642117  80.4353271990315 67.5989543559126  80.4353271990315 67.5989543559126  C 80.4353271990315 67.5989543559126  78.9710942102864 69.5150107139723  78.9710942102864 69.5150107139723  C 78.9710942102864 69.5150107139723  73.0294771384189 72.2580190930855  73.0294771384189 72.2580190930855  C 73.0294771384189 72.2580190930855  71.9886697341056 73.8288016691585  71.9886697341056 73.8288016691585  C 71.9886697341056 73.8288016691585  68.7760988483511 75.0713610203806  68.7760988483511 75.0713610203806  C 68.7760988483511 75.0713610203806  63.0899243224114 74.2486716386111  63.0899243224114 74.2486716386111  C 63.0899243224114 74.2486716386111  60.9891870680363 75.7384640682924  60.9891870680363 75.7384640682924  C 60.9891870680363 75.7384640682924  59.8664263248007 79.9158505663979  59.8664263248007 79.9158505663979  C 59.8664263248007 79.9158505663979  53.7854885767654 84.9478962409014  53.7854885767654 84.9478962409014  C 53.7854885767654 84.9478962409014  53.9630541444305 87.0003570560418  53.9630541444305 87.0003570560418  C 53.9630541444305 87.0003570560418  51.8732440019115 89.566465904878  51.8732440019115 89.566465904878  C 51.8732440019115 89.566465904878  52.38135470323 93.0746180354298  52.38135470323 93.0746180354298  C 52.38135470323 93.0746180354298  49.2206875987928 93.967640965382  49.2206875987928 93.967640965382  C 49.2206875987928 93.967640965382  47.4341048102865 94.7285220775368  47.4341048102865 94.7285220775368  C 47.4341048102865 94.7285220775368  46.2457813959129 92.1474939912074  46.2457813959129 92.1474939912074  C 46.2457813959129 92.1474939912074  44.0357730229749 92.8295162766124  44.0357730229749 92.8295162766124  C 44.0357730229749 92.8295162766124  42.7135924883615 92.7101623766667  42.7135924883615 92.7101623766667  C 42.7135924883615 92.7101623766667  41.3039950588978 94.4727637205101  41.3039950588978 94.4727637205101  C 41.3039950588978 94.4727637205101  35.3896957666713 94.4237433687463  35.3896957666713 94.4237433687463  C 35.3896957666713 94.4237433687463  33.2698360665474 93.5158012013013  33.2698360665474 93.5158012013013  C 33.2698360665474 93.5158012013013  32.2700053316954 94.0656816689089  32.2700053316954 94.0656816689089  C 32.2700053316954 94.0656816689089  29.9316033944456 92.3243935214843  29.9316033944456 92.3243935214843  C 29.9316033944456 92.3243935214843  30.3359065331289 90.5255597437289  30.3359065331289 90.5255597437289  C 30.3359065331289 90.5255597437289  29.3797842457021 89.8200929422629  29.3797842457021 89.8200929422629  C 29.3797842457021 89.8200929422629  27.748912801148 90.4147311223507  27.748912801148 90.4147311223507  C 27.748912801148 90.4147311223507  28.0466765992324 88.4475230928854  28.0466765992324 88.4475230928854  C 28.0466765992324 88.4475230928854  29.6174489285767 86.8895284346635  29.6174489285767 86.8895284346635  C 29.6174489285767 86.8895284346635  26.4786360478521 84.3511267411719  26.4786360478521 84.3511267411719  C 26.4786360478521 84.3511267411719  25.5662222078505 82.675909502646  25.5662222078505 82.675909502646  C 25.5662222078505 82.675909502646  23.8643245362305 81.3417034068227  23.8643245362305 81.3417034068227  C 23.8643245362305 81.3417034068227  22.3317970983834 81.1818544336807  22.3317970983834 81.1818544336807  C 22.3317970983834 81.1818544336807  20.4905787505955 82.0322509707952  20.4905787505955 82.0322509707952  C 20.4905787505955 82.0322509707952  18.0155879151417 82.8464150739973  18.0155879151417 82.8464150739973  C 18.0155879151417 82.8464150739973  15.9148506607665 84.1593079734017  15.9148506607665 84.1593079734017  C 15.9148506607665 84.1593079734017  12.6367171038742 83.6733670950508  12.6367171038742 83.6733670950508  C 12.6367171038742 83.6733670950508  10.5113938478224 82.1324229939638  10.5113938478224 82.1324229939638  C 10.5113938478224 82.1324229939638  9.2411170945265 81.9299476279844  9.2411170945265 81.9299476279844  C 9.2411170945265 81.9299476279844  7.24145562482238 82.739849091903  7.24145562482238 82.739849091903  C 7.24145562482238 82.739849091903  6.02581443080786 82.7462430508283  6.02581443080786 82.7462430508283  C 6.02581443080786 82.7462430508283  5.58599817859181 80.5211453446949  5.58599817859181 80.5211453446949  C 5.58599817859181 80.5211453446949  5.93839753595762 78.6264021830541  5.93839753595762 78.6264021830541  C 5.93839753595762 78.6264021830541  5.28277082457911 76.2691626591233  5.28277082457911 76.2691626591233  C 5.28277082457911 76.2691626591233  2.41713574026235 74.5555816670433  2.41713574026235 74.5555816670433  C 2.41713574026235 74.5555816670433  0.903730748163676 71.0559548150589  0.903730748163676 71.0559548150589  Z " stroke-width="2" stroke="#505050" fill="none" stroke-opacity="0.211764705882353" transform="matrix(1 0 0 1 1697 1879 )" mask="url(#clip702)" />
  </g>
</svg>