<?xml version="1.0" encoding="utf-8"?>
<svg version="1.1" xmlns:xlink="http://www.w3.org/1999/xlink" width="97px" height="86px" xmlns="http://www.w3.org/2000/svg">
  <defs>
    <mask fill="white" id="clip703">
      <path d="M 40.7371764244571 83.9753031751853  C 40.7371764244571 83.9753031751853  38.1649055970643 85.1052658785081  38.1649055970643 85.1052658785081  C 38.1649055970643 85.1052658785081  33.1239087425344 80.8415399446371  33.1239087425344 80.8415399446371  C 33.1239087425344 80.8415399446371  28.4998159521896 76.2592721439243  28.4998159521896 76.2592721439243  C 28.4998159521896 76.2592721439243  23.428845602849 74.6062981322067  23.428845602849 74.6062981322067  C 23.428845602849 74.6062981322067  19.7775289622703 72.7660731582239  19.7775289622703 72.7660731582239  C 19.7775289622703 72.7660731582239  15.5103932464898 72.8370993852898  15.5103932464898 72.8370993852898  C 15.5103932464898 72.8370993852898  11.7827804373022 74.1995115590102  11.7827804373022 74.1995115590102  C 11.7827804373022 74.1995115590102  7.98704604899917 73.6592817713265  7.98704604899917 73.6592817713265  C 7.98704604899917 73.6592817713265  5.37117741097281 75.6630822985523  5.37117741097281 75.6630822985523  C 5.37117741097281 75.6630822985523  4.70903566197231 72.2947172876948  4.70903566197231 72.2947172876948  C 4.70903566197231 72.2947172876948  6.84260351986243 69.2018479454573  6.84260351986243 69.2018479454573  C 6.84260351986243 69.2018479454573  7.79085590114718 63.2765387602241  7.79085590114718 63.2765387602241  C 7.79085590114718 63.2765387602241  6.9461483201177 57.0219261585935  6.9461483201177 57.0219261585935  C 6.9461483201177 57.0219261585935  6.02514457047946 53.862335209112  6.02514457047946 53.862335209112  C 6.02514457047946 53.862335209112  6.78538139340585 50.6812211605197  6.78538139340585 50.6812211605197  C 6.78538139340585 50.6812211605197  4.81258046222735 47.6400072561483  4.81258046222735 47.6400072561483  C 4.81258046222735 47.6400072561483  0.785232704932657 44.8678320906631  0.785232704932657 44.8678320906631  C 0.785232704932657 44.8678320906631  2.45012409851002 41.1583427456692  2.45012409851002 41.1583427456692  C 2.45012409851002 41.1583427456692  32.3691216459369 41.1992366339799  32.3691216459369 41.1992366339799  C 32.3691216459369 41.1992366339799  30.9222193055287 31.8496023802009  30.9222193055287 31.8496023802009  C 30.9222193055287 31.8496023802009  32.7914754364517 28.5006081585433  32.7914754364517 28.5006081585433  C 32.7914754364517 28.5006081585433  39.9496909698844 27.9130275528155  39.9496909698844 27.9130275528155  C 39.9496909698844 27.9130275528155  39.701728421905 11.0152424408404  39.701728421905 11.0152424408404  C 39.701728421905 11.0152424408404  66.7582359625532 11.3660689563483  66.7582359625532 11.3660689563483  C 66.7582359625532 11.3660689563483  66.78003486787 1.19210000662155  66.78003486787 1.19210000662155  C 66.78003486787 1.19210000662155  95.5164418018563 17.3882320875809  95.5164418018563 17.3882320875809  C 95.5164418018563 17.3882320875809  83.824053962511 17.5087614426019  83.824053962511 17.5087614426019  C 83.824053962511 17.5087614426019  87.5107938242296 47.1729560054414  87.5107938242296 47.1729560054414  C 87.5107938242296 47.1729560054414  91.1975336859479 74.4750072276298  91.1975336859479 74.4750072276298  C 91.1975336859479 74.4750072276298  92.521817183949 75.2455341758005  92.521817183949 75.2455341758005  C 92.521817183949 75.2455341758005  90.8215025692317 79.6104186754929  90.8215025692317 79.6104186754929  C 90.8215025692317 79.6104186754929  60.1667919673595 79.705120311581  60.1667919673595 79.705120311581  C 60.1667919673595 79.705120311581  59.0196245750583 81.0869032745013  59.0196245750583 81.0869032745013  C 59.0196245750583 81.0869032745013  56.0658729046203 80.6758120814831  56.0658729046203 80.6758120814831  C 56.0658729046203 80.6758120814831  51.7578642413705 81.9047810407159  51.7578642413705 81.9047810407159  C 51.7578642413705 81.9047810407159  44.4429903283278 80.1743238721988  44.4429903283278 80.1743238721988  C 44.4429903283278 80.1743238721988  42.0205869749888 80.3163763263306  42.0205869749888 80.3163763263306  C 42.0205869749888 80.3163763263306  40.7371764244571 83.9753031751853  40.7371764244571 83.9753031751853  Z " fill-rule="evenodd" />
    </mask>
  </defs>
  <g transform="matrix(1 0 0 1 -1659 -1861 )">
    <path d="M 40.7371764244571 83.9753031751853  C 40.7371764244571 83.9753031751853  38.1649055970643 85.1052658785081  38.1649055970643 85.1052658785081  C 38.1649055970643 85.1052658785081  33.1239087425344 80.8415399446371  33.1239087425344 80.8415399446371  C 33.1239087425344 80.8415399446371  28.4998159521896 76.2592721439243  28.4998159521896 76.2592721439243  C 28.4998159521896 76.2592721439243  23.428845602849 74.6062981322067  23.428845602849 74.6062981322067  C 23.428845602849 74.6062981322067  19.7775289622703 72.7660731582239  19.7775289622703 72.7660731582239  C 19.7775289622703 72.7660731582239  15.5103932464898 72.8370993852898  15.5103932464898 72.8370993852898  C 15.5103932464898 72.8370993852898  11.7827804373022 74.1995115590102  11.7827804373022 74.1995115590102  C 11.7827804373022 74.1995115590102  7.98704604899917 73.6592817713265  7.98704604899917 73.6592817713265  C 7.98704604899917 73.6592817713265  5.37117741097281 75.6630822985523  5.37117741097281 75.6630822985523  C 5.37117741097281 75.6630822985523  4.70903566197231 72.2947172876948  4.70903566197231 72.2947172876948  C 4.70903566197231 72.2947172876948  6.84260351986243 69.2018479454573  6.84260351986243 69.2018479454573  C 6.84260351986243 69.2018479454573  7.79085590114718 63.2765387602241  7.79085590114718 63.2765387602241  C 7.79085590114718 63.2765387602241  6.9461483201177 57.0219261585935  6.9461483201177 57.0219261585935  C 6.9461483201177 57.0219261585935  6.02514457047946 53.862335209112  6.02514457047946 53.862335209112  C 6.02514457047946 53.862335209112  6.78538139340585 50.6812211605197  6.78538139340585 50.6812211605197  C 6.78538139340585 50.6812211605197  4.81258046222735 47.6400072561483  4.81258046222735 47.6400072561483  C 4.81258046222735 47.6400072561483  0.785232704932657 44.8678320906631  0.785232704932657 44.8678320906631  C 0.785232704932657 44.8678320906631  2.45012409851002 41.1583427456692  2.45012409851002 41.1583427456692  C 2.45012409851002 41.1583427456692  32.3691216459369 41.1992366339799  32.3691216459369 41.1992366339799  C 32.3691216459369 41.1992366339799  30.9222193055287 31.8496023802009  30.9222193055287 31.8496023802009  C 30.9222193055287 31.8496023802009  32.7914754364517 28.5006081585433  32.7914754364517 28.5006081585433  C 32.7914754364517 28.5006081585433  39.9496909698844 27.9130275528155  39.9496909698844 27.9130275528155  C 39.9496909698844 27.9130275528155  39.701728421905 11.0152424408404  39.701728421905 11.0152424408404  C 39.701728421905 11.0152424408404  66.7582359625532 11.3660689563483  66.7582359625532 11.3660689563483  C 66.7582359625532 11.3660689563483  66.78003486787 1.19210000662155  66.78003486787 1.19210000662155  C 66.78003486787 1.19210000662155  95.5164418018563 17.3882320875809  95.5164418018563 17.3882320875809  C 95.5164418018563 17.3882320875809  83.824053962511 17.5087614426019  83.824053962511 17.5087614426019  C 83.824053962511 17.5087614426019  87.5107938242296 47.1729560054414  87.5107938242296 47.1729560054414  C 87.5107938242296 47.1729560054414  91.1975336859479 74.4750072276298  91.1975336859479 74.4750072276298  C 91.1975336859479 74.4750072276298  92.521817183949 75.2455341758005  92.521817183949 75.2455341758005  C 92.521817183949 75.2455341758005  90.8215025692317 79.6104186754929  90.8215025692317 79.6104186754929  C 90.8215025692317 79.6104186754929  60.1667919673595 79.705120311581  60.1667919673595 79.705120311581  C 60.1667919673595 79.705120311581  59.0196245750583 81.0869032745013  59.0196245750583 81.0869032745013  C 59.0196245750583 81.0869032745013  56.0658729046203 80.6758120814831  56.0658729046203 80.6758120814831  C 56.0658729046203 80.6758120814831  51.7578642413705 81.9047810407159  51.7578642413705 81.9047810407159  C 51.7578642413705 81.9047810407159  44.4429903283278 80.1743238721988  44.4429903283278 80.1743238721988  C 44.4429903283278 80.1743238721988  42.0205869749888 80.3163763263306  42.0205869749888 80.3163763263306  C 42.0205869749888 80.3163763263306  40.7371764244571 83.9753031751853  40.7371764244571 83.9753031751853  Z " fill-rule="nonzero" fill="#f2f2f2" stroke="none" transform="matrix(1 0 0 1 1659 1861 )" />
    <path d="M 40.7371764244571 83.9753031751853  C 40.7371764244571 83.9753031751853  38.1649055970643 85.1052658785081  38.1649055970643 85.1052658785081  C 38.1649055970643 85.1052658785081  33.1239087425344 80.8415399446371  33.1239087425344 80.8415399446371  C 33.1239087425344 80.8415399446371  28.4998159521896 76.2592721439243  28.4998159521896 76.2592721439243  C 28.4998159521896 76.2592721439243  23.428845602849 74.6062981322067  23.428845602849 74.6062981322067  C 23.428845602849 74.6062981322067  19.7775289622703 72.7660731582239  19.7775289622703 72.7660731582239  C 19.7775289622703 72.7660731582239  15.5103932464898 72.8370993852898  15.5103932464898 72.8370993852898  C 15.5103932464898 72.8370993852898  11.7827804373022 74.1995115590102  11.7827804373022 74.1995115590102  C 11.7827804373022 74.1995115590102  7.98704604899917 73.6592817713265  7.98704604899917 73.6592817713265  C 7.98704604899917 73.6592817713265  5.37117741097281 75.6630822985523  5.37117741097281 75.6630822985523  C 5.37117741097281 75.6630822985523  4.70903566197231 72.2947172876948  4.70903566197231 72.2947172876948  C 4.70903566197231 72.2947172876948  6.84260351986243 69.2018479454573  6.84260351986243 69.2018479454573  C 6.84260351986243 69.2018479454573  7.79085590114718 63.2765387602241  7.79085590114718 63.2765387602241  C 7.79085590114718 63.2765387602241  6.9461483201177 57.0219261585935  6.9461483201177 57.0219261585935  C 6.9461483201177 57.0219261585935  6.02514457047946 53.862335209112  6.02514457047946 53.862335209112  C 6.02514457047946 53.862335209112  6.78538139340585 50.6812211605197  6.78538139340585 50.6812211605197  C 6.78538139340585 50.6812211605197  4.81258046222735 47.6400072561483  4.81258046222735 47.6400072561483  C 4.81258046222735 47.6400072561483  0.785232704932657 44.8678320906631  0.785232704932657 44.8678320906631  C 0.785232704932657 44.8678320906631  2.45012409851002 41.1583427456692  2.45012409851002 41.1583427456692  C 2.45012409851002 41.1583427456692  32.3691216459369 41.1992366339799  32.3691216459369 41.1992366339799  C 32.3691216459369 41.1992366339799  30.9222193055287 31.8496023802009  30.9222193055287 31.8496023802009  C 30.9222193055287 31.8496023802009  32.7914754364517 28.5006081585433  32.7914754364517 28.5006081585433  C 32.7914754364517 28.5006081585433  39.9496909698844 27.9130275528155  39.9496909698844 27.9130275528155  C 39.9496909698844 27.9130275528155  39.701728421905 11.0152424408404  39.701728421905 11.0152424408404  C 39.701728421905 11.0152424408404  66.7582359625532 11.3660689563483  66.7582359625532 11.3660689563483  C 66.7582359625532 11.3660689563483  66.78003486787 1.19210000662155  66.78003486787 1.19210000662155  C 66.78003486787 1.19210000662155  95.5164418018563 17.3882320875809  95.5164418018563 17.3882320875809  C 95.5164418018563 17.3882320875809  83.824053962511 17.5087614426019  83.824053962511 17.5087614426019  C 83.824053962511 17.5087614426019  87.5107938242296 47.1729560054414  87.5107938242296 47.1729560054414  C 87.5107938242296 47.1729560054414  91.1975336859479 74.4750072276298  91.1975336859479 74.4750072276298  C 91.1975336859479 74.4750072276298  92.521817183949 75.2455341758005  92.521817183949 75.2455341758005  C 92.521817183949 75.2455341758005  90.8215025692317 79.6104186754929  90.8215025692317 79.6104186754929  C 90.8215025692317 79.6104186754929  60.1667919673595 79.705120311581  60.1667919673595 79.705120311581  C 60.1667919673595 79.705120311581  59.0196245750583 81.0869032745013  59.0196245750583 81.0869032745013  C 59.0196245750583 81.0869032745013  56.0658729046203 80.6758120814831  56.0658729046203 80.6758120814831  C 56.0658729046203 80.6758120814831  51.7578642413705 81.9047810407159  51.7578642413705 81.9047810407159  C 51.7578642413705 81.9047810407159  44.4429903283278 80.1743238721988  44.4429903283278 80.1743238721988  C 44.4429903283278 80.1743238721988  42.0205869749888 80.3163763263306  42.0205869749888 80.3163763263306  C 42.0205869749888 80.3163763263306  40.7371764244571 83.9753031751853  40.7371764244571 83.9753031751853  Z " stroke-width="2" stroke="#505050" fill="none" stroke-opacity="0.211764705882353" transform="matrix(1 0 0 1 1659 1861 )" mask="url(#clip703)" />
  </g>
</svg>