<?xml version="1.0" encoding="utf-8"?>
<svg version="1.1" xmlns:xlink="http://www.w3.org/1999/xlink" width="28px" height="49px" xmlns="http://www.w3.org/2000/svg">
  <defs>
    <mask fill="white" id="clip704">
      <path d="M 15.1059101430556 6.50340548265022  C 15.1059101430556 6.50340548265022  17.2669794549474 14.6329232466308  17.2669794549474 14.6329232466308  C 17.2669794549474 14.6329232466308  15.1059101430556 19.1940527361961  15.1059101430556 19.1940527361961  C 15.1059101430556 19.1940527361961  17.2669794549474 28.557630454877  17.2669794549474 28.557630454877  C 17.2669794549474 28.557630454877  19.9456042198781 28.47121349135  19.9456042198781 28.47121349135  C 19.9456042198781 28.47121349135  22.7315942117698 30.4208644977494  22.7315942117698 30.4208644977494  C 22.7315942117698 30.4208644977494  25.9635628387264 34.8007291369899  25.9635628387264 34.8007291369899  C 25.9635628387264 34.8007291369899  26.6215189731752 42.6288413940352  26.6215189731752 42.6288413940352  C 26.6215189731752 42.6288413940352  23.2794321647207 43.91455719285  23.2794321647207 43.91455719285  C 23.2794321647207 43.91455719285  20.92290308067 48.1658502522091  20.92290308067 48.1658502522091  C 20.92290308067 48.1658502522091  15.8877492316892 44.3803657035681  15.8877492316892 44.3803657035681  C 15.8877492316892 44.3803657035681  15.3151346879013 40.0784871045834  15.3151346879013 40.0784871045834  C 15.3151346879013 40.0784871045834  16.9393778649919 37.2478046163735  16.9393778649919 37.2478046163735  C 16.9393778649919 37.2478046163735  16.4933992299266 34.8133755218963  16.4933992299266 34.8133755218963  C 16.4933992299266 34.8133755218963  11.4458785569777 33.2789474865897  11.4458785569777 33.2789474865897  C 11.4458785569777 33.2789474865897  9.32059765407257 33.83538842247  9.32059765407257 33.83538842247  C 9.32059765407257 33.83538842247  4.87732903064125 30.928827624822  4.87732903064125 30.928827624822  C 4.87732903064125 30.928827624822  0.81947404245193 29.3606758964317  0.81947404245193 29.3606758964317  C 0.81947404245193 29.3606758964317  3.16223835381516 22.2249696520904  3.16223835381516 22.2249696520904  C 3.16223835381516 22.2249696520904  5.59034425583877 20.1319929500855  5.59034425583877 20.1319929500855  C 5.59034425583877 20.1319929500855  4.109254714695 15.1556404894275  4.109254714695 15.1556404894275  C 4.109254714695 15.1556404894275  5.65916811927491 10.3036441470156  5.65916811927491 10.3036441470156  C 5.65916811927491 10.3036441470156  6.9750803881725 8.68490687899966  6.9750803881725 8.68490687899966  C 6.9750803881725 8.68490687899966  5.01222380297622 3.62213745481463  5.01222380297622 3.62213745481463  C 5.01222380297622 3.62213745481463  1.36731199540327 0.968504355293867  1.36731199540327 0.968504355293867  C 1.36731199540327 0.968504355293867  8.93518401883102 2.07717076541923  8.93518401883102 2.07717076541923  C 8.93518401883102 2.07717076541923  10.4878503779482 3.72330853406562  10.4878503779482 3.72330853406562  C 10.4878503779482 3.72330853406562  15.1059101430556 6.50340548265022  15.1059101430556 6.50340548265022  Z " fill-rule="evenodd" />
    </mask>
  </defs>
  <g transform="matrix(1 0 0 1 -2042 -2087 )">
    <path d="M 15.1059101430556 6.50340548265022  C 15.1059101430556 6.50340548265022  17.2669794549474 14.6329232466308  17.2669794549474 14.6329232466308  C 17.2669794549474 14.6329232466308  15.1059101430556 19.1940527361961  15.1059101430556 19.1940527361961  C 15.1059101430556 19.1940527361961  17.2669794549474 28.557630454877  17.2669794549474 28.557630454877  C 17.2669794549474 28.557630454877  19.9456042198781 28.47121349135  19.9456042198781 28.47121349135  C 19.9456042198781 28.47121349135  22.7315942117698 30.4208644977494  22.7315942117698 30.4208644977494  C 22.7315942117698 30.4208644977494  25.9635628387264 34.8007291369899  25.9635628387264 34.8007291369899  C 25.9635628387264 34.8007291369899  26.6215189731752 42.6288413940352  26.6215189731752 42.6288413940352  C 26.6215189731752 42.6288413940352  23.2794321647207 43.91455719285  23.2794321647207 43.91455719285  C 23.2794321647207 43.91455719285  20.92290308067 48.1658502522091  20.92290308067 48.1658502522091  C 20.92290308067 48.1658502522091  15.8877492316892 44.3803657035681  15.8877492316892 44.3803657035681  C 15.8877492316892 44.3803657035681  15.3151346879013 40.0784871045834  15.3151346879013 40.0784871045834  C 15.3151346879013 40.0784871045834  16.9393778649919 37.2478046163735  16.9393778649919 37.2478046163735  C 16.9393778649919 37.2478046163735  16.4933992299266 34.8133755218963  16.4933992299266 34.8133755218963  C 16.4933992299266 34.8133755218963  11.4458785569777 33.2789474865897  11.4458785569777 33.2789474865897  C 11.4458785569777 33.2789474865897  9.32059765407257 33.83538842247  9.32059765407257 33.83538842247  C 9.32059765407257 33.83538842247  4.87732903064125 30.928827624822  4.87732903064125 30.928827624822  C 4.87732903064125 30.928827624822  0.81947404245193 29.3606758964317  0.81947404245193 29.3606758964317  C 0.81947404245193 29.3606758964317  3.16223835381516 22.2249696520904  3.16223835381516 22.2249696520904  C 3.16223835381516 22.2249696520904  5.59034425583877 20.1319929500855  5.59034425583877 20.1319929500855  C 5.59034425583877 20.1319929500855  4.109254714695 15.1556404894275  4.109254714695 15.1556404894275  C 4.109254714695 15.1556404894275  5.65916811927491 10.3036441470156  5.65916811927491 10.3036441470156  C 5.65916811927491 10.3036441470156  6.9750803881725 8.68490687899966  6.9750803881725 8.68490687899966  C 6.9750803881725 8.68490687899966  5.01222380297622 3.62213745481463  5.01222380297622 3.62213745481463  C 5.01222380297622 3.62213745481463  1.36731199540327 0.968504355293867  1.36731199540327 0.968504355293867  C 1.36731199540327 0.968504355293867  8.93518401883102 2.07717076541923  8.93518401883102 2.07717076541923  C 8.93518401883102 2.07717076541923  10.4878503779482 3.72330853406562  10.4878503779482 3.72330853406562  C 10.4878503779482 3.72330853406562  15.1059101430556 6.50340548265022  15.1059101430556 6.50340548265022  Z " fill-rule="nonzero" fill="#f2f2f2" stroke="none" transform="matrix(1 0 0 1 2042 2087 )" />
    <path d="M 15.1059101430556 6.50340548265022  C 15.1059101430556 6.50340548265022  17.2669794549474 14.6329232466308  17.2669794549474 14.6329232466308  C 17.2669794549474 14.6329232466308  15.1059101430556 19.1940527361961  15.1059101430556 19.1940527361961  C 15.1059101430556 19.1940527361961  17.2669794549474 28.557630454877  17.2669794549474 28.557630454877  C 17.2669794549474 28.557630454877  19.9456042198781 28.47121349135  19.9456042198781 28.47121349135  C 19.9456042198781 28.47121349135  22.7315942117698 30.4208644977494  22.7315942117698 30.4208644977494  C 22.7315942117698 30.4208644977494  25.9635628387264 34.8007291369899  25.9635628387264 34.8007291369899  C 25.9635628387264 34.8007291369899  26.6215189731752 42.6288413940352  26.6215189731752 42.6288413940352  C 26.6215189731752 42.6288413940352  23.2794321647207 43.91455719285  23.2794321647207 43.91455719285  C 23.2794321647207 43.91455719285  20.92290308067 48.1658502522091  20.92290308067 48.1658502522091  C 20.92290308067 48.1658502522091  15.8877492316892 44.3803657035681  15.8877492316892 44.3803657035681  C 15.8877492316892 44.3803657035681  15.3151346879013 40.0784871045834  15.3151346879013 40.0784871045834  C 15.3151346879013 40.0784871045834  16.9393778649919 37.2478046163735  16.9393778649919 37.2478046163735  C 16.9393778649919 37.2478046163735  16.4933992299266 34.8133755218963  16.4933992299266 34.8133755218963  C 16.4933992299266 34.8133755218963  11.4458785569777 33.2789474865897  11.4458785569777 33.2789474865897  C 11.4458785569777 33.2789474865897  9.32059765407257 33.83538842247  9.32059765407257 33.83538842247  C 9.32059765407257 33.83538842247  4.87732903064125 30.928827624822  4.87732903064125 30.928827624822  C 4.87732903064125 30.928827624822  0.81947404245193 29.3606758964317  0.81947404245193 29.3606758964317  C 0.81947404245193 29.3606758964317  3.16223835381516 22.2249696520904  3.16223835381516 22.2249696520904  C 3.16223835381516 22.2249696520904  5.59034425583877 20.1319929500855  5.59034425583877 20.1319929500855  C 5.59034425583877 20.1319929500855  4.109254714695 15.1556404894275  4.109254714695 15.1556404894275  C 4.109254714695 15.1556404894275  5.65916811927491 10.3036441470156  5.65916811927491 10.3036441470156  C 5.65916811927491 10.3036441470156  6.9750803881725 8.68490687899966  6.9750803881725 8.68490687899966  C 6.9750803881725 8.68490687899966  5.01222380297622 3.62213745481463  5.01222380297622 3.62213745481463  C 5.01222380297622 3.62213745481463  1.36731199540327 0.968504355293867  1.36731199540327 0.968504355293867  C 1.36731199540327 0.968504355293867  8.93518401883102 2.07717076541923  8.93518401883102 2.07717076541923  C 8.93518401883102 2.07717076541923  10.4878503779482 3.72330853406562  10.4878503779482 3.72330853406562  C 10.4878503779482 3.72330853406562  15.1059101430556 6.50340548265022  15.1059101430556 6.50340548265022  Z " stroke-width="2" stroke="#505050" fill="none" stroke-opacity="0.211764705882353" transform="matrix(1 0 0 1 2042 2087 )" mask="url(#clip704)" />
  </g>
</svg>