<?xml version="1.0" encoding="utf-8"?>
<svg version="1.1" xmlns:xlink="http://www.w3.org/1999/xlink" width="237px" height="122px" xmlns="http://www.w3.org/2000/svg">
  <defs>
    <mask fill="white" id="clip705">
      <path d="M 153.034269794886 47.6150886455768  C 153.034269794886 47.6150886455768  156.033347721604 47.4170170960367  156.033347721604 47.4170170960367  C 156.033347721604 47.4170170960367  153.050718119896 53.2536689525918  153.050718119896 53.2536689525918  C 153.050718119896 53.2536689525918  151.704696856624 58.0052331899276  151.704696856624 58.0052331899276  C 151.704696856624 58.0052331899276  151.145453806304 68.3469195309298  151.145453806304 68.3469195309298  C 151.145453806304 68.3469195309298  150.402537793379 71.5225231784471  150.402537793379 71.5225231784471  C 150.402537793379 71.5225231784471  151.734852119142 75.0598226990374  151.734852119142 75.0598226990374  C 151.734852119142 75.0598226990374  154.117117858006 78.2074379754238  154.117117858006 78.2074379754238  C 154.117117858006 78.2074379754238  155.655036246387 83.193673939932  155.655036246387 83.193673939932  C 155.655036246387 83.193673939932  160.754016999308 87.9581558870202  160.754016999308 87.9581558870202  C 160.754016999308 87.9581558870202  162.549625812837 91.592338230755  162.549625812837 91.592338230755  C 162.549625812837 91.592338230755  165.556927902059 94.7184239908871  165.556927902059 94.7184239908871  C 165.556927902059 94.7184239908871  173.718038494234 96.3977262587268  173.718038494234 96.3977262587268  C 173.718038494234 96.3977262587268  176.895306608554 99.043703806387  176.895306608554 99.043703806387  C 176.895306608554 99.043703806387  183.639119862417 97.2761305219046  183.639119862417 97.2761305219046  C 183.639119862417 97.2761305219046  189.497464953272 96.6367038891502  189.497464953272 96.6367038891502  C 189.497464953272 96.6367038891502  195.25437870657 95.4999454309203  195.25437870657 95.4999454309203  C 195.25437870657 95.4999454309203  200.09018625934 94.4127048600754  200.09018625934 94.4127048600754  C 200.09018625934 94.4127048600754  204.980821562142 91.8227040546768  204.980821562142 91.8227040546768  C 204.980821562142 91.8227040546768  206.812068413191 88.1088625008007  206.812068413191 88.1088625008007  C 206.812068413191 88.1088625008007  207.442587538552 82.7329422920888  207.442587538552 82.7329422920888  C 207.442587538552 82.7329422920888  208.772160476813 80.8555684747092  208.772160476813 80.8555684747092  C 208.772160476813 80.8555684747092  213.978055342295 79.1698073519932  213.978055342295 79.1698073519932  C 213.978055342295 79.1698073519932  222.106269284451 77.6756589239413  222.106269284451 77.6756589239413  C 222.106269284451 77.6756589239413  228.91313445085 77.8995658929864  228.91313445085 77.8995658929864  C 228.91313445085 77.8995658929864  233.57349320352 77.3527161801259  233.57349320352 77.3527161801259  C 233.57349320352 77.3527161801259  235.418446992076 78.7198404622773  235.418446992076 78.7198404622773  C 235.418446992076 78.7198404622773  235.158015179427 81.8200908029043  235.158015179427 81.8200908029043  C 235.158015179427 81.8200908029043  231.026744214561 85.6286622282994  231.026744214561 85.6286622282994  C 231.026744214561 85.6286622282994  229.200980138515 89.51473991221  229.200980138515 89.51473991221  C 229.200980138515 89.51473991221  230.615536089325 90.6235099993093  230.615536089325 90.6235099993093  C 230.615536089325 90.6235099993093  229.464153338666 93.37282922499  229.464153338666 93.37282922499  C 229.464153338666 93.37282922499  227.536957925062 98.3138532053643  227.536957925062 98.3138532053643  C 227.536957925062 98.3138532053643  225.590572798947 96.6905276797859  225.590572798947 96.6905276797859  C 225.590572798947 96.6905276797859  223.981378335525 96.7960223094324  223.981378335525 96.7960223094324  C 223.981378335525 96.7960223094324  222.520218797188 96.877834471199  222.520218797188 96.877834471199  C 222.520218797188 96.877834471199  219.76512435811 100.690711799845  219.76512435811 100.690711799845  C 219.76512435811 100.690711799845  218.369758119811 99.9457905374441  218.369758119811 99.9457905374441  C 218.369758119811 99.9457905374441  217.440427756778 100.234286055252  217.440427756778 100.234286055252  C 217.440427756778 100.234286055252  217.500738281813 101.162208205815  217.500738281813 101.162208205815  C 217.500738281813 101.162208205815  210.392320490241 101.093313753801  210.392320490241 101.093313753801  C 210.392320490241 101.093313753801  203.21536801113 101.104078511928  203.21536801113 101.104078511928  C 203.21536801113 101.104078511928  203.209885236127 104.64568393577  203.209885236127 104.64568393577  C 203.209885236127 104.64568393577  199.739288659139 104.660754597148  199.739288659139 104.660754597148  C 199.739288659139 104.660754597148  202.601297210778 106.757729480322  202.601297210778 106.757729480322  C 202.601297210778 106.757729480322  205.441374662405 108.204512972614  205.441374662405 108.204512972614  C 205.441374662405 108.204512972614  206.296687562895 109.560872496638  206.296687562895 109.560872496638  C 206.296687562895 109.560872496638  207.541277488608 109.939791982715  207.541277488608 109.939791982715  C 207.541277488608 109.939791982715  207.343897588495 112.066908188645  207.343897588495 112.066908188645  C 207.343897588495 112.066908188645  197.477643970344 112.086284753274  197.477643970344 112.086284753274  C 197.477643970344 112.086284753274  193.779512230725 117.165097637676  193.779512230725 117.165097637676  C 193.779512230725 117.165097637676  194.87058445635 118.327691515411  194.87058445635 118.327691515411  C 194.87058445635 118.327691515411  193.97963351834 119.783086814206  193.97963351834 119.783086814206  C 193.97963351834 119.783086814206  193.790477780732 121.589413227946  193.790477780732 121.589413227946  C 193.790477780732 121.589413227946  185.092055238249 114.900192527718  185.092055238249 114.900192527718  C 185.092055238249 114.900192527718  181.128008910978 112.876417999809  181.128008910978 112.876417999809  C 181.128008910978 112.876417999809  174.850231532383 111.24878657098  174.850231532383 111.24878657098  C 174.850231532383 111.24878657098  170.559960092425 111.700906412321  170.559960092425 111.700906412321  C 170.559960092425 111.700906412321  164.386355438889 114.047623684046  164.386355438889 114.047623684046  C 164.386355438889 114.047623684046  160.510033511668 114.66336784892  160.510033511668 114.66336784892  C 160.510033511668 114.66336784892  155.082086258559 113.020665758713  155.082086258559 113.020665758713  C 155.082086258559 113.020665758713  149.32243111776 111.832236461473  149.32243111776 111.832236461473  C 149.32243111776 111.832236461473  142.137254476144 108.964504896393  142.137254476144 108.964504896393  C 142.137254476144 108.964504896393  136.374857947844 108.088253584841  136.374857947844 108.088253584841  C 136.374857947844 108.088253584841  127.673694017859 105.171004132376  127.673694017859 105.171004132376  C 127.673694017859 105.171004132376  121.242398939176 102.165483663268  121.242398939176 102.165483663268  C 121.242398939176 102.165483663268  119.301496588064 100.484028443803  119.301496588064 100.484028443803  C 119.301496588064 100.484028443803  113.008662959445 100.107261909352  113.008662959445 100.107261909352  C 113.008662959445 100.107261909352  105.146363604941 98.1093228009478  105.146363604941 98.1093228009478  C 105.146363604941 98.1093228009478  101.947164390608 95.2222146712393  101.947164390608 95.2222146712393  C 101.947164390608 95.2222146712393  93.6873638483772 91.6181736502603  93.6873638483772 91.6181736502603  C 93.6873638483772 91.6181736502603  89.8357144086709 87.6007659171982  89.8357144086709 87.6007659171982  C 89.8357144086709 87.6007659171982  88.004467557622 84.4854449151931  88.004467557622 84.4854449151931  C 88.004467557622 84.4854449151931  90.56766487159 83.8589359921914  90.56766487159 83.8589359921914  C 90.56766487159 83.8589359921914  89.7781452711379 82.0310800621968  89.7781452711379 82.0310800621968  C 89.7781452711379 82.0310800621968  91.5435988221491 80.3625425524847  91.5435988221491 80.3625425524847  C 91.5435988221491 80.3625425524847  91.5819782471712 78.1363905717845  91.5819782471712 78.1363905717845  C 91.5819782471712 78.1363905717845  88.9886256706857 75.2385176839482  88.9886256706857 75.2385176839482  C 88.9886256706857 75.2385176839482  88.2950546327884 72.6614345883024  88.2950546327884 72.6614345883024  C 88.2950546327884 72.6614345883024  85.7181503813123 69.3803363111388  85.7181503813123 69.3803363111388  C 85.7181503813123 69.3803363111388  78.9441818649321 62.887034208826  78.9441818649321 62.887034208826  C 78.9441818649321 62.887034208826  71.2162104980055 56.1816831631837  71.2162104980055 56.1816831631837  C 71.2162104980055 56.1816831631837  67.4769579458635 52.0587808004753  67.4769579458635 52.0587808004753  C 67.4769579458635 52.0587808004753  60.8784382295838 49.3460617524268  60.8784382295838 49.3460617524268  C 60.8784382295838 49.3460617524268  59.4666236662751 47.716277371972  59.4666236662751 47.716277371972  C 59.4666236662751 47.716277371972  60.6371961294457 43.5847632027616  60.6371961294457 43.5847632027616  C 60.6371961294457 43.5847632027616  56.7197533897018 42.0174144194448  56.7197533897018 42.0174144194448  C 56.7197533897018 42.0174144194448  52.1827570746029 38.7449279487833  52.1827570746029 38.7449279487833  C 52.1827570746029 38.7449279487833  50.2665272110053 34.0235050342034  50.2665272110053 34.0235050342034  C 50.2665272110053 34.0235050342034  46.1297734711357 33.4701964664666  46.1297734711357 33.4701964664666  C 46.1297734711357 33.4701964664666  41.6695360060808 29.881226106866  41.6695360060808 29.881226106866  C 41.6695360060808 29.881226106866  38.0673528290174 26.5484569906922  38.0673528290174 26.5484569906922  C 38.0673528290174 26.5484569906922  37.7301621663243 24.4019642201329  37.7301621663243 24.4019642201329  C 37.7301621663243 24.4019642201329  33.598891201458 19.1896683349542  33.598891201458 19.1896683349542  C 33.598891201458 19.1896683349542  30.873952024897 13.8568071587506  30.873952024897 13.8568071587506  C 30.873952024897 13.8568071587506  30.9918316874646 11.1656176269566  30.9918316874646 11.1656176269566  C 30.9918316874646 11.1656176269566  25.43229783428 8.37323936876705  25.43229783428 8.37323936876705  C 25.43229783428 8.37323936876705  22.8663591328103 8.68111145120425  22.8663591328103 8.68111145120425  C 22.8663591328103 8.68111145120425  18.4801391302978 6.73699613343619  18.4801391302978 6.73699613343619  C 18.4801391302978 6.73699613343619  17.2465147545911 9.60042179526513  17.2465147545911 9.60042179526513  C 17.2465147545911 9.60042179526513  18.5185185553198 12.9697910890714  18.5185185553198 12.9697910890714  C 18.5185185553198 12.9697910890714  19.2669173432484 18.2057694421301  19.2669173432484 18.2057694421301  C 19.2669173432484 18.2057694421301  21.9041321197591 21.0627362490827  21.9041321197591 21.0627362490827  C 21.9041321197591 21.0627362490827  27.6089595105269 25.8143004864185  27.6089595105269 25.8143004864185  C 27.6089595105269 25.8143004864185  28.8754805362524 27.429014205495  28.8754805362524 27.429014205495  C 28.8754805362524 27.429014205495  30.0433116119212 27.9177342244689  30.0433116119212 27.9177342244689  C 30.0433116119212 27.9177342244689  31.0576249875022 30.266604447819  31.0576249875022 30.266604447819  C 31.0576249875022 30.266604447819  32.4228359632843 30.1718745762997  32.4228359632843 30.1718745762997  C 32.4228359632843 30.1718745762997  33.9662371266685 34.5617429405622  33.9662371266685 34.5617429405622  C 33.9662371266685 34.5617429405622  36.3018992780062 36.2884101441616  36.3018992780062 36.2884101441616  C 36.3018992780062 36.2884101441616  37.9385076164437 38.6824923516456  37.9385076164437 38.6824923516456  C 37.9385076164437 38.6824923516456  42.7688323942106 42.107838387713  42.7688323942106 42.107838387713  C 42.7688323942106 42.107838387713  45.3183227706709 48.3320215368468  45.3183227706709 48.3320215368468  C 45.3183227706709 48.3320215368468  47.601898559479 51.247118037686  47.601898559479 51.247118037686  C 47.601898559479 51.247118037686  49.7346980357006 54.3516742815637  49.7346980357006 54.3516742815637  C 49.7346980357006 54.3516742815637  50.1596130984441 57.8329970598928  50.1596130984441 57.8329970598928  C 50.1596130984441 57.8329970598928  53.8659690005671 58.0504451740619  53.8659690005671 58.0504451740619  C 53.8659690005671 58.0504451740619  56.9472885523321 62.6006916426433  56.9472885523321 62.6006916426433  C 56.9472885523321 62.6006916426433  59.735279641429 65.5265529016098  59.735279641429 65.5265529016098  C 59.735279641429 65.5265529016098  59.5488652913223 66.6956056342211  59.5488652913223 66.6956056342211  C 59.5488652913223 66.6956056342211  56.3140280394693 69.0918407933304  56.3140280394693 69.0918407933304  C 56.3140280394693 69.0918407933304  54.9515584511889 69.0595465189491  54.9515584511889 69.0595465189491  C 54.9515584511889 69.0595465189491  52.9256730875285 65.0916566732719  52.9256730875285 65.0916566732719  C 52.9256730875285 65.0916566732719  47.8952270221469 59.7921830390389  47.8952270221469 59.7921830390389  C 47.8952270221469 59.7921830390389  42.3521414939719 56.6079675850199  42.3521414939719 56.6079675850199  C 42.3521414939719 56.6079675850199  38.4209918167201 54.9308182688058  38.4209918167201 54.9308182688058  C 38.4209918167201 54.9308182688058  38.6759408543661 50.0802182567001  38.6759408543661 50.0802182567001  C 38.6759408543661 50.0802182567001  37.5081097786972 46.4675654292196  37.5081097786972 46.4675654292196  C 37.5081097786972 46.4675654292196  33.8456160765993 44.3942730139255  33.8456160765993 44.3942730139255  C 33.8456160765993 44.3942730139255  28.5629623610733 41.3995173029451  28.5629623610733 41.3995173029451  C 28.5629623610733 41.3995173029451  27.5486489854923 42.2650038563699  27.5486489854923 42.2650038563699  C 27.5486489854923 42.2650038563699  25.6077466343805 40.5125012332656  25.6077466343805 40.5125012332656  C 25.6077466343805 40.5125012332656  20.8678876441655 38.8805639011854  20.8678876441655 38.8805639011854  C 20.8678876441655 38.8805639011854  16.3363741040698 34.9535801363915  16.3363741040698 34.9535801363915  C 16.3363741040698 34.9535801363915  16.8983585418917 34.441177649538  16.8983585418917 34.441177649538  C 16.8983585418917 34.441177649538  20.0646611062054 34.826555990491  20.0646611062054 34.826555990491  C 20.0646611062054 34.826555990491  22.9157041078385 32.2860730724771  22.9157041078385 32.2860730724771  C 22.9157041078385 32.2860730724771  23.2035497955035 29.20950519973  23.2035497955035 29.20950519973  C 23.2035497955035 29.20950519973  17.2848941796132 24.3136932034903  17.2848941796132 24.3136932034903  C 17.2848941796132 24.3136932034903  12.7725703520283 22.4061780633544  12.7725703520283 22.4061780633544  C 12.7725703520283 22.4061780633544  9.94071706290632 18.0808982478549  9.94071706290632 18.0808982478549  C 9.94071706290632 18.0808982478549  7.08967406127327 13.5101819470556  7.08967406127327 13.5101819470556  C 7.08967406127327 13.5101819470556  3.52861169673344 7.89313115629492  3.52861169673344 7.89313115629492  C 3.52861169673344 7.89313115629492  0.406171332444768 1.51393549012998  0.406171332444768 1.51393549012998  C 0.406171332444768 1.51393549012998  9.14023191244774 0.967085777269508  9.14023191244774 0.967085777269508  C 9.14023191244774 0.967085777269508  18.9023128055396 0.192023192112742  18.9023128055396 0.192023192112742  C 18.9023128055396 0.192023192112742  18.1840692801283 1.58713584539492  18.1840692801283 1.58713584539492  C 18.1840692801283 1.58713584539492  29.7911039617767 5.04262320421855  29.7911039617767 5.04262320421855  C 29.7911039617767 5.04262320421855  47.3250184218204 10.0137885073487  47.3250184218204 10.0137885073487  C 47.3250184218204 10.0137885073487  62.6109951305762 9.9642706199637  62.6109951305762 9.9642706199637  C 62.6109951305762 9.9642706199637  68.7050995465671 9.96211766833829  68.7050995465671 9.96211766833829  C 68.7050995465671 9.96211766833829  68.7215478715765 7.05348002237513  68.7215478715765 7.05348002237513  C 68.7215478715765 7.05348002237513  82.039208354205 7.05563297400055  82.039208354205 7.05563297400055  C 82.039208354205 7.05563297400055  84.8409063808097 9.55520981113101  84.8409063808097 9.55520981113101  C 84.8409063808097 9.55520981113101  88.7720560580616 11.7770558885802  88.7720560580616 11.7770558885802  C 88.7720560580616 11.7770558885802  93.3392076356777 14.8536237613273  93.3392076356777 14.8536237613273  C 93.3392076356777 14.8536237613273  95.8859566246365 18.4899590566875  95.8859566246365 18.4899590566875  C 95.8859566246365 18.4899590566875  97.7994451007325 22.2985304820825  97.7994451007325 22.2985304820825  C 97.7994451007325 22.2985304820825  101.771715590508 24.3804347038786  101.771715590508 24.3804347038786  C 101.771715590508 24.3804347038786  108.153665694164 26.4429623610456  108.153665694164 26.4429623610456  C 108.153665694164 26.4429623610456  112.994956021937 20.9981477003198  112.994956021937 20.9981477003198  C 112.994956021937 20.9981477003198  121.272554201693 20.8646646995426  121.272554201693 20.8646646995426  C 121.272554201693 20.8646646995426  126.689535904796 23.6182898284746  126.689535904796 23.6182898284746  C 126.689535904796 23.6182898284746  130.546668119505 28.3203361784252  130.546668119505 28.3203361784252  C 130.546668119505 28.3203361784252  133.203072608527 32.320520298484  133.203072608527 32.320520298484  C 133.203072608527 32.320520298484  137.737327536124 36.191527321017  137.737327536124 36.191527321017  C 137.737327536124 36.191527321017  139.431505012094 40.9172561388475  139.431505012094 40.9172561388475  C 139.431505012094 40.9172561388475  141.583494200827 44.0734832217355  141.583494200827 44.0734832217355  C 141.583494200827 44.0734832217355  147.578908666761 46.1467756370299  147.578908666761 46.1467756370299  C 147.578908666761 46.1467756370299  153.034269794886 47.6150886455768  153.034269794886 47.6150886455768  Z " fill-rule="evenodd" />
    </mask>
  </defs>
  <g transform="matrix(1 0 0 1 -891 -1825 )">
    <path d="M 153.034269794886 47.6150886455768  C 153.034269794886 47.6150886455768  156.033347721604 47.4170170960367  156.033347721604 47.4170170960367  C 156.033347721604 47.4170170960367  153.050718119896 53.2536689525918  153.050718119896 53.2536689525918  C 153.050718119896 53.2536689525918  151.704696856624 58.0052331899276  151.704696856624 58.0052331899276  C 151.704696856624 58.0052331899276  151.145453806304 68.3469195309298  151.145453806304 68.3469195309298  C 151.145453806304 68.3469195309298  150.402537793379 71.5225231784471  150.402537793379 71.5225231784471  C 150.402537793379 71.5225231784471  151.734852119142 75.0598226990374  151.734852119142 75.0598226990374  C 151.734852119142 75.0598226990374  154.117117858006 78.2074379754238  154.117117858006 78.2074379754238  C 154.117117858006 78.2074379754238  155.655036246387 83.193673939932  155.655036246387 83.193673939932  C 155.655036246387 83.193673939932  160.754016999308 87.9581558870202  160.754016999308 87.9581558870202  C 160.754016999308 87.9581558870202  162.549625812837 91.592338230755  162.549625812837 91.592338230755  C 162.549625812837 91.592338230755  165.556927902059 94.7184239908871  165.556927902059 94.7184239908871  C 165.556927902059 94.7184239908871  173.718038494234 96.3977262587268  173.718038494234 96.3977262587268  C 173.718038494234 96.3977262587268  176.895306608554 99.043703806387  176.895306608554 99.043703806387  C 176.895306608554 99.043703806387  183.639119862417 97.2761305219046  183.639119862417 97.2761305219046  C 183.639119862417 97.2761305219046  189.497464953272 96.6367038891502  189.497464953272 96.6367038891502  C 189.497464953272 96.6367038891502  195.25437870657 95.4999454309203  195.25437870657 95.4999454309203  C 195.25437870657 95.4999454309203  200.09018625934 94.4127048600754  200.09018625934 94.4127048600754  C 200.09018625934 94.4127048600754  204.980821562142 91.8227040546768  204.980821562142 91.8227040546768  C 204.980821562142 91.8227040546768  206.812068413191 88.1088625008007  206.812068413191 88.1088625008007  C 206.812068413191 88.1088625008007  207.442587538552 82.7329422920888  207.442587538552 82.7329422920888  C 207.442587538552 82.7329422920888  208.772160476813 80.8555684747092  208.772160476813 80.8555684747092  C 208.772160476813 80.8555684747092  213.978055342295 79.1698073519932  213.978055342295 79.1698073519932  C 213.978055342295 79.1698073519932  222.106269284451 77.6756589239413  222.106269284451 77.6756589239413  C 222.106269284451 77.6756589239413  228.91313445085 77.8995658929864  228.91313445085 77.8995658929864  C 228.91313445085 77.8995658929864  233.57349320352 77.3527161801259  233.57349320352 77.3527161801259  C 233.57349320352 77.3527161801259  235.418446992076 78.7198404622773  235.418446992076 78.7198404622773  C 235.418446992076 78.7198404622773  235.158015179427 81.8200908029043  235.158015179427 81.8200908029043  C 235.158015179427 81.8200908029043  231.026744214561 85.6286622282994  231.026744214561 85.6286622282994  C 231.026744214561 85.6286622282994  229.200980138515 89.51473991221  229.200980138515 89.51473991221  C 229.200980138515 89.51473991221  230.615536089325 90.6235099993093  230.615536089325 90.6235099993093  C 230.615536089325 90.6235099993093  229.464153338666 93.37282922499  229.464153338666 93.37282922499  C 229.464153338666 93.37282922499  227.536957925062 98.3138532053643  227.536957925062 98.3138532053643  C 227.536957925062 98.3138532053643  225.590572798947 96.6905276797859  225.590572798947 96.6905276797859  C 225.590572798947 96.6905276797859  223.981378335525 96.7960223094324  223.981378335525 96.7960223094324  C 223.981378335525 96.7960223094324  222.520218797188 96.877834471199  222.520218797188 96.877834471199  C 222.520218797188 96.877834471199  219.76512435811 100.690711799845  219.76512435811 100.690711799845  C 219.76512435811 100.690711799845  218.369758119811 99.9457905374441  218.369758119811 99.9457905374441  C 218.369758119811 99.9457905374441  217.440427756778 100.234286055252  217.440427756778 100.234286055252  C 217.440427756778 100.234286055252  217.500738281813 101.162208205815  217.500738281813 101.162208205815  C 217.500738281813 101.162208205815  210.392320490241 101.093313753801  210.392320490241 101.093313753801  C 210.392320490241 101.093313753801  203.21536801113 101.104078511928  203.21536801113 101.104078511928  C 203.21536801113 101.104078511928  203.209885236127 104.64568393577  203.209885236127 104.64568393577  C 203.209885236127 104.64568393577  199.739288659139 104.660754597148  199.739288659139 104.660754597148  C 199.739288659139 104.660754597148  202.601297210778 106.757729480322  202.601297210778 106.757729480322  C 202.601297210778 106.757729480322  205.441374662405 108.204512972614  205.441374662405 108.204512972614  C 205.441374662405 108.204512972614  206.296687562895 109.560872496638  206.296687562895 109.560872496638  C 206.296687562895 109.560872496638  207.541277488608 109.939791982715  207.541277488608 109.939791982715  C 207.541277488608 109.939791982715  207.343897588495 112.066908188645  207.343897588495 112.066908188645  C 207.343897588495 112.066908188645  197.477643970344 112.086284753274  197.477643970344 112.086284753274  C 197.477643970344 112.086284753274  193.779512230725 117.165097637676  193.779512230725 117.165097637676  C 193.779512230725 117.165097637676  194.87058445635 118.327691515411  194.87058445635 118.327691515411  C 194.87058445635 118.327691515411  193.97963351834 119.783086814206  193.97963351834 119.783086814206  C 193.97963351834 119.783086814206  193.790477780732 121.589413227946  193.790477780732 121.589413227946  C 193.790477780732 121.589413227946  185.092055238249 114.900192527718  185.092055238249 114.900192527718  C 185.092055238249 114.900192527718  181.128008910978 112.876417999809  181.128008910978 112.876417999809  C 181.128008910978 112.876417999809  174.850231532383 111.24878657098  174.850231532383 111.24878657098  C 174.850231532383 111.24878657098  170.559960092425 111.700906412321  170.559960092425 111.700906412321  C 170.559960092425 111.700906412321  164.386355438889 114.047623684046  164.386355438889 114.047623684046  C 164.386355438889 114.047623684046  160.510033511668 114.66336784892  160.510033511668 114.66336784892  C 160.510033511668 114.66336784892  155.082086258559 113.020665758713  155.082086258559 113.020665758713  C 155.082086258559 113.020665758713  149.32243111776 111.832236461473  149.32243111776 111.832236461473  C 149.32243111776 111.832236461473  142.137254476144 108.964504896393  142.137254476144 108.964504896393  C 142.137254476144 108.964504896393  136.374857947844 108.088253584841  136.374857947844 108.088253584841  C 136.374857947844 108.088253584841  127.673694017859 105.171004132376  127.673694017859 105.171004132376  C 127.673694017859 105.171004132376  121.242398939176 102.165483663268  121.242398939176 102.165483663268  C 121.242398939176 102.165483663268  119.301496588064 100.484028443803  119.301496588064 100.484028443803  C 119.301496588064 100.484028443803  113.008662959445 100.107261909352  113.008662959445 100.107261909352  C 113.008662959445 100.107261909352  105.146363604941 98.1093228009478  105.146363604941 98.1093228009478  C 105.146363604941 98.1093228009478  101.947164390608 95.2222146712393  101.947164390608 95.2222146712393  C 101.947164390608 95.2222146712393  93.6873638483772 91.6181736502603  93.6873638483772 91.6181736502603  C 93.6873638483772 91.6181736502603  89.8357144086709 87.6007659171982  89.8357144086709 87.6007659171982  C 89.8357144086709 87.6007659171982  88.004467557622 84.4854449151931  88.004467557622 84.4854449151931  C 88.004467557622 84.4854449151931  90.56766487159 83.8589359921914  90.56766487159 83.8589359921914  C 90.56766487159 83.8589359921914  89.7781452711379 82.0310800621968  89.7781452711379 82.0310800621968  C 89.7781452711379 82.0310800621968  91.5435988221491 80.3625425524847  91.5435988221491 80.3625425524847  C 91.5435988221491 80.3625425524847  91.5819782471712 78.1363905717845  91.5819782471712 78.1363905717845  C 91.5819782471712 78.1363905717845  88.9886256706857 75.2385176839482  88.9886256706857 75.2385176839482  C 88.9886256706857 75.2385176839482  88.2950546327884 72.6614345883024  88.2950546327884 72.6614345883024  C 88.2950546327884 72.6614345883024  85.7181503813123 69.3803363111388  85.7181503813123 69.3803363111388  C 85.7181503813123 69.3803363111388  78.9441818649321 62.887034208826  78.9441818649321 62.887034208826  C 78.9441818649321 62.887034208826  71.2162104980055 56.1816831631837  71.2162104980055 56.1816831631837  C 71.2162104980055 56.1816831631837  67.4769579458635 52.0587808004753  67.4769579458635 52.0587808004753  C 67.4769579458635 52.0587808004753  60.8784382295838 49.3460617524268  60.8784382295838 49.3460617524268  C 60.8784382295838 49.3460617524268  59.4666236662751 47.716277371972  59.4666236662751 47.716277371972  C 59.4666236662751 47.716277371972  60.6371961294457 43.5847632027616  60.6371961294457 43.5847632027616  C 60.6371961294457 43.5847632027616  56.7197533897018 42.0174144194448  56.7197533897018 42.0174144194448  C 56.7197533897018 42.0174144194448  52.1827570746029 38.7449279487833  52.1827570746029 38.7449279487833  C 52.1827570746029 38.7449279487833  50.2665272110053 34.0235050342034  50.2665272110053 34.0235050342034  C 50.2665272110053 34.0235050342034  46.1297734711357 33.4701964664666  46.1297734711357 33.4701964664666  C 46.1297734711357 33.4701964664666  41.6695360060808 29.881226106866  41.6695360060808 29.881226106866  C 41.6695360060808 29.881226106866  38.0673528290174 26.5484569906922  38.0673528290174 26.5484569906922  C 38.0673528290174 26.5484569906922  37.7301621663243 24.4019642201329  37.7301621663243 24.4019642201329  C 37.7301621663243 24.4019642201329  33.598891201458 19.1896683349542  33.598891201458 19.1896683349542  C 33.598891201458 19.1896683349542  30.873952024897 13.8568071587506  30.873952024897 13.8568071587506  C 30.873952024897 13.8568071587506  30.9918316874646 11.1656176269566  30.9918316874646 11.1656176269566  C 30.9918316874646 11.1656176269566  25.43229783428 8.37323936876705  25.43229783428 8.37323936876705  C 25.43229783428 8.37323936876705  22.8663591328103 8.68111145120425  22.8663591328103 8.68111145120425  C 22.8663591328103 8.68111145120425  18.4801391302978 6.73699613343619  18.4801391302978 6.73699613343619  C 18.4801391302978 6.73699613343619  17.2465147545911 9.60042179526513  17.2465147545911 9.60042179526513  C 17.2465147545911 9.60042179526513  18.5185185553198 12.9697910890714  18.5185185553198 12.9697910890714  C 18.5185185553198 12.9697910890714  19.2669173432484 18.2057694421301  19.2669173432484 18.2057694421301  C 19.2669173432484 18.2057694421301  21.9041321197591 21.0627362490827  21.9041321197591 21.0627362490827  C 21.9041321197591 21.0627362490827  27.6089595105269 25.8143004864185  27.6089595105269 25.8143004864185  C 27.6089595105269 25.8143004864185  28.8754805362524 27.429014205495  28.8754805362524 27.429014205495  C 28.8754805362524 27.429014205495  30.0433116119212 27.9177342244689  30.0433116119212 27.9177342244689  C 30.0433116119212 27.9177342244689  31.0576249875022 30.266604447819  31.0576249875022 30.266604447819  C 31.0576249875022 30.266604447819  32.4228359632843 30.1718745762997  32.4228359632843 30.1718745762997  C 32.4228359632843 30.1718745762997  33.9662371266685 34.5617429405622  33.9662371266685 34.5617429405622  C 33.9662371266685 34.5617429405622  36.3018992780062 36.2884101441616  36.3018992780062 36.2884101441616  C 36.3018992780062 36.2884101441616  37.9385076164437 38.6824923516456  37.9385076164437 38.6824923516456  C 37.9385076164437 38.6824923516456  42.7688323942106 42.107838387713  42.7688323942106 42.107838387713  C 42.7688323942106 42.107838387713  45.3183227706709 48.3320215368468  45.3183227706709 48.3320215368468  C 45.3183227706709 48.3320215368468  47.601898559479 51.247118037686  47.601898559479 51.247118037686  C 47.601898559479 51.247118037686  49.7346980357006 54.3516742815637  49.7346980357006 54.3516742815637  C 49.7346980357006 54.3516742815637  50.1596130984441 57.8329970598928  50.1596130984441 57.8329970598928  C 50.1596130984441 57.8329970598928  53.8659690005671 58.0504451740619  53.8659690005671 58.0504451740619  C 53.8659690005671 58.0504451740619  56.9472885523321 62.6006916426433  56.9472885523321 62.6006916426433  C 56.9472885523321 62.6006916426433  59.735279641429 65.5265529016098  59.735279641429 65.5265529016098  C 59.735279641429 65.5265529016098  59.5488652913223 66.6956056342211  59.5488652913223 66.6956056342211  C 59.5488652913223 66.6956056342211  56.3140280394693 69.0918407933304  56.3140280394693 69.0918407933304  C 56.3140280394693 69.0918407933304  54.9515584511889 69.0595465189491  54.9515584511889 69.0595465189491  C 54.9515584511889 69.0595465189491  52.9256730875285 65.0916566732719  52.9256730875285 65.0916566732719  C 52.9256730875285 65.0916566732719  47.8952270221469 59.7921830390389  47.8952270221469 59.7921830390389  C 47.8952270221469 59.7921830390389  42.3521414939719 56.6079675850199  42.3521414939719 56.6079675850199  C 42.3521414939719 56.6079675850199  38.4209918167201 54.9308182688058  38.4209918167201 54.9308182688058  C 38.4209918167201 54.9308182688058  38.6759408543661 50.0802182567001  38.6759408543661 50.0802182567001  C 38.6759408543661 50.0802182567001  37.5081097786972 46.4675654292196  37.5081097786972 46.4675654292196  C 37.5081097786972 46.4675654292196  33.8456160765993 44.3942730139255  33.8456160765993 44.3942730139255  C 33.8456160765993 44.3942730139255  28.5629623610733 41.3995173029451  28.5629623610733 41.3995173029451  C 28.5629623610733 41.3995173029451  27.5486489854923 42.2650038563699  27.5486489854923 42.2650038563699  C 27.5486489854923 42.2650038563699  25.6077466343805 40.5125012332656  25.6077466343805 40.5125012332656  C 25.6077466343805 40.5125012332656  20.8678876441655 38.8805639011854  20.8678876441655 38.8805639011854  C 20.8678876441655 38.8805639011854  16.3363741040698 34.9535801363915  16.3363741040698 34.9535801363915  C 16.3363741040698 34.9535801363915  16.8983585418917 34.441177649538  16.8983585418917 34.441177649538  C 16.8983585418917 34.441177649538  20.0646611062054 34.826555990491  20.0646611062054 34.826555990491  C 20.0646611062054 34.826555990491  22.9157041078385 32.2860730724771  22.9157041078385 32.2860730724771  C 22.9157041078385 32.2860730724771  23.2035497955035 29.20950519973  23.2035497955035 29.20950519973  C 23.2035497955035 29.20950519973  17.2848941796132 24.3136932034903  17.2848941796132 24.3136932034903  C 17.2848941796132 24.3136932034903  12.7725703520283 22.4061780633544  12.7725703520283 22.4061780633544  C 12.7725703520283 22.4061780633544  9.94071706290632 18.0808982478549  9.94071706290632 18.0808982478549  C 9.94071706290632 18.0808982478549  7.08967406127327 13.5101819470556  7.08967406127327 13.5101819470556  C 7.08967406127327 13.5101819470556  3.52861169673344 7.89313115629492  3.52861169673344 7.89313115629492  C 3.52861169673344 7.89313115629492  0.406171332444768 1.51393549012998  0.406171332444768 1.51393549012998  C 0.406171332444768 1.51393549012998  9.14023191244774 0.967085777269508  9.14023191244774 0.967085777269508  C 9.14023191244774 0.967085777269508  18.9023128055396 0.192023192112742  18.9023128055396 0.192023192112742  C 18.9023128055396 0.192023192112742  18.1840692801283 1.58713584539492  18.1840692801283 1.58713584539492  C 18.1840692801283 1.58713584539492  29.7911039617767 5.04262320421855  29.7911039617767 5.04262320421855  C 29.7911039617767 5.04262320421855  47.3250184218204 10.0137885073487  47.3250184218204 10.0137885073487  C 47.3250184218204 10.0137885073487  62.6109951305762 9.9642706199637  62.6109951305762 9.9642706199637  C 62.6109951305762 9.9642706199637  68.7050995465671 9.96211766833829  68.7050995465671 9.96211766833829  C 68.7050995465671 9.96211766833829  68.7215478715765 7.05348002237513  68.7215478715765 7.05348002237513  C 68.7215478715765 7.05348002237513  82.039208354205 7.05563297400055  82.039208354205 7.05563297400055  C 82.039208354205 7.05563297400055  84.8409063808097 9.55520981113101  84.8409063808097 9.55520981113101  C 84.8409063808097 9.55520981113101  88.7720560580616 11.7770558885802  88.7720560580616 11.7770558885802  C 88.7720560580616 11.7770558885802  93.3392076356777 14.8536237613273  93.3392076356777 14.8536237613273  C 93.3392076356777 14.8536237613273  95.8859566246365 18.4899590566875  95.8859566246365 18.4899590566875  C 95.8859566246365 18.4899590566875  97.7994451007325 22.2985304820825  97.7994451007325 22.2985304820825  C 97.7994451007325 22.2985304820825  101.771715590508 24.3804347038786  101.771715590508 24.3804347038786  C 101.771715590508 24.3804347038786  108.153665694164 26.4429623610456  108.153665694164 26.4429623610456  C 108.153665694164 26.4429623610456  112.994956021937 20.9981477003198  112.994956021937 20.9981477003198  C 112.994956021937 20.9981477003198  121.272554201693 20.8646646995426  121.272554201693 20.8646646995426  C 121.272554201693 20.8646646995426  126.689535904796 23.6182898284746  126.689535904796 23.6182898284746  C 126.689535904796 23.6182898284746  130.546668119505 28.3203361784252  130.546668119505 28.3203361784252  C 130.546668119505 28.3203361784252  133.203072608527 32.320520298484  133.203072608527 32.320520298484  C 133.203072608527 32.320520298484  137.737327536124 36.191527321017  137.737327536124 36.191527321017  C 137.737327536124 36.191527321017  139.431505012094 40.9172561388475  139.431505012094 40.9172561388475  C 139.431505012094 40.9172561388475  141.583494200827 44.0734832217355  141.583494200827 44.0734832217355  C 141.583494200827 44.0734832217355  147.578908666761 46.1467756370299  147.578908666761 46.1467756370299  C 147.578908666761 46.1467756370299  153.034269794886 47.6150886455768  153.034269794886 47.6150886455768  Z " fill-rule="nonzero" fill="#f2f2f2" stroke="none" transform="matrix(1 0 0 1 891 1825 )" />
    <path d="M 153.034269794886 47.6150886455768  C 153.034269794886 47.6150886455768  156.033347721604 47.4170170960367  156.033347721604 47.4170170960367  C 156.033347721604 47.4170170960367  153.050718119896 53.2536689525918  153.050718119896 53.2536689525918  C 153.050718119896 53.2536689525918  151.704696856624 58.0052331899276  151.704696856624 58.0052331899276  C 151.704696856624 58.0052331899276  151.145453806304 68.3469195309298  151.145453806304 68.3469195309298  C 151.145453806304 68.3469195309298  150.402537793379 71.5225231784471  150.402537793379 71.5225231784471  C 150.402537793379 71.5225231784471  151.734852119142 75.0598226990374  151.734852119142 75.0598226990374  C 151.734852119142 75.0598226990374  154.117117858006 78.2074379754238  154.117117858006 78.2074379754238  C 154.117117858006 78.2074379754238  155.655036246387 83.193673939932  155.655036246387 83.193673939932  C 155.655036246387 83.193673939932  160.754016999308 87.9581558870202  160.754016999308 87.9581558870202  C 160.754016999308 87.9581558870202  162.549625812837 91.592338230755  162.549625812837 91.592338230755  C 162.549625812837 91.592338230755  165.556927902059 94.7184239908871  165.556927902059 94.7184239908871  C 165.556927902059 94.7184239908871  173.718038494234 96.3977262587268  173.718038494234 96.3977262587268  C 173.718038494234 96.3977262587268  176.895306608554 99.043703806387  176.895306608554 99.043703806387  C 176.895306608554 99.043703806387  183.639119862417 97.2761305219046  183.639119862417 97.2761305219046  C 183.639119862417 97.2761305219046  189.497464953272 96.6367038891502  189.497464953272 96.6367038891502  C 189.497464953272 96.6367038891502  195.25437870657 95.4999454309203  195.25437870657 95.4999454309203  C 195.25437870657 95.4999454309203  200.09018625934 94.4127048600754  200.09018625934 94.4127048600754  C 200.09018625934 94.4127048600754  204.980821562142 91.8227040546768  204.980821562142 91.8227040546768  C 204.980821562142 91.8227040546768  206.812068413191 88.1088625008007  206.812068413191 88.1088625008007  C 206.812068413191 88.1088625008007  207.442587538552 82.7329422920888  207.442587538552 82.7329422920888  C 207.442587538552 82.7329422920888  208.772160476813 80.8555684747092  208.772160476813 80.8555684747092  C 208.772160476813 80.8555684747092  213.978055342295 79.1698073519932  213.978055342295 79.1698073519932  C 213.978055342295 79.1698073519932  222.106269284451 77.6756589239413  222.106269284451 77.6756589239413  C 222.106269284451 77.6756589239413  228.91313445085 77.8995658929864  228.91313445085 77.8995658929864  C 228.91313445085 77.8995658929864  233.57349320352 77.3527161801259  233.57349320352 77.3527161801259  C 233.57349320352 77.3527161801259  235.418446992076 78.7198404622773  235.418446992076 78.7198404622773  C 235.418446992076 78.7198404622773  235.158015179427 81.8200908029043  235.158015179427 81.8200908029043  C 235.158015179427 81.8200908029043  231.026744214561 85.6286622282994  231.026744214561 85.6286622282994  C 231.026744214561 85.6286622282994  229.200980138515 89.51473991221  229.200980138515 89.51473991221  C 229.200980138515 89.51473991221  230.615536089325 90.6235099993093  230.615536089325 90.6235099993093  C 230.615536089325 90.6235099993093  229.464153338666 93.37282922499  229.464153338666 93.37282922499  C 229.464153338666 93.37282922499  227.536957925062 98.3138532053643  227.536957925062 98.3138532053643  C 227.536957925062 98.3138532053643  225.590572798947 96.6905276797859  225.590572798947 96.6905276797859  C 225.590572798947 96.6905276797859  223.981378335525 96.7960223094324  223.981378335525 96.7960223094324  C 223.981378335525 96.7960223094324  222.520218797188 96.877834471199  222.520218797188 96.877834471199  C 222.520218797188 96.877834471199  219.76512435811 100.690711799845  219.76512435811 100.690711799845  C 219.76512435811 100.690711799845  218.369758119811 99.9457905374441  218.369758119811 99.9457905374441  C 218.369758119811 99.9457905374441  217.440427756778 100.234286055252  217.440427756778 100.234286055252  C 217.440427756778 100.234286055252  217.500738281813 101.162208205815  217.500738281813 101.162208205815  C 217.500738281813 101.162208205815  210.392320490241 101.093313753801  210.392320490241 101.093313753801  C 210.392320490241 101.093313753801  203.21536801113 101.104078511928  203.21536801113 101.104078511928  C 203.21536801113 101.104078511928  203.209885236127 104.64568393577  203.209885236127 104.64568393577  C 203.209885236127 104.64568393577  199.739288659139 104.660754597148  199.739288659139 104.660754597148  C 199.739288659139 104.660754597148  202.601297210778 106.757729480322  202.601297210778 106.757729480322  C 202.601297210778 106.757729480322  205.441374662405 108.204512972614  205.441374662405 108.204512972614  C 205.441374662405 108.204512972614  206.296687562895 109.560872496638  206.296687562895 109.560872496638  C 206.296687562895 109.560872496638  207.541277488608 109.939791982715  207.541277488608 109.939791982715  C 207.541277488608 109.939791982715  207.343897588495 112.066908188645  207.343897588495 112.066908188645  C 207.343897588495 112.066908188645  197.477643970344 112.086284753274  197.477643970344 112.086284753274  C 197.477643970344 112.086284753274  193.779512230725 117.165097637676  193.779512230725 117.165097637676  C 193.779512230725 117.165097637676  194.87058445635 118.327691515411  194.87058445635 118.327691515411  C 194.87058445635 118.327691515411  193.97963351834 119.783086814206  193.97963351834 119.783086814206  C 193.97963351834 119.783086814206  193.790477780732 121.589413227946  193.790477780732 121.589413227946  C 193.790477780732 121.589413227946  185.092055238249 114.900192527718  185.092055238249 114.900192527718  C 185.092055238249 114.900192527718  181.128008910978 112.876417999809  181.128008910978 112.876417999809  C 181.128008910978 112.876417999809  174.850231532383 111.24878657098  174.850231532383 111.24878657098  C 174.850231532383 111.24878657098  170.559960092425 111.700906412321  170.559960092425 111.700906412321  C 170.559960092425 111.700906412321  164.386355438889 114.047623684046  164.386355438889 114.047623684046  C 164.386355438889 114.047623684046  160.510033511668 114.66336784892  160.510033511668 114.66336784892  C 160.510033511668 114.66336784892  155.082086258559 113.020665758713  155.082086258559 113.020665758713  C 155.082086258559 113.020665758713  149.32243111776 111.832236461473  149.32243111776 111.832236461473  C 149.32243111776 111.832236461473  142.137254476144 108.964504896393  142.137254476144 108.964504896393  C 142.137254476144 108.964504896393  136.374857947844 108.088253584841  136.374857947844 108.088253584841  C 136.374857947844 108.088253584841  127.673694017859 105.171004132376  127.673694017859 105.171004132376  C 127.673694017859 105.171004132376  121.242398939176 102.165483663268  121.242398939176 102.165483663268  C 121.242398939176 102.165483663268  119.301496588064 100.484028443803  119.301496588064 100.484028443803  C 119.301496588064 100.484028443803  113.008662959445 100.107261909352  113.008662959445 100.107261909352  C 113.008662959445 100.107261909352  105.146363604941 98.1093228009478  105.146363604941 98.1093228009478  C 105.146363604941 98.1093228009478  101.947164390608 95.2222146712393  101.947164390608 95.2222146712393  C 101.947164390608 95.2222146712393  93.6873638483772 91.6181736502603  93.6873638483772 91.6181736502603  C 93.6873638483772 91.6181736502603  89.8357144086709 87.6007659171982  89.8357144086709 87.6007659171982  C 89.8357144086709 87.6007659171982  88.004467557622 84.4854449151931  88.004467557622 84.4854449151931  C 88.004467557622 84.4854449151931  90.56766487159 83.8589359921914  90.56766487159 83.8589359921914  C 90.56766487159 83.8589359921914  89.7781452711379 82.0310800621968  89.7781452711379 82.0310800621968  C 89.7781452711379 82.0310800621968  91.5435988221491 80.3625425524847  91.5435988221491 80.3625425524847  C 91.5435988221491 80.3625425524847  91.5819782471712 78.1363905717845  91.5819782471712 78.1363905717845  C 91.5819782471712 78.1363905717845  88.9886256706857 75.2385176839482  88.9886256706857 75.2385176839482  C 88.9886256706857 75.2385176839482  88.2950546327884 72.6614345883024  88.2950546327884 72.6614345883024  C 88.2950546327884 72.6614345883024  85.7181503813123 69.3803363111388  85.7181503813123 69.3803363111388  C 85.7181503813123 69.3803363111388  78.9441818649321 62.887034208826  78.9441818649321 62.887034208826  C 78.9441818649321 62.887034208826  71.2162104980055 56.1816831631837  71.2162104980055 56.1816831631837  C 71.2162104980055 56.1816831631837  67.4769579458635 52.0587808004753  67.4769579458635 52.0587808004753  C 67.4769579458635 52.0587808004753  60.8784382295838 49.3460617524268  60.8784382295838 49.3460617524268  C 60.8784382295838 49.3460617524268  59.4666236662751 47.716277371972  59.4666236662751 47.716277371972  C 59.4666236662751 47.716277371972  60.6371961294457 43.5847632027616  60.6371961294457 43.5847632027616  C 60.6371961294457 43.5847632027616  56.7197533897018 42.0174144194448  56.7197533897018 42.0174144194448  C 56.7197533897018 42.0174144194448  52.1827570746029 38.7449279487833  52.1827570746029 38.7449279487833  C 52.1827570746029 38.7449279487833  50.2665272110053 34.0235050342034  50.2665272110053 34.0235050342034  C 50.2665272110053 34.0235050342034  46.1297734711357 33.4701964664666  46.1297734711357 33.4701964664666  C 46.1297734711357 33.4701964664666  41.6695360060808 29.881226106866  41.6695360060808 29.881226106866  C 41.6695360060808 29.881226106866  38.0673528290174 26.5484569906922  38.0673528290174 26.5484569906922  C 38.0673528290174 26.5484569906922  37.7301621663243 24.4019642201329  37.7301621663243 24.4019642201329  C 37.7301621663243 24.4019642201329  33.598891201458 19.1896683349542  33.598891201458 19.1896683349542  C 33.598891201458 19.1896683349542  30.873952024897 13.8568071587506  30.873952024897 13.8568071587506  C 30.873952024897 13.8568071587506  30.9918316874646 11.1656176269566  30.9918316874646 11.1656176269566  C 30.9918316874646 11.1656176269566  25.43229783428 8.37323936876705  25.43229783428 8.37323936876705  C 25.43229783428 8.37323936876705  22.8663591328103 8.68111145120425  22.8663591328103 8.68111145120425  C 22.8663591328103 8.68111145120425  18.4801391302978 6.73699613343619  18.4801391302978 6.73699613343619  C 18.4801391302978 6.73699613343619  17.2465147545911 9.60042179526513  17.2465147545911 9.60042179526513  C 17.2465147545911 9.60042179526513  18.5185185553198 12.9697910890714  18.5185185553198 12.9697910890714  C 18.5185185553198 12.9697910890714  19.2669173432484 18.2057694421301  19.2669173432484 18.2057694421301  C 19.2669173432484 18.2057694421301  21.9041321197591 21.0627362490827  21.9041321197591 21.0627362490827  C 21.9041321197591 21.0627362490827  27.6089595105269 25.8143004864185  27.6089595105269 25.8143004864185  C 27.6089595105269 25.8143004864185  28.8754805362524 27.429014205495  28.8754805362524 27.429014205495  C 28.8754805362524 27.429014205495  30.0433116119212 27.9177342244689  30.0433116119212 27.9177342244689  C 30.0433116119212 27.9177342244689  31.0576249875022 30.266604447819  31.0576249875022 30.266604447819  C 31.0576249875022 30.266604447819  32.4228359632843 30.1718745762997  32.4228359632843 30.1718745762997  C 32.4228359632843 30.1718745762997  33.9662371266685 34.5617429405622  33.9662371266685 34.5617429405622  C 33.9662371266685 34.5617429405622  36.3018992780062 36.2884101441616  36.3018992780062 36.2884101441616  C 36.3018992780062 36.2884101441616  37.9385076164437 38.6824923516456  37.9385076164437 38.6824923516456  C 37.9385076164437 38.6824923516456  42.7688323942106 42.107838387713  42.7688323942106 42.107838387713  C 42.7688323942106 42.107838387713  45.3183227706709 48.3320215368468  45.3183227706709 48.3320215368468  C 45.3183227706709 48.3320215368468  47.601898559479 51.247118037686  47.601898559479 51.247118037686  C 47.601898559479 51.247118037686  49.7346980357006 54.3516742815637  49.7346980357006 54.3516742815637  C 49.7346980357006 54.3516742815637  50.1596130984441 57.8329970598928  50.1596130984441 57.8329970598928  C 50.1596130984441 57.8329970598928  53.8659690005671 58.0504451740619  53.8659690005671 58.0504451740619  C 53.8659690005671 58.0504451740619  56.9472885523321 62.6006916426433  56.9472885523321 62.6006916426433  C 56.9472885523321 62.6006916426433  59.735279641429 65.5265529016098  59.735279641429 65.5265529016098  C 59.735279641429 65.5265529016098  59.5488652913223 66.6956056342211  59.5488652913223 66.6956056342211  C 59.5488652913223 66.6956056342211  56.3140280394693 69.0918407933304  56.3140280394693 69.0918407933304  C 56.3140280394693 69.0918407933304  54.9515584511889 69.0595465189491  54.9515584511889 69.0595465189491  C 54.9515584511889 69.0595465189491  52.9256730875285 65.0916566732719  52.9256730875285 65.0916566732719  C 52.9256730875285 65.0916566732719  47.8952270221469 59.7921830390389  47.8952270221469 59.7921830390389  C 47.8952270221469 59.7921830390389  42.3521414939719 56.6079675850199  42.3521414939719 56.6079675850199  C 42.3521414939719 56.6079675850199  38.4209918167201 54.9308182688058  38.4209918167201 54.9308182688058  C 38.4209918167201 54.9308182688058  38.6759408543661 50.0802182567001  38.6759408543661 50.0802182567001  C 38.6759408543661 50.0802182567001  37.5081097786972 46.4675654292196  37.5081097786972 46.4675654292196  C 37.5081097786972 46.4675654292196  33.8456160765993 44.3942730139255  33.8456160765993 44.3942730139255  C 33.8456160765993 44.3942730139255  28.5629623610733 41.3995173029451  28.5629623610733 41.3995173029451  C 28.5629623610733 41.3995173029451  27.5486489854923 42.2650038563699  27.5486489854923 42.2650038563699  C 27.5486489854923 42.2650038563699  25.6077466343805 40.5125012332656  25.6077466343805 40.5125012332656  C 25.6077466343805 40.5125012332656  20.8678876441655 38.8805639011854  20.8678876441655 38.8805639011854  C 20.8678876441655 38.8805639011854  16.3363741040698 34.9535801363915  16.3363741040698 34.9535801363915  C 16.3363741040698 34.9535801363915  16.8983585418917 34.441177649538  16.8983585418917 34.441177649538  C 16.8983585418917 34.441177649538  20.0646611062054 34.826555990491  20.0646611062054 34.826555990491  C 20.0646611062054 34.826555990491  22.9157041078385 32.2860730724771  22.9157041078385 32.2860730724771  C 22.9157041078385 32.2860730724771  23.2035497955035 29.20950519973  23.2035497955035 29.20950519973  C 23.2035497955035 29.20950519973  17.2848941796132 24.3136932034903  17.2848941796132 24.3136932034903  C 17.2848941796132 24.3136932034903  12.7725703520283 22.4061780633544  12.7725703520283 22.4061780633544  C 12.7725703520283 22.4061780633544  9.94071706290632 18.0808982478549  9.94071706290632 18.0808982478549  C 9.94071706290632 18.0808982478549  7.08967406127327 13.5101819470556  7.08967406127327 13.5101819470556  C 7.08967406127327 13.5101819470556  3.52861169673344 7.89313115629492  3.52861169673344 7.89313115629492  C 3.52861169673344 7.89313115629492  0.406171332444768 1.51393549012998  0.406171332444768 1.51393549012998  C 0.406171332444768 1.51393549012998  9.14023191244774 0.967085777269508  9.14023191244774 0.967085777269508  C 9.14023191244774 0.967085777269508  18.9023128055396 0.192023192112742  18.9023128055396 0.192023192112742  C 18.9023128055396 0.192023192112742  18.1840692801283 1.58713584539492  18.1840692801283 1.58713584539492  C 18.1840692801283 1.58713584539492  29.7911039617767 5.04262320421855  29.7911039617767 5.04262320421855  C 29.7911039617767 5.04262320421855  47.3250184218204 10.0137885073487  47.3250184218204 10.0137885073487  C 47.3250184218204 10.0137885073487  62.6109951305762 9.9642706199637  62.6109951305762 9.9642706199637  C 62.6109951305762 9.9642706199637  68.7050995465671 9.96211766833829  68.7050995465671 9.96211766833829  C 68.7050995465671 9.96211766833829  68.7215478715765 7.05348002237513  68.7215478715765 7.05348002237513  C 68.7215478715765 7.05348002237513  82.039208354205 7.05563297400055  82.039208354205 7.05563297400055  C 82.039208354205 7.05563297400055  84.8409063808097 9.55520981113101  84.8409063808097 9.55520981113101  C 84.8409063808097 9.55520981113101  88.7720560580616 11.7770558885802  88.7720560580616 11.7770558885802  C 88.7720560580616 11.7770558885802  93.3392076356777 14.8536237613273  93.3392076356777 14.8536237613273  C 93.3392076356777 14.8536237613273  95.8859566246365 18.4899590566875  95.8859566246365 18.4899590566875  C 95.8859566246365 18.4899590566875  97.7994451007325 22.2985304820825  97.7994451007325 22.2985304820825  C 97.7994451007325 22.2985304820825  101.771715590508 24.3804347038786  101.771715590508 24.3804347038786  C 101.771715590508 24.3804347038786  108.153665694164 26.4429623610456  108.153665694164 26.4429623610456  C 108.153665694164 26.4429623610456  112.994956021937 20.9981477003198  112.994956021937 20.9981477003198  C 112.994956021937 20.9981477003198  121.272554201693 20.8646646995426  121.272554201693 20.8646646995426  C 121.272554201693 20.8646646995426  126.689535904796 23.6182898284746  126.689535904796 23.6182898284746  C 126.689535904796 23.6182898284746  130.546668119505 28.3203361784252  130.546668119505 28.3203361784252  C 130.546668119505 28.3203361784252  133.203072608527 32.320520298484  133.203072608527 32.320520298484  C 133.203072608527 32.320520298484  137.737327536124 36.191527321017  137.737327536124 36.191527321017  C 137.737327536124 36.191527321017  139.431505012094 40.9172561388475  139.431505012094 40.9172561388475  C 139.431505012094 40.9172561388475  141.583494200827 44.0734832217355  141.583494200827 44.0734832217355  C 141.583494200827 44.0734832217355  147.578908666761 46.1467756370299  147.578908666761 46.1467756370299  C 147.578908666761 46.1467756370299  153.034269794886 47.6150886455768  153.034269794886 47.6150886455768  Z " stroke-width="2" stroke="#505050" fill="none" stroke-opacity="0.211764705882353" transform="matrix(1 0 0 1 891 1825 )" mask="url(#clip705)" />
  </g>
</svg>