<?xml version="1.0" encoding="utf-8"?>
<svg version="1.1" xmlns:xlink="http://www.w3.org/1999/xlink" width="151px" height="41px" xmlns="http://www.w3.org/2000/svg">
  <defs>
    <mask fill="white" id="clip706">
      <path d="M 2.38122396559453 2.47452037895841  C 2.38122396559453 2.47452037895841  8.63580989386152 5.13350387209362  8.63580989386152 5.13350387209362  C 8.63580989386152 5.13350387209362  9.2374753526368 8.25482490321867  9.2374753526368 8.25482490321867  C 9.2374753526368 8.25482490321867  14.3024045783256 7.52984491406976  14.3024045783256 7.52984491406976  C 14.3024045783256 7.52984491406976  16.8075207612257 5.03365632867807  16.8075207612257 5.03365632867807  C 16.8075207612257 5.03365632867807  20.5583365978981 5.60235320639319  20.5583365978981 5.60235320639319  C 20.5583365978981 5.60235320639319  25.0872365966778 9.2706651275347  25.0872365966778 9.2706651275347  C 25.0872365966778 9.2706651275347  28.306146801125 13.3361966235686  28.306146801125 13.3361966235686  C 28.306146801125 13.3361966235686  28.7437216802338 17.419092909762  28.7437216802338 17.419092909762  C 28.7437216802338 17.419092909762  27.9287384678929 21.752676424466  27.9287384678929 21.752676424466  C 27.9287384678929 21.752676424466  28.672615762379 23.8342806448059  28.672615762379 23.8342806448059  C 28.672615762379 23.8342806448059  29.2332585762377 27.4179392139207  29.2332585762377 27.4179392139207  C 29.2332585762377 27.4179392139207  31.9325486117424 29.0849590692087  31.9325486117424 29.0849590692087  C 31.9325486117424 29.0849590692087  34.9490804346012 34.4354850370272  34.9490804346012 34.4354850370272  C 34.9490804346012 34.4354850370272  34.8013989129018 36.4801890782787  34.8013989129018 36.4801890782787  C 34.8013989129018 36.4801890782787  29.36453103997 36.8839204494812  29.36453103997 36.8839204494812  C 29.36453103997 36.8839204494812  22.1117274187351 32.4038045883951  22.1117274187351 32.4038045883951  C 22.1117274187351 32.4038045883951  11.0534111009394 27.6024401093626  11.0534111009394 27.6024401093626  C 11.0534111009394 27.6024401093626  10.1563825987657 24.5180192573262  10.1563825987657 24.5180192573262  C 10.1563825987657 24.5180192573262  5.72320210479074 20.4676819526815  5.72320210479074 20.4676819526815  C 5.72320210479074 20.4676819526815  4.66481786594576 13.8701639209656  4.66481786594576 13.8701639209656  C 4.66481786594576 13.8701639209656  1.8971567555801 10.5621713956286  1.8971567555801 10.5621713956286  C 1.8971567555801 10.5621713956286  2.73948839786522 6.13849110255997  2.73948839786522 6.13849110255997  C 2.73948839786522 6.13849110255997  1.04935542730595 3.55981976391144  1.04935542730595 3.55981976391144  C 1.04935542730595 3.55981976391144  2.38122396559453 2.47452037895841  2.38122396559453 2.47452037895841  Z M 143.768483183067 12.6546286098181  C 143.768483183067 12.6546286098181  145.141374366272 15.6174959307399  145.141374366272 15.6174959307399  C 145.141374366272 15.6174959307399  139.496658425763 17.6839059596909  139.496658425763 17.6839059596909  C 139.496658425763 17.6839059596909  132.850989949293 16.6615539390647  132.850989949293 16.6615539390647  C 132.850989949293 16.6615539390647  124.033856135242 16.6593833402949  124.033856135242 16.6593833402949  C 124.033856135242 16.6593833402949  121.375588744654 25.1279575116699  121.375588744654 25.1279575116699  C 121.375588744654 25.1279575116699  118.424693153662 27.2334383184789  118.424693153662 27.2334383184789  C 118.424693153662 27.2334383184789  114.491988927668 35.6466791506351  114.491988927668 35.6466791506351  C 114.491988927668 35.6466791506351  106.250560894138 36.9360148199591  106.250560894138 36.9360148199591  C 106.250560894138 36.9360148199591  98.9977572729027 35.2407771806624  98.9977572729027 35.2407771806624  C 98.9977572729027 35.2407771806624  95.3193934453911 35.7704032805198  95.3193934453911 35.7704032805198  C 95.3193934453911 35.7704032805198  90.8506599924885 38.8287769473172  90.8506599924885 38.8287769473172  C 90.8506599924885 38.8287769473172  85.9552910324544 38.3924865945664  85.9552910324544 38.3924865945664  C 85.9552910324544 38.3924865945664  81.0079600555264 39.621045498333  81.0079600555264 39.621045498333  C 81.0079600555264 39.621045498333  75.7652660351997 36.2045230345009  75.7652660351997 36.2045230345009  C 75.7652660351997 36.2045230345009  74.4826246708106 32.1628681249354  74.4826246708106 32.1628681249354  C 74.4826246708106 32.1628681249354  80.102727024369 34.2357899501957  80.102727024369 34.2357899501957  C 80.102727024369 34.2357899501957  86.0291317933039 33.1049079910748  86.0291317933039 33.1049079910748  C 86.0291317933039 33.1049079910748  87.5715832421637 27.9822948940963  87.5715832421637 27.9822948940963  C 87.5715832421637 27.9822948940963  90.8424554635052 26.8405599411257  90.8424554635052 26.8405599411257  C 90.8424554635052 26.8405599411257  100.034262767792 25.5295182841023  100.034262767792 25.5295182841023  C 100.034262767792 25.5295182841023  105.534032029596 19.1620837219967  105.534032029596 19.1620837219967  C 105.534032029596 19.1620837219967  109.299910832929 15.3288062943422  109.299910832929 15.3288062943422  C 109.299910832929 15.3288062943422  114.779147442083 18.4696627143965  114.779147442083 18.4696627143965  C 114.779147442083 18.4696627143965  116.389969965804 16.4032526854459  116.389969965804 16.4032526854459  C 116.389969965804 16.4032526854459  120.054659578343 16.5964359759677  120.054659578343 16.5964359759677  C 120.054659578343 16.5964359759677  120.50317382943 12.721917171685  120.50317382943 12.721917171685  C 120.50317382943 12.721917171685  120.847764046729 9.73300266552417  120.847764046729 9.73300266552417  C 120.847764046729 9.73300266552417  126.752290071708 5.50684686051723  126.752290071708 5.50684686051723  C 126.752290071708 5.50684686051723  130.619358065835 0.751064955652894  130.619358065835 0.751064955652894  C 130.619358065835 0.751064955652894  133.720670021522 0.731529566723671  133.720670021522 0.731529566723671  C 133.720670021522 0.731529566723671  137.658843933505 3.81160922122047  137.658843933505 3.81160922122047  C 137.658843933505 3.81160922122047  138.008903836792 6.45539852296605  138.008903836792 6.45539852296605  C 138.008903836792 6.45539852296605  143.060158847509 8.14846556349266  143.060158847509 8.14846556349266  C 143.060158847509 8.14846556349266  149.459691454481 9.97610972775367  149.459691454481 9.97610972775367  C 149.459691454481 9.97610972775367  148.912722855594 12.3529153808009  148.912722855594 12.3529153808009  C 148.912722855594 12.3529153808009  143.768483183067 12.6546286098181  143.768483183067 12.6546286098181  Z " fill-rule="evenodd" />
    </mask>
  </defs>
  <g transform="matrix(1 0 0 1 -2562 -1991 )">
    <path d="M 2.38122396559453 2.47452037895841  C 2.38122396559453 2.47452037895841  8.63580989386152 5.13350387209362  8.63580989386152 5.13350387209362  C 8.63580989386152 5.13350387209362  9.2374753526368 8.25482490321867  9.2374753526368 8.25482490321867  C 9.2374753526368 8.25482490321867  14.3024045783256 7.52984491406976  14.3024045783256 7.52984491406976  C 14.3024045783256 7.52984491406976  16.8075207612257 5.03365632867807  16.8075207612257 5.03365632867807  C 16.8075207612257 5.03365632867807  20.5583365978981 5.60235320639319  20.5583365978981 5.60235320639319  C 20.5583365978981 5.60235320639319  25.0872365966778 9.2706651275347  25.0872365966778 9.2706651275347  C 25.0872365966778 9.2706651275347  28.306146801125 13.3361966235686  28.306146801125 13.3361966235686  C 28.306146801125 13.3361966235686  28.7437216802338 17.419092909762  28.7437216802338 17.419092909762  C 28.7437216802338 17.419092909762  27.9287384678929 21.752676424466  27.9287384678929 21.752676424466  C 27.9287384678929 21.752676424466  28.672615762379 23.8342806448059  28.672615762379 23.8342806448059  C 28.672615762379 23.8342806448059  29.2332585762377 27.4179392139207  29.2332585762377 27.4179392139207  C 29.2332585762377 27.4179392139207  31.9325486117424 29.0849590692087  31.9325486117424 29.0849590692087  C 31.9325486117424 29.0849590692087  34.9490804346012 34.4354850370272  34.9490804346012 34.4354850370272  C 34.9490804346012 34.4354850370272  34.8013989129018 36.4801890782787  34.8013989129018 36.4801890782787  C 34.8013989129018 36.4801890782787  29.36453103997 36.8839204494812  29.36453103997 36.8839204494812  C 29.36453103997 36.8839204494812  22.1117274187351 32.4038045883951  22.1117274187351 32.4038045883951  C 22.1117274187351 32.4038045883951  11.0534111009394 27.6024401093626  11.0534111009394 27.6024401093626  C 11.0534111009394 27.6024401093626  10.1563825987657 24.5180192573262  10.1563825987657 24.5180192573262  C 10.1563825987657 24.5180192573262  5.72320210479074 20.4676819526815  5.72320210479074 20.4676819526815  C 5.72320210479074 20.4676819526815  4.66481786594576 13.8701639209656  4.66481786594576 13.8701639209656  C 4.66481786594576 13.8701639209656  1.8971567555801 10.5621713956286  1.8971567555801 10.5621713956286  C 1.8971567555801 10.5621713956286  2.73948839786522 6.13849110255997  2.73948839786522 6.13849110255997  C 2.73948839786522 6.13849110255997  1.04935542730595 3.55981976391144  1.04935542730595 3.55981976391144  C 1.04935542730595 3.55981976391144  2.38122396559453 2.47452037895841  2.38122396559453 2.47452037895841  Z M 143.768483183067 12.6546286098181  C 143.768483183067 12.6546286098181  145.141374366272 15.6174959307399  145.141374366272 15.6174959307399  C 145.141374366272 15.6174959307399  139.496658425763 17.6839059596909  139.496658425763 17.6839059596909  C 139.496658425763 17.6839059596909  132.850989949293 16.6615539390647  132.850989949293 16.6615539390647  C 132.850989949293 16.6615539390647  124.033856135242 16.6593833402949  124.033856135242 16.6593833402949  C 124.033856135242 16.6593833402949  121.375588744654 25.1279575116699  121.375588744654 25.1279575116699  C 121.375588744654 25.1279575116699  118.424693153662 27.2334383184789  118.424693153662 27.2334383184789  C 118.424693153662 27.2334383184789  114.491988927668 35.6466791506351  114.491988927668 35.6466791506351  C 114.491988927668 35.6466791506351  106.250560894138 36.9360148199591  106.250560894138 36.9360148199591  C 106.250560894138 36.9360148199591  98.9977572729027 35.2407771806624  98.9977572729027 35.2407771806624  C 98.9977572729027 35.2407771806624  95.3193934453911 35.7704032805198  95.3193934453911 35.7704032805198  C 95.3193934453911 35.7704032805198  90.8506599924885 38.8287769473172  90.8506599924885 38.8287769473172  C 90.8506599924885 38.8287769473172  85.9552910324544 38.3924865945664  85.9552910324544 38.3924865945664  C 85.9552910324544 38.3924865945664  81.0079600555264 39.621045498333  81.0079600555264 39.621045498333  C 81.0079600555264 39.621045498333  75.7652660351997 36.2045230345009  75.7652660351997 36.2045230345009  C 75.7652660351997 36.2045230345009  74.4826246708106 32.1628681249354  74.4826246708106 32.1628681249354  C 74.4826246708106 32.1628681249354  80.102727024369 34.2357899501957  80.102727024369 34.2357899501957  C 80.102727024369 34.2357899501957  86.0291317933039 33.1049079910748  86.0291317933039 33.1049079910748  C 86.0291317933039 33.1049079910748  87.5715832421637 27.9822948940963  87.5715832421637 27.9822948940963  C 87.5715832421637 27.9822948940963  90.8424554635052 26.8405599411257  90.8424554635052 26.8405599411257  C 90.8424554635052 26.8405599411257  100.034262767792 25.5295182841023  100.034262767792 25.5295182841023  C 100.034262767792 25.5295182841023  105.534032029596 19.1620837219967  105.534032029596 19.1620837219967  C 105.534032029596 19.1620837219967  109.299910832929 15.3288062943422  109.299910832929 15.3288062943422  C 109.299910832929 15.3288062943422  114.779147442083 18.4696627143965  114.779147442083 18.4696627143965  C 114.779147442083 18.4696627143965  116.389969965804 16.4032526854459  116.389969965804 16.4032526854459  C 116.389969965804 16.4032526854459  120.054659578343 16.5964359759677  120.054659578343 16.5964359759677  C 120.054659578343 16.5964359759677  120.50317382943 12.721917171685  120.50317382943 12.721917171685  C 120.50317382943 12.721917171685  120.847764046729 9.73300266552417  120.847764046729 9.73300266552417  C 120.847764046729 9.73300266552417  126.752290071708 5.50684686051723  126.752290071708 5.50684686051723  C 126.752290071708 5.50684686051723  130.619358065835 0.751064955652894  130.619358065835 0.751064955652894  C 130.619358065835 0.751064955652894  133.720670021522 0.731529566723671  133.720670021522 0.731529566723671  C 133.720670021522 0.731529566723671  137.658843933505 3.81160922122047  137.658843933505 3.81160922122047  C 137.658843933505 3.81160922122047  138.008903836792 6.45539852296605  138.008903836792 6.45539852296605  C 138.008903836792 6.45539852296605  143.060158847509 8.14846556349266  143.060158847509 8.14846556349266  C 143.060158847509 8.14846556349266  149.459691454481 9.97610972775367  149.459691454481 9.97610972775367  C 149.459691454481 9.97610972775367  148.912722855594 12.3529153808009  148.912722855594 12.3529153808009  C 148.912722855594 12.3529153808009  143.768483183067 12.6546286098181  143.768483183067 12.6546286098181  Z " fill-rule="nonzero" fill="#f2f2f2" stroke="none" transform="matrix(1 0 0 1 2562 1991 )" />
    <path d="M 2.38122396559453 2.47452037895841  C 2.38122396559453 2.47452037895841  8.63580989386152 5.13350387209362  8.63580989386152 5.13350387209362  C 8.63580989386152 5.13350387209362  9.2374753526368 8.25482490321867  9.2374753526368 8.25482490321867  C 9.2374753526368 8.25482490321867  14.3024045783256 7.52984491406976  14.3024045783256 7.52984491406976  C 14.3024045783256 7.52984491406976  16.8075207612257 5.03365632867807  16.8075207612257 5.03365632867807  C 16.8075207612257 5.03365632867807  20.5583365978981 5.60235320639319  20.5583365978981 5.60235320639319  C 20.5583365978981 5.60235320639319  25.0872365966778 9.2706651275347  25.0872365966778 9.2706651275347  C 25.0872365966778 9.2706651275347  28.306146801125 13.3361966235686  28.306146801125 13.3361966235686  C 28.306146801125 13.3361966235686  28.7437216802338 17.419092909762  28.7437216802338 17.419092909762  C 28.7437216802338 17.419092909762  27.9287384678929 21.752676424466  27.9287384678929 21.752676424466  C 27.9287384678929 21.752676424466  28.672615762379 23.8342806448059  28.672615762379 23.8342806448059  C 28.672615762379 23.8342806448059  29.2332585762377 27.4179392139207  29.2332585762377 27.4179392139207  C 29.2332585762377 27.4179392139207  31.9325486117424 29.0849590692087  31.9325486117424 29.0849590692087  C 31.9325486117424 29.0849590692087  34.9490804346012 34.4354850370272  34.9490804346012 34.4354850370272  C 34.9490804346012 34.4354850370272  34.8013989129018 36.4801890782787  34.8013989129018 36.4801890782787  C 34.8013989129018 36.4801890782787  29.36453103997 36.8839204494812  29.36453103997 36.8839204494812  C 29.36453103997 36.8839204494812  22.1117274187351 32.4038045883951  22.1117274187351 32.4038045883951  C 22.1117274187351 32.4038045883951  11.0534111009394 27.6024401093626  11.0534111009394 27.6024401093626  C 11.0534111009394 27.6024401093626  10.1563825987657 24.5180192573262  10.1563825987657 24.5180192573262  C 10.1563825987657 24.5180192573262  5.72320210479074 20.4676819526815  5.72320210479074 20.4676819526815  C 5.72320210479074 20.4676819526815  4.66481786594576 13.8701639209656  4.66481786594576 13.8701639209656  C 4.66481786594576 13.8701639209656  1.8971567555801 10.5621713956286  1.8971567555801 10.5621713956286  C 1.8971567555801 10.5621713956286  2.73948839786522 6.13849110255997  2.73948839786522 6.13849110255997  C 2.73948839786522 6.13849110255997  1.04935542730595 3.55981976391144  1.04935542730595 3.55981976391144  C 1.04935542730595 3.55981976391144  2.38122396559453 2.47452037895841  2.38122396559453 2.47452037895841  Z " stroke-width="2" stroke="#505050" fill="none" stroke-opacity="0.211764705882353" transform="matrix(1 0 0 1 2562 1991 )" mask="url(#clip706)" />
    <path d="M 143.768483183067 12.6546286098181  C 143.768483183067 12.6546286098181  145.141374366272 15.6174959307399  145.141374366272 15.6174959307399  C 145.141374366272 15.6174959307399  139.496658425763 17.6839059596909  139.496658425763 17.6839059596909  C 139.496658425763 17.6839059596909  132.850989949293 16.6615539390647  132.850989949293 16.6615539390647  C 132.850989949293 16.6615539390647  124.033856135242 16.6593833402949  124.033856135242 16.6593833402949  C 124.033856135242 16.6593833402949  121.375588744654 25.1279575116699  121.375588744654 25.1279575116699  C 121.375588744654 25.1279575116699  118.424693153662 27.2334383184789  118.424693153662 27.2334383184789  C 118.424693153662 27.2334383184789  114.491988927668 35.6466791506351  114.491988927668 35.6466791506351  C 114.491988927668 35.6466791506351  106.250560894138 36.9360148199591  106.250560894138 36.9360148199591  C 106.250560894138 36.9360148199591  98.9977572729027 35.2407771806624  98.9977572729027 35.2407771806624  C 98.9977572729027 35.2407771806624  95.3193934453911 35.7704032805198  95.3193934453911 35.7704032805198  C 95.3193934453911 35.7704032805198  90.8506599924885 38.8287769473172  90.8506599924885 38.8287769473172  C 90.8506599924885 38.8287769473172  85.9552910324544 38.3924865945664  85.9552910324544 38.3924865945664  C 85.9552910324544 38.3924865945664  81.0079600555264 39.621045498333  81.0079600555264 39.621045498333  C 81.0079600555264 39.621045498333  75.7652660351997 36.2045230345009  75.7652660351997 36.2045230345009  C 75.7652660351997 36.2045230345009  74.4826246708106 32.1628681249354  74.4826246708106 32.1628681249354  C 74.4826246708106 32.1628681249354  80.102727024369 34.2357899501957  80.102727024369 34.2357899501957  C 80.102727024369 34.2357899501957  86.0291317933039 33.1049079910748  86.0291317933039 33.1049079910748  C 86.0291317933039 33.1049079910748  87.5715832421637 27.9822948940963  87.5715832421637 27.9822948940963  C 87.5715832421637 27.9822948940963  90.8424554635052 26.8405599411257  90.8424554635052 26.8405599411257  C 90.8424554635052 26.8405599411257  100.034262767792 25.5295182841023  100.034262767792 25.5295182841023  C 100.034262767792 25.5295182841023  105.534032029596 19.1620837219967  105.534032029596 19.1620837219967  C 105.534032029596 19.1620837219967  109.299910832929 15.3288062943422  109.299910832929 15.3288062943422  C 109.299910832929 15.3288062943422  114.779147442083 18.4696627143965  114.779147442083 18.4696627143965  C 114.779147442083 18.4696627143965  116.389969965804 16.4032526854459  116.389969965804 16.4032526854459  C 116.389969965804 16.4032526854459  120.054659578343 16.5964359759677  120.054659578343 16.5964359759677  C 120.054659578343 16.5964359759677  120.50317382943 12.721917171685  120.50317382943 12.721917171685  C 120.50317382943 12.721917171685  120.847764046729 9.73300266552417  120.847764046729 9.73300266552417  C 120.847764046729 9.73300266552417  126.752290071708 5.50684686051723  126.752290071708 5.50684686051723  C 126.752290071708 5.50684686051723  130.619358065835 0.751064955652894  130.619358065835 0.751064955652894  C 130.619358065835 0.751064955652894  133.720670021522 0.731529566723671  133.720670021522 0.731529566723671  C 133.720670021522 0.731529566723671  137.658843933505 3.81160922122047  137.658843933505 3.81160922122047  C 137.658843933505 3.81160922122047  138.008903836792 6.45539852296605  138.008903836792 6.45539852296605  C 138.008903836792 6.45539852296605  143.060158847509 8.14846556349266  143.060158847509 8.14846556349266  C 143.060158847509 8.14846556349266  149.459691454481 9.97610972775367  149.459691454481 9.97610972775367  C 149.459691454481 9.97610972775367  148.912722855594 12.3529153808009  148.912722855594 12.3529153808009  C 148.912722855594 12.3529153808009  143.768483183067 12.6546286098181  143.768483183067 12.6546286098181  Z " stroke-width="2" stroke="#505050" fill="none" stroke-opacity="0.211764705882353" transform="matrix(1 0 0 1 2562 1991 )" mask="url(#clip706)" />
  </g>
</svg>