<?xml version="1.0" encoding="utf-8"?>
<svg version="1.1" xmlns:xlink="http://www.w3.org/1999/xlink" width="84px" height="108px" xmlns="http://www.w3.org/2000/svg">
  <defs>
    <mask fill="white" id="clip707">
      <path d="M 32.3360052560078 13.35896073833  C 32.3360052560078 13.35896073833  34.4468171420412 8.69665268865901  34.4468171420412 8.69665268865901  C 34.4468171420412 8.69665268865901  40.1204643771135 8.20327535807902  40.1204643771135 8.20327535807902  C 40.1204643771135 8.20327535807902  51.1329657989498 9.92901877202847  51.1329657989498 9.92901877202847  C 51.1329657989498 9.92901877202847  53.1012642710225 9.15340375452323  53.1012642710225 9.15340375452323  C 53.1012642710225 9.15340375452323  58.3500601965488 8.99612626486234  58.3500601965488 8.99612626486234  C 58.3500601965488 8.99612626486234  61.0363036031067 7.16050405676628  61.0363036031067 7.16050405676628  C 61.0363036031067 7.16050405676628  65.559087797131 7.25961042011441  65.559087797131 7.25961042011441  C 65.559087797131 7.25961042011441  73.803354348188 4.88536667208372  73.803354348188 4.88536667208372  C 73.803354348188 4.88536667208372  79.8023623962669 1.3455459116359  79.8023623962669 1.3455459116359  C 79.8023623962669 1.3455459116359  81.0231376781261 4.08174333450192  81.0231376781261 4.08174333450192  C 81.0231376781261 4.08174333450192  80.7112215268142 10.1789391665579  80.7112215268142 10.1789391665579  C 80.7112215268142 10.1789391665579  81.6415921160725 15.5673090520606  81.6415921160725 15.5673090520606  C 81.6415921160725 15.5673090520606  81.9346857410118 25.210789103044  81.9346857410118 25.210789103044  C 81.9346857410118 25.210789103044  83.2630183164271 28.2486145882733  83.2630183164271 28.2486145882733  C 83.2630183164271 28.2486145882733  81.0123819487707 32.6911650496514  81.0123819487707 32.6911650496514  C 81.0123819487707 32.6911650496514  78.0868235640508 37.0216822307229  78.0868235640508 37.0216822307229  C 78.0868235640508 37.0216822307229  73.2870793391202 40.9040662905695  73.2870793391202 40.9040662905695  C 73.2870793391202 40.9040662905695  66.3953457545279 43.2890824693983  66.3953457545279 43.2890824693983  C 66.3953457545279 43.2890824693983  57.8956306312751 46.3419893577457  57.8956306312751 46.3419893577457  C 57.8956306312751 46.3419893577457  49.3770929816502 53.1221573024384  49.3770929816502 53.1221573024384  C 49.3770929816502 53.1221573024384  46.4757349879805 55.8464882476813  46.4757349879805 55.8464882476813  C 46.4757349879805 55.8464882476813  39.2600060286665 60.3622912384906  39.2600060286665 60.3622912384906  C 39.2600060286665 60.3622912384906  36.154289177241 61.8381142579106  36.154289177241 61.8381142579106  C 36.154289177241 61.8381142579106  35.5170122129225 66.3991614580739  35.5170122129225 66.3991614580739  C 35.5170122129225 66.3991614580739  39.0932922236546 71.2661456929204  39.0932922236546 71.2661456929204  C 39.0932922236546 71.2661456929204  40.5802718070647 75.0537323617384  40.5802718070647 75.0537323617384  C 40.5802718070647 75.0537323617384  40.6743844389266 76.9906154193419  40.6743844389266 76.9906154193419  C 40.6743844389266 76.9906154193419  43.9588943187737 76.6674424953812  43.9588943187737 76.6674424953812  C 43.9588943187737 76.6674424953812  43.7437797316615 83.0468760143628  43.7437797316615 83.0468760143628  C 43.7437797316615 83.0468760143628  40.5668271453705 86.0847014995925  40.5668271453705 86.0847014995925  C 40.5668271453705 86.0847014995925  44.2976997934745 87.2071887888153  44.2976997934745 87.2071887888153  C 44.2976997934745 87.2071887888153  41.2229266360612 89.9412317255217  41.2229266360612 89.9412317255217  C 41.2229266360612 89.9412317255217  38.0714979348741 92.2874671534755  38.0714979348741 92.2874671534755  C 38.0714979348741 92.2874671534755  31.851997435006 94.519514814963  31.851997435006 94.519514814963  C 31.851997435006 94.519514814963  22.7849175882464 98.1110432432451  22.7849175882464 98.1110432432451  C 22.7849175882464 98.1110432432451  19.4775308114034 100.571466437665  19.4775308114034 100.571466437665  C 19.4775308114034 100.571466437665  20.1255635050774 103.387379848441  20.1255635050774 103.387379848441  C 20.1255635050774 103.387379848441  22.0508390597272 103.837667455827  22.0508390597272 103.837667455827  C 22.0508390597272 103.837667455827  21.4054952983924 107.371024757795  21.4054952983924 107.371024757795  C 21.4054952983924 107.371024757795  15.6861362135588 107.315008117642  15.6861362135588 107.315008117642  C 15.6861362135588 107.315008117642  15.0407924522236 104.346126189524  15.0407924522236 104.346126189524  C 15.0407924522236 104.346126189524  13.9221965992424 101.34708145517  13.9221965992424 101.34708145517  C 13.9221965992424 101.34708145517  13.2795417702464 98.9534473317023  13.2795417702464 98.9534473317023  C 13.2795417702464 98.9534473317023  14.6240079396947 91.5678687761234  14.6240079396947 91.5678687761234  C 14.6240079396947 91.5678687761234  12.6610873323 86.8947882956535  12.6610873323 86.8947882956535  C 12.6610873323 86.8947882956535  9.04985120116159 77.7145227690136  9.04985120116159 77.7145227690136  C 9.04985120116159 77.7145227690136  16.9929573302628 70.3784973951086  16.9929573302628 70.3784973951086  C 16.9929573302628 70.3784973951086  18.9800783287074 65.7463521516737  18.9800783287074 65.7463521516737  C 18.9800783287074 65.7463521516737  20.1201856403999 65.1624864023852  20.1201856403999 65.1624864023852  C 20.1201856403999 65.1624864023852  20.9725771918302 61.4007535674841  20.9725771918302 61.4007535674841  C 20.9725771918302 61.4007535674841  19.7598687069876 59.5134236915542  19.7598687069876 59.5134236915542  C 19.7598687069876 59.5134236915542  20.0852295199938 53.2018732903488  20.0852295199938 53.2018732903488  C 20.0852295199938 53.2018732903488  21.5533865770317 48.8174939552838  21.5533865770317 48.8174939552838  C 21.5533865770317 48.8174939552838  21.5372529829982 40.8566675950552  21.5372529829982 40.8566675950552  C 21.5372529829982 40.8566675950552  17.6194785652256 38.8443775218605  17.6194785652256 38.8443775218605  C 17.6194785652256 38.8443775218605  14.0324428251373 38.389780942156  14.0324428251373 38.389780942156  C 14.0324428251373 38.389780942156  12.4056387601047 36.8428598794647  12.4056387601047 36.8428598794647  C 12.4056387601047 36.8428598794647  8.91271565187804 35.5243143497056  8.91271565187804 35.5243143497056  C 8.91271565187804 35.5243143497056  2.62330291119839 35.6492745469703  2.62330291119839 35.6492745469703  C 2.62330291119839 35.6492745469703  2.1366061578583 33.3224294944543  2.1366061578583 33.3224294944543  C 2.1366061578583 33.3224294944543  1.42135015571155 28.8949604361946  1.42135015571155 28.8949604361946  C 1.42135015571155 28.8949604361946  24.2987864950449 23.7888282376175  24.2987864950449 23.7888282376175  C 24.2987864950449 23.7888282376175  28.6387232900244 26.7598646518948  28.6387232900244 26.7598646518948  C 28.6387232900244 26.7598646518948  30.7145790556527 26.1910803057244  30.7145790556527 26.1910803057244  C 30.7145790556527 26.1910803057244  33.6912271548116 27.7595462300129  33.6912271548116 27.7595462300129  C 33.6912271548116 27.7595462300129  34.1268341937126 30.2479777445095  34.1268341937126 30.2479777445095  C 34.1268341937126 30.2479777445095  32.5403641137636 33.1414526570364  32.5403641137636 33.1414526570364  C 32.5403641137636 33.1414526570364  33.0996620402541 37.5387589090599  33.0996620402541 37.5387589090599  C 33.0996620402541 37.5387589090599  38.0177192880963 41.4082160519476  38.0177192880963 41.4082160519476  C 38.0177192880963 41.4082160519476  40.3194453701918 37.062617467758  40.3194453701918 37.062617467758  C 40.3194453701918 37.062617467758  45.537297601706 35.7483809103181  45.537297601706 35.7483809103181  C 45.537297601706 35.7483809103181  44.8946427727095 27.7466193130545  44.8946427727095 27.7466193130545  C 44.8946427727095 27.7466193130545  39.7843478347514 23.2695970731209  39.7843478347514 23.2695970731209  C 39.7843478347514 23.2695970731209  37.0631483077879 21.276697375364  37.0631483077879 21.276697375364  C 37.0631483077879 21.276697375364  34.4468171420412 21.3650313079133  34.4468171420412 21.3650313079133  C 34.4468171420412 21.3650313079133  32.3360052560078 13.35896073833  32.3360052560078 13.35896073833  Z " fill-rule="evenodd" />
    </mask>
  </defs>
  <g transform="matrix(1 0 0 1 -2023 -2093 )">
    <path d="M 32.3360052560078 13.35896073833  C 32.3360052560078 13.35896073833  34.4468171420412 8.69665268865901  34.4468171420412 8.69665268865901  C 34.4468171420412 8.69665268865901  40.1204643771135 8.20327535807902  40.1204643771135 8.20327535807902  C 40.1204643771135 8.20327535807902  51.1329657989498 9.92901877202847  51.1329657989498 9.92901877202847  C 51.1329657989498 9.92901877202847  53.1012642710225 9.15340375452323  53.1012642710225 9.15340375452323  C 53.1012642710225 9.15340375452323  58.3500601965488 8.99612626486234  58.3500601965488 8.99612626486234  C 58.3500601965488 8.99612626486234  61.0363036031067 7.16050405676628  61.0363036031067 7.16050405676628  C 61.0363036031067 7.16050405676628  65.559087797131 7.25961042011441  65.559087797131 7.25961042011441  C 65.559087797131 7.25961042011441  73.803354348188 4.88536667208372  73.803354348188 4.88536667208372  C 73.803354348188 4.88536667208372  79.8023623962669 1.3455459116359  79.8023623962669 1.3455459116359  C 79.8023623962669 1.3455459116359  81.0231376781261 4.08174333450192  81.0231376781261 4.08174333450192  C 81.0231376781261 4.08174333450192  80.7112215268142 10.1789391665579  80.7112215268142 10.1789391665579  C 80.7112215268142 10.1789391665579  81.6415921160725 15.5673090520606  81.6415921160725 15.5673090520606  C 81.6415921160725 15.5673090520606  81.9346857410118 25.210789103044  81.9346857410118 25.210789103044  C 81.9346857410118 25.210789103044  83.2630183164271 28.2486145882733  83.2630183164271 28.2486145882733  C 83.2630183164271 28.2486145882733  81.0123819487707 32.6911650496514  81.0123819487707 32.6911650496514  C 81.0123819487707 32.6911650496514  78.0868235640508 37.0216822307229  78.0868235640508 37.0216822307229  C 78.0868235640508 37.0216822307229  73.2870793391202 40.9040662905695  73.2870793391202 40.9040662905695  C 73.2870793391202 40.9040662905695  66.3953457545279 43.2890824693983  66.3953457545279 43.2890824693983  C 66.3953457545279 43.2890824693983  57.8956306312751 46.3419893577457  57.8956306312751 46.3419893577457  C 57.8956306312751 46.3419893577457  49.3770929816502 53.1221573024384  49.3770929816502 53.1221573024384  C 49.3770929816502 53.1221573024384  46.4757349879805 55.8464882476813  46.4757349879805 55.8464882476813  C 46.4757349879805 55.8464882476813  39.2600060286665 60.3622912384906  39.2600060286665 60.3622912384906  C 39.2600060286665 60.3622912384906  36.154289177241 61.8381142579106  36.154289177241 61.8381142579106  C 36.154289177241 61.8381142579106  35.5170122129225 66.3991614580739  35.5170122129225 66.3991614580739  C 35.5170122129225 66.3991614580739  39.0932922236546 71.2661456929204  39.0932922236546 71.2661456929204  C 39.0932922236546 71.2661456929204  40.5802718070647 75.0537323617384  40.5802718070647 75.0537323617384  C 40.5802718070647 75.0537323617384  40.6743844389266 76.9906154193419  40.6743844389266 76.9906154193419  C 40.6743844389266 76.9906154193419  43.9588943187737 76.6674424953812  43.9588943187737 76.6674424953812  C 43.9588943187737 76.6674424953812  43.7437797316615 83.0468760143628  43.7437797316615 83.0468760143628  C 43.7437797316615 83.0468760143628  40.5668271453705 86.0847014995925  40.5668271453705 86.0847014995925  C 40.5668271453705 86.0847014995925  44.2976997934745 87.2071887888153  44.2976997934745 87.2071887888153  C 44.2976997934745 87.2071887888153  41.2229266360612 89.9412317255217  41.2229266360612 89.9412317255217  C 41.2229266360612 89.9412317255217  38.0714979348741 92.2874671534755  38.0714979348741 92.2874671534755  C 38.0714979348741 92.2874671534755  31.851997435006 94.519514814963  31.851997435006 94.519514814963  C 31.851997435006 94.519514814963  22.7849175882464 98.1110432432451  22.7849175882464 98.1110432432451  C 22.7849175882464 98.1110432432451  19.4775308114034 100.571466437665  19.4775308114034 100.571466437665  C 19.4775308114034 100.571466437665  20.1255635050774 103.387379848441  20.1255635050774 103.387379848441  C 20.1255635050774 103.387379848441  22.0508390597272 103.837667455827  22.0508390597272 103.837667455827  C 22.0508390597272 103.837667455827  21.4054952983924 107.371024757795  21.4054952983924 107.371024757795  C 21.4054952983924 107.371024757795  15.6861362135588 107.315008117642  15.6861362135588 107.315008117642  C 15.6861362135588 107.315008117642  15.0407924522236 104.346126189524  15.0407924522236 104.346126189524  C 15.0407924522236 104.346126189524  13.9221965992424 101.34708145517  13.9221965992424 101.34708145517  C 13.9221965992424 101.34708145517  13.2795417702464 98.9534473317023  13.2795417702464 98.9534473317023  C 13.2795417702464 98.9534473317023  14.6240079396947 91.5678687761234  14.6240079396947 91.5678687761234  C 14.6240079396947 91.5678687761234  12.6610873323 86.8947882956535  12.6610873323 86.8947882956535  C 12.6610873323 86.8947882956535  9.04985120116159 77.7145227690136  9.04985120116159 77.7145227690136  C 9.04985120116159 77.7145227690136  16.9929573302628 70.3784973951086  16.9929573302628 70.3784973951086  C 16.9929573302628 70.3784973951086  18.9800783287074 65.7463521516737  18.9800783287074 65.7463521516737  C 18.9800783287074 65.7463521516737  20.1201856403999 65.1624864023852  20.1201856403999 65.1624864023852  C 20.1201856403999 65.1624864023852  20.9725771918302 61.4007535674841  20.9725771918302 61.4007535674841  C 20.9725771918302 61.4007535674841  19.7598687069876 59.5134236915542  19.7598687069876 59.5134236915542  C 19.7598687069876 59.5134236915542  20.0852295199938 53.2018732903488  20.0852295199938 53.2018732903488  C 20.0852295199938 53.2018732903488  21.5533865770317 48.8174939552838  21.5533865770317 48.8174939552838  C 21.5533865770317 48.8174939552838  21.5372529829982 40.8566675950552  21.5372529829982 40.8566675950552  C 21.5372529829982 40.8566675950552  17.6194785652256 38.8443775218605  17.6194785652256 38.8443775218605  C 17.6194785652256 38.8443775218605  14.0324428251373 38.389780942156  14.0324428251373 38.389780942156  C 14.0324428251373 38.389780942156  12.4056387601047 36.8428598794647  12.4056387601047 36.8428598794647  C 12.4056387601047 36.8428598794647  8.91271565187804 35.5243143497056  8.91271565187804 35.5243143497056  C 8.91271565187804 35.5243143497056  2.62330291119839 35.6492745469703  2.62330291119839 35.6492745469703  C 2.62330291119839 35.6492745469703  2.1366061578583 33.3224294944543  2.1366061578583 33.3224294944543  C 2.1366061578583 33.3224294944543  1.42135015571155 28.8949604361946  1.42135015571155 28.8949604361946  C 1.42135015571155 28.8949604361946  24.2987864950449 23.7888282376175  24.2987864950449 23.7888282376175  C 24.2987864950449 23.7888282376175  28.6387232900244 26.7598646518948  28.6387232900244 26.7598646518948  C 28.6387232900244 26.7598646518948  30.7145790556527 26.1910803057244  30.7145790556527 26.1910803057244  C 30.7145790556527 26.1910803057244  33.6912271548116 27.7595462300129  33.6912271548116 27.7595462300129  C 33.6912271548116 27.7595462300129  34.1268341937126 30.2479777445095  34.1268341937126 30.2479777445095  C 34.1268341937126 30.2479777445095  32.5403641137636 33.1414526570364  32.5403641137636 33.1414526570364  C 32.5403641137636 33.1414526570364  33.0996620402541 37.5387589090599  33.0996620402541 37.5387589090599  C 33.0996620402541 37.5387589090599  38.0177192880963 41.4082160519476  38.0177192880963 41.4082160519476  C 38.0177192880963 41.4082160519476  40.3194453701918 37.062617467758  40.3194453701918 37.062617467758  C 40.3194453701918 37.062617467758  45.537297601706 35.7483809103181  45.537297601706 35.7483809103181  C 45.537297601706 35.7483809103181  44.8946427727095 27.7466193130545  44.8946427727095 27.7466193130545  C 44.8946427727095 27.7466193130545  39.7843478347514 23.2695970731209  39.7843478347514 23.2695970731209  C 39.7843478347514 23.2695970731209  37.0631483077879 21.276697375364  37.0631483077879 21.276697375364  C 37.0631483077879 21.276697375364  34.4468171420412 21.3650313079133  34.4468171420412 21.3650313079133  C 34.4468171420412 21.3650313079133  32.3360052560078 13.35896073833  32.3360052560078 13.35896073833  Z " fill-rule="nonzero" fill="#f2f2f2" stroke="none" transform="matrix(1 0 0 1 2023 2093 )" />
    <path d="M 32.3360052560078 13.35896073833  C 32.3360052560078 13.35896073833  34.4468171420412 8.69665268865901  34.4468171420412 8.69665268865901  C 34.4468171420412 8.69665268865901  40.1204643771135 8.20327535807902  40.1204643771135 8.20327535807902  C 40.1204643771135 8.20327535807902  51.1329657989498 9.92901877202847  51.1329657989498 9.92901877202847  C 51.1329657989498 9.92901877202847  53.1012642710225 9.15340375452323  53.1012642710225 9.15340375452323  C 53.1012642710225 9.15340375452323  58.3500601965488 8.99612626486234  58.3500601965488 8.99612626486234  C 58.3500601965488 8.99612626486234  61.0363036031067 7.16050405676628  61.0363036031067 7.16050405676628  C 61.0363036031067 7.16050405676628  65.559087797131 7.25961042011441  65.559087797131 7.25961042011441  C 65.559087797131 7.25961042011441  73.803354348188 4.88536667208372  73.803354348188 4.88536667208372  C 73.803354348188 4.88536667208372  79.8023623962669 1.3455459116359  79.8023623962669 1.3455459116359  C 79.8023623962669 1.3455459116359  81.0231376781261 4.08174333450192  81.0231376781261 4.08174333450192  C 81.0231376781261 4.08174333450192  80.7112215268142 10.1789391665579  80.7112215268142 10.1789391665579  C 80.7112215268142 10.1789391665579  81.6415921160725 15.5673090520606  81.6415921160725 15.5673090520606  C 81.6415921160725 15.5673090520606  81.9346857410118 25.210789103044  81.9346857410118 25.210789103044  C 81.9346857410118 25.210789103044  83.2630183164271 28.2486145882733  83.2630183164271 28.2486145882733  C 83.2630183164271 28.2486145882733  81.0123819487707 32.6911650496514  81.0123819487707 32.6911650496514  C 81.0123819487707 32.6911650496514  78.0868235640508 37.0216822307229  78.0868235640508 37.0216822307229  C 78.0868235640508 37.0216822307229  73.2870793391202 40.9040662905695  73.2870793391202 40.9040662905695  C 73.2870793391202 40.9040662905695  66.3953457545279 43.2890824693983  66.3953457545279 43.2890824693983  C 66.3953457545279 43.2890824693983  57.8956306312751 46.3419893577457  57.8956306312751 46.3419893577457  C 57.8956306312751 46.3419893577457  49.3770929816502 53.1221573024384  49.3770929816502 53.1221573024384  C 49.3770929816502 53.1221573024384  46.4757349879805 55.8464882476813  46.4757349879805 55.8464882476813  C 46.4757349879805 55.8464882476813  39.2600060286665 60.3622912384906  39.2600060286665 60.3622912384906  C 39.2600060286665 60.3622912384906  36.154289177241 61.8381142579106  36.154289177241 61.8381142579106  C 36.154289177241 61.8381142579106  35.5170122129225 66.3991614580739  35.5170122129225 66.3991614580739  C 35.5170122129225 66.3991614580739  39.0932922236546 71.2661456929204  39.0932922236546 71.2661456929204  C 39.0932922236546 71.2661456929204  40.5802718070647 75.0537323617384  40.5802718070647 75.0537323617384  C 40.5802718070647 75.0537323617384  40.6743844389266 76.9906154193419  40.6743844389266 76.9906154193419  C 40.6743844389266 76.9906154193419  43.9588943187737 76.6674424953812  43.9588943187737 76.6674424953812  C 43.9588943187737 76.6674424953812  43.7437797316615 83.0468760143628  43.7437797316615 83.0468760143628  C 43.7437797316615 83.0468760143628  40.5668271453705 86.0847014995925  40.5668271453705 86.0847014995925  C 40.5668271453705 86.0847014995925  44.2976997934745 87.2071887888153  44.2976997934745 87.2071887888153  C 44.2976997934745 87.2071887888153  41.2229266360612 89.9412317255217  41.2229266360612 89.9412317255217  C 41.2229266360612 89.9412317255217  38.0714979348741 92.2874671534755  38.0714979348741 92.2874671534755  C 38.0714979348741 92.2874671534755  31.851997435006 94.519514814963  31.851997435006 94.519514814963  C 31.851997435006 94.519514814963  22.7849175882464 98.1110432432451  22.7849175882464 98.1110432432451  C 22.7849175882464 98.1110432432451  19.4775308114034 100.571466437665  19.4775308114034 100.571466437665  C 19.4775308114034 100.571466437665  20.1255635050774 103.387379848441  20.1255635050774 103.387379848441  C 20.1255635050774 103.387379848441  22.0508390597272 103.837667455827  22.0508390597272 103.837667455827  C 22.0508390597272 103.837667455827  21.4054952983924 107.371024757795  21.4054952983924 107.371024757795  C 21.4054952983924 107.371024757795  15.6861362135588 107.315008117642  15.6861362135588 107.315008117642  C 15.6861362135588 107.315008117642  15.0407924522236 104.346126189524  15.0407924522236 104.346126189524  C 15.0407924522236 104.346126189524  13.9221965992424 101.34708145517  13.9221965992424 101.34708145517  C 13.9221965992424 101.34708145517  13.2795417702464 98.9534473317023  13.2795417702464 98.9534473317023  C 13.2795417702464 98.9534473317023  14.6240079396947 91.5678687761234  14.6240079396947 91.5678687761234  C 14.6240079396947 91.5678687761234  12.6610873323 86.8947882956535  12.6610873323 86.8947882956535  C 12.6610873323 86.8947882956535  9.04985120116159 77.7145227690136  9.04985120116159 77.7145227690136  C 9.04985120116159 77.7145227690136  16.9929573302628 70.3784973951086  16.9929573302628 70.3784973951086  C 16.9929573302628 70.3784973951086  18.9800783287074 65.7463521516737  18.9800783287074 65.7463521516737  C 18.9800783287074 65.7463521516737  20.1201856403999 65.1624864023852  20.1201856403999 65.1624864023852  C 20.1201856403999 65.1624864023852  20.9725771918302 61.4007535674841  20.9725771918302 61.4007535674841  C 20.9725771918302 61.4007535674841  19.7598687069876 59.5134236915542  19.7598687069876 59.5134236915542  C 19.7598687069876 59.5134236915542  20.0852295199938 53.2018732903488  20.0852295199938 53.2018732903488  C 20.0852295199938 53.2018732903488  21.5533865770317 48.8174939552838  21.5533865770317 48.8174939552838  C 21.5533865770317 48.8174939552838  21.5372529829982 40.8566675950552  21.5372529829982 40.8566675950552  C 21.5372529829982 40.8566675950552  17.6194785652256 38.8443775218605  17.6194785652256 38.8443775218605  C 17.6194785652256 38.8443775218605  14.0324428251373 38.389780942156  14.0324428251373 38.389780942156  C 14.0324428251373 38.389780942156  12.4056387601047 36.8428598794647  12.4056387601047 36.8428598794647  C 12.4056387601047 36.8428598794647  8.91271565187804 35.5243143497056  8.91271565187804 35.5243143497056  C 8.91271565187804 35.5243143497056  2.62330291119839 35.6492745469703  2.62330291119839 35.6492745469703  C 2.62330291119839 35.6492745469703  2.1366061578583 33.3224294944543  2.1366061578583 33.3224294944543  C 2.1366061578583 33.3224294944543  1.42135015571155 28.8949604361946  1.42135015571155 28.8949604361946  C 1.42135015571155 28.8949604361946  24.2987864950449 23.7888282376175  24.2987864950449 23.7888282376175  C 24.2987864950449 23.7888282376175  28.6387232900244 26.7598646518948  28.6387232900244 26.7598646518948  C 28.6387232900244 26.7598646518948  30.7145790556527 26.1910803057244  30.7145790556527 26.1910803057244  C 30.7145790556527 26.1910803057244  33.6912271548116 27.7595462300129  33.6912271548116 27.7595462300129  C 33.6912271548116 27.7595462300129  34.1268341937126 30.2479777445095  34.1268341937126 30.2479777445095  C 34.1268341937126 30.2479777445095  32.5403641137636 33.1414526570364  32.5403641137636 33.1414526570364  C 32.5403641137636 33.1414526570364  33.0996620402541 37.5387589090599  33.0996620402541 37.5387589090599  C 33.0996620402541 37.5387589090599  38.0177192880963 41.4082160519476  38.0177192880963 41.4082160519476  C 38.0177192880963 41.4082160519476  40.3194453701918 37.062617467758  40.3194453701918 37.062617467758  C 40.3194453701918 37.062617467758  45.537297601706 35.7483809103181  45.537297601706 35.7483809103181  C 45.537297601706 35.7483809103181  44.8946427727095 27.7466193130545  44.8946427727095 27.7466193130545  C 44.8946427727095 27.7466193130545  39.7843478347514 23.2695970731209  39.7843478347514 23.2695970731209  C 39.7843478347514 23.2695970731209  37.0631483077879 21.276697375364  37.0631483077879 21.276697375364  C 37.0631483077879 21.276697375364  34.4468171420412 21.3650313079133  34.4468171420412 21.3650313079133  C 34.4468171420412 21.3650313079133  32.3360052560078 13.35896073833  32.3360052560078 13.35896073833  Z " stroke-width="2" stroke="#505050" fill="none" stroke-opacity="0.211764705882353" transform="matrix(1 0 0 1 2023 2093 )" mask="url(#clip707)" />
  </g>
</svg>