<?xml version="1.0" encoding="utf-8"?>
<svg version="1.1" xmlns:xlink="http://www.w3.org/1999/xlink" width="108px" height="81px" xmlns="http://www.w3.org/2000/svg">
  <defs>
    <mask fill="white" id="clip708">
      <path d="M 40.3653032624991 73.8239047042774  C 40.3653032624991 73.8239047042774  36.6680853187147 77.1837533636417  36.6680853187147 77.1837533636417  C 36.6680853187147 77.1837533636417  30.9309280626858 72.0571431884407  30.9309280626858 72.0571431884407  C 30.9309280626858 72.0571431884407  27.910936935112 67.136369306347  27.910936935112 67.136369306347  C 27.910936935112 67.136369306347  26.2068580764355 60.6246524087788  26.2068580764355 60.6246524087788  C 26.2068580764355 60.6246524087788  24.304566491063 55.815373185451  24.304566491063 55.815373185451  C 24.304566491063 55.815373185451  21.7167892258676 45.6886563901881  21.7167892258676 45.6886563901881  C 21.7167892258676 45.6886563901881  21.5433530900089 36.3456351213266  21.5433530900089 36.3456351213266  C 21.5433530900089 36.3456351213266  20.5550424110675 32.8206886018659  20.5550424110675 32.8206886018659  C 20.5550424110675 32.8206886018659  17.5543219652557 30.1641139439511  17.5543219652557 30.1641139439511  C 17.5543219652557 30.1641139439511  13.5680437950398 24.8638293964407  13.5680437950398 24.8638293964407  C 13.5680437950398 24.8638293964407  9.51294176138799 17.2221570148363  9.51294176138799 17.2221570148363  C 9.51294176138799 17.2221570148363  7.82538062993603 13.2447994761504  7.82538062993603 13.2447994761504  C 7.82538062993603 13.2447994761504  1.54589133003128 7.0911519634665  1.54589133003128 7.0911519634665  C 1.54589133003128 7.0911519634665  1.07788905866596 2.27972861208599  1.07788905866596 2.27972861208599  C 1.07788905866596 2.27972861208599  4.79162472967505 1.0897375425601  4.79162472967505 1.0897375425601  C 4.79162472967505 1.0897375425601  9.41383539804019 0.024105900119423  9.41383539804019 0.024105900119423  C 9.41383539804019 0.024105900119423  14.4187067471094 0.210645040748117  14.4187067471094 0.210645040748117  C 14.4187067471094 0.210645040748117  19.0188937791747 3.04089407097168  19.0188937791747 3.04089407097168  C 19.0188937791747 3.04089407097168  20.1861465030502 2.5992036920126  20.1861465030502 2.5992036920126  C 20.1861465030502 2.5992036920126  51.4734748210772 2.32904355730952  51.4734748210772 2.32904355730952  C 51.4734748210772 2.32904355730952  58.822465487327 5.33296695984253  58.822465487327 5.33296695984253  C 58.822465487327 5.33296695984253  77.5095208874827 6.22063597386723  77.5095208874827 6.22063597386723  C 77.5095208874827 6.22063597386723  91.6982485734582 3.66483533445292  91.6982485734582 3.66483533445292  C 91.6982485734582 3.66483533445292  98.0190321914247 2.24113430712825  98.0190321914247 2.24113430712825  C 98.0190321914247 2.24113430712825  103.021150585957 2.60134782006569  103.021150585957 2.60134782006569  C 103.021150585957 2.60134782006569  106.068671258905 4.01432820712455  106.068671258905 4.01432820712455  C 106.068671258905 4.01432820712455  106.126483304191 4.5332071959991  106.126483304191 4.5332071959991  C 106.126483304191 4.5332071959991  101.774062180496 5.94833171111106  101.774062180496 5.94833171111106  C 101.774062180496 5.94833171111106  99.4340508236699 5.96119647942995  99.4340508236699 5.96119647942995  C 99.4340508236699 5.96119647942995  94.506262201649 8.42479961255681  94.506262201649 8.42479961255681  C 94.506262201649 8.42479961255681  91.5550949375113 5.8346929242913  91.5550949375113 5.8346929242913  C 91.5550949375113 5.8346929242913  79.6568254266872 8.03456830687435  79.6568254266872 8.03456830687435  C 79.6568254266872 8.03456830687435  73.9086563525086 8.242548728035  73.9086563525086 8.242548728035  C 73.9086563525086 8.242548728035  73.6829140804384 30.9059822503583  73.6829140804384 30.9059822503583  C 73.6829140804384 30.9059822503583  66.0737477389491 31.1311156959444  66.0737477389491 31.1311156959444  C 66.0737477389491 31.1311156959444  66.0765006934864 51.6879266830414  66.0765006934864 51.6879266830414  C 66.0765006934864 51.6879266830414  66.0682418298741 76.3968583681175  66.0682418298741 76.3968583681175  C 66.0682418298741 76.3968583681175  59.1775966226571 79.8832105826204  59.1775966226571 79.8832105826204  C 59.1775966226571 79.8832105826204  55.0316470892694 80.3827924190161  55.0316470892694 80.3827924190161  C 55.0316470892694 80.3827924190161  48.1781882397593 79.0920273309897  48.1781882397593 79.0920273309897  C 48.1781882397593 79.0920273309897  44.7149714316572 78.5945896226475  44.7149714316572 78.5945896226475  C 44.7149714316572 78.5945896226475  43.4128239354475 75.6828637264019  43.4128239354475 75.6828637264019  C 43.4128239354475 75.6828637264019  40.3653032624991 73.8239047042774  40.3653032624991 73.8239047042774  Z " fill-rule="evenodd" />
    </mask>
  </defs>
  <g transform="matrix(1 0 0 1 -1882 -2136 )">
    <path d="M 40.3653032624991 73.8239047042774  C 40.3653032624991 73.8239047042774  36.6680853187147 77.1837533636417  36.6680853187147 77.1837533636417  C 36.6680853187147 77.1837533636417  30.9309280626858 72.0571431884407  30.9309280626858 72.0571431884407  C 30.9309280626858 72.0571431884407  27.910936935112 67.136369306347  27.910936935112 67.136369306347  C 27.910936935112 67.136369306347  26.2068580764355 60.6246524087788  26.2068580764355 60.6246524087788  C 26.2068580764355 60.6246524087788  24.304566491063 55.815373185451  24.304566491063 55.815373185451  C 24.304566491063 55.815373185451  21.7167892258676 45.6886563901881  21.7167892258676 45.6886563901881  C 21.7167892258676 45.6886563901881  21.5433530900089 36.3456351213266  21.5433530900089 36.3456351213266  C 21.5433530900089 36.3456351213266  20.5550424110675 32.8206886018659  20.5550424110675 32.8206886018659  C 20.5550424110675 32.8206886018659  17.5543219652557 30.1641139439511  17.5543219652557 30.1641139439511  C 17.5543219652557 30.1641139439511  13.5680437950398 24.8638293964407  13.5680437950398 24.8638293964407  C 13.5680437950398 24.8638293964407  9.51294176138799 17.2221570148363  9.51294176138799 17.2221570148363  C 9.51294176138799 17.2221570148363  7.82538062993603 13.2447994761504  7.82538062993603 13.2447994761504  C 7.82538062993603 13.2447994761504  1.54589133003128 7.0911519634665  1.54589133003128 7.0911519634665  C 1.54589133003128 7.0911519634665  1.07788905866596 2.27972861208599  1.07788905866596 2.27972861208599  C 1.07788905866596 2.27972861208599  4.79162472967505 1.0897375425601  4.79162472967505 1.0897375425601  C 4.79162472967505 1.0897375425601  9.41383539804019 0.024105900119423  9.41383539804019 0.024105900119423  C 9.41383539804019 0.024105900119423  14.4187067471094 0.210645040748117  14.4187067471094 0.210645040748117  C 14.4187067471094 0.210645040748117  19.0188937791747 3.04089407097168  19.0188937791747 3.04089407097168  C 19.0188937791747 3.04089407097168  20.1861465030502 2.5992036920126  20.1861465030502 2.5992036920126  C 20.1861465030502 2.5992036920126  51.4734748210772 2.32904355730952  51.4734748210772 2.32904355730952  C 51.4734748210772 2.32904355730952  58.822465487327 5.33296695984253  58.822465487327 5.33296695984253  C 58.822465487327 5.33296695984253  77.5095208874827 6.22063597386723  77.5095208874827 6.22063597386723  C 77.5095208874827 6.22063597386723  91.6982485734582 3.66483533445292  91.6982485734582 3.66483533445292  C 91.6982485734582 3.66483533445292  98.0190321914247 2.24113430712825  98.0190321914247 2.24113430712825  C 98.0190321914247 2.24113430712825  103.021150585957 2.60134782006569  103.021150585957 2.60134782006569  C 103.021150585957 2.60134782006569  106.068671258905 4.01432820712455  106.068671258905 4.01432820712455  C 106.068671258905 4.01432820712455  106.126483304191 4.5332071959991  106.126483304191 4.5332071959991  C 106.126483304191 4.5332071959991  101.774062180496 5.94833171111106  101.774062180496 5.94833171111106  C 101.774062180496 5.94833171111106  99.4340508236699 5.96119647942995  99.4340508236699 5.96119647942995  C 99.4340508236699 5.96119647942995  94.506262201649 8.42479961255681  94.506262201649 8.42479961255681  C 94.506262201649 8.42479961255681  91.5550949375113 5.8346929242913  91.5550949375113 5.8346929242913  C 91.5550949375113 5.8346929242913  79.6568254266872 8.03456830687435  79.6568254266872 8.03456830687435  C 79.6568254266872 8.03456830687435  73.9086563525086 8.242548728035  73.9086563525086 8.242548728035  C 73.9086563525086 8.242548728035  73.6829140804384 30.9059822503583  73.6829140804384 30.9059822503583  C 73.6829140804384 30.9059822503583  66.0737477389491 31.1311156959444  66.0737477389491 31.1311156959444  C 66.0737477389491 31.1311156959444  66.0765006934864 51.6879266830414  66.0765006934864 51.6879266830414  C 66.0765006934864 51.6879266830414  66.0682418298741 76.3968583681175  66.0682418298741 76.3968583681175  C 66.0682418298741 76.3968583681175  59.1775966226571 79.8832105826204  59.1775966226571 79.8832105826204  C 59.1775966226571 79.8832105826204  55.0316470892694 80.3827924190161  55.0316470892694 80.3827924190161  C 55.0316470892694 80.3827924190161  48.1781882397593 79.0920273309897  48.1781882397593 79.0920273309897  C 48.1781882397593 79.0920273309897  44.7149714316572 78.5945896226475  44.7149714316572 78.5945896226475  C 44.7149714316572 78.5945896226475  43.4128239354475 75.6828637264019  43.4128239354475 75.6828637264019  C 43.4128239354475 75.6828637264019  40.3653032624991 73.8239047042774  40.3653032624991 73.8239047042774  Z " fill-rule="nonzero" fill="#f2f2f2" stroke="none" transform="matrix(1 0 0 1 1882 2136 )" />
    <path d="M 40.3653032624991 73.8239047042774  C 40.3653032624991 73.8239047042774  36.6680853187147 77.1837533636417  36.6680853187147 77.1837533636417  C 36.6680853187147 77.1837533636417  30.9309280626858 72.0571431884407  30.9309280626858 72.0571431884407  C 30.9309280626858 72.0571431884407  27.910936935112 67.136369306347  27.910936935112 67.136369306347  C 27.910936935112 67.136369306347  26.2068580764355 60.6246524087788  26.2068580764355 60.6246524087788  C 26.2068580764355 60.6246524087788  24.304566491063 55.815373185451  24.304566491063 55.815373185451  C 24.304566491063 55.815373185451  21.7167892258676 45.6886563901881  21.7167892258676 45.6886563901881  C 21.7167892258676 45.6886563901881  21.5433530900089 36.3456351213266  21.5433530900089 36.3456351213266  C 21.5433530900089 36.3456351213266  20.5550424110675 32.8206886018659  20.5550424110675 32.8206886018659  C 20.5550424110675 32.8206886018659  17.5543219652557 30.1641139439511  17.5543219652557 30.1641139439511  C 17.5543219652557 30.1641139439511  13.5680437950398 24.8638293964407  13.5680437950398 24.8638293964407  C 13.5680437950398 24.8638293964407  9.51294176138799 17.2221570148363  9.51294176138799 17.2221570148363  C 9.51294176138799 17.2221570148363  7.82538062993603 13.2447994761504  7.82538062993603 13.2447994761504  C 7.82538062993603 13.2447994761504  1.54589133003128 7.0911519634665  1.54589133003128 7.0911519634665  C 1.54589133003128 7.0911519634665  1.07788905866596 2.27972861208599  1.07788905866596 2.27972861208599  C 1.07788905866596 2.27972861208599  4.79162472967505 1.0897375425601  4.79162472967505 1.0897375425601  C 4.79162472967505 1.0897375425601  9.41383539804019 0.024105900119423  9.41383539804019 0.024105900119423  C 9.41383539804019 0.024105900119423  14.4187067471094 0.210645040748117  14.4187067471094 0.210645040748117  C 14.4187067471094 0.210645040748117  19.0188937791747 3.04089407097168  19.0188937791747 3.04089407097168  C 19.0188937791747 3.04089407097168  20.1861465030502 2.5992036920126  20.1861465030502 2.5992036920126  C 20.1861465030502 2.5992036920126  51.4734748210772 2.32904355730952  51.4734748210772 2.32904355730952  C 51.4734748210772 2.32904355730952  58.822465487327 5.33296695984253  58.822465487327 5.33296695984253  C 58.822465487327 5.33296695984253  77.5095208874827 6.22063597386723  77.5095208874827 6.22063597386723  C 77.5095208874827 6.22063597386723  91.6982485734582 3.66483533445292  91.6982485734582 3.66483533445292  C 91.6982485734582 3.66483533445292  98.0190321914247 2.24113430712825  98.0190321914247 2.24113430712825  C 98.0190321914247 2.24113430712825  103.021150585957 2.60134782006569  103.021150585957 2.60134782006569  C 103.021150585957 2.60134782006569  106.068671258905 4.01432820712455  106.068671258905 4.01432820712455  C 106.068671258905 4.01432820712455  106.126483304191 4.5332071959991  106.126483304191 4.5332071959991  C 106.126483304191 4.5332071959991  101.774062180496 5.94833171111106  101.774062180496 5.94833171111106  C 101.774062180496 5.94833171111106  99.4340508236699 5.96119647942995  99.4340508236699 5.96119647942995  C 99.4340508236699 5.96119647942995  94.506262201649 8.42479961255681  94.506262201649 8.42479961255681  C 94.506262201649 8.42479961255681  91.5550949375113 5.8346929242913  91.5550949375113 5.8346929242913  C 91.5550949375113 5.8346929242913  79.6568254266872 8.03456830687435  79.6568254266872 8.03456830687435  C 79.6568254266872 8.03456830687435  73.9086563525086 8.242548728035  73.9086563525086 8.242548728035  C 73.9086563525086 8.242548728035  73.6829140804384 30.9059822503583  73.6829140804384 30.9059822503583  C 73.6829140804384 30.9059822503583  66.0737477389491 31.1311156959444  66.0737477389491 31.1311156959444  C 66.0737477389491 31.1311156959444  66.0765006934864 51.6879266830414  66.0765006934864 51.6879266830414  C 66.0765006934864 51.6879266830414  66.0682418298741 76.3968583681175  66.0682418298741 76.3968583681175  C 66.0682418298741 76.3968583681175  59.1775966226571 79.8832105826204  59.1775966226571 79.8832105826204  C 59.1775966226571 79.8832105826204  55.0316470892694 80.3827924190161  55.0316470892694 80.3827924190161  C 55.0316470892694 80.3827924190161  48.1781882397593 79.0920273309897  48.1781882397593 79.0920273309897  C 48.1781882397593 79.0920273309897  44.7149714316572 78.5945896226475  44.7149714316572 78.5945896226475  C 44.7149714316572 78.5945896226475  43.4128239354475 75.6828637264019  43.4128239354475 75.6828637264019  C 43.4128239354475 75.6828637264019  40.3653032624991 73.8239047042774  40.3653032624991 73.8239047042774  Z " stroke-width="2" stroke="#505050" fill="none" stroke-opacity="0.211764705882353" transform="matrix(1 0 0 1 1882 2136 )" mask="url(#clip708)" />
  </g>
</svg>