<?xml version="1.0" encoding="utf-8"?>
<svg version="1.1" xmlns:xlink="http://www.w3.org/1999/xlink" width="28px" height="19px" xmlns="http://www.w3.org/2000/svg">
  <defs>
    <mask fill="white" id="clip709">
      <path d="M 11.6701185595584 5.8001758905245  C 11.6701185595584 5.8001758905245  16.136765825107 7.62217296855482  16.136765825107 7.62217296855482  C 16.136765825107 7.62217296855482  22.4685612612229 13.2505141689027  22.4685612612229 13.2505141689027  C 22.4685612612229 13.2505141689027  26.4823689768132 16.2624758457425  26.4823689768132 16.2624758457425  C 26.4823689768132 16.2624758457425  23.5504723944377 17.8381981991109  23.5504723944377 17.8381981991109  C 23.5504723944377 17.8381981991109  19.3026635431647 16.0641484126074  19.3026635431647 16.0641484126074  C 19.3026635431647 16.0641484126074  11.7802367410563 13.1175694060321  11.7802367410563 13.1175694060321  C 11.7802367410563 13.1175694060321  6.80289493736109 8.07549281571992  6.80289493736109 8.07549281571992  C 6.80289493736109 8.07549281571992  1.69616427040637 3.49434705253852  1.69616427040637 3.49434705253852  C 1.69616427040637 3.49434705253852  0.628017909878963 1.29966875400214  0.628017909878963 1.29966875400214  C 0.628017909878963 1.29966875400214  3.94808108203415 1.39120449237204  3.94808108203415 1.39120449237204  C 3.94808108203415 1.39120449237204  8.27297266035521 3.5946004802769  8.27297266035521 3.5946004802769  C 8.27297266035521 3.5946004802769  11.6701185595584 5.8001758905245  11.6701185595584 5.8001758905245  Z " fill-rule="evenodd" />
    </mask>
  </defs>
  <g transform="matrix(1 0 0 1 -3055 -2154 )">
    <path d="M 11.6701185595584 5.8001758905245  C 11.6701185595584 5.8001758905245  16.136765825107 7.62217296855482  16.136765825107 7.62217296855482  C 16.136765825107 7.62217296855482  22.4685612612229 13.2505141689027  22.4685612612229 13.2505141689027  C 22.4685612612229 13.2505141689027  26.4823689768132 16.2624758457425  26.4823689768132 16.2624758457425  C 26.4823689768132 16.2624758457425  23.5504723944377 17.8381981991109  23.5504723944377 17.8381981991109  C 23.5504723944377 17.8381981991109  19.3026635431647 16.0641484126074  19.3026635431647 16.0641484126074  C 19.3026635431647 16.0641484126074  11.7802367410563 13.1175694060321  11.7802367410563 13.1175694060321  C 11.7802367410563 13.1175694060321  6.80289493736109 8.07549281571992  6.80289493736109 8.07549281571992  C 6.80289493736109 8.07549281571992  1.69616427040637 3.49434705253852  1.69616427040637 3.49434705253852  C 1.69616427040637 3.49434705253852  0.628017909878963 1.29966875400214  0.628017909878963 1.29966875400214  C 0.628017909878963 1.29966875400214  3.94808108203415 1.39120449237204  3.94808108203415 1.39120449237204  C 3.94808108203415 1.39120449237204  8.27297266035521 3.5946004802769  8.27297266035521 3.5946004802769  C 8.27297266035521 3.5946004802769  11.6701185595584 5.8001758905245  11.6701185595584 5.8001758905245  Z " fill-rule="nonzero" fill="#f2f2f2" stroke="none" transform="matrix(1 0 0 1 3055 2154 )" />
    <path d="M 11.6701185595584 5.8001758905245  C 11.6701185595584 5.8001758905245  16.136765825107 7.62217296855482  16.136765825107 7.62217296855482  C 16.136765825107 7.62217296855482  22.4685612612229 13.2505141689027  22.4685612612229 13.2505141689027  C 22.4685612612229 13.2505141689027  26.4823689768132 16.2624758457425  26.4823689768132 16.2624758457425  C 26.4823689768132 16.2624758457425  23.5504723944377 17.8381981991109  23.5504723944377 17.8381981991109  C 23.5504723944377 17.8381981991109  19.3026635431647 16.0641484126074  19.3026635431647 16.0641484126074  C 19.3026635431647 16.0641484126074  11.7802367410563 13.1175694060321  11.7802367410563 13.1175694060321  C 11.7802367410563 13.1175694060321  6.80289493736109 8.07549281571992  6.80289493736109 8.07549281571992  C 6.80289493736109 8.07549281571992  1.69616427040637 3.49434705253852  1.69616427040637 3.49434705253852  C 1.69616427040637 3.49434705253852  0.628017909878963 1.29966875400214  0.628017909878963 1.29966875400214  C 0.628017909878963 1.29966875400214  3.94808108203415 1.39120449237204  3.94808108203415 1.39120449237204  C 3.94808108203415 1.39120449237204  8.27297266035521 3.5946004802769  8.27297266035521 3.5946004802769  C 8.27297266035521 3.5946004802769  11.6701185595584 5.8001758905245  11.6701185595584 5.8001758905245  Z " stroke-width="2" stroke="#505050" fill="none" stroke-opacity="0.211764705882353" transform="matrix(1 0 0 1 3055 2154 )" mask="url(#clip709)" />
  </g>
</svg>