<?xml version="1.0" encoding="utf-8"?>
<svg version="1.1" xmlns:xlink="http://www.w3.org/1999/xlink" width="123px" height="78px" xmlns="http://www.w3.org/2000/svg">
  <defs>
    <mask fill="white" id="clip710">
      <path d="M 17.5811244317201 73.0512893537638  C 17.5811244317201 73.0512893537638  15.0114855847269 74.8421413394604  15.0114855847269 74.8421413394604  C 15.0114855847269 74.8421413394604  15.1835230420709 70.6506028789329  15.1835230420709 70.6506028789329  C 15.1835230420709 70.6506028789329  6.35772840500229 69.259149537528  6.35772840500229 69.259149537528  C 6.35772840500229 69.259149537528  6.1174221153789 66.2851327507297  6.1174221153789 66.2851327507297  C 6.1174221153789 66.2851327507297  1.80556266861815 62.2653786533386  1.80556266861815 62.2653786533386  C 1.80556266861815 62.2653786533386  0.778799431137336 59.4545570115195  0.778799431137336 59.4545570115195  C 0.778799431137336 59.4545570115195  1.38502666177766 56.4569198747897  1.38502666177766 56.4569198747897  C 1.38502666177766 56.4569198747897  6.29219032601416 56.2121271573206  6.29219032601416 56.2121271573206  C 6.29219032601416 56.2121271573206  9.12398148895965 54.0111400046357  9.12398148895965 54.0111400046357  C 9.12398148895965 54.0111400046357  19.5691128276934 53.4786084789131  19.5691128276934 53.4786084789131  C 19.5691128276934 53.4786084789131  26.3714192760033 52.4929956954179  26.3714192760033 52.4929956954179  C 26.3714192760033 52.4929956954179  27.0240693125934 48.6600570929376  27.0240693125934 48.6600570929376  C 27.0240693125934 48.6600570929376  31.2103141079604 44.4921389823413  31.2103141079604 44.4921389823413  C 31.2103141079604 44.4921389823413  31.1884680816311 28.43783334271  31.1884680816311 28.43783334271  C 31.1884680816311 28.43783334271  41.9858665949261 25.6098332645771  41.9858665949261 25.6098332645771  C 41.9858665949261 25.6098332645771  66.1379927804038 13.0481017102301  66.1379927804038 13.0481017102301  C 66.1379927804038 13.0481017102301  92.3750704019864 0.696806000724555  92.3750704019864 0.696806000724555  C 92.3750704019864 0.696806000724555  104.485961248335 3.50548033800454  104.485961248335 3.50548033800454  C 104.485961248335 3.50548033800454  108.792359188514 7.07215317762335  108.792359188514 7.07215317762335  C 108.792359188514 7.07215317762335  114.210173718199 4.66073018009668  114.210173718199 4.66073018009668  C 114.210173718199 4.66073018009668  116.091662735817 14.7036735099567  116.091662735817 14.7036735099567  C 116.091662735817 14.7036735099567  118.956222938256 16.3721291369189  118.956222938256 16.3721291369189  C 118.956222938256 16.3721291369189  119.079106836359 18.409921144624  119.079106836359 18.409921144624  C 119.079106836359 18.409921144624  122.263165173866 20.6001717746127  122.263165173866 20.6001717746127  C 122.263165173866 20.6001717746127  120.597405666251 23.3444269757163  120.597405666251 23.3444269757163  C 120.597405666251 23.3444269757163  117.648192111785 36.1853081201604  117.648192111785 36.1853081201604  C 117.648192111785 36.1853081201604  117.244040624692 45.8964761509811  117.244040624692 45.8964761509811  C 117.244040624692 45.8964761509811  107.47886685546 51.7715013702451  107.47886685546 51.7715013702451  C 107.47886685546 51.7715013702451  104.17192461985 59.9312586192229  104.17192461985 59.9312586192229  C 104.17192461985 59.9312586192229  107.361444463939 62.215990648937  107.361444463939 62.215990648937  C 107.361444463939 62.215990648937  107.342329190901 66.1777675237693  107.342329190901 66.1777675237693  C 107.342329190901 66.1777675237693  112.252223608429 66.3194896233569  112.252223608429 66.3194896233569  C 112.252223608429 66.3194896233569  111.487612686901 69.2119088376655  111.487612686901 69.2119088376655  C 111.487612686901 69.2119088376655  109.324856080292 69.5640667820953  109.324856080292 69.5640667820953  C 109.324856080292 69.5640667820953  109.079088284087 71.5159666082321  109.079088284087 71.5159666082321  C 109.079088284087 71.5159666082321  107.656365819386 71.6512467942021  107.656365819386 71.6512467942021  C 107.656365819386 71.6512467942021  102.476126826032 64.9301835864915  102.476126826032 64.9301835864915  C 102.476126826032 64.9301835864915  100.67656040715 64.6832435644829  100.67656040715 64.6832435644829  C 100.67656040715 64.6832435644829  94.6907491929003 68.1210781317497  94.6907491929003 68.1210781317497  C 94.6907491929003 68.1210781317497  88.7622837977653 66.3280788415137  88.7622837977653 66.3280788415137  C 88.7622837977653 66.3280788415137  84.6415770813865 65.9694789834665  84.6415770813865 65.9694789834665  C 84.6415770813865 65.9694789834665  82.4323976688284 66.832695408227  82.4323976688284 66.832695408227  C 82.4323976688284 66.832695408227  77.9430392581411 66.6458799133159  77.9430392581411 66.6458799133159  C 77.9430392581411 66.6458799133159  73.4263733145424 69.2634441466066  73.4263733145424 69.2634441466066  C 73.4263733145424 69.2634441466066  69.5213961081661 69.4116081598119  69.5213961081661 69.4116081598119  C 69.5213961081661 69.4116081598119  58.2720792234771 66.2378920508671  58.2720792234771 66.2378920508671  C 58.2720792234771 66.2378920508671  54.6429080995092 67.7474471419278  54.6429080995092 67.7474471419278  C 54.6429080995092 67.7474471419278  50.7352001398416 67.6422292195069  50.7352001398416 67.6422292195069  C 50.7352001398416 67.6422292195069  47.8651784308196 65.3209930126268  47.8651784308196 65.3209930126268  C 47.8651784308196 65.3209930126268  40.1917616826258 63.0233771556778  40.1917616826258 63.0233771556778  C 40.1917616826258 63.0233771556778  31.9612712630326 63.7534606990073  31.9612712630326 63.7534606990073  C 31.9612712630326 63.7534606990073  29.9678213604771 65.0847895133141  29.9678213604771 65.0847895133141  C 29.9678213604771 65.0847895133141  28.889173810464 68.619252784845  28.889173810464 68.619252784845  C 28.889173810464 68.619252784845  26.6963789176528 71.092947614009  26.6963789176528 71.092947614009  C 26.6963789176528 71.092947614009  26.1638820258741 76.5535430572062  26.1638820258741 76.5535430572062  C 26.1638820258741 76.5535430572062  20.3255314893481 73.03411091745  20.3255314893481 73.03411091745  C 20.3255314893481 73.03411091745  17.5811244317201 73.0512893537638  17.5811244317201 73.0512893537638  Z " fill-rule="evenodd" />
    </mask>
  </defs>
  <g transform="matrix(1 0 0 1 -1794 -1887 )">
    <path d="M 17.5811244317201 73.0512893537638  C 17.5811244317201 73.0512893537638  15.0114855847269 74.8421413394604  15.0114855847269 74.8421413394604  C 15.0114855847269 74.8421413394604  15.1835230420709 70.6506028789329  15.1835230420709 70.6506028789329  C 15.1835230420709 70.6506028789329  6.35772840500229 69.259149537528  6.35772840500229 69.259149537528  C 6.35772840500229 69.259149537528  6.1174221153789 66.2851327507297  6.1174221153789 66.2851327507297  C 6.1174221153789 66.2851327507297  1.80556266861815 62.2653786533386  1.80556266861815 62.2653786533386  C 1.80556266861815 62.2653786533386  0.778799431137336 59.4545570115195  0.778799431137336 59.4545570115195  C 0.778799431137336 59.4545570115195  1.38502666177766 56.4569198747897  1.38502666177766 56.4569198747897  C 1.38502666177766 56.4569198747897  6.29219032601416 56.2121271573206  6.29219032601416 56.2121271573206  C 6.29219032601416 56.2121271573206  9.12398148895965 54.0111400046357  9.12398148895965 54.0111400046357  C 9.12398148895965 54.0111400046357  19.5691128276934 53.4786084789131  19.5691128276934 53.4786084789131  C 19.5691128276934 53.4786084789131  26.3714192760033 52.4929956954179  26.3714192760033 52.4929956954179  C 26.3714192760033 52.4929956954179  27.0240693125934 48.6600570929376  27.0240693125934 48.6600570929376  C 27.0240693125934 48.6600570929376  31.2103141079604 44.4921389823413  31.2103141079604 44.4921389823413  C 31.2103141079604 44.4921389823413  31.1884680816311 28.43783334271  31.1884680816311 28.43783334271  C 31.1884680816311 28.43783334271  41.9858665949261 25.6098332645771  41.9858665949261 25.6098332645771  C 41.9858665949261 25.6098332645771  66.1379927804038 13.0481017102301  66.1379927804038 13.0481017102301  C 66.1379927804038 13.0481017102301  92.3750704019864 0.696806000724555  92.3750704019864 0.696806000724555  C 92.3750704019864 0.696806000724555  104.485961248335 3.50548033800454  104.485961248335 3.50548033800454  C 104.485961248335 3.50548033800454  108.792359188514 7.07215317762335  108.792359188514 7.07215317762335  C 108.792359188514 7.07215317762335  114.210173718199 4.66073018009668  114.210173718199 4.66073018009668  C 114.210173718199 4.66073018009668  116.091662735817 14.7036735099567  116.091662735817 14.7036735099567  C 116.091662735817 14.7036735099567  118.956222938256 16.3721291369189  118.956222938256 16.3721291369189  C 118.956222938256 16.3721291369189  119.079106836359 18.409921144624  119.079106836359 18.409921144624  C 119.079106836359 18.409921144624  122.263165173866 20.6001717746127  122.263165173866 20.6001717746127  C 122.263165173866 20.6001717746127  120.597405666251 23.3444269757163  120.597405666251 23.3444269757163  C 120.597405666251 23.3444269757163  117.648192111785 36.1853081201604  117.648192111785 36.1853081201604  C 117.648192111785 36.1853081201604  117.244040624692 45.8964761509811  117.244040624692 45.8964761509811  C 117.244040624692 45.8964761509811  107.47886685546 51.7715013702451  107.47886685546 51.7715013702451  C 107.47886685546 51.7715013702451  104.17192461985 59.9312586192229  104.17192461985 59.9312586192229  C 104.17192461985 59.9312586192229  107.361444463939 62.215990648937  107.361444463939 62.215990648937  C 107.361444463939 62.215990648937  107.342329190901 66.1777675237693  107.342329190901 66.1777675237693  C 107.342329190901 66.1777675237693  112.252223608429 66.3194896233569  112.252223608429 66.3194896233569  C 112.252223608429 66.3194896233569  111.487612686901 69.2119088376655  111.487612686901 69.2119088376655  C 111.487612686901 69.2119088376655  109.324856080292 69.5640667820953  109.324856080292 69.5640667820953  C 109.324856080292 69.5640667820953  109.079088284087 71.5159666082321  109.079088284087 71.5159666082321  C 109.079088284087 71.5159666082321  107.656365819386 71.6512467942021  107.656365819386 71.6512467942021  C 107.656365819386 71.6512467942021  102.476126826032 64.9301835864915  102.476126826032 64.9301835864915  C 102.476126826032 64.9301835864915  100.67656040715 64.6832435644829  100.67656040715 64.6832435644829  C 100.67656040715 64.6832435644829  94.6907491929003 68.1210781317497  94.6907491929003 68.1210781317497  C 94.6907491929003 68.1210781317497  88.7622837977653 66.3280788415137  88.7622837977653 66.3280788415137  C 88.7622837977653 66.3280788415137  84.6415770813865 65.9694789834665  84.6415770813865 65.9694789834665  C 84.6415770813865 65.9694789834665  82.4323976688284 66.832695408227  82.4323976688284 66.832695408227  C 82.4323976688284 66.832695408227  77.9430392581411 66.6458799133159  77.9430392581411 66.6458799133159  C 77.9430392581411 66.6458799133159  73.4263733145424 69.2634441466066  73.4263733145424 69.2634441466066  C 73.4263733145424 69.2634441466066  69.5213961081661 69.4116081598119  69.5213961081661 69.4116081598119  C 69.5213961081661 69.4116081598119  58.2720792234771 66.2378920508671  58.2720792234771 66.2378920508671  C 58.2720792234771 66.2378920508671  54.6429080995092 67.7474471419278  54.6429080995092 67.7474471419278  C 54.6429080995092 67.7474471419278  50.7352001398416 67.6422292195069  50.7352001398416 67.6422292195069  C 50.7352001398416 67.6422292195069  47.8651784308196 65.3209930126268  47.8651784308196 65.3209930126268  C 47.8651784308196 65.3209930126268  40.1917616826258 63.0233771556778  40.1917616826258 63.0233771556778  C 40.1917616826258 63.0233771556778  31.9612712630326 63.7534606990073  31.9612712630326 63.7534606990073  C 31.9612712630326 63.7534606990073  29.9678213604771 65.0847895133141  29.9678213604771 65.0847895133141  C 29.9678213604771 65.0847895133141  28.889173810464 68.619252784845  28.889173810464 68.619252784845  C 28.889173810464 68.619252784845  26.6963789176528 71.092947614009  26.6963789176528 71.092947614009  C 26.6963789176528 71.092947614009  26.1638820258741 76.5535430572062  26.1638820258741 76.5535430572062  C 26.1638820258741 76.5535430572062  20.3255314893481 73.03411091745  20.3255314893481 73.03411091745  C 20.3255314893481 73.03411091745  17.5811244317201 73.0512893537638  17.5811244317201 73.0512893537638  Z " fill-rule="nonzero" fill="#f2f2f2" stroke="none" transform="matrix(1 0 0 1 1794 1887 )" />
    <path d="M 17.5811244317201 73.0512893537638  C 17.5811244317201 73.0512893537638  15.0114855847269 74.8421413394604  15.0114855847269 74.8421413394604  C 15.0114855847269 74.8421413394604  15.1835230420709 70.6506028789329  15.1835230420709 70.6506028789329  C 15.1835230420709 70.6506028789329  6.35772840500229 69.259149537528  6.35772840500229 69.259149537528  C 6.35772840500229 69.259149537528  6.1174221153789 66.2851327507297  6.1174221153789 66.2851327507297  C 6.1174221153789 66.2851327507297  1.80556266861815 62.2653786533386  1.80556266861815 62.2653786533386  C 1.80556266861815 62.2653786533386  0.778799431137336 59.4545570115195  0.778799431137336 59.4545570115195  C 0.778799431137336 59.4545570115195  1.38502666177766 56.4569198747897  1.38502666177766 56.4569198747897  C 1.38502666177766 56.4569198747897  6.29219032601416 56.2121271573206  6.29219032601416 56.2121271573206  C 6.29219032601416 56.2121271573206  9.12398148895965 54.0111400046357  9.12398148895965 54.0111400046357  C 9.12398148895965 54.0111400046357  19.5691128276934 53.4786084789131  19.5691128276934 53.4786084789131  C 19.5691128276934 53.4786084789131  26.3714192760033 52.4929956954179  26.3714192760033 52.4929956954179  C 26.3714192760033 52.4929956954179  27.0240693125934 48.6600570929376  27.0240693125934 48.6600570929376  C 27.0240693125934 48.6600570929376  31.2103141079604 44.4921389823413  31.2103141079604 44.4921389823413  C 31.2103141079604 44.4921389823413  31.1884680816311 28.43783334271  31.1884680816311 28.43783334271  C 31.1884680816311 28.43783334271  41.9858665949261 25.6098332645771  41.9858665949261 25.6098332645771  C 41.9858665949261 25.6098332645771  66.1379927804038 13.0481017102301  66.1379927804038 13.0481017102301  C 66.1379927804038 13.0481017102301  92.3750704019864 0.696806000724555  92.3750704019864 0.696806000724555  C 92.3750704019864 0.696806000724555  104.485961248335 3.50548033800454  104.485961248335 3.50548033800454  C 104.485961248335 3.50548033800454  108.792359188514 7.07215317762335  108.792359188514 7.07215317762335  C 108.792359188514 7.07215317762335  114.210173718199 4.66073018009668  114.210173718199 4.66073018009668  C 114.210173718199 4.66073018009668  116.091662735817 14.7036735099567  116.091662735817 14.7036735099567  C 116.091662735817 14.7036735099567  118.956222938256 16.3721291369189  118.956222938256 16.3721291369189  C 118.956222938256 16.3721291369189  119.079106836359 18.409921144624  119.079106836359 18.409921144624  C 119.079106836359 18.409921144624  122.263165173866 20.6001717746127  122.263165173866 20.6001717746127  C 122.263165173866 20.6001717746127  120.597405666251 23.3444269757163  120.597405666251 23.3444269757163  C 120.597405666251 23.3444269757163  117.648192111785 36.1853081201604  117.648192111785 36.1853081201604  C 117.648192111785 36.1853081201604  117.244040624692 45.8964761509811  117.244040624692 45.8964761509811  C 117.244040624692 45.8964761509811  107.47886685546 51.7715013702451  107.47886685546 51.7715013702451  C 107.47886685546 51.7715013702451  104.17192461985 59.9312586192229  104.17192461985 59.9312586192229  C 104.17192461985 59.9312586192229  107.361444463939 62.215990648937  107.361444463939 62.215990648937  C 107.361444463939 62.215990648937  107.342329190901 66.1777675237693  107.342329190901 66.1777675237693  C 107.342329190901 66.1777675237693  112.252223608429 66.3194896233569  112.252223608429 66.3194896233569  C 112.252223608429 66.3194896233569  111.487612686901 69.2119088376655  111.487612686901 69.2119088376655  C 111.487612686901 69.2119088376655  109.324856080292 69.5640667820953  109.324856080292 69.5640667820953  C 109.324856080292 69.5640667820953  109.079088284087 71.5159666082321  109.079088284087 71.5159666082321  C 109.079088284087 71.5159666082321  107.656365819386 71.6512467942021  107.656365819386 71.6512467942021  C 107.656365819386 71.6512467942021  102.476126826032 64.9301835864915  102.476126826032 64.9301835864915  C 102.476126826032 64.9301835864915  100.67656040715 64.6832435644829  100.67656040715 64.6832435644829  C 100.67656040715 64.6832435644829  94.6907491929003 68.1210781317497  94.6907491929003 68.1210781317497  C 94.6907491929003 68.1210781317497  88.7622837977653 66.3280788415137  88.7622837977653 66.3280788415137  C 88.7622837977653 66.3280788415137  84.6415770813865 65.9694789834665  84.6415770813865 65.9694789834665  C 84.6415770813865 65.9694789834665  82.4323976688284 66.832695408227  82.4323976688284 66.832695408227  C 82.4323976688284 66.832695408227  77.9430392581411 66.6458799133159  77.9430392581411 66.6458799133159  C 77.9430392581411 66.6458799133159  73.4263733145424 69.2634441466066  73.4263733145424 69.2634441466066  C 73.4263733145424 69.2634441466066  69.5213961081661 69.4116081598119  69.5213961081661 69.4116081598119  C 69.5213961081661 69.4116081598119  58.2720792234771 66.2378920508671  58.2720792234771 66.2378920508671  C 58.2720792234771 66.2378920508671  54.6429080995092 67.7474471419278  54.6429080995092 67.7474471419278  C 54.6429080995092 67.7474471419278  50.7352001398416 67.6422292195069  50.7352001398416 67.6422292195069  C 50.7352001398416 67.6422292195069  47.8651784308196 65.3209930126268  47.8651784308196 65.3209930126268  C 47.8651784308196 65.3209930126268  40.1917616826258 63.0233771556778  40.1917616826258 63.0233771556778  C 40.1917616826258 63.0233771556778  31.9612712630326 63.7534606990073  31.9612712630326 63.7534606990073  C 31.9612712630326 63.7534606990073  29.9678213604771 65.0847895133141  29.9678213604771 65.0847895133141  C 29.9678213604771 65.0847895133141  28.889173810464 68.619252784845  28.889173810464 68.619252784845  C 28.889173810464 68.619252784845  26.6963789176528 71.092947614009  26.6963789176528 71.092947614009  C 26.6963789176528 71.092947614009  26.1638820258741 76.5535430572062  26.1638820258741 76.5535430572062  C 26.1638820258741 76.5535430572062  20.3255314893481 73.03411091745  20.3255314893481 73.03411091745  C 20.3255314893481 73.03411091745  17.5811244317201 73.0512893537638  17.5811244317201 73.0512893537638  Z " stroke-width="2" stroke="#505050" fill="none" stroke-opacity="0.211764705882353" transform="matrix(1 0 0 1 1794 1887 )" mask="url(#clip710)" />
  </g>
</svg>