<?xml version="1.0" encoding="utf-8"?>
<svg version="1.1" xmlns:xlink="http://www.w3.org/1999/xlink" width="96px" height="61px" xmlns="http://www.w3.org/2000/svg">
  <defs>
    <mask fill="white" id="clip711">
      <path d="M 50.1017304891759 53.2571316627611  C 50.1017304891759 53.2571316627611  46.114097313143 57.5178229294974  46.114097313143 57.5178229294974  C 46.114097313143 57.5178229294974  38.102999609187 59.6836922646853  38.102999609187 59.6836922646853  C 38.102999609187 59.6836922646853  35.1711030268114 59.3672083757463  35.1711030268114 59.3672083757463  C 35.1711030268114 59.3672083757463  32.203418035449 60.714956093269  32.203418035449 60.714956093269  C 32.203418035449 60.714956093269  26.0312939625044 60.5836260441175  26.0312939625044 60.5836260441175  C 26.0312939625044 60.5836260441175  21.8991092018041 56.8202666028564  21.8991092018041 56.8202666028564  C 21.8991092018041 56.8202666028564  19.3553792092077 52.4605395613499  19.3553792092077 52.4605395613499  C 19.3553792092077 52.4605395613499  13.8907644523854 48.4883438124216  13.8907644523854 48.4883438124216  C 13.8907644523854 48.4883438124216  8.09028924199538 48.5636971193119  8.09028924199538 48.5636971193119  C 8.09028924199538 48.5636971193119  1.27947971636422 48.5593912160609  1.27947971636422 48.5593912160609  C 1.27947971636422 48.5593912160609  1.72270539689248 38.8215910142172  1.72270539689248 38.8215910142172  C 1.72270539689248 38.8215910142172  1.52724562473395 34.9656546530625  1.52724562473395 34.9656546530625  C 1.52724562473395 34.9656546530625  2.98080562050336 29.5736040989359  2.98080562050336 29.5736040989359  C 2.98080562050336 29.5736040989359  5.35935834085308 27.7113009429343  5.35935834085308 27.7113009429343  C 5.35935834085308 27.7113009429343  9.10612946631136 23.9436355984226  9.10612946631136 23.9436355984226  C 9.10612946631136 23.9436355984226  8.29125492322873 22.3052394114661  8.29125492322873 22.3052394114661  C 8.29125492322873 22.3052394114661  9.81088582789675 19.8487216068445  9.81088582789675 19.8487216068445  C 9.81088582789675 19.8487216068445  8.0765244693082 16.2231510696113  8.0765244693082 16.2231510696113  C 8.0765244693082 16.2231510696113  8.37659651388935 14.1907647352005  8.37659651388935 14.1907647352005  C 8.37659651388935 14.1907647352005  8.91342264869058 8.71580875171841  8.91342264869058 8.71580875171841  C 8.91342264869058 8.71580875171841  11.1240451422564 6.23560847921676  11.1240451422564 6.23560847921676  C 11.1240451422564 6.23560847921676  12.211462184546 2.69185010375012  12.211462184546 2.69185010375012  C 12.211462184546 2.69185010375012  14.2211189968784 1.3570200959804  14.2211189968784 1.3570200959804  C 14.2211189968784 1.3570200959804  22.5185239727284 0.625016543332433  22.5185239727284 0.625016543332433  C 22.5185239727284 0.625016543332433  30.2543262229401 2.92867478254824  30.2543262229401 2.92867478254824  C 30.2543262229401 2.92867478254824  33.1476814417915 5.25601548964369  33.1476814417915 5.25601548964369  C 33.1476814417915 5.25601548964369  37.087159384871 5.36151011929027  37.087159384871 5.36151011929027  C 37.087159384871 5.36151011929027  40.7458359651314 3.84798512660903  40.7458359651314 3.84798512660903  C 40.7458359651314 3.84798512660903  52.0866107106715 7.03004762900268  52.0866107106715 7.03004762900268  C 52.0866107106715 7.03004762900268  56.0233356992135 6.88149396684748  56.0233356992135 6.88149396684748  C 56.0233356992135 6.88149396684748  60.5767225041423 4.25704593544199  60.5767225041423 4.25704593544199  C 60.5767225041423 4.25704593544199  65.1025797636969 4.44435272685481  65.1025797636969 4.44435272685481  C 65.1025797636969 4.44435272685481  67.3297199844872 3.57886617342962  67.3297199844872 3.57886617342962  C 67.3297199844872 3.57886617342962  71.483928381487 3.93840909487727  71.483928381487 3.93840909487727  C 71.483928381487 3.93840909487727  77.4605926822735 5.73612370211591  77.4605926822735 5.73612370211591  C 77.4605926822735 5.73612370211591  83.4950690283463 2.28924814979384  83.4950690283463 2.28924814979384  C 83.4950690283463 2.28924814979384  85.3092660685204 2.53683758671894  85.3092660685204 2.53683758671894  C 85.3092660685204 2.53683758671894  90.5316208260479 9.27557617433154  90.5316208260479 9.27557617433154  C 90.5316208260479 9.27557617433154  91.965910140055 9.13994022192899  91.965910140055 9.13994022192899  C 91.965910140055 9.13994022192899  95.0216896766156 11.5856932684237  95.0216896766156 11.5856932684237  C 95.0216896766156 11.5856932684237  94.1820385426959 12.6923104038976  94.1820385426959 12.6923104038976  C 94.1820385426959 12.6923104038976  93.771848316617 14.7290026415594  93.771848316617 14.7290026415594  C 93.771848316617 14.7290026415594  87.2721226537165 19.4590373626405  87.2721226537165 19.4590373626405  C 87.2721226537165 19.4590373626405  85.2294303869346 23.3515739014278  85.2294303869346 23.3515739014278  C 85.2294303869346 23.3515739014278  84.1420133446452 26.5164127908178  84.1420133446452 26.5164127908178  C 84.1420133446452 26.5164127908178  82.5040053948669 27.8706193632165  82.5040053948669 27.8706193632165  C 82.5040053948669 27.8706193632165  80.9458331266749 33.6868013875537  80.9458331266749 33.6868013875537  C 80.9458331266749 33.6868013875537  76.8191542750494 36.1842252730587  76.8191542750494 36.1842252730587  C 76.8191542750494 36.1842252730587  75.6243720057998 39.2500283876788  75.6243720057998 39.2500283876788  C 75.6243720057998 39.2500283876788  73.8900106472113 41.6871696276714  73.8900106472113 41.6871696276714  C 73.8900106472113 41.6871696276714  73.1687365584016 44.1996641745544  73.1687365584016 44.1996641745544  C 73.1687365584016 44.1996641745544  67.8637931647511 46.2342034605908  67.8637931647511 46.2342034605908  C 67.8637931647511 46.2342034605908  63.5306427228174 43.7518502364638  63.5306427228174 43.7518502364638  C 63.5306427228174 43.7518502364638  60.6042520495166 43.850886011234  60.6042520495166 43.850886011234  C 60.6042520495166 43.850886011234  56.0068179719888 47.3860325801987  56.0068179719888 47.3860325801987  C 56.0068179719888 47.3860325801987  53.7741718421235 47.4398563708346  53.7741718421235 47.4398563708346  C 53.7741718421235 47.4398563708346  50.1017304891759 53.2571316627611  50.1017304891759 53.2571316627611  Z " fill-rule="evenodd" />
    </mask>
  </defs>
  <g transform="matrix(1 0 0 1 -1812 -1949 )">
    <path d="M 50.1017304891759 53.2571316627611  C 50.1017304891759 53.2571316627611  46.114097313143 57.5178229294974  46.114097313143 57.5178229294974  C 46.114097313143 57.5178229294974  38.102999609187 59.6836922646853  38.102999609187 59.6836922646853  C 38.102999609187 59.6836922646853  35.1711030268114 59.3672083757463  35.1711030268114 59.3672083757463  C 35.1711030268114 59.3672083757463  32.203418035449 60.714956093269  32.203418035449 60.714956093269  C 32.203418035449 60.714956093269  26.0312939625044 60.5836260441175  26.0312939625044 60.5836260441175  C 26.0312939625044 60.5836260441175  21.8991092018041 56.8202666028564  21.8991092018041 56.8202666028564  C 21.8991092018041 56.8202666028564  19.3553792092077 52.4605395613499  19.3553792092077 52.4605395613499  C 19.3553792092077 52.4605395613499  13.8907644523854 48.4883438124216  13.8907644523854 48.4883438124216  C 13.8907644523854 48.4883438124216  8.09028924199538 48.5636971193119  8.09028924199538 48.5636971193119  C 8.09028924199538 48.5636971193119  1.27947971636422 48.5593912160609  1.27947971636422 48.5593912160609  C 1.27947971636422 48.5593912160609  1.72270539689248 38.8215910142172  1.72270539689248 38.8215910142172  C 1.72270539689248 38.8215910142172  1.52724562473395 34.9656546530625  1.52724562473395 34.9656546530625  C 1.52724562473395 34.9656546530625  2.98080562050336 29.5736040989359  2.98080562050336 29.5736040989359  C 2.98080562050336 29.5736040989359  5.35935834085308 27.7113009429343  5.35935834085308 27.7113009429343  C 5.35935834085308 27.7113009429343  9.10612946631136 23.9436355984226  9.10612946631136 23.9436355984226  C 9.10612946631136 23.9436355984226  8.29125492322873 22.3052394114661  8.29125492322873 22.3052394114661  C 8.29125492322873 22.3052394114661  9.81088582789675 19.8487216068445  9.81088582789675 19.8487216068445  C 9.81088582789675 19.8487216068445  8.0765244693082 16.2231510696113  8.0765244693082 16.2231510696113  C 8.0765244693082 16.2231510696113  8.37659651388935 14.1907647352005  8.37659651388935 14.1907647352005  C 8.37659651388935 14.1907647352005  8.91342264869058 8.71580875171841  8.91342264869058 8.71580875171841  C 8.91342264869058 8.71580875171841  11.1240451422564 6.23560847921676  11.1240451422564 6.23560847921676  C 11.1240451422564 6.23560847921676  12.211462184546 2.69185010375012  12.211462184546 2.69185010375012  C 12.211462184546 2.69185010375012  14.2211189968784 1.3570200959804  14.2211189968784 1.3570200959804  C 14.2211189968784 1.3570200959804  22.5185239727284 0.625016543332433  22.5185239727284 0.625016543332433  C 22.5185239727284 0.625016543332433  30.2543262229401 2.92867478254824  30.2543262229401 2.92867478254824  C 30.2543262229401 2.92867478254824  33.1476814417915 5.25601548964369  33.1476814417915 5.25601548964369  C 33.1476814417915 5.25601548964369  37.087159384871 5.36151011929027  37.087159384871 5.36151011929027  C 37.087159384871 5.36151011929027  40.7458359651314 3.84798512660903  40.7458359651314 3.84798512660903  C 40.7458359651314 3.84798512660903  52.0866107106715 7.03004762900268  52.0866107106715 7.03004762900268  C 52.0866107106715 7.03004762900268  56.0233356992135 6.88149396684748  56.0233356992135 6.88149396684748  C 56.0233356992135 6.88149396684748  60.5767225041423 4.25704593544199  60.5767225041423 4.25704593544199  C 60.5767225041423 4.25704593544199  65.1025797636969 4.44435272685481  65.1025797636969 4.44435272685481  C 65.1025797636969 4.44435272685481  67.3297199844872 3.57886617342962  67.3297199844872 3.57886617342962  C 67.3297199844872 3.57886617342962  71.483928381487 3.93840909487727  71.483928381487 3.93840909487727  C 71.483928381487 3.93840909487727  77.4605926822735 5.73612370211591  77.4605926822735 5.73612370211591  C 77.4605926822735 5.73612370211591  83.4950690283463 2.28924814979384  83.4950690283463 2.28924814979384  C 83.4950690283463 2.28924814979384  85.3092660685204 2.53683758671894  85.3092660685204 2.53683758671894  C 85.3092660685204 2.53683758671894  90.5316208260479 9.27557617433154  90.5316208260479 9.27557617433154  C 90.5316208260479 9.27557617433154  91.965910140055 9.13994022192899  91.965910140055 9.13994022192899  C 91.965910140055 9.13994022192899  95.0216896766156 11.5856932684237  95.0216896766156 11.5856932684237  C 95.0216896766156 11.5856932684237  94.1820385426959 12.6923104038976  94.1820385426959 12.6923104038976  C 94.1820385426959 12.6923104038976  93.771848316617 14.7290026415594  93.771848316617 14.7290026415594  C 93.771848316617 14.7290026415594  87.2721226537165 19.4590373626405  87.2721226537165 19.4590373626405  C 87.2721226537165 19.4590373626405  85.2294303869346 23.3515739014278  85.2294303869346 23.3515739014278  C 85.2294303869346 23.3515739014278  84.1420133446452 26.5164127908178  84.1420133446452 26.5164127908178  C 84.1420133446452 26.5164127908178  82.5040053948669 27.8706193632165  82.5040053948669 27.8706193632165  C 82.5040053948669 27.8706193632165  80.9458331266749 33.6868013875537  80.9458331266749 33.6868013875537  C 80.9458331266749 33.6868013875537  76.8191542750494 36.1842252730587  76.8191542750494 36.1842252730587  C 76.8191542750494 36.1842252730587  75.6243720057998 39.2500283876788  75.6243720057998 39.2500283876788  C 75.6243720057998 39.2500283876788  73.8900106472113 41.6871696276714  73.8900106472113 41.6871696276714  C 73.8900106472113 41.6871696276714  73.1687365584016 44.1996641745544  73.1687365584016 44.1996641745544  C 73.1687365584016 44.1996641745544  67.8637931647511 46.2342034605908  67.8637931647511 46.2342034605908  C 67.8637931647511 46.2342034605908  63.5306427228174 43.7518502364638  63.5306427228174 43.7518502364638  C 63.5306427228174 43.7518502364638  60.6042520495166 43.850886011234  60.6042520495166 43.850886011234  C 60.6042520495166 43.850886011234  56.0068179719888 47.3860325801987  56.0068179719888 47.3860325801987  C 56.0068179719888 47.3860325801987  53.7741718421235 47.4398563708346  53.7741718421235 47.4398563708346  C 53.7741718421235 47.4398563708346  50.1017304891759 53.2571316627611  50.1017304891759 53.2571316627611  Z " fill-rule="nonzero" fill="#f2f2f2" stroke="none" transform="matrix(1 0 0 1 1812 1949 )" />
    <path d="M 50.1017304891759 53.2571316627611  C 50.1017304891759 53.2571316627611  46.114097313143 57.5178229294974  46.114097313143 57.5178229294974  C 46.114097313143 57.5178229294974  38.102999609187 59.6836922646853  38.102999609187 59.6836922646853  C 38.102999609187 59.6836922646853  35.1711030268114 59.3672083757463  35.1711030268114 59.3672083757463  C 35.1711030268114 59.3672083757463  32.203418035449 60.714956093269  32.203418035449 60.714956093269  C 32.203418035449 60.714956093269  26.0312939625044 60.5836260441175  26.0312939625044 60.5836260441175  C 26.0312939625044 60.5836260441175  21.8991092018041 56.8202666028564  21.8991092018041 56.8202666028564  C 21.8991092018041 56.8202666028564  19.3553792092077 52.4605395613499  19.3553792092077 52.4605395613499  C 19.3553792092077 52.4605395613499  13.8907644523854 48.4883438124216  13.8907644523854 48.4883438124216  C 13.8907644523854 48.4883438124216  8.09028924199538 48.5636971193119  8.09028924199538 48.5636971193119  C 8.09028924199538 48.5636971193119  1.27947971636422 48.5593912160609  1.27947971636422 48.5593912160609  C 1.27947971636422 48.5593912160609  1.72270539689248 38.8215910142172  1.72270539689248 38.8215910142172  C 1.72270539689248 38.8215910142172  1.52724562473395 34.9656546530625  1.52724562473395 34.9656546530625  C 1.52724562473395 34.9656546530625  2.98080562050336 29.5736040989359  2.98080562050336 29.5736040989359  C 2.98080562050336 29.5736040989359  5.35935834085308 27.7113009429343  5.35935834085308 27.7113009429343  C 5.35935834085308 27.7113009429343  9.10612946631136 23.9436355984226  9.10612946631136 23.9436355984226  C 9.10612946631136 23.9436355984226  8.29125492322873 22.3052394114661  8.29125492322873 22.3052394114661  C 8.29125492322873 22.3052394114661  9.81088582789675 19.8487216068445  9.81088582789675 19.8487216068445  C 9.81088582789675 19.8487216068445  8.0765244693082 16.2231510696113  8.0765244693082 16.2231510696113  C 8.0765244693082 16.2231510696113  8.37659651388935 14.1907647352005  8.37659651388935 14.1907647352005  C 8.37659651388935 14.1907647352005  8.91342264869058 8.71580875171841  8.91342264869058 8.71580875171841  C 8.91342264869058 8.71580875171841  11.1240451422564 6.23560847921676  11.1240451422564 6.23560847921676  C 11.1240451422564 6.23560847921676  12.211462184546 2.69185010375012  12.211462184546 2.69185010375012  C 12.211462184546 2.69185010375012  14.2211189968784 1.3570200959804  14.2211189968784 1.3570200959804  C 14.2211189968784 1.3570200959804  22.5185239727284 0.625016543332433  22.5185239727284 0.625016543332433  C 22.5185239727284 0.625016543332433  30.2543262229401 2.92867478254824  30.2543262229401 2.92867478254824  C 30.2543262229401 2.92867478254824  33.1476814417915 5.25601548964369  33.1476814417915 5.25601548964369  C 33.1476814417915 5.25601548964369  37.087159384871 5.36151011929027  37.087159384871 5.36151011929027  C 37.087159384871 5.36151011929027  40.7458359651314 3.84798512660903  40.7458359651314 3.84798512660903  C 40.7458359651314 3.84798512660903  52.0866107106715 7.03004762900268  52.0866107106715 7.03004762900268  C 52.0866107106715 7.03004762900268  56.0233356992135 6.88149396684748  56.0233356992135 6.88149396684748  C 56.0233356992135 6.88149396684748  60.5767225041423 4.25704593544199  60.5767225041423 4.25704593544199  C 60.5767225041423 4.25704593544199  65.1025797636969 4.44435272685481  65.1025797636969 4.44435272685481  C 65.1025797636969 4.44435272685481  67.3297199844872 3.57886617342962  67.3297199844872 3.57886617342962  C 67.3297199844872 3.57886617342962  71.483928381487 3.93840909487727  71.483928381487 3.93840909487727  C 71.483928381487 3.93840909487727  77.4605926822735 5.73612370211591  77.4605926822735 5.73612370211591  C 77.4605926822735 5.73612370211591  83.4950690283463 2.28924814979384  83.4950690283463 2.28924814979384  C 83.4950690283463 2.28924814979384  85.3092660685204 2.53683758671894  85.3092660685204 2.53683758671894  C 85.3092660685204 2.53683758671894  90.5316208260479 9.27557617433154  90.5316208260479 9.27557617433154  C 90.5316208260479 9.27557617433154  91.965910140055 9.13994022192899  91.965910140055 9.13994022192899  C 91.965910140055 9.13994022192899  95.0216896766156 11.5856932684237  95.0216896766156 11.5856932684237  C 95.0216896766156 11.5856932684237  94.1820385426959 12.6923104038976  94.1820385426959 12.6923104038976  C 94.1820385426959 12.6923104038976  93.771848316617 14.7290026415594  93.771848316617 14.7290026415594  C 93.771848316617 14.7290026415594  87.2721226537165 19.4590373626405  87.2721226537165 19.4590373626405  C 87.2721226537165 19.4590373626405  85.2294303869346 23.3515739014278  85.2294303869346 23.3515739014278  C 85.2294303869346 23.3515739014278  84.1420133446452 26.5164127908178  84.1420133446452 26.5164127908178  C 84.1420133446452 26.5164127908178  82.5040053948669 27.8706193632165  82.5040053948669 27.8706193632165  C 82.5040053948669 27.8706193632165  80.9458331266749 33.6868013875537  80.9458331266749 33.6868013875537  C 80.9458331266749 33.6868013875537  76.8191542750494 36.1842252730587  76.8191542750494 36.1842252730587  C 76.8191542750494 36.1842252730587  75.6243720057998 39.2500283876788  75.6243720057998 39.2500283876788  C 75.6243720057998 39.2500283876788  73.8900106472113 41.6871696276714  73.8900106472113 41.6871696276714  C 73.8900106472113 41.6871696276714  73.1687365584016 44.1996641745544  73.1687365584016 44.1996641745544  C 73.1687365584016 44.1996641745544  67.8637931647511 46.2342034605908  67.8637931647511 46.2342034605908  C 67.8637931647511 46.2342034605908  63.5306427228174 43.7518502364638  63.5306427228174 43.7518502364638  C 63.5306427228174 43.7518502364638  60.6042520495166 43.850886011234  60.6042520495166 43.850886011234  C 60.6042520495166 43.850886011234  56.0068179719888 47.3860325801987  56.0068179719888 47.3860325801987  C 56.0068179719888 47.3860325801987  53.7741718421235 47.4398563708346  53.7741718421235 47.4398563708346  C 53.7741718421235 47.4398563708346  50.1017304891759 53.2571316627611  50.1017304891759 53.2571316627611  Z " stroke-width="2" stroke="#505050" fill="none" stroke-opacity="0.211764705882353" transform="matrix(1 0 0 1 1812 1949 )" mask="url(#clip711)" />
  </g>
</svg>