<?xml version="1.0" encoding="utf-8"?>
<svg version="1.1" xmlns:xlink="http://www.w3.org/1999/xlink" width="41px" height="29px" xmlns="http://www.w3.org/2000/svg">
  <defs>
    <mask fill="white" id="clip712">
      <path d="M 18.5124014120268 25.6509104146388  C 18.5124014120268 25.6509104146388  17.3216109268564 26.4198540846494  17.3216109268564 26.4198540846494  C 17.3216109268564 26.4198540846494  14.5844858780047 24.5395136894043  14.5844858780047 24.5395136894043  C 14.5844858780047 24.5395136894043  10.8851343944538 22.1297366689062  10.8851343944538 22.1297366689062  C 10.8851343944538 22.1297366689062  9.14409712111213 20.11283523937  9.14409712111213 20.11283523937  C 9.14409712111213 20.11283523937  5.80875505127437 18.230393905136  5.80875505127437 18.230393905136  C 5.80875505127437 18.230393905136  1.84415639804088 13.993866819723  1.84415639804088 13.993866819723  C 1.84415639804088 13.993866819723  2.72455125911462 13.0652517865406  2.72455125911462 13.0652517865406  C 2.72455125911462 13.0652517865406  4.0310346587211 13.9686555518537  4.0310346587211 13.9686555518537  C 4.0310346587211 13.9686555518537  4.62925167970738 13.5442658760554  4.62925167970738 13.5442658760554  C 4.62925167970738 13.5442658760554  7.08984244527286 13.2984560143305  7.08984244527286 13.2984560143305  C 7.08984244527286 13.2984560143305  8.080286663981 11.9244419154589  8.080286663981 11.9244419154589  C 8.080286663981 11.9244419154589  9.24003758674193 11.8698175017424  9.24003758674193 11.8698175017424  C 9.24003758674193 11.8698175017424  9.07073088268913 8.90959446609983  9.07073088268913 8.90959446609983  C 9.07073088268913 8.90959446609983  10.9274610704669 8.76883155383007  10.9274610704669 8.76883155383007  C 10.9274610704669 8.76883155383007  12.5782014349807 8.81085033361234  12.5782014349807 8.81085033361234  C 12.5782014349807 8.81085033361234  14.2853773675117 7.20153106796112  14.2853773675117 7.20153106796112  C 14.2853773675117 7.20153106796112  16.6189881050377 8.42007568163934  16.6189881050377 8.42007568163934  C 16.6189881050377 8.42007568163934  17.4316602844906 7.67214140151964  17.4316602844906 7.67214140151964  C 17.4316602844906 7.67214140151964  18.8876979393435 6.95572120623656  18.8876979393435 6.95572120623656  C 18.8876979393435 6.95572120623656  23.700218993803 5.29387846585811  23.700218993803 5.29387846585811  C 23.700218993803 5.29387846585811  23.8300208002435 4.0480216453216  23.8300208002435 4.0480216453216  C 23.8300208002435 4.0480216453216  24.5890791900796 4.10054512004918  24.5890791900796 4.10054512004918  C 24.5890791900796 4.10054512004918  25.6049194143955 2.65509909554802  25.6049194143955 2.65509909554802  C 25.6049194143955 2.65509909554802  26.4317004858528 2.47862022046367  26.4317004858528 2.47862022046367  C 26.4317004858528 2.47862022046367  27.7805105614726 3.40303337566772  27.7805105614726 3.40303337566772  C 27.7805105614726 3.40303337566772  29.366350022766 3.67825638323991  29.366350022766 3.67825638323991  C 29.366350022766 3.67825638323991  31.1130308529094 2.90721177424026  31.1130308529094 2.90721177424026  C 31.1130308529094 2.90721177424026  33.110849960731 2.90300989626193  33.110849960731 2.90300989626193  C 33.110849960731 2.90300989626193  35.8592621231861 2.1130568363603  35.8592621231861 2.1130568363603  C 35.8592621231861 2.1130568363603  36.9541121427267 1.28738781364373  36.9541121427267 1.28738781364373  C 36.9541121427267 1.28738781364373  39.6686629643714 1.41134321400051  39.6686629643714 1.41134321400051  C 39.6686629643714 1.41134321400051  38.9857925913589 1.99330331398151  38.9857925913589 1.99330331398151  C 38.9857925913589 1.99330331398151  38.5822782800332 3.34420708397282  38.5822782800332 3.34420708397282  C 38.5822782800332 3.34420708397282  39.3893069026844 5.55649583949565  39.3893069026844 5.55649583949565  C 39.3893069026844 5.55649583949565  37.5664380557173 7.61331510982509  37.5664380557173 7.61331510982509  C 37.5664380557173 7.61331510982509  36.7199045354538 10.0377987032469  36.7199045354538 10.0377987032469  C 36.7199045354538 10.0377987032469  36.4631227009741 12.6891837074916  36.4631227009741 12.6891837074916  C 36.4631227009741 12.6891837074916  36.8863894611056 15.7638915319323  36.8863894611056 15.7638915319323  C 36.8863894611056 15.7638915319323  37.0867357275679 18.4656990719152  37.0867357275679 18.4656990719152  C 37.0867357275679 18.4656990719152  35.8790145719922 19.0518610498742  35.8790145719922 19.0518610498742  C 35.8790145719922 19.0518610498742  35.1397086309623 21.6129056775874  35.1397086309623 21.6129056775874  C 35.1397086309623 21.6129056775874  35.6814900839309 23.192811797391  35.6814900839309 23.192811797391  C 35.6814900839309 23.192811797391  34.0646110602277 24.720194442467  34.0646110602277 24.720194442467  C 34.0646110602277 24.720194442467  34.4314422523418 26.3316146471072  34.4314422523418 26.3316146471072  C 34.4314422523418 26.3316146471072  35.6448069647192 27.3106522160279  35.6448069647192 27.3106522160279  C 35.6448069647192 27.3106522160279  33.7485718793294 28.5754174874663  33.7485718793294 28.5754174874663  C 33.7485718793294 28.5754174874663  31.4149611418034 28.1783400185264  31.4149611418034 28.1783400185264  C 31.4149611418034 28.1783400185264  30.102834185395 26.9513916488918  30.102834185395 26.9513916488918  C 30.102834185395 26.9513916488918  27.5942731870147 26.453469108475  27.5942731870147 26.453469108475  C 27.5942731870147 26.453469108475  25.7742261184483 27.230816534442  25.7742261184483 27.230816534442  C 25.7742261184483 27.230816534442  18.5124014120268 25.6509104146388  18.5124014120268 25.6509104146388  Z " fill-rule="evenodd" />
    </mask>
  </defs>
  <g transform="matrix(1 0 0 1 -1116 -1941 )">
    <path d="M 18.5124014120268 25.6509104146388  C 18.5124014120268 25.6509104146388  17.3216109268564 26.4198540846494  17.3216109268564 26.4198540846494  C 17.3216109268564 26.4198540846494  14.5844858780047 24.5395136894043  14.5844858780047 24.5395136894043  C 14.5844858780047 24.5395136894043  10.8851343944538 22.1297366689062  10.8851343944538 22.1297366689062  C 10.8851343944538 22.1297366689062  9.14409712111213 20.11283523937  9.14409712111213 20.11283523937  C 9.14409712111213 20.11283523937  5.80875505127437 18.230393905136  5.80875505127437 18.230393905136  C 5.80875505127437 18.230393905136  1.84415639804088 13.993866819723  1.84415639804088 13.993866819723  C 1.84415639804088 13.993866819723  2.72455125911462 13.0652517865406  2.72455125911462 13.0652517865406  C 2.72455125911462 13.0652517865406  4.0310346587211 13.9686555518537  4.0310346587211 13.9686555518537  C 4.0310346587211 13.9686555518537  4.62925167970738 13.5442658760554  4.62925167970738 13.5442658760554  C 4.62925167970738 13.5442658760554  7.08984244527286 13.2984560143305  7.08984244527286 13.2984560143305  C 7.08984244527286 13.2984560143305  8.080286663981 11.9244419154589  8.080286663981 11.9244419154589  C 8.080286663981 11.9244419154589  9.24003758674193 11.8698175017424  9.24003758674193 11.8698175017424  C 9.24003758674193 11.8698175017424  9.07073088268913 8.90959446609983  9.07073088268913 8.90959446609983  C 9.07073088268913 8.90959446609983  10.9274610704669 8.76883155383007  10.9274610704669 8.76883155383007  C 10.9274610704669 8.76883155383007  12.5782014349807 8.81085033361234  12.5782014349807 8.81085033361234  C 12.5782014349807 8.81085033361234  14.2853773675117 7.20153106796112  14.2853773675117 7.20153106796112  C 14.2853773675117 7.20153106796112  16.6189881050377 8.42007568163934  16.6189881050377 8.42007568163934  C 16.6189881050377 8.42007568163934  17.4316602844906 7.67214140151964  17.4316602844906 7.67214140151964  C 17.4316602844906 7.67214140151964  18.8876979393435 6.95572120623656  18.8876979393435 6.95572120623656  C 18.8876979393435 6.95572120623656  23.700218993803 5.29387846585811  23.700218993803 5.29387846585811  C 23.700218993803 5.29387846585811  23.8300208002435 4.0480216453216  23.8300208002435 4.0480216453216  C 23.8300208002435 4.0480216453216  24.5890791900796 4.10054512004918  24.5890791900796 4.10054512004918  C 24.5890791900796 4.10054512004918  25.6049194143955 2.65509909554802  25.6049194143955 2.65509909554802  C 25.6049194143955 2.65509909554802  26.4317004858528 2.47862022046367  26.4317004858528 2.47862022046367  C 26.4317004858528 2.47862022046367  27.7805105614726 3.40303337566772  27.7805105614726 3.40303337566772  C 27.7805105614726 3.40303337566772  29.366350022766 3.67825638323991  29.366350022766 3.67825638323991  C 29.366350022766 3.67825638323991  31.1130308529094 2.90721177424026  31.1130308529094 2.90721177424026  C 31.1130308529094 2.90721177424026  33.110849960731 2.90300989626193  33.110849960731 2.90300989626193  C 33.110849960731 2.90300989626193  35.8592621231861 2.1130568363603  35.8592621231861 2.1130568363603  C 35.8592621231861 2.1130568363603  36.9541121427267 1.28738781364373  36.9541121427267 1.28738781364373  C 36.9541121427267 1.28738781364373  39.6686629643714 1.41134321400051  39.6686629643714 1.41134321400051  C 39.6686629643714 1.41134321400051  38.9857925913589 1.99330331398151  38.9857925913589 1.99330331398151  C 38.9857925913589 1.99330331398151  38.5822782800332 3.34420708397282  38.5822782800332 3.34420708397282  C 38.5822782800332 3.34420708397282  39.3893069026844 5.55649583949565  39.3893069026844 5.55649583949565  C 39.3893069026844 5.55649583949565  37.5664380557173 7.61331510982509  37.5664380557173 7.61331510982509  C 37.5664380557173 7.61331510982509  36.7199045354538 10.0377987032469  36.7199045354538 10.0377987032469  C 36.7199045354538 10.0377987032469  36.4631227009741 12.6891837074916  36.4631227009741 12.6891837074916  C 36.4631227009741 12.6891837074916  36.8863894611056 15.7638915319323  36.8863894611056 15.7638915319323  C 36.8863894611056 15.7638915319323  37.0867357275679 18.4656990719152  37.0867357275679 18.4656990719152  C 37.0867357275679 18.4656990719152  35.8790145719922 19.0518610498742  35.8790145719922 19.0518610498742  C 35.8790145719922 19.0518610498742  35.1397086309623 21.6129056775874  35.1397086309623 21.6129056775874  C 35.1397086309623 21.6129056775874  35.6814900839309 23.192811797391  35.6814900839309 23.192811797391  C 35.6814900839309 23.192811797391  34.0646110602277 24.720194442467  34.0646110602277 24.720194442467  C 34.0646110602277 24.720194442467  34.4314422523418 26.3316146471072  34.4314422523418 26.3316146471072  C 34.4314422523418 26.3316146471072  35.6448069647192 27.3106522160279  35.6448069647192 27.3106522160279  C 35.6448069647192 27.3106522160279  33.7485718793294 28.5754174874663  33.7485718793294 28.5754174874663  C 33.7485718793294 28.5754174874663  31.4149611418034 28.1783400185264  31.4149611418034 28.1783400185264  C 31.4149611418034 28.1783400185264  30.102834185395 26.9513916488918  30.102834185395 26.9513916488918  C 30.102834185395 26.9513916488918  27.5942731870147 26.453469108475  27.5942731870147 26.453469108475  C 27.5942731870147 26.453469108475  25.7742261184483 27.230816534442  25.7742261184483 27.230816534442  C 25.7742261184483 27.230816534442  18.5124014120268 25.6509104146388  18.5124014120268 25.6509104146388  Z " fill-rule="nonzero" fill="#f2f2f2" stroke="none" transform="matrix(1 0 0 1 1116 1941 )" />
    <path d="M 18.5124014120268 25.6509104146388  C 18.5124014120268 25.6509104146388  17.3216109268564 26.4198540846494  17.3216109268564 26.4198540846494  C 17.3216109268564 26.4198540846494  14.5844858780047 24.5395136894043  14.5844858780047 24.5395136894043  C 14.5844858780047 24.5395136894043  10.8851343944538 22.1297366689062  10.8851343944538 22.1297366689062  C 10.8851343944538 22.1297366689062  9.14409712111213 20.11283523937  9.14409712111213 20.11283523937  C 9.14409712111213 20.11283523937  5.80875505127437 18.230393905136  5.80875505127437 18.230393905136  C 5.80875505127437 18.230393905136  1.84415639804088 13.993866819723  1.84415639804088 13.993866819723  C 1.84415639804088 13.993866819723  2.72455125911462 13.0652517865406  2.72455125911462 13.0652517865406  C 2.72455125911462 13.0652517865406  4.0310346587211 13.9686555518537  4.0310346587211 13.9686555518537  C 4.0310346587211 13.9686555518537  4.62925167970738 13.5442658760554  4.62925167970738 13.5442658760554  C 4.62925167970738 13.5442658760554  7.08984244527286 13.2984560143305  7.08984244527286 13.2984560143305  C 7.08984244527286 13.2984560143305  8.080286663981 11.9244419154589  8.080286663981 11.9244419154589  C 8.080286663981 11.9244419154589  9.24003758674193 11.8698175017424  9.24003758674193 11.8698175017424  C 9.24003758674193 11.8698175017424  9.07073088268913 8.90959446609983  9.07073088268913 8.90959446609983  C 9.07073088268913 8.90959446609983  10.9274610704669 8.76883155383007  10.9274610704669 8.76883155383007  C 10.9274610704669 8.76883155383007  12.5782014349807 8.81085033361234  12.5782014349807 8.81085033361234  C 12.5782014349807 8.81085033361234  14.2853773675117 7.20153106796112  14.2853773675117 7.20153106796112  C 14.2853773675117 7.20153106796112  16.6189881050377 8.42007568163934  16.6189881050377 8.42007568163934  C 16.6189881050377 8.42007568163934  17.4316602844906 7.67214140151964  17.4316602844906 7.67214140151964  C 17.4316602844906 7.67214140151964  18.8876979393435 6.95572120623656  18.8876979393435 6.95572120623656  C 18.8876979393435 6.95572120623656  23.700218993803 5.29387846585811  23.700218993803 5.29387846585811  C 23.700218993803 5.29387846585811  23.8300208002435 4.0480216453216  23.8300208002435 4.0480216453216  C 23.8300208002435 4.0480216453216  24.5890791900796 4.10054512004918  24.5890791900796 4.10054512004918  C 24.5890791900796 4.10054512004918  25.6049194143955 2.65509909554802  25.6049194143955 2.65509909554802  C 25.6049194143955 2.65509909554802  26.4317004858528 2.47862022046367  26.4317004858528 2.47862022046367  C 26.4317004858528 2.47862022046367  27.7805105614726 3.40303337566772  27.7805105614726 3.40303337566772  C 27.7805105614726 3.40303337566772  29.366350022766 3.67825638323991  29.366350022766 3.67825638323991  C 29.366350022766 3.67825638323991  31.1130308529094 2.90721177424026  31.1130308529094 2.90721177424026  C 31.1130308529094 2.90721177424026  33.110849960731 2.90300989626193  33.110849960731 2.90300989626193  C 33.110849960731 2.90300989626193  35.8592621231861 2.1130568363603  35.8592621231861 2.1130568363603  C 35.8592621231861 2.1130568363603  36.9541121427267 1.28738781364373  36.9541121427267 1.28738781364373  C 36.9541121427267 1.28738781364373  39.6686629643714 1.41134321400051  39.6686629643714 1.41134321400051  C 39.6686629643714 1.41134321400051  38.9857925913589 1.99330331398151  38.9857925913589 1.99330331398151  C 38.9857925913589 1.99330331398151  38.5822782800332 3.34420708397282  38.5822782800332 3.34420708397282  C 38.5822782800332 3.34420708397282  39.3893069026844 5.55649583949565  39.3893069026844 5.55649583949565  C 39.3893069026844 5.55649583949565  37.5664380557173 7.61331510982509  37.5664380557173 7.61331510982509  C 37.5664380557173 7.61331510982509  36.7199045354538 10.0377987032469  36.7199045354538 10.0377987032469  C 36.7199045354538 10.0377987032469  36.4631227009741 12.6891837074916  36.4631227009741 12.6891837074916  C 36.4631227009741 12.6891837074916  36.8863894611056 15.7638915319323  36.8863894611056 15.7638915319323  C 36.8863894611056 15.7638915319323  37.0867357275679 18.4656990719152  37.0867357275679 18.4656990719152  C 37.0867357275679 18.4656990719152  35.8790145719922 19.0518610498742  35.8790145719922 19.0518610498742  C 35.8790145719922 19.0518610498742  35.1397086309623 21.6129056775874  35.1397086309623 21.6129056775874  C 35.1397086309623 21.6129056775874  35.6814900839309 23.192811797391  35.6814900839309 23.192811797391  C 35.6814900839309 23.192811797391  34.0646110602277 24.720194442467  34.0646110602277 24.720194442467  C 34.0646110602277 24.720194442467  34.4314422523418 26.3316146471072  34.4314422523418 26.3316146471072  C 34.4314422523418 26.3316146471072  35.6448069647192 27.3106522160279  35.6448069647192 27.3106522160279  C 35.6448069647192 27.3106522160279  33.7485718793294 28.5754174874663  33.7485718793294 28.5754174874663  C 33.7485718793294 28.5754174874663  31.4149611418034 28.1783400185264  31.4149611418034 28.1783400185264  C 31.4149611418034 28.1783400185264  30.102834185395 26.9513916488918  30.102834185395 26.9513916488918  C 30.102834185395 26.9513916488918  27.5942731870147 26.453469108475  27.5942731870147 26.453469108475  C 27.5942731870147 26.453469108475  25.7742261184483 27.230816534442  25.7742261184483 27.230816534442  C 25.7742261184483 27.230816534442  18.5124014120268 25.6509104146388  18.5124014120268 25.6509104146388  Z " stroke-width="2" stroke="#505050" fill="none" stroke-opacity="0.211764705882353" transform="matrix(1 0 0 1 1116 1941 )" mask="url(#clip712)" />
  </g>
</svg>