<?xml version="1.0" encoding="utf-8"?>
<svg version="1.1" xmlns:xlink="http://www.w3.org/1999/xlink" width="32px" height="29px" xmlns="http://www.w3.org/2000/svg">
  <defs>
    <mask fill="white" id="clip713">
      <path d="M 10.8281669438361 5.47361234186816  C 10.8281669438361 5.47361234186816  12.5625283024244 4.79710998737784  12.5625283024244 4.79710998737784  C 12.5625283024244 4.79710998737784  12.0917730765218 6.70476258948103  12.0917730765218 6.70476258948103  C 12.0917730765218 6.70476258948103  13.4242030726439 7.03671094975878  13.4242030726439 7.03671094975878  C 13.4242030726439 7.03671094975878  14.0078294345815 7.89389405731179  14.0078294345815 7.89389405731179  C 14.0078294345815 7.89389405731179  14.241830570264 8.67334242226811  14.241830570264 8.67334242226811  C 14.241830570264 8.67334242226811  17.3154828398663 8.96537294175293  17.3154828398663 8.96537294175293  C 17.3154828398663 8.96537294175293  17.3980714759896 9.37925792260571  17.3980714759896 9.37925792260571  C 17.3980714759896 9.37925792260571  14.4400432969599 9.93600675471741  14.4400432969599 9.93600675471741  C 14.4400432969599 9.93600675471741  13.3801558000446 9.98642929045583  13.3801558000446 9.98642929045583  C 13.3801558000446 9.98642929045583  13.3801558000446 10.5999034752731  13.3801558000446 10.5999034752731  C 13.3801558000446 10.5999034752731  14.1151946615416 11.5768401052047  14.1151946615416 11.5768401052047  C 14.1151946615416 11.5768401052047  13.0553071646266 12.5264645282781  13.0553071646266 12.5264645282781  C 13.0553071646266 12.5264645282781  14.1262064796915 12.7890819019157  14.1262064796915 12.7890819019157  C 14.1262064796915 12.7890819019157  18.3065464733454 11.1692579413194  18.3065464733454 11.1692579413194  C 18.3065464733454 11.1692579413194  19.6252116967801 9.68179313703619  19.6252116967801 9.68179313703619  C 19.6252116967801 9.68179313703619  19.6252116967801 8.67334242226811  19.6252116967801 8.67334242226811  C 19.6252116967801 8.67334242226811  19.1654682890273 7.97372973889765  19.1654682890273 7.97372973889765  C 19.1654682890273 7.97372973889765  17.9046151108787 7.49261471039366  17.9046151108787 7.49261471039366  C 17.9046151108787 7.49261471039366  18.1936753373102 6.39802549707231  18.1936753373102 6.39802549707231  C 18.1936753373102 6.39802549707231  17.9046151108787 5.43579544006431  17.9046151108787 5.43579544006431  C 17.9046151108787 5.43579544006431  19.0498441984548 3.33485645096387  19.0498441984548 3.33485645096387  C 19.0498441984548 3.33485645096387  20.1840614678808 2.2402672376427  20.1840614678808 2.2402672376427  C 20.1840614678808 2.2402672376427  23.3885005494631 1.3557719232314  23.3885005494631 1.3557719232314  C 23.3885005494631 1.3557719232314  29.8028846217026 1.63519680878174  29.8028846217026 1.63519680878174  C 29.8028846217026 1.63519680878174  31.2454327993223 4.96098322852763  31.2454327993223 4.96098322852763  C 31.2454327993223 4.96098322852763  29.3211175776505 13.8374504574768  29.3211175776505 13.8374504574768  C 29.3211175776505 13.8374504574768  27.3665198560666 18.9584728573012  27.3665198560666 18.9584728573012  C 27.3665198560666 18.9584728573012  22.727791460477 18.9626747352795  22.727791460477 18.9626747352795  C 22.727791460477 18.9626747352795  24.0244330476121 28.8160785941603  24.0244330476121 28.8160785941603  C 24.0244330476121 28.8160785941603  19.7821301054141 26.6395058014523  19.7821301054141 26.6395058014523  C 19.7821301054141 26.6395058014523  12.895635801455 22.5300691387719  12.895635801455 22.5300691387719  C 12.895635801455 22.5300691387719  5.74345991318091 24.4860433376243  5.74345991318091 24.4860433376243  C 5.74345991318091 24.4860433376243  0.09164424781261 23.746512813461  0.09164424781261 23.746512813461  C 0.09164424781261 23.746512813461  2.02421833309677 21.1434494059656  2.02421833309677 21.1434494059656  C 2.02421833309677 21.1434494059656  4.54867764393111 18.6034141681434  4.54867764393111 18.6034141681434  C 4.54867764393111 18.6034141681434  8.06970649731943 15.9793413707569  8.06970649731943 15.9793413707569  C 8.06970649731943 15.9793413707569  10.1536930821628 10.0578612160853  10.1536930821628 10.0578612160853  C 10.1536930821628 10.0578612160853  10.8281669438361 5.47361234186816  10.8281669438361 5.47361234186816  Z " fill-rule="evenodd" />
    </mask>
  </defs>
  <g transform="matrix(1 0 0 1 -1817 -1651 )">
    <path d="M 10.8281669438361 5.47361234186816  C 10.8281669438361 5.47361234186816  12.5625283024244 4.79710998737784  12.5625283024244 4.79710998737784  C 12.5625283024244 4.79710998737784  12.0917730765218 6.70476258948103  12.0917730765218 6.70476258948103  C 12.0917730765218 6.70476258948103  13.4242030726439 7.03671094975878  13.4242030726439 7.03671094975878  C 13.4242030726439 7.03671094975878  14.0078294345815 7.89389405731179  14.0078294345815 7.89389405731179  C 14.0078294345815 7.89389405731179  14.241830570264 8.67334242226811  14.241830570264 8.67334242226811  C 14.241830570264 8.67334242226811  17.3154828398663 8.96537294175293  17.3154828398663 8.96537294175293  C 17.3154828398663 8.96537294175293  17.3980714759896 9.37925792260571  17.3980714759896 9.37925792260571  C 17.3980714759896 9.37925792260571  14.4400432969599 9.93600675471741  14.4400432969599 9.93600675471741  C 14.4400432969599 9.93600675471741  13.3801558000446 9.98642929045583  13.3801558000446 9.98642929045583  C 13.3801558000446 9.98642929045583  13.3801558000446 10.5999034752731  13.3801558000446 10.5999034752731  C 13.3801558000446 10.5999034752731  14.1151946615416 11.5768401052047  14.1151946615416 11.5768401052047  C 14.1151946615416 11.5768401052047  13.0553071646266 12.5264645282781  13.0553071646266 12.5264645282781  C 13.0553071646266 12.5264645282781  14.1262064796915 12.7890819019157  14.1262064796915 12.7890819019157  C 14.1262064796915 12.7890819019157  18.3065464733454 11.1692579413194  18.3065464733454 11.1692579413194  C 18.3065464733454 11.1692579413194  19.6252116967801 9.68179313703619  19.6252116967801 9.68179313703619  C 19.6252116967801 9.68179313703619  19.6252116967801 8.67334242226811  19.6252116967801 8.67334242226811  C 19.6252116967801 8.67334242226811  19.1654682890273 7.97372973889765  19.1654682890273 7.97372973889765  C 19.1654682890273 7.97372973889765  17.9046151108787 7.49261471039366  17.9046151108787 7.49261471039366  C 17.9046151108787 7.49261471039366  18.1936753373102 6.39802549707231  18.1936753373102 6.39802549707231  C 18.1936753373102 6.39802549707231  17.9046151108787 5.43579544006431  17.9046151108787 5.43579544006431  C 17.9046151108787 5.43579544006431  19.0498441984548 3.33485645096387  19.0498441984548 3.33485645096387  C 19.0498441984548 3.33485645096387  20.1840614678808 2.2402672376427  20.1840614678808 2.2402672376427  C 20.1840614678808 2.2402672376427  23.3885005494631 1.3557719232314  23.3885005494631 1.3557719232314  C 23.3885005494631 1.3557719232314  29.8028846217026 1.63519680878174  29.8028846217026 1.63519680878174  C 29.8028846217026 1.63519680878174  31.2454327993223 4.96098322852763  31.2454327993223 4.96098322852763  C 31.2454327993223 4.96098322852763  29.3211175776505 13.8374504574768  29.3211175776505 13.8374504574768  C 29.3211175776505 13.8374504574768  27.3665198560666 18.9584728573012  27.3665198560666 18.9584728573012  C 27.3665198560666 18.9584728573012  22.727791460477 18.9626747352795  22.727791460477 18.9626747352795  C 22.727791460477 18.9626747352795  24.0244330476121 28.8160785941603  24.0244330476121 28.8160785941603  C 24.0244330476121 28.8160785941603  19.7821301054141 26.6395058014523  19.7821301054141 26.6395058014523  C 19.7821301054141 26.6395058014523  12.895635801455 22.5300691387719  12.895635801455 22.5300691387719  C 12.895635801455 22.5300691387719  5.74345991318091 24.4860433376243  5.74345991318091 24.4860433376243  C 5.74345991318091 24.4860433376243  0.09164424781261 23.746512813461  0.09164424781261 23.746512813461  C 0.09164424781261 23.746512813461  2.02421833309677 21.1434494059656  2.02421833309677 21.1434494059656  C 2.02421833309677 21.1434494059656  4.54867764393111 18.6034141681434  4.54867764393111 18.6034141681434  C 4.54867764393111 18.6034141681434  8.06970649731943 15.9793413707569  8.06970649731943 15.9793413707569  C 8.06970649731943 15.9793413707569  10.1536930821628 10.0578612160853  10.1536930821628 10.0578612160853  C 10.1536930821628 10.0578612160853  10.8281669438361 5.47361234186816  10.8281669438361 5.47361234186816  Z " fill-rule="nonzero" fill="#a29bfe" stroke="none" transform="matrix(1 0 0 1 1817 1651 )" />
    <path d="M 10.8281669438361 5.47361234186816  C 10.8281669438361 5.47361234186816  12.5625283024244 4.79710998737784  12.5625283024244 4.79710998737784  C 12.5625283024244 4.79710998737784  12.0917730765218 6.70476258948103  12.0917730765218 6.70476258948103  C 12.0917730765218 6.70476258948103  13.4242030726439 7.03671094975878  13.4242030726439 7.03671094975878  C 13.4242030726439 7.03671094975878  14.0078294345815 7.89389405731179  14.0078294345815 7.89389405731179  C 14.0078294345815 7.89389405731179  14.241830570264 8.67334242226811  14.241830570264 8.67334242226811  C 14.241830570264 8.67334242226811  17.3154828398663 8.96537294175293  17.3154828398663 8.96537294175293  C 17.3154828398663 8.96537294175293  17.3980714759896 9.37925792260571  17.3980714759896 9.37925792260571  C 17.3980714759896 9.37925792260571  14.4400432969599 9.93600675471741  14.4400432969599 9.93600675471741  C 14.4400432969599 9.93600675471741  13.3801558000446 9.98642929045583  13.3801558000446 9.98642929045583  C 13.3801558000446 9.98642929045583  13.3801558000446 10.5999034752731  13.3801558000446 10.5999034752731  C 13.3801558000446 10.5999034752731  14.1151946615416 11.5768401052047  14.1151946615416 11.5768401052047  C 14.1151946615416 11.5768401052047  13.0553071646266 12.5264645282781  13.0553071646266 12.5264645282781  C 13.0553071646266 12.5264645282781  14.1262064796915 12.7890819019157  14.1262064796915 12.7890819019157  C 14.1262064796915 12.7890819019157  18.3065464733454 11.1692579413194  18.3065464733454 11.1692579413194  C 18.3065464733454 11.1692579413194  19.6252116967801 9.68179313703619  19.6252116967801 9.68179313703619  C 19.6252116967801 9.68179313703619  19.6252116967801 8.67334242226811  19.6252116967801 8.67334242226811  C 19.6252116967801 8.67334242226811  19.1654682890273 7.97372973889765  19.1654682890273 7.97372973889765  C 19.1654682890273 7.97372973889765  17.9046151108787 7.49261471039366  17.9046151108787 7.49261471039366  C 17.9046151108787 7.49261471039366  18.1936753373102 6.39802549707231  18.1936753373102 6.39802549707231  C 18.1936753373102 6.39802549707231  17.9046151108787 5.43579544006431  17.9046151108787 5.43579544006431  C 17.9046151108787 5.43579544006431  19.0498441984548 3.33485645096387  19.0498441984548 3.33485645096387  C 19.0498441984548 3.33485645096387  20.1840614678808 2.2402672376427  20.1840614678808 2.2402672376427  C 20.1840614678808 2.2402672376427  23.3885005494631 1.3557719232314  23.3885005494631 1.3557719232314  C 23.3885005494631 1.3557719232314  29.8028846217026 1.63519680878174  29.8028846217026 1.63519680878174  C 29.8028846217026 1.63519680878174  31.2454327993223 4.96098322852763  31.2454327993223 4.96098322852763  C 31.2454327993223 4.96098322852763  29.3211175776505 13.8374504574768  29.3211175776505 13.8374504574768  C 29.3211175776505 13.8374504574768  27.3665198560666 18.9584728573012  27.3665198560666 18.9584728573012  C 27.3665198560666 18.9584728573012  22.727791460477 18.9626747352795  22.727791460477 18.9626747352795  C 22.727791460477 18.9626747352795  24.0244330476121 28.8160785941603  24.0244330476121 28.8160785941603  C 24.0244330476121 28.8160785941603  19.7821301054141 26.6395058014523  19.7821301054141 26.6395058014523  C 19.7821301054141 26.6395058014523  12.895635801455 22.5300691387719  12.895635801455 22.5300691387719  C 12.895635801455 22.5300691387719  5.74345991318091 24.4860433376243  5.74345991318091 24.4860433376243  C 5.74345991318091 24.4860433376243  0.09164424781261 23.746512813461  0.09164424781261 23.746512813461  C 0.09164424781261 23.746512813461  2.02421833309677 21.1434494059656  2.02421833309677 21.1434494059656  C 2.02421833309677 21.1434494059656  4.54867764393111 18.6034141681434  4.54867764393111 18.6034141681434  C 4.54867764393111 18.6034141681434  8.06970649731943 15.9793413707569  8.06970649731943 15.9793413707569  C 8.06970649731943 15.9793413707569  10.1536930821628 10.0578612160853  10.1536930821628 10.0578612160853  C 10.1536930821628 10.0578612160853  10.8281669438361 5.47361234186816  10.8281669438361 5.47361234186816  Z " stroke-width="2" stroke="#505050" fill="none" stroke-opacity="0.211764705882353" transform="matrix(1 0 0 1 1817 1651 )" mask="url(#clip713)" />
  </g>
</svg>