<?xml version="1.0" encoding="utf-8"?>
<svg version="1.1" xmlns:xlink="http://www.w3.org/1999/xlink" width="97px" height="99px" xmlns="http://www.w3.org/2000/svg">
  <defs>
    <mask fill="white" id="clip717">
      <path d="M 51.7865352245986 46.0798585328306  C 51.7865352245986 46.0798585328306  53.4759503866576 49.4714985229589  53.4759503866576 49.4714985229589  C 53.4759503866576 49.4714985229589  55.2089633593498 52.7831061918914  55.2089633593498 52.7831061918914  C 55.2089633593498 52.7831061918914  60.6423405095842 49.5320635227823  60.6423405095842 49.5320635227823  C 60.6423405095842 49.5320635227823  62.8522045360835 52.9215404772027  62.8522045360835 52.9215404772027  C 62.8522045360835 52.9215404772027  62.8603791255774 56.3196695744553  62.8603791255774 56.3196695744553  C 62.8603791255774 56.3196695744553  60.0183468448885 60.0855147420659  60.0183468448885 60.0855147420659  C 60.0183468448885 60.0855147420659  55.0236726641569 66.1355256173141  55.0236726641569 66.1355256173141  C 55.0236726641569 66.1355256173141  51.1134940229402 69.4687636433268  51.1134940229402 69.4687636433268  C 51.1134940229402 69.4687636433268  53.931002535148 75.0547864887851  53.931002535148 75.0547864887851  C 53.931002535148 75.0547864887851  48.0371235100948 75.1586122027687  48.0371235100948 75.1586122027687  C 48.0371235100948 75.1586122027687  41.5001767781932 78.3274595149744  41.5001767781932 78.3274595149744  C 41.5001767781932 78.3274595149744  39.4538045415702 83.8821352130927  39.4538045415702 83.8821352130927  C 39.4538045415702 83.8821352130927  35.1103726571807 92.5926800091687  35.1103726571807 92.5926800091687  C 35.1103726571807 92.5926800091687  27.1333569951371 96.4904703549669  27.1333569951371 96.4904703549669  C 27.1333569951371 96.4904703549669  23.3212734278464 98.9974287405275  23.3212734278464 98.9974287405275  C 23.3212734278464 98.9974287405275  16.2829518736566 98.8114076696403  16.2829518736566 98.8114076696403  C 16.2829518736566 98.8114076696403  11.3373252298877 95.9172658923495  11.3373252298877 95.9172658923495  C 11.3373252298877 95.9172658923495  3.03194230415396 95.3029637512805  3.03194230415396 95.3029637512805  C 3.03194230415396 95.3029637512805  1.75125661678673 92.1038339391631  1.75125661678673 92.1038339391631  C 1.75125661678673 92.1038339391631  5.85762540585512 85.7077373506365  5.85762540585512 85.7077373506365  C 5.85762540585512 85.7077373506365  15.4627680611083 77.3259739821748  15.4627680611083 77.3259739821748  C 15.4627680611083 77.3259739821748  20.3947703890539 75.7447948796341  20.3947703890539 75.7447948796341  C 20.3947703890539 75.7447948796341  25.8853696657448 70.989377746044  25.8853696657448 70.989377746044  C 25.8853696657448 70.989377746044  34.4128076870399 66.6416759729841  34.4128076870399 66.6416759729841  C 34.4128076870399 66.6416759729841  38.9987523930798 62.3696804497035  38.9987523930798 62.3696804497035  C 38.9987523930798 62.3696804497035  42.3966567593494 56.2958761816676  42.3966567593494 56.2958761816676  C 42.3966567593494 56.2958761816676  45.2931863033304 54.2496444019091  45.2931863033304 54.2496444019091  C 45.2931863033304 54.2496444019091  46.426729379809 49.7635083435378  46.426729379809 49.7635083435378  C 46.426729379809 49.7635083435378  51.7865352245986 46.0798585328306  51.7865352245986 46.0798585328306  Z M 61.4938815008791 6.04855668505804  C 61.4938815008791 6.04855668505804  63.6546979904162 12.6717720229241  63.6546979904162 12.6717720229241  C 63.6546979904162 12.6717720229241  69.1916199409058 20.5992978927077  69.1916199409058 20.5992978927077  C 69.1916199409058 20.5992978927077  69.3523868676176 15.4447838005673  69.3523868676176 15.4447838005673  C 69.3523868676176 15.4447838005673  74.7816554707501 17.4975046874498  74.7816554707501 17.4975046874498  C 74.7816554707501 17.4975046874498  75.9233731367217 23.2317123493312  75.9233731367217 23.2317123493312  C 75.9233731367217 23.2317123493312  82.0733892992486 25.7192034135198  82.0733892992486 25.7192034135198  C 82.0733892992486 25.7192034135198  87.2370049961859 26.3313425188809  87.2370049961859 26.3313425188809  C 87.2370049961859 26.3313425188809  91.604960649057 23.4177334202184  91.604960649057 23.4177334202184  C 91.604960649057 23.4177334202184  95.4769912059692 24.2980889533704  95.4769912059692 24.2980889533704  C 95.4769912059692 24.2980889533704  93.624084254034 32.6852430406758  93.624084254034 32.6852430406758  C 93.624084254034 32.6852430406758  91.2970511114561 37.2124767774989  91.2970511114561 37.2124767774989  C 91.2970511114561 37.2124767774989  85.4631190760244 37.0524121351077  85.4631190760244 37.0524121351077  C 85.4631190760244 37.0524121351077  83.4221965657307 39.4252623067726  83.4221965657307 39.4252623067726  C 83.4221965657307 39.4252623067726  84.133385851694 42.8017610469454  84.133385851694 42.8017610469454  C 84.133385851694 42.8017610469454  83.0107422278746 44.2682992569624  83.0107422278746 44.2682992569624  C 83.0107422278746 44.2682992569624  80.122387273387 48.5381317445351  80.122387273387 48.5381317445351  C 80.122387273387 48.5381317445351  76.3348274745778 54.0149381571658  76.3348274745778 54.0149381571658  C 76.3348274745778 54.0149381571658  68.4504571601311 57.231372254947  68.4504571601311 57.231372254947  C 68.4504571601311 57.231372254947  67.1397979779534 55.1137602968246  67.1397979779534 55.1137602968246  C 67.1397979779534 55.1137602968246  63.9544329385232 53.9543731573424  63.9544329385232 53.9543731573424  C 63.9544329385232 53.9543731573424  68.3605366756991 47.3809076407604  68.3605366756991 47.3809076407604  C 68.3605366756991 47.3809076407604  65.8591122905861 43.0288797962844  65.8591122905861 43.0288797962844  C 65.8591122905861 43.0288797962844  57.6354752597906 39.8881519482829  57.6354752597906 39.8881519482829  C 57.6354752597906 39.8881519482829  57.8507394497945 37.058901242232  57.8507394497945 37.058901242232  C 57.8507394497945 37.058901242232  63.371312221296 34.3486175001205  63.371312221296 34.3486175001205  C 63.371312221296 34.3486175001205  64.6601724981571 26.8418189459667  64.6601724981571 26.8418189459667  C 64.6601724981571 26.8418189459667  64.3059402867575 21.9057714603335  64.3059402867575 21.9057714603335  C 64.3059402867575 21.9057714603335  61.2104957317598 16.8356157608046  61.2104957317598 16.8356157608046  C 61.2104957317598 16.8356157608046  61.4148604691059 15.5096748718065  61.4148604691059 15.5096748718065  C 61.4148604691059 15.5096748718065  57.763543828527 12.4165338093808  57.763543828527 12.4165338093808  C 57.763543828527 12.4165338093808  51.7524956873952 5.8387422213831  51.7524956873952 5.8387422213831  C 51.7524956873952 5.8387422213831  48.5562311953068 0.627989200835015  48.5562311953068 0.627989200835015  C 48.5562311953068 0.627989200835015  51.3900888865022 0.0526217025096685  51.3900888865022 0.0526217025096685  C 51.3900888865022 0.0526217025096685  55.5482300756983 4.13427008348692  55.5482300756983 4.13427008348692  C 55.5482300756983 4.13427008348692  61.4938815008791 6.04855668505804  61.4938815008791 6.04855668505804  Z " fill-rule="evenodd" />
    </mask>
  </defs>
  <g transform="matrix(1 0 0 1 -3072 -2253 )">
    <path d="M 51.7865352245986 46.0798585328306  C 51.7865352245986 46.0798585328306  53.4759503866576 49.4714985229589  53.4759503866576 49.4714985229589  C 53.4759503866576 49.4714985229589  55.2089633593498 52.7831061918914  55.2089633593498 52.7831061918914  C 55.2089633593498 52.7831061918914  60.6423405095842 49.5320635227823  60.6423405095842 49.5320635227823  C 60.6423405095842 49.5320635227823  62.8522045360835 52.9215404772027  62.8522045360835 52.9215404772027  C 62.8522045360835 52.9215404772027  62.8603791255774 56.3196695744553  62.8603791255774 56.3196695744553  C 62.8603791255774 56.3196695744553  60.0183468448885 60.0855147420659  60.0183468448885 60.0855147420659  C 60.0183468448885 60.0855147420659  55.0236726641569 66.1355256173141  55.0236726641569 66.1355256173141  C 55.0236726641569 66.1355256173141  51.1134940229402 69.4687636433268  51.1134940229402 69.4687636433268  C 51.1134940229402 69.4687636433268  53.931002535148 75.0547864887851  53.931002535148 75.0547864887851  C 53.931002535148 75.0547864887851  48.0371235100948 75.1586122027687  48.0371235100948 75.1586122027687  C 48.0371235100948 75.1586122027687  41.5001767781932 78.3274595149744  41.5001767781932 78.3274595149744  C 41.5001767781932 78.3274595149744  39.4538045415702 83.8821352130927  39.4538045415702 83.8821352130927  C 39.4538045415702 83.8821352130927  35.1103726571807 92.5926800091687  35.1103726571807 92.5926800091687  C 35.1103726571807 92.5926800091687  27.1333569951371 96.4904703549669  27.1333569951371 96.4904703549669  C 27.1333569951371 96.4904703549669  23.3212734278464 98.9974287405275  23.3212734278464 98.9974287405275  C 23.3212734278464 98.9974287405275  16.2829518736566 98.8114076696403  16.2829518736566 98.8114076696403  C 16.2829518736566 98.8114076696403  11.3373252298877 95.9172658923495  11.3373252298877 95.9172658923495  C 11.3373252298877 95.9172658923495  3.03194230415396 95.3029637512805  3.03194230415396 95.3029637512805  C 3.03194230415396 95.3029637512805  1.75125661678673 92.1038339391631  1.75125661678673 92.1038339391631  C 1.75125661678673 92.1038339391631  5.85762540585512 85.7077373506365  5.85762540585512 85.7077373506365  C 5.85762540585512 85.7077373506365  15.4627680611083 77.3259739821748  15.4627680611083 77.3259739821748  C 15.4627680611083 77.3259739821748  20.3947703890539 75.7447948796341  20.3947703890539 75.7447948796341  C 20.3947703890539 75.7447948796341  25.8853696657448 70.989377746044  25.8853696657448 70.989377746044  C 25.8853696657448 70.989377746044  34.4128076870399 66.6416759729841  34.4128076870399 66.6416759729841  C 34.4128076870399 66.6416759729841  38.9987523930798 62.3696804497035  38.9987523930798 62.3696804497035  C 38.9987523930798 62.3696804497035  42.3966567593494 56.2958761816676  42.3966567593494 56.2958761816676  C 42.3966567593494 56.2958761816676  45.2931863033304 54.2496444019091  45.2931863033304 54.2496444019091  C 45.2931863033304 54.2496444019091  46.426729379809 49.7635083435378  46.426729379809 49.7635083435378  C 46.426729379809 49.7635083435378  51.7865352245986 46.0798585328306  51.7865352245986 46.0798585328306  Z M 61.4938815008791 6.04855668505804  C 61.4938815008791 6.04855668505804  63.6546979904162 12.6717720229241  63.6546979904162 12.6717720229241  C 63.6546979904162 12.6717720229241  69.1916199409058 20.5992978927077  69.1916199409058 20.5992978927077  C 69.1916199409058 20.5992978927077  69.3523868676176 15.4447838005673  69.3523868676176 15.4447838005673  C 69.3523868676176 15.4447838005673  74.7816554707501 17.4975046874498  74.7816554707501 17.4975046874498  C 74.7816554707501 17.4975046874498  75.9233731367217 23.2317123493312  75.9233731367217 23.2317123493312  C 75.9233731367217 23.2317123493312  82.0733892992486 25.7192034135198  82.0733892992486 25.7192034135198  C 82.0733892992486 25.7192034135198  87.2370049961859 26.3313425188809  87.2370049961859 26.3313425188809  C 87.2370049961859 26.3313425188809  91.604960649057 23.4177334202184  91.604960649057 23.4177334202184  C 91.604960649057 23.4177334202184  95.4769912059692 24.2980889533704  95.4769912059692 24.2980889533704  C 95.4769912059692 24.2980889533704  93.624084254034 32.6852430406758  93.624084254034 32.6852430406758  C 93.624084254034 32.6852430406758  91.2970511114561 37.2124767774989  91.2970511114561 37.2124767774989  C 91.2970511114561 37.2124767774989  85.4631190760244 37.0524121351077  85.4631190760244 37.0524121351077  C 85.4631190760244 37.0524121351077  83.4221965657307 39.4252623067726  83.4221965657307 39.4252623067726  C 83.4221965657307 39.4252623067726  84.133385851694 42.8017610469454  84.133385851694 42.8017610469454  C 84.133385851694 42.8017610469454  83.0107422278746 44.2682992569624  83.0107422278746 44.2682992569624  C 83.0107422278746 44.2682992569624  80.122387273387 48.5381317445351  80.122387273387 48.5381317445351  C 80.122387273387 48.5381317445351  76.3348274745778 54.0149381571658  76.3348274745778 54.0149381571658  C 76.3348274745778 54.0149381571658  68.4504571601311 57.231372254947  68.4504571601311 57.231372254947  C 68.4504571601311 57.231372254947  67.1397979779534 55.1137602968246  67.1397979779534 55.1137602968246  C 67.1397979779534 55.1137602968246  63.9544329385232 53.9543731573424  63.9544329385232 53.9543731573424  C 63.9544329385232 53.9543731573424  68.3605366756991 47.3809076407604  68.3605366756991 47.3809076407604  C 68.3605366756991 47.3809076407604  65.8591122905861 43.0288797962844  65.8591122905861 43.0288797962844  C 65.8591122905861 43.0288797962844  57.6354752597906 39.8881519482829  57.6354752597906 39.8881519482829  C 57.6354752597906 39.8881519482829  57.8507394497945 37.058901242232  57.8507394497945 37.058901242232  C 57.8507394497945 37.058901242232  63.371312221296 34.3486175001205  63.371312221296 34.3486175001205  C 63.371312221296 34.3486175001205  64.6601724981571 26.8418189459667  64.6601724981571 26.8418189459667  C 64.6601724981571 26.8418189459667  64.3059402867575 21.9057714603335  64.3059402867575 21.9057714603335  C 64.3059402867575 21.9057714603335  61.2104957317598 16.8356157608046  61.2104957317598 16.8356157608046  C 61.2104957317598 16.8356157608046  61.4148604691059 15.5096748718065  61.4148604691059 15.5096748718065  C 61.4148604691059 15.5096748718065  57.763543828527 12.4165338093808  57.763543828527 12.4165338093808  C 57.763543828527 12.4165338093808  51.7524956873952 5.8387422213831  51.7524956873952 5.8387422213831  C 51.7524956873952 5.8387422213831  48.5562311953068 0.627989200835015  48.5562311953068 0.627989200835015  C 48.5562311953068 0.627989200835015  51.3900888865022 0.0526217025096685  51.3900888865022 0.0526217025096685  C 51.3900888865022 0.0526217025096685  55.5482300756983 4.13427008348692  55.5482300756983 4.13427008348692  C 55.5482300756983 4.13427008348692  61.4938815008791 6.04855668505804  61.4938815008791 6.04855668505804  Z " fill-rule="nonzero" fill="#74b9ff" stroke="none" transform="matrix(1 0 0 1 3072 2253 )" />
    <path d="M 51.7865352245986 46.0798585328306  C 51.7865352245986 46.0798585328306  53.4759503866576 49.4714985229589  53.4759503866576 49.4714985229589  C 53.4759503866576 49.4714985229589  55.2089633593498 52.7831061918914  55.2089633593498 52.7831061918914  C 55.2089633593498 52.7831061918914  60.6423405095842 49.5320635227823  60.6423405095842 49.5320635227823  C 60.6423405095842 49.5320635227823  62.8522045360835 52.9215404772027  62.8522045360835 52.9215404772027  C 62.8522045360835 52.9215404772027  62.8603791255774 56.3196695744553  62.8603791255774 56.3196695744553  C 62.8603791255774 56.3196695744553  60.0183468448885 60.0855147420659  60.0183468448885 60.0855147420659  C 60.0183468448885 60.0855147420659  55.0236726641569 66.1355256173141  55.0236726641569 66.1355256173141  C 55.0236726641569 66.1355256173141  51.1134940229402 69.4687636433268  51.1134940229402 69.4687636433268  C 51.1134940229402 69.4687636433268  53.931002535148 75.0547864887851  53.931002535148 75.0547864887851  C 53.931002535148 75.0547864887851  48.0371235100948 75.1586122027687  48.0371235100948 75.1586122027687  C 48.0371235100948 75.1586122027687  41.5001767781932 78.3274595149744  41.5001767781932 78.3274595149744  C 41.5001767781932 78.3274595149744  39.4538045415702 83.8821352130927  39.4538045415702 83.8821352130927  C 39.4538045415702 83.8821352130927  35.1103726571807 92.5926800091687  35.1103726571807 92.5926800091687  C 35.1103726571807 92.5926800091687  27.1333569951371 96.4904703549669  27.1333569951371 96.4904703549669  C 27.1333569951371 96.4904703549669  23.3212734278464 98.9974287405275  23.3212734278464 98.9974287405275  C 23.3212734278464 98.9974287405275  16.2829518736566 98.8114076696403  16.2829518736566 98.8114076696403  C 16.2829518736566 98.8114076696403  11.3373252298877 95.9172658923495  11.3373252298877 95.9172658923495  C 11.3373252298877 95.9172658923495  3.03194230415396 95.3029637512805  3.03194230415396 95.3029637512805  C 3.03194230415396 95.3029637512805  1.75125661678673 92.1038339391631  1.75125661678673 92.1038339391631  C 1.75125661678673 92.1038339391631  5.85762540585512 85.7077373506365  5.85762540585512 85.7077373506365  C 5.85762540585512 85.7077373506365  15.4627680611083 77.3259739821748  15.4627680611083 77.3259739821748  C 15.4627680611083 77.3259739821748  20.3947703890539 75.7447948796341  20.3947703890539 75.7447948796341  C 20.3947703890539 75.7447948796341  25.8853696657448 70.989377746044  25.8853696657448 70.989377746044  C 25.8853696657448 70.989377746044  34.4128076870399 66.6416759729841  34.4128076870399 66.6416759729841  C 34.4128076870399 66.6416759729841  38.9987523930798 62.3696804497035  38.9987523930798 62.3696804497035  C 38.9987523930798 62.3696804497035  42.3966567593494 56.2958761816676  42.3966567593494 56.2958761816676  C 42.3966567593494 56.2958761816676  45.2931863033304 54.2496444019091  45.2931863033304 54.2496444019091  C 45.2931863033304 54.2496444019091  46.426729379809 49.7635083435378  46.426729379809 49.7635083435378  C 46.426729379809 49.7635083435378  51.7865352245986 46.0798585328306  51.7865352245986 46.0798585328306  Z " stroke-width="2" stroke="#505050" fill="none" stroke-opacity="0.211764705882353" transform="matrix(1 0 0 1 3072 2253 )" mask="url(#clip717)" />
    <path d="M 61.4938815008791 6.04855668505804  C 61.4938815008791 6.04855668505804  63.6546979904162 12.6717720229241  63.6546979904162 12.6717720229241  C 63.6546979904162 12.6717720229241  69.1916199409058 20.5992978927077  69.1916199409058 20.5992978927077  C 69.1916199409058 20.5992978927077  69.3523868676176 15.4447838005673  69.3523868676176 15.4447838005673  C 69.3523868676176 15.4447838005673  74.7816554707501 17.4975046874498  74.7816554707501 17.4975046874498  C 74.7816554707501 17.4975046874498  75.9233731367217 23.2317123493312  75.9233731367217 23.2317123493312  C 75.9233731367217 23.2317123493312  82.0733892992486 25.7192034135198  82.0733892992486 25.7192034135198  C 82.0733892992486 25.7192034135198  87.2370049961859 26.3313425188809  87.2370049961859 26.3313425188809  C 87.2370049961859 26.3313425188809  91.604960649057 23.4177334202184  91.604960649057 23.4177334202184  C 91.604960649057 23.4177334202184  95.4769912059692 24.2980889533704  95.4769912059692 24.2980889533704  C 95.4769912059692 24.2980889533704  93.624084254034 32.6852430406758  93.624084254034 32.6852430406758  C 93.624084254034 32.6852430406758  91.2970511114561 37.2124767774989  91.2970511114561 37.2124767774989  C 91.2970511114561 37.2124767774989  85.4631190760244 37.0524121351077  85.4631190760244 37.0524121351077  C 85.4631190760244 37.0524121351077  83.4221965657307 39.4252623067726  83.4221965657307 39.4252623067726  C 83.4221965657307 39.4252623067726  84.133385851694 42.8017610469454  84.133385851694 42.8017610469454  C 84.133385851694 42.8017610469454  83.0107422278746 44.2682992569624  83.0107422278746 44.2682992569624  C 83.0107422278746 44.2682992569624  80.122387273387 48.5381317445351  80.122387273387 48.5381317445351  C 80.122387273387 48.5381317445351  76.3348274745778 54.0149381571658  76.3348274745778 54.0149381571658  C 76.3348274745778 54.0149381571658  68.4504571601311 57.231372254947  68.4504571601311 57.231372254947  C 68.4504571601311 57.231372254947  67.1397979779534 55.1137602968246  67.1397979779534 55.1137602968246  C 67.1397979779534 55.1137602968246  63.9544329385232 53.9543731573424  63.9544329385232 53.9543731573424  C 63.9544329385232 53.9543731573424  68.3605366756991 47.3809076407604  68.3605366756991 47.3809076407604  C 68.3605366756991 47.3809076407604  65.8591122905861 43.0288797962844  65.8591122905861 43.0288797962844  C 65.8591122905861 43.0288797962844  57.6354752597906 39.8881519482829  57.6354752597906 39.8881519482829  C 57.6354752597906 39.8881519482829  57.8507394497945 37.058901242232  57.8507394497945 37.058901242232  C 57.8507394497945 37.058901242232  63.371312221296 34.3486175001205  63.371312221296 34.3486175001205  C 63.371312221296 34.3486175001205  64.6601724981571 26.8418189459667  64.6601724981571 26.8418189459667  C 64.6601724981571 26.8418189459667  64.3059402867575 21.9057714603335  64.3059402867575 21.9057714603335  C 64.3059402867575 21.9057714603335  61.2104957317598 16.8356157608046  61.2104957317598 16.8356157608046  C 61.2104957317598 16.8356157608046  61.4148604691059 15.5096748718065  61.4148604691059 15.5096748718065  C 61.4148604691059 15.5096748718065  57.763543828527 12.4165338093808  57.763543828527 12.4165338093808  C 57.763543828527 12.4165338093808  51.7524956873952 5.8387422213831  51.7524956873952 5.8387422213831  C 51.7524956873952 5.8387422213831  48.5562311953068 0.627989200835015  48.5562311953068 0.627989200835015  C 48.5562311953068 0.627989200835015  51.3900888865022 0.0526217025096685  51.3900888865022 0.0526217025096685  C 51.3900888865022 0.0526217025096685  55.5482300756983 4.13427008348692  55.5482300756983 4.13427008348692  C 55.5482300756983 4.13427008348692  61.4938815008791 6.04855668505804  61.4938815008791 6.04855668505804  Z " stroke-width="2" stroke="#505050" fill="none" stroke-opacity="0.211764705882353" transform="matrix(1 0 0 1 3072 2253 )" mask="url(#clip717)" />
  </g>
</svg>