<?xml version="1.0" encoding="utf-8"?>
<svg version="1.1" xmlns:xlink="http://www.w3.org/1999/xlink" width="65px" height="65px" xmlns="http://www.w3.org/2000/svg">
  <defs>
    <mask fill="white" id="clip721">
      <path d="M 59.1884435959449 32.3552973201162  C 59.1884435959449 32.3552973201162  55.9837542457682 34.3960887373361  55.9837542457682 34.3960887373361  C 55.9837542457682 34.3960887373361  53.145082714774 40.2937036867963  53.145082714774 40.2937036867963  C 53.145082714774 40.2937036867963  49.6990927282472 39.961382746205  49.6990927282472 39.961382746205  C 49.6990927282472 39.961382746205  48.1184379979993 41.4696085535035  48.1184379979993 41.4696085535035  C 48.1184379979993 41.4696085535035  46.8983786007241 44.6735232627932  46.8983786007241 44.6735232627932  C 46.8983786007241 44.6735232627932  47.8337574719682 48.8807915811752  47.8337574719682 48.8807915811752  C 47.8337574719682 48.8807915811752  47.1152780491286 49.651946584342  47.1152780491286 49.651946584342  C 47.1152780491286 49.651946584342  43.6177744436057 49.6306439599452  43.6177744436057 49.6306439599452  C 43.6177744436057 49.6306439599452  38.8703877666522 51.9739326436013  38.8703877666522 51.9739326436013  C 38.8703877666522 51.9739326436013  38.1302183989718 55.0202079323539  38.1302183989718 55.0202079323539  C 38.1302183989718 55.0202079323539  36.3896003255254 56.3367101200806  36.3896003255254 56.3367101200806  C 36.3896003255254 56.3367101200806  29.6914953806097 56.2877140839678  29.6914953806097 56.2877140839678  C 29.6914953806097 56.2877140839678  26.7145504512576 57.8577175020173  26.7145504512576 57.8577175020173  C 26.7145504512576 57.8577175020173  26.7525078547287 60.371427180848  26.7525078547287 60.371427180848  C 26.7525078547287 60.371427180848  23.0760622042723 62.0969397569947  23.0760622042723 62.0969397569947  C 23.0760622042723 62.0969397569947  18.88176912075 61.5111175860807  18.88176912075 61.5111175860807  C 18.88176912075 61.5111175860807  13.7981882987689 63.6030353018537  13.7981882987689 63.6030353018537  C 13.7981882987689 63.6030353018537  10.284417234616 63.9545286044022  10.284417234616 63.9545286044022  C 10.284417234616 63.9545286044022  7.8036297934892 59.6173142771989  7.8036297934892 59.6173142771989  C 7.8036297934892 59.6173142771989  1.86058490720563 49.3047138066733  1.86058490720563 49.3047138066733  C 1.86058490720563 49.3047138066733  24.664850663835 43.0055277725183  24.664850663835 43.0055277725183  C 24.664850663835 43.0055277725183  29.7321640271852 28.7359814350874  29.7321640271852 28.7359814350874  C 29.7321640271852 28.7359814350874  26.2482166371882 24.1878711263554  26.2482166371882 24.1878711263554  C 26.2482166371882 24.1878711263554  26.446137383857 21.5910812123769  26.446137383857 21.5910812123769  C 26.446137383857 21.5910812123769  28.6612230006881 18.9154715881298  28.6612230006881 18.9154715881298  C 28.6612230006881 18.9154715881298  28.6829129455288 16.2632948507191  28.6829129455288 16.2632948507191  C 28.6829129455288 16.2632948507191  34.0931774155427 14.9830071244673  34.0931774155427 14.9830071244673  C 34.0931774155427 14.9830071244673  30.7787038657373 14.0776455876002  30.7787038657373 14.0776455876002  C 30.7787038657373 14.0776455876002  31.3995785367954 9.82351149554464  31.3995785367954 9.82351149554464  C 31.3995785367954 9.82351149554464  37.2544868760385 9.79794834626865  37.2544868760385 9.79794834626865  C 37.2544868760385 9.79794834626865  40.6625194590943 14.2608481574133  40.6625194590943 14.2608481574133  C 40.6625194590943 14.2608481574133  44.9056149185078 16.6211789405868  44.9056149185078 16.6211789405868  C 44.9056149185078 16.6211789405868  50.4826419856088 17.4690233915822  50.4826419856088 17.4690233915822  C 50.4826419856088 17.4690233915822  54.9833055400024 18.6513190456085  54.9833055400024 18.6513190456085  C 54.9833055400024 18.6513190456085  58.4157393110038 22.3579756906642  58.4157393110038 22.3579756906642  C 58.4157393110038 22.3579756906642  60.4654390984264 24.4988894425499  60.4654390984264 24.4988894425499  C 60.4654390984264 24.4988894425499  63.1875271759029 25.3126496945103  63.1875271759029 25.3126496945103  C 63.1875271759029 25.3126496945103  63.1712597172725 26.7463163164198  63.1712597172725 26.7463163164198  C 63.1712597172725 26.7463163164198  60.4030805070102 30.5637466083394  60.4030805070102 30.5637466083394  C 60.4030805070102 30.5637466083394  59.1884435959449 32.3552973201162  59.1884435959449 32.3552973201162  Z M 37.9268751660919 0.678294841967202  C 37.9268751660919 0.678294841967202  37.2083957432523 4.95904059970474  37.2083957432523 4.95904059970474  C 37.2083957432523 4.95904059970474  34.2490950402092 6.15624809080914  34.2490950402092 6.15624809080914  C 34.2490950402092 6.15624809080914  32.8012912221094 3.90456069205976  32.8012912221094 3.90456069205976  C 32.8012912221094 3.90456069205976  36.9860738086375 0.10099372081183  36.9860738086375 0.10099372081183  C 36.9860738086375 0.10099372081183  37.9268751660919 0.678294841967202  37.9268751660919 0.678294841967202  Z " fill-rule="evenodd" />
    </mask>
  </defs>
  <g transform="matrix(1 0 0 1 -2190 -1870 )">
    <path d="M 59.1884435959449 32.3552973201162  C 59.1884435959449 32.3552973201162  55.9837542457682 34.3960887373361  55.9837542457682 34.3960887373361  C 55.9837542457682 34.3960887373361  53.145082714774 40.2937036867963  53.145082714774 40.2937036867963  C 53.145082714774 40.2937036867963  49.6990927282472 39.961382746205  49.6990927282472 39.961382746205  C 49.6990927282472 39.961382746205  48.1184379979993 41.4696085535035  48.1184379979993 41.4696085535035  C 48.1184379979993 41.4696085535035  46.8983786007241 44.6735232627932  46.8983786007241 44.6735232627932  C 46.8983786007241 44.6735232627932  47.8337574719682 48.8807915811752  47.8337574719682 48.8807915811752  C 47.8337574719682 48.8807915811752  47.1152780491286 49.651946584342  47.1152780491286 49.651946584342  C 47.1152780491286 49.651946584342  43.6177744436057 49.6306439599452  43.6177744436057 49.6306439599452  C 43.6177744436057 49.6306439599452  38.8703877666522 51.9739326436013  38.8703877666522 51.9739326436013  C 38.8703877666522 51.9739326436013  38.1302183989718 55.0202079323539  38.1302183989718 55.0202079323539  C 38.1302183989718 55.0202079323539  36.3896003255254 56.3367101200806  36.3896003255254 56.3367101200806  C 36.3896003255254 56.3367101200806  29.6914953806097 56.2877140839678  29.6914953806097 56.2877140839678  C 29.6914953806097 56.2877140839678  26.7145504512576 57.8577175020173  26.7145504512576 57.8577175020173  C 26.7145504512576 57.8577175020173  26.7525078547287 60.371427180848  26.7525078547287 60.371427180848  C 26.7525078547287 60.371427180848  23.0760622042723 62.0969397569947  23.0760622042723 62.0969397569947  C 23.0760622042723 62.0969397569947  18.88176912075 61.5111175860807  18.88176912075 61.5111175860807  C 18.88176912075 61.5111175860807  13.7981882987689 63.6030353018537  13.7981882987689 63.6030353018537  C 13.7981882987689 63.6030353018537  10.284417234616 63.9545286044022  10.284417234616 63.9545286044022  C 10.284417234616 63.9545286044022  7.8036297934892 59.6173142771989  7.8036297934892 59.6173142771989  C 7.8036297934892 59.6173142771989  1.86058490720563 49.3047138066733  1.86058490720563 49.3047138066733  C 1.86058490720563 49.3047138066733  24.664850663835 43.0055277725183  24.664850663835 43.0055277725183  C 24.664850663835 43.0055277725183  29.7321640271852 28.7359814350874  29.7321640271852 28.7359814350874  C 29.7321640271852 28.7359814350874  26.2482166371882 24.1878711263554  26.2482166371882 24.1878711263554  C 26.2482166371882 24.1878711263554  26.446137383857 21.5910812123769  26.446137383857 21.5910812123769  C 26.446137383857 21.5910812123769  28.6612230006881 18.9154715881298  28.6612230006881 18.9154715881298  C 28.6612230006881 18.9154715881298  28.6829129455288 16.2632948507191  28.6829129455288 16.2632948507191  C 28.6829129455288 16.2632948507191  34.0931774155427 14.9830071244673  34.0931774155427 14.9830071244673  C 34.0931774155427 14.9830071244673  30.7787038657373 14.0776455876002  30.7787038657373 14.0776455876002  C 30.7787038657373 14.0776455876002  31.3995785367954 9.82351149554464  31.3995785367954 9.82351149554464  C 31.3995785367954 9.82351149554464  37.2544868760385 9.79794834626865  37.2544868760385 9.79794834626865  C 37.2544868760385 9.79794834626865  40.6625194590943 14.2608481574133  40.6625194590943 14.2608481574133  C 40.6625194590943 14.2608481574133  44.9056149185078 16.6211789405868  44.9056149185078 16.6211789405868  C 44.9056149185078 16.6211789405868  50.4826419856088 17.4690233915822  50.4826419856088 17.4690233915822  C 50.4826419856088 17.4690233915822  54.9833055400024 18.6513190456085  54.9833055400024 18.6513190456085  C 54.9833055400024 18.6513190456085  58.4157393110038 22.3579756906642  58.4157393110038 22.3579756906642  C 58.4157393110038 22.3579756906642  60.4654390984264 24.4988894425499  60.4654390984264 24.4988894425499  C 60.4654390984264 24.4988894425499  63.1875271759029 25.3126496945103  63.1875271759029 25.3126496945103  C 63.1875271759029 25.3126496945103  63.1712597172725 26.7463163164198  63.1712597172725 26.7463163164198  C 63.1712597172725 26.7463163164198  60.4030805070102 30.5637466083394  60.4030805070102 30.5637466083394  C 60.4030805070102 30.5637466083394  59.1884435959449 32.3552973201162  59.1884435959449 32.3552973201162  Z M 37.9268751660919 0.678294841967202  C 37.9268751660919 0.678294841967202  37.2083957432523 4.95904059970474  37.2083957432523 4.95904059970474  C 37.2083957432523 4.95904059970474  34.2490950402092 6.15624809080914  34.2490950402092 6.15624809080914  C 34.2490950402092 6.15624809080914  32.8012912221094 3.90456069205976  32.8012912221094 3.90456069205976  C 32.8012912221094 3.90456069205976  36.9860738086375 0.10099372081183  36.9860738086375 0.10099372081183  C 36.9860738086375 0.10099372081183  37.9268751660919 0.678294841967202  37.9268751660919 0.678294841967202  Z " fill-rule="nonzero" fill="#f2f2f2" stroke="none" transform="matrix(1 0 0 1 2190 1870 )" />
    <path d="M 59.1884435959449 32.3552973201162  C 59.1884435959449 32.3552973201162  55.9837542457682 34.3960887373361  55.9837542457682 34.3960887373361  C 55.9837542457682 34.3960887373361  53.145082714774 40.2937036867963  53.145082714774 40.2937036867963  C 53.145082714774 40.2937036867963  49.6990927282472 39.961382746205  49.6990927282472 39.961382746205  C 49.6990927282472 39.961382746205  48.1184379979993 41.4696085535035  48.1184379979993 41.4696085535035  C 48.1184379979993 41.4696085535035  46.8983786007241 44.6735232627932  46.8983786007241 44.6735232627932  C 46.8983786007241 44.6735232627932  47.8337574719682 48.8807915811752  47.8337574719682 48.8807915811752  C 47.8337574719682 48.8807915811752  47.1152780491286 49.651946584342  47.1152780491286 49.651946584342  C 47.1152780491286 49.651946584342  43.6177744436057 49.6306439599452  43.6177744436057 49.6306439599452  C 43.6177744436057 49.6306439599452  38.8703877666522 51.9739326436013  38.8703877666522 51.9739326436013  C 38.8703877666522 51.9739326436013  38.1302183989718 55.0202079323539  38.1302183989718 55.0202079323539  C 38.1302183989718 55.0202079323539  36.3896003255254 56.3367101200806  36.3896003255254 56.3367101200806  C 36.3896003255254 56.3367101200806  29.6914953806097 56.2877140839678  29.6914953806097 56.2877140839678  C 29.6914953806097 56.2877140839678  26.7145504512576 57.8577175020173  26.7145504512576 57.8577175020173  C 26.7145504512576 57.8577175020173  26.7525078547287 60.371427180848  26.7525078547287 60.371427180848  C 26.7525078547287 60.371427180848  23.0760622042723 62.0969397569947  23.0760622042723 62.0969397569947  C 23.0760622042723 62.0969397569947  18.88176912075 61.5111175860807  18.88176912075 61.5111175860807  C 18.88176912075 61.5111175860807  13.7981882987689 63.6030353018537  13.7981882987689 63.6030353018537  C 13.7981882987689 63.6030353018537  10.284417234616 63.9545286044022  10.284417234616 63.9545286044022  C 10.284417234616 63.9545286044022  7.8036297934892 59.6173142771989  7.8036297934892 59.6173142771989  C 7.8036297934892 59.6173142771989  1.86058490720563 49.3047138066733  1.86058490720563 49.3047138066733  C 1.86058490720563 49.3047138066733  24.664850663835 43.0055277725183  24.664850663835 43.0055277725183  C 24.664850663835 43.0055277725183  29.7321640271852 28.7359814350874  29.7321640271852 28.7359814350874  C 29.7321640271852 28.7359814350874  26.2482166371882 24.1878711263554  26.2482166371882 24.1878711263554  C 26.2482166371882 24.1878711263554  26.446137383857 21.5910812123769  26.446137383857 21.5910812123769  C 26.446137383857 21.5910812123769  28.6612230006881 18.9154715881298  28.6612230006881 18.9154715881298  C 28.6612230006881 18.9154715881298  28.6829129455288 16.2632948507191  28.6829129455288 16.2632948507191  C 28.6829129455288 16.2632948507191  34.0931774155427 14.9830071244673  34.0931774155427 14.9830071244673  C 34.0931774155427 14.9830071244673  30.7787038657373 14.0776455876002  30.7787038657373 14.0776455876002  C 30.7787038657373 14.0776455876002  31.3995785367954 9.82351149554464  31.3995785367954 9.82351149554464  C 31.3995785367954 9.82351149554464  37.2544868760385 9.79794834626865  37.2544868760385 9.79794834626865  C 37.2544868760385 9.79794834626865  40.6625194590943 14.2608481574133  40.6625194590943 14.2608481574133  C 40.6625194590943 14.2608481574133  44.9056149185078 16.6211789405868  44.9056149185078 16.6211789405868  C 44.9056149185078 16.6211789405868  50.4826419856088 17.4690233915822  50.4826419856088 17.4690233915822  C 50.4826419856088 17.4690233915822  54.9833055400024 18.6513190456085  54.9833055400024 18.6513190456085  C 54.9833055400024 18.6513190456085  58.4157393110038 22.3579756906642  58.4157393110038 22.3579756906642  C 58.4157393110038 22.3579756906642  60.4654390984264 24.4988894425499  60.4654390984264 24.4988894425499  C 60.4654390984264 24.4988894425499  63.1875271759029 25.3126496945103  63.1875271759029 25.3126496945103  C 63.1875271759029 25.3126496945103  63.1712597172725 26.7463163164198  63.1712597172725 26.7463163164198  C 63.1712597172725 26.7463163164198  60.4030805070102 30.5637466083394  60.4030805070102 30.5637466083394  C 60.4030805070102 30.5637466083394  59.1884435959449 32.3552973201162  59.1884435959449 32.3552973201162  Z " stroke-width="2" stroke="#505050" fill="none" stroke-opacity="0.211764705882353" transform="matrix(1 0 0 1 2190 1870 )" mask="url(#clip721)" />
    <path d="M 37.9268751660919 0.678294841967202  C 37.9268751660919 0.678294841967202  37.2083957432523 4.95904059970474  37.2083957432523 4.95904059970474  C 37.2083957432523 4.95904059970474  34.2490950402092 6.15624809080914  34.2490950402092 6.15624809080914  C 34.2490950402092 6.15624809080914  32.8012912221094 3.90456069205976  32.8012912221094 3.90456069205976  C 32.8012912221094 3.90456069205976  36.9860738086375 0.10099372081183  36.9860738086375 0.10099372081183  C 36.9860738086375 0.10099372081183  37.9268751660919 0.678294841967202  37.9268751660919 0.678294841967202  Z " stroke-width="2" stroke="#505050" fill="none" stroke-opacity="0.211764705882353" transform="matrix(1 0 0 1 2190 1870 )" mask="url(#clip721)" />
  </g>
</svg>