<?xml version="1.0" encoding="utf-8"?>
<svg version="1.1" xmlns:xlink="http://www.w3.org/1999/xlink" width="48px" height="18px" xmlns="http://www.w3.org/2000/svg">
  <defs>
    <mask fill="white" id="clip722">
      <path d="M 42.3340660691206 13.8150477712929  C 42.3340660691206 13.8150477712929  41.3457553901787 16.8895974524269  41.3457553901787 16.8895974524269  C 41.3457553901787 16.8895974524269  38.7717428976705 15.0651393998858  38.7717428976705 15.0651393998858  C 38.7717428976705 15.0651393998858  37.117217220668 11.6459698643829  37.117217220668 11.6459698643829  C 37.117217220668 11.6459698643829  39.0250147151153 9.95440443542214  39.0250147151153 9.95440443542214  C 39.0250147151153 9.95440443542214  37.0704169935316 9.51743546975166  37.0704169935316 9.51743546975166  C 37.0704169935316 9.51743546975166  35.6278688159118 5.78632369898915  35.6278688159118 5.78632369898915  C 35.6278688159118 5.78632369898915  31.7819913271055 4.0226809148663  31.7819913271055 4.0226809148663  C 31.7819913271055 4.0226809148663  28.4068690642018 4.42586362030405  28.4068690642018 4.42586362030405  C 28.4068690642018 4.42586362030405  26.8404379323974 6.63323262214387  26.8404379323974 6.63323262214387  C 26.8404379323974 6.63323262214387  21.7213404414758 9.86430774146931  21.7213404414758 9.86430774146931  C 21.7213404414758 9.86430774146931  20.0392852190989 10.0850446416534  20.0392852190989 10.0850446416534  C 20.0392852190989 10.0850446416534  19.2822227213023 11.4049612080597  19.2822227213023 11.4049612080597  C 19.2822227213023 11.4049612080597  24.9656758923995 14.842150082353  24.9656758923995 14.842150082353  C 24.9656758923995 14.842150082353  20.8569127167191 15.6507679105779  20.8569127167191 15.6507679105779  C 20.8569127167191 15.6507679105779  19.7419661290551 16.5877735276855  19.7419661290551 16.5877735276855  C 19.7419661290551 16.5877735276855  16.1493604576933 16.9098692085663  16.1493604576933 16.9098692085663  C 16.1493604576933 16.9098692085663  14.8141775070342 13.1303128972528  14.8141775070342 13.1303128972528  C 14.8141775070342 13.1303128972528  13.8093491008678 14.2069683899868  13.8093491008678 14.2069683899868  C 13.8093491008678 14.2069683899868  11.262866153734 13.8330671100833  11.262866153734 13.8330671100833  C 11.262866153734 13.8330671100833  9.70744684007946 11.2855830885723  9.70744684007946 11.2855830885723  C 9.70744684007946 11.2855830885723  6.54154912202125 10.8643810443438  6.54154912202125 10.8643810443438  C 6.54154912202125 10.8643810443438  4.53739821876343 10.1233357365832  4.53739821876343 10.1233357365832  C 4.53739821876343 10.1233357365832  1.22559391022082 10.1323454059784  1.22559391022082 10.1323454059784  C 1.22559391022082 10.1323454059784  0.986086865463449 11.5085724061051  0.986086865463449 11.5085724061051  C 0.986086865463449 11.5085724061051  0.0996355044071606 10.5490426155094  0.0996355044071606 10.5490426155094  C 0.0996355044071606 10.5490426155094  0.507072775948473 7.65583009850649  0.507072775948473 7.65583009850649  C 0.507072775948473 7.65583009850649  1.15126413770986 6.36969979233258  1.15126413770986 6.36969979233258  C 1.15126413770986 6.36969979233258  0.848439138591402 5.22096694443644  0.848439138591402 5.22096694443644  C 0.848439138591402 5.22096694443644  2.00468004431696 4.46865954993159  2.00468004431696 4.46865954993159  C 2.00468004431696 4.46865954993159  0.39695459445079 3.52489668077793  0.39695459445079 3.52489668077793  C 0.39695459445079 3.52489668077793  0.352907321851944 0.966150572522689  0.352907321851944 0.966150572522689  C 0.352907321851944 0.966150572522689  3.33986299497633 0.396288983272205  3.33986299497633 0.396288983272205  C 3.33986299497633 0.396288983272205  6.11208821418018 2.67798775762284  6.11208821418018 2.67798775762284  C 6.11208821418018 2.67798775762284  5.95241685100859 4.024933332215  5.95241685100859 4.024933332215  C 5.95241685100859 4.024933332215  9.03297297840618 4.31099033551477  9.03297297840618 4.31099033551477  C 9.03297297840618 4.31099033551477  9.76250593082818 3.79293434528699  9.76250593082818 3.79293434528699  C 9.76250593082818 3.79293434528699  11.8822809246585 5.35385956801644  11.8822809246585 5.35385956801644  C 11.8822809246585 5.35385956801644  15.6813581863282 4.89436642885783  15.6813581863282 4.89436642885783  C 15.6813581863282 4.89436642885783  18.9628799949589 3.29064527650086  18.9628799949589 3.29064527650086  C 18.9628799949589 3.29064527650086  25.6511615722225 2.00901980502472  25.6511615722225 2.00901980502472  C 25.6511615722225 2.00901980502472  28.2857390645545 0.107979562623727  28.2857390645545 0.107979562623727  C 28.2857390645545 0.107979562623727  32.5473126885145 0.481880842527268  32.5473126885145 0.481880842527268  C 32.5473126885145 0.481880842527268  32.2610054166205 1.10805286549823  32.2610054166205 1.10805286549823  C 32.2610054166205 1.10805286549823  36.5638733586422 1.32428493098459  36.5638733586422 1.32428493098459  C 36.5638733586422 1.32428493098459  39.9995606213697 2.42346459720672  39.9995606213697 2.42346459720672  C 39.9995606213697 2.42346459720672  42.518514023129 4.33351450900289  42.518514023129 4.33351450900289  C 42.518514023129 4.33351450900289  45.4228810601301 6.08814762373058  45.4228810601301 6.08814762373058  C 45.4228810601301 6.08814762373058  44.4841235628624 7.01614357144296  44.4841235628624 7.01614357144296  C 44.4841235628624 7.01614357144296  46.2762969667372 12.3870151721435  46.2762969667372 12.3870151721435  C 46.2762969667372 12.3870151721435  44.8199840164305 14.2677836584051  44.8199840164305 14.2677836584051  C 44.8199840164305 14.2677836584051  42.3340660691206 13.8150477712929  42.3340660691206 13.8150477712929  Z " fill-rule="evenodd" />
    </mask>
  </defs>
  <g transform="matrix(1 0 0 1 -1154 -1974 )">
    <path d="M 42.3340660691206 13.8150477712929  C 42.3340660691206 13.8150477712929  41.3457553901787 16.8895974524269  41.3457553901787 16.8895974524269  C 41.3457553901787 16.8895974524269  38.7717428976705 15.0651393998858  38.7717428976705 15.0651393998858  C 38.7717428976705 15.0651393998858  37.117217220668 11.6459698643829  37.117217220668 11.6459698643829  C 37.117217220668 11.6459698643829  39.0250147151153 9.95440443542214  39.0250147151153 9.95440443542214  C 39.0250147151153 9.95440443542214  37.0704169935316 9.51743546975166  37.0704169935316 9.51743546975166  C 37.0704169935316 9.51743546975166  35.6278688159118 5.78632369898915  35.6278688159118 5.78632369898915  C 35.6278688159118 5.78632369898915  31.7819913271055 4.0226809148663  31.7819913271055 4.0226809148663  C 31.7819913271055 4.0226809148663  28.4068690642018 4.42586362030405  28.4068690642018 4.42586362030405  C 28.4068690642018 4.42586362030405  26.8404379323974 6.63323262214387  26.8404379323974 6.63323262214387  C 26.8404379323974 6.63323262214387  21.7213404414758 9.86430774146931  21.7213404414758 9.86430774146931  C 21.7213404414758 9.86430774146931  20.0392852190989 10.0850446416534  20.0392852190989 10.0850446416534  C 20.0392852190989 10.0850446416534  19.2822227213023 11.4049612080597  19.2822227213023 11.4049612080597  C 19.2822227213023 11.4049612080597  24.9656758923995 14.842150082353  24.9656758923995 14.842150082353  C 24.9656758923995 14.842150082353  20.8569127167191 15.6507679105779  20.8569127167191 15.6507679105779  C 20.8569127167191 15.6507679105779  19.7419661290551 16.5877735276855  19.7419661290551 16.5877735276855  C 19.7419661290551 16.5877735276855  16.1493604576933 16.9098692085663  16.1493604576933 16.9098692085663  C 16.1493604576933 16.9098692085663  14.8141775070342 13.1303128972528  14.8141775070342 13.1303128972528  C 14.8141775070342 13.1303128972528  13.8093491008678 14.2069683899868  13.8093491008678 14.2069683899868  C 13.8093491008678 14.2069683899868  11.262866153734 13.8330671100833  11.262866153734 13.8330671100833  C 11.262866153734 13.8330671100833  9.70744684007946 11.2855830885723  9.70744684007946 11.2855830885723  C 9.70744684007946 11.2855830885723  6.54154912202125 10.8643810443438  6.54154912202125 10.8643810443438  C 6.54154912202125 10.8643810443438  4.53739821876343 10.1233357365832  4.53739821876343 10.1233357365832  C 4.53739821876343 10.1233357365832  1.22559391022082 10.1323454059784  1.22559391022082 10.1323454059784  C 1.22559391022082 10.1323454059784  0.986086865463449 11.5085724061051  0.986086865463449 11.5085724061051  C 0.986086865463449 11.5085724061051  0.0996355044071606 10.5490426155094  0.0996355044071606 10.5490426155094  C 0.0996355044071606 10.5490426155094  0.507072775948473 7.65583009850649  0.507072775948473 7.65583009850649  C 0.507072775948473 7.65583009850649  1.15126413770986 6.36969979233258  1.15126413770986 6.36969979233258  C 1.15126413770986 6.36969979233258  0.848439138591402 5.22096694443644  0.848439138591402 5.22096694443644  C 0.848439138591402 5.22096694443644  2.00468004431696 4.46865954993159  2.00468004431696 4.46865954993159  C 2.00468004431696 4.46865954993159  0.39695459445079 3.52489668077793  0.39695459445079 3.52489668077793  C 0.39695459445079 3.52489668077793  0.352907321851944 0.966150572522689  0.352907321851944 0.966150572522689  C 0.352907321851944 0.966150572522689  3.33986299497633 0.396288983272205  3.33986299497633 0.396288983272205  C 3.33986299497633 0.396288983272205  6.11208821418018 2.67798775762284  6.11208821418018 2.67798775762284  C 6.11208821418018 2.67798775762284  5.95241685100859 4.024933332215  5.95241685100859 4.024933332215  C 5.95241685100859 4.024933332215  9.03297297840618 4.31099033551477  9.03297297840618 4.31099033551477  C 9.03297297840618 4.31099033551477  9.76250593082818 3.79293434528699  9.76250593082818 3.79293434528699  C 9.76250593082818 3.79293434528699  11.8822809246585 5.35385956801644  11.8822809246585 5.35385956801644  C 11.8822809246585 5.35385956801644  15.6813581863282 4.89436642885783  15.6813581863282 4.89436642885783  C 15.6813581863282 4.89436642885783  18.9628799949589 3.29064527650086  18.9628799949589 3.29064527650086  C 18.9628799949589 3.29064527650086  25.6511615722225 2.00901980502472  25.6511615722225 2.00901980502472  C 25.6511615722225 2.00901980502472  28.2857390645545 0.107979562623727  28.2857390645545 0.107979562623727  C 28.2857390645545 0.107979562623727  32.5473126885145 0.481880842527268  32.5473126885145 0.481880842527268  C 32.5473126885145 0.481880842527268  32.2610054166205 1.10805286549823  32.2610054166205 1.10805286549823  C 32.2610054166205 1.10805286549823  36.5638733586422 1.32428493098459  36.5638733586422 1.32428493098459  C 36.5638733586422 1.32428493098459  39.9995606213697 2.42346459720672  39.9995606213697 2.42346459720672  C 39.9995606213697 2.42346459720672  42.518514023129 4.33351450900289  42.518514023129 4.33351450900289  C 42.518514023129 4.33351450900289  45.4228810601301 6.08814762373058  45.4228810601301 6.08814762373058  C 45.4228810601301 6.08814762373058  44.4841235628624 7.01614357144296  44.4841235628624 7.01614357144296  C 44.4841235628624 7.01614357144296  46.2762969667372 12.3870151721435  46.2762969667372 12.3870151721435  C 46.2762969667372 12.3870151721435  44.8199840164305 14.2677836584051  44.8199840164305 14.2677836584051  C 44.8199840164305 14.2677836584051  42.3340660691206 13.8150477712929  42.3340660691206 13.8150477712929  Z " fill-rule="nonzero" fill="#f2f2f2" stroke="none" transform="matrix(1 0 0 1 1154 1974 )" />
    <path d="M 42.3340660691206 13.8150477712929  C 42.3340660691206 13.8150477712929  41.3457553901787 16.8895974524269  41.3457553901787 16.8895974524269  C 41.3457553901787 16.8895974524269  38.7717428976705 15.0651393998858  38.7717428976705 15.0651393998858  C 38.7717428976705 15.0651393998858  37.117217220668 11.6459698643829  37.117217220668 11.6459698643829  C 37.117217220668 11.6459698643829  39.0250147151153 9.95440443542214  39.0250147151153 9.95440443542214  C 39.0250147151153 9.95440443542214  37.0704169935316 9.51743546975166  37.0704169935316 9.51743546975166  C 37.0704169935316 9.51743546975166  35.6278688159118 5.78632369898915  35.6278688159118 5.78632369898915  C 35.6278688159118 5.78632369898915  31.7819913271055 4.0226809148663  31.7819913271055 4.0226809148663  C 31.7819913271055 4.0226809148663  28.4068690642018 4.42586362030405  28.4068690642018 4.42586362030405  C 28.4068690642018 4.42586362030405  26.8404379323974 6.63323262214387  26.8404379323974 6.63323262214387  C 26.8404379323974 6.63323262214387  21.7213404414758 9.86430774146931  21.7213404414758 9.86430774146931  C 21.7213404414758 9.86430774146931  20.0392852190989 10.0850446416534  20.0392852190989 10.0850446416534  C 20.0392852190989 10.0850446416534  19.2822227213023 11.4049612080597  19.2822227213023 11.4049612080597  C 19.2822227213023 11.4049612080597  24.9656758923995 14.842150082353  24.9656758923995 14.842150082353  C 24.9656758923995 14.842150082353  20.8569127167191 15.6507679105779  20.8569127167191 15.6507679105779  C 20.8569127167191 15.6507679105779  19.7419661290551 16.5877735276855  19.7419661290551 16.5877735276855  C 19.7419661290551 16.5877735276855  16.1493604576933 16.9098692085663  16.1493604576933 16.9098692085663  C 16.1493604576933 16.9098692085663  14.8141775070342 13.1303128972528  14.8141775070342 13.1303128972528  C 14.8141775070342 13.1303128972528  13.8093491008678 14.2069683899868  13.8093491008678 14.2069683899868  C 13.8093491008678 14.2069683899868  11.262866153734 13.8330671100833  11.262866153734 13.8330671100833  C 11.262866153734 13.8330671100833  9.70744684007946 11.2855830885723  9.70744684007946 11.2855830885723  C 9.70744684007946 11.2855830885723  6.54154912202125 10.8643810443438  6.54154912202125 10.8643810443438  C 6.54154912202125 10.8643810443438  4.53739821876343 10.1233357365832  4.53739821876343 10.1233357365832  C 4.53739821876343 10.1233357365832  1.22559391022082 10.1323454059784  1.22559391022082 10.1323454059784  C 1.22559391022082 10.1323454059784  0.986086865463449 11.5085724061051  0.986086865463449 11.5085724061051  C 0.986086865463449 11.5085724061051  0.0996355044071606 10.5490426155094  0.0996355044071606 10.5490426155094  C 0.0996355044071606 10.5490426155094  0.507072775948473 7.65583009850649  0.507072775948473 7.65583009850649  C 0.507072775948473 7.65583009850649  1.15126413770986 6.36969979233258  1.15126413770986 6.36969979233258  C 1.15126413770986 6.36969979233258  0.848439138591402 5.22096694443644  0.848439138591402 5.22096694443644  C 0.848439138591402 5.22096694443644  2.00468004431696 4.46865954993159  2.00468004431696 4.46865954993159  C 2.00468004431696 4.46865954993159  0.39695459445079 3.52489668077793  0.39695459445079 3.52489668077793  C 0.39695459445079 3.52489668077793  0.352907321851944 0.966150572522689  0.352907321851944 0.966150572522689  C 0.352907321851944 0.966150572522689  3.33986299497633 0.396288983272205  3.33986299497633 0.396288983272205  C 3.33986299497633 0.396288983272205  6.11208821418018 2.67798775762284  6.11208821418018 2.67798775762284  C 6.11208821418018 2.67798775762284  5.95241685100859 4.024933332215  5.95241685100859 4.024933332215  C 5.95241685100859 4.024933332215  9.03297297840618 4.31099033551477  9.03297297840618 4.31099033551477  C 9.03297297840618 4.31099033551477  9.76250593082818 3.79293434528699  9.76250593082818 3.79293434528699  C 9.76250593082818 3.79293434528699  11.8822809246585 5.35385956801644  11.8822809246585 5.35385956801644  C 11.8822809246585 5.35385956801644  15.6813581863282 4.89436642885783  15.6813581863282 4.89436642885783  C 15.6813581863282 4.89436642885783  18.9628799949589 3.29064527650086  18.9628799949589 3.29064527650086  C 18.9628799949589 3.29064527650086  25.6511615722225 2.00901980502472  25.6511615722225 2.00901980502472  C 25.6511615722225 2.00901980502472  28.2857390645545 0.107979562623727  28.2857390645545 0.107979562623727  C 28.2857390645545 0.107979562623727  32.5473126885145 0.481880842527268  32.5473126885145 0.481880842527268  C 32.5473126885145 0.481880842527268  32.2610054166205 1.10805286549823  32.2610054166205 1.10805286549823  C 32.2610054166205 1.10805286549823  36.5638733586422 1.32428493098459  36.5638733586422 1.32428493098459  C 36.5638733586422 1.32428493098459  39.9995606213697 2.42346459720672  39.9995606213697 2.42346459720672  C 39.9995606213697 2.42346459720672  42.518514023129 4.33351450900289  42.518514023129 4.33351450900289  C 42.518514023129 4.33351450900289  45.4228810601301 6.08814762373058  45.4228810601301 6.08814762373058  C 45.4228810601301 6.08814762373058  44.4841235628624 7.01614357144296  44.4841235628624 7.01614357144296  C 44.4841235628624 7.01614357144296  46.2762969667372 12.3870151721435  46.2762969667372 12.3870151721435  C 46.2762969667372 12.3870151721435  44.8199840164305 14.2677836584051  44.8199840164305 14.2677836584051  C 44.8199840164305 14.2677836584051  42.3340660691206 13.8150477712929  42.3340660691206 13.8150477712929  Z " stroke-width="2" stroke="#505050" fill="none" stroke-opacity="0.211764705882353" transform="matrix(1 0 0 1 1154 1974 )" mask="url(#clip722)" />
  </g>
</svg>