<?xml version="1.0" encoding="utf-8"?>
<svg version="1.1" xmlns:xlink="http://www.w3.org/1999/xlink" width="102px" height="114px" xmlns="http://www.w3.org/2000/svg">
  <defs>
    <mask fill="white" id="clip723">
      <path d="M 98.2109131442876 101.898558834182  C 98.2109131442876 101.898558834182  93.3436895220905 108.661097376143  93.3436895220905 108.661097376143  C 93.3436895220905 108.661097376143  91.2734677099343 111.887597805731  91.2734677099343 111.887597805731  C 91.2734677099343 111.887597805731  87.3037072669429 113.497623669663  87.3037072669429 113.497623669663  C 87.3037072669429 113.497623669663  79.5651520621939 109.87990200211  79.5651520621939 109.87990200211  C 79.5651520621939 109.87990200211  78.8961841095954 107.302570879474  78.8961841095954 107.302570879474  C 78.8961841095954 107.302570879474  63.592509835956 101.01723626514  63.592509835956 101.01723626514  C 63.592509835956 101.01723626514  47.7506544216983 94.2074072438653  47.7506544216983 94.2074072438653  C 47.7506544216983 94.2074072438653  41.7960137572113 90.3876262556055  41.7960137572113 90.3876262556055  C 41.7960137572113 90.3876262556055  38.5998335392412 85.2824040568903  38.5998335392412 85.2824040568903  C 38.5998335392412 85.2824040568903  39.8661926264645 83.5047119481167  39.8661926264645 83.5047119481167  C 39.8661926264645 83.5047119481167  33.3306785545776 75.4438347922511  33.3306785545776 75.4438347922511  C 33.3306785545776 75.4438347922511  25.7187592585506 64.1758033119715  25.7187592585506 64.1758033119715  C 25.7187592585506 64.1758033119715  18.4261826888671 50.5292924442809  18.4261826888671 50.5292924442809  C 18.4261826888671 50.5292924442809  15.2712967889586 47.7735472405956  15.2712967889586 47.7735472405956  C 15.2712967889586 47.7735472405956  12.8404379323974 43.3260926177992  12.8404379323974 43.3260926177992  C 12.8404379323974 43.3260926177992  6.8445029498489 39.3902349984953  6.8445029498489 39.3902349984953  C 6.8445029498489 39.3902349984953  1.34409978404005 36.9504761793196  1.34409978404005 36.9504761793196  C 1.34409978404005 36.9504761793196  3.84378250403734 34.2635171273644  3.84378250403734 34.2635171273644  C 3.84378250403734 34.2635171273644  0.102517287653882 28.5306212941128  0.102517287653882 28.5306212941128  C 0.102517287653882 28.5306212941128  2.50309364430314 24.3239182023716  2.50309364430314 24.3239182023716  C 2.50309364430314 24.3239182023716  8.65869999002325 20.5363807227354  8.65869999002325 20.5363807227354  C 8.65869999002325 20.5363807227354  9.5726808964539 23.0320282901917  9.5726808964539 23.0320282901917  C 9.5726808964539 23.0320282901917  7.37031726650048 24.4614905058317  7.37031726650048 24.4614905058317  C 7.37031726650048 24.4614905058317  7.57954181134596 26.6626473611936  7.57954181134596 26.6626473611936  C 7.57954181134596 26.6626473611936  10.7702161202412 26.1832938663246  10.7702161202412 26.1832938663246  C 10.7702161202412 26.1832938663246  13.8865606566253 26.8324631732769  13.8865606566253 26.8324631732769  C 13.8865606566253 26.8324631732769  17.1267881471945 29.8655025511242  17.1267881471945 29.8655025511242  C 17.1267881471945 29.8655025511242  21.49022108904 27.3935002233254  21.49022108904 27.3935002233254  C 21.49022108904 27.3935002233254  22.9520399484215 23.3458651074599  22.9520399484215 23.3458651074599  C 22.9520399484215 23.3458651074599  27.6816158437468 18.1267158449419  27.6816158437468 18.1267158449419  C 27.6816158437468 18.1267158449419  36.9618255894634 15.7621918792213  36.9618255894634 15.7621918792213  C 36.9618255894634 15.7621918792213  45.3803605649605 9.48975466833688  45.3803605649605 9.48975466833688  C 45.3803605649605 9.48975466833688  47.7836898761475 5.59688839386417  47.7836898761475 5.59688839386417  C 47.7836898761475 5.59688839386417  46.7045316974702 1.0505536779559  46.7045316974702 1.0505536779559  C 46.7045316974702 1.0505536779559  48.7637416914768 0.480918358941281  48.7637416914768 0.480918358941281  C 48.7637416914768 0.480918358941281  55.8980019038058 3.31834711780605  55.8980019038058 3.31834711780605  C 55.8980019038058 3.31834711780605  58.3618962148164 6.14287847322139  58.3618962148164 6.14287847322139  C 58.3618962148164 6.14287847322139  61.9352312044159 7.68626775266446  61.9352312044159 7.68626775266446  C 61.9352312044159 7.68626775266446  66.4831121002699 13.9651536652736  66.4831121002699 13.9651536652736  C 66.4831121002699 13.9651536652736  72.2285282199111 14.717502199821  72.2285282199111 14.717502199821  C 72.2285282199111 14.717502199821  76.481842980259 13.1332711427882  76.481842980259 13.1332711427882  C 76.481842980259 13.1332711427882  79.2705859266875 14.169362553222  79.2705859266875 14.169362553222  C 79.2705859266875 14.169362553222  83.9038084132021 13.6534664152469  83.9038084132021 13.6534664152469  C 83.9038084132021 13.6534664152469  89.81440180509 16.4608012327296  89.81440180509 16.4608012327296  C 89.81440180509 16.4608012327296  84.8343070468575 22.5634226315307  84.8343070468575 22.5634226315307  C 84.8343070468575 22.5634226315307  87.1385299946965 22.7052940694737  87.1385299946965 22.7052940694737  C 87.1385299946965 22.7052940694737  91.0036781652648 25.895251855955  91.0036781652648 25.895251855955  C 91.0036781652648 25.895251855955  84.0469620491492 25.61365854731  84.0469620491492 25.61365854731  C 84.0469620491492 25.61365854731  83.011851143071 26.5164767887669  83.011851143071 26.5164767887669  C 83.011851143071 26.5164767887669  76.6855616160296 27.6729439647285  76.6855616160296 27.6729439647285  C 76.6855616160296 27.6729439647285  67.8595893689908 31.7614208581838  67.8595893689908 31.7614208581838  C 67.8595893689908 31.7614208581838  67.2979866433527 34.5687556756668  67.2979866433527 34.5687556756668  C 67.2979866433527 34.5687556756668  65.3296241490818 36.6624341689503  65.3296241490818 36.6624341689503  C 65.3296241490818 36.6624341689503  66.0976984650281 39.9211781071616  66.0976984650281 39.9211781071616  C 66.0976984650281 39.9211781071616  61.4341934786014 41.6623275728287  61.4341934786014 41.6623275728287  C 61.4341934786014 41.6623275728287  61.4396993876765 44.2095647540823  61.4396993876765 44.2095647540823  C 61.4396993876765 44.2095647540823  59.4052659845067 45.3144423162462  59.4052659845067 45.3144423162462  C 59.4052659845067 45.3144423162462  62.6179639297015 50.7592961391285  62.6179639297015 50.7592961391285  C 62.6179639297015 50.7592961391285  66.9070670990359 54.4436543911696  66.9070670990359 54.4436543911696  C 66.9070670990359 54.4436543911696  65.2745650583329 58.6105737235618  65.2745650583329 58.6105737235618  C 65.2745650583329 58.6105737235618  70.3978134525123 58.9631027511782  70.3978134525123 58.9631027511782  C 70.3978134525123 58.9631027511782  73.3159452622008 62.2046501514572  73.3159452622008 62.2046501514572  C 73.3159452622008 62.2046501514572  80.1295077423695 62.3615685600914  80.1295077423695 62.3615685600914  C 80.1295077423695 62.3615685600914  86.4613031784857 58.7803895356454  86.4613031784857 58.7803895356454  C 86.4613031784857 58.7803895356454  85.9465006799842 68.0235286743712  85.9465006799842 68.0235286743712  C 85.9465006799842 68.0235286743712  89.4565177152226 68.7242875951212  89.4565177152226 68.7242875951212  C 89.4565177152226 68.7242875951212  93.8116917934556 67.675298781238  93.8116917934556 67.675298781238  C 93.8116917934556 67.675298781238  100.484853592215 77.5203167476019  100.484853592215 77.5203167476019  C 100.484853592215 77.5203167476019  98.8275749606748 79.5989482701946  98.8275749606748 79.5989482701946  C 98.8275749606748 79.5989482701946  98.4449142799704 83.9238775602218  98.4449142799704 83.9238775602218  C 98.4449142799704 83.9238775602218  98.2962547349484 89.1752703313633  98.2962547349484 89.1752703313633  C 98.2962547349484 89.1752703313633  95.2790165619122 92.2706471592156  95.2790165619122 92.2706471592156  C 95.2790165619122 92.2706471592156  96.6609997397079 94.5706841076894  96.6609997397079 94.5706841076894  C 96.6609997397079 94.5706841076894  94.8908499721329 96.66006346649  94.8908499721329 96.66006346649  C 94.8908499721329 96.66006346649  98.2109131442876 101.898558834182  98.2109131442876 101.898558834182  Z " fill-rule="evenodd" />
    </mask>
  </defs>
  <g transform="matrix(1 0 0 1 -1167 -2034 )">
    <path d="M 98.2109131442876 101.898558834182  C 98.2109131442876 101.898558834182  93.3436895220905 108.661097376143  93.3436895220905 108.661097376143  C 93.3436895220905 108.661097376143  91.2734677099343 111.887597805731  91.2734677099343 111.887597805731  C 91.2734677099343 111.887597805731  87.3037072669429 113.497623669663  87.3037072669429 113.497623669663  C 87.3037072669429 113.497623669663  79.5651520621939 109.87990200211  79.5651520621939 109.87990200211  C 79.5651520621939 109.87990200211  78.8961841095954 107.302570879474  78.8961841095954 107.302570879474  C 78.8961841095954 107.302570879474  63.592509835956 101.01723626514  63.592509835956 101.01723626514  C 63.592509835956 101.01723626514  47.7506544216983 94.2074072438653  47.7506544216983 94.2074072438653  C 47.7506544216983 94.2074072438653  41.7960137572113 90.3876262556055  41.7960137572113 90.3876262556055  C 41.7960137572113 90.3876262556055  38.5998335392412 85.2824040568903  38.5998335392412 85.2824040568903  C 38.5998335392412 85.2824040568903  39.8661926264645 83.5047119481167  39.8661926264645 83.5047119481167  C 39.8661926264645 83.5047119481167  33.3306785545776 75.4438347922511  33.3306785545776 75.4438347922511  C 33.3306785545776 75.4438347922511  25.7187592585506 64.1758033119715  25.7187592585506 64.1758033119715  C 25.7187592585506 64.1758033119715  18.4261826888671 50.5292924442809  18.4261826888671 50.5292924442809  C 18.4261826888671 50.5292924442809  15.2712967889586 47.7735472405956  15.2712967889586 47.7735472405956  C 15.2712967889586 47.7735472405956  12.8404379323974 43.3260926177992  12.8404379323974 43.3260926177992  C 12.8404379323974 43.3260926177992  6.8445029498489 39.3902349984953  6.8445029498489 39.3902349984953  C 6.8445029498489 39.3902349984953  1.34409978404005 36.9504761793196  1.34409978404005 36.9504761793196  C 1.34409978404005 36.9504761793196  3.84378250403734 34.2635171273644  3.84378250403734 34.2635171273644  C 3.84378250403734 34.2635171273644  0.102517287653882 28.5306212941128  0.102517287653882 28.5306212941128  C 0.102517287653882 28.5306212941128  2.50309364430314 24.3239182023716  2.50309364430314 24.3239182023716  C 2.50309364430314 24.3239182023716  8.65869999002325 20.5363807227354  8.65869999002325 20.5363807227354  C 8.65869999002325 20.5363807227354  9.5726808964539 23.0320282901917  9.5726808964539 23.0320282901917  C 9.5726808964539 23.0320282901917  7.37031726650048 24.4614905058317  7.37031726650048 24.4614905058317  C 7.37031726650048 24.4614905058317  7.57954181134596 26.6626473611936  7.57954181134596 26.6626473611936  C 7.57954181134596 26.6626473611936  10.7702161202412 26.1832938663246  10.7702161202412 26.1832938663246  C 10.7702161202412 26.1832938663246  13.8865606566253 26.8324631732769  13.8865606566253 26.8324631732769  C 13.8865606566253 26.8324631732769  17.1267881471945 29.8655025511242  17.1267881471945 29.8655025511242  C 17.1267881471945 29.8655025511242  21.49022108904 27.3935002233254  21.49022108904 27.3935002233254  C 21.49022108904 27.3935002233254  22.9520399484215 23.3458651074599  22.9520399484215 23.3458651074599  C 22.9520399484215 23.3458651074599  27.6816158437468 18.1267158449419  27.6816158437468 18.1267158449419  C 27.6816158437468 18.1267158449419  36.9618255894634 15.7621918792213  36.9618255894634 15.7621918792213  C 36.9618255894634 15.7621918792213  45.3803605649605 9.48975466833688  45.3803605649605 9.48975466833688  C 45.3803605649605 9.48975466833688  47.7836898761475 5.59688839386417  47.7836898761475 5.59688839386417  C 47.7836898761475 5.59688839386417  46.7045316974702 1.0505536779559  46.7045316974702 1.0505536779559  C 46.7045316974702 1.0505536779559  48.7637416914768 0.480918358941281  48.7637416914768 0.480918358941281  C 48.7637416914768 0.480918358941281  55.8980019038058 3.31834711780605  55.8980019038058 3.31834711780605  C 55.8980019038058 3.31834711780605  58.3618962148164 6.14287847322139  58.3618962148164 6.14287847322139  C 58.3618962148164 6.14287847322139  61.9352312044159 7.68626775266446  61.9352312044159 7.68626775266446  C 61.9352312044159 7.68626775266446  66.4831121002699 13.9651536652736  66.4831121002699 13.9651536652736  C 66.4831121002699 13.9651536652736  72.2285282199111 14.717502199821  72.2285282199111 14.717502199821  C 72.2285282199111 14.717502199821  76.481842980259 13.1332711427882  76.481842980259 13.1332711427882  C 76.481842980259 13.1332711427882  79.2705859266875 14.169362553222  79.2705859266875 14.169362553222  C 79.2705859266875 14.169362553222  83.9038084132021 13.6534664152469  83.9038084132021 13.6534664152469  C 83.9038084132021 13.6534664152469  89.81440180509 16.4608012327296  89.81440180509 16.4608012327296  C 89.81440180509 16.4608012327296  84.8343070468575 22.5634226315307  84.8343070468575 22.5634226315307  C 84.8343070468575 22.5634226315307  87.1385299946965 22.7052940694737  87.1385299946965 22.7052940694737  C 87.1385299946965 22.7052940694737  91.0036781652648 25.895251855955  91.0036781652648 25.895251855955  C 91.0036781652648 25.895251855955  84.0469620491492 25.61365854731  84.0469620491492 25.61365854731  C 84.0469620491492 25.61365854731  83.011851143071 26.5164767887669  83.011851143071 26.5164767887669  C 83.011851143071 26.5164767887669  76.6855616160296 27.6729439647285  76.6855616160296 27.6729439647285  C 76.6855616160296 27.6729439647285  67.8595893689908 31.7614208581838  67.8595893689908 31.7614208581838  C 67.8595893689908 31.7614208581838  67.2979866433527 34.5687556756668  67.2979866433527 34.5687556756668  C 67.2979866433527 34.5687556756668  65.3296241490818 36.6624341689503  65.3296241490818 36.6624341689503  C 65.3296241490818 36.6624341689503  66.0976984650281 39.9211781071616  66.0976984650281 39.9211781071616  C 66.0976984650281 39.9211781071616  61.4341934786014 41.6623275728287  61.4341934786014 41.6623275728287  C 61.4341934786014 41.6623275728287  61.4396993876765 44.2095647540823  61.4396993876765 44.2095647540823  C 61.4396993876765 44.2095647540823  59.4052659845067 45.3144423162462  59.4052659845067 45.3144423162462  C 59.4052659845067 45.3144423162462  62.6179639297015 50.7592961391285  62.6179639297015 50.7592961391285  C 62.6179639297015 50.7592961391285  66.9070670990359 54.4436543911696  66.9070670990359 54.4436543911696  C 66.9070670990359 54.4436543911696  65.2745650583329 58.6105737235618  65.2745650583329 58.6105737235618  C 65.2745650583329 58.6105737235618  70.3978134525123 58.9631027511782  70.3978134525123 58.9631027511782  C 70.3978134525123 58.9631027511782  73.3159452622008 62.2046501514572  73.3159452622008 62.2046501514572  C 73.3159452622008 62.2046501514572  80.1295077423695 62.3615685600914  80.1295077423695 62.3615685600914  C 80.1295077423695 62.3615685600914  86.4613031784857 58.7803895356454  86.4613031784857 58.7803895356454  C 86.4613031784857 58.7803895356454  85.9465006799842 68.0235286743712  85.9465006799842 68.0235286743712  C 85.9465006799842 68.0235286743712  89.4565177152226 68.7242875951212  89.4565177152226 68.7242875951212  C 89.4565177152226 68.7242875951212  93.8116917934556 67.675298781238  93.8116917934556 67.675298781238  C 93.8116917934556 67.675298781238  100.484853592215 77.5203167476019  100.484853592215 77.5203167476019  C 100.484853592215 77.5203167476019  98.8275749606748 79.5989482701946  98.8275749606748 79.5989482701946  C 98.8275749606748 79.5989482701946  98.4449142799704 83.9238775602218  98.4449142799704 83.9238775602218  C 98.4449142799704 83.9238775602218  98.2962547349484 89.1752703313633  98.2962547349484 89.1752703313633  C 98.2962547349484 89.1752703313633  95.2790165619122 92.2706471592156  95.2790165619122 92.2706471592156  C 95.2790165619122 92.2706471592156  96.6609997397079 94.5706841076894  96.6609997397079 94.5706841076894  C 96.6609997397079 94.5706841076894  94.8908499721329 96.66006346649  94.8908499721329 96.66006346649  C 94.8908499721329 96.66006346649  98.2109131442876 101.898558834182  98.2109131442876 101.898558834182  Z " fill-rule="nonzero" fill="#f2f2f2" stroke="none" transform="matrix(1 0 0 1 1167 2034 )" />
    <path d="M 98.2109131442876 101.898558834182  C 98.2109131442876 101.898558834182  93.3436895220905 108.661097376143  93.3436895220905 108.661097376143  C 93.3436895220905 108.661097376143  91.2734677099343 111.887597805731  91.2734677099343 111.887597805731  C 91.2734677099343 111.887597805731  87.3037072669429 113.497623669663  87.3037072669429 113.497623669663  C 87.3037072669429 113.497623669663  79.5651520621939 109.87990200211  79.5651520621939 109.87990200211  C 79.5651520621939 109.87990200211  78.8961841095954 107.302570879474  78.8961841095954 107.302570879474  C 78.8961841095954 107.302570879474  63.592509835956 101.01723626514  63.592509835956 101.01723626514  C 63.592509835956 101.01723626514  47.7506544216983 94.2074072438653  47.7506544216983 94.2074072438653  C 47.7506544216983 94.2074072438653  41.7960137572113 90.3876262556055  41.7960137572113 90.3876262556055  C 41.7960137572113 90.3876262556055  38.5998335392412 85.2824040568903  38.5998335392412 85.2824040568903  C 38.5998335392412 85.2824040568903  39.8661926264645 83.5047119481167  39.8661926264645 83.5047119481167  C 39.8661926264645 83.5047119481167  33.3306785545776 75.4438347922511  33.3306785545776 75.4438347922511  C 33.3306785545776 75.4438347922511  25.7187592585506 64.1758033119715  25.7187592585506 64.1758033119715  C 25.7187592585506 64.1758033119715  18.4261826888671 50.5292924442809  18.4261826888671 50.5292924442809  C 18.4261826888671 50.5292924442809  15.2712967889586 47.7735472405956  15.2712967889586 47.7735472405956  C 15.2712967889586 47.7735472405956  12.8404379323974 43.3260926177992  12.8404379323974 43.3260926177992  C 12.8404379323974 43.3260926177992  6.8445029498489 39.3902349984953  6.8445029498489 39.3902349984953  C 6.8445029498489 39.3902349984953  1.34409978404005 36.9504761793196  1.34409978404005 36.9504761793196  C 1.34409978404005 36.9504761793196  3.84378250403734 34.2635171273644  3.84378250403734 34.2635171273644  C 3.84378250403734 34.2635171273644  0.102517287653882 28.5306212941128  0.102517287653882 28.5306212941128  C 0.102517287653882 28.5306212941128  2.50309364430314 24.3239182023716  2.50309364430314 24.3239182023716  C 2.50309364430314 24.3239182023716  8.65869999002325 20.5363807227354  8.65869999002325 20.5363807227354  C 8.65869999002325 20.5363807227354  9.5726808964539 23.0320282901917  9.5726808964539 23.0320282901917  C 9.5726808964539 23.0320282901917  7.37031726650048 24.4614905058317  7.37031726650048 24.4614905058317  C 7.37031726650048 24.4614905058317  7.57954181134596 26.6626473611936  7.57954181134596 26.6626473611936  C 7.57954181134596 26.6626473611936  10.7702161202412 26.1832938663246  10.7702161202412 26.1832938663246  C 10.7702161202412 26.1832938663246  13.8865606566253 26.8324631732769  13.8865606566253 26.8324631732769  C 13.8865606566253 26.8324631732769  17.1267881471945 29.8655025511242  17.1267881471945 29.8655025511242  C 17.1267881471945 29.8655025511242  21.49022108904 27.3935002233254  21.49022108904 27.3935002233254  C 21.49022108904 27.3935002233254  22.9520399484215 23.3458651074599  22.9520399484215 23.3458651074599  C 22.9520399484215 23.3458651074599  27.6816158437468 18.1267158449419  27.6816158437468 18.1267158449419  C 27.6816158437468 18.1267158449419  36.9618255894634 15.7621918792213  36.9618255894634 15.7621918792213  C 36.9618255894634 15.7621918792213  45.3803605649605 9.48975466833688  45.3803605649605 9.48975466833688  C 45.3803605649605 9.48975466833688  47.7836898761475 5.59688839386417  47.7836898761475 5.59688839386417  C 47.7836898761475 5.59688839386417  46.7045316974702 1.0505536779559  46.7045316974702 1.0505536779559  C 46.7045316974702 1.0505536779559  48.7637416914768 0.480918358941281  48.7637416914768 0.480918358941281  C 48.7637416914768 0.480918358941281  55.8980019038058 3.31834711780605  55.8980019038058 3.31834711780605  C 55.8980019038058 3.31834711780605  58.3618962148164 6.14287847322139  58.3618962148164 6.14287847322139  C 58.3618962148164 6.14287847322139  61.9352312044159 7.68626775266446  61.9352312044159 7.68626775266446  C 61.9352312044159 7.68626775266446  66.4831121002699 13.9651536652736  66.4831121002699 13.9651536652736  C 66.4831121002699 13.9651536652736  72.2285282199111 14.717502199821  72.2285282199111 14.717502199821  C 72.2285282199111 14.717502199821  76.481842980259 13.1332711427882  76.481842980259 13.1332711427882  C 76.481842980259 13.1332711427882  79.2705859266875 14.169362553222  79.2705859266875 14.169362553222  C 79.2705859266875 14.169362553222  83.9038084132021 13.6534664152469  83.9038084132021 13.6534664152469  C 83.9038084132021 13.6534664152469  89.81440180509 16.4608012327296  89.81440180509 16.4608012327296  C 89.81440180509 16.4608012327296  84.8343070468575 22.5634226315307  84.8343070468575 22.5634226315307  C 84.8343070468575 22.5634226315307  87.1385299946965 22.7052940694737  87.1385299946965 22.7052940694737  C 87.1385299946965 22.7052940694737  91.0036781652648 25.895251855955  91.0036781652648 25.895251855955  C 91.0036781652648 25.895251855955  84.0469620491492 25.61365854731  84.0469620491492 25.61365854731  C 84.0469620491492 25.61365854731  83.011851143071 26.5164767887669  83.011851143071 26.5164767887669  C 83.011851143071 26.5164767887669  76.6855616160296 27.6729439647285  76.6855616160296 27.6729439647285  C 76.6855616160296 27.6729439647285  67.8595893689908 31.7614208581838  67.8595893689908 31.7614208581838  C 67.8595893689908 31.7614208581838  67.2979866433527 34.5687556756668  67.2979866433527 34.5687556756668  C 67.2979866433527 34.5687556756668  65.3296241490818 36.6624341689503  65.3296241490818 36.6624341689503  C 65.3296241490818 36.6624341689503  66.0976984650281 39.9211781071616  66.0976984650281 39.9211781071616  C 66.0976984650281 39.9211781071616  61.4341934786014 41.6623275728287  61.4341934786014 41.6623275728287  C 61.4341934786014 41.6623275728287  61.4396993876765 44.2095647540823  61.4396993876765 44.2095647540823  C 61.4396993876765 44.2095647540823  59.4052659845067 45.3144423162462  59.4052659845067 45.3144423162462  C 59.4052659845067 45.3144423162462  62.6179639297015 50.7592961391285  62.6179639297015 50.7592961391285  C 62.6179639297015 50.7592961391285  66.9070670990359 54.4436543911696  66.9070670990359 54.4436543911696  C 66.9070670990359 54.4436543911696  65.2745650583329 58.6105737235618  65.2745650583329 58.6105737235618  C 65.2745650583329 58.6105737235618  70.3978134525123 58.9631027511782  70.3978134525123 58.9631027511782  C 70.3978134525123 58.9631027511782  73.3159452622008 62.2046501514572  73.3159452622008 62.2046501514572  C 73.3159452622008 62.2046501514572  80.1295077423695 62.3615685600914  80.1295077423695 62.3615685600914  C 80.1295077423695 62.3615685600914  86.4613031784857 58.7803895356454  86.4613031784857 58.7803895356454  C 86.4613031784857 58.7803895356454  85.9465006799842 68.0235286743712  85.9465006799842 68.0235286743712  C 85.9465006799842 68.0235286743712  89.4565177152226 68.7242875951212  89.4565177152226 68.7242875951212  C 89.4565177152226 68.7242875951212  93.8116917934556 67.675298781238  93.8116917934556 67.675298781238  C 93.8116917934556 67.675298781238  100.484853592215 77.5203167476019  100.484853592215 77.5203167476019  C 100.484853592215 77.5203167476019  98.8275749606748 79.5989482701946  98.8275749606748 79.5989482701946  C 98.8275749606748 79.5989482701946  98.4449142799704 83.9238775602218  98.4449142799704 83.9238775602218  C 98.4449142799704 83.9238775602218  98.2962547349484 89.1752703313633  98.2962547349484 89.1752703313633  C 98.2962547349484 89.1752703313633  95.2790165619122 92.2706471592156  95.2790165619122 92.2706471592156  C 95.2790165619122 92.2706471592156  96.6609997397079 94.5706841076894  96.6609997397079 94.5706841076894  C 96.6609997397079 94.5706841076894  94.8908499721329 96.66006346649  94.8908499721329 96.66006346649  C 94.8908499721329 96.66006346649  98.2109131442876 101.898558834182  98.2109131442876 101.898558834182  Z " stroke-width="2" stroke="#505050" fill="none" stroke-opacity="0.211764705882353" transform="matrix(1 0 0 1 1167 2034 )" mask="url(#clip723)" />
  </g>
</svg>