<?xml version="1.0" encoding="utf-8"?>
<svg version="1.1" xmlns:xlink="http://www.w3.org/1999/xlink" width="120px" height="54px" xmlns="http://www.w3.org/2000/svg">
  <defs>
    <mask fill="white" id="clip724">
      <path d="M 118.799411953472 27.3463395221372  C 118.799411953472 27.3463395221372  117.720253774794 29.0602966294478  117.720253774794 29.0602966294478  C 117.720253774794 29.0602966294478  115.559184462903 29.674610337553  115.559184462903 29.674610337553  C 115.559184462903 29.674610337553  110.217097654448 27.3201054847803  110.217097654448 27.3201054847803  C 110.217097654448 27.3201054847803  106.83646948247 21.8426741525173  106.83646948247 21.8426741525173  C 106.83646948247 21.8426741525173  105.173684941854 17.1839463519057  105.173684941854 17.1839463519057  C 105.173684941854 17.1839463519057  106.244584256919 16.5914943415979  106.244584256919 16.5914943415979  C 106.244584256919 16.5914943415979  107.07322357269 18.4103875983361  107.07322357269 18.4103875983361  C 107.07322357269 18.4103875983361  109.413234929515 19.7986054084666  109.413234929515 19.7986054084666  C 109.413234929515 19.7986054084666  115.154500145899 25.2672920616108  115.154500145899 25.2672920616108  C 115.154500145899 25.2672920616108  118.799411953472 27.3463395221372  118.799411953472 27.3463395221372  Z M 90.2292497639 15.5246434890881  C 90.2292497639 15.5246434890881  87.6414724987044 20.8424844274306  87.6414724987044 20.8424844274306  C 87.6414724987044 20.8424844274306  83.597382283202 21.3453034767693  83.597382283202 21.3453034767693  C 83.597382283202 21.3453034767693  82.3805763776527 23.0614467538599  82.3805763776527 23.0614467538599  C 82.3805763776527 23.0614467538599  78.160297071754 24.5502283738581  78.160297071754 24.5502283738581  C 78.160297071754 24.5502283738581  72.1987954923752 25.9821695795836  72.1987954923752 25.9821695795836  C 72.1987954923752 25.9821695795836  68.0996461861241 25.9756110702443  68.0996461861241 25.9756110702443  C 68.0996461861241 25.9756110702443  61.7706037045455 24.1982550393211  61.7706037045455 24.1982550393211  C 61.7706037045455 24.1982550393211  57.3603705355636 22.4908564413493  57.3603705355636 22.4908564413493  C 57.3603705355636 22.4908564413493  57.9990559882499 20.5976334121004  57.9990559882499 20.5976334121004  C 57.9990559882499 20.5976334121004  64.919983695379 21.4917768520115  64.919983695379 21.4917768520115  C 64.919983695379 21.4917768520115  69.1430159558145 21.0130056702496  69.1430159558145 21.0130056702496  C 69.1430159558145 21.0130056702496  70.3075157251524 16.4931167015099  70.3075157251524 16.4931167015099  C 70.3075157251524 16.4931167015099  71.4142034492043 16.3422709867081  71.4142034492043 16.3422709867081  C 71.4142034492043 16.3422709867081  72.1630070833885 21.1769684037298  72.1630070833885 21.1769684037298  C 72.1630070833885 21.1769684037298  78.5677343432958 20.7091280708669  78.5677343432958 20.7091280708669  C 78.5677343432958 20.7091280708669  80.7453213824128 17.0287282975444  80.7453213824128 17.0287282975444  C 80.7453213824128 17.0287282975444  85.0536952335096 14.8491170271504  85.0536952335096 14.8491170271504  C 85.0536952335096 14.8491170271504  84.2030322814398 11.2506815697093  84.2030322814398 11.2506815697093  C 84.2030322814398 11.2506815697093  88.8279959043421 11.1348145713836  88.8279959043421 11.1348145713836  C 88.8279959043421 11.1348145713836  90.3861681725343 12.1360803305015  90.3861681725343 12.1360803305015  C 90.3861681725343 12.1360803305015  90.2292497639 15.5246434890881  90.2292497639 15.5246434890881  Z M 48.9569553385709 28.4503552609026  C 48.9569553385709 28.4503552609026  50.65828124271 32.5472374281225  50.65828124271 32.5472374281225  C 50.65828124271 32.5472374281225  57.5516794044647 36.5785345019504  57.5516794044647 36.5785345019504  C 57.5516794044647 36.5785345019504  62.5620566626089 43.1086236340139  62.5620566626089 43.1086236340139  C 62.5620566626089 43.1086236340139  66.9833016497405 42.9031236747191  66.9833016497405 42.9031236747191  C 66.9833016497405 42.9031236747191  66.6722177870097 45.6358358993856  66.6722177870097 45.6358358993856  C 66.6722177870097 45.6358358993856  72.632364360571 46.6851973936577  72.632364360571 46.6851973936577  C 72.632364360571 46.6851973936577  70.3171295945826 47.8504258862554  70.3171295945826 47.8504258862554  C 70.3171295945826 47.8504258862554  78.5181811616221 50.4519679241378  78.5181811616221 50.4519679241378  C 78.5181811616221 50.4519679241378  77.6620123004773 52.2424409737395  77.6620123004773 52.2424409737395  C 77.6620123004773 52.2424409737395  72.549775724448 52.6753025901268  72.549775724448 52.6753025901268  C 72.549775724448 52.6753025901268  70.6529900481505 51.0706539718026  70.6529900481505 51.0706539718026  C 70.6529900481505 51.0706539718026  64.0211225674529 50.3754519818475  64.0211225674529 50.3754519818475  C 64.0211225674529 50.3754519818475  56.2247553174175 49.4441436556811  56.2247553174175 49.4441436556811  C 56.2247553174175 49.4441436556811  50.2205614712566 45.5002933730423  50.2205614712566 45.5002933730423  C 50.2205614712566 45.5002933730423  45.8406108021868 42.1073578748961  45.8406108021868 42.1073578748961  C 45.8406108021868 42.1073578748961  41.8295560411339 36.7184493678537  41.8295560411339 36.7184493678537  C 41.8295560411339 36.7184493678537  29.7620012977086 34.0316467085617  29.7620012977086 34.0316467085617  C 29.7620012977086 34.0316467085617  23.2237342712838 35.7849548719077  23.2237342712838 35.7849548719077  C 23.2237342712838 35.7849548719077  18.5106761031834 37.8159065972799  18.5106761031834 37.8159065972799  C 18.5106761031834 37.8159065972799  19.49348087305 42.3587673995654  19.49348087305 42.3587673995654  C 19.49348087305 42.3587673995654  13.4314749816031 44.4793520859068  13.4314749816031 44.4793520859068  C 13.4314749816031 44.4793520859068  9.1093363578193 43.4474799498728  9.1093363578193 43.4474799498728  C 9.1093363578193 43.4474799498728  1.12576819923788 43.1895119158642  1.12576819923788 43.1895119158642  C 1.12576819923788 43.1895119158642  0.993626381440663 21.5825199487291  0.993626381440663 21.5825199487291  C 0.993626381440663 21.5825199487291  0.864237518180744 1.68181644381722  0.864237518180744 1.68181644381722  C 0.864237518180744 1.68181644381722  14.2573613428358 5.88144859068497  14.2573613428358 5.88144859068497  C 14.2573613428358 5.88144859068497  28.5286776649341 9.37276172891884  28.5286776649341 9.37276172891884  C 28.5286776649341 9.37276172891884  33.8473858312718 12.4989845139373  33.8473858312718 12.4989845139373  C 33.8473858312718 12.4989845139373  38.1475008187563 15.5705530544627  38.1475008187563 15.5705530544627  C 38.1475008187563 15.5705530544627  41.320259451707 19.1711746816834  41.320259451707 19.1711746816834  C 41.320259451707 19.1711746816834  54.1820630506354 22.9532484006219  54.1820630506354 22.9532484006219  C 54.1820630506354 22.9532484006219  56.0595780451708 26.2018966933056  56.0595780451708 26.2018966933056  C 56.0595780451708 26.2018966933056  48.9569553385709 28.4503552609026  48.9569553385709 28.4503552609026  Z M 95.6470642935856 11.6889915596873  C 95.6470642935856 11.6889915596873  96.5720570181661 14.86331007986  96.5720570181661 14.86331007986  C 96.5720570181661 14.86331007986  94.1577158888294 16.4920065657614  94.1577158888294 16.4920065657614  C 94.1577158888294 16.4920065657614  92.70415589306 12.8870125989811  92.70415589306 12.8870125989811  C 92.70415589306 12.8870125989811  90.9092295346477 10.5281354066489  90.9092295346477 10.5281354066489  C 90.9092295346477 10.5281354066489  87.4129772720967 6.93955476407549  87.4129772720967 6.93955476407549  C 87.4129772720967 6.93955476407549  81.019261830339 4.33801272619269  81.019261830339 4.33801272619269  C 81.019261830339 4.33801272619269  75.447281846557 2.54535350681139  75.447281846557 2.54535350681139  C 75.447281846557 2.54535350681139  77.5918334312241 1.07406124505092  77.5918334312241 1.07406124505092  C 77.5918334312241 1.07406124505092  81.7598066009109 2.78145984302269  81.7598066009109 2.78145984302269  C 81.7598066009109 2.78145984302269  84.3833722750933 4.12158191799906  84.3833722750933 4.12158191799906  C 84.3833722750933 4.12158191799906  89.6263527202 5.58412950064069  89.6263527202 5.58412950064069  C 89.6263527202 5.58412950064069  92.7151677112097 9.7345557766058  92.7151677112097 9.7345557766058  C 92.7151677112097 9.7345557766058  95.6470642935856 11.6889915596873  95.6470642935856 11.6889915596873  Z " fill-rule="evenodd" />
    </mask>
  </defs>
  <g transform="matrix(1 0 0 1 -2878 -2047 )">
    <path d="M 118.799411953472 27.3463395221372  C 118.799411953472 27.3463395221372  117.720253774794 29.0602966294478  117.720253774794 29.0602966294478  C 117.720253774794 29.0602966294478  115.559184462903 29.674610337553  115.559184462903 29.674610337553  C 115.559184462903 29.674610337553  110.217097654448 27.3201054847803  110.217097654448 27.3201054847803  C 110.217097654448 27.3201054847803  106.83646948247 21.8426741525173  106.83646948247 21.8426741525173  C 106.83646948247 21.8426741525173  105.173684941854 17.1839463519057  105.173684941854 17.1839463519057  C 105.173684941854 17.1839463519057  106.244584256919 16.5914943415979  106.244584256919 16.5914943415979  C 106.244584256919 16.5914943415979  107.07322357269 18.4103875983361  107.07322357269 18.4103875983361  C 107.07322357269 18.4103875983361  109.413234929515 19.7986054084666  109.413234929515 19.7986054084666  C 109.413234929515 19.7986054084666  115.154500145899 25.2672920616108  115.154500145899 25.2672920616108  C 115.154500145899 25.2672920616108  118.799411953472 27.3463395221372  118.799411953472 27.3463395221372  Z M 90.2292497639 15.5246434890881  C 90.2292497639 15.5246434890881  87.6414724987044 20.8424844274306  87.6414724987044 20.8424844274306  C 87.6414724987044 20.8424844274306  83.597382283202 21.3453034767693  83.597382283202 21.3453034767693  C 83.597382283202 21.3453034767693  82.3805763776527 23.0614467538599  82.3805763776527 23.0614467538599  C 82.3805763776527 23.0614467538599  78.160297071754 24.5502283738581  78.160297071754 24.5502283738581  C 78.160297071754 24.5502283738581  72.1987954923752 25.9821695795836  72.1987954923752 25.9821695795836  C 72.1987954923752 25.9821695795836  68.0996461861241 25.9756110702443  68.0996461861241 25.9756110702443  C 68.0996461861241 25.9756110702443  61.7706037045455 24.1982550393211  61.7706037045455 24.1982550393211  C 61.7706037045455 24.1982550393211  57.3603705355636 22.4908564413493  57.3603705355636 22.4908564413493  C 57.3603705355636 22.4908564413493  57.9990559882499 20.5976334121004  57.9990559882499 20.5976334121004  C 57.9990559882499 20.5976334121004  64.919983695379 21.4917768520115  64.919983695379 21.4917768520115  C 64.919983695379 21.4917768520115  69.1430159558145 21.0130056702496  69.1430159558145 21.0130056702496  C 69.1430159558145 21.0130056702496  70.3075157251524 16.4931167015099  70.3075157251524 16.4931167015099  C 70.3075157251524 16.4931167015099  71.4142034492043 16.3422709867081  71.4142034492043 16.3422709867081  C 71.4142034492043 16.3422709867081  72.1630070833885 21.1769684037298  72.1630070833885 21.1769684037298  C 72.1630070833885 21.1769684037298  78.5677343432958 20.7091280708669  78.5677343432958 20.7091280708669  C 78.5677343432958 20.7091280708669  80.7453213824128 17.0287282975444  80.7453213824128 17.0287282975444  C 80.7453213824128 17.0287282975444  85.0536952335096 14.8491170271504  85.0536952335096 14.8491170271504  C 85.0536952335096 14.8491170271504  84.2030322814398 11.2506815697093  84.2030322814398 11.2506815697093  C 84.2030322814398 11.2506815697093  88.8279959043421 11.1348145713836  88.8279959043421 11.1348145713836  C 88.8279959043421 11.1348145713836  90.3861681725343 12.1360803305015  90.3861681725343 12.1360803305015  C 90.3861681725343 12.1360803305015  90.2292497639 15.5246434890881  90.2292497639 15.5246434890881  Z M 48.9569553385709 28.4503552609026  C 48.9569553385709 28.4503552609026  50.65828124271 32.5472374281225  50.65828124271 32.5472374281225  C 50.65828124271 32.5472374281225  57.5516794044647 36.5785345019504  57.5516794044647 36.5785345019504  C 57.5516794044647 36.5785345019504  62.5620566626089 43.1086236340139  62.5620566626089 43.1086236340139  C 62.5620566626089 43.1086236340139  66.9833016497405 42.9031236747191  66.9833016497405 42.9031236747191  C 66.9833016497405 42.9031236747191  66.6722177870097 45.6358358993856  66.6722177870097 45.6358358993856  C 66.6722177870097 45.6358358993856  72.632364360571 46.6851973936577  72.632364360571 46.6851973936577  C 72.632364360571 46.6851973936577  70.3171295945826 47.8504258862554  70.3171295945826 47.8504258862554  C 70.3171295945826 47.8504258862554  78.5181811616221 50.4519679241378  78.5181811616221 50.4519679241378  C 78.5181811616221 50.4519679241378  77.6620123004773 52.2424409737395  77.6620123004773 52.2424409737395  C 77.6620123004773 52.2424409737395  72.549775724448 52.6753025901268  72.549775724448 52.6753025901268  C 72.549775724448 52.6753025901268  70.6529900481505 51.0706539718026  70.6529900481505 51.0706539718026  C 70.6529900481505 51.0706539718026  64.0211225674529 50.3754519818475  64.0211225674529 50.3754519818475  C 64.0211225674529 50.3754519818475  56.2247553174175 49.4441436556811  56.2247553174175 49.4441436556811  C 56.2247553174175 49.4441436556811  50.2205614712566 45.5002933730423  50.2205614712566 45.5002933730423  C 50.2205614712566 45.5002933730423  45.8406108021868 42.1073578748961  45.8406108021868 42.1073578748961  C 45.8406108021868 42.1073578748961  41.8295560411339 36.7184493678537  41.8295560411339 36.7184493678537  C 41.8295560411339 36.7184493678537  29.7620012977086 34.0316467085617  29.7620012977086 34.0316467085617  C 29.7620012977086 34.0316467085617  23.2237342712838 35.7849548719077  23.2237342712838 35.7849548719077  C 23.2237342712838 35.7849548719077  18.5106761031834 37.8159065972799  18.5106761031834 37.8159065972799  C 18.5106761031834 37.8159065972799  19.49348087305 42.3587673995654  19.49348087305 42.3587673995654  C 19.49348087305 42.3587673995654  13.4314749816031 44.4793520859068  13.4314749816031 44.4793520859068  C 13.4314749816031 44.4793520859068  9.1093363578193 43.4474799498728  9.1093363578193 43.4474799498728  C 9.1093363578193 43.4474799498728  1.12576819923788 43.1895119158642  1.12576819923788 43.1895119158642  C 1.12576819923788 43.1895119158642  0.993626381440663 21.5825199487291  0.993626381440663 21.5825199487291  C 0.993626381440663 21.5825199487291  0.864237518180744 1.68181644381722  0.864237518180744 1.68181644381722  C 0.864237518180744 1.68181644381722  14.2573613428358 5.88144859068497  14.2573613428358 5.88144859068497  C 14.2573613428358 5.88144859068497  28.5286776649341 9.37276172891884  28.5286776649341 9.37276172891884  C 28.5286776649341 9.37276172891884  33.8473858312718 12.4989845139373  33.8473858312718 12.4989845139373  C 33.8473858312718 12.4989845139373  38.1475008187563 15.5705530544627  38.1475008187563 15.5705530544627  C 38.1475008187563 15.5705530544627  41.320259451707 19.1711746816834  41.320259451707 19.1711746816834  C 41.320259451707 19.1711746816834  54.1820630506354 22.9532484006219  54.1820630506354 22.9532484006219  C 54.1820630506354 22.9532484006219  56.0595780451708 26.2018966933056  56.0595780451708 26.2018966933056  C 56.0595780451708 26.2018966933056  48.9569553385709 28.4503552609026  48.9569553385709 28.4503552609026  Z M 95.6470642935856 11.6889915596873  C 95.6470642935856 11.6889915596873  96.5720570181661 14.86331007986  96.5720570181661 14.86331007986  C 96.5720570181661 14.86331007986  94.1577158888294 16.4920065657614  94.1577158888294 16.4920065657614  C 94.1577158888294 16.4920065657614  92.70415589306 12.8870125989811  92.70415589306 12.8870125989811  C 92.70415589306 12.8870125989811  90.9092295346477 10.5281354066489  90.9092295346477 10.5281354066489  C 90.9092295346477 10.5281354066489  87.4129772720967 6.93955476407549  87.4129772720967 6.93955476407549  C 87.4129772720967 6.93955476407549  81.019261830339 4.33801272619269  81.019261830339 4.33801272619269  C 81.019261830339 4.33801272619269  75.447281846557 2.54535350681139  75.447281846557 2.54535350681139  C 75.447281846557 2.54535350681139  77.5918334312241 1.07406124505092  77.5918334312241 1.07406124505092  C 77.5918334312241 1.07406124505092  81.7598066009109 2.78145984302269  81.7598066009109 2.78145984302269  C 81.7598066009109 2.78145984302269  84.3833722750933 4.12158191799906  84.3833722750933 4.12158191799906  C 84.3833722750933 4.12158191799906  89.6263527202 5.58412950064069  89.6263527202 5.58412950064069  C 89.6263527202 5.58412950064069  92.7151677112097 9.7345557766058  92.7151677112097 9.7345557766058  C 92.7151677112097 9.7345557766058  95.6470642935856 11.6889915596873  95.6470642935856 11.6889915596873  Z " fill-rule="nonzero" fill="#f2f2f2" stroke="none" transform="matrix(1 0 0 1 2878 2047 )" />
    <path d="M 118.799411953472 27.3463395221372  C 118.799411953472 27.3463395221372  117.720253774794 29.0602966294478  117.720253774794 29.0602966294478  C 117.720253774794 29.0602966294478  115.559184462903 29.674610337553  115.559184462903 29.674610337553  C 115.559184462903 29.674610337553  110.217097654448 27.3201054847803  110.217097654448 27.3201054847803  C 110.217097654448 27.3201054847803  106.83646948247 21.8426741525173  106.83646948247 21.8426741525173  C 106.83646948247 21.8426741525173  105.173684941854 17.1839463519057  105.173684941854 17.1839463519057  C 105.173684941854 17.1839463519057  106.244584256919 16.5914943415979  106.244584256919 16.5914943415979  C 106.244584256919 16.5914943415979  107.07322357269 18.4103875983361  107.07322357269 18.4103875983361  C 107.07322357269 18.4103875983361  109.413234929515 19.7986054084666  109.413234929515 19.7986054084666  C 109.413234929515 19.7986054084666  115.154500145899 25.2672920616108  115.154500145899 25.2672920616108  C 115.154500145899 25.2672920616108  118.799411953472 27.3463395221372  118.799411953472 27.3463395221372  Z " stroke-width="2" stroke="#505050" fill="none" stroke-opacity="0.211764705882353" transform="matrix(1 0 0 1 2878 2047 )" mask="url(#clip724)" />
    <path d="M 90.2292497639 15.5246434890881  C 90.2292497639 15.5246434890881  87.6414724987044 20.8424844274306  87.6414724987044 20.8424844274306  C 87.6414724987044 20.8424844274306  83.597382283202 21.3453034767693  83.597382283202 21.3453034767693  C 83.597382283202 21.3453034767693  82.3805763776527 23.0614467538599  82.3805763776527 23.0614467538599  C 82.3805763776527 23.0614467538599  78.160297071754 24.5502283738581  78.160297071754 24.5502283738581  C 78.160297071754 24.5502283738581  72.1987954923752 25.9821695795836  72.1987954923752 25.9821695795836  C 72.1987954923752 25.9821695795836  68.0996461861241 25.9756110702443  68.0996461861241 25.9756110702443  C 68.0996461861241 25.9756110702443  61.7706037045455 24.1982550393211  61.7706037045455 24.1982550393211  C 61.7706037045455 24.1982550393211  57.3603705355636 22.4908564413493  57.3603705355636 22.4908564413493  C 57.3603705355636 22.4908564413493  57.9990559882499 20.5976334121004  57.9990559882499 20.5976334121004  C 57.9990559882499 20.5976334121004  64.919983695379 21.4917768520115  64.919983695379 21.4917768520115  C 64.919983695379 21.4917768520115  69.1430159558145 21.0130056702496  69.1430159558145 21.0130056702496  C 69.1430159558145 21.0130056702496  70.3075157251524 16.4931167015099  70.3075157251524 16.4931167015099  C 70.3075157251524 16.4931167015099  71.4142034492043 16.3422709867081  71.4142034492043 16.3422709867081  C 71.4142034492043 16.3422709867081  72.1630070833885 21.1769684037298  72.1630070833885 21.1769684037298  C 72.1630070833885 21.1769684037298  78.5677343432958 20.7091280708669  78.5677343432958 20.7091280708669  C 78.5677343432958 20.7091280708669  80.7453213824128 17.0287282975444  80.7453213824128 17.0287282975444  C 80.7453213824128 17.0287282975444  85.0536952335096 14.8491170271504  85.0536952335096 14.8491170271504  C 85.0536952335096 14.8491170271504  84.2030322814398 11.2506815697093  84.2030322814398 11.2506815697093  C 84.2030322814398 11.2506815697093  88.8279959043421 11.1348145713836  88.8279959043421 11.1348145713836  C 88.8279959043421 11.1348145713836  90.3861681725343 12.1360803305015  90.3861681725343 12.1360803305015  C 90.3861681725343 12.1360803305015  90.2292497639 15.5246434890881  90.2292497639 15.5246434890881  Z " stroke-width="2" stroke="#505050" fill="none" stroke-opacity="0.211764705882353" transform="matrix(1 0 0 1 2878 2047 )" mask="url(#clip724)" />
    <path d="M 48.9569553385709 28.4503552609026  C 48.9569553385709 28.4503552609026  50.65828124271 32.5472374281225  50.65828124271 32.5472374281225  C 50.65828124271 32.5472374281225  57.5516794044647 36.5785345019504  57.5516794044647 36.5785345019504  C 57.5516794044647 36.5785345019504  62.5620566626089 43.1086236340139  62.5620566626089 43.1086236340139  C 62.5620566626089 43.1086236340139  66.9833016497405 42.9031236747191  66.9833016497405 42.9031236747191  C 66.9833016497405 42.9031236747191  66.6722177870097 45.6358358993856  66.6722177870097 45.6358358993856  C 66.6722177870097 45.6358358993856  72.632364360571 46.6851973936577  72.632364360571 46.6851973936577  C 72.632364360571 46.6851973936577  70.3171295945826 47.8504258862554  70.3171295945826 47.8504258862554  C 70.3171295945826 47.8504258862554  78.5181811616221 50.4519679241378  78.5181811616221 50.4519679241378  C 78.5181811616221 50.4519679241378  77.6620123004773 52.2424409737395  77.6620123004773 52.2424409737395  C 77.6620123004773 52.2424409737395  72.549775724448 52.6753025901268  72.549775724448 52.6753025901268  C 72.549775724448 52.6753025901268  70.6529900481505 51.0706539718026  70.6529900481505 51.0706539718026  C 70.6529900481505 51.0706539718026  64.0211225674529 50.3754519818475  64.0211225674529 50.3754519818475  C 64.0211225674529 50.3754519818475  56.2247553174175 49.4441436556811  56.2247553174175 49.4441436556811  C 56.2247553174175 49.4441436556811  50.2205614712566 45.5002933730423  50.2205614712566 45.5002933730423  C 50.2205614712566 45.5002933730423  45.8406108021868 42.1073578748961  45.8406108021868 42.1073578748961  C 45.8406108021868 42.1073578748961  41.8295560411339 36.7184493678537  41.8295560411339 36.7184493678537  C 41.8295560411339 36.7184493678537  29.7620012977086 34.0316467085617  29.7620012977086 34.0316467085617  C 29.7620012977086 34.0316467085617  23.2237342712838 35.7849548719077  23.2237342712838 35.7849548719077  C 23.2237342712838 35.7849548719077  18.5106761031834 37.8159065972799  18.5106761031834 37.8159065972799  C 18.5106761031834 37.8159065972799  19.49348087305 42.3587673995654  19.49348087305 42.3587673995654  C 19.49348087305 42.3587673995654  13.4314749816031 44.4793520859068  13.4314749816031 44.4793520859068  C 13.4314749816031 44.4793520859068  9.1093363578193 43.4474799498728  9.1093363578193 43.4474799498728  C 9.1093363578193 43.4474799498728  1.12576819923788 43.1895119158642  1.12576819923788 43.1895119158642  C 1.12576819923788 43.1895119158642  0.993626381440663 21.5825199487291  0.993626381440663 21.5825199487291  C 0.993626381440663 21.5825199487291  0.864237518180744 1.68181644381722  0.864237518180744 1.68181644381722  C 0.864237518180744 1.68181644381722  14.2573613428358 5.88144859068497  14.2573613428358 5.88144859068497  C 14.2573613428358 5.88144859068497  28.5286776649341 9.37276172891884  28.5286776649341 9.37276172891884  C 28.5286776649341 9.37276172891884  33.8473858312718 12.4989845139373  33.8473858312718 12.4989845139373  C 33.8473858312718 12.4989845139373  38.1475008187563 15.5705530544627  38.1475008187563 15.5705530544627  C 38.1475008187563 15.5705530544627  41.320259451707 19.1711746816834  41.320259451707 19.1711746816834  C 41.320259451707 19.1711746816834  54.1820630506354 22.9532484006219  54.1820630506354 22.9532484006219  C 54.1820630506354 22.9532484006219  56.0595780451708 26.2018966933056  56.0595780451708 26.2018966933056  C 56.0595780451708 26.2018966933056  48.9569553385709 28.4503552609026  48.9569553385709 28.4503552609026  Z " stroke-width="2" stroke="#505050" fill="none" stroke-opacity="0.211764705882353" transform="matrix(1 0 0 1 2878 2047 )" mask="url(#clip724)" />
    <path d="M 95.6470642935856 11.6889915596873  C 95.6470642935856 11.6889915596873  96.5720570181661 14.86331007986  96.5720570181661 14.86331007986  C 96.5720570181661 14.86331007986  94.1577158888294 16.4920065657614  94.1577158888294 16.4920065657614  C 94.1577158888294 16.4920065657614  92.70415589306 12.8870125989811  92.70415589306 12.8870125989811  C 92.70415589306 12.8870125989811  90.9092295346477 10.5281354066489  90.9092295346477 10.5281354066489  C 90.9092295346477 10.5281354066489  87.4129772720967 6.93955476407549  87.4129772720967 6.93955476407549  C 87.4129772720967 6.93955476407549  81.019261830339 4.33801272619269  81.019261830339 4.33801272619269  C 81.019261830339 4.33801272619269  75.447281846557 2.54535350681139  75.447281846557 2.54535350681139  C 75.447281846557 2.54535350681139  77.5918334312241 1.07406124505092  77.5918334312241 1.07406124505092  C 77.5918334312241 1.07406124505092  81.7598066009109 2.78145984302269  81.7598066009109 2.78145984302269  C 81.7598066009109 2.78145984302269  84.3833722750933 4.12158191799906  84.3833722750933 4.12158191799906  C 84.3833722750933 4.12158191799906  89.6263527202 5.58412950064069  89.6263527202 5.58412950064069  C 89.6263527202 5.58412950064069  92.7151677112097 9.7345557766058  92.7151677112097 9.7345557766058  C 92.7151677112097 9.7345557766058  95.6470642935856 11.6889915596873  95.6470642935856 11.6889915596873  Z " stroke-width="2" stroke="#505050" fill="none" stroke-opacity="0.211764705882353" transform="matrix(1 0 0 1 2878 2047 )" mask="url(#clip724)" />
  </g>
</svg>