<?xml version="1.0" encoding="utf-8"?>
<svg version="1.1" xmlns:xlink="http://www.w3.org/1999/xlink" width="77px" height="83px" xmlns="http://www.w3.org/2000/svg">
  <defs>
    <mask fill="white" id="clip725">
      <path d="M 74.4144377541844 61.522681714878  C 74.4144377541844 61.522681714878  74.9639057460069 63.7580548280118  74.9639057460069 63.7580548280118  C 74.9639057460069 63.7580548280118  75.7588213686933 67.7868999084809  75.7588213686933 67.7868999084809  C 75.7588213686933 67.7868999084809  76.2190356765641 72.7501874286102  76.2190356765641 72.7501874286102  C 76.2190356765641 72.7501874286102  73.555371046159 78.2814964047923  73.555371046159 78.2814964047923  C 73.555371046159 78.2814964047923  70.6992531597349 72.1185921324212  70.6992531597349 72.1185921324212  C 70.6992531597349 72.1185921324212  67.0426412953778 75.1881883842072  67.0426412953778 75.1881883842072  C 67.0426412953778 75.1881883842072  69.5417444459984 79.6395340723664  69.5417444459984 79.6395340723664  C 69.5417444459984 79.6395340723664  67.2992456367358 82.4677014054726  67.2992456367358 82.4677014054726  C 67.2992456367358 82.4677014054726  56.0686436898413 78.96482646927  56.0686436898413 78.96482646927  C 56.0686436898413 78.96482646927  53.8707717225541 74.5910829335439  53.8707717225541 74.5910829335439  C 53.8707717225541 74.5910829335439  58.2818343800874 71.7154920628396  58.2818343800874 71.7154920628396  C 58.2818343800874 71.7154920628396  51.3019391313469 67.2846415330134  51.3019391313469 67.2846415330134  C 51.3019391313469 67.2846415330134  48.8446736450778 71.3619711462013  48.8446736450778 71.3619711462013  C 48.8446736450778 71.3619711462013  45.1657483597333 71.1291646889028  45.1657483597333 71.1291646889028  C 45.1657483597333 71.1291646889028  39.3782047910518 74.5048583197295  39.3782047910518 74.5048583197295  C 39.3782047910518 74.5048583197295  38.0840263737659 72.7329425058476  38.0840263737659 72.7329425058476  C 38.0840263737659 72.7329425058476  41.154910937196 66.0624076321969  41.154910937196 66.0624076321969  C 41.154910937196 66.0624076321969  46.0805986202278 64.3551602786751  46.0805986202278 64.3551602786751  C 46.0805986202278 64.3551602786751  50.3452512064994 62.0658967819077  50.3452512064994 62.0658967819077  C 50.3452512064994 62.0658967819077  53.1093262313494 64.8143063472359  53.1093262313494 64.8143063472359  C 53.1093262313494 64.8143063472359  61.0821687140414 63.1523269159668  61.0821687140414 63.1523269159668  C 61.0821687140414 63.1523269159668  62.3568228879632 60.4427184268551  62.3568228879632 60.4427184268551  C 62.3568228879632 60.4427184268551  67.8849729376624 60.2810472759532  67.8849729376624 60.2810472759532  C 67.8849729376624 60.2810472759532  67.4191802745445 55.5731833616968  67.4191802745445 55.5731833616968  C 67.4191802745445 55.5731833616968  73.7589810126713 58.4617079244734  73.7589810126713 58.4617079244734  C 73.7589810126713 58.4617079244734  74.4144377541844 61.522681714878  74.4144377541844 61.522681714878  Z M 56.9848667851777 46.5799561408743  C 56.9848667851777 46.5799561408743  56.2401563597138 52.4130512654059  56.2401563597138 52.4130512654059  C 56.2401563597138 52.4130512654059  53.428665315265 55.9838112724355  53.428665315265 55.9838112724355  C 53.428665315265 55.9838112724355  50.9797673618664 59.8315846638952  50.9797673618664 59.8315846638952  C 50.9797673618664 59.8315846638952  46.4961860861237 61.6315234772668  46.4961860861237 61.6315234772668  C 46.4961860861237 61.6315234772668  41.6792763304068 57.4237623231331  41.6792763304068 57.4237623231331  C 41.6792763304068 57.4237623231331  43.2886318191437 55.7919615066991  43.2886318191437 55.7919615066991  C 43.2886318191437 55.7919615066991  45.2522128660598 52.5186764173286  45.2522128660598 52.5186764173286  C 45.2522128660598 52.5186764173286  46.1168579293328 48.7269490248484  46.1168579293328 48.7269490248484  C 46.1168579293328 48.7269490248484  52.4552423246772 48.3669612621741  52.4552423246772 48.3669612621741  C 52.4552423246772 48.3669612621741  51.1973232164962 52.4798753411121  51.1973232164962 52.4798753411121  C 51.1973232164962 52.4798753411121  56.9848667851777 46.5799561408743  56.9848667851777 46.5799561408743  Z M 17.5040575250896 54.0944312347834  C 17.5040575250896 54.0944312347834  13.3983880633554 59.8445183559671  13.3983880633554 59.8445183559671  C 13.3983880633554 59.8445183559671  0.968439738372354 65.6107894047929  0.968439738372354 65.6107894047929  C 0.968439738372354 65.6107894047929  4.80355897063097 61.3620715590974  4.80355897063097 61.3620715590974  C 4.80355897063097 61.3620715590974  10.4516436581392 57.6048340121429  10.4516436581392 57.6048340121429  C 10.4516436581392 57.6048340121429  17.1749345655212 51.8202570454335  17.1749345655212 51.8202570454335  C 17.1749345655212 51.8202570454335  21.2750256720087 45.7457330022217  21.2750256720087 45.7457330022217  C 21.2750256720087 45.7457330022217  22.6668253061158 50.7338269113741  22.6668253061158 50.7338269113741  C 22.6668253061158 50.7338269113741  17.5040575250896 54.0944312347834  17.5040575250896 54.0944312347834  Z M 39.0072441671313 45.4633473919801  C 39.0072441671313 45.4633473919801  37.7967410785495 42.5424885990234  37.7967410785495 42.5424885990234  C 37.7967410785495 42.5424885990234  42.4937161964573 44.4415857182816  42.4937161964573 44.4415857182816  C 42.4937161964573 44.4415857182816  49.4959248661853 44.4329632568999  49.4959248661853 44.4329632568999  C 49.4959248661853 44.4329632568999  49.3425200968955 48.5577164076861  49.3425200968955 48.5577164076861  C 49.3425200968955 48.5577164076861  45.7221675416428 51.1552328988393  45.7221675416428 51.1552328988393  C 45.7221675416428 51.1552328988393  38.7283264047853 52.9896615577366  38.7283264047853 52.9896615577366  C 38.7283264047853 52.9896615577366  38.4521978200626 50.1507161479035  38.4521978200626 50.1507161479035  C 38.4521978200626 50.1507161479035  39.0072441671313 45.4633473919801  39.0072441671313 45.4633473919801  Z M 65.9743862655925 38.5869344402961  C 65.9743862655925 38.5869344402961  68.1276313909043 40.878353552409  68.1276313909043 40.878353552409  C 68.1276313909043 40.878353552409  70.3255033581915 49.2884700097616  70.3255033581915 49.2884700097616  C 70.3255033581915 49.2884700097616  62.2634071915482 47.665291654709  62.2634071915482 47.665291654709  C 62.2634071915482 47.665291654709  64.4542844608064 49.7195930788326  64.4542844608064 49.7195930788326  C 64.4542844608064 49.7195930788326  66.3704494881238 53.4897643178593  66.3704494881238 53.4897643178593  C 66.3704494881238 53.4897643178593  60.6233707489535 54.8564244468147  60.6233707489535 54.8564244468147  C 60.6233707489535 54.8564244468147  60.2998261446317 50.5624386788669  60.2998261446317 50.5624386788669  C 60.2998261446317 50.5624386788669  57.9429710528076 50.2455632230996  57.9429710528076 50.2455632230996  C 57.9429710528076 50.2455632230996  56.7213112537316 44.9740227085844  56.7213112537316 44.9740227085844  C 56.7213112537316 44.9740227085844  61.3206651548187 45.4633473919801  61.3206651548187 45.4633473919801  C 61.3206651548187 45.4633473919801  61.2202547603742 43.1417496650323  61.2202547603742 43.1417496650323  C 61.2202547603742 43.1417496650323  56.4396043137618 38.4511306735389  56.4396043137618 38.4511306735389  C 56.4396043137618 38.4511306735389  65.9743862655925 38.5869344402961  65.9743862655925 38.5869344402961  Z M 34.3227985945586 33.0771816175679  C 34.3227985945586 33.0771816175679  37.0394575998095 35.2974654232838  37.0394575998095 35.2974654232838  C 37.0394575998095 35.2974654232838  34.9643094479547 42.1814062161247  34.9643094479547 42.1814062161247  C 34.9643094479547 42.1814062161247  29.5909805103273 39.113965579684  29.5909805103273 39.113965579684  C 29.5909805103273 39.113965579684  25.5968781535313 32.8508420063055  25.5968781535313 32.8508420063055  C 25.5968781535313 32.8508420063055  34.3227985945586 33.0771816175679  34.3227985945586 33.0771816175679  Z M 28.6649735393381 1.35299057997126  C 28.6649735393381 1.35299057997126  33.4009971439751 1.36161304135295  33.4009971439751 1.36161304135295  C 33.4009971439751 1.36161304135295  38.2234852549391 3.16801870076097  38.2234852549391 3.16801870076097  C 38.2234852549391 3.16801870076097  42.6596505110832 1.52112857690922  42.6596505110832 1.52112857690922  C 42.6596505110832 1.52112857690922  43.3708908050659 3.12921762454443  43.3708908050659 3.12921762454443  C 43.3708908050659 3.12921762454443  42.0990258087674 5.74829026915122  42.0990258087674 5.74829026915122  C 42.0990258087674 5.74829026915122  44.7682687944196 10.2621488023257  44.7682687944196 10.2621488023257  C 44.7682687944196 10.2621488023257  42.7098557083052 15.4722710920496  42.7098557083052 15.4722710920496  C 42.7098557083052 15.4722710920496  36.0730293072502 17.5438174389362  36.0730293072502 17.5438174389362  C 36.0730293072502 17.5438174389362  34.8430019753042 24.1367501601542  34.8430019753042 24.1367501601542  C 34.8430019753042 24.1367501601542  36.5918163452139 29.0817317623996  36.5918163452139 29.0817317623996  C 36.5918163452139 29.0817317623996  42.7628500831505 29.7650618268773  42.7628500831505 29.7650618268773  C 42.7628500831505 29.7650618268773  46.2214303362419 29.0321526094565  46.2214303362419 29.0321526094565  C 46.2214303362419 29.0321526094565  55.9891303736019 32.4638922392621  55.9891303736019 32.4638922392621  C 55.9891303736019 32.4638922392621  55.244419948138 35.8266521780166  55.244419948138 35.8266521780166  C 55.244419948138 35.8266521780166  57.7965174736044 37.307559920276  57.7965174736044 37.307559920276  C 57.7965174736044 37.307559920276  56.9820776075539 40.1443497147638  56.9820776075539 40.1443497147638  C 56.9820776075539 40.1443497147638  50.8877245002919 37.1221770005754  50.8877245002919 37.1221770005754  C 50.8877245002919 37.1221770005754  47.9981364823866 33.8801315211606  47.9981364823866 33.8801315211606  C 47.9981364823866 33.8801315211606  45.984350238248 36.1456832491291  45.984350238248 36.1456832491291  C 45.984350238248 36.1456832491291  41.0056681803704 32.4488029318446  41.0056681803704 32.4488029318446  C 41.0056681803704 32.4488029318446  31.8753169839415 33.3627838382752  31.8753169839415 33.3627838382752  C 31.8753169839415 33.3627838382752  27.9816250215904 31.9961237093202  27.9816250215904 31.9961237093202  C 27.9816250215904 31.9961237093202  28.380477421745 29.4374082943831  28.380477421745 29.4374082943831  C 28.380477421745 29.4374082943831  30.823797019897 27.8594978615827  30.823797019897 27.8594978615827  C 30.823797019897 27.8594978615827  28.4892553490599 26.423858041576  28.4892553490599 26.423858041576  C 28.4892553490599 26.423858041576  27.4795730493675 28.6613867700549  27.4795730493675 28.6613867700549  C 27.4795730493675 28.6613867700549  23.6193512184977 25.0938433734918  23.6193512184977 25.0938433734918  C 23.6193512184977 25.0938433734918  22.4478966166442 22.3842348843802  22.4478966166442 22.3842348843802  C 22.4478966166442 22.3842348843802  22.157822143804 14.8385201805151  22.157822143804 14.8385201805151  C 22.157822143804 14.8385201805151  25.3068036806916 16.8971328353295  25.3068036806916 16.8971328353295  C 25.3068036806916 16.8971328353295  26.115665191495 7.07830493723532  26.115665191495 7.07830493723532  C 26.115665191495 7.07830493723532  28.6649735393381 1.35299057997126  28.6649735393381 1.35299057997126  Z " fill-rule="evenodd" />
    </mask>
  </defs>
  <g transform="matrix(1 0 0 1 -2694 -1920 )">
    <path d="M 74.4144377541844 61.522681714878  C 74.4144377541844 61.522681714878  74.9639057460069 63.7580548280118  74.9639057460069 63.7580548280118  C 74.9639057460069 63.7580548280118  75.7588213686933 67.7868999084809  75.7588213686933 67.7868999084809  C 75.7588213686933 67.7868999084809  76.2190356765641 72.7501874286102  76.2190356765641 72.7501874286102  C 76.2190356765641 72.7501874286102  73.555371046159 78.2814964047923  73.555371046159 78.2814964047923  C 73.555371046159 78.2814964047923  70.6992531597349 72.1185921324212  70.6992531597349 72.1185921324212  C 70.6992531597349 72.1185921324212  67.0426412953778 75.1881883842072  67.0426412953778 75.1881883842072  C 67.0426412953778 75.1881883842072  69.5417444459984 79.6395340723664  69.5417444459984 79.6395340723664  C 69.5417444459984 79.6395340723664  67.2992456367358 82.4677014054726  67.2992456367358 82.4677014054726  C 67.2992456367358 82.4677014054726  56.0686436898413 78.96482646927  56.0686436898413 78.96482646927  C 56.0686436898413 78.96482646927  53.8707717225541 74.5910829335439  53.8707717225541 74.5910829335439  C 53.8707717225541 74.5910829335439  58.2818343800874 71.7154920628396  58.2818343800874 71.7154920628396  C 58.2818343800874 71.7154920628396  51.3019391313469 67.2846415330134  51.3019391313469 67.2846415330134  C 51.3019391313469 67.2846415330134  48.8446736450778 71.3619711462013  48.8446736450778 71.3619711462013  C 48.8446736450778 71.3619711462013  45.1657483597333 71.1291646889028  45.1657483597333 71.1291646889028  C 45.1657483597333 71.1291646889028  39.3782047910518 74.5048583197295  39.3782047910518 74.5048583197295  C 39.3782047910518 74.5048583197295  38.0840263737659 72.7329425058476  38.0840263737659 72.7329425058476  C 38.0840263737659 72.7329425058476  41.154910937196 66.0624076321969  41.154910937196 66.0624076321969  C 41.154910937196 66.0624076321969  46.0805986202278 64.3551602786751  46.0805986202278 64.3551602786751  C 46.0805986202278 64.3551602786751  50.3452512064994 62.0658967819077  50.3452512064994 62.0658967819077  C 50.3452512064994 62.0658967819077  53.1093262313494 64.8143063472359  53.1093262313494 64.8143063472359  C 53.1093262313494 64.8143063472359  61.0821687140414 63.1523269159668  61.0821687140414 63.1523269159668  C 61.0821687140414 63.1523269159668  62.3568228879632 60.4427184268551  62.3568228879632 60.4427184268551  C 62.3568228879632 60.4427184268551  67.8849729376624 60.2810472759532  67.8849729376624 60.2810472759532  C 67.8849729376624 60.2810472759532  67.4191802745445 55.5731833616968  67.4191802745445 55.5731833616968  C 67.4191802745445 55.5731833616968  73.7589810126713 58.4617079244734  73.7589810126713 58.4617079244734  C 73.7589810126713 58.4617079244734  74.4144377541844 61.522681714878  74.4144377541844 61.522681714878  Z M 56.9848667851777 46.5799561408743  C 56.9848667851777 46.5799561408743  56.2401563597138 52.4130512654059  56.2401563597138 52.4130512654059  C 56.2401563597138 52.4130512654059  53.428665315265 55.9838112724355  53.428665315265 55.9838112724355  C 53.428665315265 55.9838112724355  50.9797673618664 59.8315846638952  50.9797673618664 59.8315846638952  C 50.9797673618664 59.8315846638952  46.4961860861237 61.6315234772668  46.4961860861237 61.6315234772668  C 46.4961860861237 61.6315234772668  41.6792763304068 57.4237623231331  41.6792763304068 57.4237623231331  C 41.6792763304068 57.4237623231331  43.2886318191437 55.7919615066991  43.2886318191437 55.7919615066991  C 43.2886318191437 55.7919615066991  45.2522128660598 52.5186764173286  45.2522128660598 52.5186764173286  C 45.2522128660598 52.5186764173286  46.1168579293328 48.7269490248484  46.1168579293328 48.7269490248484  C 46.1168579293328 48.7269490248484  52.4552423246772 48.3669612621741  52.4552423246772 48.3669612621741  C 52.4552423246772 48.3669612621741  51.1973232164962 52.4798753411121  51.1973232164962 52.4798753411121  C 51.1973232164962 52.4798753411121  56.9848667851777 46.5799561408743  56.9848667851777 46.5799561408743  Z M 17.5040575250896 54.0944312347834  C 17.5040575250896 54.0944312347834  13.3983880633554 59.8445183559671  13.3983880633554 59.8445183559671  C 13.3983880633554 59.8445183559671  0.968439738372354 65.6107894047929  0.968439738372354 65.6107894047929  C 0.968439738372354 65.6107894047929  4.80355897063097 61.3620715590974  4.80355897063097 61.3620715590974  C 4.80355897063097 61.3620715590974  10.4516436581392 57.6048340121429  10.4516436581392 57.6048340121429  C 10.4516436581392 57.6048340121429  17.1749345655212 51.8202570454335  17.1749345655212 51.8202570454335  C 17.1749345655212 51.8202570454335  21.2750256720087 45.7457330022217  21.2750256720087 45.7457330022217  C 21.2750256720087 45.7457330022217  22.6668253061158 50.7338269113741  22.6668253061158 50.7338269113741  C 22.6668253061158 50.7338269113741  17.5040575250896 54.0944312347834  17.5040575250896 54.0944312347834  Z M 39.0072441671313 45.4633473919801  C 39.0072441671313 45.4633473919801  37.7967410785495 42.5424885990234  37.7967410785495 42.5424885990234  C 37.7967410785495 42.5424885990234  42.4937161964573 44.4415857182816  42.4937161964573 44.4415857182816  C 42.4937161964573 44.4415857182816  49.4959248661853 44.4329632568999  49.4959248661853 44.4329632568999  C 49.4959248661853 44.4329632568999  49.3425200968955 48.5577164076861  49.3425200968955 48.5577164076861  C 49.3425200968955 48.5577164076861  45.7221675416428 51.1552328988393  45.7221675416428 51.1552328988393  C 45.7221675416428 51.1552328988393  38.7283264047853 52.9896615577366  38.7283264047853 52.9896615577366  C 38.7283264047853 52.9896615577366  38.4521978200626 50.1507161479035  38.4521978200626 50.1507161479035  C 38.4521978200626 50.1507161479035  39.0072441671313 45.4633473919801  39.0072441671313 45.4633473919801  Z M 65.9743862655925 38.5869344402961  C 65.9743862655925 38.5869344402961  68.1276313909043 40.878353552409  68.1276313909043 40.878353552409  C 68.1276313909043 40.878353552409  70.3255033581915 49.2884700097616  70.3255033581915 49.2884700097616  C 70.3255033581915 49.2884700097616  62.2634071915482 47.665291654709  62.2634071915482 47.665291654709  C 62.2634071915482 47.665291654709  64.4542844608064 49.7195930788326  64.4542844608064 49.7195930788326  C 64.4542844608064 49.7195930788326  66.3704494881238 53.4897643178593  66.3704494881238 53.4897643178593  C 66.3704494881238 53.4897643178593  60.6233707489535 54.8564244468147  60.6233707489535 54.8564244468147  C 60.6233707489535 54.8564244468147  60.2998261446317 50.5624386788669  60.2998261446317 50.5624386788669  C 60.2998261446317 50.5624386788669  57.9429710528076 50.2455632230996  57.9429710528076 50.2455632230996  C 57.9429710528076 50.2455632230996  56.7213112537316 44.9740227085844  56.7213112537316 44.9740227085844  C 56.7213112537316 44.9740227085844  61.3206651548187 45.4633473919801  61.3206651548187 45.4633473919801  C 61.3206651548187 45.4633473919801  61.2202547603742 43.1417496650323  61.2202547603742 43.1417496650323  C 61.2202547603742 43.1417496650323  56.4396043137618 38.4511306735389  56.4396043137618 38.4511306735389  C 56.4396043137618 38.4511306735389  65.9743862655925 38.5869344402961  65.9743862655925 38.5869344402961  Z M 34.3227985945586 33.0771816175679  C 34.3227985945586 33.0771816175679  37.0394575998095 35.2974654232838  37.0394575998095 35.2974654232838  C 37.0394575998095 35.2974654232838  34.9643094479547 42.1814062161247  34.9643094479547 42.1814062161247  C 34.9643094479547 42.1814062161247  29.5909805103273 39.113965579684  29.5909805103273 39.113965579684  C 29.5909805103273 39.113965579684  25.5968781535313 32.8508420063055  25.5968781535313 32.8508420063055  C 25.5968781535313 32.8508420063055  34.3227985945586 33.0771816175679  34.3227985945586 33.0771816175679  Z M 28.6649735393381 1.35299057997126  C 28.6649735393381 1.35299057997126  33.4009971439751 1.36161304135295  33.4009971439751 1.36161304135295  C 33.4009971439751 1.36161304135295  38.2234852549391 3.16801870076097  38.2234852549391 3.16801870076097  C 38.2234852549391 3.16801870076097  42.6596505110832 1.52112857690922  42.6596505110832 1.52112857690922  C 42.6596505110832 1.52112857690922  43.3708908050659 3.12921762454443  43.3708908050659 3.12921762454443  C 43.3708908050659 3.12921762454443  42.0990258087674 5.74829026915122  42.0990258087674 5.74829026915122  C 42.0990258087674 5.74829026915122  44.7682687944196 10.2621488023257  44.7682687944196 10.2621488023257  C 44.7682687944196 10.2621488023257  42.7098557083052 15.4722710920496  42.7098557083052 15.4722710920496  C 42.7098557083052 15.4722710920496  36.0730293072502 17.5438174389362  36.0730293072502 17.5438174389362  C 36.0730293072502 17.5438174389362  34.8430019753042 24.1367501601542  34.8430019753042 24.1367501601542  C 34.8430019753042 24.1367501601542  36.5918163452139 29.0817317623996  36.5918163452139 29.0817317623996  C 36.5918163452139 29.0817317623996  42.7628500831505 29.7650618268773  42.7628500831505 29.7650618268773  C 42.7628500831505 29.7650618268773  46.2214303362419 29.0321526094565  46.2214303362419 29.0321526094565  C 46.2214303362419 29.0321526094565  55.9891303736019 32.4638922392621  55.9891303736019 32.4638922392621  C 55.9891303736019 32.4638922392621  55.244419948138 35.8266521780166  55.244419948138 35.8266521780166  C 55.244419948138 35.8266521780166  57.7965174736044 37.307559920276  57.7965174736044 37.307559920276  C 57.7965174736044 37.307559920276  56.9820776075539 40.1443497147638  56.9820776075539 40.1443497147638  C 56.9820776075539 40.1443497147638  50.8877245002919 37.1221770005754  50.8877245002919 37.1221770005754  C 50.8877245002919 37.1221770005754  47.9981364823866 33.8801315211606  47.9981364823866 33.8801315211606  C 47.9981364823866 33.8801315211606  45.984350238248 36.1456832491291  45.984350238248 36.1456832491291  C 45.984350238248 36.1456832491291  41.0056681803704 32.4488029318446  41.0056681803704 32.4488029318446  C 41.0056681803704 32.4488029318446  31.8753169839415 33.3627838382752  31.8753169839415 33.3627838382752  C 31.8753169839415 33.3627838382752  27.9816250215904 31.9961237093202  27.9816250215904 31.9961237093202  C 27.9816250215904 31.9961237093202  28.380477421745 29.4374082943831  28.380477421745 29.4374082943831  C 28.380477421745 29.4374082943831  30.823797019897 27.8594978615827  30.823797019897 27.8594978615827  C 30.823797019897 27.8594978615827  28.4892553490599 26.423858041576  28.4892553490599 26.423858041576  C 28.4892553490599 26.423858041576  27.4795730493675 28.6613867700549  27.4795730493675 28.6613867700549  C 27.4795730493675 28.6613867700549  23.6193512184977 25.0938433734918  23.6193512184977 25.0938433734918  C 23.6193512184977 25.0938433734918  22.4478966166442 22.3842348843802  22.4478966166442 22.3842348843802  C 22.4478966166442 22.3842348843802  22.157822143804 14.8385201805151  22.157822143804 14.8385201805151  C 22.157822143804 14.8385201805151  25.3068036806916 16.8971328353295  25.3068036806916 16.8971328353295  C 25.3068036806916 16.8971328353295  26.115665191495 7.07830493723532  26.115665191495 7.07830493723532  C 26.115665191495 7.07830493723532  28.6649735393381 1.35299057997126  28.6649735393381 1.35299057997126  Z " fill-rule="nonzero" fill="#f2f2f2" stroke="none" transform="matrix(1 0 0 1 2694 1920 )" />
    <path d="M 74.4144377541844 61.522681714878  C 74.4144377541844 61.522681714878  74.9639057460069 63.7580548280118  74.9639057460069 63.7580548280118  C 74.9639057460069 63.7580548280118  75.7588213686933 67.7868999084809  75.7588213686933 67.7868999084809  C 75.7588213686933 67.7868999084809  76.2190356765641 72.7501874286102  76.2190356765641 72.7501874286102  C 76.2190356765641 72.7501874286102  73.555371046159 78.2814964047923  73.555371046159 78.2814964047923  C 73.555371046159 78.2814964047923  70.6992531597349 72.1185921324212  70.6992531597349 72.1185921324212  C 70.6992531597349 72.1185921324212  67.0426412953778 75.1881883842072  67.0426412953778 75.1881883842072  C 67.0426412953778 75.1881883842072  69.5417444459984 79.6395340723664  69.5417444459984 79.6395340723664  C 69.5417444459984 79.6395340723664  67.2992456367358 82.4677014054726  67.2992456367358 82.4677014054726  C 67.2992456367358 82.4677014054726  56.0686436898413 78.96482646927  56.0686436898413 78.96482646927  C 56.0686436898413 78.96482646927  53.8707717225541 74.5910829335439  53.8707717225541 74.5910829335439  C 53.8707717225541 74.5910829335439  58.2818343800874 71.7154920628396  58.2818343800874 71.7154920628396  C 58.2818343800874 71.7154920628396  51.3019391313469 67.2846415330134  51.3019391313469 67.2846415330134  C 51.3019391313469 67.2846415330134  48.8446736450778 71.3619711462013  48.8446736450778 71.3619711462013  C 48.8446736450778 71.3619711462013  45.1657483597333 71.1291646889028  45.1657483597333 71.1291646889028  C 45.1657483597333 71.1291646889028  39.3782047910518 74.5048583197295  39.3782047910518 74.5048583197295  C 39.3782047910518 74.5048583197295  38.0840263737659 72.7329425058476  38.0840263737659 72.7329425058476  C 38.0840263737659 72.7329425058476  41.154910937196 66.0624076321969  41.154910937196 66.0624076321969  C 41.154910937196 66.0624076321969  46.0805986202278 64.3551602786751  46.0805986202278 64.3551602786751  C 46.0805986202278 64.3551602786751  50.3452512064994 62.0658967819077  50.3452512064994 62.0658967819077  C 50.3452512064994 62.0658967819077  53.1093262313494 64.8143063472359  53.1093262313494 64.8143063472359  C 53.1093262313494 64.8143063472359  61.0821687140414 63.1523269159668  61.0821687140414 63.1523269159668  C 61.0821687140414 63.1523269159668  62.3568228879632 60.4427184268551  62.3568228879632 60.4427184268551  C 62.3568228879632 60.4427184268551  67.8849729376624 60.2810472759532  67.8849729376624 60.2810472759532  C 67.8849729376624 60.2810472759532  67.4191802745445 55.5731833616968  67.4191802745445 55.5731833616968  C 67.4191802745445 55.5731833616968  73.7589810126713 58.4617079244734  73.7589810126713 58.4617079244734  C 73.7589810126713 58.4617079244734  74.4144377541844 61.522681714878  74.4144377541844 61.522681714878  Z " stroke-width="2" stroke="#505050" fill="none" stroke-opacity="0.211764705882353" transform="matrix(1 0 0 1 2694 1920 )" mask="url(#clip725)" />
    <path d="M 56.9848667851777 46.5799561408743  C 56.9848667851777 46.5799561408743  56.2401563597138 52.4130512654059  56.2401563597138 52.4130512654059  C 56.2401563597138 52.4130512654059  53.428665315265 55.9838112724355  53.428665315265 55.9838112724355  C 53.428665315265 55.9838112724355  50.9797673618664 59.8315846638952  50.9797673618664 59.8315846638952  C 50.9797673618664 59.8315846638952  46.4961860861237 61.6315234772668  46.4961860861237 61.6315234772668  C 46.4961860861237 61.6315234772668  41.6792763304068 57.4237623231331  41.6792763304068 57.4237623231331  C 41.6792763304068 57.4237623231331  43.2886318191437 55.7919615066991  43.2886318191437 55.7919615066991  C 43.2886318191437 55.7919615066991  45.2522128660598 52.5186764173286  45.2522128660598 52.5186764173286  C 45.2522128660598 52.5186764173286  46.1168579293328 48.7269490248484  46.1168579293328 48.7269490248484  C 46.1168579293328 48.7269490248484  52.4552423246772 48.3669612621741  52.4552423246772 48.3669612621741  C 52.4552423246772 48.3669612621741  51.1973232164962 52.4798753411121  51.1973232164962 52.4798753411121  C 51.1973232164962 52.4798753411121  56.9848667851777 46.5799561408743  56.9848667851777 46.5799561408743  Z " stroke-width="2" stroke="#505050" fill="none" stroke-opacity="0.211764705882353" transform="matrix(1 0 0 1 2694 1920 )" mask="url(#clip725)" />
    <path d="M 17.5040575250896 54.0944312347834  C 17.5040575250896 54.0944312347834  13.3983880633554 59.8445183559671  13.3983880633554 59.8445183559671  C 13.3983880633554 59.8445183559671  0.968439738372354 65.6107894047929  0.968439738372354 65.6107894047929  C 0.968439738372354 65.6107894047929  4.80355897063097 61.3620715590974  4.80355897063097 61.3620715590974  C 4.80355897063097 61.3620715590974  10.4516436581392 57.6048340121429  10.4516436581392 57.6048340121429  C 10.4516436581392 57.6048340121429  17.1749345655212 51.8202570454335  17.1749345655212 51.8202570454335  C 17.1749345655212 51.8202570454335  21.2750256720087 45.7457330022217  21.2750256720087 45.7457330022217  C 21.2750256720087 45.7457330022217  22.6668253061158 50.7338269113741  22.6668253061158 50.7338269113741  C 22.6668253061158 50.7338269113741  17.5040575250896 54.0944312347834  17.5040575250896 54.0944312347834  Z " stroke-width="2" stroke="#505050" fill="none" stroke-opacity="0.211764705882353" transform="matrix(1 0 0 1 2694 1920 )" mask="url(#clip725)" />
    <path d="M 39.0072441671313 45.4633473919801  C 39.0072441671313 45.4633473919801  37.7967410785495 42.5424885990234  37.7967410785495 42.5424885990234  C 37.7967410785495 42.5424885990234  42.4937161964573 44.4415857182816  42.4937161964573 44.4415857182816  C 42.4937161964573 44.4415857182816  49.4959248661853 44.4329632568999  49.4959248661853 44.4329632568999  C 49.4959248661853 44.4329632568999  49.3425200968955 48.5577164076861  49.3425200968955 48.5577164076861  C 49.3425200968955 48.5577164076861  45.7221675416428 51.1552328988393  45.7221675416428 51.1552328988393  C 45.7221675416428 51.1552328988393  38.7283264047853 52.9896615577366  38.7283264047853 52.9896615577366  C 38.7283264047853 52.9896615577366  38.4521978200626 50.1507161479035  38.4521978200626 50.1507161479035  C 38.4521978200626 50.1507161479035  39.0072441671313 45.4633473919801  39.0072441671313 45.4633473919801  Z " stroke-width="2" stroke="#505050" fill="none" stroke-opacity="0.211764705882353" transform="matrix(1 0 0 1 2694 1920 )" mask="url(#clip725)" />
    <path d="M 65.9743862655925 38.5869344402961  C 65.9743862655925 38.5869344402961  68.1276313909043 40.878353552409  68.1276313909043 40.878353552409  C 68.1276313909043 40.878353552409  70.3255033581915 49.2884700097616  70.3255033581915 49.2884700097616  C 70.3255033581915 49.2884700097616  62.2634071915482 47.665291654709  62.2634071915482 47.665291654709  C 62.2634071915482 47.665291654709  64.4542844608064 49.7195930788326  64.4542844608064 49.7195930788326  C 64.4542844608064 49.7195930788326  66.3704494881238 53.4897643178593  66.3704494881238 53.4897643178593  C 66.3704494881238 53.4897643178593  60.6233707489535 54.8564244468147  60.6233707489535 54.8564244468147  C 60.6233707489535 54.8564244468147  60.2998261446317 50.5624386788669  60.2998261446317 50.5624386788669  C 60.2998261446317 50.5624386788669  57.9429710528076 50.2455632230996  57.9429710528076 50.2455632230996  C 57.9429710528076 50.2455632230996  56.7213112537316 44.9740227085844  56.7213112537316 44.9740227085844  C 56.7213112537316 44.9740227085844  61.3206651548187 45.4633473919801  61.3206651548187 45.4633473919801  C 61.3206651548187 45.4633473919801  61.2202547603742 43.1417496650323  61.2202547603742 43.1417496650323  C 61.2202547603742 43.1417496650323  56.4396043137618 38.4511306735389  56.4396043137618 38.4511306735389  C 56.4396043137618 38.4511306735389  65.9743862655925 38.5869344402961  65.9743862655925 38.5869344402961  Z " stroke-width="2" stroke="#505050" fill="none" stroke-opacity="0.211764705882353" transform="matrix(1 0 0 1 2694 1920 )" mask="url(#clip725)" />
    <path d="M 34.3227985945586 33.0771816175679  C 34.3227985945586 33.0771816175679  37.0394575998095 35.2974654232838  37.0394575998095 35.2974654232838  C 37.0394575998095 35.2974654232838  34.9643094479547 42.1814062161247  34.9643094479547 42.1814062161247  C 34.9643094479547 42.1814062161247  29.5909805103273 39.113965579684  29.5909805103273 39.113965579684  C 29.5909805103273 39.113965579684  25.5968781535313 32.8508420063055  25.5968781535313 32.8508420063055  C 25.5968781535313 32.8508420063055  34.3227985945586 33.0771816175679  34.3227985945586 33.0771816175679  Z " stroke-width="2" stroke="#505050" fill="none" stroke-opacity="0.211764705882353" transform="matrix(1 0 0 1 2694 1920 )" mask="url(#clip725)" />
    <path d="M 28.6649735393381 1.35299057997126  C 28.6649735393381 1.35299057997126  33.4009971439751 1.36161304135295  33.4009971439751 1.36161304135295  C 33.4009971439751 1.36161304135295  38.2234852549391 3.16801870076097  38.2234852549391 3.16801870076097  C 38.2234852549391 3.16801870076097  42.6596505110832 1.52112857690922  42.6596505110832 1.52112857690922  C 42.6596505110832 1.52112857690922  43.3708908050659 3.12921762454443  43.3708908050659 3.12921762454443  C 43.3708908050659 3.12921762454443  42.0990258087674 5.74829026915122  42.0990258087674 5.74829026915122  C 42.0990258087674 5.74829026915122  44.7682687944196 10.2621488023257  44.7682687944196 10.2621488023257  C 44.7682687944196 10.2621488023257  42.7098557083052 15.4722710920496  42.7098557083052 15.4722710920496  C 42.7098557083052 15.4722710920496  36.0730293072502 17.5438174389362  36.0730293072502 17.5438174389362  C 36.0730293072502 17.5438174389362  34.8430019753042 24.1367501601542  34.8430019753042 24.1367501601542  C 34.8430019753042 24.1367501601542  36.5918163452139 29.0817317623996  36.5918163452139 29.0817317623996  C 36.5918163452139 29.0817317623996  42.7628500831505 29.7650618268773  42.7628500831505 29.7650618268773  C 42.7628500831505 29.7650618268773  46.2214303362419 29.0321526094565  46.2214303362419 29.0321526094565  C 46.2214303362419 29.0321526094565  55.9891303736019 32.4638922392621  55.9891303736019 32.4638922392621  C 55.9891303736019 32.4638922392621  55.244419948138 35.8266521780166  55.244419948138 35.8266521780166  C 55.244419948138 35.8266521780166  57.7965174736044 37.307559920276  57.7965174736044 37.307559920276  C 57.7965174736044 37.307559920276  56.9820776075539 40.1443497147638  56.9820776075539 40.1443497147638  C 56.9820776075539 40.1443497147638  50.8877245002919 37.1221770005754  50.8877245002919 37.1221770005754  C 50.8877245002919 37.1221770005754  47.9981364823866 33.8801315211606  47.9981364823866 33.8801315211606  C 47.9981364823866 33.8801315211606  45.984350238248 36.1456832491291  45.984350238248 36.1456832491291  C 45.984350238248 36.1456832491291  41.0056681803704 32.4488029318446  41.0056681803704 32.4488029318446  C 41.0056681803704 32.4488029318446  31.8753169839415 33.3627838382752  31.8753169839415 33.3627838382752  C 31.8753169839415 33.3627838382752  27.9816250215904 31.9961237093202  27.9816250215904 31.9961237093202  C 27.9816250215904 31.9961237093202  28.380477421745 29.4374082943831  28.380477421745 29.4374082943831  C 28.380477421745 29.4374082943831  30.823797019897 27.8594978615827  30.823797019897 27.8594978615827  C 30.823797019897 27.8594978615827  28.4892553490599 26.423858041576  28.4892553490599 26.423858041576  C 28.4892553490599 26.423858041576  27.4795730493675 28.6613867700549  27.4795730493675 28.6613867700549  C 27.4795730493675 28.6613867700549  23.6193512184977 25.0938433734918  23.6193512184977 25.0938433734918  C 23.6193512184977 25.0938433734918  22.4478966166442 22.3842348843802  22.4478966166442 22.3842348843802  C 22.4478966166442 22.3842348843802  22.157822143804 14.8385201805151  22.157822143804 14.8385201805151  C 22.157822143804 14.8385201805151  25.3068036806916 16.8971328353295  25.3068036806916 16.8971328353295  C 25.3068036806916 16.8971328353295  26.115665191495 7.07830493723532  26.115665191495 7.07830493723532  C 26.115665191495 7.07830493723532  28.6649735393381 1.35299057997126  28.6649735393381 1.35299057997126  Z " stroke-width="2" stroke="#505050" fill="none" stroke-opacity="0.211764705882353" transform="matrix(1 0 0 1 2694 1920 )" mask="url(#clip725)" />
  </g>
</svg>