<?xml version="1.0" encoding="utf-8"?>
<svg version="1.1" xmlns:xlink="http://www.w3.org/1999/xlink" width="18px" height="9px" xmlns="http://www.w3.org/2000/svg">
  <defs>
    <mask fill="white" id="clip726">
      <path d="M 2.55931219343506 1.44362945363473  C 2.55931219343506 1.44362945363473  10.8773428568641 1.48574965805747  10.8773428568641 1.48574965805747  C 10.8773428568641 1.48574965805747  14.8223267090182 2.12746336073524  14.8223267090182 2.12746336073524  C 14.8223267090182 2.12746336073524  16.2153217049638 5.37441626561458  16.2153217049638 5.37441626561458  C 16.2153217049638 5.37441626561458  14.2359473925433 7.20540632846733  14.2359473925433 7.20540632846733  C 14.2359473925433 7.20540632846733  6.42721331854068 7.16080846496061  6.42721331854068 7.16080846496061  C 6.42721331854068 7.16080846496061  1.91512083167345 7.41848500966539  1.91512083167345 7.41848500966539  C 1.91512083167345 7.41848500966539  1.46638924207036 2.50654520054109  1.46638924207036 2.50654520054109  C 1.46638924207036 2.50654520054109  2.55931219343506 1.44362945363473  2.55931219343506 1.44362945363473  Z " fill-rule="evenodd" />
    </mask>
  </defs>
  <g transform="matrix(1 0 0 1 -1275 -1920 )">
    <path d="M 2.55931219343506 1.44362945363473  C 2.55931219343506 1.44362945363473  10.8773428568641 1.48574965805747  10.8773428568641 1.48574965805747  C 10.8773428568641 1.48574965805747  14.8223267090182 2.12746336073524  14.8223267090182 2.12746336073524  C 14.8223267090182 2.12746336073524  16.2153217049638 5.37441626561458  16.2153217049638 5.37441626561458  C 16.2153217049638 5.37441626561458  14.2359473925433 7.20540632846733  14.2359473925433 7.20540632846733  C 14.2359473925433 7.20540632846733  6.42721331854068 7.16080846496061  6.42721331854068 7.16080846496061  C 6.42721331854068 7.16080846496061  1.91512083167345 7.41848500966539  1.91512083167345 7.41848500966539  C 1.91512083167345 7.41848500966539  1.46638924207036 2.50654520054109  1.46638924207036 2.50654520054109  C 1.46638924207036 2.50654520054109  2.55931219343506 1.44362945363473  2.55931219343506 1.44362945363473  Z " fill-rule="nonzero" fill="#f2f2f2" stroke="none" transform="matrix(1 0 0 1 1275 1920 )" />
    <path d="M 2.55931219343506 1.44362945363473  C 2.55931219343506 1.44362945363473  10.8773428568641 1.48574965805747  10.8773428568641 1.48574965805747  C 10.8773428568641 1.48574965805747  14.8223267090182 2.12746336073524  14.8223267090182 2.12746336073524  C 14.8223267090182 2.12746336073524  16.2153217049638 5.37441626561458  16.2153217049638 5.37441626561458  C 16.2153217049638 5.37441626561458  14.2359473925433 7.20540632846733  14.2359473925433 7.20540632846733  C 14.2359473925433 7.20540632846733  6.42721331854068 7.16080846496061  6.42721331854068 7.16080846496061  C 6.42721331854068 7.16080846496061  1.91512083167345 7.41848500966539  1.91512083167345 7.41848500966539  C 1.91512083167345 7.41848500966539  1.46638924207036 2.50654520054109  1.46638924207036 2.50654520054109  C 1.46638924207036 2.50654520054109  2.55931219343506 1.44362945363473  2.55931219343506 1.44362945363473  Z " stroke-width="2" stroke="#505050" fill="none" stroke-opacity="0.211764705882353" transform="matrix(1 0 0 1 1275 1920 )" mask="url(#clip726)" />
  </g>
</svg>