<?xml version="1.0" encoding="utf-8"?>
<svg version="1.1" xmlns:xlink="http://www.w3.org/1999/xlink" width="6px" height="13px" xmlns="http://www.w3.org/2000/svg">
  <defs>
    <mask fill="white" id="clip727">
      <path d="M 1.56142270569967 1.59524745540354  C 1.56142270569967 1.59524745540354  5.15710934732772 2.61969066264903  5.15710934732772 2.61969066264903  C 5.15710934732772 2.61969066264903  5.15504463142474 8.74955664385546  5.15504463142474 8.74955664385546  C 5.15504463142474 8.74955664385546  4.29818753164579 10.9013347341835  4.29818753164579 10.9013347341835  C 4.29818753164579 10.9013347341835  0.0768919713842706 11.892226308004  0.0768919713842706 11.892226308004  C 0.0768919713842706 11.892226308004  0.326722595656861 9.96636254940476  0.326722595656861 9.96636254940476  C 0.326722595656861 9.96636254940476  1.80505918226334 8.957576771091  1.80505918226334 8.957576771091  C 1.80505918226334 8.957576771091  0.351499186494266 8.13220658883408  0.351499186494266 8.13220658883408  C 0.351499186494266 8.13220658883408  1.56142270569967 1.59524745540354  1.56142270569967 1.59524745540354  Z " fill-rule="evenodd" />
    </mask>
  </defs>
  <g transform="matrix(1 0 0 1 -2062 -1825 )">
    <path d="M 1.56142270569967 1.59524745540354  C 1.56142270569967 1.59524745540354  5.15710934732772 2.61969066264903  5.15710934732772 2.61969066264903  C 5.15710934732772 2.61969066264903  5.15504463142474 8.74955664385546  5.15504463142474 8.74955664385546  C 5.15504463142474 8.74955664385546  4.29818753164579 10.9013347341835  4.29818753164579 10.9013347341835  C 4.29818753164579 10.9013347341835  0.0768919713842706 11.892226308004  0.0768919713842706 11.892226308004  C 0.0768919713842706 11.892226308004  0.326722595656861 9.96636254940476  0.326722595656861 9.96636254940476  C 0.326722595656861 9.96636254940476  1.80505918226334 8.957576771091  1.80505918226334 8.957576771091  C 1.80505918226334 8.957576771091  0.351499186494266 8.13220658883408  0.351499186494266 8.13220658883408  C 0.351499186494266 8.13220658883408  1.56142270569967 1.59524745540354  1.56142270569967 1.59524745540354  Z " fill-rule="nonzero" fill="#f2f2f2" stroke="none" transform="matrix(1 0 0 1 2062 1825 )" />
    <path d="M 1.56142270569967 1.59524745540354  C 1.56142270569967 1.59524745540354  5.15710934732772 2.61969066264903  5.15710934732772 2.61969066264903  C 5.15710934732772 2.61969066264903  5.15504463142474 8.74955664385546  5.15504463142474 8.74955664385546  C 5.15504463142474 8.74955664385546  4.29818753164579 10.9013347341835  4.29818753164579 10.9013347341835  C 4.29818753164579 10.9013347341835  0.0768919713842706 11.892226308004  0.0768919713842706 11.892226308004  C 0.0768919713842706 11.892226308004  0.326722595656861 9.96636254940476  0.326722595656861 9.96636254940476  C 0.326722595656861 9.96636254940476  1.80505918226334 8.957576771091  1.80505918226334 8.957576771091  C 1.80505918226334 8.957576771091  0.351499186494266 8.13220658883408  0.351499186494266 8.13220658883408  C 0.351499186494266 8.13220658883408  1.56142270569967 1.59524745540354  1.56142270569967 1.59524745540354  Z " stroke-width="2" stroke="#505050" fill="none" stroke-opacity="0.211764705882353" transform="matrix(1 0 0 1 2062 1825 )" mask="url(#clip727)" />
  </g>
</svg>