<?xml version="1.0" encoding="utf-8"?>
<svg version="1.1" xmlns:xlink="http://www.w3.org/1999/xlink" width="28px" height="46px" xmlns="http://www.w3.org/2000/svg">
  <defs>
    <mask fill="white" id="clip728">
      <path d="M 5.10370088791751 7.14471957484405  C 5.10370088791751 7.14471957484405  4.76508747981211 4.3892968712652  4.76508747981211 4.3892968712652  C 4.76508747981211 4.3892968712652  7.56484224439055 2.30417113282001  7.56484224439055 2.30417113282001  C 7.56484224439055 2.30417113282001  10.7169751897616 1.10331337769447  10.7169751897616 1.10331337769447  C 10.7169751897616 1.10331337769447  12.649549275046 5.1229117907601  12.649549275046 5.1229117907601  C 12.649549275046 5.1229117907601  19.2084419890493 5.11417827981365  19.2084419890493 5.11417827981365  C 19.2084419890493 5.11417827981365  20.5298601670215 4.07925723266918  20.5298601670215 4.07925723266918  C 20.5298601670215 4.07925723266918  25.0281878812018 4.36746309389932  25.0281878812018 4.36746309389932  C 25.0281878812018 4.36746309389932  27.1865042385562 8.45911297227229  27.1865042385562 8.45911297227229  C 27.1865042385562 8.45911297227229  23.6186751580315 10.6555909752838  23.6186751580315 10.6555909752838  C 23.6186751580315 10.6555909752838  23.5195687946834 16.9328019679854  23.5195687946834 16.9328019679854  C 23.5195687946834 16.9328019679854  22.2669744801476 18.1030924347986  22.2669744801476 18.1030924347986  C 22.2669744801476 18.1030924347986  21.9558906174166 21.8606855194732  21.9558906174166 21.8606855194732  C 21.9558906174166 21.8606855194732  18.6220626725744 22.5135154627141  18.6220626725744 22.5135154627141  C 18.6220626725744 22.5135154627141  21.7136306181217 28.8267351589871  21.7136306181217 28.8267351589871  C 21.7136306181217 28.8267351589871  19.5828438061417 33.957672839978  19.5828438061417 33.957672839978  C 19.5828438061417 33.957672839978  22.2449508438478 36.2655031075556  22.2449508438478 36.2655031075556  C 22.2449508438478 36.2655031075556  21.1850633469328 38.3680958678935  21.1850633469328 38.3680958678935  C 21.1850633469328 38.3680958678935  18.3247435825306 41.254521235668  18.3247435825306 41.254521235668  C 18.3247435825306 41.254521235668  18.968934944292 43.789422787851  18.968934944292 43.789422787851  C 18.968934944292 43.789422787851  15.8663551805951 45.7697463949399  15.8663551805951 45.7697463949399  C 15.8663551805951 45.7697463949399  9.79748837425609 44.6977079262733  9.79748837425609 44.6977079262733  C 9.79748837425609 44.6977079262733  5.81396315857751 45.5383083548611  5.81396315857751 45.5383083548611  C 5.81396315857751 45.5383083548611  6.99222770060283 39.5449364679165  6.99222770060283 39.5449364679165  C 6.99222770060283 39.5449364679165  6.26820065725542 34.7895397576195  6.26820065725542 34.7895397576195  C 6.26820065725542 34.7895397576195  2.81324271276594 34.0733918600173  2.81324271276594 34.0733918600173  C 2.81324271276594 34.0733918600173  0.968763172679701 31.1192817824085  0.968763172679701 31.1192817824085  C 0.968763172679701 31.1192817824085  1.58267203452942 25.9774272127348  1.58267203452942 25.9774272127348  C 1.58267203452942 25.9774272127348  4.66047520738925 21.5200785925649  4.66047520738925 21.5200785925649  C 4.66047520738925 21.5200785925649  5.20831316034037 18.303963186565  5.20831316034037 18.303963186565  C 5.20831316034037 18.303963186565  6.81879156474383 13.4852485219068  6.81879156474383 13.4852485219068  C 6.81879156474383 13.4852485219068  6.64535542888507 10.0617122309309  6.64535542888507 10.0617122309309  C 6.64535542888507 10.0617122309309  5.10370088791751 7.14471957484405  5.10370088791751 7.14471957484405  Z " fill-rule="evenodd" />
    </mask>
  </defs>
  <g transform="matrix(1 0 0 1 -1718 -1752 )">
    <path d="M 5.10370088791751 7.14471957484405  C 5.10370088791751 7.14471957484405  4.76508747981211 4.3892968712652  4.76508747981211 4.3892968712652  C 4.76508747981211 4.3892968712652  7.56484224439055 2.30417113282001  7.56484224439055 2.30417113282001  C 7.56484224439055 2.30417113282001  10.7169751897616 1.10331337769447  10.7169751897616 1.10331337769447  C 10.7169751897616 1.10331337769447  12.649549275046 5.1229117907601  12.649549275046 5.1229117907601  C 12.649549275046 5.1229117907601  19.2084419890493 5.11417827981365  19.2084419890493 5.11417827981365  C 19.2084419890493 5.11417827981365  20.5298601670215 4.07925723266918  20.5298601670215 4.07925723266918  C 20.5298601670215 4.07925723266918  25.0281878812018 4.36746309389932  25.0281878812018 4.36746309389932  C 25.0281878812018 4.36746309389932  27.1865042385562 8.45911297227229  27.1865042385562 8.45911297227229  C 27.1865042385562 8.45911297227229  23.6186751580315 10.6555909752838  23.6186751580315 10.6555909752838  C 23.6186751580315 10.6555909752838  23.5195687946834 16.9328019679854  23.5195687946834 16.9328019679854  C 23.5195687946834 16.9328019679854  22.2669744801476 18.1030924347986  22.2669744801476 18.1030924347986  C 22.2669744801476 18.1030924347986  21.9558906174166 21.8606855194732  21.9558906174166 21.8606855194732  C 21.9558906174166 21.8606855194732  18.6220626725744 22.5135154627141  18.6220626725744 22.5135154627141  C 18.6220626725744 22.5135154627141  21.7136306181217 28.8267351589871  21.7136306181217 28.8267351589871  C 21.7136306181217 28.8267351589871  19.5828438061417 33.957672839978  19.5828438061417 33.957672839978  C 19.5828438061417 33.957672839978  22.2449508438478 36.2655031075556  22.2449508438478 36.2655031075556  C 22.2449508438478 36.2655031075556  21.1850633469328 38.3680958678935  21.1850633469328 38.3680958678935  C 21.1850633469328 38.3680958678935  18.3247435825306 41.254521235668  18.3247435825306 41.254521235668  C 18.3247435825306 41.254521235668  18.968934944292 43.789422787851  18.968934944292 43.789422787851  C 18.968934944292 43.789422787851  15.8663551805951 45.7697463949399  15.8663551805951 45.7697463949399  C 15.8663551805951 45.7697463949399  9.79748837425609 44.6977079262733  9.79748837425609 44.6977079262733  C 9.79748837425609 44.6977079262733  5.81396315857751 45.5383083548611  5.81396315857751 45.5383083548611  C 5.81396315857751 45.5383083548611  6.99222770060283 39.5449364679165  6.99222770060283 39.5449364679165  C 6.99222770060283 39.5449364679165  6.26820065725542 34.7895397576195  6.26820065725542 34.7895397576195  C 6.26820065725542 34.7895397576195  2.81324271276594 34.0733918600173  2.81324271276594 34.0733918600173  C 2.81324271276594 34.0733918600173  0.968763172679701 31.1192817824085  0.968763172679701 31.1192817824085  C 0.968763172679701 31.1192817824085  1.58267203452942 25.9774272127348  1.58267203452942 25.9774272127348  C 1.58267203452942 25.9774272127348  4.66047520738925 21.5200785925649  4.66047520738925 21.5200785925649  C 4.66047520738925 21.5200785925649  5.20831316034037 18.303963186565  5.20831316034037 18.303963186565  C 5.20831316034037 18.303963186565  6.81879156474383 13.4852485219068  6.81879156474383 13.4852485219068  C 6.81879156474383 13.4852485219068  6.64535542888507 10.0617122309309  6.64535542888507 10.0617122309309  C 6.64535542888507 10.0617122309309  5.10370088791751 7.14471957484405  5.10370088791751 7.14471957484405  Z " fill-rule="nonzero" fill="#f2f2f2" stroke="none" transform="matrix(1 0 0 1 1718 1752 )" />
    <path d="M 5.10370088791751 7.14471957484405  C 5.10370088791751 7.14471957484405  4.76508747981211 4.3892968712652  4.76508747981211 4.3892968712652  C 4.76508747981211 4.3892968712652  7.56484224439055 2.30417113282001  7.56484224439055 2.30417113282001  C 7.56484224439055 2.30417113282001  10.7169751897616 1.10331337769447  10.7169751897616 1.10331337769447  C 10.7169751897616 1.10331337769447  12.649549275046 5.1229117907601  12.649549275046 5.1229117907601  C 12.649549275046 5.1229117907601  19.2084419890493 5.11417827981365  19.2084419890493 5.11417827981365  C 19.2084419890493 5.11417827981365  20.5298601670215 4.07925723266918  20.5298601670215 4.07925723266918  C 20.5298601670215 4.07925723266918  25.0281878812018 4.36746309389932  25.0281878812018 4.36746309389932  C 25.0281878812018 4.36746309389932  27.1865042385562 8.45911297227229  27.1865042385562 8.45911297227229  C 27.1865042385562 8.45911297227229  23.6186751580315 10.6555909752838  23.6186751580315 10.6555909752838  C 23.6186751580315 10.6555909752838  23.5195687946834 16.9328019679854  23.5195687946834 16.9328019679854  C 23.5195687946834 16.9328019679854  22.2669744801476 18.1030924347986  22.2669744801476 18.1030924347986  C 22.2669744801476 18.1030924347986  21.9558906174166 21.8606855194732  21.9558906174166 21.8606855194732  C 21.9558906174166 21.8606855194732  18.6220626725744 22.5135154627141  18.6220626725744 22.5135154627141  C 18.6220626725744 22.5135154627141  21.7136306181217 28.8267351589871  21.7136306181217 28.8267351589871  C 21.7136306181217 28.8267351589871  19.5828438061417 33.957672839978  19.5828438061417 33.957672839978  C 19.5828438061417 33.957672839978  22.2449508438478 36.2655031075556  22.2449508438478 36.2655031075556  C 22.2449508438478 36.2655031075556  21.1850633469328 38.3680958678935  21.1850633469328 38.3680958678935  C 21.1850633469328 38.3680958678935  18.3247435825306 41.254521235668  18.3247435825306 41.254521235668  C 18.3247435825306 41.254521235668  18.968934944292 43.789422787851  18.968934944292 43.789422787851  C 18.968934944292 43.789422787851  15.8663551805951 45.7697463949399  15.8663551805951 45.7697463949399  C 15.8663551805951 45.7697463949399  9.79748837425609 44.6977079262733  9.79748837425609 44.6977079262733  C 9.79748837425609 44.6977079262733  5.81396315857751 45.5383083548611  5.81396315857751 45.5383083548611  C 5.81396315857751 45.5383083548611  6.99222770060283 39.5449364679165  6.99222770060283 39.5449364679165  C 6.99222770060283 39.5449364679165  6.26820065725542 34.7895397576195  6.26820065725542 34.7895397576195  C 6.26820065725542 34.7895397576195  2.81324271276594 34.0733918600173  2.81324271276594 34.0733918600173  C 2.81324271276594 34.0733918600173  0.968763172679701 31.1192817824085  0.968763172679701 31.1192817824085  C 0.968763172679701 31.1192817824085  1.58267203452942 25.9774272127348  1.58267203452942 25.9774272127348  C 1.58267203452942 25.9774272127348  4.66047520738925 21.5200785925649  4.66047520738925 21.5200785925649  C 4.66047520738925 21.5200785925649  5.20831316034037 18.303963186565  5.20831316034037 18.303963186565  C 5.20831316034037 18.303963186565  6.81879156474383 13.4852485219068  6.81879156474383 13.4852485219068  C 6.81879156474383 13.4852485219068  6.64535542888507 10.0617122309309  6.64535542888507 10.0617122309309  C 6.64535542888507 10.0617122309309  5.10370088791751 7.14471957484405  5.10370088791751 7.14471957484405  Z " stroke-width="2" stroke="#505050" fill="none" stroke-opacity="0.211764705882353" transform="matrix(1 0 0 1 1718 1752 )" mask="url(#clip728)" />
  </g>
</svg>