<?xml version="1.0" encoding="utf-8"?>
<svg version="1.1" xmlns:xlink="http://www.w3.org/1999/xlink" width="67px" height="59px" xmlns="http://www.w3.org/2000/svg">
  <defs>
    <mask fill="white" id="clip729">
      <path d="M 14.6169593890453 32.6040591704845  C 14.6169593890453 32.6040591704845  0.63417699324557 20.1555692911419  0.63417699324557 20.1555692911419  C 0.63417699324557 20.1555692911419  3.63145624588548 12.2736000358273  3.63145624588548 12.2736000358273  C 3.63145624588548 12.2736000358273  3.82132913971794 8.75294320332246  3.82132913971794 8.75294320332246  C 3.82132913971794 8.75294320332246  7.46960117121157 3.02199869604696  7.46960117121157 3.02199869604696  C 7.46960117121157 3.02199869604696  20.7227291607123 1.13436473348223  20.7227291607123 1.13436473348223  C 20.7227291607123 1.13436473348223  27.7860008112773 1.22435658518597  27.7860008112773 1.22435658518597  C 27.7860008112773 1.22435658518597  36.8415604564313 4.54747032858489  36.8415604564313 4.54747032858489  C 36.8415604564313 4.54747032858489  36.9717590122021 6.55363014461305  36.9717590122021 6.55363014461305  C 36.9717590122021 6.55363014461305  39.2203965691601 10.1840331377323  39.2203965691601 10.1840331377323  C 39.2203965691601 10.1840331377323  38.7158771655481 19.1063959956695  38.7158771655481 19.1063959956695  C 38.7158771655481 19.1063959956695  46.7447881047466 20.3750616123703  46.7447881047466 20.3750616123703  C 46.7447881047466 20.3750616123703  49.8478536839502 19.0800569171224  49.8478536839502 19.0800569171224  C 49.8478536839502 19.0800569171224  54.9852716970722 20.8689193351343  54.9852716970722 20.8689193351343  C 54.9852716970722 20.8689193351343  56.4093184008152 22.8487400726153  56.4093184008152 22.8487400726153  C 56.4093184008152 22.8487400726153  57.1172730478186 30.540831350937  57.1172730478186 30.540831350937  C 57.1172730478186 30.540831350937  58.004250709007 33.1132813557348  58.004250709007 33.1132813557348  C 58.004250709007 33.1132813557348  60.8414942368455 33.4117909126057  60.8414942368455 33.4117909126057  C 60.8414942368455 33.4117909126057  63.695012584155 32.3296937689489  63.695012584155 32.3296937689489  C 63.695012584155 32.3296937689489  66.4291822553416 33.5434863053429  66.4291822553416 33.5434863053429  C 66.4291822553416 33.5434863053429  66.4264697854296 37.2353471484055  66.4264697854296 37.2353471484055  C 66.4264697854296 37.2353471484055  65.3957312189109 41.2235226251268  65.3957312189109 41.2235226251268  C 65.3957312189109 41.2235226251268  63.9038727673706 45.1370707126307  63.9038727673706 45.1370707126307  C 63.9038727673706 45.1370707126307  62.6588490778126 51.1555501607152  62.6588490778126 51.1555501607152  C 62.6588490778126 51.1555501607152  55.761038091873 56.4189760237742  55.761038091873 56.4189760237742  C 55.761038091873 56.4189760237742  49.74749229721 57.5274122459782  49.74749229721 57.5274122459782  C 49.74749229721 57.5274122459782  41.2059245446645 56.4760440272939  41.2059245446645 56.4760440272939  C 41.2059245446645 56.4760440272939  31.564471398542 54.6015796040026  31.564471398542 54.6015796040026  C 31.564471398542 54.6015796040026  41.0241890605678 44.2152029634711  41.0241890605678 44.2152029634711  C 41.0241890605678 44.2152029634711  39.9310636860757 41.2257175483393  39.9310636860757 41.2257175483393  C 39.9310636860757 41.2257175483393  30.1268623452396 38.5874198471728  30.1268623452396 38.5874198471728  C 30.1268623452396 38.5874198471728  20.8339404271 33.622503540985  20.8339404271 33.622503540985  C 20.8339404271 33.622503540985  14.6169593890453 32.6040591704845  14.6169593890453 32.6040591704845  Z " fill-rule="evenodd" />
    </mask>
  </defs>
  <g transform="matrix(1 0 0 1 -1310 -2151 )">
    <path d="M 14.6169593890453 32.6040591704845  C 14.6169593890453 32.6040591704845  0.63417699324557 20.1555692911419  0.63417699324557 20.1555692911419  C 0.63417699324557 20.1555692911419  3.63145624588548 12.2736000358273  3.63145624588548 12.2736000358273  C 3.63145624588548 12.2736000358273  3.82132913971794 8.75294320332246  3.82132913971794 8.75294320332246  C 3.82132913971794 8.75294320332246  7.46960117121157 3.02199869604696  7.46960117121157 3.02199869604696  C 7.46960117121157 3.02199869604696  20.7227291607123 1.13436473348223  20.7227291607123 1.13436473348223  C 20.7227291607123 1.13436473348223  27.7860008112773 1.22435658518597  27.7860008112773 1.22435658518597  C 27.7860008112773 1.22435658518597  36.8415604564313 4.54747032858489  36.8415604564313 4.54747032858489  C 36.8415604564313 4.54747032858489  36.9717590122021 6.55363014461305  36.9717590122021 6.55363014461305  C 36.9717590122021 6.55363014461305  39.2203965691601 10.1840331377323  39.2203965691601 10.1840331377323  C 39.2203965691601 10.1840331377323  38.7158771655481 19.1063959956695  38.7158771655481 19.1063959956695  C 38.7158771655481 19.1063959956695  46.7447881047466 20.3750616123703  46.7447881047466 20.3750616123703  C 46.7447881047466 20.3750616123703  49.8478536839502 19.0800569171224  49.8478536839502 19.0800569171224  C 49.8478536839502 19.0800569171224  54.9852716970722 20.8689193351343  54.9852716970722 20.8689193351343  C 54.9852716970722 20.8689193351343  56.4093184008152 22.8487400726153  56.4093184008152 22.8487400726153  C 56.4093184008152 22.8487400726153  57.1172730478186 30.540831350937  57.1172730478186 30.540831350937  C 57.1172730478186 30.540831350937  58.004250709007 33.1132813557348  58.004250709007 33.1132813557348  C 58.004250709007 33.1132813557348  60.8414942368455 33.4117909126057  60.8414942368455 33.4117909126057  C 60.8414942368455 33.4117909126057  63.695012584155 32.3296937689489  63.695012584155 32.3296937689489  C 63.695012584155 32.3296937689489  66.4291822553416 33.5434863053429  66.4291822553416 33.5434863053429  C 66.4291822553416 33.5434863053429  66.4264697854296 37.2353471484055  66.4264697854296 37.2353471484055  C 66.4264697854296 37.2353471484055  65.3957312189109 41.2235226251268  65.3957312189109 41.2235226251268  C 65.3957312189109 41.2235226251268  63.9038727673706 45.1370707126307  63.9038727673706 45.1370707126307  C 63.9038727673706 45.1370707126307  62.6588490778126 51.1555501607152  62.6588490778126 51.1555501607152  C 62.6588490778126 51.1555501607152  55.761038091873 56.4189760237742  55.761038091873 56.4189760237742  C 55.761038091873 56.4189760237742  49.74749229721 57.5274122459782  49.74749229721 57.5274122459782  C 49.74749229721 57.5274122459782  41.2059245446645 56.4760440272939  41.2059245446645 56.4760440272939  C 41.2059245446645 56.4760440272939  31.564471398542 54.6015796040026  31.564471398542 54.6015796040026  C 31.564471398542 54.6015796040026  41.0241890605678 44.2152029634711  41.0241890605678 44.2152029634711  C 41.0241890605678 44.2152029634711  39.9310636860757 41.2257175483393  39.9310636860757 41.2257175483393  C 39.9310636860757 41.2257175483393  30.1268623452396 38.5874198471728  30.1268623452396 38.5874198471728  C 30.1268623452396 38.5874198471728  20.8339404271 33.622503540985  20.8339404271 33.622503540985  C 20.8339404271 33.622503540985  14.6169593890453 32.6040591704845  14.6169593890453 32.6040591704845  Z " fill-rule="nonzero" fill="#f2f2f2" stroke="none" transform="matrix(1 0 0 1 1310 2151 )" />
    <path d="M 14.6169593890453 32.6040591704845  C 14.6169593890453 32.6040591704845  0.63417699324557 20.1555692911419  0.63417699324557 20.1555692911419  C 0.63417699324557 20.1555692911419  3.63145624588548 12.2736000358273  3.63145624588548 12.2736000358273  C 3.63145624588548 12.2736000358273  3.82132913971794 8.75294320332246  3.82132913971794 8.75294320332246  C 3.82132913971794 8.75294320332246  7.46960117121157 3.02199869604696  7.46960117121157 3.02199869604696  C 7.46960117121157 3.02199869604696  20.7227291607123 1.13436473348223  20.7227291607123 1.13436473348223  C 20.7227291607123 1.13436473348223  27.7860008112773 1.22435658518597  27.7860008112773 1.22435658518597  C 27.7860008112773 1.22435658518597  36.8415604564313 4.54747032858489  36.8415604564313 4.54747032858489  C 36.8415604564313 4.54747032858489  36.9717590122021 6.55363014461305  36.9717590122021 6.55363014461305  C 36.9717590122021 6.55363014461305  39.2203965691601 10.1840331377323  39.2203965691601 10.1840331377323  C 39.2203965691601 10.1840331377323  38.7158771655481 19.1063959956695  38.7158771655481 19.1063959956695  C 38.7158771655481 19.1063959956695  46.7447881047466 20.3750616123703  46.7447881047466 20.3750616123703  C 46.7447881047466 20.3750616123703  49.8478536839502 19.0800569171224  49.8478536839502 19.0800569171224  C 49.8478536839502 19.0800569171224  54.9852716970722 20.8689193351343  54.9852716970722 20.8689193351343  C 54.9852716970722 20.8689193351343  56.4093184008152 22.8487400726153  56.4093184008152 22.8487400726153  C 56.4093184008152 22.8487400726153  57.1172730478186 30.540831350937  57.1172730478186 30.540831350937  C 57.1172730478186 30.540831350937  58.004250709007 33.1132813557348  58.004250709007 33.1132813557348  C 58.004250709007 33.1132813557348  60.8414942368455 33.4117909126057  60.8414942368455 33.4117909126057  C 60.8414942368455 33.4117909126057  63.695012584155 32.3296937689489  63.695012584155 32.3296937689489  C 63.695012584155 32.3296937689489  66.4291822553416 33.5434863053429  66.4291822553416 33.5434863053429  C 66.4291822553416 33.5434863053429  66.4264697854296 37.2353471484055  66.4264697854296 37.2353471484055  C 66.4264697854296 37.2353471484055  65.3957312189109 41.2235226251268  65.3957312189109 41.2235226251268  C 65.3957312189109 41.2235226251268  63.9038727673706 45.1370707126307  63.9038727673706 45.1370707126307  C 63.9038727673706 45.1370707126307  62.6588490778126 51.1555501607152  62.6588490778126 51.1555501607152  C 62.6588490778126 51.1555501607152  55.761038091873 56.4189760237742  55.761038091873 56.4189760237742  C 55.761038091873 56.4189760237742  49.74749229721 57.5274122459782  49.74749229721 57.5274122459782  C 49.74749229721 57.5274122459782  41.2059245446645 56.4760440272939  41.2059245446645 56.4760440272939  C 41.2059245446645 56.4760440272939  31.564471398542 54.6015796040026  31.564471398542 54.6015796040026  C 31.564471398542 54.6015796040026  41.0241890605678 44.2152029634711  41.0241890605678 44.2152029634711  C 41.0241890605678 44.2152029634711  39.9310636860757 41.2257175483393  39.9310636860757 41.2257175483393  C 39.9310636860757 41.2257175483393  30.1268623452396 38.5874198471728  30.1268623452396 38.5874198471728  C 30.1268623452396 38.5874198471728  20.8339404271 33.622503540985  20.8339404271 33.622503540985  C 20.8339404271 33.622503540985  14.6169593890453 32.6040591704845  14.6169593890453 32.6040591704845  Z " stroke-width="2" stroke="#505050" fill="none" stroke-opacity="0.211764705882353" transform="matrix(1 0 0 1 1310 2151 )" mask="url(#clip729)" />
  </g>
</svg>