<?xml version="1.0" encoding="utf-8"?>
<svg version="1.1" xmlns:xlink="http://www.w3.org/1999/xlink" width="10px" height="13px" xmlns="http://www.w3.org/2000/svg">
  <defs>
    <mask fill="white" id="clip730">
      <path d="M 3.03159953762543 12.8198756993938  C 3.03159953762543 12.8198756993938  0.699847044412309 11.4576793823358  0.699847044412309 11.4576793823358  C 0.699847044412309 11.4576793823358  0.187797500447687 4.82006534862973  0.187797500447687 4.82006534862973  C 0.187797500447687 4.82006534862973  2.26903113075423 1.18754183647511  2.26903113075423 1.18754183647511  C 2.26903113075423 1.18754183647511  6.37779430643468 0.440458798876904  6.37779430643468 0.440458798876904  C 6.37779430643468 0.440458798876904  8.71229975418555 2.61460464482187  8.71229975418555 2.61460464482187  C 8.71229975418555 2.61460464482187  8.84719452652053 8.28593163588545  8.84719452652053 8.28593163588545  C 8.84719452652053 8.28593163588545  7.17339816775529 12.3322586269494  7.17339816775529 12.3322586269494  C 7.17339816775529 12.3322586269494  3.03159953762543 12.8198756993938  3.03159953762543 12.8198756993938  Z " fill-rule="evenodd" />
    </mask>
  </defs>
  <g transform="matrix(1 0 0 1 -2183 -1871 )">
    <path d="M 3.03159953762543 12.8198756993938  C 3.03159953762543 12.8198756993938  0.699847044412309 11.4576793823358  0.699847044412309 11.4576793823358  C 0.699847044412309 11.4576793823358  0.187797500447687 4.82006534862973  0.187797500447687 4.82006534862973  C 0.187797500447687 4.82006534862973  2.26903113075423 1.18754183647511  2.26903113075423 1.18754183647511  C 2.26903113075423 1.18754183647511  6.37779430643468 0.440458798876904  6.37779430643468 0.440458798876904  C 6.37779430643468 0.440458798876904  8.71229975418555 2.61460464482187  8.71229975418555 2.61460464482187  C 8.71229975418555 2.61460464482187  8.84719452652053 8.28593163588545  8.84719452652053 8.28593163588545  C 8.84719452652053 8.28593163588545  7.17339816775529 12.3322586269494  7.17339816775529 12.3322586269494  C 7.17339816775529 12.3322586269494  3.03159953762543 12.8198756993938  3.03159953762543 12.8198756993938  Z " fill-rule="nonzero" fill="#f2f2f2" stroke="none" transform="matrix(1 0 0 1 2183 1871 )" />
    <path d="M 3.03159953762543 12.8198756993938  C 3.03159953762543 12.8198756993938  0.699847044412309 11.4576793823358  0.699847044412309 11.4576793823358  C 0.699847044412309 11.4576793823358  0.187797500447687 4.82006534862973  0.187797500447687 4.82006534862973  C 0.187797500447687 4.82006534862973  2.26903113075423 1.18754183647511  2.26903113075423 1.18754183647511  C 2.26903113075423 1.18754183647511  6.37779430643468 0.440458798876904  6.37779430643468 0.440458798876904  C 6.37779430643468 0.440458798876904  8.71229975418555 2.61460464482187  8.71229975418555 2.61460464482187  C 8.71229975418555 2.61460464482187  8.84719452652053 8.28593163588545  8.84719452652053 8.28593163588545  C 8.84719452652053 8.28593163588545  7.17339816775529 12.3322586269494  7.17339816775529 12.3322586269494  C 7.17339816775529 12.3322586269494  3.03159953762543 12.8198756993938  3.03159953762543 12.8198756993938  Z " stroke-width="2" stroke="#505050" fill="none" stroke-opacity="0.211764705882353" transform="matrix(1 0 0 1 2183 1871 )" mask="url(#clip730)" />
  </g>
</svg>