<?xml version="1.0" encoding="utf-8"?>
<svg version="1.1" xmlns:xlink="http://www.w3.org/1999/xlink" width="77px" height="43px" xmlns="http://www.w3.org/2000/svg">
  <defs>
    <mask fill="white" id="clip731">
      <path d="M 15.2855200274493 5.32493820748355  C 15.2855200274493 5.32493820748355  20.0633812964377 3.4133681457072  20.0633812964377 3.4133681457072  C 20.0633812964377 3.4133681457072  23.4410753984488 1.45137823138406  23.4410753984488 1.45137823138406  C 23.4410753984488 1.45137823138406  28.2775093975301 2.46854395232923  28.2775093975301 2.46854395232923  C 28.2775093975301 2.46854395232923  33.2924507645127 2.50142646485972  33.2924507645127 2.50142646485972  C 33.2924507645127 2.50142646485972  36.9239600302588 4.73305298193355  36.9239600302588 4.73305298193355  C 36.9239600302588 4.73305298193355  41.6195188053849 3.33225794813184  41.6195188053849 3.33225794813184  C 41.6195188053849 3.33225794813184  47.3903273083253 2.45319877981495  47.3903273083253 2.45319877981495  C 47.3903273083253 2.45319877981495  49.3594867104887 0.30706679532069  49.3594867104887 0.30706679532069  C 49.3594867104887 0.30706679532069  52.6590838390428 0.309258962822704  52.6590838390428 0.309258962822704  C 52.6590838390428 0.309258962822704  55.0410415294786 1.20585547115581  55.0410415294786 1.20585547115581  C 55.0410415294786 1.20585547115581  57.4648368842662 3.91975883867772  57.4648368842662 3.91975883867772  C 57.4648368842662 3.91975883867772  59.9444157915225 7.75166763223848  59.9444157915225 7.75166763223848  C 59.9444157915225 7.75166763223848  64.4573051862824 13.104940672213  64.4573051862824 13.104940672213  C 64.4573051862824 13.104940672213  64.7055419947702 17.0179596633492  64.7055419947702 17.0179596633492  C 64.7055419947702 17.0179596633492  63.8827345958493 22.3898490294537  63.8827345958493 22.3898490294537  C 63.8827345958493 22.3898490294537  65.2829017628268 26.3927468881734  65.2829017628268 26.3927468881734  C 65.2829017628268 26.3927468881734  68.7721629697764 27.9996056671666  68.7721629697764 27.9996056671666  C 68.7721629697764 27.9996056671666  72.4455098998743 26.5966184658627  72.4455098998743 26.5966184658627  C 72.4455098998743 26.5966184658627  75.9933438369163 28.093868869754  75.9933438369163 28.093868869754  C 75.9933438369163 28.093868869754  76.1746403824416 30.334264056836  76.1746403824416 30.334264056836  C 76.1746403824416 30.334264056836  72.3841479921581 32.1954142660655  72.3841479921581 32.1954142660655  C 72.3841479921581 32.1954142660655  70.0077686569694 31.3865044578138  70.0077686569694 31.3865044578138  C 70.0077686569694 31.3865044578138  67.8210534001762 41.7138055599103  67.8210534001762 41.7138055599103  C 67.8210534001762 41.7138055599103  63.2216994990893 40.8237855540833  63.2216994990893 40.8237855540833  C 63.2216994990893 40.8237855540833  57.5317771472288 37.728445041207  57.5317771472288 37.728445041207  C 57.5317771472288 37.728445041207  48.3247018121846 39.7101644630486  48.3247018121846 39.7101644630486  C 48.3247018121846 39.7101644630486  44.4449557379509 41.8760259550611  44.4449557379509 41.8760259550611  C 44.4449557379509 41.8760259550611  30.9355956726881 41.4288237846455  30.9355956726881 41.4288237846455  C 30.9355956726881 41.4288237846455  24.92491789413 40.1047546134153  24.92491789413 40.1047546134153  C 24.92491789413 40.1047546134153  21.8958709950515 40.7273301839937  21.8958709950515 40.7273301839937  C 21.8958709950515 40.7273301839937  19.6450046529185 37.2242465157385  19.6450046529185 37.2242465157385  C 19.6450046529185 37.2242465157385  18.2141565320834 35.7313804468513  18.2141565320834 35.7313804468513  C 18.2141565320834 35.7313804468513  20.027121987333 34.2823577280047  20.027121987333 34.2823577280047  C 20.027121987333 34.2823577280047  18.0970110718981 33.2125799870107  18.0970110718981 33.2125799870107  C 18.0970110718981 33.2125799870107  15.6425347632524 35.1373030537992  15.6425347632524 35.1373030537992  C 15.6425347632524 35.1373030537992  11.082229348894 32.638232101477  11.082229348894 32.638232101477  C 11.082229348894 32.638232101477  10.4686102717324 29.0693834081607  10.4686102717324 29.0693834081607  C 10.4686102717324 29.0693834081607  5.70190571323778 27.019706793756  5.70190571323778 27.019706793756  C 5.70190571323778 27.019706793756  4.82610393947107 24.2356540661688  4.82610393947107 24.2356540661688  C 4.82610393947107 24.2356540661688  0.586553951810524 19.1816289878598  0.586553951810524 19.1816289878598  C 0.586553951810524 19.1816289878598  6.85662524935071 17.5111973513075  6.85662524935071 17.5111973513075  C 6.85662524935071 17.5111973513075  11.5870704987402 11.4586228781832  11.5870704987402 11.4586228781832  C 11.5870704987402 11.4586228781832  15.2855200274493 5.32493820748355  15.2855200274493 5.32493820748355  Z " fill-rule="evenodd" />
    </mask>
  </defs>
  <g transform="matrix(1 0 0 1 -1949 -1703 )">
    <path d="M 15.2855200274493 5.32493820748355  C 15.2855200274493 5.32493820748355  20.0633812964377 3.4133681457072  20.0633812964377 3.4133681457072  C 20.0633812964377 3.4133681457072  23.4410753984488 1.45137823138406  23.4410753984488 1.45137823138406  C 23.4410753984488 1.45137823138406  28.2775093975301 2.46854395232923  28.2775093975301 2.46854395232923  C 28.2775093975301 2.46854395232923  33.2924507645127 2.50142646485972  33.2924507645127 2.50142646485972  C 33.2924507645127 2.50142646485972  36.9239600302588 4.73305298193355  36.9239600302588 4.73305298193355  C 36.9239600302588 4.73305298193355  41.6195188053849 3.33225794813184  41.6195188053849 3.33225794813184  C 41.6195188053849 3.33225794813184  47.3903273083253 2.45319877981495  47.3903273083253 2.45319877981495  C 47.3903273083253 2.45319877981495  49.3594867104887 0.30706679532069  49.3594867104887 0.30706679532069  C 49.3594867104887 0.30706679532069  52.6590838390428 0.309258962822704  52.6590838390428 0.309258962822704  C 52.6590838390428 0.309258962822704  55.0410415294786 1.20585547115581  55.0410415294786 1.20585547115581  C 55.0410415294786 1.20585547115581  57.4648368842662 3.91975883867772  57.4648368842662 3.91975883867772  C 57.4648368842662 3.91975883867772  59.9444157915225 7.75166763223848  59.9444157915225 7.75166763223848  C 59.9444157915225 7.75166763223848  64.4573051862824 13.104940672213  64.4573051862824 13.104940672213  C 64.4573051862824 13.104940672213  64.7055419947702 17.0179596633492  64.7055419947702 17.0179596633492  C 64.7055419947702 17.0179596633492  63.8827345958493 22.3898490294537  63.8827345958493 22.3898490294537  C 63.8827345958493 22.3898490294537  65.2829017628268 26.3927468881734  65.2829017628268 26.3927468881734  C 65.2829017628268 26.3927468881734  68.7721629697764 27.9996056671666  68.7721629697764 27.9996056671666  C 68.7721629697764 27.9996056671666  72.4455098998743 26.5966184658627  72.4455098998743 26.5966184658627  C 72.4455098998743 26.5966184658627  75.9933438369163 28.093868869754  75.9933438369163 28.093868869754  C 75.9933438369163 28.093868869754  76.1746403824416 30.334264056836  76.1746403824416 30.334264056836  C 76.1746403824416 30.334264056836  72.3841479921581 32.1954142660655  72.3841479921581 32.1954142660655  C 72.3841479921581 32.1954142660655  70.0077686569694 31.3865044578138  70.0077686569694 31.3865044578138  C 70.0077686569694 31.3865044578138  67.8210534001762 41.7138055599103  67.8210534001762 41.7138055599103  C 67.8210534001762 41.7138055599103  63.2216994990893 40.8237855540833  63.2216994990893 40.8237855540833  C 63.2216994990893 40.8237855540833  57.5317771472288 37.728445041207  57.5317771472288 37.728445041207  C 57.5317771472288 37.728445041207  48.3247018121846 39.7101644630486  48.3247018121846 39.7101644630486  C 48.3247018121846 39.7101644630486  44.4449557379509 41.8760259550611  44.4449557379509 41.8760259550611  C 44.4449557379509 41.8760259550611  30.9355956726881 41.4288237846455  30.9355956726881 41.4288237846455  C 30.9355956726881 41.4288237846455  24.92491789413 40.1047546134153  24.92491789413 40.1047546134153  C 24.92491789413 40.1047546134153  21.8958709950515 40.7273301839937  21.8958709950515 40.7273301839937  C 21.8958709950515 40.7273301839937  19.6450046529185 37.2242465157385  19.6450046529185 37.2242465157385  C 19.6450046529185 37.2242465157385  18.2141565320834 35.7313804468513  18.2141565320834 35.7313804468513  C 18.2141565320834 35.7313804468513  20.027121987333 34.2823577280047  20.027121987333 34.2823577280047  C 20.027121987333 34.2823577280047  18.0970110718981 33.2125799870107  18.0970110718981 33.2125799870107  C 18.0970110718981 33.2125799870107  15.6425347632524 35.1373030537992  15.6425347632524 35.1373030537992  C 15.6425347632524 35.1373030537992  11.082229348894 32.638232101477  11.082229348894 32.638232101477  C 11.082229348894 32.638232101477  10.4686102717324 29.0693834081607  10.4686102717324 29.0693834081607  C 10.4686102717324 29.0693834081607  5.70190571323778 27.019706793756  5.70190571323778 27.019706793756  C 5.70190571323778 27.019706793756  4.82610393947107 24.2356540661688  4.82610393947107 24.2356540661688  C 4.82610393947107 24.2356540661688  0.586553951810524 19.1816289878598  0.586553951810524 19.1816289878598  C 0.586553951810524 19.1816289878598  6.85662524935071 17.5111973513075  6.85662524935071 17.5111973513075  C 6.85662524935071 17.5111973513075  11.5870704987402 11.4586228781832  11.5870704987402 11.4586228781832  C 11.5870704987402 11.4586228781832  15.2855200274493 5.32493820748355  15.2855200274493 5.32493820748355  Z " fill-rule="nonzero" fill="#f2f2f2" stroke="none" transform="matrix(1 0 0 1 1949 1703 )" />
    <path d="M 15.2855200274493 5.32493820748355  C 15.2855200274493 5.32493820748355  20.0633812964377 3.4133681457072  20.0633812964377 3.4133681457072  C 20.0633812964377 3.4133681457072  23.4410753984488 1.45137823138406  23.4410753984488 1.45137823138406  C 23.4410753984488 1.45137823138406  28.2775093975301 2.46854395232923  28.2775093975301 2.46854395232923  C 28.2775093975301 2.46854395232923  33.2924507645127 2.50142646485972  33.2924507645127 2.50142646485972  C 33.2924507645127 2.50142646485972  36.9239600302588 4.73305298193355  36.9239600302588 4.73305298193355  C 36.9239600302588 4.73305298193355  41.6195188053849 3.33225794813184  41.6195188053849 3.33225794813184  C 41.6195188053849 3.33225794813184  47.3903273083253 2.45319877981495  47.3903273083253 2.45319877981495  C 47.3903273083253 2.45319877981495  49.3594867104887 0.30706679532069  49.3594867104887 0.30706679532069  C 49.3594867104887 0.30706679532069  52.6590838390428 0.309258962822704  52.6590838390428 0.309258962822704  C 52.6590838390428 0.309258962822704  55.0410415294786 1.20585547115581  55.0410415294786 1.20585547115581  C 55.0410415294786 1.20585547115581  57.4648368842662 3.91975883867772  57.4648368842662 3.91975883867772  C 57.4648368842662 3.91975883867772  59.9444157915225 7.75166763223848  59.9444157915225 7.75166763223848  C 59.9444157915225 7.75166763223848  64.4573051862824 13.104940672213  64.4573051862824 13.104940672213  C 64.4573051862824 13.104940672213  64.7055419947702 17.0179596633492  64.7055419947702 17.0179596633492  C 64.7055419947702 17.0179596633492  63.8827345958493 22.3898490294537  63.8827345958493 22.3898490294537  C 63.8827345958493 22.3898490294537  65.2829017628268 26.3927468881734  65.2829017628268 26.3927468881734  C 65.2829017628268 26.3927468881734  68.7721629697764 27.9996056671666  68.7721629697764 27.9996056671666  C 68.7721629697764 27.9996056671666  72.4455098998743 26.5966184658627  72.4455098998743 26.5966184658627  C 72.4455098998743 26.5966184658627  75.9933438369163 28.093868869754  75.9933438369163 28.093868869754  C 75.9933438369163 28.093868869754  76.1746403824416 30.334264056836  76.1746403824416 30.334264056836  C 76.1746403824416 30.334264056836  72.3841479921581 32.1954142660655  72.3841479921581 32.1954142660655  C 72.3841479921581 32.1954142660655  70.0077686569694 31.3865044578138  70.0077686569694 31.3865044578138  C 70.0077686569694 31.3865044578138  67.8210534001762 41.7138055599103  67.8210534001762 41.7138055599103  C 67.8210534001762 41.7138055599103  63.2216994990893 40.8237855540833  63.2216994990893 40.8237855540833  C 63.2216994990893 40.8237855540833  57.5317771472288 37.728445041207  57.5317771472288 37.728445041207  C 57.5317771472288 37.728445041207  48.3247018121846 39.7101644630486  48.3247018121846 39.7101644630486  C 48.3247018121846 39.7101644630486  44.4449557379509 41.8760259550611  44.4449557379509 41.8760259550611  C 44.4449557379509 41.8760259550611  30.9355956726881 41.4288237846455  30.9355956726881 41.4288237846455  C 30.9355956726881 41.4288237846455  24.92491789413 40.1047546134153  24.92491789413 40.1047546134153  C 24.92491789413 40.1047546134153  21.8958709950515 40.7273301839937  21.8958709950515 40.7273301839937  C 21.8958709950515 40.7273301839937  19.6450046529185 37.2242465157385  19.6450046529185 37.2242465157385  C 19.6450046529185 37.2242465157385  18.2141565320834 35.7313804468513  18.2141565320834 35.7313804468513  C 18.2141565320834 35.7313804468513  20.027121987333 34.2823577280047  20.027121987333 34.2823577280047  C 20.027121987333 34.2823577280047  18.0970110718981 33.2125799870107  18.0970110718981 33.2125799870107  C 18.0970110718981 33.2125799870107  15.6425347632524 35.1373030537992  15.6425347632524 35.1373030537992  C 15.6425347632524 35.1373030537992  11.082229348894 32.638232101477  11.082229348894 32.638232101477  C 11.082229348894 32.638232101477  10.4686102717324 29.0693834081607  10.4686102717324 29.0693834081607  C 10.4686102717324 29.0693834081607  5.70190571323778 27.019706793756  5.70190571323778 27.019706793756  C 5.70190571323778 27.019706793756  4.82610393947107 24.2356540661688  4.82610393947107 24.2356540661688  C 4.82610393947107 24.2356540661688  0.586553951810524 19.1816289878598  0.586553951810524 19.1816289878598  C 0.586553951810524 19.1816289878598  6.85662524935071 17.5111973513075  6.85662524935071 17.5111973513075  C 6.85662524935071 17.5111973513075  11.5870704987402 11.4586228781832  11.5870704987402 11.4586228781832  C 11.5870704987402 11.4586228781832  15.2855200274493 5.32493820748355  15.2855200274493 5.32493820748355  Z " stroke-width="2" stroke="#505050" fill="none" stroke-opacity="0.211764705882353" transform="matrix(1 0 0 1 1949 1703 )" mask="url(#clip731)" />
  </g>
</svg>