<?xml version="1.0" encoding="utf-8"?>
<svg version="1.1" xmlns:xlink="http://www.w3.org/1999/xlink" width="36px" height="36px" xmlns="http://www.w3.org/2000/svg">
  <defs>
    <mask fill="white" id="clip732">
      <path d="M 16.7634272649325 5.03645677686159  C 16.7634272649325 5.03645677686159  17.6278549896892 7.77265419972788  17.6278549896892 7.77265419972788  C 17.6278549896892 7.77265419972788  24.3326542941777 9.78709875908207  24.3326542941777 9.78709875908207  C 24.3326542941777 9.78709875908207  24.9383042924151 13.2946022271341  24.9383042924151 13.2946022271341  C 24.9383042924151 13.2946022271341  29.4393849611324 15.7507164492344  29.4393849611324 15.7507164492344  C 29.4393849611324 15.7507164492344  31.8619849540814 13.8590776009853  31.8619849540814 13.8590776009853  C 31.8619849540814 13.8590776009853  33.7670294939912 14.910466846937  33.7670294939912 14.910466846937  C 33.7670294939912 14.910466846937  31.9776090446539 16.3345821985232  31.9776090446539 16.3345821985232  C 31.9776090446539 16.3345821985232  33.3898747223616 19.3670046646085  33.3898747223616 19.3670046646085  C 33.3898747223616 19.3670046646085  31.4848301824518 21.2694159436563  31.4848301824518 21.2694159436563  C 31.4848301824518 21.2694159436563  32.1785747258873 24.3180138596845  32.1785747258873 24.3180138596845  C 32.1785747258873 24.3180138596845  35.9280988058829 27.8966153710078  35.9280988058829 27.8966153710078  C 35.9280988058829 27.8966153710078  32.9851904053578 30.4712263318936  32.9851904053578 30.4712263318936  C 32.9851904053578 30.4712263318936  31.6885488182227 33.0781545851757  31.6885488182227 33.0781545851757  C 31.6885488182227 33.0781545851757  32.5254469976048 34.049827843217  32.5254469976048 34.049827843217  C 32.5254469976048 34.049827843217  31.2563349558441 35.2003234525166  31.2563349558441 35.2003234525166  C 31.2563349558441 35.2003234525166  27.6774940571697 35.3360560805802  27.6774940571697 35.3360560805802  C 27.6774940571697 35.3360560805802  25.0484224739125 35.8100430357223  25.0484224739125 35.8100430357223  C 25.0484224739125 35.8100430357223  24.7923977019307 35.2003234525166  24.7923977019307 35.2003234525166  C 24.7923977019307 35.2003234525166  25.7173904265112 34.230804680635  25.7173904265112 34.230804680635  C 25.7173904265112 34.230804680635  26.5818181512677 32.2400594690379  26.5818181512677 32.2400594690379  C 26.5818181512677 32.2400594690379  25.486142245366 32.2853036783923  25.486142245366 32.2853036783923  C 25.486142245366 32.2853036783923  23.9857820224602 30.7663909357776  23.9857820224602 30.7663909357776  C 23.9857820224602 30.7663909357776  22.7166699806994 30.3785834270249  22.7166699806994 30.3785834270249  C 22.7166699806994 30.3785834270249  21.706335665458 29.0708103280646  21.706335665458 29.0708103280646  C 21.706335665458 29.0708103280646  20.2637874878385 28.5580426220471  20.2637874878385 28.5580426220471  C 20.2637874878385 28.5580426220471  17.1681115819365 27.3924656096294  17.1681115819365 27.3924656096294  C 17.1681115819365 27.3924656096294  15.7833754496032 27.8492166754936  15.7833754496032 27.8492166754936  C 15.7833754496032 27.8492166754936  14.7152290890756 30.5854140983597  14.7152290890756 30.5854140983597  C 14.7152290890756 30.5854140983597  12.8679965944523 31.1757433061277  12.8679965944523 31.1757433061277  C 12.8679965944523 31.1757433061277  13.5039290926013 30.4712263318936  13.5039290926013 30.4712263318936  C 13.5039290926013 30.4712263318936  10.561020692076 28.7627188072221  10.561020692076 28.7627188072221  C 10.561020692076 28.7627188072221  8.0227966085547 27.8729160232506  8.0227966085547 27.8729160232506  C 8.0227966085547 27.8729160232506  6.89683820274081 26.7288838724303  6.89683820274081 26.7288838724303  C 6.89683820274081 26.7288838724303  4.84864002688414 25.3047685208441  4.84864002688414 25.3047685208441  C 4.84864002688414 25.3047685208441  6.66559002159556 24.9385058736887  6.66559002159556 24.9385058736887  C 6.66559002159556 24.9385058736887  7.79154842740923 21.0151865768073  7.79154842740923 21.0151865768073  C 7.79154842740923 21.0151865768073  4.06955389278801 16.2182399458973  4.06955389278801 16.2182399458973  C 4.06955389278801 16.2182399458973  6.00212797807217 12.4974423480313  6.00212797807217 12.4974423480313  C 6.00212797807217 12.4974423480313  3.20512616803126 12.5189872096287  3.20512616803126 12.5189872096287  C 3.20512616803126 12.5189872096287  6.17556411393093 9.31311180393987  6.17556411393093 9.31311180393987  C 6.17556411393093 9.31311180393987  3.72268162107025 6.86992449879794  3.72268162107025 6.86992449879794  C 3.72268162107025 6.86992449879794  1.84791958107235 3.53047095120549  1.84791958107235 3.53047095120549  C 1.84791958107235 3.53047095120549  7.76126592749756 1.24887010804378  7.76126592749756 1.24887010804378  C 7.76126592749756 1.24887010804378  12.5789363680208 1.63452313063669  12.5789363680208 1.63452313063669  C 12.5789363680208 1.63452313063669  16.7634272649325 5.03645677686159  16.7634272649325 5.03645677686159  Z " fill-rule="evenodd" />
    </mask>
  </defs>
  <g transform="matrix(1 0 0 1 -1936 -1720 )">
    <path d="M 16.7634272649325 5.03645677686159  C 16.7634272649325 5.03645677686159  17.6278549896892 7.77265419972788  17.6278549896892 7.77265419972788  C 17.6278549896892 7.77265419972788  24.3326542941777 9.78709875908207  24.3326542941777 9.78709875908207  C 24.3326542941777 9.78709875908207  24.9383042924151 13.2946022271341  24.9383042924151 13.2946022271341  C 24.9383042924151 13.2946022271341  29.4393849611324 15.7507164492344  29.4393849611324 15.7507164492344  C 29.4393849611324 15.7507164492344  31.8619849540814 13.8590776009853  31.8619849540814 13.8590776009853  C 31.8619849540814 13.8590776009853  33.7670294939912 14.910466846937  33.7670294939912 14.910466846937  C 33.7670294939912 14.910466846937  31.9776090446539 16.3345821985232  31.9776090446539 16.3345821985232  C 31.9776090446539 16.3345821985232  33.3898747223616 19.3670046646085  33.3898747223616 19.3670046646085  C 33.3898747223616 19.3670046646085  31.4848301824518 21.2694159436563  31.4848301824518 21.2694159436563  C 31.4848301824518 21.2694159436563  32.1785747258873 24.3180138596845  32.1785747258873 24.3180138596845  C 32.1785747258873 24.3180138596845  35.9280988058829 27.8966153710078  35.9280988058829 27.8966153710078  C 35.9280988058829 27.8966153710078  32.9851904053578 30.4712263318936  32.9851904053578 30.4712263318936  C 32.9851904053578 30.4712263318936  31.6885488182227 33.0781545851757  31.6885488182227 33.0781545851757  C 31.6885488182227 33.0781545851757  32.5254469976048 34.049827843217  32.5254469976048 34.049827843217  C 32.5254469976048 34.049827843217  31.2563349558441 35.2003234525166  31.2563349558441 35.2003234525166  C 31.2563349558441 35.2003234525166  27.6774940571697 35.3360560805802  27.6774940571697 35.3360560805802  C 27.6774940571697 35.3360560805802  25.0484224739125 35.8100430357223  25.0484224739125 35.8100430357223  C 25.0484224739125 35.8100430357223  24.7923977019307 35.2003234525166  24.7923977019307 35.2003234525166  C 24.7923977019307 35.2003234525166  25.7173904265112 34.230804680635  25.7173904265112 34.230804680635  C 25.7173904265112 34.230804680635  26.5818181512677 32.2400594690379  26.5818181512677 32.2400594690379  C 26.5818181512677 32.2400594690379  25.486142245366 32.2853036783923  25.486142245366 32.2853036783923  C 25.486142245366 32.2853036783923  23.9857820224602 30.7663909357776  23.9857820224602 30.7663909357776  C 23.9857820224602 30.7663909357776  22.7166699806994 30.3785834270249  22.7166699806994 30.3785834270249  C 22.7166699806994 30.3785834270249  21.706335665458 29.0708103280646  21.706335665458 29.0708103280646  C 21.706335665458 29.0708103280646  20.2637874878385 28.5580426220471  20.2637874878385 28.5580426220471  C 20.2637874878385 28.5580426220471  17.1681115819365 27.3924656096294  17.1681115819365 27.3924656096294  C 17.1681115819365 27.3924656096294  15.7833754496032 27.8492166754936  15.7833754496032 27.8492166754936  C 15.7833754496032 27.8492166754936  14.7152290890756 30.5854140983597  14.7152290890756 30.5854140983597  C 14.7152290890756 30.5854140983597  12.8679965944523 31.1757433061277  12.8679965944523 31.1757433061277  C 12.8679965944523 31.1757433061277  13.5039290926013 30.4712263318936  13.5039290926013 30.4712263318936  C 13.5039290926013 30.4712263318936  10.561020692076 28.7627188072221  10.561020692076 28.7627188072221  C 10.561020692076 28.7627188072221  8.0227966085547 27.8729160232506  8.0227966085547 27.8729160232506  C 8.0227966085547 27.8729160232506  6.89683820274081 26.7288838724303  6.89683820274081 26.7288838724303  C 6.89683820274081 26.7288838724303  4.84864002688414 25.3047685208441  4.84864002688414 25.3047685208441  C 4.84864002688414 25.3047685208441  6.66559002159556 24.9385058736887  6.66559002159556 24.9385058736887  C 6.66559002159556 24.9385058736887  7.79154842740923 21.0151865768073  7.79154842740923 21.0151865768073  C 7.79154842740923 21.0151865768073  4.06955389278801 16.2182399458973  4.06955389278801 16.2182399458973  C 4.06955389278801 16.2182399458973  6.00212797807217 12.4974423480313  6.00212797807217 12.4974423480313  C 6.00212797807217 12.4974423480313  3.20512616803126 12.5189872096287  3.20512616803126 12.5189872096287  C 3.20512616803126 12.5189872096287  6.17556411393093 9.31311180393987  6.17556411393093 9.31311180393987  C 6.17556411393093 9.31311180393987  3.72268162107025 6.86992449879794  3.72268162107025 6.86992449879794  C 3.72268162107025 6.86992449879794  1.84791958107235 3.53047095120549  1.84791958107235 3.53047095120549  C 1.84791958107235 3.53047095120549  7.76126592749756 1.24887010804378  7.76126592749756 1.24887010804378  C 7.76126592749756 1.24887010804378  12.5789363680208 1.63452313063669  12.5789363680208 1.63452313063669  C 12.5789363680208 1.63452313063669  16.7634272649325 5.03645677686159  16.7634272649325 5.03645677686159  Z " fill-rule="nonzero" fill="#f2f2f2" stroke="none" transform="matrix(1 0 0 1 1936 1720 )" />
    <path d="M 16.7634272649325 5.03645677686159  C 16.7634272649325 5.03645677686159  17.6278549896892 7.77265419972788  17.6278549896892 7.77265419972788  C 17.6278549896892 7.77265419972788  24.3326542941777 9.78709875908207  24.3326542941777 9.78709875908207  C 24.3326542941777 9.78709875908207  24.9383042924151 13.2946022271341  24.9383042924151 13.2946022271341  C 24.9383042924151 13.2946022271341  29.4393849611324 15.7507164492344  29.4393849611324 15.7507164492344  C 29.4393849611324 15.7507164492344  31.8619849540814 13.8590776009853  31.8619849540814 13.8590776009853  C 31.8619849540814 13.8590776009853  33.7670294939912 14.910466846937  33.7670294939912 14.910466846937  C 33.7670294939912 14.910466846937  31.9776090446539 16.3345821985232  31.9776090446539 16.3345821985232  C 31.9776090446539 16.3345821985232  33.3898747223616 19.3670046646085  33.3898747223616 19.3670046646085  C 33.3898747223616 19.3670046646085  31.4848301824518 21.2694159436563  31.4848301824518 21.2694159436563  C 31.4848301824518 21.2694159436563  32.1785747258873 24.3180138596845  32.1785747258873 24.3180138596845  C 32.1785747258873 24.3180138596845  35.9280988058829 27.8966153710078  35.9280988058829 27.8966153710078  C 35.9280988058829 27.8966153710078  32.9851904053578 30.4712263318936  32.9851904053578 30.4712263318936  C 32.9851904053578 30.4712263318936  31.6885488182227 33.0781545851757  31.6885488182227 33.0781545851757  C 31.6885488182227 33.0781545851757  32.5254469976048 34.049827843217  32.5254469976048 34.049827843217  C 32.5254469976048 34.049827843217  31.2563349558441 35.2003234525166  31.2563349558441 35.2003234525166  C 31.2563349558441 35.2003234525166  27.6774940571697 35.3360560805802  27.6774940571697 35.3360560805802  C 27.6774940571697 35.3360560805802  25.0484224739125 35.8100430357223  25.0484224739125 35.8100430357223  C 25.0484224739125 35.8100430357223  24.7923977019307 35.2003234525166  24.7923977019307 35.2003234525166  C 24.7923977019307 35.2003234525166  25.7173904265112 34.230804680635  25.7173904265112 34.230804680635  C 25.7173904265112 34.230804680635  26.5818181512677 32.2400594690379  26.5818181512677 32.2400594690379  C 26.5818181512677 32.2400594690379  25.486142245366 32.2853036783923  25.486142245366 32.2853036783923  C 25.486142245366 32.2853036783923  23.9857820224602 30.7663909357776  23.9857820224602 30.7663909357776  C 23.9857820224602 30.7663909357776  22.7166699806994 30.3785834270249  22.7166699806994 30.3785834270249  C 22.7166699806994 30.3785834270249  21.706335665458 29.0708103280646  21.706335665458 29.0708103280646  C 21.706335665458 29.0708103280646  20.2637874878385 28.5580426220471  20.2637874878385 28.5580426220471  C 20.2637874878385 28.5580426220471  17.1681115819365 27.3924656096294  17.1681115819365 27.3924656096294  C 17.1681115819365 27.3924656096294  15.7833754496032 27.8492166754936  15.7833754496032 27.8492166754936  C 15.7833754496032 27.8492166754936  14.7152290890756 30.5854140983597  14.7152290890756 30.5854140983597  C 14.7152290890756 30.5854140983597  12.8679965944523 31.1757433061277  12.8679965944523 31.1757433061277  C 12.8679965944523 31.1757433061277  13.5039290926013 30.4712263318936  13.5039290926013 30.4712263318936  C 13.5039290926013 30.4712263318936  10.561020692076 28.7627188072221  10.561020692076 28.7627188072221  C 10.561020692076 28.7627188072221  8.0227966085547 27.8729160232506  8.0227966085547 27.8729160232506  C 8.0227966085547 27.8729160232506  6.89683820274081 26.7288838724303  6.89683820274081 26.7288838724303  C 6.89683820274081 26.7288838724303  4.84864002688414 25.3047685208441  4.84864002688414 25.3047685208441  C 4.84864002688414 25.3047685208441  6.66559002159556 24.9385058736887  6.66559002159556 24.9385058736887  C 6.66559002159556 24.9385058736887  7.79154842740923 21.0151865768073  7.79154842740923 21.0151865768073  C 7.79154842740923 21.0151865768073  4.06955389278801 16.2182399458973  4.06955389278801 16.2182399458973  C 4.06955389278801 16.2182399458973  6.00212797807217 12.4974423480313  6.00212797807217 12.4974423480313  C 6.00212797807217 12.4974423480313  3.20512616803126 12.5189872096287  3.20512616803126 12.5189872096287  C 3.20512616803126 12.5189872096287  6.17556411393093 9.31311180393987  6.17556411393093 9.31311180393987  C 6.17556411393093 9.31311180393987  3.72268162107025 6.86992449879794  3.72268162107025 6.86992449879794  C 3.72268162107025 6.86992449879794  1.84791958107235 3.53047095120549  1.84791958107235 3.53047095120549  C 1.84791958107235 3.53047095120549  7.76126592749756 1.24887010804378  7.76126592749756 1.24887010804378  C 7.76126592749756 1.24887010804378  12.5789363680208 1.63452313063669  12.5789363680208 1.63452313063669  C 12.5789363680208 1.63452313063669  16.7634272649325 5.03645677686159  16.7634272649325 5.03645677686159  Z " stroke-width="2" stroke="#505050" fill="none" stroke-opacity="0.211764705882353" transform="matrix(1 0 0 1 1936 1720 )" mask="url(#clip732)" />
  </g>
</svg>