<?xml version="1.0" encoding="utf-8"?>
<svg version="1.1" xmlns:xlink="http://www.w3.org/1999/xlink" width="167px" height="108px" xmlns="http://www.w3.org/2000/svg">
  <defs>
    <mask fill="white" id="clip733">
      <path d="M 67.6950968987549 105.280471032414  C 67.6950968987549 105.280471032414  64.3263818098045 107.27767970249  64.3263818098045 107.27767970249  C 64.3263818098045 107.27767970249  63.3302710930066 104.606116864416  63.3302710930066 104.606116864416  C 63.3302710930066 104.606116864416  61.0151346468229 102.714478016167  61.0151346468229 102.714478016167  C 61.0151346468229 102.714478016167  60.4240359797123 100.206656126233  60.4240359797123 100.206656126233  C 60.4240359797123 100.206656126233  56.4614856557477 97.9487546308285  56.4614856557477 97.9487546308285  C 56.4614856557477 97.9487546308285  52.3730532082315 92.6465641917155  52.3730532082315 92.6465641917155  C 52.3730532082315 92.6465641917155  50.2084279967291 87.4693339498671  50.2084279967291 87.4693339498671  C 50.2084279967291 87.4693339498671  44.9022228322486 83.0763366701633  44.9022228322486 83.0763366701633  C 44.9022228322486 83.0763366701633  41.4787763852324 82.0249474242113  41.4787763852324 82.0249474242113  C 41.4787763852324 82.0249474242113  36.3969697888219 75.9018977582384  36.3969697888219 75.9018977582384  C 36.3969697888219 75.9018977582384  35.5103217881558 71.4119486013464  35.5103217881558 71.4119486013464  C 35.5103217881558 71.4119486013464  35.8359733686473 67.564036320056  35.8359733686473 67.564036320056  C 35.8359733686473 67.564036320056  31.4355721801562 60.3206538510195  31.4355721801562 60.3206538510195  C 31.4355721801562 60.3206538510195  27.8369853873295 57.7568153209325  27.8369853873295 57.7568153209325  C 27.8369853873295 57.7568153209325  23.6938215817475 56.3951800679784  23.6938215817475 56.3951800679784  C 23.6938215817475 56.3951800679784  21.1707059749136 51.044530494016  21.1707059749136 51.044530494016  C 21.1707059749136 51.044530494016  21.5894008641172 49.5471626129987  21.5894008641172 49.5471626129987  C 21.5894008641172 49.5471626129987  19.457614467454 46.0999847574194  19.457614467454 46.0999847574194  C 19.457614467454 46.0999847574194  17.2163653546594 44.6112348210409  17.2163653546594 44.6112348210409  C 17.2163653546594 44.6112348210409  14.2198235005562 39.6300628197285  14.2198235005562 39.6300628197285  C 14.2198235005562 39.6300628197285  9.54850208963934 34.1942942387119  9.54850208963934 34.1942942387119  C 9.54850208963934 34.1942942387119  5.63520998793414 29.5319861890409  5.63520998793414 29.5319861890409  C 5.63520998793414 29.5319861890409  1.81496119494054 29.5643034814367  1.81496119494054 29.5643034814367  C 1.81496119494054 29.5643034814367  3.00810480077514 25.8176520496538  3.00810480077514 25.8176520496538  C 3.00810480077514 25.8176520496538  3.34743922078329 23.4175544677069  3.34743922078329 23.4175544677069  C 3.34743922078329 23.4175544677069  4.29976485112809 20.670584614042  4.29976485112809 20.670584614042  C 4.29976485112809 20.670584614042  12.8378567093944 21.7650635831883  12.8378567093944 21.7650635831883  C 12.8378567093944 21.7650635831883  16.1545770081823 19.645049202007  16.1545770081823 19.645049202007  C 16.1545770081823 19.645049202007  17.9908140712904 17.1523087151912  17.9908140712904 17.1523087151912  C 17.9908140712904 17.1523087151912  23.8443328164289 16.1935623741081  23.8443328164289 16.1935623741081  C 23.8443328164289 16.1935623741081  25.108627187749 13.8645628354324  25.108627187749 13.8645628354324  C 25.108627187749 13.8645628354324  27.6454256340991 12.6817499337365  27.6454256340991 12.6817499337365  C 27.6454256340991 12.6817499337365  19.996718344402 5.66674299763247  19.996718344402 5.66674299763247  C 19.996718344402 5.66674299763247  35.3652836892812 2.12045877870524  35.3652836892812 2.12045877870524  C 35.3652836892812 2.12045877870524  36.8266109496385 1.04967915731584  36.8266109496385 1.04967915731584  C 36.8266109496385 1.04967915731584  46.0680007590503 2.9714808118014  46.0680007590503 2.9714808118014  C 46.0680007590503 2.9714808118014  57.5013814589978 7.90956308991895  57.5013814589978 7.90956308991895  C 57.5013814589978 7.90956308991895  79.1366873024123 21.8943327527726  79.1366873024123 21.8943327527726  C 79.1366873024123 21.8943327527726  95.3905110203611 22.4437267235057  95.3905110203611 22.4437267235057  C 95.3905110203611 22.4437267235057  102.22645764278 23.1073084607047  102.22645764278 23.1073084607047  C 102.22645764278 23.1073084607047  104.136582039277 26.3735094788661  104.136582039277 26.3735094788661  C 104.136582039277 26.3735094788661  109.563196191502 26.1968416137679  109.563196191502 26.1968416137679  C 109.563196191502 26.1968416137679  112.567947749315 32.072125371371  112.567947749315 32.072125371371  C 112.567947749315 32.072125371371  116.341674887953 33.6212009202219  116.341674887953 33.6212009202219  C 116.341674887953 33.6212009202219  117.657964049435 35.9954446682522  117.657964049435 35.9954446682522  C 117.657964049435 35.9954446682522  122.887545312623 38.8264394821467  122.887545312623 38.8264394821467  C 122.887545312623 38.8264394821467  123.352761856183 41.5971086835686  123.352761856183 41.5971086835686  C 123.352761856183 41.5971086835686  122.589259411165 43.8248473727369  122.589259411165 43.8248473727369  C 122.589259411165 43.8248473727369  123.55800444893 46.0676674650232  123.55800444893 46.0676674650232  C 123.55800444893 46.0676674650232  125.763678178982 47.9312979931959  125.763678178982 47.9312979931959  C 125.763678178982 47.9312979931959  126.787154574812 50.1094835006903  126.787154574812 50.1094835006903  C 126.787154574812 50.1094835006903  127.933776526291 51.7318115789723  127.933776526291 51.7318115789723  C 127.933776526291 51.7318115789723  130.251649540378 53.0438936502522  130.251649540378 53.0438936502522  C 130.251649540378 53.0438936502522  132.380699369138 52.5742156674295  132.380699369138 52.5742156674295  C 132.380699369138 52.5742156674295  133.836553493689 56.6601818656262  133.836553493689 56.6601818656262  C 133.836553493689 56.6601818656262  134.129366259341 58.1812490944005  134.129366259341 58.1812490944005  C 134.129366259341 58.1812490944005  137.071176755378 64.8170664663908  137.071176755378 64.8170664663908  C 137.071176755378 64.8170664663908  160.13497104431 68.1005033738303  160.13497104431 68.1005033738303  C 160.13497104431 68.1005033738303  161.681131909669 66.7259412039181  161.681131909669 66.7259412039181  C 161.681131909669 66.7259412039181  165.197621665397 71.3257691549567  165.197621665397 71.3257691549567  C 165.197621665397 71.3257691549567  160.082976254147 84.1923605009069  160.082976254147 84.1923605009069  C 160.082976254147 84.1923605009069  137.065703619571 90.5631760752499  137.065703619571 90.5631760752499  C 137.065703619571 90.5631760752499  114.940552121468 92.995590949593  114.940552121468 92.995590949593  C 114.940552121468 92.995590949593  107.778953918557 95.8416671666057  107.778953918557 95.8416671666057  C 107.778953918557 95.8416671666057  102.281189000846 102.458094163159  102.281189000846 102.458094163159  C 102.281189000846 102.458094163159  98.6990216154391 103.505174436791  98.6990216154391 103.505174436791  C 98.6990216154391 103.505174436791  96.7806875152324 101.411013889526  96.7806875152324 101.411013889526  C 96.7806875152324 101.411013889526  93.8388770191954 101.725568868848  93.8388770191954 101.725568868848  C 93.8388770191954 101.725568868848  86.4227780012782 101.096458910204  86.4227780012782 101.096458910204  C 86.4227780012782 101.096458910204  85.0161820989866 100.467348951561  85.0161820989866 100.467348951561  C 85.0161820989866 100.467348951561  74.1725531258435 100.611699524264  74.1725531258435 100.611699524264  C 74.1725531258435 100.611699524264  72.0927615193429 101.180483870435  72.0927615193429 101.180483870435  C 72.0927615193429 101.180483870435  68.9402352947521 99.543074389034  68.9402352947521 99.543074389034  C 68.9402352947521 99.543074389034  66.9097019105104 102.634762028257  66.9097019105104 102.634762028257  C 66.9097019105104 102.634762028257  67.6950968987549 105.280471032414  67.6950968987549 105.280471032414  Z " fill-rule="evenodd" />
    </mask>
  </defs>
  <g transform="matrix(1 0 0 1 -2058 -1828 )">
    <path d="M 67.6950968987549 105.280471032414  C 67.6950968987549 105.280471032414  64.3263818098045 107.27767970249  64.3263818098045 107.27767970249  C 64.3263818098045 107.27767970249  63.3302710930066 104.606116864416  63.3302710930066 104.606116864416  C 63.3302710930066 104.606116864416  61.0151346468229 102.714478016167  61.0151346468229 102.714478016167  C 61.0151346468229 102.714478016167  60.4240359797123 100.206656126233  60.4240359797123 100.206656126233  C 60.4240359797123 100.206656126233  56.4614856557477 97.9487546308285  56.4614856557477 97.9487546308285  C 56.4614856557477 97.9487546308285  52.3730532082315 92.6465641917155  52.3730532082315 92.6465641917155  C 52.3730532082315 92.6465641917155  50.2084279967291 87.4693339498671  50.2084279967291 87.4693339498671  C 50.2084279967291 87.4693339498671  44.9022228322486 83.0763366701633  44.9022228322486 83.0763366701633  C 44.9022228322486 83.0763366701633  41.4787763852324 82.0249474242113  41.4787763852324 82.0249474242113  C 41.4787763852324 82.0249474242113  36.3969697888219 75.9018977582384  36.3969697888219 75.9018977582384  C 36.3969697888219 75.9018977582384  35.5103217881558 71.4119486013464  35.5103217881558 71.4119486013464  C 35.5103217881558 71.4119486013464  35.8359733686473 67.564036320056  35.8359733686473 67.564036320056  C 35.8359733686473 67.564036320056  31.4355721801562 60.3206538510195  31.4355721801562 60.3206538510195  C 31.4355721801562 60.3206538510195  27.8369853873295 57.7568153209325  27.8369853873295 57.7568153209325  C 27.8369853873295 57.7568153209325  23.6938215817475 56.3951800679784  23.6938215817475 56.3951800679784  C 23.6938215817475 56.3951800679784  21.1707059749136 51.044530494016  21.1707059749136 51.044530494016  C 21.1707059749136 51.044530494016  21.5894008641172 49.5471626129987  21.5894008641172 49.5471626129987  C 21.5894008641172 49.5471626129987  19.457614467454 46.0999847574194  19.457614467454 46.0999847574194  C 19.457614467454 46.0999847574194  17.2163653546594 44.6112348210409  17.2163653546594 44.6112348210409  C 17.2163653546594 44.6112348210409  14.2198235005562 39.6300628197285  14.2198235005562 39.6300628197285  C 14.2198235005562 39.6300628197285  9.54850208963934 34.1942942387119  9.54850208963934 34.1942942387119  C 9.54850208963934 34.1942942387119  5.63520998793414 29.5319861890409  5.63520998793414 29.5319861890409  C 5.63520998793414 29.5319861890409  1.81496119494054 29.5643034814367  1.81496119494054 29.5643034814367  C 1.81496119494054 29.5643034814367  3.00810480077514 25.8176520496538  3.00810480077514 25.8176520496538  C 3.00810480077514 25.8176520496538  3.34743922078329 23.4175544677069  3.34743922078329 23.4175544677069  C 3.34743922078329 23.4175544677069  4.29976485112809 20.670584614042  4.29976485112809 20.670584614042  C 4.29976485112809 20.670584614042  12.8378567093944 21.7650635831883  12.8378567093944 21.7650635831883  C 12.8378567093944 21.7650635831883  16.1545770081823 19.645049202007  16.1545770081823 19.645049202007  C 16.1545770081823 19.645049202007  17.9908140712904 17.1523087151912  17.9908140712904 17.1523087151912  C 17.9908140712904 17.1523087151912  23.8443328164289 16.1935623741081  23.8443328164289 16.1935623741081  C 23.8443328164289 16.1935623741081  25.108627187749 13.8645628354324  25.108627187749 13.8645628354324  C 25.108627187749 13.8645628354324  27.6454256340991 12.6817499337365  27.6454256340991 12.6817499337365  C 27.6454256340991 12.6817499337365  19.996718344402 5.66674299763247  19.996718344402 5.66674299763247  C 19.996718344402 5.66674299763247  35.3652836892812 2.12045877870524  35.3652836892812 2.12045877870524  C 35.3652836892812 2.12045877870524  36.8266109496385 1.04967915731584  36.8266109496385 1.04967915731584  C 36.8266109496385 1.04967915731584  46.0680007590503 2.9714808118014  46.0680007590503 2.9714808118014  C 46.0680007590503 2.9714808118014  57.5013814589978 7.90956308991895  57.5013814589978 7.90956308991895  C 57.5013814589978 7.90956308991895  79.1366873024123 21.8943327527726  79.1366873024123 21.8943327527726  C 79.1366873024123 21.8943327527726  95.3905110203611 22.4437267235057  95.3905110203611 22.4437267235057  C 95.3905110203611 22.4437267235057  102.22645764278 23.1073084607047  102.22645764278 23.1073084607047  C 102.22645764278 23.1073084607047  104.136582039277 26.3735094788661  104.136582039277 26.3735094788661  C 104.136582039277 26.3735094788661  109.563196191502 26.1968416137679  109.563196191502 26.1968416137679  C 109.563196191502 26.1968416137679  112.567947749315 32.072125371371  112.567947749315 32.072125371371  C 112.567947749315 32.072125371371  116.341674887953 33.6212009202219  116.341674887953 33.6212009202219  C 116.341674887953 33.6212009202219  117.657964049435 35.9954446682522  117.657964049435 35.9954446682522  C 117.657964049435 35.9954446682522  122.887545312623 38.8264394821467  122.887545312623 38.8264394821467  C 122.887545312623 38.8264394821467  123.352761856183 41.5971086835686  123.352761856183 41.5971086835686  C 123.352761856183 41.5971086835686  122.589259411165 43.8248473727369  122.589259411165 43.8248473727369  C 122.589259411165 43.8248473727369  123.55800444893 46.0676674650232  123.55800444893 46.0676674650232  C 123.55800444893 46.0676674650232  125.763678178982 47.9312979931959  125.763678178982 47.9312979931959  C 125.763678178982 47.9312979931959  126.787154574812 50.1094835006903  126.787154574812 50.1094835006903  C 126.787154574812 50.1094835006903  127.933776526291 51.7318115789723  127.933776526291 51.7318115789723  C 127.933776526291 51.7318115789723  130.251649540378 53.0438936502522  130.251649540378 53.0438936502522  C 130.251649540378 53.0438936502522  132.380699369138 52.5742156674295  132.380699369138 52.5742156674295  C 132.380699369138 52.5742156674295  133.836553493689 56.6601818656262  133.836553493689 56.6601818656262  C 133.836553493689 56.6601818656262  134.129366259341 58.1812490944005  134.129366259341 58.1812490944005  C 134.129366259341 58.1812490944005  137.071176755378 64.8170664663908  137.071176755378 64.8170664663908  C 137.071176755378 64.8170664663908  160.13497104431 68.1005033738303  160.13497104431 68.1005033738303  C 160.13497104431 68.1005033738303  161.681131909669 66.7259412039181  161.681131909669 66.7259412039181  C 161.681131909669 66.7259412039181  165.197621665397 71.3257691549567  165.197621665397 71.3257691549567  C 165.197621665397 71.3257691549567  160.082976254147 84.1923605009069  160.082976254147 84.1923605009069  C 160.082976254147 84.1923605009069  137.065703619571 90.5631760752499  137.065703619571 90.5631760752499  C 137.065703619571 90.5631760752499  114.940552121468 92.995590949593  114.940552121468 92.995590949593  C 114.940552121468 92.995590949593  107.778953918557 95.8416671666057  107.778953918557 95.8416671666057  C 107.778953918557 95.8416671666057  102.281189000846 102.458094163159  102.281189000846 102.458094163159  C 102.281189000846 102.458094163159  98.6990216154391 103.505174436791  98.6990216154391 103.505174436791  C 98.6990216154391 103.505174436791  96.7806875152324 101.411013889526  96.7806875152324 101.411013889526  C 96.7806875152324 101.411013889526  93.8388770191954 101.725568868848  93.8388770191954 101.725568868848  C 93.8388770191954 101.725568868848  86.4227780012782 101.096458910204  86.4227780012782 101.096458910204  C 86.4227780012782 101.096458910204  85.0161820989866 100.467348951561  85.0161820989866 100.467348951561  C 85.0161820989866 100.467348951561  74.1725531258435 100.611699524264  74.1725531258435 100.611699524264  C 74.1725531258435 100.611699524264  72.0927615193429 101.180483870435  72.0927615193429 101.180483870435  C 72.0927615193429 101.180483870435  68.9402352947521 99.543074389034  68.9402352947521 99.543074389034  C 68.9402352947521 99.543074389034  66.9097019105104 102.634762028257  66.9097019105104 102.634762028257  C 66.9097019105104 102.634762028257  67.6950968987549 105.280471032414  67.6950968987549 105.280471032414  Z " fill-rule="nonzero" fill="#f2f2f2" stroke="none" transform="matrix(1 0 0 1 2058 1828 )" />
    <path d="M 67.6950968987549 105.280471032414  C 67.6950968987549 105.280471032414  64.3263818098045 107.27767970249  64.3263818098045 107.27767970249  C 64.3263818098045 107.27767970249  63.3302710930066 104.606116864416  63.3302710930066 104.606116864416  C 63.3302710930066 104.606116864416  61.0151346468229 102.714478016167  61.0151346468229 102.714478016167  C 61.0151346468229 102.714478016167  60.4240359797123 100.206656126233  60.4240359797123 100.206656126233  C 60.4240359797123 100.206656126233  56.4614856557477 97.9487546308285  56.4614856557477 97.9487546308285  C 56.4614856557477 97.9487546308285  52.3730532082315 92.6465641917155  52.3730532082315 92.6465641917155  C 52.3730532082315 92.6465641917155  50.2084279967291 87.4693339498671  50.2084279967291 87.4693339498671  C 50.2084279967291 87.4693339498671  44.9022228322486 83.0763366701633  44.9022228322486 83.0763366701633  C 44.9022228322486 83.0763366701633  41.4787763852324 82.0249474242113  41.4787763852324 82.0249474242113  C 41.4787763852324 82.0249474242113  36.3969697888219 75.9018977582384  36.3969697888219 75.9018977582384  C 36.3969697888219 75.9018977582384  35.5103217881558 71.4119486013464  35.5103217881558 71.4119486013464  C 35.5103217881558 71.4119486013464  35.8359733686473 67.564036320056  35.8359733686473 67.564036320056  C 35.8359733686473 67.564036320056  31.4355721801562 60.3206538510195  31.4355721801562 60.3206538510195  C 31.4355721801562 60.3206538510195  27.8369853873295 57.7568153209325  27.8369853873295 57.7568153209325  C 27.8369853873295 57.7568153209325  23.6938215817475 56.3951800679784  23.6938215817475 56.3951800679784  C 23.6938215817475 56.3951800679784  21.1707059749136 51.044530494016  21.1707059749136 51.044530494016  C 21.1707059749136 51.044530494016  21.5894008641172 49.5471626129987  21.5894008641172 49.5471626129987  C 21.5894008641172 49.5471626129987  19.457614467454 46.0999847574194  19.457614467454 46.0999847574194  C 19.457614467454 46.0999847574194  17.2163653546594 44.6112348210409  17.2163653546594 44.6112348210409  C 17.2163653546594 44.6112348210409  14.2198235005562 39.6300628197285  14.2198235005562 39.6300628197285  C 14.2198235005562 39.6300628197285  9.54850208963934 34.1942942387119  9.54850208963934 34.1942942387119  C 9.54850208963934 34.1942942387119  5.63520998793414 29.5319861890409  5.63520998793414 29.5319861890409  C 5.63520998793414 29.5319861890409  1.81496119494054 29.5643034814367  1.81496119494054 29.5643034814367  C 1.81496119494054 29.5643034814367  3.00810480077514 25.8176520496538  3.00810480077514 25.8176520496538  C 3.00810480077514 25.8176520496538  3.34743922078329 23.4175544677069  3.34743922078329 23.4175544677069  C 3.34743922078329 23.4175544677069  4.29976485112809 20.670584614042  4.29976485112809 20.670584614042  C 4.29976485112809 20.670584614042  12.8378567093944 21.7650635831883  12.8378567093944 21.7650635831883  C 12.8378567093944 21.7650635831883  16.1545770081823 19.645049202007  16.1545770081823 19.645049202007  C 16.1545770081823 19.645049202007  17.9908140712904 17.1523087151912  17.9908140712904 17.1523087151912  C 17.9908140712904 17.1523087151912  23.8443328164289 16.1935623741081  23.8443328164289 16.1935623741081  C 23.8443328164289 16.1935623741081  25.108627187749 13.8645628354324  25.108627187749 13.8645628354324  C 25.108627187749 13.8645628354324  27.6454256340991 12.6817499337365  27.6454256340991 12.6817499337365  C 27.6454256340991 12.6817499337365  19.996718344402 5.66674299763247  19.996718344402 5.66674299763247  C 19.996718344402 5.66674299763247  35.3652836892812 2.12045877870524  35.3652836892812 2.12045877870524  C 35.3652836892812 2.12045877870524  36.8266109496385 1.04967915731584  36.8266109496385 1.04967915731584  C 36.8266109496385 1.04967915731584  46.0680007590503 2.9714808118014  46.0680007590503 2.9714808118014  C 46.0680007590503 2.9714808118014  57.5013814589978 7.90956308991895  57.5013814589978 7.90956308991895  C 57.5013814589978 7.90956308991895  79.1366873024123 21.8943327527726  79.1366873024123 21.8943327527726  C 79.1366873024123 21.8943327527726  95.3905110203611 22.4437267235057  95.3905110203611 22.4437267235057  C 95.3905110203611 22.4437267235057  102.22645764278 23.1073084607047  102.22645764278 23.1073084607047  C 102.22645764278 23.1073084607047  104.136582039277 26.3735094788661  104.136582039277 26.3735094788661  C 104.136582039277 26.3735094788661  109.563196191502 26.1968416137679  109.563196191502 26.1968416137679  C 109.563196191502 26.1968416137679  112.567947749315 32.072125371371  112.567947749315 32.072125371371  C 112.567947749315 32.072125371371  116.341674887953 33.6212009202219  116.341674887953 33.6212009202219  C 116.341674887953 33.6212009202219  117.657964049435 35.9954446682522  117.657964049435 35.9954446682522  C 117.657964049435 35.9954446682522  122.887545312623 38.8264394821467  122.887545312623 38.8264394821467  C 122.887545312623 38.8264394821467  123.352761856183 41.5971086835686  123.352761856183 41.5971086835686  C 123.352761856183 41.5971086835686  122.589259411165 43.8248473727369  122.589259411165 43.8248473727369  C 122.589259411165 43.8248473727369  123.55800444893 46.0676674650232  123.55800444893 46.0676674650232  C 123.55800444893 46.0676674650232  125.763678178982 47.9312979931959  125.763678178982 47.9312979931959  C 125.763678178982 47.9312979931959  126.787154574812 50.1094835006903  126.787154574812 50.1094835006903  C 126.787154574812 50.1094835006903  127.933776526291 51.7318115789723  127.933776526291 51.7318115789723  C 127.933776526291 51.7318115789723  130.251649540378 53.0438936502522  130.251649540378 53.0438936502522  C 130.251649540378 53.0438936502522  132.380699369138 52.5742156674295  132.380699369138 52.5742156674295  C 132.380699369138 52.5742156674295  133.836553493689 56.6601818656262  133.836553493689 56.6601818656262  C 133.836553493689 56.6601818656262  134.129366259341 58.1812490944005  134.129366259341 58.1812490944005  C 134.129366259341 58.1812490944005  137.071176755378 64.8170664663908  137.071176755378 64.8170664663908  C 137.071176755378 64.8170664663908  160.13497104431 68.1005033738303  160.13497104431 68.1005033738303  C 160.13497104431 68.1005033738303  161.681131909669 66.7259412039181  161.681131909669 66.7259412039181  C 161.681131909669 66.7259412039181  165.197621665397 71.3257691549567  165.197621665397 71.3257691549567  C 165.197621665397 71.3257691549567  160.082976254147 84.1923605009069  160.082976254147 84.1923605009069  C 160.082976254147 84.1923605009069  137.065703619571 90.5631760752499  137.065703619571 90.5631760752499  C 137.065703619571 90.5631760752499  114.940552121468 92.995590949593  114.940552121468 92.995590949593  C 114.940552121468 92.995590949593  107.778953918557 95.8416671666057  107.778953918557 95.8416671666057  C 107.778953918557 95.8416671666057  102.281189000846 102.458094163159  102.281189000846 102.458094163159  C 102.281189000846 102.458094163159  98.6990216154391 103.505174436791  98.6990216154391 103.505174436791  C 98.6990216154391 103.505174436791  96.7806875152324 101.411013889526  96.7806875152324 101.411013889526  C 96.7806875152324 101.411013889526  93.8388770191954 101.725568868848  93.8388770191954 101.725568868848  C 93.8388770191954 101.725568868848  86.4227780012782 101.096458910204  86.4227780012782 101.096458910204  C 86.4227780012782 101.096458910204  85.0161820989866 100.467348951561  85.0161820989866 100.467348951561  C 85.0161820989866 100.467348951561  74.1725531258435 100.611699524264  74.1725531258435 100.611699524264  C 74.1725531258435 100.611699524264  72.0927615193429 101.180483870435  72.0927615193429 101.180483870435  C 72.0927615193429 101.180483870435  68.9402352947521 99.543074389034  68.9402352947521 99.543074389034  C 68.9402352947521 99.543074389034  66.9097019105104 102.634762028257  66.9097019105104 102.634762028257  C 66.9097019105104 102.634762028257  67.6950968987549 105.280471032414  67.6950968987549 105.280471032414  Z " stroke-width="2" stroke="#505050" fill="none" stroke-opacity="0.211764705882353" transform="matrix(1 0 0 1 2058 1828 )" mask="url(#clip733)" />
  </g>
</svg>