<?xml version="1.0" encoding="utf-8"?>
<svg version="1.1" xmlns:xlink="http://www.w3.org/1999/xlink" width="49px" height="28px" xmlns="http://www.w3.org/2000/svg">
  <defs>
    <mask fill="white" id="clip734">
      <path d="M 43.4385207163653 23.9008334289737  C 43.4385207163653 23.9008334289737  44.9628316437471 24.1192344889441  44.9628316437471 24.1192344889441  C 44.9628316437471 24.1192344889441  47.0779816739546 27.7603060485307  47.0779816739546 27.7603060485307  C 47.0779816739546 27.7603060485307  39.8328044938827 27.7217646850063  39.8328044938827 27.7217646850063  C 39.8328044938827 27.7217646850063  36.9595458431543 22.4341204281924  36.9595458431543 22.4341204281924  C 36.9595458431543 22.4341204281924  43.4385207163653 23.9008334289737  43.4385207163653 23.9008334289737  Z M 34.1415730070613 20.388199681099  C 34.1415730070613 20.388199681099  35.3799070170933 21.9791015199026  35.3799070170933 21.9791015199026  C 35.3799070170933 21.9791015199026  32.4311072938578 22.1139962922374  32.4311072938578 22.1139962922374  C 32.4311072938578 22.1139962922374  25.8334250209923 21.5016168495754  25.8334250209923 21.5016168495754  C 25.8334250209923 21.5016168495754  24.2497603937835 20.5680593775451  24.2497603937835 20.5680593775451  C 24.2497603937835 20.5680593775451  24.7245899924015 16.6122333491777  24.7245899924015 16.6122333491777  C 24.7245899924015 16.6122333491777  31.6783944642305 17.5629203161078  31.6783944642305 17.5629203161078  C 31.6783944642305 17.5629203161078  34.1415730070613 20.388199681099  34.1415730070613 20.388199681099  Z M 38.6146836576786 17.4269382503239  C 38.6146836576786 17.4269382503239  41.6417223488681 20.3282464489502  41.6417223488681 20.3282464489502  C 41.6417223488681 20.3282464489502  40.5005125749169 21.4438048042889  40.5005125749169 21.4438048042889  C 40.5005125749169 21.4438048042889  32.9342858366886 14.6487649963067  32.9342858366886 14.6487649963067  C 32.9342858366886 14.6487649963067  31.3614127912665 11.045147506795  31.3614127912665 11.045147506795  C 31.3614127912665 11.045147506795  33.9325071519648 11.045147506795  33.9325071519648 11.045147506795  C 33.9325071519648 11.045147506795  38.6146836576786 17.4269382503239  38.6146836576786 17.4269382503239  Z M 26.2124582892301 10.7914001635762  C 26.2124582892301 10.7914001635762  27.9876734931544 12.7034800317484  27.9876734931544 12.7034800317484  C 27.9876734931544 12.7034800317484  28.3087230513108 13.915391795898  28.3087230513108 13.915391795898  C 28.3087230513108 13.915391795898  22.381446754926 11.3588146821268  22.381446754926 11.3588146821268  C 22.381446754926 11.3588146821268  16.2801772442522 7.64066039549198  16.2801772442522 7.64066039549198  C 16.2801772442522 7.64066039549198  13.4419912343309 5.63650949223433  13.4419912343309 5.63650949223433  C 13.4419912343309 5.63650949223433  14.5697115310488 5.024130049572  14.5697115310488 5.024130049572  C 14.5697115310488 5.024130049572  18.047298761836 6.46728999486676  18.047298761836 6.46728999486676  C 18.047298761836 6.46728999486676  26.2124582892301 10.7914001635762  26.2124582892301 10.7914001635762  Z M 7.30021120791175 4.78751220125297  C 7.30021120791175 4.78751220125297  10.3137604218681 6.74669818039926  10.3137604218681 6.74669818039926  C 10.3137604218681 6.74669818039926  8.80563686716685 7.08928807839205  8.80563686716685 7.08928807839205  C 8.80563686716685 7.08928807839205  3.53801704952057 5.71892848642089  3.53801704952057 5.71892848642089  C 3.53801704952057 5.71892848642089  0.430041494929974 1.6945844784549  0.430041494929974 1.6945844784549  C 0.430041494929974 1.6945844784549  0.821236334700798 0.694650213688419  0.821236334700798 0.694650213688419  C 0.821236334700798 0.694650213688419  7.30021120791175 4.78751220125297  7.30021120791175 4.78751220125297  Z " fill-rule="evenodd" />
    </mask>
  </defs>
  <g transform="matrix(1 0 0 1 -2996 -2073 )">
    <path d="M 43.4385207163653 23.9008334289737  C 43.4385207163653 23.9008334289737  44.9628316437471 24.1192344889441  44.9628316437471 24.1192344889441  C 44.9628316437471 24.1192344889441  47.0779816739546 27.7603060485307  47.0779816739546 27.7603060485307  C 47.0779816739546 27.7603060485307  39.8328044938827 27.7217646850063  39.8328044938827 27.7217646850063  C 39.8328044938827 27.7217646850063  36.9595458431543 22.4341204281924  36.9595458431543 22.4341204281924  C 36.9595458431543 22.4341204281924  43.4385207163653 23.9008334289737  43.4385207163653 23.9008334289737  Z M 34.1415730070613 20.388199681099  C 34.1415730070613 20.388199681099  35.3799070170933 21.9791015199026  35.3799070170933 21.9791015199026  C 35.3799070170933 21.9791015199026  32.4311072938578 22.1139962922374  32.4311072938578 22.1139962922374  C 32.4311072938578 22.1139962922374  25.8334250209923 21.5016168495754  25.8334250209923 21.5016168495754  C 25.8334250209923 21.5016168495754  24.2497603937835 20.5680593775451  24.2497603937835 20.5680593775451  C 24.2497603937835 20.5680593775451  24.7245899924015 16.6122333491777  24.7245899924015 16.6122333491777  C 24.7245899924015 16.6122333491777  31.6783944642305 17.5629203161078  31.6783944642305 17.5629203161078  C 31.6783944642305 17.5629203161078  34.1415730070613 20.388199681099  34.1415730070613 20.388199681099  Z M 38.6146836576786 17.4269382503239  C 38.6146836576786 17.4269382503239  41.6417223488681 20.3282464489502  41.6417223488681 20.3282464489502  C 41.6417223488681 20.3282464489502  40.5005125749169 21.4438048042889  40.5005125749169 21.4438048042889  C 40.5005125749169 21.4438048042889  32.9342858366886 14.6487649963067  32.9342858366886 14.6487649963067  C 32.9342858366886 14.6487649963067  31.3614127912665 11.045147506795  31.3614127912665 11.045147506795  C 31.3614127912665 11.045147506795  33.9325071519648 11.045147506795  33.9325071519648 11.045147506795  C 33.9325071519648 11.045147506795  38.6146836576786 17.4269382503239  38.6146836576786 17.4269382503239  Z M 26.2124582892301 10.7914001635762  C 26.2124582892301 10.7914001635762  27.9876734931544 12.7034800317484  27.9876734931544 12.7034800317484  C 27.9876734931544 12.7034800317484  28.3087230513108 13.915391795898  28.3087230513108 13.915391795898  C 28.3087230513108 13.915391795898  22.381446754926 11.3588146821268  22.381446754926 11.3588146821268  C 22.381446754926 11.3588146821268  16.2801772442522 7.64066039549198  16.2801772442522 7.64066039549198  C 16.2801772442522 7.64066039549198  13.4419912343309 5.63650949223433  13.4419912343309 5.63650949223433  C 13.4419912343309 5.63650949223433  14.5697115310488 5.024130049572  14.5697115310488 5.024130049572  C 14.5697115310488 5.024130049572  18.047298761836 6.46728999486676  18.047298761836 6.46728999486676  C 18.047298761836 6.46728999486676  26.2124582892301 10.7914001635762  26.2124582892301 10.7914001635762  Z M 7.30021120791175 4.78751220125297  C 7.30021120791175 4.78751220125297  10.3137604218681 6.74669818039926  10.3137604218681 6.74669818039926  C 10.3137604218681 6.74669818039926  8.80563686716685 7.08928807839205  8.80563686716685 7.08928807839205  C 8.80563686716685 7.08928807839205  3.53801704952057 5.71892848642089  3.53801704952057 5.71892848642089  C 3.53801704952057 5.71892848642089  0.430041494929974 1.6945844784549  0.430041494929974 1.6945844784549  C 0.430041494929974 1.6945844784549  0.821236334700798 0.694650213688419  0.821236334700798 0.694650213688419  C 0.821236334700798 0.694650213688419  7.30021120791175 4.78751220125297  7.30021120791175 4.78751220125297  Z " fill-rule="nonzero" fill="#f2f2f2" stroke="none" transform="matrix(1 0 0 1 2996 2073 )" />
    <path d="M 43.4385207163653 23.9008334289737  C 43.4385207163653 23.9008334289737  44.9628316437471 24.1192344889441  44.9628316437471 24.1192344889441  C 44.9628316437471 24.1192344889441  47.0779816739546 27.7603060485307  47.0779816739546 27.7603060485307  C 47.0779816739546 27.7603060485307  39.8328044938827 27.7217646850063  39.8328044938827 27.7217646850063  C 39.8328044938827 27.7217646850063  36.9595458431543 22.4341204281924  36.9595458431543 22.4341204281924  C 36.9595458431543 22.4341204281924  43.4385207163653 23.9008334289737  43.4385207163653 23.9008334289737  Z " stroke-width="2" stroke="#505050" fill="none" stroke-opacity="0.211764705882353" transform="matrix(1 0 0 1 2996 2073 )" mask="url(#clip734)" />
    <path d="M 34.1415730070613 20.388199681099  C 34.1415730070613 20.388199681099  35.3799070170933 21.9791015199026  35.3799070170933 21.9791015199026  C 35.3799070170933 21.9791015199026  32.4311072938578 22.1139962922374  32.4311072938578 22.1139962922374  C 32.4311072938578 22.1139962922374  25.8334250209923 21.5016168495754  25.8334250209923 21.5016168495754  C 25.8334250209923 21.5016168495754  24.2497603937835 20.5680593775451  24.2497603937835 20.5680593775451  C 24.2497603937835 20.5680593775451  24.7245899924015 16.6122333491777  24.7245899924015 16.6122333491777  C 24.7245899924015 16.6122333491777  31.6783944642305 17.5629203161078  31.6783944642305 17.5629203161078  C 31.6783944642305 17.5629203161078  34.1415730070613 20.388199681099  34.1415730070613 20.388199681099  Z " stroke-width="2" stroke="#505050" fill="none" stroke-opacity="0.211764705882353" transform="matrix(1 0 0 1 2996 2073 )" mask="url(#clip734)" />
    <path d="M 38.6146836576786 17.4269382503239  C 38.6146836576786 17.4269382503239  41.6417223488681 20.3282464489502  41.6417223488681 20.3282464489502  C 41.6417223488681 20.3282464489502  40.5005125749169 21.4438048042889  40.5005125749169 21.4438048042889  C 40.5005125749169 21.4438048042889  32.9342858366886 14.6487649963067  32.9342858366886 14.6487649963067  C 32.9342858366886 14.6487649963067  31.3614127912665 11.045147506795  31.3614127912665 11.045147506795  C 31.3614127912665 11.045147506795  33.9325071519648 11.045147506795  33.9325071519648 11.045147506795  C 33.9325071519648 11.045147506795  38.6146836576786 17.4269382503239  38.6146836576786 17.4269382503239  Z " stroke-width="2" stroke="#505050" fill="none" stroke-opacity="0.211764705882353" transform="matrix(1 0 0 1 2996 2073 )" mask="url(#clip734)" />
    <path d="M 26.2124582892301 10.7914001635762  C 26.2124582892301 10.7914001635762  27.9876734931544 12.7034800317484  27.9876734931544 12.7034800317484  C 27.9876734931544 12.7034800317484  28.3087230513108 13.915391795898  28.3087230513108 13.915391795898  C 28.3087230513108 13.915391795898  22.381446754926 11.3588146821268  22.381446754926 11.3588146821268  C 22.381446754926 11.3588146821268  16.2801772442522 7.64066039549198  16.2801772442522 7.64066039549198  C 16.2801772442522 7.64066039549198  13.4419912343309 5.63650949223433  13.4419912343309 5.63650949223433  C 13.4419912343309 5.63650949223433  14.5697115310488 5.024130049572  14.5697115310488 5.024130049572  C 14.5697115310488 5.024130049572  18.047298761836 6.46728999486676  18.047298761836 6.46728999486676  C 18.047298761836 6.46728999486676  26.2124582892301 10.7914001635762  26.2124582892301 10.7914001635762  Z " stroke-width="2" stroke="#505050" fill="none" stroke-opacity="0.211764705882353" transform="matrix(1 0 0 1 2996 2073 )" mask="url(#clip734)" />
    <path d="M 7.30021120791175 4.78751220125297  C 7.30021120791175 4.78751220125297  10.3137604218681 6.74669818039926  10.3137604218681 6.74669818039926  C 10.3137604218681 6.74669818039926  8.80563686716685 7.08928807839205  8.80563686716685 7.08928807839205  C 8.80563686716685 7.08928807839205  3.53801704952057 5.71892848642089  3.53801704952057 5.71892848642089  C 3.53801704952057 5.71892848642089  0.430041494929974 1.6945844784549  0.430041494929974 1.6945844784549  C 0.430041494929974 1.6945844784549  0.821236334700798 0.694650213688419  0.821236334700798 0.694650213688419  C 0.821236334700798 0.694650213688419  7.30021120791175 4.78751220125297  7.30021120791175 4.78751220125297  Z " stroke-width="2" stroke="#505050" fill="none" stroke-opacity="0.211764705882353" transform="matrix(1 0 0 1 2996 2073 )" mask="url(#clip734)" />
  </g>
</svg>