<?xml version="1.0" encoding="utf-8"?>
<svg version="1.1" xmlns:xlink="http://www.w3.org/1999/xlink" width="130px" height="86px" xmlns="http://www.w3.org/2000/svg">
  <defs>
    <mask fill="white" id="clip735">
      <path d="M 95.1858765942078 80.0186674993824  C 95.1858765942078 80.0186674993824  95.1967215666283 80.74399593942  95.1967215666283 80.74399593942  C 95.1967215666283 80.74399593942  94.1447592418665 80.6234665843991  94.1447592418665 80.6234665843991  C 94.1447592418665 80.6234665843991  94.2748989109092 77.5951665394938  94.2748989109092 77.5951665394938  C 94.2748989109092 77.5951665394938  93.3612099845048 75.5031213059136  93.3612099845048 75.5031213059136  C 93.3612099845048 75.5031213059136  89.4461749408037 73.0968388253139  89.4461749408037 73.0968388253139  C 89.4461749408037 73.0968388253139  88.5324860143998 68.6910604373107  88.5324860143998 68.6910604373107  C 88.5324860143998 68.6910604373107  89.4461749408037 64.1690573141086  89.4461749408037 64.1690573141086  C 89.4461749408037 64.1690573141086  85.9242701473356 63.7472045715348  85.9242701473356 63.7472045715348  C 85.9242701473356 63.7472045715348  85.4010002280594 65.1160736749885  85.4010002280594 65.1160736749885  C 85.4010002280594 65.1160736749885  80.8352668391442 65.4324632319192  80.8352668391442 65.4324632319192  C 80.8352668391442 65.4324632319192  82.6599334488472 67.2210327680357  82.6599334488472 67.2210327680357  C 82.6599334488472 67.2210327680357  83.3133430371661 70.895025786268  83.3133430371661 70.895025786268  C 83.3133430371661 70.895025786268  79.1380286553791 74.2483246277476  79.1380286553791 74.2483246277476  C 79.1380286553791 74.2483246277476  75.3531332807204 78.6411891562841  75.3531332807204 78.6411891562841  C 75.3531332807204 78.6411891562841  71.4380982370186 79.2675113404116  71.4380982370186 79.2675113404116  C 71.4380982370186 79.2675113404116  63.0725787824937 75.7118953672893  63.0725787824937 75.7118953672893  C 63.0725787824937 75.7118953672893  60.2013723342388 76.9688443553663  60.2013723342388 76.9688443553663  C 60.2013723342388 76.9688443553663  59.4178230768773 78.7445000320165  59.4178230768773 78.7445000320165  C 59.4178230768773 78.7445000320165  55.502788033176 79.8938335245392  55.502788033176 79.8938335245392  C 55.502788033176 79.8938335245392  55.2425086950905 81.1464778927939  55.2425086950905 81.1464778927939  C 55.2425086950905 81.1464778927939  47.672717945773 81.1464778927939  47.672717945773 81.1464778927939  C 47.672717945773 81.1464778927939  46.6288893503264 79.8938335245392  46.6288893503264 79.8938335245392  C 46.6288893503264 79.8938335245392  41.1467557919024 79.6850594631631  41.1467557919024 79.6850594631631  C 41.1467557919024 79.6850594631631  38.4084002557953 80.7267774601314  38.4084002557953 80.7267774601314  C 38.4084002557953 80.7267774601314  36.3180318217968 80.2059184616473  36.3180318217968 80.2059184616473  C 36.3180318217968 80.2059184616473  32.4029967780955 76.6546071083472  32.4029967780955 76.6546071083472  C 32.4029967780955 76.6546071083472  31.0988888445634 74.9822623074294  31.0988888445634 74.9822623074294  C 31.0988888445634 74.9822623074294  25.6167552861392 75.817358552933  25.6167552861392 75.817358552933  C 25.6167552861392 75.817358552933  23.5290980952459 78.6411891562841  23.5290980952459 78.6411891562841  C 23.5290980952459 78.6411891562841  21.5715805733951 84.0650101322334  21.5715805733951 84.0650101322334  C 21.5715805733951 84.0650101322334  18.9606534632258 85.2100390049338  18.9606534632258 85.2100390049338  C 18.9606534632258 85.2100390049338  16.6289843928773 85.8707981476384  16.6289843928773 85.8707981476384  C 16.6289843928773 85.8707981476384  16.0108209649242 85.5888455492855  16.0108209649242 85.5888455492855  C 16.0108209649242 85.5888455492855  13.3727814237044 83.8411699014798  13.3727814237044 83.8411699014798  C 13.3727814237044 83.8411699014798  12.8874689078995 81.953594109453  12.8874689078995 81.953594109453  C 12.8874689078995 81.953594109453  14.1210845206999 79.4246299639214  14.1210845206999 79.4246299639214  C 14.1210845206999 79.4246299639214  14.0993945758597 76.9430166364335  14.0993945758597 76.9430166364335  C 14.0993945758597 76.9430166364335  9.71531447498337 73.1312757838914  9.71531447498337 73.1312757838914  C 9.71531447498337 73.1312757838914  8.85313916757532 70.5162192419159  8.85313916757532 70.5162192419159  C 8.85313916757532 70.5162192419159  8.94532143314719 69.0354300230853  8.94532143314719 69.0354300230853  C 8.94532143314719 69.0354300230853  6.15002979183416 67.2317943175909  6.15002979183416 67.2317943175909  C 6.15002979183416 67.2317943175909  6.06598125557727 63.6718737246466  6.06598125557727 63.6718737246466  C 6.06598125557727 63.6718737246466  4.47177030980433 61.3043328224467  4.47177030980433 61.3043328224467  C 4.47177030980433 61.3043328224467  1.80390709442866 61.6594639577765  1.80390709442866 61.6594639577765  C 1.80390709442866 61.6594639577765  2.56847765005478 59.3995385511313  2.56847765005478 59.3995385511313  C 2.56847765005478 59.3995385511313  4.53955138743061 56.8339851371109  4.53955138743061 56.8339851371109  C 4.53955138743061 56.8339851371109  3.67737608002279 54.2791932726458  3.67737608002279 54.2791932726458  C 3.67737608002279 54.2791932726458  6.1771422228849 52.3851605508857  6.1771422228849 52.3851605508857  C 6.1771422228849 52.3851605508857  4.59106500642671 50.9388082906328  4.59106500642671 50.9388082906328  C 4.59106500642671 50.9388082906328  6.60009614727339 47.1098489588018  6.60009614727339 47.1098489588018  C 6.60009614727339 47.1098489588018  10.0731985648509 40.968249414275  10.0731985648509 40.968249414275  C 10.0731985648509 40.968249414275  16.6289843928773 41.4051683262267  16.6289843928773 41.4051683262267  C 16.6289843928773 41.4051683262267  16.2521216012744 16.4190025683721  16.2521216012744 16.4190025683721  C 16.2521216012744 16.4190025683721  16.3470151099514 13.7436813488857  16.3470151099514 13.7436813488857  C 16.3470151099514 13.7436813488857  25.0880628806533 13.7243105596862  25.0880628806533 13.7243105596862  C 25.0880628806533 13.7243105596862  25.0880628806533 0.890086559850682  25.0880628806533 0.890086559850682  C 25.0880628806533 0.890086559850682  55.6491951608491 0.890086559850682  55.6491951608491 0.890086559850682  C 55.6491951608491 0.890086559850682  87.1145058704549 0.890086559850682  87.1145058704549 0.890086559850682  C 87.1145058704549 0.890086559850682  117.266240441787 0.890086559850682  117.266240441787 0.890086559850682  C 117.266240441787 0.890086559850682  119.714492965653 7.21787769845816  119.714492965653 7.21787769845816  C 119.714492965653 7.21787769845816  118.049789699149 8.38442967026938  118.049789699149 8.38442967026938  C 118.049789699149 8.38442967026938  119.153265642907 14.9683456882966  119.153265642907 14.9683456882966  C 119.153265642907 14.9683456882966  121.94313479801 22.5530858149811  121.94313479801 22.5530858149811  C 121.94313479801 22.5530858149811  124.841453677315 24.111358190611  124.841453677315 24.111358190611  C 124.841453677315 24.111358190611  129.000500600471 26.4444621342334  129.000500600471 26.4444621342334  C 129.000500600471 26.4444621342334  125.153246634396 30.0388196857555  125.153246634396 30.0388196857555  C 125.153246634396 30.0388196857555  119.554529622455 31.0719284430793  119.554529622455 31.0719284430793  C 119.554529622455 31.0719284430793  117.16050196069 32.9960935035945  117.16050196069 32.9960935035945  C 117.16050196069 32.9960935035945  116.412198863695 37.1565085617332  116.412198863695 37.1565085617332  C 116.412198863695 37.1565085617332  113.137017192786 47.8674620475058  113.137017192786 47.8674620475058  C 113.137017192786 47.8674620475058  113.944967638093 50.3490753749937  113.944967638093 50.3490753749937  C 113.944967638093 50.3490753749937  112.733041970133 55.6566716157441  112.733041970133 55.6566716157441  C 112.733041970133 55.6566716157441  109.642224830369 61.7197286352872  109.642224830369 61.7197286352872  C 109.642224830369 61.7197286352872  105.057512739718 64.7609425396586  105.057512739718 64.7609425396586  C 105.057512739718 64.7609425396586  101.798598527441 69.4379119764592  101.798598527441 69.4379119764592  C 101.798598527441 69.4379119764592  101.034027971815 71.936743783236  101.034027971815 71.936743783236  C 101.034027971815 71.936743783236  97.4334971283001 73.6456778526422  97.4334971283001 73.6456778526422  C 97.4334971283001 73.6456778526422  95.1858765942078 80.0186674993824  95.1858765942078 80.0186674993824  Z " fill-rule="evenodd" />
    </mask>
  </defs>
  <g transform="matrix(1 0 0 1 -1960 -1896 )">
    <path d="M 95.1858765942078 80.0186674993824  C 95.1858765942078 80.0186674993824  95.1967215666283 80.74399593942  95.1967215666283 80.74399593942  C 95.1967215666283 80.74399593942  94.1447592418665 80.6234665843991  94.1447592418665 80.6234665843991  C 94.1447592418665 80.6234665843991  94.2748989109092 77.5951665394938  94.2748989109092 77.5951665394938  C 94.2748989109092 77.5951665394938  93.3612099845048 75.5031213059136  93.3612099845048 75.5031213059136  C 93.3612099845048 75.5031213059136  89.4461749408037 73.0968388253139  89.4461749408037 73.0968388253139  C 89.4461749408037 73.0968388253139  88.5324860143998 68.6910604373107  88.5324860143998 68.6910604373107  C 88.5324860143998 68.6910604373107  89.4461749408037 64.1690573141086  89.4461749408037 64.1690573141086  C 89.4461749408037 64.1690573141086  85.9242701473356 63.7472045715348  85.9242701473356 63.7472045715348  C 85.9242701473356 63.7472045715348  85.4010002280594 65.1160736749885  85.4010002280594 65.1160736749885  C 85.4010002280594 65.1160736749885  80.8352668391442 65.4324632319192  80.8352668391442 65.4324632319192  C 80.8352668391442 65.4324632319192  82.6599334488472 67.2210327680357  82.6599334488472 67.2210327680357  C 82.6599334488472 67.2210327680357  83.3133430371661 70.895025786268  83.3133430371661 70.895025786268  C 83.3133430371661 70.895025786268  79.1380286553791 74.2483246277476  79.1380286553791 74.2483246277476  C 79.1380286553791 74.2483246277476  75.3531332807204 78.6411891562841  75.3531332807204 78.6411891562841  C 75.3531332807204 78.6411891562841  71.4380982370186 79.2675113404116  71.4380982370186 79.2675113404116  C 71.4380982370186 79.2675113404116  63.0725787824937 75.7118953672893  63.0725787824937 75.7118953672893  C 63.0725787824937 75.7118953672893  60.2013723342388 76.9688443553663  60.2013723342388 76.9688443553663  C 60.2013723342388 76.9688443553663  59.4178230768773 78.7445000320165  59.4178230768773 78.7445000320165  C 59.4178230768773 78.7445000320165  55.502788033176 79.8938335245392  55.502788033176 79.8938335245392  C 55.502788033176 79.8938335245392  55.2425086950905 81.1464778927939  55.2425086950905 81.1464778927939  C 55.2425086950905 81.1464778927939  47.672717945773 81.1464778927939  47.672717945773 81.1464778927939  C 47.672717945773 81.1464778927939  46.6288893503264 79.8938335245392  46.6288893503264 79.8938335245392  C 46.6288893503264 79.8938335245392  41.1467557919024 79.6850594631631  41.1467557919024 79.6850594631631  C 41.1467557919024 79.6850594631631  38.4084002557953 80.7267774601314  38.4084002557953 80.7267774601314  C 38.4084002557953 80.7267774601314  36.3180318217968 80.2059184616473  36.3180318217968 80.2059184616473  C 36.3180318217968 80.2059184616473  32.4029967780955 76.6546071083472  32.4029967780955 76.6546071083472  C 32.4029967780955 76.6546071083472  31.0988888445634 74.9822623074294  31.0988888445634 74.9822623074294  C 31.0988888445634 74.9822623074294  25.6167552861392 75.817358552933  25.6167552861392 75.817358552933  C 25.6167552861392 75.817358552933  23.5290980952459 78.6411891562841  23.5290980952459 78.6411891562841  C 23.5290980952459 78.6411891562841  21.5715805733951 84.0650101322334  21.5715805733951 84.0650101322334  C 21.5715805733951 84.0650101322334  18.9606534632258 85.2100390049338  18.9606534632258 85.2100390049338  C 18.9606534632258 85.2100390049338  16.6289843928773 85.8707981476384  16.6289843928773 85.8707981476384  C 16.6289843928773 85.8707981476384  16.0108209649242 85.5888455492855  16.0108209649242 85.5888455492855  C 16.0108209649242 85.5888455492855  13.3727814237044 83.8411699014798  13.3727814237044 83.8411699014798  C 13.3727814237044 83.8411699014798  12.8874689078995 81.953594109453  12.8874689078995 81.953594109453  C 12.8874689078995 81.953594109453  14.1210845206999 79.4246299639214  14.1210845206999 79.4246299639214  C 14.1210845206999 79.4246299639214  14.0993945758597 76.9430166364335  14.0993945758597 76.9430166364335  C 14.0993945758597 76.9430166364335  9.71531447498337 73.1312757838914  9.71531447498337 73.1312757838914  C 9.71531447498337 73.1312757838914  8.85313916757532 70.5162192419159  8.85313916757532 70.5162192419159  C 8.85313916757532 70.5162192419159  8.94532143314719 69.0354300230853  8.94532143314719 69.0354300230853  C 8.94532143314719 69.0354300230853  6.15002979183416 67.2317943175909  6.15002979183416 67.2317943175909  C 6.15002979183416 67.2317943175909  6.06598125557727 63.6718737246466  6.06598125557727 63.6718737246466  C 6.06598125557727 63.6718737246466  4.47177030980433 61.3043328224467  4.47177030980433 61.3043328224467  C 4.47177030980433 61.3043328224467  1.80390709442866 61.6594639577765  1.80390709442866 61.6594639577765  C 1.80390709442866 61.6594639577765  2.56847765005478 59.3995385511313  2.56847765005478 59.3995385511313  C 2.56847765005478 59.3995385511313  4.53955138743061 56.8339851371109  4.53955138743061 56.8339851371109  C 4.53955138743061 56.8339851371109  3.67737608002279 54.2791932726458  3.67737608002279 54.2791932726458  C 3.67737608002279 54.2791932726458  6.1771422228849 52.3851605508857  6.1771422228849 52.3851605508857  C 6.1771422228849 52.3851605508857  4.59106500642671 50.9388082906328  4.59106500642671 50.9388082906328  C 4.59106500642671 50.9388082906328  6.60009614727339 47.1098489588018  6.60009614727339 47.1098489588018  C 6.60009614727339 47.1098489588018  10.0731985648509 40.968249414275  10.0731985648509 40.968249414275  C 10.0731985648509 40.968249414275  16.6289843928773 41.4051683262267  16.6289843928773 41.4051683262267  C 16.6289843928773 41.4051683262267  16.2521216012744 16.4190025683721  16.2521216012744 16.4190025683721  C 16.2521216012744 16.4190025683721  16.3470151099514 13.7436813488857  16.3470151099514 13.7436813488857  C 16.3470151099514 13.7436813488857  25.0880628806533 13.7243105596862  25.0880628806533 13.7243105596862  C 25.0880628806533 13.7243105596862  25.0880628806533 0.890086559850682  25.0880628806533 0.890086559850682  C 25.0880628806533 0.890086559850682  55.6491951608491 0.890086559850682  55.6491951608491 0.890086559850682  C 55.6491951608491 0.890086559850682  87.1145058704549 0.890086559850682  87.1145058704549 0.890086559850682  C 87.1145058704549 0.890086559850682  117.266240441787 0.890086559850682  117.266240441787 0.890086559850682  C 117.266240441787 0.890086559850682  119.714492965653 7.21787769845816  119.714492965653 7.21787769845816  C 119.714492965653 7.21787769845816  118.049789699149 8.38442967026938  118.049789699149 8.38442967026938  C 118.049789699149 8.38442967026938  119.153265642907 14.9683456882966  119.153265642907 14.9683456882966  C 119.153265642907 14.9683456882966  121.94313479801 22.5530858149811  121.94313479801 22.5530858149811  C 121.94313479801 22.5530858149811  124.841453677315 24.111358190611  124.841453677315 24.111358190611  C 124.841453677315 24.111358190611  129.000500600471 26.4444621342334  129.000500600471 26.4444621342334  C 129.000500600471 26.4444621342334  125.153246634396 30.0388196857555  125.153246634396 30.0388196857555  C 125.153246634396 30.0388196857555  119.554529622455 31.0719284430793  119.554529622455 31.0719284430793  C 119.554529622455 31.0719284430793  117.16050196069 32.9960935035945  117.16050196069 32.9960935035945  C 117.16050196069 32.9960935035945  116.412198863695 37.1565085617332  116.412198863695 37.1565085617332  C 116.412198863695 37.1565085617332  113.137017192786 47.8674620475058  113.137017192786 47.8674620475058  C 113.137017192786 47.8674620475058  113.944967638093 50.3490753749937  113.944967638093 50.3490753749937  C 113.944967638093 50.3490753749937  112.733041970133 55.6566716157441  112.733041970133 55.6566716157441  C 112.733041970133 55.6566716157441  109.642224830369 61.7197286352872  109.642224830369 61.7197286352872  C 109.642224830369 61.7197286352872  105.057512739718 64.7609425396586  105.057512739718 64.7609425396586  C 105.057512739718 64.7609425396586  101.798598527441 69.4379119764592  101.798598527441 69.4379119764592  C 101.798598527441 69.4379119764592  101.034027971815 71.936743783236  101.034027971815 71.936743783236  C 101.034027971815 71.936743783236  97.4334971283001 73.6456778526422  97.4334971283001 73.6456778526422  C 97.4334971283001 73.6456778526422  95.1858765942078 80.0186674993824  95.1858765942078 80.0186674993824  Z " fill-rule="nonzero" fill="#f2f2f2" stroke="none" transform="matrix(1 0 0 1 1960 1896 )" />
    <path d="M 95.1858765942078 80.0186674993824  C 95.1858765942078 80.0186674993824  95.1967215666283 80.74399593942  95.1967215666283 80.74399593942  C 95.1967215666283 80.74399593942  94.1447592418665 80.6234665843991  94.1447592418665 80.6234665843991  C 94.1447592418665 80.6234665843991  94.2748989109092 77.5951665394938  94.2748989109092 77.5951665394938  C 94.2748989109092 77.5951665394938  93.3612099845048 75.5031213059136  93.3612099845048 75.5031213059136  C 93.3612099845048 75.5031213059136  89.4461749408037 73.0968388253139  89.4461749408037 73.0968388253139  C 89.4461749408037 73.0968388253139  88.5324860143998 68.6910604373107  88.5324860143998 68.6910604373107  C 88.5324860143998 68.6910604373107  89.4461749408037 64.1690573141086  89.4461749408037 64.1690573141086  C 89.4461749408037 64.1690573141086  85.9242701473356 63.7472045715348  85.9242701473356 63.7472045715348  C 85.9242701473356 63.7472045715348  85.4010002280594 65.1160736749885  85.4010002280594 65.1160736749885  C 85.4010002280594 65.1160736749885  80.8352668391442 65.4324632319192  80.8352668391442 65.4324632319192  C 80.8352668391442 65.4324632319192  82.6599334488472 67.2210327680357  82.6599334488472 67.2210327680357  C 82.6599334488472 67.2210327680357  83.3133430371661 70.895025786268  83.3133430371661 70.895025786268  C 83.3133430371661 70.895025786268  79.1380286553791 74.2483246277476  79.1380286553791 74.2483246277476  C 79.1380286553791 74.2483246277476  75.3531332807204 78.6411891562841  75.3531332807204 78.6411891562841  C 75.3531332807204 78.6411891562841  71.4380982370186 79.2675113404116  71.4380982370186 79.2675113404116  C 71.4380982370186 79.2675113404116  63.0725787824937 75.7118953672893  63.0725787824937 75.7118953672893  C 63.0725787824937 75.7118953672893  60.2013723342388 76.9688443553663  60.2013723342388 76.9688443553663  C 60.2013723342388 76.9688443553663  59.4178230768773 78.7445000320165  59.4178230768773 78.7445000320165  C 59.4178230768773 78.7445000320165  55.502788033176 79.8938335245392  55.502788033176 79.8938335245392  C 55.502788033176 79.8938335245392  55.2425086950905 81.1464778927939  55.2425086950905 81.1464778927939  C 55.2425086950905 81.1464778927939  47.672717945773 81.1464778927939  47.672717945773 81.1464778927939  C 47.672717945773 81.1464778927939  46.6288893503264 79.8938335245392  46.6288893503264 79.8938335245392  C 46.6288893503264 79.8938335245392  41.1467557919024 79.6850594631631  41.1467557919024 79.6850594631631  C 41.1467557919024 79.6850594631631  38.4084002557953 80.7267774601314  38.4084002557953 80.7267774601314  C 38.4084002557953 80.7267774601314  36.3180318217968 80.2059184616473  36.3180318217968 80.2059184616473  C 36.3180318217968 80.2059184616473  32.4029967780955 76.6546071083472  32.4029967780955 76.6546071083472  C 32.4029967780955 76.6546071083472  31.0988888445634 74.9822623074294  31.0988888445634 74.9822623074294  C 31.0988888445634 74.9822623074294  25.6167552861392 75.817358552933  25.6167552861392 75.817358552933  C 25.6167552861392 75.817358552933  23.5290980952459 78.6411891562841  23.5290980952459 78.6411891562841  C 23.5290980952459 78.6411891562841  21.5715805733951 84.0650101322334  21.5715805733951 84.0650101322334  C 21.5715805733951 84.0650101322334  18.9606534632258 85.2100390049338  18.9606534632258 85.2100390049338  C 18.9606534632258 85.2100390049338  16.6289843928773 85.8707981476384  16.6289843928773 85.8707981476384  C 16.6289843928773 85.8707981476384  16.0108209649242 85.5888455492855  16.0108209649242 85.5888455492855  C 16.0108209649242 85.5888455492855  13.3727814237044 83.8411699014798  13.3727814237044 83.8411699014798  C 13.3727814237044 83.8411699014798  12.8874689078995 81.953594109453  12.8874689078995 81.953594109453  C 12.8874689078995 81.953594109453  14.1210845206999 79.4246299639214  14.1210845206999 79.4246299639214  C 14.1210845206999 79.4246299639214  14.0993945758597 76.9430166364335  14.0993945758597 76.9430166364335  C 14.0993945758597 76.9430166364335  9.71531447498337 73.1312757838914  9.71531447498337 73.1312757838914  C 9.71531447498337 73.1312757838914  8.85313916757532 70.5162192419159  8.85313916757532 70.5162192419159  C 8.85313916757532 70.5162192419159  8.94532143314719 69.0354300230853  8.94532143314719 69.0354300230853  C 8.94532143314719 69.0354300230853  6.15002979183416 67.2317943175909  6.15002979183416 67.2317943175909  C 6.15002979183416 67.2317943175909  6.06598125557727 63.6718737246466  6.06598125557727 63.6718737246466  C 6.06598125557727 63.6718737246466  4.47177030980433 61.3043328224467  4.47177030980433 61.3043328224467  C 4.47177030980433 61.3043328224467  1.80390709442866 61.6594639577765  1.80390709442866 61.6594639577765  C 1.80390709442866 61.6594639577765  2.56847765005478 59.3995385511313  2.56847765005478 59.3995385511313  C 2.56847765005478 59.3995385511313  4.53955138743061 56.8339851371109  4.53955138743061 56.8339851371109  C 4.53955138743061 56.8339851371109  3.67737608002279 54.2791932726458  3.67737608002279 54.2791932726458  C 3.67737608002279 54.2791932726458  6.1771422228849 52.3851605508857  6.1771422228849 52.3851605508857  C 6.1771422228849 52.3851605508857  4.59106500642671 50.9388082906328  4.59106500642671 50.9388082906328  C 4.59106500642671 50.9388082906328  6.60009614727339 47.1098489588018  6.60009614727339 47.1098489588018  C 6.60009614727339 47.1098489588018  10.0731985648509 40.968249414275  10.0731985648509 40.968249414275  C 10.0731985648509 40.968249414275  16.6289843928773 41.4051683262267  16.6289843928773 41.4051683262267  C 16.6289843928773 41.4051683262267  16.2521216012744 16.4190025683721  16.2521216012744 16.4190025683721  C 16.2521216012744 16.4190025683721  16.3470151099514 13.7436813488857  16.3470151099514 13.7436813488857  C 16.3470151099514 13.7436813488857  25.0880628806533 13.7243105596862  25.0880628806533 13.7243105596862  C 25.0880628806533 13.7243105596862  25.0880628806533 0.890086559850682  25.0880628806533 0.890086559850682  C 25.0880628806533 0.890086559850682  55.6491951608491 0.890086559850682  55.6491951608491 0.890086559850682  C 55.6491951608491 0.890086559850682  87.1145058704549 0.890086559850682  87.1145058704549 0.890086559850682  C 87.1145058704549 0.890086559850682  117.266240441787 0.890086559850682  117.266240441787 0.890086559850682  C 117.266240441787 0.890086559850682  119.714492965653 7.21787769845816  119.714492965653 7.21787769845816  C 119.714492965653 7.21787769845816  118.049789699149 8.38442967026938  118.049789699149 8.38442967026938  C 118.049789699149 8.38442967026938  119.153265642907 14.9683456882966  119.153265642907 14.9683456882966  C 119.153265642907 14.9683456882966  121.94313479801 22.5530858149811  121.94313479801 22.5530858149811  C 121.94313479801 22.5530858149811  124.841453677315 24.111358190611  124.841453677315 24.111358190611  C 124.841453677315 24.111358190611  129.000500600471 26.4444621342334  129.000500600471 26.4444621342334  C 129.000500600471 26.4444621342334  125.153246634396 30.0388196857555  125.153246634396 30.0388196857555  C 125.153246634396 30.0388196857555  119.554529622455 31.0719284430793  119.554529622455 31.0719284430793  C 119.554529622455 31.0719284430793  117.16050196069 32.9960935035945  117.16050196069 32.9960935035945  C 117.16050196069 32.9960935035945  116.412198863695 37.1565085617332  116.412198863695 37.1565085617332  C 116.412198863695 37.1565085617332  113.137017192786 47.8674620475058  113.137017192786 47.8674620475058  C 113.137017192786 47.8674620475058  113.944967638093 50.3490753749937  113.944967638093 50.3490753749937  C 113.944967638093 50.3490753749937  112.733041970133 55.6566716157441  112.733041970133 55.6566716157441  C 112.733041970133 55.6566716157441  109.642224830369 61.7197286352872  109.642224830369 61.7197286352872  C 109.642224830369 61.7197286352872  105.057512739718 64.7609425396586  105.057512739718 64.7609425396586  C 105.057512739718 64.7609425396586  101.798598527441 69.4379119764592  101.798598527441 69.4379119764592  C 101.798598527441 69.4379119764592  101.034027971815 71.936743783236  101.034027971815 71.936743783236  C 101.034027971815 71.936743783236  97.4334971283001 73.6456778526422  97.4334971283001 73.6456778526422  C 97.4334971283001 73.6456778526422  95.1858765942078 80.0186674993824  95.1858765942078 80.0186674993824  Z " stroke-width="2" stroke="#505050" fill="none" stroke-opacity="0.211764705882353" transform="matrix(1 0 0 1 1960 1896 )" mask="url(#clip735)" />
  </g>
</svg>