<?xml version="1.0" encoding="utf-8"?>
<svg version="1.1" xmlns:xlink="http://www.w3.org/1999/xlink" width="104px" height="184px" xmlns="http://www.w3.org/2000/svg">
  <defs>
    <mask fill="white" id="clip736">
      <path d="M 103.008697876184 49.8179629451366  C 103.008697876184 49.8179629451366  89.7311981421014 53.9819233336335  89.7311981421014 53.9819233336335  C 89.7311981421014 53.9819233336335  82.2459147547968 64.0484048913914  82.2459147547968 64.0484048913914  C 82.2459147547968 64.0484048913914  83.4517088421962 72.6682321698467  83.4517088421962 72.6682321698467  C 83.4517088421962 72.6682321698467  71.1735316052057 83.6984344566948  71.1735316052057 83.6984344566948  C 71.1735316052057 83.6984344566948  56.2662827849574 96.7150866729623  56.2662827849574 96.7150866729623  C 56.2662827849574 96.7150866729623  48.6475025740385 114.770362336898  48.6475025740385 114.770362336898  C 48.6475025740385 114.770362336898  56.1423998307728 123.499654553402  56.1423998307728 123.499654553402  C 56.1423998307728 123.499654553402  63.5230709456546 130.239260543031  63.5230709456546 130.239260543031  C 63.5230709456546 130.239260543031  56.4314600572043 143.602568470237  56.4314600572043 143.602568470237  C 56.4314600572043 143.602568470237  46.4038446260233 146.317728208097  46.4038446260233 146.317728208097  C 46.4038446260233 146.317728208097  43.460936225498 165.287358060435  43.460936225498 165.287358060435  C 43.460936225498 165.287358060435  39.0754796473532 175.499792868924  39.0754796473532 175.499792868924  C 39.0754796473532 175.499792868924  29.7126812655131 174.4588027718  29.7126812655131 174.4588027718  C 29.7126812655131 174.4588027718  25.3437424145927 182.934823170859  25.3437424145927 182.934823170859  C 25.3437424145927 182.934823170859  16.4076519860566 183.419903092405  16.4076519860566 183.419903092405  C 16.4076519860566 183.419903092405  13.9547694931957 173.310494107962  13.9547694931957 173.310494107962  C 13.9547694931957 173.310494107962  7.49358519381985 160.83793028448  7.49358519381985 160.83793028448  C 7.49358519381985 160.83793028448  1.62153316545619 144.73799890607  1.62153316545619 144.73799890607  C 1.62153316545619 144.73799890607  5.02418497373446 137.98766105977  5.02418497373446 137.98766105977  C 5.02418497373446 137.98766105977  11.4468279095863 129.805693533507  11.4468279095863 129.805693533507  C 11.4468279095863 129.805693533507  14.0015697203323 115.367053567827  14.0015697203323 115.367053567827  C 14.0015697203323 115.367053567827  9.0682751892366 108.975159734351  9.0682751892366 108.975159734351  C 9.0682751892366 108.975159734351  8.59476700879645 90.1504266875307  8.59476700879645 90.1504266875307  C 8.59476700879645 90.1504266875307  13.6051442669407 77.4739575872923  13.6051442669407 77.4739575872923  C 13.6051442669407 77.4739575872923  21.2638637901041 77.7079120627284  21.2638637901041 77.7079120627284  C 21.2638637901041 77.7079120627284  23.9479944641098 72.2260796749857  23.9479944641098 72.2260796749857  C 23.9479944641098 72.2260796749857  21.1372278813815 67.4353788568801  21.1372278813815 67.4353788568801  C 21.1372278813815 67.4353788568801  33.1235919374037 47.0448511812511  33.1235919374037 47.0448511812511  C 33.1235919374037 47.0448511812511  40.8428764603907 30.159347894496  40.8428764603907 30.159347894496  C 40.8428764603907 30.159347894496  45.9413482637331 18.9059229888831  45.9413482637331 18.9059229888831  C 45.9413482637331 18.9059229888831  55.3523018785268 18.9595822722401  55.3523018785268 18.9595822722401  C 55.3523018785268 18.9595822722401  57.3949941453088 9.90833435559512  57.3949941453088 9.90833435559512  C 57.3949941453088 9.90833435559512  71.9416059211519 12.5354928687498  71.9416059211519 12.5354928687498  C 71.9416059211519 12.5354928687498  73.0758231905777 1.62763374795546  73.0758231905777 1.62763374795546  C 73.0758231905777 1.62763374795546  77.8632111311892 0.934355806984101  77.8632111311892 0.934355806984101  C 77.8632111311892 0.934355806984101  88.1510022376094 9.09485961990416  88.1510022376094 9.09485961990416  C 88.1510022376094 9.09485961990416  100.200684247993 20.1551111054322  100.200684247993 20.1551111054322  C 100.200684247993 20.1551111054322  100.404402883763 44.0227603425894  100.404402883763 44.0227603425894  C 100.404402883763 44.0227603425894  103.008697876184 49.8179629451366  103.008697876184 49.8179629451366  Z " fill-rule="evenodd" />
    </mask>
  </defs>
  <g transform="matrix(1 0 0 1 -1875 -1451 )">
    <path d="M 103.008697876184 49.8179629451366  C 103.008697876184 49.8179629451366  89.7311981421014 53.9819233336335  89.7311981421014 53.9819233336335  C 89.7311981421014 53.9819233336335  82.2459147547968 64.0484048913914  82.2459147547968 64.0484048913914  C 82.2459147547968 64.0484048913914  83.4517088421962 72.6682321698467  83.4517088421962 72.6682321698467  C 83.4517088421962 72.6682321698467  71.1735316052057 83.6984344566948  71.1735316052057 83.6984344566948  C 71.1735316052057 83.6984344566948  56.2662827849574 96.7150866729623  56.2662827849574 96.7150866729623  C 56.2662827849574 96.7150866729623  48.6475025740385 114.770362336898  48.6475025740385 114.770362336898  C 48.6475025740385 114.770362336898  56.1423998307728 123.499654553402  56.1423998307728 123.499654553402  C 56.1423998307728 123.499654553402  63.5230709456546 130.239260543031  63.5230709456546 130.239260543031  C 63.5230709456546 130.239260543031  56.4314600572043 143.602568470237  56.4314600572043 143.602568470237  C 56.4314600572043 143.602568470237  46.4038446260233 146.317728208097  46.4038446260233 146.317728208097  C 46.4038446260233 146.317728208097  43.460936225498 165.287358060435  43.460936225498 165.287358060435  C 43.460936225498 165.287358060435  39.0754796473532 175.499792868924  39.0754796473532 175.499792868924  C 39.0754796473532 175.499792868924  29.7126812655131 174.4588027718  29.7126812655131 174.4588027718  C 29.7126812655131 174.4588027718  25.3437424145927 182.934823170859  25.3437424145927 182.934823170859  C 25.3437424145927 182.934823170859  16.4076519860566 183.419903092405  16.4076519860566 183.419903092405  C 16.4076519860566 183.419903092405  13.9547694931957 173.310494107962  13.9547694931957 173.310494107962  C 13.9547694931957 173.310494107962  7.49358519381985 160.83793028448  7.49358519381985 160.83793028448  C 7.49358519381985 160.83793028448  1.62153316545619 144.73799890607  1.62153316545619 144.73799890607  C 1.62153316545619 144.73799890607  5.02418497373446 137.98766105977  5.02418497373446 137.98766105977  C 5.02418497373446 137.98766105977  11.4468279095863 129.805693533507  11.4468279095863 129.805693533507  C 11.4468279095863 129.805693533507  14.0015697203323 115.367053567827  14.0015697203323 115.367053567827  C 14.0015697203323 115.367053567827  9.0682751892366 108.975159734351  9.0682751892366 108.975159734351  C 9.0682751892366 108.975159734351  8.59476700879645 90.1504266875307  8.59476700879645 90.1504266875307  C 8.59476700879645 90.1504266875307  13.6051442669407 77.4739575872923  13.6051442669407 77.4739575872923  C 13.6051442669407 77.4739575872923  21.2638637901041 77.7079120627284  21.2638637901041 77.7079120627284  C 21.2638637901041 77.7079120627284  23.9479944641098 72.2260796749857  23.9479944641098 72.2260796749857  C 23.9479944641098 72.2260796749857  21.1372278813815 67.4353788568801  21.1372278813815 67.4353788568801  C 21.1372278813815 67.4353788568801  33.1235919374037 47.0448511812511  33.1235919374037 47.0448511812511  C 33.1235919374037 47.0448511812511  40.8428764603907 30.159347894496  40.8428764603907 30.159347894496  C 40.8428764603907 30.159347894496  45.9413482637331 18.9059229888831  45.9413482637331 18.9059229888831  C 45.9413482637331 18.9059229888831  55.3523018785268 18.9595822722401  55.3523018785268 18.9595822722401  C 55.3523018785268 18.9595822722401  57.3949941453088 9.90833435559512  57.3949941453088 9.90833435559512  C 57.3949941453088 9.90833435559512  71.9416059211519 12.5354928687498  71.9416059211519 12.5354928687498  C 71.9416059211519 12.5354928687498  73.0758231905777 1.62763374795546  73.0758231905777 1.62763374795546  C 73.0758231905777 1.62763374795546  77.8632111311892 0.934355806984101  77.8632111311892 0.934355806984101  C 77.8632111311892 0.934355806984101  88.1510022376094 9.09485961990416  88.1510022376094 9.09485961990416  C 88.1510022376094 9.09485961990416  100.200684247993 20.1551111054322  100.200684247993 20.1551111054322  C 100.200684247993 20.1551111054322  100.404402883763 44.0227603425894  100.404402883763 44.0227603425894  C 100.404402883763 44.0227603425894  103.008697876184 49.8179629451366  103.008697876184 49.8179629451366  Z " fill-rule="nonzero" fill="#a29bfe" stroke="none" transform="matrix(1 0 0 1 1875 1451 )" />
    <path d="M 103.008697876184 49.8179629451366  C 103.008697876184 49.8179629451366  89.7311981421014 53.9819233336335  89.7311981421014 53.9819233336335  C 89.7311981421014 53.9819233336335  82.2459147547968 64.0484048913914  82.2459147547968 64.0484048913914  C 82.2459147547968 64.0484048913914  83.4517088421962 72.6682321698467  83.4517088421962 72.6682321698467  C 83.4517088421962 72.6682321698467  71.1735316052057 83.6984344566948  71.1735316052057 83.6984344566948  C 71.1735316052057 83.6984344566948  56.2662827849574 96.7150866729623  56.2662827849574 96.7150866729623  C 56.2662827849574 96.7150866729623  48.6475025740385 114.770362336898  48.6475025740385 114.770362336898  C 48.6475025740385 114.770362336898  56.1423998307728 123.499654553402  56.1423998307728 123.499654553402  C 56.1423998307728 123.499654553402  63.5230709456546 130.239260543031  63.5230709456546 130.239260543031  C 63.5230709456546 130.239260543031  56.4314600572043 143.602568470237  56.4314600572043 143.602568470237  C 56.4314600572043 143.602568470237  46.4038446260233 146.317728208097  46.4038446260233 146.317728208097  C 46.4038446260233 146.317728208097  43.460936225498 165.287358060435  43.460936225498 165.287358060435  C 43.460936225498 165.287358060435  39.0754796473532 175.499792868924  39.0754796473532 175.499792868924  C 39.0754796473532 175.499792868924  29.7126812655131 174.4588027718  29.7126812655131 174.4588027718  C 29.7126812655131 174.4588027718  25.3437424145927 182.934823170859  25.3437424145927 182.934823170859  C 25.3437424145927 182.934823170859  16.4076519860566 183.419903092405  16.4076519860566 183.419903092405  C 16.4076519860566 183.419903092405  13.9547694931957 173.310494107962  13.9547694931957 173.310494107962  C 13.9547694931957 173.310494107962  7.49358519381985 160.83793028448  7.49358519381985 160.83793028448  C 7.49358519381985 160.83793028448  1.62153316545619 144.73799890607  1.62153316545619 144.73799890607  C 1.62153316545619 144.73799890607  5.02418497373446 137.98766105977  5.02418497373446 137.98766105977  C 5.02418497373446 137.98766105977  11.4468279095863 129.805693533507  11.4468279095863 129.805693533507  C 11.4468279095863 129.805693533507  14.0015697203323 115.367053567827  14.0015697203323 115.367053567827  C 14.0015697203323 115.367053567827  9.0682751892366 108.975159734351  9.0682751892366 108.975159734351  C 9.0682751892366 108.975159734351  8.59476700879645 90.1504266875307  8.59476700879645 90.1504266875307  C 8.59476700879645 90.1504266875307  13.6051442669407 77.4739575872923  13.6051442669407 77.4739575872923  C 13.6051442669407 77.4739575872923  21.2638637901041 77.7079120627284  21.2638637901041 77.7079120627284  C 21.2638637901041 77.7079120627284  23.9479944641098 72.2260796749857  23.9479944641098 72.2260796749857  C 23.9479944641098 72.2260796749857  21.1372278813815 67.4353788568801  21.1372278813815 67.4353788568801  C 21.1372278813815 67.4353788568801  33.1235919374037 47.0448511812511  33.1235919374037 47.0448511812511  C 33.1235919374037 47.0448511812511  40.8428764603907 30.159347894496  40.8428764603907 30.159347894496  C 40.8428764603907 30.159347894496  45.9413482637331 18.9059229888831  45.9413482637331 18.9059229888831  C 45.9413482637331 18.9059229888831  55.3523018785268 18.9595822722401  55.3523018785268 18.9595822722401  C 55.3523018785268 18.9595822722401  57.3949941453088 9.90833435559512  57.3949941453088 9.90833435559512  C 57.3949941453088 9.90833435559512  71.9416059211519 12.5354928687498  71.9416059211519 12.5354928687498  C 71.9416059211519 12.5354928687498  73.0758231905777 1.62763374795546  73.0758231905777 1.62763374795546  C 73.0758231905777 1.62763374795546  77.8632111311892 0.934355806984101  77.8632111311892 0.934355806984101  C 77.8632111311892 0.934355806984101  88.1510022376094 9.09485961990416  88.1510022376094 9.09485961990416  C 88.1510022376094 9.09485961990416  100.200684247993 20.1551111054322  100.200684247993 20.1551111054322  C 100.200684247993 20.1551111054322  100.404402883763 44.0227603425894  100.404402883763 44.0227603425894  C 100.404402883763 44.0227603425894  103.008697876184 49.8179629451366  103.008697876184 49.8179629451366  Z " stroke-width="2" stroke="#505050" fill="none" stroke-opacity="0.211764705882353" transform="matrix(1 0 0 1 1875 1451 )" mask="url(#clip736)" />
  </g>
</svg>