<?xml version="1.0" encoding="utf-8"?>
<svg version="1.1" xmlns:xlink="http://www.w3.org/1999/xlink" width="26px" height="15px" xmlns="http://www.w3.org/2000/svg">
  <defs>
    <mask fill="white" id="clip740">
      <path d="M 0.238409696358303 9.98728129296782  C 0.238409696358303 9.98728129296782  1.07255492120339 4.37643192993278  1.07255492120339 4.37643192993278  C 1.07255492120339 4.37643192993278  7.44839762991865 5.02475272350026  7.44839762991865 5.02475272350026  C 7.44839762991865 5.02475272350026  13.3438283003993 3.12108466085928  13.3438283003993 3.12108466085928  C 13.3438283003993 3.12108466085928  20.0940728262069 2.91254835464807  20.0940728262069 2.91254835464807  C 20.0940728262069 2.91254835464807  21.5669035037383 1.4899590974249  21.5669035037383 1.4899590974249  C 21.5669035037383 1.4899590974249  22.8635450908735 1.58287131306355  22.8635450908735 1.58287131306355  C 22.8635450908735 1.58287131306355  24.363905313779 4.42185567980053  24.363905313779 4.42185567980053  C 24.363905313779 4.42185567980053  18.2193107862088 6.64348999151619  18.2193107862088 6.64348999151619  C 18.2193107862088 6.64348999151619  17.4677541974872 11.5027827658296  17.4677541974872 11.5027827658296  C 17.4677541974872 11.5027827658296  14.7863764780188 12.3493162860929  14.7863764780188 12.3493162860929  C 14.7863764780188 12.3493162860929  14.8139060233934 14.6535392339318  14.8139060233934 14.6535392339318  C 14.8139060233934 14.6535392339318  9.78565603220682 14.4945561093945  9.78565603220682 14.4945561093945  C 9.78565603220682 14.4945561093945  7.15933740348714 13.1483613405854  7.15933740348714 13.1483613405854  C 7.15933740348714 13.1483613405854  5.74707172577973 14.5399798592623  5.74707172577973 14.5399798592623  C 5.74707172577973 14.5399798592623  0.367798559617995 14.2591784964433  0.367798559617995 14.2591784964433  C 0.367798559617995 14.2591784964433  2.08564219098184 13.5117513395278  2.08564219098184 13.5117513395278  C 2.08564219098184 13.5117513395278  0.238409696358303 9.98728129296782  0.238409696358303 9.98728129296782  Z " fill-rule="evenodd" />
    </mask>
  </defs>
  <g transform="matrix(1 0 0 1 -1898 -1713 )">
    <path d="M 0.238409696358303 9.98728129296782  C 0.238409696358303 9.98728129296782  1.07255492120339 4.37643192993278  1.07255492120339 4.37643192993278  C 1.07255492120339 4.37643192993278  7.44839762991865 5.02475272350026  7.44839762991865 5.02475272350026  C 7.44839762991865 5.02475272350026  13.3438283003993 3.12108466085928  13.3438283003993 3.12108466085928  C 13.3438283003993 3.12108466085928  20.0940728262069 2.91254835464807  20.0940728262069 2.91254835464807  C 20.0940728262069 2.91254835464807  21.5669035037383 1.4899590974249  21.5669035037383 1.4899590974249  C 21.5669035037383 1.4899590974249  22.8635450908735 1.58287131306355  22.8635450908735 1.58287131306355  C 22.8635450908735 1.58287131306355  24.363905313779 4.42185567980053  24.363905313779 4.42185567980053  C 24.363905313779 4.42185567980053  18.2193107862088 6.64348999151619  18.2193107862088 6.64348999151619  C 18.2193107862088 6.64348999151619  17.4677541974872 11.5027827658296  17.4677541974872 11.5027827658296  C 17.4677541974872 11.5027827658296  14.7863764780188 12.3493162860929  14.7863764780188 12.3493162860929  C 14.7863764780188 12.3493162860929  14.8139060233934 14.6535392339318  14.8139060233934 14.6535392339318  C 14.8139060233934 14.6535392339318  9.78565603220682 14.4945561093945  9.78565603220682 14.4945561093945  C 9.78565603220682 14.4945561093945  7.15933740348714 13.1483613405854  7.15933740348714 13.1483613405854  C 7.15933740348714 13.1483613405854  5.74707172577973 14.5399798592623  5.74707172577973 14.5399798592623  C 5.74707172577973 14.5399798592623  0.367798559617995 14.2591784964433  0.367798559617995 14.2591784964433  C 0.367798559617995 14.2591784964433  2.08564219098184 13.5117513395278  2.08564219098184 13.5117513395278  C 2.08564219098184 13.5117513395278  0.238409696358303 9.98728129296782  0.238409696358303 9.98728129296782  Z " fill-rule="nonzero" fill="#55efc4" stroke="none" transform="matrix(1 0 0 1 1898 1713 )" />
    <path d="M 0.238409696358303 9.98728129296782  C 0.238409696358303 9.98728129296782  1.07255492120339 4.37643192993278  1.07255492120339 4.37643192993278  C 1.07255492120339 4.37643192993278  7.44839762991865 5.02475272350026  7.44839762991865 5.02475272350026  C 7.44839762991865 5.02475272350026  13.3438283003993 3.12108466085928  13.3438283003993 3.12108466085928  C 13.3438283003993 3.12108466085928  20.0940728262069 2.91254835464807  20.0940728262069 2.91254835464807  C 20.0940728262069 2.91254835464807  21.5669035037383 1.4899590974249  21.5669035037383 1.4899590974249  C 21.5669035037383 1.4899590974249  22.8635450908735 1.58287131306355  22.8635450908735 1.58287131306355  C 22.8635450908735 1.58287131306355  24.363905313779 4.42185567980053  24.363905313779 4.42185567980053  C 24.363905313779 4.42185567980053  18.2193107862088 6.64348999151619  18.2193107862088 6.64348999151619  C 18.2193107862088 6.64348999151619  17.4677541974872 11.5027827658296  17.4677541974872 11.5027827658296  C 17.4677541974872 11.5027827658296  14.7863764780188 12.3493162860929  14.7863764780188 12.3493162860929  C 14.7863764780188 12.3493162860929  14.8139060233934 14.6535392339318  14.8139060233934 14.6535392339318  C 14.8139060233934 14.6535392339318  9.78565603220682 14.4945561093945  9.78565603220682 14.4945561093945  C 9.78565603220682 14.4945561093945  7.15933740348714 13.1483613405854  7.15933740348714 13.1483613405854  C 7.15933740348714 13.1483613405854  5.74707172577973 14.5399798592623  5.74707172577973 14.5399798592623  C 5.74707172577973 14.5399798592623  0.367798559617995 14.2591784964433  0.367798559617995 14.2591784964433  C 0.367798559617995 14.2591784964433  2.08564219098184 13.5117513395278  2.08564219098184 13.5117513395278  C 2.08564219098184 13.5117513395278  0.238409696358303 9.98728129296782  0.238409696358303 9.98728129296782  Z " stroke-width="2" stroke="#505050" fill="none" stroke-opacity="0.211764705882353" transform="matrix(1 0 0 1 1898 1713 )" mask="url(#clip740)" />
  </g>
</svg>