<?xml version="1.0" encoding="utf-8"?>
<svg version="1.1" xmlns:xlink="http://www.w3.org/1999/xlink" width="136px" height="126px" xmlns="http://www.w3.org/2000/svg">
  <defs>
    <mask fill="white" id="clip744">
      <path d="M 102.210298117423 86.4620651589992  C 102.210298117423 86.4620651589992  113.345999221375 94.6189665148422  113.345999221375 94.6189665148422  C 113.345999221375 94.6189665148422  94.1042449533759 106.237019665686  94.1042449533759 106.237019665686  C 94.1042449533759 106.237019665686  80.4853788566509 99.6876375853168  80.4853788566509 99.6876375853168  C 80.4853788566509 99.6876375853168  85.8123458866007 92.2645709705585  85.8123458866007 92.2645709705585  C 85.8123458866007 92.2645709705585  81.1488409001743 81.2741567451216  81.1488409001743 81.2741567451216  C 81.1488409001743 81.2741567451216  99.1462597172495 75.2429151206305  99.1462597172495 75.2429151206305  C 99.1462597172495 75.2429151206305  102.210298117423 86.4620651589992  102.210298117423 86.4620651589992  Z M 53.6481800769473 23.1426999086352  C 53.6481800769473 23.1426999086352  63.3853802758792 35.2116870127122  63.3853802758792 35.2116870127122  C 63.3853802758792 35.2116870127122  88.795150656468 59.6921975891874  88.795150656468 59.6921975891874  C 88.795150656468 59.6921975891874  69.3703034402779 71.9628042012002  69.3703034402779 71.9628042012002  C 69.3703034402779 71.9628042012002  65.0812002709436 95.4037650296035  65.0812002709436 95.4037650296035  C 65.0812002709436 95.4037650296035  58.3089321088362 100.80196475821  58.3089321088362 100.80196475821  C 58.3089321088362 100.80196475821  54.6337378013513 123.576297348174  54.6337378013513 123.576297348174  C 54.6337378013513 123.576297348174  43.3315044193348 124.61257825993  43.3315044193348 124.61257825993  C 43.3315044193348 124.61257825993  26.7311885585602 108.040755478618  26.7311885585602 108.040755478618  C 26.7311885585602 108.040755478618  33.7319519472751 98.0183147776754  33.7319519472751 98.0183147776754  C 33.7319519472751 98.0183147776754  22.161284026407 89.64568531909  22.161284026407 89.64568531909  C 22.161284026407 89.64568531909  7.12189338836174 62.4389923908517  7.12189338836174 62.4389923908517  C 7.12189338836174 62.4389923908517  1.11769954220108 36.8875136754482  1.11769954220108 36.8875136754482  C 1.11769954220108 36.8875136754482  22.161284026407 24.5605403192812  22.161284026407 24.5605403192812  C 22.161284026407 24.5605403192812  26.3898221959173 36.6165197131688  26.3898221959173 36.6165197131688  C 26.3898221959173 36.6165197131688  37.3823696639231 36.1460741946517  37.3823696639231 36.1460741946517  C 37.3823696639231 36.1460741946517  40.3142662462988 24.3632567147418  40.3142662462988 24.3632567147418  C 40.3142662462988 24.3632567147418  53.6481800769473 23.1426999086352  53.6481800769473 23.1426999086352  Z M 99.4105433528443 1.14015812324328  C 99.4105433528443 1.14015812324328  118.928991023307 10.3712964543299  118.928991023307 10.3712964543299  C 118.928991023307 10.3712964543299  134.05647620655 22.9432483523976  134.05647620655 22.9432483523976  C 134.05647620655 22.9432483523976  122.609691239867 42.9826929662693  122.609691239867 42.9826929662693  C 122.609691239867 42.9826929662693  100.222664941389 46.8980137332826  100.222664941389 46.8980137332826  C 100.222664941389 46.8980137332826  75.4584838712822 41.3437214824032  75.4584838712822 41.3437214824032  C 75.4584838712822 41.3437214824032  74.0847595570986 31.9738342426295  74.0847595570986 31.9738342426295  C 74.0847595570986 31.9738342426295  63.0096234529699 31.3689757188218  63.0096234529699 31.3689757188218  C 63.0096234529699 31.3689757188218  54.5635589320982 13.5820329194167  54.5635589320982 13.5820329194167  C 54.5635589320982 13.5820329194167  78.3986393172702 3.34279704865052  78.3986393172702 3.34279704865052  C 78.3986393172702 3.34279704865052  89.6059172391961 12.1772002189601  89.6059172391961 12.1772002189601  C 89.6059172391961 12.1772002189601  99.4105433528443 1.14015812324328  99.4105433528443 1.14015812324328  Z " fill-rule="evenodd" />
    </mask>
  </defs>
  <g transform="matrix(1 0 0 1 -1872 -1171 )">
    <path d="M 102.210298117423 86.4620651589992  C 102.210298117423 86.4620651589992  113.345999221375 94.6189665148422  113.345999221375 94.6189665148422  C 113.345999221375 94.6189665148422  94.1042449533759 106.237019665686  94.1042449533759 106.237019665686  C 94.1042449533759 106.237019665686  80.4853788566509 99.6876375853168  80.4853788566509 99.6876375853168  C 80.4853788566509 99.6876375853168  85.8123458866007 92.2645709705585  85.8123458866007 92.2645709705585  C 85.8123458866007 92.2645709705585  81.1488409001743 81.2741567451216  81.1488409001743 81.2741567451216  C 81.1488409001743 81.2741567451216  99.1462597172495 75.2429151206305  99.1462597172495 75.2429151206305  C 99.1462597172495 75.2429151206305  102.210298117423 86.4620651589992  102.210298117423 86.4620651589992  Z M 53.6481800769473 23.1426999086352  C 53.6481800769473 23.1426999086352  63.3853802758792 35.2116870127122  63.3853802758792 35.2116870127122  C 63.3853802758792 35.2116870127122  88.795150656468 59.6921975891874  88.795150656468 59.6921975891874  C 88.795150656468 59.6921975891874  69.3703034402779 71.9628042012002  69.3703034402779 71.9628042012002  C 69.3703034402779 71.9628042012002  65.0812002709436 95.4037650296035  65.0812002709436 95.4037650296035  C 65.0812002709436 95.4037650296035  58.3089321088362 100.80196475821  58.3089321088362 100.80196475821  C 58.3089321088362 100.80196475821  54.6337378013513 123.576297348174  54.6337378013513 123.576297348174  C 54.6337378013513 123.576297348174  43.3315044193348 124.61257825993  43.3315044193348 124.61257825993  C 43.3315044193348 124.61257825993  26.7311885585602 108.040755478618  26.7311885585602 108.040755478618  C 26.7311885585602 108.040755478618  33.7319519472751 98.0183147776754  33.7319519472751 98.0183147776754  C 33.7319519472751 98.0183147776754  22.161284026407 89.64568531909  22.161284026407 89.64568531909  C 22.161284026407 89.64568531909  7.12189338836174 62.4389923908517  7.12189338836174 62.4389923908517  C 7.12189338836174 62.4389923908517  1.11769954220108 36.8875136754482  1.11769954220108 36.8875136754482  C 1.11769954220108 36.8875136754482  22.161284026407 24.5605403192812  22.161284026407 24.5605403192812  C 22.161284026407 24.5605403192812  26.3898221959173 36.6165197131688  26.3898221959173 36.6165197131688  C 26.3898221959173 36.6165197131688  37.3823696639231 36.1460741946517  37.3823696639231 36.1460741946517  C 37.3823696639231 36.1460741946517  40.3142662462988 24.3632567147418  40.3142662462988 24.3632567147418  C 40.3142662462988 24.3632567147418  53.6481800769473 23.1426999086352  53.6481800769473 23.1426999086352  Z M 99.4105433528443 1.14015812324328  C 99.4105433528443 1.14015812324328  118.928991023307 10.3712964543299  118.928991023307 10.3712964543299  C 118.928991023307 10.3712964543299  134.05647620655 22.9432483523976  134.05647620655 22.9432483523976  C 134.05647620655 22.9432483523976  122.609691239867 42.9826929662693  122.609691239867 42.9826929662693  C 122.609691239867 42.9826929662693  100.222664941389 46.8980137332826  100.222664941389 46.8980137332826  C 100.222664941389 46.8980137332826  75.4584838712822 41.3437214824032  75.4584838712822 41.3437214824032  C 75.4584838712822 41.3437214824032  74.0847595570986 31.9738342426295  74.0847595570986 31.9738342426295  C 74.0847595570986 31.9738342426295  63.0096234529699 31.3689757188218  63.0096234529699 31.3689757188218  C 63.0096234529699 31.3689757188218  54.5635589320982 13.5820329194167  54.5635589320982 13.5820329194167  C 54.5635589320982 13.5820329194167  78.3986393172702 3.34279704865052  78.3986393172702 3.34279704865052  C 78.3986393172702 3.34279704865052  89.6059172391961 12.1772002189601  89.6059172391961 12.1772002189601  C 89.6059172391961 12.1772002189601  99.4105433528443 1.14015812324328  99.4105433528443 1.14015812324328  Z " fill-rule="nonzero" fill="#f2f2f2" stroke="none" transform="matrix(1 0 0 1 1872 1171 )" />
    <path d="M 102.210298117423 86.4620651589992  C 102.210298117423 86.4620651589992  113.345999221375 94.6189665148422  113.345999221375 94.6189665148422  C 113.345999221375 94.6189665148422  94.1042449533759 106.237019665686  94.1042449533759 106.237019665686  C 94.1042449533759 106.237019665686  80.4853788566509 99.6876375853168  80.4853788566509 99.6876375853168  C 80.4853788566509 99.6876375853168  85.8123458866007 92.2645709705585  85.8123458866007 92.2645709705585  C 85.8123458866007 92.2645709705585  81.1488409001743 81.2741567451216  81.1488409001743 81.2741567451216  C 81.1488409001743 81.2741567451216  99.1462597172495 75.2429151206305  99.1462597172495 75.2429151206305  C 99.1462597172495 75.2429151206305  102.210298117423 86.4620651589992  102.210298117423 86.4620651589992  Z " stroke-width="2" stroke="#505050" fill="none" stroke-opacity="0.211764705882353" transform="matrix(1 0 0 1 1872 1171 )" mask="url(#clip744)" />
    <path d="M 53.6481800769473 23.1426999086352  C 53.6481800769473 23.1426999086352  63.3853802758792 35.2116870127122  63.3853802758792 35.2116870127122  C 63.3853802758792 35.2116870127122  88.795150656468 59.6921975891874  88.795150656468 59.6921975891874  C 88.795150656468 59.6921975891874  69.3703034402779 71.9628042012002  69.3703034402779 71.9628042012002  C 69.3703034402779 71.9628042012002  65.0812002709436 95.4037650296035  65.0812002709436 95.4037650296035  C 65.0812002709436 95.4037650296035  58.3089321088362 100.80196475821  58.3089321088362 100.80196475821  C 58.3089321088362 100.80196475821  54.6337378013513 123.576297348174  54.6337378013513 123.576297348174  C 54.6337378013513 123.576297348174  43.3315044193348 124.61257825993  43.3315044193348 124.61257825993  C 43.3315044193348 124.61257825993  26.7311885585602 108.040755478618  26.7311885585602 108.040755478618  C 26.7311885585602 108.040755478618  33.7319519472751 98.0183147776754  33.7319519472751 98.0183147776754  C 33.7319519472751 98.0183147776754  22.161284026407 89.64568531909  22.161284026407 89.64568531909  C 22.161284026407 89.64568531909  7.12189338836174 62.4389923908517  7.12189338836174 62.4389923908517  C 7.12189338836174 62.4389923908517  1.11769954220108 36.8875136754482  1.11769954220108 36.8875136754482  C 1.11769954220108 36.8875136754482  22.161284026407 24.5605403192812  22.161284026407 24.5605403192812  C 22.161284026407 24.5605403192812  26.3898221959173 36.6165197131688  26.3898221959173 36.6165197131688  C 26.3898221959173 36.6165197131688  37.3823696639231 36.1460741946517  37.3823696639231 36.1460741946517  C 37.3823696639231 36.1460741946517  40.3142662462988 24.3632567147418  40.3142662462988 24.3632567147418  C 40.3142662462988 24.3632567147418  53.6481800769473 23.1426999086352  53.6481800769473 23.1426999086352  Z " stroke-width="2" stroke="#505050" fill="none" stroke-opacity="0.211764705882353" transform="matrix(1 0 0 1 1872 1171 )" mask="url(#clip744)" />
    <path d="M 99.4105433528443 1.14015812324328  C 99.4105433528443 1.14015812324328  118.928991023307 10.3712964543299  118.928991023307 10.3712964543299  C 118.928991023307 10.3712964543299  134.05647620655 22.9432483523976  134.05647620655 22.9432483523976  C 134.05647620655 22.9432483523976  122.609691239867 42.9826929662693  122.609691239867 42.9826929662693  C 122.609691239867 42.9826929662693  100.222664941389 46.8980137332826  100.222664941389 46.8980137332826  C 100.222664941389 46.8980137332826  75.4584838712822 41.3437214824032  75.4584838712822 41.3437214824032  C 75.4584838712822 41.3437214824032  74.0847595570986 31.9738342426295  74.0847595570986 31.9738342426295  C 74.0847595570986 31.9738342426295  63.0096234529699 31.3689757188218  63.0096234529699 31.3689757188218  C 63.0096234529699 31.3689757188218  54.5635589320982 13.5820329194167  54.5635589320982 13.5820329194167  C 54.5635589320982 13.5820329194167  78.3986393172702 3.34279704865052  78.3986393172702 3.34279704865052  C 78.3986393172702 3.34279704865052  89.6059172391961 12.1772002189601  89.6059172391961 12.1772002189601  C 89.6059172391961 12.1772002189601  99.4105433528443 1.14015812324328  99.4105433528443 1.14015812324328  Z " stroke-width="2" stroke="#505050" fill="none" stroke-opacity="0.211764705882353" transform="matrix(1 0 0 1 1872 1171 )" mask="url(#clip744)" />
  </g>
</svg>