<?xml version="1.0" encoding="utf-8"?>
<svg version="1.1" xmlns:xlink="http://www.w3.org/1999/xlink" width="48px" height="19px" xmlns="http://www.w3.org/2000/svg">
  <defs>
    <mask fill="white" id="clip745">
      <path d="M 13.7253916327047 1.1725556295674  C 13.7253916327047 1.1725556295674  16.0268616260062 1.16165851785672  16.0268616260062 1.16165851785672  C 16.0268616260062 1.16165851785672  16.4618284429221 1.72830832681354  16.4618284429221 1.72830832681354  C 16.4618284429221 1.72830832681354  19.6359850245922 0.453346256660708  19.6359850245922 0.453346256660708  C 19.6359850245922 0.453346256660708  25.5286627405355 3.77260648374226  25.5286627405355 3.77260648374226  C 25.5286627405355 3.77260648374226  30.0903084090767 1.76971735131417  30.0903084090767 1.76971735131417  C 30.0903084090767 1.76971735131417  33.7352202166499 2.7308426041986  33.7352202166499 2.7308426041986  C 33.7352202166499 2.7308426041986  39.2906824732074 1.40575382017658  39.2906824732074 1.40575382017658  C 39.2906824732074 1.40575382017658  46.6245533609526 4.99744184002581  46.6245533609526 4.99744184002581  C 46.6245533609526 4.99744184002581  44.4855076853605 7.41224179511848  44.4855076853605 7.41224179511848  C 44.4855076853605 7.41224179511848  42.9796415533797 12.7114902218032  42.9796415533797 12.7114902218032  C 42.9796415533797 12.7114902218032  41.3333747399895 13.648641828924  41.3333747399895 13.648641828924  C 41.3333747399895 13.648641828924  33.0662522640514 10.8568018086407  33.0662522640514 10.8568018086407  C 33.0662522640514 10.8568018086407  30.5362870441422 11.4190927729132  30.5362870441422 11.4190927729132  C 30.5362870441422 11.4190927729132  28.7248429585056 13.5810797363176  28.7248429585056 13.5810797363176  C 28.7248429585056 13.5810797363176  25.101954787232 14.7230970435998  25.101954787232 14.7230970435998  C 25.101954787232 14.7230970435998  22.2650566078494 14.1368324335637  22.2650566078494 14.1368324335637  C 22.2650566078494 14.1368324335637  18.5072736642412 15.5556363782978  18.5072736642412 15.5556363782978  C 18.5072736642412 15.5556363782978  15.4404823095308 15.8258847487233  15.4404823095308 15.8258847487233  C 15.4404823095308 15.8258847487233  14.818314584069 17.65442009378  14.818314584069 17.65442009378  C 14.818314584069 17.65442009378  8.34061255746838 18.7659254882722  8.34061255746838 18.7659254882722  C 8.34061255746838 18.7659254882722  5.49405756575334 17.77646774494  5.49405756575334 17.77646774494  C 5.49405756575334 17.77646774494  1.56559144082371 15.4466652611907  1.56559144082371 15.4466652611907  C 1.56559144082371 15.4466652611907  0.797517124877459 12.2712469086905  0.797517124877459 12.2712469086905  C 0.797517124877459 12.2712469086905  1.41693189580201 11.1052559556448  1.41693189580201 11.1052559556448  C 1.41693189580201 11.1052559556448  2.51260780170401 7.49070099943557  2.51260780170401 7.49070099943557  C 2.51260780170401 7.49070099943557  5.93177733720654 7.64543998572765  5.93177733720654 7.64543998572765  C 5.93177733720654 7.64543998572765  8.56635482953857 6.68867357752754  8.56635482953857 6.68867357752754  C 8.56635482953857 6.68867357752754  8.77557937438405 5.82562233003955  8.77557937438405 5.82562233003955  C 8.77557937438405 5.82562233003955  10.2539159609905 5.38537901692698  10.2539159609905 5.38537901692698  C 10.2539159609905 5.38537901692698  10.7577066413423 3.26480107802328  10.7577066413423 3.26480107802328  C 10.7577066413423 3.26480107802328  12.5306093634549 2.85942852238489  12.5306093634549 2.85942852238489  C 12.5306093634549 2.85942852238489  13.7253916327047 1.1725556295674  13.7253916327047 1.1725556295674  Z " fill-rule="evenodd" />
    </mask>
  </defs>
  <g transform="matrix(1 0 0 1 -1922 -1690 )">
    <path d="M 13.7253916327047 1.1725556295674  C 13.7253916327047 1.1725556295674  16.0268616260062 1.16165851785672  16.0268616260062 1.16165851785672  C 16.0268616260062 1.16165851785672  16.4618284429221 1.72830832681354  16.4618284429221 1.72830832681354  C 16.4618284429221 1.72830832681354  19.6359850245922 0.453346256660708  19.6359850245922 0.453346256660708  C 19.6359850245922 0.453346256660708  25.5286627405355 3.77260648374226  25.5286627405355 3.77260648374226  C 25.5286627405355 3.77260648374226  30.0903084090767 1.76971735131417  30.0903084090767 1.76971735131417  C 30.0903084090767 1.76971735131417  33.7352202166499 2.7308426041986  33.7352202166499 2.7308426041986  C 33.7352202166499 2.7308426041986  39.2906824732074 1.40575382017658  39.2906824732074 1.40575382017658  C 39.2906824732074 1.40575382017658  46.6245533609526 4.99744184002581  46.6245533609526 4.99744184002581  C 46.6245533609526 4.99744184002581  44.4855076853605 7.41224179511848  44.4855076853605 7.41224179511848  C 44.4855076853605 7.41224179511848  42.9796415533797 12.7114902218032  42.9796415533797 12.7114902218032  C 42.9796415533797 12.7114902218032  41.3333747399895 13.648641828924  41.3333747399895 13.648641828924  C 41.3333747399895 13.648641828924  33.0662522640514 10.8568018086407  33.0662522640514 10.8568018086407  C 33.0662522640514 10.8568018086407  30.5362870441422 11.4190927729132  30.5362870441422 11.4190927729132  C 30.5362870441422 11.4190927729132  28.7248429585056 13.5810797363176  28.7248429585056 13.5810797363176  C 28.7248429585056 13.5810797363176  25.101954787232 14.7230970435998  25.101954787232 14.7230970435998  C 25.101954787232 14.7230970435998  22.2650566078494 14.1368324335637  22.2650566078494 14.1368324335637  C 22.2650566078494 14.1368324335637  18.5072736642412 15.5556363782978  18.5072736642412 15.5556363782978  C 18.5072736642412 15.5556363782978  15.4404823095308 15.8258847487233  15.4404823095308 15.8258847487233  C 15.4404823095308 15.8258847487233  14.818314584069 17.65442009378  14.818314584069 17.65442009378  C 14.818314584069 17.65442009378  8.34061255746838 18.7659254882722  8.34061255746838 18.7659254882722  C 8.34061255746838 18.7659254882722  5.49405756575334 17.77646774494  5.49405756575334 17.77646774494  C 5.49405756575334 17.77646774494  1.56559144082371 15.4466652611907  1.56559144082371 15.4466652611907  C 1.56559144082371 15.4466652611907  0.797517124877459 12.2712469086905  0.797517124877459 12.2712469086905  C 0.797517124877459 12.2712469086905  1.41693189580201 11.1052559556448  1.41693189580201 11.1052559556448  C 1.41693189580201 11.1052559556448  2.51260780170401 7.49070099943557  2.51260780170401 7.49070099943557  C 2.51260780170401 7.49070099943557  5.93177733720654 7.64543998572765  5.93177733720654 7.64543998572765  C 5.93177733720654 7.64543998572765  8.56635482953857 6.68867357752754  8.56635482953857 6.68867357752754  C 8.56635482953857 6.68867357752754  8.77557937438405 5.82562233003955  8.77557937438405 5.82562233003955  C 8.77557937438405 5.82562233003955  10.2539159609905 5.38537901692698  10.2539159609905 5.38537901692698  C 10.2539159609905 5.38537901692698  10.7577066413423 3.26480107802328  10.7577066413423 3.26480107802328  C 10.7577066413423 3.26480107802328  12.5306093634549 2.85942852238489  12.5306093634549 2.85942852238489  C 12.5306093634549 2.85942852238489  13.7253916327047 1.1725556295674  13.7253916327047 1.1725556295674  Z " fill-rule="nonzero" fill="#74b9ff" stroke="none" transform="matrix(1 0 0 1 1922 1690 )" />
    <path d="M 13.7253916327047 1.1725556295674  C 13.7253916327047 1.1725556295674  16.0268616260062 1.16165851785672  16.0268616260062 1.16165851785672  C 16.0268616260062 1.16165851785672  16.4618284429221 1.72830832681354  16.4618284429221 1.72830832681354  C 16.4618284429221 1.72830832681354  19.6359850245922 0.453346256660708  19.6359850245922 0.453346256660708  C 19.6359850245922 0.453346256660708  25.5286627405355 3.77260648374226  25.5286627405355 3.77260648374226  C 25.5286627405355 3.77260648374226  30.0903084090767 1.76971735131417  30.0903084090767 1.76971735131417  C 30.0903084090767 1.76971735131417  33.7352202166499 2.7308426041986  33.7352202166499 2.7308426041986  C 33.7352202166499 2.7308426041986  39.2906824732074 1.40575382017658  39.2906824732074 1.40575382017658  C 39.2906824732074 1.40575382017658  46.6245533609526 4.99744184002581  46.6245533609526 4.99744184002581  C 46.6245533609526 4.99744184002581  44.4855076853605 7.41224179511848  44.4855076853605 7.41224179511848  C 44.4855076853605 7.41224179511848  42.9796415533797 12.7114902218032  42.9796415533797 12.7114902218032  C 42.9796415533797 12.7114902218032  41.3333747399895 13.648641828924  41.3333747399895 13.648641828924  C 41.3333747399895 13.648641828924  33.0662522640514 10.8568018086407  33.0662522640514 10.8568018086407  C 33.0662522640514 10.8568018086407  30.5362870441422 11.4190927729132  30.5362870441422 11.4190927729132  C 30.5362870441422 11.4190927729132  28.7248429585056 13.5810797363176  28.7248429585056 13.5810797363176  C 28.7248429585056 13.5810797363176  25.101954787232 14.7230970435998  25.101954787232 14.7230970435998  C 25.101954787232 14.7230970435998  22.2650566078494 14.1368324335637  22.2650566078494 14.1368324335637  C 22.2650566078494 14.1368324335637  18.5072736642412 15.5556363782978  18.5072736642412 15.5556363782978  C 18.5072736642412 15.5556363782978  15.4404823095308 15.8258847487233  15.4404823095308 15.8258847487233  C 15.4404823095308 15.8258847487233  14.818314584069 17.65442009378  14.818314584069 17.65442009378  C 14.818314584069 17.65442009378  8.34061255746838 18.7659254882722  8.34061255746838 18.7659254882722  C 8.34061255746838 18.7659254882722  5.49405756575334 17.77646774494  5.49405756575334 17.77646774494  C 5.49405756575334 17.77646774494  1.56559144082371 15.4466652611907  1.56559144082371 15.4466652611907  C 1.56559144082371 15.4466652611907  0.797517124877459 12.2712469086905  0.797517124877459 12.2712469086905  C 0.797517124877459 12.2712469086905  1.41693189580201 11.1052559556448  1.41693189580201 11.1052559556448  C 1.41693189580201 11.1052559556448  2.51260780170401 7.49070099943557  2.51260780170401 7.49070099943557  C 2.51260780170401 7.49070099943557  5.93177733720654 7.64543998572765  5.93177733720654 7.64543998572765  C 5.93177733720654 7.64543998572765  8.56635482953857 6.68867357752754  8.56635482953857 6.68867357752754  C 8.56635482953857 6.68867357752754  8.77557937438405 5.82562233003955  8.77557937438405 5.82562233003955  C 8.77557937438405 5.82562233003955  10.2539159609905 5.38537901692698  10.2539159609905 5.38537901692698  C 10.2539159609905 5.38537901692698  10.7577066413423 3.26480107802328  10.7577066413423 3.26480107802328  C 10.7577066413423 3.26480107802328  12.5306093634549 2.85942852238489  12.5306093634549 2.85942852238489  C 12.5306093634549 2.85942852238489  13.7253916327047 1.1725556295674  13.7253916327047 1.1725556295674  Z " stroke-width="2" stroke="#505050" fill="none" stroke-opacity="0.211764705882353" transform="matrix(1 0 0 1 1922 1690 )" mask="url(#clip745)" />
  </g>
</svg>