<?xml version="1.0" encoding="utf-8"?>
<svg version="1.1" xmlns:xlink="http://www.w3.org/1999/xlink" width="26px" height="25px" xmlns="http://www.w3.org/2000/svg">
  <defs>
    <mask fill="white" id="clip749">
      <path d="M 18.0546534375399 21.2950577355309  C 18.0546534375399 21.2950577355309  16.2074209429163 23.3551853810498  16.2074209429163 23.3551853810498  C 16.2074209429163 23.3551853810498  14.1289402671478 22.8780065945602  14.1289402671478 22.8780065945602  C 14.1289402671478 22.8780065945602  6.57072505605265 20.2833469430209  6.57072505605265 20.2833469430209  C 6.57072505605265 20.2833469430209  2.55141143138758 16.8306831273128  2.55141143138758 16.8306831273128  C 2.55141143138758 16.8306831273128  1.1997107535035 14.4723187402375  1.1997107535035 14.4723187402375  C 1.1997107535035 14.4723187402375  0.255447347160953 8.03157007989019  0.255447347160953 8.03157007989019  C 0.255447347160953 8.03157007989019  4.37937324424888 5.18455626241916  4.37937324424888 5.18455626241916  C 4.37937324424888 5.18455626241916  5.27133051438 3.38825342673848  5.27133051438 3.38825342673848  C 5.27133051438 3.38825342673848  6.58999573781466 1.98883487020529  6.58999573781466 1.98883487020529  C 6.58999573781466 1.98883487020529  8.71527664071982 1.84201062820838  8.71527664071982 1.84201062820838  C 8.71527664071982 1.84201062820838  10.5157089082068 0.619239987828072  10.5157089082068 0.619239987828072  C 10.5157089082068 0.619239987828072  18.6878329811516 0.6261223741717  18.6878329811516 0.6261223741717  C 18.6878329811516 0.6261223741717  20.8351375203561 2.94548657196666  20.8351375203561 2.94548657196666  C 20.8351375203561 2.94548657196666  22.5089338791208 5.66861743525275  22.5089338791208 5.66861743525275  C 22.5089338791208 5.66861743525275  22.2584150162136 7.55209716461915  22.2584150162136 7.55209716461915  C 22.2584150162136 7.55209716461915  23.4999975126 9.2428700763647  23.4999975126 9.2428700763647  C 23.4999975126 9.2428700763647  23.4119029674018 13.2793717740124  23.4119029674018 13.2793717740124  C 23.4119029674018 13.2793717740124  25.537183870307 12.9100170402391  25.537183870307 12.9100170402391  C 25.537183870307 12.9100170402391  21.9445781989452 15.9222081299568  21.9445781989452 15.9222081299568  C 21.9445781989452 15.9222081299568  18.4620907090814 19.4230486500703  18.4620907090814 19.4230486500703  C 18.4620907090814 19.4230486500703  18.0546534375399 21.2950577355309  18.0546534375399 21.2950577355309  Z " fill-rule="evenodd" />
    </mask>
  </defs>
  <g transform="matrix(1 0 0 1 -1690 -1971 )">
    <path d="M 18.0546534375399 21.2950577355309  C 18.0546534375399 21.2950577355309  16.2074209429163 23.3551853810498  16.2074209429163 23.3551853810498  C 16.2074209429163 23.3551853810498  14.1289402671478 22.8780065945602  14.1289402671478 22.8780065945602  C 14.1289402671478 22.8780065945602  6.57072505605265 20.2833469430209  6.57072505605265 20.2833469430209  C 6.57072505605265 20.2833469430209  2.55141143138758 16.8306831273128  2.55141143138758 16.8306831273128  C 2.55141143138758 16.8306831273128  1.1997107535035 14.4723187402375  1.1997107535035 14.4723187402375  C 1.1997107535035 14.4723187402375  0.255447347160953 8.03157007989019  0.255447347160953 8.03157007989019  C 0.255447347160953 8.03157007989019  4.37937324424888 5.18455626241916  4.37937324424888 5.18455626241916  C 4.37937324424888 5.18455626241916  5.27133051438 3.38825342673848  5.27133051438 3.38825342673848  C 5.27133051438 3.38825342673848  6.58999573781466 1.98883487020529  6.58999573781466 1.98883487020529  C 6.58999573781466 1.98883487020529  8.71527664071982 1.84201062820838  8.71527664071982 1.84201062820838  C 8.71527664071982 1.84201062820838  10.5157089082068 0.619239987828072  10.5157089082068 0.619239987828072  C 10.5157089082068 0.619239987828072  18.6878329811516 0.6261223741717  18.6878329811516 0.6261223741717  C 18.6878329811516 0.6261223741717  20.8351375203561 2.94548657196666  20.8351375203561 2.94548657196666  C 20.8351375203561 2.94548657196666  22.5089338791208 5.66861743525275  22.5089338791208 5.66861743525275  C 22.5089338791208 5.66861743525275  22.2584150162136 7.55209716461915  22.2584150162136 7.55209716461915  C 22.2584150162136 7.55209716461915  23.4999975126 9.2428700763647  23.4999975126 9.2428700763647  C 23.4999975126 9.2428700763647  23.4119029674018 13.2793717740124  23.4119029674018 13.2793717740124  C 23.4119029674018 13.2793717740124  25.537183870307 12.9100170402391  25.537183870307 12.9100170402391  C 25.537183870307 12.9100170402391  21.9445781989452 15.9222081299568  21.9445781989452 15.9222081299568  C 21.9445781989452 15.9222081299568  18.4620907090814 19.4230486500703  18.4620907090814 19.4230486500703  C 18.4620907090814 19.4230486500703  18.0546534375399 21.2950577355309  18.0546534375399 21.2950577355309  Z " fill-rule="nonzero" fill="#f2f2f2" stroke="none" transform="matrix(1 0 0 1 1690 1971 )" />
    <path d="M 18.0546534375399 21.2950577355309  C 18.0546534375399 21.2950577355309  16.2074209429163 23.3551853810498  16.2074209429163 23.3551853810498  C 16.2074209429163 23.3551853810498  14.1289402671478 22.8780065945602  14.1289402671478 22.8780065945602  C 14.1289402671478 22.8780065945602  6.57072505605265 20.2833469430209  6.57072505605265 20.2833469430209  C 6.57072505605265 20.2833469430209  2.55141143138758 16.8306831273128  2.55141143138758 16.8306831273128  C 2.55141143138758 16.8306831273128  1.1997107535035 14.4723187402375  1.1997107535035 14.4723187402375  C 1.1997107535035 14.4723187402375  0.255447347160953 8.03157007989019  0.255447347160953 8.03157007989019  C 0.255447347160953 8.03157007989019  4.37937324424888 5.18455626241916  4.37937324424888 5.18455626241916  C 4.37937324424888 5.18455626241916  5.27133051438 3.38825342673848  5.27133051438 3.38825342673848  C 5.27133051438 3.38825342673848  6.58999573781466 1.98883487020529  6.58999573781466 1.98883487020529  C 6.58999573781466 1.98883487020529  8.71527664071982 1.84201062820838  8.71527664071982 1.84201062820838  C 8.71527664071982 1.84201062820838  10.5157089082068 0.619239987828072  10.5157089082068 0.619239987828072  C 10.5157089082068 0.619239987828072  18.6878329811516 0.6261223741717  18.6878329811516 0.6261223741717  C 18.6878329811516 0.6261223741717  20.8351375203561 2.94548657196666  20.8351375203561 2.94548657196666  C 20.8351375203561 2.94548657196666  22.5089338791208 5.66861743525275  22.5089338791208 5.66861743525275  C 22.5089338791208 5.66861743525275  22.2584150162136 7.55209716461915  22.2584150162136 7.55209716461915  C 22.2584150162136 7.55209716461915  23.4999975126 9.2428700763647  23.4999975126 9.2428700763647  C 23.4999975126 9.2428700763647  23.4119029674018 13.2793717740124  23.4119029674018 13.2793717740124  C 23.4119029674018 13.2793717740124  25.537183870307 12.9100170402391  25.537183870307 12.9100170402391  C 25.537183870307 12.9100170402391  21.9445781989452 15.9222081299568  21.9445781989452 15.9222081299568  C 21.9445781989452 15.9222081299568  18.4620907090814 19.4230486500703  18.4620907090814 19.4230486500703  C 18.4620907090814 19.4230486500703  18.0546534375399 21.2950577355309  18.0546534375399 21.2950577355309  Z " stroke-width="2" stroke="#505050" fill="none" stroke-opacity="0.211764705882353" transform="matrix(1 0 0 1 1690 1971 )" mask="url(#clip749)" />
  </g>
</svg>