<?xml version="1.0" encoding="utf-8"?>
<svg version="1.1" xmlns:xlink="http://www.w3.org/1999/xlink" width="49px" height="29px" xmlns="http://www.w3.org/2000/svg">
  <defs>
    <mask fill="white" id="clip750">
      <path d="M 15.5807715616683 20.3858589913066  C 15.5807715616683 20.3858589913066  7.34139886746783 20.5581359884126  7.34139886746783 20.5581359884126  C 7.34139886746783 20.5581359884126  4.22263173109057 15.8604364087841  4.22263173109057 15.8604364087841  C 4.22263173109057 15.8604364087841  0.44827600116706 12.1806581554828  0.44827600116706 12.1806581554828  C 0.44827600116706 12.1806581554828  3.77478108693944 11.0314445284448  3.77478108693944 11.0314445284448  C 3.77478108693944 11.0314445284448  7.44122099899545 6.77074025854922  7.44122099899545 6.77074025854922  C 7.44122099899545 6.77074025854922  9.23801936649308 3.64664398175698  9.23801936649308 3.64664398175698  C 9.23801936649308 3.64664398175698  11.8279989953184 1.69066978290437  11.8279989953184 1.69066978290437  C 11.8279989953184 1.69066978290437  15.5861673525619 2.2180054691688  15.5861673525619 2.2180054691688  C 15.5861673525619 2.2180054691688  19.276888323638 0.888111089068101  19.276888323638 0.888111089068101  C 19.276888323638 0.888111089068101  23.5017925931592 0.818780102427893  23.5017925931592 0.818780102427893  C 23.5017925931592 0.818780102427893  29.076972491728 2.61508293810877  29.076972491728 2.61508293810877  C 29.076972491728 2.61508293810877  34.0977559180236 4.22860408173763  34.0977559180236 4.22860408173763  C 34.0977559180236 4.22860408173763  38.6760844910619 8.70150318953254  38.6760844910619 8.70150318953254  C 38.6760844910619 8.70150318953254  43.6671910674438 12.8634633269403  43.6671910674438 12.8634633269403  C 43.6671910674438 12.8634633269403  44.0125216846206 18.1483589679145  44.0125216846206 18.1483589679145  C 44.0125216846206 18.1483589679145  45.5071557620886 21.5981007880175  45.5071557620886 21.5981007880175  C 45.5071557620886 21.5981007880175  48.3372480856696 23.2872557352542  48.3372480856696 23.2872557352542  C 48.3372480856696 23.2872557352542  48.9847429928758 25.6108942571992  48.9847429928758 25.6108942571992  C 48.9847429928758 25.6108942571992  48.6367144802525 27.4786290185096  48.6367144802525 27.4786290185096  C 48.6367144802525 27.4786290185096  47.5440668243417 27.8168801957547  47.5440668243417 27.8168801957547  C 47.5440668243417 27.8168801957547  43.4189846863482 27.3420679842178  43.4189846863482 27.3420679842178  C 43.4189846863482 27.3420679842178  42.8524266425426 28.010166582752  42.8524266425426 28.010166582752  C 42.8524266425426 28.010166582752  41.1851272564863 28.1446266780541  41.1851272564863 28.1446266780541  C 41.1851272564863 28.1446266780541  35.746170035953 26.6823731416403  35.746170035953 26.6823731416403  C 35.746170035953 26.6823731416403  32.0959174965774 26.6193449719674  32.0959174965774 26.6193449719674  C 32.0959174965774 26.6193449719674  16.155423291814 26.3693332322645  16.155423291814 26.3693332322645  C 16.155423291814 26.3693332322645  14.1293038113474 27.0437346477657  14.1293038113474 27.0437346477657  C 14.1293038113474 27.0437346477657  11.6229589413696 26.8504482607683  11.6229589413696 26.8504482607683  C 11.6229589413696 26.8504482607683  7.61658420303059 27.8273848907  7.61658420303059 27.8273848907  C 7.61658420303059 27.8273848907  6.3755522975516 23.2263285045703  6.3755522975516 23.2263285045703  C 6.3755522975516 23.2263285045703  13.2605814775123 23.3544857829054  13.2605814775123 23.3544857829054  C 13.2605814775123 23.3544857829054  15.0789630085834 22.5120092482762  15.0789630085834 22.5120092482762  C 15.0789630085834 22.5120092482762  16.4333065228233 22.4615867125376  16.4333065228233 22.4615867125376  C 16.4333065228233 22.4615867125376  19.2364198919374 21.0728660407424  19.2364198919374 21.0728660407424  C 19.2364198919374 21.0728660407424  22.4819881143092 22.3439341291482  22.4819881143092 22.3439341291482  C 22.4819881143092 22.3439341291482  27.7280247683813 22.4510820175923  27.7280247683813 22.4510820175923  C 27.7280247683813 22.4510820175923  31.0032698406667 21.1001782476007  31.0032698406667 21.1001782476007  C 31.0032698406667 21.1001782476007  29.4735631223917 19.3584998256364  29.4735631223917 19.3584998256364  C 29.4735631223917 19.3584998256364  26.9807077296473 20.3732533573719  26.9807077296473 20.3732533573719  C 26.9807077296473 20.3732533573719  22.6735386910243 20.3459411505136  22.6735386910243 20.3459411505136  C 22.6735386910243 20.3459411505136  19.6869684315351 18.8626782242089  19.6869684315351 18.8626782242089  C 19.6869684315351 18.8626782242089  17.288539379425 18.9593214177074  17.288539379425 18.9593214177074  C 17.288539379425 18.9593214177074  15.5807715616683 20.3858589913066  15.5807715616683 20.3858589913066  Z " fill-rule="evenodd" />
    </mask>
  </defs>
  <g transform="matrix(1 0 0 1 -1656 -1932 )">
    <path d="M 15.5807715616683 20.3858589913066  C 15.5807715616683 20.3858589913066  7.34139886746783 20.5581359884126  7.34139886746783 20.5581359884126  C 7.34139886746783 20.5581359884126  4.22263173109057 15.8604364087841  4.22263173109057 15.8604364087841  C 4.22263173109057 15.8604364087841  0.44827600116706 12.1806581554828  0.44827600116706 12.1806581554828  C 0.44827600116706 12.1806581554828  3.77478108693944 11.0314445284448  3.77478108693944 11.0314445284448  C 3.77478108693944 11.0314445284448  7.44122099899545 6.77074025854922  7.44122099899545 6.77074025854922  C 7.44122099899545 6.77074025854922  9.23801936649308 3.64664398175698  9.23801936649308 3.64664398175698  C 9.23801936649308 3.64664398175698  11.8279989953184 1.69066978290437  11.8279989953184 1.69066978290437  C 11.8279989953184 1.69066978290437  15.5861673525619 2.2180054691688  15.5861673525619 2.2180054691688  C 15.5861673525619 2.2180054691688  19.276888323638 0.888111089068101  19.276888323638 0.888111089068101  C 19.276888323638 0.888111089068101  23.5017925931592 0.818780102427893  23.5017925931592 0.818780102427893  C 23.5017925931592 0.818780102427893  29.076972491728 2.61508293810877  29.076972491728 2.61508293810877  C 29.076972491728 2.61508293810877  34.0977559180236 4.22860408173763  34.0977559180236 4.22860408173763  C 34.0977559180236 4.22860408173763  38.6760844910619 8.70150318953254  38.6760844910619 8.70150318953254  C 38.6760844910619 8.70150318953254  43.6671910674438 12.8634633269403  43.6671910674438 12.8634633269403  C 43.6671910674438 12.8634633269403  44.0125216846206 18.1483589679145  44.0125216846206 18.1483589679145  C 44.0125216846206 18.1483589679145  45.5071557620886 21.5981007880175  45.5071557620886 21.5981007880175  C 45.5071557620886 21.5981007880175  48.3372480856696 23.2872557352542  48.3372480856696 23.2872557352542  C 48.3372480856696 23.2872557352542  48.9847429928758 25.6108942571992  48.9847429928758 25.6108942571992  C 48.9847429928758 25.6108942571992  48.6367144802525 27.4786290185096  48.6367144802525 27.4786290185096  C 48.6367144802525 27.4786290185096  47.5440668243417 27.8168801957547  47.5440668243417 27.8168801957547  C 47.5440668243417 27.8168801957547  43.4189846863482 27.3420679842178  43.4189846863482 27.3420679842178  C 43.4189846863482 27.3420679842178  42.8524266425426 28.010166582752  42.8524266425426 28.010166582752  C 42.8524266425426 28.010166582752  41.1851272564863 28.1446266780541  41.1851272564863 28.1446266780541  C 41.1851272564863 28.1446266780541  35.746170035953 26.6823731416403  35.746170035953 26.6823731416403  C 35.746170035953 26.6823731416403  32.0959174965774 26.6193449719674  32.0959174965774 26.6193449719674  C 32.0959174965774 26.6193449719674  16.155423291814 26.3693332322645  16.155423291814 26.3693332322645  C 16.155423291814 26.3693332322645  14.1293038113474 27.0437346477657  14.1293038113474 27.0437346477657  C 14.1293038113474 27.0437346477657  11.6229589413696 26.8504482607683  11.6229589413696 26.8504482607683  C 11.6229589413696 26.8504482607683  7.61658420303059 27.8273848907  7.61658420303059 27.8273848907  C 7.61658420303059 27.8273848907  6.3755522975516 23.2263285045703  6.3755522975516 23.2263285045703  C 6.3755522975516 23.2263285045703  13.2605814775123 23.3544857829054  13.2605814775123 23.3544857829054  C 13.2605814775123 23.3544857829054  15.0789630085834 22.5120092482762  15.0789630085834 22.5120092482762  C 15.0789630085834 22.5120092482762  16.4333065228233 22.4615867125376  16.4333065228233 22.4615867125376  C 16.4333065228233 22.4615867125376  19.2364198919374 21.0728660407424  19.2364198919374 21.0728660407424  C 19.2364198919374 21.0728660407424  22.4819881143092 22.3439341291482  22.4819881143092 22.3439341291482  C 22.4819881143092 22.3439341291482  27.7280247683813 22.4510820175923  27.7280247683813 22.4510820175923  C 27.7280247683813 22.4510820175923  31.0032698406667 21.1001782476007  31.0032698406667 21.1001782476007  C 31.0032698406667 21.1001782476007  29.4735631223917 19.3584998256364  29.4735631223917 19.3584998256364  C 29.4735631223917 19.3584998256364  26.9807077296473 20.3732533573719  26.9807077296473 20.3732533573719  C 26.9807077296473 20.3732533573719  22.6735386910243 20.3459411505136  22.6735386910243 20.3459411505136  C 22.6735386910243 20.3459411505136  19.6869684315351 18.8626782242089  19.6869684315351 18.8626782242089  C 19.6869684315351 18.8626782242089  17.288539379425 18.9593214177074  17.288539379425 18.9593214177074  C 17.288539379425 18.9593214177074  15.5807715616683 20.3858589913066  15.5807715616683 20.3858589913066  Z " fill-rule="nonzero" fill="#f2f2f2" stroke="none" transform="matrix(1 0 0 1 1656 1932 )" />
    <path d="M 15.5807715616683 20.3858589913066  C 15.5807715616683 20.3858589913066  7.34139886746783 20.5581359884126  7.34139886746783 20.5581359884126  C 7.34139886746783 20.5581359884126  4.22263173109057 15.8604364087841  4.22263173109057 15.8604364087841  C 4.22263173109057 15.8604364087841  0.44827600116706 12.1806581554828  0.44827600116706 12.1806581554828  C 0.44827600116706 12.1806581554828  3.77478108693944 11.0314445284448  3.77478108693944 11.0314445284448  C 3.77478108693944 11.0314445284448  7.44122099899545 6.77074025854922  7.44122099899545 6.77074025854922  C 7.44122099899545 6.77074025854922  9.23801936649308 3.64664398175698  9.23801936649308 3.64664398175698  C 9.23801936649308 3.64664398175698  11.8279989953184 1.69066978290437  11.8279989953184 1.69066978290437  C 11.8279989953184 1.69066978290437  15.5861673525619 2.2180054691688  15.5861673525619 2.2180054691688  C 15.5861673525619 2.2180054691688  19.276888323638 0.888111089068101  19.276888323638 0.888111089068101  C 19.276888323638 0.888111089068101  23.5017925931592 0.818780102427893  23.5017925931592 0.818780102427893  C 23.5017925931592 0.818780102427893  29.076972491728 2.61508293810877  29.076972491728 2.61508293810877  C 29.076972491728 2.61508293810877  34.0977559180236 4.22860408173763  34.0977559180236 4.22860408173763  C 34.0977559180236 4.22860408173763  38.6760844910619 8.70150318953254  38.6760844910619 8.70150318953254  C 38.6760844910619 8.70150318953254  43.6671910674438 12.8634633269403  43.6671910674438 12.8634633269403  C 43.6671910674438 12.8634633269403  44.0125216846206 18.1483589679145  44.0125216846206 18.1483589679145  C 44.0125216846206 18.1483589679145  45.5071557620886 21.5981007880175  45.5071557620886 21.5981007880175  C 45.5071557620886 21.5981007880175  48.3372480856696 23.2872557352542  48.3372480856696 23.2872557352542  C 48.3372480856696 23.2872557352542  48.9847429928758 25.6108942571992  48.9847429928758 25.6108942571992  C 48.9847429928758 25.6108942571992  48.6367144802525 27.4786290185096  48.6367144802525 27.4786290185096  C 48.6367144802525 27.4786290185096  47.5440668243417 27.8168801957547  47.5440668243417 27.8168801957547  C 47.5440668243417 27.8168801957547  43.4189846863482 27.3420679842178  43.4189846863482 27.3420679842178  C 43.4189846863482 27.3420679842178  42.8524266425426 28.010166582752  42.8524266425426 28.010166582752  C 42.8524266425426 28.010166582752  41.1851272564863 28.1446266780541  41.1851272564863 28.1446266780541  C 41.1851272564863 28.1446266780541  35.746170035953 26.6823731416403  35.746170035953 26.6823731416403  C 35.746170035953 26.6823731416403  32.0959174965774 26.6193449719674  32.0959174965774 26.6193449719674  C 32.0959174965774 26.6193449719674  16.155423291814 26.3693332322645  16.155423291814 26.3693332322645  C 16.155423291814 26.3693332322645  14.1293038113474 27.0437346477657  14.1293038113474 27.0437346477657  C 14.1293038113474 27.0437346477657  11.6229589413696 26.8504482607683  11.6229589413696 26.8504482607683  C 11.6229589413696 26.8504482607683  7.61658420303059 27.8273848907  7.61658420303059 27.8273848907  C 7.61658420303059 27.8273848907  6.3755522975516 23.2263285045703  6.3755522975516 23.2263285045703  C 6.3755522975516 23.2263285045703  13.2605814775123 23.3544857829054  13.2605814775123 23.3544857829054  C 13.2605814775123 23.3544857829054  15.0789630085834 22.5120092482762  15.0789630085834 22.5120092482762  C 15.0789630085834 22.5120092482762  16.4333065228233 22.4615867125376  16.4333065228233 22.4615867125376  C 16.4333065228233 22.4615867125376  19.2364198919374 21.0728660407424  19.2364198919374 21.0728660407424  C 19.2364198919374 21.0728660407424  22.4819881143092 22.3439341291482  22.4819881143092 22.3439341291482  C 22.4819881143092 22.3439341291482  27.7280247683813 22.4510820175923  27.7280247683813 22.4510820175923  C 27.7280247683813 22.4510820175923  31.0032698406667 21.1001782476007  31.0032698406667 21.1001782476007  C 31.0032698406667 21.1001782476007  29.4735631223917 19.3584998256364  29.4735631223917 19.3584998256364  C 29.4735631223917 19.3584998256364  26.9807077296473 20.3732533573719  26.9807077296473 20.3732533573719  C 26.9807077296473 20.3732533573719  22.6735386910243 20.3459411505136  22.6735386910243 20.3459411505136  C 22.6735386910243 20.3459411505136  19.6869684315351 18.8626782242089  19.6869684315351 18.8626782242089  C 19.6869684315351 18.8626782242089  17.288539379425 18.9593214177074  17.288539379425 18.9593214177074  C 17.288539379425 18.9593214177074  15.5807715616683 20.3858589913066  15.5807715616683 20.3858589913066  Z " stroke-width="2" stroke="#505050" fill="none" stroke-opacity="0.211764705882353" transform="matrix(1 0 0 1 1656 1932 )" mask="url(#clip750)" />
  </g>
</svg>