<?xml version="1.0" encoding="utf-8"?>
<svg version="1.1" xmlns:xlink="http://www.w3.org/1999/xlink" width="81px" height="86px" xmlns="http://www.w3.org/2000/svg">
  <defs>
    <mask fill="white" id="clip751">
      <path d="M 79.504971678978 6.26077125887093  C 79.504971678978 6.26077125887093  80.2092915965512 2.70300297583759  80.2092915965512 2.70300297583759  C 80.2092915965512 2.70300297583759  80.0379705355197 1.0091350758089  80.0379705355197 1.0091350758089  C 80.0379705355197 1.0091350758089  77.1445481714357 1.02420124518647  77.1445481714357 1.02420124518647  C 77.1445481714357 1.02420124518647  73.5359283620941 3.12270340850002  73.5359283620941 3.12270340850002  C 73.5359283620941 3.12270340850002  69.4949268272924 3.73826404307229  69.4949268272924 3.73826404307229  C 69.4949268272924 3.73826404307229  65.9814853851905 4.64653882555276  65.9814853851905 4.64653882555276  C 65.9814853851905 4.64653882555276  63.5449191838564 4.76922049048466  63.5449191838564 4.76922049048466  C 63.5449191838564 4.76922049048466  59.202066255809 4.9822991716827  59.202066255809 4.9822991716827  C 59.202066255809 4.9822991716827  56.4772455708354 6.0993480155389  56.4772455708354 6.0993480155389  C 56.4772455708354 6.0993480155389  52.6973047004624 6.50182996891313  52.6973047004624 6.50182996891313  C 52.6973047004624 6.50182996891313  45.9858701191092 8.39801500058425  45.9858701191092 8.39801500058425  C 45.9858701191092 8.39801500058425  35.7107067397182 9.12119113071049  35.7107067397182 9.12119113071049  C 35.7107067397182 9.12119113071049  28.5233803221673 10.6816158162517  28.5233803221673 10.6816158162517  C 28.5233803221673 10.6816158162517  24.7380006879518 10.6622450270518  24.7380006879518 10.6622450270518  C 24.7380006879518 10.6622450270518  21.2979825577203 8.10745316258667  21.2979825577203 8.10745316258667  C 21.2979825577203 8.10745316258667  19.8023225010982 5.58279363687704  19.8023225010982 5.58279363687704  C 19.8023225010982 5.58279363687704  17.322246189026 4.45498324346559  17.322246189026 4.45498324346559  C 17.322246189026 4.45498324346559  14.5131246644967 7.72434199841268  14.5131246644967 7.72434199841268  C 14.5131246644967 7.72434199841268  12.8515823106856 9.88741345905918  12.8515823106856 9.88741345905918  C 12.8515823106856 9.88741345905918  15.6661425990568 13.2428646104497  15.6661425990568 13.2428646104497  C 15.6661425990568 13.2428646104497  18.4779835055066 16.1721583994446  18.4779835055066 16.1721583994446  C 18.4779835055066 16.1721583994446  21.3904415430389 18.339534479913  21.3904415430389 18.339534479913  C 21.3904415430389 18.339534479913  48.2946253701504 25.5368588226012  48.2946253701504 25.5368588226012  C 48.2946253701504 25.5368588226012  54.7096473220998 25.4981172442014  54.7096473220998 25.4981172442014  C 54.7096473220998 25.4981172442014  31.1856552229549 45.1755938195792  31.1856552229549 45.1755938195792  C 31.1856552229549 45.1755938195792  21.2544724469821 45.4403279386432  21.2544724469821 45.4403279386432  C 21.2544724469821 45.4403279386432  14.4587370260742 49.6782261535814  14.4587370260742 49.6782261535814  C 14.4587370260742 49.6782261535814  9.56928833187963 49.7901462689581  9.56928833187963 49.7901462689581  C 9.56928833187963 49.7901462689581  7.4835223983714 51.6841789907182  7.4835223983714 51.6841789907182  C 7.4835223983714 51.6841789907182  0.82103669159923 58.4962398593211  0.82103669159923 58.4962398593211  C 0.82103669159923 58.4962398593211  0.910776294996439 80.3378808370717  0.910776294996439 80.3378808370717  C 0.910776294996439 80.3378808370717  5.42766966599632 85.2860413226699  5.42766966599632 85.2860413226699  C 5.42766966599632 85.2860413226699  7.14903842207239 83.8655167813499  7.14903842207239 83.8655167813499  C 7.14903842207239 83.8655167813499  8.90575914312358 80.7037735219572  8.90575914312358 80.7037735219572  C 8.90575914312358 80.7037735219572  17.2515422590766 73.4418798819364  17.2515422590766 73.4418798819364  C 17.2515422590766 73.4418798819364  24.3572872189933 68.8832874902458  24.3572872189933 68.8832874902458  C 24.3572872189933 68.8832874902458  35.7650943781407 62.9299982761684  35.7650943781407 62.9299982761684  C 35.7650943781407 62.9299982761684  45.3685704230127 58.072234806836  45.3685704230127 58.072234806836  C 45.3685704230127 58.072234806836  54.3370919989047 49.8783909753129  54.3370919989047 49.8783909753129  C 54.3370919989047 49.8783909753129  60.8472923180937 41.5801768998732  60.8472923180937 41.5801768998732  C 60.8472923180937 41.5801768998732  67.3901252203364 32.7427924049337  67.3901252203364 32.7427924049337  C 67.3901252203364 32.7427924049337  72.105533471579 25.0224567538503  72.105533471579 25.0224567538503  C 72.105533471579 25.0224567538503  75.7739796831855 18.2491374636473  75.7739796831855 18.2491374636473  C 75.7739796831855 18.2491374636473  77.9222914008792 11.6738306852646  77.9222914008792 11.6738306852646  C 77.9222914008792 11.6738306852646  79.5348848801103 9.46986533630738  79.5348848801103 9.46986533630738  C 79.5348848801103 9.46986533630738  79.504971678978 6.26077125887093  79.504971678978 6.26077125887093  Z " fill-rule="evenodd" />
    </mask>
  </defs>
  <g transform="matrix(1 0 0 1 -2106 -1960 )">
    <path d="M 79.504971678978 6.26077125887093  C 79.504971678978 6.26077125887093  80.2092915965512 2.70300297583759  80.2092915965512 2.70300297583759  C 80.2092915965512 2.70300297583759  80.0379705355197 1.0091350758089  80.0379705355197 1.0091350758089  C 80.0379705355197 1.0091350758089  77.1445481714357 1.02420124518647  77.1445481714357 1.02420124518647  C 77.1445481714357 1.02420124518647  73.5359283620941 3.12270340850002  73.5359283620941 3.12270340850002  C 73.5359283620941 3.12270340850002  69.4949268272924 3.73826404307229  69.4949268272924 3.73826404307229  C 69.4949268272924 3.73826404307229  65.9814853851905 4.64653882555276  65.9814853851905 4.64653882555276  C 65.9814853851905 4.64653882555276  63.5449191838564 4.76922049048466  63.5449191838564 4.76922049048466  C 63.5449191838564 4.76922049048466  59.202066255809 4.9822991716827  59.202066255809 4.9822991716827  C 59.202066255809 4.9822991716827  56.4772455708354 6.0993480155389  56.4772455708354 6.0993480155389  C 56.4772455708354 6.0993480155389  52.6973047004624 6.50182996891313  52.6973047004624 6.50182996891313  C 52.6973047004624 6.50182996891313  45.9858701191092 8.39801500058425  45.9858701191092 8.39801500058425  C 45.9858701191092 8.39801500058425  35.7107067397182 9.12119113071049  35.7107067397182 9.12119113071049  C 35.7107067397182 9.12119113071049  28.5233803221673 10.6816158162517  28.5233803221673 10.6816158162517  C 28.5233803221673 10.6816158162517  24.7380006879518 10.6622450270518  24.7380006879518 10.6622450270518  C 24.7380006879518 10.6622450270518  21.2979825577203 8.10745316258667  21.2979825577203 8.10745316258667  C 21.2979825577203 8.10745316258667  19.8023225010982 5.58279363687704  19.8023225010982 5.58279363687704  C 19.8023225010982 5.58279363687704  17.322246189026 4.45498324346559  17.322246189026 4.45498324346559  C 17.322246189026 4.45498324346559  14.5131246644967 7.72434199841268  14.5131246644967 7.72434199841268  C 14.5131246644967 7.72434199841268  12.8515823106856 9.88741345905918  12.8515823106856 9.88741345905918  C 12.8515823106856 9.88741345905918  15.6661425990568 13.2428646104497  15.6661425990568 13.2428646104497  C 15.6661425990568 13.2428646104497  18.4779835055066 16.1721583994446  18.4779835055066 16.1721583994446  C 18.4779835055066 16.1721583994446  21.3904415430389 18.339534479913  21.3904415430389 18.339534479913  C 21.3904415430389 18.339534479913  48.2946253701504 25.5368588226012  48.2946253701504 25.5368588226012  C 48.2946253701504 25.5368588226012  54.7096473220998 25.4981172442014  54.7096473220998 25.4981172442014  C 54.7096473220998 25.4981172442014  31.1856552229549 45.1755938195792  31.1856552229549 45.1755938195792  C 31.1856552229549 45.1755938195792  21.2544724469821 45.4403279386432  21.2544724469821 45.4403279386432  C 21.2544724469821 45.4403279386432  14.4587370260742 49.6782261535814  14.4587370260742 49.6782261535814  C 14.4587370260742 49.6782261535814  9.56928833187963 49.7901462689581  9.56928833187963 49.7901462689581  C 9.56928833187963 49.7901462689581  7.4835223983714 51.6841789907182  7.4835223983714 51.6841789907182  C 7.4835223983714 51.6841789907182  0.82103669159923 58.4962398593211  0.82103669159923 58.4962398593211  C 0.82103669159923 58.4962398593211  0.910776294996439 80.3378808370717  0.910776294996439 80.3378808370717  C 0.910776294996439 80.3378808370717  5.42766966599632 85.2860413226699  5.42766966599632 85.2860413226699  C 5.42766966599632 85.2860413226699  7.14903842207239 83.8655167813499  7.14903842207239 83.8655167813499  C 7.14903842207239 83.8655167813499  8.90575914312358 80.7037735219572  8.90575914312358 80.7037735219572  C 8.90575914312358 80.7037735219572  17.2515422590766 73.4418798819364  17.2515422590766 73.4418798819364  C 17.2515422590766 73.4418798819364  24.3572872189933 68.8832874902458  24.3572872189933 68.8832874902458  C 24.3572872189933 68.8832874902458  35.7650943781407 62.9299982761684  35.7650943781407 62.9299982761684  C 35.7650943781407 62.9299982761684  45.3685704230127 58.072234806836  45.3685704230127 58.072234806836  C 45.3685704230127 58.072234806836  54.3370919989047 49.8783909753129  54.3370919989047 49.8783909753129  C 54.3370919989047 49.8783909753129  60.8472923180937 41.5801768998732  60.8472923180937 41.5801768998732  C 60.8472923180937 41.5801768998732  67.3901252203364 32.7427924049337  67.3901252203364 32.7427924049337  C 67.3901252203364 32.7427924049337  72.105533471579 25.0224567538503  72.105533471579 25.0224567538503  C 72.105533471579 25.0224567538503  75.7739796831855 18.2491374636473  75.7739796831855 18.2491374636473  C 75.7739796831855 18.2491374636473  77.9222914008792 11.6738306852646  77.9222914008792 11.6738306852646  C 77.9222914008792 11.6738306852646  79.5348848801103 9.46986533630738  79.5348848801103 9.46986533630738  C 79.5348848801103 9.46986533630738  79.504971678978 6.26077125887093  79.504971678978 6.26077125887093  Z " fill-rule="nonzero" fill="#f2f2f2" stroke="none" transform="matrix(1 0 0 1 2106 1960 )" />
    <path d="M 79.504971678978 6.26077125887093  C 79.504971678978 6.26077125887093  80.2092915965512 2.70300297583759  80.2092915965512 2.70300297583759  C 80.2092915965512 2.70300297583759  80.0379705355197 1.0091350758089  80.0379705355197 1.0091350758089  C 80.0379705355197 1.0091350758089  77.1445481714357 1.02420124518647  77.1445481714357 1.02420124518647  C 77.1445481714357 1.02420124518647  73.5359283620941 3.12270340850002  73.5359283620941 3.12270340850002  C 73.5359283620941 3.12270340850002  69.4949268272924 3.73826404307229  69.4949268272924 3.73826404307229  C 69.4949268272924 3.73826404307229  65.9814853851905 4.64653882555276  65.9814853851905 4.64653882555276  C 65.9814853851905 4.64653882555276  63.5449191838564 4.76922049048466  63.5449191838564 4.76922049048466  C 63.5449191838564 4.76922049048466  59.202066255809 4.9822991716827  59.202066255809 4.9822991716827  C 59.202066255809 4.9822991716827  56.4772455708354 6.0993480155389  56.4772455708354 6.0993480155389  C 56.4772455708354 6.0993480155389  52.6973047004624 6.50182996891313  52.6973047004624 6.50182996891313  C 52.6973047004624 6.50182996891313  45.9858701191092 8.39801500058425  45.9858701191092 8.39801500058425  C 45.9858701191092 8.39801500058425  35.7107067397182 9.12119113071049  35.7107067397182 9.12119113071049  C 35.7107067397182 9.12119113071049  28.5233803221673 10.6816158162517  28.5233803221673 10.6816158162517  C 28.5233803221673 10.6816158162517  24.7380006879518 10.6622450270518  24.7380006879518 10.6622450270518  C 24.7380006879518 10.6622450270518  21.2979825577203 8.10745316258667  21.2979825577203 8.10745316258667  C 21.2979825577203 8.10745316258667  19.8023225010982 5.58279363687704  19.8023225010982 5.58279363687704  C 19.8023225010982 5.58279363687704  17.322246189026 4.45498324346559  17.322246189026 4.45498324346559  C 17.322246189026 4.45498324346559  14.5131246644967 7.72434199841268  14.5131246644967 7.72434199841268  C 14.5131246644967 7.72434199841268  12.8515823106856 9.88741345905918  12.8515823106856 9.88741345905918  C 12.8515823106856 9.88741345905918  15.6661425990568 13.2428646104497  15.6661425990568 13.2428646104497  C 15.6661425990568 13.2428646104497  18.4779835055066 16.1721583994446  18.4779835055066 16.1721583994446  C 18.4779835055066 16.1721583994446  21.3904415430389 18.339534479913  21.3904415430389 18.339534479913  C 21.3904415430389 18.339534479913  48.2946253701504 25.5368588226012  48.2946253701504 25.5368588226012  C 48.2946253701504 25.5368588226012  54.7096473220998 25.4981172442014  54.7096473220998 25.4981172442014  C 54.7096473220998 25.4981172442014  31.1856552229549 45.1755938195792  31.1856552229549 45.1755938195792  C 31.1856552229549 45.1755938195792  21.2544724469821 45.4403279386432  21.2544724469821 45.4403279386432  C 21.2544724469821 45.4403279386432  14.4587370260742 49.6782261535814  14.4587370260742 49.6782261535814  C 14.4587370260742 49.6782261535814  9.56928833187963 49.7901462689581  9.56928833187963 49.7901462689581  C 9.56928833187963 49.7901462689581  7.4835223983714 51.6841789907182  7.4835223983714 51.6841789907182  C 7.4835223983714 51.6841789907182  0.82103669159923 58.4962398593211  0.82103669159923 58.4962398593211  C 0.82103669159923 58.4962398593211  0.910776294996439 80.3378808370717  0.910776294996439 80.3378808370717  C 0.910776294996439 80.3378808370717  5.42766966599632 85.2860413226699  5.42766966599632 85.2860413226699  C 5.42766966599632 85.2860413226699  7.14903842207239 83.8655167813499  7.14903842207239 83.8655167813499  C 7.14903842207239 83.8655167813499  8.90575914312358 80.7037735219572  8.90575914312358 80.7037735219572  C 8.90575914312358 80.7037735219572  17.2515422590766 73.4418798819364  17.2515422590766 73.4418798819364  C 17.2515422590766 73.4418798819364  24.3572872189933 68.8832874902458  24.3572872189933 68.8832874902458  C 24.3572872189933 68.8832874902458  35.7650943781407 62.9299982761684  35.7650943781407 62.9299982761684  C 35.7650943781407 62.9299982761684  45.3685704230127 58.072234806836  45.3685704230127 58.072234806836  C 45.3685704230127 58.072234806836  54.3370919989047 49.8783909753129  54.3370919989047 49.8783909753129  C 54.3370919989047 49.8783909753129  60.8472923180937 41.5801768998732  60.8472923180937 41.5801768998732  C 60.8472923180937 41.5801768998732  67.3901252203364 32.7427924049337  67.3901252203364 32.7427924049337  C 67.3901252203364 32.7427924049337  72.105533471579 25.0224567538503  72.105533471579 25.0224567538503  C 72.105533471579 25.0224567538503  75.7739796831855 18.2491374636473  75.7739796831855 18.2491374636473  C 75.7739796831855 18.2491374636473  77.9222914008792 11.6738306852646  77.9222914008792 11.6738306852646  C 77.9222914008792 11.6738306852646  79.5348848801103 9.46986533630738  79.5348848801103 9.46986533630738  C 79.5348848801103 9.46986533630738  79.504971678978 6.26077125887093  79.504971678978 6.26077125887093  Z " stroke-width="2" stroke="#505050" fill="none" stroke-opacity="0.211764705882353" transform="matrix(1 0 0 1 2106 1960 )" mask="url(#clip751)" />
  </g>
</svg>