<?xml version="1.0" encoding="utf-8"?>
<svg version="1.1" xmlns:xlink="http://www.w3.org/1999/xlink" width="36px" height="29px" xmlns="http://www.w3.org/2000/svg">
  <defs>
    <mask fill="white" id="clip752">
      <path d="M 6.15544379158928 7.04138274906635  C 6.15544379158928 7.04138274906635  7.38876742436332 1.75331931350053  7.38876742436332 1.75331931350053  C 7.38876742436332 1.75331931350053  18.6359417156307 2.93194608638581  18.6359417156307 2.93194608638581  C 18.6359417156307 2.93194608638581  19.467333985938 1.87097189689033  19.467333985938 1.87097189689033  C 19.467333985938 1.87097189689033  25.7082819223187 1.44658222109207  25.7082819223187 1.44658222109207  C 25.7082819223187 1.44658222109207  34.0056868981687 3.02648834089566  34.0056868981687 3.02648834089566  C 34.0056868981687 3.02648834089566  29.989126228041 8.07924660968188  29.989126228041 8.07924660968188  C 29.989126228041 8.07924660968188  30.6002821353532 12.0962419568419  30.6002821353532 12.0962419568419  C 30.6002821353532 12.0962419568419  33.6312850810766 17.0975108342876  33.6312850810766 17.0975108342876  C 33.6312850810766 17.0975108342876  32.2795844031925 19.6207385601972  32.2795844031925 19.6207385601972  C 32.2795844031925 19.6207385601972  31.602357586982 22.2994357713002  31.602357586982 22.2994357713002  C 31.602357586982 22.2994357713002  29.6339950927111 24.7638372055149  29.6339950927111 24.7638372055149  C 29.6339950927111 24.7638372055149  25.2127501055793 23.5221822629567  25.2127501055793 23.5221822629567  C 25.2127501055793 23.5221822629567  21.5650853434688 24.1209498748504  21.5650853434688 24.1209498748504  C 21.5650853434688 24.1209498748504  18.451493761622 23.5999170055533  18.451493761622 23.5999170055533  C 18.451493761622 23.5999170055533  15.6806664911383 25.2953747697573  15.6806664911383 25.2953747697573  C 15.6806664911383 25.2953747697573  18.9745551237361 26.459294969719  18.9745551237361 26.459294969719  C 18.9745551237361 26.459294969719  18.2808105803006 27.6568301935062  18.2808105803006 27.6568301935062  C 18.2808105803006 27.6568301935062  12.0825549107019 27.1778161039914  12.0825549107019 27.1778161039914  C 12.0825549107019 27.1778161039914  7.36949674260109 22.0851399944119  7.36949674260109 22.0851399944119  C 7.36949674260109 22.0851399944119  6.35640947282263 18.778262025568  6.35640947282263 18.778262025568  C 6.35640947282263 18.778262025568  3.88425629819972 18.7719592086006  3.88425629819972 18.7719592086006  C 3.88425629819972 18.7719592086006  0.462333808159656 12.9870400882204  0.462333808159656 12.9870400882204  C 0.462333808159656 12.9870400882204  1.88561130401695 9.95958700492696  1.88561130401695 9.95958700492696  C 1.88561130401695 9.95958700492696  1.46991516886328 8.57506821110969  1.46991516886328 8.57506821110969  C 1.46991516886328 8.57506821110969  6.15544379158928 7.04138274906635  6.15544379158928 7.04138274906635  Z " fill-rule="evenodd" />
    </mask>
  </defs>
  <g transform="matrix(1 0 0 1 -1345 -1994 )">
    <path d="M 6.15544379158928 7.04138274906635  C 6.15544379158928 7.04138274906635  7.38876742436332 1.75331931350053  7.38876742436332 1.75331931350053  C 7.38876742436332 1.75331931350053  18.6359417156307 2.93194608638581  18.6359417156307 2.93194608638581  C 18.6359417156307 2.93194608638581  19.467333985938 1.87097189689033  19.467333985938 1.87097189689033  C 19.467333985938 1.87097189689033  25.7082819223187 1.44658222109207  25.7082819223187 1.44658222109207  C 25.7082819223187 1.44658222109207  34.0056868981687 3.02648834089566  34.0056868981687 3.02648834089566  C 34.0056868981687 3.02648834089566  29.989126228041 8.07924660968188  29.989126228041 8.07924660968188  C 29.989126228041 8.07924660968188  30.6002821353532 12.0962419568419  30.6002821353532 12.0962419568419  C 30.6002821353532 12.0962419568419  33.6312850810766 17.0975108342876  33.6312850810766 17.0975108342876  C 33.6312850810766 17.0975108342876  32.2795844031925 19.6207385601972  32.2795844031925 19.6207385601972  C 32.2795844031925 19.6207385601972  31.602357586982 22.2994357713002  31.602357586982 22.2994357713002  C 31.602357586982 22.2994357713002  29.6339950927111 24.7638372055149  29.6339950927111 24.7638372055149  C 29.6339950927111 24.7638372055149  25.2127501055793 23.5221822629567  25.2127501055793 23.5221822629567  C 25.2127501055793 23.5221822629567  21.5650853434688 24.1209498748504  21.5650853434688 24.1209498748504  C 21.5650853434688 24.1209498748504  18.451493761622 23.5999170055533  18.451493761622 23.5999170055533  C 18.451493761622 23.5999170055533  15.6806664911383 25.2953747697573  15.6806664911383 25.2953747697573  C 15.6806664911383 25.2953747697573  18.9745551237361 26.459294969719  18.9745551237361 26.459294969719  C 18.9745551237361 26.459294969719  18.2808105803006 27.6568301935062  18.2808105803006 27.6568301935062  C 18.2808105803006 27.6568301935062  12.0825549107019 27.1778161039914  12.0825549107019 27.1778161039914  C 12.0825549107019 27.1778161039914  7.36949674260109 22.0851399944119  7.36949674260109 22.0851399944119  C 7.36949674260109 22.0851399944119  6.35640947282263 18.778262025568  6.35640947282263 18.778262025568  C 6.35640947282263 18.778262025568  3.88425629819972 18.7719592086006  3.88425629819972 18.7719592086006  C 3.88425629819972 18.7719592086006  0.462333808159656 12.9870400882204  0.462333808159656 12.9870400882204  C 0.462333808159656 12.9870400882204  1.88561130401695 9.95958700492696  1.88561130401695 9.95958700492696  C 1.88561130401695 9.95958700492696  1.46991516886328 8.57506821110969  1.46991516886328 8.57506821110969  C 1.46991516886328 8.57506821110969  6.15544379158928 7.04138274906635  6.15544379158928 7.04138274906635  Z " fill-rule="nonzero" fill="#f2f2f2" stroke="none" transform="matrix(1 0 0 1 1345 1994 )" />
    <path d="M 6.15544379158928 7.04138274906635  C 6.15544379158928 7.04138274906635  7.38876742436332 1.75331931350053  7.38876742436332 1.75331931350053  C 7.38876742436332 1.75331931350053  18.6359417156307 2.93194608638581  18.6359417156307 2.93194608638581  C 18.6359417156307 2.93194608638581  19.467333985938 1.87097189689033  19.467333985938 1.87097189689033  C 19.467333985938 1.87097189689033  25.7082819223187 1.44658222109207  25.7082819223187 1.44658222109207  C 25.7082819223187 1.44658222109207  34.0056868981687 3.02648834089566  34.0056868981687 3.02648834089566  C 34.0056868981687 3.02648834089566  29.989126228041 8.07924660968188  29.989126228041 8.07924660968188  C 29.989126228041 8.07924660968188  30.6002821353532 12.0962419568419  30.6002821353532 12.0962419568419  C 30.6002821353532 12.0962419568419  33.6312850810766 17.0975108342876  33.6312850810766 17.0975108342876  C 33.6312850810766 17.0975108342876  32.2795844031925 19.6207385601972  32.2795844031925 19.6207385601972  C 32.2795844031925 19.6207385601972  31.602357586982 22.2994357713002  31.602357586982 22.2994357713002  C 31.602357586982 22.2994357713002  29.6339950927111 24.7638372055149  29.6339950927111 24.7638372055149  C 29.6339950927111 24.7638372055149  25.2127501055793 23.5221822629567  25.2127501055793 23.5221822629567  C 25.2127501055793 23.5221822629567  21.5650853434688 24.1209498748504  21.5650853434688 24.1209498748504  C 21.5650853434688 24.1209498748504  18.451493761622 23.5999170055533  18.451493761622 23.5999170055533  C 18.451493761622 23.5999170055533  15.6806664911383 25.2953747697573  15.6806664911383 25.2953747697573  C 15.6806664911383 25.2953747697573  18.9745551237361 26.459294969719  18.9745551237361 26.459294969719  C 18.9745551237361 26.459294969719  18.2808105803006 27.6568301935062  18.2808105803006 27.6568301935062  C 18.2808105803006 27.6568301935062  12.0825549107019 27.1778161039914  12.0825549107019 27.1778161039914  C 12.0825549107019 27.1778161039914  7.36949674260109 22.0851399944119  7.36949674260109 22.0851399944119  C 7.36949674260109 22.0851399944119  6.35640947282263 18.778262025568  6.35640947282263 18.778262025568  C 6.35640947282263 18.778262025568  3.88425629819972 18.7719592086006  3.88425629819972 18.7719592086006  C 3.88425629819972 18.7719592086006  0.462333808159656 12.9870400882204  0.462333808159656 12.9870400882204  C 0.462333808159656 12.9870400882204  1.88561130401695 9.95958700492696  1.88561130401695 9.95958700492696  C 1.88561130401695 9.95958700492696  1.46991516886328 8.57506821110969  1.46991516886328 8.57506821110969  C 1.46991516886328 8.57506821110969  6.15544379158928 7.04138274906635  6.15544379158928 7.04138274906635  Z " stroke-width="2" stroke="#505050" fill="none" stroke-opacity="0.211764705882353" transform="matrix(1 0 0 1 1345 1994 )" mask="url(#clip752)" />
  </g>
</svg>