<?xml version="1.0" encoding="utf-8"?>
<svg version="1.1" xmlns:xlink="http://www.w3.org/1999/xlink" width="91px" height="55px" xmlns="http://www.w3.org/2000/svg">
  <defs>
    <mask fill="white" id="clip753">
      <path d="M 78.7279973255268 17.6634323054933  C 78.7279973255268 17.6634323054933  79.7845333995267 17.7811975829281  79.7845333995267 17.7811975829281  C 79.7845333995267 17.7811975829281  79.8743934264389 22.4076906250181  79.8743934264389 22.4076906250181  C 79.8743934264389 22.4076906250181  78.7334433877641 24.2162288141985  78.7334433877641 24.2162288141985  C 78.7334433877641 24.2162288141985  74.6788500522331 24.3613324596097  74.6788500522331 24.3613324596097  C 74.6788500522331 24.3613324596097  72.0783553340111 29.258038352582  72.0783553340111 29.258038352582  C 72.0783553340111 29.258038352582  76.7701379512843 29.6828345319011  76.7701379512843 29.6828345319011  C 76.7701379512843 29.6828345319011  80.6368421396346 32.5617749749105  80.6368421396346 32.5617749749105  C 80.6368421396346 32.5617749749105  81.9765734499647 34.9212864263763  81.9765734499647 34.9212864263763  C 81.9765734499647 34.9212864263763  85.4620532817174 36.2903077765583  85.4620532817174 36.2903077765583  C 85.4620532817174 36.2903077765583  89.9768388762841 42.6980006398527  89.9768388762841 42.6980006398527  C 89.9768388762841 42.6980006398527  84.8003567199081 46.5737400382946  84.8003567199081 46.5737400382946  C 84.8003567199081 46.5737400382946  80.1031280403976 50.0835658961346  80.1031280403976 50.0835658961346  C 80.1031280403976 50.0835658961346  75.408622392006 52.7837554716086  75.408622392006 52.7837554716086  C 75.408622392006 52.7837554716086  70.0360819950936 52.7690348119293  70.0360819950936 52.7690348119293  C 70.0360819950936 52.7690348119293  63.8902007605114 54.1443650162596  63.8902007605114 54.1443650162596  C 63.8902007605114 54.1443650162596  59.0350362761247 52.8321233534125  59.0350362761247 52.8321233534125  C 59.0350362761247 52.8321233534125  55.8926583653104 54.4303664043162  55.8926583653104 54.4303664043162  C 55.8926583653104 54.4303664043162  49.1694945335943 50.5293915892814  49.1694945335943 50.5293915892814  C 49.1694945335943 50.5293915892814  47.3559558086353 48.0226735410218  47.3559558086353 48.0226735410218  C 47.3559558086353 48.0226735410218  41.1270433630028 49.263414856855  41.1270433630028 49.263414856855  C 41.1270433630028 49.263414856855  37.595272002235 48.8785747538084  37.595272002235 48.8785747538084  C 37.595272002235 48.8785747538084  35.5529986633175 49.8648589523265  35.5529986633175 49.8648589523265  C 35.5529986633175 49.8648589523265  32.1247024850547 49.1519584335681  32.1247024850547 49.1519584335681  C 32.1247024850547 49.1519584335681  27.4982726146268 44.3004495935221  27.4982726146268 44.3004495935221  C 27.4982726146268 44.3004495935221  26.2701855801577 42.4351317170067  26.2701855801577 42.4351317170067  C 26.2701855801577 42.4351317170067  20.5627123556628 40.1050615848999  20.5627123556628 40.1050615848999  C 20.5627123556628 40.1050615848999  18.6348063237249 36.5700003104666  18.6348063237249 36.5700003104666  C 18.6348063237249 36.5700003104666  15.4543059772507 34.0170173317861  15.4543059772507 34.0170173317861  C 15.4543059772507 34.0170173317861  10.318669287653 30.9425024101789  10.318669287653 30.9425024101789  C 10.318669287653 30.9425024101789  10.2478704785705 29.0204048463289  10.2478704785705 29.0204048463289  C 10.2478704785705 29.0204048463289  6.0680177115859 25.1036742977268  6.0680177115859 25.1036742977268  C 6.0680177115859 25.1036742977268  0.875197368498458 22.790427776682  0.875197368498458 22.790427776682  C 0.875197368498458 22.790427776682  3.21700413045722 22.1448217021721  3.21700413045722 22.1448217021721  C 3.21700413045722 22.1448217021721  5.83928309762724 21.0260515665395  5.83928309762724 21.0260515665395  C 5.83928309762724 21.0260515665395  7.80531156522521 15.7266140819637  7.80531156522521 15.7266140819637  C 7.80531156522521 15.7266140819637  9.90204552651369 12.9675418677721  9.90204552651369 12.9675418677721  C 9.90204552651369 12.9675418677721  15.4080144482354 12.1515967312577  15.4080144482354 12.1515967312577  C 15.4080144482354 12.1515967312577  16.7177924162611 13.7855899556687  16.7177924162611 13.7855899556687  C 16.7177924162611 13.7855899556687  20.6498493514568 17.2554597372361  20.6498493514568 17.2554597372361  C 20.6498493514568 17.2554597372361  22.7493063438639 17.7643739718662  22.7493063438639 17.7643739718662  C 22.7493063438639 17.7643739718662  25.4995677736063 16.7465455026061  25.4995677736063 16.7465455026061  C 25.4995677736063 16.7465455026061  31.0055366953278 16.9505317867348  31.0055366953278 16.9505317867348  C 31.0055366953278 16.9505317867348  32.053903675972 18.1744494915056  32.053903675972 18.1744494915056  C 32.053903675972 18.1744494915056  39.6566065589822 18.1744494915056  39.6566065589822 18.1744494915056  C 39.6566065589822 18.1744494915056  39.9180175463637 16.9505317867348  39.9180175463637 16.9505317867348  C 39.9180175463637 16.9505317867348  43.8500744815594 15.8275557483365  43.8500744815594 15.8275557483365  C 43.8500744815594 15.8275557483365  46.6152913443878 14.0926208575527  46.6152913443878 14.0926208575527  C 46.6152913443878 14.0926208575527  49.4989812989396 12.8644972500162  49.4989812989396 12.8644972500162  C 49.4989812989396 12.8644972500162  55.9226117076144 16.3385729343492  55.9226117076144 16.3385729343492  C 55.9226117076144 16.3385729343492  59.8546686428105 15.7266140819637  59.8546686428105 15.7266140819637  C 59.8546686428105 15.7266140819637  63.6560200843155 11.434490309734  63.6560200843155 11.434490309734  C 63.6560200843155 11.434490309734  67.8494880068929 8.15809205538134  67.8494880068929 8.15809205538134  C 67.8494880068929 8.15809205538134  67.1932375073204 4.56835404499609  67.1932375073204 4.56835404499609  C 67.1932375073204 4.56835404499609  65.3606375645318 2.82080144591592  65.3606375645318 2.82080144591592  C 65.3606375645318 2.82080144591592  69.9462219681814 2.51166759264897  69.9462219681814 2.51166759264897  C 69.9462219681814 2.51166759264897  70.4717669740632 1.17419051320828  70.4717669740632 1.17419051320828  C 70.4717669740632 1.17419051320828  74.008984397068 1.58636898423077  74.008984397068 1.58636898423077  C 74.008984397068 1.58636898423077  73.0913229101145 6.00466983942665  73.0913229101145 6.00466983942665  C 73.0913229101145 6.00466983942665  74.008984397068 10.309411319953  74.008984397068 10.309411319953  C 74.008984397068 10.309411319953  77.9410413322636 12.6605109658878  77.9410413322636 12.6605109658878  C 77.9410413322636 12.6605109658878  78.8587028192175 14.7045797099382  78.8587028192175 14.7045797099382  C 78.8587028192175 14.7045797099382  78.7279973255268 17.6634323054933  78.7279973255268 17.6634323054933  Z " fill-rule="evenodd" />
    </mask>
  </defs>
  <g transform="matrix(1 0 0 1 -1976 -1958 )">
    <path d="M 78.7279973255268 17.6634323054933  C 78.7279973255268 17.6634323054933  79.7845333995267 17.7811975829281  79.7845333995267 17.7811975829281  C 79.7845333995267 17.7811975829281  79.8743934264389 22.4076906250181  79.8743934264389 22.4076906250181  C 79.8743934264389 22.4076906250181  78.7334433877641 24.2162288141985  78.7334433877641 24.2162288141985  C 78.7334433877641 24.2162288141985  74.6788500522331 24.3613324596097  74.6788500522331 24.3613324596097  C 74.6788500522331 24.3613324596097  72.0783553340111 29.258038352582  72.0783553340111 29.258038352582  C 72.0783553340111 29.258038352582  76.7701379512843 29.6828345319011  76.7701379512843 29.6828345319011  C 76.7701379512843 29.6828345319011  80.6368421396346 32.5617749749105  80.6368421396346 32.5617749749105  C 80.6368421396346 32.5617749749105  81.9765734499647 34.9212864263763  81.9765734499647 34.9212864263763  C 81.9765734499647 34.9212864263763  85.4620532817174 36.2903077765583  85.4620532817174 36.2903077765583  C 85.4620532817174 36.2903077765583  89.9768388762841 42.6980006398527  89.9768388762841 42.6980006398527  C 89.9768388762841 42.6980006398527  84.8003567199081 46.5737400382946  84.8003567199081 46.5737400382946  C 84.8003567199081 46.5737400382946  80.1031280403976 50.0835658961346  80.1031280403976 50.0835658961346  C 80.1031280403976 50.0835658961346  75.408622392006 52.7837554716086  75.408622392006 52.7837554716086  C 75.408622392006 52.7837554716086  70.0360819950936 52.7690348119293  70.0360819950936 52.7690348119293  C 70.0360819950936 52.7690348119293  63.8902007605114 54.1443650162596  63.8902007605114 54.1443650162596  C 63.8902007605114 54.1443650162596  59.0350362761247 52.8321233534125  59.0350362761247 52.8321233534125  C 59.0350362761247 52.8321233534125  55.8926583653104 54.4303664043162  55.8926583653104 54.4303664043162  C 55.8926583653104 54.4303664043162  49.1694945335943 50.5293915892814  49.1694945335943 50.5293915892814  C 49.1694945335943 50.5293915892814  47.3559558086353 48.0226735410218  47.3559558086353 48.0226735410218  C 47.3559558086353 48.0226735410218  41.1270433630028 49.263414856855  41.1270433630028 49.263414856855  C 41.1270433630028 49.263414856855  37.595272002235 48.8785747538084  37.595272002235 48.8785747538084  C 37.595272002235 48.8785747538084  35.5529986633175 49.8648589523265  35.5529986633175 49.8648589523265  C 35.5529986633175 49.8648589523265  32.1247024850547 49.1519584335681  32.1247024850547 49.1519584335681  C 32.1247024850547 49.1519584335681  27.4982726146268 44.3004495935221  27.4982726146268 44.3004495935221  C 27.4982726146268 44.3004495935221  26.2701855801577 42.4351317170067  26.2701855801577 42.4351317170067  C 26.2701855801577 42.4351317170067  20.5627123556628 40.1050615848999  20.5627123556628 40.1050615848999  C 20.5627123556628 40.1050615848999  18.6348063237249 36.5700003104666  18.6348063237249 36.5700003104666  C 18.6348063237249 36.5700003104666  15.4543059772507 34.0170173317861  15.4543059772507 34.0170173317861  C 15.4543059772507 34.0170173317861  10.318669287653 30.9425024101789  10.318669287653 30.9425024101789  C 10.318669287653 30.9425024101789  10.2478704785705 29.0204048463289  10.2478704785705 29.0204048463289  C 10.2478704785705 29.0204048463289  6.0680177115859 25.1036742977268  6.0680177115859 25.1036742977268  C 6.0680177115859 25.1036742977268  0.875197368498458 22.790427776682  0.875197368498458 22.790427776682  C 0.875197368498458 22.790427776682  3.21700413045722 22.1448217021721  3.21700413045722 22.1448217021721  C 3.21700413045722 22.1448217021721  5.83928309762724 21.0260515665395  5.83928309762724 21.0260515665395  C 5.83928309762724 21.0260515665395  7.80531156522521 15.7266140819637  7.80531156522521 15.7266140819637  C 7.80531156522521 15.7266140819637  9.90204552651369 12.9675418677721  9.90204552651369 12.9675418677721  C 9.90204552651369 12.9675418677721  15.4080144482354 12.1515967312577  15.4080144482354 12.1515967312577  C 15.4080144482354 12.1515967312577  16.7177924162611 13.7855899556687  16.7177924162611 13.7855899556687  C 16.7177924162611 13.7855899556687  20.6498493514568 17.2554597372361  20.6498493514568 17.2554597372361  C 20.6498493514568 17.2554597372361  22.7493063438639 17.7643739718662  22.7493063438639 17.7643739718662  C 22.7493063438639 17.7643739718662  25.4995677736063 16.7465455026061  25.4995677736063 16.7465455026061  C 25.4995677736063 16.7465455026061  31.0055366953278 16.9505317867348  31.0055366953278 16.9505317867348  C 31.0055366953278 16.9505317867348  32.053903675972 18.1744494915056  32.053903675972 18.1744494915056  C 32.053903675972 18.1744494915056  39.6566065589822 18.1744494915056  39.6566065589822 18.1744494915056  C 39.6566065589822 18.1744494915056  39.9180175463637 16.9505317867348  39.9180175463637 16.9505317867348  C 39.9180175463637 16.9505317867348  43.8500744815594 15.8275557483365  43.8500744815594 15.8275557483365  C 43.8500744815594 15.8275557483365  46.6152913443878 14.0926208575527  46.6152913443878 14.0926208575527  C 46.6152913443878 14.0926208575527  49.4989812989396 12.8644972500162  49.4989812989396 12.8644972500162  C 49.4989812989396 12.8644972500162  55.9226117076144 16.3385729343492  55.9226117076144 16.3385729343492  C 55.9226117076144 16.3385729343492  59.8546686428105 15.7266140819637  59.8546686428105 15.7266140819637  C 59.8546686428105 15.7266140819637  63.6560200843155 11.434490309734  63.6560200843155 11.434490309734  C 63.6560200843155 11.434490309734  67.8494880068929 8.15809205538134  67.8494880068929 8.15809205538134  C 67.8494880068929 8.15809205538134  67.1932375073204 4.56835404499609  67.1932375073204 4.56835404499609  C 67.1932375073204 4.56835404499609  65.3606375645318 2.82080144591592  65.3606375645318 2.82080144591592  C 65.3606375645318 2.82080144591592  69.9462219681814 2.51166759264897  69.9462219681814 2.51166759264897  C 69.9462219681814 2.51166759264897  70.4717669740632 1.17419051320828  70.4717669740632 1.17419051320828  C 70.4717669740632 1.17419051320828  74.008984397068 1.58636898423077  74.008984397068 1.58636898423077  C 74.008984397068 1.58636898423077  73.0913229101145 6.00466983942665  73.0913229101145 6.00466983942665  C 73.0913229101145 6.00466983942665  74.008984397068 10.309411319953  74.008984397068 10.309411319953  C 74.008984397068 10.309411319953  77.9410413322636 12.6605109658878  77.9410413322636 12.6605109658878  C 77.9410413322636 12.6605109658878  78.8587028192175 14.7045797099382  78.8587028192175 14.7045797099382  C 78.8587028192175 14.7045797099382  78.7279973255268 17.6634323054933  78.7279973255268 17.6634323054933  Z " fill-rule="nonzero" fill="#f2f2f2" stroke="none" transform="matrix(1 0 0 1 1976 1958 )" />
    <path d="M 78.7279973255268 17.6634323054933  C 78.7279973255268 17.6634323054933  79.7845333995267 17.7811975829281  79.7845333995267 17.7811975829281  C 79.7845333995267 17.7811975829281  79.8743934264389 22.4076906250181  79.8743934264389 22.4076906250181  C 79.8743934264389 22.4076906250181  78.7334433877641 24.2162288141985  78.7334433877641 24.2162288141985  C 78.7334433877641 24.2162288141985  74.6788500522331 24.3613324596097  74.6788500522331 24.3613324596097  C 74.6788500522331 24.3613324596097  72.0783553340111 29.258038352582  72.0783553340111 29.258038352582  C 72.0783553340111 29.258038352582  76.7701379512843 29.6828345319011  76.7701379512843 29.6828345319011  C 76.7701379512843 29.6828345319011  80.6368421396346 32.5617749749105  80.6368421396346 32.5617749749105  C 80.6368421396346 32.5617749749105  81.9765734499647 34.9212864263763  81.9765734499647 34.9212864263763  C 81.9765734499647 34.9212864263763  85.4620532817174 36.2903077765583  85.4620532817174 36.2903077765583  C 85.4620532817174 36.2903077765583  89.9768388762841 42.6980006398527  89.9768388762841 42.6980006398527  C 89.9768388762841 42.6980006398527  84.8003567199081 46.5737400382946  84.8003567199081 46.5737400382946  C 84.8003567199081 46.5737400382946  80.1031280403976 50.0835658961346  80.1031280403976 50.0835658961346  C 80.1031280403976 50.0835658961346  75.408622392006 52.7837554716086  75.408622392006 52.7837554716086  C 75.408622392006 52.7837554716086  70.0360819950936 52.7690348119293  70.0360819950936 52.7690348119293  C 70.0360819950936 52.7690348119293  63.8902007605114 54.1443650162596  63.8902007605114 54.1443650162596  C 63.8902007605114 54.1443650162596  59.0350362761247 52.8321233534125  59.0350362761247 52.8321233534125  C 59.0350362761247 52.8321233534125  55.8926583653104 54.4303664043162  55.8926583653104 54.4303664043162  C 55.8926583653104 54.4303664043162  49.1694945335943 50.5293915892814  49.1694945335943 50.5293915892814  C 49.1694945335943 50.5293915892814  47.3559558086353 48.0226735410218  47.3559558086353 48.0226735410218  C 47.3559558086353 48.0226735410218  41.1270433630028 49.263414856855  41.1270433630028 49.263414856855  C 41.1270433630028 49.263414856855  37.595272002235 48.8785747538084  37.595272002235 48.8785747538084  C 37.595272002235 48.8785747538084  35.5529986633175 49.8648589523265  35.5529986633175 49.8648589523265  C 35.5529986633175 49.8648589523265  32.1247024850547 49.1519584335681  32.1247024850547 49.1519584335681  C 32.1247024850547 49.1519584335681  27.4982726146268 44.3004495935221  27.4982726146268 44.3004495935221  C 27.4982726146268 44.3004495935221  26.2701855801577 42.4351317170067  26.2701855801577 42.4351317170067  C 26.2701855801577 42.4351317170067  20.5627123556628 40.1050615848999  20.5627123556628 40.1050615848999  C 20.5627123556628 40.1050615848999  18.6348063237249 36.5700003104666  18.6348063237249 36.5700003104666  C 18.6348063237249 36.5700003104666  15.4543059772507 34.0170173317861  15.4543059772507 34.0170173317861  C 15.4543059772507 34.0170173317861  10.318669287653 30.9425024101789  10.318669287653 30.9425024101789  C 10.318669287653 30.9425024101789  10.2478704785705 29.0204048463289  10.2478704785705 29.0204048463289  C 10.2478704785705 29.0204048463289  6.0680177115859 25.1036742977268  6.0680177115859 25.1036742977268  C 6.0680177115859 25.1036742977268  0.875197368498458 22.790427776682  0.875197368498458 22.790427776682  C 0.875197368498458 22.790427776682  3.21700413045722 22.1448217021721  3.21700413045722 22.1448217021721  C 3.21700413045722 22.1448217021721  5.83928309762724 21.0260515665395  5.83928309762724 21.0260515665395  C 5.83928309762724 21.0260515665395  7.80531156522521 15.7266140819637  7.80531156522521 15.7266140819637  C 7.80531156522521 15.7266140819637  9.90204552651369 12.9675418677721  9.90204552651369 12.9675418677721  C 9.90204552651369 12.9675418677721  15.4080144482354 12.1515967312577  15.4080144482354 12.1515967312577  C 15.4080144482354 12.1515967312577  16.7177924162611 13.7855899556687  16.7177924162611 13.7855899556687  C 16.7177924162611 13.7855899556687  20.6498493514568 17.2554597372361  20.6498493514568 17.2554597372361  C 20.6498493514568 17.2554597372361  22.7493063438639 17.7643739718662  22.7493063438639 17.7643739718662  C 22.7493063438639 17.7643739718662  25.4995677736063 16.7465455026061  25.4995677736063 16.7465455026061  C 25.4995677736063 16.7465455026061  31.0055366953278 16.9505317867348  31.0055366953278 16.9505317867348  C 31.0055366953278 16.9505317867348  32.053903675972 18.1744494915056  32.053903675972 18.1744494915056  C 32.053903675972 18.1744494915056  39.6566065589822 18.1744494915056  39.6566065589822 18.1744494915056  C 39.6566065589822 18.1744494915056  39.9180175463637 16.9505317867348  39.9180175463637 16.9505317867348  C 39.9180175463637 16.9505317867348  43.8500744815594 15.8275557483365  43.8500744815594 15.8275557483365  C 43.8500744815594 15.8275557483365  46.6152913443878 14.0926208575527  46.6152913443878 14.0926208575527  C 46.6152913443878 14.0926208575527  49.4989812989396 12.8644972500162  49.4989812989396 12.8644972500162  C 49.4989812989396 12.8644972500162  55.9226117076144 16.3385729343492  55.9226117076144 16.3385729343492  C 55.9226117076144 16.3385729343492  59.8546686428105 15.7266140819637  59.8546686428105 15.7266140819637  C 59.8546686428105 15.7266140819637  63.6560200843155 11.434490309734  63.6560200843155 11.434490309734  C 63.6560200843155 11.434490309734  67.8494880068929 8.15809205538134  67.8494880068929 8.15809205538134  C 67.8494880068929 8.15809205538134  67.1932375073204 4.56835404499609  67.1932375073204 4.56835404499609  C 67.1932375073204 4.56835404499609  65.3606375645318 2.82080144591592  65.3606375645318 2.82080144591592  C 65.3606375645318 2.82080144591592  69.9462219681814 2.51166759264897  69.9462219681814 2.51166759264897  C 69.9462219681814 2.51166759264897  70.4717669740632 1.17419051320828  70.4717669740632 1.17419051320828  C 70.4717669740632 1.17419051320828  74.008984397068 1.58636898423077  74.008984397068 1.58636898423077  C 74.008984397068 1.58636898423077  73.0913229101145 6.00466983942665  73.0913229101145 6.00466983942665  C 73.0913229101145 6.00466983942665  74.008984397068 10.309411319953  74.008984397068 10.309411319953  C 74.008984397068 10.309411319953  77.9410413322636 12.6605109658878  77.9410413322636 12.6605109658878  C 77.9410413322636 12.6605109658878  78.8587028192175 14.7045797099382  78.8587028192175 14.7045797099382  C 78.8587028192175 14.7045797099382  78.7279973255268 17.6634323054933  78.7279973255268 17.6634323054933  Z " stroke-width="2" stroke="#505050" fill="none" stroke-opacity="0.211764705882353" transform="matrix(1 0 0 1 1976 1958 )" mask="url(#clip753)" />
  </g>
</svg>