<?xml version="1.0" encoding="utf-8"?>
<svg version="1.1" xmlns:xlink="http://www.w3.org/1999/xlink" width="21px" height="12px" xmlns="http://www.w3.org/2000/svg">
  <defs>
    <mask fill="white" id="clip754">
      <path d="M 20.4036209760716 6.37533165799245  C 20.4036209760716 6.37533165799245  19.8911960292161 9.08423892283554  19.8911960292161 9.08423892283554  C 19.8911960292161 9.08423892283554  19.0739439344872 10.6746600870375  19.0739439344872 10.6746600870375  C 19.0739439344872 10.6746600870375  14.8063638642638 10.573194048372  14.8063638642638 10.573194048372  C 14.8063638642638 10.573194048372  12.1522654215754 9.92664301129259  12.1522654215754 9.92664301129259  C 12.1522654215754 9.92664301129259  7.19753085399373 8.58398775546006  7.19753085399373 8.58398775546006  C 7.19753085399373 8.58398775546006  3.10338691962891 8.16396554889057  3.10338691962891 8.16396554889057  C 3.10338691962891 8.16396554889057  1.01689764884241 6.71040555312135  1.01689764884241 6.71040555312135  C 1.01689764884241 6.71040555312135  1.24551800974718 4.0050562053566  1.24551800974718 4.0050562053566  C 1.24551800974718 4.0050562053566  3.77085326066151 2.294291599946  3.77085326066151 2.294291599946  C 3.77085326066151 2.294291599946  5.15308670705158 1.54627452420105  5.15308670705158 1.54627452420105  C 5.15308670705158 1.54627452420105  4.76154149124905 0.746344591464289  4.76154149124905 0.746344591464289  C 4.76154149124905 0.746344591464289  6.48539156887641 0.328682060212486  6.48539156887641 0.328682060212486  C 6.48539156887641 0.328682060212486  8.65859890759242 0.899723487122044  8.65859890759242 0.899723487122044  C 8.65859890759242 0.899723487122044  12.1548932418157 2.25181744422571  12.1548932418157 2.25181744422571  C 12.1548932418157 2.25181744422571  14.3806569853376 3.33962776573493  14.3806569853376 3.33962776573493  C 14.3806569853376 3.33962776573493  14.653950290327 4.25046243840838  14.653950290327 4.25046243840838  C 14.653950290327 4.25046243840838  17.8861691858782 3.44581315503625  17.8861691858782 3.44581315503625  C 17.8861691858782 3.44581315503625  19.4024214645228 3.92718691986868  19.4024214645228 3.92718691986868  C 19.4024214645228 3.92718691986868  20.4036209760716 6.37533165799245  20.4036209760716 6.37533165799245  Z " fill-rule="evenodd" />
    </mask>
  </defs>
  <g transform="matrix(1 0 0 1 -1098 -1945 )">
    <path d="M 20.4036209760716 6.37533165799245  C 20.4036209760716 6.37533165799245  19.8911960292161 9.08423892283554  19.8911960292161 9.08423892283554  C 19.8911960292161 9.08423892283554  19.0739439344872 10.6746600870375  19.0739439344872 10.6746600870375  C 19.0739439344872 10.6746600870375  14.8063638642638 10.573194048372  14.8063638642638 10.573194048372  C 14.8063638642638 10.573194048372  12.1522654215754 9.92664301129259  12.1522654215754 9.92664301129259  C 12.1522654215754 9.92664301129259  7.19753085399373 8.58398775546006  7.19753085399373 8.58398775546006  C 7.19753085399373 8.58398775546006  3.10338691962891 8.16396554889057  3.10338691962891 8.16396554889057  C 3.10338691962891 8.16396554889057  1.01689764884241 6.71040555312135  1.01689764884241 6.71040555312135  C 1.01689764884241 6.71040555312135  1.24551800974718 4.0050562053566  1.24551800974718 4.0050562053566  C 1.24551800974718 4.0050562053566  3.77085326066151 2.294291599946  3.77085326066151 2.294291599946  C 3.77085326066151 2.294291599946  5.15308670705158 1.54627452420105  5.15308670705158 1.54627452420105  C 5.15308670705158 1.54627452420105  4.76154149124905 0.746344591464289  4.76154149124905 0.746344591464289  C 4.76154149124905 0.746344591464289  6.48539156887641 0.328682060212486  6.48539156887641 0.328682060212486  C 6.48539156887641 0.328682060212486  8.65859890759242 0.899723487122044  8.65859890759242 0.899723487122044  C 8.65859890759242 0.899723487122044  12.1548932418157 2.25181744422571  12.1548932418157 2.25181744422571  C 12.1548932418157 2.25181744422571  14.3806569853376 3.33962776573493  14.3806569853376 3.33962776573493  C 14.3806569853376 3.33962776573493  14.653950290327 4.25046243840838  14.653950290327 4.25046243840838  C 14.653950290327 4.25046243840838  17.8861691858782 3.44581315503625  17.8861691858782 3.44581315503625  C 17.8861691858782 3.44581315503625  19.4024214645228 3.92718691986868  19.4024214645228 3.92718691986868  C 19.4024214645228 3.92718691986868  20.4036209760716 6.37533165799245  20.4036209760716 6.37533165799245  Z " fill-rule="nonzero" fill="#f2f2f2" stroke="none" transform="matrix(1 0 0 1 1098 1945 )" />
    <path d="M 20.4036209760716 6.37533165799245  C 20.4036209760716 6.37533165799245  19.8911960292161 9.08423892283554  19.8911960292161 9.08423892283554  C 19.8911960292161 9.08423892283554  19.0739439344872 10.6746600870375  19.0739439344872 10.6746600870375  C 19.0739439344872 10.6746600870375  14.8063638642638 10.573194048372  14.8063638642638 10.573194048372  C 14.8063638642638 10.573194048372  12.1522654215754 9.92664301129259  12.1522654215754 9.92664301129259  C 12.1522654215754 9.92664301129259  7.19753085399373 8.58398775546006  7.19753085399373 8.58398775546006  C 7.19753085399373 8.58398775546006  3.10338691962891 8.16396554889057  3.10338691962891 8.16396554889057  C 3.10338691962891 8.16396554889057  1.01689764884241 6.71040555312135  1.01689764884241 6.71040555312135  C 1.01689764884241 6.71040555312135  1.24551800974718 4.0050562053566  1.24551800974718 4.0050562053566  C 1.24551800974718 4.0050562053566  3.77085326066151 2.294291599946  3.77085326066151 2.294291599946  C 3.77085326066151 2.294291599946  5.15308670705158 1.54627452420105  5.15308670705158 1.54627452420105  C 5.15308670705158 1.54627452420105  4.76154149124905 0.746344591464289  4.76154149124905 0.746344591464289  C 4.76154149124905 0.746344591464289  6.48539156887641 0.328682060212486  6.48539156887641 0.328682060212486  C 6.48539156887641 0.328682060212486  8.65859890759242 0.899723487122044  8.65859890759242 0.899723487122044  C 8.65859890759242 0.899723487122044  12.1548932418157 2.25181744422571  12.1548932418157 2.25181744422571  C 12.1548932418157 2.25181744422571  14.3806569853376 3.33962776573493  14.3806569853376 3.33962776573493  C 14.3806569853376 3.33962776573493  14.653950290327 4.25046243840838  14.653950290327 4.25046243840838  C 14.653950290327 4.25046243840838  17.8861691858782 3.44581315503625  17.8861691858782 3.44581315503625  C 17.8861691858782 3.44581315503625  19.4024214645228 3.92718691986868  19.4024214645228 3.92718691986868  C 19.4024214645228 3.92718691986868  20.4036209760716 6.37533165799245  20.4036209760716 6.37533165799245  Z " stroke-width="2" stroke="#505050" fill="none" stroke-opacity="0.211764705882353" transform="matrix(1 0 0 1 1098 1945 )" mask="url(#clip754)" />
  </g>
</svg>