<?xml version="1.0" encoding="utf-8"?>
<svg version="1.1" xmlns:xlink="http://www.w3.org/1999/xlink" width="55px" height="39px" xmlns="http://www.w3.org/2000/svg">
  <defs>
    <mask fill="white" id="clip755">
      <path d="M 43.8206182788327 23.8555040011882  C 43.8206182788327 23.8555040011882  24.3795555980064 31.3689225838654  24.3795555980064 31.3689225838654  C 24.3795555980064 31.3689225838654  8.98314754096675 38.97038065265  8.98314754096675 38.97038065265  C 8.98314754096675 38.97038065265  0.223654047943337 36.1552644017525  0.223654047943337 36.1552644017525  C 0.223654047943337 36.1552644017525  0.0750454835613086 36.1058763973509  0.0750454835613086 36.1058763973509  C 0.0750454835613086 36.1058763973509  1.14054085083021 35.0214876050526  1.14054085083021 35.0214876050526  C 1.14054085083021 35.0214876050526  1.01997163821836 32.0947115181166  1.01997163821836 32.0947115181166  C 1.01997163821836 32.0947115181166  2.9490790400111 28.1587022977543  2.9490790400111 28.1587022977543  C 2.9490790400111 28.1587022977543  7.23629592568091 25.4337728375035  7.23629592568091 25.4337728375035  C 7.23629592568091 25.4337728375035  5.94928967942695 22.584299713979  5.94928967942695 22.584299713979  C 5.94928967942695 22.584299713979  2.41352742119931 22.2128160286966  2.41352742119931 22.2128160286966  C 2.41352742119931 22.2128160286966  1.67889640481888 15.0526457904508  1.67889640481888 15.0526457904508  C 1.67889640481888 15.0526457904508  3.60239593625785 12.0206517810939  3.60239593625785 12.0206517810939  C 3.60239593625785 12.0206517810939  5.7081512542028 10.397289549455  5.7081512542028 10.397289549455  C 5.7081512542028 10.397289549455  7.81390657214822 8.7717800132771  7.81390657214822 8.7717800132771  C 7.81390657214822 8.7717800132771  8.24010471905568 4.60815651175931  8.24010471905568 4.60815651175931  C 8.24010471905568 4.60815651175931  10.8141172115636 6.06402898934004  10.8141172115636 6.06402898934004  C 10.8141172115636 6.06402898934004  19.4698651030374 3.9811435863115  19.4698651030374 3.9811435863115  C 19.4698651030374 3.9811435863115  23.6533363871571 5.39192266856904  23.6533363871571 5.39192266856904  C 23.6533363871571 5.39192266856904  32.1562479424124 5.36830231863768  32.1562479424124 5.36830231863768  C 32.1562479424124 5.36830231863768  41.2045467586692 2.5553333722796  41.2045467586692 2.5553333722796  C 41.2045467586692 2.5553333722796  45.4412928111529 2.6820243400927  45.4412928111529 2.6820243400927  C 45.4412928111529 2.6820243400927  54.3830420906828 1.5117433662261  54.3830420906828 1.5117433662261  C 54.3830420906828 1.5117433662261  50.3537872412993 6.19286726169232  50.3537872412993 6.19286726169232  C 50.3537872412993 6.19286726169232  46.0497467445673 8.03310725179065  46.0497467445673 8.03310725179065  C 46.0497467445673 8.03310725179065  46.7927895664783 13.4464619951257  46.7927895664783 13.4464619951257  C 46.7927895664783 13.4464619951257  43.8206182788327 23.8555040011882  43.8206182788327 23.8555040011882  Z " fill-rule="evenodd" />
    </mask>
  </defs>
  <g transform="matrix(1 0 0 1 -2066 -1791 )">
    <path d="M 43.8206182788327 23.8555040011882  C 43.8206182788327 23.8555040011882  24.3795555980064 31.3689225838654  24.3795555980064 31.3689225838654  C 24.3795555980064 31.3689225838654  8.98314754096675 38.97038065265  8.98314754096675 38.97038065265  C 8.98314754096675 38.97038065265  0.223654047943337 36.1552644017525  0.223654047943337 36.1552644017525  C 0.223654047943337 36.1552644017525  0.0750454835613086 36.1058763973509  0.0750454835613086 36.1058763973509  C 0.0750454835613086 36.1058763973509  1.14054085083021 35.0214876050526  1.14054085083021 35.0214876050526  C 1.14054085083021 35.0214876050526  1.01997163821836 32.0947115181166  1.01997163821836 32.0947115181166  C 1.01997163821836 32.0947115181166  2.9490790400111 28.1587022977543  2.9490790400111 28.1587022977543  C 2.9490790400111 28.1587022977543  7.23629592568091 25.4337728375035  7.23629592568091 25.4337728375035  C 7.23629592568091 25.4337728375035  5.94928967942695 22.584299713979  5.94928967942695 22.584299713979  C 5.94928967942695 22.584299713979  2.41352742119931 22.2128160286966  2.41352742119931 22.2128160286966  C 2.41352742119931 22.2128160286966  1.67889640481888 15.0526457904508  1.67889640481888 15.0526457904508  C 1.67889640481888 15.0526457904508  3.60239593625785 12.0206517810939  3.60239593625785 12.0206517810939  C 3.60239593625785 12.0206517810939  5.7081512542028 10.397289549455  5.7081512542028 10.397289549455  C 5.7081512542028 10.397289549455  7.81390657214822 8.7717800132771  7.81390657214822 8.7717800132771  C 7.81390657214822 8.7717800132771  8.24010471905568 4.60815651175931  8.24010471905568 4.60815651175931  C 8.24010471905568 4.60815651175931  10.8141172115636 6.06402898934004  10.8141172115636 6.06402898934004  C 10.8141172115636 6.06402898934004  19.4698651030374 3.9811435863115  19.4698651030374 3.9811435863115  C 19.4698651030374 3.9811435863115  23.6533363871571 5.39192266856904  23.6533363871571 5.39192266856904  C 23.6533363871571 5.39192266856904  32.1562479424124 5.36830231863768  32.1562479424124 5.36830231863768  C 32.1562479424124 5.36830231863768  41.2045467586692 2.5553333722796  41.2045467586692 2.5553333722796  C 41.2045467586692 2.5553333722796  45.4412928111529 2.6820243400927  45.4412928111529 2.6820243400927  C 45.4412928111529 2.6820243400927  54.3830420906828 1.5117433662261  54.3830420906828 1.5117433662261  C 54.3830420906828 1.5117433662261  50.3537872412993 6.19286726169232  50.3537872412993 6.19286726169232  C 50.3537872412993 6.19286726169232  46.0497467445673 8.03310725179065  46.0497467445673 8.03310725179065  C 46.0497467445673 8.03310725179065  46.7927895664783 13.4464619951257  46.7927895664783 13.4464619951257  C 46.7927895664783 13.4464619951257  43.8206182788327 23.8555040011882  43.8206182788327 23.8555040011882  Z " fill-rule="nonzero" fill="#f2f2f2" stroke="none" transform="matrix(1 0 0 1 2066 1791 )" />
    <path d="M 43.8206182788327 23.8555040011882  C 43.8206182788327 23.8555040011882  24.3795555980064 31.3689225838654  24.3795555980064 31.3689225838654  C 24.3795555980064 31.3689225838654  8.98314754096675 38.97038065265  8.98314754096675 38.97038065265  C 8.98314754096675 38.97038065265  0.223654047943337 36.1552644017525  0.223654047943337 36.1552644017525  C 0.223654047943337 36.1552644017525  0.0750454835613086 36.1058763973509  0.0750454835613086 36.1058763973509  C 0.0750454835613086 36.1058763973509  1.14054085083021 35.0214876050526  1.14054085083021 35.0214876050526  C 1.14054085083021 35.0214876050526  1.01997163821836 32.0947115181166  1.01997163821836 32.0947115181166  C 1.01997163821836 32.0947115181166  2.9490790400111 28.1587022977543  2.9490790400111 28.1587022977543  C 2.9490790400111 28.1587022977543  7.23629592568091 25.4337728375035  7.23629592568091 25.4337728375035  C 7.23629592568091 25.4337728375035  5.94928967942695 22.584299713979  5.94928967942695 22.584299713979  C 5.94928967942695 22.584299713979  2.41352742119931 22.2128160286966  2.41352742119931 22.2128160286966  C 2.41352742119931 22.2128160286966  1.67889640481888 15.0526457904508  1.67889640481888 15.0526457904508  C 1.67889640481888 15.0526457904508  3.60239593625785 12.0206517810939  3.60239593625785 12.0206517810939  C 3.60239593625785 12.0206517810939  5.7081512542028 10.397289549455  5.7081512542028 10.397289549455  C 5.7081512542028 10.397289549455  7.81390657214822 8.7717800132771  7.81390657214822 8.7717800132771  C 7.81390657214822 8.7717800132771  8.24010471905568 4.60815651175931  8.24010471905568 4.60815651175931  C 8.24010471905568 4.60815651175931  10.8141172115636 6.06402898934004  10.8141172115636 6.06402898934004  C 10.8141172115636 6.06402898934004  19.4698651030374 3.9811435863115  19.4698651030374 3.9811435863115  C 19.4698651030374 3.9811435863115  23.6533363871571 5.39192266856904  23.6533363871571 5.39192266856904  C 23.6533363871571 5.39192266856904  32.1562479424124 5.36830231863768  32.1562479424124 5.36830231863768  C 32.1562479424124 5.36830231863768  41.2045467586692 2.5553333722796  41.2045467586692 2.5553333722796  C 41.2045467586692 2.5553333722796  45.4412928111529 2.6820243400927  45.4412928111529 2.6820243400927  C 45.4412928111529 2.6820243400927  54.3830420906828 1.5117433662261  54.3830420906828 1.5117433662261  C 54.3830420906828 1.5117433662261  50.3537872412993 6.19286726169232  50.3537872412993 6.19286726169232  C 50.3537872412993 6.19286726169232  46.0497467445673 8.03310725179065  46.0497467445673 8.03310725179065  C 46.0497467445673 8.03310725179065  46.7927895664783 13.4464619951257  46.7927895664783 13.4464619951257  C 46.7927895664783 13.4464619951257  43.8206182788327 23.8555040011882  43.8206182788327 23.8555040011882  Z " stroke-width="2" stroke="#505050" fill="none" stroke-opacity="0.211764705882353" transform="matrix(1 0 0 1 2066 1791 )" mask="url(#clip755)" />
  </g>
</svg>