<?xml version="1.0" encoding="utf-8"?>
<svg version="1.1" xmlns:xlink="http://www.w3.org/1999/xlink" width="16px" height="15px" xmlns="http://www.w3.org/2000/svg">
  <defs>
    <mask fill="white" id="clip756">
      <path d="M 13.3989065582293 6.10930103514155  C 13.3989065582293 6.10930103514155  14.0596156472152 10.9372771623039  14.0596156472152 10.9372771623039  C 14.0596156472152 10.9372771623039  12.487678606336 14.1238220393927  12.487678606336 14.1238220393927  C 12.487678606336 14.1238220393927  5.97008021039369 14.9015316962205  5.97008021039369 14.9015316962205  C 5.97008021039369 14.9015316962205  1.36438726925326 11.0083951545213  1.36438726925326 11.0083951545213  C 1.36438726925326 11.0083951545213  1.29281045127959 6.86865766171915  1.29281045127959 6.86865766171915  C 1.29281045127959 6.86865766171915  3.39882067242274 4.191409374057  3.39882067242274 4.191409374057  C 3.39882067242274 4.191409374057  4.12835362484498 2.122105213413  4.12835362484498 2.122105213413  C 4.12835362484498 2.122105213413  6.35824680017276 1.61510275276745  6.35824680017276 1.61510275276745  C 6.35824680017276 1.61510275276745  12.2536774706532 2.91587377170875  12.2536774706532 2.91587377170875  C 12.2536774706532 2.91587377170875  13.3989065582293 6.10930103514155  13.3989065582293 6.10930103514155  Z " fill-rule="evenodd" />
    </mask>
  </defs>
  <g transform="matrix(1 0 0 1 -2026 -2190 )">
    <path d="M 13.3989065582293 6.10930103514155  C 13.3989065582293 6.10930103514155  14.0596156472152 10.9372771623039  14.0596156472152 10.9372771623039  C 14.0596156472152 10.9372771623039  12.487678606336 14.1238220393927  12.487678606336 14.1238220393927  C 12.487678606336 14.1238220393927  5.97008021039369 14.9015316962205  5.97008021039369 14.9015316962205  C 5.97008021039369 14.9015316962205  1.36438726925326 11.0083951545213  1.36438726925326 11.0083951545213  C 1.36438726925326 11.0083951545213  1.29281045127959 6.86865766171915  1.29281045127959 6.86865766171915  C 1.29281045127959 6.86865766171915  3.39882067242274 4.191409374057  3.39882067242274 4.191409374057  C 3.39882067242274 4.191409374057  4.12835362484498 2.122105213413  4.12835362484498 2.122105213413  C 4.12835362484498 2.122105213413  6.35824680017276 1.61510275276745  6.35824680017276 1.61510275276745  C 6.35824680017276 1.61510275276745  12.2536774706532 2.91587377170875  12.2536774706532 2.91587377170875  C 12.2536774706532 2.91587377170875  13.3989065582293 6.10930103514155  13.3989065582293 6.10930103514155  Z " fill-rule="nonzero" fill="#f2f2f2" stroke="none" transform="matrix(1 0 0 1 2026 2190 )" />
    <path d="M 13.3989065582293 6.10930103514155  C 13.3989065582293 6.10930103514155  14.0596156472152 10.9372771623039  14.0596156472152 10.9372771623039  C 14.0596156472152 10.9372771623039  12.487678606336 14.1238220393927  12.487678606336 14.1238220393927  C 12.487678606336 14.1238220393927  5.97008021039369 14.9015316962205  5.97008021039369 14.9015316962205  C 5.97008021039369 14.9015316962205  1.36438726925326 11.0083951545213  1.36438726925326 11.0083951545213  C 1.36438726925326 11.0083951545213  1.29281045127959 6.86865766171915  1.29281045127959 6.86865766171915  C 1.29281045127959 6.86865766171915  3.39882067242274 4.191409374057  3.39882067242274 4.191409374057  C 3.39882067242274 4.191409374057  4.12835362484498 2.122105213413  4.12835362484498 2.122105213413  C 4.12835362484498 2.122105213413  6.35824680017276 1.61510275276745  6.35824680017276 1.61510275276745  C 6.35824680017276 1.61510275276745  12.2536774706532 2.91587377170875  12.2536774706532 2.91587377170875  C 12.2536774706532 2.91587377170875  13.3989065582293 6.10930103514155  13.3989065582293 6.10930103514155  Z " stroke-width="2" stroke="#505050" fill="none" stroke-opacity="0.211764705882353" transform="matrix(1 0 0 1 2026 2190 )" mask="url(#clip756)" />
  </g>
</svg>