<?xml version="1.0" encoding="utf-8"?>
<svg version="1.1" xmlns:xlink="http://www.w3.org/1999/xlink" width="83px" height="102px" xmlns="http://www.w3.org/2000/svg">
  <defs>
    <mask fill="white" id="clip757">
      <path d="M 11.3270893947625 72.4552497727646  C 11.3270893947625 72.4552497727646  8.29408727967295 68.5665763543306  8.29408727967295 68.5665763543306  C 8.29408727967295 68.5665763543306  9.05573803503169 65.7011260837452  9.05573803503169 65.7011260837452  C 9.05573803503169 65.7011260837452  4.16485211311984 65.5607254023355  4.16485211311984 65.5607254023355  C 4.16485211311984 65.5607254023355  4.1838933820035 61.6358881720238  4.1838933820035 61.6358881720238  C 4.1838933820035 61.6358881720238  1.00672165964916 59.3724590050576  1.00672165964916 59.3724590050576  C 1.00672165964916 59.3724590050576  4.30086117657652 49.7433288632964  4.30086117657652 49.7433288632964  C 4.30086117657652 49.7433288632964  14.0282293950178 43.9230824339556  14.0282293950178 43.9230824339556  C 14.0282293950178 43.9230824339556  14.4308162228505 35.8479159698559  14.4308162228505 35.8479159698559  C 14.4308162228505 35.8479159698559  17.3686119935204 23.1267633209311  17.3686119935204 23.1267633209311  C 17.3686119935204 23.1267633209311  19.0279225676952 20.40809558091  19.0279225676952 20.40809558091  C 19.0279225676952 20.40809558091  15.8561912078793 18.2382668682173  15.8561912078793 18.2382668682173  C 15.8561912078793 18.2382668682173  15.7310628694986 16.2194752521924  15.7310628694986 16.2194752521924  C 15.7310628694986 16.2194752521924  12.880312899441 14.5665763210526  12.880312899441 14.5665763210526  C 12.880312899441 14.5665763210526  11.0061080050045 4.61727348844077  11.0061080050045 4.61727348844077  C 11.0061080050045 4.61727348844077  18.706941177937 1.0902381887889  18.706941177937 1.0902381887889  C 18.706941177937 1.0902381887889  51.1001986056403 13.3774250951751  51.1001986056403 13.3774250951751  C 51.1001986056403 13.3774250951751  81.5199857384219 25.5008112065835  81.5199857384219 25.5008112065835  C 81.5199857384219 25.5008112065835  81.898090934832 50.1964401533001  81.898090934832 50.1964401533001  C 81.898090934832 50.1964401533001  75.320692626054 49.764601693813  75.320692626054 49.764601693813  C 75.320692626054 49.764601693813  71.8361404202868 55.8347872901476  71.8361404202868 55.8347872901476  C 71.8361404202868 55.8347872901476  69.8204860998547 59.6192238390504  69.8204860998547 59.6192238390504  C 69.8204860998547 59.6192238390504  71.4117921423012 61.0487580497654  71.4117921423012 61.0487580497654  C 71.4117921423012 61.0487580497654  68.903785012155 62.920767135226  68.903785012155 62.920767135226  C 68.903785012155 62.920767135226  69.768802655741 65.4458521175462  69.768802655741 65.4458521175462  C 69.768802655741 65.4458521175462  67.7912308730772 67.9815735151245  67.7912308730772 67.9815735151245  C 67.7912308730772 67.9815735151245  67.0241397551798 70.2152207193669  67.0241397551798 70.2152207193669  C 67.0241397551798 70.2152207193669  69.7007981240127 69.8642190158432  69.7007981240127 69.8642190158432  C 69.7007981240127 69.8642190158432  71.3002647102664 72.2042303726687  71.3002647102664 72.2042303726687  C 71.3002647102664 72.2042303726687  71.3845903296099 75.7227565401137  71.3845903296099 75.7227565401137  C 71.3845903296099 75.7227565401137  74.1890972180921 77.5054197374046  74.1890972180921 77.5054197374046  C 74.1890972180921 77.5054197374046  74.0966110549414 78.9689904769465  74.0966110549414 78.9689904769465  C 74.0966110549414 78.9689904769465  69.2682893022197 80.0007227570013  69.2682893022197 80.0007227570013  C 69.2682893022197 80.0007227570013  65.3974713562347 82.4428437003068  65.3974713562347 82.4428437003068  C 65.3974713562347 82.4428437003068  59.88366392369 89.0076391977284  59.88366392369 89.0076391977284  C 59.88366392369 89.0076391977284  52.7078257357014 91.7901254292991  52.7078257357014 91.7901254292991  C 52.7078257357014 91.7901254292991  45.3415748588726 91.415723612207  45.3415748588726 91.415723612207  C 45.3415748588726 91.415723612207  43.1899114749839 91.9688172056385  43.1899114749839 91.9688172056385  C 43.1899114749839 91.9688172056385  43.9461218678046 94.079081992885  43.9461218678046 94.079081992885  C 43.9461218678046 94.079081992885  37.9903061948634 96.172328515718  37.9903061948634 96.172328515718  C 37.9903061948634 96.172328515718  34.7532904845879 98.5080853064404  34.7532904845879 98.5080853064404  C 34.7532904845879 98.5080853064404  25.1510506045273 100.797041870026  25.1510506045273 100.797041870026  C 25.1510506045273 100.797041870026  23.24692371613 99.441962566119  23.24692371613 99.441962566119  C 23.24692371613 99.441962566119  21.9820394259802 99.3270892813293  21.9820394259802 99.3270892813293  C 21.9820394259802 99.3270892813293  20.5784258911045 100.862987644627  20.5784258911045 100.862987644627  C 20.5784258911045 100.862987644627  14.2703255279713 101.313971651579  14.2703255279713 101.313971651579  C 14.2703255279713 101.313971651579  15.4672052863923 99.6951092492664  15.4672052863923 99.6951092492664  C 15.4672052863923 99.6951092492664  13.0598448632043 95.5681801290466  13.0598448632043 95.5681801290466  C 13.0598448632043 95.5681801290466  11.9880934431636 93.0877680908114  11.9880934431636 93.0877680908114  C 11.9880934431636 93.0877680908114  8.66675211354488 92.0709267921181  8.66675211354488 92.0709267921181  C 8.66675211354488 92.0709267921181  4.16213193185061 88.5672916060347  4.16213193185061 88.5672916060347  C 4.16213193185061 88.5672916060347  5.82144250602546 85.7294960151209  5.82144250602546 85.7294960151209  C 5.82144250602546 85.7294960151209  9.29783416798494 86.333644401792  9.29783416798494 86.333644401792  C 9.29783416798494 86.333644401792  11.449497551874 85.9039332253568  11.449497551874 85.9039332253568  C 11.449497551874 85.9039332253568  15.7093014193457 85.9634971508033  15.7093014193457 85.9634971508033  C 15.7093014193457 85.9634971508033  11.5583048026395 80.4857432927797  11.5583048026395 80.4857432927797  C 11.5583048026395 80.4857432927797  11.8357632920915 76.4736874573498  11.8357632920915 76.4736874573498  C 11.8357632920915 76.4736874573498  11.3270893947625 72.4552497727646  11.3270893947625 72.4552497727646  Z " fill-rule="evenodd" />
    </mask>
  </defs>
  <g transform="matrix(1 0 0 1 -1897 -1887 )">
    <path d="M 11.3270893947625 72.4552497727646  C 11.3270893947625 72.4552497727646  8.29408727967295 68.5665763543306  8.29408727967295 68.5665763543306  C 8.29408727967295 68.5665763543306  9.05573803503169 65.7011260837452  9.05573803503169 65.7011260837452  C 9.05573803503169 65.7011260837452  4.16485211311984 65.5607254023355  4.16485211311984 65.5607254023355  C 4.16485211311984 65.5607254023355  4.1838933820035 61.6358881720238  4.1838933820035 61.6358881720238  C 4.1838933820035 61.6358881720238  1.00672165964916 59.3724590050576  1.00672165964916 59.3724590050576  C 1.00672165964916 59.3724590050576  4.30086117657652 49.7433288632964  4.30086117657652 49.7433288632964  C 4.30086117657652 49.7433288632964  14.0282293950178 43.9230824339556  14.0282293950178 43.9230824339556  C 14.0282293950178 43.9230824339556  14.4308162228505 35.8479159698559  14.4308162228505 35.8479159698559  C 14.4308162228505 35.8479159698559  17.3686119935204 23.1267633209311  17.3686119935204 23.1267633209311  C 17.3686119935204 23.1267633209311  19.0279225676952 20.40809558091  19.0279225676952 20.40809558091  C 19.0279225676952 20.40809558091  15.8561912078793 18.2382668682173  15.8561912078793 18.2382668682173  C 15.8561912078793 18.2382668682173  15.7310628694986 16.2194752521924  15.7310628694986 16.2194752521924  C 15.7310628694986 16.2194752521924  12.880312899441 14.5665763210526  12.880312899441 14.5665763210526  C 12.880312899441 14.5665763210526  11.0061080050045 4.61727348844077  11.0061080050045 4.61727348844077  C 11.0061080050045 4.61727348844077  18.706941177937 1.0902381887889  18.706941177937 1.0902381887889  C 18.706941177937 1.0902381887889  51.1001986056403 13.3774250951751  51.1001986056403 13.3774250951751  C 51.1001986056403 13.3774250951751  81.5199857384219 25.5008112065835  81.5199857384219 25.5008112065835  C 81.5199857384219 25.5008112065835  81.898090934832 50.1964401533001  81.898090934832 50.1964401533001  C 81.898090934832 50.1964401533001  75.320692626054 49.764601693813  75.320692626054 49.764601693813  C 75.320692626054 49.764601693813  71.8361404202868 55.8347872901476  71.8361404202868 55.8347872901476  C 71.8361404202868 55.8347872901476  69.8204860998547 59.6192238390504  69.8204860998547 59.6192238390504  C 69.8204860998547 59.6192238390504  71.4117921423012 61.0487580497654  71.4117921423012 61.0487580497654  C 71.4117921423012 61.0487580497654  68.903785012155 62.920767135226  68.903785012155 62.920767135226  C 68.903785012155 62.920767135226  69.768802655741 65.4458521175462  69.768802655741 65.4458521175462  C 69.768802655741 65.4458521175462  67.7912308730772 67.9815735151245  67.7912308730772 67.9815735151245  C 67.7912308730772 67.9815735151245  67.0241397551798 70.2152207193669  67.0241397551798 70.2152207193669  C 67.0241397551798 70.2152207193669  69.7007981240127 69.8642190158432  69.7007981240127 69.8642190158432  C 69.7007981240127 69.8642190158432  71.3002647102664 72.2042303726687  71.3002647102664 72.2042303726687  C 71.3002647102664 72.2042303726687  71.3845903296099 75.7227565401137  71.3845903296099 75.7227565401137  C 71.3845903296099 75.7227565401137  74.1890972180921 77.5054197374046  74.1890972180921 77.5054197374046  C 74.1890972180921 77.5054197374046  74.0966110549414 78.9689904769465  74.0966110549414 78.9689904769465  C 74.0966110549414 78.9689904769465  69.2682893022197 80.0007227570013  69.2682893022197 80.0007227570013  C 69.2682893022197 80.0007227570013  65.3974713562347 82.4428437003068  65.3974713562347 82.4428437003068  C 65.3974713562347 82.4428437003068  59.88366392369 89.0076391977284  59.88366392369 89.0076391977284  C 59.88366392369 89.0076391977284  52.7078257357014 91.7901254292991  52.7078257357014 91.7901254292991  C 52.7078257357014 91.7901254292991  45.3415748588726 91.415723612207  45.3415748588726 91.415723612207  C 45.3415748588726 91.415723612207  43.1899114749839 91.9688172056385  43.1899114749839 91.9688172056385  C 43.1899114749839 91.9688172056385  43.9461218678046 94.079081992885  43.9461218678046 94.079081992885  C 43.9461218678046 94.079081992885  37.9903061948634 96.172328515718  37.9903061948634 96.172328515718  C 37.9903061948634 96.172328515718  34.7532904845879 98.5080853064404  34.7532904845879 98.5080853064404  C 34.7532904845879 98.5080853064404  25.1510506045273 100.797041870026  25.1510506045273 100.797041870026  C 25.1510506045273 100.797041870026  23.24692371613 99.441962566119  23.24692371613 99.441962566119  C 23.24692371613 99.441962566119  21.9820394259802 99.3270892813293  21.9820394259802 99.3270892813293  C 21.9820394259802 99.3270892813293  20.5784258911045 100.862987644627  20.5784258911045 100.862987644627  C 20.5784258911045 100.862987644627  14.2703255279713 101.313971651579  14.2703255279713 101.313971651579  C 14.2703255279713 101.313971651579  15.4672052863923 99.6951092492664  15.4672052863923 99.6951092492664  C 15.4672052863923 99.6951092492664  13.0598448632043 95.5681801290466  13.0598448632043 95.5681801290466  C 13.0598448632043 95.5681801290466  11.9880934431636 93.0877680908114  11.9880934431636 93.0877680908114  C 11.9880934431636 93.0877680908114  8.66675211354488 92.0709267921181  8.66675211354488 92.0709267921181  C 8.66675211354488 92.0709267921181  4.16213193185061 88.5672916060347  4.16213193185061 88.5672916060347  C 4.16213193185061 88.5672916060347  5.82144250602546 85.7294960151209  5.82144250602546 85.7294960151209  C 5.82144250602546 85.7294960151209  9.29783416798494 86.333644401792  9.29783416798494 86.333644401792  C 9.29783416798494 86.333644401792  11.449497551874 85.9039332253568  11.449497551874 85.9039332253568  C 11.449497551874 85.9039332253568  15.7093014193457 85.9634971508033  15.7093014193457 85.9634971508033  C 15.7093014193457 85.9634971508033  11.5583048026395 80.4857432927797  11.5583048026395 80.4857432927797  C 11.5583048026395 80.4857432927797  11.8357632920915 76.4736874573498  11.8357632920915 76.4736874573498  C 11.8357632920915 76.4736874573498  11.3270893947625 72.4552497727646  11.3270893947625 72.4552497727646  Z " fill-rule="nonzero" fill="#f2f2f2" stroke="none" transform="matrix(1 0 0 1 1897 1887 )" />
    <path d="M 11.3270893947625 72.4552497727646  C 11.3270893947625 72.4552497727646  8.29408727967295 68.5665763543306  8.29408727967295 68.5665763543306  C 8.29408727967295 68.5665763543306  9.05573803503169 65.7011260837452  9.05573803503169 65.7011260837452  C 9.05573803503169 65.7011260837452  4.16485211311984 65.5607254023355  4.16485211311984 65.5607254023355  C 4.16485211311984 65.5607254023355  4.1838933820035 61.6358881720238  4.1838933820035 61.6358881720238  C 4.1838933820035 61.6358881720238  1.00672165964916 59.3724590050576  1.00672165964916 59.3724590050576  C 1.00672165964916 59.3724590050576  4.30086117657652 49.7433288632964  4.30086117657652 49.7433288632964  C 4.30086117657652 49.7433288632964  14.0282293950178 43.9230824339556  14.0282293950178 43.9230824339556  C 14.0282293950178 43.9230824339556  14.4308162228505 35.8479159698559  14.4308162228505 35.8479159698559  C 14.4308162228505 35.8479159698559  17.3686119935204 23.1267633209311  17.3686119935204 23.1267633209311  C 17.3686119935204 23.1267633209311  19.0279225676952 20.40809558091  19.0279225676952 20.40809558091  C 19.0279225676952 20.40809558091  15.8561912078793 18.2382668682173  15.8561912078793 18.2382668682173  C 15.8561912078793 18.2382668682173  15.7310628694986 16.2194752521924  15.7310628694986 16.2194752521924  C 15.7310628694986 16.2194752521924  12.880312899441 14.5665763210526  12.880312899441 14.5665763210526  C 12.880312899441 14.5665763210526  11.0061080050045 4.61727348844077  11.0061080050045 4.61727348844077  C 11.0061080050045 4.61727348844077  18.706941177937 1.0902381887889  18.706941177937 1.0902381887889  C 18.706941177937 1.0902381887889  51.1001986056403 13.3774250951751  51.1001986056403 13.3774250951751  C 51.1001986056403 13.3774250951751  81.5199857384219 25.5008112065835  81.5199857384219 25.5008112065835  C 81.5199857384219 25.5008112065835  81.898090934832 50.1964401533001  81.898090934832 50.1964401533001  C 81.898090934832 50.1964401533001  75.320692626054 49.764601693813  75.320692626054 49.764601693813  C 75.320692626054 49.764601693813  71.8361404202868 55.8347872901476  71.8361404202868 55.8347872901476  C 71.8361404202868 55.8347872901476  69.8204860998547 59.6192238390504  69.8204860998547 59.6192238390504  C 69.8204860998547 59.6192238390504  71.4117921423012 61.0487580497654  71.4117921423012 61.0487580497654  C 71.4117921423012 61.0487580497654  68.903785012155 62.920767135226  68.903785012155 62.920767135226  C 68.903785012155 62.920767135226  69.768802655741 65.4458521175462  69.768802655741 65.4458521175462  C 69.768802655741 65.4458521175462  67.7912308730772 67.9815735151245  67.7912308730772 67.9815735151245  C 67.7912308730772 67.9815735151245  67.0241397551798 70.2152207193669  67.0241397551798 70.2152207193669  C 67.0241397551798 70.2152207193669  69.7007981240127 69.8642190158432  69.7007981240127 69.8642190158432  C 69.7007981240127 69.8642190158432  71.3002647102664 72.2042303726687  71.3002647102664 72.2042303726687  C 71.3002647102664 72.2042303726687  71.3845903296099 75.7227565401137  71.3845903296099 75.7227565401137  C 71.3845903296099 75.7227565401137  74.1890972180921 77.5054197374046  74.1890972180921 77.5054197374046  C 74.1890972180921 77.5054197374046  74.0966110549414 78.9689904769465  74.0966110549414 78.9689904769465  C 74.0966110549414 78.9689904769465  69.2682893022197 80.0007227570013  69.2682893022197 80.0007227570013  C 69.2682893022197 80.0007227570013  65.3974713562347 82.4428437003068  65.3974713562347 82.4428437003068  C 65.3974713562347 82.4428437003068  59.88366392369 89.0076391977284  59.88366392369 89.0076391977284  C 59.88366392369 89.0076391977284  52.7078257357014 91.7901254292991  52.7078257357014 91.7901254292991  C 52.7078257357014 91.7901254292991  45.3415748588726 91.415723612207  45.3415748588726 91.415723612207  C 45.3415748588726 91.415723612207  43.1899114749839 91.9688172056385  43.1899114749839 91.9688172056385  C 43.1899114749839 91.9688172056385  43.9461218678046 94.079081992885  43.9461218678046 94.079081992885  C 43.9461218678046 94.079081992885  37.9903061948634 96.172328515718  37.9903061948634 96.172328515718  C 37.9903061948634 96.172328515718  34.7532904845879 98.5080853064404  34.7532904845879 98.5080853064404  C 34.7532904845879 98.5080853064404  25.1510506045273 100.797041870026  25.1510506045273 100.797041870026  C 25.1510506045273 100.797041870026  23.24692371613 99.441962566119  23.24692371613 99.441962566119  C 23.24692371613 99.441962566119  21.9820394259802 99.3270892813293  21.9820394259802 99.3270892813293  C 21.9820394259802 99.3270892813293  20.5784258911045 100.862987644627  20.5784258911045 100.862987644627  C 20.5784258911045 100.862987644627  14.2703255279713 101.313971651579  14.2703255279713 101.313971651579  C 14.2703255279713 101.313971651579  15.4672052863923 99.6951092492664  15.4672052863923 99.6951092492664  C 15.4672052863923 99.6951092492664  13.0598448632043 95.5681801290466  13.0598448632043 95.5681801290466  C 13.0598448632043 95.5681801290466  11.9880934431636 93.0877680908114  11.9880934431636 93.0877680908114  C 11.9880934431636 93.0877680908114  8.66675211354488 92.0709267921181  8.66675211354488 92.0709267921181  C 8.66675211354488 92.0709267921181  4.16213193185061 88.5672916060347  4.16213193185061 88.5672916060347  C 4.16213193185061 88.5672916060347  5.82144250602546 85.7294960151209  5.82144250602546 85.7294960151209  C 5.82144250602546 85.7294960151209  9.29783416798494 86.333644401792  9.29783416798494 86.333644401792  C 9.29783416798494 86.333644401792  11.449497551874 85.9039332253568  11.449497551874 85.9039332253568  C 11.449497551874 85.9039332253568  15.7093014193457 85.9634971508033  15.7093014193457 85.9634971508033  C 15.7093014193457 85.9634971508033  11.5583048026395 80.4857432927797  11.5583048026395 80.4857432927797  C 11.5583048026395 80.4857432927797  11.8357632920915 76.4736874573498  11.8357632920915 76.4736874573498  C 11.8357632920915 76.4736874573498  11.3270893947625 72.4552497727646  11.3270893947625 72.4552497727646  Z " stroke-width="2" stroke="#505050" fill="none" stroke-opacity="0.211764705882353" transform="matrix(1 0 0 1 1897 1887 )" mask="url(#clip757)" />
  </g>
</svg>