<?xml version="1.0" encoding="utf-8"?>
<svg version="1.1" xmlns:xlink="http://www.w3.org/1999/xlink" width="18px" height="15px" xmlns="http://www.w3.org/2000/svg">
  <defs>
    <mask fill="white" id="clip758">
      <path d="M 2.08468822963277 2.53821735343953  C 2.08468822963277 2.53821735343953  2.60224368267154 0.546913571356527  2.60224368267154 0.546913571356527  C 2.60224368267154 0.546913571356527  7.5823384409041 3.61186962304184  7.5823384409041 3.61186962304184  C 7.5823384409041 3.61186962304184  16.8749150105882 4.83464026342252  16.8749150105882 4.83464026342252  C 16.8749150105882 4.83464026342252  17.1474575097945 8.36643362920616  17.1474575097945 8.36643362920616  C 17.1474575097945 8.36643362920616  14.9863881979027 12.8583377827988  14.9863881979027 12.8583377827988  C 14.9863881979027 12.8583377827988  1.13767186875293 13.5029879703162  1.13767186875293 13.5029879703162  C 1.13767186875293 13.5029879703162  0.944965051131931 8.24255067502122  0.944965051131931 8.24255067502122  C 0.944965051131931 8.24255067502122  2.08468822963277 2.53821735343953  2.08468822963277 2.53821735343953  Z " fill-rule="evenodd" />
    </mask>
  </defs>
  <g transform="matrix(1 0 0 1 -2321 -2367 )">
    <path d="M 2.08468822963277 2.53821735343953  C 2.08468822963277 2.53821735343953  2.60224368267154 0.546913571356527  2.60224368267154 0.546913571356527  C 2.60224368267154 0.546913571356527  7.5823384409041 3.61186962304184  7.5823384409041 3.61186962304184  C 7.5823384409041 3.61186962304184  16.8749150105882 4.83464026342252  16.8749150105882 4.83464026342252  C 16.8749150105882 4.83464026342252  17.1474575097945 8.36643362920616  17.1474575097945 8.36643362920616  C 17.1474575097945 8.36643362920616  14.9863881979027 12.8583377827988  14.9863881979027 12.8583377827988  C 14.9863881979027 12.8583377827988  1.13767186875293 13.5029879703162  1.13767186875293 13.5029879703162  C 1.13767186875293 13.5029879703162  0.944965051131931 8.24255067502122  0.944965051131931 8.24255067502122  C 0.944965051131931 8.24255067502122  2.08468822963277 2.53821735343953  2.08468822963277 2.53821735343953  Z " fill-rule="nonzero" fill="#f2f2f2" stroke="none" transform="matrix(1 0 0 1 2321 2367 )" />
    <path d="M 2.08468822963277 2.53821735343953  C 2.08468822963277 2.53821735343953  2.60224368267154 0.546913571356527  2.60224368267154 0.546913571356527  C 2.60224368267154 0.546913571356527  7.5823384409041 3.61186962304184  7.5823384409041 3.61186962304184  C 7.5823384409041 3.61186962304184  16.8749150105882 4.83464026342252  16.8749150105882 4.83464026342252  C 16.8749150105882 4.83464026342252  17.1474575097945 8.36643362920616  17.1474575097945 8.36643362920616  C 17.1474575097945 8.36643362920616  14.9863881979027 12.8583377827988  14.9863881979027 12.8583377827988  C 14.9863881979027 12.8583377827988  1.13767186875293 13.5029879703162  1.13767186875293 13.5029879703162  C 1.13767186875293 13.5029879703162  0.944965051131931 8.24255067502122  0.944965051131931 8.24255067502122  C 0.944965051131931 8.24255067502122  2.08468822963277 2.53821735343953  2.08468822963277 2.53821735343953  Z " stroke-width="2" stroke="#505050" fill="none" stroke-opacity="0.211764705882353" transform="matrix(1 0 0 1 2321 2367 )" mask="url(#clip758)" />
  </g>
</svg>