<?xml version="1.0" encoding="utf-8"?>
<svg version="1.1" xmlns:xlink="http://www.w3.org/1999/xlink" width="18px" height="35px" xmlns="http://www.w3.org/2000/svg">
  <defs>
    <mask fill="white" id="clip759">
      <path d="M 14.9985924677389 28.3747317333533  C 14.9985924677389 28.3747317333533  16.9008840531114 32.6099020206135  16.9008840531114 32.6099020206135  C 16.9008840531114 32.6099020206135  10.6874656621051 33.9172425901554  10.6874656621051 33.9172425901554  C 10.6874656621051 33.9172425901554  6.96411612166639 31.7624299931214  6.96411612166639 31.7624299931214  C 6.96411612166639 31.7624299931214  4.90490612765984 27.8688763370984  4.90490612765984 27.8688763370984  C 4.90490612765984 27.8688763370984  4.29099726581035 24.8096556073661  4.29099726581035 24.8096556073661  C 4.29099726581035 24.8096556073661  6.00058203356161 19.2627650501635  6.00058203356161 19.2627650501635  C 6.00058203356161 19.2627650501635  4.06250203920263 15.4228798036103  4.06250203920263 15.4228798036103  C 4.06250203920263 15.4228798036103  3.32746317770557 10.5570326586816  3.32746317770557 10.5570326586816  C 3.32746317770557 10.5570326586816  3.34122795039275 6.06127019759351  3.34122795039275 6.06127019759351  C 3.34122795039275 6.06127019759351  0.11751818704829 2.86189905504562  0.11751818704829 2.86189905504562  C 0.11751818704829 2.86189905504562  0.68737977629894 0.926071478035675  0.68737977629894 0.926071478035675  C 0.68737977629894 0.926071478035675  7.44588316571867 1.05746249005005  7.44588316571867 1.05746249005005  C 7.44588316571867 1.05746249005005  6.46307839585188 4.32690883900519  6.46307839585188 4.32690883900519  C 6.46307839585188 4.32690883900519  10.8223604344396 6.15762360640371  10.8223604344396 6.15762360640371  C 10.8223604344396 6.15762360640371  13.503738153908 8.32776515483969  13.503738153908 8.32776515483969  C 13.503738153908 8.32776515483969  13.795551334877 11.3628975323692  13.795551334877 11.3628975323692  C 13.795551334877 11.3628975323692  15.3509706485315 12.6373903489077  15.3509706485315 12.6373903489077  C 15.3509706485315 12.6373903489077  14.9985924677389 28.3747317333533  14.9985924677389 28.3747317333533  Z " fill-rule="evenodd" />
    </mask>
  </defs>
  <g transform="matrix(1 0 0 1 -1793 -1965 )">
    <path d="M 14.9985924677389 28.3747317333533  C 14.9985924677389 28.3747317333533  16.9008840531114 32.6099020206135  16.9008840531114 32.6099020206135  C 16.9008840531114 32.6099020206135  10.6874656621051 33.9172425901554  10.6874656621051 33.9172425901554  C 10.6874656621051 33.9172425901554  6.96411612166639 31.7624299931214  6.96411612166639 31.7624299931214  C 6.96411612166639 31.7624299931214  4.90490612765984 27.8688763370984  4.90490612765984 27.8688763370984  C 4.90490612765984 27.8688763370984  4.29099726581035 24.8096556073661  4.29099726581035 24.8096556073661  C 4.29099726581035 24.8096556073661  6.00058203356161 19.2627650501635  6.00058203356161 19.2627650501635  C 6.00058203356161 19.2627650501635  4.06250203920263 15.4228798036103  4.06250203920263 15.4228798036103  C 4.06250203920263 15.4228798036103  3.32746317770557 10.5570326586816  3.32746317770557 10.5570326586816  C 3.32746317770557 10.5570326586816  3.34122795039275 6.06127019759351  3.34122795039275 6.06127019759351  C 3.34122795039275 6.06127019759351  0.11751818704829 2.86189905504562  0.11751818704829 2.86189905504562  C 0.11751818704829 2.86189905504562  0.68737977629894 0.926071478035675  0.68737977629894 0.926071478035675  C 0.68737977629894 0.926071478035675  7.44588316571867 1.05746249005005  7.44588316571867 1.05746249005005  C 7.44588316571867 1.05746249005005  6.46307839585188 4.32690883900519  6.46307839585188 4.32690883900519  C 6.46307839585188 4.32690883900519  10.8223604344396 6.15762360640371  10.8223604344396 6.15762360640371  C 10.8223604344396 6.15762360640371  13.503738153908 8.32776515483969  13.503738153908 8.32776515483969  C 13.503738153908 8.32776515483969  13.795551334877 11.3628975323692  13.795551334877 11.3628975323692  C 13.795551334877 11.3628975323692  15.3509706485315 12.6373903489077  15.3509706485315 12.6373903489077  C 15.3509706485315 12.6373903489077  14.9985924677389 28.3747317333533  14.9985924677389 28.3747317333533  Z " fill-rule="nonzero" fill="#f2f2f2" stroke="none" transform="matrix(1 0 0 1 1793 1965 )" />
    <path d="M 14.9985924677389 28.3747317333533  C 14.9985924677389 28.3747317333533  16.9008840531114 32.6099020206135  16.9008840531114 32.6099020206135  C 16.9008840531114 32.6099020206135  10.6874656621051 33.9172425901554  10.6874656621051 33.9172425901554  C 10.6874656621051 33.9172425901554  6.96411612166639 31.7624299931214  6.96411612166639 31.7624299931214  C 6.96411612166639 31.7624299931214  4.90490612765984 27.8688763370984  4.90490612765984 27.8688763370984  C 4.90490612765984 27.8688763370984  4.29099726581035 24.8096556073661  4.29099726581035 24.8096556073661  C 4.29099726581035 24.8096556073661  6.00058203356161 19.2627650501635  6.00058203356161 19.2627650501635  C 6.00058203356161 19.2627650501635  4.06250203920263 15.4228798036103  4.06250203920263 15.4228798036103  C 4.06250203920263 15.4228798036103  3.32746317770557 10.5570326586816  3.32746317770557 10.5570326586816  C 3.32746317770557 10.5570326586816  3.34122795039275 6.06127019759351  3.34122795039275 6.06127019759351  C 3.34122795039275 6.06127019759351  0.11751818704829 2.86189905504562  0.11751818704829 2.86189905504562  C 0.11751818704829 2.86189905504562  0.68737977629894 0.926071478035675  0.68737977629894 0.926071478035675  C 0.68737977629894 0.926071478035675  7.44588316571867 1.05746249005005  7.44588316571867 1.05746249005005  C 7.44588316571867 1.05746249005005  6.46307839585188 4.32690883900519  6.46307839585188 4.32690883900519  C 6.46307839585188 4.32690883900519  10.8223604344396 6.15762360640371  10.8223604344396 6.15762360640371  C 10.8223604344396 6.15762360640371  13.503738153908 8.32776515483969  13.503738153908 8.32776515483969  C 13.503738153908 8.32776515483969  13.795551334877 11.3628975323692  13.795551334877 11.3628975323692  C 13.795551334877 11.3628975323692  15.3509706485315 12.6373903489077  15.3509706485315 12.6373903489077  C 15.3509706485315 12.6373903489077  14.9985924677389 28.3747317333533  14.9985924677389 28.3747317333533  Z " stroke-width="2" stroke="#505050" fill="none" stroke-opacity="0.211764705882353" transform="matrix(1 0 0 1 1793 1965 )" mask="url(#clip759)" />
  </g>
</svg>