<?xml version="1.0" encoding="utf-8"?>
<svg version="1.1" xmlns:xlink="http://www.w3.org/1999/xlink" width="21px" height="12px" xmlns="http://www.w3.org/2000/svg">
  <defs>
    <mask fill="white" id="clip760">
      <path d="M 1.81699932591451 8.71891056773087  C 1.81699932591451 8.71891056773087  1.06807055743271 7.40693109103021  1.06807055743271 7.40693109103021  C 1.06807055743271 7.40693109103021  1.93787905696749 4.12346129040244  1.93787905696749 4.12346129040244  C 1.93787905696749 4.12346129040244  8.2788092967762 2.62978681423062  8.2788092967762 2.62978681423062  C 8.2788092967762 2.62978681423062  15.3279165958656 2.4032579837211  15.3279165958656 2.4032579837211  C 15.3279165958656 2.4032579837211  17.6325149465961 1.57501194717055  17.6325149465961 1.57501194717055  C 17.6325149465961 1.57501194717055  20.4206322215389 2.39617895776766  20.4206322215389 2.39617895776766  C 20.4206322215389 2.39617895776766  17.7113495538049 4.19897090057228  17.7113495538049 4.19897090057228  C 17.7113495538049 4.19897090057228  8.12114008235939 8.82509595703219  8.12114008235939 8.82509595703219  C 8.12114008235939 8.82509595703219  1.95101815816867 10.7387926397739  1.95101815816867 10.7387926397739  C 1.95101815816867 10.7387926397739  1.81699932591451 8.71891056773087  1.81699932591451 8.71891056773087  Z " fill-rule="evenodd" />
    </mask>
  </defs>
  <g transform="matrix(1 0 0 1 -2755 -2081 )">
    <path d="M 1.81699932591451 8.71891056773087  C 1.81699932591451 8.71891056773087  1.06807055743271 7.40693109103021  1.06807055743271 7.40693109103021  C 1.06807055743271 7.40693109103021  1.93787905696749 4.12346129040244  1.93787905696749 4.12346129040244  C 1.93787905696749 4.12346129040244  8.2788092967762 2.62978681423062  8.2788092967762 2.62978681423062  C 8.2788092967762 2.62978681423062  15.3279165958656 2.4032579837211  15.3279165958656 2.4032579837211  C 15.3279165958656 2.4032579837211  17.6325149465961 1.57501194717055  17.6325149465961 1.57501194717055  C 17.6325149465961 1.57501194717055  20.4206322215389 2.39617895776766  20.4206322215389 2.39617895776766  C 20.4206322215389 2.39617895776766  17.7113495538049 4.19897090057228  17.7113495538049 4.19897090057228  C 17.7113495538049 4.19897090057228  8.12114008235939 8.82509595703219  8.12114008235939 8.82509595703219  C 8.12114008235939 8.82509595703219  1.95101815816867 10.7387926397739  1.95101815816867 10.7387926397739  C 1.95101815816867 10.7387926397739  1.81699932591451 8.71891056773087  1.81699932591451 8.71891056773087  Z " fill-rule="nonzero" fill="#f2f2f2" stroke="none" transform="matrix(1 0 0 1 2755 2081 )" />
    <path d="M 1.81699932591451 8.71891056773087  C 1.81699932591451 8.71891056773087  1.06807055743271 7.40693109103021  1.06807055743271 7.40693109103021  C 1.06807055743271 7.40693109103021  1.93787905696749 4.12346129040244  1.93787905696749 4.12346129040244  C 1.93787905696749 4.12346129040244  8.2788092967762 2.62978681423062  8.2788092967762 2.62978681423062  C 8.2788092967762 2.62978681423062  15.3279165958656 2.4032579837211  15.3279165958656 2.4032579837211  C 15.3279165958656 2.4032579837211  17.6325149465961 1.57501194717055  17.6325149465961 1.57501194717055  C 17.6325149465961 1.57501194717055  20.4206322215389 2.39617895776766  20.4206322215389 2.39617895776766  C 20.4206322215389 2.39617895776766  17.7113495538049 4.19897090057228  17.7113495538049 4.19897090057228  C 17.7113495538049 4.19897090057228  8.12114008235939 8.82509595703219  8.12114008235939 8.82509595703219  C 8.12114008235939 8.82509595703219  1.95101815816867 10.7387926397739  1.95101815816867 10.7387926397739  C 1.95101815816867 10.7387926397739  1.81699932591451 8.71891056773087  1.81699932591451 8.71891056773087  Z " stroke-width="2" stroke="#505050" fill="none" stroke-opacity="0.211764705882353" transform="matrix(1 0 0 1 2755 2081 )" mask="url(#clip760)" />
  </g>
</svg>