<?xml version="1.0" encoding="utf-8"?>
<svg version="1.1" xmlns:xlink="http://www.w3.org/1999/xlink" width="114px" height="61px" xmlns="http://www.w3.org/2000/svg">
  <defs>
    <mask fill="white" id="clip761">
      <path d="M 78.8522042878394 59.9140616928787  C 78.8522042878394 59.9140616928787  70.9815072652932 57.1152245798128  70.9815072652932 57.1152245798128  C 70.9815072652932 57.1152245798128  70.3042804490824 50.8587471562976  70.3042804490824 50.8587471562976  C 70.3042804490824 50.8587471562976  64.5506054658285 50.5896282031182  64.5506054658285 50.5896282031182  C 64.5506054658285 50.5896282031182  53.7301391278647 43.9262429223958  53.7301391278647 43.9262429223958  C 53.7301391278647 43.9262429223958  47.5662739185323 43.0995094982288  47.5662739185323 43.0995094982288  C 47.5662739185323 43.0995094982288  39.0293618979249 39.2435731370741  39.0293618979249 39.2435731370741  C 39.0293618979249 39.2435731370741  33.5399705502659 38.5395579555568  33.5399705502659 38.5395579555568  C 33.5399705502659 38.5395579555568  30.1510835146746 39.9626589799695  30.1510835146746 39.9626589799695  C 30.1510835146746 39.9626589799695  24.9892937569712 39.7409049625496  24.9892937569712 39.7409049625496  C 24.9892937569712 39.7409049625496  19.4999024093122 44.0834083910527  19.4999024093122 44.0834083910527  C 19.4999024093122 44.0834083910527  12.7166224290554 45.5452625447233  12.7166224290554 45.5452625447233  C 12.7166224290554 45.5452625447233  11.282333115048 40.1822600457639  11.282333115048 40.1822600457639  C 11.282333115048 40.1822600457639  12.4027856117868 32.1560563861409  12.4027856117868 32.1560563861409  C 12.4027856117868 32.1560563861409  6.384826992939 27.9675057906328  6.384826992939 27.9675057906328  C 6.384826992939 27.9675057906328  8.36420130535953 22.6217269046769  8.36420130535953 22.6217269046769  C 8.36420130535953 22.6217269046769  3.24095291118056 22.1653011600845  3.24095291118056 22.1653011600845  C 3.24095291118056 22.1653011600845  4.9477847243943 15.5040688309877  4.9477847243943 15.5040688309877  C 4.9477847243943 15.5040688309877  12.2293494759283 17.4524900520066  12.2293494759283 17.4524900520066  C 12.2293494759283 17.4524900520066  19.0098765016473 14.9098541823675  19.0098765016473 14.9098541823675  C 19.0098765016473 14.9098541823675  13.3883433361912 10.1109250092722  13.3883433361912 10.1109250092722  C 13.3883433361912 10.1109250092722  11.1749678880878 5.4928437727133  11.1749678880878 5.4928437727133  C 11.1749678880878 5.4928437727133  4.96154949708171 7.55752438150584  4.96154949708171 7.55752438150584  C 4.96154949708171 7.55752438150584  4.17420449937299 13.4415411738206  4.17420449937299 13.4415411738206  C 4.17420449937299 13.4415411738206  1.76261632457408 8.24216299839436  1.76261632457408 8.24216299839436  C 1.76261632457408 8.24216299839436  5.17352699646472 5.55097346660017  5.17352699646472 5.55097346660017  C 5.17352699646472 5.55097346660017  13.936181289142 3.86090644063336  13.936181289142 3.86090644063336  C 13.936181289142 3.86090644063336  19.1530301375942 6.13442335709302  19.1530301375942 6.13442335709302  C 19.1530301375942 6.13442335709302  24.5543269400555 12.4468775228694  24.5543269400555 12.4468775228694  C 24.5543269400555 12.4468775228694  28.5158285194343 12.0550403270402  28.5158285194343 12.0550403270402  C 28.5158285194343 12.0550403270402  37.2234237213629 11.945239794143  37.2234237213629 11.945239794143  C 37.2234237213629 11.945239794143  35.9570646341399 7.8976907383246  35.9570646341399 7.8976907383246  C 35.9570646341399 7.8976907383246  42.550390751313 5.10961838338583  42.550390751313 5.10961838338583  C 42.550390751313 5.10961838338583  49.0528693687506 0.370971855802762  49.0528693687506 0.370971855802762  C 49.0528693687506 0.370971855802762  61.4535316112065 4.68118100992433  61.4535316112065 4.68118100992433  C 61.4535316112065 4.68118100992433  62.2794179724392 11.1228122732267  62.2794179724392 11.1228122732267  C 62.2794179724392 11.1228122732267  65.2333381911144 12.7612084601831  65.2333381911144 12.7612084601831  C 65.2333381911144 12.7612084601831  73.5775433941008 12.3930537322337  73.5775433941008 12.3930537322337  C 73.5775433941008 12.3930537322337  76.1680736138337 13.844143127777  76.1680736138337 13.844143127777  C 76.1680736138337 13.844143127777  79.9643979209659 22.0059827398024  79.9643979209659 22.0059827398024  C 79.9643979209659 22.0059827398024  88.7903701680043 27.4034324647687  88.7903701680043 27.4034324647687  C 88.7903701680043 27.4034324647687  93.825524016986 32.6167880339841  93.825524016986 32.6167880339841  C 93.825524016986 32.6167880339841  101.897186720766 36.3866063301214  101.897186720766 36.3866063301214  C 101.897186720766 36.3866063301214  112.165707145424 39.6590928007831  112.165707145424 39.6590928007831  C 112.165707145424 39.6590928007831  111.953729646041 44.307315360098  111.953729646041 44.307315360098  C 111.953729646041 44.307315360098  109.627483061902 44.0726436329255  109.627483061902 44.0726436329255  C 109.627483061902 44.0726436329255  105.985324208867 42.0467161533908  105.985324208867 42.0467161533908  C 105.985324208867 42.0467161533908  104.774024212392 44.7422115884359  104.774024212392 44.7422115884359  C 104.774024212392 44.7422115884359  98.2687926404174 46.2019127904811  98.2687926404174 46.2019127904811  C 98.2687926404174 46.2019127904811  96.7271380994493 52.1978830673185  96.7271380994493 52.1978830673185  C 96.7271380994493 52.1978830673185  92.3774699302912 54.4627881772764  92.3774699302912 54.4627881772764  C 92.3774699302912 54.4627881772764  86.2851815389326 55.5801700708773  86.2851815389326 55.5801700708773  C 86.2851815389326 55.5801700708773  84.674703134529 58.9323157516801  84.674703134529 58.9323157516801  C 84.674703134529 58.9323157516801  78.8522042878394 59.9140616928787  78.8522042878394 59.9140616928787  Z " fill-rule="evenodd" />
    </mask>
  </defs>
  <g transform="matrix(1 0 0 1 -2197 -1751 )">
    <path d="M 78.8522042878394 59.9140616928787  C 78.8522042878394 59.9140616928787  70.9815072652932 57.1152245798128  70.9815072652932 57.1152245798128  C 70.9815072652932 57.1152245798128  70.3042804490824 50.8587471562976  70.3042804490824 50.8587471562976  C 70.3042804490824 50.8587471562976  64.5506054658285 50.5896282031182  64.5506054658285 50.5896282031182  C 64.5506054658285 50.5896282031182  53.7301391278647 43.9262429223958  53.7301391278647 43.9262429223958  C 53.7301391278647 43.9262429223958  47.5662739185323 43.0995094982288  47.5662739185323 43.0995094982288  C 47.5662739185323 43.0995094982288  39.0293618979249 39.2435731370741  39.0293618979249 39.2435731370741  C 39.0293618979249 39.2435731370741  33.5399705502659 38.5395579555568  33.5399705502659 38.5395579555568  C 33.5399705502659 38.5395579555568  30.1510835146746 39.9626589799695  30.1510835146746 39.9626589799695  C 30.1510835146746 39.9626589799695  24.9892937569712 39.7409049625496  24.9892937569712 39.7409049625496  C 24.9892937569712 39.7409049625496  19.4999024093122 44.0834083910527  19.4999024093122 44.0834083910527  C 19.4999024093122 44.0834083910527  12.7166224290554 45.5452625447233  12.7166224290554 45.5452625447233  C 12.7166224290554 45.5452625447233  11.282333115048 40.1822600457639  11.282333115048 40.1822600457639  C 11.282333115048 40.1822600457639  12.4027856117868 32.1560563861409  12.4027856117868 32.1560563861409  C 12.4027856117868 32.1560563861409  6.384826992939 27.9675057906328  6.384826992939 27.9675057906328  C 6.384826992939 27.9675057906328  8.36420130535953 22.6217269046769  8.36420130535953 22.6217269046769  C 8.36420130535953 22.6217269046769  3.24095291118056 22.1653011600845  3.24095291118056 22.1653011600845  C 3.24095291118056 22.1653011600845  4.9477847243943 15.5040688309877  4.9477847243943 15.5040688309877  C 4.9477847243943 15.5040688309877  12.2293494759283 17.4524900520066  12.2293494759283 17.4524900520066  C 12.2293494759283 17.4524900520066  19.0098765016473 14.9098541823675  19.0098765016473 14.9098541823675  C 19.0098765016473 14.9098541823675  13.3883433361912 10.1109250092722  13.3883433361912 10.1109250092722  C 13.3883433361912 10.1109250092722  11.1749678880878 5.4928437727133  11.1749678880878 5.4928437727133  C 11.1749678880878 5.4928437727133  4.96154949708171 7.55752438150584  4.96154949708171 7.55752438150584  C 4.96154949708171 7.55752438150584  4.17420449937299 13.4415411738206  4.17420449937299 13.4415411738206  C 4.17420449937299 13.4415411738206  1.76261632457408 8.24216299839436  1.76261632457408 8.24216299839436  C 1.76261632457408 8.24216299839436  5.17352699646472 5.55097346660017  5.17352699646472 5.55097346660017  C 5.17352699646472 5.55097346660017  13.936181289142 3.86090644063336  13.936181289142 3.86090644063336  C 13.936181289142 3.86090644063336  19.1530301375942 6.13442335709302  19.1530301375942 6.13442335709302  C 19.1530301375942 6.13442335709302  24.5543269400555 12.4468775228694  24.5543269400555 12.4468775228694  C 24.5543269400555 12.4468775228694  28.5158285194343 12.0550403270402  28.5158285194343 12.0550403270402  C 28.5158285194343 12.0550403270402  37.2234237213629 11.945239794143  37.2234237213629 11.945239794143  C 37.2234237213629 11.945239794143  35.9570646341399 7.8976907383246  35.9570646341399 7.8976907383246  C 35.9570646341399 7.8976907383246  42.550390751313 5.10961838338583  42.550390751313 5.10961838338583  C 42.550390751313 5.10961838338583  49.0528693687506 0.370971855802762  49.0528693687506 0.370971855802762  C 49.0528693687506 0.370971855802762  61.4535316112065 4.68118100992433  61.4535316112065 4.68118100992433  C 61.4535316112065 4.68118100992433  62.2794179724392 11.1228122732267  62.2794179724392 11.1228122732267  C 62.2794179724392 11.1228122732267  65.2333381911144 12.7612084601831  65.2333381911144 12.7612084601831  C 65.2333381911144 12.7612084601831  73.5775433941008 12.3930537322337  73.5775433941008 12.3930537322337  C 73.5775433941008 12.3930537322337  76.1680736138337 13.844143127777  76.1680736138337 13.844143127777  C 76.1680736138337 13.844143127777  79.9643979209659 22.0059827398024  79.9643979209659 22.0059827398024  C 79.9643979209659 22.0059827398024  88.7903701680043 27.4034324647687  88.7903701680043 27.4034324647687  C 88.7903701680043 27.4034324647687  93.825524016986 32.6167880339841  93.825524016986 32.6167880339841  C 93.825524016986 32.6167880339841  101.897186720766 36.3866063301214  101.897186720766 36.3866063301214  C 101.897186720766 36.3866063301214  112.165707145424 39.6590928007831  112.165707145424 39.6590928007831  C 112.165707145424 39.6590928007831  111.953729646041 44.307315360098  111.953729646041 44.307315360098  C 111.953729646041 44.307315360098  109.627483061902 44.0726436329255  109.627483061902 44.0726436329255  C 109.627483061902 44.0726436329255  105.985324208867 42.0467161533908  105.985324208867 42.0467161533908  C 105.985324208867 42.0467161533908  104.774024212392 44.7422115884359  104.774024212392 44.7422115884359  C 104.774024212392 44.7422115884359  98.2687926404174 46.2019127904811  98.2687926404174 46.2019127904811  C 98.2687926404174 46.2019127904811  96.7271380994493 52.1978830673185  96.7271380994493 52.1978830673185  C 96.7271380994493 52.1978830673185  92.3774699302912 54.4627881772764  92.3774699302912 54.4627881772764  C 92.3774699302912 54.4627881772764  86.2851815389326 55.5801700708773  86.2851815389326 55.5801700708773  C 86.2851815389326 55.5801700708773  84.674703134529 58.9323157516801  84.674703134529 58.9323157516801  C 84.674703134529 58.9323157516801  78.8522042878394 59.9140616928787  78.8522042878394 59.9140616928787  Z " fill-rule="nonzero" fill="#f2f2f2" stroke="none" transform="matrix(1 0 0 1 2197 1751 )" />
    <path d="M 78.8522042878394 59.9140616928787  C 78.8522042878394 59.9140616928787  70.9815072652932 57.1152245798128  70.9815072652932 57.1152245798128  C 70.9815072652932 57.1152245798128  70.3042804490824 50.8587471562976  70.3042804490824 50.8587471562976  C 70.3042804490824 50.8587471562976  64.5506054658285 50.5896282031182  64.5506054658285 50.5896282031182  C 64.5506054658285 50.5896282031182  53.7301391278647 43.9262429223958  53.7301391278647 43.9262429223958  C 53.7301391278647 43.9262429223958  47.5662739185323 43.0995094982288  47.5662739185323 43.0995094982288  C 47.5662739185323 43.0995094982288  39.0293618979249 39.2435731370741  39.0293618979249 39.2435731370741  C 39.0293618979249 39.2435731370741  33.5399705502659 38.5395579555568  33.5399705502659 38.5395579555568  C 33.5399705502659 38.5395579555568  30.1510835146746 39.9626589799695  30.1510835146746 39.9626589799695  C 30.1510835146746 39.9626589799695  24.9892937569712 39.7409049625496  24.9892937569712 39.7409049625496  C 24.9892937569712 39.7409049625496  19.4999024093122 44.0834083910527  19.4999024093122 44.0834083910527  C 19.4999024093122 44.0834083910527  12.7166224290554 45.5452625447233  12.7166224290554 45.5452625447233  C 12.7166224290554 45.5452625447233  11.282333115048 40.1822600457639  11.282333115048 40.1822600457639  C 11.282333115048 40.1822600457639  12.4027856117868 32.1560563861409  12.4027856117868 32.1560563861409  C 12.4027856117868 32.1560563861409  6.384826992939 27.9675057906328  6.384826992939 27.9675057906328  C 6.384826992939 27.9675057906328  8.36420130535953 22.6217269046769  8.36420130535953 22.6217269046769  C 8.36420130535953 22.6217269046769  3.24095291118056 22.1653011600845  3.24095291118056 22.1653011600845  C 3.24095291118056 22.1653011600845  4.9477847243943 15.5040688309877  4.9477847243943 15.5040688309877  C 4.9477847243943 15.5040688309877  12.2293494759283 17.4524900520066  12.2293494759283 17.4524900520066  C 12.2293494759283 17.4524900520066  19.0098765016473 14.9098541823675  19.0098765016473 14.9098541823675  C 19.0098765016473 14.9098541823675  13.3883433361912 10.1109250092722  13.3883433361912 10.1109250092722  C 13.3883433361912 10.1109250092722  11.1749678880878 5.4928437727133  11.1749678880878 5.4928437727133  C 11.1749678880878 5.4928437727133  4.96154949708171 7.55752438150584  4.96154949708171 7.55752438150584  C 4.96154949708171 7.55752438150584  4.17420449937299 13.4415411738206  4.17420449937299 13.4415411738206  C 4.17420449937299 13.4415411738206  1.76261632457408 8.24216299839436  1.76261632457408 8.24216299839436  C 1.76261632457408 8.24216299839436  5.17352699646472 5.55097346660017  5.17352699646472 5.55097346660017  C 5.17352699646472 5.55097346660017  13.936181289142 3.86090644063336  13.936181289142 3.86090644063336  C 13.936181289142 3.86090644063336  19.1530301375942 6.13442335709302  19.1530301375942 6.13442335709302  C 19.1530301375942 6.13442335709302  24.5543269400555 12.4468775228694  24.5543269400555 12.4468775228694  C 24.5543269400555 12.4468775228694  28.5158285194343 12.0550403270402  28.5158285194343 12.0550403270402  C 28.5158285194343 12.0550403270402  37.2234237213629 11.945239794143  37.2234237213629 11.945239794143  C 37.2234237213629 11.945239794143  35.9570646341399 7.8976907383246  35.9570646341399 7.8976907383246  C 35.9570646341399 7.8976907383246  42.550390751313 5.10961838338583  42.550390751313 5.10961838338583  C 42.550390751313 5.10961838338583  49.0528693687506 0.370971855802762  49.0528693687506 0.370971855802762  C 49.0528693687506 0.370971855802762  61.4535316112065 4.68118100992433  61.4535316112065 4.68118100992433  C 61.4535316112065 4.68118100992433  62.2794179724392 11.1228122732267  62.2794179724392 11.1228122732267  C 62.2794179724392 11.1228122732267  65.2333381911144 12.7612084601831  65.2333381911144 12.7612084601831  C 65.2333381911144 12.7612084601831  73.5775433941008 12.3930537322337  73.5775433941008 12.3930537322337  C 73.5775433941008 12.3930537322337  76.1680736138337 13.844143127777  76.1680736138337 13.844143127777  C 76.1680736138337 13.844143127777  79.9643979209659 22.0059827398024  79.9643979209659 22.0059827398024  C 79.9643979209659 22.0059827398024  88.7903701680043 27.4034324647687  88.7903701680043 27.4034324647687  C 88.7903701680043 27.4034324647687  93.825524016986 32.6167880339841  93.825524016986 32.6167880339841  C 93.825524016986 32.6167880339841  101.897186720766 36.3866063301214  101.897186720766 36.3866063301214  C 101.897186720766 36.3866063301214  112.165707145424 39.6590928007831  112.165707145424 39.6590928007831  C 112.165707145424 39.6590928007831  111.953729646041 44.307315360098  111.953729646041 44.307315360098  C 111.953729646041 44.307315360098  109.627483061902 44.0726436329255  109.627483061902 44.0726436329255  C 109.627483061902 44.0726436329255  105.985324208867 42.0467161533908  105.985324208867 42.0467161533908  C 105.985324208867 42.0467161533908  104.774024212392 44.7422115884359  104.774024212392 44.7422115884359  C 104.774024212392 44.7422115884359  98.2687926404174 46.2019127904811  98.2687926404174 46.2019127904811  C 98.2687926404174 46.2019127904811  96.7271380994493 52.1978830673185  96.7271380994493 52.1978830673185  C 96.7271380994493 52.1978830673185  92.3774699302912 54.4627881772764  92.3774699302912 54.4627881772764  C 92.3774699302912 54.4627881772764  86.2851815389326 55.5801700708773  86.2851815389326 55.5801700708773  C 86.2851815389326 55.5801700708773  84.674703134529 58.9323157516801  84.674703134529 58.9323157516801  C 84.674703134529 58.9323157516801  78.8522042878394 59.9140616928787  78.8522042878394 59.9140616928787  Z " stroke-width="2" stroke="#505050" fill="none" stroke-opacity="0.211764705882353" transform="matrix(1 0 0 1 2197 1751 )" mask="url(#clip761)" />
  </g>
</svg>