<?xml version="1.0" encoding="utf-8"?>
<svg version="1.1" xmlns:xlink="http://www.w3.org/1999/xlink" width="35px" height="54px" xmlns="http://www.w3.org/2000/svg">
  <defs>
    <mask fill="white" id="clip762">
      <path d="M 22.0930046199043 52.3555116312594  C 22.0930046199043 52.3555116312594  16.1545394239769 53.9951389660593  16.1545394239769 53.9951389660593  C 16.1545394239769 53.9951389660593  12.7680004966679 41.1907425661617  12.7680004966679 41.1907425661617  C 12.7680004966679 41.1907425661617  7.86814626627688 38.2787644195569  7.86814626627688 38.2787644195569  C 7.86814626627688 38.2787644195569  7.80013209535184 36.5254562562108  7.80013209535184 36.5254562562108  C 7.80013209535184 36.5254562562108  1.30194484822255 32.18809541322  1.30194484822255 32.18809541322  C 1.30194484822255 32.18809541322  0.601965672452205 25.0754090857165  0.601965672452205 25.0754090857165  C 0.601965672452205 25.0754090857165  5.4989859790548 20.9501067113598  5.4989859790548 20.9501067113598  C 5.4989859790548 20.9501067113598  7.36937567949326 14.8025972907498  7.36937567949326 14.8025972907498  C 7.36937567949326 14.8025972907498  6.10827959359152 7.61447105498682  6.10827959359152 7.61447105498682  C 6.10827959359152 7.61447105498682  7.72361615306114 3.70778565860347  7.72361615306114 3.70778565860347  C 7.72361615306114 3.70778565860347  18.4344090088949 0.618727759840373  18.4344090088949 0.618727759840373  C 18.4344090088949 0.618727759840373  23.9974014058052 1.53910523710802  23.9974014058052 1.53910523710802  C 23.9974014058052 1.53910523710802  23.7650196551447 5.40425340767641  23.7650196551447 5.40425340767641  C 23.7650196551447 5.40425340767641  30.5040904243001 2.59502524071919  30.5040904243001 2.59502524071919  C 30.5040904243001 2.59502524071919  31.0708751820088 4.06413133269995  31.0708751820088 4.06413133269995  C 31.0708751820088 4.06413133269995  27.0977140304714 7.7915508071452  27.0977140304714 7.7915508071452  C 27.0977140304714 7.7915508071452  27.043869478489 11.2872362849387  27.043869478489 11.2872362849387  C 27.043869478489 11.2872362849387  29.7956094771644 13.1585976163904  29.7956094771644 13.1585976163904  C 29.7956094771644 13.1585976163904  28.749891599192 19.6274739946211  28.749891599192 19.6274739946211  C 28.749891599192 19.6274739946211  23.5184682855415 23.3527072992866  23.5184682855415 23.3527072992866  C 23.5184682855415 23.3527072992866  25.0289496648351 28.9547503089945  25.0289496648351 28.9547503089945  C 25.0289496648351 28.9547503089945  29.1381391582226 29.0793619864392  29.1381391582226 29.0793619864392  C 29.1381391582226 29.0793619864392  31.1360554291452 32.5597442757746  31.1360554291452 32.5597442757746  C 31.1360554291452 32.5597442757746  34.1598521115209 33.6987387310156  34.1598521115209 33.6987387310156  C 34.1598521115209 33.6987387310156  33.7092582291426 39.2712854995559  33.7092582291426 39.2712854995559  C 33.7092582291426 39.2712854995559  29.835284410204 41.3415882809632  29.835284410204 41.3415882809632  C 29.835284410204 41.3415882809632  27.3896081806912 43.6436250590224  27.3896081806912 43.6436250590224  C 27.3896081806912 43.6436250590224  21.9343048877457 46.4025713210457  21.9343048877457 46.4025713210457  C 21.9343048877457 46.4025713210457  22.7788141767315 49.3560866934654  22.7788141767315 49.3560866934654  C 22.7788141767315 49.3560866934654  22.0930046199043 52.3555116312594  22.0930046199043 52.3555116312594  Z " fill-rule="evenodd" />
    </mask>
  </defs>
  <g transform="matrix(1 0 0 1 -1852 -1791 )">
    <path d="M 22.0930046199043 52.3555116312594  C 22.0930046199043 52.3555116312594  16.1545394239769 53.9951389660593  16.1545394239769 53.9951389660593  C 16.1545394239769 53.9951389660593  12.7680004966679 41.1907425661617  12.7680004966679 41.1907425661617  C 12.7680004966679 41.1907425661617  7.86814626627688 38.2787644195569  7.86814626627688 38.2787644195569  C 7.86814626627688 38.2787644195569  7.80013209535184 36.5254562562108  7.80013209535184 36.5254562562108  C 7.80013209535184 36.5254562562108  1.30194484822255 32.18809541322  1.30194484822255 32.18809541322  C 1.30194484822255 32.18809541322  0.601965672452205 25.0754090857165  0.601965672452205 25.0754090857165  C 0.601965672452205 25.0754090857165  5.4989859790548 20.9501067113598  5.4989859790548 20.9501067113598  C 5.4989859790548 20.9501067113598  7.36937567949326 14.8025972907498  7.36937567949326 14.8025972907498  C 7.36937567949326 14.8025972907498  6.10827959359152 7.61447105498682  6.10827959359152 7.61447105498682  C 6.10827959359152 7.61447105498682  7.72361615306114 3.70778565860347  7.72361615306114 3.70778565860347  C 7.72361615306114 3.70778565860347  18.4344090088949 0.618727759840373  18.4344090088949 0.618727759840373  C 18.4344090088949 0.618727759840373  23.9974014058052 1.53910523710802  23.9974014058052 1.53910523710802  C 23.9974014058052 1.53910523710802  23.7650196551447 5.40425340767641  23.7650196551447 5.40425340767641  C 23.7650196551447 5.40425340767641  30.5040904243001 2.59502524071919  30.5040904243001 2.59502524071919  C 30.5040904243001 2.59502524071919  31.0708751820088 4.06413133269995  31.0708751820088 4.06413133269995  C 31.0708751820088 4.06413133269995  27.0977140304714 7.7915508071452  27.0977140304714 7.7915508071452  C 27.0977140304714 7.7915508071452  27.043869478489 11.2872362849387  27.043869478489 11.2872362849387  C 27.043869478489 11.2872362849387  29.7956094771644 13.1585976163904  29.7956094771644 13.1585976163904  C 29.7956094771644 13.1585976163904  28.749891599192 19.6274739946211  28.749891599192 19.6274739946211  C 28.749891599192 19.6274739946211  23.5184682855415 23.3527072992866  23.5184682855415 23.3527072992866  C 23.5184682855415 23.3527072992866  25.0289496648351 28.9547503089945  25.0289496648351 28.9547503089945  C 25.0289496648351 28.9547503089945  29.1381391582226 29.0793619864392  29.1381391582226 29.0793619864392  C 29.1381391582226 29.0793619864392  31.1360554291452 32.5597442757746  31.1360554291452 32.5597442757746  C 31.1360554291452 32.5597442757746  34.1598521115209 33.6987387310156  34.1598521115209 33.6987387310156  C 34.1598521115209 33.6987387310156  33.7092582291426 39.2712854995559  33.7092582291426 39.2712854995559  C 33.7092582291426 39.2712854995559  29.835284410204 41.3415882809632  29.835284410204 41.3415882809632  C 29.835284410204 41.3415882809632  27.3896081806912 43.6436250590224  27.3896081806912 43.6436250590224  C 27.3896081806912 43.6436250590224  21.9343048877457 46.4025713210457  21.9343048877457 46.4025713210457  C 21.9343048877457 46.4025713210457  22.7788141767315 49.3560866934654  22.7788141767315 49.3560866934654  C 22.7788141767315 49.3560866934654  22.0930046199043 52.3555116312594  22.0930046199043 52.3555116312594  Z " fill-rule="nonzero" fill="#f2f2f2" stroke="none" transform="matrix(1 0 0 1 1852 1791 )" />
    <path d="M 22.0930046199043 52.3555116312594  C 22.0930046199043 52.3555116312594  16.1545394239769 53.9951389660593  16.1545394239769 53.9951389660593  C 16.1545394239769 53.9951389660593  12.7680004966679 41.1907425661617  12.7680004966679 41.1907425661617  C 12.7680004966679 41.1907425661617  7.86814626627688 38.2787644195569  7.86814626627688 38.2787644195569  C 7.86814626627688 38.2787644195569  7.80013209535184 36.5254562562108  7.80013209535184 36.5254562562108  C 7.80013209535184 36.5254562562108  1.30194484822255 32.18809541322  1.30194484822255 32.18809541322  C 1.30194484822255 32.18809541322  0.601965672452205 25.0754090857165  0.601965672452205 25.0754090857165  C 0.601965672452205 25.0754090857165  5.4989859790548 20.9501067113598  5.4989859790548 20.9501067113598  C 5.4989859790548 20.9501067113598  7.36937567949326 14.8025972907498  7.36937567949326 14.8025972907498  C 7.36937567949326 14.8025972907498  6.10827959359152 7.61447105498682  6.10827959359152 7.61447105498682  C 6.10827959359152 7.61447105498682  7.72361615306114 3.70778565860347  7.72361615306114 3.70778565860347  C 7.72361615306114 3.70778565860347  18.4344090088949 0.618727759840373  18.4344090088949 0.618727759840373  C 18.4344090088949 0.618727759840373  23.9974014058052 1.53910523710802  23.9974014058052 1.53910523710802  C 23.9974014058052 1.53910523710802  23.7650196551447 5.40425340767641  23.7650196551447 5.40425340767641  C 23.7650196551447 5.40425340767641  30.5040904243001 2.59502524071919  30.5040904243001 2.59502524071919  C 30.5040904243001 2.59502524071919  31.0708751820088 4.06413133269995  31.0708751820088 4.06413133269995  C 31.0708751820088 4.06413133269995  27.0977140304714 7.7915508071452  27.0977140304714 7.7915508071452  C 27.0977140304714 7.7915508071452  27.043869478489 11.2872362849387  27.043869478489 11.2872362849387  C 27.043869478489 11.2872362849387  29.7956094771644 13.1585976163904  29.7956094771644 13.1585976163904  C 29.7956094771644 13.1585976163904  28.749891599192 19.6274739946211  28.749891599192 19.6274739946211  C 28.749891599192 19.6274739946211  23.5184682855415 23.3527072992866  23.5184682855415 23.3527072992866  C 23.5184682855415 23.3527072992866  25.0289496648351 28.9547503089945  25.0289496648351 28.9547503089945  C 25.0289496648351 28.9547503089945  29.1381391582226 29.0793619864392  29.1381391582226 29.0793619864392  C 29.1381391582226 29.0793619864392  31.1360554291452 32.5597442757746  31.1360554291452 32.5597442757746  C 31.1360554291452 32.5597442757746  34.1598521115209 33.6987387310156  34.1598521115209 33.6987387310156  C 34.1598521115209 33.6987387310156  33.7092582291426 39.2712854995559  33.7092582291426 39.2712854995559  C 33.7092582291426 39.2712854995559  29.835284410204 41.3415882809632  29.835284410204 41.3415882809632  C 29.835284410204 41.3415882809632  27.3896081806912 43.6436250590224  27.3896081806912 43.6436250590224  C 27.3896081806912 43.6436250590224  21.9343048877457 46.4025713210457  21.9343048877457 46.4025713210457  C 21.9343048877457 46.4025713210457  22.7788141767315 49.3560866934654  22.7788141767315 49.3560866934654  C 22.7788141767315 49.3560866934654  22.0930046199043 52.3555116312594  22.0930046199043 52.3555116312594  Z " stroke-width="2" stroke="#505050" fill="none" stroke-opacity="0.211764705882353" transform="matrix(1 0 0 1 1852 1791 )" mask="url(#clip762)" />
  </g>
</svg>