<?xml version="1.0" encoding="utf-8"?>
<svg version="1.1" xmlns:xlink="http://www.w3.org/1999/xlink" width="149px" height="52px" xmlns="http://www.w3.org/2000/svg">
  <defs>
    <mask fill="white" id="clip763">
      <path d="M 71.4837630965185 1.48322760592879  C 71.4837630965185 1.48322760592879  86.8481003363689 7.2028660603555  86.8481003363689 7.2028660603555  C 86.8481003363689 7.2028660603555  97.8466675982966 10.3153731449603  97.8466675982966 10.3153731449603  C 97.8466675982966 10.3153731449603  106.777876120786 9.07687729457052  106.777876120786 9.07687729457052  C 106.777876120786 9.07687729457052  113.379204159148 9.79264547430532  113.379204159148 9.79264547430532  C 113.379204159148 9.79264547430532  122.433469749462 5.58479617525778  122.433469749462 5.58479617525778  C 122.433469749462 5.58479617525778  130.601724451445 5.20088415158179  130.601724451445 5.20088415158179  C 130.601724451445 5.20088415158179  137.987883122372 9.16363707393224  137.987883122372 9.16363707393224  C 137.987883122372 9.16363707393224  139.289553439795 11.9854988976749  139.289553439795 11.9854988976749  C 139.289553439795 11.9854988976749  138.551211032854 15.8636610351476  138.551211032854 15.8636610351476  C 138.551211032854 15.8636610351476  144.25285517535 17.8331080266606  144.25285517535 17.8331080266606  C 144.25285517535 17.8331080266606  147.27185523929 20.1387491632006  147.27185523929 20.1387491632006  C 147.27185523929 20.1387491632006  142.021420345481 22.3771514707351  142.021420345481 22.3771514707351  C 142.021420345481 22.3771514707351  144.414196664274 32.8718143648862  144.414196664274 32.8718143648862  C 144.414196664274 32.8718143648862  142.912900436825 35.2577082973359  142.912900436825 35.2577082973359  C 142.912900436825 35.2577082973359  147.107779148859 41.3786107313113  147.107779148859 41.3786107313113  C 147.107779148859 41.3786107313113  143.432474723192 42.660486471382  143.432474723192 42.660486471382  C 143.432474723192 42.660486471382  140.738892238608 40.7257433916138  140.738892238608 40.7257433916138  C 140.738892238608 40.7257433916138  131.821356723654 39.7431888903414  131.821356723654 39.7431888903414  C 131.821356723654 39.7431888903414  128.528896508994 40.925290884146  128.528896508994 40.925290884146  C 128.528896508994 40.925290884146  119.808252302558 42.1052238834665  119.808252302558 42.1052238834665  C 119.808252302558 42.1052238834665  115.676269425191 41.9772532089078  115.676269425191 41.9772532089078  C 115.676269425191 41.9772532089078  106.851710361481 44.8186359830069  106.851710361481 44.8186359830069  C 106.851710361481 44.8186359830069  100.542984684389 44.8424949223314  100.542984684389 44.8424949223314  C 100.542984684389 44.8424949223314  96.4629592356577 43.4196345407978  96.4629592356577 43.4196345407978  C 96.4629592356577 43.4196345407978  88.0212443829554 45.5213901958376  88.0212443829554 45.5213901958376  C 88.0212443829554 45.5213901958376  85.5136148008602 44.052980930139  85.5136148008602 44.052980930139  C 85.5136148008602 44.052980930139  85.0979553717667 48.2564922402184  85.0979553717667 48.2564922402184  C 85.0979553717667 48.2564922402184  83.0442696398655 49.8984210646405  83.0442696398655 49.8984210646405  C 83.0442696398655 49.8984210646405  80.9905839079638 51.5360119000946  80.9905839079638 51.5360119000946  C 80.9905839079638 51.5360119000946  78.1712097540489 48.13936653808  78.1712097540489 48.13936653808  C 78.1712097540489 48.13936653808  81.0753565546869 45.3109977308852  81.0753565546869 45.3109977308852  C 81.0753565546869 45.3109977308852  76.399187977388 45.9530200981625  76.399187977388 45.9530200981625  C 76.399187977388 45.9530200981625  67.9998807763554 44.2156555164425  67.9998807763554 44.2156555164425  C 67.9998807763554 44.2156555164425  62.7275690704885 48.5514754900487  62.7275690704885 48.5514754900487  C 62.7275690704885 48.5514754900487  51.0918396573854 49.3952143443423  51.0918396573854 49.3952143443423  C 51.0918396573854 49.3952143443423  44.884294236059 45.3587156095344  44.884294236059 45.3587156095344  C 44.884294236059 45.3587156095344  36.6203284813235 45.104943254901  36.6203284813235 45.104943254901  C 36.6203284813235 45.104943254901  34.8537759076776 48.228295311926  34.8537759076776 48.228295311926  C 34.8537759076776 48.228295311926  29.5541181867389 49.1197520448685  29.5541181867389 49.1197520448685  C 29.5541181867389 49.1197520448685  22.1406135007407 45.1136192328373  22.1406135007407 45.1136192328373  C 22.1406135007407 45.1136192328373  13.7699982872249 45.250265885332  13.7699982872249 45.250265885332  C 13.7699982872249 45.250265885332  9.22782518377871 37.6934891029189  9.22782518377871 37.6934891029189  C 9.22782518377871 37.6934891029189  3.62736129704902 33.4335839362543  3.62736129704902 33.4335839362543  C 3.62736129704902 33.4335839362543  7.35735775285942 27.4081172595768  7.35735775285942 27.4081172595768  C 7.35735775285942 27.4081172595768  2.49797087457857 22.0951821878095  2.49797087457857 22.0951821878095  C 2.49797087457857 22.0951821878095  11.0025815619465 14.5384054053963  11.0025815619465 14.5384054053963  C 11.0025815619465 14.5384054053963  22.8105908700029 14.2195632162417  22.8105908700029 14.2195632162417  C 22.8105908700029 14.2195632162417  26.0319514454753 8.13336469401107  26.0319514454753 8.13336469401107  C 26.0319514454753 8.13336469401107  40.6456618999111 9.19834098567723  40.6456618999111 9.19834098567723  C 40.6456618999111 9.19834098567723  49.8640035806562 3.95805031222423  49.8640035806562 3.95805031222423  C 49.8640035806562 3.95805031222423  58.7979467046535 1.65674716465232  58.7979467046535 1.65674716465232  C 58.7979467046535 1.65674716465232  71.4837630965185 1.48322760592879  71.4837630965185 1.48322760592879  Z M 15.5843850589383 11.4790217687491  C 15.5843850589383 11.4790217687491  10.3298695911764 13.9560134695288  10.3298695911764 13.9560134695288  C 10.3298695911764 13.9560134695288  3.9309020643464 18.241946570002  3.9309020643464 18.241946570002  C 3.9309020643464 18.241946570002  1.51898353500294 14.5373039912528  1.51898353500294 14.5373039912528  C 1.51898353500294 14.5373039912528  1.62563299378336 12.8866991888944  1.62563299378336 12.8866991888944  C 1.62563299378336 12.8866991888944  3.44687759757348 11.9887354724998  3.44687759757348 11.9887354724998  C 3.44687759757348 11.9887354724998  5.82051170581664 5.37006572133736  5.82051170581664 5.37006572133736  C 5.82051170581664 5.37006572133736  2.08504604699192 3.22276118213269  2.08504604699192 3.22276118213269  C 2.08504604699192 3.22276118213269  9.89506795153311 0.656840707507296  9.89506795153311 0.656840707507296  C 9.89506795153311 0.656840707507296  18.4830626565622 1.75218292195004  18.4830626565622 1.75218292195004  C 18.4830626565622 1.75218292195004  19.3936849584572 4.87770397345906  19.3936849584572 4.87770397345906  C 19.3936849584572 4.87770397345906  26.0852548465566 7.48917333224938  26.0852548465566 7.48917333224938  C 26.0852548465566 7.48917333224938  24.6906080778886 11.0365468940039  24.6906080778886 11.0365468940039  C 24.6906080778886 11.0365468940039  15.5843850589383 11.4790217687491  15.5843850589383 11.4790217687491  Z " fill-rule="evenodd" />
    </mask>
  </defs>
  <g transform="matrix(1 0 0 1 -1993 -1754 )">
    <path d="M 71.4837630965185 1.48322760592879  C 71.4837630965185 1.48322760592879  86.8481003363689 7.2028660603555  86.8481003363689 7.2028660603555  C 86.8481003363689 7.2028660603555  97.8466675982966 10.3153731449603  97.8466675982966 10.3153731449603  C 97.8466675982966 10.3153731449603  106.777876120786 9.07687729457052  106.777876120786 9.07687729457052  C 106.777876120786 9.07687729457052  113.379204159148 9.79264547430532  113.379204159148 9.79264547430532  C 113.379204159148 9.79264547430532  122.433469749462 5.58479617525778  122.433469749462 5.58479617525778  C 122.433469749462 5.58479617525778  130.601724451445 5.20088415158179  130.601724451445 5.20088415158179  C 130.601724451445 5.20088415158179  137.987883122372 9.16363707393224  137.987883122372 9.16363707393224  C 137.987883122372 9.16363707393224  139.289553439795 11.9854988976749  139.289553439795 11.9854988976749  C 139.289553439795 11.9854988976749  138.551211032854 15.8636610351476  138.551211032854 15.8636610351476  C 138.551211032854 15.8636610351476  144.25285517535 17.8331080266606  144.25285517535 17.8331080266606  C 144.25285517535 17.8331080266606  147.27185523929 20.1387491632006  147.27185523929 20.1387491632006  C 147.27185523929 20.1387491632006  142.021420345481 22.3771514707351  142.021420345481 22.3771514707351  C 142.021420345481 22.3771514707351  144.414196664274 32.8718143648862  144.414196664274 32.8718143648862  C 144.414196664274 32.8718143648862  142.912900436825 35.2577082973359  142.912900436825 35.2577082973359  C 142.912900436825 35.2577082973359  147.107779148859 41.3786107313113  147.107779148859 41.3786107313113  C 147.107779148859 41.3786107313113  143.432474723192 42.660486471382  143.432474723192 42.660486471382  C 143.432474723192 42.660486471382  140.738892238608 40.7257433916138  140.738892238608 40.7257433916138  C 140.738892238608 40.7257433916138  131.821356723654 39.7431888903414  131.821356723654 39.7431888903414  C 131.821356723654 39.7431888903414  128.528896508994 40.925290884146  128.528896508994 40.925290884146  C 128.528896508994 40.925290884146  119.808252302558 42.1052238834665  119.808252302558 42.1052238834665  C 119.808252302558 42.1052238834665  115.676269425191 41.9772532089078  115.676269425191 41.9772532089078  C 115.676269425191 41.9772532089078  106.851710361481 44.8186359830069  106.851710361481 44.8186359830069  C 106.851710361481 44.8186359830069  100.542984684389 44.8424949223314  100.542984684389 44.8424949223314  C 100.542984684389 44.8424949223314  96.4629592356577 43.4196345407978  96.4629592356577 43.4196345407978  C 96.4629592356577 43.4196345407978  88.0212443829554 45.5213901958376  88.0212443829554 45.5213901958376  C 88.0212443829554 45.5213901958376  85.5136148008602 44.052980930139  85.5136148008602 44.052980930139  C 85.5136148008602 44.052980930139  85.0979553717667 48.2564922402184  85.0979553717667 48.2564922402184  C 85.0979553717667 48.2564922402184  83.0442696398655 49.8984210646405  83.0442696398655 49.8984210646405  C 83.0442696398655 49.8984210646405  80.9905839079638 51.5360119000946  80.9905839079638 51.5360119000946  C 80.9905839079638 51.5360119000946  78.1712097540489 48.13936653808  78.1712097540489 48.13936653808  C 78.1712097540489 48.13936653808  81.0753565546869 45.3109977308852  81.0753565546869 45.3109977308852  C 81.0753565546869 45.3109977308852  76.399187977388 45.9530200981625  76.399187977388 45.9530200981625  C 76.399187977388 45.9530200981625  67.9998807763554 44.2156555164425  67.9998807763554 44.2156555164425  C 67.9998807763554 44.2156555164425  62.7275690704885 48.5514754900487  62.7275690704885 48.5514754900487  C 62.7275690704885 48.5514754900487  51.0918396573854 49.3952143443423  51.0918396573854 49.3952143443423  C 51.0918396573854 49.3952143443423  44.884294236059 45.3587156095344  44.884294236059 45.3587156095344  C 44.884294236059 45.3587156095344  36.6203284813235 45.104943254901  36.6203284813235 45.104943254901  C 36.6203284813235 45.104943254901  34.8537759076776 48.228295311926  34.8537759076776 48.228295311926  C 34.8537759076776 48.228295311926  29.5541181867389 49.1197520448685  29.5541181867389 49.1197520448685  C 29.5541181867389 49.1197520448685  22.1406135007407 45.1136192328373  22.1406135007407 45.1136192328373  C 22.1406135007407 45.1136192328373  13.7699982872249 45.250265885332  13.7699982872249 45.250265885332  C 13.7699982872249 45.250265885332  9.22782518377871 37.6934891029189  9.22782518377871 37.6934891029189  C 9.22782518377871 37.6934891029189  3.62736129704902 33.4335839362543  3.62736129704902 33.4335839362543  C 3.62736129704902 33.4335839362543  7.35735775285942 27.4081172595768  7.35735775285942 27.4081172595768  C 7.35735775285942 27.4081172595768  2.49797087457857 22.0951821878095  2.49797087457857 22.0951821878095  C 2.49797087457857 22.0951821878095  11.0025815619465 14.5384054053963  11.0025815619465 14.5384054053963  C 11.0025815619465 14.5384054053963  22.8105908700029 14.2195632162417  22.8105908700029 14.2195632162417  C 22.8105908700029 14.2195632162417  26.0319514454753 8.13336469401107  26.0319514454753 8.13336469401107  C 26.0319514454753 8.13336469401107  40.6456618999111 9.19834098567723  40.6456618999111 9.19834098567723  C 40.6456618999111 9.19834098567723  49.8640035806562 3.95805031222423  49.8640035806562 3.95805031222423  C 49.8640035806562 3.95805031222423  58.7979467046535 1.65674716465232  58.7979467046535 1.65674716465232  C 58.7979467046535 1.65674716465232  71.4837630965185 1.48322760592879  71.4837630965185 1.48322760592879  Z M 15.5843850589383 11.4790217687491  C 15.5843850589383 11.4790217687491  10.3298695911764 13.9560134695288  10.3298695911764 13.9560134695288  C 10.3298695911764 13.9560134695288  3.9309020643464 18.241946570002  3.9309020643464 18.241946570002  C 3.9309020643464 18.241946570002  1.51898353500294 14.5373039912528  1.51898353500294 14.5373039912528  C 1.51898353500294 14.5373039912528  1.62563299378336 12.8866991888944  1.62563299378336 12.8866991888944  C 1.62563299378336 12.8866991888944  3.44687759757348 11.9887354724998  3.44687759757348 11.9887354724998  C 3.44687759757348 11.9887354724998  5.82051170581664 5.37006572133736  5.82051170581664 5.37006572133736  C 5.82051170581664 5.37006572133736  2.08504604699192 3.22276118213269  2.08504604699192 3.22276118213269  C 2.08504604699192 3.22276118213269  9.89506795153311 0.656840707507296  9.89506795153311 0.656840707507296  C 9.89506795153311 0.656840707507296  18.4830626565622 1.75218292195004  18.4830626565622 1.75218292195004  C 18.4830626565622 1.75218292195004  19.3936849584572 4.87770397345906  19.3936849584572 4.87770397345906  C 19.3936849584572 4.87770397345906  26.0852548465566 7.48917333224938  26.0852548465566 7.48917333224938  C 26.0852548465566 7.48917333224938  24.6906080778886 11.0365468940039  24.6906080778886 11.0365468940039  C 24.6906080778886 11.0365468940039  15.5843850589383 11.4790217687491  15.5843850589383 11.4790217687491  Z " fill-rule="nonzero" fill="#f2f2f2" stroke="none" transform="matrix(1 0 0 1 1993 1754 )" />
    <path d="M 71.4837630965185 1.48322760592879  C 71.4837630965185 1.48322760592879  86.8481003363689 7.2028660603555  86.8481003363689 7.2028660603555  C 86.8481003363689 7.2028660603555  97.8466675982966 10.3153731449603  97.8466675982966 10.3153731449603  C 97.8466675982966 10.3153731449603  106.777876120786 9.07687729457052  106.777876120786 9.07687729457052  C 106.777876120786 9.07687729457052  113.379204159148 9.79264547430532  113.379204159148 9.79264547430532  C 113.379204159148 9.79264547430532  122.433469749462 5.58479617525778  122.433469749462 5.58479617525778  C 122.433469749462 5.58479617525778  130.601724451445 5.20088415158179  130.601724451445 5.20088415158179  C 130.601724451445 5.20088415158179  137.987883122372 9.16363707393224  137.987883122372 9.16363707393224  C 137.987883122372 9.16363707393224  139.289553439795 11.9854988976749  139.289553439795 11.9854988976749  C 139.289553439795 11.9854988976749  138.551211032854 15.8636610351476  138.551211032854 15.8636610351476  C 138.551211032854 15.8636610351476  144.25285517535 17.8331080266606  144.25285517535 17.8331080266606  C 144.25285517535 17.8331080266606  147.27185523929 20.1387491632006  147.27185523929 20.1387491632006  C 147.27185523929 20.1387491632006  142.021420345481 22.3771514707351  142.021420345481 22.3771514707351  C 142.021420345481 22.3771514707351  144.414196664274 32.8718143648862  144.414196664274 32.8718143648862  C 144.414196664274 32.8718143648862  142.912900436825 35.2577082973359  142.912900436825 35.2577082973359  C 142.912900436825 35.2577082973359  147.107779148859 41.3786107313113  147.107779148859 41.3786107313113  C 147.107779148859 41.3786107313113  143.432474723192 42.660486471382  143.432474723192 42.660486471382  C 143.432474723192 42.660486471382  140.738892238608 40.7257433916138  140.738892238608 40.7257433916138  C 140.738892238608 40.7257433916138  131.821356723654 39.7431888903414  131.821356723654 39.7431888903414  C 131.821356723654 39.7431888903414  128.528896508994 40.925290884146  128.528896508994 40.925290884146  C 128.528896508994 40.925290884146  119.808252302558 42.1052238834665  119.808252302558 42.1052238834665  C 119.808252302558 42.1052238834665  115.676269425191 41.9772532089078  115.676269425191 41.9772532089078  C 115.676269425191 41.9772532089078  106.851710361481 44.8186359830069  106.851710361481 44.8186359830069  C 106.851710361481 44.8186359830069  100.542984684389 44.8424949223314  100.542984684389 44.8424949223314  C 100.542984684389 44.8424949223314  96.4629592356577 43.4196345407978  96.4629592356577 43.4196345407978  C 96.4629592356577 43.4196345407978  88.0212443829554 45.5213901958376  88.0212443829554 45.5213901958376  C 88.0212443829554 45.5213901958376  85.5136148008602 44.052980930139  85.5136148008602 44.052980930139  C 85.5136148008602 44.052980930139  85.0979553717667 48.2564922402184  85.0979553717667 48.2564922402184  C 85.0979553717667 48.2564922402184  83.0442696398655 49.8984210646405  83.0442696398655 49.8984210646405  C 83.0442696398655 49.8984210646405  80.9905839079638 51.5360119000946  80.9905839079638 51.5360119000946  C 80.9905839079638 51.5360119000946  78.1712097540489 48.13936653808  78.1712097540489 48.13936653808  C 78.1712097540489 48.13936653808  81.0753565546869 45.3109977308852  81.0753565546869 45.3109977308852  C 81.0753565546869 45.3109977308852  76.399187977388 45.9530200981625  76.399187977388 45.9530200981625  C 76.399187977388 45.9530200981625  67.9998807763554 44.2156555164425  67.9998807763554 44.2156555164425  C 67.9998807763554 44.2156555164425  62.7275690704885 48.5514754900487  62.7275690704885 48.5514754900487  C 62.7275690704885 48.5514754900487  51.0918396573854 49.3952143443423  51.0918396573854 49.3952143443423  C 51.0918396573854 49.3952143443423  44.884294236059 45.3587156095344  44.884294236059 45.3587156095344  C 44.884294236059 45.3587156095344  36.6203284813235 45.104943254901  36.6203284813235 45.104943254901  C 36.6203284813235 45.104943254901  34.8537759076776 48.228295311926  34.8537759076776 48.228295311926  C 34.8537759076776 48.228295311926  29.5541181867389 49.1197520448685  29.5541181867389 49.1197520448685  C 29.5541181867389 49.1197520448685  22.1406135007407 45.1136192328373  22.1406135007407 45.1136192328373  C 22.1406135007407 45.1136192328373  13.7699982872249 45.250265885332  13.7699982872249 45.250265885332  C 13.7699982872249 45.250265885332  9.22782518377871 37.6934891029189  9.22782518377871 37.6934891029189  C 9.22782518377871 37.6934891029189  3.62736129704902 33.4335839362543  3.62736129704902 33.4335839362543  C 3.62736129704902 33.4335839362543  7.35735775285942 27.4081172595768  7.35735775285942 27.4081172595768  C 7.35735775285942 27.4081172595768  2.49797087457857 22.0951821878095  2.49797087457857 22.0951821878095  C 2.49797087457857 22.0951821878095  11.0025815619465 14.5384054053963  11.0025815619465 14.5384054053963  C 11.0025815619465 14.5384054053963  22.8105908700029 14.2195632162417  22.8105908700029 14.2195632162417  C 22.8105908700029 14.2195632162417  26.0319514454753 8.13336469401107  26.0319514454753 8.13336469401107  C 26.0319514454753 8.13336469401107  40.6456618999111 9.19834098567723  40.6456618999111 9.19834098567723  C 40.6456618999111 9.19834098567723  49.8640035806562 3.95805031222423  49.8640035806562 3.95805031222423  C 49.8640035806562 3.95805031222423  58.7979467046535 1.65674716465232  58.7979467046535 1.65674716465232  C 58.7979467046535 1.65674716465232  71.4837630965185 1.48322760592879  71.4837630965185 1.48322760592879  Z " stroke-width="2" stroke="#505050" fill="none" stroke-opacity="0.211764705882353" transform="matrix(1 0 0 1 1993 1754 )" mask="url(#clip763)" />
    <path d="M 15.5843850589383 11.4790217687491  C 15.5843850589383 11.4790217687491  10.3298695911764 13.9560134695288  10.3298695911764 13.9560134695288  C 10.3298695911764 13.9560134695288  3.9309020643464 18.241946570002  3.9309020643464 18.241946570002  C 3.9309020643464 18.241946570002  1.51898353500294 14.5373039912528  1.51898353500294 14.5373039912528  C 1.51898353500294 14.5373039912528  1.62563299378336 12.8866991888944  1.62563299378336 12.8866991888944  C 1.62563299378336 12.8866991888944  3.44687759757348 11.9887354724998  3.44687759757348 11.9887354724998  C 3.44687759757348 11.9887354724998  5.82051170581664 5.37006572133736  5.82051170581664 5.37006572133736  C 5.82051170581664 5.37006572133736  2.08504604699192 3.22276118213269  2.08504604699192 3.22276118213269  C 2.08504604699192 3.22276118213269  9.89506795153311 0.656840707507296  9.89506795153311 0.656840707507296  C 9.89506795153311 0.656840707507296  18.4830626565622 1.75218292195004  18.4830626565622 1.75218292195004  C 18.4830626565622 1.75218292195004  19.3936849584572 4.87770397345906  19.3936849584572 4.87770397345906  C 19.3936849584572 4.87770397345906  26.0852548465566 7.48917333224938  26.0852548465566 7.48917333224938  C 26.0852548465566 7.48917333224938  24.6906080778886 11.0365468940039  24.6906080778886 11.0365468940039  C 24.6906080778886 11.0365468940039  15.5843850589383 11.4790217687491  15.5843850589383 11.4790217687491  Z " stroke-width="2" stroke="#505050" fill="none" stroke-opacity="0.211764705882353" transform="matrix(1 0 0 1 1993 1754 )" mask="url(#clip763)" />
  </g>
</svg>