<?xml version="1.0" encoding="utf-8"?>
<svg version="1.1" xmlns:xlink="http://www.w3.org/1999/xlink" width="13px" height="9px" xmlns="http://www.w3.org/2000/svg">
  <defs>
    <mask fill="white" id="clip764">
      <path d="M 2.76860313395377 5.63888601152635  C 2.76860313395377 5.63888601152635  2.6045729260977 1.06638549686872  2.6045729260977 1.06638549686872  C 2.6045729260977 1.06638549686872  9.57583349923491 0.152129294984343  9.57583349923491 0.152129294984343  C 9.57583349923491 0.152129294984343  11.3324479070008 0.397417544270456  11.3324479070008 0.397417544270456  C 11.3324479070008 0.397417544270456  10.9984227564578 7.42775586995594  10.9984227564578 7.42775586995594  C 10.9984227564578 7.42775586995594  1.85003396996048 8.1983078449859  1.85003396996048 8.1983078449859  C 1.85003396996048 8.1983078449859  0.343938425101707 7.56650477864323  0.343938425101707 7.56650477864323  C 0.343938425101707 7.56650477864323  2.76860313395377 5.63888601152635  2.76860313395377 5.63888601152635  Z " fill-rule="evenodd" />
    </mask>
  </defs>
  <g transform="matrix(1 0 0 1 -1316 -1967 )">
    <path d="M 2.76860313395377 5.63888601152635  C 2.76860313395377 5.63888601152635  2.6045729260977 1.06638549686872  2.6045729260977 1.06638549686872  C 2.6045729260977 1.06638549686872  9.57583349923491 0.152129294984343  9.57583349923491 0.152129294984343  C 9.57583349923491 0.152129294984343  11.3324479070008 0.397417544270456  11.3324479070008 0.397417544270456  C 11.3324479070008 0.397417544270456  10.9984227564578 7.42775586995594  10.9984227564578 7.42775586995594  C 10.9984227564578 7.42775586995594  1.85003396996048 8.1983078449859  1.85003396996048 8.1983078449859  C 1.85003396996048 8.1983078449859  0.343938425101707 7.56650477864323  0.343938425101707 7.56650477864323  C 0.343938425101707 7.56650477864323  2.76860313395377 5.63888601152635  2.76860313395377 5.63888601152635  Z " fill-rule="nonzero" fill="#f2f2f2" stroke="none" transform="matrix(1 0 0 1 1316 1967 )" />
    <path d="M 2.76860313395377 5.63888601152635  C 2.76860313395377 5.63888601152635  2.6045729260977 1.06638549686872  2.6045729260977 1.06638549686872  C 2.6045729260977 1.06638549686872  9.57583349923491 0.152129294984343  9.57583349923491 0.152129294984343  C 9.57583349923491 0.152129294984343  11.3324479070008 0.397417544270456  11.3324479070008 0.397417544270456  C 11.3324479070008 0.397417544270456  10.9984227564578 7.42775586995594  10.9984227564578 7.42775586995594  C 10.9984227564578 7.42775586995594  1.85003396996048 8.1983078449859  1.85003396996048 8.1983078449859  C 1.85003396996048 8.1983078449859  0.343938425101707 7.56650477864323  0.343938425101707 7.56650477864323  C 0.343938425101707 7.56650477864323  2.76860313395377 5.63888601152635  2.76860313395377 5.63888601152635  Z " stroke-width="2" stroke="#505050" fill="none" stroke-opacity="0.211764705882353" transform="matrix(1 0 0 1 1316 1967 )" mask="url(#clip764)" />
  </g>
</svg>