<?xml version="1.0" encoding="utf-8"?>
<svg version="1.1" xmlns:xlink="http://www.w3.org/1999/xlink" width="87px" height="68px" xmlns="http://www.w3.org/2000/svg">
  <defs>
    <mask fill="white" id="clip765">
      <path d="M 20.2412557219023 1.58961521419126  C 20.2412557219023 1.58961521419126  35.7901619343943 1.13012207503258  35.7901619343943 1.13012207503258  C 35.7901619343943 1.13012207503258  37.0802339709288 1.7810706888406  37.0802339709288 1.7810706888406  C 37.0802339709288 1.7810706888406  66.7287353805761 13.859783856164  66.7287353805761 13.859783856164  C 66.7287353805761 13.859783856164  67.248574534538 17.3017278337493  67.248574534538 17.3017278337493  C 67.248574534538 17.3017278337493  78.2005784902648 23.2411021139832  78.2005784902648 23.2411021139832  C 78.2005784902648 23.2411021139832  74.6787362639455 30.5738467930537  74.6787362639455 30.5738467930537  C 74.6787362639455 30.5738467930537  75.130533643829 35.4952995414923  75.130533643829 35.4952995414923  C 75.130533643829 35.4952995414923  80.0159330226881 37.6693828202885  80.0159330226881 37.6693828202885  C 80.0159330226881 37.6693828202885  80.2445533835928 39.2222994480001  80.2445533835928 39.2222994480001  C 80.2445533835928 39.2222994480001  78.1434234000389 42.8301715036147  78.1434234000389 42.8301715036147  C 78.1434234000389 42.8301715036147  78.5816124251063 44.6489985127837  78.5816124251063 44.6489985127837  C 78.5816124251063 44.6489985127837  78.0808249678864 47.5080669342141  78.0808249678864 47.5080669342141  C 78.0808249678864 47.5080669342141  80.7453408408132 51.2669760864969  80.7453408408132 51.2669760864969  C 80.7453408408132 51.2669760864969  83.9052008290334 57.1935866684205  83.9052008290334 57.1935866684205  C 83.9052008290334 57.1935866684205  86.7058002501175 58.5103748773981  86.7058002501175 58.5103748773981  C 86.7058002501175 58.5103748773981  80.6337523313234 62.0055009312746  80.6337523313234 62.0055009312746  C 80.6337523313234 62.0055009312746  72.2891091582974 64.3497668542035  72.2891091582974 64.3497668542035  C 72.2891091582974 64.3497668542035  67.7112585982744 64.2519118338273  67.7112585982744 64.2519118338273  C 67.7112585982744 64.2519118338273  64.9923093060847 66.0643569938413  64.9923093060847 66.0643569938413  C 64.9923093060847 66.0643569938413  59.6796075860106 66.2196486566126  59.6796075860106 66.2196486566126  C 59.6796075860106 66.2196486566126  57.6873444409825 66.9854705552099  57.6873444409825 66.9854705552099  C 57.6873444409825 66.9854705552099  48.518034966121 65.2815168308306  48.518034966121 65.2815168308306  C 48.518034966121 65.2815168308306  40.7980365065953 65.7686646496604  40.7980365065953 65.7686646496604  C 40.7980365065953 65.7686646496604  38.6615248005208 57.5637339194095  38.6615248005208 57.5637339194095  C 38.6615248005208 57.5637339194095  36.0732157145625 54.7578475742703  36.0732157145625 54.7578475742703  C 36.0732157145625 54.7578475742703  34.5381932913443 53.0964395109241  34.5381932913443 53.0964395109241  C 34.5381932913443 53.0964395109241  27.0563198136373 51.9774886257511  27.0563198136373 51.9774886257511  C 27.0563198136373 51.9774886257511  22.7261413112611 50.1735525979436  22.7261413112611 50.1735525979436  C 22.7261413112611 50.1735525979436  17.8761236549227 49.165220431457  17.8761236549227 49.165220431457  C 17.8761236549227 49.165220431457  14.8360171890811 48.1611428310737  14.8360171890811 48.1611428310737  C 14.8360171890811 48.1611428310737  11.6462188202659 46.6358808830337  11.6462188202659 46.6358808830337  C 11.6462188202659 46.6358808830337  7.52560898205265 39.103171597107  7.52560898205265 39.103171597107  C 7.52560898205265 39.103171597107  3.10017199596623 35.7612099229498  3.10017199596623 35.7612099229498  C 3.10017199596623 35.7612099229498  1.57331458563734 30.7567931354965  1.57331458563734 30.7567931354965  C 1.57331458563734 30.7567931354965  2.33538245532039 27.6615962953317  2.33538245532039 27.6615962953317  C 2.33538245532039 27.6615962953317  0.963660289891307 22.1902242864631  0.963660289891307 22.1902242864631  C 0.963660289891307 22.1902242864631  4.11807693618549 21.9072956405925  4.11807693618549 21.9072956405925  C 4.11807693618549 21.9072956405925  6.88873797667514 19.7544851923129  6.88873797667514 19.7544851923129  C 6.88873797667514 19.7544851923129  9.85808099747436 16.6592883521482  9.85808099747436 16.6592883521482  C 9.85808099747436 16.6592883521482  11.7414773039761 15.416955049979  11.7414773039761 15.416955049979  C 11.7414773039761 15.416955049979  11.6707138589344 13.4875093221234  11.6707138589344 13.4875093221234  C 11.6707138589344 13.4875093221234  10.0268245971899 12.1430664334746  10.0268245971899 12.1430664334746  C 10.0268245971899 12.1430664334746  9.5859139011594 9.80730964275257  9.5859139011594 9.80730964275257  C 9.5859139011594 9.80730964275257  11.78774571035 9.05637872551642  11.78774571035 9.05637872551642  C 11.78774571035 9.05637872551642  12.2286564063807 5.56976180384647  12.2286564063807 5.56976180384647  C 12.2286564063807 5.56976180384647  9.19671495342839 2.22354556358583  9.19671495342839 2.22354556358583  C 9.19671495342839 2.22354556358583  11.8748391811709 1.5130330243316  11.8748391811709 1.5130330243316  C 11.8748391811709 1.5130330243316  20.2412557219023 1.58961521419126  20.2412557219023 1.58961521419126  Z " fill-rule="evenodd" />
    </mask>
  </defs>
  <g transform="matrix(1 0 0 1 -2017 -2038 )">
    <path d="M 20.2412557219023 1.58961521419126  C 20.2412557219023 1.58961521419126  35.7901619343943 1.13012207503258  35.7901619343943 1.13012207503258  C 35.7901619343943 1.13012207503258  37.0802339709288 1.7810706888406  37.0802339709288 1.7810706888406  C 37.0802339709288 1.7810706888406  66.7287353805761 13.859783856164  66.7287353805761 13.859783856164  C 66.7287353805761 13.859783856164  67.248574534538 17.3017278337493  67.248574534538 17.3017278337493  C 67.248574534538 17.3017278337493  78.2005784902648 23.2411021139832  78.2005784902648 23.2411021139832  C 78.2005784902648 23.2411021139832  74.6787362639455 30.5738467930537  74.6787362639455 30.5738467930537  C 74.6787362639455 30.5738467930537  75.130533643829 35.4952995414923  75.130533643829 35.4952995414923  C 75.130533643829 35.4952995414923  80.0159330226881 37.6693828202885  80.0159330226881 37.6693828202885  C 80.0159330226881 37.6693828202885  80.2445533835928 39.2222994480001  80.2445533835928 39.2222994480001  C 80.2445533835928 39.2222994480001  78.1434234000389 42.8301715036147  78.1434234000389 42.8301715036147  C 78.1434234000389 42.8301715036147  78.5816124251063 44.6489985127837  78.5816124251063 44.6489985127837  C 78.5816124251063 44.6489985127837  78.0808249678864 47.5080669342141  78.0808249678864 47.5080669342141  C 78.0808249678864 47.5080669342141  80.7453408408132 51.2669760864969  80.7453408408132 51.2669760864969  C 80.7453408408132 51.2669760864969  83.9052008290334 57.1935866684205  83.9052008290334 57.1935866684205  C 83.9052008290334 57.1935866684205  86.7058002501175 58.5103748773981  86.7058002501175 58.5103748773981  C 86.7058002501175 58.5103748773981  80.6337523313234 62.0055009312746  80.6337523313234 62.0055009312746  C 80.6337523313234 62.0055009312746  72.2891091582974 64.3497668542035  72.2891091582974 64.3497668542035  C 72.2891091582974 64.3497668542035  67.7112585982744 64.2519118338273  67.7112585982744 64.2519118338273  C 67.7112585982744 64.2519118338273  64.9923093060847 66.0643569938413  64.9923093060847 66.0643569938413  C 64.9923093060847 66.0643569938413  59.6796075860106 66.2196486566126  59.6796075860106 66.2196486566126  C 59.6796075860106 66.2196486566126  57.6873444409825 66.9854705552099  57.6873444409825 66.9854705552099  C 57.6873444409825 66.9854705552099  48.518034966121 65.2815168308306  48.518034966121 65.2815168308306  C 48.518034966121 65.2815168308306  40.7980365065953 65.7686646496604  40.7980365065953 65.7686646496604  C 40.7980365065953 65.7686646496604  38.6615248005208 57.5637339194095  38.6615248005208 57.5637339194095  C 38.6615248005208 57.5637339194095  36.0732157145625 54.7578475742703  36.0732157145625 54.7578475742703  C 36.0732157145625 54.7578475742703  34.5381932913443 53.0964395109241  34.5381932913443 53.0964395109241  C 34.5381932913443 53.0964395109241  27.0563198136373 51.9774886257511  27.0563198136373 51.9774886257511  C 27.0563198136373 51.9774886257511  22.7261413112611 50.1735525979436  22.7261413112611 50.1735525979436  C 22.7261413112611 50.1735525979436  17.8761236549227 49.165220431457  17.8761236549227 49.165220431457  C 17.8761236549227 49.165220431457  14.8360171890811 48.1611428310737  14.8360171890811 48.1611428310737  C 14.8360171890811 48.1611428310737  11.6462188202659 46.6358808830337  11.6462188202659 46.6358808830337  C 11.6462188202659 46.6358808830337  7.52560898205265 39.103171597107  7.52560898205265 39.103171597107  C 7.52560898205265 39.103171597107  3.10017199596623 35.7612099229498  3.10017199596623 35.7612099229498  C 3.10017199596623 35.7612099229498  1.57331458563734 30.7567931354965  1.57331458563734 30.7567931354965  C 1.57331458563734 30.7567931354965  2.33538245532039 27.6615962953317  2.33538245532039 27.6615962953317  C 2.33538245532039 27.6615962953317  0.963660289891307 22.1902242864631  0.963660289891307 22.1902242864631  C 0.963660289891307 22.1902242864631  4.11807693618549 21.9072956405925  4.11807693618549 21.9072956405925  C 4.11807693618549 21.9072956405925  6.88873797667514 19.7544851923129  6.88873797667514 19.7544851923129  C 6.88873797667514 19.7544851923129  9.85808099747436 16.6592883521482  9.85808099747436 16.6592883521482  C 9.85808099747436 16.6592883521482  11.7414773039761 15.416955049979  11.7414773039761 15.416955049979  C 11.7414773039761 15.416955049979  11.6707138589344 13.4875093221234  11.6707138589344 13.4875093221234  C 11.6707138589344 13.4875093221234  10.0268245971899 12.1430664334746  10.0268245971899 12.1430664334746  C 10.0268245971899 12.1430664334746  9.5859139011594 9.80730964275257  9.5859139011594 9.80730964275257  C 9.5859139011594 9.80730964275257  11.78774571035 9.05637872551642  11.78774571035 9.05637872551642  C 11.78774571035 9.05637872551642  12.2286564063807 5.56976180384647  12.2286564063807 5.56976180384647  C 12.2286564063807 5.56976180384647  9.19671495342839 2.22354556358583  9.19671495342839 2.22354556358583  C 9.19671495342839 2.22354556358583  11.8748391811709 1.5130330243316  11.8748391811709 1.5130330243316  C 11.8748391811709 1.5130330243316  20.2412557219023 1.58961521419126  20.2412557219023 1.58961521419126  Z " fill-rule="nonzero" fill="#f2f2f2" stroke="none" transform="matrix(1 0 0 1 2017 2038 )" />
    <path d="M 20.2412557219023 1.58961521419126  C 20.2412557219023 1.58961521419126  35.7901619343943 1.13012207503258  35.7901619343943 1.13012207503258  C 35.7901619343943 1.13012207503258  37.0802339709288 1.7810706888406  37.0802339709288 1.7810706888406  C 37.0802339709288 1.7810706888406  66.7287353805761 13.859783856164  66.7287353805761 13.859783856164  C 66.7287353805761 13.859783856164  67.248574534538 17.3017278337493  67.248574534538 17.3017278337493  C 67.248574534538 17.3017278337493  78.2005784902648 23.2411021139832  78.2005784902648 23.2411021139832  C 78.2005784902648 23.2411021139832  74.6787362639455 30.5738467930537  74.6787362639455 30.5738467930537  C 74.6787362639455 30.5738467930537  75.130533643829 35.4952995414923  75.130533643829 35.4952995414923  C 75.130533643829 35.4952995414923  80.0159330226881 37.6693828202885  80.0159330226881 37.6693828202885  C 80.0159330226881 37.6693828202885  80.2445533835928 39.2222994480001  80.2445533835928 39.2222994480001  C 80.2445533835928 39.2222994480001  78.1434234000389 42.8301715036147  78.1434234000389 42.8301715036147  C 78.1434234000389 42.8301715036147  78.5816124251063 44.6489985127837  78.5816124251063 44.6489985127837  C 78.5816124251063 44.6489985127837  78.0808249678864 47.5080669342141  78.0808249678864 47.5080669342141  C 78.0808249678864 47.5080669342141  80.7453408408132 51.2669760864969  80.7453408408132 51.2669760864969  C 80.7453408408132 51.2669760864969  83.9052008290334 57.1935866684205  83.9052008290334 57.1935866684205  C 83.9052008290334 57.1935866684205  86.7058002501175 58.5103748773981  86.7058002501175 58.5103748773981  C 86.7058002501175 58.5103748773981  80.6337523313234 62.0055009312746  80.6337523313234 62.0055009312746  C 80.6337523313234 62.0055009312746  72.2891091582974 64.3497668542035  72.2891091582974 64.3497668542035  C 72.2891091582974 64.3497668542035  67.7112585982744 64.2519118338273  67.7112585982744 64.2519118338273  C 67.7112585982744 64.2519118338273  64.9923093060847 66.0643569938413  64.9923093060847 66.0643569938413  C 64.9923093060847 66.0643569938413  59.6796075860106 66.2196486566126  59.6796075860106 66.2196486566126  C 59.6796075860106 66.2196486566126  57.6873444409825 66.9854705552099  57.6873444409825 66.9854705552099  C 57.6873444409825 66.9854705552099  48.518034966121 65.2815168308306  48.518034966121 65.2815168308306  C 48.518034966121 65.2815168308306  40.7980365065953 65.7686646496604  40.7980365065953 65.7686646496604  C 40.7980365065953 65.7686646496604  38.6615248005208 57.5637339194095  38.6615248005208 57.5637339194095  C 38.6615248005208 57.5637339194095  36.0732157145625 54.7578475742703  36.0732157145625 54.7578475742703  C 36.0732157145625 54.7578475742703  34.5381932913443 53.0964395109241  34.5381932913443 53.0964395109241  C 34.5381932913443 53.0964395109241  27.0563198136373 51.9774886257511  27.0563198136373 51.9774886257511  C 27.0563198136373 51.9774886257511  22.7261413112611 50.1735525979436  22.7261413112611 50.1735525979436  C 22.7261413112611 50.1735525979436  17.8761236549227 49.165220431457  17.8761236549227 49.165220431457  C 17.8761236549227 49.165220431457  14.8360171890811 48.1611428310737  14.8360171890811 48.1611428310737  C 14.8360171890811 48.1611428310737  11.6462188202659 46.6358808830337  11.6462188202659 46.6358808830337  C 11.6462188202659 46.6358808830337  7.52560898205265 39.103171597107  7.52560898205265 39.103171597107  C 7.52560898205265 39.103171597107  3.10017199596623 35.7612099229498  3.10017199596623 35.7612099229498  C 3.10017199596623 35.7612099229498  1.57331458563734 30.7567931354965  1.57331458563734 30.7567931354965  C 1.57331458563734 30.7567931354965  2.33538245532039 27.6615962953317  2.33538245532039 27.6615962953317  C 2.33538245532039 27.6615962953317  0.963660289891307 22.1902242864631  0.963660289891307 22.1902242864631  C 0.963660289891307 22.1902242864631  4.11807693618549 21.9072956405925  4.11807693618549 21.9072956405925  C 4.11807693618549 21.9072956405925  6.88873797667514 19.7544851923129  6.88873797667514 19.7544851923129  C 6.88873797667514 19.7544851923129  9.85808099747436 16.6592883521482  9.85808099747436 16.6592883521482  C 9.85808099747436 16.6592883521482  11.7414773039761 15.416955049979  11.7414773039761 15.416955049979  C 11.7414773039761 15.416955049979  11.6707138589344 13.4875093221234  11.6707138589344 13.4875093221234  C 11.6707138589344 13.4875093221234  10.0268245971899 12.1430664334746  10.0268245971899 12.1430664334746  C 10.0268245971899 12.1430664334746  9.5859139011594 9.80730964275257  9.5859139011594 9.80730964275257  C 9.5859139011594 9.80730964275257  11.78774571035 9.05637872551642  11.78774571035 9.05637872551642  C 11.78774571035 9.05637872551642  12.2286564063807 5.56976180384647  12.2286564063807 5.56976180384647  C 12.2286564063807 5.56976180384647  9.19671495342839 2.22354556358583  9.19671495342839 2.22354556358583  C 9.19671495342839 2.22354556358583  11.8748391811709 1.5130330243316  11.8748391811709 1.5130330243316  C 11.8748391811709 1.5130330243316  20.2412557219023 1.58961521419126  20.2412557219023 1.58961521419126  Z " stroke-width="2" stroke="#505050" fill="none" stroke-opacity="0.211764705882353" transform="matrix(1 0 0 1 2017 2038 )" mask="url(#clip765)" />
  </g>
</svg>