<?xml version="1.0" encoding="utf-8"?>
<svg version="1.1" xmlns:xlink="http://www.w3.org/1999/xlink" width="142px" height="75px" xmlns="http://www.w3.org/2000/svg">
  <defs>
    <mask fill="white" id="clip766">
      <path d="M 69.2281374911015 3.48932584506709  C 69.2281374911015 3.48932584506709  77.8544990627242 2.90862449732545  77.8544990627242 2.90862449732545  C 77.8544990627242 2.90862449732545  80.736842463426 3.30436171208266  80.736842463426 3.30436171208266  C 80.736842463426 3.30436171208266  82.6886872304722 1.07403838760831  82.6886872304722 1.07403838760831  C 82.6886872304722 1.07403838760831  85.0314515418354 1.56655916032253  85.0314515418354 1.56655916032253  C 85.0314515418354 1.56655916032253  93.0370433367161 0.615929546612115  93.0370433367161 0.615929546612115  C 93.0370433367161 0.615929546612115  97.967584913275 6.15409980748147  97.967584913275 6.15409980748147  C 97.967584913275 6.15409980748147  96.0405167370654 8.1177306611413  96.0405167370654 8.1177306611413  C 96.0405167370654 8.1177306611413  96.6792021897522 11.1115687206093  96.6792021897522 11.1115687206093  C 96.6792021897522 11.1115687206093  102.834808535472 11.5761297988026  102.834808535472 11.5761297988026  C 102.834808535472 11.5761297988026  105.579504209302 15.7206168250922  105.579504209302 15.7206168250922  C 105.579504209302 15.7206168250922  105.411573982518 17.5874641207949  105.411573982518 17.5874641207949  C 105.411573982518 17.5874641207949  115.214845090348 20.9039140401194  115.214845090348 20.9039140401194  C 115.214845090348 20.9039140401194  121.139203254923 19.4134472475826  121.139203254923 19.4134472475826  C 121.139203254923 19.4134472475826  125.901814604698 23.8074207788277  125.901814604698 23.8074207788277  C 125.901814604698 23.8074207788277  130.413907091565 23.7084864751385  130.413907091565 23.7084864751385  C 130.413907091565 23.7084864751385  141.791868194812 26.7367364663244  141.791868194812 26.7367364663244  C 141.791868194812 26.7367364663244  141.882715694548 29.453128326316  141.882715694548 29.453128326316  C 141.882715694548 29.453128326316  138.747100476402 34.2557435467127  138.747100476402 34.2557435467127  C 138.747100476402 34.2557435467127  140.451179335078 40.8230288659527  140.451179335078 40.8230288659527  C 140.451179335078 40.8230288659527  139.237126384066 43.8233191626178  139.237126384066 43.8233191626178  C 139.237126384066 43.8233191626178  131.768360723986 44.481447356725  131.768360723986 44.481447356725  C 131.768360723986 44.481447356725  127.790341417383 46.9741616605494  127.790341417383 46.9741616605494  C 127.790341417383 46.9741616605494  127.545328463551 50.9143278422631  127.545328463551 50.9143278422631  C 127.545328463551 50.9143278422631  121.384216208756 51.6197724424826  121.384216208756 51.6197724424826  C 121.384216208756 51.6197724424826  116.247203041889 54.4630583006843  116.247203041889 54.4630583006843  C 116.247203041889 54.4630583006843  109.020697381104 54.9254686331452  109.020697381104 54.9254686331452  C 109.020697381104 54.9254686331452  102.372312173182 58.1795469262309  102.372312173182 58.1795469262309  C 102.372312173182 58.1795469262309  98.7274003656089 60.3948150305786  98.7274003656089 60.3948150305786  C 98.7274003656089 60.3948150305786  102.823796717322 63.556411257172  102.823796717322 63.556411257172  C 102.823796717322 63.556411257172  106.600850342692 65.6275793974506  106.600850342692 65.6275793974506  C 106.600850342692 65.6275793974506  114.474300319776 65.1114004216803  114.474300319776 65.1114004216803  C 114.474300319776 65.1114004216803  112.965681233258 68.1611578701902  112.965681233258 68.1611578701902  C 112.965681233258 68.1611578701902  104.516863757849 69.634418696868  104.516863757849 69.634418696868  C 104.516863757849 69.634418696868  94.0363658338078 74.5209130008273  94.0363658338078 74.5209130008273  C 94.0363658338078 74.5209130008273  89.7445097099362 72.8089193978556  89.7445097099362 72.8089193978556  C 89.7445097099362 72.8089193978556  91.4458356140749 68.8278890472268  91.4458356140749 68.8278890472268  C 91.4458356140749 68.8278890472268  83.0135358658904 66.3330239976701  83.0135358658904 66.3330239976701  C 83.0135358658904 66.3330239976701  84.3762483619244 64.6920050038669  84.3762483619244 64.6920050038669  C 84.3762483619244 64.6920050038669  93.083843563853 61.1733849856989  93.083843563853 61.1733849856989  C 93.083843563853 61.1733849856989  92.0019324306381 59.4183764680796  92.0019324306381 59.4183764680796  C 92.0019324306381 59.4183764680796  90.7575969797144 60.3023329640864  90.7575969797144 60.3023329640864  C 90.7575969797144 60.3023329640864  89.5297792560154 59.8506763602874  89.5297792560154 59.8506763602874  C 89.5297792560154 59.8506763602874  77.5324033818436 57.654764967531  77.5324033818436 57.654764967531  C 77.5324033818436 57.654764967531  77.0010831561174 54.3985359287131  77.0010831561174 54.3985359287131  C 77.0010831561174 54.3985359287131  67.8489072678428 55.4760595406337  67.8489072678428 55.4760595406337  C 67.8489072678428 55.4760595406337  64.983081594366 60.2679210323684  64.983081594366 60.2679210323684  C 64.983081594366 60.2679210323684  59.0064172935795 66.6255254172732  59.0064172935795 66.6255254172732  C 59.0064172935795 66.6255254172732  55.5046591219536 65.1565660820601  55.5046591219536 65.1565660820601  C 55.5046591219536 65.1565660820601  51.8790179961427 66.5330433507812  51.8790179961427 66.5330433507812  C 51.8790179961427 66.5330433507812  48.4350718698029 64.9565467289491  48.4350718698029 64.9565467289491  C 48.4350718698029 64.9565467289491  50.3786577732367 64.0252738268302  50.3786577732367 64.0252738268302  C 50.3786577732367 64.0252738268302  51.7248525420457 61.0679984448125  51.7248525420457 61.0679984448125  C 51.7248525420457 61.0679984448125  53.8391216268012 58.3021394329764  53.8391216268012 58.3021394329764  C 53.8391216268012 58.3021394329764  53.2940366283879 56.7449995227357  53.2940366283879 56.7449995227357  C 53.2940366283879 56.7449995227357  54.9072679873289 56.0481579054458  54.9072679873289 56.0481579054458  C 54.9072679873289 56.0481579054458  55.6670834396625 57.254726261309  55.6670834396625 57.254726261309  C 55.6670834396625 57.254726261309  60.2149643355167 57.5106650034617  60.2149643355167 57.5106650034617  C 60.2149643355167 57.5106650034617  62.2604095568358 56.8654412837488  62.2604095568358 56.8654412837488  C 62.2604095568358 56.8654412837488  60.8206143337538 55.9814847877421  60.8206143337538 55.9814847877421  C 60.8206143337538 55.9814847877421  61.3656993321674 54.6759821281896  61.3656993321674 54.6759821281896  C 61.3656993321674 54.6759821281896  58.6705568400118 52.4435080579828  58.6705568400118 52.4435080579828  C 58.6705568400118 52.4435080579828  57.5556102523478 48.7506776354923  57.5556102523478 48.7506776354923  C 57.5556102523478 48.7506776354923  54.7448436696195 47.2967735204059  54.7448436696195 47.2967735204059  C 54.7448436696195 47.2967735204059  55.2981875316455 44.2706742749522  55.2981875316455 44.2706742749522  C 55.2981875316455 44.2706742749522  51.8101941327066 41.853236071761  51.8101941327066 41.853236071761  C 51.8101941327066 41.853236071761  48.636037551036 41.5155689917779  48.636037551036 41.5155689917779  C 48.636037551036 41.5155689917779  42.9456805221437 38.7002428280971  42.9456805221437 38.7002428280971  C 42.9456805221437 38.7002428280971  37.8169262188892 39.5971037984981  37.8169262188892 39.5971037984981  C 37.8169262188892 39.5971037984981  35.9751996333407 40.9284154068391  35.9751996333407 40.9284154068391  C 35.9751996333407 40.9284154068391  32.7184544155471 40.9262646611068  32.7184544155471 40.9262646611068  C 32.7184544155471 40.9262646611068  30.774868512113 43.0318447331033  30.774868512113 43.0318447331033  C 30.774868512113 43.0318447331033  25.0790055741459 43.8942937717863  25.0790055741459 43.8942937717863  C 25.0790055741459 43.8942937717863  22.4444280818138 45.2686202947749  22.4444280818138 45.2686202947749  C 22.4444280818138 45.2686202947749  18.8600812740644 43.0791611392156  18.8600812740644 43.0791611392156  C 18.8600812740644 43.0791611392156  13.910269015744 43.04689995323  13.910269015744 43.04689995323  C 13.910269015744 43.04689995323  9.13664584781964 42.0489539334072  9.13664584781964 42.0489539334072  C 9.13664584781964 42.0489539334072  5.80281790297749 43.9738713638842  5.80281790297749 43.9738713638842  C 5.80281790297749 43.9738713638842  5.26323881363919 41.5650361436225  5.26323881363919 41.5650361436225  C 5.26323881363919 41.5650361436225  0.979641553379452 39.1067337715163  0.979641553379452 39.1067337715163  C 0.979641553379452 39.1067337715163  2.48550768536006 33.8772122978143  2.48550768536006 33.8772122978143  C 2.48550768536006 33.8772122978143  4.6245533609524 31.4941860263413  4.6245533609524 31.4941860263413  C 4.6245533609524 31.4941860263413  6.31211449240436 32.0275709679707  6.31211449240436 32.0275709679707  C 6.31211449240436 32.0275709679707  4.32172836183395 27.8873854331459  4.32172836183395 27.8873854331459  C 4.32172836183395 27.8873854331459  11.3307506141609 20.1253440849992  11.3307506141609 20.1253440849992  C 11.3307506141609 20.1253440849992  15.1601103757425 19.0263130157548  15.1601103757425 19.0263130157548  C 15.1601103757425 19.0263130157548  15.9859967369753 16.3701420362698  15.9859967369753 16.3701420362698  C 15.9859967369753 16.3701420362698  12.1043308391822 8.00159039159301  12.1043308391822 8.00159039159301  C 12.1043308391822 8.00159039159301  15.7960428738916 7.62520988842708  15.7960428738916 7.62520988842708  C 15.7960428738916 7.62520988842708  20.0245810434024 4.99054636626584  20.0245810434024 4.99054636626584  C 20.0245810434024 4.99054636626584  26.0067512532637 4.77332104729582  26.0067512532637 4.77332104729582  C 26.0067512532637 4.77332104729582  33.8031185032992 5.53683578228954  33.8031185032992 5.53683578228954  C 33.8031185032992 5.53683578228954  42.4171132509548 7.86824415618561  42.4171132509548 7.86824415618561  C 42.4171132509548 7.86824415618561  48.4956368696264 8.06181127209946  48.4956368696264 8.06181127209946  C 48.4956368696264 8.06181127209946  51.4000039066277 9.45764525241177  51.4000039066277 9.45764525241177  C 51.4000039066277 9.45764525241177  54.2933591254791 7.77361134396095  54.2933591254791 7.77361134396095  C 54.2933591254791 7.77361134396095  56.316780710499 10.0318943629563  56.316780710499 10.0318943629563  C 56.316780710499 10.0318943629563  63.2845086447642 9.56948403049545  63.2845086447642 9.56948403049545  C 63.2845086447642 9.56948403049545  66.3540529540119 10.5007569326144  66.3540529540119 10.5007569326144  C 66.3540529540119 10.5007569326144  66.8495847707516 5.62931784878176  66.8495847707516 5.62931784878176  C 66.8495847707516 5.62931784878176  69.2281374911015 3.48932584506709  69.2281374911015 3.48932584506709  Z " fill-rule="evenodd" />
    </mask>
  </defs>
  <g transform="matrix(1 0 0 1 -1962 -1664 )">
    <path d="M 69.2281374911015 3.48932584506709  C 69.2281374911015 3.48932584506709  77.8544990627242 2.90862449732545  77.8544990627242 2.90862449732545  C 77.8544990627242 2.90862449732545  80.736842463426 3.30436171208266  80.736842463426 3.30436171208266  C 80.736842463426 3.30436171208266  82.6886872304722 1.07403838760831  82.6886872304722 1.07403838760831  C 82.6886872304722 1.07403838760831  85.0314515418354 1.56655916032253  85.0314515418354 1.56655916032253  C 85.0314515418354 1.56655916032253  93.0370433367161 0.615929546612115  93.0370433367161 0.615929546612115  C 93.0370433367161 0.615929546612115  97.967584913275 6.15409980748147  97.967584913275 6.15409980748147  C 97.967584913275 6.15409980748147  96.0405167370654 8.1177306611413  96.0405167370654 8.1177306611413  C 96.0405167370654 8.1177306611413  96.6792021897522 11.1115687206093  96.6792021897522 11.1115687206093  C 96.6792021897522 11.1115687206093  102.834808535472 11.5761297988026  102.834808535472 11.5761297988026  C 102.834808535472 11.5761297988026  105.579504209302 15.7206168250922  105.579504209302 15.7206168250922  C 105.579504209302 15.7206168250922  105.411573982518 17.5874641207949  105.411573982518 17.5874641207949  C 105.411573982518 17.5874641207949  115.214845090348 20.9039140401194  115.214845090348 20.9039140401194  C 115.214845090348 20.9039140401194  121.139203254923 19.4134472475826  121.139203254923 19.4134472475826  C 121.139203254923 19.4134472475826  125.901814604698 23.8074207788277  125.901814604698 23.8074207788277  C 125.901814604698 23.8074207788277  130.413907091565 23.7084864751385  130.413907091565 23.7084864751385  C 130.413907091565 23.7084864751385  141.791868194812 26.7367364663244  141.791868194812 26.7367364663244  C 141.791868194812 26.7367364663244  141.882715694548 29.453128326316  141.882715694548 29.453128326316  C 141.882715694548 29.453128326316  138.747100476402 34.2557435467127  138.747100476402 34.2557435467127  C 138.747100476402 34.2557435467127  140.451179335078 40.8230288659527  140.451179335078 40.8230288659527  C 140.451179335078 40.8230288659527  139.237126384066 43.8233191626178  139.237126384066 43.8233191626178  C 139.237126384066 43.8233191626178  131.768360723986 44.481447356725  131.768360723986 44.481447356725  C 131.768360723986 44.481447356725  127.790341417383 46.9741616605494  127.790341417383 46.9741616605494  C 127.790341417383 46.9741616605494  127.545328463551 50.9143278422631  127.545328463551 50.9143278422631  C 127.545328463551 50.9143278422631  121.384216208756 51.6197724424826  121.384216208756 51.6197724424826  C 121.384216208756 51.6197724424826  116.247203041889 54.4630583006843  116.247203041889 54.4630583006843  C 116.247203041889 54.4630583006843  109.020697381104 54.9254686331452  109.020697381104 54.9254686331452  C 109.020697381104 54.9254686331452  102.372312173182 58.1795469262309  102.372312173182 58.1795469262309  C 102.372312173182 58.1795469262309  98.7274003656089 60.3948150305786  98.7274003656089 60.3948150305786  C 98.7274003656089 60.3948150305786  102.823796717322 63.556411257172  102.823796717322 63.556411257172  C 102.823796717322 63.556411257172  106.600850342692 65.6275793974506  106.600850342692 65.6275793974506  C 106.600850342692 65.6275793974506  114.474300319776 65.1114004216803  114.474300319776 65.1114004216803  C 114.474300319776 65.1114004216803  112.965681233258 68.1611578701902  112.965681233258 68.1611578701902  C 112.965681233258 68.1611578701902  104.516863757849 69.634418696868  104.516863757849 69.634418696868  C 104.516863757849 69.634418696868  94.0363658338078 74.5209130008273  94.0363658338078 74.5209130008273  C 94.0363658338078 74.5209130008273  89.7445097099362 72.8089193978556  89.7445097099362 72.8089193978556  C 89.7445097099362 72.8089193978556  91.4458356140749 68.8278890472268  91.4458356140749 68.8278890472268  C 91.4458356140749 68.8278890472268  83.0135358658904 66.3330239976701  83.0135358658904 66.3330239976701  C 83.0135358658904 66.3330239976701  84.3762483619244 64.6920050038669  84.3762483619244 64.6920050038669  C 84.3762483619244 64.6920050038669  93.083843563853 61.1733849856989  93.083843563853 61.1733849856989  C 93.083843563853 61.1733849856989  92.0019324306381 59.4183764680796  92.0019324306381 59.4183764680796  C 92.0019324306381 59.4183764680796  90.7575969797144 60.3023329640864  90.7575969797144 60.3023329640864  C 90.7575969797144 60.3023329640864  89.5297792560154 59.8506763602874  89.5297792560154 59.8506763602874  C 89.5297792560154 59.8506763602874  77.5324033818436 57.654764967531  77.5324033818436 57.654764967531  C 77.5324033818436 57.654764967531  77.0010831561174 54.3985359287131  77.0010831561174 54.3985359287131  C 77.0010831561174 54.3985359287131  67.8489072678428 55.4760595406337  67.8489072678428 55.4760595406337  C 67.8489072678428 55.4760595406337  64.983081594366 60.2679210323684  64.983081594366 60.2679210323684  C 64.983081594366 60.2679210323684  59.0064172935795 66.6255254172732  59.0064172935795 66.6255254172732  C 59.0064172935795 66.6255254172732  55.5046591219536 65.1565660820601  55.5046591219536 65.1565660820601  C 55.5046591219536 65.1565660820601  51.8790179961427 66.5330433507812  51.8790179961427 66.5330433507812  C 51.8790179961427 66.5330433507812  48.4350718698029 64.9565467289491  48.4350718698029 64.9565467289491  C 48.4350718698029 64.9565467289491  50.3786577732367 64.0252738268302  50.3786577732367 64.0252738268302  C 50.3786577732367 64.0252738268302  51.7248525420457 61.0679984448125  51.7248525420457 61.0679984448125  C 51.7248525420457 61.0679984448125  53.8391216268012 58.3021394329764  53.8391216268012 58.3021394329764  C 53.8391216268012 58.3021394329764  53.2940366283879 56.7449995227357  53.2940366283879 56.7449995227357  C 53.2940366283879 56.7449995227357  54.9072679873289 56.0481579054458  54.9072679873289 56.0481579054458  C 54.9072679873289 56.0481579054458  55.6670834396625 57.254726261309  55.6670834396625 57.254726261309  C 55.6670834396625 57.254726261309  60.2149643355167 57.5106650034617  60.2149643355167 57.5106650034617  C 60.2149643355167 57.5106650034617  62.2604095568358 56.8654412837488  62.2604095568358 56.8654412837488  C 62.2604095568358 56.8654412837488  60.8206143337538 55.9814847877421  60.8206143337538 55.9814847877421  C 60.8206143337538 55.9814847877421  61.3656993321674 54.6759821281896  61.3656993321674 54.6759821281896  C 61.3656993321674 54.6759821281896  58.6705568400118 52.4435080579828  58.6705568400118 52.4435080579828  C 58.6705568400118 52.4435080579828  57.5556102523478 48.7506776354923  57.5556102523478 48.7506776354923  C 57.5556102523478 48.7506776354923  54.7448436696195 47.2967735204059  54.7448436696195 47.2967735204059  C 54.7448436696195 47.2967735204059  55.2981875316455 44.2706742749522  55.2981875316455 44.2706742749522  C 55.2981875316455 44.2706742749522  51.8101941327066 41.853236071761  51.8101941327066 41.853236071761  C 51.8101941327066 41.853236071761  48.636037551036 41.5155689917779  48.636037551036 41.5155689917779  C 48.636037551036 41.5155689917779  42.9456805221437 38.7002428280971  42.9456805221437 38.7002428280971  C 42.9456805221437 38.7002428280971  37.8169262188892 39.5971037984981  37.8169262188892 39.5971037984981  C 37.8169262188892 39.5971037984981  35.9751996333407 40.9284154068391  35.9751996333407 40.9284154068391  C 35.9751996333407 40.9284154068391  32.7184544155471 40.9262646611068  32.7184544155471 40.9262646611068  C 32.7184544155471 40.9262646611068  30.774868512113 43.0318447331033  30.774868512113 43.0318447331033  C 30.774868512113 43.0318447331033  25.0790055741459 43.8942937717863  25.0790055741459 43.8942937717863  C 25.0790055741459 43.8942937717863  22.4444280818138 45.2686202947749  22.4444280818138 45.2686202947749  C 22.4444280818138 45.2686202947749  18.8600812740644 43.0791611392156  18.8600812740644 43.0791611392156  C 18.8600812740644 43.0791611392156  13.910269015744 43.04689995323  13.910269015744 43.04689995323  C 13.910269015744 43.04689995323  9.13664584781964 42.0489539334072  9.13664584781964 42.0489539334072  C 9.13664584781964 42.0489539334072  5.80281790297749 43.9738713638842  5.80281790297749 43.9738713638842  C 5.80281790297749 43.9738713638842  5.26323881363919 41.5650361436225  5.26323881363919 41.5650361436225  C 5.26323881363919 41.5650361436225  0.979641553379452 39.1067337715163  0.979641553379452 39.1067337715163  C 0.979641553379452 39.1067337715163  2.48550768536006 33.8772122978143  2.48550768536006 33.8772122978143  C 2.48550768536006 33.8772122978143  4.6245533609524 31.4941860263413  4.6245533609524 31.4941860263413  C 4.6245533609524 31.4941860263413  6.31211449240436 32.0275709679707  6.31211449240436 32.0275709679707  C 6.31211449240436 32.0275709679707  4.32172836183395 27.8873854331459  4.32172836183395 27.8873854331459  C 4.32172836183395 27.8873854331459  11.3307506141609 20.1253440849992  11.3307506141609 20.1253440849992  C 11.3307506141609 20.1253440849992  15.1601103757425 19.0263130157548  15.1601103757425 19.0263130157548  C 15.1601103757425 19.0263130157548  15.9859967369753 16.3701420362698  15.9859967369753 16.3701420362698  C 15.9859967369753 16.3701420362698  12.1043308391822 8.00159039159301  12.1043308391822 8.00159039159301  C 12.1043308391822 8.00159039159301  15.7960428738916 7.62520988842708  15.7960428738916 7.62520988842708  C 15.7960428738916 7.62520988842708  20.0245810434024 4.99054636626584  20.0245810434024 4.99054636626584  C 20.0245810434024 4.99054636626584  26.0067512532637 4.77332104729582  26.0067512532637 4.77332104729582  C 26.0067512532637 4.77332104729582  33.8031185032992 5.53683578228954  33.8031185032992 5.53683578228954  C 33.8031185032992 5.53683578228954  42.4171132509548 7.86824415618561  42.4171132509548 7.86824415618561  C 42.4171132509548 7.86824415618561  48.4956368696264 8.06181127209946  48.4956368696264 8.06181127209946  C 48.4956368696264 8.06181127209946  51.4000039066277 9.45764525241177  51.4000039066277 9.45764525241177  C 51.4000039066277 9.45764525241177  54.2933591254791 7.77361134396095  54.2933591254791 7.77361134396095  C 54.2933591254791 7.77361134396095  56.316780710499 10.0318943629563  56.316780710499 10.0318943629563  C 56.316780710499 10.0318943629563  63.2845086447642 9.56948403049545  63.2845086447642 9.56948403049545  C 63.2845086447642 9.56948403049545  66.3540529540119 10.5007569326144  66.3540529540119 10.5007569326144  C 66.3540529540119 10.5007569326144  66.8495847707516 5.62931784878176  66.8495847707516 5.62931784878176  C 66.8495847707516 5.62931784878176  69.2281374911015 3.48932584506709  69.2281374911015 3.48932584506709  Z " fill-rule="nonzero" fill="#81ecec" stroke="none" transform="matrix(1 0 0 1 1962 1664 )" />
    <path d="M 69.2281374911015 3.48932584506709  C 69.2281374911015 3.48932584506709  77.8544990627242 2.90862449732545  77.8544990627242 2.90862449732545  C 77.8544990627242 2.90862449732545  80.736842463426 3.30436171208266  80.736842463426 3.30436171208266  C 80.736842463426 3.30436171208266  82.6886872304722 1.07403838760831  82.6886872304722 1.07403838760831  C 82.6886872304722 1.07403838760831  85.0314515418354 1.56655916032253  85.0314515418354 1.56655916032253  C 85.0314515418354 1.56655916032253  93.0370433367161 0.615929546612115  93.0370433367161 0.615929546612115  C 93.0370433367161 0.615929546612115  97.967584913275 6.15409980748147  97.967584913275 6.15409980748147  C 97.967584913275 6.15409980748147  96.0405167370654 8.1177306611413  96.0405167370654 8.1177306611413  C 96.0405167370654 8.1177306611413  96.6792021897522 11.1115687206093  96.6792021897522 11.1115687206093  C 96.6792021897522 11.1115687206093  102.834808535472 11.5761297988026  102.834808535472 11.5761297988026  C 102.834808535472 11.5761297988026  105.579504209302 15.7206168250922  105.579504209302 15.7206168250922  C 105.579504209302 15.7206168250922  105.411573982518 17.5874641207949  105.411573982518 17.5874641207949  C 105.411573982518 17.5874641207949  115.214845090348 20.9039140401194  115.214845090348 20.9039140401194  C 115.214845090348 20.9039140401194  121.139203254923 19.4134472475826  121.139203254923 19.4134472475826  C 121.139203254923 19.4134472475826  125.901814604698 23.8074207788277  125.901814604698 23.8074207788277  C 125.901814604698 23.8074207788277  130.413907091565 23.7084864751385  130.413907091565 23.7084864751385  C 130.413907091565 23.7084864751385  141.791868194812 26.7367364663244  141.791868194812 26.7367364663244  C 141.791868194812 26.7367364663244  141.882715694548 29.453128326316  141.882715694548 29.453128326316  C 141.882715694548 29.453128326316  138.747100476402 34.2557435467127  138.747100476402 34.2557435467127  C 138.747100476402 34.2557435467127  140.451179335078 40.8230288659527  140.451179335078 40.8230288659527  C 140.451179335078 40.8230288659527  139.237126384066 43.8233191626178  139.237126384066 43.8233191626178  C 139.237126384066 43.8233191626178  131.768360723986 44.481447356725  131.768360723986 44.481447356725  C 131.768360723986 44.481447356725  127.790341417383 46.9741616605494  127.790341417383 46.9741616605494  C 127.790341417383 46.9741616605494  127.545328463551 50.9143278422631  127.545328463551 50.9143278422631  C 127.545328463551 50.9143278422631  121.384216208756 51.6197724424826  121.384216208756 51.6197724424826  C 121.384216208756 51.6197724424826  116.247203041889 54.4630583006843  116.247203041889 54.4630583006843  C 116.247203041889 54.4630583006843  109.020697381104 54.9254686331452  109.020697381104 54.9254686331452  C 109.020697381104 54.9254686331452  102.372312173182 58.1795469262309  102.372312173182 58.1795469262309  C 102.372312173182 58.1795469262309  98.7274003656089 60.3948150305786  98.7274003656089 60.3948150305786  C 98.7274003656089 60.3948150305786  102.823796717322 63.556411257172  102.823796717322 63.556411257172  C 102.823796717322 63.556411257172  106.600850342692 65.6275793974506  106.600850342692 65.6275793974506  C 106.600850342692 65.6275793974506  114.474300319776 65.1114004216803  114.474300319776 65.1114004216803  C 114.474300319776 65.1114004216803  112.965681233258 68.1611578701902  112.965681233258 68.1611578701902  C 112.965681233258 68.1611578701902  104.516863757849 69.634418696868  104.516863757849 69.634418696868  C 104.516863757849 69.634418696868  94.0363658338078 74.5209130008273  94.0363658338078 74.5209130008273  C 94.0363658338078 74.5209130008273  89.7445097099362 72.8089193978556  89.7445097099362 72.8089193978556  C 89.7445097099362 72.8089193978556  91.4458356140749 68.8278890472268  91.4458356140749 68.8278890472268  C 91.4458356140749 68.8278890472268  83.0135358658904 66.3330239976701  83.0135358658904 66.3330239976701  C 83.0135358658904 66.3330239976701  84.3762483619244 64.6920050038669  84.3762483619244 64.6920050038669  C 84.3762483619244 64.6920050038669  93.083843563853 61.1733849856989  93.083843563853 61.1733849856989  C 93.083843563853 61.1733849856989  92.0019324306381 59.4183764680796  92.0019324306381 59.4183764680796  C 92.0019324306381 59.4183764680796  90.7575969797144 60.3023329640864  90.7575969797144 60.3023329640864  C 90.7575969797144 60.3023329640864  89.5297792560154 59.8506763602874  89.5297792560154 59.8506763602874  C 89.5297792560154 59.8506763602874  77.5324033818436 57.654764967531  77.5324033818436 57.654764967531  C 77.5324033818436 57.654764967531  77.0010831561174 54.3985359287131  77.0010831561174 54.3985359287131  C 77.0010831561174 54.3985359287131  67.8489072678428 55.4760595406337  67.8489072678428 55.4760595406337  C 67.8489072678428 55.4760595406337  64.983081594366 60.2679210323684  64.983081594366 60.2679210323684  C 64.983081594366 60.2679210323684  59.0064172935795 66.6255254172732  59.0064172935795 66.6255254172732  C 59.0064172935795 66.6255254172732  55.5046591219536 65.1565660820601  55.5046591219536 65.1565660820601  C 55.5046591219536 65.1565660820601  51.8790179961427 66.5330433507812  51.8790179961427 66.5330433507812  C 51.8790179961427 66.5330433507812  48.4350718698029 64.9565467289491  48.4350718698029 64.9565467289491  C 48.4350718698029 64.9565467289491  50.3786577732367 64.0252738268302  50.3786577732367 64.0252738268302  C 50.3786577732367 64.0252738268302  51.7248525420457 61.0679984448125  51.7248525420457 61.0679984448125  C 51.7248525420457 61.0679984448125  53.8391216268012 58.3021394329764  53.8391216268012 58.3021394329764  C 53.8391216268012 58.3021394329764  53.2940366283879 56.7449995227357  53.2940366283879 56.7449995227357  C 53.2940366283879 56.7449995227357  54.9072679873289 56.0481579054458  54.9072679873289 56.0481579054458  C 54.9072679873289 56.0481579054458  55.6670834396625 57.254726261309  55.6670834396625 57.254726261309  C 55.6670834396625 57.254726261309  60.2149643355167 57.5106650034617  60.2149643355167 57.5106650034617  C 60.2149643355167 57.5106650034617  62.2604095568358 56.8654412837488  62.2604095568358 56.8654412837488  C 62.2604095568358 56.8654412837488  60.8206143337538 55.9814847877421  60.8206143337538 55.9814847877421  C 60.8206143337538 55.9814847877421  61.3656993321674 54.6759821281896  61.3656993321674 54.6759821281896  C 61.3656993321674 54.6759821281896  58.6705568400118 52.4435080579828  58.6705568400118 52.4435080579828  C 58.6705568400118 52.4435080579828  57.5556102523478 48.7506776354923  57.5556102523478 48.7506776354923  C 57.5556102523478 48.7506776354923  54.7448436696195 47.2967735204059  54.7448436696195 47.2967735204059  C 54.7448436696195 47.2967735204059  55.2981875316455 44.2706742749522  55.2981875316455 44.2706742749522  C 55.2981875316455 44.2706742749522  51.8101941327066 41.853236071761  51.8101941327066 41.853236071761  C 51.8101941327066 41.853236071761  48.636037551036 41.5155689917779  48.636037551036 41.5155689917779  C 48.636037551036 41.5155689917779  42.9456805221437 38.7002428280971  42.9456805221437 38.7002428280971  C 42.9456805221437 38.7002428280971  37.8169262188892 39.5971037984981  37.8169262188892 39.5971037984981  C 37.8169262188892 39.5971037984981  35.9751996333407 40.9284154068391  35.9751996333407 40.9284154068391  C 35.9751996333407 40.9284154068391  32.7184544155471 40.9262646611068  32.7184544155471 40.9262646611068  C 32.7184544155471 40.9262646611068  30.774868512113 43.0318447331033  30.774868512113 43.0318447331033  C 30.774868512113 43.0318447331033  25.0790055741459 43.8942937717863  25.0790055741459 43.8942937717863  C 25.0790055741459 43.8942937717863  22.4444280818138 45.2686202947749  22.4444280818138 45.2686202947749  C 22.4444280818138 45.2686202947749  18.8600812740644 43.0791611392156  18.8600812740644 43.0791611392156  C 18.8600812740644 43.0791611392156  13.910269015744 43.04689995323  13.910269015744 43.04689995323  C 13.910269015744 43.04689995323  9.13664584781964 42.0489539334072  9.13664584781964 42.0489539334072  C 9.13664584781964 42.0489539334072  5.80281790297749 43.9738713638842  5.80281790297749 43.9738713638842  C 5.80281790297749 43.9738713638842  5.26323881363919 41.5650361436225  5.26323881363919 41.5650361436225  C 5.26323881363919 41.5650361436225  0.979641553379452 39.1067337715163  0.979641553379452 39.1067337715163  C 0.979641553379452 39.1067337715163  2.48550768536006 33.8772122978143  2.48550768536006 33.8772122978143  C 2.48550768536006 33.8772122978143  4.6245533609524 31.4941860263413  4.6245533609524 31.4941860263413  C 4.6245533609524 31.4941860263413  6.31211449240436 32.0275709679707  6.31211449240436 32.0275709679707  C 6.31211449240436 32.0275709679707  4.32172836183395 27.8873854331459  4.32172836183395 27.8873854331459  C 4.32172836183395 27.8873854331459  11.3307506141609 20.1253440849992  11.3307506141609 20.1253440849992  C 11.3307506141609 20.1253440849992  15.1601103757425 19.0263130157548  15.1601103757425 19.0263130157548  C 15.1601103757425 19.0263130157548  15.9859967369753 16.3701420362698  15.9859967369753 16.3701420362698  C 15.9859967369753 16.3701420362698  12.1043308391822 8.00159039159301  12.1043308391822 8.00159039159301  C 12.1043308391822 8.00159039159301  15.7960428738916 7.62520988842708  15.7960428738916 7.62520988842708  C 15.7960428738916 7.62520988842708  20.0245810434024 4.99054636626584  20.0245810434024 4.99054636626584  C 20.0245810434024 4.99054636626584  26.0067512532637 4.77332104729582  26.0067512532637 4.77332104729582  C 26.0067512532637 4.77332104729582  33.8031185032992 5.53683578228954  33.8031185032992 5.53683578228954  C 33.8031185032992 5.53683578228954  42.4171132509548 7.86824415618561  42.4171132509548 7.86824415618561  C 42.4171132509548 7.86824415618561  48.4956368696264 8.06181127209946  48.4956368696264 8.06181127209946  C 48.4956368696264 8.06181127209946  51.4000039066277 9.45764525241177  51.4000039066277 9.45764525241177  C 51.4000039066277 9.45764525241177  54.2933591254791 7.77361134396095  54.2933591254791 7.77361134396095  C 54.2933591254791 7.77361134396095  56.316780710499 10.0318943629563  56.316780710499 10.0318943629563  C 56.316780710499 10.0318943629563  63.2845086447642 9.56948403049545  63.2845086447642 9.56948403049545  C 63.2845086447642 9.56948403049545  66.3540529540119 10.5007569326144  66.3540529540119 10.5007569326144  C 66.3540529540119 10.5007569326144  66.8495847707516 5.62931784878176  66.8495847707516 5.62931784878176  C 66.8495847707516 5.62931784878176  69.2281374911015 3.48932584506709  69.2281374911015 3.48932584506709  Z " stroke-width="2" stroke="#505050" fill="none" stroke-opacity="0.211764705882353" transform="matrix(1 0 0 1 1962 1664 )" mask="url(#clip766)" />
  </g>
</svg>