<?xml version="1.0" encoding="utf-8"?>
<svg version="1.1" xmlns:xlink="http://www.w3.org/1999/xlink" width="46px" height="38px" xmlns="http://www.w3.org/2000/svg">
  <defs>
    <mask fill="white" id="clip770">
      <path d="M 36.2015431060545 34.4078211454991  C 36.2015431060545 34.4078211454991  18.4739138336483 34.8785763714018  18.4739138336483 34.8785763714018  C 18.4739138336483 34.8785763714018  10.0113315855522 34.8001171670845  10.0113315855522 34.8001171670845  C 10.0113315855522 34.8001171670845  7.30242432070918 35.52804422936  7.30242432070918 35.52804422936  C 7.30242432070918 35.52804422936  2.69122547049415 37.4023474436015  2.69122547049415 37.4023474436015  C 2.69122547049415 37.4023474436015  0.821969339570842 36.7833914984332  0.821969339570842 36.7833914984332  C 0.821969339570842 36.7833914984332  0.888040248469451 32.2066045799362  0.888040248469451 32.2066045799362  C 0.888040248469451 32.2066045799362  2.67470774326944 29.8876992078977  2.67470774326944 29.8876992078977  C 2.67470774326944 29.8876992078977  3.11242751472264 25.0145108508693  3.11242751472264 25.0145108508693  C 3.11242751472264 25.0145108508693  4.73391773727599 22.1921589177961  4.73391773727599 22.1921589177961  C 4.73391773727599 22.1921589177961  7.68508500141365 17.4443043436734  7.68508500141365 17.4443043436734  C 7.68508500141365 17.4443043436734  10.6500170382387 15.8293523881463  10.6500170382387 15.8293523881463  C 10.6500170382387 15.8293523881463  13.1331820310111 13.6739036917686  13.1331820310111 13.6739036917686  C 13.1331820310111 13.6739036917686  10.0388611309265 12.8522614687811  10.0388611309265 12.8522614687811  C 10.0388611309265 12.8522614687811  10.5068634022916 5.74298578871562  10.5068634022916 5.74298578871562  C 10.5068634022916 5.74298578871562  13.6837729384995 4.08662480868816  13.6837729384995 4.08662480868816  C 13.6837729384995 4.08662480868816  18.5922908787584 5.44658435018418  18.5922908787584 5.44658435018418  C 18.5922908787584 5.44658435018418  26.805709269765 4.02124213842368  26.805709269765 4.02124213842368  C 26.805709269765 4.02124213842368  32.2372885721379 4.03649809481861  32.2372885721379 4.03649809481861  C 32.2372885721379 4.03649809481861  36.9833821946877 1.2381198075092  36.9833821946877 1.2381198075092  C 36.9833821946877 1.2381198075092  40.6420587749481 5.46184030657946  40.6420587749481 5.46184030657946  C 40.6420587749481 5.46184030657946  41.5450278632293 8.51303158557721  41.5450278632293 8.51303158557721  C 41.5450278632293 8.51303158557721  44.9421737624325 15.4871830804301  44.9421737624325 15.4871830804301  C 44.9421737624325 15.4871830804301  42.1314071797042 21.4969231906528  42.1314071797042 21.4969231906528  C 42.1314071797042 21.4969231906528  38.335082872572 25.5157779895619  38.335082872572 25.5157779895619  C 38.335082872572 25.5157779895619  36.124460379006 27.9741663914975  36.124460379006 27.9741663914975  C 36.124460379006 27.9741663914975  36.2015431060545 34.4078211454991  36.2015431060545 34.4078211454991  Z " fill-rule="evenodd" />
    </mask>
  </defs>
  <g transform="matrix(1 0 0 1 -2019 -2006 )">
    <path d="M 36.2015431060545 34.4078211454991  C 36.2015431060545 34.4078211454991  18.4739138336483 34.8785763714018  18.4739138336483 34.8785763714018  C 18.4739138336483 34.8785763714018  10.0113315855522 34.8001171670845  10.0113315855522 34.8001171670845  C 10.0113315855522 34.8001171670845  7.30242432070918 35.52804422936  7.30242432070918 35.52804422936  C 7.30242432070918 35.52804422936  2.69122547049415 37.4023474436015  2.69122547049415 37.4023474436015  C 2.69122547049415 37.4023474436015  0.821969339570842 36.7833914984332  0.821969339570842 36.7833914984332  C 0.821969339570842 36.7833914984332  0.888040248469451 32.2066045799362  0.888040248469451 32.2066045799362  C 0.888040248469451 32.2066045799362  2.67470774326944 29.8876992078977  2.67470774326944 29.8876992078977  C 2.67470774326944 29.8876992078977  3.11242751472264 25.0145108508693  3.11242751472264 25.0145108508693  C 3.11242751472264 25.0145108508693  4.73391773727599 22.1921589177961  4.73391773727599 22.1921589177961  C 4.73391773727599 22.1921589177961  7.68508500141365 17.4443043436734  7.68508500141365 17.4443043436734  C 7.68508500141365 17.4443043436734  10.6500170382387 15.8293523881463  10.6500170382387 15.8293523881463  C 10.6500170382387 15.8293523881463  13.1331820310111 13.6739036917686  13.1331820310111 13.6739036917686  C 13.1331820310111 13.6739036917686  10.0388611309265 12.8522614687811  10.0388611309265 12.8522614687811  C 10.0388611309265 12.8522614687811  10.5068634022916 5.74298578871562  10.5068634022916 5.74298578871562  C 10.5068634022916 5.74298578871562  13.6837729384995 4.08662480868816  13.6837729384995 4.08662480868816  C 13.6837729384995 4.08662480868816  18.5922908787584 5.44658435018418  18.5922908787584 5.44658435018418  C 18.5922908787584 5.44658435018418  26.805709269765 4.02124213842368  26.805709269765 4.02124213842368  C 26.805709269765 4.02124213842368  32.2372885721379 4.03649809481861  32.2372885721379 4.03649809481861  C 32.2372885721379 4.03649809481861  36.9833821946877 1.2381198075092  36.9833821946877 1.2381198075092  C 36.9833821946877 1.2381198075092  40.6420587749481 5.46184030657946  40.6420587749481 5.46184030657946  C 40.6420587749481 5.46184030657946  41.5450278632293 8.51303158557721  41.5450278632293 8.51303158557721  C 41.5450278632293 8.51303158557721  44.9421737624325 15.4871830804301  44.9421737624325 15.4871830804301  C 44.9421737624325 15.4871830804301  42.1314071797042 21.4969231906528  42.1314071797042 21.4969231906528  C 42.1314071797042 21.4969231906528  38.335082872572 25.5157779895619  38.335082872572 25.5157779895619  C 38.335082872572 25.5157779895619  36.124460379006 27.9741663914975  36.124460379006 27.9741663914975  C 36.124460379006 27.9741663914975  36.2015431060545 34.4078211454991  36.2015431060545 34.4078211454991  Z " fill-rule="nonzero" fill="#f2f2f2" stroke="none" transform="matrix(1 0 0 1 2019 2006 )" />
    <path d="M 36.2015431060545 34.4078211454991  C 36.2015431060545 34.4078211454991  18.4739138336483 34.8785763714018  18.4739138336483 34.8785763714018  C 18.4739138336483 34.8785763714018  10.0113315855522 34.8001171670845  10.0113315855522 34.8001171670845  C 10.0113315855522 34.8001171670845  7.30242432070918 35.52804422936  7.30242432070918 35.52804422936  C 7.30242432070918 35.52804422936  2.69122547049415 37.4023474436015  2.69122547049415 37.4023474436015  C 2.69122547049415 37.4023474436015  0.821969339570842 36.7833914984332  0.821969339570842 36.7833914984332  C 0.821969339570842 36.7833914984332  0.888040248469451 32.2066045799362  0.888040248469451 32.2066045799362  C 0.888040248469451 32.2066045799362  2.67470774326944 29.8876992078977  2.67470774326944 29.8876992078977  C 2.67470774326944 29.8876992078977  3.11242751472264 25.0145108508693  3.11242751472264 25.0145108508693  C 3.11242751472264 25.0145108508693  4.73391773727599 22.1921589177961  4.73391773727599 22.1921589177961  C 4.73391773727599 22.1921589177961  7.68508500141365 17.4443043436734  7.68508500141365 17.4443043436734  C 7.68508500141365 17.4443043436734  10.6500170382387 15.8293523881463  10.6500170382387 15.8293523881463  C 10.6500170382387 15.8293523881463  13.1331820310111 13.6739036917686  13.1331820310111 13.6739036917686  C 13.1331820310111 13.6739036917686  10.0388611309265 12.8522614687811  10.0388611309265 12.8522614687811  C 10.0388611309265 12.8522614687811  10.5068634022916 5.74298578871562  10.5068634022916 5.74298578871562  C 10.5068634022916 5.74298578871562  13.6837729384995 4.08662480868816  13.6837729384995 4.08662480868816  C 13.6837729384995 4.08662480868816  18.5922908787584 5.44658435018418  18.5922908787584 5.44658435018418  C 18.5922908787584 5.44658435018418  26.805709269765 4.02124213842368  26.805709269765 4.02124213842368  C 26.805709269765 4.02124213842368  32.2372885721379 4.03649809481861  32.2372885721379 4.03649809481861  C 32.2372885721379 4.03649809481861  36.9833821946877 1.2381198075092  36.9833821946877 1.2381198075092  C 36.9833821946877 1.2381198075092  40.6420587749481 5.46184030657946  40.6420587749481 5.46184030657946  C 40.6420587749481 5.46184030657946  41.5450278632293 8.51303158557721  41.5450278632293 8.51303158557721  C 41.5450278632293 8.51303158557721  44.9421737624325 15.4871830804301  44.9421737624325 15.4871830804301  C 44.9421737624325 15.4871830804301  42.1314071797042 21.4969231906528  42.1314071797042 21.4969231906528  C 42.1314071797042 21.4969231906528  38.335082872572 25.5157779895619  38.335082872572 25.5157779895619  C 38.335082872572 25.5157779895619  36.124460379006 27.9741663914975  36.124460379006 27.9741663914975  C 36.124460379006 27.9741663914975  36.2015431060545 34.4078211454991  36.2015431060545 34.4078211454991  Z " stroke-width="2" stroke="#505050" fill="none" stroke-opacity="0.211764705882353" transform="matrix(1 0 0 1 2019 2006 )" mask="url(#clip770)" />
  </g>
</svg>