<?xml version="1.0" encoding="utf-8"?>
<svg version="1.1" xmlns:xlink="http://www.w3.org/1999/xlink" width="45px" height="38px" xmlns="http://www.w3.org/2000/svg">
  <defs>
    <mask fill="white" id="clip771">
      <path d="M 5.90393880816337 6.88299000739359  C 5.90393880816337 6.88299000739359  7.87761951006334 1.22956845187842  7.87761951006334 1.22956845187842  C 7.87761951006334 1.22956845187842  12.999053456934 0.479847166181874  12.999053456934 0.479847166181874  C 12.999053456934 0.479847166181874  20.9191159597084 5.93712071090435  20.9191159597084 5.93712071090435  C 20.9191159597084 5.93712071090435  25.8955285803099 5.73007558840078  25.8955285803099 5.73007558840078  C 25.8955285803099 5.73007558840078  34.0211241661641 10.2828888611344  34.0211241661641 10.2828888611344  C 34.0211241661641 10.2828888611344  40.2124563537224 14.2385404121214  40.2124563537224 14.2385404121214  C 40.2124563537224 14.2385404121214  44.7792325284469 20.7212151705886  44.7792325284469 20.7212151705886  C 44.7792325284469 20.7212151705886  41.2992477245259 24.160343626488  41.2992477245259 24.160343626488  C 41.2992477245259 24.160343626488  43.4840925528777 28.2903489648463  43.4840925528777 28.2903489648463  C 43.4840925528777 28.2903489648463  40.0688647477351 32.906365485502  40.0688647477351 32.906365485502  C 40.0688647477351 32.906365485502  31.1521075681096 37.016756022781  31.1521075681096 37.016756022781  C 31.1521075681096 37.016756022781  25.323977678048 35.5347488301245  25.323977678048 35.5347488301245  C 25.323977678048 35.5347488301245  19.0073767349009 36.3280585626641  19.0073767349009 36.3280585626641  C 19.0073767349009 36.3280585626641  11.7095445247366 33.1526402101639  11.7095445247366 33.1526402101639  C 11.7095445247366 33.1526402101639  6.35442227792639 33.3901972454573  6.35442227792639 33.3901972454573  C 6.35442227792639 33.3901972454573  1.54551123820407 29.3233951550211  1.54551123820407 29.3233951550211  C 1.54551123820407 29.3233951550211  2.15647944407057 24.604945784285  2.15647944407057 24.604945784285  C 2.15647944407057 24.604945784285  3.87113215085678 22.9878144064159  3.87113215085678 22.9878144064159  C 3.87113215085678 22.9878144064159  3.79229754364833 14.218925611042  3.79229754364833 14.218925611042  C 3.79229754364833 14.218925611042  5.90393880816337 6.88299000739359  5.90393880816337 6.88299000739359  Z " fill-rule="evenodd" />
    </mask>
  </defs>
  <g transform="matrix(1 0 0 1 -1342 -2221 )">
    <path d="M 5.90393880816337 6.88299000739359  C 5.90393880816337 6.88299000739359  7.87761951006334 1.22956845187842  7.87761951006334 1.22956845187842  C 7.87761951006334 1.22956845187842  12.999053456934 0.479847166181874  12.999053456934 0.479847166181874  C 12.999053456934 0.479847166181874  20.9191159597084 5.93712071090435  20.9191159597084 5.93712071090435  C 20.9191159597084 5.93712071090435  25.8955285803099 5.73007558840078  25.8955285803099 5.73007558840078  C 25.8955285803099 5.73007558840078  34.0211241661641 10.2828888611344  34.0211241661641 10.2828888611344  C 34.0211241661641 10.2828888611344  40.2124563537224 14.2385404121214  40.2124563537224 14.2385404121214  C 40.2124563537224 14.2385404121214  44.7792325284469 20.7212151705886  44.7792325284469 20.7212151705886  C 44.7792325284469 20.7212151705886  41.2992477245259 24.160343626488  41.2992477245259 24.160343626488  C 41.2992477245259 24.160343626488  43.4840925528777 28.2903489648463  43.4840925528777 28.2903489648463  C 43.4840925528777 28.2903489648463  40.0688647477351 32.906365485502  40.0688647477351 32.906365485502  C 40.0688647477351 32.906365485502  31.1521075681096 37.016756022781  31.1521075681096 37.016756022781  C 31.1521075681096 37.016756022781  25.323977678048 35.5347488301245  25.323977678048 35.5347488301245  C 25.323977678048 35.5347488301245  19.0073767349009 36.3280585626641  19.0073767349009 36.3280585626641  C 19.0073767349009 36.3280585626641  11.7095445247366 33.1526402101639  11.7095445247366 33.1526402101639  C 11.7095445247366 33.1526402101639  6.35442227792639 33.3901972454573  6.35442227792639 33.3901972454573  C 6.35442227792639 33.3901972454573  1.54551123820407 29.3233951550211  1.54551123820407 29.3233951550211  C 1.54551123820407 29.3233951550211  2.15647944407057 24.604945784285  2.15647944407057 24.604945784285  C 2.15647944407057 24.604945784285  3.87113215085678 22.9878144064159  3.87113215085678 22.9878144064159  C 3.87113215085678 22.9878144064159  3.79229754364833 14.218925611042  3.79229754364833 14.218925611042  C 3.79229754364833 14.218925611042  5.90393880816337 6.88299000739359  5.90393880816337 6.88299000739359  Z " fill-rule="nonzero" fill="#f2f2f2" stroke="none" transform="matrix(1 0 0 1 1342 2221 )" />
    <path d="M 5.90393880816337 6.88299000739359  C 5.90393880816337 6.88299000739359  7.87761951006334 1.22956845187842  7.87761951006334 1.22956845187842  C 7.87761951006334 1.22956845187842  12.999053456934 0.479847166181874  12.999053456934 0.479847166181874  C 12.999053456934 0.479847166181874  20.9191159597084 5.93712071090435  20.9191159597084 5.93712071090435  C 20.9191159597084 5.93712071090435  25.8955285803099 5.73007558840078  25.8955285803099 5.73007558840078  C 25.8955285803099 5.73007558840078  34.0211241661641 10.2828888611344  34.0211241661641 10.2828888611344  C 34.0211241661641 10.2828888611344  40.2124563537224 14.2385404121214  40.2124563537224 14.2385404121214  C 40.2124563537224 14.2385404121214  44.7792325284469 20.7212151705886  44.7792325284469 20.7212151705886  C 44.7792325284469 20.7212151705886  41.2992477245259 24.160343626488  41.2992477245259 24.160343626488  C 41.2992477245259 24.160343626488  43.4840925528777 28.2903489648463  43.4840925528777 28.2903489648463  C 43.4840925528777 28.2903489648463  40.0688647477351 32.906365485502  40.0688647477351 32.906365485502  C 40.0688647477351 32.906365485502  31.1521075681096 37.016756022781  31.1521075681096 37.016756022781  C 31.1521075681096 37.016756022781  25.323977678048 35.5347488301245  25.323977678048 35.5347488301245  C 25.323977678048 35.5347488301245  19.0073767349009 36.3280585626641  19.0073767349009 36.3280585626641  C 19.0073767349009 36.3280585626641  11.7095445247366 33.1526402101639  11.7095445247366 33.1526402101639  C 11.7095445247366 33.1526402101639  6.35442227792639 33.3901972454573  6.35442227792639 33.3901972454573  C 6.35442227792639 33.3901972454573  1.54551123820407 29.3233951550211  1.54551123820407 29.3233951550211  C 1.54551123820407 29.3233951550211  2.15647944407057 24.604945784285  2.15647944407057 24.604945784285  C 2.15647944407057 24.604945784285  3.87113215085678 22.9878144064159  3.87113215085678 22.9878144064159  C 3.87113215085678 22.9878144064159  3.79229754364833 14.218925611042  3.79229754364833 14.218925611042  C 3.79229754364833 14.218925611042  5.90393880816337 6.88299000739359  5.90393880816337 6.88299000739359  Z " stroke-width="2" stroke="#505050" fill="none" stroke-opacity="0.211764705882353" transform="matrix(1 0 0 1 1342 2221 )" mask="url(#clip771)" />
  </g>
</svg>