<?xml version="1.0" encoding="utf-8"?>
<svg version="1.1" xmlns:xlink="http://www.w3.org/1999/xlink" width="15px" height="15px" xmlns="http://www.w3.org/2000/svg">
  <defs>
    <mask fill="white" id="clip772">
      <path d="M 5.60482779749723 8.72789430050886  C 5.60482779749723 8.72789430050886  12.9389706395308 13.6697757109455  12.9389706395308 13.6697757109455  C 12.9389706395308 13.6697757109455  10.210596053316 14.4584971859229  10.210596053316 14.4584971859229  C 10.210596053316 14.4584971859229  5.29807000618251 10.3321785572033  5.29807000618251 10.3321785572033  C 5.29807000618251 10.3321785572033  5.60482779749723 8.72789430050886  5.60482779749723 8.72789430050886  Z M 0.740947048667197 1.18342239064953  C 0.740947048667197 1.18342239064953  6.84510913129332 3.01276068077948  6.84510913129332 3.01276068077948  C 6.84510913129332 3.01276068077948  8.18717446829623 9.32148401905613  8.18717446829623 9.32148401905613  C 8.18717446829623 9.32148401905613  5.9631804812625 8.57199214623768  5.9631804812625 8.57199214623768  C 5.9631804812625 8.57199214623768  2.09776035640614 8.89615254302146  2.09776035640614 8.89615254302146  C 2.09776035640614 8.89615254302146  0.914973103355286 7.24644453645919  0.914973103355286 7.24644453645919  C 0.914973103355286 7.24644453645919  0.740947048667197 1.18342239064953  0.740947048667197 1.18342239064953  Z " fill-rule="evenodd" />
    </mask>
  </defs>
  <g transform="matrix(1 0 0 1 -3074 -2119 )">
    <path d="M 5.60482779749723 8.72789430050886  C 5.60482779749723 8.72789430050886  12.9389706395308 13.6697757109455  12.9389706395308 13.6697757109455  C 12.9389706395308 13.6697757109455  10.210596053316 14.4584971859229  10.210596053316 14.4584971859229  C 10.210596053316 14.4584971859229  5.29807000618251 10.3321785572033  5.29807000618251 10.3321785572033  C 5.29807000618251 10.3321785572033  5.60482779749723 8.72789430050886  5.60482779749723 8.72789430050886  Z M 0.740947048667197 1.18342239064953  C 0.740947048667197 1.18342239064953  6.84510913129332 3.01276068077948  6.84510913129332 3.01276068077948  C 6.84510913129332 3.01276068077948  8.18717446829623 9.32148401905613  8.18717446829623 9.32148401905613  C 8.18717446829623 9.32148401905613  5.9631804812625 8.57199214623768  5.9631804812625 8.57199214623768  C 5.9631804812625 8.57199214623768  2.09776035640614 8.89615254302146  2.09776035640614 8.89615254302146  C 2.09776035640614 8.89615254302146  0.914973103355286 7.24644453645919  0.914973103355286 7.24644453645919  C 0.914973103355286 7.24644453645919  0.740947048667197 1.18342239064953  0.740947048667197 1.18342239064953  Z " fill-rule="nonzero" fill="#f2f2f2" stroke="none" transform="matrix(1 0 0 1 3074 2119 )" />
    <path d="M 5.60482779749723 8.72789430050886  C 5.60482779749723 8.72789430050886  12.9389706395308 13.6697757109455  12.9389706395308 13.6697757109455  C 12.9389706395308 13.6697757109455  10.210596053316 14.4584971859229  10.210596053316 14.4584971859229  C 10.210596053316 14.4584971859229  5.29807000618251 10.3321785572033  5.29807000618251 10.3321785572033  C 5.29807000618251 10.3321785572033  5.60482779749723 8.72789430050886  5.60482779749723 8.72789430050886  Z " stroke-width="2" stroke="#505050" fill="none" stroke-opacity="0.211764705882353" transform="matrix(1 0 0 1 3074 2119 )" mask="url(#clip772)" />
    <path d="M 0.740947048667197 1.18342239064953  C 0.740947048667197 1.18342239064953  6.84510913129332 3.01276068077948  6.84510913129332 3.01276068077948  C 6.84510913129332 3.01276068077948  8.18717446829623 9.32148401905613  8.18717446829623 9.32148401905613  C 8.18717446829623 9.32148401905613  5.9631804812625 8.57199214623768  5.9631804812625 8.57199214623768  C 5.9631804812625 8.57199214623768  2.09776035640614 8.89615254302146  2.09776035640614 8.89615254302146  C 2.09776035640614 8.89615254302146  0.914973103355286 7.24644453645919  0.914973103355286 7.24644453645919  C 0.914973103355286 7.24644453645919  0.740947048667197 1.18342239064953  0.740947048667197 1.18342239064953  Z " stroke-width="2" stroke="#505050" fill="none" stroke-opacity="0.211764705882353" transform="matrix(1 0 0 1 3074 2119 )" mask="url(#clip772)" />
  </g>
</svg>