<?xml version="1.0" encoding="utf-8"?>
<svg version="1.1" xmlns:xlink="http://www.w3.org/1999/xlink" width="84px" height="45px" xmlns="http://www.w3.org/2000/svg">
  <defs>
    <mask fill="white" id="clip773">
      <path d="M 80.0157947125815 12.0910715274264  C 80.0157947125815 12.0910715274264  82.4761678026717 16.5951017902914  82.4761678026717 16.5951017902914  C 82.4761678026717 16.5951017902914  77.0257019517284 18.3228265620485  77.0257019517284 18.3228265620485  C 77.0257019517284 18.3228265620485  75.5656116917076 21.1721345083009  75.5656116917076 21.1721345083009  C 75.5656116917076 21.1721345083009  75.3854532250015 24.9627144329523  75.3854532250015 24.9627144329523  C 75.3854532250015 24.9627144329523  67.8806430671404 27.6615930776942  67.8806430671404 27.6615930776942  C 67.8806430671404 27.6615930776942  55.8342261888831 30.6392083693526  55.8342261888831 30.6392083693526  C 55.8342261888831 30.6392083693526  49.0823170859133 35.1277532629442  49.0823170859133 35.1277532629442  C 49.0823170859133 35.1277532629442  45.7641745797148 35.4772801693943  45.7641745797148 35.4772801693943  C 45.7641745797148 35.4772801693943  43.5027824827029 35.1012069156187  43.5027824827029 35.1012069156187  C 43.5027824827029 35.1012069156187  37.1421340071579 37.7359318876581  37.1421340071579 37.7359318876581  C 37.1421340071579 37.7359318876581  32.3370119175494 38.954851669013  32.3370119175494 38.954851669013  C 32.3370119175494 38.954851669013  26.0072651917863 39.284468814969  26.0072651917863 39.284468814969  C 26.0072651917863 39.284468814969  24.1035010958474 39.6450566994715  24.1035010958474 39.6450566994715  C 24.1035010958474 39.6450566994715  22.4551855721039 41.3152643853571  22.4551855721039 41.3152643853571  C 22.4551855721039 41.3152643853571  20.4788203030145 41.7776132679399  20.4788203030145 41.7776132679399  C 20.4788203030145 41.7776132679399  19.3118236679335 43.385879476733  19.3118236679335 43.385879476733  C 19.3118236679335 43.385879476733  15.579585581545 43.2465111532749  15.579585581545 43.2465111532749  C 15.579585581545 43.2465111532749  13.1703022058934 44.1026308545169  13.1703022058934 44.1026308545169  C 13.1703022058934 44.1026308545169  7.95377346843393 43.7818624910026  7.95377346843393 43.7818624910026  C 7.95377346843393 43.7818624910026  5.99085286103924 40.0874958215605  5.99085286103924 40.0874958215605  C 5.99085286103924 40.0874958215605  6.205967448151 36.6231974956046  6.205967448151 36.6231974956046  C 6.205967448151 36.6231974956046  4.97443643693627 34.7494678135583  4.97443643693627 34.7494678135583  C 4.97443643693627 34.7494678135583  3.50090151522088 30.0419155545324  3.50090151522088 30.0419155545324  C 3.50090151522088 30.0419155545324  1.33362205006992 27.4182515605454  1.33362205006992 27.4182515605454  C 1.33362205006992 27.4182515605454  2.84211309219095 27.1085441750831  2.84211309219095 27.1085441750831  C 2.84211309219095 27.1085441750831  2.06770057858864 24.1862337736862  2.06770057858864 24.1862337736862  C 2.06770057858864 24.1862337736862  2.98193757381347 21.3424735703051  2.98193757381347 21.3424735703051  C 2.98193757381347 21.3424735703051  2.64850996379059 18.5440461230929  2.64850996379059 18.5440461230929  C 2.64850996379059 18.5440461230929  5.95858567297237 16.4933407922111  5.95858567297237 16.4933407922111  C 5.95858567297237 16.4933407922111  5.18686209170882 13.7767645825851  5.18686209170882 13.7767645825851  C 5.18686209170882 13.7767645825851  7.18204988717038 10.6022638815974  7.18204988717038 10.6022638815974  C 7.18204988717038 10.6022638815974  10.2796999415796 12.2835325455354  10.2796999415796 12.2835325455354  C 10.2796999415796 12.2835325455354  12.323288519141 11.6995129043779  12.323288519141 11.6995129043779  C 12.323288519141 11.6995129043779  21.0246735678108 11.5512957984781  21.0246735678108 11.5512957984781  C 21.0246735678108 11.5512957984781  22.4067847900036 12.1972569167278  22.4067847900036 12.1972569167278  C 22.4067847900036 12.1972569167278  29.6937914284138 12.8432180349779  29.6937914284138 12.8432180349779  C 29.6937914284138 12.8432180349779  32.5843936927275 12.5202374758528  32.5843936927275 12.5202374758528  C 32.5843936927275 12.5202374758528  34.4693352622942 14.6704916092046  34.4693352622942 14.6704916092046  C 34.4693352622942 14.6704916092046  37.9891476939103 13.5953645425289  37.9891476939103 13.5953645425289  C 37.9891476939103 13.5953645425289  45.3447011348468 6.80171182285404  45.3447011348468 6.80171182285404  C 45.3447011348468 6.80171182285404  52.3816370657401 3.87940142145713  52.3816370657401 3.87940142145713  C 52.3816370657401 3.87940142145713  74.1216550257199 1.38183257726557  74.1216550257199 1.38183257726557  C 74.1216550257199 1.38183257726557  80.0157947125815 12.0910715274264  80.0157947125815 12.0910715274264  Z " fill-rule="evenodd" />
    </mask>
  </defs>
  <g transform="matrix(1 0 0 1 -2120 -1916 )">
    <path d="M 80.0157947125815 12.0910715274264  C 80.0157947125815 12.0910715274264  82.4761678026717 16.5951017902914  82.4761678026717 16.5951017902914  C 82.4761678026717 16.5951017902914  77.0257019517284 18.3228265620485  77.0257019517284 18.3228265620485  C 77.0257019517284 18.3228265620485  75.5656116917076 21.1721345083009  75.5656116917076 21.1721345083009  C 75.5656116917076 21.1721345083009  75.3854532250015 24.9627144329523  75.3854532250015 24.9627144329523  C 75.3854532250015 24.9627144329523  67.8806430671404 27.6615930776942  67.8806430671404 27.6615930776942  C 67.8806430671404 27.6615930776942  55.8342261888831 30.6392083693526  55.8342261888831 30.6392083693526  C 55.8342261888831 30.6392083693526  49.0823170859133 35.1277532629442  49.0823170859133 35.1277532629442  C 49.0823170859133 35.1277532629442  45.7641745797148 35.4772801693943  45.7641745797148 35.4772801693943  C 45.7641745797148 35.4772801693943  43.5027824827029 35.1012069156187  43.5027824827029 35.1012069156187  C 43.5027824827029 35.1012069156187  37.1421340071579 37.7359318876581  37.1421340071579 37.7359318876581  C 37.1421340071579 37.7359318876581  32.3370119175494 38.954851669013  32.3370119175494 38.954851669013  C 32.3370119175494 38.954851669013  26.0072651917863 39.284468814969  26.0072651917863 39.284468814969  C 26.0072651917863 39.284468814969  24.1035010958474 39.6450566994715  24.1035010958474 39.6450566994715  C 24.1035010958474 39.6450566994715  22.4551855721039 41.3152643853571  22.4551855721039 41.3152643853571  C 22.4551855721039 41.3152643853571  20.4788203030145 41.7776132679399  20.4788203030145 41.7776132679399  C 20.4788203030145 41.7776132679399  19.3118236679335 43.385879476733  19.3118236679335 43.385879476733  C 19.3118236679335 43.385879476733  15.579585581545 43.2465111532749  15.579585581545 43.2465111532749  C 15.579585581545 43.2465111532749  13.1703022058934 44.1026308545169  13.1703022058934 44.1026308545169  C 13.1703022058934 44.1026308545169  7.95377346843393 43.7818624910026  7.95377346843393 43.7818624910026  C 7.95377346843393 43.7818624910026  5.99085286103924 40.0874958215605  5.99085286103924 40.0874958215605  C 5.99085286103924 40.0874958215605  6.205967448151 36.6231974956046  6.205967448151 36.6231974956046  C 6.205967448151 36.6231974956046  4.97443643693627 34.7494678135583  4.97443643693627 34.7494678135583  C 4.97443643693627 34.7494678135583  3.50090151522088 30.0419155545324  3.50090151522088 30.0419155545324  C 3.50090151522088 30.0419155545324  1.33362205006992 27.4182515605454  1.33362205006992 27.4182515605454  C 1.33362205006992 27.4182515605454  2.84211309219095 27.1085441750831  2.84211309219095 27.1085441750831  C 2.84211309219095 27.1085441750831  2.06770057858864 24.1862337736862  2.06770057858864 24.1862337736862  C 2.06770057858864 24.1862337736862  2.98193757381347 21.3424735703051  2.98193757381347 21.3424735703051  C 2.98193757381347 21.3424735703051  2.64850996379059 18.5440461230929  2.64850996379059 18.5440461230929  C 2.64850996379059 18.5440461230929  5.95858567297237 16.4933407922111  5.95858567297237 16.4933407922111  C 5.95858567297237 16.4933407922111  5.18686209170882 13.7767645825851  5.18686209170882 13.7767645825851  C 5.18686209170882 13.7767645825851  7.18204988717038 10.6022638815974  7.18204988717038 10.6022638815974  C 7.18204988717038 10.6022638815974  10.2796999415796 12.2835325455354  10.2796999415796 12.2835325455354  C 10.2796999415796 12.2835325455354  12.323288519141 11.6995129043779  12.323288519141 11.6995129043779  C 12.323288519141 11.6995129043779  21.0246735678108 11.5512957984781  21.0246735678108 11.5512957984781  C 21.0246735678108 11.5512957984781  22.4067847900036 12.1972569167278  22.4067847900036 12.1972569167278  C 22.4067847900036 12.1972569167278  29.6937914284138 12.8432180349779  29.6937914284138 12.8432180349779  C 29.6937914284138 12.8432180349779  32.5843936927275 12.5202374758528  32.5843936927275 12.5202374758528  C 32.5843936927275 12.5202374758528  34.4693352622942 14.6704916092046  34.4693352622942 14.6704916092046  C 34.4693352622942 14.6704916092046  37.9891476939103 13.5953645425289  37.9891476939103 13.5953645425289  C 37.9891476939103 13.5953645425289  45.3447011348468 6.80171182285404  45.3447011348468 6.80171182285404  C 45.3447011348468 6.80171182285404  52.3816370657401 3.87940142145713  52.3816370657401 3.87940142145713  C 52.3816370657401 3.87940142145713  74.1216550257199 1.38183257726557  74.1216550257199 1.38183257726557  C 74.1216550257199 1.38183257726557  80.0157947125815 12.0910715274264  80.0157947125815 12.0910715274264  Z " fill-rule="nonzero" fill="#f2f2f2" stroke="none" transform="matrix(1 0 0 1 2120 1916 )" />
    <path d="M 80.0157947125815 12.0910715274264  C 80.0157947125815 12.0910715274264  82.4761678026717 16.5951017902914  82.4761678026717 16.5951017902914  C 82.4761678026717 16.5951017902914  77.0257019517284 18.3228265620485  77.0257019517284 18.3228265620485  C 77.0257019517284 18.3228265620485  75.5656116917076 21.1721345083009  75.5656116917076 21.1721345083009  C 75.5656116917076 21.1721345083009  75.3854532250015 24.9627144329523  75.3854532250015 24.9627144329523  C 75.3854532250015 24.9627144329523  67.8806430671404 27.6615930776942  67.8806430671404 27.6615930776942  C 67.8806430671404 27.6615930776942  55.8342261888831 30.6392083693526  55.8342261888831 30.6392083693526  C 55.8342261888831 30.6392083693526  49.0823170859133 35.1277532629442  49.0823170859133 35.1277532629442  C 49.0823170859133 35.1277532629442  45.7641745797148 35.4772801693943  45.7641745797148 35.4772801693943  C 45.7641745797148 35.4772801693943  43.5027824827029 35.1012069156187  43.5027824827029 35.1012069156187  C 43.5027824827029 35.1012069156187  37.1421340071579 37.7359318876581  37.1421340071579 37.7359318876581  C 37.1421340071579 37.7359318876581  32.3370119175494 38.954851669013  32.3370119175494 38.954851669013  C 32.3370119175494 38.954851669013  26.0072651917863 39.284468814969  26.0072651917863 39.284468814969  C 26.0072651917863 39.284468814969  24.1035010958474 39.6450566994715  24.1035010958474 39.6450566994715  C 24.1035010958474 39.6450566994715  22.4551855721039 41.3152643853571  22.4551855721039 41.3152643853571  C 22.4551855721039 41.3152643853571  20.4788203030145 41.7776132679399  20.4788203030145 41.7776132679399  C 20.4788203030145 41.7776132679399  19.3118236679335 43.385879476733  19.3118236679335 43.385879476733  C 19.3118236679335 43.385879476733  15.579585581545 43.2465111532749  15.579585581545 43.2465111532749  C 15.579585581545 43.2465111532749  13.1703022058934 44.1026308545169  13.1703022058934 44.1026308545169  C 13.1703022058934 44.1026308545169  7.95377346843393 43.7818624910026  7.95377346843393 43.7818624910026  C 7.95377346843393 43.7818624910026  5.99085286103924 40.0874958215605  5.99085286103924 40.0874958215605  C 5.99085286103924 40.0874958215605  6.205967448151 36.6231974956046  6.205967448151 36.6231974956046  C 6.205967448151 36.6231974956046  4.97443643693627 34.7494678135583  4.97443643693627 34.7494678135583  C 4.97443643693627 34.7494678135583  3.50090151522088 30.0419155545324  3.50090151522088 30.0419155545324  C 3.50090151522088 30.0419155545324  1.33362205006992 27.4182515605454  1.33362205006992 27.4182515605454  C 1.33362205006992 27.4182515605454  2.84211309219095 27.1085441750831  2.84211309219095 27.1085441750831  C 2.84211309219095 27.1085441750831  2.06770057858864 24.1862337736862  2.06770057858864 24.1862337736862  C 2.06770057858864 24.1862337736862  2.98193757381347 21.3424735703051  2.98193757381347 21.3424735703051  C 2.98193757381347 21.3424735703051  2.64850996379059 18.5440461230929  2.64850996379059 18.5440461230929  C 2.64850996379059 18.5440461230929  5.95858567297237 16.4933407922111  5.95858567297237 16.4933407922111  C 5.95858567297237 16.4933407922111  5.18686209170882 13.7767645825851  5.18686209170882 13.7767645825851  C 5.18686209170882 13.7767645825851  7.18204988717038 10.6022638815974  7.18204988717038 10.6022638815974  C 7.18204988717038 10.6022638815974  10.2796999415796 12.2835325455354  10.2796999415796 12.2835325455354  C 10.2796999415796 12.2835325455354  12.323288519141 11.6995129043779  12.323288519141 11.6995129043779  C 12.323288519141 11.6995129043779  21.0246735678108 11.5512957984781  21.0246735678108 11.5512957984781  C 21.0246735678108 11.5512957984781  22.4067847900036 12.1972569167278  22.4067847900036 12.1972569167278  C 22.4067847900036 12.1972569167278  29.6937914284138 12.8432180349779  29.6937914284138 12.8432180349779  C 29.6937914284138 12.8432180349779  32.5843936927275 12.5202374758528  32.5843936927275 12.5202374758528  C 32.5843936927275 12.5202374758528  34.4693352622942 14.6704916092046  34.4693352622942 14.6704916092046  C 34.4693352622942 14.6704916092046  37.9891476939103 13.5953645425289  37.9891476939103 13.5953645425289  C 37.9891476939103 13.5953645425289  45.3447011348468 6.80171182285404  45.3447011348468 6.80171182285404  C 45.3447011348468 6.80171182285404  52.3816370657401 3.87940142145713  52.3816370657401 3.87940142145713  C 52.3816370657401 3.87940142145713  74.1216550257199 1.38183257726557  74.1216550257199 1.38183257726557  C 74.1216550257199 1.38183257726557  80.0157947125815 12.0910715274264  80.0157947125815 12.0910715274264  Z " stroke-width="2" stroke="#505050" fill="none" stroke-opacity="0.211764705882353" transform="matrix(1 0 0 1 2120 1916 )" mask="url(#clip773)" />
  </g>
</svg>