<?xml version="1.0" encoding="utf-8"?>
<svg version="1.1" xmlns:xlink="http://www.w3.org/1999/xlink" width="129px" height="91px" xmlns="http://www.w3.org/2000/svg">
  <defs>
    <mask fill="white" id="clip774">
      <path d="M 124.099678090392 47.5637940978497  C 124.099678090392 47.5637940978497  118.887445734933 51.0473020794817  118.887445734933 51.0473020794817  C 118.887445734933 51.0473020794817  117.390431410619 52.0450582403707  117.390431410619 52.0450582403707  C 117.390431410619 52.0450582403707  114.145079189295 55.5674398386609  114.145079189295 55.5674398386609  C 114.145079189295 55.5674398386609  112.008828821387 59.1481318619383  112.008828821387 59.1481318619383  C 112.008828821387 59.1481318619383  107.665301858504 64.1736266376716  107.665301858504 64.1736266376716  C 107.665301858504 64.1736266376716  99.0082974903447 71.4775472786386  99.0082974903447 71.4775472786386  C 99.0082974903447 71.4775472786386  93.6021088994362 75.7622836925001  93.6021088994362 75.7622836925001  C 93.6021088994362 75.7622836925001  87.8189349494854 79.0319867825131  87.8189349494854 79.0319867825131  C 87.8189349494854 79.0319867825131  79.8120937367758 81.8330468272601  79.8120937367758 81.8330468272601  C 79.8120937367758 81.8330468272601  75.9083830261098 82.2088251216208  75.9083830261098 82.2088251216208  C 75.9083830261098 82.2088251216208  74.919479403114 84.2237742517283  74.919479403114 84.2237742517283  C 74.919479403114 84.2237742517283  70.264529752327 83.1504305028931  70.264529752327 83.1504305028931  C 70.264529752327 83.1504305028931  66.4728219381881 84.5326035396223  66.4728219381881 84.5326035396223  C 66.4728219381881 84.5326035396223  56.1863333207426 83.1331533399338  56.1863333207426 83.1331533399338  C 56.1863333207426 83.1331533399338  51.545042559776 84.0186079415886  51.545042559776 84.0186079415886  C 51.545042559776 84.0186079415886  48.3734483434828 83.638510356488  48.3734483434828 83.638510356488  C 48.3734483434828 83.638510356488  40.4731464713721 86.5108386984413  40.4731464713721 86.5108386984413  C 40.4731464713721 86.5108386984413  33.933270025372 87.6662489713324  33.933270025372 87.6662489713324  C 33.933270025372 87.6662489713324  29.2018305915907 90.434914335531  29.2018305915907 90.434914335531  C 29.2018305915907 90.434914335531  25.7188136873926 90.6120052558621  25.7188136873926 90.6120052558621  C 25.7188136873926 90.6120052558621  22.4761932440332 88.0009940036655  22.4761932440332 88.0009940036655  C 22.4761932440332 88.0009940036655  19.8891995120524 87.8670959907321  19.8891995120524 87.8670959907321  C 19.8891995120524 87.8670959907321  16.5892117314475 84.6125104183084  16.5892117314475 84.6125104183084  C 16.5892117314475 84.6125104183084  16.2258852622252 85.621064806047  16.2258852622252 85.621064806047  C 16.2258852622252 85.621064806047  15.2069320816243 83.6665857462969  15.2069320816243 83.6665857462969  C 15.2069320816243 83.6665857462969  15.2506405290495 79.4250422398331  15.2506405290495 79.4250422398331  C 15.2506405290495 79.4250422398331  12.7619908037755 74.6111927103487  12.7619908037755 74.6111927103487  C 12.7619908037755 74.6111927103487  15.234249861265 73.3089265523052  15.234249861265 73.3089265523052  C 15.234249861265 73.3089265523052  15.0348300698875 67.8515027025937  15.0348300698875 67.8515027025937  C 15.0348300698875 67.8515027025937  10.0192857278422 61.2581053883202  10.0192857278422 61.2581053883202  C 10.0192857278422 61.2581053883202  6.1702105764577 55.3471560109321  6.1702105764577 55.3471560109321  C 6.1702105764577 55.3471560109321  6.15928346460127 55.327719202603  6.15928346460127 55.327719202603  C 6.15928346460127 55.327719202603  0.660214422914274 44.7897464642092  0.660214422914274 44.7897464642092  C 0.660214422914274 44.7897464642092  4.32899222866954 41.4055821695919  4.32899222866954 41.4055821695919  C 4.32899222866954 41.4055821695919  7.35307043490273 43.2779947052865  7.35307043490273 43.2779947052865  C 7.35307043490273 43.2779947052865  8.64520141191107 47.7797586348382  8.64520141191107 47.7797586348382  C 8.64520141191107 47.7797586348382  12.08177809072 48.2807963606525  12.08177809072 48.2807963606525  C 12.08177809072 48.2807963606525  16.8979026413876 49.583062518696  16.8979026413876 49.583062518696  C 16.8979026413876 49.583062518696  21.0119602552875 49.0798651475119  21.0119602552875 49.0798651475119  C 21.0119602552875 49.0798651475119  27.846868721408 43.9993162588296  27.846868721408 43.9993162588296  C 27.846868721408 43.9993162588296  27.8550640553003 19.1115630162199  27.8550640553003 19.1115630162199  C 27.8550640553003 19.1115630162199  29.9230199741064 20.1071595317392  29.9230199741064 20.1071595317392  C 29.9230199741064 20.1071595317392  34.4632349504024 26.4413994016257  34.4632349504024 26.4413994016257  C 34.4632349504024 26.4413994016257  33.7584362356704 30.529608086827  33.7584362356704 30.529608086827  C 33.7584362356704 30.529608086827  35.4657974632184 32.8965794122262  35.4657974632184 32.8965794122262  C 35.4657974632184 32.8965794122262  40.9512076150851 32.2076525392316  40.9512076150851 32.2076525392316  C 40.9512076150851 32.2076525392316  44.7811603207211 29.203585829715  44.7811603207211 29.203585829715  C 44.7811603207211 29.203585829715  48.4089614570153 27.184317408868  48.4089614570153 27.184317408868  C 48.4089614570153 27.184317408868  50.2856929183362 23.9837229706916  50.2856929183362 23.9837229706916  C 50.2856929183362 23.9837229706916  54.0227651731935 22.4374168858507  54.0227651731935 22.4374168858507  C 54.0227651731935 22.4374168858507  57.2517267267325 23.2472838995593  57.2517267267325 23.2472838995593  C 57.2517267267325 23.2472838995593  60.9095774206318 25.1153771445139  60.9095774206318 25.1153771445139  C 60.9095774206318 25.1153771445139  69.1281101192712 25.4458028861072  69.1281101192712 25.4458028861072  C 69.1281101192712 25.4458028861072  74.0261880088613 23.8908582197864  74.0261880088613 23.8908582197864  C 74.0261880088613 23.8908582197864  74.8020129506591 21.8132793739522  74.8020129506591 21.8132793739522  C 74.8020129506591 21.8132793739522  76.1487794869491 18.6364410348444  76.1487794869491 18.6364410348444  C 76.1487794869491 18.6364410348444  80.3174726601304 18.1051682738518  80.3174726601304 18.1051682738518  C 80.3174726601304 18.1051682738518  82.6203614838472 15.6215760984786  82.6203614838472 15.6215760984786  C 82.6203614838472 15.6215760984786  85.1718421022951 11.2331767068623  85.1718421022951 11.2331767068623  C 85.1718421022951 11.2331767068623  92.0477272378767 6.341579944062  92.0477272378767 6.341579944062  C 92.0477272378767 6.341579944062  102.88469042137 1.54284793216714  102.88469042137 1.54284793216714  C 102.88469042137 1.54284793216714  106.001649078382 1.61411622937339  106.001649078382 1.61411622937339  C 106.001649078382 1.61411622937339  109.708671775634 2.71553536801746  109.708671775634 2.71553536801746  C 109.708671775634 2.71553536801746  112.290201951687 1.93590338948714  112.290201951687 1.93590338948714  C 112.290201951687 1.93590338948714  116.360551118162 2.58595664582398  116.360551118162 2.58595664582398  C 116.360551118162 2.58595664582398  120.029328923917 11.7882055669243  120.029328923917 11.7882055669243  C 120.029328923917 11.7882055669243  122.020795059729 16.4703167288454  122.020795059729 16.4703167288454  C 122.020795059729 16.4703167288454  120.654906077691 23.8735810568275  120.654906077691 23.8735810568275  C 120.654906077691 23.8735810568275  121.307801011105 26.2729470627748  121.307801011105 26.2729470627748  C 121.307801011105 26.2729470627748  117.442335191936 25.0484281380473  117.442335191936 25.0484281380473  C 117.442335191936 25.0484281380473  115.22686326307 25.5257097647929  115.22686326307 25.5257097647929  C 115.22686326307 25.5257097647929  114.502942102589 27.4737098884336  114.502942102589 27.4737098884336  C 114.502942102589 27.4737098884336  112.410400182107 29.9940160350949  112.410400182107 29.9940160350949  C 112.410400182107 29.9940160350949  112.481426409172 32.3221137438362  112.481426409172 32.3221137438362  C 112.481426409172 32.3221137438362  117.051690943073 35.9870319365389  117.051690943073 35.9870319365389  C 117.051690943073 35.9870319365389  121.534538582123 35.2570718015164  121.534538582123 35.2570718015164  C 121.534538582123 35.2570718015164  123.094383799612 32.2551647373695  123.094383799612 32.2551647373695  C 123.094383799612 32.2551647373695  128.902143751239 32.3113155169866  128.902143751239 32.3113155169866  C 128.902143751239 32.3113155169866  126.987167398421 37.2374666057052  126.987167398421 37.2374666057052  C 126.987167398421 37.2374666057052  126.082948892312 42.900056765556  126.082948892312 42.900056765556  C 126.082948892312 42.900056765556  124.099678090392 47.5637940978497  124.099678090392 47.5637940978497  Z M 102.070620588075 49.4804962076101  C 102.070620588075 49.4804962076101  99.412600629028 47.3985980710363  99.412600629028 47.3985980710363  C 99.412600629028 47.3985980710363  96.0689044009978 45.2821456085443  96.0689044009978 45.2821456085443  C 96.0689044009978 45.2821456085443  90.5029281054772 46.6837554536029  90.5029281054772 46.6837554536029  C 90.5029281054772 46.6837554536029  86.3533573780441 49.3789928752252  86.3533573780441 49.3789928752252  C 86.3533573780441 49.3789928752252  82.2693493217491 55.334198138713  82.2693493217491 55.334198138713  C 82.2693493217491 55.334198138713  88.0142783802028 60.6987572375191  88.0142783802028 60.6987572375191  C 88.0142783802028 60.6987572375191  90.7542516781721 60.0033514284148  90.7542516781721 60.0033514284148  C 90.7542516781721 60.0033514284148  94.1484644922514 57.7724377613184  94.1484644922514 57.7724377613184  C 94.1484644922514 57.7724377613184  98.4182334501036 56.6839764948941  98.4182334501036 56.6839764948941  C 98.4182334501036 56.6839764948941  99.7212915389683 54.4163488565098  99.7212915389683 54.4163488565098  C 99.7212915389683 54.4163488565098  102.070620588075 49.4804962076101  102.070620588075 49.4804962076101  Z " fill-rule="evenodd" />
    </mask>
  </defs>
  <g transform="matrix(1 0 0 1 -1919 -2167 )">
    <path d="M 124.099678090392 47.5637940978497  C 124.099678090392 47.5637940978497  118.887445734933 51.0473020794817  118.887445734933 51.0473020794817  C 118.887445734933 51.0473020794817  117.390431410619 52.0450582403707  117.390431410619 52.0450582403707  C 117.390431410619 52.0450582403707  114.145079189295 55.5674398386609  114.145079189295 55.5674398386609  C 114.145079189295 55.5674398386609  112.008828821387 59.1481318619383  112.008828821387 59.1481318619383  C 112.008828821387 59.1481318619383  107.665301858504 64.1736266376716  107.665301858504 64.1736266376716  C 107.665301858504 64.1736266376716  99.0082974903447 71.4775472786386  99.0082974903447 71.4775472786386  C 99.0082974903447 71.4775472786386  93.6021088994362 75.7622836925001  93.6021088994362 75.7622836925001  C 93.6021088994362 75.7622836925001  87.8189349494854 79.0319867825131  87.8189349494854 79.0319867825131  C 87.8189349494854 79.0319867825131  79.8120937367758 81.8330468272601  79.8120937367758 81.8330468272601  C 79.8120937367758 81.8330468272601  75.9083830261098 82.2088251216208  75.9083830261098 82.2088251216208  C 75.9083830261098 82.2088251216208  74.919479403114 84.2237742517283  74.919479403114 84.2237742517283  C 74.919479403114 84.2237742517283  70.264529752327 83.1504305028931  70.264529752327 83.1504305028931  C 70.264529752327 83.1504305028931  66.4728219381881 84.5326035396223  66.4728219381881 84.5326035396223  C 66.4728219381881 84.5326035396223  56.1863333207426 83.1331533399338  56.1863333207426 83.1331533399338  C 56.1863333207426 83.1331533399338  51.545042559776 84.0186079415886  51.545042559776 84.0186079415886  C 51.545042559776 84.0186079415886  48.3734483434828 83.638510356488  48.3734483434828 83.638510356488  C 48.3734483434828 83.638510356488  40.4731464713721 86.5108386984413  40.4731464713721 86.5108386984413  C 40.4731464713721 86.5108386984413  33.933270025372 87.6662489713324  33.933270025372 87.6662489713324  C 33.933270025372 87.6662489713324  29.2018305915907 90.434914335531  29.2018305915907 90.434914335531  C 29.2018305915907 90.434914335531  25.7188136873926 90.6120052558621  25.7188136873926 90.6120052558621  C 25.7188136873926 90.6120052558621  22.4761932440332 88.0009940036655  22.4761932440332 88.0009940036655  C 22.4761932440332 88.0009940036655  19.8891995120524 87.8670959907321  19.8891995120524 87.8670959907321  C 19.8891995120524 87.8670959907321  16.5892117314475 84.6125104183084  16.5892117314475 84.6125104183084  C 16.5892117314475 84.6125104183084  16.2258852622252 85.621064806047  16.2258852622252 85.621064806047  C 16.2258852622252 85.621064806047  15.2069320816243 83.6665857462969  15.2069320816243 83.6665857462969  C 15.2069320816243 83.6665857462969  15.2506405290495 79.4250422398331  15.2506405290495 79.4250422398331  C 15.2506405290495 79.4250422398331  12.7619908037755 74.6111927103487  12.7619908037755 74.6111927103487  C 12.7619908037755 74.6111927103487  15.234249861265 73.3089265523052  15.234249861265 73.3089265523052  C 15.234249861265 73.3089265523052  15.0348300698875 67.8515027025937  15.0348300698875 67.8515027025937  C 15.0348300698875 67.8515027025937  10.0192857278422 61.2581053883202  10.0192857278422 61.2581053883202  C 10.0192857278422 61.2581053883202  6.1702105764577 55.3471560109321  6.1702105764577 55.3471560109321  C 6.1702105764577 55.3471560109321  6.15928346460127 55.327719202603  6.15928346460127 55.327719202603  C 6.15928346460127 55.327719202603  0.660214422914274 44.7897464642092  0.660214422914274 44.7897464642092  C 0.660214422914274 44.7897464642092  4.32899222866954 41.4055821695919  4.32899222866954 41.4055821695919  C 4.32899222866954 41.4055821695919  7.35307043490273 43.2779947052865  7.35307043490273 43.2779947052865  C 7.35307043490273 43.2779947052865  8.64520141191107 47.7797586348382  8.64520141191107 47.7797586348382  C 8.64520141191107 47.7797586348382  12.08177809072 48.2807963606525  12.08177809072 48.2807963606525  C 12.08177809072 48.2807963606525  16.8979026413876 49.583062518696  16.8979026413876 49.583062518696  C 16.8979026413876 49.583062518696  21.0119602552875 49.0798651475119  21.0119602552875 49.0798651475119  C 21.0119602552875 49.0798651475119  27.846868721408 43.9993162588296  27.846868721408 43.9993162588296  C 27.846868721408 43.9993162588296  27.8550640553003 19.1115630162199  27.8550640553003 19.1115630162199  C 27.8550640553003 19.1115630162199  29.9230199741064 20.1071595317392  29.9230199741064 20.1071595317392  C 29.9230199741064 20.1071595317392  34.4632349504024 26.4413994016257  34.4632349504024 26.4413994016257  C 34.4632349504024 26.4413994016257  33.7584362356704 30.529608086827  33.7584362356704 30.529608086827  C 33.7584362356704 30.529608086827  35.4657974632184 32.8965794122262  35.4657974632184 32.8965794122262  C 35.4657974632184 32.8965794122262  40.9512076150851 32.2076525392316  40.9512076150851 32.2076525392316  C 40.9512076150851 32.2076525392316  44.7811603207211 29.203585829715  44.7811603207211 29.203585829715  C 44.7811603207211 29.203585829715  48.4089614570153 27.184317408868  48.4089614570153 27.184317408868  C 48.4089614570153 27.184317408868  50.2856929183362 23.9837229706916  50.2856929183362 23.9837229706916  C 50.2856929183362 23.9837229706916  54.0227651731935 22.4374168858507  54.0227651731935 22.4374168858507  C 54.0227651731935 22.4374168858507  57.2517267267325 23.2472838995593  57.2517267267325 23.2472838995593  C 57.2517267267325 23.2472838995593  60.9095774206318 25.1153771445139  60.9095774206318 25.1153771445139  C 60.9095774206318 25.1153771445139  69.1281101192712 25.4458028861072  69.1281101192712 25.4458028861072  C 69.1281101192712 25.4458028861072  74.0261880088613 23.8908582197864  74.0261880088613 23.8908582197864  C 74.0261880088613 23.8908582197864  74.8020129506591 21.8132793739522  74.8020129506591 21.8132793739522  C 74.8020129506591 21.8132793739522  76.1487794869491 18.6364410348444  76.1487794869491 18.6364410348444  C 76.1487794869491 18.6364410348444  80.3174726601304 18.1051682738518  80.3174726601304 18.1051682738518  C 80.3174726601304 18.1051682738518  82.6203614838472 15.6215760984786  82.6203614838472 15.6215760984786  C 82.6203614838472 15.6215760984786  85.1718421022951 11.2331767068623  85.1718421022951 11.2331767068623  C 85.1718421022951 11.2331767068623  92.0477272378767 6.341579944062  92.0477272378767 6.341579944062  C 92.0477272378767 6.341579944062  102.88469042137 1.54284793216714  102.88469042137 1.54284793216714  C 102.88469042137 1.54284793216714  106.001649078382 1.61411622937339  106.001649078382 1.61411622937339  C 106.001649078382 1.61411622937339  109.708671775634 2.71553536801746  109.708671775634 2.71553536801746  C 109.708671775634 2.71553536801746  112.290201951687 1.93590338948714  112.290201951687 1.93590338948714  C 112.290201951687 1.93590338948714  116.360551118162 2.58595664582398  116.360551118162 2.58595664582398  C 116.360551118162 2.58595664582398  120.029328923917 11.7882055669243  120.029328923917 11.7882055669243  C 120.029328923917 11.7882055669243  122.020795059729 16.4703167288454  122.020795059729 16.4703167288454  C 122.020795059729 16.4703167288454  120.654906077691 23.8735810568275  120.654906077691 23.8735810568275  C 120.654906077691 23.8735810568275  121.307801011105 26.2729470627748  121.307801011105 26.2729470627748  C 121.307801011105 26.2729470627748  117.442335191936 25.0484281380473  117.442335191936 25.0484281380473  C 117.442335191936 25.0484281380473  115.22686326307 25.5257097647929  115.22686326307 25.5257097647929  C 115.22686326307 25.5257097647929  114.502942102589 27.4737098884336  114.502942102589 27.4737098884336  C 114.502942102589 27.4737098884336  112.410400182107 29.9940160350949  112.410400182107 29.9940160350949  C 112.410400182107 29.9940160350949  112.481426409172 32.3221137438362  112.481426409172 32.3221137438362  C 112.481426409172 32.3221137438362  117.051690943073 35.9870319365389  117.051690943073 35.9870319365389  C 117.051690943073 35.9870319365389  121.534538582123 35.2570718015164  121.534538582123 35.2570718015164  C 121.534538582123 35.2570718015164  123.094383799612 32.2551647373695  123.094383799612 32.2551647373695  C 123.094383799612 32.2551647373695  128.902143751239 32.3113155169866  128.902143751239 32.3113155169866  C 128.902143751239 32.3113155169866  126.987167398421 37.2374666057052  126.987167398421 37.2374666057052  C 126.987167398421 37.2374666057052  126.082948892312 42.900056765556  126.082948892312 42.900056765556  C 126.082948892312 42.900056765556  124.099678090392 47.5637940978497  124.099678090392 47.5637940978497  Z M 102.070620588075 49.4804962076101  C 102.070620588075 49.4804962076101  99.412600629028 47.3985980710363  99.412600629028 47.3985980710363  C 99.412600629028 47.3985980710363  96.0689044009978 45.2821456085443  96.0689044009978 45.2821456085443  C 96.0689044009978 45.2821456085443  90.5029281054772 46.6837554536029  90.5029281054772 46.6837554536029  C 90.5029281054772 46.6837554536029  86.3533573780441 49.3789928752252  86.3533573780441 49.3789928752252  C 86.3533573780441 49.3789928752252  82.2693493217491 55.334198138713  82.2693493217491 55.334198138713  C 82.2693493217491 55.334198138713  88.0142783802028 60.6987572375191  88.0142783802028 60.6987572375191  C 88.0142783802028 60.6987572375191  90.7542516781721 60.0033514284148  90.7542516781721 60.0033514284148  C 90.7542516781721 60.0033514284148  94.1484644922514 57.7724377613184  94.1484644922514 57.7724377613184  C 94.1484644922514 57.7724377613184  98.4182334501036 56.6839764948941  98.4182334501036 56.6839764948941  C 98.4182334501036 56.6839764948941  99.7212915389683 54.4163488565098  99.7212915389683 54.4163488565098  C 99.7212915389683 54.4163488565098  102.070620588075 49.4804962076101  102.070620588075 49.4804962076101  Z " fill-rule="nonzero" fill="#f2f2f2" stroke="none" transform="matrix(1 0 0 1 1919 2167 )" />
    <path d="M 124.099678090392 47.5637940978497  C 124.099678090392 47.5637940978497  118.887445734933 51.0473020794817  118.887445734933 51.0473020794817  C 118.887445734933 51.0473020794817  117.390431410619 52.0450582403707  117.390431410619 52.0450582403707  C 117.390431410619 52.0450582403707  114.145079189295 55.5674398386609  114.145079189295 55.5674398386609  C 114.145079189295 55.5674398386609  112.008828821387 59.1481318619383  112.008828821387 59.1481318619383  C 112.008828821387 59.1481318619383  107.665301858504 64.1736266376716  107.665301858504 64.1736266376716  C 107.665301858504 64.1736266376716  99.0082974903447 71.4775472786386  99.0082974903447 71.4775472786386  C 99.0082974903447 71.4775472786386  93.6021088994362 75.7622836925001  93.6021088994362 75.7622836925001  C 93.6021088994362 75.7622836925001  87.8189349494854 79.0319867825131  87.8189349494854 79.0319867825131  C 87.8189349494854 79.0319867825131  79.8120937367758 81.8330468272601  79.8120937367758 81.8330468272601  C 79.8120937367758 81.8330468272601  75.9083830261098 82.2088251216208  75.9083830261098 82.2088251216208  C 75.9083830261098 82.2088251216208  74.919479403114 84.2237742517283  74.919479403114 84.2237742517283  C 74.919479403114 84.2237742517283  70.264529752327 83.1504305028931  70.264529752327 83.1504305028931  C 70.264529752327 83.1504305028931  66.4728219381881 84.5326035396223  66.4728219381881 84.5326035396223  C 66.4728219381881 84.5326035396223  56.1863333207426 83.1331533399338  56.1863333207426 83.1331533399338  C 56.1863333207426 83.1331533399338  51.545042559776 84.0186079415886  51.545042559776 84.0186079415886  C 51.545042559776 84.0186079415886  48.3734483434828 83.638510356488  48.3734483434828 83.638510356488  C 48.3734483434828 83.638510356488  40.4731464713721 86.5108386984413  40.4731464713721 86.5108386984413  C 40.4731464713721 86.5108386984413  33.933270025372 87.6662489713324  33.933270025372 87.6662489713324  C 33.933270025372 87.6662489713324  29.2018305915907 90.434914335531  29.2018305915907 90.434914335531  C 29.2018305915907 90.434914335531  25.7188136873926 90.6120052558621  25.7188136873926 90.6120052558621  C 25.7188136873926 90.6120052558621  22.4761932440332 88.0009940036655  22.4761932440332 88.0009940036655  C 22.4761932440332 88.0009940036655  19.8891995120524 87.8670959907321  19.8891995120524 87.8670959907321  C 19.8891995120524 87.8670959907321  16.5892117314475 84.6125104183084  16.5892117314475 84.6125104183084  C 16.5892117314475 84.6125104183084  16.2258852622252 85.621064806047  16.2258852622252 85.621064806047  C 16.2258852622252 85.621064806047  15.2069320816243 83.6665857462969  15.2069320816243 83.6665857462969  C 15.2069320816243 83.6665857462969  15.2506405290495 79.4250422398331  15.2506405290495 79.4250422398331  C 15.2506405290495 79.4250422398331  12.7619908037755 74.6111927103487  12.7619908037755 74.6111927103487  C 12.7619908037755 74.6111927103487  15.234249861265 73.3089265523052  15.234249861265 73.3089265523052  C 15.234249861265 73.3089265523052  15.0348300698875 67.8515027025937  15.0348300698875 67.8515027025937  C 15.0348300698875 67.8515027025937  10.0192857278422 61.2581053883202  10.0192857278422 61.2581053883202  C 10.0192857278422 61.2581053883202  6.1702105764577 55.3471560109321  6.1702105764577 55.3471560109321  C 6.1702105764577 55.3471560109321  6.15928346460127 55.327719202603  6.15928346460127 55.327719202603  C 6.15928346460127 55.327719202603  0.660214422914274 44.7897464642092  0.660214422914274 44.7897464642092  C 0.660214422914274 44.7897464642092  4.32899222866954 41.4055821695919  4.32899222866954 41.4055821695919  C 4.32899222866954 41.4055821695919  7.35307043490273 43.2779947052865  7.35307043490273 43.2779947052865  C 7.35307043490273 43.2779947052865  8.64520141191107 47.7797586348382  8.64520141191107 47.7797586348382  C 8.64520141191107 47.7797586348382  12.08177809072 48.2807963606525  12.08177809072 48.2807963606525  C 12.08177809072 48.2807963606525  16.8979026413876 49.583062518696  16.8979026413876 49.583062518696  C 16.8979026413876 49.583062518696  21.0119602552875 49.0798651475119  21.0119602552875 49.0798651475119  C 21.0119602552875 49.0798651475119  27.846868721408 43.9993162588296  27.846868721408 43.9993162588296  C 27.846868721408 43.9993162588296  27.8550640553003 19.1115630162199  27.8550640553003 19.1115630162199  C 27.8550640553003 19.1115630162199  29.9230199741064 20.1071595317392  29.9230199741064 20.1071595317392  C 29.9230199741064 20.1071595317392  34.4632349504024 26.4413994016257  34.4632349504024 26.4413994016257  C 34.4632349504024 26.4413994016257  33.7584362356704 30.529608086827  33.7584362356704 30.529608086827  C 33.7584362356704 30.529608086827  35.4657974632184 32.8965794122262  35.4657974632184 32.8965794122262  C 35.4657974632184 32.8965794122262  40.9512076150851 32.2076525392316  40.9512076150851 32.2076525392316  C 40.9512076150851 32.2076525392316  44.7811603207211 29.203585829715  44.7811603207211 29.203585829715  C 44.7811603207211 29.203585829715  48.4089614570153 27.184317408868  48.4089614570153 27.184317408868  C 48.4089614570153 27.184317408868  50.2856929183362 23.9837229706916  50.2856929183362 23.9837229706916  C 50.2856929183362 23.9837229706916  54.0227651731935 22.4374168858507  54.0227651731935 22.4374168858507  C 54.0227651731935 22.4374168858507  57.2517267267325 23.2472838995593  57.2517267267325 23.2472838995593  C 57.2517267267325 23.2472838995593  60.9095774206318 25.1153771445139  60.9095774206318 25.1153771445139  C 60.9095774206318 25.1153771445139  69.1281101192712 25.4458028861072  69.1281101192712 25.4458028861072  C 69.1281101192712 25.4458028861072  74.0261880088613 23.8908582197864  74.0261880088613 23.8908582197864  C 74.0261880088613 23.8908582197864  74.8020129506591 21.8132793739522  74.8020129506591 21.8132793739522  C 74.8020129506591 21.8132793739522  76.1487794869491 18.6364410348444  76.1487794869491 18.6364410348444  C 76.1487794869491 18.6364410348444  80.3174726601304 18.1051682738518  80.3174726601304 18.1051682738518  C 80.3174726601304 18.1051682738518  82.6203614838472 15.6215760984786  82.6203614838472 15.6215760984786  C 82.6203614838472 15.6215760984786  85.1718421022951 11.2331767068623  85.1718421022951 11.2331767068623  C 85.1718421022951 11.2331767068623  92.0477272378767 6.341579944062  92.0477272378767 6.341579944062  C 92.0477272378767 6.341579944062  102.88469042137 1.54284793216714  102.88469042137 1.54284793216714  C 102.88469042137 1.54284793216714  106.001649078382 1.61411622937339  106.001649078382 1.61411622937339  C 106.001649078382 1.61411622937339  109.708671775634 2.71553536801746  109.708671775634 2.71553536801746  C 109.708671775634 2.71553536801746  112.290201951687 1.93590338948714  112.290201951687 1.93590338948714  C 112.290201951687 1.93590338948714  116.360551118162 2.58595664582398  116.360551118162 2.58595664582398  C 116.360551118162 2.58595664582398  120.029328923917 11.7882055669243  120.029328923917 11.7882055669243  C 120.029328923917 11.7882055669243  122.020795059729 16.4703167288454  122.020795059729 16.4703167288454  C 122.020795059729 16.4703167288454  120.654906077691 23.8735810568275  120.654906077691 23.8735810568275  C 120.654906077691 23.8735810568275  121.307801011105 26.2729470627748  121.307801011105 26.2729470627748  C 121.307801011105 26.2729470627748  117.442335191936 25.0484281380473  117.442335191936 25.0484281380473  C 117.442335191936 25.0484281380473  115.22686326307 25.5257097647929  115.22686326307 25.5257097647929  C 115.22686326307 25.5257097647929  114.502942102589 27.4737098884336  114.502942102589 27.4737098884336  C 114.502942102589 27.4737098884336  112.410400182107 29.9940160350949  112.410400182107 29.9940160350949  C 112.410400182107 29.9940160350949  112.481426409172 32.3221137438362  112.481426409172 32.3221137438362  C 112.481426409172 32.3221137438362  117.051690943073 35.9870319365389  117.051690943073 35.9870319365389  C 117.051690943073 35.9870319365389  121.534538582123 35.2570718015164  121.534538582123 35.2570718015164  C 121.534538582123 35.2570718015164  123.094383799612 32.2551647373695  123.094383799612 32.2551647373695  C 123.094383799612 32.2551647373695  128.902143751239 32.3113155169866  128.902143751239 32.3113155169866  C 128.902143751239 32.3113155169866  126.987167398421 37.2374666057052  126.987167398421 37.2374666057052  C 126.987167398421 37.2374666057052  126.082948892312 42.900056765556  126.082948892312 42.900056765556  C 126.082948892312 42.900056765556  124.099678090392 47.5637940978497  124.099678090392 47.5637940978497  Z " stroke-width="2" stroke="#505050" fill="none" stroke-opacity="0.211764705882353" transform="matrix(1 0 0 1 1919 2167 )" mask="url(#clip774)" />
    <path d="M 102.070620588075 49.4804962076101  C 102.070620588075 49.4804962076101  99.412600629028 47.3985980710363  99.412600629028 47.3985980710363  C 99.412600629028 47.3985980710363  96.0689044009978 45.2821456085443  96.0689044009978 45.2821456085443  C 96.0689044009978 45.2821456085443  90.5029281054772 46.6837554536029  90.5029281054772 46.6837554536029  C 90.5029281054772 46.6837554536029  86.3533573780441 49.3789928752252  86.3533573780441 49.3789928752252  C 86.3533573780441 49.3789928752252  82.2693493217491 55.334198138713  82.2693493217491 55.334198138713  C 82.2693493217491 55.334198138713  88.0142783802028 60.6987572375191  88.0142783802028 60.6987572375191  C 88.0142783802028 60.6987572375191  90.7542516781721 60.0033514284148  90.7542516781721 60.0033514284148  C 90.7542516781721 60.0033514284148  94.1484644922514 57.7724377613184  94.1484644922514 57.7724377613184  C 94.1484644922514 57.7724377613184  98.4182334501036 56.6839764948941  98.4182334501036 56.6839764948941  C 98.4182334501036 56.6839764948941  99.7212915389683 54.4163488565098  99.7212915389683 54.4163488565098  C 99.7212915389683 54.4163488565098  102.070620588075 49.4804962076101  102.070620588075 49.4804962076101  Z " stroke-width="2" stroke="#505050" fill="none" stroke-opacity="0.211764705882353" transform="matrix(1 0 0 1 1919 2167 )" mask="url(#clip774)" />
  </g>
</svg>