<?xml version="1.0" encoding="utf-8"?>
<svg version="1.1" xmlns:xlink="http://www.w3.org/1999/xlink" width="94px" height="65px" xmlns="http://www.w3.org/2000/svg">
  <defs>
    <mask fill="white" id="clip775">
      <path d="M 82.9873613263335 5.49367303806271  C 82.9873613263335 5.49367303806271  87.3673119954033 7.34419564908474  87.3673119954033 7.34419564908474  C 87.3673119954033 7.34419564908474  91.0122238029762 10.0916107048355  91.0122238029762 10.0916107048355  C 91.0122238029762 10.0916107048355  92.9750803881725 15.3333032893575  92.9750803881725 15.3333032893575  C 92.9750803881725 15.3333032893575  91.6591681192754 17.0092482955662  91.6591681192754 17.0092482955662  C 91.6591681192754 17.0092482955662  90.1092547146955 22.0327188740712  90.1092547146955 22.0327188740712  C 90.1092547146955 22.0327188740712  91.5903442558392 27.1849404361264  91.5903442558392 27.1849404361264  C 91.5903442558392 27.1849404361264  89.1622383538152 29.3518849558726  89.1622383538152 29.3518849558726  C 89.1622383538152 29.3518849558726  86.8194740424524 36.7397739495161  86.8194740424524 36.7397739495161  C 86.8194740424524 36.7397739495161  90.8773290306417 38.3633456742806  90.8773290306417 38.3633456742806  C 90.8773290306417 38.3633456742806  67.4551918260859 43.5352072168773  67.4551918260859 43.5352072168773  C 67.4551918260859 43.5352072168773  68.1874777330456 48.0196694405211  68.1874777330456 48.0196694405211  C 68.1874777330456 48.0196694405211  62.340202295519 48.8838285843475  62.340202295519 48.8838285843475  C 62.340202295519 48.8838285843475  57.9437338992243 51.4021105337806  57.9437338992243 51.4021105337806  C 57.9437338992243 51.4021105337806  57.0049764019566 53.5974239143089  57.0049764019566 53.5974239143089  C 57.0049764019566 53.5974239143089  54.2437630009024 54.094970088027  54.2437630009024 54.094970088027  C 54.2437630009024 54.094970088027  45.5293068840813 59.321387132128  45.5293068840813 59.321387132128  C 45.5293068840813 59.321387132128  41.2567214419714 63.4523297060248  41.2567214419714 63.4523297060248  C 41.2567214419714 63.4523297060248  38.649673495014 63.6007206701162  38.649673495014 63.6007206701162  C 38.649673495014 63.6007206701162  36.1417319114046 62.8631302897798  36.1417319114046 62.8631302897798  C 36.1417319114046 62.8631302897798  27.5139723910615 62.1648198705258  27.5139723910615 62.1648198705258  C 27.5139723910615 62.1648198705258  26.126483304191 61.6869136773493  26.126483304191 61.6869136773493  C 26.126483304191 61.6869136773493  26.0686712589047 61.1588164227886  26.0686712589047 61.1588164227886  C 26.0686712589047 61.1588164227886  23.0211505859563 59.7207334031386  23.0211505859563 59.7207334031386  C 23.0211505859563 59.7207334031386  18.0190321914245 59.3541204330303  18.0190321914245 59.3541204330303  C 18.0190321914245 59.3541204330303  11.6982485734579 60.8031145529817  11.6982485734579 60.8031145529817  C 11.6982485734579 60.8031145529817  6.66034176993912 56.8249273832962  6.66034176993912 56.8249273832962  C 6.66034176993912 56.8249273832962  1.4517517850993 51.6377903002787  1.4517517850993 51.6377903002787  C 1.4517517850993 51.6377903002787  1.80688292042896 30.0676531356074  1.80688292042896 30.0676531356074  C 1.80688292042896 30.0676531356074  17.8813844645524 30.1462130577733  17.8813844645524 30.1462130577733  C 17.8813844645524 30.1462130577733  17.2234283301036 27.9945440784486  17.2234283301036 27.9945440784486  C 17.2234283301036 27.9945440784486  18.3741633267543 25.6639330541896  18.3741633267543 25.6639330541896  C 18.3741633267543 25.6639330541896  17.0169567397957 22.748487053806  17.0169567397957 22.748487053806  C 17.0169567397957 22.748487053806  17.8951492372396 19.7392055908354  17.8951492372396 19.7392055908354  C 17.8951492372396 19.7392055908354  17.0775217396192 17.8166697178279  17.0775217396192 17.8166697178279  C 17.0775217396192 17.8166697178279  19.7423817318631 17.9716073420997  19.7423817318631 17.9716073420997  C 19.7423817318631 17.9716073420997  20.1828544578539 19.8985076552277  20.1828544578539 19.8985076552277  C 20.1828544578539 19.8985076552277  23.8002367200525 19.7479344710759  23.8002367200525 19.7479344710759  C 23.8002367200525 19.7479344710759  28.700495796699 20.3196761268399  28.700495796699 20.3196761268399  C 28.700495796699 20.3196761268399  31.2800141982821 23.1369222245159  31.2800141982821 23.1369222245159  C 31.2800141982821 23.1369222245159  37.4631500893763 24.0032635884024  37.4631500893763 24.0032635884024  C 37.4631500893763 24.0032635884024  42.181714166552 22.0436299743719  42.181714166552 22.0436299743719  C 42.181714166552 22.0436299743719  43.913322570603 25.2995023041417  43.913322570603 25.2995023041417  C 43.913322570603 25.2995023041417  51.829421871566 26.1680258880886  51.829421871566 26.1680258880886  C 51.829421871566 26.1680258880886  54.6732239087435 28.8216054812519  54.6732239087435 28.8216054812519  C 54.6732239087435 28.8216054812519  57.841874581339 33.8396034895537  57.841874581339 33.8396034895537  C 57.841874581339 33.8396034895537  63.7497150186891 33.8919767709975  63.7497150186891 33.8919767709975  C 63.7497150186891 33.8919767709975  63.105523656928 25.5853731320236  63.105523656928 25.5853731320236  C 63.105523656928 25.5853731320236  60.9857486630976 26.7157631231904  60.9857486630976 26.7157631231904  C 60.9857486630976 26.7157631231904  55.5899577697114 24.297863296525  55.5899577697114 24.297863296525  C 55.5899577697114 24.297863296525  53.5059711848678 23.1914777260202  53.5059711848678 23.1914777260202  C 53.5059711848678 23.1914777260202  54.4612464093605 16.969968334483  54.4612464093605 16.969968334483  C 54.4612464093605 16.969968334483  55.8322177690063 9.65734891286219  55.8322177690063 9.65734891286219  C 55.8322177690063 9.65734891286219  54.103362319493 6.93830271789363  54.103362319493 6.93830271789363  C 54.103362319493 6.93830271789363  56.3029729949089 3.01248882965238  56.3029729949089 3.01248882965238  C 56.3029729949089 3.01248882965238  58.3731948070651 2.27708066937605  58.3731948070651 2.27708066937605  C 58.3731948070651 2.27708066937605  68.7408215950716 1.24052614079665  68.7408215950716 1.24052614079665  C 68.7408215950716 1.24052614079665  71.7800834044072 1.86464107800442  71.7800834044072 1.86464107800442  C 71.7800834044072 1.86464107800442  75.0065461222891 3.42929286114449  75.0065461222891 3.42929286114449  C 75.0065461222891 3.42929286114449  78.0815963406117 4.45930072954336  78.0815963406117 4.45930072954336  C 78.0815963406117 4.45930072954336  82.9873613263335 5.49367303806271  82.9873613263335 5.49367303806271  Z " fill-rule="evenodd" />
    </mask>
  </defs>
  <g transform="matrix(1 0 0 1 -1960 -2081 )">
    <path d="M 82.9873613263335 5.49367303806271  C 82.9873613263335 5.49367303806271  87.3673119954033 7.34419564908474  87.3673119954033 7.34419564908474  C 87.3673119954033 7.34419564908474  91.0122238029762 10.0916107048355  91.0122238029762 10.0916107048355  C 91.0122238029762 10.0916107048355  92.9750803881725 15.3333032893575  92.9750803881725 15.3333032893575  C 92.9750803881725 15.3333032893575  91.6591681192754 17.0092482955662  91.6591681192754 17.0092482955662  C 91.6591681192754 17.0092482955662  90.1092547146955 22.0327188740712  90.1092547146955 22.0327188740712  C 90.1092547146955 22.0327188740712  91.5903442558392 27.1849404361264  91.5903442558392 27.1849404361264  C 91.5903442558392 27.1849404361264  89.1622383538152 29.3518849558726  89.1622383538152 29.3518849558726  C 89.1622383538152 29.3518849558726  86.8194740424524 36.7397739495161  86.8194740424524 36.7397739495161  C 86.8194740424524 36.7397739495161  90.8773290306417 38.3633456742806  90.8773290306417 38.3633456742806  C 90.8773290306417 38.3633456742806  67.4551918260859 43.5352072168773  67.4551918260859 43.5352072168773  C 67.4551918260859 43.5352072168773  68.1874777330456 48.0196694405211  68.1874777330456 48.0196694405211  C 68.1874777330456 48.0196694405211  62.340202295519 48.8838285843475  62.340202295519 48.8838285843475  C 62.340202295519 48.8838285843475  57.9437338992243 51.4021105337806  57.9437338992243 51.4021105337806  C 57.9437338992243 51.4021105337806  57.0049764019566 53.5974239143089  57.0049764019566 53.5974239143089  C 57.0049764019566 53.5974239143089  54.2437630009024 54.094970088027  54.2437630009024 54.094970088027  C 54.2437630009024 54.094970088027  45.5293068840813 59.321387132128  45.5293068840813 59.321387132128  C 45.5293068840813 59.321387132128  41.2567214419714 63.4523297060248  41.2567214419714 63.4523297060248  C 41.2567214419714 63.4523297060248  38.649673495014 63.6007206701162  38.649673495014 63.6007206701162  C 38.649673495014 63.6007206701162  36.1417319114046 62.8631302897798  36.1417319114046 62.8631302897798  C 36.1417319114046 62.8631302897798  27.5139723910615 62.1648198705258  27.5139723910615 62.1648198705258  C 27.5139723910615 62.1648198705258  26.126483304191 61.6869136773493  26.126483304191 61.6869136773493  C 26.126483304191 61.6869136773493  26.0686712589047 61.1588164227886  26.0686712589047 61.1588164227886  C 26.0686712589047 61.1588164227886  23.0211505859563 59.7207334031386  23.0211505859563 59.7207334031386  C 23.0211505859563 59.7207334031386  18.0190321914245 59.3541204330303  18.0190321914245 59.3541204330303  C 18.0190321914245 59.3541204330303  11.6982485734579 60.8031145529817  11.6982485734579 60.8031145529817  C 11.6982485734579 60.8031145529817  6.66034176993912 56.8249273832962  6.66034176993912 56.8249273832962  C 6.66034176993912 56.8249273832962  1.4517517850993 51.6377903002787  1.4517517850993 51.6377903002787  C 1.4517517850993 51.6377903002787  1.80688292042896 30.0676531356074  1.80688292042896 30.0676531356074  C 1.80688292042896 30.0676531356074  17.8813844645524 30.1462130577733  17.8813844645524 30.1462130577733  C 17.8813844645524 30.1462130577733  17.2234283301036 27.9945440784486  17.2234283301036 27.9945440784486  C 17.2234283301036 27.9945440784486  18.3741633267543 25.6639330541896  18.3741633267543 25.6639330541896  C 18.3741633267543 25.6639330541896  17.0169567397957 22.748487053806  17.0169567397957 22.748487053806  C 17.0169567397957 22.748487053806  17.8951492372396 19.7392055908354  17.8951492372396 19.7392055908354  C 17.8951492372396 19.7392055908354  17.0775217396192 17.8166697178279  17.0775217396192 17.8166697178279  C 17.0775217396192 17.8166697178279  19.7423817318631 17.9716073420997  19.7423817318631 17.9716073420997  C 19.7423817318631 17.9716073420997  20.1828544578539 19.8985076552277  20.1828544578539 19.8985076552277  C 20.1828544578539 19.8985076552277  23.8002367200525 19.7479344710759  23.8002367200525 19.7479344710759  C 23.8002367200525 19.7479344710759  28.700495796699 20.3196761268399  28.700495796699 20.3196761268399  C 28.700495796699 20.3196761268399  31.2800141982821 23.1369222245159  31.2800141982821 23.1369222245159  C 31.2800141982821 23.1369222245159  37.4631500893763 24.0032635884024  37.4631500893763 24.0032635884024  C 37.4631500893763 24.0032635884024  42.181714166552 22.0436299743719  42.181714166552 22.0436299743719  C 42.181714166552 22.0436299743719  43.913322570603 25.2995023041417  43.913322570603 25.2995023041417  C 43.913322570603 25.2995023041417  51.829421871566 26.1680258880886  51.829421871566 26.1680258880886  C 51.829421871566 26.1680258880886  54.6732239087435 28.8216054812519  54.6732239087435 28.8216054812519  C 54.6732239087435 28.8216054812519  57.841874581339 33.8396034895537  57.841874581339 33.8396034895537  C 57.841874581339 33.8396034895537  63.7497150186891 33.8919767709975  63.7497150186891 33.8919767709975  C 63.7497150186891 33.8919767709975  63.105523656928 25.5853731320236  63.105523656928 25.5853731320236  C 63.105523656928 25.5853731320236  60.9857486630976 26.7157631231904  60.9857486630976 26.7157631231904  C 60.9857486630976 26.7157631231904  55.5899577697114 24.297863296525  55.5899577697114 24.297863296525  C 55.5899577697114 24.297863296525  53.5059711848678 23.1914777260202  53.5059711848678 23.1914777260202  C 53.5059711848678 23.1914777260202  54.4612464093605 16.969968334483  54.4612464093605 16.969968334483  C 54.4612464093605 16.969968334483  55.8322177690063 9.65734891286219  55.8322177690063 9.65734891286219  C 55.8322177690063 9.65734891286219  54.103362319493 6.93830271789363  54.103362319493 6.93830271789363  C 54.103362319493 6.93830271789363  56.3029729949089 3.01248882965238  56.3029729949089 3.01248882965238  C 56.3029729949089 3.01248882965238  58.3731948070651 2.27708066937605  58.3731948070651 2.27708066937605  C 58.3731948070651 2.27708066937605  68.7408215950716 1.24052614079665  68.7408215950716 1.24052614079665  C 68.7408215950716 1.24052614079665  71.7800834044072 1.86464107800442  71.7800834044072 1.86464107800442  C 71.7800834044072 1.86464107800442  75.0065461222891 3.42929286114449  75.0065461222891 3.42929286114449  C 75.0065461222891 3.42929286114449  78.0815963406117 4.45930072954336  78.0815963406117 4.45930072954336  C 78.0815963406117 4.45930072954336  82.9873613263335 5.49367303806271  82.9873613263335 5.49367303806271  Z " fill-rule="nonzero" fill="#f2f2f2" stroke="none" transform="matrix(1 0 0 1 1960 2081 )" />
    <path d="M 82.9873613263335 5.49367303806271  C 82.9873613263335 5.49367303806271  87.3673119954033 7.34419564908474  87.3673119954033 7.34419564908474  C 87.3673119954033 7.34419564908474  91.0122238029762 10.0916107048355  91.0122238029762 10.0916107048355  C 91.0122238029762 10.0916107048355  92.9750803881725 15.3333032893575  92.9750803881725 15.3333032893575  C 92.9750803881725 15.3333032893575  91.6591681192754 17.0092482955662  91.6591681192754 17.0092482955662  C 91.6591681192754 17.0092482955662  90.1092547146955 22.0327188740712  90.1092547146955 22.0327188740712  C 90.1092547146955 22.0327188740712  91.5903442558392 27.1849404361264  91.5903442558392 27.1849404361264  C 91.5903442558392 27.1849404361264  89.1622383538152 29.3518849558726  89.1622383538152 29.3518849558726  C 89.1622383538152 29.3518849558726  86.8194740424524 36.7397739495161  86.8194740424524 36.7397739495161  C 86.8194740424524 36.7397739495161  90.8773290306417 38.3633456742806  90.8773290306417 38.3633456742806  C 90.8773290306417 38.3633456742806  67.4551918260859 43.5352072168773  67.4551918260859 43.5352072168773  C 67.4551918260859 43.5352072168773  68.1874777330456 48.0196694405211  68.1874777330456 48.0196694405211  C 68.1874777330456 48.0196694405211  62.340202295519 48.8838285843475  62.340202295519 48.8838285843475  C 62.340202295519 48.8838285843475  57.9437338992243 51.4021105337806  57.9437338992243 51.4021105337806  C 57.9437338992243 51.4021105337806  57.0049764019566 53.5974239143089  57.0049764019566 53.5974239143089  C 57.0049764019566 53.5974239143089  54.2437630009024 54.094970088027  54.2437630009024 54.094970088027  C 54.2437630009024 54.094970088027  45.5293068840813 59.321387132128  45.5293068840813 59.321387132128  C 45.5293068840813 59.321387132128  41.2567214419714 63.4523297060248  41.2567214419714 63.4523297060248  C 41.2567214419714 63.4523297060248  38.649673495014 63.6007206701162  38.649673495014 63.6007206701162  C 38.649673495014 63.6007206701162  36.1417319114046 62.8631302897798  36.1417319114046 62.8631302897798  C 36.1417319114046 62.8631302897798  27.5139723910615 62.1648198705258  27.5139723910615 62.1648198705258  C 27.5139723910615 62.1648198705258  26.126483304191 61.6869136773493  26.126483304191 61.6869136773493  C 26.126483304191 61.6869136773493  26.0686712589047 61.1588164227886  26.0686712589047 61.1588164227886  C 26.0686712589047 61.1588164227886  23.0211505859563 59.7207334031386  23.0211505859563 59.7207334031386  C 23.0211505859563 59.7207334031386  18.0190321914245 59.3541204330303  18.0190321914245 59.3541204330303  C 18.0190321914245 59.3541204330303  11.6982485734579 60.8031145529817  11.6982485734579 60.8031145529817  C 11.6982485734579 60.8031145529817  6.66034176993912 56.8249273832962  6.66034176993912 56.8249273832962  C 6.66034176993912 56.8249273832962  1.4517517850993 51.6377903002787  1.4517517850993 51.6377903002787  C 1.4517517850993 51.6377903002787  1.80688292042896 30.0676531356074  1.80688292042896 30.0676531356074  C 1.80688292042896 30.0676531356074  17.8813844645524 30.1462130577733  17.8813844645524 30.1462130577733  C 17.8813844645524 30.1462130577733  17.2234283301036 27.9945440784486  17.2234283301036 27.9945440784486  C 17.2234283301036 27.9945440784486  18.3741633267543 25.6639330541896  18.3741633267543 25.6639330541896  C 18.3741633267543 25.6639330541896  17.0169567397957 22.748487053806  17.0169567397957 22.748487053806  C 17.0169567397957 22.748487053806  17.8951492372396 19.7392055908354  17.8951492372396 19.7392055908354  C 17.8951492372396 19.7392055908354  17.0775217396192 17.8166697178279  17.0775217396192 17.8166697178279  C 17.0775217396192 17.8166697178279  19.7423817318631 17.9716073420997  19.7423817318631 17.9716073420997  C 19.7423817318631 17.9716073420997  20.1828544578539 19.8985076552277  20.1828544578539 19.8985076552277  C 20.1828544578539 19.8985076552277  23.8002367200525 19.7479344710759  23.8002367200525 19.7479344710759  C 23.8002367200525 19.7479344710759  28.700495796699 20.3196761268399  28.700495796699 20.3196761268399  C 28.700495796699 20.3196761268399  31.2800141982821 23.1369222245159  31.2800141982821 23.1369222245159  C 31.2800141982821 23.1369222245159  37.4631500893763 24.0032635884024  37.4631500893763 24.0032635884024  C 37.4631500893763 24.0032635884024  42.181714166552 22.0436299743719  42.181714166552 22.0436299743719  C 42.181714166552 22.0436299743719  43.913322570603 25.2995023041417  43.913322570603 25.2995023041417  C 43.913322570603 25.2995023041417  51.829421871566 26.1680258880886  51.829421871566 26.1680258880886  C 51.829421871566 26.1680258880886  54.6732239087435 28.8216054812519  54.6732239087435 28.8216054812519  C 54.6732239087435 28.8216054812519  57.841874581339 33.8396034895537  57.841874581339 33.8396034895537  C 57.841874581339 33.8396034895537  63.7497150186891 33.8919767709975  63.7497150186891 33.8919767709975  C 63.7497150186891 33.8919767709975  63.105523656928 25.5853731320236  63.105523656928 25.5853731320236  C 63.105523656928 25.5853731320236  60.9857486630976 26.7157631231904  60.9857486630976 26.7157631231904  C 60.9857486630976 26.7157631231904  55.5899577697114 24.297863296525  55.5899577697114 24.297863296525  C 55.5899577697114 24.297863296525  53.5059711848678 23.1914777260202  53.5059711848678 23.1914777260202  C 53.5059711848678 23.1914777260202  54.4612464093605 16.969968334483  54.4612464093605 16.969968334483  C 54.4612464093605 16.969968334483  55.8322177690063 9.65734891286219  55.8322177690063 9.65734891286219  C 55.8322177690063 9.65734891286219  54.103362319493 6.93830271789363  54.103362319493 6.93830271789363  C 54.103362319493 6.93830271789363  56.3029729949089 3.01248882965238  56.3029729949089 3.01248882965238  C 56.3029729949089 3.01248882965238  58.3731948070651 2.27708066937605  58.3731948070651 2.27708066937605  C 58.3731948070651 2.27708066937605  68.7408215950716 1.24052614079665  68.7408215950716 1.24052614079665  C 68.7408215950716 1.24052614079665  71.7800834044072 1.86464107800442  71.7800834044072 1.86464107800442  C 71.7800834044072 1.86464107800442  75.0065461222891 3.42929286114449  75.0065461222891 3.42929286114449  C 75.0065461222891 3.42929286114449  78.0815963406117 4.45930072954336  78.0815963406117 4.45930072954336  C 78.0815963406117 4.45930072954336  82.9873613263335 5.49367303806271  82.9873613263335 5.49367303806271  Z " stroke-width="2" stroke="#505050" fill="none" stroke-opacity="0.211764705882353" transform="matrix(1 0 0 1 1960 2081 )" mask="url(#clip775)" />
  </g>
</svg>