<?xml version="1.0" encoding="utf-8"?>
<svg version="1.1" xmlns:xlink="http://www.w3.org/1999/xlink" width="64px" height="46px" xmlns="http://www.w3.org/2000/svg">
  <defs>
    <mask fill="white" id="clip776">
      <path d="M 57.3975515524121 38.0119255210966  C 57.3975515524121 38.0119255210966  49.2653238488085 45.4463267141919  49.2653238488085 45.4463267141919  C 49.2653238488085 45.4463267141919  45.1634215880204 44.7891300154778  45.1634215880204 44.7891300154778  C 45.1634215880204 44.7891300154778  42.5618795501377 45.579512756124  42.5618795501377 45.579512756124  C 42.5618795501377 45.579512756124  38.8261202428291 44.4638067327254  38.8261202428291 44.4638067327254  C 38.8261202428291 44.4638067327254  35.6849991156078 44.3939386451544  35.6849991156078 44.3939386451544  C 35.6849991156078 44.3939386451544  28.765469357199 41.428911678863  28.765469357199 41.428911678863  C 28.765469357199 41.428911678863  22.7970639200248 40.4245579200306  22.7970639200248 40.4245579200306  C 22.7970639200248 40.4245579200306  20.5258764266353 36.2870571091889  20.5258764266353 36.2870571091889  C 20.5258764266353 36.2870571091889  20.5066057448732 33.9923271080309  20.5066057448732 33.9923271080309  C 20.5066057448732 33.9923271080309  17.2003073454055 33.2936462323218  17.2003073454055 33.2936462323218  C 17.2003073454055 33.2936462323218  8.46518259810227 26.1867516997153  8.46518259810227 26.1867516997153  C 8.46518259810227 26.1867516997153  6.03707669607843 20.8757023845374  6.03707669607843 20.8757023845374  C 6.03707669607843 20.8757023845374  4.48441033696122 19.729429072827  4.48441033696122 19.729429072827  C 4.48441033696122 19.729429072827  1.51397239106154 14.6115916582555  1.51397239106154 14.6115916582555  C 1.51397239106154 14.6115916582555  10.1417319114046 15.310272533965  10.1417319114046 15.310272533965  C 10.1417319114046 15.310272533965  12.649673495014 16.0482542089328  12.649673495014 16.0482542089328  C 12.649673495014 16.0482542089328  15.2567214419714 15.8997845228447  15.2567214419714 15.8997845228447  C 15.2567214419714 15.8997845228447  19.5293068840813 11.7666504674762  19.5293068840813 11.7666504674762  C 19.5293068840813 11.7666504674762  26.2437630009019 6.53746078833896  26.2437630009019 6.53746078833896  C 26.2437630009019 6.53746078833896  29.0049764019564 6.03965066439608  29.0049764019564 6.03965066439608  C 29.0049764019564 6.03965066439608  29.9437338992241 3.84317266138468  29.9437338992241 3.84317266138468  C 29.9437338992241 3.84317266138468  36.340202295519 1.32355475335776  36.340202295519 1.32355475335776  C 36.340202295519 1.32355475335776  42.1874777330456 0.458937169667244  42.1874777330456 0.458937169667244  C 42.1874777330456 0.458937169667244  42.6857625043224 2.8169851251864  42.6857625043224 2.8169851251864  C 42.6857625043224 2.8169851251864  49.1249231673992 2.69034921646411  49.1249231673992 2.69034921646411  C 49.1249231673992 2.69034921646411  52.7010111115362 4.02657639125832  52.7010111115362 4.02657639125832  C 52.7010111115362 4.02657639125832  54.3665486066884 5.59424160613123  54.3665486066884 5.59424160613123  C 54.3665486066884 5.59424160613123  58.0389899596362 6.05493430855216  58.0389899596362 6.05493430855216  C 58.0389899596362 6.05493430855216  62.0500447206887 8.09420911452911  62.0500447206887 8.09420911452911  C 62.0500447206887 8.09420911452911  62.0665624479138 16.1617898512359  62.0665624479138 16.1617898512359  C 62.0665624479138 16.1617898512359  60.5634492704703 20.6049635452002  60.5634492704703 20.6049635452002  C 60.5634492704703 20.6049635452002  60.2303417714397 27.0011515954639  60.2303417714397 27.0011515954639  C 60.2303417714397 27.0011515954639  61.4719242678261 28.9137904927186  61.4719242678261 28.9137904927186  C 61.4719242678261 28.9137904927186  60.599237679457 32.725968020808  60.599237679457 32.725968020808  C 60.599237679457 32.725968020808  59.4319849555818 33.3176633874242  59.4319849555818 33.3176633874242  C 59.4319849555818 33.3176633874242  57.3975515524121 38.0119255210966  57.3975515524121 38.0119255210966  Z " fill-rule="evenodd" />
    </mask>
  </defs>
  <g transform="matrix(1 0 0 1 -1985 -2126 )">
    <path d="M 57.3975515524121 38.0119255210966  C 57.3975515524121 38.0119255210966  49.2653238488085 45.4463267141919  49.2653238488085 45.4463267141919  C 49.2653238488085 45.4463267141919  45.1634215880204 44.7891300154778  45.1634215880204 44.7891300154778  C 45.1634215880204 44.7891300154778  42.5618795501377 45.579512756124  42.5618795501377 45.579512756124  C 42.5618795501377 45.579512756124  38.8261202428291 44.4638067327254  38.8261202428291 44.4638067327254  C 38.8261202428291 44.4638067327254  35.6849991156078 44.3939386451544  35.6849991156078 44.3939386451544  C 35.6849991156078 44.3939386451544  28.765469357199 41.428911678863  28.765469357199 41.428911678863  C 28.765469357199 41.428911678863  22.7970639200248 40.4245579200306  22.7970639200248 40.4245579200306  C 22.7970639200248 40.4245579200306  20.5258764266353 36.2870571091889  20.5258764266353 36.2870571091889  C 20.5258764266353 36.2870571091889  20.5066057448732 33.9923271080309  20.5066057448732 33.9923271080309  C 20.5066057448732 33.9923271080309  17.2003073454055 33.2936462323218  17.2003073454055 33.2936462323218  C 17.2003073454055 33.2936462323218  8.46518259810227 26.1867516997153  8.46518259810227 26.1867516997153  C 8.46518259810227 26.1867516997153  6.03707669607843 20.8757023845374  6.03707669607843 20.8757023845374  C 6.03707669607843 20.8757023845374  4.48441033696122 19.729429072827  4.48441033696122 19.729429072827  C 4.48441033696122 19.729429072827  1.51397239106154 14.6115916582555  1.51397239106154 14.6115916582555  C 1.51397239106154 14.6115916582555  10.1417319114046 15.310272533965  10.1417319114046 15.310272533965  C 10.1417319114046 15.310272533965  12.649673495014 16.0482542089328  12.649673495014 16.0482542089328  C 12.649673495014 16.0482542089328  15.2567214419714 15.8997845228447  15.2567214419714 15.8997845228447  C 15.2567214419714 15.8997845228447  19.5293068840813 11.7666504674762  19.5293068840813 11.7666504674762  C 19.5293068840813 11.7666504674762  26.2437630009019 6.53746078833896  26.2437630009019 6.53746078833896  C 26.2437630009019 6.53746078833896  29.0049764019564 6.03965066439608  29.0049764019564 6.03965066439608  C 29.0049764019564 6.03965066439608  29.9437338992241 3.84317266138468  29.9437338992241 3.84317266138468  C 29.9437338992241 3.84317266138468  36.340202295519 1.32355475335776  36.340202295519 1.32355475335776  C 36.340202295519 1.32355475335776  42.1874777330456 0.458937169667244  42.1874777330456 0.458937169667244  C 42.1874777330456 0.458937169667244  42.6857625043224 2.8169851251864  42.6857625043224 2.8169851251864  C 42.6857625043224 2.8169851251864  49.1249231673992 2.69034921646411  49.1249231673992 2.69034921646411  C 49.1249231673992 2.69034921646411  52.7010111115362 4.02657639125832  52.7010111115362 4.02657639125832  C 52.7010111115362 4.02657639125832  54.3665486066884 5.59424160613123  54.3665486066884 5.59424160613123  C 54.3665486066884 5.59424160613123  58.0389899596362 6.05493430855216  58.0389899596362 6.05493430855216  C 58.0389899596362 6.05493430855216  62.0500447206887 8.09420911452911  62.0500447206887 8.09420911452911  C 62.0500447206887 8.09420911452911  62.0665624479138 16.1617898512359  62.0665624479138 16.1617898512359  C 62.0665624479138 16.1617898512359  60.5634492704703 20.6049635452002  60.5634492704703 20.6049635452002  C 60.5634492704703 20.6049635452002  60.2303417714397 27.0011515954639  60.2303417714397 27.0011515954639  C 60.2303417714397 27.0011515954639  61.4719242678261 28.9137904927186  61.4719242678261 28.9137904927186  C 61.4719242678261 28.9137904927186  60.599237679457 32.725968020808  60.599237679457 32.725968020808  C 60.599237679457 32.725968020808  59.4319849555818 33.3176633874242  59.4319849555818 33.3176633874242  C 59.4319849555818 33.3176633874242  57.3975515524121 38.0119255210966  57.3975515524121 38.0119255210966  Z " fill-rule="nonzero" fill="#f2f2f2" stroke="none" transform="matrix(1 0 0 1 1985 2126 )" />
    <path d="M 57.3975515524121 38.0119255210966  C 57.3975515524121 38.0119255210966  49.2653238488085 45.4463267141919  49.2653238488085 45.4463267141919  C 49.2653238488085 45.4463267141919  45.1634215880204 44.7891300154778  45.1634215880204 44.7891300154778  C 45.1634215880204 44.7891300154778  42.5618795501377 45.579512756124  42.5618795501377 45.579512756124  C 42.5618795501377 45.579512756124  38.8261202428291 44.4638067327254  38.8261202428291 44.4638067327254  C 38.8261202428291 44.4638067327254  35.6849991156078 44.3939386451544  35.6849991156078 44.3939386451544  C 35.6849991156078 44.3939386451544  28.765469357199 41.428911678863  28.765469357199 41.428911678863  C 28.765469357199 41.428911678863  22.7970639200248 40.4245579200306  22.7970639200248 40.4245579200306  C 22.7970639200248 40.4245579200306  20.5258764266353 36.2870571091889  20.5258764266353 36.2870571091889  C 20.5258764266353 36.2870571091889  20.5066057448732 33.9923271080309  20.5066057448732 33.9923271080309  C 20.5066057448732 33.9923271080309  17.2003073454055 33.2936462323218  17.2003073454055 33.2936462323218  C 17.2003073454055 33.2936462323218  8.46518259810227 26.1867516997153  8.46518259810227 26.1867516997153  C 8.46518259810227 26.1867516997153  6.03707669607843 20.8757023845374  6.03707669607843 20.8757023845374  C 6.03707669607843 20.8757023845374  4.48441033696122 19.729429072827  4.48441033696122 19.729429072827  C 4.48441033696122 19.729429072827  1.51397239106154 14.6115916582555  1.51397239106154 14.6115916582555  C 1.51397239106154 14.6115916582555  10.1417319114046 15.310272533965  10.1417319114046 15.310272533965  C 10.1417319114046 15.310272533965  12.649673495014 16.0482542089328  12.649673495014 16.0482542089328  C 12.649673495014 16.0482542089328  15.2567214419714 15.8997845228447  15.2567214419714 15.8997845228447  C 15.2567214419714 15.8997845228447  19.5293068840813 11.7666504674762  19.5293068840813 11.7666504674762  C 19.5293068840813 11.7666504674762  26.2437630009019 6.53746078833896  26.2437630009019 6.53746078833896  C 26.2437630009019 6.53746078833896  29.0049764019564 6.03965066439608  29.0049764019564 6.03965066439608  C 29.0049764019564 6.03965066439608  29.9437338992241 3.84317266138468  29.9437338992241 3.84317266138468  C 29.9437338992241 3.84317266138468  36.340202295519 1.32355475335776  36.340202295519 1.32355475335776  C 36.340202295519 1.32355475335776  42.1874777330456 0.458937169667244  42.1874777330456 0.458937169667244  C 42.1874777330456 0.458937169667244  42.6857625043224 2.8169851251864  42.6857625043224 2.8169851251864  C 42.6857625043224 2.8169851251864  49.1249231673992 2.69034921646411  49.1249231673992 2.69034921646411  C 49.1249231673992 2.69034921646411  52.7010111115362 4.02657639125832  52.7010111115362 4.02657639125832  C 52.7010111115362 4.02657639125832  54.3665486066884 5.59424160613123  54.3665486066884 5.59424160613123  C 54.3665486066884 5.59424160613123  58.0389899596362 6.05493430855216  58.0389899596362 6.05493430855216  C 58.0389899596362 6.05493430855216  62.0500447206887 8.09420911452911  62.0500447206887 8.09420911452911  C 62.0500447206887 8.09420911452911  62.0665624479138 16.1617898512359  62.0665624479138 16.1617898512359  C 62.0665624479138 16.1617898512359  60.5634492704703 20.6049635452002  60.5634492704703 20.6049635452002  C 60.5634492704703 20.6049635452002  60.2303417714397 27.0011515954639  60.2303417714397 27.0011515954639  C 60.2303417714397 27.0011515954639  61.4719242678261 28.9137904927186  61.4719242678261 28.9137904927186  C 61.4719242678261 28.9137904927186  60.599237679457 32.725968020808  60.599237679457 32.725968020808  C 60.599237679457 32.725968020808  59.4319849555818 33.3176633874242  59.4319849555818 33.3176633874242  C 59.4319849555818 33.3176633874242  57.3975515524121 38.0119255210966  57.3975515524121 38.0119255210966  Z " stroke-width="2" stroke="#505050" fill="none" stroke-opacity="0.211764705882353" transform="matrix(1 0 0 1 1985 2126 )" mask="url(#clip776)" />
  </g>
</svg>