<?xml version="1.0" encoding="utf-8"?>
<svg version="1.1" xmlns:xlink="http://www.w3.org/1999/xlink" width="18px" height="15px" xmlns="http://www.w3.org/2000/svg">
  <defs>
    <mask fill="white" id="clip777">
      <path d="M 6.69122547049415 2.70422537922968  C 6.69122547049415 2.70422537922968  13.3024243207096 0.731274627396488  13.3024243207096 0.731274627396488  C 13.3024243207096 0.731274627396488  16.3692156754198 4.33993920022658  16.3692156754198 4.33993920022658  C 16.3692156754198 4.33993920022658  15.9232370403543 9.76668293928242  15.9232370403543 9.76668293928242  C 15.9232370403543 9.76668293928242  13.6960968195638 10.5765103990465  13.6960968195638 10.5765103990465  C 13.6960968195638 10.5765103990465  9.59419455877537 10.1589789608681  9.59419455877537 10.1589789608681  C 9.59419455877537 10.1589789608681  5.22940661111238 13.7997613366349  5.22940661111238 13.7997613366349  C 5.22940661111238 13.7997613366349  0.543877988386384 13.2973471335515  0.543877988386384 13.2973471335515  C 0.543877988386384 13.2973471335515  1.25689321358368 9.79880074221948  1.25689321358368 9.79880074221948  C 1.25689321358368 9.79880074221948  2.31678071049896 9.3055630542608  2.31678071049896 9.3055630542608  C 2.31678071049896 9.3055630542608  2.60308798239294 3.83523086836211  2.60308798239294 3.83523086836211  C 2.60308798239294 3.83523086836211  4.82196933957084 2.0526928053683  4.82196933957084 2.0526928053683  C 4.82196933957084 2.0526928053683  6.69122547049415 2.70422537922968  6.69122547049415 2.70422537922968  Z " fill-rule="evenodd" />
    </mask>
  </defs>
  <g transform="matrix(1 0 0 1 -2016 -2040 )">
    <path d="M 6.69122547049415 2.70422537922968  C 6.69122547049415 2.70422537922968  13.3024243207096 0.731274627396488  13.3024243207096 0.731274627396488  C 13.3024243207096 0.731274627396488  16.3692156754198 4.33993920022658  16.3692156754198 4.33993920022658  C 16.3692156754198 4.33993920022658  15.9232370403543 9.76668293928242  15.9232370403543 9.76668293928242  C 15.9232370403543 9.76668293928242  13.6960968195638 10.5765103990465  13.6960968195638 10.5765103990465  C 13.6960968195638 10.5765103990465  9.59419455877537 10.1589789608681  9.59419455877537 10.1589789608681  C 9.59419455877537 10.1589789608681  5.22940661111238 13.7997613366349  5.22940661111238 13.7997613366349  C 5.22940661111238 13.7997613366349  0.543877988386384 13.2973471335515  0.543877988386384 13.2973471335515  C 0.543877988386384 13.2973471335515  1.25689321358368 9.79880074221948  1.25689321358368 9.79880074221948  C 1.25689321358368 9.79880074221948  2.31678071049896 9.3055630542608  2.31678071049896 9.3055630542608  C 2.31678071049896 9.3055630542608  2.60308798239294 3.83523086836211  2.60308798239294 3.83523086836211  C 2.60308798239294 3.83523086836211  4.82196933957084 2.0526928053683  4.82196933957084 2.0526928053683  C 4.82196933957084 2.0526928053683  6.69122547049415 2.70422537922968  6.69122547049415 2.70422537922968  Z " fill-rule="nonzero" fill="#f2f2f2" stroke="none" transform="matrix(1 0 0 1 2016 2040 )" />
    <path d="M 6.69122547049415 2.70422537922968  C 6.69122547049415 2.70422537922968  13.3024243207096 0.731274627396488  13.3024243207096 0.731274627396488  C 13.3024243207096 0.731274627396488  16.3692156754198 4.33993920022658  16.3692156754198 4.33993920022658  C 16.3692156754198 4.33993920022658  15.9232370403543 9.76668293928242  15.9232370403543 9.76668293928242  C 15.9232370403543 9.76668293928242  13.6960968195638 10.5765103990465  13.6960968195638 10.5765103990465  C 13.6960968195638 10.5765103990465  9.59419455877537 10.1589789608681  9.59419455877537 10.1589789608681  C 9.59419455877537 10.1589789608681  5.22940661111238 13.7997613366349  5.22940661111238 13.7997613366349  C 5.22940661111238 13.7997613366349  0.543877988386384 13.2973471335515  0.543877988386384 13.2973471335515  C 0.543877988386384 13.2973471335515  1.25689321358368 9.79880074221948  1.25689321358368 9.79880074221948  C 1.25689321358368 9.79880074221948  2.31678071049896 9.3055630542608  2.31678071049896 9.3055630542608  C 2.31678071049896 9.3055630542608  2.60308798239294 3.83523086836211  2.60308798239294 3.83523086836211  C 2.60308798239294 3.83523086836211  4.82196933957084 2.0526928053683  4.82196933957084 2.0526928053683  C 4.82196933957084 2.0526928053683  6.69122547049415 2.70422537922968  6.69122547049415 2.70422537922968  Z " stroke-width="2" stroke="#505050" fill="none" stroke-opacity="0.211764705882353" transform="matrix(1 0 0 1 2016 2040 )" mask="url(#clip777)" />
  </g>
</svg>