<?xml version="1.0" encoding="utf-8"?>
<svg version="1.1" xmlns:xlink="http://www.w3.org/1999/xlink" width="136px" height="71px" xmlns="http://www.w3.org/2000/svg">
  <defs>
    <mask fill="white" id="clip778">
      <path d="M 88.2510916789875 68.4113192212315  C 88.2510916789875 68.4113192212315  83.9537296460408 68.3613683905687  83.9537296460408 68.3613683905687  C 83.9537296460408 68.3613683905687  84.1657071454238 63.672505634014  84.1657071454238 63.672505634014  C 84.1657071454238 63.672505634014  73.8971867207656 60.3714072597837  73.8971867207656 60.3714072597837  C 73.8971867207656 60.3714072597837  63.8255240169856 56.5686288036801  63.8255240169856 56.5686288036801  C 63.8255240169856 56.5686288036801  58.7903701680043 52.8874697613641  58.7903701680043 52.8874697613641  C 58.7903701680043 52.8874697613641  49.9643979209659 47.4428292191302  49.9643979209659 47.4428292191302  C 49.9643979209659 47.4428292191302  46.1680736138333 39.2096292607703  46.1680736138333 39.2096292607703  C 46.1680736138333 39.2096292607703  43.5775433941003 37.7458527448287  43.5775433941003 37.7458527448287  C 43.5775433941003 37.7458527448287  35.2333381911144 38.1172263119297  35.2333381911144 38.1172263119297  C 35.2333381911144 38.1172263119297  32.2794179724388 36.4645053495682  32.2794179724388 36.4645053495682  C 32.2794179724388 36.4645053495682  31.4535316112065 28.3887760351477  31.4535316112065 28.3887760351477  C 31.4535316112065 28.3887760351477  21.0528693687506 24.0408819922469  21.0528693687506 24.0408819922469  C 21.0528693687506 24.0408819922469  14.550390751313 28.8209593091422  14.550390751313 28.8209593091422  C 14.550390751313 28.8209593091422  7.9570646341399 31.6334082529766  7.9570646341399 31.6334082529766  C 7.9570646341399 31.6334082529766  9.22342372136291 37.2941234936182  9.22342372136291 37.2941234936182  C 9.22342372136291 37.2941234936182  0.515828519434308 37.4048840311746  0.515828519434308 37.4048840311746  C 0.515828519434308 37.4048840311746  0.210250565778097 5.14643735027073  0.210250565778097 5.14643735027073  C 0.210250565778097 5.14643735027073  20.0810764170337 0.0492808474294975  20.0810764170337 0.0492808474294975  C 20.0810764170337 0.0492808474294975  21.5236245946535 0.800715082616139  21.5236245946535 0.800715082616139  C 21.5236245946535 0.800715082616139  33.4879650143762 6.96204145609734  33.4879650143762 6.96204145609734  C 33.4879650143762 6.96204145609734  39.8032427232674 10.1849559214644  39.8032427232674 10.1849559214644  C 39.8032427232674 10.1849559214644  47.1756549745369 17.7818257326866  47.1756549745369 17.7818257326866  C 47.1756549745369 17.7818257326866  56.2273694936462 16.563459819566  56.2273694936462 16.563459819566  C 56.2273694936462 16.563459819566  71.4663278642042 15.9075836952123  71.4663278642042 15.9075836952123  C 71.4663278642042 15.9075836952123  80.7052432918595 22.0037568113074  80.7052432918595 22.0037568113074  C 80.7052432918595 22.0037568113074  80.1298757935342 30.2586745221295  80.1298757935342 30.2586745221295  C 80.1298757935342 30.2586745221295  83.8904116916797 30.3151406785308  83.8904116916797 30.3151406785308  C 83.8904116916797 30.3151406785308  85.4623487325589 38.536378934447  85.4623487325589 38.536378934447  C 85.4623487325589 38.536378934447  95.2766316585394 38.7969919639915  95.2766316585394 38.7969919639915  C 95.2766316585394 38.7969919639915  97.3936536978322 42.599770420095  97.3936536978322 42.599770420095  C 97.3936536978322 42.599770420095  100.267738234921 42.5476478141861  100.267738234921 42.5476478141861  C 100.267738234921 42.5476478141861  103.645613452362 36.7946151869912  103.645613452362 36.7946151869912  C 103.645613452362 36.7946151869912  113.826039331823 29.5506757918669  113.826039331823 29.5506757918669  C 113.826039331823 29.5506757918669  118.252790228029 28.0369484452626  118.252790228029 28.0369484452626  C 118.252790228029 28.0369484452626  120.546001357718 28.8426770616044  120.546001357718 28.8426770616044  C 120.546001357718 28.8426770616044  114.06554637658 34.1179191346342  114.06554637658 34.1179191346342  C 114.06554637658 34.1179191346342  119.764162269085 38.738354032344  119.764162269085 38.738354032344  C 119.764162269085 38.738354032344  125.261812480357 36.7251183791127  125.261812480357 36.7251183791127  C 125.261812480357 36.7251183791127  134.409880408276 40.9687672101957  134.409880408276 40.9687672101957  C 134.409880408276 40.9687672101957  124.524020664322 46.7131127364057  124.524020664322 46.7131127364057  C 124.524020664322 46.7131127364057  118.651968635958 45.9312736477722  118.651968635958 45.9312736477722  C 118.651968635958 45.9312736477722  115.466800236138 46.1375922961616  115.466800236138 46.1375922961616  C 115.466800236138 46.1375922961616  114.362865466624 43.9245533202795  114.362865466624 43.9245533202795  C 114.362865466624 43.9245533202795  115.97059091649 40.2129894245166  115.97059091649 40.2129894245166  C 115.97059091649 40.2129894245166  105.64976435562 42.0763725857597  105.64976435562 42.0763725857597  C 105.64976435562 42.0763725857597  103.194128908222 47.1865597400782  103.194128908222 47.1865597400782  C 103.194128908222 47.1865597400782  99.5271934643492 51.5496562097024  99.5271934643492 51.5496562097024  C 99.5271934643492 51.5496562097024  93.0825268921981 51.1804544178476  93.0825268921981 51.1804544178476  C 93.0825268921981 51.1804544178476  91.0811289434778 54.6357488345585  91.0811289434778 54.6357488345585  C 91.0811289434778 54.6357488345585  96.7439564269957 56.4969602205554  96.7439564269957 56.4969602205554  C 96.7439564269957 56.4969602205554  98.4122468766855 62.2695388249661  98.4122468766855 62.2695388249661  C 98.4122468766855 62.2695388249661  94.073590525677 70.0206046786687  94.073590525677 70.0206046786687  C 94.073590525677 70.0206046786687  88.2510916789875 68.4113192212315  88.2510916789875 68.4113192212315  Z " fill-rule="evenodd" />
    </mask>
  </defs>
  <g transform="matrix(1 0 0 1 -2220 -1726 )">
    <path d="M 88.2510916789875 68.4113192212315  C 88.2510916789875 68.4113192212315  83.9537296460408 68.3613683905687  83.9537296460408 68.3613683905687  C 83.9537296460408 68.3613683905687  84.1657071454238 63.672505634014  84.1657071454238 63.672505634014  C 84.1657071454238 63.672505634014  73.8971867207656 60.3714072597837  73.8971867207656 60.3714072597837  C 73.8971867207656 60.3714072597837  63.8255240169856 56.5686288036801  63.8255240169856 56.5686288036801  C 63.8255240169856 56.5686288036801  58.7903701680043 52.8874697613641  58.7903701680043 52.8874697613641  C 58.7903701680043 52.8874697613641  49.9643979209659 47.4428292191302  49.9643979209659 47.4428292191302  C 49.9643979209659 47.4428292191302  46.1680736138333 39.2096292607703  46.1680736138333 39.2096292607703  C 46.1680736138333 39.2096292607703  43.5775433941003 37.7458527448287  43.5775433941003 37.7458527448287  C 43.5775433941003 37.7458527448287  35.2333381911144 38.1172263119297  35.2333381911144 38.1172263119297  C 35.2333381911144 38.1172263119297  32.2794179724388 36.4645053495682  32.2794179724388 36.4645053495682  C 32.2794179724388 36.4645053495682  31.4535316112065 28.3887760351477  31.4535316112065 28.3887760351477  C 31.4535316112065 28.3887760351477  21.0528693687506 24.0408819922469  21.0528693687506 24.0408819922469  C 21.0528693687506 24.0408819922469  14.550390751313 28.8209593091422  14.550390751313 28.8209593091422  C 14.550390751313 28.8209593091422  7.9570646341399 31.6334082529766  7.9570646341399 31.6334082529766  C 7.9570646341399 31.6334082529766  9.22342372136291 37.2941234936182  9.22342372136291 37.2941234936182  C 9.22342372136291 37.2941234936182  0.515828519434308 37.4048840311746  0.515828519434308 37.4048840311746  C 0.515828519434308 37.4048840311746  0.210250565778097 5.14643735027073  0.210250565778097 5.14643735027073  C 0.210250565778097 5.14643735027073  20.0810764170337 0.0492808474294975  20.0810764170337 0.0492808474294975  C 20.0810764170337 0.0492808474294975  21.5236245946535 0.800715082616139  21.5236245946535 0.800715082616139  C 21.5236245946535 0.800715082616139  33.4879650143762 6.96204145609734  33.4879650143762 6.96204145609734  C 33.4879650143762 6.96204145609734  39.8032427232674 10.1849559214644  39.8032427232674 10.1849559214644  C 39.8032427232674 10.1849559214644  47.1756549745369 17.7818257326866  47.1756549745369 17.7818257326866  C 47.1756549745369 17.7818257326866  56.2273694936462 16.563459819566  56.2273694936462 16.563459819566  C 56.2273694936462 16.563459819566  71.4663278642042 15.9075836952123  71.4663278642042 15.9075836952123  C 71.4663278642042 15.9075836952123  80.7052432918595 22.0037568113074  80.7052432918595 22.0037568113074  C 80.7052432918595 22.0037568113074  80.1298757935342 30.2586745221295  80.1298757935342 30.2586745221295  C 80.1298757935342 30.2586745221295  83.8904116916797 30.3151406785308  83.8904116916797 30.3151406785308  C 83.8904116916797 30.3151406785308  85.4623487325589 38.536378934447  85.4623487325589 38.536378934447  C 85.4623487325589 38.536378934447  95.2766316585394 38.7969919639915  95.2766316585394 38.7969919639915  C 95.2766316585394 38.7969919639915  97.3936536978322 42.599770420095  97.3936536978322 42.599770420095  C 97.3936536978322 42.599770420095  100.267738234921 42.5476478141861  100.267738234921 42.5476478141861  C 100.267738234921 42.5476478141861  103.645613452362 36.7946151869912  103.645613452362 36.7946151869912  C 103.645613452362 36.7946151869912  113.826039331823 29.5506757918669  113.826039331823 29.5506757918669  C 113.826039331823 29.5506757918669  118.252790228029 28.0369484452626  118.252790228029 28.0369484452626  C 118.252790228029 28.0369484452626  120.546001357718 28.8426770616044  120.546001357718 28.8426770616044  C 120.546001357718 28.8426770616044  114.06554637658 34.1179191346342  114.06554637658 34.1179191346342  C 114.06554637658 34.1179191346342  119.764162269085 38.738354032344  119.764162269085 38.738354032344  C 119.764162269085 38.738354032344  125.261812480357 36.7251183791127  125.261812480357 36.7251183791127  C 125.261812480357 36.7251183791127  134.409880408276 40.9687672101957  134.409880408276 40.9687672101957  C 134.409880408276 40.9687672101957  124.524020664322 46.7131127364057  124.524020664322 46.7131127364057  C 124.524020664322 46.7131127364057  118.651968635958 45.9312736477722  118.651968635958 45.9312736477722  C 118.651968635958 45.9312736477722  115.466800236138 46.1375922961616  115.466800236138 46.1375922961616  C 115.466800236138 46.1375922961616  114.362865466624 43.9245533202795  114.362865466624 43.9245533202795  C 114.362865466624 43.9245533202795  115.97059091649 40.2129894245166  115.97059091649 40.2129894245166  C 115.97059091649 40.2129894245166  105.64976435562 42.0763725857597  105.64976435562 42.0763725857597  C 105.64976435562 42.0763725857597  103.194128908222 47.1865597400782  103.194128908222 47.1865597400782  C 103.194128908222 47.1865597400782  99.5271934643492 51.5496562097024  99.5271934643492 51.5496562097024  C 99.5271934643492 51.5496562097024  93.0825268921981 51.1804544178476  93.0825268921981 51.1804544178476  C 93.0825268921981 51.1804544178476  91.0811289434778 54.6357488345585  91.0811289434778 54.6357488345585  C 91.0811289434778 54.6357488345585  96.7439564269957 56.4969602205554  96.7439564269957 56.4969602205554  C 96.7439564269957 56.4969602205554  98.4122468766855 62.2695388249661  98.4122468766855 62.2695388249661  C 98.4122468766855 62.2695388249661  94.073590525677 70.0206046786687  94.073590525677 70.0206046786687  C 94.073590525677 70.0206046786687  88.2510916789875 68.4113192212315  88.2510916789875 68.4113192212315  Z " fill-rule="nonzero" fill="#f2f2f2" stroke="none" transform="matrix(1 0 0 1 2220 1726 )" />
    <path d="M 88.2510916789875 68.4113192212315  C 88.2510916789875 68.4113192212315  83.9537296460408 68.3613683905687  83.9537296460408 68.3613683905687  C 83.9537296460408 68.3613683905687  84.1657071454238 63.672505634014  84.1657071454238 63.672505634014  C 84.1657071454238 63.672505634014  73.8971867207656 60.3714072597837  73.8971867207656 60.3714072597837  C 73.8971867207656 60.3714072597837  63.8255240169856 56.5686288036801  63.8255240169856 56.5686288036801  C 63.8255240169856 56.5686288036801  58.7903701680043 52.8874697613641  58.7903701680043 52.8874697613641  C 58.7903701680043 52.8874697613641  49.9643979209659 47.4428292191302  49.9643979209659 47.4428292191302  C 49.9643979209659 47.4428292191302  46.1680736138333 39.2096292607703  46.1680736138333 39.2096292607703  C 46.1680736138333 39.2096292607703  43.5775433941003 37.7458527448287  43.5775433941003 37.7458527448287  C 43.5775433941003 37.7458527448287  35.2333381911144 38.1172263119297  35.2333381911144 38.1172263119297  C 35.2333381911144 38.1172263119297  32.2794179724388 36.4645053495682  32.2794179724388 36.4645053495682  C 32.2794179724388 36.4645053495682  31.4535316112065 28.3887760351477  31.4535316112065 28.3887760351477  C 31.4535316112065 28.3887760351477  21.0528693687506 24.0408819922469  21.0528693687506 24.0408819922469  C 21.0528693687506 24.0408819922469  14.550390751313 28.8209593091422  14.550390751313 28.8209593091422  C 14.550390751313 28.8209593091422  7.9570646341399 31.6334082529766  7.9570646341399 31.6334082529766  C 7.9570646341399 31.6334082529766  9.22342372136291 37.2941234936182  9.22342372136291 37.2941234936182  C 9.22342372136291 37.2941234936182  0.515828519434308 37.4048840311746  0.515828519434308 37.4048840311746  C 0.515828519434308 37.4048840311746  0.210250565778097 5.14643735027073  0.210250565778097 5.14643735027073  C 0.210250565778097 5.14643735027073  20.0810764170337 0.0492808474294975  20.0810764170337 0.0492808474294975  C 20.0810764170337 0.0492808474294975  21.5236245946535 0.800715082616139  21.5236245946535 0.800715082616139  C 21.5236245946535 0.800715082616139  33.4879650143762 6.96204145609734  33.4879650143762 6.96204145609734  C 33.4879650143762 6.96204145609734  39.8032427232674 10.1849559214644  39.8032427232674 10.1849559214644  C 39.8032427232674 10.1849559214644  47.1756549745369 17.7818257326866  47.1756549745369 17.7818257326866  C 47.1756549745369 17.7818257326866  56.2273694936462 16.563459819566  56.2273694936462 16.563459819566  C 56.2273694936462 16.563459819566  71.4663278642042 15.9075836952123  71.4663278642042 15.9075836952123  C 71.4663278642042 15.9075836952123  80.7052432918595 22.0037568113074  80.7052432918595 22.0037568113074  C 80.7052432918595 22.0037568113074  80.1298757935342 30.2586745221295  80.1298757935342 30.2586745221295  C 80.1298757935342 30.2586745221295  83.8904116916797 30.3151406785308  83.8904116916797 30.3151406785308  C 83.8904116916797 30.3151406785308  85.4623487325589 38.536378934447  85.4623487325589 38.536378934447  C 85.4623487325589 38.536378934447  95.2766316585394 38.7969919639915  95.2766316585394 38.7969919639915  C 95.2766316585394 38.7969919639915  97.3936536978322 42.599770420095  97.3936536978322 42.599770420095  C 97.3936536978322 42.599770420095  100.267738234921 42.5476478141861  100.267738234921 42.5476478141861  C 100.267738234921 42.5476478141861  103.645613452362 36.7946151869912  103.645613452362 36.7946151869912  C 103.645613452362 36.7946151869912  113.826039331823 29.5506757918669  113.826039331823 29.5506757918669  C 113.826039331823 29.5506757918669  118.252790228029 28.0369484452626  118.252790228029 28.0369484452626  C 118.252790228029 28.0369484452626  120.546001357718 28.8426770616044  120.546001357718 28.8426770616044  C 120.546001357718 28.8426770616044  114.06554637658 34.1179191346342  114.06554637658 34.1179191346342  C 114.06554637658 34.1179191346342  119.764162269085 38.738354032344  119.764162269085 38.738354032344  C 119.764162269085 38.738354032344  125.261812480357 36.7251183791127  125.261812480357 36.7251183791127  C 125.261812480357 36.7251183791127  134.409880408276 40.9687672101957  134.409880408276 40.9687672101957  C 134.409880408276 40.9687672101957  124.524020664322 46.7131127364057  124.524020664322 46.7131127364057  C 124.524020664322 46.7131127364057  118.651968635958 45.9312736477722  118.651968635958 45.9312736477722  C 118.651968635958 45.9312736477722  115.466800236138 46.1375922961616  115.466800236138 46.1375922961616  C 115.466800236138 46.1375922961616  114.362865466624 43.9245533202795  114.362865466624 43.9245533202795  C 114.362865466624 43.9245533202795  115.97059091649 40.2129894245166  115.97059091649 40.2129894245166  C 115.97059091649 40.2129894245166  105.64976435562 42.0763725857597  105.64976435562 42.0763725857597  C 105.64976435562 42.0763725857597  103.194128908222 47.1865597400782  103.194128908222 47.1865597400782  C 103.194128908222 47.1865597400782  99.5271934643492 51.5496562097024  99.5271934643492 51.5496562097024  C 99.5271934643492 51.5496562097024  93.0825268921981 51.1804544178476  93.0825268921981 51.1804544178476  C 93.0825268921981 51.1804544178476  91.0811289434778 54.6357488345585  91.0811289434778 54.6357488345585  C 91.0811289434778 54.6357488345585  96.7439564269957 56.4969602205554  96.7439564269957 56.4969602205554  C 96.7439564269957 56.4969602205554  98.4122468766855 62.2695388249661  98.4122468766855 62.2695388249661  C 98.4122468766855 62.2695388249661  94.073590525677 70.0206046786687  94.073590525677 70.0206046786687  C 94.073590525677 70.0206046786687  88.2510916789875 68.4113192212315  88.2510916789875 68.4113192212315  Z " stroke-width="2" stroke="#505050" fill="none" stroke-opacity="0.211764705882353" transform="matrix(1 0 0 1 2220 1726 )" mask="url(#clip778)" />
  </g>
</svg>