<?xml version="1.0" encoding="utf-8"?>
<svg version="1.1" xmlns:xlink="http://www.w3.org/1999/xlink" width="108px" height="71px" xmlns="http://www.w3.org/2000/svg">
  <defs>
    <mask fill="white" id="clip779">
      <path d="M 10.9456943483665 3.51160778340752  C 10.9456943483665 3.51160778340752  15.9037654702993 2.49819135602147  15.9037654702993 2.49819135602147  C 15.9037654702993 2.49819135602147  15.6835291073039 3.92589751787404  15.6835291073039 3.92589751787404  C 15.6835291073039 3.92589751787404  11.1521659386744 4.62912778509591  11.1521659386744 4.62912778509591  C 11.1521659386744 4.62912778509591  13.6683663858964 7.36981372079463  13.6683663858964 7.36981372079463  C 13.6683663858964 7.36981372079463  13.5747659316232 10.5184157027373  13.5747659316232 10.5184157027373  C 13.5747659316232 10.5184157027373  10.1693611688077 14.0111968486978  10.1693611688077 14.0111968486978  C 10.1693611688077 14.0111968486978  13.092998887571 18.772341950947  13.092998887571 18.772341950947  C 13.092998887571 18.772341950947  16.4213209233383 18.3814224066301  16.4213209233383 18.3814224066301  C 16.4213209233383 18.3814224066301  18.1529293273893 14.0451898525514  18.1529293273893 14.0451898525514  C 18.1529293273893 14.0451898525514  15.7606118343522 11.9291253626629  15.7606118343522 11.9291253626629  C 15.7606118343522 11.9291253626629  15.3696922900353 7.37193828353572  15.3696922900353 7.37193828353572  C 15.3696922900353 7.37193828353572  24.9830095347825 4.9180683178516  24.9830095347825 4.9180683178516  C 24.9830095347825 4.9180683178516  23.9121102197175 2.07115424511015  23.9121102197175 2.07115424511015  C 23.9121102197175 2.07115424511015  26.6210174845603 0.161172341084155  26.6210174845603 0.161172341084155  C 26.6210174845603 0.161172341084155  29.3904897492271 4.41029782278786  29.3904897492271 4.41029782278786  C 29.3904897492271 4.41029782278786  34.8027983698378 4.50802770886727  34.8027983698378 4.50802770886727  C 34.8027983698378 4.50802770886727  39.818681537057 7.87333509037654  39.818681537057 7.87333509037654  C 39.818681537057 7.87333509037654  40.1215065361755 9.86829950403644  40.1215065361755 9.86829950403644  C 40.1215065361755 9.86829950403644  47.0506931069169 9.9214135725578  47.0506931069169 9.9214135725578  C 47.0506931069169 9.9214135725578  57.2985449010926 9.3010412522291  57.2985449010926 9.3010412522291  C 57.2985449010926 9.3010412522291  61.7197898882243 11.9971113703701  61.7197898882243 11.9971113703701  C 61.7197898882243 11.9971113703701  67.6221244164997 12.7385837669275  67.6221244164997 12.7385837669275  C 67.6221244164997 12.7385837669275  71.9525219038958 10.8604703040144  71.9525219038958 10.8604703040144  C 71.9525219038958 10.8604703040144  72.0406164490942 9.34565706978715  72.0406164490942 9.34565706978715  C 72.0406164490942 9.34565706978715  81.6016275576296 8.98235684110125  81.6016275576296 8.98235684110125  C 81.6016275576296 8.98235684110125  90.8515548034345 8.89737433146734  90.8515548034345 8.89737433146734  C 90.8515548034345 8.89737433146734  84.2967700497854 10.6756333455603  84.2967700497854 10.6756333455603  C 84.2967700497854 10.6756333455603  86.9341004966545 13.5161737300792  86.9341004966545 13.5161737300792  C 86.9341004966545 13.5161737300792  93.1062245695994 13.9665810311401  93.1062245695994 13.9665810311401  C 93.1062245695994 13.9665810311401  98.9590059162008 16.9175986781832  98.9590059162008 16.9175986781832  C 98.9590059162008 16.9175986781832  100.189576594437 21.7169859097676  100.189576594437 21.7169859097676  C 100.189576594437 21.7169859097676  104.21164317364 21.5831384570941  104.21164317364 21.5831384570941  C 104.21164317364 21.5831384570941  107.237140210289 22.9938481170197  107.237140210289 22.9938481170197  C 107.237140210289 22.9938481170197  101.120075228093 26.5036257649068  101.120075228093 26.5036257649068  C 101.120075228093 26.5036257649068  100.445601366419 28.68130257428  100.445601366419 28.68130257428  C 100.445601366419 28.68130257428  103.088437722364 30.8950969502476  103.088437722364 30.8950969502476  C 103.088437722364 30.8950969502476  101.172381364304 32.012616951936  101.172381364304 32.012616951936  C 101.172381364304 32.012616951936  96.4207818326795 32.9686701853192  96.4207818326795 32.9686701853192  C 96.4207818326795 32.9686701853192  96.5749472867763 37.2613326328512  96.5749472867763 37.2613326328512  C 96.5749472867763 37.2613326328512  94.4827018383203 38.8993705060478  94.4827018383203 38.8993705060478  C 94.4827018383203 38.8993705060478  99.707809550385 43.4119417676175  99.707809550385 43.4119417676175  C 99.707809550385 43.4119417676175  100.729155683776 45.0882217701496  100.729155683776 45.0882217701496  C 100.729155683776 45.0882217701496  97.9073772828979 47.3530056518978  97.9073772828979 47.3530056518978  C 97.9073772828979 47.3530056518978  89.2741118534802 49.5752982788287  89.2741118534802 49.5752982788287  C 89.2741118534802 49.5752982788287  83.72140255146 50.4952339456175  83.72140255146 50.4952339456175  C 83.72140255146 50.4952339456175  81.4942623306695 51.8974453545798  81.4942623306695 51.8974453545798  C 81.4942623306695 51.8974453545798  75.3579266667116 50.4145005614651  75.3579266667116 50.4145005614651  C 75.3579266667116 50.4145005614651  69.642793046982 49.6560316629812  69.642793046982 49.6560316629812  C 69.642793046982 49.6560316629812  68.1947389602876 50.20204428738  68.1947389602876 50.20204428738  C 68.1947389602876 50.20204428738  71.6496969047773 51.7402277117568  71.6496969047773 51.7402277117568  C 71.6496969047773 51.7402277117568  71.3386130420463 55.71316003715  71.3386130420463 55.71316003715  C 71.3386130420463 55.71316003715  72.4095123571112 59.4460167728266  72.4095123571112 59.4460167728266  C 72.4095123571112 59.4460167728266  78.9505323380731 59.9537872678903  78.9505323380731 59.9537872678903  C 78.9505323380731 59.9537872678903  79.366228473227 61.1987810340296  79.366228473227 61.1987810340296  C 79.366228473227 61.1987810340296  73.8520605347308 62.883559287525  73.8520605347308 62.883559287525  C 73.8520605347308 62.883559287525  72.9573503100621 65.3905433217301  72.9573503100621 65.3905433217301  C 72.9573503100621 65.3905433217301  69.7776878193167 66.3614684942995  69.7776878193167 66.3614684942995  C 69.7776878193167 66.3614684942995  64.0377776087503 67.7424342758533  64.0377776087503 67.7424342758533  C 64.0377776087503 67.7424342758533  62.5429232949193 69.5546862937999  62.5429232949193 69.5546862937999  C 62.5429232949193 69.5546862937999  56.5414824032962 69.9371075871535  56.5414824032962 69.9371075871535  C 56.5414824032962 69.9371075871535  50.2936735520234 66.8076266698786  50.2936735520234 66.8076266698786  C 50.2936735520234 66.8076266698786  47.9398974225105 60.903466813051  47.9398974225105 60.903466813051  C 47.9398974225105 60.903466813051  45.886193337579 58.8341427034612  45.886193337579 58.8341427034612  C 45.886193337579 58.8341427034612  43.0864385730006 57.5275366178373  43.0864385730006 57.5275366178373  C 43.0864385730006 57.5275366178373  46.9983869707055 54.5786435335349  46.9983869707055 54.5786435335349  C 46.9983869707055 54.5786435335349  46.7313503805735 53.2507918205025  46.7313503805735 53.2507918205025  C 46.7313503805735 53.2507918205025  44.5372456142325 51.4895293083362  44.5372456142325 51.4895293083362  C 44.5372456142325 51.4895293083362  42.984579255115 47.5463408613152  42.984579255115 47.5463408613152  C 42.984579255115 47.5463408613152  43.5902292533524 43.2865925659071  43.5902292533524 43.2865925659071  C 43.5902292533524 43.2865925659071  45.3135787937908 41.2916281522472  45.3135787937908 41.2916281522472  C 45.3135787937908 41.2916281522472  46.7038208351992 38.0877875390424  46.7038208351992 38.0877875390424  C 46.7038208351992 38.0877875390424  43.9728899340569 37.0658728606927  43.9728899340569 37.0658728606927  C 43.9728899340569 37.0658728606927  39.5736685832246 37.7436083750246  39.5736685832246 37.7436083750246  C 39.5736685832246 37.7436083750246  34.012700417592 37.4249239638967  34.012700417592 37.4249239638967  C 34.012700417592 37.4249239638967  30.8936029266704 38.0622927861521  30.8936029266704 38.0622927861521  C 30.8936029266704 38.0622927861521  25.4620236242974 31.3922446316073  25.4620236242974 31.3922446316073  C 25.4620236242974 31.3922446316073  20.9774606828046 30.633775733123  20.9774606828046 30.633775733123  C 20.9774606828046 30.633775733123  11.0503066207891 31.2074076731529  11.0503066207891 31.2074076731529  C 11.0503066207891 31.2074076731529  9.21133298977793 29.1274607498591  9.21133298977793 29.1274607498591  C 9.21133298977793 29.1274607498591  7.31179435894319 28.6281885057587  7.31179435894319 28.6281885057587  C 7.31179435894319 28.6281885057587  7.0420048142737 27.3831947396198  7.0420048142737 27.3831947396198  C 7.0420048142737 27.3831947396198  7.95873867524188 25.1715249263929  7.95873867524188 25.1715249263929  C 7.95873867524188 25.1715249263929  7.34758276792968 22.7643953410076  7.34758276792968 22.7643953410076  C 7.34758276792968 22.7643953410076  5.64350390925324 21.4492910044203  5.64350390925324 21.4492910044203  C 5.64350390925324 21.4492910044203  4.65519323031162 18.6958576922761  4.65519323031162 18.6958576922761  C 4.65519323031162 18.6958576922761  0.671668014633042 18.2943153342551  0.671668014633042 18.2943153342551  C 0.671668014633042 18.2943153342551  2.81071369022561 14.784537686368  2.81071369022561 14.784537686368  C 2.81071369022561 14.784537686368  3.75497709656815 10.4950455125881  3.75497709656815 10.4950455125881  C 3.75497709656815 10.4950455125881  5.99863504458312 8.25788094647091  5.99863504458312 8.25788094647091  C 5.99863504458312 8.25788094647091  8.98559071770774 6.52848687541749  8.98559071770774 6.52848687541749  C 8.98559071770774 6.52848687541749  10.9456943483665 3.51160778340752  10.9456943483665 3.51160778340752  Z " fill-rule="evenodd" />
    </mask>
  </defs>
  <g transform="matrix(1 0 0 1 -1229 -1960 )">
    <path d="M 10.9456943483665 3.51160778340752  C 10.9456943483665 3.51160778340752  15.9037654702993 2.49819135602147  15.9037654702993 2.49819135602147  C 15.9037654702993 2.49819135602147  15.6835291073039 3.92589751787404  15.6835291073039 3.92589751787404  C 15.6835291073039 3.92589751787404  11.1521659386744 4.62912778509591  11.1521659386744 4.62912778509591  C 11.1521659386744 4.62912778509591  13.6683663858964 7.36981372079463  13.6683663858964 7.36981372079463  C 13.6683663858964 7.36981372079463  13.5747659316232 10.5184157027373  13.5747659316232 10.5184157027373  C 13.5747659316232 10.5184157027373  10.1693611688077 14.0111968486978  10.1693611688077 14.0111968486978  C 10.1693611688077 14.0111968486978  13.092998887571 18.772341950947  13.092998887571 18.772341950947  C 13.092998887571 18.772341950947  16.4213209233383 18.3814224066301  16.4213209233383 18.3814224066301  C 16.4213209233383 18.3814224066301  18.1529293273893 14.0451898525514  18.1529293273893 14.0451898525514  C 18.1529293273893 14.0451898525514  15.7606118343522 11.9291253626629  15.7606118343522 11.9291253626629  C 15.7606118343522 11.9291253626629  15.3696922900353 7.37193828353572  15.3696922900353 7.37193828353572  C 15.3696922900353 7.37193828353572  24.9830095347825 4.9180683178516  24.9830095347825 4.9180683178516  C 24.9830095347825 4.9180683178516  23.9121102197175 2.07115424511015  23.9121102197175 2.07115424511015  C 23.9121102197175 2.07115424511015  26.6210174845603 0.161172341084155  26.6210174845603 0.161172341084155  C 26.6210174845603 0.161172341084155  29.3904897492271 4.41029782278786  29.3904897492271 4.41029782278786  C 29.3904897492271 4.41029782278786  34.8027983698378 4.50802770886727  34.8027983698378 4.50802770886727  C 34.8027983698378 4.50802770886727  39.818681537057 7.87333509037654  39.818681537057 7.87333509037654  C 39.818681537057 7.87333509037654  40.1215065361755 9.86829950403644  40.1215065361755 9.86829950403644  C 40.1215065361755 9.86829950403644  47.0506931069169 9.9214135725578  47.0506931069169 9.9214135725578  C 47.0506931069169 9.9214135725578  57.2985449010926 9.3010412522291  57.2985449010926 9.3010412522291  C 57.2985449010926 9.3010412522291  61.7197898882243 11.9971113703701  61.7197898882243 11.9971113703701  C 61.7197898882243 11.9971113703701  67.6221244164997 12.7385837669275  67.6221244164997 12.7385837669275  C 67.6221244164997 12.7385837669275  71.9525219038958 10.8604703040144  71.9525219038958 10.8604703040144  C 71.9525219038958 10.8604703040144  72.0406164490942 9.34565706978715  72.0406164490942 9.34565706978715  C 72.0406164490942 9.34565706978715  81.6016275576296 8.98235684110125  81.6016275576296 8.98235684110125  C 81.6016275576296 8.98235684110125  90.8515548034345 8.89737433146734  90.8515548034345 8.89737433146734  C 90.8515548034345 8.89737433146734  84.2967700497854 10.6756333455603  84.2967700497854 10.6756333455603  C 84.2967700497854 10.6756333455603  86.9341004966545 13.5161737300792  86.9341004966545 13.5161737300792  C 86.9341004966545 13.5161737300792  93.1062245695994 13.9665810311401  93.1062245695994 13.9665810311401  C 93.1062245695994 13.9665810311401  98.9590059162008 16.9175986781832  98.9590059162008 16.9175986781832  C 98.9590059162008 16.9175986781832  100.189576594437 21.7169859097676  100.189576594437 21.7169859097676  C 100.189576594437 21.7169859097676  104.21164317364 21.5831384570941  104.21164317364 21.5831384570941  C 104.21164317364 21.5831384570941  107.237140210289 22.9938481170197  107.237140210289 22.9938481170197  C 107.237140210289 22.9938481170197  101.120075228093 26.5036257649068  101.120075228093 26.5036257649068  C 101.120075228093 26.5036257649068  100.445601366419 28.68130257428  100.445601366419 28.68130257428  C 100.445601366419 28.68130257428  103.088437722364 30.8950969502476  103.088437722364 30.8950969502476  C 103.088437722364 30.8950969502476  101.172381364304 32.012616951936  101.172381364304 32.012616951936  C 101.172381364304 32.012616951936  96.4207818326795 32.9686701853192  96.4207818326795 32.9686701853192  C 96.4207818326795 32.9686701853192  96.5749472867763 37.2613326328512  96.5749472867763 37.2613326328512  C 96.5749472867763 37.2613326328512  94.4827018383203 38.8993705060478  94.4827018383203 38.8993705060478  C 94.4827018383203 38.8993705060478  99.707809550385 43.4119417676175  99.707809550385 43.4119417676175  C 99.707809550385 43.4119417676175  100.729155683776 45.0882217701496  100.729155683776 45.0882217701496  C 100.729155683776 45.0882217701496  97.9073772828979 47.3530056518978  97.9073772828979 47.3530056518978  C 97.9073772828979 47.3530056518978  89.2741118534802 49.5752982788287  89.2741118534802 49.5752982788287  C 89.2741118534802 49.5752982788287  83.72140255146 50.4952339456175  83.72140255146 50.4952339456175  C 83.72140255146 50.4952339456175  81.4942623306695 51.8974453545798  81.4942623306695 51.8974453545798  C 81.4942623306695 51.8974453545798  75.3579266667116 50.4145005614651  75.3579266667116 50.4145005614651  C 75.3579266667116 50.4145005614651  69.642793046982 49.6560316629812  69.642793046982 49.6560316629812  C 69.642793046982 49.6560316629812  68.1947389602876 50.20204428738  68.1947389602876 50.20204428738  C 68.1947389602876 50.20204428738  71.6496969047773 51.7402277117568  71.6496969047773 51.7402277117568  C 71.6496969047773 51.7402277117568  71.3386130420463 55.71316003715  71.3386130420463 55.71316003715  C 71.3386130420463 55.71316003715  72.4095123571112 59.4460167728266  72.4095123571112 59.4460167728266  C 72.4095123571112 59.4460167728266  78.9505323380731 59.9537872678903  78.9505323380731 59.9537872678903  C 78.9505323380731 59.9537872678903  79.366228473227 61.1987810340296  79.366228473227 61.1987810340296  C 79.366228473227 61.1987810340296  73.8520605347308 62.883559287525  73.8520605347308 62.883559287525  C 73.8520605347308 62.883559287525  72.9573503100621 65.3905433217301  72.9573503100621 65.3905433217301  C 72.9573503100621 65.3905433217301  69.7776878193167 66.3614684942995  69.7776878193167 66.3614684942995  C 69.7776878193167 66.3614684942995  64.0377776087503 67.7424342758533  64.0377776087503 67.7424342758533  C 64.0377776087503 67.7424342758533  62.5429232949193 69.5546862937999  62.5429232949193 69.5546862937999  C 62.5429232949193 69.5546862937999  56.5414824032962 69.9371075871535  56.5414824032962 69.9371075871535  C 56.5414824032962 69.9371075871535  50.2936735520234 66.8076266698786  50.2936735520234 66.8076266698786  C 50.2936735520234 66.8076266698786  47.9398974225105 60.903466813051  47.9398974225105 60.903466813051  C 47.9398974225105 60.903466813051  45.886193337579 58.8341427034612  45.886193337579 58.8341427034612  C 45.886193337579 58.8341427034612  43.0864385730006 57.5275366178373  43.0864385730006 57.5275366178373  C 43.0864385730006 57.5275366178373  46.9983869707055 54.5786435335349  46.9983869707055 54.5786435335349  C 46.9983869707055 54.5786435335349  46.7313503805735 53.2507918205025  46.7313503805735 53.2507918205025  C 46.7313503805735 53.2507918205025  44.5372456142325 51.4895293083362  44.5372456142325 51.4895293083362  C 44.5372456142325 51.4895293083362  42.984579255115 47.5463408613152  42.984579255115 47.5463408613152  C 42.984579255115 47.5463408613152  43.5902292533524 43.2865925659071  43.5902292533524 43.2865925659071  C 43.5902292533524 43.2865925659071  45.3135787937908 41.2916281522472  45.3135787937908 41.2916281522472  C 45.3135787937908 41.2916281522472  46.7038208351992 38.0877875390424  46.7038208351992 38.0877875390424  C 46.7038208351992 38.0877875390424  43.9728899340569 37.0658728606927  43.9728899340569 37.0658728606927  C 43.9728899340569 37.0658728606927  39.5736685832246 37.7436083750246  39.5736685832246 37.7436083750246  C 39.5736685832246 37.7436083750246  34.012700417592 37.4249239638967  34.012700417592 37.4249239638967  C 34.012700417592 37.4249239638967  30.8936029266704 38.0622927861521  30.8936029266704 38.0622927861521  C 30.8936029266704 38.0622927861521  25.4620236242974 31.3922446316073  25.4620236242974 31.3922446316073  C 25.4620236242974 31.3922446316073  20.9774606828046 30.633775733123  20.9774606828046 30.633775733123  C 20.9774606828046 30.633775733123  11.0503066207891 31.2074076731529  11.0503066207891 31.2074076731529  C 11.0503066207891 31.2074076731529  9.21133298977793 29.1274607498591  9.21133298977793 29.1274607498591  C 9.21133298977793 29.1274607498591  7.31179435894319 28.6281885057587  7.31179435894319 28.6281885057587  C 7.31179435894319 28.6281885057587  7.0420048142737 27.3831947396198  7.0420048142737 27.3831947396198  C 7.0420048142737 27.3831947396198  7.95873867524188 25.1715249263929  7.95873867524188 25.1715249263929  C 7.95873867524188 25.1715249263929  7.34758276792968 22.7643953410076  7.34758276792968 22.7643953410076  C 7.34758276792968 22.7643953410076  5.64350390925324 21.4492910044203  5.64350390925324 21.4492910044203  C 5.64350390925324 21.4492910044203  4.65519323031162 18.6958576922761  4.65519323031162 18.6958576922761  C 4.65519323031162 18.6958576922761  0.671668014633042 18.2943153342551  0.671668014633042 18.2943153342551  C 0.671668014633042 18.2943153342551  2.81071369022561 14.784537686368  2.81071369022561 14.784537686368  C 2.81071369022561 14.784537686368  3.75497709656815 10.4950455125881  3.75497709656815 10.4950455125881  C 3.75497709656815 10.4950455125881  5.99863504458312 8.25788094647091  5.99863504458312 8.25788094647091  C 5.99863504458312 8.25788094647091  8.98559071770774 6.52848687541749  8.98559071770774 6.52848687541749  C 8.98559071770774 6.52848687541749  10.9456943483665 3.51160778340752  10.9456943483665 3.51160778340752  Z " fill-rule="nonzero" fill="#f2f2f2" stroke="none" transform="matrix(1 0 0 1 1229 1960 )" />
    <path d="M 10.9456943483665 3.51160778340752  C 10.9456943483665 3.51160778340752  15.9037654702993 2.49819135602147  15.9037654702993 2.49819135602147  C 15.9037654702993 2.49819135602147  15.6835291073039 3.92589751787404  15.6835291073039 3.92589751787404  C 15.6835291073039 3.92589751787404  11.1521659386744 4.62912778509591  11.1521659386744 4.62912778509591  C 11.1521659386744 4.62912778509591  13.6683663858964 7.36981372079463  13.6683663858964 7.36981372079463  C 13.6683663858964 7.36981372079463  13.5747659316232 10.5184157027373  13.5747659316232 10.5184157027373  C 13.5747659316232 10.5184157027373  10.1693611688077 14.0111968486978  10.1693611688077 14.0111968486978  C 10.1693611688077 14.0111968486978  13.092998887571 18.772341950947  13.092998887571 18.772341950947  C 13.092998887571 18.772341950947  16.4213209233383 18.3814224066301  16.4213209233383 18.3814224066301  C 16.4213209233383 18.3814224066301  18.1529293273893 14.0451898525514  18.1529293273893 14.0451898525514  C 18.1529293273893 14.0451898525514  15.7606118343522 11.9291253626629  15.7606118343522 11.9291253626629  C 15.7606118343522 11.9291253626629  15.3696922900353 7.37193828353572  15.3696922900353 7.37193828353572  C 15.3696922900353 7.37193828353572  24.9830095347825 4.9180683178516  24.9830095347825 4.9180683178516  C 24.9830095347825 4.9180683178516  23.9121102197175 2.07115424511015  23.9121102197175 2.07115424511015  C 23.9121102197175 2.07115424511015  26.6210174845603 0.161172341084155  26.6210174845603 0.161172341084155  C 26.6210174845603 0.161172341084155  29.3904897492271 4.41029782278786  29.3904897492271 4.41029782278786  C 29.3904897492271 4.41029782278786  34.8027983698378 4.50802770886727  34.8027983698378 4.50802770886727  C 34.8027983698378 4.50802770886727  39.818681537057 7.87333509037654  39.818681537057 7.87333509037654  C 39.818681537057 7.87333509037654  40.1215065361755 9.86829950403644  40.1215065361755 9.86829950403644  C 40.1215065361755 9.86829950403644  47.0506931069169 9.9214135725578  47.0506931069169 9.9214135725578  C 47.0506931069169 9.9214135725578  57.2985449010926 9.3010412522291  57.2985449010926 9.3010412522291  C 57.2985449010926 9.3010412522291  61.7197898882243 11.9971113703701  61.7197898882243 11.9971113703701  C 61.7197898882243 11.9971113703701  67.6221244164997 12.7385837669275  67.6221244164997 12.7385837669275  C 67.6221244164997 12.7385837669275  71.9525219038958 10.8604703040144  71.9525219038958 10.8604703040144  C 71.9525219038958 10.8604703040144  72.0406164490942 9.34565706978715  72.0406164490942 9.34565706978715  C 72.0406164490942 9.34565706978715  81.6016275576296 8.98235684110125  81.6016275576296 8.98235684110125  C 81.6016275576296 8.98235684110125  90.8515548034345 8.89737433146734  90.8515548034345 8.89737433146734  C 90.8515548034345 8.89737433146734  84.2967700497854 10.6756333455603  84.2967700497854 10.6756333455603  C 84.2967700497854 10.6756333455603  86.9341004966545 13.5161737300792  86.9341004966545 13.5161737300792  C 86.9341004966545 13.5161737300792  93.1062245695994 13.9665810311401  93.1062245695994 13.9665810311401  C 93.1062245695994 13.9665810311401  98.9590059162008 16.9175986781832  98.9590059162008 16.9175986781832  C 98.9590059162008 16.9175986781832  100.189576594437 21.7169859097676  100.189576594437 21.7169859097676  C 100.189576594437 21.7169859097676  104.21164317364 21.5831384570941  104.21164317364 21.5831384570941  C 104.21164317364 21.5831384570941  107.237140210289 22.9938481170197  107.237140210289 22.9938481170197  C 107.237140210289 22.9938481170197  101.120075228093 26.5036257649068  101.120075228093 26.5036257649068  C 101.120075228093 26.5036257649068  100.445601366419 28.68130257428  100.445601366419 28.68130257428  C 100.445601366419 28.68130257428  103.088437722364 30.8950969502476  103.088437722364 30.8950969502476  C 103.088437722364 30.8950969502476  101.172381364304 32.012616951936  101.172381364304 32.012616951936  C 101.172381364304 32.012616951936  96.4207818326795 32.9686701853192  96.4207818326795 32.9686701853192  C 96.4207818326795 32.9686701853192  96.5749472867763 37.2613326328512  96.5749472867763 37.2613326328512  C 96.5749472867763 37.2613326328512  94.4827018383203 38.8993705060478  94.4827018383203 38.8993705060478  C 94.4827018383203 38.8993705060478  99.707809550385 43.4119417676175  99.707809550385 43.4119417676175  C 99.707809550385 43.4119417676175  100.729155683776 45.0882217701496  100.729155683776 45.0882217701496  C 100.729155683776 45.0882217701496  97.9073772828979 47.3530056518978  97.9073772828979 47.3530056518978  C 97.9073772828979 47.3530056518978  89.2741118534802 49.5752982788287  89.2741118534802 49.5752982788287  C 89.2741118534802 49.5752982788287  83.72140255146 50.4952339456175  83.72140255146 50.4952339456175  C 83.72140255146 50.4952339456175  81.4942623306695 51.8974453545798  81.4942623306695 51.8974453545798  C 81.4942623306695 51.8974453545798  75.3579266667116 50.4145005614651  75.3579266667116 50.4145005614651  C 75.3579266667116 50.4145005614651  69.642793046982 49.6560316629812  69.642793046982 49.6560316629812  C 69.642793046982 49.6560316629812  68.1947389602876 50.20204428738  68.1947389602876 50.20204428738  C 68.1947389602876 50.20204428738  71.6496969047773 51.7402277117568  71.6496969047773 51.7402277117568  C 71.6496969047773 51.7402277117568  71.3386130420463 55.71316003715  71.3386130420463 55.71316003715  C 71.3386130420463 55.71316003715  72.4095123571112 59.4460167728266  72.4095123571112 59.4460167728266  C 72.4095123571112 59.4460167728266  78.9505323380731 59.9537872678903  78.9505323380731 59.9537872678903  C 78.9505323380731 59.9537872678903  79.366228473227 61.1987810340296  79.366228473227 61.1987810340296  C 79.366228473227 61.1987810340296  73.8520605347308 62.883559287525  73.8520605347308 62.883559287525  C 73.8520605347308 62.883559287525  72.9573503100621 65.3905433217301  72.9573503100621 65.3905433217301  C 72.9573503100621 65.3905433217301  69.7776878193167 66.3614684942995  69.7776878193167 66.3614684942995  C 69.7776878193167 66.3614684942995  64.0377776087503 67.7424342758533  64.0377776087503 67.7424342758533  C 64.0377776087503 67.7424342758533  62.5429232949193 69.5546862937999  62.5429232949193 69.5546862937999  C 62.5429232949193 69.5546862937999  56.5414824032962 69.9371075871535  56.5414824032962 69.9371075871535  C 56.5414824032962 69.9371075871535  50.2936735520234 66.8076266698786  50.2936735520234 66.8076266698786  C 50.2936735520234 66.8076266698786  47.9398974225105 60.903466813051  47.9398974225105 60.903466813051  C 47.9398974225105 60.903466813051  45.886193337579 58.8341427034612  45.886193337579 58.8341427034612  C 45.886193337579 58.8341427034612  43.0864385730006 57.5275366178373  43.0864385730006 57.5275366178373  C 43.0864385730006 57.5275366178373  46.9983869707055 54.5786435335349  46.9983869707055 54.5786435335349  C 46.9983869707055 54.5786435335349  46.7313503805735 53.2507918205025  46.7313503805735 53.2507918205025  C 46.7313503805735 53.2507918205025  44.5372456142325 51.4895293083362  44.5372456142325 51.4895293083362  C 44.5372456142325 51.4895293083362  42.984579255115 47.5463408613152  42.984579255115 47.5463408613152  C 42.984579255115 47.5463408613152  43.5902292533524 43.2865925659071  43.5902292533524 43.2865925659071  C 43.5902292533524 43.2865925659071  45.3135787937908 41.2916281522472  45.3135787937908 41.2916281522472  C 45.3135787937908 41.2916281522472  46.7038208351992 38.0877875390424  46.7038208351992 38.0877875390424  C 46.7038208351992 38.0877875390424  43.9728899340569 37.0658728606927  43.9728899340569 37.0658728606927  C 43.9728899340569 37.0658728606927  39.5736685832246 37.7436083750246  39.5736685832246 37.7436083750246  C 39.5736685832246 37.7436083750246  34.012700417592 37.4249239638967  34.012700417592 37.4249239638967  C 34.012700417592 37.4249239638967  30.8936029266704 38.0622927861521  30.8936029266704 38.0622927861521  C 30.8936029266704 38.0622927861521  25.4620236242974 31.3922446316073  25.4620236242974 31.3922446316073  C 25.4620236242974 31.3922446316073  20.9774606828046 30.633775733123  20.9774606828046 30.633775733123  C 20.9774606828046 30.633775733123  11.0503066207891 31.2074076731529  11.0503066207891 31.2074076731529  C 11.0503066207891 31.2074076731529  9.21133298977793 29.1274607498591  9.21133298977793 29.1274607498591  C 9.21133298977793 29.1274607498591  7.31179435894319 28.6281885057587  7.31179435894319 28.6281885057587  C 7.31179435894319 28.6281885057587  7.0420048142737 27.3831947396198  7.0420048142737 27.3831947396198  C 7.0420048142737 27.3831947396198  7.95873867524188 25.1715249263929  7.95873867524188 25.1715249263929  C 7.95873867524188 25.1715249263929  7.34758276792968 22.7643953410076  7.34758276792968 22.7643953410076  C 7.34758276792968 22.7643953410076  5.64350390925324 21.4492910044203  5.64350390925324 21.4492910044203  C 5.64350390925324 21.4492910044203  4.65519323031162 18.6958576922761  4.65519323031162 18.6958576922761  C 4.65519323031162 18.6958576922761  0.671668014633042 18.2943153342551  0.671668014633042 18.2943153342551  C 0.671668014633042 18.2943153342551  2.81071369022561 14.784537686368  2.81071369022561 14.784537686368  C 2.81071369022561 14.784537686368  3.75497709656815 10.4950455125881  3.75497709656815 10.4950455125881  C 3.75497709656815 10.4950455125881  5.99863504458312 8.25788094647091  5.99863504458312 8.25788094647091  C 5.99863504458312 8.25788094647091  8.98559071770774 6.52848687541749  8.98559071770774 6.52848687541749  C 8.98559071770774 6.52848687541749  10.9456943483665 3.51160778340752  10.9456943483665 3.51160778340752  Z " stroke-width="2" stroke="#505050" fill="none" stroke-opacity="0.211764705882353" transform="matrix(1 0 0 1 1229 1960 )" mask="url(#clip779)" />
  </g>
</svg>