<?xml version="1.0" encoding="utf-8"?>
<svg version="1.1" xmlns:xlink="http://www.w3.org/1999/xlink" width="97px" height="102px" xmlns="http://www.w3.org/2000/svg">
  <defs>
    <mask fill="white" id="clip780">
      <path d="M 30.4498259599311 76.2032054891915  C 30.4498259599311 76.2032054891915  28.4116283128021 76.7669354978814  28.4116283128021 76.7669354978814  C 28.4116283128021 76.7669354978814  25.1417925152691 75.362928683786  25.1417925152691 75.362928683786  C 25.1417925152691 75.362928683786  21.3923808007646 73.4015737101558  21.3923808007646 73.4015737101558  C 21.3923808007646 73.4015737101558  19.2206648585696 74.3418328189893  19.2206648585696 74.3418328189893  C 19.2206648585696 74.3418328189893  12.7382153899607 73.5207015610485  12.7382153899607 73.5207015610485  C 12.7382153899607 73.5207015610485  10.8744089853666 70.9722164651603  10.8744089853666 70.9722164651603  C 10.8744089853666 70.9722164651603  9.45203041343993 71.0658169194334  9.45203041343993 71.0658169194334  C 9.45203041343993 71.0658169194334  1.80878923670626 67.6834368672946  1.80878923670626 67.6834368672946  C 1.80878923670626 67.6834368672946  0.773341234154187 65.843337027609  0.773341234154187 65.843337027609  C 0.773341234154187 65.843337027609  3.62354810433715 65.3987348698119  3.62354810433715 65.3987348698119  C 3.62354810433715 65.3987348698119  3.28566507192549 62.4290477296953  3.28566507192549 62.4290477296953  C 3.28566507192549 62.4290477296953  5.07862503423949 60.2804918475191  5.07862503423949 60.2804918475191  C 5.07862503423949 60.2804918475191  8.86890969621312 59.8826899168586  8.86890969621312 59.8826899168586  C 8.86890969621312 59.8826899168586  12.084248230454 56.1556900103508  12.084248230454 56.1556900103508  C 12.084248230454 56.1556900103508  15.0080264060813 53.0392203396695  15.0080264060813 53.0392203396695  C 15.0080264060813 53.0392203396695  12.1932427570382 51.6267043933676  12.1932427570382 51.6267043933676  C 12.1932427570382 51.6267043933676  13.6346953711175 46.6329240211727  13.6346953711175 46.6329240211727  C 13.6346953711175 46.6329240211727  11.9098569879187 41.1913339750275  11.9098569879187 41.1913339750275  C 11.9098569879187 41.1913339750275  13.54749974985 39.6277809320575  13.54749974985 39.6277809320575  C 13.54749974985 39.6277809320575  12.343110231092 34.586120099624  12.343110231092 34.586120099624  C 12.343110231092 34.586120099624  9.25039053925855 31.4058319373931  9.25039053925855 31.4058319373931  C 9.25039053925855 31.4058319373931  10.228616415354 28.5020905718777  10.228616415354 28.5020905718777  C 10.228616415354 28.5020905718777  12.6891678529975 28.9296744652614  12.6891678529975 28.9296744652614  C 12.6891678529975 28.9296744652614  14.1306204670766 27.1533931171254  14.1306204670766 27.1533931171254  C 14.1306204670766 27.1533931171254  12.356734546915 23.6263578174739  12.356734546915 23.6263578174739  C 12.356734546915 23.6263578174739  13.2859128860473 22.74991720019  13.2859128860473 22.74991720019  C 13.2859128860473 22.74991720019  17.2315147484039 22.9392453917878  17.2315147484039 22.9392453917878  C 17.2315147484039 22.9392453917878  22.964626846745 18.7527523461213  22.964626846745 18.7527523461213  C 22.964626846745 18.7527523461213  26.1118438018705 18.1124401475721  26.1118438018705 18.1124401475721  C 26.1118438018705 18.1124401475721  26.1854151073151 16.1255577773218  26.1854151073151 16.1255577773218  C 26.1854151073151 16.1255577773218  27.5941693634189 11.0370967177518  27.5941693634189 11.0370967177518  C 27.5941693634189 11.0370967177518  31.9757493321132 8.237592221768  31.9757493321132 8.237592221768  C 31.9757493321132 8.237592221768  36.7905825439806 8.12271893697832  36.7905825439806 8.12271893697832  C 36.7905825439806 8.12271893697832  37.3982270296886 6.86336737039574  37.3982270296886 6.86336737039574  C 37.3982270296886 6.86336737039574  43.3765768128449 7.36753345363908  43.3765768128449 7.36753345363908  C 43.3765768128449 7.36753345363908  51.3672167907111 4.31488227450745  51.3672167907111 4.31488227450745  C 51.3672167907111 4.31488227450745  54.3454922296309 2.9598029706002  54.3454922296309 2.9598029706002  C 54.3454922296309 2.9598029706002  58.0431315440078 0.0390433406716966  58.0431315440078 0.0390433406716966  C 58.0431315440078 0.0390433406716966  60.7516455296311 0.411317874711916  60.7516455296311 0.411317874711916  C 60.7516455296311 0.411317874711916  62.7544199556199 2.00678016345662  62.7544199556199 2.00678016345662  C 62.7544199556199 2.00678016345662  61.2720943940715 4.04684460999845  61.2720943940715 4.04684460999845  C 61.2720943940715 4.04684460999845  56.3646158346074 5.06155862563979  56.3646158346074 5.06155862563979  C 56.3646158346074 5.06155862563979  54.4245132614046 8.08230055899677  54.4245132614046 8.08230055899677  C 54.4245132614046 8.08230055899677  51.4680367278017 9.81390896304769  51.4680367278017 9.81390896304769  C 51.4680367278017 9.81390896304769  49.2472732486438 12.0539380164454  49.2472732486438 12.0539380164454  C 49.2472732486438 12.0539380164454  46.3330533464478 16.3489224977462  46.3330533464478 16.3489224977462  C 46.3330533464478 16.3489224977462  44.2158346675449 19.8631940990877  44.2158346675449 19.8631940990877  C 44.2158346675449 19.8631940990877  50.1383035034717 20.2652505958514  50.1383035034717 20.2652505958514  C 50.1383035034717 20.2652505958514  51.116529379567 23.0222094308024  51.116529379567 23.0222094308024  C 51.116529379567 23.0222094308024  52.803219678461 24.3389976397797  52.803219678461 24.3389976397797  C 52.803219678461 24.3389976397797  53.4081393010047 26.7492093373102  53.4081393010047 26.7492093373102  C 53.4081393010047 26.7492093373102  52.5007598671893 28.9637109940879  52.5007598671893 28.9637109940879  C 52.5007598671893 28.9637109940879  52.7677964573211 30.2102988623601  52.7677964573211 30.2102988623601  C 52.7677964573211 30.2102988623601  54.6479520409026 30.7102103795004  54.6479520409026 30.7102103795004  C 54.6479520409026 30.7102103795004  56.4681606348627 32.792820487075  56.4681606348627 32.792820487075  C 56.4681606348627 32.792820487075  66.2940172064494 32.218454063127  66.2940172064494 32.218454063127  C 66.2940172064494 32.218454063127  70.7328193016005 32.9778941125697  70.7328193016005 32.9778941125697  C 70.7328193016005 32.9778941125697  76.1089743253776 38.1110281162243  76.1089743253776 38.1110281162243  C 76.1089743253776 38.1110281162243  79.1962442908816 37.4728432007263  79.1962442908816 37.4728432007263  C 79.1962442908816 37.4728432007263  84.7004678833958 37.7919356584753  84.7004678833958 37.7919356584753  C 84.7004678833958 37.7919356584753  89.054799220444 37.1133323649957  89.054799220444 37.1133323649957  C 89.054799220444 37.1133323649957  91.7578634797377 38.136555512844  91.7578634797377 38.136555512844  C 91.7578634797377 38.136555512844  90.3818075816093 41.3444983547469  90.3818075816093 41.3444983547469  C 90.3818075816093 41.3444983547469  88.6760432405631 43.3420171402552  88.6760432405631 43.3420171402552  C 88.6760432405631 43.3420171402552  88.0765733443485 47.6072196588329  88.0765733443485 47.6072196588329  C 88.0765733443485 47.6072196588329  89.613396169189 53.1009115481676  89.613396169189 53.1009115481676  C 89.613396169189 53.1009115481676  91.785112111384 54.8644291979936  91.785112111384 54.8644291979936  C 91.785112111384 54.8644291979936  92.0494238383514 56.1939811052808  92.0494238383514 56.1939811052808  C 92.0494238383514 56.1939811052808  88.1773932814394 59.1466499809843  88.1773932814394 59.1466499809843  C 88.1773932814394 59.1466499809843  90.9485791198484 60.454929057755  90.9485791198484 60.454929057755  C 90.9485791198484 60.454929057755  92.9813270406482 62.5269027500715  92.9813270406482 62.5269027500715  C 92.9813270406482 62.5269027500715  95.3110850463905 68.4386223506339  95.3110850463905 68.4386223506339  C 95.3110850463905 68.4386223506339  93.8669075691467 69.1682804373531  93.8669075691467 69.1682804373531  C 93.8669075691467 69.1682804373531  92.3791322812692 65.6731543834763  92.3791322812692 65.6731543834763  C 92.3791322812692 65.6731543834763  90.2564638760374 63.7926361658091  90.2564638760374 63.7926361658091  C 90.2564638760374 63.7926361658091  87.7277908592783 65.836955178454  87.7277908592783 65.836955178454  C 87.7277908592783 65.836955178454  72.844588254174 65.7029363461994  72.844588254174 65.7029363461994  C 72.844588254174 65.7029363461994  72.9372336017707 69.4129179882937  72.9372336017707 69.4129179882937  C 72.9372336017707 69.4129179882937  77.4141837812262 70.0255755071717  77.4141837812262 70.0255755071717  C 77.4141837812262 70.0255755071717  77.1553217805882 72.2953865232929  77.1553217805882 72.2953865232929  C 77.1553217805882 72.2953865232929  75.6293984084063 71.6806017213629  75.6293984084063 71.6806017213629  C 75.6293984084063 71.6806017213629  71.3241146083212 72.657024642075  71.3241146083212 72.657024642075  C 71.3241146083212 72.657024642075  71.2859665240166 76.9626455386338  71.2859665240166 76.9626455386338  C 71.2859665240166 76.9626455386338  74.6756963007924 79.12396511912  74.6756963007924 79.12396511912  C 74.6756963007924 79.12396511912  75.8719112300565 82.5169815865172  75.8719112300565 82.5169815865172  C 75.8719112300565 82.5169815865172  75.6920702611923 85.0867395129224  75.6920702611923 85.0867395129224  C 75.6920702611923 85.0867395129224  72.2587426737825 101.354073008963  72.2587426737825 101.354073008963  C 72.2587426737825 101.354073008963  68.4330347906689 98.1971849603005  68.4330347906689 98.1971849603005  C 68.4330347906689 98.1971849603005  66.1523243218895 98.0567842788909  66.1523243218895 98.0567842788909  C 66.1523243218895 98.0567842788909  71.0816017866707 92.0174276952292  71.0816017866707 92.0174276952292  C 71.0816017866707 92.0174276952292  65.2313205722511 89.2391960297619  65.2313205722511 89.2391960297619  C 65.2313205722511 89.2391960297619  60.6453758662111 89.7497439621599  60.6453758662111 89.7497439621599  C 60.6453758662111 89.7497439621599  57.8850894804604 88.7243935312601  57.8850894804604 88.7243935312601  C 57.8850894804604 88.7243935312601  53.6751758911365 90.2922011403333  53.6751758911365 90.2922011403333  C 53.6751758911365 90.2922011403333  46.0087946298589 89.5476520722525  46.0087946298589 89.5476520722525  C 46.0087946298589 89.5476520722525  41.5073206819219 83.3338582783545  41.5073206819219 83.3338582783545  C 41.5073206819219 83.3338582783545  37.970448294257 81.806469047263  37.970448294257 81.806469047263  C 37.970448294257 81.806469047263  35.5316957619303 79.0112191173822  35.5316957619303 79.0112191173822  C 35.5316957619303 79.0112191173822  30.4498259599311 76.2032054891915  30.4498259599311 76.2032054891915  Z " fill-rule="evenodd" />
    </mask>
  </defs>
  <g transform="matrix(1 0 0 1 -1184 -1958 )">
    <path d="M 30.4498259599311 76.2032054891915  C 30.4498259599311 76.2032054891915  28.4116283128021 76.7669354978814  28.4116283128021 76.7669354978814  C 28.4116283128021 76.7669354978814  25.1417925152691 75.362928683786  25.1417925152691 75.362928683786  C 25.1417925152691 75.362928683786  21.3923808007646 73.4015737101558  21.3923808007646 73.4015737101558  C 21.3923808007646 73.4015737101558  19.2206648585696 74.3418328189893  19.2206648585696 74.3418328189893  C 19.2206648585696 74.3418328189893  12.7382153899607 73.5207015610485  12.7382153899607 73.5207015610485  C 12.7382153899607 73.5207015610485  10.8744089853666 70.9722164651603  10.8744089853666 70.9722164651603  C 10.8744089853666 70.9722164651603  9.45203041343993 71.0658169194334  9.45203041343993 71.0658169194334  C 9.45203041343993 71.0658169194334  1.80878923670626 67.6834368672946  1.80878923670626 67.6834368672946  C 1.80878923670626 67.6834368672946  0.773341234154187 65.843337027609  0.773341234154187 65.843337027609  C 0.773341234154187 65.843337027609  3.62354810433715 65.3987348698119  3.62354810433715 65.3987348698119  C 3.62354810433715 65.3987348698119  3.28566507192549 62.4290477296953  3.28566507192549 62.4290477296953  C 3.28566507192549 62.4290477296953  5.07862503423949 60.2804918475191  5.07862503423949 60.2804918475191  C 5.07862503423949 60.2804918475191  8.86890969621312 59.8826899168586  8.86890969621312 59.8826899168586  C 8.86890969621312 59.8826899168586  12.084248230454 56.1556900103508  12.084248230454 56.1556900103508  C 12.084248230454 56.1556900103508  15.0080264060813 53.0392203396695  15.0080264060813 53.0392203396695  C 15.0080264060813 53.0392203396695  12.1932427570382 51.6267043933676  12.1932427570382 51.6267043933676  C 12.1932427570382 51.6267043933676  13.6346953711175 46.6329240211727  13.6346953711175 46.6329240211727  C 13.6346953711175 46.6329240211727  11.9098569879187 41.1913339750275  11.9098569879187 41.1913339750275  C 11.9098569879187 41.1913339750275  13.54749974985 39.6277809320575  13.54749974985 39.6277809320575  C 13.54749974985 39.6277809320575  12.343110231092 34.586120099624  12.343110231092 34.586120099624  C 12.343110231092 34.586120099624  9.25039053925855 31.4058319373931  9.25039053925855 31.4058319373931  C 9.25039053925855 31.4058319373931  10.228616415354 28.5020905718777  10.228616415354 28.5020905718777  C 10.228616415354 28.5020905718777  12.6891678529975 28.9296744652614  12.6891678529975 28.9296744652614  C 12.6891678529975 28.9296744652614  14.1306204670766 27.1533931171254  14.1306204670766 27.1533931171254  C 14.1306204670766 27.1533931171254  12.356734546915 23.6263578174739  12.356734546915 23.6263578174739  C 12.356734546915 23.6263578174739  13.2859128860473 22.74991720019  13.2859128860473 22.74991720019  C 13.2859128860473 22.74991720019  17.2315147484039 22.9392453917878  17.2315147484039 22.9392453917878  C 17.2315147484039 22.9392453917878  22.964626846745 18.7527523461213  22.964626846745 18.7527523461213  C 22.964626846745 18.7527523461213  26.1118438018705 18.1124401475721  26.1118438018705 18.1124401475721  C 26.1118438018705 18.1124401475721  26.1854151073151 16.1255577773218  26.1854151073151 16.1255577773218  C 26.1854151073151 16.1255577773218  27.5941693634189 11.0370967177518  27.5941693634189 11.0370967177518  C 27.5941693634189 11.0370967177518  31.9757493321132 8.237592221768  31.9757493321132 8.237592221768  C 31.9757493321132 8.237592221768  36.7905825439806 8.12271893697832  36.7905825439806 8.12271893697832  C 36.7905825439806 8.12271893697832  37.3982270296886 6.86336737039574  37.3982270296886 6.86336737039574  C 37.3982270296886 6.86336737039574  43.3765768128449 7.36753345363908  43.3765768128449 7.36753345363908  C 43.3765768128449 7.36753345363908  51.3672167907111 4.31488227450745  51.3672167907111 4.31488227450745  C 51.3672167907111 4.31488227450745  54.3454922296309 2.9598029706002  54.3454922296309 2.9598029706002  C 54.3454922296309 2.9598029706002  58.0431315440078 0.0390433406716966  58.0431315440078 0.0390433406716966  C 58.0431315440078 0.0390433406716966  60.7516455296311 0.411317874711916  60.7516455296311 0.411317874711916  C 60.7516455296311 0.411317874711916  62.7544199556199 2.00678016345662  62.7544199556199 2.00678016345662  C 62.7544199556199 2.00678016345662  61.2720943940715 4.04684460999845  61.2720943940715 4.04684460999845  C 61.2720943940715 4.04684460999845  56.3646158346074 5.06155862563979  56.3646158346074 5.06155862563979  C 56.3646158346074 5.06155862563979  54.4245132614046 8.08230055899677  54.4245132614046 8.08230055899677  C 54.4245132614046 8.08230055899677  51.4680367278017 9.81390896304769  51.4680367278017 9.81390896304769  C 51.4680367278017 9.81390896304769  49.2472732486438 12.0539380164454  49.2472732486438 12.0539380164454  C 49.2472732486438 12.0539380164454  46.3330533464478 16.3489224977462  46.3330533464478 16.3489224977462  C 46.3330533464478 16.3489224977462  44.2158346675449 19.8631940990877  44.2158346675449 19.8631940990877  C 44.2158346675449 19.8631940990877  50.1383035034717 20.2652505958514  50.1383035034717 20.2652505958514  C 50.1383035034717 20.2652505958514  51.116529379567 23.0222094308024  51.116529379567 23.0222094308024  C 51.116529379567 23.0222094308024  52.803219678461 24.3389976397797  52.803219678461 24.3389976397797  C 52.803219678461 24.3389976397797  53.4081393010047 26.7492093373102  53.4081393010047 26.7492093373102  C 53.4081393010047 26.7492093373102  52.5007598671893 28.9637109940879  52.5007598671893 28.9637109940879  C 52.5007598671893 28.9637109940879  52.7677964573211 30.2102988623601  52.7677964573211 30.2102988623601  C 52.7677964573211 30.2102988623601  54.6479520409026 30.7102103795004  54.6479520409026 30.7102103795004  C 54.6479520409026 30.7102103795004  56.4681606348627 32.792820487075  56.4681606348627 32.792820487075  C 56.4681606348627 32.792820487075  66.2940172064494 32.218454063127  66.2940172064494 32.218454063127  C 66.2940172064494 32.218454063127  70.7328193016005 32.9778941125697  70.7328193016005 32.9778941125697  C 70.7328193016005 32.9778941125697  76.1089743253776 38.1110281162243  76.1089743253776 38.1110281162243  C 76.1089743253776 38.1110281162243  79.1962442908816 37.4728432007263  79.1962442908816 37.4728432007263  C 79.1962442908816 37.4728432007263  84.7004678833958 37.7919356584753  84.7004678833958 37.7919356584753  C 84.7004678833958 37.7919356584753  89.054799220444 37.1133323649957  89.054799220444 37.1133323649957  C 89.054799220444 37.1133323649957  91.7578634797377 38.136555512844  91.7578634797377 38.136555512844  C 91.7578634797377 38.136555512844  90.3818075816093 41.3444983547469  90.3818075816093 41.3444983547469  C 90.3818075816093 41.3444983547469  88.6760432405631 43.3420171402552  88.6760432405631 43.3420171402552  C 88.6760432405631 43.3420171402552  88.0765733443485 47.6072196588329  88.0765733443485 47.6072196588329  C 88.0765733443485 47.6072196588329  89.613396169189 53.1009115481676  89.613396169189 53.1009115481676  C 89.613396169189 53.1009115481676  91.785112111384 54.8644291979936  91.785112111384 54.8644291979936  C 91.785112111384 54.8644291979936  92.0494238383514 56.1939811052808  92.0494238383514 56.1939811052808  C 92.0494238383514 56.1939811052808  88.1773932814394 59.1466499809843  88.1773932814394 59.1466499809843  C 88.1773932814394 59.1466499809843  90.9485791198484 60.454929057755  90.9485791198484 60.454929057755  C 90.9485791198484 60.454929057755  92.9813270406482 62.5269027500715  92.9813270406482 62.5269027500715  C 92.9813270406482 62.5269027500715  95.3110850463905 68.4386223506339  95.3110850463905 68.4386223506339  C 95.3110850463905 68.4386223506339  93.8669075691467 69.1682804373531  93.8669075691467 69.1682804373531  C 93.8669075691467 69.1682804373531  92.3791322812692 65.6731543834763  92.3791322812692 65.6731543834763  C 92.3791322812692 65.6731543834763  90.2564638760374 63.7926361658091  90.2564638760374 63.7926361658091  C 90.2564638760374 63.7926361658091  87.7277908592783 65.836955178454  87.7277908592783 65.836955178454  C 87.7277908592783 65.836955178454  72.844588254174 65.7029363461994  72.844588254174 65.7029363461994  C 72.844588254174 65.7029363461994  72.9372336017707 69.4129179882937  72.9372336017707 69.4129179882937  C 72.9372336017707 69.4129179882937  77.4141837812262 70.0255755071717  77.4141837812262 70.0255755071717  C 77.4141837812262 70.0255755071717  77.1553217805882 72.2953865232929  77.1553217805882 72.2953865232929  C 77.1553217805882 72.2953865232929  75.6293984084063 71.6806017213629  75.6293984084063 71.6806017213629  C 75.6293984084063 71.6806017213629  71.3241146083212 72.657024642075  71.3241146083212 72.657024642075  C 71.3241146083212 72.657024642075  71.2859665240166 76.9626455386338  71.2859665240166 76.9626455386338  C 71.2859665240166 76.9626455386338  74.6756963007924 79.12396511912  74.6756963007924 79.12396511912  C 74.6756963007924 79.12396511912  75.8719112300565 82.5169815865172  75.8719112300565 82.5169815865172  C 75.8719112300565 82.5169815865172  75.6920702611923 85.0867395129224  75.6920702611923 85.0867395129224  C 75.6920702611923 85.0867395129224  72.2587426737825 101.354073008963  72.2587426737825 101.354073008963  C 72.2587426737825 101.354073008963  68.4330347906689 98.1971849603005  68.4330347906689 98.1971849603005  C 68.4330347906689 98.1971849603005  66.1523243218895 98.0567842788909  66.1523243218895 98.0567842788909  C 66.1523243218895 98.0567842788909  71.0816017866707 92.0174276952292  71.0816017866707 92.0174276952292  C 71.0816017866707 92.0174276952292  65.2313205722511 89.2391960297619  65.2313205722511 89.2391960297619  C 65.2313205722511 89.2391960297619  60.6453758662111 89.7497439621599  60.6453758662111 89.7497439621599  C 60.6453758662111 89.7497439621599  57.8850894804604 88.7243935312601  57.8850894804604 88.7243935312601  C 57.8850894804604 88.7243935312601  53.6751758911365 90.2922011403333  53.6751758911365 90.2922011403333  C 53.6751758911365 90.2922011403333  46.0087946298589 89.5476520722525  46.0087946298589 89.5476520722525  C 46.0087946298589 89.5476520722525  41.5073206819219 83.3338582783545  41.5073206819219 83.3338582783545  C 41.5073206819219 83.3338582783545  37.970448294257 81.806469047263  37.970448294257 81.806469047263  C 37.970448294257 81.806469047263  35.5316957619303 79.0112191173822  35.5316957619303 79.0112191173822  C 35.5316957619303 79.0112191173822  30.4498259599311 76.2032054891915  30.4498259599311 76.2032054891915  Z " fill-rule="nonzero" fill="#f2f2f2" stroke="none" transform="matrix(1 0 0 1 1184 1958 )" />
    <path d="M 30.4498259599311 76.2032054891915  C 30.4498259599311 76.2032054891915  28.4116283128021 76.7669354978814  28.4116283128021 76.7669354978814  C 28.4116283128021 76.7669354978814  25.1417925152691 75.362928683786  25.1417925152691 75.362928683786  C 25.1417925152691 75.362928683786  21.3923808007646 73.4015737101558  21.3923808007646 73.4015737101558  C 21.3923808007646 73.4015737101558  19.2206648585696 74.3418328189893  19.2206648585696 74.3418328189893  C 19.2206648585696 74.3418328189893  12.7382153899607 73.5207015610485  12.7382153899607 73.5207015610485  C 12.7382153899607 73.5207015610485  10.8744089853666 70.9722164651603  10.8744089853666 70.9722164651603  C 10.8744089853666 70.9722164651603  9.45203041343993 71.0658169194334  9.45203041343993 71.0658169194334  C 9.45203041343993 71.0658169194334  1.80878923670626 67.6834368672946  1.80878923670626 67.6834368672946  C 1.80878923670626 67.6834368672946  0.773341234154187 65.843337027609  0.773341234154187 65.843337027609  C 0.773341234154187 65.843337027609  3.62354810433715 65.3987348698119  3.62354810433715 65.3987348698119  C 3.62354810433715 65.3987348698119  3.28566507192549 62.4290477296953  3.28566507192549 62.4290477296953  C 3.28566507192549 62.4290477296953  5.07862503423949 60.2804918475191  5.07862503423949 60.2804918475191  C 5.07862503423949 60.2804918475191  8.86890969621312 59.8826899168586  8.86890969621312 59.8826899168586  C 8.86890969621312 59.8826899168586  12.084248230454 56.1556900103508  12.084248230454 56.1556900103508  C 12.084248230454 56.1556900103508  15.0080264060813 53.0392203396695  15.0080264060813 53.0392203396695  C 15.0080264060813 53.0392203396695  12.1932427570382 51.6267043933676  12.1932427570382 51.6267043933676  C 12.1932427570382 51.6267043933676  13.6346953711175 46.6329240211727  13.6346953711175 46.6329240211727  C 13.6346953711175 46.6329240211727  11.9098569879187 41.1913339750275  11.9098569879187 41.1913339750275  C 11.9098569879187 41.1913339750275  13.54749974985 39.6277809320575  13.54749974985 39.6277809320575  C 13.54749974985 39.6277809320575  12.343110231092 34.586120099624  12.343110231092 34.586120099624  C 12.343110231092 34.586120099624  9.25039053925855 31.4058319373931  9.25039053925855 31.4058319373931  C 9.25039053925855 31.4058319373931  10.228616415354 28.5020905718777  10.228616415354 28.5020905718777  C 10.228616415354 28.5020905718777  12.6891678529975 28.9296744652614  12.6891678529975 28.9296744652614  C 12.6891678529975 28.9296744652614  14.1306204670766 27.1533931171254  14.1306204670766 27.1533931171254  C 14.1306204670766 27.1533931171254  12.356734546915 23.6263578174739  12.356734546915 23.6263578174739  C 12.356734546915 23.6263578174739  13.2859128860473 22.74991720019  13.2859128860473 22.74991720019  C 13.2859128860473 22.74991720019  17.2315147484039 22.9392453917878  17.2315147484039 22.9392453917878  C 17.2315147484039 22.9392453917878  22.964626846745 18.7527523461213  22.964626846745 18.7527523461213  C 22.964626846745 18.7527523461213  26.1118438018705 18.1124401475721  26.1118438018705 18.1124401475721  C 26.1118438018705 18.1124401475721  26.1854151073151 16.1255577773218  26.1854151073151 16.1255577773218  C 26.1854151073151 16.1255577773218  27.5941693634189 11.0370967177518  27.5941693634189 11.0370967177518  C 27.5941693634189 11.0370967177518  31.9757493321132 8.237592221768  31.9757493321132 8.237592221768  C 31.9757493321132 8.237592221768  36.7905825439806 8.12271893697832  36.7905825439806 8.12271893697832  C 36.7905825439806 8.12271893697832  37.3982270296886 6.86336737039574  37.3982270296886 6.86336737039574  C 37.3982270296886 6.86336737039574  43.3765768128449 7.36753345363908  43.3765768128449 7.36753345363908  C 43.3765768128449 7.36753345363908  51.3672167907111 4.31488227450745  51.3672167907111 4.31488227450745  C 51.3672167907111 4.31488227450745  54.3454922296309 2.9598029706002  54.3454922296309 2.9598029706002  C 54.3454922296309 2.9598029706002  58.0431315440078 0.0390433406716966  58.0431315440078 0.0390433406716966  C 58.0431315440078 0.0390433406716966  60.7516455296311 0.411317874711916  60.7516455296311 0.411317874711916  C 60.7516455296311 0.411317874711916  62.7544199556199 2.00678016345662  62.7544199556199 2.00678016345662  C 62.7544199556199 2.00678016345662  61.2720943940715 4.04684460999845  61.2720943940715 4.04684460999845  C 61.2720943940715 4.04684460999845  56.3646158346074 5.06155862563979  56.3646158346074 5.06155862563979  C 56.3646158346074 5.06155862563979  54.4245132614046 8.08230055899677  54.4245132614046 8.08230055899677  C 54.4245132614046 8.08230055899677  51.4680367278017 9.81390896304769  51.4680367278017 9.81390896304769  C 51.4680367278017 9.81390896304769  49.2472732486438 12.0539380164454  49.2472732486438 12.0539380164454  C 49.2472732486438 12.0539380164454  46.3330533464478 16.3489224977462  46.3330533464478 16.3489224977462  C 46.3330533464478 16.3489224977462  44.2158346675449 19.8631940990877  44.2158346675449 19.8631940990877  C 44.2158346675449 19.8631940990877  50.1383035034717 20.2652505958514  50.1383035034717 20.2652505958514  C 50.1383035034717 20.2652505958514  51.116529379567 23.0222094308024  51.116529379567 23.0222094308024  C 51.116529379567 23.0222094308024  52.803219678461 24.3389976397797  52.803219678461 24.3389976397797  C 52.803219678461 24.3389976397797  53.4081393010047 26.7492093373102  53.4081393010047 26.7492093373102  C 53.4081393010047 26.7492093373102  52.5007598671893 28.9637109940879  52.5007598671893 28.9637109940879  C 52.5007598671893 28.9637109940879  52.7677964573211 30.2102988623601  52.7677964573211 30.2102988623601  C 52.7677964573211 30.2102988623601  54.6479520409026 30.7102103795004  54.6479520409026 30.7102103795004  C 54.6479520409026 30.7102103795004  56.4681606348627 32.792820487075  56.4681606348627 32.792820487075  C 56.4681606348627 32.792820487075  66.2940172064494 32.218454063127  66.2940172064494 32.218454063127  C 66.2940172064494 32.218454063127  70.7328193016005 32.9778941125697  70.7328193016005 32.9778941125697  C 70.7328193016005 32.9778941125697  76.1089743253776 38.1110281162243  76.1089743253776 38.1110281162243  C 76.1089743253776 38.1110281162243  79.1962442908816 37.4728432007263  79.1962442908816 37.4728432007263  C 79.1962442908816 37.4728432007263  84.7004678833958 37.7919356584753  84.7004678833958 37.7919356584753  C 84.7004678833958 37.7919356584753  89.054799220444 37.1133323649957  89.054799220444 37.1133323649957  C 89.054799220444 37.1133323649957  91.7578634797377 38.136555512844  91.7578634797377 38.136555512844  C 91.7578634797377 38.136555512844  90.3818075816093 41.3444983547469  90.3818075816093 41.3444983547469  C 90.3818075816093 41.3444983547469  88.6760432405631 43.3420171402552  88.6760432405631 43.3420171402552  C 88.6760432405631 43.3420171402552  88.0765733443485 47.6072196588329  88.0765733443485 47.6072196588329  C 88.0765733443485 47.6072196588329  89.613396169189 53.1009115481676  89.613396169189 53.1009115481676  C 89.613396169189 53.1009115481676  91.785112111384 54.8644291979936  91.785112111384 54.8644291979936  C 91.785112111384 54.8644291979936  92.0494238383514 56.1939811052808  92.0494238383514 56.1939811052808  C 92.0494238383514 56.1939811052808  88.1773932814394 59.1466499809843  88.1773932814394 59.1466499809843  C 88.1773932814394 59.1466499809843  90.9485791198484 60.454929057755  90.9485791198484 60.454929057755  C 90.9485791198484 60.454929057755  92.9813270406482 62.5269027500715  92.9813270406482 62.5269027500715  C 92.9813270406482 62.5269027500715  95.3110850463905 68.4386223506339  95.3110850463905 68.4386223506339  C 95.3110850463905 68.4386223506339  93.8669075691467 69.1682804373531  93.8669075691467 69.1682804373531  C 93.8669075691467 69.1682804373531  92.3791322812692 65.6731543834763  92.3791322812692 65.6731543834763  C 92.3791322812692 65.6731543834763  90.2564638760374 63.7926361658091  90.2564638760374 63.7926361658091  C 90.2564638760374 63.7926361658091  87.7277908592783 65.836955178454  87.7277908592783 65.836955178454  C 87.7277908592783 65.836955178454  72.844588254174 65.7029363461994  72.844588254174 65.7029363461994  C 72.844588254174 65.7029363461994  72.9372336017707 69.4129179882937  72.9372336017707 69.4129179882937  C 72.9372336017707 69.4129179882937  77.4141837812262 70.0255755071717  77.4141837812262 70.0255755071717  C 77.4141837812262 70.0255755071717  77.1553217805882 72.2953865232929  77.1553217805882 72.2953865232929  C 77.1553217805882 72.2953865232929  75.6293984084063 71.6806017213629  75.6293984084063 71.6806017213629  C 75.6293984084063 71.6806017213629  71.3241146083212 72.657024642075  71.3241146083212 72.657024642075  C 71.3241146083212 72.657024642075  71.2859665240166 76.9626455386338  71.2859665240166 76.9626455386338  C 71.2859665240166 76.9626455386338  74.6756963007924 79.12396511912  74.6756963007924 79.12396511912  C 74.6756963007924 79.12396511912  75.8719112300565 82.5169815865172  75.8719112300565 82.5169815865172  C 75.8719112300565 82.5169815865172  75.6920702611923 85.0867395129224  75.6920702611923 85.0867395129224  C 75.6920702611923 85.0867395129224  72.2587426737825 101.354073008963  72.2587426737825 101.354073008963  C 72.2587426737825 101.354073008963  68.4330347906689 98.1971849603005  68.4330347906689 98.1971849603005  C 68.4330347906689 98.1971849603005  66.1523243218895 98.0567842788909  66.1523243218895 98.0567842788909  C 66.1523243218895 98.0567842788909  71.0816017866707 92.0174276952292  71.0816017866707 92.0174276952292  C 71.0816017866707 92.0174276952292  65.2313205722511 89.2391960297619  65.2313205722511 89.2391960297619  C 65.2313205722511 89.2391960297619  60.6453758662111 89.7497439621599  60.6453758662111 89.7497439621599  C 60.6453758662111 89.7497439621599  57.8850894804604 88.7243935312601  57.8850894804604 88.7243935312601  C 57.8850894804604 88.7243935312601  53.6751758911365 90.2922011403333  53.6751758911365 90.2922011403333  C 53.6751758911365 90.2922011403333  46.0087946298589 89.5476520722525  46.0087946298589 89.5476520722525  C 46.0087946298589 89.5476520722525  41.5073206819219 83.3338582783545  41.5073206819219 83.3338582783545  C 41.5073206819219 83.3338582783545  37.970448294257 81.806469047263  37.970448294257 81.806469047263  C 37.970448294257 81.806469047263  35.5316957619303 79.0112191173822  35.5316957619303 79.0112191173822  C 35.5316957619303 79.0112191173822  30.4498259599311 76.2032054891915  30.4498259599311 76.2032054891915  Z " stroke-width="2" stroke="#505050" fill="none" stroke-opacity="0.211764705882353" transform="matrix(1 0 0 1 1184 1958 )" mask="url(#clip780)" />
  </g>
</svg>