<?xml version="1.0" encoding="utf-8"?>
<svg version="1.1" xmlns:xlink="http://www.w3.org/1999/xlink" width="65px" height="94px" xmlns="http://www.w3.org/2000/svg">
  <defs>
    <mask fill="white" id="clip781">
      <path d="M 39.9016706217344 44.2749368794034  C 39.9016706217344 44.2749368794034  41.7019360434918 53.2814631835068  41.7019360434918 53.2814631835068  C 41.7019360434918 53.2814631835068  34.8777371480651 50.4586294833894  34.8777371480651 50.4586294833894  C 34.8777371480651 50.4586294833894  26.4064792124426 50.572922979269  26.4064792124426 50.572922979269  C 26.4064792124426 50.572922979269  27.5208001286207 44.1606433835238  27.5208001286207 44.1606433835238  C 27.5208001286207 44.1606433835238  20.8240296591313 44.1973035614476  20.8240296591313 44.1973035614476  C 20.8240296591313 44.1973035614476  20.2221336898089 52.5417901818718  20.2221336898089 52.5417901818718  C 20.2221336898089 52.5417901818718  16.1200228718587 61.4998124815563  16.1200228718587 61.4998124815563  C 16.1200228718587 61.4998124815563  13.650080403152 66.8953280794887  13.650080403152 66.8953280794887  C 13.650080403152 66.8953280794887  14.1706390793228 71.3031753545382  14.1706390793228 71.3031753545382  C 14.1706390793228 71.3031753545382  19.1213689891559 71.4951021683736  19.1213689891559 71.4951021683736  C 19.1213689891559 71.4951021683736  22.20676364271 77.0415714401091  22.20676364271 77.0415714401091  C 22.20676364271 77.0415714401091  23.5732301676587 82.2904463263468  23.5732301676587 82.2904463263468  C 23.5732301676587 82.2904463263468  27.8136143839669 85.7580678617087  27.8136143839669 85.7580678617087  C 27.8136143839669 85.7580678617087  34.3897133891546 86.4610806854201  34.3897133891546 86.4610806854201  C 34.3897133891546 86.4610806854201  38.3291496208017 89.5987606194695  38.3291496208017 89.5987606194695  C 38.3291496208017 89.5987606194695  35.84565093657 92.0787138319484  35.84565093657 92.0787138319484  C 35.84565093657 92.0787138319484  28.8547317363086 92.8011349851489  28.8547317363086 92.8011349851489  C 28.8547317363086 92.8011349851489  28.258258253196 89.7001152290231  28.258258253196 89.7001152290231  C 28.258258253196 89.7001152290231  22.054934028827 87.0519564943062  22.054934028827 87.0519564943062  C 22.054934028827 87.0519564943062  20.7345586366646 88.1301970214713  20.7345586366646 88.1301970214713  C 20.7345586366646 88.1301970214713  17.730501276262 85.8098234070127  17.730501276262 85.8098234070127  C 17.730501276262 85.8098234070127  16.4291045858348 82.8123147414947  16.4291045858348 82.8123147414947  C 16.4291045858348 82.8123147414947  12.3920636024057 79.3921357893281  12.3920636024057 79.3921357893281  C 12.3920636024057 79.3921357893281  8.70748422263415 76.5132335817982  8.70748422263415 76.5132335817982  C 8.70748422263415 76.5132335817982  7.45760115120309 80.0778967646048  7.45760115120309 80.0778967646048  C 7.45760115120309 80.0778967646048  6.01793106241847 76.7094733577424  6.01793106241847 76.7094733577424  C 6.01793106241847 76.7094733577424  6.8475714525655 72.918379664231  6.8475714525655 72.918379664231  C 6.8475714525655 72.918379664231  9.08705825734218 67.0786289691069  9.08705825734218 67.0786289691069  C 9.08705825734218 67.0786289691069  12.7689263940088 60.8011126199536  12.7689263940088 60.8011126199536  C 12.7689263940088 60.8011126199536  16.9442407757954 55.0864378259805  16.9442407757954 55.0864378259805  C 16.9442407757954 55.0864378259805  13.9727183326536 49.4774306036695  13.9727183326536 49.4774306036695  C 13.9727183326536 49.4774306036695  14.0920130292762 45.0469570968534  14.0920130292762 45.0469570968534  C 14.0920130292762 45.0469570968534  13.2217039925528 41.596587409926  13.2217039925528 41.596587409926  C 13.2217039925528 41.596587409926  8.15167938609758 36.6711846818378  8.15167938609758 36.6711846818378  C 8.15167938609758 36.6711846818378  6.33785774881475 33.5529130772771  6.33785774881475 33.5529130772771  C 6.33785774881475 33.5529130772771  8.96234107450975 32.4035086753197  8.96234107450975 32.4035086753197  C 8.96234107450975 32.4035086753197  11.7440765002975 26.973489380518  11.7440765002975 26.973489380518  C 11.7440765002975 26.973489380518  8.63156941569245 22.8395151993681  8.63156941569245 22.8395151993681  C 8.63156941569245 22.8395151993681  3.80826793179722 18.2462105536466  3.80826793179722 18.2462105536466  C 3.80826793179722 18.2462105536466  0.131822281340832 12.6997412819111  0.131822281340832 12.6997412819111  C 0.131822281340832 12.6997412819111  3.34193411772782 11.5481803988991  3.34193411772782 11.5481803988991  C 3.34193411772782 11.5481803988991  6.80690280598952 4.6690058355879  6.80690280598952 4.6690058355879  C 6.80690280598952 4.6690058355879  12.1751641540012 4.38219385536226  12.1751641540012 4.38219385536226  C 12.1751641540012 4.38219385536226  16.6080466307683 1.60895921949468  16.6080466307683 1.60895921949468  C 16.6080466307683 1.60895921949468  20.9650143005946 0.127456735170123  20.9650143005946 0.127456735170123  C 20.9650143005946 0.127456735170123  24.2537521870277 2.10494986199054  24.2537521870277 2.10494986199054  C 24.2537521870277 2.10494986199054  24.6902623269417 5.94348613869681  24.6902623269417 5.94348613869681  C 24.6902623269417 5.94348613869681  29.8253567679185 6.23676756208582  29.8253567679185 6.23676756208582  C 29.8253567679185 6.23676756208582  27.9573102685346 12.9304847547242  27.9573102685346 12.9304847547242  C 27.9573102685346 12.9304847547242  28.1362523134685 18.5934040033936  28.1362523134685 18.5934040033936  C 28.1362523134685 18.5934040033936  38.1176726586075 14.8281880825343  38.1176726586075 14.8281880825343  C 38.1176726586075 14.8281880825343  40.3951168668548 15.9430887876225  40.3951168668548 15.9430887876225  C 40.3951168668548 15.9430887876225  44.8469780453576 15.7597878980047  44.8469780453576 15.7597878980047  C 44.8469780453576 15.7597878980047  46.3788303997144 13.5601772225884  46.3788303997144 13.5601772225884  C 46.3788303997144 13.5601772225884  52.1266657824336 13.9936299145087  52.1266657824336 13.9936299145087  C 52.1266657824336 13.9936299145087  57.9097473255191 19.1217418617041  57.9097473255191 19.1217418617041  C 57.9097473255191 19.1217418617041  58.3842148689041 25.3216248929016  58.3842148689041 25.3216248929016  C 58.3842148689041 25.3216248929016  64.5387367173819 30.7710525171923  64.5387367173819 30.7710525171923  C 64.5387367173819 30.7710525171923  64.1998313292499 36.0393357329191  64.1998313292499 36.0393357329191  C 64.1998313292499 36.0393357329191  61.7244663743334 38.8362916603845  61.7244663743334 38.8362916603845  C 61.7244663743334 38.8362916603845  54.5993194942452 37.9456649849464  54.5993194942452 37.9456649849464  C 54.5993194942452 37.9456649849464  44.7710632384159 39.1317295648274  44.7710632384159 39.1317295648274  C 44.7710632384159 39.1317295648274  39.9016706217344 44.2749368794034  39.9016706217344 44.2749368794034  Z " fill-rule="evenodd" />
    </mask>
  </defs>
  <g transform="matrix(1 0 0 1 -2543 -1908 )">
    <path d="M 39.9016706217344 44.2749368794034  C 39.9016706217344 44.2749368794034  41.7019360434918 53.2814631835068  41.7019360434918 53.2814631835068  C 41.7019360434918 53.2814631835068  34.8777371480651 50.4586294833894  34.8777371480651 50.4586294833894  C 34.8777371480651 50.4586294833894  26.4064792124426 50.572922979269  26.4064792124426 50.572922979269  C 26.4064792124426 50.572922979269  27.5208001286207 44.1606433835238  27.5208001286207 44.1606433835238  C 27.5208001286207 44.1606433835238  20.8240296591313 44.1973035614476  20.8240296591313 44.1973035614476  C 20.8240296591313 44.1973035614476  20.2221336898089 52.5417901818718  20.2221336898089 52.5417901818718  C 20.2221336898089 52.5417901818718  16.1200228718587 61.4998124815563  16.1200228718587 61.4998124815563  C 16.1200228718587 61.4998124815563  13.650080403152 66.8953280794887  13.650080403152 66.8953280794887  C 13.650080403152 66.8953280794887  14.1706390793228 71.3031753545382  14.1706390793228 71.3031753545382  C 14.1706390793228 71.3031753545382  19.1213689891559 71.4951021683736  19.1213689891559 71.4951021683736  C 19.1213689891559 71.4951021683736  22.20676364271 77.0415714401091  22.20676364271 77.0415714401091  C 22.20676364271 77.0415714401091  23.5732301676587 82.2904463263468  23.5732301676587 82.2904463263468  C 23.5732301676587 82.2904463263468  27.8136143839669 85.7580678617087  27.8136143839669 85.7580678617087  C 27.8136143839669 85.7580678617087  34.3897133891546 86.4610806854201  34.3897133891546 86.4610806854201  C 34.3897133891546 86.4610806854201  38.3291496208017 89.5987606194695  38.3291496208017 89.5987606194695  C 38.3291496208017 89.5987606194695  35.84565093657 92.0787138319484  35.84565093657 92.0787138319484  C 35.84565093657 92.0787138319484  28.8547317363086 92.8011349851489  28.8547317363086 92.8011349851489  C 28.8547317363086 92.8011349851489  28.258258253196 89.7001152290231  28.258258253196 89.7001152290231  C 28.258258253196 89.7001152290231  22.054934028827 87.0519564943062  22.054934028827 87.0519564943062  C 22.054934028827 87.0519564943062  20.7345586366646 88.1301970214713  20.7345586366646 88.1301970214713  C 20.7345586366646 88.1301970214713  17.730501276262 85.8098234070127  17.730501276262 85.8098234070127  C 17.730501276262 85.8098234070127  16.4291045858348 82.8123147414947  16.4291045858348 82.8123147414947  C 16.4291045858348 82.8123147414947  12.3920636024057 79.3921357893281  12.3920636024057 79.3921357893281  C 12.3920636024057 79.3921357893281  8.70748422263415 76.5132335817982  8.70748422263415 76.5132335817982  C 8.70748422263415 76.5132335817982  7.45760115120309 80.0778967646048  7.45760115120309 80.0778967646048  C 7.45760115120309 80.0778967646048  6.01793106241847 76.7094733577424  6.01793106241847 76.7094733577424  C 6.01793106241847 76.7094733577424  6.8475714525655 72.918379664231  6.8475714525655 72.918379664231  C 6.8475714525655 72.918379664231  9.08705825734218 67.0786289691069  9.08705825734218 67.0786289691069  C 9.08705825734218 67.0786289691069  12.7689263940088 60.8011126199536  12.7689263940088 60.8011126199536  C 12.7689263940088 60.8011126199536  16.9442407757954 55.0864378259805  16.9442407757954 55.0864378259805  C 16.9442407757954 55.0864378259805  13.9727183326536 49.4774306036695  13.9727183326536 49.4774306036695  C 13.9727183326536 49.4774306036695  14.0920130292762 45.0469570968534  14.0920130292762 45.0469570968534  C 14.0920130292762 45.0469570968534  13.2217039925528 41.596587409926  13.2217039925528 41.596587409926  C 13.2217039925528 41.596587409926  8.15167938609758 36.6711846818378  8.15167938609758 36.6711846818378  C 8.15167938609758 36.6711846818378  6.33785774881475 33.5529130772771  6.33785774881475 33.5529130772771  C 6.33785774881475 33.5529130772771  8.96234107450975 32.4035086753197  8.96234107450975 32.4035086753197  C 8.96234107450975 32.4035086753197  11.7440765002975 26.973489380518  11.7440765002975 26.973489380518  C 11.7440765002975 26.973489380518  8.63156941569245 22.8395151993681  8.63156941569245 22.8395151993681  C 8.63156941569245 22.8395151993681  3.80826793179722 18.2462105536466  3.80826793179722 18.2462105536466  C 3.80826793179722 18.2462105536466  0.131822281340832 12.6997412819111  0.131822281340832 12.6997412819111  C 0.131822281340832 12.6997412819111  3.34193411772782 11.5481803988991  3.34193411772782 11.5481803988991  C 3.34193411772782 11.5481803988991  6.80690280598952 4.6690058355879  6.80690280598952 4.6690058355879  C 6.80690280598952 4.6690058355879  12.1751641540012 4.38219385536226  12.1751641540012 4.38219385536226  C 12.1751641540012 4.38219385536226  16.6080466307683 1.60895921949468  16.6080466307683 1.60895921949468  C 16.6080466307683 1.60895921949468  20.9650143005946 0.127456735170123  20.9650143005946 0.127456735170123  C 20.9650143005946 0.127456735170123  24.2537521870277 2.10494986199054  24.2537521870277 2.10494986199054  C 24.2537521870277 2.10494986199054  24.6902623269417 5.94348613869681  24.6902623269417 5.94348613869681  C 24.6902623269417 5.94348613869681  29.8253567679185 6.23676756208582  29.8253567679185 6.23676756208582  C 29.8253567679185 6.23676756208582  27.9573102685346 12.9304847547242  27.9573102685346 12.9304847547242  C 27.9573102685346 12.9304847547242  28.1362523134685 18.5934040033936  28.1362523134685 18.5934040033936  C 28.1362523134685 18.5934040033936  38.1176726586075 14.8281880825343  38.1176726586075 14.8281880825343  C 38.1176726586075 14.8281880825343  40.3951168668548 15.9430887876225  40.3951168668548 15.9430887876225  C 40.3951168668548 15.9430887876225  44.8469780453576 15.7597878980047  44.8469780453576 15.7597878980047  C 44.8469780453576 15.7597878980047  46.3788303997144 13.5601772225884  46.3788303997144 13.5601772225884  C 46.3788303997144 13.5601772225884  52.1266657824336 13.9936299145087  52.1266657824336 13.9936299145087  C 52.1266657824336 13.9936299145087  57.9097473255191 19.1217418617041  57.9097473255191 19.1217418617041  C 57.9097473255191 19.1217418617041  58.3842148689041 25.3216248929016  58.3842148689041 25.3216248929016  C 58.3842148689041 25.3216248929016  64.5387367173819 30.7710525171923  64.5387367173819 30.7710525171923  C 64.5387367173819 30.7710525171923  64.1998313292499 36.0393357329191  64.1998313292499 36.0393357329191  C 64.1998313292499 36.0393357329191  61.7244663743334 38.8362916603845  61.7244663743334 38.8362916603845  C 61.7244663743334 38.8362916603845  54.5993194942452 37.9456649849464  54.5993194942452 37.9456649849464  C 54.5993194942452 37.9456649849464  44.7710632384159 39.1317295648274  44.7710632384159 39.1317295648274  C 44.7710632384159 39.1317295648274  39.9016706217344 44.2749368794034  39.9016706217344 44.2749368794034  Z " fill-rule="nonzero" fill="#f2f2f2" stroke="none" transform="matrix(1 0 0 1 2543 1908 )" />
    <path d="M 39.9016706217344 44.2749368794034  C 39.9016706217344 44.2749368794034  41.7019360434918 53.2814631835068  41.7019360434918 53.2814631835068  C 41.7019360434918 53.2814631835068  34.8777371480651 50.4586294833894  34.8777371480651 50.4586294833894  C 34.8777371480651 50.4586294833894  26.4064792124426 50.572922979269  26.4064792124426 50.572922979269  C 26.4064792124426 50.572922979269  27.5208001286207 44.1606433835238  27.5208001286207 44.1606433835238  C 27.5208001286207 44.1606433835238  20.8240296591313 44.1973035614476  20.8240296591313 44.1973035614476  C 20.8240296591313 44.1973035614476  20.2221336898089 52.5417901818718  20.2221336898089 52.5417901818718  C 20.2221336898089 52.5417901818718  16.1200228718587 61.4998124815563  16.1200228718587 61.4998124815563  C 16.1200228718587 61.4998124815563  13.650080403152 66.8953280794887  13.650080403152 66.8953280794887  C 13.650080403152 66.8953280794887  14.1706390793228 71.3031753545382  14.1706390793228 71.3031753545382  C 14.1706390793228 71.3031753545382  19.1213689891559 71.4951021683736  19.1213689891559 71.4951021683736  C 19.1213689891559 71.4951021683736  22.20676364271 77.0415714401091  22.20676364271 77.0415714401091  C 22.20676364271 77.0415714401091  23.5732301676587 82.2904463263468  23.5732301676587 82.2904463263468  C 23.5732301676587 82.2904463263468  27.8136143839669 85.7580678617087  27.8136143839669 85.7580678617087  C 27.8136143839669 85.7580678617087  34.3897133891546 86.4610806854201  34.3897133891546 86.4610806854201  C 34.3897133891546 86.4610806854201  38.3291496208017 89.5987606194695  38.3291496208017 89.5987606194695  C 38.3291496208017 89.5987606194695  35.84565093657 92.0787138319484  35.84565093657 92.0787138319484  C 35.84565093657 92.0787138319484  28.8547317363086 92.8011349851489  28.8547317363086 92.8011349851489  C 28.8547317363086 92.8011349851489  28.258258253196 89.7001152290231  28.258258253196 89.7001152290231  C 28.258258253196 89.7001152290231  22.054934028827 87.0519564943062  22.054934028827 87.0519564943062  C 22.054934028827 87.0519564943062  20.7345586366646 88.1301970214713  20.7345586366646 88.1301970214713  C 20.7345586366646 88.1301970214713  17.730501276262 85.8098234070127  17.730501276262 85.8098234070127  C 17.730501276262 85.8098234070127  16.4291045858348 82.8123147414947  16.4291045858348 82.8123147414947  C 16.4291045858348 82.8123147414947  12.3920636024057 79.3921357893281  12.3920636024057 79.3921357893281  C 12.3920636024057 79.3921357893281  8.70748422263415 76.5132335817982  8.70748422263415 76.5132335817982  C 8.70748422263415 76.5132335817982  7.45760115120309 80.0778967646048  7.45760115120309 80.0778967646048  C 7.45760115120309 80.0778967646048  6.01793106241847 76.7094733577424  6.01793106241847 76.7094733577424  C 6.01793106241847 76.7094733577424  6.8475714525655 72.918379664231  6.8475714525655 72.918379664231  C 6.8475714525655 72.918379664231  9.08705825734218 67.0786289691069  9.08705825734218 67.0786289691069  C 9.08705825734218 67.0786289691069  12.7689263940088 60.8011126199536  12.7689263940088 60.8011126199536  C 12.7689263940088 60.8011126199536  16.9442407757954 55.0864378259805  16.9442407757954 55.0864378259805  C 16.9442407757954 55.0864378259805  13.9727183326536 49.4774306036695  13.9727183326536 49.4774306036695  C 13.9727183326536 49.4774306036695  14.0920130292762 45.0469570968534  14.0920130292762 45.0469570968534  C 14.0920130292762 45.0469570968534  13.2217039925528 41.596587409926  13.2217039925528 41.596587409926  C 13.2217039925528 41.596587409926  8.15167938609758 36.6711846818378  8.15167938609758 36.6711846818378  C 8.15167938609758 36.6711846818378  6.33785774881475 33.5529130772771  6.33785774881475 33.5529130772771  C 6.33785774881475 33.5529130772771  8.96234107450975 32.4035086753197  8.96234107450975 32.4035086753197  C 8.96234107450975 32.4035086753197  11.7440765002975 26.973489380518  11.7440765002975 26.973489380518  C 11.7440765002975 26.973489380518  8.63156941569245 22.8395151993681  8.63156941569245 22.8395151993681  C 8.63156941569245 22.8395151993681  3.80826793179722 18.2462105536466  3.80826793179722 18.2462105536466  C 3.80826793179722 18.2462105536466  0.131822281340832 12.6997412819111  0.131822281340832 12.6997412819111  C 0.131822281340832 12.6997412819111  3.34193411772782 11.5481803988991  3.34193411772782 11.5481803988991  C 3.34193411772782 11.5481803988991  6.80690280598952 4.6690058355879  6.80690280598952 4.6690058355879  C 6.80690280598952 4.6690058355879  12.1751641540012 4.38219385536226  12.1751641540012 4.38219385536226  C 12.1751641540012 4.38219385536226  16.6080466307683 1.60895921949468  16.6080466307683 1.60895921949468  C 16.6080466307683 1.60895921949468  20.9650143005946 0.127456735170123  20.9650143005946 0.127456735170123  C 20.9650143005946 0.127456735170123  24.2537521870277 2.10494986199054  24.2537521870277 2.10494986199054  C 24.2537521870277 2.10494986199054  24.6902623269417 5.94348613869681  24.6902623269417 5.94348613869681  C 24.6902623269417 5.94348613869681  29.8253567679185 6.23676756208582  29.8253567679185 6.23676756208582  C 29.8253567679185 6.23676756208582  27.9573102685346 12.9304847547242  27.9573102685346 12.9304847547242  C 27.9573102685346 12.9304847547242  28.1362523134685 18.5934040033936  28.1362523134685 18.5934040033936  C 28.1362523134685 18.5934040033936  38.1176726586075 14.8281880825343  38.1176726586075 14.8281880825343  C 38.1176726586075 14.8281880825343  40.3951168668548 15.9430887876225  40.3951168668548 15.9430887876225  C 40.3951168668548 15.9430887876225  44.8469780453576 15.7597878980047  44.8469780453576 15.7597878980047  C 44.8469780453576 15.7597878980047  46.3788303997144 13.5601772225884  46.3788303997144 13.5601772225884  C 46.3788303997144 13.5601772225884  52.1266657824336 13.9936299145087  52.1266657824336 13.9936299145087  C 52.1266657824336 13.9936299145087  57.9097473255191 19.1217418617041  57.9097473255191 19.1217418617041  C 57.9097473255191 19.1217418617041  58.3842148689041 25.3216248929016  58.3842148689041 25.3216248929016  C 58.3842148689041 25.3216248929016  64.5387367173819 30.7710525171923  64.5387367173819 30.7710525171923  C 64.5387367173819 30.7710525171923  64.1998313292499 36.0393357329191  64.1998313292499 36.0393357329191  C 64.1998313292499 36.0393357329191  61.7244663743334 38.8362916603845  61.7244663743334 38.8362916603845  C 61.7244663743334 38.8362916603845  54.5993194942452 37.9456649849464  54.5993194942452 37.9456649849464  C 54.5993194942452 37.9456649849464  44.7710632384159 39.1317295648274  44.7710632384159 39.1317295648274  C 44.7710632384159 39.1317295648274  39.9016706217344 44.2749368794034  39.9016706217344 44.2749368794034  Z " stroke-width="2" stroke="#505050" fill="none" stroke-opacity="0.211764705882353" transform="matrix(1 0 0 1 2543 1908 )" mask="url(#clip781)" />
  </g>
</svg>