<?xml version="1.0" encoding="utf-8"?>
<svg version="1.1" xmlns:xlink="http://www.w3.org/1999/xlink" width="313px" height="229px" xmlns="http://www.w3.org/2000/svg">
  <defs>
    <mask fill="white" id="clip782">
      <path d="M 242.982945004498 203.127194749719  C 242.982945004498 203.127194749719  248.021272641832 203.824094890702  248.021272641832 203.824094890702  C 248.021272641832 203.824094890702  255.455275675348 206.562376367736  255.455275675348 206.562376367736  C 255.455275675348 206.562376367736  261.636535864376 205.473067839675  261.636535864376 205.473067839675  C 261.636535864376 205.473067839675  267.640817384248 203.950609070142  267.640817384248 203.950609070142  C 267.640817384248 203.950609070142  272.256540197971 204.482397485416  272.256540197971 204.482397485416  C 272.256540197971 204.482397485416  272.802633444065 213.97096094342  272.802633444065 213.97096094342  C 272.802633444065 213.97096094342  270.165469577247 218.316384636606  270.165469577247 218.316384636606  C 270.165469577247 218.316384636606  269.372399486185 224.886544734984  269.372399486185 224.886544734984  C 269.372399486185 224.886544734984  266.683096063208 222.641454126955  266.683096063208 222.641454126955  C 266.683096063208 222.641454126955  261.342907837581 228.377478364279  261.342907837581 228.377478364279  C 261.342907837581 228.377478364279  259.751279281125 227.93146227405  259.751279281125 227.93146227405  C 259.751279281125 227.93146227405  253.023925846002 227.674145298918  253.023925846002 227.674145298918  C 253.023925846002 227.674145298918  248.279226235464 220.649391877805  248.279226235464 220.649391877805  C 248.279226235464 220.649391877805  247.225458363603 213.739375665801  247.225458363603 213.739375665801  C 247.225458363603 213.739375665801  242.78810771569 206.761797023463  242.78810771569 206.761797023463  C 242.78810771569 206.761797023463  242.982945004498 203.127194749719  242.982945004498 203.127194749719  Z M 236.14852546375 17.0612900315367  C 236.14852546375 17.0612900315367  235.885083495784 19.2785046339259  235.885083495784 19.2785046339259  C 235.885083495784 19.2785046339259  238.65671253375 24.1117751501616  238.65671253375 24.1117751501616  C 238.65671253375 24.1117751501616  243.59350524593 21.787345141466  243.59350524593 21.787345141466  C 243.59350524593 21.787345141466  246.142855123426 24.3991124390594  246.142855123426 24.3991124390594  C 246.142855123426 24.3991124390594  249.836531049271 26.8114590809249  249.836531049271 26.8114590809249  C 249.836531049271 26.8114590809249  249.046205145375 29.5561734823362  249.046205145375 29.5561734823362  C 249.046205145375 29.5561734823362  250.687229070825 34.8826348675752  250.687229070825 34.8826348675752  C 250.687229070825 34.8826348675752  251.85625280367 37.9961702666766  251.85625280367 37.9961702666766  C 251.85625280367 37.9961702666766  253.793648943081 38.7573996514431  253.793648943081 38.7573996514431  C 253.793648943081 38.7573996514431  255.881975376637 44.1074484260691  255.881975376637 44.1074484260691  C 255.881975376637 44.1074484260691  255.138300654569 47.366796777745  255.138300654569 47.366796777745  C 255.138300654569 47.366796777745  257.630022601573 51.64469148932  257.630022601573 51.64469148932  C 257.630022601573 51.64469148932  265.966863212803 54.9512146197703  265.966863212803 54.9512146197703  C 265.966863212803 54.9512146197703  271.400353802084 57.9682561531971  271.400353802084 57.9682561531971  C 271.400353802084 57.9682561531971  276.562169861901 60.7387022521217  276.562169861901 60.7387022521217  C 276.562169861901 60.7387022521217  275.555053171868 62.2847484110417  275.555053171868 62.2847484110417  C 275.555053171868 62.2847484110417  279.956729386619 66.2988932231059  279.956729386619 66.2988932231059  C 279.956729386619 66.2988932231059  282.94789339789 73.2657503248135  282.94789339789 73.2657503248135  C 282.94789339789 73.2657503248135  286.018638836983 71.8462183453337  286.018638836983 71.8462183453337  C 286.018638836983 71.8462183453337  289.138779645071 74.6466847580236  289.138779645071 74.6466847580236  C 289.138779645071 74.6466847580236  291.021292041155 73.6517257875119  291.021292041155 73.6517257875119  C 291.021292041155 73.6517257875119  292.346734442479 80.5306662560493  292.346734442479 80.5306662560493  C 292.346734442479 80.5306662560493  297.804922716257 84.5426667599874  297.804922716257 84.5426667599874  C 297.804922716257 84.5426667599874  301.377854406784 87.0450743431495  301.377854406784 87.0450743431495  C 301.377854406784 87.0450743431495  307.390368488155 92.3801129608932  307.390368488155 92.3801129608932  C 307.390368488155 92.3801129608932  309.552787975203 99.2708303997622  309.552787975203 99.2708303997622  C 309.552787975203 99.2708303997622  309.750369451176 103.074833015469  309.750369451176 103.074833015469  C 309.750369451176 103.074833015469  309.22074132808 107.22835785573  309.22074132808 107.22835785573  C 309.22074132808 107.22835785573  312.886975382261 112.96652640118  312.886975382261 112.96652640118  C 312.886975382261 112.96652640118  312.447905435653 118.994176543655  312.447905435653 118.994176543655  C 312.447905435653 118.994176543655  311.116974659996 122.167752570287  311.116974659996 122.167752570287  C 311.116974659996 122.167752570287  309.039624975104 128.324061200328  309.039624975104 128.324061200328  C 309.039624975104 128.324061200328  309.196043643583 132.310330006753  309.196043643583 132.310330006753  C 309.196043643583 132.310330006753  307.673019766285 137.328011021833  307.673019766285 137.328011021833  C 307.673019766285 137.328011021833  304.275716054401 143.752358167637  304.275716054401 143.752358167637  C 304.275716054401 143.752358167637  298.576039309989 147.249724721311  298.576039309989 147.249724721311  C 298.576039309989 147.249724721311  295.76873583886 152.803482767916  295.76873583886 152.803482767916  C 295.76873583886 152.803482767916  293.2001766512 156.375900106004  293.2001766512 156.375900106004  C 293.2001766512 156.375900106004  290.919757116002 162.663011531737  290.919757116002 162.663011531737  C 290.919757116002 162.663011531737  287.950546602061 166.323345502994  287.950546602061 166.323345502994  C 287.950546602061 166.323345502994  286.004917901152 171.862093392718  286.004917901152 171.862093392718  C 286.004917901152 171.862093392718  285.01152214695 177.01057720349  285.01152214695 177.01057720349  C 285.01152214695 177.01057720349  285.406685098898 179.388614915338  285.406685098898 179.388614915338  C 285.406685098898 179.388614915338  280.996776322648 182.013248061687  280.996776322648 182.013248061687  C 280.996776322648 182.013248061687  272.382772807622 182.287719501829  272.382772807622 182.287719501829  C 272.382772807622 182.287719501829  265.280816421228 185.405543517182  265.280816421228 185.405543517182  C 265.280816421228 185.405543517182  261.746303351029 188.364688731204  261.746303351029 188.364688731204  C 261.746303351029 188.364688731204  257.097650291311 191.664778937276  257.097650291311 191.664778937276  C 257.097650291311 191.664778937276  250.725647691154 188.268194865529  250.725647691154 188.268194865529  C 250.725647691154 188.268194865529  246.011134139445 186.919425054211  246.011134139445 186.919425054211  C 246.011134139445 186.919425054211  247.207599743953 182.950310712795  247.207599743953 182.950310712795  C 247.207599743953 182.950310712795  243.00076081801 184.386997157283  243.00076081801 184.386997157283  C 243.00076081801 184.386997157283  236.263781324735 189.923600738881  236.263781324735 189.923600738881  C 236.263781324735 189.923600738881  229.611871633615 187.843621856561  229.611871633615 187.843621856561  C 229.611871633615 187.843621856561  225.248614039192 186.634232073439  225.248614039192 186.634232073439  C 225.248614039192 186.634232073439  220.846937824441 186.089577809409  220.846937824441 186.089577809409  C 220.846937824441 186.089577809409  213.399213855093 183.887373363901  213.399213855093 183.887373363901  C 213.399213855093 183.887373363901  208.424002522585 179.223503189628  208.424002522585 179.223503189628  C 208.424002522585 179.223503189628  206.994281008941 173.530365114825  206.994281008941 173.530365114825  C 206.994281008941 173.530365114825  205.207815163677 169.773537277893  205.207815163677 169.773537277893  C 205.207815163677 169.773537277893  201.426325248511 166.775794517602  201.426325248511 166.775794517602  C 201.426325248511 166.775794517602  194.02525246099 165.888050953395  194.02525246099 165.888050953395  C 194.02525246099 165.888050953395  196.555393028322 162.326355155939  196.555393028322 162.326355155939  C 196.555393028322 162.326355155939  194.692089942402 156.918410061908  194.692089942402 156.918410061908  C 194.692089942402 156.918410061908  190.935297711733 161.959678466375  190.935297711733 161.959678466375  C 190.935297711733 161.959678466375  184.088550731805 163.304159661442  184.088550731805 163.304159661442  C 184.088550731805 163.304159661442  188.114273304773 159.262138843738  188.114273304773 159.262138843738  C 188.114273304773 159.262138843738  189.280552850451 155.074305073459  189.280552850451 155.074305073459  C 189.280552850451 155.074305073459  192.252507551558 151.544773897895  192.252507551558 151.544773897895  C 192.252507551558 151.544773897895  191.63506543914 146.244044210169  191.63506543914 146.244044210169  C 191.63506543914 146.244044210169  185.378318699968 152.353178061435  185.378318699968 152.353178061435  C 185.378318699968 152.353178061435  180.570502784604 154.819132406454  180.570502784604 154.819132406454  C 180.570502784604 154.819132406454  177.623245767994 160.593754190048  177.623245767994 160.593754190048  C 177.623245767994 160.593754190048  171.616220060956 157.600300046009  171.616220060956 157.600300046009  C 171.616220060956 157.600300046009  171.854964344424 153.759844192159  171.854964344424 153.759844192159  C 171.854964344424 153.759844192159  167.041660054728 148.549175445729  167.041660054728 148.549175445729  C 167.041660054728 148.549175445729  162.983007235764 145.875223212479  162.983007235764 145.875223212479  C 162.983007235764 145.875223212479  164.429193872407 144.232683187885  164.429193872407 144.232683187885  C 164.429193872407 144.232683187885  152.561977874798 139.941922627553  152.561977874798 139.941922627553  C 152.561977874798 139.941922627553  147.153184970013 139.740357663699  147.153184970013 139.740357663699  C 147.153184970013 139.740357663699  139.754856369659 136.315897586313  139.754856369659 136.315897586313  C 139.754856369659 136.315897586313  125.976292607649 136.980633105405  125.976292607649 136.980633105405  C 125.976292607649 136.980633105405  116.012149006801 139.500195153576  116.012149006801 139.500195153576  C 116.012149006801 139.500195153576  107.258191946293 141.858934092289  107.258191946293 141.858934092289  C 107.258191946293 141.858934092289  99.9147470892642 141.389330612672  99.9147470892642 141.389330612672  C 99.9147470892642 141.389330612672  91.7590228310104 145.026077194542  91.7590228310104 145.026077194542  C 91.7590228310104 145.026077194542  85.0851596425597 146.668617219137  85.0851596425597 146.668617219137  C 85.0851596425597 146.668617219137  83.6032985727561 150.421156439817  83.6032985727561 150.421156439817  C 83.6032985727561 150.421156439817  80.7630648556319 153.343848415695  80.7630648556319 153.343848415695  C 80.7630648556319 153.343848415695  74.2318993998294 153.519681682035  74.2318993998294 153.519681682035  C 74.2318993998294 153.519681682035  69.3993857999692 154.16082981174  69.3993857999692 154.16082981174  C 69.3993857999692 154.16082981174  62.5992900018692 152.846368930439  62.5992900018692 152.846368930439  C 62.5992900018692 152.846368930439  57.0642644874348 153.633330012718  57.0642644874348 153.633330012718  C 57.0642644874348 153.633330012718  51.7817041923004 153.963553464138  51.7817041923004 153.963553464138  C 51.7817041923004 153.963553464138  47.2043999989063 157.825452399249  47.2043999989063 157.825452399249  C 47.2043999989063 157.825452399249  44.9623990840363 157.497373255956  44.9623990840363 157.497373255956  C 44.9623990840363 157.497373255956  41.1040719282135 159.553764748888  41.1040719282135 159.553764748888  C 41.1040719282135 159.553764748888  37.4049076280366 161.873906141331  37.4049076280366 161.873906141331  C 37.4049076280366 161.873906141331  31.7903006857794 161.586568852433  31.7903006857794 161.586568852433  C 31.7903006857794 161.586568852433  26.6339730002948 161.584424544307  26.6339730002948 161.584424544307  C 26.6339730002948 161.584424544307  18.4700161805416 156.935564526917  18.4700161805416 156.935564526917  C 18.4700161805416 156.935564526917  14.3345261209223 155.558918709958  14.3345261209223 155.558918709958  C 14.3345261209223 155.558918709958  14.5019215380673 151.426836950959  14.5019215380673 151.426836950959  C 14.5019215380673 151.426836950959  18.3245742607282 150.449032445456  18.3245742607282 150.449032445456  C 18.3245742607282 150.449032445456  19.6308073518884 148.817213961492  19.6308073518884 148.817213961492  C 19.6308073518884 148.817213961492  19.3563886352582 146.252621442673  19.3563886352582 146.252621442673  C 19.3563886352582 146.252621442673  20.2976448333003 141.316424136384  20.2976448333003 141.316424136384  C 20.2976448333003 141.316424136384  19.4387142502471 137.139311906736  19.4387142502471 137.139311906736  C 19.4387142502471 137.139311906736  15.3718288697855 130.075960939354  15.3718288697855 130.075960939354  C 15.3718288697855 130.075960939354  14.1095027732857 126.119712446694  14.1095027732857 126.119712446694  C 14.1095027732857 126.119712446694  14.4415494204081 122.195628575926  14.4415494204081 122.195628575926  C 14.4415494204081 122.195628575926  11.3790365428135 117.737611981759  11.3790365428135 117.737611981759  C 11.3790365428135 117.737611981759  11.184199254006 115.734828191979  11.184199254006 115.734828191979  C 11.184199254006 115.734828191979  7.77591879345683 113.028711336838  7.77591879345683 113.028711336838  C 7.77591879345683 113.028711336838  6.8154532852507 107.736558881616  6.8154532852507 107.736558881616  C 6.8154532852507 107.736558881616  2.41652125766627 102.42510765326  2.41652125766627 102.42510765326  C 2.41652125766627 102.42510765326  1.35177663714054 99.5796107699217  1.35177663714054 99.5796107699217  C 1.35177663714054 99.5796107699217  4.7298710388601 102.465849507656  4.7298710388601 102.465849507656  C 4.7298710388601 102.465849507656  2.13386997953707 94.7302746671021  2.13386997953707 94.7302746671021  C 2.13386997953707 94.7302746671021  5.95103432786477 98.2136864935943  5.95103432786477 98.2136864935943  C 5.95103432786477 98.2136864935943  8.22870967589714 100.793289169296  8.22870967589714 100.793289169296  C 8.22870967589714 100.793289169296  8.09973287908072 97.3838392487925  8.09973287908072 97.3838392487925  C 8.09973287908072 97.3838392487925  4.29080109225151 90.615347373111  4.29080109225151 90.615347373111  C 4.29080109225151 90.615347373111  3.55261474451584 88.5396571070436  3.55261474451584 88.5396571070436  C 3.55261474451584 88.5396571070436  1.76889308641848 86.5733265554075  1.76889308641848 86.5733265554075  C 1.76889308641848 86.5733265554075  2.60587017214097 82.7843340965839  2.60587017214097 82.7843340965839  C 2.60587017214097 82.7843340965839  4.18103360559913 81.1761030020069  4.18103360559913 81.1761030020069  C 4.18103360559913 81.1761030020069  5.23205729029314 77.9188989584569  5.23205729029314 77.9188989584569  C 5.23205729029314 77.9188989584569  4.40880114040237 74.1277621915073  4.40880114040237 74.1277621915073  C 4.40880114040237 74.1277621915073  7.58931406614829 69.4853350984949  7.58931406614829 69.4853350984949  C 7.58931406614829 69.4853350984949  8.1683375582384 74.4000893235225  8.1683375582384 74.4000893235225  C 8.1683375582384 74.4000893235225  11.4201993503077 69.9592271943636  11.4201993503077 69.9592271943636  C 11.4201993503077 69.9592271943636  17.6714577151472 67.8106304520089  17.6714577151472 67.8106304520089  C 17.6714577151472 67.8106304520089  21.4200173843181 65.074493283102  21.4200173843181 65.074493283102  C 21.4200173843181 65.074493283102  27.3008104817067 62.7264758850195  27.3008104817067 62.7264758850195  C 27.3008104817067 62.7264758850195  30.7969049315771 62.2289963997638  30.7969049315771 62.2289963997638  C 30.7969049315771 62.2289963997638  32.9154174239639 63.0159574820433  32.9154174239639 63.0159574820433  C 32.9154174239639 63.0159574820433  38.9773268743282 60.6379197701954  38.9773268743282 60.6379197701954  C 38.9773268743282 60.6379197701954  43.6451892442105 59.9302980885812  43.6451892442105 59.9302980885812  C 43.6451892442105 59.9302980885812  44.8114687898893 58.5364978066147  44.8114687898893 58.5364978066147  C 44.8114687898893 58.5364978066147  46.8476556672862 57.9553903044408  46.8476556672862 57.9553903044408  C 46.8476556672862 57.9553903044408  51.1011457750568 58.105491873268  51.1011457750568 58.105491873268  C 51.1011457750568 58.105491873268  59.1882653541534 56.2463767279372  59.1882653541534 56.2463767279372  C 59.1882653541534 56.2463767279372  63.3704065956002 53.4309001583643  63.3704065956002 53.4309001583643  C 63.3704065956002 53.4309001583643  65.3352446066733 50.0536148597524  65.3352446066733 50.0536148597524  C 65.3352446066733 50.0536148597524  69.8494324952424 46.8564514437334  69.8494324952424 46.8564514437334  C 69.8494324952424 46.8564514437334  70.195200078197 44.3497552443193  70.195200078197 44.3497552443193  C 70.195200078197 44.3497552443193  70.3955257413368 40.9424496319421  70.3955257413368 40.9424496319421  C 70.3955257413368 40.9424496319421  75.7796209616246 35.6374313279641  75.7796209616246 35.6374313279641  C 75.7796209616246 35.6374313279641  79.0205060050288 41.0282219569864  79.0205060050288 41.0282219569864  C 79.0205060050288 41.0282219569864  82.2943212944292 39.7802346275945  82.2943212944292 39.7802346275945  C 82.2943212944292 39.7802346275945  79.5556225024581 36.8318109542033  79.5556225024581 36.8318109542033  C 79.5556225024581 36.8318109542033  81.9705072088053 33.8104808045245  81.9705072088053 33.8104808045245  C 81.9705072088053 33.8104808045245  85.3650667335223 35.1592506158434  85.3650667335223 35.1592506158434  C 85.3650667335223 35.1592506158434  86.2980903700659 30.4310511977867  86.2980903700659 30.4310511977867  C 86.2980903700659 30.4310511977867  90.5021851088429 27.3839893505949  90.5021851088429 27.3839893505949  C 90.5021851088429 27.3839893505949  92.3572556332641 24.9437667030901  92.3572556332641 24.9437667030901  C 92.3572556332641 24.9437667030901  96.226559537752 23.8909114131738  96.226559537752 23.8909114131738  C 96.226559537752 23.8909114131738  96.3473037730695 22.1668876797872  96.3473037730695 22.1668876797872  C 96.3473037730695 22.1668876797872  99.7281423619552 22.8852309020314  99.7281423619552 22.8852309020314  C 99.7281423619552 22.8852309020314  99.862607533104 21.3370404349854  99.862607533104 21.3370404349854  C 99.862607533104 21.3370404349854  103.246190309156 20.4535854870313  103.246190309156 20.4535854870313  C 103.246190309156 20.4535854870313  106.964563919498 19.6237382422294  106.964563919498 19.6237382422294  C 106.964563919498 19.6237382422294  112.647775540913 22.4499363524327  112.647775540913 22.4499363524327  C 112.647775540913 22.4499363524327  116.917730771681 26.1059817074377  116.917730771681 26.1059817074377  C 116.917730771681 26.1059817074377  121.733779248543 26.1488678699597  121.733779248543 26.1488678699597  C 121.733779248543 26.1488678699597  126.626664966063 26.7299753721337  126.626664966063 26.7299753721337  C 126.626664966063 26.7299753721337  124.996617789278 23.3376799166391  124.996617789278 23.3376799166391  C 124.996617789278 23.3376799166391  128.682061153624 18.3993383022249  128.682061153624 18.3993383022249  C 128.682061153624 18.3993383022249  132.150713731832 16.7932515157739  132.150713731832 16.7932515157739  C 132.150713731832 16.7932515157739  130.951503940157 15.2600712056105  130.951503940157 15.2600712056105  C 130.951503940157 15.2600712056105  134.293923908714 11.7605603438107  134.293923908714 11.7605603438107  C 134.293923908714 11.7605603438107  138.953553717098 9.60338636895137  138.953553717098 9.60338636895137  C 138.953553717098 9.60338636895137  142.891462300744 10.3303068237002  142.891462300744 10.3303068237002  C 142.891462300744 10.3303068237002  149.354023077388 9.17881335998332  149.354023077388 9.17881335998332  C 149.354023077388 9.17881335998332  149.214069531907 6.05884503650394  149.214069531907 6.05884503650394  C 149.214069531907 6.05884503650394  143.577509092319 4.05177263047186  143.577509092319 4.05177263047186  C 143.577509092319 4.05177263047186  147.674580531611 3.16617337439142  147.674580531611 3.16617337439142  C 147.674580531611 3.16617337439142  152.770536099436 4.67576629516746  152.770536099436 4.67576629516746  C 152.770536099436 4.67576629516746  158.850261363311 7.17817387832922  158.850261363311 7.17817387832922  C 158.850261363311 7.17817387832922  165.329287262954 8.74137450225825  165.329287262954 8.74137450225825  C 165.329287262954 8.74137450225825  167.527381183163 8.12381376194063  167.527381183163 8.12381376194063  C 167.527381183163 8.12381376194063  172.296778478199 10.0000833722805  172.296778478199 10.0000833722805  C 172.296778478199 10.0000833722805  176.791757056604 8.25247224950689  176.791757056604 8.25247224950689  C 176.791757056604 8.25247224950689  179.684130329888 8.78426066478022  179.684130329888 8.78426066478022  C 179.684130329888 8.78426066478022  181.484317110983 7.61132411980195  181.484317110983 7.61132411980195  C 181.484317110983 7.61132411980195  185.016085994016 10.6347985776067  185.016085994016 10.6347985776067  C 185.016085994016 10.6347985776067  182.966178180787 13.9113013942917  182.966178180787 13.9113013942917  C 182.966178180787 13.9113013942917  180.04636303584 16.3879772799405  180.04636303584 16.3879772799405  C 180.04636303584 16.3879772799405  177.400966607523 16.5938308600463  177.400966607523 16.5938308600463  C 177.400966607523 16.5938308600463  178.292827436572 19.0512079725601  178.292827436572 19.0512079725601  C 178.292827436572 19.0512079725601  176.031617211538 22.1282901335172  176.031617211538 22.1282901335172  C 176.031617211538 22.1282901335172  173.2984067939 25.1603418238266  173.2984067939 25.1603418238266  C 173.2984067939 25.1603418238266  173.849988414326 26.9058086384742  173.849988414326 26.9058086384742  C 173.849988414326 26.9058086384742  179.966781608017 30.3281244077341  179.966781608017 30.3281244077341  C 179.966781608017 30.3281244077341  185.894225887233 32.3180423487575  185.894225887233 32.3180423487575  C 185.894225887233 32.3180423487575  189.854087968209 34.4602061667342  189.854087968209 34.4602061667342  C 189.854087968209 34.4602061667342  195.416555354307 38.1527047598828  195.416555354307 38.1527047598828  C 195.416555354307 38.1527047598828  197.584463215686 38.1462718355045  197.584463215686 38.1462718355045  C 197.584463215686 38.1462718355045  201.61292997582 39.7459256975772  201.61292997582 39.7459256975772  C 201.61292997582 39.7459256975772  202.781953708665 41.6779473191956  202.781953708665 41.6779473191956  C 202.781953708665 41.6779473191956  210.12814275286 43.8051009802893  210.12814275286 43.8051009802893  C 210.12814275286 43.8051009802893  215.210377384854 41.6629371623126  215.210377384854 41.6629371623126  C 215.210377384854 41.6629371623126  216.716936139154 38.3049506368361  216.716936139154 38.3049506368361  C 216.716936139154 38.3049506368361  218.275634449615 35.5409374622895  218.275634449615 35.5409374622895  C 218.275634449615 35.5409374622895  219.233355770655 32.1314875417863  219.233355770655 32.1314875417863  C 219.233355770655 32.1314875417863  221.574147423511 27.19957885175  221.574147423511 27.19957885175  C 221.574147423511 27.19957885175  220.503914428653 24.2104133239629  220.503914428653 24.2104133239629  C 220.503914428653 24.2104133239629  221.058240236247 22.415627422415  221.058240236247 22.415627422415  C 221.058240236247 22.415627422415  220.169123594364 18.8925291712282  220.169123594364 18.8925291712282  C 220.169123594364 18.8925291712282  221.176240284397 14.2672565432248  221.176240284397 14.2672565432248  C 221.176240284397 14.2672565432248  222.652612979869 13.0214135219592  222.652612979869 13.0214135219592  C 222.652612979869 13.0214135219592  221.453403188194 10.9778878777835  221.453403188194 10.9778878777835  C 221.453403188194 10.9778878777835  223.313962086948 7.73783829924221  223.313962086948 7.73783829924221  C 223.313962086948 7.73783829924221  224.773869659422 4.38628469814364  224.773869659422 4.38628469814364  C 224.773869659422 4.38628469814364  224.965962761063 2.64939511600039  224.965962761063 2.64939511600039  C 224.965962761063 2.64939511600039  227.825405788351 0.369995577953144  227.825405788351 0.369995577953144  C 227.825405788351 0.369995577953144  229.996057836897 3.34629525698361  229.996057836897 3.34629525698361  C 229.996057836897 3.34629525698361  230.528430147161 7.1695966458249  230.528430147161 7.1695966458249  C 230.528430147161 7.1695966458249  232.446616976407 7.90723864120409  232.446616976407 7.90723864120409  C 232.446616976407 7.90723864120409  232.773175249197 10.4739754681492  232.773175249197 10.4739754681492  C 232.773175249197 10.4739754681492  235.572246158826 13.5875108672502  235.572246158826 13.5875108672502  C 235.572246158826 13.5875108672502  236.14852546375 17.0612900315367  236.14852546375 17.0612900315367  Z " fill-rule="evenodd" />
    </mask>
  </defs>
  <g transform="matrix(1 0 0 1 -2664 -2097 )">
    <path d="M 242.982945004498 203.127194749719  C 242.982945004498 203.127194749719  248.021272641832 203.824094890702  248.021272641832 203.824094890702  C 248.021272641832 203.824094890702  255.455275675348 206.562376367736  255.455275675348 206.562376367736  C 255.455275675348 206.562376367736  261.636535864376 205.473067839675  261.636535864376 205.473067839675  C 261.636535864376 205.473067839675  267.640817384248 203.950609070142  267.640817384248 203.950609070142  C 267.640817384248 203.950609070142  272.256540197971 204.482397485416  272.256540197971 204.482397485416  C 272.256540197971 204.482397485416  272.802633444065 213.97096094342  272.802633444065 213.97096094342  C 272.802633444065 213.97096094342  270.165469577247 218.316384636606  270.165469577247 218.316384636606  C 270.165469577247 218.316384636606  269.372399486185 224.886544734984  269.372399486185 224.886544734984  C 269.372399486185 224.886544734984  266.683096063208 222.641454126955  266.683096063208 222.641454126955  C 266.683096063208 222.641454126955  261.342907837581 228.377478364279  261.342907837581 228.377478364279  C 261.342907837581 228.377478364279  259.751279281125 227.93146227405  259.751279281125 227.93146227405  C 259.751279281125 227.93146227405  253.023925846002 227.674145298918  253.023925846002 227.674145298918  C 253.023925846002 227.674145298918  248.279226235464 220.649391877805  248.279226235464 220.649391877805  C 248.279226235464 220.649391877805  247.225458363603 213.739375665801  247.225458363603 213.739375665801  C 247.225458363603 213.739375665801  242.78810771569 206.761797023463  242.78810771569 206.761797023463  C 242.78810771569 206.761797023463  242.982945004498 203.127194749719  242.982945004498 203.127194749719  Z M 236.14852546375 17.0612900315367  C 236.14852546375 17.0612900315367  235.885083495784 19.2785046339259  235.885083495784 19.2785046339259  C 235.885083495784 19.2785046339259  238.65671253375 24.1117751501616  238.65671253375 24.1117751501616  C 238.65671253375 24.1117751501616  243.59350524593 21.787345141466  243.59350524593 21.787345141466  C 243.59350524593 21.787345141466  246.142855123426 24.3991124390594  246.142855123426 24.3991124390594  C 246.142855123426 24.3991124390594  249.836531049271 26.8114590809249  249.836531049271 26.8114590809249  C 249.836531049271 26.8114590809249  249.046205145375 29.5561734823362  249.046205145375 29.5561734823362  C 249.046205145375 29.5561734823362  250.687229070825 34.8826348675752  250.687229070825 34.8826348675752  C 250.687229070825 34.8826348675752  251.85625280367 37.9961702666766  251.85625280367 37.9961702666766  C 251.85625280367 37.9961702666766  253.793648943081 38.7573996514431  253.793648943081 38.7573996514431  C 253.793648943081 38.7573996514431  255.881975376637 44.1074484260691  255.881975376637 44.1074484260691  C 255.881975376637 44.1074484260691  255.138300654569 47.366796777745  255.138300654569 47.366796777745  C 255.138300654569 47.366796777745  257.630022601573 51.64469148932  257.630022601573 51.64469148932  C 257.630022601573 51.64469148932  265.966863212803 54.9512146197703  265.966863212803 54.9512146197703  C 265.966863212803 54.9512146197703  271.400353802084 57.9682561531971  271.400353802084 57.9682561531971  C 271.400353802084 57.9682561531971  276.562169861901 60.7387022521217  276.562169861901 60.7387022521217  C 276.562169861901 60.7387022521217  275.555053171868 62.2847484110417  275.555053171868 62.2847484110417  C 275.555053171868 62.2847484110417  279.956729386619 66.2988932231059  279.956729386619 66.2988932231059  C 279.956729386619 66.2988932231059  282.94789339789 73.2657503248135  282.94789339789 73.2657503248135  C 282.94789339789 73.2657503248135  286.018638836983 71.8462183453337  286.018638836983 71.8462183453337  C 286.018638836983 71.8462183453337  289.138779645071 74.6466847580236  289.138779645071 74.6466847580236  C 289.138779645071 74.6466847580236  291.021292041155 73.6517257875119  291.021292041155 73.6517257875119  C 291.021292041155 73.6517257875119  292.346734442479 80.5306662560493  292.346734442479 80.5306662560493  C 292.346734442479 80.5306662560493  297.804922716257 84.5426667599874  297.804922716257 84.5426667599874  C 297.804922716257 84.5426667599874  301.377854406784 87.0450743431495  301.377854406784 87.0450743431495  C 301.377854406784 87.0450743431495  307.390368488155 92.3801129608932  307.390368488155 92.3801129608932  C 307.390368488155 92.3801129608932  309.552787975203 99.2708303997622  309.552787975203 99.2708303997622  C 309.552787975203 99.2708303997622  309.750369451176 103.074833015469  309.750369451176 103.074833015469  C 309.750369451176 103.074833015469  309.22074132808 107.22835785573  309.22074132808 107.22835785573  C 309.22074132808 107.22835785573  312.886975382261 112.96652640118  312.886975382261 112.96652640118  C 312.886975382261 112.96652640118  312.447905435653 118.994176543655  312.447905435653 118.994176543655  C 312.447905435653 118.994176543655  311.116974659996 122.167752570287  311.116974659996 122.167752570287  C 311.116974659996 122.167752570287  309.039624975104 128.324061200328  309.039624975104 128.324061200328  C 309.039624975104 128.324061200328  309.196043643583 132.310330006753  309.196043643583 132.310330006753  C 309.196043643583 132.310330006753  307.673019766285 137.328011021833  307.673019766285 137.328011021833  C 307.673019766285 137.328011021833  304.275716054401 143.752358167637  304.275716054401 143.752358167637  C 304.275716054401 143.752358167637  298.576039309989 147.249724721311  298.576039309989 147.249724721311  C 298.576039309989 147.249724721311  295.76873583886 152.803482767916  295.76873583886 152.803482767916  C 295.76873583886 152.803482767916  293.2001766512 156.375900106004  293.2001766512 156.375900106004  C 293.2001766512 156.375900106004  290.919757116002 162.663011531737  290.919757116002 162.663011531737  C 290.919757116002 162.663011531737  287.950546602061 166.323345502994  287.950546602061 166.323345502994  C 287.950546602061 166.323345502994  286.004917901152 171.862093392718  286.004917901152 171.862093392718  C 286.004917901152 171.862093392718  285.01152214695 177.01057720349  285.01152214695 177.01057720349  C 285.01152214695 177.01057720349  285.406685098898 179.388614915338  285.406685098898 179.388614915338  C 285.406685098898 179.388614915338  280.996776322648 182.013248061687  280.996776322648 182.013248061687  C 280.996776322648 182.013248061687  272.382772807622 182.287719501829  272.382772807622 182.287719501829  C 272.382772807622 182.287719501829  265.280816421228 185.405543517182  265.280816421228 185.405543517182  C 265.280816421228 185.405543517182  261.746303351029 188.364688731204  261.746303351029 188.364688731204  C 261.746303351029 188.364688731204  257.097650291311 191.664778937276  257.097650291311 191.664778937276  C 257.097650291311 191.664778937276  250.725647691154 188.268194865529  250.725647691154 188.268194865529  C 250.725647691154 188.268194865529  246.011134139445 186.919425054211  246.011134139445 186.919425054211  C 246.011134139445 186.919425054211  247.207599743953 182.950310712795  247.207599743953 182.950310712795  C 247.207599743953 182.950310712795  243.00076081801 184.386997157283  243.00076081801 184.386997157283  C 243.00076081801 184.386997157283  236.263781324735 189.923600738881  236.263781324735 189.923600738881  C 236.263781324735 189.923600738881  229.611871633615 187.843621856561  229.611871633615 187.843621856561  C 229.611871633615 187.843621856561  225.248614039192 186.634232073439  225.248614039192 186.634232073439  C 225.248614039192 186.634232073439  220.846937824441 186.089577809409  220.846937824441 186.089577809409  C 220.846937824441 186.089577809409  213.399213855093 183.887373363901  213.399213855093 183.887373363901  C 213.399213855093 183.887373363901  208.424002522585 179.223503189628  208.424002522585 179.223503189628  C 208.424002522585 179.223503189628  206.994281008941 173.530365114825  206.994281008941 173.530365114825  C 206.994281008941 173.530365114825  205.207815163677 169.773537277893  205.207815163677 169.773537277893  C 205.207815163677 169.773537277893  201.426325248511 166.775794517602  201.426325248511 166.775794517602  C 201.426325248511 166.775794517602  194.02525246099 165.888050953395  194.02525246099 165.888050953395  C 194.02525246099 165.888050953395  196.555393028322 162.326355155939  196.555393028322 162.326355155939  C 196.555393028322 162.326355155939  194.692089942402 156.918410061908  194.692089942402 156.918410061908  C 194.692089942402 156.918410061908  190.935297711733 161.959678466375  190.935297711733 161.959678466375  C 190.935297711733 161.959678466375  184.088550731805 163.304159661442  184.088550731805 163.304159661442  C 184.088550731805 163.304159661442  188.114273304773 159.262138843738  188.114273304773 159.262138843738  C 188.114273304773 159.262138843738  189.280552850451 155.074305073459  189.280552850451 155.074305073459  C 189.280552850451 155.074305073459  192.252507551558 151.544773897895  192.252507551558 151.544773897895  C 192.252507551558 151.544773897895  191.63506543914 146.244044210169  191.63506543914 146.244044210169  C 191.63506543914 146.244044210169  185.378318699968 152.353178061435  185.378318699968 152.353178061435  C 185.378318699968 152.353178061435  180.570502784604 154.819132406454  180.570502784604 154.819132406454  C 180.570502784604 154.819132406454  177.623245767994 160.593754190048  177.623245767994 160.593754190048  C 177.623245767994 160.593754190048  171.616220060956 157.600300046009  171.616220060956 157.600300046009  C 171.616220060956 157.600300046009  171.854964344424 153.759844192159  171.854964344424 153.759844192159  C 171.854964344424 153.759844192159  167.041660054728 148.549175445729  167.041660054728 148.549175445729  C 167.041660054728 148.549175445729  162.983007235764 145.875223212479  162.983007235764 145.875223212479  C 162.983007235764 145.875223212479  164.429193872407 144.232683187885  164.429193872407 144.232683187885  C 164.429193872407 144.232683187885  152.561977874798 139.941922627553  152.561977874798 139.941922627553  C 152.561977874798 139.941922627553  147.153184970013 139.740357663699  147.153184970013 139.740357663699  C 147.153184970013 139.740357663699  139.754856369659 136.315897586313  139.754856369659 136.315897586313  C 139.754856369659 136.315897586313  125.976292607649 136.980633105405  125.976292607649 136.980633105405  C 125.976292607649 136.980633105405  116.012149006801 139.500195153576  116.012149006801 139.500195153576  C 116.012149006801 139.500195153576  107.258191946293 141.858934092289  107.258191946293 141.858934092289  C 107.258191946293 141.858934092289  99.9147470892642 141.389330612672  99.9147470892642 141.389330612672  C 99.9147470892642 141.389330612672  91.7590228310104 145.026077194542  91.7590228310104 145.026077194542  C 91.7590228310104 145.026077194542  85.0851596425597 146.668617219137  85.0851596425597 146.668617219137  C 85.0851596425597 146.668617219137  83.6032985727561 150.421156439817  83.6032985727561 150.421156439817  C 83.6032985727561 150.421156439817  80.7630648556319 153.343848415695  80.7630648556319 153.343848415695  C 80.7630648556319 153.343848415695  74.2318993998294 153.519681682035  74.2318993998294 153.519681682035  C 74.2318993998294 153.519681682035  69.3993857999692 154.16082981174  69.3993857999692 154.16082981174  C 69.3993857999692 154.16082981174  62.5992900018692 152.846368930439  62.5992900018692 152.846368930439  C 62.5992900018692 152.846368930439  57.0642644874348 153.633330012718  57.0642644874348 153.633330012718  C 57.0642644874348 153.633330012718  51.7817041923004 153.963553464138  51.7817041923004 153.963553464138  C 51.7817041923004 153.963553464138  47.2043999989063 157.825452399249  47.2043999989063 157.825452399249  C 47.2043999989063 157.825452399249  44.9623990840363 157.497373255956  44.9623990840363 157.497373255956  C 44.9623990840363 157.497373255956  41.1040719282135 159.553764748888  41.1040719282135 159.553764748888  C 41.1040719282135 159.553764748888  37.4049076280366 161.873906141331  37.4049076280366 161.873906141331  C 37.4049076280366 161.873906141331  31.7903006857794 161.586568852433  31.7903006857794 161.586568852433  C 31.7903006857794 161.586568852433  26.6339730002948 161.584424544307  26.6339730002948 161.584424544307  C 26.6339730002948 161.584424544307  18.4700161805416 156.935564526917  18.4700161805416 156.935564526917  C 18.4700161805416 156.935564526917  14.3345261209223 155.558918709958  14.3345261209223 155.558918709958  C 14.3345261209223 155.558918709958  14.5019215380673 151.426836950959  14.5019215380673 151.426836950959  C 14.5019215380673 151.426836950959  18.3245742607282 150.449032445456  18.3245742607282 150.449032445456  C 18.3245742607282 150.449032445456  19.6308073518884 148.817213961492  19.6308073518884 148.817213961492  C 19.6308073518884 148.817213961492  19.3563886352582 146.252621442673  19.3563886352582 146.252621442673  C 19.3563886352582 146.252621442673  20.2976448333003 141.316424136384  20.2976448333003 141.316424136384  C 20.2976448333003 141.316424136384  19.4387142502471 137.139311906736  19.4387142502471 137.139311906736  C 19.4387142502471 137.139311906736  15.3718288697855 130.075960939354  15.3718288697855 130.075960939354  C 15.3718288697855 130.075960939354  14.1095027732857 126.119712446694  14.1095027732857 126.119712446694  C 14.1095027732857 126.119712446694  14.4415494204081 122.195628575926  14.4415494204081 122.195628575926  C 14.4415494204081 122.195628575926  11.3790365428135 117.737611981759  11.3790365428135 117.737611981759  C 11.3790365428135 117.737611981759  11.184199254006 115.734828191979  11.184199254006 115.734828191979  C 11.184199254006 115.734828191979  7.77591879345683 113.028711336838  7.77591879345683 113.028711336838  C 7.77591879345683 113.028711336838  6.8154532852507 107.736558881616  6.8154532852507 107.736558881616  C 6.8154532852507 107.736558881616  2.41652125766627 102.42510765326  2.41652125766627 102.42510765326  C 2.41652125766627 102.42510765326  1.35177663714054 99.5796107699217  1.35177663714054 99.5796107699217  C 1.35177663714054 99.5796107699217  4.7298710388601 102.465849507656  4.7298710388601 102.465849507656  C 4.7298710388601 102.465849507656  2.13386997953707 94.7302746671021  2.13386997953707 94.7302746671021  C 2.13386997953707 94.7302746671021  5.95103432786477 98.2136864935943  5.95103432786477 98.2136864935943  C 5.95103432786477 98.2136864935943  8.22870967589714 100.793289169296  8.22870967589714 100.793289169296  C 8.22870967589714 100.793289169296  8.09973287908072 97.3838392487925  8.09973287908072 97.3838392487925  C 8.09973287908072 97.3838392487925  4.29080109225151 90.615347373111  4.29080109225151 90.615347373111  C 4.29080109225151 90.615347373111  3.55261474451584 88.5396571070436  3.55261474451584 88.5396571070436  C 3.55261474451584 88.5396571070436  1.76889308641848 86.5733265554075  1.76889308641848 86.5733265554075  C 1.76889308641848 86.5733265554075  2.60587017214097 82.7843340965839  2.60587017214097 82.7843340965839  C 2.60587017214097 82.7843340965839  4.18103360559913 81.1761030020069  4.18103360559913 81.1761030020069  C 4.18103360559913 81.1761030020069  5.23205729029314 77.9188989584569  5.23205729029314 77.9188989584569  C 5.23205729029314 77.9188989584569  4.40880114040237 74.1277621915073  4.40880114040237 74.1277621915073  C 4.40880114040237 74.1277621915073  7.58931406614829 69.4853350984949  7.58931406614829 69.4853350984949  C 7.58931406614829 69.4853350984949  8.1683375582384 74.4000893235225  8.1683375582384 74.4000893235225  C 8.1683375582384 74.4000893235225  11.4201993503077 69.9592271943636  11.4201993503077 69.9592271943636  C 11.4201993503077 69.9592271943636  17.6714577151472 67.8106304520089  17.6714577151472 67.8106304520089  C 17.6714577151472 67.8106304520089  21.4200173843181 65.074493283102  21.4200173843181 65.074493283102  C 21.4200173843181 65.074493283102  27.3008104817067 62.7264758850195  27.3008104817067 62.7264758850195  C 27.3008104817067 62.7264758850195  30.7969049315771 62.2289963997638  30.7969049315771 62.2289963997638  C 30.7969049315771 62.2289963997638  32.9154174239639 63.0159574820433  32.9154174239639 63.0159574820433  C 32.9154174239639 63.0159574820433  38.9773268743282 60.6379197701954  38.9773268743282 60.6379197701954  C 38.9773268743282 60.6379197701954  43.6451892442105 59.9302980885812  43.6451892442105 59.9302980885812  C 43.6451892442105 59.9302980885812  44.8114687898893 58.5364978066147  44.8114687898893 58.5364978066147  C 44.8114687898893 58.5364978066147  46.8476556672862 57.9553903044408  46.8476556672862 57.9553903044408  C 46.8476556672862 57.9553903044408  51.1011457750568 58.105491873268  51.1011457750568 58.105491873268  C 51.1011457750568 58.105491873268  59.1882653541534 56.2463767279372  59.1882653541534 56.2463767279372  C 59.1882653541534 56.2463767279372  63.3704065956002 53.4309001583643  63.3704065956002 53.4309001583643  C 63.3704065956002 53.4309001583643  65.3352446066733 50.0536148597524  65.3352446066733 50.0536148597524  C 65.3352446066733 50.0536148597524  69.8494324952424 46.8564514437334  69.8494324952424 46.8564514437334  C 69.8494324952424 46.8564514437334  70.195200078197 44.3497552443193  70.195200078197 44.3497552443193  C 70.195200078197 44.3497552443193  70.3955257413368 40.9424496319421  70.3955257413368 40.9424496319421  C 70.3955257413368 40.9424496319421  75.7796209616246 35.6374313279641  75.7796209616246 35.6374313279641  C 75.7796209616246 35.6374313279641  79.0205060050288 41.0282219569864  79.0205060050288 41.0282219569864  C 79.0205060050288 41.0282219569864  82.2943212944292 39.7802346275945  82.2943212944292 39.7802346275945  C 82.2943212944292 39.7802346275945  79.5556225024581 36.8318109542033  79.5556225024581 36.8318109542033  C 79.5556225024581 36.8318109542033  81.9705072088053 33.8104808045245  81.9705072088053 33.8104808045245  C 81.9705072088053 33.8104808045245  85.3650667335223 35.1592506158434  85.3650667335223 35.1592506158434  C 85.3650667335223 35.1592506158434  86.2980903700659 30.4310511977867  86.2980903700659 30.4310511977867  C 86.2980903700659 30.4310511977867  90.5021851088429 27.3839893505949  90.5021851088429 27.3839893505949  C 90.5021851088429 27.3839893505949  92.3572556332641 24.9437667030901  92.3572556332641 24.9437667030901  C 92.3572556332641 24.9437667030901  96.226559537752 23.8909114131738  96.226559537752 23.8909114131738  C 96.226559537752 23.8909114131738  96.3473037730695 22.1668876797872  96.3473037730695 22.1668876797872  C 96.3473037730695 22.1668876797872  99.7281423619552 22.8852309020314  99.7281423619552 22.8852309020314  C 99.7281423619552 22.8852309020314  99.862607533104 21.3370404349854  99.862607533104 21.3370404349854  C 99.862607533104 21.3370404349854  103.246190309156 20.4535854870313  103.246190309156 20.4535854870313  C 103.246190309156 20.4535854870313  106.964563919498 19.6237382422294  106.964563919498 19.6237382422294  C 106.964563919498 19.6237382422294  112.647775540913 22.4499363524327  112.647775540913 22.4499363524327  C 112.647775540913 22.4499363524327  116.917730771681 26.1059817074377  116.917730771681 26.1059817074377  C 116.917730771681 26.1059817074377  121.733779248543 26.1488678699597  121.733779248543 26.1488678699597  C 121.733779248543 26.1488678699597  126.626664966063 26.7299753721337  126.626664966063 26.7299753721337  C 126.626664966063 26.7299753721337  124.996617789278 23.3376799166391  124.996617789278 23.3376799166391  C 124.996617789278 23.3376799166391  128.682061153624 18.3993383022249  128.682061153624 18.3993383022249  C 128.682061153624 18.3993383022249  132.150713731832 16.7932515157739  132.150713731832 16.7932515157739  C 132.150713731832 16.7932515157739  130.951503940157 15.2600712056105  130.951503940157 15.2600712056105  C 130.951503940157 15.2600712056105  134.293923908714 11.7605603438107  134.293923908714 11.7605603438107  C 134.293923908714 11.7605603438107  138.953553717098 9.60338636895137  138.953553717098 9.60338636895137  C 138.953553717098 9.60338636895137  142.891462300744 10.3303068237002  142.891462300744 10.3303068237002  C 142.891462300744 10.3303068237002  149.354023077388 9.17881335998332  149.354023077388 9.17881335998332  C 149.354023077388 9.17881335998332  149.214069531907 6.05884503650394  149.214069531907 6.05884503650394  C 149.214069531907 6.05884503650394  143.577509092319 4.05177263047186  143.577509092319 4.05177263047186  C 143.577509092319 4.05177263047186  147.674580531611 3.16617337439142  147.674580531611 3.16617337439142  C 147.674580531611 3.16617337439142  152.770536099436 4.67576629516746  152.770536099436 4.67576629516746  C 152.770536099436 4.67576629516746  158.850261363311 7.17817387832922  158.850261363311 7.17817387832922  C 158.850261363311 7.17817387832922  165.329287262954 8.74137450225825  165.329287262954 8.74137450225825  C 165.329287262954 8.74137450225825  167.527381183163 8.12381376194063  167.527381183163 8.12381376194063  C 167.527381183163 8.12381376194063  172.296778478199 10.0000833722805  172.296778478199 10.0000833722805  C 172.296778478199 10.0000833722805  176.791757056604 8.25247224950689  176.791757056604 8.25247224950689  C 176.791757056604 8.25247224950689  179.684130329888 8.78426066478022  179.684130329888 8.78426066478022  C 179.684130329888 8.78426066478022  181.484317110983 7.61132411980195  181.484317110983 7.61132411980195  C 181.484317110983 7.61132411980195  185.016085994016 10.6347985776067  185.016085994016 10.6347985776067  C 185.016085994016 10.6347985776067  182.966178180787 13.9113013942917  182.966178180787 13.9113013942917  C 182.966178180787 13.9113013942917  180.04636303584 16.3879772799405  180.04636303584 16.3879772799405  C 180.04636303584 16.3879772799405  177.400966607523 16.5938308600463  177.400966607523 16.5938308600463  C 177.400966607523 16.5938308600463  178.292827436572 19.0512079725601  178.292827436572 19.0512079725601  C 178.292827436572 19.0512079725601  176.031617211538 22.1282901335172  176.031617211538 22.1282901335172  C 176.031617211538 22.1282901335172  173.2984067939 25.1603418238266  173.2984067939 25.1603418238266  C 173.2984067939 25.1603418238266  173.849988414326 26.9058086384742  173.849988414326 26.9058086384742  C 173.849988414326 26.9058086384742  179.966781608017 30.3281244077341  179.966781608017 30.3281244077341  C 179.966781608017 30.3281244077341  185.894225887233 32.3180423487575  185.894225887233 32.3180423487575  C 185.894225887233 32.3180423487575  189.854087968209 34.4602061667342  189.854087968209 34.4602061667342  C 189.854087968209 34.4602061667342  195.416555354307 38.1527047598828  195.416555354307 38.1527047598828  C 195.416555354307 38.1527047598828  197.584463215686 38.1462718355045  197.584463215686 38.1462718355045  C 197.584463215686 38.1462718355045  201.61292997582 39.7459256975772  201.61292997582 39.7459256975772  C 201.61292997582 39.7459256975772  202.781953708665 41.6779473191956  202.781953708665 41.6779473191956  C 202.781953708665 41.6779473191956  210.12814275286 43.8051009802893  210.12814275286 43.8051009802893  C 210.12814275286 43.8051009802893  215.210377384854 41.6629371623126  215.210377384854 41.6629371623126  C 215.210377384854 41.6629371623126  216.716936139154 38.3049506368361  216.716936139154 38.3049506368361  C 216.716936139154 38.3049506368361  218.275634449615 35.5409374622895  218.275634449615 35.5409374622895  C 218.275634449615 35.5409374622895  219.233355770655 32.1314875417863  219.233355770655 32.1314875417863  C 219.233355770655 32.1314875417863  221.574147423511 27.19957885175  221.574147423511 27.19957885175  C 221.574147423511 27.19957885175  220.503914428653 24.2104133239629  220.503914428653 24.2104133239629  C 220.503914428653 24.2104133239629  221.058240236247 22.415627422415  221.058240236247 22.415627422415  C 221.058240236247 22.415627422415  220.169123594364 18.8925291712282  220.169123594364 18.8925291712282  C 220.169123594364 18.8925291712282  221.176240284397 14.2672565432248  221.176240284397 14.2672565432248  C 221.176240284397 14.2672565432248  222.652612979869 13.0214135219592  222.652612979869 13.0214135219592  C 222.652612979869 13.0214135219592  221.453403188194 10.9778878777835  221.453403188194 10.9778878777835  C 221.453403188194 10.9778878777835  223.313962086948 7.73783829924221  223.313962086948 7.73783829924221  C 223.313962086948 7.73783829924221  224.773869659422 4.38628469814364  224.773869659422 4.38628469814364  C 224.773869659422 4.38628469814364  224.965962761063 2.64939511600039  224.965962761063 2.64939511600039  C 224.965962761063 2.64939511600039  227.825405788351 0.369995577953144  227.825405788351 0.369995577953144  C 227.825405788351 0.369995577953144  229.996057836897 3.34629525698361  229.996057836897 3.34629525698361  C 229.996057836897 3.34629525698361  230.528430147161 7.1695966458249  230.528430147161 7.1695966458249  C 230.528430147161 7.1695966458249  232.446616976407 7.90723864120409  232.446616976407 7.90723864120409  C 232.446616976407 7.90723864120409  232.773175249197 10.4739754681492  232.773175249197 10.4739754681492  C 232.773175249197 10.4739754681492  235.572246158826 13.5875108672502  235.572246158826 13.5875108672502  C 235.572246158826 13.5875108672502  236.14852546375 17.0612900315367  236.14852546375 17.0612900315367  Z " fill-rule="nonzero" fill="#74b9ff" stroke="none" transform="matrix(1 0 0 1 2664 2097 )" />
    <path d="M 242.982945004498 203.127194749719  C 242.982945004498 203.127194749719  248.021272641832 203.824094890702  248.021272641832 203.824094890702  C 248.021272641832 203.824094890702  255.455275675348 206.562376367736  255.455275675348 206.562376367736  C 255.455275675348 206.562376367736  261.636535864376 205.473067839675  261.636535864376 205.473067839675  C 261.636535864376 205.473067839675  267.640817384248 203.950609070142  267.640817384248 203.950609070142  C 267.640817384248 203.950609070142  272.256540197971 204.482397485416  272.256540197971 204.482397485416  C 272.256540197971 204.482397485416  272.802633444065 213.97096094342  272.802633444065 213.97096094342  C 272.802633444065 213.97096094342  270.165469577247 218.316384636606  270.165469577247 218.316384636606  C 270.165469577247 218.316384636606  269.372399486185 224.886544734984  269.372399486185 224.886544734984  C 269.372399486185 224.886544734984  266.683096063208 222.641454126955  266.683096063208 222.641454126955  C 266.683096063208 222.641454126955  261.342907837581 228.377478364279  261.342907837581 228.377478364279  C 261.342907837581 228.377478364279  259.751279281125 227.93146227405  259.751279281125 227.93146227405  C 259.751279281125 227.93146227405  253.023925846002 227.674145298918  253.023925846002 227.674145298918  C 253.023925846002 227.674145298918  248.279226235464 220.649391877805  248.279226235464 220.649391877805  C 248.279226235464 220.649391877805  247.225458363603 213.739375665801  247.225458363603 213.739375665801  C 247.225458363603 213.739375665801  242.78810771569 206.761797023463  242.78810771569 206.761797023463  C 242.78810771569 206.761797023463  242.982945004498 203.127194749719  242.982945004498 203.127194749719  Z " stroke-width="2" stroke="#505050" fill="none" stroke-opacity="0.211764705882353" transform="matrix(1 0 0 1 2664 2097 )" mask="url(#clip782)" />
    <path d="M 236.14852546375 17.0612900315367  C 236.14852546375 17.0612900315367  235.885083495784 19.2785046339259  235.885083495784 19.2785046339259  C 235.885083495784 19.2785046339259  238.65671253375 24.1117751501616  238.65671253375 24.1117751501616  C 238.65671253375 24.1117751501616  243.59350524593 21.787345141466  243.59350524593 21.787345141466  C 243.59350524593 21.787345141466  246.142855123426 24.3991124390594  246.142855123426 24.3991124390594  C 246.142855123426 24.3991124390594  249.836531049271 26.8114590809249  249.836531049271 26.8114590809249  C 249.836531049271 26.8114590809249  249.046205145375 29.5561734823362  249.046205145375 29.5561734823362  C 249.046205145375 29.5561734823362  250.687229070825 34.8826348675752  250.687229070825 34.8826348675752  C 250.687229070825 34.8826348675752  251.85625280367 37.9961702666766  251.85625280367 37.9961702666766  C 251.85625280367 37.9961702666766  253.793648943081 38.7573996514431  253.793648943081 38.7573996514431  C 253.793648943081 38.7573996514431  255.881975376637 44.1074484260691  255.881975376637 44.1074484260691  C 255.881975376637 44.1074484260691  255.138300654569 47.366796777745  255.138300654569 47.366796777745  C 255.138300654569 47.366796777745  257.630022601573 51.64469148932  257.630022601573 51.64469148932  C 257.630022601573 51.64469148932  265.966863212803 54.9512146197703  265.966863212803 54.9512146197703  C 265.966863212803 54.9512146197703  271.400353802084 57.9682561531971  271.400353802084 57.9682561531971  C 271.400353802084 57.9682561531971  276.562169861901 60.7387022521217  276.562169861901 60.7387022521217  C 276.562169861901 60.7387022521217  275.555053171868 62.2847484110417  275.555053171868 62.2847484110417  C 275.555053171868 62.2847484110417  279.956729386619 66.2988932231059  279.956729386619 66.2988932231059  C 279.956729386619 66.2988932231059  282.94789339789 73.2657503248135  282.94789339789 73.2657503248135  C 282.94789339789 73.2657503248135  286.018638836983 71.8462183453337  286.018638836983 71.8462183453337  C 286.018638836983 71.8462183453337  289.138779645071 74.6466847580236  289.138779645071 74.6466847580236  C 289.138779645071 74.6466847580236  291.021292041155 73.6517257875119  291.021292041155 73.6517257875119  C 291.021292041155 73.6517257875119  292.346734442479 80.5306662560493  292.346734442479 80.5306662560493  C 292.346734442479 80.5306662560493  297.804922716257 84.5426667599874  297.804922716257 84.5426667599874  C 297.804922716257 84.5426667599874  301.377854406784 87.0450743431495  301.377854406784 87.0450743431495  C 301.377854406784 87.0450743431495  307.390368488155 92.3801129608932  307.390368488155 92.3801129608932  C 307.390368488155 92.3801129608932  309.552787975203 99.2708303997622  309.552787975203 99.2708303997622  C 309.552787975203 99.2708303997622  309.750369451176 103.074833015469  309.750369451176 103.074833015469  C 309.750369451176 103.074833015469  309.22074132808 107.22835785573  309.22074132808 107.22835785573  C 309.22074132808 107.22835785573  312.886975382261 112.96652640118  312.886975382261 112.96652640118  C 312.886975382261 112.96652640118  312.447905435653 118.994176543655  312.447905435653 118.994176543655  C 312.447905435653 118.994176543655  311.116974659996 122.167752570287  311.116974659996 122.167752570287  C 311.116974659996 122.167752570287  309.039624975104 128.324061200328  309.039624975104 128.324061200328  C 309.039624975104 128.324061200328  309.196043643583 132.310330006753  309.196043643583 132.310330006753  C 309.196043643583 132.310330006753  307.673019766285 137.328011021833  307.673019766285 137.328011021833  C 307.673019766285 137.328011021833  304.275716054401 143.752358167637  304.275716054401 143.752358167637  C 304.275716054401 143.752358167637  298.576039309989 147.249724721311  298.576039309989 147.249724721311  C 298.576039309989 147.249724721311  295.76873583886 152.803482767916  295.76873583886 152.803482767916  C 295.76873583886 152.803482767916  293.2001766512 156.375900106004  293.2001766512 156.375900106004  C 293.2001766512 156.375900106004  290.919757116002 162.663011531737  290.919757116002 162.663011531737  C 290.919757116002 162.663011531737  287.950546602061 166.323345502994  287.950546602061 166.323345502994  C 287.950546602061 166.323345502994  286.004917901152 171.862093392718  286.004917901152 171.862093392718  C 286.004917901152 171.862093392718  285.01152214695 177.01057720349  285.01152214695 177.01057720349  C 285.01152214695 177.01057720349  285.406685098898 179.388614915338  285.406685098898 179.388614915338  C 285.406685098898 179.388614915338  280.996776322648 182.013248061687  280.996776322648 182.013248061687  C 280.996776322648 182.013248061687  272.382772807622 182.287719501829  272.382772807622 182.287719501829  C 272.382772807622 182.287719501829  265.280816421228 185.405543517182  265.280816421228 185.405543517182  C 265.280816421228 185.405543517182  261.746303351029 188.364688731204  261.746303351029 188.364688731204  C 261.746303351029 188.364688731204  257.097650291311 191.664778937276  257.097650291311 191.664778937276  C 257.097650291311 191.664778937276  250.725647691154 188.268194865529  250.725647691154 188.268194865529  C 250.725647691154 188.268194865529  246.011134139445 186.919425054211  246.011134139445 186.919425054211  C 246.011134139445 186.919425054211  247.207599743953 182.950310712795  247.207599743953 182.950310712795  C 247.207599743953 182.950310712795  243.00076081801 184.386997157283  243.00076081801 184.386997157283  C 243.00076081801 184.386997157283  236.263781324735 189.923600738881  236.263781324735 189.923600738881  C 236.263781324735 189.923600738881  229.611871633615 187.843621856561  229.611871633615 187.843621856561  C 229.611871633615 187.843621856561  225.248614039192 186.634232073439  225.248614039192 186.634232073439  C 225.248614039192 186.634232073439  220.846937824441 186.089577809409  220.846937824441 186.089577809409  C 220.846937824441 186.089577809409  213.399213855093 183.887373363901  213.399213855093 183.887373363901  C 213.399213855093 183.887373363901  208.424002522585 179.223503189628  208.424002522585 179.223503189628  C 208.424002522585 179.223503189628  206.994281008941 173.530365114825  206.994281008941 173.530365114825  C 206.994281008941 173.530365114825  205.207815163677 169.773537277893  205.207815163677 169.773537277893  C 205.207815163677 169.773537277893  201.426325248511 166.775794517602  201.426325248511 166.775794517602  C 201.426325248511 166.775794517602  194.02525246099 165.888050953395  194.02525246099 165.888050953395  C 194.02525246099 165.888050953395  196.555393028322 162.326355155939  196.555393028322 162.326355155939  C 196.555393028322 162.326355155939  194.692089942402 156.918410061908  194.692089942402 156.918410061908  C 194.692089942402 156.918410061908  190.935297711733 161.959678466375  190.935297711733 161.959678466375  C 190.935297711733 161.959678466375  184.088550731805 163.304159661442  184.088550731805 163.304159661442  C 184.088550731805 163.304159661442  188.114273304773 159.262138843738  188.114273304773 159.262138843738  C 188.114273304773 159.262138843738  189.280552850451 155.074305073459  189.280552850451 155.074305073459  C 189.280552850451 155.074305073459  192.252507551558 151.544773897895  192.252507551558 151.544773897895  C 192.252507551558 151.544773897895  191.63506543914 146.244044210169  191.63506543914 146.244044210169  C 191.63506543914 146.244044210169  185.378318699968 152.353178061435  185.378318699968 152.353178061435  C 185.378318699968 152.353178061435  180.570502784604 154.819132406454  180.570502784604 154.819132406454  C 180.570502784604 154.819132406454  177.623245767994 160.593754190048  177.623245767994 160.593754190048  C 177.623245767994 160.593754190048  171.616220060956 157.600300046009  171.616220060956 157.600300046009  C 171.616220060956 157.600300046009  171.854964344424 153.759844192159  171.854964344424 153.759844192159  C 171.854964344424 153.759844192159  167.041660054728 148.549175445729  167.041660054728 148.549175445729  C 167.041660054728 148.549175445729  162.983007235764 145.875223212479  162.983007235764 145.875223212479  C 162.983007235764 145.875223212479  164.429193872407 144.232683187885  164.429193872407 144.232683187885  C 164.429193872407 144.232683187885  152.561977874798 139.941922627553  152.561977874798 139.941922627553  C 152.561977874798 139.941922627553  147.153184970013 139.740357663699  147.153184970013 139.740357663699  C 147.153184970013 139.740357663699  139.754856369659 136.315897586313  139.754856369659 136.315897586313  C 139.754856369659 136.315897586313  125.976292607649 136.980633105405  125.976292607649 136.980633105405  C 125.976292607649 136.980633105405  116.012149006801 139.500195153576  116.012149006801 139.500195153576  C 116.012149006801 139.500195153576  107.258191946293 141.858934092289  107.258191946293 141.858934092289  C 107.258191946293 141.858934092289  99.9147470892642 141.389330612672  99.9147470892642 141.389330612672  C 99.9147470892642 141.389330612672  91.7590228310104 145.026077194542  91.7590228310104 145.026077194542  C 91.7590228310104 145.026077194542  85.0851596425597 146.668617219137  85.0851596425597 146.668617219137  C 85.0851596425597 146.668617219137  83.6032985727561 150.421156439817  83.6032985727561 150.421156439817  C 83.6032985727561 150.421156439817  80.7630648556319 153.343848415695  80.7630648556319 153.343848415695  C 80.7630648556319 153.343848415695  74.2318993998294 153.519681682035  74.2318993998294 153.519681682035  C 74.2318993998294 153.519681682035  69.3993857999692 154.16082981174  69.3993857999692 154.16082981174  C 69.3993857999692 154.16082981174  62.5992900018692 152.846368930439  62.5992900018692 152.846368930439  C 62.5992900018692 152.846368930439  57.0642644874348 153.633330012718  57.0642644874348 153.633330012718  C 57.0642644874348 153.633330012718  51.7817041923004 153.963553464138  51.7817041923004 153.963553464138  C 51.7817041923004 153.963553464138  47.2043999989063 157.825452399249  47.2043999989063 157.825452399249  C 47.2043999989063 157.825452399249  44.9623990840363 157.497373255956  44.9623990840363 157.497373255956  C 44.9623990840363 157.497373255956  41.1040719282135 159.553764748888  41.1040719282135 159.553764748888  C 41.1040719282135 159.553764748888  37.4049076280366 161.873906141331  37.4049076280366 161.873906141331  C 37.4049076280366 161.873906141331  31.7903006857794 161.586568852433  31.7903006857794 161.586568852433  C 31.7903006857794 161.586568852433  26.6339730002948 161.584424544307  26.6339730002948 161.584424544307  C 26.6339730002948 161.584424544307  18.4700161805416 156.935564526917  18.4700161805416 156.935564526917  C 18.4700161805416 156.935564526917  14.3345261209223 155.558918709958  14.3345261209223 155.558918709958  C 14.3345261209223 155.558918709958  14.5019215380673 151.426836950959  14.5019215380673 151.426836950959  C 14.5019215380673 151.426836950959  18.3245742607282 150.449032445456  18.3245742607282 150.449032445456  C 18.3245742607282 150.449032445456  19.6308073518884 148.817213961492  19.6308073518884 148.817213961492  C 19.6308073518884 148.817213961492  19.3563886352582 146.252621442673  19.3563886352582 146.252621442673  C 19.3563886352582 146.252621442673  20.2976448333003 141.316424136384  20.2976448333003 141.316424136384  C 20.2976448333003 141.316424136384  19.4387142502471 137.139311906736  19.4387142502471 137.139311906736  C 19.4387142502471 137.139311906736  15.3718288697855 130.075960939354  15.3718288697855 130.075960939354  C 15.3718288697855 130.075960939354  14.1095027732857 126.119712446694  14.1095027732857 126.119712446694  C 14.1095027732857 126.119712446694  14.4415494204081 122.195628575926  14.4415494204081 122.195628575926  C 14.4415494204081 122.195628575926  11.3790365428135 117.737611981759  11.3790365428135 117.737611981759  C 11.3790365428135 117.737611981759  11.184199254006 115.734828191979  11.184199254006 115.734828191979  C 11.184199254006 115.734828191979  7.77591879345683 113.028711336838  7.77591879345683 113.028711336838  C 7.77591879345683 113.028711336838  6.8154532852507 107.736558881616  6.8154532852507 107.736558881616  C 6.8154532852507 107.736558881616  2.41652125766627 102.42510765326  2.41652125766627 102.42510765326  C 2.41652125766627 102.42510765326  1.35177663714054 99.5796107699217  1.35177663714054 99.5796107699217  C 1.35177663714054 99.5796107699217  4.7298710388601 102.465849507656  4.7298710388601 102.465849507656  C 4.7298710388601 102.465849507656  2.13386997953707 94.7302746671021  2.13386997953707 94.7302746671021  C 2.13386997953707 94.7302746671021  5.95103432786477 98.2136864935943  5.95103432786477 98.2136864935943  C 5.95103432786477 98.2136864935943  8.22870967589714 100.793289169296  8.22870967589714 100.793289169296  C 8.22870967589714 100.793289169296  8.09973287908072 97.3838392487925  8.09973287908072 97.3838392487925  C 8.09973287908072 97.3838392487925  4.29080109225151 90.615347373111  4.29080109225151 90.615347373111  C 4.29080109225151 90.615347373111  3.55261474451584 88.5396571070436  3.55261474451584 88.5396571070436  C 3.55261474451584 88.5396571070436  1.76889308641848 86.5733265554075  1.76889308641848 86.5733265554075  C 1.76889308641848 86.5733265554075  2.60587017214097 82.7843340965839  2.60587017214097 82.7843340965839  C 2.60587017214097 82.7843340965839  4.18103360559913 81.1761030020069  4.18103360559913 81.1761030020069  C 4.18103360559913 81.1761030020069  5.23205729029314 77.9188989584569  5.23205729029314 77.9188989584569  C 5.23205729029314 77.9188989584569  4.40880114040237 74.1277621915073  4.40880114040237 74.1277621915073  C 4.40880114040237 74.1277621915073  7.58931406614829 69.4853350984949  7.58931406614829 69.4853350984949  C 7.58931406614829 69.4853350984949  8.1683375582384 74.4000893235225  8.1683375582384 74.4000893235225  C 8.1683375582384 74.4000893235225  11.4201993503077 69.9592271943636  11.4201993503077 69.9592271943636  C 11.4201993503077 69.9592271943636  17.6714577151472 67.8106304520089  17.6714577151472 67.8106304520089  C 17.6714577151472 67.8106304520089  21.4200173843181 65.074493283102  21.4200173843181 65.074493283102  C 21.4200173843181 65.074493283102  27.3008104817067 62.7264758850195  27.3008104817067 62.7264758850195  C 27.3008104817067 62.7264758850195  30.7969049315771 62.2289963997638  30.7969049315771 62.2289963997638  C 30.7969049315771 62.2289963997638  32.9154174239639 63.0159574820433  32.9154174239639 63.0159574820433  C 32.9154174239639 63.0159574820433  38.9773268743282 60.6379197701954  38.9773268743282 60.6379197701954  C 38.9773268743282 60.6379197701954  43.6451892442105 59.9302980885812  43.6451892442105 59.9302980885812  C 43.6451892442105 59.9302980885812  44.8114687898893 58.5364978066147  44.8114687898893 58.5364978066147  C 44.8114687898893 58.5364978066147  46.8476556672862 57.9553903044408  46.8476556672862 57.9553903044408  C 46.8476556672862 57.9553903044408  51.1011457750568 58.105491873268  51.1011457750568 58.105491873268  C 51.1011457750568 58.105491873268  59.1882653541534 56.2463767279372  59.1882653541534 56.2463767279372  C 59.1882653541534 56.2463767279372  63.3704065956002 53.4309001583643  63.3704065956002 53.4309001583643  C 63.3704065956002 53.4309001583643  65.3352446066733 50.0536148597524  65.3352446066733 50.0536148597524  C 65.3352446066733 50.0536148597524  69.8494324952424 46.8564514437334  69.8494324952424 46.8564514437334  C 69.8494324952424 46.8564514437334  70.195200078197 44.3497552443193  70.195200078197 44.3497552443193  C 70.195200078197 44.3497552443193  70.3955257413368 40.9424496319421  70.3955257413368 40.9424496319421  C 70.3955257413368 40.9424496319421  75.7796209616246 35.6374313279641  75.7796209616246 35.6374313279641  C 75.7796209616246 35.6374313279641  79.0205060050288 41.0282219569864  79.0205060050288 41.0282219569864  C 79.0205060050288 41.0282219569864  82.2943212944292 39.7802346275945  82.2943212944292 39.7802346275945  C 82.2943212944292 39.7802346275945  79.5556225024581 36.8318109542033  79.5556225024581 36.8318109542033  C 79.5556225024581 36.8318109542033  81.9705072088053 33.8104808045245  81.9705072088053 33.8104808045245  C 81.9705072088053 33.8104808045245  85.3650667335223 35.1592506158434  85.3650667335223 35.1592506158434  C 85.3650667335223 35.1592506158434  86.2980903700659 30.4310511977867  86.2980903700659 30.4310511977867  C 86.2980903700659 30.4310511977867  90.5021851088429 27.3839893505949  90.5021851088429 27.3839893505949  C 90.5021851088429 27.3839893505949  92.3572556332641 24.9437667030901  92.3572556332641 24.9437667030901  C 92.3572556332641 24.9437667030901  96.226559537752 23.8909114131738  96.226559537752 23.8909114131738  C 96.226559537752 23.8909114131738  96.3473037730695 22.1668876797872  96.3473037730695 22.1668876797872  C 96.3473037730695 22.1668876797872  99.7281423619552 22.8852309020314  99.7281423619552 22.8852309020314  C 99.7281423619552 22.8852309020314  99.862607533104 21.3370404349854  99.862607533104 21.3370404349854  C 99.862607533104 21.3370404349854  103.246190309156 20.4535854870313  103.246190309156 20.4535854870313  C 103.246190309156 20.4535854870313  106.964563919498 19.6237382422294  106.964563919498 19.6237382422294  C 106.964563919498 19.6237382422294  112.647775540913 22.4499363524327  112.647775540913 22.4499363524327  C 112.647775540913 22.4499363524327  116.917730771681 26.1059817074377  116.917730771681 26.1059817074377  C 116.917730771681 26.1059817074377  121.733779248543 26.1488678699597  121.733779248543 26.1488678699597  C 121.733779248543 26.1488678699597  126.626664966063 26.7299753721337  126.626664966063 26.7299753721337  C 126.626664966063 26.7299753721337  124.996617789278 23.3376799166391  124.996617789278 23.3376799166391  C 124.996617789278 23.3376799166391  128.682061153624 18.3993383022249  128.682061153624 18.3993383022249  C 128.682061153624 18.3993383022249  132.150713731832 16.7932515157739  132.150713731832 16.7932515157739  C 132.150713731832 16.7932515157739  130.951503940157 15.2600712056105  130.951503940157 15.2600712056105  C 130.951503940157 15.2600712056105  134.293923908714 11.7605603438107  134.293923908714 11.7605603438107  C 134.293923908714 11.7605603438107  138.953553717098 9.60338636895137  138.953553717098 9.60338636895137  C 138.953553717098 9.60338636895137  142.891462300744 10.3303068237002  142.891462300744 10.3303068237002  C 142.891462300744 10.3303068237002  149.354023077388 9.17881335998332  149.354023077388 9.17881335998332  C 149.354023077388 9.17881335998332  149.214069531907 6.05884503650394  149.214069531907 6.05884503650394  C 149.214069531907 6.05884503650394  143.577509092319 4.05177263047186  143.577509092319 4.05177263047186  C 143.577509092319 4.05177263047186  147.674580531611 3.16617337439142  147.674580531611 3.16617337439142  C 147.674580531611 3.16617337439142  152.770536099436 4.67576629516746  152.770536099436 4.67576629516746  C 152.770536099436 4.67576629516746  158.850261363311 7.17817387832922  158.850261363311 7.17817387832922  C 158.850261363311 7.17817387832922  165.329287262954 8.74137450225825  165.329287262954 8.74137450225825  C 165.329287262954 8.74137450225825  167.527381183163 8.12381376194063  167.527381183163 8.12381376194063  C 167.527381183163 8.12381376194063  172.296778478199 10.0000833722805  172.296778478199 10.0000833722805  C 172.296778478199 10.0000833722805  176.791757056604 8.25247224950689  176.791757056604 8.25247224950689  C 176.791757056604 8.25247224950689  179.684130329888 8.78426066478022  179.684130329888 8.78426066478022  C 179.684130329888 8.78426066478022  181.484317110983 7.61132411980195  181.484317110983 7.61132411980195  C 181.484317110983 7.61132411980195  185.016085994016 10.6347985776067  185.016085994016 10.6347985776067  C 185.016085994016 10.6347985776067  182.966178180787 13.9113013942917  182.966178180787 13.9113013942917  C 182.966178180787 13.9113013942917  180.04636303584 16.3879772799405  180.04636303584 16.3879772799405  C 180.04636303584 16.3879772799405  177.400966607523 16.5938308600463  177.400966607523 16.5938308600463  C 177.400966607523 16.5938308600463  178.292827436572 19.0512079725601  178.292827436572 19.0512079725601  C 178.292827436572 19.0512079725601  176.031617211538 22.1282901335172  176.031617211538 22.1282901335172  C 176.031617211538 22.1282901335172  173.2984067939 25.1603418238266  173.2984067939 25.1603418238266  C 173.2984067939 25.1603418238266  173.849988414326 26.9058086384742  173.849988414326 26.9058086384742  C 173.849988414326 26.9058086384742  179.966781608017 30.3281244077341  179.966781608017 30.3281244077341  C 179.966781608017 30.3281244077341  185.894225887233 32.3180423487575  185.894225887233 32.3180423487575  C 185.894225887233 32.3180423487575  189.854087968209 34.4602061667342  189.854087968209 34.4602061667342  C 189.854087968209 34.4602061667342  195.416555354307 38.1527047598828  195.416555354307 38.1527047598828  C 195.416555354307 38.1527047598828  197.584463215686 38.1462718355045  197.584463215686 38.1462718355045  C 197.584463215686 38.1462718355045  201.61292997582 39.7459256975772  201.61292997582 39.7459256975772  C 201.61292997582 39.7459256975772  202.781953708665 41.6779473191956  202.781953708665 41.6779473191956  C 202.781953708665 41.6779473191956  210.12814275286 43.8051009802893  210.12814275286 43.8051009802893  C 210.12814275286 43.8051009802893  215.210377384854 41.6629371623126  215.210377384854 41.6629371623126  C 215.210377384854 41.6629371623126  216.716936139154 38.3049506368361  216.716936139154 38.3049506368361  C 216.716936139154 38.3049506368361  218.275634449615 35.5409374622895  218.275634449615 35.5409374622895  C 218.275634449615 35.5409374622895  219.233355770655 32.1314875417863  219.233355770655 32.1314875417863  C 219.233355770655 32.1314875417863  221.574147423511 27.19957885175  221.574147423511 27.19957885175  C 221.574147423511 27.19957885175  220.503914428653 24.2104133239629  220.503914428653 24.2104133239629  C 220.503914428653 24.2104133239629  221.058240236247 22.415627422415  221.058240236247 22.415627422415  C 221.058240236247 22.415627422415  220.169123594364 18.8925291712282  220.169123594364 18.8925291712282  C 220.169123594364 18.8925291712282  221.176240284397 14.2672565432248  221.176240284397 14.2672565432248  C 221.176240284397 14.2672565432248  222.652612979869 13.0214135219592  222.652612979869 13.0214135219592  C 222.652612979869 13.0214135219592  221.453403188194 10.9778878777835  221.453403188194 10.9778878777835  C 221.453403188194 10.9778878777835  223.313962086948 7.73783829924221  223.313962086948 7.73783829924221  C 223.313962086948 7.73783829924221  224.773869659422 4.38628469814364  224.773869659422 4.38628469814364  C 224.773869659422 4.38628469814364  224.965962761063 2.64939511600039  224.965962761063 2.64939511600039  C 224.965962761063 2.64939511600039  227.825405788351 0.369995577953144  227.825405788351 0.369995577953144  C 227.825405788351 0.369995577953144  229.996057836897 3.34629525698361  229.996057836897 3.34629525698361  C 229.996057836897 3.34629525698361  230.528430147161 7.1695966458249  230.528430147161 7.1695966458249  C 230.528430147161 7.1695966458249  232.446616976407 7.90723864120409  232.446616976407 7.90723864120409  C 232.446616976407 7.90723864120409  232.773175249197 10.4739754681492  232.773175249197 10.4739754681492  C 232.773175249197 10.4739754681492  235.572246158826 13.5875108672502  235.572246158826 13.5875108672502  C 235.572246158826 13.5875108672502  236.14852546375 17.0612900315367  236.14852546375 17.0612900315367  Z " stroke-width="2" stroke="#505050" fill="none" stroke-opacity="0.211764705882353" transform="matrix(1 0 0 1 2664 2097 )" mask="url(#clip782)" />
  </g>
</svg>