<?xml version="1.0" encoding="utf-8"?>
<svg version="1.1" xmlns:xlink="http://www.w3.org/1999/xlink" width="46px" height="31px" xmlns="http://www.w3.org/2000/svg">
  <defs>
    <mask fill="white" id="clip786">
      <path d="M 0.263009906841944 18.255290991577  C 0.263009906841944 18.255290991577  1.86798240217104 18.0440705546916  1.86798240217104 18.0440705546916  C 1.86798240217104 18.0440705546916  4.15568762278508 20.1200047475132  4.15568762278508 20.1200047475132  C 4.15568762278508 20.1200047475132  9.56659829467617 20.1029364293811  9.56659829467617 20.1029364293811  C 9.56659829467617 20.1029364293811  9.53080988568945 21.2934516190978  9.53080988568945 21.2934516190978  C 9.53080988568945 21.2934516190978  12.6829428310602 27.2812143334541  12.6829428310602 27.2812143334541  C 12.6829428310602 27.2812143334541  5.38901125555913 26.2635158648253  5.38901125555913 26.2635158648253  C 5.38901125555913 26.2635158648253  1.48807467600409 21.1697063126398  1.48807467600409 21.1697063126398  C 1.48807467600409 21.1697063126398  0.263009906841944 18.255290991577  0.263009906841944 18.255290991577  Z M 14.8646807734344 1.61581435250705  C 14.8646807734344 1.61581435250705  20.172377121622 6.45254900320221  20.172377121622 6.45254900320221  C 20.172377121622 6.45254900320221  25.5887937025877 6.99233456413114  25.5887937025877 6.99233456413114  C 25.5887937025877 6.99233456413114  26.9129648350972 4.97613948477212  26.9129648350972 4.97613948477212  C 26.9129648350972 4.97613948477212  31.5214107307752 1.76302859639692  31.5214107307752 1.76302859639692  C 31.5214107307752 1.76302859639692  35.5792657189645 5.95543423760363  35.5792657189645 5.95543423760363  C 35.5792657189645 5.95543423760363  39.5049788893566 11.551709045179  39.5049788893566 11.551709045179  C 39.5049788893566 11.551709045179  43.1030904697932 11.91867788502  43.1030904697932 11.91867788502  C 43.1030904697932 11.91867788502  45.4788902356058 14.0266151743393  45.4788902356058 14.0266151743393  C 45.4788902356058 14.0266151743393  39.1195652541151 14.6538758656954  39.1195652541151 14.6538758656954  C 39.1195652541151 14.6538758656954  37.7788763943813 22.2268586265741  37.7788763943813 22.2268586265741  C 37.7788763943813 22.2268586265741  36.4519523073341 24.9215193516856  36.4519523073341 24.9215193516856  C 36.4519523073341 24.9215193516856  33.6219150428437 26.7115592157938  33.6219150428437 26.7115592157938  C 33.6219150428437 26.7115592157938  33.8283866331521 30.4857910627632  33.8283866331521 30.4857910627632  C 33.8283866331521 30.4857910627632  31.9068243660176 30.8655611412033  31.9068243660176 30.8655611412033  C 31.9068243660176 30.8655611412033  27.0919068800317 26.8779753175821  27.0919068800317 26.8779753175821  C 27.0919068800317 26.8779753175821  29.7540139177381 23.0824080729476  29.7540139177381 23.0824080729476  C 29.7540139177381 23.0824080729476  27.4718146061987 20.816588840906  27.4718146061987 20.816588840906  C 27.4718146061987 20.816588840906  24.5784593873473 21.3883774983325  24.5784593873473 21.3883774983325  C 24.5784593873473 21.3883774983325  13.4744387320266 27.055059118203  13.4744387320266 27.055059118203  C 13.4744387320266 27.055059118203  13.3037555507053 21.7297438609754  13.3037555507053 21.7297438609754  C 13.3037555507053 21.7297438609754  9.83778578806596 20.4645547794305  9.83778578806596 20.4645547794305  C 9.83778578806596 20.4645547794305  6.56176988850984 18.3566174901113  6.56176988850984 18.3566174901113  C 6.56176988850984 18.3566174901113  8.73935692762643 14.3274442814181  8.73935692762643 14.3274442814181  C 8.73935692762643 14.3274442814181  4.62644284868838 11.6434512551392  4.62644284868838 11.6434512551392  C 4.62644284868838 11.6434512551392  6.1791092078056 9.67206051087698  6.1791092078056 9.67206051087698  C 6.1791092078056 9.67206051087698  3.23895376181736 8.3065950603059  3.23895376181736 8.3065950603059  C 3.23895376181736 8.3065950603059  1.63948717556377 6.22852732771788  1.63948717556377 6.22852732771788  C 1.63948717556377 6.22852732771788  3.53076694278616 4.93346868944168  3.53076694278616 4.93346868944168  C 3.53076694278616 4.93346868944168  9.28168897150272 7.2120891600823  9.28168897150272 7.2120891600823  C 9.28168897150272 7.2120891600823  13.4414032775771 7.68146790871626  13.4414032775771 7.68146790871626  C 13.4414032775771 7.68146790871626  14.4930319108798 6.75337811028117  14.4930319108798 6.75337811028117  C 14.4930319108798 6.75337811028117  10.6912016946726 2.45002840121546  10.6912016946726 2.45002840121546  C 10.6912016946726 2.45002840121546  12.6953525979302 1.34698834192588  12.6953525979302 1.34698834192588  C 12.6953525979302 1.34698834192588  14.8646807734344 1.61581435250705  14.8646807734344 1.61581435250705  Z " fill-rule="evenodd" />
    </mask>
  </defs>
  <g transform="matrix(1 0 0 1 -2138 -1755 )">
    <path d="M 0.263009906841944 18.255290991577  C 0.263009906841944 18.255290991577  1.86798240217104 18.0440705546916  1.86798240217104 18.0440705546916  C 1.86798240217104 18.0440705546916  4.15568762278508 20.1200047475132  4.15568762278508 20.1200047475132  C 4.15568762278508 20.1200047475132  9.56659829467617 20.1029364293811  9.56659829467617 20.1029364293811  C 9.56659829467617 20.1029364293811  9.53080988568945 21.2934516190978  9.53080988568945 21.2934516190978  C 9.53080988568945 21.2934516190978  12.6829428310602 27.2812143334541  12.6829428310602 27.2812143334541  C 12.6829428310602 27.2812143334541  5.38901125555913 26.2635158648253  5.38901125555913 26.2635158648253  C 5.38901125555913 26.2635158648253  1.48807467600409 21.1697063126398  1.48807467600409 21.1697063126398  C 1.48807467600409 21.1697063126398  0.263009906841944 18.255290991577  0.263009906841944 18.255290991577  Z M 14.8646807734344 1.61581435250705  C 14.8646807734344 1.61581435250705  20.172377121622 6.45254900320221  20.172377121622 6.45254900320221  C 20.172377121622 6.45254900320221  25.5887937025877 6.99233456413114  25.5887937025877 6.99233456413114  C 25.5887937025877 6.99233456413114  26.9129648350972 4.97613948477212  26.9129648350972 4.97613948477212  C 26.9129648350972 4.97613948477212  31.5214107307752 1.76302859639692  31.5214107307752 1.76302859639692  C 31.5214107307752 1.76302859639692  35.5792657189645 5.95543423760363  35.5792657189645 5.95543423760363  C 35.5792657189645 5.95543423760363  39.5049788893566 11.551709045179  39.5049788893566 11.551709045179  C 39.5049788893566 11.551709045179  43.1030904697932 11.91867788502  43.1030904697932 11.91867788502  C 43.1030904697932 11.91867788502  45.4788902356058 14.0266151743393  45.4788902356058 14.0266151743393  C 45.4788902356058 14.0266151743393  39.1195652541151 14.6538758656954  39.1195652541151 14.6538758656954  C 39.1195652541151 14.6538758656954  37.7788763943813 22.2268586265741  37.7788763943813 22.2268586265741  C 37.7788763943813 22.2268586265741  36.4519523073341 24.9215193516856  36.4519523073341 24.9215193516856  C 36.4519523073341 24.9215193516856  33.6219150428437 26.7115592157938  33.6219150428437 26.7115592157938  C 33.6219150428437 26.7115592157938  33.8283866331521 30.4857910627632  33.8283866331521 30.4857910627632  C 33.8283866331521 30.4857910627632  31.9068243660176 30.8655611412033  31.9068243660176 30.8655611412033  C 31.9068243660176 30.8655611412033  27.0919068800317 26.8779753175821  27.0919068800317 26.8779753175821  C 27.0919068800317 26.8779753175821  29.7540139177381 23.0824080729476  29.7540139177381 23.0824080729476  C 29.7540139177381 23.0824080729476  27.4718146061987 20.816588840906  27.4718146061987 20.816588840906  C 27.4718146061987 20.816588840906  24.5784593873473 21.3883774983325  24.5784593873473 21.3883774983325  C 24.5784593873473 21.3883774983325  13.4744387320266 27.055059118203  13.4744387320266 27.055059118203  C 13.4744387320266 27.055059118203  13.3037555507053 21.7297438609754  13.3037555507053 21.7297438609754  C 13.3037555507053 21.7297438609754  9.83778578806596 20.4645547794305  9.83778578806596 20.4645547794305  C 9.83778578806596 20.4645547794305  6.56176988850984 18.3566174901113  6.56176988850984 18.3566174901113  C 6.56176988850984 18.3566174901113  8.73935692762643 14.3274442814181  8.73935692762643 14.3274442814181  C 8.73935692762643 14.3274442814181  4.62644284868838 11.6434512551392  4.62644284868838 11.6434512551392  C 4.62644284868838 11.6434512551392  6.1791092078056 9.67206051087698  6.1791092078056 9.67206051087698  C 6.1791092078056 9.67206051087698  3.23895376181736 8.3065950603059  3.23895376181736 8.3065950603059  C 3.23895376181736 8.3065950603059  1.63948717556377 6.22852732771788  1.63948717556377 6.22852732771788  C 1.63948717556377 6.22852732771788  3.53076694278616 4.93346868944168  3.53076694278616 4.93346868944168  C 3.53076694278616 4.93346868944168  9.28168897150272 7.2120891600823  9.28168897150272 7.2120891600823  C 9.28168897150272 7.2120891600823  13.4414032775771 7.68146790871626  13.4414032775771 7.68146790871626  C 13.4414032775771 7.68146790871626  14.4930319108798 6.75337811028117  14.4930319108798 6.75337811028117  C 14.4930319108798 6.75337811028117  10.6912016946726 2.45002840121546  10.6912016946726 2.45002840121546  C 10.6912016946726 2.45002840121546  12.6953525979302 1.34698834192588  12.6953525979302 1.34698834192588  C 12.6953525979302 1.34698834192588  14.8646807734344 1.61581435250705  14.8646807734344 1.61581435250705  Z " fill-rule="nonzero" fill="#f2f2f2" stroke="none" transform="matrix(1 0 0 1 2138 1755 )" />
    <path d="M 0.263009906841944 18.255290991577  C 0.263009906841944 18.255290991577  1.86798240217104 18.0440705546916  1.86798240217104 18.0440705546916  C 1.86798240217104 18.0440705546916  4.15568762278508 20.1200047475132  4.15568762278508 20.1200047475132  C 4.15568762278508 20.1200047475132  9.56659829467617 20.1029364293811  9.56659829467617 20.1029364293811  C 9.56659829467617 20.1029364293811  9.53080988568945 21.2934516190978  9.53080988568945 21.2934516190978  C 9.53080988568945 21.2934516190978  12.6829428310602 27.2812143334541  12.6829428310602 27.2812143334541  C 12.6829428310602 27.2812143334541  5.38901125555913 26.2635158648253  5.38901125555913 26.2635158648253  C 5.38901125555913 26.2635158648253  1.48807467600409 21.1697063126398  1.48807467600409 21.1697063126398  C 1.48807467600409 21.1697063126398  0.263009906841944 18.255290991577  0.263009906841944 18.255290991577  Z " stroke-width="2" stroke="#505050" fill="none" stroke-opacity="0.211764705882353" transform="matrix(1 0 0 1 2138 1755 )" mask="url(#clip786)" />
    <path d="M 14.8646807734344 1.61581435250705  C 14.8646807734344 1.61581435250705  20.172377121622 6.45254900320221  20.172377121622 6.45254900320221  C 20.172377121622 6.45254900320221  25.5887937025877 6.99233456413114  25.5887937025877 6.99233456413114  C 25.5887937025877 6.99233456413114  26.9129648350972 4.97613948477212  26.9129648350972 4.97613948477212  C 26.9129648350972 4.97613948477212  31.5214107307752 1.76302859639692  31.5214107307752 1.76302859639692  C 31.5214107307752 1.76302859639692  35.5792657189645 5.95543423760363  35.5792657189645 5.95543423760363  C 35.5792657189645 5.95543423760363  39.5049788893566 11.551709045179  39.5049788893566 11.551709045179  C 39.5049788893566 11.551709045179  43.1030904697932 11.91867788502  43.1030904697932 11.91867788502  C 43.1030904697932 11.91867788502  45.4788902356058 14.0266151743393  45.4788902356058 14.0266151743393  C 45.4788902356058 14.0266151743393  39.1195652541151 14.6538758656954  39.1195652541151 14.6538758656954  C 39.1195652541151 14.6538758656954  37.7788763943813 22.2268586265741  37.7788763943813 22.2268586265741  C 37.7788763943813 22.2268586265741  36.4519523073341 24.9215193516856  36.4519523073341 24.9215193516856  C 36.4519523073341 24.9215193516856  33.6219150428437 26.7115592157938  33.6219150428437 26.7115592157938  C 33.6219150428437 26.7115592157938  33.8283866331521 30.4857910627632  33.8283866331521 30.4857910627632  C 33.8283866331521 30.4857910627632  31.9068243660176 30.8655611412033  31.9068243660176 30.8655611412033  C 31.9068243660176 30.8655611412033  27.0919068800317 26.8779753175821  27.0919068800317 26.8779753175821  C 27.0919068800317 26.8779753175821  29.7540139177381 23.0824080729476  29.7540139177381 23.0824080729476  C 29.7540139177381 23.0824080729476  27.4718146061987 20.816588840906  27.4718146061987 20.816588840906  C 27.4718146061987 20.816588840906  24.5784593873473 21.3883774983325  24.5784593873473 21.3883774983325  C 24.5784593873473 21.3883774983325  13.4744387320266 27.055059118203  13.4744387320266 27.055059118203  C 13.4744387320266 27.055059118203  13.3037555507053 21.7297438609754  13.3037555507053 21.7297438609754  C 13.3037555507053 21.7297438609754  9.83778578806596 20.4645547794305  9.83778578806596 20.4645547794305  C 9.83778578806596 20.4645547794305  6.56176988850984 18.3566174901113  6.56176988850984 18.3566174901113  C 6.56176988850984 18.3566174901113  8.73935692762643 14.3274442814181  8.73935692762643 14.3274442814181  C 8.73935692762643 14.3274442814181  4.62644284868838 11.6434512551392  4.62644284868838 11.6434512551392  C 4.62644284868838 11.6434512551392  6.1791092078056 9.67206051087698  6.1791092078056 9.67206051087698  C 6.1791092078056 9.67206051087698  3.23895376181736 8.3065950603059  3.23895376181736 8.3065950603059  C 3.23895376181736 8.3065950603059  1.63948717556377 6.22852732771788  1.63948717556377 6.22852732771788  C 1.63948717556377 6.22852732771788  3.53076694278616 4.93346868944168  3.53076694278616 4.93346868944168  C 3.53076694278616 4.93346868944168  9.28168897150272 7.2120891600823  9.28168897150272 7.2120891600823  C 9.28168897150272 7.2120891600823  13.4414032775771 7.68146790871626  13.4414032775771 7.68146790871626  C 13.4414032775771 7.68146790871626  14.4930319108798 6.75337811028117  14.4930319108798 6.75337811028117  C 14.4930319108798 6.75337811028117  10.6912016946726 2.45002840121546  10.6912016946726 2.45002840121546  C 10.6912016946726 2.45002840121546  12.6953525979302 1.34698834192588  12.6953525979302 1.34698834192588  C 12.6953525979302 1.34698834192588  14.8646807734344 1.61581435250705  14.8646807734344 1.61581435250705  Z " stroke-width="2" stroke="#505050" fill="none" stroke-opacity="0.211764705882353" transform="matrix(1 0 0 1 2138 1755 )" mask="url(#clip786)" />
  </g>
</svg>