<?xml version="1.0" encoding="utf-8"?>
<svg version="1.1" xmlns:xlink="http://www.w3.org/1999/xlink" width="477px" height="274px" xmlns="http://www.w3.org/2000/svg">
  <defs>
    <mask fill="white" id="clip531">
      <path d="M 287.382430448347 264.324772846561  C 287.382430448347 264.324772846561  285.599500751654 269.558586682638  285.599500751654 269.558586682638  C 285.599500751654 269.558586682638  276.947230838069 272.601686897157  276.947230838069 272.601686897157  C 276.947230838069 272.601686897157  270.631429031137 270.640482084683  270.631429031137 270.640482084683  C 270.631429031137 270.640482084683  270.408906218453 263.61141153565  270.408906218453 263.61141153565  C 270.408906218453 263.61141153565  274.205530010179 260.721328399906  274.205530010179 260.721328399906  C 274.205530010179 260.721328399906  284.616004863493 258.930382027196  284.616004863493 258.930382027196  C 284.616004863493 258.930382027196  289.044483555435 259.083399105972  289.044483555435 259.083399105972  C 289.044483555435 259.083399105972  290.766974957325 261.52089651576  290.766974957325 261.52089651576  C 290.766974957325 261.52089651576  287.382430448347 264.324772846561  287.382430448347 264.324772846561  Z M 416.159953502592 27.0276112177486  C 416.159953502592 27.0276112177486  418.997806163124 36.2689807077345  418.997806163124 36.2689807077345  C 418.997806163124 36.2689807077345  432.404118828554 39.2409603081753  432.404118828554 39.2409603081753  C 432.404118828554 39.2409603081753  441.527554148614 45.7819016332934  441.527554148614 45.7819016332934  C 441.527554148614 45.7819016332934  444.645620721414 54.284047770885  444.645620721414 54.284047770885  C 444.645620721414 54.284047770885  456.351419546701 54.2948236215029  456.351419546701 54.2948236215029  C 456.351419546701 54.2948236215029  463.029851122451 50.7452584279381  463.029851122451 50.7452584279381  C 463.029851122451 50.7452584279381  475.760353764173 48.075002644801  475.760353764173 48.075002644801  C 475.760353764173 48.075002644801  471.710988012361 56.1805974796508  471.710988012361 56.1805974796508  C 471.710988012361 56.1805974796508  468.719292419604 59.4392147065299  468.719292419604 59.4392147065299  C 468.719292419604 59.4392147065299  466.079237814793 69.0555837980214  466.079237814793 69.0555837980214  C 466.079237814793 69.0555837980214  460.89802763303 77.434885238568  460.89802763303 77.434885238568  C 460.89802763303 77.434885238568  451.552069500285 75.9198006416791  451.552069500285 75.9198006416791  C 451.552069500285 75.9198006416791  444.939570609774 78.9370388147153  444.939570609774 78.9370388147153  C 444.939570609774 78.9370388147153  446.969747876117 86.1719449196317  446.969747876117 86.1719449196317  C 446.969747876117 86.1719449196317  445.859881007914 95.9844344923705  445.859881007914 95.9844344923705  C 445.859881007914 95.9844344923705  441.925897455271 96.2064170151011  441.925897455271 96.2064170151011  C 441.925897455271 96.2064170151011  441.972599773983 100.36374018352  441.972599773983 100.36374018352  C 441.972599773983 100.36374018352  436.997429233594 95.5275384261678  436.997429233594 95.5275384261678  C 436.997429233594 95.5275384261678  433.937053760379 100.11805078943  433.937053760379 100.11805078943  C 433.937053760379 100.11805078943  422.041698465028 103.620202240276  422.041698465028 103.620202240276  C 422.041698465028 103.620202240276  423.244969970655 107.876663234381  423.244969970655 107.876663234381  C 423.244969970655 107.876663234381  416.585768761433 107.583560097571  416.585768761433 107.583560097571  C 416.585768761433 107.583560097571  412.929251925841 105.057700712715  412.929251925841 105.057700712715  C 412.929251925841 105.057700712715  407.635406740127 110.755970519507  407.635406740127 110.755970519507  C 407.635406740127 110.755970519507  399.1465735155 115.031828044724  399.1465735155 115.031828044724  C 399.1465735155 115.031828044724  392.874726832062 120.090012324807  392.874726832062 120.090012324807  C 392.874726832062 120.090012324807  382.105721576224 122.368027145449  382.105721576224 122.368027145449  C 382.105721576224 122.368027145449  376.4355106456 126.008109484205  376.4355106456 126.008109484205  C 376.4355106456 126.008109484205  368.138981086256 128.122331375454  368.138981086256 128.122331375454  C 368.138981086256 128.122331375454  372.232301961561 124.527507609294  372.232301961561 124.527507609294  C 372.232301961561 124.527507609294  370.619698368404 121.486562564898  370.619698368404 121.486562564898  C 370.619698368404 121.486562564898  376.721218948306 116.19777508159  376.721218948306 116.19777508159  C 376.721218948306 116.19777508159  372.652622829965 112.038296743047  372.652622829965 112.038296743047  C 372.652622829965 112.038296743047  365.938477716377 114.844328243971  365.938477716377 114.844328243971  C 365.938477716377 114.844328243971  357.243604850375 120.327081038403  357.243604850375 120.327081038403  C 357.243604850375 120.327081038403  352.496451513108 125.37017912762  352.496451513108 125.37017912762  C 352.496451513108 125.37017912762  344.941664662712 125.743023559003  344.941664662712 125.743023559003  C 344.941664662712 125.743023559003  341.010428305288 130.920802971866  341.010428305288 130.920802971866  C 341.010428305288 130.920802971866  345.073530033192 136.112607799612  345.073530033192 136.112607799612  C 345.073530033192 136.112607799612  351.375595864031 137.366916811546  351.375595864031 137.366916811546  C 351.375595864031 137.366916811546  351.636579409772 140.778551117201  351.636579409772 140.778551117201  C 351.636579409772 140.778551117201  357.729858404019 142.987600493888  357.729858404019 142.987600493888  C 357.729858404019 142.987600493888  366.364292975218 137.571657973288  366.364292975218 137.571657973288  C 366.364292975218 137.571657973288  373.202061873631 140.53286172311  373.202061873631 140.53286172311  C 373.202061873631 140.53286172311  378.182726804456 140.733292544605  378.182726804456 140.733292544605  C 378.182726804456 140.733292544605  379.432700628794 144.69018489153  379.432700628794 144.69018489153  C 379.432700628794 144.69018489153  368.52633561204 146.789320591914  368.52633561204 146.789320591914  C 368.52633561204 146.789320591914  364.924762680815 150.823799063288  364.924762680815 150.823799063288  C 364.924762680815 150.823799063288  357.43316132044 154.547933036864  357.43316132044 154.547933036864  C 357.43316132044 154.547933036864  353.479947401269 159.705255142633  353.479947401269 159.705255142633  C 353.479947401269 159.705255142633  361.773729765395 163.722492253018  361.773729765395 163.722492253018  C 361.773729765395 163.722492253018  364.80113889599 170.849639851755  364.80113889599 170.849639851755  C 364.80113889599 170.849639851755  369.487853938454 177.414288048232  369.487853938454 177.414288048232  C 369.487853938454 177.414288048232  374.718513634146 182.86471329081  374.718513634146 182.86471329081  C 374.718513634146 182.86471329081  374.592142654104 188.093156010657  374.592142654104 188.093156010657  C 374.592142654104 188.093156010657  369.75707906985 190.004791910288  369.75707906985 190.004791910288  C 369.75707906985 190.004791910288  371.600447061347 193.722460373494  371.600447061347 193.722460373494  C 371.600447061347 193.722460373494  376.133319171584 195.877630497091  376.133319171584 195.877630497091  C 376.133319171584 195.877630497091  374.949278032486 201.500469349556  374.949278032486 201.500469349556  C 374.949278032486 201.500469349556  372.993275037038 206.927187720775  372.993275037038 206.927187720775  C 372.993275037038 206.927187720775  368.688420129921 207.539256035876  368.688420129921 207.539256035876  C 368.688420129921 207.539256035876  363.064911518008 214.881920646972  363.064911518008 214.881920646972  C 363.064911518008 214.881920646972  356.82603117719 223.687945771991  356.82603117719 223.687945771991  C 356.82603117719 223.687945771991  349.672334828669 231.610351146335  349.672334828669 231.610351146335  C 349.672334828669 231.610351146335  339.081897262023 237.683620554632  339.081897262023 237.683620554632  C 339.081897262023 237.683620554632  328.367835910552 243.185769880177  328.367835910552 243.185769880177  C 328.367835910552 243.185769880177  319.68944621586 243.933613913065  319.68944621586 243.933613913065  C 319.68944621586 243.933613913065  314.98075361165 246.821541878685  314.98075361165 246.821541878685  C 314.98075361165 246.821541878685  312.315974249873 244.711630327684  312.315974249873 244.711630327684  C 312.315974249873 244.711630327684  307.958922633609 247.940075172832  307.958922633609 247.940075172832  C 307.958922633609 247.940075172832  297.192664572989 251.181451038723  297.192664572989 251.181451038723  C 297.192664572989 251.181451038723  289.041736360216 252.170674125454  289.041736360216 252.170674125454  C 289.041736360216 252.170674125454  286.412670536278 258.961615184909  286.412670536278 258.961615184909  C 286.412670536278 258.961615184909  282.143529167 259.336614786415  282.143529167 259.336614786415  C 282.143529167 259.336614786415  280.12434068153 254.677136979198  280.12434068153 254.677136979198  C 280.12434068153 254.677136979198  281.948478306499 252.183605146196  281.948478306499 252.183605146196  C 281.948478306499 252.183605146196  271.613529895157 250.116796997666  271.613529895157 250.116796997666  C 271.613529895157 250.116796997666  267.973496230875 251.168520017981  267.973496230875 251.168520017981  C 267.973496230875 251.168520017981  260.218164129541 249.491797661822  260.218164129541 249.491797661822  C 260.218164129541 249.491797661822  256.550658513076 246.858179770787  256.550658513076 246.858179770787  C 256.550658513076 246.858179770787  257.767665994794 243.112494095974  257.767665994794 243.112494095974  C 257.767665994794 243.112494095974  250.726604650225 241.920685017625  250.726604650225 241.920685017625  C 250.726604650225 241.920685017625  247.012396715048 239.468101416971  247.012396715048 239.468101416971  C 247.012396715048 239.468101416971  240.44660014325 242.948701166581  240.44660014325 242.948701166581  C 240.44660014325 242.948701166581  230.961930078511 243.700855539717  230.961930078511 243.700855539717  C 230.961930078511 243.700855539717  224.819201570334 243.666372817739  224.819201570334 243.666372817739  C 224.819201570334 243.666372817739  220.684672766754 245.25473319883  220.684672766754 245.25473319883  C 220.684672766754 245.25473319883  216.692998114526 246.20731839346  216.692998114526 246.20731839346  C 216.692998114526 246.20731839346  217.857808887096 253.60601742777  217.857808887096 253.60601742777  C 217.857808887096 253.60601742777  213.750752035699 253.429293477635  213.750752035699 253.429293477635  C 213.750752035699 253.429293477635  213.058458840681 251.914208880746  213.058458840681 251.914208880746  C 213.058458840681 251.914208880746  212.824947247124 249.241797927485  212.824947247124 249.241797927485  C 212.824947247124 249.241797927485  207.173966683027 251.125416615509  207.173966683027 251.125416615509  C 207.173966683027 251.125416615509  203.838871687979 249.935762707284  203.838871687979 249.935762707284  C 203.838871687979 249.935762707284  198.119211243425 247.504730807866  198.119211243425 247.504730807866  C 198.119211243425 247.504730807866  200.360922541579 242.101719308007  200.360922541579 242.101719308007  C 200.360922541579 242.101719308007  195.48465102905 240.836634445456  195.48465102905 240.836634445456  C 195.48465102905 240.836634445456  193.646777427991 234.800002929259  193.646777427991 234.800002929259  C 193.646777427991 234.800002929259  185.515079581746 235.8905190118  185.515079581746 235.8905190118  C 185.515079581746 235.8905190118  186.440884370322 228.056475612523  186.440884370322 228.056475612523  C 186.440884370322 228.056475612523  193.734687674977 222.496136693642  193.734687674977 222.496136693642  C 193.734687674977 222.496136693642  194.045120734648 216.965970156491  194.045120734648 216.965970156491  C 194.045120734648 216.965970156491  193.817103531527 211.797872200105  193.817103531527 211.797872200105  C 193.817103531527 211.797872200105  190.454536584296 210.181494607407  190.454536584296 210.181494607407  C 190.454536584296 210.181494607407  187.880414664724 206.172878177516  187.880414664724 206.172878177516  C 187.880414664724 206.172878177516  183.372267311451 206.679343156561  183.372267311451 206.679343156561  C 183.372267311451 206.679343156561  175.067496166452 205.657792517976  175.067496166452 205.657792517976  C 175.067496166452 205.657792517976  177.669090038207 202.782795573097  177.669090038207 202.782795573097  C 177.669090038207 202.782795573097  174.059275521327 198.502627707632  174.059275521327 198.502627707632  C 174.059275521327 198.502627707632  168.567632279893 201.403486693994  168.567632279893 201.403486693994  C 168.567632279893 201.403486693994  162.106229126391 199.711678146971  162.106229126391 199.711678146971  C 162.106229126391 199.711678146971  153.227294180761 204.086673497873  153.227294180761 204.086673497873  C 153.227294180761 204.086673497873  146.216451983594 209.162099138945  146.216451983594 209.162099138945  C 146.216451983594 209.162099138945  140.002296399741 210.013391337766  140.002296399741 210.013391337766  C 140.002296399741 210.013391337766  136.628740671636 208.183651902832  136.628740671636 208.183651902832  C 136.628740671636 208.183651902832  132.562891748514 208.017703803315  132.562891748514 208.017703803315  C 132.562891748514 208.017703803315  127.057512530989 206.440119272841  127.057512530989 206.440119272841  C 127.057512530989 206.440119272841  122.895511775225 208.17072088209  122.895511775225 208.17072088209  C 122.895511775225 208.17072088209  117.802211840449 213.215974141432  117.802211840449 213.215974141432  C 117.802211840449 213.215974141432  117.156620964142 207.868997064786  117.156620964142 207.868997064786  C 117.156620964142 207.868997064786  112.458917140805 209.302185196979  112.458917140805 209.302185196979  C 112.458917140805 209.302185196979  103.475588776879 208.636237628787  103.475588776879 208.636237628787  C 103.475588776879 208.636237628787  94.7614855443495 207.073739289179  94.7614855443495 207.073739289179  C 94.7614855443495 207.073739289179  88.5116164226581 204.071587307008  88.5116164226581 204.071587307008  C 88.5116164226581 204.071587307008  82.525478041926 202.720295639513  82.525478041926 202.720295639513  C 82.525478041926 202.720295639513  79.9403673414812 199.416419840038  79.9403673414812 199.416419840038  C 79.9403673414812 199.416419840038  75.6135348726177 198.427196753307  75.6135348726177 198.427196753307  C 75.6135348726177 198.427196753307  67.8362252095369 193.914270514493  67.8362252095369 193.914270514493  C 67.8362252095369 193.914270514493  61.6605303587401 191.774186581761  61.6605303587401 191.774186581761  C 61.6605303587401 191.774186581761  58.4682895150453 193.440133087302  58.4682895150453 193.440133087302  C 58.4682895150453 193.440133087302  47.7652169444476 188.558672757354  47.7652169444476 188.558672757354  C 47.7652169444476 188.558672757354  40.1966941179601 184.108246452126  40.1966941179601 184.108246452126  C 40.1966941179601 184.108246452126  38.0373986763561 176.287134073591  38.0373986763561 176.287134073591  C 38.0373986763561 176.287134073591  43.5647554556274 177.246184778592  43.5647554556274 177.246184778592  C 43.5647554556274 177.246184778592  43.8174974157135 173.595326589218  43.8174974157135 173.595326589218  C 43.8174974157135 173.595326589218  40.7543747472801 169.914296018113  40.7543747472801 169.914296018113  C 40.7543747472801 169.914296018113  41.5345781892844 164.000509198962  41.5345781892844 164.000509198962  C 41.5345781892844 164.000509198962  33.2545318012504 155.403535575932  33.2545318012504 155.403535575932  C 33.2545318012504 155.403535575932  20.5872146495493 152.407849104132  20.5872146495493 152.407849104132  C 20.5872146495493 152.407849104132  18.3070426183388 146.672941405239  18.3070426183388 146.672941405239  C 18.3070426183388 146.672941405239  12.6176013211861 143.166479614146  12.6176013211861 143.166479614146  C 12.6176013211861 143.166479614146  11.2467509072413 140.996223299684  11.2467509072413 140.996223299684  C 11.2467509072413 140.996223299684  10.0901817203258 136.660021011006  10.0901817203258 136.660021011006  C 10.0901817203258 136.660021011006  10.3594068517215 133.683731070318  10.3594068517215 133.683731070318  C 10.3594068517215 133.683731070318  5.68093339491274 131.933732929957  5.68093339491274 131.933732929957  C 5.68093339491274 131.933732929957  3.15076659883433 132.707439004328  3.15076659883433 132.707439004328  C 3.15076659883433 132.707439004328  1.19751079860458 123.977939227776  1.19751079860458 123.977939227776  C 1.19751079860458 123.977939227776  3.38977258282862 122.191303195314  3.38977258282862 122.191303195314  C 3.38977258282862 122.191303195314  2.32660803333685 120.359408590256  2.32660803333685 120.359408590256  C 2.32660803333685 120.359408590256  9.68084963279505 116.639584956927  9.68084963279505 116.639584956927  C 9.68084963279505 116.639584956927  15.0049139659107 115.092172808184  15.0049139659107 115.092172808184  C 15.0049139659107 115.092172808184  23.1585893739018 116.152516508994  23.1585893739018 116.152516508994  C 23.1585893739018 116.152516508994  26.073363500546 111.079246038046  26.073363500546 111.079246038046  C 26.073363500546 111.079246038046  35.955024700864 110.130971183663  35.955024700864 110.130971183663  C 35.955024700864 110.130971183663  38.6994727239716 106.945629740986  38.6994727239716 106.945629740986  C 38.6994727239716 106.945629740986  50.8393283937541 102.56847921996  50.8393283937541 102.56847921996  C 50.8393283937541 102.56847921996  51.9217233097745 100.730119104531  51.9217233097745 100.730119104531  C 51.9217233097745 100.730119104531  51.306351580869 96.0641757869431  51.306351580869 96.0641757869431  C 51.306351580869 96.0641757869431  56.5919551809283 93.9197815139637  56.5919551809283 93.9197815139637  C 56.5919551809283 93.9197815139637  49.6580344498736 79.363762499187  49.6580344498736 79.363762499187  C 49.6580344498736 79.363762499187  64.9187038876737 75.954283363656  64.9187038876737 75.954283363656  C 64.9187038876737 75.954283363656  68.86367622119 74.0448026341487  68.86367622119 74.0448026341487  C 68.86367622119 74.0448026341487  74.418504952645 58.3939571965846  74.418504952645 58.3939571965846  C 74.418504952645 58.3939571965846  89.7011519521923 61.3099023738118  89.7011519521923 61.3099023738118  C 89.7011519521923 61.3099023738118  93.9867764927803 57.3012859439207  93.9867764927803 57.3012859439207  C 93.9867764927803 57.3012859439207  94.354900652036 48.2797438065422  94.354900652036 48.2797438065422  C 94.354900652036 48.2797438065422  100.753118315517 47.4284516077212  100.753118315517 47.4284516077212  C 100.753118315517 47.4284516077212  106.615632911425 41.327164987817  106.615632911425 41.327164987817  C 106.615632911425 41.327164987817  109.632053261146 40.5685451043108  109.632053261146 40.5685451043108  C 109.632053261146 40.5685451043108  111.653988941834 46.9694003713951  111.653988941834 46.9694003713951  C 111.653988941834 46.9694003713951  118.12638087621 51.7754297470173  118.12638087621 51.7754297470173  C 118.12638087621 51.7754297470173  129.112414554295 55.1482709904472  129.112414554295 55.1482709904472  C 129.112414554295 55.1482709904472  134.428237301756 62.3012806306669  134.428237301756 62.3012806306669  C 134.428237301756 62.3012806306669  131.464013661182 72.4909249750352  131.464013661182 72.4909249750352  C 131.464013661182 72.4909249750352  134.235933636473 76.217214118735  134.235933636473 76.217214118735  C 134.235933636473 76.217214118735  143.389588103935 77.6784194625341  143.389588103935 77.6784194625341  C 143.389588103935 77.6784194625341  153.762997248333 78.8680733707598  153.762997248333 78.8680733707598  C 153.762997248333 78.8680733707598  163.070494648022 84.1439298333262  163.070494648022 84.1439298333262  C 163.070494648022 84.1439298333262  167.828636766162 85.0771184968438  167.828636766162 85.0771184968438  C 167.828636766162 85.0771184968438  171.336805059964 92.7667654978392  171.336805059964 92.7667654978392  C 171.336805059964 92.7667654978392  175.858688389329 97.6568465082816  175.858688389329 97.6568465082816  C 175.858688389329 97.6568465082816  184.350268809174 97.467191537405  184.350268809174 97.467191537405  C 184.350268809174 97.467191537405  200.248287537626 99.3033964827099  200.248287537626 99.3033964827099  C 200.248287537626 99.3033964827099  210.492578506764 98.1654666574505  210.492578506764 98.1654666574505  C 210.492578506764 98.1654666574505  218.09681487109 99.383137777283  218.09681487109 99.383137777283  C 218.09681487109 99.383137777283  229.492180636706 104.320632530444  229.492180636706 104.320632530444  C 229.492180636706 104.320632530444  240.809229912068 104.314167020074  240.809229912068 104.314167020074  C 240.809229912068 104.314167020074  244.21849917801 106.822785043941  244.21849917801 106.822785043941  C 244.21849917801 106.822785043941  253.188091565844 102.482272415016  253.188091565844 102.482272415016  C 253.188091565844 102.482272415016  265.630138709642 99.6546892128562  265.630138709642 99.6546892128562  C 265.630138709642 99.6546892128562  277.173853017047 99.3443447150582  277.173853017047 99.3443447150582  C 277.173853017047 99.3443447150582  286.173664552283 96.4628822598085  286.173664552283 96.4628822598085  C 286.173664552283 96.4628822598085  291.701021331555 92.0426283363103  291.701021331555 92.0426283363103  C 291.701021331555 92.0426283363103  297.093765545128 89.2473726860045  297.093765545128 89.2473726860045  C 297.093765545128 89.2473726860045  295.846538916008 86.4887549277999  295.846538916008 86.4887549277999  C 295.846538916008 86.4887549277999  293.385052000389 83.2581549125274  293.385052000389 83.2581549125274  C 293.385052000389 83.2581549125274  297.431670556982 77.7883331388372  297.431670556982 77.7883331388372  C 297.431670556982 77.7883331388372  301.763997416283 78.5598840430851  301.763997416283 78.5598840430851  C 301.763997416283 78.5598840430851  309.681414035498 80.284020141963  309.681414035498 80.284020141963  C 309.681414035498 80.284020141963  317.3570774755 75.7560077122849  317.3570774755 75.7560077122849  C 317.3570774755 75.7560077122849  329.101337033843 72.4241147012034  329.101337033843 72.4241147012034  C 329.101337033843 72.4241147012034  334.746823207503 66.6870518321873  334.746823207503 66.6870518321873  C 334.746823207503 66.6870518321873  340.169786568479 64.1956751693087  340.169786568479 64.1956751693087  C 340.169786568479 64.1956751693087  351.356365497502 63.0297281324426  351.356365497502 63.0297281324426  C 351.356365497502 63.0297281324426  357.435908515657 64.0189512191738  357.435908515657 64.0189512191738  C 357.435908515657 64.0189512191738  358.279297447683 60.8874890295868  358.279297447683 60.8874890295868  C 358.279297447683 60.8874890295868  351.298674397917 54.6655128827612  351.298674397917 54.6655128827612  C 351.298674397917 54.6655128827612  345.117485156683 51.7926711080059  345.117485156683 51.7926711080059  C 345.117485156683 51.7926711080059  339.197279461191 55.1073227580986  339.197279461191 55.1073227580986  C 339.197279461191 55.1073227580986  331.598537487302 53.7129276881312  331.598537487302 53.7129276881312  C 331.598537487302 53.7129276881312  327.238738675818 54.8508575133906  327.238738675818 54.8508575133906  C 327.238738675818 54.8508575133906  325.252516532969 51.1741372825335  325.252516532969 51.1741372825335  C 325.252516532969 51.1741372825335  330.694710260472 42.0620779999638  330.694710260472 42.0620779999638  C 330.694710260472 42.0620779999638  334.444631733487 35.0642406086431  334.444631733487 35.0642406086431  C 334.444631733487 35.0642406086431  343.688943643154 38.581478250354  343.688943643154 38.581478250354  C 343.688943643154 38.581478250354  354.545859145978 32.6784672818209  354.545859145978 32.6784672818209  C 354.545859145978 32.6784672818209  354.474432070302 28.5211441134016  354.474432070302 28.5211441134016  C 354.474432070302 28.5211441134016  361.427583167884 18.337965279404  361.427583167884 18.337965279404  C 361.427583167884 18.337965279404  365.713207708473 15.2129686001878  365.713207708473 15.2129686001878  C 365.713207708473 15.2129686001878  365.617055875831 9.77762954847532  365.617055875831 9.77762954847532  C 365.617055875831 9.77762954847532  361.391869630046 7.41771826313612  361.391869630046 7.41771826313612  C 361.391869630046 7.41771826313612  367.751626560471 2.43280976725539  367.751626560471 2.43280976725539  C 367.751626560471 2.43280976725539  377.322854701118 0.611691012815607  377.322854701118 0.611691012815607  C 377.322854701118 0.611691012815607  387.536926522854 0.337984407118702  387.536926522854 0.337984407118702  C 387.536926522854 0.337984407118702  399.06415765895 3.34229155941349  399.06415765895 3.34229155941349  C 399.06415765895 3.34229155941349  405.827752286468 7.02978764088857  405.827752286468 7.02978764088857  C 405.827752286468 7.02978764088857  410.588641599826 16.9672770807961  410.588641599826 16.9672770807961  C 410.588641599826 16.9672770807961  413.475943774287 21.1418416102041  413.475943774287 21.1418416102041  C 413.475943774287 21.1418416102041  416.159953502592 27.0276112177486  416.159953502592 27.0276112177486  Z " fill-rule="evenodd" />
    </mask>
  </defs>
  <g transform="matrix(1 0 0 1 -2358 -1653 )">
    <path d="M 287.382430448347 264.324772846561  C 287.382430448347 264.324772846561  285.599500751654 269.558586682638  285.599500751654 269.558586682638  C 285.599500751654 269.558586682638  276.947230838069 272.601686897157  276.947230838069 272.601686897157  C 276.947230838069 272.601686897157  270.631429031137 270.640482084683  270.631429031137 270.640482084683  C 270.631429031137 270.640482084683  270.408906218453 263.61141153565  270.408906218453 263.61141153565  C 270.408906218453 263.61141153565  274.205530010179 260.721328399906  274.205530010179 260.721328399906  C 274.205530010179 260.721328399906  284.616004863493 258.930382027196  284.616004863493 258.930382027196  C 284.616004863493 258.930382027196  289.044483555435 259.083399105972  289.044483555435 259.083399105972  C 289.044483555435 259.083399105972  290.766974957325 261.52089651576  290.766974957325 261.52089651576  C 290.766974957325 261.52089651576  287.382430448347 264.324772846561  287.382430448347 264.324772846561  Z M 416.159953502592 27.0276112177486  C 416.159953502592 27.0276112177486  418.997806163124 36.2689807077345  418.997806163124 36.2689807077345  C 418.997806163124 36.2689807077345  432.404118828554 39.2409603081753  432.404118828554 39.2409603081753  C 432.404118828554 39.2409603081753  441.527554148614 45.7819016332934  441.527554148614 45.7819016332934  C 441.527554148614 45.7819016332934  444.645620721414 54.284047770885  444.645620721414 54.284047770885  C 444.645620721414 54.284047770885  456.351419546701 54.2948236215029  456.351419546701 54.2948236215029  C 456.351419546701 54.2948236215029  463.029851122451 50.7452584279381  463.029851122451 50.7452584279381  C 463.029851122451 50.7452584279381  475.760353764173 48.075002644801  475.760353764173 48.075002644801  C 475.760353764173 48.075002644801  471.710988012361 56.1805974796508  471.710988012361 56.1805974796508  C 471.710988012361 56.1805974796508  468.719292419604 59.4392147065299  468.719292419604 59.4392147065299  C 468.719292419604 59.4392147065299  466.079237814793 69.0555837980214  466.079237814793 69.0555837980214  C 466.079237814793 69.0555837980214  460.89802763303 77.434885238568  460.89802763303 77.434885238568  C 460.89802763303 77.434885238568  451.552069500285 75.9198006416791  451.552069500285 75.9198006416791  C 451.552069500285 75.9198006416791  444.939570609774 78.9370388147153  444.939570609774 78.9370388147153  C 444.939570609774 78.9370388147153  446.969747876117 86.1719449196317  446.969747876117 86.1719449196317  C 446.969747876117 86.1719449196317  445.859881007914 95.9844344923705  445.859881007914 95.9844344923705  C 445.859881007914 95.9844344923705  441.925897455271 96.2064170151011  441.925897455271 96.2064170151011  C 441.925897455271 96.2064170151011  441.972599773983 100.36374018352  441.972599773983 100.36374018352  C 441.972599773983 100.36374018352  436.997429233594 95.5275384261678  436.997429233594 95.5275384261678  C 436.997429233594 95.5275384261678  433.937053760379 100.11805078943  433.937053760379 100.11805078943  C 433.937053760379 100.11805078943  422.041698465028 103.620202240276  422.041698465028 103.620202240276  C 422.041698465028 103.620202240276  423.244969970655 107.876663234381  423.244969970655 107.876663234381  C 423.244969970655 107.876663234381  416.585768761433 107.583560097571  416.585768761433 107.583560097571  C 416.585768761433 107.583560097571  412.929251925841 105.057700712715  412.929251925841 105.057700712715  C 412.929251925841 105.057700712715  407.635406740127 110.755970519507  407.635406740127 110.755970519507  C 407.635406740127 110.755970519507  399.1465735155 115.031828044724  399.1465735155 115.031828044724  C 399.1465735155 115.031828044724  392.874726832062 120.090012324807  392.874726832062 120.090012324807  C 392.874726832062 120.090012324807  382.105721576224 122.368027145449  382.105721576224 122.368027145449  C 382.105721576224 122.368027145449  376.4355106456 126.008109484205  376.4355106456 126.008109484205  C 376.4355106456 126.008109484205  368.138981086256 128.122331375454  368.138981086256 128.122331375454  C 368.138981086256 128.122331375454  372.232301961561 124.527507609294  372.232301961561 124.527507609294  C 372.232301961561 124.527507609294  370.619698368404 121.486562564898  370.619698368404 121.486562564898  C 370.619698368404 121.486562564898  376.721218948306 116.19777508159  376.721218948306 116.19777508159  C 376.721218948306 116.19777508159  372.652622829965 112.038296743047  372.652622829965 112.038296743047  C 372.652622829965 112.038296743047  365.938477716377 114.844328243971  365.938477716377 114.844328243971  C 365.938477716377 114.844328243971  357.243604850375 120.327081038403  357.243604850375 120.327081038403  C 357.243604850375 120.327081038403  352.496451513108 125.37017912762  352.496451513108 125.37017912762  C 352.496451513108 125.37017912762  344.941664662712 125.743023559003  344.941664662712 125.743023559003  C 344.941664662712 125.743023559003  341.010428305288 130.920802971866  341.010428305288 130.920802971866  C 341.010428305288 130.920802971866  345.073530033192 136.112607799612  345.073530033192 136.112607799612  C 345.073530033192 136.112607799612  351.375595864031 137.366916811546  351.375595864031 137.366916811546  C 351.375595864031 137.366916811546  351.636579409772 140.778551117201  351.636579409772 140.778551117201  C 351.636579409772 140.778551117201  357.729858404019 142.987600493888  357.729858404019 142.987600493888  C 357.729858404019 142.987600493888  366.364292975218 137.571657973288  366.364292975218 137.571657973288  C 366.364292975218 137.571657973288  373.202061873631 140.53286172311  373.202061873631 140.53286172311  C 373.202061873631 140.53286172311  378.182726804456 140.733292544605  378.182726804456 140.733292544605  C 378.182726804456 140.733292544605  379.432700628794 144.69018489153  379.432700628794 144.69018489153  C 379.432700628794 144.69018489153  368.52633561204 146.789320591914  368.52633561204 146.789320591914  C 368.52633561204 146.789320591914  364.924762680815 150.823799063288  364.924762680815 150.823799063288  C 364.924762680815 150.823799063288  357.43316132044 154.547933036864  357.43316132044 154.547933036864  C 357.43316132044 154.547933036864  353.479947401269 159.705255142633  353.479947401269 159.705255142633  C 353.479947401269 159.705255142633  361.773729765395 163.722492253018  361.773729765395 163.722492253018  C 361.773729765395 163.722492253018  364.80113889599 170.849639851755  364.80113889599 170.849639851755  C 364.80113889599 170.849639851755  369.487853938454 177.414288048232  369.487853938454 177.414288048232  C 369.487853938454 177.414288048232  374.718513634146 182.86471329081  374.718513634146 182.86471329081  C 374.718513634146 182.86471329081  374.592142654104 188.093156010657  374.592142654104 188.093156010657  C 374.592142654104 188.093156010657  369.75707906985 190.004791910288  369.75707906985 190.004791910288  C 369.75707906985 190.004791910288  371.600447061347 193.722460373494  371.600447061347 193.722460373494  C 371.600447061347 193.722460373494  376.133319171584 195.877630497091  376.133319171584 195.877630497091  C 376.133319171584 195.877630497091  374.949278032486 201.500469349556  374.949278032486 201.500469349556  C 374.949278032486 201.500469349556  372.993275037038 206.927187720775  372.993275037038 206.927187720775  C 372.993275037038 206.927187720775  368.688420129921 207.539256035876  368.688420129921 207.539256035876  C 368.688420129921 207.539256035876  363.064911518008 214.881920646972  363.064911518008 214.881920646972  C 363.064911518008 214.881920646972  356.82603117719 223.687945771991  356.82603117719 223.687945771991  C 356.82603117719 223.687945771991  349.672334828669 231.610351146335  349.672334828669 231.610351146335  C 349.672334828669 231.610351146335  339.081897262023 237.683620554632  339.081897262023 237.683620554632  C 339.081897262023 237.683620554632  328.367835910552 243.185769880177  328.367835910552 243.185769880177  C 328.367835910552 243.185769880177  319.68944621586 243.933613913065  319.68944621586 243.933613913065  C 319.68944621586 243.933613913065  314.98075361165 246.821541878685  314.98075361165 246.821541878685  C 314.98075361165 246.821541878685  312.315974249873 244.711630327684  312.315974249873 244.711630327684  C 312.315974249873 244.711630327684  307.958922633609 247.940075172832  307.958922633609 247.940075172832  C 307.958922633609 247.940075172832  297.192664572989 251.181451038723  297.192664572989 251.181451038723  C 297.192664572989 251.181451038723  289.041736360216 252.170674125454  289.041736360216 252.170674125454  C 289.041736360216 252.170674125454  286.412670536278 258.961615184909  286.412670536278 258.961615184909  C 286.412670536278 258.961615184909  282.143529167 259.336614786415  282.143529167 259.336614786415  C 282.143529167 259.336614786415  280.12434068153 254.677136979198  280.12434068153 254.677136979198  C 280.12434068153 254.677136979198  281.948478306499 252.183605146196  281.948478306499 252.183605146196  C 281.948478306499 252.183605146196  271.613529895157 250.116796997666  271.613529895157 250.116796997666  C 271.613529895157 250.116796997666  267.973496230875 251.168520017981  267.973496230875 251.168520017981  C 267.973496230875 251.168520017981  260.218164129541 249.491797661822  260.218164129541 249.491797661822  C 260.218164129541 249.491797661822  256.550658513076 246.858179770787  256.550658513076 246.858179770787  C 256.550658513076 246.858179770787  257.767665994794 243.112494095974  257.767665994794 243.112494095974  C 257.767665994794 243.112494095974  250.726604650225 241.920685017625  250.726604650225 241.920685017625  C 250.726604650225 241.920685017625  247.012396715048 239.468101416971  247.012396715048 239.468101416971  C 247.012396715048 239.468101416971  240.44660014325 242.948701166581  240.44660014325 242.948701166581  C 240.44660014325 242.948701166581  230.961930078511 243.700855539717  230.961930078511 243.700855539717  C 230.961930078511 243.700855539717  224.819201570334 243.666372817739  224.819201570334 243.666372817739  C 224.819201570334 243.666372817739  220.684672766754 245.25473319883  220.684672766754 245.25473319883  C 220.684672766754 245.25473319883  216.692998114526 246.20731839346  216.692998114526 246.20731839346  C 216.692998114526 246.20731839346  217.857808887096 253.60601742777  217.857808887096 253.60601742777  C 217.857808887096 253.60601742777  213.750752035699 253.429293477635  213.750752035699 253.429293477635  C 213.750752035699 253.429293477635  213.058458840681 251.914208880746  213.058458840681 251.914208880746  C 213.058458840681 251.914208880746  212.824947247124 249.241797927485  212.824947247124 249.241797927485  C 212.824947247124 249.241797927485  207.173966683027 251.125416615509  207.173966683027 251.125416615509  C 207.173966683027 251.125416615509  203.838871687979 249.935762707284  203.838871687979 249.935762707284  C 203.838871687979 249.935762707284  198.119211243425 247.504730807866  198.119211243425 247.504730807866  C 198.119211243425 247.504730807866  200.360922541579 242.101719308007  200.360922541579 242.101719308007  C 200.360922541579 242.101719308007  195.48465102905 240.836634445456  195.48465102905 240.836634445456  C 195.48465102905 240.836634445456  193.646777427991 234.800002929259  193.646777427991 234.800002929259  C 193.646777427991 234.800002929259  185.515079581746 235.8905190118  185.515079581746 235.8905190118  C 185.515079581746 235.8905190118  186.440884370322 228.056475612523  186.440884370322 228.056475612523  C 186.440884370322 228.056475612523  193.734687674977 222.496136693642  193.734687674977 222.496136693642  C 193.734687674977 222.496136693642  194.045120734648 216.965970156491  194.045120734648 216.965970156491  C 194.045120734648 216.965970156491  193.817103531527 211.797872200105  193.817103531527 211.797872200105  C 193.817103531527 211.797872200105  190.454536584296 210.181494607407  190.454536584296 210.181494607407  C 190.454536584296 210.181494607407  187.880414664724 206.172878177516  187.880414664724 206.172878177516  C 187.880414664724 206.172878177516  183.372267311451 206.679343156561  183.372267311451 206.679343156561  C 183.372267311451 206.679343156561  175.067496166452 205.657792517976  175.067496166452 205.657792517976  C 175.067496166452 205.657792517976  177.669090038207 202.782795573097  177.669090038207 202.782795573097  C 177.669090038207 202.782795573097  174.059275521327 198.502627707632  174.059275521327 198.502627707632  C 174.059275521327 198.502627707632  168.567632279893 201.403486693994  168.567632279893 201.403486693994  C 168.567632279893 201.403486693994  162.106229126391 199.711678146971  162.106229126391 199.711678146971  C 162.106229126391 199.711678146971  153.227294180761 204.086673497873  153.227294180761 204.086673497873  C 153.227294180761 204.086673497873  146.216451983594 209.162099138945  146.216451983594 209.162099138945  C 146.216451983594 209.162099138945  140.002296399741 210.013391337766  140.002296399741 210.013391337766  C 140.002296399741 210.013391337766  136.628740671636 208.183651902832  136.628740671636 208.183651902832  C 136.628740671636 208.183651902832  132.562891748514 208.017703803315  132.562891748514 208.017703803315  C 132.562891748514 208.017703803315  127.057512530989 206.440119272841  127.057512530989 206.440119272841  C 127.057512530989 206.440119272841  122.895511775225 208.17072088209  122.895511775225 208.17072088209  C 122.895511775225 208.17072088209  117.802211840449 213.215974141432  117.802211840449 213.215974141432  C 117.802211840449 213.215974141432  117.156620964142 207.868997064786  117.156620964142 207.868997064786  C 117.156620964142 207.868997064786  112.458917140805 209.302185196979  112.458917140805 209.302185196979  C 112.458917140805 209.302185196979  103.475588776879 208.636237628787  103.475588776879 208.636237628787  C 103.475588776879 208.636237628787  94.7614855443495 207.073739289179  94.7614855443495 207.073739289179  C 94.7614855443495 207.073739289179  88.5116164226581 204.071587307008  88.5116164226581 204.071587307008  C 88.5116164226581 204.071587307008  82.525478041926 202.720295639513  82.525478041926 202.720295639513  C 82.525478041926 202.720295639513  79.9403673414812 199.416419840038  79.9403673414812 199.416419840038  C 79.9403673414812 199.416419840038  75.6135348726177 198.427196753307  75.6135348726177 198.427196753307  C 75.6135348726177 198.427196753307  67.8362252095369 193.914270514493  67.8362252095369 193.914270514493  C 67.8362252095369 193.914270514493  61.6605303587401 191.774186581761  61.6605303587401 191.774186581761  C 61.6605303587401 191.774186581761  58.4682895150453 193.440133087302  58.4682895150453 193.440133087302  C 58.4682895150453 193.440133087302  47.7652169444476 188.558672757354  47.7652169444476 188.558672757354  C 47.7652169444476 188.558672757354  40.1966941179601 184.108246452126  40.1966941179601 184.108246452126  C 40.1966941179601 184.108246452126  38.0373986763561 176.287134073591  38.0373986763561 176.287134073591  C 38.0373986763561 176.287134073591  43.5647554556274 177.246184778592  43.5647554556274 177.246184778592  C 43.5647554556274 177.246184778592  43.8174974157135 173.595326589218  43.8174974157135 173.595326589218  C 43.8174974157135 173.595326589218  40.7543747472801 169.914296018113  40.7543747472801 169.914296018113  C 40.7543747472801 169.914296018113  41.5345781892844 164.000509198962  41.5345781892844 164.000509198962  C 41.5345781892844 164.000509198962  33.2545318012504 155.403535575932  33.2545318012504 155.403535575932  C 33.2545318012504 155.403535575932  20.5872146495493 152.407849104132  20.5872146495493 152.407849104132  C 20.5872146495493 152.407849104132  18.3070426183388 146.672941405239  18.3070426183388 146.672941405239  C 18.3070426183388 146.672941405239  12.6176013211861 143.166479614146  12.6176013211861 143.166479614146  C 12.6176013211861 143.166479614146  11.2467509072413 140.996223299684  11.2467509072413 140.996223299684  C 11.2467509072413 140.996223299684  10.0901817203258 136.660021011006  10.0901817203258 136.660021011006  C 10.0901817203258 136.660021011006  10.3594068517215 133.683731070318  10.3594068517215 133.683731070318  C 10.3594068517215 133.683731070318  5.68093339491274 131.933732929957  5.68093339491274 131.933732929957  C 5.68093339491274 131.933732929957  3.15076659883433 132.707439004328  3.15076659883433 132.707439004328  C 3.15076659883433 132.707439004328  1.19751079860458 123.977939227776  1.19751079860458 123.977939227776  C 1.19751079860458 123.977939227776  3.38977258282862 122.191303195314  3.38977258282862 122.191303195314  C 3.38977258282862 122.191303195314  2.32660803333685 120.359408590256  2.32660803333685 120.359408590256  C 2.32660803333685 120.359408590256  9.68084963279505 116.639584956927  9.68084963279505 116.639584956927  C 9.68084963279505 116.639584956927  15.0049139659107 115.092172808184  15.0049139659107 115.092172808184  C 15.0049139659107 115.092172808184  23.1585893739018 116.152516508994  23.1585893739018 116.152516508994  C 23.1585893739018 116.152516508994  26.073363500546 111.079246038046  26.073363500546 111.079246038046  C 26.073363500546 111.079246038046  35.955024700864 110.130971183663  35.955024700864 110.130971183663  C 35.955024700864 110.130971183663  38.6994727239716 106.945629740986  38.6994727239716 106.945629740986  C 38.6994727239716 106.945629740986  50.8393283937541 102.56847921996  50.8393283937541 102.56847921996  C 50.8393283937541 102.56847921996  51.9217233097745 100.730119104531  51.9217233097745 100.730119104531  C 51.9217233097745 100.730119104531  51.306351580869 96.0641757869431  51.306351580869 96.0641757869431  C 51.306351580869 96.0641757869431  56.5919551809283 93.9197815139637  56.5919551809283 93.9197815139637  C 56.5919551809283 93.9197815139637  49.6580344498736 79.363762499187  49.6580344498736 79.363762499187  C 49.6580344498736 79.363762499187  64.9187038876737 75.954283363656  64.9187038876737 75.954283363656  C 64.9187038876737 75.954283363656  68.86367622119 74.0448026341487  68.86367622119 74.0448026341487  C 68.86367622119 74.0448026341487  74.418504952645 58.3939571965846  74.418504952645 58.3939571965846  C 74.418504952645 58.3939571965846  89.7011519521923 61.3099023738118  89.7011519521923 61.3099023738118  C 89.7011519521923 61.3099023738118  93.9867764927803 57.3012859439207  93.9867764927803 57.3012859439207  C 93.9867764927803 57.3012859439207  94.354900652036 48.2797438065422  94.354900652036 48.2797438065422  C 94.354900652036 48.2797438065422  100.753118315517 47.4284516077212  100.753118315517 47.4284516077212  C 100.753118315517 47.4284516077212  106.615632911425 41.327164987817  106.615632911425 41.327164987817  C 106.615632911425 41.327164987817  109.632053261146 40.5685451043108  109.632053261146 40.5685451043108  C 109.632053261146 40.5685451043108  111.653988941834 46.9694003713951  111.653988941834 46.9694003713951  C 111.653988941834 46.9694003713951  118.12638087621 51.7754297470173  118.12638087621 51.7754297470173  C 118.12638087621 51.7754297470173  129.112414554295 55.1482709904472  129.112414554295 55.1482709904472  C 129.112414554295 55.1482709904472  134.428237301756 62.3012806306669  134.428237301756 62.3012806306669  C 134.428237301756 62.3012806306669  131.464013661182 72.4909249750352  131.464013661182 72.4909249750352  C 131.464013661182 72.4909249750352  134.235933636473 76.217214118735  134.235933636473 76.217214118735  C 134.235933636473 76.217214118735  143.389588103935 77.6784194625341  143.389588103935 77.6784194625341  C 143.389588103935 77.6784194625341  153.762997248333 78.8680733707598  153.762997248333 78.8680733707598  C 153.762997248333 78.8680733707598  163.070494648022 84.1439298333262  163.070494648022 84.1439298333262  C 163.070494648022 84.1439298333262  167.828636766162 85.0771184968438  167.828636766162 85.0771184968438  C 167.828636766162 85.0771184968438  171.336805059964 92.7667654978392  171.336805059964 92.7667654978392  C 171.336805059964 92.7667654978392  175.858688389329 97.6568465082816  175.858688389329 97.6568465082816  C 175.858688389329 97.6568465082816  184.350268809174 97.467191537405  184.350268809174 97.467191537405  C 184.350268809174 97.467191537405  200.248287537626 99.3033964827099  200.248287537626 99.3033964827099  C 200.248287537626 99.3033964827099  210.492578506764 98.1654666574505  210.492578506764 98.1654666574505  C 210.492578506764 98.1654666574505  218.09681487109 99.383137777283  218.09681487109 99.383137777283  C 218.09681487109 99.383137777283  229.492180636706 104.320632530444  229.492180636706 104.320632530444  C 229.492180636706 104.320632530444  240.809229912068 104.314167020074  240.809229912068 104.314167020074  C 240.809229912068 104.314167020074  244.21849917801 106.822785043941  244.21849917801 106.822785043941  C 244.21849917801 106.822785043941  253.188091565844 102.482272415016  253.188091565844 102.482272415016  C 253.188091565844 102.482272415016  265.630138709642 99.6546892128562  265.630138709642 99.6546892128562  C 265.630138709642 99.6546892128562  277.173853017047 99.3443447150582  277.173853017047 99.3443447150582  C 277.173853017047 99.3443447150582  286.173664552283 96.4628822598085  286.173664552283 96.4628822598085  C 286.173664552283 96.4628822598085  291.701021331555 92.0426283363103  291.701021331555 92.0426283363103  C 291.701021331555 92.0426283363103  297.093765545128 89.2473726860045  297.093765545128 89.2473726860045  C 297.093765545128 89.2473726860045  295.846538916008 86.4887549277999  295.846538916008 86.4887549277999  C 295.846538916008 86.4887549277999  293.385052000389 83.2581549125274  293.385052000389 83.2581549125274  C 293.385052000389 83.2581549125274  297.431670556982 77.7883331388372  297.431670556982 77.7883331388372  C 297.431670556982 77.7883331388372  301.763997416283 78.5598840430851  301.763997416283 78.5598840430851  C 301.763997416283 78.5598840430851  309.681414035498 80.284020141963  309.681414035498 80.284020141963  C 309.681414035498 80.284020141963  317.3570774755 75.7560077122849  317.3570774755 75.7560077122849  C 317.3570774755 75.7560077122849  329.101337033843 72.4241147012034  329.101337033843 72.4241147012034  C 329.101337033843 72.4241147012034  334.746823207503 66.6870518321873  334.746823207503 66.6870518321873  C 334.746823207503 66.6870518321873  340.169786568479 64.1956751693087  340.169786568479 64.1956751693087  C 340.169786568479 64.1956751693087  351.356365497502 63.0297281324426  351.356365497502 63.0297281324426  C 351.356365497502 63.0297281324426  357.435908515657 64.0189512191738  357.435908515657 64.0189512191738  C 357.435908515657 64.0189512191738  358.279297447683 60.8874890295868  358.279297447683 60.8874890295868  C 358.279297447683 60.8874890295868  351.298674397917 54.6655128827612  351.298674397917 54.6655128827612  C 351.298674397917 54.6655128827612  345.117485156683 51.7926711080059  345.117485156683 51.7926711080059  C 345.117485156683 51.7926711080059  339.197279461191 55.1073227580986  339.197279461191 55.1073227580986  C 339.197279461191 55.1073227580986  331.598537487302 53.7129276881312  331.598537487302 53.7129276881312  C 331.598537487302 53.7129276881312  327.238738675818 54.8508575133906  327.238738675818 54.8508575133906  C 327.238738675818 54.8508575133906  325.252516532969 51.1741372825335  325.252516532969 51.1741372825335  C 325.252516532969 51.1741372825335  330.694710260472 42.0620779999638  330.694710260472 42.0620779999638  C 330.694710260472 42.0620779999638  334.444631733487 35.0642406086431  334.444631733487 35.0642406086431  C 334.444631733487 35.0642406086431  343.688943643154 38.581478250354  343.688943643154 38.581478250354  C 343.688943643154 38.581478250354  354.545859145978 32.6784672818209  354.545859145978 32.6784672818209  C 354.545859145978 32.6784672818209  354.474432070302 28.5211441134016  354.474432070302 28.5211441134016  C 354.474432070302 28.5211441134016  361.427583167884 18.337965279404  361.427583167884 18.337965279404  C 361.427583167884 18.337965279404  365.713207708473 15.2129686001878  365.713207708473 15.2129686001878  C 365.713207708473 15.2129686001878  365.617055875831 9.77762954847532  365.617055875831 9.77762954847532  C 365.617055875831 9.77762954847532  361.391869630046 7.41771826313612  361.391869630046 7.41771826313612  C 361.391869630046 7.41771826313612  367.751626560471 2.43280976725539  367.751626560471 2.43280976725539  C 367.751626560471 2.43280976725539  377.322854701118 0.611691012815607  377.322854701118 0.611691012815607  C 377.322854701118 0.611691012815607  387.536926522854 0.337984407118702  387.536926522854 0.337984407118702  C 387.536926522854 0.337984407118702  399.06415765895 3.34229155941349  399.06415765895 3.34229155941349  C 399.06415765895 3.34229155941349  405.827752286468 7.02978764088857  405.827752286468 7.02978764088857  C 405.827752286468 7.02978764088857  410.588641599826 16.9672770807961  410.588641599826 16.9672770807961  C 410.588641599826 16.9672770807961  413.475943774287 21.1418416102041  413.475943774287 21.1418416102041  C 413.475943774287 21.1418416102041  416.159953502592 27.0276112177486  416.159953502592 27.0276112177486  Z " fill-rule="nonzero" fill="#a29bfe" stroke="none" transform="matrix(1 0 0 1 2358 1653 )" />
    <path d="M 287.382430448347 264.324772846561  C 287.382430448347 264.324772846561  285.599500751654 269.558586682638  285.599500751654 269.558586682638  C 285.599500751654 269.558586682638  276.947230838069 272.601686897157  276.947230838069 272.601686897157  C 276.947230838069 272.601686897157  270.631429031137 270.640482084683  270.631429031137 270.640482084683  C 270.631429031137 270.640482084683  270.408906218453 263.61141153565  270.408906218453 263.61141153565  C 270.408906218453 263.61141153565  274.205530010179 260.721328399906  274.205530010179 260.721328399906  C 274.205530010179 260.721328399906  284.616004863493 258.930382027196  284.616004863493 258.930382027196  C 284.616004863493 258.930382027196  289.044483555435 259.083399105972  289.044483555435 259.083399105972  C 289.044483555435 259.083399105972  290.766974957325 261.52089651576  290.766974957325 261.52089651576  C 290.766974957325 261.52089651576  287.382430448347 264.324772846561  287.382430448347 264.324772846561  Z " stroke-width="2" stroke="#505050" fill="none" stroke-opacity="0.211764705882353" transform="matrix(1 0 0 1 2358 1653 )" mask="url(#clip531)" />
    <path d="M 416.159953502592 27.0276112177486  C 416.159953502592 27.0276112177486  418.997806163124 36.2689807077345  418.997806163124 36.2689807077345  C 418.997806163124 36.2689807077345  432.404118828554 39.2409603081753  432.404118828554 39.2409603081753  C 432.404118828554 39.2409603081753  441.527554148614 45.7819016332934  441.527554148614 45.7819016332934  C 441.527554148614 45.7819016332934  444.645620721414 54.284047770885  444.645620721414 54.284047770885  C 444.645620721414 54.284047770885  456.351419546701 54.2948236215029  456.351419546701 54.2948236215029  C 456.351419546701 54.2948236215029  463.029851122451 50.7452584279381  463.029851122451 50.7452584279381  C 463.029851122451 50.7452584279381  475.760353764173 48.075002644801  475.760353764173 48.075002644801  C 475.760353764173 48.075002644801  471.710988012361 56.1805974796508  471.710988012361 56.1805974796508  C 471.710988012361 56.1805974796508  468.719292419604 59.4392147065299  468.719292419604 59.4392147065299  C 468.719292419604 59.4392147065299  466.079237814793 69.0555837980214  466.079237814793 69.0555837980214  C 466.079237814793 69.0555837980214  460.89802763303 77.434885238568  460.89802763303 77.434885238568  C 460.89802763303 77.434885238568  451.552069500285 75.9198006416791  451.552069500285 75.9198006416791  C 451.552069500285 75.9198006416791  444.939570609774 78.9370388147153  444.939570609774 78.9370388147153  C 444.939570609774 78.9370388147153  446.969747876117 86.1719449196317  446.969747876117 86.1719449196317  C 446.969747876117 86.1719449196317  445.859881007914 95.9844344923705  445.859881007914 95.9844344923705  C 445.859881007914 95.9844344923705  441.925897455271 96.2064170151011  441.925897455271 96.2064170151011  C 441.925897455271 96.2064170151011  441.972599773983 100.36374018352  441.972599773983 100.36374018352  C 441.972599773983 100.36374018352  436.997429233594 95.5275384261678  436.997429233594 95.5275384261678  C 436.997429233594 95.5275384261678  433.937053760379 100.11805078943  433.937053760379 100.11805078943  C 433.937053760379 100.11805078943  422.041698465028 103.620202240276  422.041698465028 103.620202240276  C 422.041698465028 103.620202240276  423.244969970655 107.876663234381  423.244969970655 107.876663234381  C 423.244969970655 107.876663234381  416.585768761433 107.583560097571  416.585768761433 107.583560097571  C 416.585768761433 107.583560097571  412.929251925841 105.057700712715  412.929251925841 105.057700712715  C 412.929251925841 105.057700712715  407.635406740127 110.755970519507  407.635406740127 110.755970519507  C 407.635406740127 110.755970519507  399.1465735155 115.031828044724  399.1465735155 115.031828044724  C 399.1465735155 115.031828044724  392.874726832062 120.090012324807  392.874726832062 120.090012324807  C 392.874726832062 120.090012324807  382.105721576224 122.368027145449  382.105721576224 122.368027145449  C 382.105721576224 122.368027145449  376.4355106456 126.008109484205  376.4355106456 126.008109484205  C 376.4355106456 126.008109484205  368.138981086256 128.122331375454  368.138981086256 128.122331375454  C 368.138981086256 128.122331375454  372.232301961561 124.527507609294  372.232301961561 124.527507609294  C 372.232301961561 124.527507609294  370.619698368404 121.486562564898  370.619698368404 121.486562564898  C 370.619698368404 121.486562564898  376.721218948306 116.19777508159  376.721218948306 116.19777508159  C 376.721218948306 116.19777508159  372.652622829965 112.038296743047  372.652622829965 112.038296743047  C 372.652622829965 112.038296743047  365.938477716377 114.844328243971  365.938477716377 114.844328243971  C 365.938477716377 114.844328243971  357.243604850375 120.327081038403  357.243604850375 120.327081038403  C 357.243604850375 120.327081038403  352.496451513108 125.37017912762  352.496451513108 125.37017912762  C 352.496451513108 125.37017912762  344.941664662712 125.743023559003  344.941664662712 125.743023559003  C 344.941664662712 125.743023559003  341.010428305288 130.920802971866  341.010428305288 130.920802971866  C 341.010428305288 130.920802971866  345.073530033192 136.112607799612  345.073530033192 136.112607799612  C 345.073530033192 136.112607799612  351.375595864031 137.366916811546  351.375595864031 137.366916811546  C 351.375595864031 137.366916811546  351.636579409772 140.778551117201  351.636579409772 140.778551117201  C 351.636579409772 140.778551117201  357.729858404019 142.987600493888  357.729858404019 142.987600493888  C 357.729858404019 142.987600493888  366.364292975218 137.571657973288  366.364292975218 137.571657973288  C 366.364292975218 137.571657973288  373.202061873631 140.53286172311  373.202061873631 140.53286172311  C 373.202061873631 140.53286172311  378.182726804456 140.733292544605  378.182726804456 140.733292544605  C 378.182726804456 140.733292544605  379.432700628794 144.69018489153  379.432700628794 144.69018489153  C 379.432700628794 144.69018489153  368.52633561204 146.789320591914  368.52633561204 146.789320591914  C 368.52633561204 146.789320591914  364.924762680815 150.823799063288  364.924762680815 150.823799063288  C 364.924762680815 150.823799063288  357.43316132044 154.547933036864  357.43316132044 154.547933036864  C 357.43316132044 154.547933036864  353.479947401269 159.705255142633  353.479947401269 159.705255142633  C 353.479947401269 159.705255142633  361.773729765395 163.722492253018  361.773729765395 163.722492253018  C 361.773729765395 163.722492253018  364.80113889599 170.849639851755  364.80113889599 170.849639851755  C 364.80113889599 170.849639851755  369.487853938454 177.414288048232  369.487853938454 177.414288048232  C 369.487853938454 177.414288048232  374.718513634146 182.86471329081  374.718513634146 182.86471329081  C 374.718513634146 182.86471329081  374.592142654104 188.093156010657  374.592142654104 188.093156010657  C 374.592142654104 188.093156010657  369.75707906985 190.004791910288  369.75707906985 190.004791910288  C 369.75707906985 190.004791910288  371.600447061347 193.722460373494  371.600447061347 193.722460373494  C 371.600447061347 193.722460373494  376.133319171584 195.877630497091  376.133319171584 195.877630497091  C 376.133319171584 195.877630497091  374.949278032486 201.500469349556  374.949278032486 201.500469349556  C 374.949278032486 201.500469349556  372.993275037038 206.927187720775  372.993275037038 206.927187720775  C 372.993275037038 206.927187720775  368.688420129921 207.539256035876  368.688420129921 207.539256035876  C 368.688420129921 207.539256035876  363.064911518008 214.881920646972  363.064911518008 214.881920646972  C 363.064911518008 214.881920646972  356.82603117719 223.687945771991  356.82603117719 223.687945771991  C 356.82603117719 223.687945771991  349.672334828669 231.610351146335  349.672334828669 231.610351146335  C 349.672334828669 231.610351146335  339.081897262023 237.683620554632  339.081897262023 237.683620554632  C 339.081897262023 237.683620554632  328.367835910552 243.185769880177  328.367835910552 243.185769880177  C 328.367835910552 243.185769880177  319.68944621586 243.933613913065  319.68944621586 243.933613913065  C 319.68944621586 243.933613913065  314.98075361165 246.821541878685  314.98075361165 246.821541878685  C 314.98075361165 246.821541878685  312.315974249873 244.711630327684  312.315974249873 244.711630327684  C 312.315974249873 244.711630327684  307.958922633609 247.940075172832  307.958922633609 247.940075172832  C 307.958922633609 247.940075172832  297.192664572989 251.181451038723  297.192664572989 251.181451038723  C 297.192664572989 251.181451038723  289.041736360216 252.170674125454  289.041736360216 252.170674125454  C 289.041736360216 252.170674125454  286.412670536278 258.961615184909  286.412670536278 258.961615184909  C 286.412670536278 258.961615184909  282.143529167 259.336614786415  282.143529167 259.336614786415  C 282.143529167 259.336614786415  280.12434068153 254.677136979198  280.12434068153 254.677136979198  C 280.12434068153 254.677136979198  281.948478306499 252.183605146196  281.948478306499 252.183605146196  C 281.948478306499 252.183605146196  271.613529895157 250.116796997666  271.613529895157 250.116796997666  C 271.613529895157 250.116796997666  267.973496230875 251.168520017981  267.973496230875 251.168520017981  C 267.973496230875 251.168520017981  260.218164129541 249.491797661822  260.218164129541 249.491797661822  C 260.218164129541 249.491797661822  256.550658513076 246.858179770787  256.550658513076 246.858179770787  C 256.550658513076 246.858179770787  257.767665994794 243.112494095974  257.767665994794 243.112494095974  C 257.767665994794 243.112494095974  250.726604650225 241.920685017625  250.726604650225 241.920685017625  C 250.726604650225 241.920685017625  247.012396715048 239.468101416971  247.012396715048 239.468101416971  C 247.012396715048 239.468101416971  240.44660014325 242.948701166581  240.44660014325 242.948701166581  C 240.44660014325 242.948701166581  230.961930078511 243.700855539717  230.961930078511 243.700855539717  C 230.961930078511 243.700855539717  224.819201570334 243.666372817739  224.819201570334 243.666372817739  C 224.819201570334 243.666372817739  220.684672766754 245.25473319883  220.684672766754 245.25473319883  C 220.684672766754 245.25473319883  216.692998114526 246.20731839346  216.692998114526 246.20731839346  C 216.692998114526 246.20731839346  217.857808887096 253.60601742777  217.857808887096 253.60601742777  C 217.857808887096 253.60601742777  213.750752035699 253.429293477635  213.750752035699 253.429293477635  C 213.750752035699 253.429293477635  213.058458840681 251.914208880746  213.058458840681 251.914208880746  C 213.058458840681 251.914208880746  212.824947247124 249.241797927485  212.824947247124 249.241797927485  C 212.824947247124 249.241797927485  207.173966683027 251.125416615509  207.173966683027 251.125416615509  C 207.173966683027 251.125416615509  203.838871687979 249.935762707284  203.838871687979 249.935762707284  C 203.838871687979 249.935762707284  198.119211243425 247.504730807866  198.119211243425 247.504730807866  C 198.119211243425 247.504730807866  200.360922541579 242.101719308007  200.360922541579 242.101719308007  C 200.360922541579 242.101719308007  195.48465102905 240.836634445456  195.48465102905 240.836634445456  C 195.48465102905 240.836634445456  193.646777427991 234.800002929259  193.646777427991 234.800002929259  C 193.646777427991 234.800002929259  185.515079581746 235.8905190118  185.515079581746 235.8905190118  C 185.515079581746 235.8905190118  186.440884370322 228.056475612523  186.440884370322 228.056475612523  C 186.440884370322 228.056475612523  193.734687674977 222.496136693642  193.734687674977 222.496136693642  C 193.734687674977 222.496136693642  194.045120734648 216.965970156491  194.045120734648 216.965970156491  C 194.045120734648 216.965970156491  193.817103531527 211.797872200105  193.817103531527 211.797872200105  C 193.817103531527 211.797872200105  190.454536584296 210.181494607407  190.454536584296 210.181494607407  C 190.454536584296 210.181494607407  187.880414664724 206.172878177516  187.880414664724 206.172878177516  C 187.880414664724 206.172878177516  183.372267311451 206.679343156561  183.372267311451 206.679343156561  C 183.372267311451 206.679343156561  175.067496166452 205.657792517976  175.067496166452 205.657792517976  C 175.067496166452 205.657792517976  177.669090038207 202.782795573097  177.669090038207 202.782795573097  C 177.669090038207 202.782795573097  174.059275521327 198.502627707632  174.059275521327 198.502627707632  C 174.059275521327 198.502627707632  168.567632279893 201.403486693994  168.567632279893 201.403486693994  C 168.567632279893 201.403486693994  162.106229126391 199.711678146971  162.106229126391 199.711678146971  C 162.106229126391 199.711678146971  153.227294180761 204.086673497873  153.227294180761 204.086673497873  C 153.227294180761 204.086673497873  146.216451983594 209.162099138945  146.216451983594 209.162099138945  C 146.216451983594 209.162099138945  140.002296399741 210.013391337766  140.002296399741 210.013391337766  C 140.002296399741 210.013391337766  136.628740671636 208.183651902832  136.628740671636 208.183651902832  C 136.628740671636 208.183651902832  132.562891748514 208.017703803315  132.562891748514 208.017703803315  C 132.562891748514 208.017703803315  127.057512530989 206.440119272841  127.057512530989 206.440119272841  C 127.057512530989 206.440119272841  122.895511775225 208.17072088209  122.895511775225 208.17072088209  C 122.895511775225 208.17072088209  117.802211840449 213.215974141432  117.802211840449 213.215974141432  C 117.802211840449 213.215974141432  117.156620964142 207.868997064786  117.156620964142 207.868997064786  C 117.156620964142 207.868997064786  112.458917140805 209.302185196979  112.458917140805 209.302185196979  C 112.458917140805 209.302185196979  103.475588776879 208.636237628787  103.475588776879 208.636237628787  C 103.475588776879 208.636237628787  94.7614855443495 207.073739289179  94.7614855443495 207.073739289179  C 94.7614855443495 207.073739289179  88.5116164226581 204.071587307008  88.5116164226581 204.071587307008  C 88.5116164226581 204.071587307008  82.525478041926 202.720295639513  82.525478041926 202.720295639513  C 82.525478041926 202.720295639513  79.9403673414812 199.416419840038  79.9403673414812 199.416419840038  C 79.9403673414812 199.416419840038  75.6135348726177 198.427196753307  75.6135348726177 198.427196753307  C 75.6135348726177 198.427196753307  67.8362252095369 193.914270514493  67.8362252095369 193.914270514493  C 67.8362252095369 193.914270514493  61.6605303587401 191.774186581761  61.6605303587401 191.774186581761  C 61.6605303587401 191.774186581761  58.4682895150453 193.440133087302  58.4682895150453 193.440133087302  C 58.4682895150453 193.440133087302  47.7652169444476 188.558672757354  47.7652169444476 188.558672757354  C 47.7652169444476 188.558672757354  40.1966941179601 184.108246452126  40.1966941179601 184.108246452126  C 40.1966941179601 184.108246452126  38.0373986763561 176.287134073591  38.0373986763561 176.287134073591  C 38.0373986763561 176.287134073591  43.5647554556274 177.246184778592  43.5647554556274 177.246184778592  C 43.5647554556274 177.246184778592  43.8174974157135 173.595326589218  43.8174974157135 173.595326589218  C 43.8174974157135 173.595326589218  40.7543747472801 169.914296018113  40.7543747472801 169.914296018113  C 40.7543747472801 169.914296018113  41.5345781892844 164.000509198962  41.5345781892844 164.000509198962  C 41.5345781892844 164.000509198962  33.2545318012504 155.403535575932  33.2545318012504 155.403535575932  C 33.2545318012504 155.403535575932  20.5872146495493 152.407849104132  20.5872146495493 152.407849104132  C 20.5872146495493 152.407849104132  18.3070426183388 146.672941405239  18.3070426183388 146.672941405239  C 18.3070426183388 146.672941405239  12.6176013211861 143.166479614146  12.6176013211861 143.166479614146  C 12.6176013211861 143.166479614146  11.2467509072413 140.996223299684  11.2467509072413 140.996223299684  C 11.2467509072413 140.996223299684  10.0901817203258 136.660021011006  10.0901817203258 136.660021011006  C 10.0901817203258 136.660021011006  10.3594068517215 133.683731070318  10.3594068517215 133.683731070318  C 10.3594068517215 133.683731070318  5.68093339491274 131.933732929957  5.68093339491274 131.933732929957  C 5.68093339491274 131.933732929957  3.15076659883433 132.707439004328  3.15076659883433 132.707439004328  C 3.15076659883433 132.707439004328  1.19751079860458 123.977939227776  1.19751079860458 123.977939227776  C 1.19751079860458 123.977939227776  3.38977258282862 122.191303195314  3.38977258282862 122.191303195314  C 3.38977258282862 122.191303195314  2.32660803333685 120.359408590256  2.32660803333685 120.359408590256  C 2.32660803333685 120.359408590256  9.68084963279505 116.639584956927  9.68084963279505 116.639584956927  C 9.68084963279505 116.639584956927  15.0049139659107 115.092172808184  15.0049139659107 115.092172808184  C 15.0049139659107 115.092172808184  23.1585893739018 116.152516508994  23.1585893739018 116.152516508994  C 23.1585893739018 116.152516508994  26.073363500546 111.079246038046  26.073363500546 111.079246038046  C 26.073363500546 111.079246038046  35.955024700864 110.130971183663  35.955024700864 110.130971183663  C 35.955024700864 110.130971183663  38.6994727239716 106.945629740986  38.6994727239716 106.945629740986  C 38.6994727239716 106.945629740986  50.8393283937541 102.56847921996  50.8393283937541 102.56847921996  C 50.8393283937541 102.56847921996  51.9217233097745 100.730119104531  51.9217233097745 100.730119104531  C 51.9217233097745 100.730119104531  51.306351580869 96.0641757869431  51.306351580869 96.0641757869431  C 51.306351580869 96.0641757869431  56.5919551809283 93.9197815139637  56.5919551809283 93.9197815139637  C 56.5919551809283 93.9197815139637  49.6580344498736 79.363762499187  49.6580344498736 79.363762499187  C 49.6580344498736 79.363762499187  64.9187038876737 75.954283363656  64.9187038876737 75.954283363656  C 64.9187038876737 75.954283363656  68.86367622119 74.0448026341487  68.86367622119 74.0448026341487  C 68.86367622119 74.0448026341487  74.418504952645 58.3939571965846  74.418504952645 58.3939571965846  C 74.418504952645 58.3939571965846  89.7011519521923 61.3099023738118  89.7011519521923 61.3099023738118  C 89.7011519521923 61.3099023738118  93.9867764927803 57.3012859439207  93.9867764927803 57.3012859439207  C 93.9867764927803 57.3012859439207  94.354900652036 48.2797438065422  94.354900652036 48.2797438065422  C 94.354900652036 48.2797438065422  100.753118315517 47.4284516077212  100.753118315517 47.4284516077212  C 100.753118315517 47.4284516077212  106.615632911425 41.327164987817  106.615632911425 41.327164987817  C 106.615632911425 41.327164987817  109.632053261146 40.5685451043108  109.632053261146 40.5685451043108  C 109.632053261146 40.5685451043108  111.653988941834 46.9694003713951  111.653988941834 46.9694003713951  C 111.653988941834 46.9694003713951  118.12638087621 51.7754297470173  118.12638087621 51.7754297470173  C 118.12638087621 51.7754297470173  129.112414554295 55.1482709904472  129.112414554295 55.1482709904472  C 129.112414554295 55.1482709904472  134.428237301756 62.3012806306669  134.428237301756 62.3012806306669  C 134.428237301756 62.3012806306669  131.464013661182 72.4909249750352  131.464013661182 72.4909249750352  C 131.464013661182 72.4909249750352  134.235933636473 76.217214118735  134.235933636473 76.217214118735  C 134.235933636473 76.217214118735  143.389588103935 77.6784194625341  143.389588103935 77.6784194625341  C 143.389588103935 77.6784194625341  153.762997248333 78.8680733707598  153.762997248333 78.8680733707598  C 153.762997248333 78.8680733707598  163.070494648022 84.1439298333262  163.070494648022 84.1439298333262  C 163.070494648022 84.1439298333262  167.828636766162 85.0771184968438  167.828636766162 85.0771184968438  C 167.828636766162 85.0771184968438  171.336805059964 92.7667654978392  171.336805059964 92.7667654978392  C 171.336805059964 92.7667654978392  175.858688389329 97.6568465082816  175.858688389329 97.6568465082816  C 175.858688389329 97.6568465082816  184.350268809174 97.467191537405  184.350268809174 97.467191537405  C 184.350268809174 97.467191537405  200.248287537626 99.3033964827099  200.248287537626 99.3033964827099  C 200.248287537626 99.3033964827099  210.492578506764 98.1654666574505  210.492578506764 98.1654666574505  C 210.492578506764 98.1654666574505  218.09681487109 99.383137777283  218.09681487109 99.383137777283  C 218.09681487109 99.383137777283  229.492180636706 104.320632530444  229.492180636706 104.320632530444  C 229.492180636706 104.320632530444  240.809229912068 104.314167020074  240.809229912068 104.314167020074  C 240.809229912068 104.314167020074  244.21849917801 106.822785043941  244.21849917801 106.822785043941  C 244.21849917801 106.822785043941  253.188091565844 102.482272415016  253.188091565844 102.482272415016  C 253.188091565844 102.482272415016  265.630138709642 99.6546892128562  265.630138709642 99.6546892128562  C 265.630138709642 99.6546892128562  277.173853017047 99.3443447150582  277.173853017047 99.3443447150582  C 277.173853017047 99.3443447150582  286.173664552283 96.4628822598085  286.173664552283 96.4628822598085  C 286.173664552283 96.4628822598085  291.701021331555 92.0426283363103  291.701021331555 92.0426283363103  C 291.701021331555 92.0426283363103  297.093765545128 89.2473726860045  297.093765545128 89.2473726860045  C 297.093765545128 89.2473726860045  295.846538916008 86.4887549277999  295.846538916008 86.4887549277999  C 295.846538916008 86.4887549277999  293.385052000389 83.2581549125274  293.385052000389 83.2581549125274  C 293.385052000389 83.2581549125274  297.431670556982 77.7883331388372  297.431670556982 77.7883331388372  C 297.431670556982 77.7883331388372  301.763997416283 78.5598840430851  301.763997416283 78.5598840430851  C 301.763997416283 78.5598840430851  309.681414035498 80.284020141963  309.681414035498 80.284020141963  C 309.681414035498 80.284020141963  317.3570774755 75.7560077122849  317.3570774755 75.7560077122849  C 317.3570774755 75.7560077122849  329.101337033843 72.4241147012034  329.101337033843 72.4241147012034  C 329.101337033843 72.4241147012034  334.746823207503 66.6870518321873  334.746823207503 66.6870518321873  C 334.746823207503 66.6870518321873  340.169786568479 64.1956751693087  340.169786568479 64.1956751693087  C 340.169786568479 64.1956751693087  351.356365497502 63.0297281324426  351.356365497502 63.0297281324426  C 351.356365497502 63.0297281324426  357.435908515657 64.0189512191738  357.435908515657 64.0189512191738  C 357.435908515657 64.0189512191738  358.279297447683 60.8874890295868  358.279297447683 60.8874890295868  C 358.279297447683 60.8874890295868  351.298674397917 54.6655128827612  351.298674397917 54.6655128827612  C 351.298674397917 54.6655128827612  345.117485156683 51.7926711080059  345.117485156683 51.7926711080059  C 345.117485156683 51.7926711080059  339.197279461191 55.1073227580986  339.197279461191 55.1073227580986  C 339.197279461191 55.1073227580986  331.598537487302 53.7129276881312  331.598537487302 53.7129276881312  C 331.598537487302 53.7129276881312  327.238738675818 54.8508575133906  327.238738675818 54.8508575133906  C 327.238738675818 54.8508575133906  325.252516532969 51.1741372825335  325.252516532969 51.1741372825335  C 325.252516532969 51.1741372825335  330.694710260472 42.0620779999638  330.694710260472 42.0620779999638  C 330.694710260472 42.0620779999638  334.444631733487 35.0642406086431  334.444631733487 35.0642406086431  C 334.444631733487 35.0642406086431  343.688943643154 38.581478250354  343.688943643154 38.581478250354  C 343.688943643154 38.581478250354  354.545859145978 32.6784672818209  354.545859145978 32.6784672818209  C 354.545859145978 32.6784672818209  354.474432070302 28.5211441134016  354.474432070302 28.5211441134016  C 354.474432070302 28.5211441134016  361.427583167884 18.337965279404  361.427583167884 18.337965279404  C 361.427583167884 18.337965279404  365.713207708473 15.2129686001878  365.713207708473 15.2129686001878  C 365.713207708473 15.2129686001878  365.617055875831 9.77762954847532  365.617055875831 9.77762954847532  C 365.617055875831 9.77762954847532  361.391869630046 7.41771826313612  361.391869630046 7.41771826313612  C 361.391869630046 7.41771826313612  367.751626560471 2.43280976725539  367.751626560471 2.43280976725539  C 367.751626560471 2.43280976725539  377.322854701118 0.611691012815607  377.322854701118 0.611691012815607  C 377.322854701118 0.611691012815607  387.536926522854 0.337984407118702  387.536926522854 0.337984407118702  C 387.536926522854 0.337984407118702  399.06415765895 3.34229155941349  399.06415765895 3.34229155941349  C 399.06415765895 3.34229155941349  405.827752286468 7.02978764088857  405.827752286468 7.02978764088857  C 405.827752286468 7.02978764088857  410.588641599826 16.9672770807961  410.588641599826 16.9672770807961  C 410.588641599826 16.9672770807961  413.475943774287 21.1418416102041  413.475943774287 21.1418416102041  C 413.475943774287 21.1418416102041  416.159953502592 27.0276112177486  416.159953502592 27.0276112177486  Z " stroke-width="2" stroke="#505050" fill="none" stroke-opacity="0.211764705882353" transform="matrix(1 0 0 1 2358 1653 )" mask="url(#clip531)" />
  </g>
</svg>