<?xml version="1.0" encoding="utf-8"?>
<svg version="1.1" xmlns:xlink="http://www.w3.org/1999/xlink" width="207px" height="192px" xmlns="http://www.w3.org/2000/svg">
  <defs>
    <mask fill="white" id="clip567">
      <path d="M 167.240207748204 5.21290150406316  C 167.240207748204 5.21290150406316  181.034693814915 1.51078195829732  181.034693814915 1.51078195829732  C 181.034693814915 1.51078195829732  205.062031015524 14.9183420079656  205.062031015524 14.9183420079656  C 205.062031015524 14.9183420079656  195.168905059834 19.7012312179914  195.168905059834 19.7012312179914  C 195.168905059834 19.7012312179914  203.585322377995 30.6915628933205  203.585322377995 30.6915628933205  C 203.585322377995 30.6915628933205  190.514122174563 37.5414509443369  190.514122174563 37.5414509443369  C 190.514122174563 37.5414509443369  184.308658233927 39.0970716936893  184.308658233927 39.0970716936893  C 184.308658233927 39.0970716936893  187.563444618684 27.0818351876404  187.563444618684 27.0818351876404  C 187.563444618684 27.0818351876404  177.705935012323 20.0944337002172  177.705935012323 20.0944337002172  C 177.705935012323 20.0944337002172  165.77719770657 26.0569303569207  165.77719770657 26.0569303569207  C 165.77719770657 26.0569303569207  162.010083835323 38.6351124932601  162.010083835323 38.6351124932601  C 162.010083835323 38.6351124932601  154.686814469618 46.0243110526846  154.686814469618 46.0243110526846  C 154.686814469618 46.0243110526846  146.437520021382 42.0063403326718  146.437520021382 42.0063403326718  C 146.437520021382 42.0063403326718  136.407408106738 42.8314209511129  136.407408106738 42.8314209511129  C 136.407408106738 42.8314209511129  127.870443144697 33.9080881167745  127.870443144697 33.9080881167745  C 127.870443144697 33.9080881167745  123.264975204649 38.394463979548  123.264975204649 38.394463979548  C 123.264975204649 38.394463979548  118.500603552214 39.0884771039139  118.500603552214 39.0884771039139  C 118.500603552214 39.0884771039139  117.371839250429 50.0100520610395  117.371839250429 50.0100520610395  C 117.371839250429 50.0100520610395  100.904778492739 47.3801075897584  100.904778492739 47.3801075897584  C 100.904778492739 47.3801075897584  98.8719068618549 56.4409538605037  98.8719068618549 56.4409538605037  C 98.8719068618549 56.4409538605037  91.4965828317479 56.3872376744073  91.4965828317479 56.3872376744073  C 91.4965828317479 56.3872376744073  86.4253626312544 67.6525962225501  86.4253626312544 67.6525962225501  C 86.4253626312544 67.6525962225501  78.7404503339106 84.5560056633737  78.7404503339106 84.5560056633737  C 78.7404503339106 84.5560056633737  66.8117130281577 106.529131989772  66.8117130281577 106.529131989772  C 66.8117130281577 106.529131989772  69.6089663100072 111.324913084461  69.6089663100072 111.324913084461  C 69.6089663100072 111.324913084461  66.9350003912166 116.812558656072  66.9350003912166 116.812558656072  C 66.9350003912166 116.812558656072  59.3158413541707 116.578356084692  59.3158413541707 116.578356084692  C 59.3158413541707 116.578356084692  54.3268127290499 129.268267888112  54.3268127290499 129.268267888112  C 54.3268127290499 129.268267888112  54.7980444278533 146.551987926498  54.7980444278533 146.551987926498  C 54.7980444278533 146.551987926498  59.7076211967803 152.950660014305  59.7076211967803 152.950660014305  C 59.7076211967803 152.950660014305  57.165161798586 167.404611369131  57.165161798586 167.404611369131  C 57.165161798586 167.404611369131  50.7733969537716 175.595255425115  50.7733969537716 175.595255425115  C 50.7733969537716 175.595255425115  47.387104048418 182.352751636045  47.387104048418 182.352751636045  C 47.387104048418 182.352751636045  42.233692272552 175.15263405168  42.233692272552 175.15263405168  C 42.233692272552 175.15263405168  27.0666068971163 188.616058934888  27.0666068971163 188.616058934888  C 27.0666068971163 188.616058934888  16.8255366056824 191.291125002491  16.8255366056824 191.291125002491  C 16.8255366056824 191.291125002491  6.20364534835496 185.457547192419  6.20364534835496 185.457547192419  C 6.20364534835496 185.457547192419  3.45844673090808 172.857878581641  3.45844673090808 172.857878581641  C 3.45844673090808 172.857878581641  1.02831581905624 144.375408065871  1.02831581905624 144.375408065871  C 1.02831581905624 144.375408065871  8.10227073946359 136.049399220925  8.10227073946359 136.049399220925  C 8.10227073946359 136.049399220925  28.384411822258 124.91081087197  28.384411822258 124.91081087197  C 28.384411822258 124.91081087197  43.5514971976936 110.759818806727  43.5514971976936 110.759818806727  C 43.5514971976936 110.759818806727  57.6144757439564 89.2142733216561  57.6144757439564 89.2142733216561  C 57.6144757439564 89.2142733216561  76.0719638534776 59.6445871992948  76.0719638534776 59.6445871992948  C 76.0719638534776 59.6445871992948  88.9376851184788 47.4531616028497  88.9376851184788 47.4531616028497  C 88.9376851184788 47.4531616028497  112.037606008743 26.1965924407715  112.037606008743 26.1965924407715  C 112.037606008743 26.1965924407715  128.895098117676 18.4786508224368  128.895098117676 18.4786508224368  C 128.895098117676 18.4786508224368  141.533422690813 19.424055697734  141.533422690813 19.424055697734  C 141.533422690813 19.424055697734  153.232023585522 4.39426682795362  153.232023585522 4.39426682795362  C 153.232023585522 4.39426682795362  167.240207748204 5.21290150406316  167.240207748204 5.21290150406316  Z " fill-rule="evenodd" />
    </mask>
  </defs>
  <g transform="matrix(1 0 0 1 -1829 -1413 )">
    <path d="M 167.240207748204 5.21290150406316  C 167.240207748204 5.21290150406316  181.034693814915 1.51078195829732  181.034693814915 1.51078195829732  C 181.034693814915 1.51078195829732  205.062031015524 14.9183420079656  205.062031015524 14.9183420079656  C 205.062031015524 14.9183420079656  195.168905059834 19.7012312179914  195.168905059834 19.7012312179914  C 195.168905059834 19.7012312179914  203.585322377995 30.6915628933205  203.585322377995 30.6915628933205  C 203.585322377995 30.6915628933205  190.514122174563 37.5414509443369  190.514122174563 37.5414509443369  C 190.514122174563 37.5414509443369  184.308658233927 39.0970716936893  184.308658233927 39.0970716936893  C 184.308658233927 39.0970716936893  187.563444618684 27.0818351876404  187.563444618684 27.0818351876404  C 187.563444618684 27.0818351876404  177.705935012323 20.0944337002172  177.705935012323 20.0944337002172  C 177.705935012323 20.0944337002172  165.77719770657 26.0569303569207  165.77719770657 26.0569303569207  C 165.77719770657 26.0569303569207  162.010083835323 38.6351124932601  162.010083835323 38.6351124932601  C 162.010083835323 38.6351124932601  154.686814469618 46.0243110526846  154.686814469618 46.0243110526846  C 154.686814469618 46.0243110526846  146.437520021382 42.0063403326718  146.437520021382 42.0063403326718  C 146.437520021382 42.0063403326718  136.407408106738 42.8314209511129  136.407408106738 42.8314209511129  C 136.407408106738 42.8314209511129  127.870443144697 33.9080881167745  127.870443144697 33.9080881167745  C 127.870443144697 33.9080881167745  123.264975204649 38.394463979548  123.264975204649 38.394463979548  C 123.264975204649 38.394463979548  118.500603552214 39.0884771039139  118.500603552214 39.0884771039139  C 118.500603552214 39.0884771039139  117.371839250429 50.0100520610395  117.371839250429 50.0100520610395  C 117.371839250429 50.0100520610395  100.904778492739 47.3801075897584  100.904778492739 47.3801075897584  C 100.904778492739 47.3801075897584  98.8719068618549 56.4409538605037  98.8719068618549 56.4409538605037  C 98.8719068618549 56.4409538605037  91.4965828317479 56.3872376744073  91.4965828317479 56.3872376744073  C 91.4965828317479 56.3872376744073  86.4253626312544 67.6525962225501  86.4253626312544 67.6525962225501  C 86.4253626312544 67.6525962225501  78.7404503339106 84.5560056633737  78.7404503339106 84.5560056633737  C 78.7404503339106 84.5560056633737  66.8117130281577 106.529131989772  66.8117130281577 106.529131989772  C 66.8117130281577 106.529131989772  69.6089663100072 111.324913084461  69.6089663100072 111.324913084461  C 69.6089663100072 111.324913084461  66.9350003912166 116.812558656072  66.9350003912166 116.812558656072  C 66.9350003912166 116.812558656072  59.3158413541707 116.578356084692  59.3158413541707 116.578356084692  C 59.3158413541707 116.578356084692  54.3268127290499 129.268267888112  54.3268127290499 129.268267888112  C 54.3268127290499 129.268267888112  54.7980444278533 146.551987926498  54.7980444278533 146.551987926498  C 54.7980444278533 146.551987926498  59.7076211967803 152.950660014305  59.7076211967803 152.950660014305  C 59.7076211967803 152.950660014305  57.165161798586 167.404611369131  57.165161798586 167.404611369131  C 57.165161798586 167.404611369131  50.7733969537716 175.595255425115  50.7733969537716 175.595255425115  C 50.7733969537716 175.595255425115  47.387104048418 182.352751636045  47.387104048418 182.352751636045  C 47.387104048418 182.352751636045  42.233692272552 175.15263405168  42.233692272552 175.15263405168  C 42.233692272552 175.15263405168  27.0666068971163 188.616058934888  27.0666068971163 188.616058934888  C 27.0666068971163 188.616058934888  16.8255366056824 191.291125002491  16.8255366056824 191.291125002491  C 16.8255366056824 191.291125002491  6.20364534835496 185.457547192419  6.20364534835496 185.457547192419  C 6.20364534835496 185.457547192419  3.45844673090808 172.857878581641  3.45844673090808 172.857878581641  C 3.45844673090808 172.857878581641  1.02831581905624 144.375408065871  1.02831581905624 144.375408065871  C 1.02831581905624 144.375408065871  8.10227073946359 136.049399220925  8.10227073946359 136.049399220925  C 8.10227073946359 136.049399220925  28.384411822258 124.91081087197  28.384411822258 124.91081087197  C 28.384411822258 124.91081087197  43.5514971976936 110.759818806727  43.5514971976936 110.759818806727  C 43.5514971976936 110.759818806727  57.6144757439564 89.2142733216561  57.6144757439564 89.2142733216561  C 57.6144757439564 89.2142733216561  76.0719638534776 59.6445871992948  76.0719638534776 59.6445871992948  C 76.0719638534776 59.6445871992948  88.9376851184788 47.4531616028497  88.9376851184788 47.4531616028497  C 88.9376851184788 47.4531616028497  112.037606008743 26.1965924407715  112.037606008743 26.1965924407715  C 112.037606008743 26.1965924407715  128.895098117676 18.4786508224368  128.895098117676 18.4786508224368  C 128.895098117676 18.4786508224368  141.533422690813 19.424055697734  141.533422690813 19.424055697734  C 141.533422690813 19.424055697734  153.232023585522 4.39426682795362  153.232023585522 4.39426682795362  C 153.232023585522 4.39426682795362  167.240207748204 5.21290150406316  167.240207748204 5.21290150406316  Z " fill-rule="nonzero" fill="#0984e3" stroke="none" transform="matrix(1 0 0 1 1829 1413 )" />
    <path d="M 167.240207748204 5.21290150406316  C 167.240207748204 5.21290150406316  181.034693814915 1.51078195829732  181.034693814915 1.51078195829732  C 181.034693814915 1.51078195829732  205.062031015524 14.9183420079656  205.062031015524 14.9183420079656  C 205.062031015524 14.9183420079656  195.168905059834 19.7012312179914  195.168905059834 19.7012312179914  C 195.168905059834 19.7012312179914  203.585322377995 30.6915628933205  203.585322377995 30.6915628933205  C 203.585322377995 30.6915628933205  190.514122174563 37.5414509443369  190.514122174563 37.5414509443369  C 190.514122174563 37.5414509443369  184.308658233927 39.0970716936893  184.308658233927 39.0970716936893  C 184.308658233927 39.0970716936893  187.563444618684 27.0818351876404  187.563444618684 27.0818351876404  C 187.563444618684 27.0818351876404  177.705935012323 20.0944337002172  177.705935012323 20.0944337002172  C 177.705935012323 20.0944337002172  165.77719770657 26.0569303569207  165.77719770657 26.0569303569207  C 165.77719770657 26.0569303569207  162.010083835323 38.6351124932601  162.010083835323 38.6351124932601  C 162.010083835323 38.6351124932601  154.686814469618 46.0243110526846  154.686814469618 46.0243110526846  C 154.686814469618 46.0243110526846  146.437520021382 42.0063403326718  146.437520021382 42.0063403326718  C 146.437520021382 42.0063403326718  136.407408106738 42.8314209511129  136.407408106738 42.8314209511129  C 136.407408106738 42.8314209511129  127.870443144697 33.9080881167745  127.870443144697 33.9080881167745  C 127.870443144697 33.9080881167745  123.264975204649 38.394463979548  123.264975204649 38.394463979548  C 123.264975204649 38.394463979548  118.500603552214 39.0884771039139  118.500603552214 39.0884771039139  C 118.500603552214 39.0884771039139  117.371839250429 50.0100520610395  117.371839250429 50.0100520610395  C 117.371839250429 50.0100520610395  100.904778492739 47.3801075897584  100.904778492739 47.3801075897584  C 100.904778492739 47.3801075897584  98.8719068618549 56.4409538605037  98.8719068618549 56.4409538605037  C 98.8719068618549 56.4409538605037  91.4965828317479 56.3872376744073  91.4965828317479 56.3872376744073  C 91.4965828317479 56.3872376744073  86.4253626312544 67.6525962225501  86.4253626312544 67.6525962225501  C 86.4253626312544 67.6525962225501  78.7404503339106 84.5560056633737  78.7404503339106 84.5560056633737  C 78.7404503339106 84.5560056633737  66.8117130281577 106.529131989772  66.8117130281577 106.529131989772  C 66.8117130281577 106.529131989772  69.6089663100072 111.324913084461  69.6089663100072 111.324913084461  C 69.6089663100072 111.324913084461  66.9350003912166 116.812558656072  66.9350003912166 116.812558656072  C 66.9350003912166 116.812558656072  59.3158413541707 116.578356084692  59.3158413541707 116.578356084692  C 59.3158413541707 116.578356084692  54.3268127290499 129.268267888112  54.3268127290499 129.268267888112  C 54.3268127290499 129.268267888112  54.7980444278533 146.551987926498  54.7980444278533 146.551987926498  C 54.7980444278533 146.551987926498  59.7076211967803 152.950660014305  59.7076211967803 152.950660014305  C 59.7076211967803 152.950660014305  57.165161798586 167.404611369131  57.165161798586 167.404611369131  C 57.165161798586 167.404611369131  50.7733969537716 175.595255425115  50.7733969537716 175.595255425115  C 50.7733969537716 175.595255425115  47.387104048418 182.352751636045  47.387104048418 182.352751636045  C 47.387104048418 182.352751636045  42.233692272552 175.15263405168  42.233692272552 175.15263405168  C 42.233692272552 175.15263405168  27.0666068971163 188.616058934888  27.0666068971163 188.616058934888  C 27.0666068971163 188.616058934888  16.8255366056824 191.291125002491  16.8255366056824 191.291125002491  C 16.8255366056824 191.291125002491  6.20364534835496 185.457547192419  6.20364534835496 185.457547192419  C 6.20364534835496 185.457547192419  3.45844673090808 172.857878581641  3.45844673090808 172.857878581641  C 3.45844673090808 172.857878581641  1.02831581905624 144.375408065871  1.02831581905624 144.375408065871  C 1.02831581905624 144.375408065871  8.10227073946359 136.049399220925  8.10227073946359 136.049399220925  C 8.10227073946359 136.049399220925  28.384411822258 124.91081087197  28.384411822258 124.91081087197  C 28.384411822258 124.91081087197  43.5514971976936 110.759818806727  43.5514971976936 110.759818806727  C 43.5514971976936 110.759818806727  57.6144757439564 89.2142733216561  57.6144757439564 89.2142733216561  C 57.6144757439564 89.2142733216561  76.0719638534776 59.6445871992948  76.0719638534776 59.6445871992948  C 76.0719638534776 59.6445871992948  88.9376851184788 47.4531616028497  88.9376851184788 47.4531616028497  C 88.9376851184788 47.4531616028497  112.037606008743 26.1965924407715  112.037606008743 26.1965924407715  C 112.037606008743 26.1965924407715  128.895098117676 18.4786508224368  128.895098117676 18.4786508224368  C 128.895098117676 18.4786508224368  141.533422690813 19.424055697734  141.533422690813 19.424055697734  C 141.533422690813 19.424055697734  153.232023585522 4.39426682795362  153.232023585522 4.39426682795362  C 153.232023585522 4.39426682795362  167.240207748204 5.21290150406316  167.240207748204 5.21290150406316  Z " stroke-width="2" stroke="#505050" fill="none" stroke-opacity="0.211764705882353" transform="matrix(1 0 0 1 1829 1413 )" mask="url(#clip567)" />
  </g>
</svg>