<?xml version="1.0" encoding="utf-8"?>
<svg version="1.1" xmlns:xlink="http://www.w3.org/1999/xlink" width="29px" height="35px" xmlns="http://www.w3.org/2000/svg">
  <defs>
    <mask fill="white" id="clip787">
      <path d="M 19.4372494166438 2.26205456186166  C 19.4372494166438 2.26205456186166  20.5123699286661 0.372213839056418  20.5123699286661 0.372213839056418  C 20.5123699286661 0.372213839056418  26.9524482432554 9.53016737645117  26.9524482432554 9.53016737645117  C 26.9524482432554 9.53016737645117  28.7993136772737 14.5011273309911  28.7993136772737 14.5011273309911  C 28.7993136772737 14.5011273309911  28.8578598437704 24.8185894698481  28.8578598437704 24.8185894698481  C 28.8578598437704 24.8185894698481  26.0449826625635 28.9398875466958  26.0449826625635 28.9398875466958  C 26.0449826625635 28.9398875466958  19.2882228110171 30.3720495776513  19.2882228110171 30.3720495776513  C 19.2882228110171 30.3720495776513  11.3911640632232 33.4553586595864  11.3911640632232 33.4553586595864  C 11.3911640632232 33.4553586595864  4.66899967369733 34.0904152176553  4.66899967369733 34.0904152176553  C 4.66899967369733 34.0904152176553  3.83604739581897 30.0435720476158  3.83604739581897 30.0435720476158  C 3.83604739581897 30.0435720476158  5.21720468725357 24.4244164338053  5.21720468725357 24.4244164338053  C 5.21720468725357 24.4244164338053  1.91999103775929 14.9478567718397  1.91999103775929 14.9478567718397  C 1.91999103775929 14.9478567718397  7.46324852920097 13.6624147043  7.46324852920097 13.6624147043  C 7.46324852920097 13.6624147043  2.34844252893639 7.08191485258531  2.34844252893639 7.08191485258531  C 2.34844252893639 7.08191485258531  2.81681186090653 6.38116278850914  2.81681186090653 6.38116278850914  C 2.81681186090653 6.38116278850914  6.14595978303525 6.65708391373909  6.14595978303525 6.65708391373909  C 6.14595978303525 6.65708391373909  9.05463978214504 3.15332359335855  9.05463978214504 3.15332359335855  C 9.05463978214504 3.15332359335855  14.3264559561949 2.77666935891761  14.3264559561949 2.77666935891761  C 14.3264559561949 2.77666935891761  19.4372494166438 2.26205456186166  19.4372494166438 2.26205456186166  Z " fill-rule="evenodd" />
    </mask>
  </defs>
  <g transform="matrix(1 0 0 1 -2761 -1781 )">
    <path d="M 19.4372494166438 2.26205456186166  C 19.4372494166438 2.26205456186166  20.5123699286661 0.372213839056418  20.5123699286661 0.372213839056418  C 20.5123699286661 0.372213839056418  26.9524482432554 9.53016737645117  26.9524482432554 9.53016737645117  C 26.9524482432554 9.53016737645117  28.7993136772737 14.5011273309911  28.7993136772737 14.5011273309911  C 28.7993136772737 14.5011273309911  28.8578598437704 24.8185894698481  28.8578598437704 24.8185894698481  C 28.8578598437704 24.8185894698481  26.0449826625635 28.9398875466958  26.0449826625635 28.9398875466958  C 26.0449826625635 28.9398875466958  19.2882228110171 30.3720495776513  19.2882228110171 30.3720495776513  C 19.2882228110171 30.3720495776513  11.3911640632232 33.4553586595864  11.3911640632232 33.4553586595864  C 11.3911640632232 33.4553586595864  4.66899967369733 34.0904152176553  4.66899967369733 34.0904152176553  C 4.66899967369733 34.0904152176553  3.83604739581897 30.0435720476158  3.83604739581897 30.0435720476158  C 3.83604739581897 30.0435720476158  5.21720468725357 24.4244164338053  5.21720468725357 24.4244164338053  C 5.21720468725357 24.4244164338053  1.91999103775929 14.9478567718397  1.91999103775929 14.9478567718397  C 1.91999103775929 14.9478567718397  7.46324852920097 13.6624147043  7.46324852920097 13.6624147043  C 7.46324852920097 13.6624147043  2.34844252893639 7.08191485258531  2.34844252893639 7.08191485258531  C 2.34844252893639 7.08191485258531  2.81681186090653 6.38116278850914  2.81681186090653 6.38116278850914  C 2.81681186090653 6.38116278850914  6.14595978303525 6.65708391373909  6.14595978303525 6.65708391373909  C 6.14595978303525 6.65708391373909  9.05463978214504 3.15332359335855  9.05463978214504 3.15332359335855  C 9.05463978214504 3.15332359335855  14.3264559561949 2.77666935891761  14.3264559561949 2.77666935891761  C 14.3264559561949 2.77666935891761  19.4372494166438 2.26205456186166  19.4372494166438 2.26205456186166  Z " fill-rule="nonzero" fill="#55efc4" stroke="none" transform="matrix(1 0 0 1 2761 1781 )" />
    <path d="M 19.4372494166438 2.26205456186166  C 19.4372494166438 2.26205456186166  20.5123699286661 0.372213839056418  20.5123699286661 0.372213839056418  C 20.5123699286661 0.372213839056418  26.9524482432554 9.53016737645117  26.9524482432554 9.53016737645117  C 26.9524482432554 9.53016737645117  28.7993136772737 14.5011273309911  28.7993136772737 14.5011273309911  C 28.7993136772737 14.5011273309911  28.8578598437704 24.8185894698481  28.8578598437704 24.8185894698481  C 28.8578598437704 24.8185894698481  26.0449826625635 28.9398875466958  26.0449826625635 28.9398875466958  C 26.0449826625635 28.9398875466958  19.2882228110171 30.3720495776513  19.2882228110171 30.3720495776513  C 19.2882228110171 30.3720495776513  11.3911640632232 33.4553586595864  11.3911640632232 33.4553586595864  C 11.3911640632232 33.4553586595864  4.66899967369733 34.0904152176553  4.66899967369733 34.0904152176553  C 4.66899967369733 34.0904152176553  3.83604739581897 30.0435720476158  3.83604739581897 30.0435720476158  C 3.83604739581897 30.0435720476158  5.21720468725357 24.4244164338053  5.21720468725357 24.4244164338053  C 5.21720468725357 24.4244164338053  1.91999103775929 14.9478567718397  1.91999103775929 14.9478567718397  C 1.91999103775929 14.9478567718397  7.46324852920097 13.6624147043  7.46324852920097 13.6624147043  C 7.46324852920097 13.6624147043  2.34844252893639 7.08191485258531  2.34844252893639 7.08191485258531  C 2.34844252893639 7.08191485258531  2.81681186090653 6.38116278850914  2.81681186090653 6.38116278850914  C 2.81681186090653 6.38116278850914  6.14595978303525 6.65708391373909  6.14595978303525 6.65708391373909  C 6.14595978303525 6.65708391373909  9.05463978214504 3.15332359335855  9.05463978214504 3.15332359335855  C 9.05463978214504 3.15332359335855  14.3264559561949 2.77666935891761  14.3264559561949 2.77666935891761  C 14.3264559561949 2.77666935891761  19.4372494166438 2.26205456186166  19.4372494166438 2.26205456186166  Z " stroke-width="2" stroke="#505050" fill="none" stroke-opacity="0.211764705882353" transform="matrix(1 0 0 1 2761 1781 )" mask="url(#clip787)" />
  </g>
</svg>