<?xml version="1.0" encoding="utf-8"?>
<svg version="1.1" xmlns:xlink="http://www.w3.org/1999/xlink" width="16px" height="11px" xmlns="http://www.w3.org/2000/svg">
  <g transform="matrix(1 0 0 1 -175 -508 )">
    <path d="M 15.703125 8.91840277777778  C 15.9010416666667 9.16030092592592  16 9.44675925925924  16 9.77777777777778  C 16 10.1087962962963  15.9010416666667 10.3952546296296  15.703125 10.6371527777778  C 15.5052083333333 10.8790509259259  15.2708333333333 11  15 11  L 1 11  C 0.729166666666664 11  0.494791666666664 10.8790509259259  0.296875 10.6371527777778  C 0.0989583333333357 10.3952546296296  0 10.1087962962963  0 9.77777777777778  C 0 9.44675925925924  0.0989583333333357 9.16030092592592  0.296875 8.91840277777778  L 4.74055189323006 3.48724213049659  L 7.296875 0.362847222222216  C 7.49479166666667 0.120949074074081  7.72916666666667 0  8 0  C 8.27083333333334 0  8.50520833333334 0.120949074074081  8.703125 0.362847222222216  L 11.3728319495726 3.62582238281089  L 12.0531350063869 4.45730389669503  L 15.703125 8.91840277777778  Z " fill-rule="nonzero" fill="#ffffff" stroke="none" transform="matrix(1 0 0 1 175 508 )" />
  </g>
</svg>