<?xml version="1.0" encoding="utf-8"?>
<svg version="1.1" xmlns:xlink="http://www.w3.org/1999/xlink" width="16px" height="11px" xmlns="http://www.w3.org/2000/svg">
  <g transform="matrix(1 0 0 1 -175 -529 )">
    <path d="M 15.703125 0.362847222222223  C 15.9010416666667 0.604745370370368  16 0.891203703703701  16 1.22222222222222  C 16 1.55324074074074  15.9010416666667 1.83969907407407  15.703125 2.08159722222222  L 8.703125 10.6371527777778  C 8.50520833333333 10.8790509259259  8.27083333333333 11  8 11  C 7.72916666666667 11  7.49479166666667 10.8790509259259  7.296875 10.6371527777778  L 0.296875 2.08159722222222  C 0.0989583333333333 1.83969907407407  0 1.55324074074074  0 1.22222222222222  C 0 0.891203703703701  0.0989583333333333 0.604745370370368  0.296875 0.362847222222223  C 0.494791666666667 0.120949074074073  0.729166666666667 0  1 0  L 15 0  C 15.2708333333333 0  15.5052083333333 0.120949074074073  15.703125 0.362847222222223  Z " fill-rule="nonzero" fill="#ffffff" stroke="none" transform="matrix(1 0 0 1 175 529 )" />
  </g>
</svg>