<?xml version="1.0" encoding="utf-8"?>
<svg version="1.1" xmlns:xlink="http://www.w3.org/1999/xlink" width="17px" height="11px" xmlns="http://www.w3.org/2000/svg">
  <g transform="matrix(1 0 0 1 -1340 -531 )">
    <path d="M 16.8296593186373 8.99656357388316  C 16.9432197728791 9.1225658648339  17 9.26746849942726  17 9.43127147766323  C 17 9.5950744558992  16.9432197728791 9.73997709049255  16.8296593186373 9.8659793814433  L 15.9779559118236 10.8109965635739  C 15.8643954575818 10.9369988545246  15.7338009352037 11  15.5861723446894 11  C 15.438543754175 11  15.3079492317969 10.9369988545246  15.1943887775551 10.8109965635739  L 8.5 3.38316151202749  L 1.80561122244489 10.8109965635739  C 1.69205076820307 10.9369988545246  1.56145624582498 11  1.41382765531062 11  C 1.26619906479626 11  1.13560454241817 10.9369988545246  1.02204408817635 10.8109965635739  L 0.170340681362725 9.8659793814433  C 0.0567802271209086 9.73997709049255  0 9.5950744558992  0 9.43127147766323  C 0 9.26746849942726  0.0567802271209086 9.1225658648339  0.170340681362725 8.99656357388316  L 8.10821643286573 0.189003436426117  C 8.22177688710755 0.0630011454753708  8.35237140948564 0  8.5 0  C 8.64762859051436 0  8.77822311289245 0.0630011454753708  8.89178356713427 0.189003436426117  L 16.8296593186373 8.99656357388316  Z " fill-rule="nonzero" fill="#ffffff" stroke="none" transform="matrix(1 0 0 1 1340 531 )" />
  </g>
</svg>